<svg width="82" height="82" viewBox="0 0 82 82" fill="none" xmlns="http://www.w3.org/2000/svg">
<path d="M25.3805 10.1523H55.8371V71.0655H25.3805V10.1523Z" fill="#C33220"/>
<path d="M12.6903 10.1523H27.9186V71.0655H12.6903C7.08627 71.0655 2.53809 66.5173 2.53809 60.9133V20.3045C2.53809 14.7005 7.08627 10.1523 12.6903 10.1523Z" fill="black"/>
<path d="M68.5273 71.0654H53.299L53.299 10.1523H68.5273C74.1313 10.1523 78.6794 14.7005 78.6794 20.3045V60.9132C78.6794 66.5172 74.1313 71.0654 68.5273 71.0654Z" fill="#35793C"/>
<path opacity="0.15" d="M68.5273 10.1523H12.6903C7.08373 10.1523 2.53809 14.698 2.53809 20.3045V60.9133C2.53809 66.5198 7.08373 71.0655 12.6903 71.0655H68.5273C74.1339 71.0655 78.6795 66.5198 78.6795 60.9133V20.3045C78.6795 14.698 74.1339 10.1523 68.5273 10.1523ZM76.1415 60.9133C76.1415 65.1112 72.7252 68.5274 68.5273 68.5274H12.6903C8.49234 68.5274 5.07613 65.1112 5.07613 60.9133V20.3045C5.07613 16.1066 8.49234 12.6904 12.6903 12.6904H68.5273C72.7252 12.6904 76.1415 16.1066 76.1415 20.3045V60.9133Z" fill="black"/>
<path opacity="0.2" d="M68.5274 12.6904H12.6903C8.48477 12.6904 5.07617 16.099 5.07617 20.3046V22.8426C5.07617 18.6371 8.48477 15.2285 12.6903 15.2285H68.5274C72.7329 15.2285 76.1415 18.6371 76.1415 22.8426V20.3046C76.1415 16.099 72.7329 12.6904 68.5274 12.6904Z" fill="white"/>
<path d="M51.0122 40.058C51.0122 39.6087 50.8142 39.1544 50.3472 38.6722C50.6239 37.8753 50.4741 37.2585 49.7736 36.5174C49.5122 36.2585 48.9742 35.7052 48.8422 35.388L49.0224 34.7611C49.563 34.7103 49.4919 34.1266 48.9665 34.0276C48.4868 33.9058 48.1239 34.3525 48.5554 34.6443L46.6671 41.2077V40.1265C46.9031 39.9869 46.8574 39.6824 46.6975 39.5504L47.1899 38.8093H46.6671V36.1545C46.799 36.0936 46.8371 35.9438 46.8244 35.8194C47.0452 35.7636 47.1138 35.5301 47.1239 35.3702C47.3422 35.3194 47.4234 35.1469 47.4386 35.0276C47.7711 34.9134 47.799 34.7154 47.86 34.5986H46.2178V31.6139C46.4564 31.4794 46.3447 31.0505 46.096 31.0301V31.0048C46.5859 30.6545 46.3523 30.0885 45.9767 29.9236C46.0199 29.8271 45.9209 29.7281 45.8473 29.7104C45.8397 29.6647 45.8067 29.6063 45.6722 29.5175C45.4945 29.4236 45.563 28.9667 45.4412 28.9286C45.3219 28.9718 45.3879 29.4236 45.2102 29.5175C45.0757 29.6088 45.0427 29.6647 45.0376 29.7104C44.9615 29.7307 44.8625 29.8271 44.9082 29.9236C44.5326 30.0885 44.2991 30.6545 44.7889 31.0048C44.7889 31.0124 44.7889 31.0225 44.7915 31.0301C44.5123 31.053 44.4361 31.5352 44.7102 31.6367V34.5986H44.7026C44.695 34.5403 42.9945 33.7966 42.9641 33.7636V33.2586C44.2991 32.1799 43.4412 30.5175 42.0529 30.1469C41.5859 29.9642 41.261 29.5885 41.1671 29.4692C41.3499 29.3525 41.3499 29.152 41.1976 29.0454C41.7737 28.5429 40.8778 28.0911 40.7991 27.6926C40.8042 27.6495 40.7509 27.6165 40.7103 27.6317C40.6011 27.7281 40.6138 27.9616 40.3702 28.1393C40.1113 28.3144 39.9362 28.8119 40.2661 29.0429C40.1164 29.152 40.1164 29.35 40.2991 29.4667C40.2052 29.586 39.8803 29.9591 39.4133 30.1444C38.025 30.5149 37.1672 32.1799 38.5022 33.256V33.7611C38.4717 33.7839 36.7915 34.5479 36.7712 34.5834V31.6291C37.0326 31.5149 36.9413 31.053 36.6748 31.0301C37.1342 30.6291 36.9793 30.1342 36.558 29.9236C36.6012 29.8271 36.5022 29.7281 36.4286 29.7104C36.421 29.6647 36.388 29.6063 36.2535 29.5175C36.1316 29.4363 36.0859 29.1012 36.0809 28.9794C36.0783 28.9515 36.0555 28.9312 36.0276 28.9286C35.9057 28.9566 35.9692 29.4261 35.7915 29.5175C35.657 29.6088 35.624 29.6647 35.6189 29.7104C35.5428 29.7307 35.4438 29.8271 35.4895 29.9236C35.1139 30.0885 34.8804 30.6545 35.3702 31.0048C35.3702 31.0124 35.3702 31.0175 35.3728 31.0301C35.1113 31.0505 35.0124 31.5022 35.2662 31.6241V34.5961C34.8144 34.5961 33.8575 34.5961 33.4134 34.5936C33.4134 34.5936 33.4159 34.8601 33.7433 34.9819C33.7433 34.9819 33.7281 35.2535 34.0682 35.3423C34.0682 35.3423 34.1418 35.7433 34.4438 35.7738V38.723H34.0682L34.6443 39.4895C34.6443 39.4895 34.3499 39.6747 34.5936 40.0047V40.8473L32.7992 34.5961C33.2306 34.3042 32.8677 33.8575 32.388 33.9794C31.8652 34.0758 31.7941 34.6621 32.3322 34.7129L32.5124 35.3398C31.8499 36.4743 30.4058 37.1012 30.9845 38.5961C28.8398 40.591 31.8398 41.6493 31.2586 43.6112C31.9794 43.1468 32.5657 42.558 32.4692 41.7635C32.3626 41.1417 32.4235 40.3752 32.921 39.9362C33.1723 39.728 33.4515 39.4717 33.6063 39.1519L34.5936 42.591V42.8219C34.5936 42.8219 34.2941 42.9818 34.5682 43.2305C34.5682 43.2305 34.3169 43.3955 34.5682 43.6392C34.5631 44.926 34.69 44.6265 34.0682 45.7737C34.0682 45.7737 33.619 45.6772 33.6926 46.0858C33.6926 46.0858 33.2408 46.1087 33.4667 46.4945L34.0936 46.9767H48.3599C48.4412 46.7229 48.1645 46.5122 47.964 46.5097C47.964 46.2686 47.7356 46.1188 47.5097 46.1518L46.662 45.0732V43.9869C46.898 43.8549 46.8879 43.6189 46.6899 43.5097C46.8752 43.3904 46.7965 43.1544 46.662 43.0783V42.9209L47.7381 39.195C48.1747 39.9615 48.9361 40.1798 48.9209 41.2179C48.3904 42.1366 49.0706 43.0427 49.9564 43.5732C49.4564 42.3219 51.0173 41.2204 51.0097 40.058H51.0122ZM34.7154 46.1493L35.3677 45.1214H37.1113L37.827 46.1493H34.7129H34.7154ZM37.9819 46.1493L37.2331 45.0732L37.2585 40.1316C37.5098 39.9565 37.4971 39.6519 37.2839 39.5174L37.8194 38.7991H37.2408V38.7788C37.5859 38.261 38.7179 36.6824 40.6671 36.6392C42.8752 36.5022 44.0986 38.8067 44.0199 38.7991H43.4996L43.9006 39.4438C43.6722 39.5935 43.7686 39.9184 43.926 39.9945L43.9514 44.5732L43.3016 45.3397L44.0757 46.1493H37.9819ZM47.3447 46.1493H44.1189L44.7762 45.1518H46.5605L47.3447 46.1493Z" fill="#FFFFFC"/>
<path d="M27.7738 55.1745C28.6418 55.0603 30.8271 54.0629 32.157 52.8142C33.8727 51.205 35.3397 50.1594 37.6214 51.167C36.7356 51.903 35.7864 52.6593 35.0352 53.5908C33.3118 55.7989 30.1621 57.2354 27.7738 55.1745Z" fill="white"/>
<path d="M29.4033 46.7051C28.0759 45.1645 26.2561 44.728 24.5252 43.9082C22.1217 42.8676 20.4821 40.7432 20.7257 38.0098C21.845 41.8118 28.6038 39.6087 29.4033 46.7051Z" fill="white"/>
<path d="M21.1344 44.2837C21.5659 44.6771 23.5379 46.606 26.5861 46.441C28.2917 46.3471 29.9059 47.0629 30.9947 48.5121C26.6876 48.2837 22.51 49.8039 21.1369 44.2837H21.1344Z" fill="white"/>
<path d="M34.2078 50.322C31.6317 50.3677 29.8627 52.7027 27.2891 52.6468C26.0683 52.6037 25.0607 52.1646 24.1749 51.3423C25.0506 52.157 27.048 50.7687 28.2257 50.1037C30.2739 48.9464 32.2611 48.8347 34.2104 50.322H34.2078Z" fill="white"/>
<path d="M21.9009 32.8701C22.6369 35.0655 23.8146 35.6188 24.9008 36.0554C25.7079 36.3802 28.0455 36.8802 28.0049 41.733C26.0988 37.9665 20.3679 38.0985 21.9009 32.8701Z" fill="white"/>
<path d="M27.7738 36.8066C26.4185 35.266 25.1063 33.8117 23.8424 32.3168C23.3272 31.7356 22.9033 30.9843 23.2028 30.1467C23.3906 30.5427 23.5759 30.9335 23.7612 31.3218C23.7967 31.3142 23.8322 31.3092 23.8678 31.3015C23.6165 30.167 23.5759 29.0681 24.3855 28.0884C24.4617 29.1188 24.5353 30.1239 24.6089 31.1315C24.6495 31.1366 24.6876 31.1416 24.7282 31.1467C24.817 30.7635 25.5226 29.2203 25.9109 29.2153C26.2383 29.7305 24.5302 31.6137 25.4312 31.5909C25.6673 31.0274 25.8119 30.4031 26.3576 29.9158C26.5632 30.7432 25.9515 31.1696 25.6495 31.7609C25.7231 31.8218 25.8094 31.8954 25.9033 31.9767C26.2155 31.7 26.2053 31.1442 26.7104 31.0934C27.0277 31.667 25.9211 32.2152 26.6419 32.6391C26.7738 32.3904 26.9084 32.1391 27.053 31.8675C27.3576 32.0147 27.416 32.1924 27.2307 32.4462C26.5657 33.3066 28.0886 33.7102 27.7764 36.8091L27.7738 36.8066Z" fill="white"/>
<path d="M29.6191 30.5632C29.0404 31.9997 28.4719 33.4134 27.9034 34.8271C27.9211 34.8449 27.9389 34.8626 27.9541 34.8804C27.8805 34.3804 27.7511 33.8804 27.7003 33.3779C27.6369 31.9616 26.9719 30.7256 26.5582 29.4134C26.1496 27.9744 25.6699 26.4135 26.8881 25.1851C26.8399 26.0861 26.7968 26.9109 26.7511 27.7409C27.6699 26.5048 28.5049 25.8856 29.9465 25.312C29.7587 25.9845 29.5379 26.2561 29.0226 26.4566C27.9973 26.9109 26.9897 27.8297 27.043 29.0251C27.7511 28.0607 28.4313 27.1089 29.614 26.6394C29.2739 27.7663 28.3551 28.4947 27.515 29.2332C27.2435 29.449 27.2485 29.6241 27.477 29.9058C28.3754 29.1546 29.2764 28.4033 30.1749 27.6495C30.2054 27.6749 30.2333 27.7028 30.2637 27.7282C29.8602 28.9388 28.5353 29.4972 27.614 30.3018C27.6775 30.421 27.7384 30.5302 27.8221 30.6875C28.6648 29.9845 29.477 29.3068 30.2866 28.6317C30.3272 28.6622 30.3653 28.6901 30.4059 28.7206C29.9211 29.7079 28.9643 30.3043 28.1597 31.0124C27.7308 31.35 28.2155 32.0073 28.2435 32.5429C28.5988 31.7561 28.9084 31.0023 29.6191 30.5657V30.5632Z" fill="white"/>
<path d="M45.1112 23.9084C44.4259 24.515 43.3574 24.6622 42.2635 24.2054C41.9336 25.0023 41.2686 25.1876 40.4615 25.1216C40.898 24.8247 41.3346 24.5302 41.7686 24.2333C40.8955 24.0277 40.0275 24.3374 39.2585 23.8754C38.3295 24.8475 37.8042 24.9566 36.9133 24.3551C36.4717 25.0252 36.0351 25.7307 35.0351 25.3247C34.3905 26.5505 33.3626 26.7257 32.5783 25.7485C32.2458 26.1825 31.9057 26.8982 31.2357 26.6546C30.6164 26.3424 30.9134 25.6825 30.8474 25.0607C31.0707 25.4642 30.9844 26.0048 31.5352 25.9845C32.0606 25.9642 32.3423 25.6115 32.4692 25.2155C33.1138 25.4972 33.761 25.9414 34.4438 25.4896C34.6671 25.378 34.7534 25.1648 34.662 24.878C34.4133 24.0988 34.2306 23.3044 34.3524 22.4541C34.7052 23.1495 34.6976 25.3475 35.8372 24.8399C36.2966 24.6648 36.624 24.3424 36.8219 23.8348C36.459 23.9643 36.1316 24.0835 35.8042 24.2003C35.7864 24.1673 35.7686 24.1343 35.7509 24.1013C36.1341 23.8424 36.5199 23.5836 36.8981 23.3272C37.1544 24.0201 37.926 24.2917 38.6544 23.9236C39.2153 23.6597 38.7229 22.8653 38.7889 22.3704C38.827 22.3628 38.8651 22.3526 38.9031 22.345C39.1316 22.911 39.3422 23.4617 40.0579 23.449C40.6848 23.4643 41.3143 23.4516 41.997 23.4516C41.9259 22.916 41.8498 22.3602 41.7762 21.8044C41.827 21.7942 41.8777 21.7841 41.9285 21.7739C42.1645 22.3856 42.096 23.2688 42.6188 23.7054C43.3346 23.9922 44.0503 23.9744 44.8269 23.5886C44.4665 23.4084 44.2153 23.3627 44.129 22.9744C44.8371 22.5252 45.7305 23.7434 45.9614 24.345C45.7956 24.4025 45.5114 24.2561 45.1087 23.9059L45.1112 23.9084Z" fill="white"/>
<path d="M46.5656 22.0479C46.8194 22.8296 46.8651 23.6316 46.7306 24.4412C46.7078 25.5326 43.7763 26.2965 43.9692 24.6367C44.6342 25.157 45.3347 25.0783 46.0479 24.7458C46.8347 24.4032 46.1748 22.8118 46.3905 22.0758C46.4489 22.0656 46.5072 22.058 46.5656 22.0479Z" fill="white"/>
<path d="M49.7483 26.0862C49.124 26.609 48.695 26.4847 48.3372 25.7055C47.7966 26.5964 46.2763 26.6801 46.5276 25.3299C47.2509 25.9695 47.6976 25.9085 48.5098 25.0405C48.3778 26.0507 49.223 25.8629 49.7483 26.0862Z" fill="white"/>
<path d="M53.4437 55.1745C52.5757 55.0603 50.3904 54.0629 49.0605 52.8142C47.3448 51.205 45.8778 50.1594 43.5961 51.167C44.4818 51.903 45.4311 52.6593 46.1823 53.5908C47.9057 55.7989 51.0554 57.2354 53.4437 55.1745Z" fill="white"/>
<path d="M51.8142 46.7051C53.1416 45.1645 54.9614 44.728 56.6923 43.9082C59.0959 42.8676 60.7354 40.7432 60.4918 38.0098C59.3725 41.8118 52.6137 39.6087 51.8142 46.7051Z" fill="white"/>
<path d="M60.0832 44.2837C59.6517 44.6771 57.6797 46.606 54.6315 46.441C52.9259 46.3471 51.3117 47.0629 50.2229 48.5121C54.53 48.2837 58.7101 49.8039 60.0832 44.2837Z" fill="white"/>
<path d="M47.0097 50.322C49.5859 50.3677 51.3549 52.7027 53.9285 52.6468C55.1493 52.6037 56.1569 52.1646 57.0426 51.3423C56.167 52.157 54.1696 50.7687 52.9919 50.1037C50.9437 48.9464 48.959 48.8347 47.0097 50.322Z" fill="white"/>
<path d="M59.3167 32.8701C58.5807 35.0655 57.403 35.6188 56.3167 36.0554C55.5096 36.3802 53.1721 36.8802 53.2127 41.733C55.1188 37.9665 60.8497 38.0985 59.3167 32.8701Z" fill="white"/>
<path d="M53.4437 36.8066C54.799 35.266 56.1112 33.8117 57.3752 32.3168C57.8904 31.7356 58.3142 30.9843 58.0147 30.1467C57.8269 30.5427 57.6416 30.9335 57.4564 31.3218C57.4208 31.3142 57.3853 31.3092 57.3498 31.3015C57.601 30.167 57.6416 29.0681 56.832 28.0884C56.7559 29.1188 56.6823 30.1239 56.6087 31.1315C56.5681 31.1366 56.53 31.1416 56.4894 31.1467C56.4005 30.7635 55.695 29.2203 55.3066 29.2153C54.9792 29.7305 56.6873 31.6137 55.7863 31.5909C55.5503 31.0274 55.4056 30.4031 54.8599 29.9158C54.6544 30.7432 55.266 31.1696 55.5681 31.7609C55.4945 31.8218 55.4082 31.8954 55.3143 31.9767C55.0021 31.7 55.0122 31.1442 54.5072 31.0934C54.1899 31.667 55.2965 32.2152 54.5757 32.6391C54.4437 32.3904 54.3092 32.1391 54.1645 31.8675C53.86 32.0147 53.8016 32.1924 53.9869 32.4462C54.6518 33.3066 53.129 33.7102 53.4412 36.8091L53.4437 36.8066Z" fill="white"/>
<path d="M51.5984 30.5632C52.1771 31.9997 52.7456 33.4134 53.3142 34.8271C53.2964 34.8449 53.2786 34.8626 53.2634 34.8804C53.337 34.3804 53.4664 33.8804 53.5172 33.3779C53.5807 31.9616 54.2456 30.7256 54.6593 29.4134C55.0679 27.9744 55.5476 26.4135 54.3294 25.1851C54.3776 26.0861 54.4207 26.9109 54.4664 27.7409C53.5477 26.5048 52.7126 25.8856 51.271 25.312C51.4588 25.9845 51.6797 26.2561 52.1949 26.4566C53.2203 26.9109 54.2279 27.8297 54.1746 29.0251C53.4664 28.0607 52.7862 27.1089 51.6035 26.6394C51.9436 27.7663 52.8624 28.4947 53.7025 29.2332C53.9741 29.449 53.969 29.6241 53.7406 29.9058C52.8421 29.1546 51.9411 28.4033 51.0426 27.6495C51.0122 27.6749 50.9842 27.7028 50.9538 27.7282C51.3573 28.9388 52.6822 29.4972 53.6035 30.3018C53.54 30.421 53.4791 30.5302 53.3954 30.6875C52.5527 29.9845 51.7406 29.3068 50.9309 28.6317C50.8903 28.6622 50.8523 28.6901 50.8116 28.7206C51.2964 29.7079 52.2533 30.3043 53.0578 31.0124C53.4867 31.35 53.002 32.0073 52.9741 32.5429C52.6187 31.7561 52.3091 31.0023 51.5984 30.5657V30.5632Z" fill="white"/>
<path d="M48.2634 58.1925C47.5122 57.9818 46.7939 57.7813 46.0756 57.5808C46.0807 57.5504 46.0858 57.5199 46.0934 57.4894C46.497 57.3118 46.903 57.1367 47.3066 56.959L47.2939 56.9717C47.5959 56.756 47.8954 56.5428 48.2431 56.294C47.6898 55.9489 47.2051 55.5935 46.6695 55.3423C46.502 55.2636 46.2025 55.4641 46.002 55.525C44.4614 54.5072 44.2889 52.5377 42.9818 51.3677C42.9411 51.3778 42.9005 51.388 42.8599 51.4007C42.997 52.4413 43.6442 53.3042 44.0325 54.3067C43.8422 54.3372 43.6746 54.3651 43.5122 54.3905C43.0173 53.4235 42.8752 52.322 42.2229 51.459C42.162 51.4667 42.1036 51.4768 42.0427 51.4844C42.0173 52.5352 42.6924 53.4539 42.9919 54.4717C42.8142 54.4971 42.634 54.525 42.4564 54.5504C42.0528 53.5199 41.9006 52.4134 41.1797 51.5631C41.1264 51.5707 41.0706 51.5758 41.0173 51.5834C41.0072 52.6824 41.6696 53.5453 42.03 54.6468H39.195C39.5554 53.5453 40.2204 52.6824 40.2077 51.5834C40.1544 51.5758 40.0985 51.5707 40.0452 51.5631C39.3244 52.4134 39.1721 53.5174 38.7686 54.5504C38.5909 54.525 38.4107 54.4971 38.2331 54.4717C38.5326 53.4539 39.2077 52.5352 39.1823 51.4844C39.1214 51.4768 39.063 51.4667 39.0021 51.459C38.3498 52.322 38.2077 53.4235 37.7128 54.3905C37.5478 54.3626 37.3828 54.3372 37.1925 54.3067C37.5808 53.3042 38.228 52.4413 38.365 51.4007C38.3244 51.3905 38.2838 51.3804 38.2432 51.3677C36.9361 52.5377 36.7635 54.5072 35.2229 55.525C35.0224 55.4641 34.723 55.2636 34.5554 55.3423C34.0199 55.5935 33.5326 55.9489 32.9819 56.294C33.3296 56.5428 33.6316 56.7585 33.9311 56.9717L33.9184 56.959C34.3219 57.1367 34.728 57.3118 35.1316 57.4894C35.1367 57.5199 35.1417 57.5504 35.1493 57.5808C34.4311 57.7813 33.7128 57.9818 32.9615 58.1925C35.6214 59.6468 36.7001 57.6062 38.4488 58.3473C37.7813 58.6595 37.1519 58.9564 36.4158 59.3016C39.2077 59.9031 39.7432 58.4311 40.6138 58.4514C41.4843 58.4311 42.0198 59.9031 44.8117 59.3016C44.0757 58.9564 43.4462 58.6595 42.7787 58.3473C44.5274 57.6087 45.6061 59.6468 48.2634 58.1925Z" fill="white"/>
</svg>
