<svg width="82" height="82" viewBox="0 0 82 82" fill="none" xmlns="http://www.w3.org/2000/svg">
<path d="M68.5273 10.1523H12.6903C7.08338 10.1523 2.53809 14.6976 2.53809 20.3045V60.9133C2.53809 66.5202 7.08338 71.0655 12.6903 71.0655H68.5273C74.1342 71.0655 78.6795 66.5202 78.6795 60.9133V20.3045C78.6795 14.6976 74.1342 10.1523 68.5273 10.1523Z" fill="#EA3323"/>
<path opacity="0.15" d="M68.5273 10.1523H12.6903C7.08373 10.1523 2.53809 14.698 2.53809 20.3045V60.9133C2.53809 66.5198 7.08373 71.0655 12.6903 71.0655H68.5273C74.1339 71.0655 78.6795 66.5198 78.6795 60.9133V20.3045C78.6795 14.698 74.1339 10.1523 68.5273 10.1523ZM76.1415 60.9133C76.1415 65.1112 72.7252 68.5274 68.5273 68.5274H12.6903C8.49234 68.5274 5.07613 65.1112 5.07613 60.9133V20.3045C5.07613 16.1066 8.49234 12.6904 12.6903 12.6904H68.5273C72.7252 12.6904 76.1415 16.1066 76.1415 20.3045V60.9133Z" fill="black"/>
<path d="M59.9106 49.7155C59.2863 48.982 58.5908 48.9287 57.7178 49.8678C56.8041 49.8957 56.1645 49.9109 55.2508 49.9439C55.7406 49.5302 56.002 49.213 56.4944 48.7993C58.0477 49.5049 57.9868 47.6394 59.4462 47.6419C59.0147 47.2815 58.6543 47.1495 57.8751 47.5099C56.7254 46.9922 56.6289 47.7257 56.4234 48.2079C55.6442 48.7206 55.0147 49.1521 54.2356 49.6648C52.6467 49.2003 51.3574 48.9414 49.7686 48.4795C52.931 46.2587 45.7915 46.7993 45.5478 42.8323C45.5707 39.7791 46.9361 44.3095 48.2153 44.7892C50.7229 45.1064 47.7711 43.5531 47.7001 41.9364C48.8041 39.4643 49.3498 44.1267 50.1721 44.5151C51.0021 46.0176 53.9488 45.9084 52.464 44.345C50.4386 44.0633 49.332 40.2461 51.1315 41.0912C53.266 42.9846 55.9157 48.1495 59.1441 45.6318C59.7812 44.9135 59.5553 44.1343 58.5528 44.3044C56.2939 44.4922 54.5807 43.3932 52.7076 40.4288C52.3371 39.7537 52.2356 38.7968 53.0503 39.51C54.2635 41.2841 57.7609 43.5354 59.3497 42.0633C59.8193 41.2587 59.7127 40.373 58.8624 40.6648C57.3903 42.1242 50.7026 37.6446 53.4462 36.8298C55.3041 38.373 57.7 39.6192 58.9259 38.8679C59.8243 38.3171 59.8421 36.9111 58.7 36.9999C56.398 37.3121 55.5274 36.8095 53.3193 34.9009C51.4767 32.6954 58.3243 36.7436 59.0401 35.2156C61.3827 31.7309 55.9563 35.6446 53.0782 32.4162C51.3752 29.6751 58.7355 34.8705 59.5578 30.7385C60.1898 27.7944 55.8878 32.7867 53.3472 29.9187C51.0351 27.8756 59.469 30.4923 59.5426 27.0685C60.0248 24.1421 55.6543 28.6243 53.6848 27.5914C50.6772 25.9924 59.9893 25.8122 59.7355 22.4239C59.4056 18.0585 55.931 25.5584 52.9132 24.8528C51.7127 23.3883 49.0706 25.9772 47.3473 26.5203C47.0681 27.2487 47.8879 29.1929 47.0097 29.7081C44.9463 31.3096 43.2661 28.2792 45.1595 26.2589C46.1366 24.1675 50.0935 24.6701 51.4894 23.0939C50.7889 23.401 49.6518 23.665 49.1062 23.0356C50.4259 22.9391 52.596 23.3401 53.3548 21.9087C53.4894 21.264 53.0579 21.1473 52.6543 21.5635C51.8016 22.6523 50.7787 22.7944 49.4412 22.5939C49.9107 22.0432 50.9742 21.2589 51.5275 22.2386C51.6417 21.5305 51.4412 20.7361 49.5173 21.066C49.5427 20.5356 48.3955 20.3046 47.7052 20.3148C46.2889 20.528 44.6773 21.3731 43.0478 21.3757C43.662 21.8909 43.7813 21.9214 44.4006 22.3604C43.4641 22.7005 42.7357 23.4087 42.4108 23.8706C43.2306 23.9086 43.4996 23.8401 43.7788 23.9594C42.6392 24.2894 42.1214 24.4822 41.5199 25.0863C43.256 25.0761 40.9489 26.4518 40.6139 27.0736C40.2788 26.4492 37.9743 25.0761 39.7078 25.0863C39.1063 24.4822 38.5885 24.2894 37.4489 23.9594C37.7281 23.8401 37.9971 23.9086 38.8169 23.8706C38.492 23.4087 37.7662 22.7031 36.8271 22.3604C37.4464 21.9214 37.5682 21.8909 38.1799 21.3757C36.553 21.3757 34.9362 20.528 33.5225 20.3148C32.8322 20.3046 31.685 20.5356 31.7104 21.066C29.7865 20.7361 29.586 21.5305 29.7002 22.2386C30.2535 21.2589 31.317 22.0432 31.7865 22.5939C30.449 22.7944 29.4261 22.6549 28.5734 21.5635C28.1698 21.1498 27.7383 21.2665 27.8729 21.9087C28.6292 23.3401 30.8018 22.9417 32.1215 23.0356C31.5733 23.665 30.4388 23.3985 29.7383 23.0939C31.1368 24.6726 35.0911 24.1675 36.0682 26.2589C37.9616 28.2792 36.2814 31.3096 34.218 29.7081C33.3398 29.1878 34.1596 27.2513 33.8804 26.5203C32.1545 25.9746 29.5175 23.3883 28.3145 24.8503C25.2891 25.5533 21.8298 18.061 21.4922 22.4214C21.2536 25.8249 30.5378 25.9772 27.5429 27.5888C25.5607 28.6218 21.2105 24.1371 21.6826 27.0634C21.7765 30.5 30.1774 27.8604 27.8805 29.9137C26.7104 30.7538 24.6165 31.5735 22.7714 29.9035C21.9262 29.2563 21.3577 29.7995 21.6699 30.7335C22.4897 33.1674 25.6191 32.6548 27.7688 31.4568C28.3221 31.1472 28.8246 31.8654 28.1495 32.4111C25.2714 35.637 19.8475 31.7284 22.1876 35.2131C22.9389 36.7461 29.7332 32.6903 27.9109 34.8984C25.7028 36.807 24.8323 37.3095 22.5303 36.9974C21.3881 36.9085 21.4059 38.3146 22.3044 38.8654C23.5303 39.6166 25.9236 38.3704 27.7815 36.8273C30.5251 37.6369 23.8399 42.1242 22.3653 40.6623C21.5125 40.3704 21.4059 41.2562 21.8754 42.0608C23.4693 43.5303 26.9592 41.2841 28.1749 39.5075C28.9896 38.7943 28.8881 39.7511 28.5175 40.4263C26.6444 43.3882 24.9287 44.4897 22.6724 44.3019C21.6724 44.1318 21.444 44.911 22.081 45.6293C25.2764 49.7003 30.9261 37.34 30.8855 42.3247C31.2967 43.3679 26.4186 44.9694 29.2434 45.6546C31.4718 46.1419 32.5276 38.9846 33.5276 41.9288C33.4667 43.5506 30.4972 45.0988 33.0124 44.7841C34.3068 44.3145 35.6393 39.7613 35.6799 42.8273C35.4261 46.8069 28.2967 46.2409 31.4566 48.4744C29.8703 48.9363 28.5784 49.1952 26.9896 49.6597C26.2104 49.1495 25.581 48.7155 24.8018 48.2028C24.5962 47.7231 24.4998 46.9896 23.3501 47.5049C22.5709 47.1445 22.2105 47.2764 21.779 47.6368C23.2384 47.6368 23.18 49.5023 24.7308 48.7942C25.2206 49.2079 25.482 49.5252 25.9744 49.9389C25.0582 49.9084 24.4211 49.8906 23.5074 49.8627C22.6343 48.9262 21.9389 48.9769 21.3145 49.7104C20.8374 49.784 20.6369 49.7942 20.312 50.3729C21.4668 49.8297 22.5861 51.3449 23.3627 50.3297C24.2587 50.3856 25.0632 50.4312 25.9592 50.4896C25.6292 50.7688 25.1774 50.9185 24.85 51.2003C22.9059 50.5455 22.2942 52.3449 22.3831 53.8018C22.5125 53.3678 22.7232 52.9972 23.1064 52.7637C24.3044 53.0683 24.7536 52.5784 24.8196 51.8627C25.3957 51.3906 26.2663 51.2866 26.8449 50.8119C27.5175 51.0277 27.8449 51.1622 28.5226 51.3754C28.6216 52.8069 31.3601 51.6647 31.1495 53.0226C31.4287 52.5251 31.421 52.0429 30.7713 51.6013C30.5353 50.9592 30.0099 50.6673 29.3246 51.0378C28.6774 50.8551 28.5074 50.5911 27.8652 50.4084C29.4947 49.8881 30.6495 49.7713 32.2789 49.2536C34.3931 52.147 35.0911 47.3957 36.3931 46.5049C37.1063 45.3374 38.992 44.7663 38.7712 46.8298C38.5403 48.7764 36.9311 50.4363 35.5251 51.2383C34.5835 51.8525 34.185 51.5835 33.4566 51.5454C31.1368 51.9414 34.0911 53.553 34.9312 53.0683C38.9235 50.0074 36.355 54.7307 34.119 54.454C32.9896 54.6063 33.2002 55.2408 33.9515 55.5505C35.3017 56.1063 36.52 55.0632 37.1393 54.3779C37.6164 53.8551 37.9565 53.8348 37.8728 54.6444C37.8144 57.1621 33.9261 56.2002 35.454 57.7789C36.8829 58.7687 37.9184 57.0835 38.4032 56.0657C39.9692 54.4566 39.3398 58.4972 37.657 59.2129C38.5936 60.7053 39.6849 62.223 40.6215 63.7179C41.558 62.2205 42.6494 60.7027 43.5859 59.2129C41.9006 58.5048 41.2788 54.4464 42.8397 56.0657C43.3219 57.0835 44.3575 58.7687 45.7864 57.7789C47.3168 56.2104 43.4235 57.1571 43.3676 54.6444C43.2839 53.8348 43.6214 53.8551 44.0986 54.3779C44.7179 55.0632 45.9361 56.1063 47.2864 55.5505C48.0351 55.2408 48.2483 54.6063 47.1189 54.454C44.8778 54.7282 42.3194 50.0099 46.3067 53.0683C47.1442 53.553 50.1011 51.9414 47.7813 51.5454C47.0529 51.5835 46.6544 51.8525 45.7128 51.2383C44.3067 50.4363 42.7027 48.7815 42.4666 46.8298C42.2509 44.7714 44.129 45.3323 44.8448 46.5049C46.1468 47.3907 46.8473 52.147 48.959 49.2536C50.5858 49.7713 51.7432 49.8881 53.3726 50.4084C52.7279 50.5911 52.5579 50.8551 51.9132 51.0378C51.2254 50.6673 50.7026 50.9592 50.4666 51.6013C49.8168 52.0404 49.8092 52.5251 50.0884 53.0226C49.8803 51.6647 52.6163 52.8069 52.7153 51.3754C53.3929 51.1597 53.7203 51.0277 54.3929 50.8119C54.969 51.2891 55.8396 51.3932 56.4183 51.8627C56.4843 52.5784 56.9335 53.0683 58.1315 52.7637C58.5147 52.9972 58.7254 53.3703 58.8548 53.8018C58.9411 52.3449 58.332 50.548 56.3878 51.2003C56.0579 50.9185 55.6061 50.7688 55.2787 50.4896C56.1746 50.4312 56.9817 50.3856 57.8751 50.3297C58.6543 51.3449 59.766 49.8323 60.9258 50.3729C60.601 49.7942 60.3979 49.784 59.9233 49.7104L59.9106 49.7155Z" fill="black"/>
<path opacity="0.2" d="M68.5274 12.6904H12.6903C8.48477 12.6904 5.07617 16.099 5.07617 20.3046V22.8426C5.07617 18.6371 8.48477 15.2285 12.6903 15.2285H68.5274C72.7329 15.2285 76.1415 18.6371 76.1415 22.8426V20.3046C76.1415 16.099 72.7329 12.6904 68.5274 12.6904Z" fill="white"/>
</svg>
