<svg width="82" height="82" viewBox="0 0 82 82" fill="none" xmlns="http://www.w3.org/2000/svg">
<path d="M68.5273 71.0654H38.0707L38.0707 10.1523L68.5273 10.1523C74.1313 10.1523 78.6794 14.7005 78.6794 20.3045V60.9132C78.6794 66.5172 74.1313 71.0654 68.5273 71.0654Z" fill="white"/>
<path d="M12.6902 10.1523H40.6087V71.0655H12.6902C7.08621 71.0655 2.53802 66.5173 2.53802 60.9133V20.3045C2.53802 14.7005 7.08621 10.1523 12.6902 10.1523Z" fill="#2B6536"/>
<path opacity="0.15" d="M68.5273 10.1523H12.6902C7.08367 10.1523 2.53802 14.698 2.53802 20.3045V60.9133C2.53802 66.5198 7.08367 71.0655 12.6902 71.0655H68.5273C74.1338 71.0655 78.6794 66.5198 78.6794 60.9133V20.3045C78.6794 14.698 74.1338 10.1523 68.5273 10.1523ZM76.1414 60.9133C76.1414 65.1112 72.7252 68.5274 68.5273 68.5274H12.6902C8.49228 68.5274 5.07607 65.1112 5.07607 60.9133V20.3045C5.07607 16.1066 8.49228 12.6904 12.6902 12.6904H68.5273C72.7252 12.6904 76.1414 16.1066 76.1414 20.3045V60.9133Z" fill="black"/>
<path d="M48.4538 44.2305L52.7126 50.0934V42.8473L59.6009 40.6087L52.7126 38.3701V31.124L48.4538 36.9869L41.563 34.7484L45.8218 40.6087L41.563 46.4691L48.4538 44.2305Z" fill="#C22B38"/>
<path d="M36.4083 53.063C29.5302 47.5555 28.4185 37.515 33.9261 30.6368C39.4336 23.7587 49.4741 22.6471 56.3523 28.1546C57.2685 28.8881 58.101 29.7206 58.8345 30.6368C53.3269 21.0989 41.129 17.8299 31.5911 23.3374C22.0531 28.845 18.7841 41.0428 24.2916 50.5808C29.7992 60.1188 41.9971 63.3878 51.535 57.8802C54.568 56.129 57.0858 53.6113 58.8345 50.5808C53.3269 57.4589 43.2864 58.5706 36.4083 53.063Z" fill="#C22B38"/>
<path opacity="0.2" d="M68.5272 12.6904H12.6902C8.48465 12.6904 5.07605 16.099 5.07605 20.3046V22.8426C5.07605 18.6371 8.48465 15.2285 12.6902 15.2285H68.5272C72.7328 15.2285 76.1414 18.6371 76.1414 22.8426V20.3046C76.1414 16.099 72.7328 12.6904 68.5272 12.6904Z" fill="white"/>
</svg>
