<svg width="82" height="82" viewBox="0 0 82 82" fill="none" xmlns="http://www.w3.org/2000/svg">
<path d="M2.53815 60.9132C2.53815 66.5198 7.08379 71.0654 12.6903 71.0654H68.5274C74.1339 71.0654 78.6796 66.5198 78.6796 60.9132V38.0708H2.53815V60.9132Z" fill="black"/>
<path d="M68.5274 10.1523H12.6903C7.08379 10.1523 2.53815 14.698 2.53815 20.3045V40.6089H78.6796V20.3045C78.6796 14.698 74.1339 10.1523 68.5274 10.1523Z" fill="#BC2833"/>
<path opacity="0.15" d="M68.5274 10.1523H12.6903C7.08379 10.1523 2.53815 14.698 2.53815 20.3045V60.9133C2.53815 66.5198 7.08379 71.0655 12.6903 71.0655H68.5274C74.1339 71.0655 78.6796 66.5198 78.6796 60.9133V20.3045C78.6796 14.698 74.1339 10.1523 68.5274 10.1523ZM76.1415 60.9133C76.1415 65.1112 72.7253 68.5274 68.5274 68.5274H12.6903C8.49241 68.5274 5.07619 65.1112 5.07619 60.9133V20.3045C5.07619 16.1066 8.49241 12.6904 12.6903 12.6904H68.5274C72.7253 12.6904 76.1415 16.1066 76.1415 20.3045V60.9133Z" fill="black"/>
<path fill-rule="evenodd" clip-rule="evenodd" d="M33.2712 28.9209H37.8169L39.195 24.6367L40.6112 28.9209H45.1569L41.5046 31.6417L42.9209 36.0021L39.195 33.3549L35.5047 36.0021L36.9209 31.6417L33.2687 28.9209H33.2712Z" fill="#FFCB00"/>
<path fill-rule="evenodd" clip-rule="evenodd" d="M49.8905 52.3597L46.3144 49.5653C49.9286 46.6212 52.2763 42.1136 52.2763 37.0832C52.2763 29.4056 46.7992 22.959 39.5683 21.431L40.1267 18.8219C41.1317 19.0453 42.3145 19.4691 43.2815 19.8042L44.2129 18.2407C45.218 18.7255 46.3373 19.2077 47.2687 19.8042L46.5606 21.4818C47.4921 22.0782 48.6165 23.0021 49.2433 23.728L50.6418 22.6341C51.388 23.4539 52.2814 24.3092 52.9159 25.2051L51.6494 26.5097C52.4667 27.7102 52.7839 28.2635 53.388 29.6467L55.1646 29.2305C55.4996 30.2736 56.0098 31.5502 56.1976 32.6315L54.5149 33.2939C54.7154 34.134 54.9768 35.601 54.959 36.8345C54.959 36.9081 54.9514 36.9918 54.9514 37.068L56.7103 37.3192C56.6367 38.4004 56.5986 39.6314 56.3753 40.7101H54.5504C54.289 41.8268 53.954 43.1948 53.5453 44.2379L55.0732 45.1339C54.5885 46.1034 54.1062 47.2582 53.4717 48.1897L51.7941 47.4816C51.1596 48.413 50.454 49.3064 49.6697 50.1262L50.7509 51.5424C50.454 51.8039 50.1926 52.0653 49.8931 52.3622M42.0302 52.0272L44.7307 53.6541C44.4794 53.8851 43.7231 54.2759 43.5251 54.3546L43.9667 56.05C42.9236 56.385 41.8043 56.8698 40.6495 57.0931L39.9795 55.4155C38.8983 55.6388 37.8196 55.7886 36.7003 55.7886L36.477 57.5398C35.4338 57.4662 34.1673 57.5398 33.0125 57.2784V55.5272C31.9694 55.3394 30.9618 55.0805 29.9948 54.7429L29.1369 56.2708C28.2435 55.8977 27.0507 55.451 26.0811 54.8546L26.7156 53.1769C25.9339 52.7658 25.2258 52.2455 24.5532 51.7226L26.2309 49.5983C28.9897 51.7962 32.4542 53.1008 36.2562 53.1008C38.2688 53.1008 40.2434 52.7658 42.0328 52.0221" fill="#FFCB00"/>
<path d="M59.2762 60.2761L53.6366 55.9157L52.7382 55.2253L37.8906 43.8168C35.0962 41.6189 32.4135 39.6443 31.9668 37.0352L31.147 39.0478C30.1775 41.5453 29.9922 43.8549 34.6876 46.799L51.1037 57.3294L53.1798 58.7228L57.0249 61.3928C57.398 61.6542 57.4336 62.8471 58.8117 63.0324C59.3726 63.106 59.7432 62.6974 59.7432 62.6974C60.3447 61.9664 60.1797 60.9588 59.2787 60.2761H59.2762Z" fill="#FFCB00"/>
<path opacity="0.2" d="M68.5273 12.6904H12.6903C8.48471 12.6904 5.07611 16.099 5.07611 20.3046V22.8426C5.07611 18.6371 8.48471 15.2285 12.6903 15.2285H68.5273C72.7328 15.2285 76.1414 18.6371 76.1414 22.8426V20.3046C76.1414 16.099 72.7328 12.6904 68.5273 12.6904Z" fill="white"/>
</svg>
