<svg width="82" height="82" viewBox="0 0 82 82" fill="none" xmlns="http://www.w3.org/2000/svg">
<path d="M68.5278 10.1523H12.6908C7.08386 10.1523 2.53857 14.6976 2.53857 20.3045V60.9133C2.53857 66.5202 7.08386 71.0655 12.6908 71.0655H68.5278C74.1347 71.0655 78.68 66.5202 78.68 60.9133V20.3045C78.68 14.6976 74.1347 10.1523 68.5278 10.1523Z" fill="#001B69"/>
<path d="M16.4978 34.9585V40.6089H26.65V34.9562L34.3583 40.6089H40.6093V37.4589L31.0614 30.4567H40.6093V20.3045H33.655L40.6093 15.2048V10.1523H36.952L26.65 17.7079V10.1523H16.4978V17.2424L8.23243 11.1785C6.28448 12.128 4.70581 13.6744 3.70049 15.5893L10.1271 20.3045H2.53857V30.4567H12.0898L2.53857 37.4615V40.6089H8.79283L16.4978 34.9585Z" fill="white"/>
<path d="M4.58296 14.1853L12.9215 20.3043H16.3823L5.98853 12.6782C5.47 13.1338 4.9997 13.6338 4.58296 14.1853Z" fill="#CA0A2B"/>
<path d="M2.5376 40.6087L16.3816 30.4565V32.9946L5.99873 40.6087H2.5376Z" fill="#CA0A2B"/>
<path d="M24.112 40.6089H19.0359V27.9187H2.53857V22.8426H19.0359V10.1523H24.112V22.8426H40.6093V27.9187H24.112V40.6089Z" fill="#CA0A2B"/>
<path d="M40.6092 39.7628L27.9189 30.4565V32.9946L38.3018 40.6087H40.6092V39.7628Z" fill="#CA0A2B"/>
<path d="M40.6094 10.1523H39.9789L26.1199 20.3157H29.5808L40.6094 12.2282V10.1523Z" fill="#CA0A2B"/>
<path opacity="0.15" d="M68.5278 10.1523H12.6908C7.08396 10.1523 2.53857 14.6975 2.53857 20.3045V60.9133C2.53857 66.5203 7.08396 71.0655 12.6908 71.0655H68.5278C74.1349 71.0655 78.68 66.5203 78.68 60.9133V20.3045C78.68 14.6975 74.1349 10.1523 68.5278 10.1523ZM76.1419 60.9133C76.1419 65.112 72.7265 68.5274 68.5278 68.5274H12.6908C8.49207 68.5274 5.07662 65.112 5.07662 60.9133V20.3045C5.07662 16.1058 8.49207 12.6904 12.6908 12.6904H68.5278C72.7265 12.6904 76.1419 16.1058 76.1419 20.3045V60.9133Z" fill="black"/>
<path opacity="0.2" d="M68.5272 12.6904H12.6902C8.4849 12.6904 5.07605 16.0993 5.07605 20.3046V22.8426C5.07605 18.6373 8.4849 15.2285 12.6902 15.2285H68.5272C72.7325 15.2285 76.1414 18.6373 76.1414 22.8426V20.3046C76.1414 16.0993 72.7325 12.6904 68.5272 12.6904Z" fill="white"/>
<path d="M47.5432 29.3462C47.5432 43.6945 49.2069 48.6384 52.5376 51.9691C54.5241 53.9411 55.4046 54.683 58.4888 56.7104C61.573 54.683 62.4537 53.9411 64.44 51.9691C67.7707 48.6384 69.4344 43.6945 69.4344 29.3462C67.0118 30.3835 65.6314 30.8863 63.6337 30.8556C61.8466 30.8282 59.953 29.9982 58.4888 29.3462C57.0243 29.998 55.131 30.8279 53.3439 30.8556C51.3462 30.8863 49.9658 30.3835 47.5432 29.3462Z" fill="white"/>
<path d="M58.8345 36.53C59.3489 37.6836 60.9979 38.9572 61.4512 39.5813C60.8741 40.2054 60.7588 40.1374 60.8345 41.297C61.8378 40.296 61.8558 40.1917 62.5012 40.3435C64.4276 43.3914 61.8834 45.5901 58.8789 46.0216C59.6817 46.6759 60.6116 45.9256 61.3718 46.1261C61.7847 46.5934 61.1753 47.4447 61.4964 48.2467C62.1682 48.185 62.0875 46.8921 62.2438 46.4233C62.7344 44.7059 65.6847 43.5082 65.8347 41.9328C66.4567 41.6544 67.0783 41.8457 67.8349 42.2505C67.4583 40.7747 66.2121 40.7904 65.8781 40.3295C65.0829 39.1711 64.3783 37.8498 62.6801 37.5069C61.2586 37.7958 59.3281 35.7943 58.8345 36.53Z" fill="#F09D38"/>
<path d="M54.7125 41.4231C55.542 40.4508 55.9529 38.4655 56.3199 37.7919C57.1684 37.9869 57.1592 38.1158 58.1993 37.5102C56.8024 37.132 56.6971 37.1655 56.5364 36.5506C58.4034 33.5605 61.614 34.5417 63.4944 36.9513C63.7264 35.9691 62.596 35.5356 62.4269 34.8011C62.6673 34.2346 63.7417 34.3506 64.3353 33.7054C63.9642 33.1681 62.8031 33.8399 62.2952 33.9273C60.4732 34.3158 57.9841 32.3887 56.4529 32.9981C55.9042 32.6037 55.7912 31.9905 55.8133 31.1636C54.6204 32.1707 55.2174 33.2136 54.9458 33.7105C54.243 34.9219 53.3468 36.1331 53.8222 37.7247C54.74 38.7869 53.8263 41.433 54.7125 41.4231Z" fill="#F09D38"/>
<path d="M61.4514 42.1071C60.1493 41.9335 58.1549 42.6251 57.3603 42.6741C57.0963 41.881 57.2169 41.8218 56.1352 41.2863C56.5182 42.6218 56.6027 42.6901 56.1339 43.1393C52.5217 43.1548 51.6799 40.0777 52.8943 37.2549C51.8926 37.5739 52.0883 38.7204 51.5164 39.2381C50.8837 39.3351 50.4319 38.3985 49.5456 38.2478C49.255 38.8285 50.4591 39.4285 50.7999 39.7975C52.0913 41.083 51.6489 44.1109 52.988 45.0449C52.9179 45.6967 52.4258 46.1061 51.672 46.5157C53.1931 46.968 53.8205 45.9416 54.407 45.9061C55.858 45.853 57.409 45.9576 58.5917 44.7464C59.0712 43.4393 61.8755 42.8685 61.4514 42.1071Z" fill="#F09D38"/>
<path d="M50.2888 48.9243C50.9271 50.1362 51.6761 51.1075 52.5375 51.969C54.5241 53.941 55.4045 54.6829 58.4887 56.7103C61.573 54.6829 62.4537 53.941 64.4402 51.969C65.3016 51.1075 66.0503 50.1362 66.6887 48.9243H50.2888Z" fill="#A3CAF9"/>
</svg>
