<svg width="82" height="82" viewBox="0 0 82 82" fill="none" xmlns="http://www.w3.org/2000/svg">
<path d="M68.5273 10.1523H12.6902C7.08331 10.1523 2.53802 14.6976 2.53802 20.3045V60.9133C2.53802 66.5202 7.08331 71.0655 12.6902 71.0655H68.5273C74.1342 71.0655 78.6794 66.5202 78.6794 60.9133V20.3045C78.6794 14.6976 74.1342 10.1523 68.5273 10.1523Z" fill="#0A9FDC"/>
<path opacity="0.15" d="M68.5273 10.1523H12.6902C7.08341 10.1523 2.53802 14.6975 2.53802 20.3045V60.9133C2.53802 66.5203 7.08341 71.0655 12.6902 71.0655H68.5273C74.1343 71.0655 78.6794 66.5203 78.6794 60.9133V20.3045C78.6794 14.6975 74.1343 10.1523 68.5273 10.1523ZM76.1414 60.9133C76.1414 65.112 72.7259 68.5274 68.5273 68.5274H12.6902C8.49152 68.5274 5.07607 65.112 5.07607 60.9133V20.3045C5.07607 16.1058 8.49152 12.6904 12.6902 12.6904H68.5273C72.7259 12.6904 76.1414 16.1058 76.1414 20.3045V60.9133Z" fill="black"/>
<path opacity="0.2" d="M68.5273 12.6904H12.6903C8.48496 12.6904 5.07611 16.0993 5.07611 20.3046V22.8426C5.07611 18.6373 8.48496 15.2285 12.6903 15.2285H68.5273C72.7326 15.2285 76.1414 18.6373 76.1414 22.8426V20.3046C76.1414 16.0993 72.7326 12.6904 68.5273 12.6904Z" fill="white"/>
<path d="M61.6057 43.3029C59.2776 41.0512 63.3991 38.2718 57.5641 37.1733C58.8573 34.5837 57.8923 28.2769 55.3 27.8307C54.1748 27.4782 52.3063 25.9577 51.218 27.2236C50.8822 25.663 50.285 25.5572 49.2284 24.8516C47.6772 25.8165 46.0295 24.3831 44.997 23.4361C43.612 22.9163 40.3305 23.9067 39.6435 22.2095C38.9702 23.7239 38.5633 23.5437 37.3169 23.2181C37.0983 24.1107 35.8933 25.4176 34.4354 26.1099C34.4882 28.6802 32.9882 31.4416 32.3745 33.3749C27.4319 35.8459 23.2025 31.9518 19.5609 29.0221C19.2706 33.0667 22.8348 33.583 21.8833 36.1791C22.4368 37.4357 23.431 35.9748 23.8751 37.1708C23.6198 38.7487 25.7743 37.757 24.6513 39.2009C23.3266 40.2238 24.6738 43.1372 23.0617 42.7611C22.232 44.026 25.0388 45.7897 24.7386 44.3286C25.97 47.4849 26.1624 45.7613 26.485 47.6141C26.6746 47.7983 26.4413 48.4024 26.4893 49.4239C27.6611 49.1217 27.1017 49.9813 27.4157 50.5069C29.2213 49.8932 31.3827 52.7851 32.5367 51.9625C36.0628 52.4843 44.361 50.5503 43.3805 55.0779C40.1988 58.5101 44.3409 58.5132 47.4942 58.6589C48.5467 59.1718 49.0972 58.4208 50.0561 57.7949C50.6259 58.6766 51.4335 58.5855 52.3063 57.7411C53.1368 58.0556 54.272 55.9871 55.2908 56.8426C55.1076 56.2614 54.9543 55.7031 56.1444 55.2769C55.3131 54.1356 57.2129 53.3973 57.9875 52.6813C57.3555 50.9805 58.3228 50.7338 59.6872 50.0871C58.9235 47.2504 61.773 46.1098 61.6057 43.3029Z" fill="white"/>
</svg>
