<svg width="82" height="82" viewBox="0 0 82 82" fill="none" xmlns="http://www.w3.org/2000/svg">
<path d="M68.5276 10.1523H12.6905C7.08362 10.1523 2.53833 14.6976 2.53833 20.3045V60.9133C2.53833 66.5202 7.08362 71.0655 12.6905 71.0655H68.5276C74.1345 71.0655 78.6797 66.5202 78.6797 60.9133V20.3045C78.6797 14.6976 74.1345 10.1523 68.5276 10.1523Z" fill="black"/>
<path d="M40.6091 44.817L20.4697 38.1039L30.7335 36.1394L22.0052 30.3958L32.2386 32.5075L26.3706 23.8629L35.0152 29.7308L32.9036 19.4974L38.6472 28.2258L40.6116 17.9619L42.5761 28.2258L48.3197 19.4974L46.208 29.7308L54.8526 23.8629L48.9846 32.5075L59.218 30.3958L50.4897 36.1394L60.7536 38.1039L40.6141 44.817H40.6091Z" fill="#FCD116"/>
<path d="M5.07639 38.0708H76.1417V50.761H5.07639V38.0708Z" fill="#0072C6"/>
<path d="M12.6904 48.2227H68.5274V71.0651H12.6904V48.2227Z" fill="white"/>
<path d="M2.53833 20.3046V60.9133C2.53833 66.5199 7.08397 71.0655 12.6905 71.0655H40.609L4.87841 13.896C3.43934 15.6472 2.53833 17.8604 2.53833 20.3046Z" fill="#CE1126"/>
<path d="M40.609 71.0655H68.5275C74.1341 71.0655 78.6797 66.5199 78.6797 60.9133V20.3046C78.6797 17.8604 77.7812 15.6472 76.3396 13.896L40.609 71.0655Z" fill="#CE1126"/>
<path opacity="0.15" d="M68.5276 10.1523H12.6905C7.08397 10.1523 2.53833 14.698 2.53833 20.3045V60.9133C2.53833 66.5198 7.08397 71.0655 12.6905 71.0655H68.5276C74.1341 71.0655 78.6797 66.5198 78.6797 60.9133V20.3045C78.6797 14.698 74.1341 10.1523 68.5276 10.1523ZM76.1417 60.9133C76.1417 65.1112 72.7255 68.5274 68.5276 68.5274H12.6905C8.49259 68.5274 5.07638 65.1112 5.07638 60.9133V20.3045C5.07638 16.1066 8.49259 12.6904 12.6905 12.6904H68.5276C72.7255 12.6904 76.1417 16.1066 76.1417 20.3045V60.9133Z" fill="black"/>
<path opacity="0.2" d="M68.5276 12.6904H12.6905C8.48498 12.6904 5.07639 16.099 5.07639 20.3046V22.8426C5.07639 18.6371 8.48498 15.2285 12.6905 15.2285H68.5276C72.7331 15.2285 76.1417 18.6371 76.1417 22.8426V20.3046C76.1417 16.099 72.7331 12.6904 68.5276 12.6904Z" fill="white"/>
</svg>
