<svg id="Layer_1" data-name="Layer 1" xmlns="http://www.w3.org/2000/svg" width="127.97" height="199.52" viewBox="0 0 127.97 199.52"><title>Argentina national football team logo - Brandlogos.net</title><path d="M359.75,284.58c-.1.21-.43,1.14-.74,2.06s-.76,2.26-1,3-.49,1.53-.57,1.84-.45,1.39-.81,2.41a8.33,8.33,0,0,1-.85,2c-.11.07-2.84.11-6.07.08s-5.91,0-6,0a5.94,5.94,0,0,0,1.3,1.13c.78.59,1.77,1.31,2.2,1.61s.91.63,1,.74l1.37,1c.62.45,1.48,1.06,1.92,1.35a17.57,17.57,0,0,1,1.4,1.07l.61.53c-.47,1.37-1,3-1.45,4.41s-.91,2.79-1,3-.39,1.17-.7,2.21-.56,2-.56,2,.23,0,.52-.23,1-.7,1.51-1.08l2.24-1.59c.69-.49,1.36-1,1.49-1.13A15.58,15.58,0,0,1,357,310c.57-.38,1.42-1,1.88-1.39a3.57,3.57,0,0,1,1.08-.69,2.61,2.61,0,0,1,.92.58,7,7,0,0,0,1,.74,1.4,1.4,0,0,1,.4.27s.48.39,1,.75,1.42,1,2.08,1.48,1.34.95,1.52,1.11a8.45,8.45,0,0,0,1,.75,16.87,16.87,0,0,1,1.4,1c.55.44.68.49.68.26a28.51,28.51,0,0,0-.8-2.76l-1.6-5c-.44-1.37-.91-2.79-1-3.17l-.24-.68,5-3.6,4.15-3,.87-.66c-1.1-.06-3.87-.1-6.85-.12l-5.44,0a24.91,24.91,0,0,1-1-2.89c-.36-1.14-1.13-3.52-1.71-5.28s-1.1-3.27-1.15-3.36S359.84,284.36,359.75,284.58Zm47.08.82c-.23.64-.46,1.38-.52,1.65s-.32,1-.56,1.68-.86,2.51-1.37,4.12c-.92,2.84-.95,2.91-1.42,3-.26.05-3.07.09-6.24.1-5.14,0-5.73,0-5.44.24l.56.43,1.12.88a5.93,5.93,0,0,0,1,.69,2.35,2.35,0,0,1,.72.49l.72.6,1,.66a10.68,10.68,0,0,1,.88.64c0,.05.48.38,1,.74s1.13.8,1.44,1a7.6,7.6,0,0,1,.92.67c.32.3.34.4.19.93-.09.33-.21.71-.26.84s-.23.68-.38,1.21-.39,1.28-.53,1.68-.54,1.58-.9,2.64-.67,2.11-.72,2.33a12.34,12.34,0,0,1-.4,1.32c-.18.51-.32,1-.32,1s.05.08.12.08a19.53,19.53,0,0,0,1.88-1.29l2.56-1.83c.44-.3,1.84-1.31,3.12-2.25,1.94-1.43,2.37-1.69,2.64-1.56a8.78,8.78,0,0,1,1,.74l.88.71.64.44c.26.17.92.63,1.45,1l1.42,1.05c.25.17.64.47.87.65s1.07.78,1.86,1.32a11.32,11.32,0,0,0,1.56,1c.07,0,.09-.09.05-.2s-.51-1.61-1.05-3.33-1.05-3.3-1.14-3.52-.31-.83-.49-1.36a11.83,11.83,0,0,1-.36-1.21,4.34,4.34,0,0,0-.15-.56l-.27-.68a2.2,2.2,0,0,1-.15-.68c0-.21.36-.57,1.08-1.07s1.67-1.19,2.39-1.72,2.22-1.62,3.34-2.42,2.29-1.64,2.61-1.89c.47-.36.52-.44.26-.45h-6.08c-3.17,0-5.85-.05-5.95-.11a15.64,15.64,0,0,1-1-2.52c-.44-1.33-1.26-3.9-1.83-5.73a20.84,20.84,0,0,0-1.2-3.33A3,3,0,0,0,406.83,285.4Z" transform="translate(-320.02 -284.24)" style="fill:#d5b048"/><path d="M349.6,295.9a9.09,9.09,0,0,0,1.28,0c.31,0,0-.07-.72-.07S349.2,295.86,349.6,295.9Zm4.32,0a9.09,9.09,0,0,0,1.28,0c.31,0,0-.07-.72-.07S353.52,295.86,353.92,295.9Zm14.88,0a9.09,9.09,0,0,0,1.28,0c.31,0,0-.07-.72-.07S368.4,295.86,368.8,295.9Zm4.24,0a10.28,10.28,0,0,0,1.36,0c.4,0,.11-.06-.64-.06S372.69,295.86,373,295.9Zm19,0a14.21,14.21,0,0,0,1.6,0c.4,0,0-.06-.88-.06S391.52,295.87,392,295.9Zm5.36,0a10.28,10.28,0,0,0,1.36,0c.4,0,.11-.06-.64-.06S397,295.86,397.36,295.9Zm19.2,0a10.28,10.28,0,0,0,1.36,0c.4,0,.11-.06-.64-.06S416.21,295.86,416.56,295.9Z" transform="translate(-320.02 -284.24)" style="fill:#fffffe"/><path d="M340.78,330.5l0,4.54-14.32.08c0,9.44.06,12.27.13,12.38s1.13.2,4.39.2h4.28l-.08,3.21-8.71.08c0,10.23.05,12.42.15,12.44l6.32.05,7,.06.84,0c0,62.26.05,73.85.18,75.28a28.1,28.1,0,0,0,.56,3.56,15.33,15.33,0,0,0,1,2.73c.34.66.81,1.49,1,1.84a19.4,19.4,0,0,0,3.85,4,19.32,19.32,0,0,0,2.72,1.65,16.93,16.93,0,0,0,3.2,1.1,32.58,32.58,0,0,0,3.76.57c1.1.08,4.2.22,6.88.31a52.63,52.63,0,0,1,6.56.45,33.16,33.16,0,0,1,3.52.9,20.47,20.47,0,0,1,3.31,1.42,25.67,25.67,0,0,1,2.79,1.88,19.51,19.51,0,0,1,2.26,2.16,15.82,15.82,0,0,1,1.45,2.05,3.34,3.34,0,0,0,.63.92c.07,0,.12-.07.12-.16a10.29,10.29,0,0,1,.94-1.56,14.64,14.64,0,0,1,2.36-2.7,23.83,23.83,0,0,1,2.86-2.18,24.46,24.46,0,0,1,3.12-1.54,22.85,22.85,0,0,1,3.28-1c.88-.18,2.21-.4,3-.5s3.23-.2,5.52-.25,4.74-.12,5.44-.16,2-.19,2.8-.31a22.41,22.41,0,0,0,3-.74,21,21,0,0,0,2.08-.79c.31-.16,1.14-.66,1.84-1.13a18.62,18.62,0,0,0,2.41-2,19.55,19.55,0,0,0,1.94-2.34c.44-.66.91-1.42,1-1.68s.46-1.13.74-1.92a21.12,21.12,0,0,0,.67-2.49c.1-.57.24-2.09.3-3.36s.11-18.46.11-38.18c0-35.72,0-35.85.31-35.92s3.31-.05,7,0,6.71,0,6.8,0a49.61,49.61,0,0,0,.12-6.3l0-6.25H433.6V347.7c6.39,0,8.33-.06,8.43-.12s.2-1.72.22-6.29l0-6.17-14.2-.08c0-5.53,0-7.56,0-8.09l-.08-1-87.22,0Z" transform="translate(-320.02 -284.24)" style="fill:#d5b048"/><path d="M370.88,326a6,6,0,0,0,1.2,0c.35,0,.1-.06-.56-.06S370.57,326,370.88,326Zm57.17,4.53c0,.67,0,1,.07.65a8.14,8.14,0,0,0,0-1.21C428.08,329.64,428.05,329.89,428.05,330.55Zm-101.6,7.3c0,.7,0,1,.07.56a9.08,9.08,0,0,0,0-1.28C326.48,336.82,326.45,337.14,326.45,337.85Z" transform="translate(-320.02 -284.24)" style="fill:#fffffe"/><path d="M329.68,338a25.93,25.93,0,0,0-.11,3.53l0,3.42,109.77-.08c.06-6,0-6.83-.13-6.89s-24.78-.08-54.81-.08S329.75,338,329.68,338Z" transform="translate(-320.02 -284.24)" style="fill:#43a1d5"/><path d="M442.3,340.17c0,.75,0,1,.06.64a10.28,10.28,0,0,0,0-1.36C442.32,339.1,442.3,339.42,442.3,340.17Zm-115.84,2.56c0,.75,0,1,.06.65a10.43,10.43,0,0,0,0-1.37C326.48,341.66,326.46,342,326.46,342.73ZM442.3,345.3c0,.75,0,1,.06.64a10.28,10.28,0,0,0,0-1.36C442.32,344.22,442.3,344.55,442.3,345.3Zm-103.74,4.08v4.41l91.39-.08,0-8.65L338.56,345Zm-12.11,3c0,.66,0,1,.07.64a8,8,0,0,0,0-1.2C326.48,351.44,326.45,351.69,326.45,352.35Zm115.85,2.16c0,.8,0,1.16.06.8a11.51,11.51,0,0,0,0-1.44C442.32,353.43,442.3,353.72,442.3,354.51Z" transform="translate(-320.02 -284.24)" style="fill:#fffffe"/><path d="M329.68,353.9a25.73,25.73,0,0,0-.11,3.52l0,3.42H439.36c.07-5.53,0-6.85-.08-6.93s-24.75-.11-54.81-.12S329.75,353.84,329.68,353.9Z" transform="translate(-320.02 -284.24)" style="fill:#43a1d5"/><path d="M326.45,357.08c0,.7,0,.95.07.56a9.08,9.08,0,0,0,0-1.28C326.48,356.05,326.45,356.37,326.45,357.08ZM442.3,359.4c0,.75,0,1,.06.64a10.28,10.28,0,0,0,0-1.36C442.32,358.33,442.3,358.65,442.3,359.4ZM326.46,362c0,.74,0,1,.06.64a10.43,10.43,0,0,0,0-1.37C326.48,360.89,326.46,361.22,326.46,362Zm1.46,1.55a5.22,5.22,0,0,0,1.12,0c.35,0,.14-.06-.48-.06S327.66,363.49,327.92,363.52Zm4.72,0a6.82,6.82,0,0,0,1.28,0c.31,0,0-.06-.72-.06S332.24,363.49,332.64,363.52Zm4.8,0a6.82,6.82,0,0,0,1.28,0c.31,0,0-.06-.72-.06S337,363.49,337.44,363.52Zm96,0a6.82,6.82,0,0,0,1.28,0c.31,0,0-.06-.72-.06S433,363.49,433.44,363.52Zm4.8,0a6.82,6.82,0,0,0,1.28,0c.31,0,0-.06-.72-.06S437.84,363.49,438.24,363.52Z" transform="translate(-320.02 -284.24)" style="fill:#fffffe"/><path d="M359.2,366.37a12.77,12.77,0,0,0,.89,2,28.4,28.4,0,0,0,1.64,2.76c.41.57,1,1.28,1.22,1.58s.91,1,1.42,1.44,1.35,1.21,1.84,1.58a17.31,17.31,0,0,0,2.11,1.27,24.5,24.5,0,0,0,2.32,1c.62.21,2,.59,3,.85s2.49.58,3.28.71a19.18,19.18,0,0,0,2.08.26,2.25,2.25,0,0,1,.84.12c.15.09.19,5,.16,23.17l0,23c-2.6.93-3.68,1.36-4.08,1.57a12.16,12.16,0,0,0-1.52,1,8.53,8.53,0,0,0-1.26,1.14,5.72,5.72,0,0,0-.76,1.19,3.87,3.87,0,0,0-.3,1.24,1.26,1.26,0,0,0,.4,1,.9.9,0,0,0,1,.3,7.31,7.31,0,0,0,1.7-.68c.61-.32,1.26-.67,1.44-.78a5.36,5.36,0,0,1,1.3-.36,15.73,15.73,0,0,1,2.16-.16,11,11,0,0,1,2.4.3,12,12,0,0,1,2.08.74,10.8,10.8,0,0,1,2.4,2,9.63,9.63,0,0,0,2.68,2.14,14.2,14.2,0,0,0,2.4.9,11.1,11.1,0,0,0,2.84.32,12.07,12.07,0,0,0,2.4-.21,9.93,9.93,0,0,0,1.52-.58,13.6,13.6,0,0,0,1.52-1,6.89,6.89,0,0,0,1.25-1.21,2.47,2.47,0,0,0,.48-1.29,2.51,2.51,0,0,0-.21-1.1,1.87,1.87,0,0,0-.68-.66,2.48,2.48,0,0,0-.92-.22,11.65,11.65,0,0,0-2,.42,6.11,6.11,0,0,1-2.28.34,6.29,6.29,0,0,1-1.76-.57,28.43,28.43,0,0,1-3-2,25.45,25.45,0,0,0-3.44-2.17,26.72,26.72,0,0,0-2.52-1l-1.08-.33V403h6.4v6.41h4.64V391l-4.56.08-.08,6h-6.4V379.67a33.42,33.42,0,0,0,4-1.22c1.17-.43,2.68-.92,3.36-1.1a25.23,25.23,0,0,1,2.68-.47,14.53,14.53,0,0,1,2.72,0,13.15,13.15,0,0,1,2.24.47,12.33,12.33,0,0,1,1.76.79,22.09,22.09,0,0,1,2.08,1.41c.7.53,2,1.39,2.8,1.92a25.09,25.09,0,0,0,2.4,1.32,7,7,0,0,0,1.68.44,2.92,2.92,0,0,0,1.36-.16,3.34,3.34,0,0,0,1-.73,2.63,2.63,0,0,0,.54-1.1,19.66,19.66,0,0,0-.39-5.41,11,11,0,0,0-.72-1.93,11.82,11.82,0,0,0-1.11-1.68,12,12,0,0,0-1.81-1.72,12.59,12.59,0,0,0-2.23-1.31,19.4,19.4,0,0,0-2.08-.73A20.93,20.93,0,0,0,402,368a13.78,13.78,0,0,0-3.28,0c-1,.1-2.24.28-2.72.39s-2.14.62-3.68,1.11-3.56,1-4.48,1.22-2.44.41-3.36.5-3.21.16-5.08.16a47.69,47.69,0,0,1-5.28-.24c-1-.13-2.6-.39-3.48-.58s-2.43-.58-3.44-.89-2.6-.88-3.52-1.29-2.08-1-2.56-1.22-1.08-.62-1.32-.78a2.52,2.52,0,0,0-.52-.29S359.2,366.24,359.2,366.37Z" transform="translate(-320.02 -284.24)" style="fill:#173e69"/><path d="M428.05,369c0,.66,0,.95.07.64a8,8,0,0,0,0-1.2C428.08,368.1,428.05,368.36,428.05,369Z" transform="translate(-320.02 -284.24)" style="fill:#fffffe"/><path d="M327.33,378a21,21,0,0,0-1.17,2.93c-.42,1.23-.89,2.85-1.06,3.6s-.4,1.76-.51,2.24l-.2.89a23.11,23.11,0,0,0-1.49-3.63,12.9,12.9,0,0,0-1.42-2.12,3,3,0,0,0-.76-.7,5.23,5.23,0,0,0-.27,1.08,13,13,0,0,0,.09,3.76,29,29,0,0,0,.48,3.45,13.61,13.61,0,0,1,.34,1.6,15.22,15.22,0,0,0,.35,1.76c.12.49.36,1.39.53,2s.58,2,.93,3,.73,2.14.84,2.41.51,1.13.89,1.92a18.27,18.27,0,0,0,1.22,2.13l.52.7a33.4,33.4,0,0,1-1.1,4.86c-.38,1.24-.82,2.79-1,3.45s-.35,1.45-.44,1.76l-.17.56c-.8-2-1.24-3-1.49-3.46a14,14,0,0,0-1.19-1.8,3.33,3.33,0,0,0-.92-.91c-.12,0-.24.31-.3.76a19.64,19.64,0,0,0,0,2.61c.06,1,.17,2.42.26,3.12s.31,1.93.5,2.73.37,1.69.41,2,.36,1.53.72,2.72.94,3,1.28,4a29,29,0,0,0,1.29,3.12,17.65,17.65,0,0,0,1.19,2.05l.52.72a23.08,23.08,0,0,0-.22,4.25c.06,1,.13,2.16.18,2.56s.15,1.26.23,1.92.19,1.37.24,1.57,0,.35-.05.35a3.11,3.11,0,0,1-.68-.75,20.32,20.32,0,0,0-1.68-1.84,9,9,0,0,0-1.24-1.09.62.62,0,0,1-.32-.21,6.65,6.65,0,0,0-1-.64L321,439a5.27,5.27,0,0,0,.22,1.84c.12.35.44,1.13.72,1.72s.5,1.12.5,1.17.52,1,1.16,2.2a22.43,22.43,0,0,0,1.33,2.28,19.17,19.17,0,0,1,1.16,1.81,8.24,8.24,0,0,0,1.15,1.64.2.2,0,0,1,.17.2,3.69,3.69,0,0,0,.6,1c.32.44.86,1.12,1.2,1.52l.93,1.12c.18.23,1,1.12,1.87,2a15.73,15.73,0,0,0,1.95,1.78,14.2,14.2,0,0,1,1.84,1.78,23,23,0,0,0,2.56,2.39,11.28,11.28,0,0,0,1.65,1.05c.29.13.52.28.52.35s.12.16.27.2a4.47,4.47,0,0,1,.6.28c.18.11.64.44,1,.73a2.85,2.85,0,0,0,1,.52c.15,0,.28.05.28.11a2.44,2.44,0,0,0,.87.52c.48.22.84.46.8.52a13.13,13.13,0,0,1-2.51.09,21.17,21.17,0,0,0-3.36.16c-.63.14-1,.29-1.08.52a1.84,1.84,0,0,0-.16.36,1.66,1.66,0,0,0,.28.36,3.06,3.06,0,0,0,.6.5,3.8,3.8,0,0,0,1,.29,8.74,8.74,0,0,1,1.24.34,3.52,3.52,0,0,0,1,.23,7.15,7.15,0,0,1,1.44.32,7.06,7.06,0,0,0,1.8.32c.44,0,.84.07.88.16s.39.16.76.16a11.82,11.82,0,0,1,1.56.15c.48.09,1.28.2,1.76.25s2.18.16,3.76.25,3.53.1,4.32,0l1.6-.13L361,472c.31-.06,1-.15,1.48-.19.67-.06,1,0,1,.14a.9.9,0,0,0,.52.3c.22,0,1.41.35,2.64.68a16.74,16.74,0,0,1,2.45.78c.11.1.15.23.08.29s-.45.28-.85.5l-1.76.95c-.57.3-1.36.76-1.76,1a15.09,15.09,0,0,0-1.49,1.11,5.78,5.78,0,0,0-1.09,1.21c-.17.31-.27.6-.21.64a16.53,16.53,0,0,0,2.28.14,33.63,33.63,0,0,0,3.79-.14,23.34,23.34,0,0,0,3.12-.65c.84-.25,2.4-.81,3.47-1.23a8.89,8.89,0,0,1,2-.64.16.16,0,0,1-.11.16,10,10,0,0,0-1.1,1.24c-.54.66-1.42,1.89-2,2.73-.76,1.17-1,1.65-1,2.12v.6h3.44a18.93,18.93,0,0,1,1.16-3c.34-.67,1-1.82,1.51-2.57a22.85,22.85,0,0,1,1.84-2.38,7.34,7.34,0,0,1,1.37-1.25,11.11,11.11,0,0,1,4.4,0,7.34,7.34,0,0,1,1.37,1.25,24.32,24.32,0,0,1,1.85,2.38,23.85,23.85,0,0,1,1.57,2.73,18.51,18.51,0,0,1,.86,2.12l.23.76h3.44a3.78,3.78,0,0,0-.3-1.72,13.62,13.62,0,0,0-.92-1.47c-.34-.47-1-1.37-1.53-2s-1-1.27-1.16-1.42a1.13,1.13,0,0,1-.25-.36,13.92,13.92,0,0,1,2,.74c1.08.46,2.32.93,2.76,1.06l1.6.46a14.11,14.11,0,0,0,1.84.34c.57.07,2.24.12,3.71.12a16.6,16.6,0,0,0,2.76-.12c.05-.06,0-.32-.18-.56a10.38,10.38,0,0,0-1-1.2,4.12,4.12,0,0,0-.85-.76,5,5,0,0,1-.88-.5,25,25,0,0,0-2.2-1.22,14.58,14.58,0,0,1-1.8-1c-.27-.22-.31-.33-.16-.44a3.12,3.12,0,0,1,.84-.31l1.6-.42c.53-.15,1.64-.44,2.48-.65a5.24,5.24,0,0,1,2.56-.24c.57.08,2,.19,3.12.25s3.23,0,4.64-.07,3.24-.24,4.08-.33,2.2-.28,3-.42,2.38-.42,3.44-.63,2.24-.49,2.64-.61,1.31-.45,2-.73,1.3-.58,1.27-.7a3.46,3.46,0,0,0-1.32-.57,14.66,14.66,0,0,0-3.83-.46c-2.5-.1-2.55-.11-2-.36.29-.14,1.37-.76,2.39-1.38s1.94-1.2,2-1.29a6.23,6.23,0,0,1,.85-.6,21.81,21.81,0,0,0,1.92-1.52,18.28,18.28,0,0,0,1.88-1.91,6.34,6.34,0,0,1,1.28-1.23,22,22,0,0,0,2.24-2.06c.88-.91,2-2.08,2.42-2.61s1.05-1.32,1.35-1.76.81-1.16,1.14-1.6.7-.91.81-1a6,6,0,0,0,.36-.56c.09-.18.42-.72.74-1.21s.93-1.53,1.36-2.32.86-1.62,1-1.84l.82-1.77a18.74,18.74,0,0,0,.83-2,3.44,3.44,0,0,0,.14-1.15l-.05-.51a18.63,18.63,0,0,0-2.5,1.67c-.3.27-.94.92-1.42,1.44s-1.05,1.17-1.25,1.44-.39.44-.42.4a7.91,7.91,0,0,1,.15-1.53c.12-.79.26-1.83.3-2.32s.13-1.67.18-2.64a18.75,18.75,0,0,0-.06-3c-.15-1.15-.14-1.22.23-1.72a3.8,3.8,0,0,0,.39-.6,11.53,11.53,0,0,1,.67-1.24,30.83,30.83,0,0,0,1.37-2.93,20.67,20.67,0,0,0,.83-2.4c.08-.36.39-1.47.69-2.49s.68-2.45.82-3.2l.51-2.57c.14-.66.31-1.59.38-2.08a29.74,29.74,0,0,0,.15-3.12,17.7,17.7,0,0,0-.11-2.52c-.06-.15-.19-.23-.29-.16a10.76,10.76,0,0,0-.89,1c-.39.49-.83,1.06-1,1.28s-.58,1.2-1,2.17l-.71,1.76c-.27-1-.52-1.93-.73-2.72s-.44-1.73-.5-2.09a13.54,13.54,0,0,0-.57-1.84,14.88,14.88,0,0,1-.67-2.59l-.2-1.39a22.63,22.63,0,0,0,1.89-3.23,29.59,29.59,0,0,0,1.31-3.05c.23-.66.62-1.92.87-2.8s.6-2.18.78-2.88.45-1.94.6-2.73.34-1.84.41-2.32.21-1.35.3-1.93.17-1.11.17-1.2,0-.92-.09-1.84a8.12,8.12,0,0,0-.23-1.84c-.09-.1-.37.1-.76.53s-.82,1-1.07,1.37a11.27,11.27,0,0,0-.81,1.46c-.2.44-.53,1.31-.73,1.92l-.38,1.13c-.54-2.36-.92-3.84-1.19-4.81s-.72-2.38-1-3.13a16.38,16.38,0,0,0-.76-1.83,1.67,1.67,0,0,0-.44-.52c-.09,0-.29.21-.46.55s-.53,1.21-.82,2a25.05,25.05,0,0,0-1,4.17c-.27,1.54-.53,3-.57,3.17s-.15.36-.24.36a8.33,8.33,0,0,1-1-1.89,16.78,16.78,0,0,0-.93-2,7.67,7.67,0,0,1-.63-.88,11.52,11.52,0,0,0-.87-1.21,2.42,2.42,0,0,0-.64-.52c-.24-.1-.28,0-.28.49,0,.33.07,1.41.16,2.4s.38,3.1.64,4.69.54,3,.62,3.24.26.87.41,1.49.4,1.59.58,2.16l.58,1.84a10.13,10.13,0,0,0,.54,1.36c.16.31.56,1.14.89,1.85s.87,1.73,1.21,2.28a6.6,6.6,0,0,1,.61,1.16c0,.09,0,.16.12.16a6.57,6.57,0,0,1,.24,1.8,5.89,5.89,0,0,1-.35,3.25,34.27,34.27,0,0,0-.88,3.61c-.22,1.19-.41,2.39-.41,2.68s-.05.52-.12.53a4.87,4.87,0,0,1-.66-1.24c-.3-.69-.69-1.58-.87-2a13.06,13.06,0,0,0-.8-1.45,12.84,12.84,0,0,0-1.13-1.4,2.42,2.42,0,0,0-.9-.68c-.2,0-.22.16-.12,1,.07.55.19,1.8.28,2.77s.23,2.08.31,2.48.23,1.23.33,1.84.37,1.88.59,2.81.44,1.86.48,2.08a4.38,4.38,0,0,0,.21.72c.07.18.29.79.47,1.37a7.74,7.74,0,0,1,.33,1.32c0,.15.07.28.16.28s.16.11.16.24a7.46,7.46,0,0,0,.55,1.4c.3.64.58,1.31.63,1.48a19.76,19.76,0,0,0,1.14,2c1,1.61,1,1.72,1,2.72a2.41,2.41,0,0,1-.55,1.84l-1.11,1.61c-.3.44-1.06,1.68-1.69,2.76a13.61,13.61,0,0,1-1.26,2,10.41,10.41,0,0,1-.24-2.2,11.35,11.35,0,0,0-.24-2.28,2.38,2.38,0,0,1-.31-.81,12.52,12.52,0,0,0-.52-1.48c-.18-.42-.4-.76-.49-.76s-.2.2-.25.44-.23.91-.4,1.48-.53,2-.8,3.13-.57,2.66-.65,3.36-.23,1.65-.32,2.09-.22,1.92-.31,3.28a44.34,44.34,0,0,0,0,4.89,27.32,27.32,0,0,0,.52,4l.38,1.62c-1,1-1.43,1.45-1.62,1.66s-.53.4-1.84.5c-.82.06-2.54.31-3.82.54s-2.64.45-3,.49l-.72.08,1.28-1.11c.26-.23.91-.81,1.44-1.3a13.61,13.61,0,0,0,1.44-1.51c.26-.35.64-.89.83-1.21a2.81,2.81,0,0,0,.36-.86c0-.16,0-.28-.07-.28s-1,.42-2.2,1L421,458c-.26.12-1.27.61-2.24,1.11s-2,1-2.26,1.2-1,.59-1.6.94-1.5.93-2,1.29-1.1.78-1.36.95-1,.74-1.75,1.28-1.92,1.6-2.72,2.36a21.72,21.72,0,0,0-1.93,2c-.26.36-.61.65-.76.65a9.44,9.44,0,0,1-1.76-.57l-1.6-.64c-.07,0,.06-.26.28-.51s.77-.9,1.22-1.48a11.57,11.57,0,0,0,1.28-2,12.86,12.86,0,0,0,.62-1.64q.16-.64,0-.72a15,15,0,0,0-2.52.56c-1.3.35-3,.83-3.72,1.05s-2.12.63-3,.89a24.61,24.61,0,0,0-3.2,1.23,9.22,9.22,0,0,0-2.89,2.11,29.94,29.94,0,0,0-2.08,2.3l-.71.92h-4.64a32.86,32.86,0,0,0-2.81-3.19,8.84,8.84,0,0,0-3-2.21,22.27,22.27,0,0,0-3-1.13c-.79-.22-2.59-.75-4-1.17s-3.15-.92-3.88-1.11l-1.4-.33s-.08.12-.08.28a7.37,7.37,0,0,0,.29,1.24,13,13,0,0,0,.51,1.36c.12.22.72,1.07,1.35,1.89a8.18,8.18,0,0,0,1.28,1.48q.15,0,0,.15a9.67,9.67,0,0,1-1.67.73,15.48,15.48,0,0,1-1.76.57,1.47,1.47,0,0,1-.65-.37,3,3,0,0,1-.6-.8,2.18,2.18,0,0,0-.75-.81c-.3-.19-.56-.43-.55-.52a5.56,5.56,0,0,0-1-1.08,18.89,18.89,0,0,0-1.65-1.36c-.36-.24-1-.69-1.36-1s-.83-.63-1-.72-.55-.35-.88-.58l-1.49-1c-.48-.31-1.17-.73-1.52-.94l-2.48-1.35c-1-.55-2.09-1.1-2.4-1.24l-2.64-1.15a20.26,20.26,0,0,0-2.28-.9c-.11,0-.2,0-.2.05a4.24,4.24,0,0,0,.24.64,8,8,0,0,0,1.07,1.6c.46.55,1.23,1.38,1.72,1.84a6.06,6.06,0,0,0,1.21,1,4.49,4.49,0,0,1,.92.56c.44.33.53.48.36.54a2.49,2.49,0,0,1-.6.08,4.06,4.06,0,0,1-1-.22,8.82,8.82,0,0,0-1.68-.32,13.4,13.4,0,0,1-1.92-.35,17.58,17.58,0,0,0-2.46-.36l-1.58-.12c-1.46-1.49-1.88-2-1.88-2.16a7,7,0,0,1,.17-.88c.1-.35.3-1.62.45-2.81a37.54,37.54,0,0,0,.26-4.4c0-1.24-.11-3.15-.22-4.25a22.37,22.37,0,0,0-.35-2.48,4.08,4.08,0,0,1-.15-1,10.51,10.51,0,0,0-.22-1.52c-.12-.57-.34-1.47-.48-2s-.33-1.36-.42-1.84a20.13,20.13,0,0,0-.52-2c-.2-.6-.43-1.06-.52-1a4.61,4.61,0,0,0-.62,1.33c-.25.69-.52,1.41-.61,1.59A15.75,15.75,0,0,0,333,440a8.93,8.93,0,0,1-.25,2.17c-.08,0-.4-.45-.72-1s-.94-1.68-1.37-2.41-1.09-1.72-1.46-2.21-.74-1-.85-1.24a4.44,4.44,0,0,1-.19-1.36,3,3,0,0,1,.77-2.2,33.83,33.83,0,0,0,1.68-3.17,18.13,18.13,0,0,0,.92-2.16.52.52,0,0,1,.12-.34,5.65,5.65,0,0,0,.4-1c.16-.46.51-1.65.78-2.67s.59-2.27.7-2.8.36-1.79.54-2.81a20.49,20.49,0,0,0,.34-2.44,2.44,2.44,0,0,1,.14-.88,11.06,11.06,0,0,0,.2-2.17c.05-1.43,0-1.88-.14-1.88a3.4,3.4,0,0,0-1,.85,9.43,9.43,0,0,0-1.13,1.57l-.6,1.11c-.12.22-.48,1-.79,1.8a5.74,5.74,0,0,1-.68,1.4,4.47,4.47,0,0,1-.33-1.4c-.11-.77-.28-1.76-.37-2.2s-.22-1.18-.31-1.65a12.69,12.69,0,0,0-.56-1.92,4.88,4.88,0,0,1-.28-2.89,10.76,10.76,0,0,1,.21-1.8,2.47,2.47,0,0,0,.4-.64,2.28,2.28,0,0,1,.4-.64,11.71,11.71,0,0,0,.86-1.64c.42-.9.9-1.9,1.05-2.21s.57-1.46.94-2.56.87-2.87,1.14-3.93.59-2.5.72-3.2.39-2.42.57-3.81.32-2.95.32-3.48-.06-1-.2-1-.45.26-.76.6a14.64,14.64,0,0,0-1.31,1.81,21.08,21.08,0,0,0-1.24,2.4c-.27.66-.56,1.31-.65,1.45s-.18.21-.31,0a8.11,8.11,0,0,1-.33-1.61c-.1-.75-.29-1.86-.42-2.48s-.3-1.41-.38-1.76a14.65,14.65,0,0,0-.69-2c-.3-.75-.65-1.56-.77-1.8s-.26-.45-.31-.44A3.13,3.13,0,0,0,327.33,378Z" transform="translate(-320.02 -284.24)" style="fill:#d5b048"/><path d="M428.05,383.52c0,.7,0,1,.07.56a9.09,9.09,0,0,0,0-1.28C428.08,382.49,428.05,382.81,428.05,383.52Z" transform="translate(-320.02 -284.24)" style="fill:#fffffe"/><path d="M360.42,385.64c0,.07-1,3-2.1,6.53s-2.14,6.77-2.27,7.22-.34,1.12-.48,1.52-1.16,3.64-2.29,7.21l-2.44,7.69-.69,2.2-.31,1h-3.28a41.77,41.77,0,0,0,.12,5.49c.07,0,2.78,0,6,0l5.91-.08,0-5.29c-4.15-.08-4.17-.09-4.09-.44,0-.2.31-1.36.6-2.57l.52-2.2c10.3,0,11.61,0,11.66.2s.31,1.23.6,2.49a17.17,17.17,0,0,1,.47,2.36,15.66,15.66,0,0,1-2.12.08h-2v5.28h12.16V419c-3.46,0-3.52,0-3.59-.36s-1.41-5.23-3-11.18-3.2-11.65-3.47-12.66l-1.11-4c-.33-1.19-.77-2.78-1-3.52a7.44,7.44,0,0,0-.54-1.57c-.12-.15-.63-.21-1.64-.2A5.87,5.87,0,0,0,360.42,385.64Zm45.11.08c0,.11-.41,1.25-.81,2.53s-1,3-1.23,3.84l-.93,3c-.25.79-.86,2.74-1.35,4.33l-1.8,5.68c-.48,1.55-1.41,4.47-2.06,6.49s-1.44,4.54-1.78,5.58L395,419h-3.28l.08,5.53,6.64,0,5.44,0V419a26.85,26.85,0,0,1-4.22-.12,16.61,16.61,0,0,1,.47-2.21c.29-1.14.53-2.24.54-2.44a.37.37,0,0,1,.37-.4c.2,0,2.84,0,5.87,0l5.52.08,1.1,4.61.11.44h-4.32l.08,5.2h12.16l.08-5.2-3.58-.08c-1.46-5.22-2.23-8-2.66-9.54s-.92-3.34-1.1-4-.86-3.18-1.53-5.6-1.4-5.1-1.63-5.93-.66-2.43-1-3.53-.65-2.36-.78-2.8-.29-1.06-.36-1.37l-.14-.56C406,385.52,405.58,385.56,405.53,385.72Z" transform="translate(-320.02 -284.24)" style="fill:#173e69"/><path d="M428.05,388.25c0,.66,0,1,.07.64a8,8,0,0,0,0-1.2C428.08,387.33,428.05,387.59,428.05,388.25Z" transform="translate(-320.02 -284.24)" style="fill:#fffffe"/><path d="M407,394.3a11.41,11.41,0,0,0-.39,1.24c-.18.62-.69,2.35-1.14,3.85l-1.21,4c-.21.71-.67,2.24-1,3.41s-.65,2.16-.65,2.2,1.87.08,4.16.08a35.28,35.28,0,0,0,4.16-.12c0-.07-.79-3.42-1.77-7.45s-1.84-7.33-1.92-7.33A.27.27,0,0,0,407,394.3Zm-45.27.31c0,.16-.32,1.05-.59,2s-.71,2.37-1,3.21-1,3.21-1.58,5.28-1.13,3.82-1.13,3.89a35.28,35.28,0,0,0,4.16.12h4.16c-.13-.68-.94-4-1.89-7.76s-1.79-6.9-1.89-6.94S361.76,394.45,361.71,394.61Z" transform="translate(-320.02 -284.24)" style="fill:#d5b048"/><path d="M428.05,402.75c0,.71,0,1,.07.56a9.09,9.09,0,0,0,0-1.28C428.08,401.72,428.05,402.05,428.05,402.75Zm0,4.73c0,.66,0,.95.07.64a8,8,0,0,0,0-1.2C428.08,406.56,428.05,406.82,428.05,407.48Zm0,14.5c0,.71,0,1,.07.56a9.09,9.09,0,0,0,0-1.28C428.08,421,428.05,421.28,428.05,422Zm0,4.73c0,.66,0,.95.07.64a8,8,0,0,0,0-1.2C428.08,425.8,428.05,426,428.05,426.71Z" transform="translate(-320.02 -284.24)" style="fill:#fffffe"/></svg>