<svg width="82" height="82" viewBox="0 0 82 82" fill="none" xmlns="http://www.w3.org/2000/svg">
<path d="M2.53802 27.9185H78.6794V53.2989H2.53802V27.9185Z" fill="white"/>
<path d="M12.6902 10.1523H68.5273C74.1313 10.1523 78.6794 14.7005 78.6794 20.3045V30.4567H2.53802V20.3045C2.53802 14.7005 7.08621 10.1523 12.6902 10.1523Z" fill="#81ACDC"/>
<path d="M68.5272 71.0654L12.6901 71.0654C7.08611 71.0654 2.53793 66.5172 2.53793 60.9132V50.7611L78.6794 50.7611V60.9132C78.6794 66.5172 74.1312 71.0654 68.5272 71.0654Z" fill="#81ACDC"/>
<path opacity="0.15" d="M68.5273 10.1523H12.6902C7.08367 10.1523 2.53802 14.698 2.53802 20.3045V60.9133C2.53802 66.5198 7.08367 71.0655 12.6902 71.0655H68.5273C74.1338 71.0655 78.6794 66.5198 78.6794 60.9133V20.3045C78.6794 14.698 74.1338 10.1523 68.5273 10.1523ZM76.1414 60.9133C76.1414 65.1112 72.7252 68.5274 68.5273 68.5274H12.6902C8.49228 68.5274 5.07607 65.1112 5.07607 60.9133V20.3045C5.07607 16.1066 8.49228 12.6904 12.6902 12.6904H68.5273C72.7252 12.6904 76.1414 16.1066 76.1414 20.3045V60.9133Z" fill="black"/>
<path d="M49.5199 40.4436C49.4691 40.4259 49.4158 40.4259 49.4158 40.4259L44.4971 40.2406C44.7128 40.1797 44.9159 40.1061 45.1138 40.0325C45.5682 39.8649 45.9945 39.705 46.525 39.7533C47.3422 39.8269 47.8955 39.5198 48.3016 39.2964C48.4463 39.2177 48.5707 39.1467 48.6773 39.1137C48.9006 39.0401 49.0707 39.0985 49.1925 39.1391C49.2864 39.1721 49.4006 39.2101 49.4539 39.101C49.4691 39.068 49.4869 39.0045 49.4234 38.9183C49.3067 38.7609 48.9691 38.6213 48.5021 38.6898C48.2889 38.7203 48.1265 38.7964 47.9539 38.8776C47.6316 39.0274 47.2686 39.1974 46.4108 39.1289C45.7357 39.0756 45.322 39.2101 44.9209 39.3421C44.69 39.4183 44.4692 39.4893 44.2052 39.5223L48.8092 37.4081C48.8092 37.4081 48.86 37.3878 48.9006 37.3523C48.9666 37.2939 48.9894 37.2203 48.959 37.1492C48.9412 37.1086 48.9108 37.0782 48.8727 37.0604C48.7864 37.0249 48.6823 37.0655 48.6722 37.0706L44.0555 38.7812C44.2306 38.6441 44.3905 38.4969 44.5453 38.3523C44.9006 38.0223 45.2331 37.7127 45.7407 37.5528C46.5225 37.3091 46.9184 36.8117 47.2077 36.4513C47.3118 36.3218 47.4006 36.2102 47.4844 36.1366C47.662 35.9843 47.8422 35.9716 47.9717 35.964C48.0707 35.9564 48.1925 35.9487 48.2001 35.8294C48.2001 35.7939 48.1925 35.7279 48.1037 35.6721C47.9361 35.5706 47.5707 35.5706 47.1671 35.8142C46.9818 35.9259 46.86 36.0579 46.7331 36.1975C46.4945 36.4589 46.223 36.7558 45.4032 37.0198C44.7585 37.2279 44.4286 37.5122 44.1088 37.7863C43.926 37.9436 43.7484 38.0959 43.5174 38.2279L46.9615 34.5147C47.0428 34.4335 47.0884 34.3066 47.0021 34.2178C46.9717 34.1873 46.9311 34.1696 46.8879 34.1696C46.794 34.1696 46.7153 34.2482 46.7077 34.2559L43.0986 37.6035C43.2078 37.4081 43.2991 37.2127 43.388 37.0198C43.5885 36.5807 43.7788 36.1645 44.1875 35.8244C44.8169 35.299 44.992 34.6899 45.1215 34.2457C45.1671 34.0858 45.2078 33.9488 45.2585 33.8498C45.3651 33.6391 45.525 33.5604 45.6418 33.5046C45.7306 33.4615 45.8397 33.4082 45.8017 33.2939C45.789 33.2609 45.756 33.2026 45.6519 33.1873C45.459 33.1569 45.1215 33.299 44.8397 33.6772C44.7103 33.8523 44.6494 34.0198 44.5859 34.1975C44.4641 34.53 44.327 34.9081 43.6697 35.4665C43.1545 35.9056 42.9565 36.2939 42.7661 36.6695C42.657 36.8853 42.5504 37.0934 42.388 37.3041L44.1494 32.5554C44.1925 32.4488 44.1875 32.3143 44.0732 32.266C44.0326 32.2483 43.9895 32.2483 43.9489 32.266C43.8626 32.3016 43.8194 32.4056 43.8144 32.4132L41.7611 36.8878C41.789 36.667 41.7966 36.4513 41.8042 36.2381C41.822 35.7558 41.8398 35.299 42.086 34.8269C42.4667 34.101 42.3956 33.4716 42.3448 33.0097C42.3271 32.8447 42.3093 32.7051 42.3195 32.5909C42.3372 32.3574 42.454 32.2229 42.5403 32.1239C42.6063 32.0503 42.6875 31.9589 42.6063 31.8676C42.5834 31.8422 42.5276 31.8016 42.426 31.8244C42.2357 31.8701 41.9768 32.129 41.8626 32.5884C41.8093 32.799 41.8169 32.9767 41.8245 33.1645C41.8398 33.5198 41.8575 33.9208 41.4641 34.6873C41.1545 35.2888 41.1215 35.7254 41.091 36.1442C41.0733 36.3853 41.0555 36.6188 40.9844 36.8751L40.7941 31.8143C40.7941 31.7 40.7382 31.5757 40.6113 31.5757C40.5352 31.5757 40.4743 31.6239 40.4464 31.7077C40.4286 31.7584 40.4286 31.8066 40.4286 31.8117L40.2433 36.7305C40.1824 36.5147 40.1088 36.3117 40.0352 36.1137C39.8677 35.6594 39.7078 35.233 39.756 34.7026C39.8296 33.8853 39.5225 33.332 39.2992 32.9259C39.2205 32.7813 39.1494 32.6569 39.1164 32.5503C39.0428 32.3269 39.1012 32.1569 39.1418 32.0351C39.1748 31.9412 39.2129 31.827 39.1037 31.7737C39.0707 31.7584 39.0048 31.7407 38.921 31.8041C38.7636 31.9209 38.6241 32.2584 38.6926 32.7254C38.723 32.9386 38.7992 33.101 38.8804 33.2736C39.0301 33.596 39.2002 33.9589 39.1317 34.8168C39.0784 35.4919 39.2129 35.9056 39.3449 36.3066C39.421 36.5376 39.4921 36.7584 39.5251 37.0223L37.4109 32.4183C37.3677 32.3117 37.2687 32.2203 37.152 32.2686C37.0809 32.299 37.0429 32.365 37.0505 32.4538C37.053 32.5071 37.0733 32.5554 37.0733 32.5554L38.784 37.1695C38.6469 36.9944 38.4997 36.8345 38.355 36.6797C38.0251 36.3244 37.7154 35.9919 37.5555 35.4843C37.3119 34.7026 36.8144 34.3066 36.454 34.0173C36.3246 33.9132 36.2129 33.8244 36.1393 33.7406C35.987 33.563 35.9743 33.3828 35.9667 33.2533C35.9591 33.1543 35.9515 33.0325 35.8322 33.0249C35.7967 33.0249 35.7307 33.0325 35.6748 33.1214C35.5733 33.2889 35.5733 33.6543 35.817 34.0579C35.9286 34.2432 36.0606 34.365 36.2002 34.4919C36.4616 34.7305 36.7586 35.002 37.0225 35.8218C37.2307 36.4665 37.5149 36.7964 37.789 37.1162C37.9464 37.299 38.0987 37.4766 38.2307 37.7101L34.5175 34.266C34.4363 34.1848 34.3094 34.1391 34.2205 34.2279C34.1672 34.2812 34.1571 34.3599 34.1977 34.4386C34.2205 34.4868 34.2586 34.5224 34.2586 34.5224L37.6063 38.1315C37.4109 38.0223 37.2154 37.931 37.0225 37.8421C36.5835 37.6416 36.1672 37.4513 35.8271 37.0426C35.3018 36.4132 34.6926 36.2381 34.2459 36.1086C34.0886 36.063 33.9515 36.0223 33.85 35.9716C33.6393 35.865 33.5607 35.7051 33.5048 35.5883C33.4617 35.4995 33.4084 35.3904 33.2942 35.431C33.2612 35.4437 33.2028 35.4767 33.1876 35.5807C33.1571 35.7736 33.2992 36.1112 33.6774 36.3929C33.8525 36.5223 34.02 36.5833 34.1977 36.6467C34.5302 36.7685 34.9084 36.9056 35.4667 37.5629C35.9058 38.0782 36.2941 38.2761 36.6698 38.4665C36.8855 38.5756 37.0936 38.6822 37.3043 38.8447L32.5556 37.0832C32.449 37.0401 32.3145 37.0452 32.2662 37.1594C32.2485 37.2 32.2485 37.2431 32.2662 37.2838C32.3018 37.37 32.4058 37.4132 32.4135 37.4183L36.888 39.4715C36.6672 39.4436 36.4515 39.436 36.2383 39.4284C35.7561 39.4106 35.2992 39.3929 34.8271 39.1467C34.1013 38.766 33.4693 38.837 33.0099 38.8903C32.8449 38.9081 32.7053 38.9259 32.5911 38.9157C32.3576 38.8979 32.2231 38.7787 32.1241 38.6949C32.0505 38.6289 31.9591 38.5502 31.8678 38.6289C31.8424 38.6518 31.8018 38.7076 31.8246 38.8091C31.8703 38.9995 32.1292 39.2584 32.5886 39.3726C32.7992 39.4259 32.9769 39.4182 33.1647 39.4106C33.52 39.3954 33.9211 39.3776 34.6875 39.771C35.2891 40.0807 35.7256 40.1137 36.1444 40.1441C36.3855 40.1619 36.619 40.1797 36.8753 40.2507L31.8145 40.4411C31.7003 40.4411 31.5784 40.4969 31.5759 40.6238C31.5759 40.667 31.5911 40.7076 31.6216 40.738C31.6876 40.804 31.7992 40.8066 31.8094 40.8066L36.7281 40.9918C36.5124 41.0502 36.3094 41.1264 36.1114 41.2C35.6571 41.3675 35.2307 41.5274 34.7002 41.4791C33.883 41.4055 33.3297 41.7126 32.9236 41.936C32.7789 42.0147 32.6546 42.0857 32.548 42.1187C32.3246 42.1923 32.1546 42.134 32.0327 42.0933C31.9388 42.0604 31.8246 42.0223 31.7713 42.1314C31.7561 42.1644 31.7383 42.2279 31.8018 42.3142C31.9185 42.4715 32.2561 42.6111 32.7231 42.5426C32.9363 42.5121 33.0987 42.436 33.2713 42.3548C33.5936 42.205 33.9566 42.035 34.8144 42.1035C35.4896 42.1568 35.9033 42.0223 36.3043 41.8903C36.5352 41.8142 36.7561 41.7431 37.02 41.7101L32.416 43.8243C32.3094 43.8674 32.218 43.9664 32.2662 44.0832C32.2942 44.1492 32.3525 44.1847 32.4312 44.1847C32.4363 44.1847 32.4439 44.1847 32.449 44.1847C32.5023 44.1822 32.5505 44.1619 32.5505 44.1619L37.1647 42.4512C36.9896 42.5883 36.8297 42.7355 36.6748 42.8801C36.3195 43.2101 35.987 43.5197 35.4794 43.6796C34.6977 43.9233 34.3018 44.4207 34.0124 44.7811C33.9084 44.9106 33.8195 45.0223 33.7358 45.0959C33.5581 45.2481 33.3779 45.2608 33.2485 45.2684C33.1495 45.2735 33.0277 45.2837 33.02 45.403C33.02 45.4385 33.0277 45.5045 33.1165 45.5603C33.284 45.6618 33.6495 45.6618 34.053 45.4182C34.2383 45.3065 34.3601 45.1745 34.487 45.0349C34.7256 44.7735 34.9972 44.4766 35.817 44.2126C36.4616 44.0045 36.7916 43.7202 37.1114 43.4461C37.2941 43.2888 37.4718 43.1365 37.7027 43.0045L34.2586 46.7177C34.1774 46.7989 34.1317 46.9258 34.2205 47.0146C34.251 47.0476 34.2916 47.0628 34.3348 47.0628C34.3652 47.0628 34.3982 47.0552 34.4312 47.0375C34.4794 47.0146 34.515 46.9766 34.515 46.9766L38.1241 43.6289C38.0149 43.8243 37.9236 44.0197 37.8347 44.2126C37.6342 44.6517 37.4439 45.0679 37.0352 45.408C36.4058 45.9334 36.2307 46.5425 36.1012 46.9892C36.0556 47.1491 36.0149 47.2837 35.9642 47.3852C35.8576 47.5958 35.6977 47.6745 35.5809 47.7329C35.4921 47.776 35.383 47.8293 35.4236 47.9435C35.4363 47.9765 35.4693 48.0349 35.5733 48.0501C35.7662 48.0806 36.1038 47.9385 36.3855 47.5603C36.5149 47.3877 36.5759 47.2177 36.6393 47.04C36.7611 46.7075 36.8982 46.3294 37.5555 45.771C38.0708 45.3319 38.2687 44.9436 38.4591 44.5679C38.5682 44.3522 38.6748 44.1441 38.8373 43.9334L37.0758 48.6821C37.0327 48.7887 37.0378 48.9232 37.152 48.9715C37.1723 48.9791 37.1951 48.9841 37.2154 48.9841C37.2357 48.9841 37.256 48.9791 37.2764 48.9715C37.3626 48.9359 37.4058 48.8319 37.4109 48.8243L39.4641 44.3497C39.4362 44.5705 39.4286 44.7862 39.421 44.9994C39.4032 45.4816 39.3855 45.9385 39.1393 46.4106C38.7586 47.1364 38.8296 47.7684 38.8829 48.2278C38.9007 48.3928 38.9185 48.5324 38.9083 48.6466C38.8905 48.8801 38.7713 49.0146 38.6875 49.1136C38.6215 49.1872 38.5428 49.2786 38.6215 49.3699C38.6444 49.3953 38.7002 49.4359 38.8017 49.4105C38.9921 49.3649 39.251 49.106 39.3652 48.6466C39.4185 48.4359 39.4108 48.2583 39.4032 48.0705C39.388 47.7151 39.3702 47.3141 39.7636 46.5476C40.0733 45.9461 40.1063 45.5096 40.1367 45.0908C40.1545 44.8497 40.1723 44.6162 40.2433 44.3598L40.4337 49.4207C40.4337 49.5349 40.4895 49.6593 40.6164 49.6593C40.6926 49.6593 40.7535 49.611 40.7814 49.5273C40.7992 49.4765 40.7992 49.4283 40.7992 49.4232L40.9844 44.5045C41.0454 44.7202 41.119 44.9233 41.1926 45.1212C41.3601 45.5756 41.52 46.0019 41.4717 46.5324C41.3981 47.3496 41.7052 47.9029 41.9286 48.309C42.0073 48.4537 42.0783 48.5781 42.1113 48.6847C42.1849 48.908 42.1266 49.0781 42.086 49.1999C42.053 49.2938 42.0149 49.408 42.124 49.4613C42.1393 49.4689 42.1596 49.4765 42.1875 49.4765C42.2205 49.4765 42.2611 49.4664 42.3068 49.4334C42.4641 49.3166 42.6037 48.9791 42.5352 48.5121C42.5047 48.2989 42.4286 48.1364 42.3474 47.9639C42.1976 47.6415 42.0276 47.2786 42.0961 46.4207C42.1494 45.7456 42.0149 45.3319 41.8829 44.9309C41.8068 44.6999 41.7357 44.4791 41.7027 44.2152L43.8169 48.8192C43.8169 48.8192 43.8372 48.8699 43.8727 48.9105C43.9311 48.9765 44.0047 48.9994 44.0758 48.9689C44.1164 48.9512 44.1468 48.9207 44.1646 48.8826C44.2001 48.7963 44.1595 48.6923 44.1545 48.6821L42.4438 44.068C42.5809 44.2431 42.7281 44.403 42.8727 44.5578C43.2027 44.9131 43.5123 45.2456 43.6722 45.7532C43.9159 46.5349 44.4133 46.9309 44.7737 47.2202C44.9032 47.3243 45.0149 47.4131 45.0885 47.4969C45.2407 47.6745 45.2534 47.8547 45.261 47.9842C45.2661 48.0831 45.2763 48.205 45.3956 48.2126H45.4032C45.4387 48.2126 45.5022 48.1974 45.5529 48.1161C45.6544 47.9486 45.6544 47.5831 45.4108 47.1796C45.2991 46.9943 45.1671 46.8725 45.0275 46.7456C44.7661 46.507 44.4692 46.2354 44.2052 45.4157C43.9971 44.771 43.7128 44.441 43.4387 44.1213C43.2814 43.9385 43.1291 43.7608 42.9996 43.5299L46.7128 46.974C46.794 47.0552 46.9209 47.1009 47.0098 47.0121C47.0631 46.9588 47.0732 46.8826 47.0326 46.8014C47.0098 46.7532 46.9717 46.7177 46.9717 46.7177L43.624 43.1086C43.8194 43.2177 44.0149 43.3091 44.2078 43.3979C44.6468 43.5984 45.0631 43.7888 45.4032 44.1974C45.9286 44.8268 46.5377 45.002 46.9818 45.1314C47.1417 45.1771 47.2763 45.2177 47.3778 45.2684C47.5884 45.375 47.6671 45.5349 47.7255 45.6517C47.7636 45.7278 47.8067 45.8192 47.8905 45.8192C47.9057 45.8192 47.9209 45.8167 47.9361 45.8116C47.9691 45.7989 48.0275 45.7659 48.0428 45.6618C48.0732 45.469 47.9311 45.1314 47.5529 44.8497C47.3803 44.7202 47.2103 44.6593 47.0326 44.5959C46.7001 44.474 46.322 44.337 45.7636 43.6796C45.3245 43.1644 44.9362 42.9664 44.5605 42.7761C44.3448 42.6669 44.1367 42.5604 43.926 42.3979L48.6747 44.1593C48.7813 44.2025 48.9158 44.1974 48.9641 44.0832C48.9818 44.0426 48.9818 43.9994 48.9641 43.9588C48.9285 43.8725 48.8245 43.8294 48.8169 43.8243L44.3423 41.771C44.5631 41.7989 44.7788 41.8066 44.992 41.8142C45.4742 41.8319 45.9311 41.8497 46.4032 42.0959C47.1291 42.4766 47.761 42.4055 48.2204 42.3548C48.3854 42.337 48.525 42.3192 48.6392 42.3294C48.8752 42.3472 49.0072 42.4639 49.1062 42.5502C49.1569 42.5959 49.2179 42.6492 49.2813 42.6492C49.3092 42.6492 49.3346 42.639 49.3625 42.6162C49.3879 42.5933 49.4285 42.5375 49.4031 42.436C49.3575 42.2456 49.0986 41.9868 48.6392 41.8725C48.4285 41.8192 48.2509 41.8269 48.0631 41.8345C47.7077 41.8497 47.3067 41.8675 46.5402 41.4741C45.9387 41.1644 45.5022 41.1314 45.0834 41.101C44.8423 41.0832 44.6088 41.0654 44.3524 40.9944L49.4133 40.804C49.5275 40.804 49.6493 40.7482 49.6493 40.6213C49.6493 40.5451 49.6011 40.4842 49.5174 40.4563L49.5199 40.4436Z" fill="#EDB840"/>
<path opacity="0.2" d="M68.5273 12.6904H12.6902C8.48468 12.6904 5.07608 16.099 5.07608 20.3046V22.8426C5.07608 18.6371 8.48468 15.2285 12.6902 15.2285H68.5273C72.7328 15.2285 76.1414 18.6371 76.1414 22.8426V20.3046C76.1414 16.099 72.7328 12.6904 68.5273 12.6904Z" fill="white"/>
</svg>
