<svg width="82" height="82" viewBox="0 0 82 82" fill="none" xmlns="http://www.w3.org/2000/svg">
<path d="M68.5273 10.1523H12.6903C7.08338 10.1523 2.53809 14.6976 2.53809 20.3045V60.9133C2.53809 66.5202 7.08338 71.0655 12.6903 71.0655H68.5273C74.1342 71.0655 78.6795 66.5202 78.6795 60.9133V20.3045C78.6795 14.6976 74.1342 10.1523 68.5273 10.1523Z" fill="#4091DF"/>
<path d="M78.6795 45.6851H2.53809V50.7612H78.6795V45.6851Z" fill="#FFD203"/>
<path d="M78.6795 55.8369H2.53809V60.913H78.6795V55.8369Z" fill="#FFD203"/>
<path opacity="0.15" d="M68.5273 10.1523H12.6903C7.08347 10.1523 2.53809 14.6975 2.53809 20.3045V60.9133C2.53809 66.5203 7.08347 71.0655 12.6903 71.0655H68.5273C74.1344 71.0655 78.6795 66.5203 78.6795 60.9133V20.3045C78.6795 14.6975 74.1344 10.1523 68.5273 10.1523ZM76.1415 60.9133C76.1415 65.112 72.726 68.5274 68.5273 68.5274H12.6903C8.49158 68.5274 5.07613 65.112 5.07613 60.9133V20.3045C5.07613 16.1058 8.49158 12.6904 12.6903 12.6904H68.5273C72.726 12.6904 76.1415 16.1058 76.1415 20.3045V60.9133Z" fill="black"/>
<path opacity="0.2" d="M68.5274 12.6904H12.6903C8.48502 12.6904 5.07617 16.0993 5.07617 20.3046V22.8426C5.07617 18.6373 8.48502 15.2285 12.6903 15.2285H68.5274C72.7326 15.2285 76.1415 18.6373 76.1415 22.8426V20.3046C76.1415 16.0993 72.7326 12.6904 68.5274 12.6904Z" fill="white"/>
<path d="M18.3748 32.2408L8.23633 29.1155L18.3748 25.9899L21.5004 15.8501L24.6258 25.9899L34.7645 29.1155L24.6258 32.2408L21.5004 42.3783L18.3748 32.2408Z" fill="white"/>
<path d="M21.5003 20.158L23.6112 27.0031L30.4563 29.114L23.6112 31.2249L21.5003 38.07L19.3894 31.2251L12.5443 29.1137L19.3894 27.0028L21.5003 20.158Z" fill="#DB4647"/>
</svg>
