<svg width="200" height="200" viewBox="0 0 200 200" fill="none" xmlns="http://www.w3.org/2000/svg">
<g clip-path="url(#clip0_106_6563)">
<path d="M200 100C200 155.228 155.228 200 100 200C44.772 200 0 155.228 0 100C0 44.772 44.772 0 100 0C155.228 0 200 44.772 200 100Z" fill="#231F20"/>
<path d="M100.001 197.765C73.911 197.765 49.3826 187.605 30.9334 169.156C12.4846 150.708 2.32422 126.179 2.32422 100.089C2.32422 73.9987 12.4846 49.4703 30.933 31.0215C49.3822 12.5735 73.911 2.41309 100.001 2.41309C126.092 2.41309 150.621 12.5731 169.069 31.0215C187.517 49.4699 197.677 73.9983 197.677 100.089C197.677 126.179 187.517 150.707 169.069 169.156C150.621 187.605 126.092 197.765 100.001 197.765ZM100.001 4.81349C47.4658 4.81349 4.72462 47.5543 4.72462 100.089C4.72462 152.624 47.4658 195.365 100.001 195.365C152.537 195.365 195.277 152.624 195.277 100.089C195.277 47.5539 152.537 4.81349 100.001 4.81349Z" fill="#A29061"/>
<mask id="mask0_106_6563" style="mask-type:luminance" maskUnits="userSpaceOnUse" x="34" y="34" width="132" height="132">
<path d="M34.4727 99.9998C34.4727 136.19 63.8107 165.528 100 165.528C136.191 165.528 165.529 136.189 165.529 99.9998C165.529 63.8102 136.191 34.4722 100 34.4722C63.8103 34.4722 34.4727 63.8102 34.4727 99.9998" fill="white"/>
</mask>
<g mask="url(#mask0_106_6563)">
<path d="M84.5217 33.7681H115.219V166.226H84.5217V33.7681ZM33.0137 46.7545H58.6577V153.24H33.0137V46.7545ZM141.084 46.7545H166.727V153.24H141.084V46.7545Z" fill="#80000B"/>
</g>
<path d="M119.313 63.2418L125.681 50.4634H74.2174L80.5874 63.245L53.1094 144.732L78.0502 161.085L83.2414 146.275H116.939L121.717 160.976L146.993 144.685L119.313 63.2418ZM93.0886 117.223L99.9834 96.5186L107.091 117.223H93.0886Z" fill="#231F20"/>
<path d="M116.73 63.0656L121.843 52.8364H78.0595L83.1691 63.0652L55.2539 145.85L64.8831 154.848L69.8815 157.204L75.9331 159.9L81.5463 143.886H118.675L124.079 160.513L134.282 155.051L144.989 146.213L116.73 63.0656ZM89.7755 119.615L99.9487 89.0576L110.438 119.617L89.7755 119.615Z" fill="#A29061"/>
<path d="M89.775 119.615L72.8394 131.767L99.9994 52.7822L127.159 131.767L110.437 119.617L99.9482 89.0582L89.775 119.615ZM65.6738 152.605L72.8394 131.767H127.159L134.158 152.118L123.383 158.375L118.674 143.886H81.5462L76.4902 158.311L65.6738 152.605Z" fill="#817244"/>
<path d="M100.001 166.334C63.4236 166.334 33.666 136.576 33.666 100C33.666 63.4244 63.424 33.668 100.001 33.668C136.576 33.668 166.333 63.4244 166.333 100C166.333 136.576 136.576 166.334 100.001 166.334ZM100.001 36.3652C64.9112 36.3652 36.3632 64.912 36.3632 100C36.3632 135.089 64.9112 163.637 100.001 163.637C135.089 163.637 163.635 135.089 163.635 100C163.635 64.912 135.089 36.3652 100.001 36.3652Z" fill="#A29061"/>
<path d="M100.001 163.939C64.7441 163.939 36.0605 135.256 36.0605 99.9998C36.0605 64.7438 64.7437 36.061 100.001 36.061C135.257 36.061 163.94 64.7438 163.94 99.9998C163.94 135.256 135.257 163.939 100.001 163.939ZM100.001 38.449C66.0609 38.449 38.4485 66.0606 38.4485 99.9998C38.4485 133.94 66.0609 161.551 100.001 161.551C133.941 161.551 161.553 133.94 161.553 99.9998C161.553 66.0606 133.941 38.449 100.001 38.449Z" fill="#817244"/>
<path d="M102.945 12.2484C103.127 11.6704 103.306 11.0956 103.487 10.5204C101.173 10.3995 98.8551 10.3921 96.5408 10.4984C96.7176 11.0744 96.8952 11.6504 97.072 12.2296C95.408 17.6697 93.763 23.1156 92.1368 28.5672C93.5092 28.4204 94.884 28.312 96.2616 28.2456C96.516 27.3396 96.7684 26.4352 97.0228 25.5304C98.9804 25.4576 100.94 25.4628 102.898 25.5496C103.149 26.4544 103.402 27.362 103.653 28.2692C105.03 28.344 106.405 28.462 107.776 28.6172C106.184 23.1555 104.574 17.6992 102.945 12.2484ZM100 14.988C100.626 17.2596 101.252 19.5392 101.879 21.828C100.609 21.7901 99.3381 21.7858 98.068 21.8152C98.7091 19.5386 99.3531 17.2629 100 14.988ZM145.863 44.5836C146.928 45.4602 147.967 46.3674 148.98 47.304L151.459 45.9548C152.883 47.2992 154.251 48.7028 155.559 50.1612C155.086 50.972 154.614 51.7848 154.14 52.5964C155.049 53.6332 155.929 54.6955 156.778 55.782C159.562 50.8211 162.328 45.851 165.078 40.8716C165.617 40.596 166.156 40.3216 166.693 40.0476C165.396 38.5805 164.039 37.167 162.626 35.8104C157.028 38.7145 151.44 41.6389 145.863 44.5836ZM154.842 44.0964C156.922 42.9544 158.994 41.8184 161.061 40.688C159.881 42.728 158.694 44.7728 157.502 46.8252C156.64 45.892 155.753 44.982 154.842 44.0964ZM140.72 20.1172C140.085 21.1688 139.45 22.2204 138.816 23.272C140.122 23.9477 141.413 24.6532 142.687 25.388C140.268 29.4008 137.846 33.4112 135.426 37.4224C136.531 38.0583 137.622 38.7167 138.7 39.3972C141.121 35.3864 143.541 31.3751 145.96 27.3632C147.045 28.048 148.117 28.7536 149.176 29.4796C150.12 28.6424 151.062 27.8052 152.004 26.9692C148.402 24.4332 144.632 22.144 140.72 20.1172ZM128.054 14.8332C127.064 18.1708 126.076 21.5092 125.086 24.8452C124.404 20.9934 123.692 17.1468 122.951 13.306C121.587 12.9521 120.213 12.6388 118.831 12.3664C118.84 12.9636 118.849 13.5584 118.859 14.1552C117.344 19.2628 115.831 24.3704 114.315 29.4796C115.565 29.7348 116.808 30.0244 118.042 30.3464C119.031 27.0096 120.021 23.67 121.011 20.3332C121.751 24.178 122.461 28.0284 123.142 31.884C124.306 32.2833 125.458 32.7129 126.599 33.1724L131.641 16.1652C130.458 15.6884 129.262 15.2442 128.054 14.8332ZM37.7148 35.812C36.301 37.1671 34.944 38.5802 33.6472 40.0476C34.1836 40.322 34.722 40.5964 35.26 40.8704C38.0108 45.8502 40.7782 50.8209 43.562 55.7824C44.411 54.6955 45.2909 53.6332 46.2008 52.5968C45.7264 51.7828 45.2528 50.9716 44.78 50.1616C46.0884 48.7037 47.4563 47.3003 48.88 45.9548C49.7072 46.404 50.5328 46.8532 51.3612 47.304C52.3735 46.3674 53.4129 45.4605 54.478 44.5844C48.9012 41.6394 43.3134 38.7152 37.7148 35.812ZM42.8384 46.8256C41.6452 44.7732 40.4596 42.7268 39.278 40.6884C41.346 41.8168 43.4188 42.9548 45.4988 44.0968C44.5876 44.9823 43.7005 45.8922 42.8384 46.8256ZM59.6204 20.1172L61.524 23.272C60.2176 23.9478 58.9269 24.6533 57.6528 25.388C60.0728 29.4008 62.4936 33.4112 64.9136 37.4224C63.8092 38.0583 62.7179 38.7167 61.6404 39.3972C59.2194 35.3864 56.7993 31.375 54.38 27.3632C53.2948 28.048 52.2229 28.7536 51.1648 29.4796C50.22 28.6424 49.2776 27.8052 48.3356 26.9692C51.9383 24.4333 55.7085 22.1441 59.6204 20.1172ZM77.5816 27.9104C76.294 23.4064 75.0044 18.9024 73.7168 14.3988C72.4995 14.7778 71.2914 15.1858 70.0936 15.6224L74.9724 32.6756C78.2024 31.4999 81.5039 30.5305 84.8568 29.7732C84.886 28.51 84.9164 27.2496 84.946 25.9908C82.4623 26.5141 80.0047 27.1547 77.5816 27.9104ZM72.5248 166.23C71.3567 165.723 70.1965 165.197 69.0448 164.653C66.606 170.042 64.166 175.426 61.7272 180.813C62.8792 181.356 64.0395 181.881 65.2076 182.388L72.5248 166.23ZM90.1216 171.058L89.2904 174.648C87.8336 174.44 86.3832 174.188 84.9412 173.894C83.884 178.458 82.8252 183.021 81.7676 187.585C80.5186 187.329 79.2763 187.041 78.042 186.722C79.0996 182.159 80.1572 177.595 81.216 173.03C79.7913 172.661 78.3782 172.249 76.9788 171.794C77.2544 170.598 77.5328 169.402 77.8104 168.204C81.8239 169.51 85.943 170.465 90.1216 171.058ZM99.8208 182.264C101.816 182.276 103.813 182.206 105.804 182.055C105.779 180.826 105.754 179.598 105.729 178.37C103.738 178.524 101.743 178.593 99.7464 178.58L99.684 175.46C102.221 175.474 104.759 175.358 107.285 175.107L106.088 171.526C102.662 171.812 99.22 171.854 95.7864 171.654C95.906 177.566 96.0256 183.476 96.144 189.389C99.5788 189.589 103.019 189.547 106.446 189.261C106.797 188.002 107.146 186.74 107.496 185.476C104.968 185.725 102.43 185.844 99.8928 185.826C99.8688 184.64 99.8444 183.452 99.8208 182.264ZM126.826 171.489C126.15 169.067 123.687 167.837 121.282 168.574C118.613 169.393 115.901 170.063 113.158 170.581C113.492 171.112 113.824 171.641 114.159 172.169C115.594 177.3 117.028 182.432 118.464 187.563C121.027 187.06 123.562 186.424 126.059 185.657C128.464 184.92 129.826 182.213 129.149 179.796C128.377 177.027 127.602 174.258 126.826 171.489ZM125.535 181.048C125.665 181.512 125.398 182.008 124.936 182.148C123.701 182.526 122.457 182.871 121.204 183.182C120.272 179.854 119.344 176.526 118.412 173.197C119.664 172.883 120.908 172.538 122.143 172.161C122.605 172.021 123.084 172.278 123.212 172.742C123.988 175.51 124.76 178.28 125.535 181.048ZM59.3836 159.028C57.3052 161.821 55.2268 164.612 53.1484 167.407C53.7752 163.548 54.4301 159.694 55.1128 155.845C54.1547 155.075 53.2156 154.281 52.2964 153.465C48.7656 158.208 45.2358 162.951 41.7072 167.696C42.6607 168.543 43.636 169.365 44.632 170.162C46.7095 167.368 48.7878 164.575 50.8668 161.783C50.1855 165.629 49.5326 169.48 48.908 173.336C49.9209 174.034 50.9511 174.707 51.9976 175.353L62.5848 161.121C61.4998 160.451 60.4324 159.753 59.3836 159.028ZM44.9948 145.842C41.44 148.596 37.8848 151.35 34.3304 154.104C33.9496 154.398 33.388 154.339 33.0828 153.965C32.4498 153.191 31.8342 152.402 31.2364 151.601C30.9476 151.214 31.028 150.659 31.4088 150.364C34.9632 147.609 38.5188 144.856 42.0736 142.101C41.2186 140.924 40.4009 139.72 39.6216 138.492C39.2556 139.001 38.8888 139.51 38.5248 140.019C35.4332 142.413 32.3396 144.81 29.2456 147.206C27.2604 148.746 26.7396 151.731 28.2424 153.748C28.8928 154.624 29.5645 155.484 30.2568 156.327C31.8508 158.275 34.8844 158.504 36.868 156.968C40.424 154.212 43.9784 151.458 47.5344 148.704C46.6616 147.774 45.8147 146.819 44.9948 145.842ZM145.81 160.061C147.835 158.529 149.782 156.897 151.644 155.172C150.606 154.464 149.568 153.755 148.528 153.042C145.838 155.461 142.979 157.686 139.974 159.7C140.484 160.059 140.996 160.418 141.506 160.775L151.418 173.316C152.472 172.599 153.508 171.856 154.525 171.088C153.028 169.191 151.529 167.296 150.03 165.399C151.622 164.195 153.167 162.929 154.66 161.604L152.375 158.713C150.882 160.039 149.338 161.305 147.746 162.509C147.101 161.693 146.455 160.876 145.81 160.061ZM164.396 140.806C162.392 139.287 159.643 139.766 158.158 141.794C157.514 142.674 156.856 143.543 156.183 144.401C154.632 146.382 154.915 149.156 156.919 150.676C159.374 152.535 161.832 154.396 164.288 156.258C166.289 157.775 169.266 157.466 170.815 155.487C171.487 154.629 172.145 153.76 172.79 152.881C174.276 150.852 173.765 147.904 171.766 146.389L170.615 145.518C169.911 146.581 169.186 147.629 168.441 148.663C168.823 148.953 169.207 149.242 169.591 149.533C169.974 149.824 170.059 150.378 169.771 150.766C169.18 151.571 168.577 152.368 167.962 153.155C167.817 153.337 167.607 153.456 167.376 153.486C167.145 153.515 166.912 153.453 166.726 153.314C164.27 151.453 161.814 149.591 159.358 147.731C159.267 147.662 159.19 147.576 159.133 147.478C159.076 147.379 159.039 147.27 159.024 147.157C159.01 147.044 159.018 146.929 159.049 146.82C159.08 146.71 159.132 146.608 159.203 146.518C159.818 145.731 160.422 144.935 161.013 144.13C161.079 144.038 161.164 143.959 161.261 143.9C161.358 143.841 161.466 143.802 161.579 143.785C161.691 143.768 161.806 143.774 161.916 143.802C162.027 143.831 162.13 143.881 162.221 143.95C162.486 144.15 162.751 144.353 163.017 144.553C163.762 143.519 164.487 142.471 165.191 141.409C164.927 141.206 164.661 141.007 164.396 140.806ZM166.718 56.6136C175.13 69.5308 179.569 84.5036 179.569 100.001C179.569 112.421 176.787 124.321 171.3 135.368L173.48 136.453C179.136 125.065 182.003 112.8 182.003 100.001C182.003 83.5792 177.165 67.7276 168.014 54.1604L166.718 56.6136ZM33.2356 56.6136C24.8232 69.5308 20.3844 84.5036 20.3844 100.001C20.3844 112.421 23.1664 124.321 28.6528 135.368L26.4736 136.453C20.8184 125.065 17.9512 112.8 17.9512 100.001C17.9512 83.5792 22.788 67.7276 31.94 54.1604L33.2356 56.6136Z" fill="#A39161"/>
</g>
<defs>
<clipPath id="clip0_106_6563">
<rect width="200" height="200" fill="white"/>
</clipPath>
</defs>
</svg>
