<svg width="82" height="82" viewBox="0 0 82 82" fill="none" xmlns="http://www.w3.org/2000/svg">
<path d="M68.5273 10.1523H12.6903C7.08338 10.1523 2.53809 14.6976 2.53809 20.3045V60.9133C2.53809 66.5202 7.08338 71.0655 12.6903 71.0655H68.5273C74.1342 71.0655 78.6795 66.5202 78.6795 60.9133V20.3045C78.6795 14.6976 74.1342 10.1523 68.5273 10.1523Z" fill="#061B65"/>
<path d="M16.4973 34.9592V40.6089H26.6495V34.9567L34.3576 40.6089H40.6088V37.4592L31.0607 30.4567H40.6088V20.3045H33.6545L40.6088 15.2056V10.1523H36.9515L26.6495 17.7081V10.1523H16.4973V17.2436L8.23093 11.1803C6.28424 12.1295 4.70558 13.6752 3.69797 15.5914L10.1243 20.3071H2.53809V30.4593H12.0888L2.53809 37.4643V40.6114H8.79183L16.4973 34.9592Z" fill="white"/>
<path d="M4.58118 14.1853L12.9187 20.3046H16.3806L5.98725 12.6777C5.46949 13.1346 4.99742 13.6346 4.58118 14.1853Z" fill="#D22D32"/>
<path d="M2.53809 40.6087L16.3806 30.4565V32.9946L5.99744 40.6087H2.53809Z" fill="#D22D32"/>
<path d="M17.3551 47.5654L18.7155 51.7938L22.8678 50.2202L20.4109 53.9182L24.2307 56.1846L19.8069 56.5704L20.416 60.9689L17.3577 57.7506L14.2993 60.9689L14.9084 56.5704L10.4846 56.1846L14.3044 53.9182L11.8476 50.2202L15.9998 51.7938L17.3602 47.5654H17.3551Z" fill="white"/>
<path d="M58.662 55.2153L59.4006 57.5148L61.6594 56.6595L60.3219 58.6722L62.4006 59.9056L59.9945 60.1138L60.327 62.5071L58.662 60.7559L56.997 62.5071L57.3295 60.1138L54.9235 59.9056L57.0021 58.6722L55.6646 56.6595L57.9234 57.5148L58.662 55.2153Z" fill="white"/>
<path d="M51.1823 33.3169L51.9208 35.6164L54.1797 34.761L52.8421 36.7737L54.9208 38.0072L52.5147 38.2153L52.8472 40.6087L51.1823 38.8575L49.5173 40.6087L49.8498 38.2153L47.4437 38.0072L49.5224 36.7737L48.1848 34.761L50.4437 35.6164L51.1823 33.3169Z" fill="white"/>
<path d="M59.4664 18.0889L60.205 20.3883L62.4639 19.533L61.1263 21.5457L63.205 22.7792L60.7989 22.9873L61.1314 25.3807L59.4664 23.6294L57.8015 25.3807L58.134 22.9873L55.7279 22.7792L57.8066 21.5457L56.469 19.533L58.7279 20.3883L59.4664 18.0889Z" fill="white"/>
<path d="M71.4003 27.4541L72.1389 29.7536L74.3978 28.8982L73.0602 30.9109L75.1389 32.1444L72.7328 32.3525L73.0653 34.7459L71.4003 32.9947L69.7354 34.7459L70.0679 32.3525L67.6618 32.1444L69.7405 30.9109L68.4029 28.8982L70.6618 29.7536L71.4003 27.4541Z" fill="white"/>
<path d="M65.3344 40.6089L65.9182 42.0429L67.4613 42.1571L66.2786 43.1545L66.6491 44.6571L65.3344 43.8424L64.0197 44.6571L64.3903 43.1545L63.2075 42.1571L64.7507 42.0429L65.3344 40.6089Z" fill="white"/>
<path d="M24.1115 40.6089H19.0354V27.9187H2.53809V22.8426H19.0354V10.1523H24.1115V22.8426H40.6088V27.9187H24.1115V40.6089Z" fill="#D22D32"/>
<path d="M40.6088 39.7636L27.9186 30.4565V32.9946L38.3017 40.6087H40.6088V39.7636Z" fill="#D22D32"/>
<path d="M40.6089 10.1523H39.9794L26.1191 20.3147H29.581L40.6089 12.2285V10.1523Z" fill="#D22D32"/>
<path opacity="0.15" d="M68.5273 10.1523H12.6903C7.08373 10.1523 2.53809 14.698 2.53809 20.3045V60.9133C2.53809 66.5198 7.08373 71.0655 12.6903 71.0655H68.5273C74.1339 71.0655 78.6795 66.5198 78.6795 60.9133V20.3045C78.6795 14.698 74.1339 10.1523 68.5273 10.1523ZM76.1415 60.9133C76.1415 65.1112 72.7252 68.5274 68.5273 68.5274H12.6903C8.49234 68.5274 5.07613 65.1112 5.07613 60.9133V20.3045C5.07613 16.1066 8.49234 12.6904 12.6903 12.6904H68.5273C72.7252 12.6904 76.1415 16.1066 76.1415 20.3045V60.9133Z" fill="black"/>
<path opacity="0.2" d="M68.5274 12.6904H12.6903C8.48477 12.6904 5.07617 16.099 5.07617 20.3046V22.8426C5.07617 18.6371 8.48477 15.2285 12.6903 15.2285H68.5274C72.7329 15.2285 76.1415 18.6371 76.1415 22.8426V20.3046C76.1415 16.099 72.7329 12.6904 68.5274 12.6904Z" fill="white"/>
</svg>
