<svg width="82" height="82" viewBox="0 0 82 82" fill="none" xmlns="http://www.w3.org/2000/svg">
<path d="M2.53815 27.9185H78.6796V53.2989H2.53815V27.9185Z" fill="#DD4446"/>
<path d="M12.6903 10.1523H68.5274C74.1314 10.1523 78.6796 14.7005 78.6796 20.3045V30.4567H2.53815V20.3045C2.53815 14.7005 7.08633 10.1523 12.6903 10.1523Z" fill="#52B4DE"/>
<path d="M68.5273 71.0654L12.6903 71.0654C7.08627 71.0654 2.53808 66.5172 2.53808 60.9132V50.7611L78.6795 50.7611V60.9132C78.6795 66.5172 74.1313 71.0654 68.5273 71.0654Z" fill="#649E3F"/>
<path opacity="0.15" d="M68.5274 10.1523H12.6903C7.08379 10.1523 2.53815 14.698 2.53815 20.3045V60.9133C2.53815 66.5198 7.08379 71.0655 12.6903 71.0655H68.5274C74.1339 71.0655 78.6796 66.5198 78.6796 60.9133V20.3045C78.6796 14.698 74.1339 10.1523 68.5274 10.1523ZM76.1415 60.9133C76.1415 65.1112 72.7253 68.5274 68.5274 68.5274H12.6903C8.49241 68.5274 5.07619 65.1112 5.07619 60.9133V20.3045C5.07619 16.1066 8.49241 12.6904 12.6903 12.6904H68.5274C72.7253 12.6904 76.1415 16.1066 76.1415 20.3045V60.9133Z" fill="black"/>
<path d="M39.5759 48.3651C35.2917 48.3651 31.8196 44.8931 31.8196 40.6089C31.8196 36.3247 35.2917 32.8526 39.5759 32.8526C41.6622 32.8526 43.5556 33.6775 44.949 35.0176C43.251 32.7612 40.5505 31.2993 37.5074 31.2993C32.3679 31.2993 28.2004 35.4668 28.2004 40.6063C28.2004 45.7459 32.3679 49.9134 37.5074 49.9134C40.5505 49.9134 43.251 48.454 44.949 46.1951C43.5556 47.5352 41.6622 48.3601 39.5759 48.3601V48.3651Z" fill="white"/>
<path d="M47.8474 35.439L48.8372 38.2207L51.5047 36.9542L50.2383 39.6217L53.0199 40.6115L50.2383 41.6013L51.5047 44.2688L48.8372 43.0023L47.8474 45.784L46.8576 43.0023L44.1901 44.2688L45.4566 41.6013L42.6749 40.6115L45.4566 39.6217L44.1901 36.9542L46.8576 38.2207L47.8474 35.439Z" fill="white"/>
<path opacity="0.2" d="M68.5273 12.6904H12.6903C8.48471 12.6904 5.07611 16.099 5.07611 20.3046V22.8426C5.07611 18.6371 8.48471 15.2285 12.6903 15.2285H68.5273C72.7328 15.2285 76.1414 18.6371 76.1414 22.8426V20.3046C76.1414 16.099 72.7328 12.6904 68.5273 12.6904Z" fill="white"/>
</svg>
