<svg width="82" height="82" viewBox="0 0 82 82" fill="none" xmlns="http://www.w3.org/2000/svg">
<path d="M2.53815 27.9185H78.6796V53.2989H2.53815V27.9185Z" fill="#F7CB4F"/>
<path d="M12.6903 10.1523H68.5274C74.1314 10.1523 78.6796 14.7005 78.6796 20.3045V30.4567H2.53815V20.3045C2.53815 14.7005 7.08633 10.1523 12.6903 10.1523Z" fill="#33768A"/>
<path d="M68.5274 71.0654L12.6903 71.0654C7.08633 71.0654 2.53815 66.5172 2.53815 60.9132V50.7611L78.6796 50.7611V60.9132C78.6796 66.5172 74.1314 71.0654 68.5274 71.0654Z" fill="#33768A"/>
<path d="M5.764 68.3013L38.0708 40.6086L5.764 12.916C3.7894 14.7688 2.53815 17.383 2.53815 20.3043V60.913C2.53815 63.8343 3.7894 66.4485 5.764 68.3013Z" fill="black"/>
<path opacity="0.15" d="M68.5274 10.1523H12.6903C7.08379 10.1523 2.53815 14.698 2.53815 20.3045V60.9133C2.53815 66.5198 7.08379 71.0655 12.6903 71.0655H68.5274C74.1339 71.0655 78.6796 66.5198 78.6796 60.9133V20.3045C78.6796 14.698 74.1339 10.1523 68.5274 10.1523ZM76.1415 60.9133C76.1415 65.1112 72.7253 68.5274 68.5274 68.5274H12.6903C8.49241 68.5274 5.07619 65.1112 5.07619 60.9133V20.3045C5.07619 16.1066 8.49241 12.6904 12.6903 12.6904H68.5274C72.7253 12.6904 76.1415 16.1066 76.1415 20.3045V60.9133Z" fill="black"/>
<path opacity="0.2" d="M68.5273 12.6904H12.6903C8.48471 12.6904 5.07611 16.099 5.07611 20.3046V22.8426C5.07611 18.6371 8.48471 15.2285 12.6903 15.2285H68.5273C72.7328 15.2285 76.1414 18.6371 76.1414 22.8426V20.3046C76.1414 16.099 72.7328 12.6904 68.5273 12.6904Z" fill="white"/>
</svg>
