<svg width="82" height="82" viewBox="0 0 82 82" fill="none" xmlns="http://www.w3.org/2000/svg">
<path d="M25.3806 10.1523H55.8372V71.0655H25.3806V10.1523Z" fill="#F7CB4D"/>
<path d="M12.6905 10.1523H27.9188V71.0655H12.6905C7.08651 71.0655 2.53833 66.5173 2.53833 60.9133V20.3045C2.53833 14.7005 7.08651 10.1523 12.6905 10.1523Z" fill="#09207B"/>
<path d="M68.5275 71.0654H53.2992L53.2992 10.1523H68.5275C74.1315 10.1523 78.6797 14.7005 78.6797 20.3045V60.9132C78.6797 66.5172 74.1315 71.0654 68.5275 71.0654Z" fill="#09207B"/>
<path opacity="0.15" d="M68.5276 10.1523H12.6905C7.08397 10.1523 2.53833 14.698 2.53833 20.3045V60.9133C2.53833 66.5198 7.08397 71.0655 12.6905 71.0655H68.5276C74.1341 71.0655 78.6797 66.5198 78.6797 60.9133V20.3045C78.6797 14.698 74.1341 10.1523 68.5276 10.1523ZM76.1417 60.9133C76.1417 65.1112 72.7255 68.5274 68.5276 68.5274H12.6905C8.49259 68.5274 5.07638 65.1112 5.07638 60.9133V20.3045C5.07638 16.1066 8.49259 12.6904 12.6905 12.6904H68.5276C72.7255 12.6904 76.1417 16.1066 76.1417 20.3045V60.9133Z" fill="black"/>
<path d="M51.586 31.5985C49.5125 31.9208 47.378 33.0096 45.916 34.5223C45.746 34.7304 46.8196 34.2939 46.916 34.2812C47.7181 34.0401 46.6775 35.4081 46.6191 35.7685C45.7968 38.3928 45.0836 40.9283 44.8196 43.9486C44.8196 44.1567 44.7866 44.3115 44.6902 44.3191L41.9465 43.9105V34.1898C42.5912 34.1746 43.5963 34.3421 44.1699 34.5324C42.3222 32.6898 41.4567 30.2837 40.609 27.9741C39.7613 30.2863 38.8983 32.6924 37.0481 34.5324C37.6217 34.3446 38.6268 34.1746 39.2714 34.1898V43.9105L36.5278 44.3191C36.4288 44.309 36.3984 44.1567 36.3984 43.9486C36.1344 40.9309 35.4212 38.3928 34.5989 35.7685C34.5405 35.4106 33.4999 34.0401 34.3019 34.2812C34.4009 34.2939 35.472 34.7304 35.3019 34.5223C33.8425 33.0096 31.7055 31.9208 29.6319 31.5985C29.4492 31.5528 29.3426 31.6441 29.505 31.8548C32.2563 36.0883 34.5583 41.0857 34.538 47.0171C35.6065 47.0171 38.1978 46.3851 39.2714 46.3851V53.2429H41.944V46.3851C43.0176 46.3851 45.6089 47.0171 46.6775 47.0171C46.6572 41.0882 48.9592 36.0908 51.7104 31.8548C51.8728 31.6441 51.7662 31.5528 51.5835 31.5985H51.586Z" fill="black"/>
<path opacity="0.2" d="M68.5276 12.6904H12.6905C8.48498 12.6904 5.07639 16.099 5.07639 20.3046V22.8426C5.07639 18.6371 8.48498 15.2285 12.6905 15.2285H68.5276C72.7331 15.2285 76.1417 18.6371 76.1417 22.8426V20.3046C76.1417 16.099 72.7331 12.6904 68.5276 12.6904Z" fill="white"/>
</svg>
