<svg width="82" height="82" viewBox="0 0 82 82" fill="none" xmlns="http://www.w3.org/2000/svg">
<path d="M68.5273 10.1523H12.6902C7.08331 10.1523 2.53802 14.6976 2.53802 20.3045V60.9133C2.53802 66.5202 7.08331 71.0655 12.6902 71.0655H68.5273C74.1342 71.0655 78.6794 66.5202 78.6794 60.9133V20.3045C78.6794 14.6976 74.1342 10.1523 68.5273 10.1523Z" fill="#D62818"/>
<path d="M70.3285 10.3335L40.6087 34.1092L10.8889 10.3335C7.21484 10.9941 4.26359 13.6294 3.10269 17.103L32.4844 40.6083L3.10269 64.114C4.26385 67.5878 7.21484 70.223 10.8889 70.8834L40.6087 47.1078L70.3285 70.8834C74.0025 70.2228 76.9538 67.5875 78.1147 64.114L48.733 40.6086L78.1147 17.1032C76.9535 13.6294 74.0025 10.9939 70.3285 10.3335Z" fill="#019C46"/>
<path d="M45.6848 10.1523H35.5326V71.0655H45.6848V10.1523Z" fill="white"/>
<path d="M78.6794 45.6849V35.5327L2.53793 35.5327V45.6849L78.6794 45.6849Z" fill="white"/>
<path opacity="0.15" d="M68.5273 10.1523H12.6902C7.08341 10.1523 2.53802 14.6975 2.53802 20.3045V60.9133C2.53802 66.5203 7.08341 71.0655 12.6902 71.0655H68.5273C74.1343 71.0655 78.6794 66.5203 78.6794 60.9133V20.3045C78.6794 14.6975 74.1343 10.1523 68.5273 10.1523ZM76.1414 60.9133C76.1414 65.112 72.7259 68.5274 68.5273 68.5274H12.6902C8.49152 68.5274 5.07607 65.112 5.07607 60.9133V20.3045C5.07607 16.1058 8.49152 12.6904 12.6902 12.6904H68.5273C72.7259 12.6904 76.1414 16.1058 76.1414 20.3045V60.9133Z" fill="black"/>
<path opacity="0.2" d="M68.5273 12.6904H12.6902C8.48493 12.6904 5.07608 16.0993 5.07608 20.3046V22.8426C5.07608 18.6373 8.48493 15.2285 12.6902 15.2285H68.5273C72.7326 15.2285 76.1414 18.6373 76.1414 22.8426V20.3046C76.1414 16.0993 72.7326 12.6904 68.5273 12.6904Z" fill="white"/>
</svg>
