<svg width="82" height="82" viewBox="0 0 82 82" fill="none" xmlns="http://www.w3.org/2000/svg">
<path d="M2.53809 20.3045V53.2991H78.6795V20.3045C78.6795 14.698 74.1339 10.1523 68.5273 10.1523H12.6903C7.08373 10.1523 2.53809 14.698 2.53809 20.3045Z" fill="#BE2D27"/>
<path d="M68.5273 71.0654L12.6902 71.0654C7.0862 71.0654 2.53802 66.5172 2.53802 60.9132V50.7611L78.6794 50.7611V60.9132C78.6794 66.5172 74.1313 71.0654 68.5273 71.0654Z" fill="#367B37"/>
<path d="M10.1522 32.9946L12.6902 40.6088L10.1522 48.2229L7.61414 40.6088L10.1522 32.9946Z" fill="white"/>
<path d="M6.34518 20.3042L8.88322 27.9183L6.34518 35.5325L3.80713 27.9183L6.34518 20.3042Z" fill="white"/>
<path d="M13.9593 20.3042L16.4974 27.9183L13.9593 35.5325L11.4213 27.9183L13.9593 20.3042Z" fill="white"/>
<path d="M6.34518 45.6851L8.88322 53.2992L6.34518 60.9133L3.80713 53.2992L6.34518 45.6851Z" fill="white"/>
<path d="M13.9593 45.6851L16.4974 53.2992L13.9593 60.9133L11.4213 53.2992L13.9593 45.6851Z" fill="white"/>
<path d="M2.53809 32.9946V48.2229L5.07613 40.6088L2.53809 32.9946Z" fill="white"/>
<path d="M17.7663 32.9946L15.2283 40.6088L17.7663 48.2229V32.9946Z" fill="white"/>
<path d="M12.6902 15.228L11.0532 10.3169C10.3679 10.4286 9.70802 10.6037 9.07605 10.8448L7.61414 15.228L10.1522 22.8422L12.6902 15.228Z" fill="white"/>
<path d="M4.70304 14.1064C3.36803 15.8247 2.53809 17.9592 2.53809 20.3044V22.8424L5.07613 15.2283L4.70304 14.1064Z" fill="white"/>
<path d="M16.9211 10.1523L15.2283 15.2284L17.7663 22.8426V10.1523H16.9211Z" fill="white"/>
<path d="M12.6902 65.9891L11.0532 70.9003C10.3679 70.7886 9.70802 70.6135 9.07605 70.3723L7.61414 65.9891L10.1522 58.375L12.6902 65.9891Z" fill="white"/>
<path d="M4.70304 67.111C3.36803 65.3927 2.53809 63.2582 2.53809 60.913V58.375L5.07613 65.9891L4.70304 67.111Z" fill="white"/>
<path d="M16.9211 71.0652L15.2283 65.9891L17.7663 58.375V71.0652H16.9211Z" fill="white"/>
<path opacity="0.15" d="M68.5273 10.1523H12.6903C7.08373 10.1523 2.53809 14.698 2.53809 20.3045V60.9133C2.53809 66.5198 7.08373 71.0655 12.6903 71.0655H68.5273C74.1339 71.0655 78.6795 66.5198 78.6795 60.9133V20.3045C78.6795 14.698 74.1339 10.1523 68.5273 10.1523ZM76.1415 60.9133C76.1415 65.1112 72.7252 68.5274 68.5273 68.5274H12.6903C8.49234 68.5274 5.07613 65.1112 5.07613 60.9133V20.3045C5.07613 16.1066 8.49234 12.6904 12.6903 12.6904H68.5273C72.7252 12.6904 76.1415 16.1066 76.1415 20.3045V60.9133Z" fill="black"/>
<path opacity="0.2" d="M68.5274 12.6904H12.6903C8.48477 12.6904 5.07617 16.099 5.07617 20.3046V22.8426C5.07617 18.6371 8.48477 15.2285 12.6903 15.2285H68.5274C72.7329 15.2285 76.1415 18.6371 76.1415 22.8426V20.3046C76.1415 16.099 72.7329 12.6904 68.5274 12.6904Z" fill="white"/>
</svg>
