<svg width="82" height="82" viewBox="0 0 82 82" fill="none" xmlns="http://www.w3.org/2000/svg">
<path d="M2.53809 20.3042H78.6795V60.913H2.53809V20.3042Z" fill="#0F0E91"/>
<path d="M12.6903 10.1523H68.5273C74.1313 10.1523 78.6795 14.7005 78.6795 20.3045V22.8426H2.53809V20.3045C2.53809 14.7005 7.08627 10.1523 12.6903 10.1523Z" fill="#C82C24"/>
<path d="M68.5273 71.0654L12.6903 71.0654C7.08627 71.0654 2.53808 66.5172 2.53808 60.9132V58.3752L78.6795 58.3752V60.9132C78.6795 66.5172 74.1313 71.0654 68.5273 71.0654Z" fill="#C82C24"/>
<path opacity="0.15" d="M68.5273 10.1523H12.6903C7.08373 10.1523 2.53809 14.698 2.53809 20.3045V60.9133C2.53809 66.5198 7.08373 71.0655 12.6903 71.0655H68.5273C74.1339 71.0655 78.6795 66.5198 78.6795 60.9133V20.3045C78.6795 14.698 74.1339 10.1523 68.5273 10.1523ZM76.1415 60.9133C76.1415 65.1112 72.7252 68.5274 68.5273 68.5274H12.6903C8.49234 68.5274 5.07613 65.1112 5.07613 60.9133V20.3045C5.07613 16.1066 8.49234 12.6904 12.6903 12.6904H68.5273C72.7252 12.6904 76.1415 16.1066 76.1415 20.3045V60.9133Z" fill="black"/>
<path d="M40.6088 53.2989C47.6174 53.2989 53.2991 47.6173 53.2991 40.6087C53.2991 33.6001 47.6174 27.9185 40.6088 27.9185C33.6002 27.9185 27.9186 33.6001 27.9186 40.6087C27.9186 47.6173 33.6002 53.2989 40.6088 53.2989Z" fill="white"/>
<path d="M40.6089 32.9946C41.3097 32.9946 41.8779 32.4264 41.8779 31.7256C41.8779 31.0247 41.3097 30.4565 40.6089 30.4565C39.908 30.4565 39.3398 31.0247 39.3398 31.7256C39.3398 32.4264 39.908 32.9946 40.6089 32.9946Z" fill="#4B8A26"/>
<path d="M36.1672 34.185C36.8681 34.185 37.4362 33.6169 37.4362 32.916C37.4362 32.2151 36.8681 31.647 36.1672 31.647C35.4664 31.647 34.8982 32.2151 34.8982 32.916C34.8982 33.6169 35.4664 34.185 36.1672 34.185Z" fill="#4B8A26"/>
<path d="M32.9159 37.436C33.6167 37.436 34.1849 36.8678 34.1849 36.167C34.1849 35.4661 33.6167 34.8979 32.9159 34.8979C32.215 34.8979 31.6469 35.4661 31.6469 36.167C31.6469 36.8678 32.215 37.436 32.9159 37.436Z" fill="#4B8A26"/>
<path d="M31.7256 41.8779C32.4264 41.8779 32.9946 41.3097 32.9946 40.6089C32.9946 39.908 32.4264 39.3398 31.7256 39.3398C31.0247 39.3398 30.4565 39.908 30.4565 40.6089C30.4565 41.3097 31.0247 41.8779 31.7256 41.8779Z" fill="#4B8A26"/>
<path d="M32.9159 46.3193C33.6167 46.3193 34.1849 45.7511 34.1849 45.0503C34.1849 44.3494 33.6167 43.7812 32.9159 43.7812C32.215 43.7812 31.6469 44.3494 31.6469 45.0503C31.6469 45.7511 32.215 46.3193 32.9159 46.3193Z" fill="#4B8A26"/>
<path d="M36.1672 49.5708C36.8681 49.5708 37.4362 49.0026 37.4362 48.3017C37.4362 47.6009 36.8681 47.0327 36.1672 47.0327C35.4664 47.0327 34.8982 47.6009 34.8982 48.3017C34.8982 49.0026 35.4664 49.5708 36.1672 49.5708Z" fill="#4B8A26"/>
<path d="M40.6089 50.7607C41.3097 50.7607 41.8779 50.1925 41.8779 49.4917C41.8779 48.7908 41.3097 48.2227 40.6089 48.2227C39.908 48.2227 39.3398 48.7908 39.3398 49.4917C39.3398 50.1925 39.908 50.7607 40.6089 50.7607Z" fill="#4B8A26"/>
<path d="M45.0504 49.5708C45.7513 49.5708 46.3194 49.0026 46.3194 48.3017C46.3194 47.6009 45.7513 47.0327 45.0504 47.0327C44.3495 47.0327 43.7814 47.6009 43.7814 48.3017C43.7814 49.0026 44.3495 49.5708 45.0504 49.5708Z" fill="#4B8A26"/>
<path d="M48.3016 46.3193C49.0025 46.3193 49.5706 45.7511 49.5706 45.0503C49.5706 44.3494 49.0025 43.7812 48.3016 43.7812C47.6008 43.7812 47.0326 44.3494 47.0326 45.0503C47.0326 45.7511 47.6008 46.3193 48.3016 46.3193Z" fill="#4B8A26"/>
<path d="M49.4919 41.8779C50.1928 41.8779 50.7609 41.3097 50.7609 40.6089C50.7609 39.908 50.1928 39.3398 49.4919 39.3398C48.7911 39.3398 48.2229 39.908 48.2229 40.6089C48.2229 41.3097 48.7911 41.8779 49.4919 41.8779Z" fill="#4B8A26"/>
<path d="M48.3016 37.436C49.0025 37.436 49.5706 36.8678 49.5706 36.167C49.5706 35.4661 49.0025 34.8979 48.3016 34.8979C47.6008 34.8979 47.0326 35.4661 47.0326 36.167C47.0326 36.8678 47.6008 37.436 48.3016 37.436Z" fill="#4B8A26"/>
<path d="M45.0504 34.185C45.7513 34.185 46.3194 33.6169 46.3194 32.916C46.3194 32.2151 45.7513 31.647 45.0504 31.647C44.3495 31.647 43.7814 32.2151 43.7814 32.916C43.7814 33.6169 44.3495 34.185 45.0504 34.185Z" fill="#4B8A26"/>
<path opacity="0.2" d="M68.5274 12.6904H12.6903C8.48477 12.6904 5.07617 16.099 5.07617 20.3046V22.8426C5.07617 18.6371 8.48477 15.2285 12.6903 15.2285H68.5274C72.7329 15.2285 76.1415 18.6371 76.1415 22.8426V20.3046C76.1415 16.099 72.7329 12.6904 68.5274 12.6904Z" fill="white"/>
</svg>
