<svg width="82" height="82" viewBox="0 0 82 82" fill="none" xmlns="http://www.w3.org/2000/svg">
<path d="M70.0227 30.4565V50.8366C70.0227 56.2802 59.1403 58.0489 59.1403 58.0489C59.1403 58.0489 48.2579 56.2802 48.2579 50.8366V30.4565H70.0227Z" fill="white"/>
<path d="M68.5278 10.1523H12.6908C7.08386 10.1523 2.53857 14.6976 2.53857 20.3045V60.9133C2.53857 66.5202 7.08386 71.0655 12.6908 71.0655H68.5278C74.1347 71.0655 78.68 66.5202 78.68 60.9133V20.3045C78.68 14.6976 74.1347 10.1523 68.5278 10.1523Z" fill="#CA0A2B"/>
<path d="M12.6903 10.1523H40.6089V40.6089H2.53815V20.3045C2.53815 14.7013 7.08709 10.1523 12.6903 10.1523Z" fill="#001B69"/>
<path d="M16.4978 34.9585V40.6089H26.65V34.9562L34.3583 40.6089H40.6093V37.4589L31.0614 30.4567H40.6093V20.3045H33.655L40.6093 15.2048V10.1523H36.952L26.65 17.7079V10.1523H16.4978V17.2424L8.23243 11.1785C6.28448 12.128 4.70581 13.6744 3.70049 15.5893L10.1271 20.3045H2.53857V30.4567H12.0898L2.53857 37.4615V40.6089H8.79283L16.4978 34.9585Z" fill="white"/>
<path d="M4.58302 14.1853L12.9215 20.3043H16.3824L5.98859 12.6782C5.47006 13.1338 4.99976 13.6338 4.58302 14.1853Z" fill="#CA0A2B"/>
<path d="M2.53766 40.6087L16.3817 30.4565V32.9946L5.99879 40.6087H2.53766Z" fill="#CA0A2B"/>
<path d="M24.112 40.6089H19.0359V27.9187H2.53857V22.8426H19.0359V10.1523H24.112V22.8426H40.6093V27.9187H24.112V40.6089Z" fill="#CA0A2B"/>
<path d="M40.6093 39.7628L27.9191 30.4565V32.9946L38.302 40.6087H40.6093V39.7628Z" fill="#CA0A2B"/>
<path d="M40.6094 10.1523H39.9789L26.1199 20.3157H29.5808L40.6094 12.2282V10.1523Z" fill="#CA0A2B"/>
<path d="M69.9878 30.4565V50.8366C69.9878 56.2802 59.1054 58.0489 59.1054 58.0489C59.1054 58.0489 48.223 56.2802 48.223 50.8366V30.4565H69.9878Z" fill="white"/>
<path d="M48.5134 52.3228C50.2395 56.6072 59.1054 58.0488 59.1054 58.0488C59.1054 58.0488 67.9716 56.6072 69.6974 52.3228H48.5134Z" fill="#2B911D"/>
<path d="M68.5967 46.5225C66.5389 46.7085 68.1038 42.7307 64.4526 43.9763C64.6394 42.8713 65.8376 41.6523 66.564 42.6114C64.7795 38.7964 69.1028 37.7391 62.7541 38.8934C62.8308 38.8508 62.6574 38.1563 62.3678 38.2876C62.4087 38.2442 62.4947 39.0485 62.1638 38.7774C62.0341 38.8822 62.1353 36.6437 61.6808 37.6703C61.2739 37.1998 62.8209 36.9262 62.2833 36.3838C61.7892 35.846 61.9041 35.8302 61.761 36.4193C61.4348 35.6427 62.0092 36.101 62.4305 35.4302C62.749 35.4394 61.7917 33.9148 61.9706 34.9736C60.9211 35.0409 62.0846 34.4818 61.9163 33.9277C60.2904 34.6094 62.2206 32.6046 60.8247 32.6742C61.1374 32.4247 61.1907 31.8485 60.4592 32.1475C60.6463 31.7171 58.825 31.0229 58.6993 31.8138C58.4516 31.5559 57.8359 31.4044 58.1501 32.1737C57.6328 31.8886 57.1699 32.0513 57.5163 32.6917C55.8755 32.3797 57.6986 33.982 56.6859 34.061C56.3504 33.9406 56.0486 33.7409 56.4778 34.4876C56.8453 34.8904 56.3174 35.247 56.0537 34.7135C55.5953 35.0845 55.9745 36.1708 56.9148 35.6267C57.1232 36.5792 54.9014 35.4985 56.3857 37.1292C56.7867 37.4015 55.9082 37.6769 56.2717 38.3292C55.9907 38.7056 55.24 38.0652 55.3981 38.8962C53.875 39.283 53.3179 37.7206 51.7441 38.6325C52.1423 40.7167 52.3197 40.8 51.5783 42.6271C52.2448 41.5459 53.7717 43.1984 53.6877 43.9705C52.4628 43.5875 50.2332 43.9329 50.7786 46.0837C50.4603 46.5852 48.6301 46.5715 50.2639 47.0367C50.0093 47.8326 50.522 50.2626 50.7994 47.557C51.1555 49.3027 51.9707 49.4283 51.4695 47.2806C51.888 47.6809 52.0174 49.3141 52.2984 47.8344C53.1258 50.3862 53.1636 51.1651 55.5374 51.1359C54.388 51.8359 52.9113 51.6044 51.8806 52.7225C51.8182 53.9044 51.9451 54.6856 52.7811 53.7785C53.1443 55.6577 53.9489 54.6092 54.1146 53.4379C54.5504 57.1138 55.1501 51.4207 57.1298 52.4978C59.9569 54.6669 58.9288 53.4128 61.7569 52.127C62.9838 53.4311 63.8242 56.2356 64.0252 53.4379C64.1919 54.6115 64.996 55.6552 65.3587 53.7785C65.9551 54.0161 66.0381 54.9102 66.2279 53.4349C66.6373 51.2448 62.9841 52.2994 62.6181 50.7666C64.7617 51.8022 65.1853 49.7151 65.8594 47.8695C66.1521 49.3014 66.2716 47.6588 66.6858 47.2806C66.1845 49.4326 67.0005 49.2986 67.3559 47.5575C67.6322 50.2654 68.1467 47.8301 67.8914 47.037C68.4835 47.0598 68.5954 46.5281 68.5967 46.5225ZM65.1625 39.6982C65.163 39.7086 65.162 39.718 65.1495 39.7109C65.1538 39.7066 65.1587 39.703 65.1625 39.6982ZM64.8731 40.1147C64.8665 40.1183 64.8597 40.1221 64.8528 40.1256C64.8574 40.1183 64.8648 40.1155 64.8731 40.1147ZM64.4249 44.6068C64.4214 44.5327 64.4201 44.4596 64.4214 44.3888L64.4249 44.6068Z" fill="#CA0A2B"/>
<path opacity="0.15" d="M68.5278 10.1523H12.6908C7.08396 10.1523 2.53857 14.6975 2.53857 20.3045V60.9133C2.53857 66.5203 7.08396 71.0655 12.6908 71.0655H68.5278C74.1349 71.0655 78.68 66.5203 78.68 60.9133V20.3045C78.68 14.6975 74.1349 10.1523 68.5278 10.1523ZM76.1419 60.9133C76.1419 65.112 72.7265 68.5274 68.5278 68.5274H12.6908C8.49207 68.5274 5.07662 65.112 5.07662 60.9133V20.3045C5.07662 16.1058 8.49207 12.6904 12.6908 12.6904H68.5278C72.7265 12.6904 76.1419 16.1058 76.1419 20.3045V60.9133Z" fill="black"/>
<path opacity="0.2" d="M68.5273 12.6904H12.6903C8.48496 12.6904 5.07611 16.0993 5.07611 20.3046V22.8426C5.07611 18.6373 8.48496 15.2285 12.6903 15.2285H68.5273C72.7326 15.2285 76.1414 18.6373 76.1414 22.8426V20.3046C76.1414 16.0993 72.7326 12.6904 68.5273 12.6904Z" fill="white"/>
</svg>
