<svg width="82" height="82" viewBox="0 0 82 82" fill="none" xmlns="http://www.w3.org/2000/svg">
<path d="M5.87822 68.3929L75.3395 12.8249C73.5349 11.1803 71.1593 10.1523 68.5274 10.1523H12.6903C7.08379 10.1523 2.53815 14.698 2.53815 20.3045V60.9133C2.53815 63.8879 3.84017 66.5376 5.87822 68.3929Z" fill="#F8D047"/>
<path d="M75.3394 12.8247L5.87811 68.3927C7.68266 70.0374 10.0583 71.0653 12.6902 71.0653H68.5273C74.1338 71.0653 78.6795 66.5196 78.6795 60.9131V20.3043C78.6795 17.3297 77.3774 14.68 75.3394 12.8247Z" fill="#ED7135"/>
<path opacity="0.15" d="M68.5274 10.1523H12.6903C7.08379 10.1523 2.53815 14.698 2.53815 20.3045V60.9133C2.53815 66.5198 7.08379 71.0655 12.6903 71.0655H68.5274C74.1339 71.0655 78.6796 66.5198 78.6796 60.9133V20.3045C78.6796 14.698 74.1339 10.1523 68.5274 10.1523ZM76.1415 60.9133C76.1415 65.1112 72.7253 68.5274 68.5274 68.5274H12.6903C8.49241 68.5274 5.07619 65.1112 5.07619 60.9133V20.3045C5.07619 16.1066 8.49241 12.6904 12.6903 12.6904H68.5274C72.7253 12.6904 76.1415 16.1066 76.1415 20.3045V60.9133Z" fill="black"/>
<path opacity="0.2" d="M68.5273 12.6904H12.6903C8.48471 12.6904 5.07611 16.099 5.07611 20.3046V22.8426C5.07611 18.6371 8.48471 15.2285 12.6903 15.2285H68.5273C72.7328 15.2285 76.1414 18.6371 76.1414 22.8426V20.3046C76.1414 16.099 72.7328 12.6904 68.5273 12.6904Z" fill="white"/>
<path d="M68.7406 25.9009C66.8624 25.9389 65.6188 25.7207 63.6442 26.3831C64.3878 25.2258 66.2863 25.4161 66.7127 24.1141C65.4563 24.8831 64.1315 23.9009 63.1746 25.2892C63.6543 23.2588 64.7914 21.7283 65.1416 20.0278C63.3371 21.609 62.9691 24.7258 61.2863 25.8628C59.629 26.2435 58.3879 23.7994 56.9996 24.4973C53.9133 24.2511 50.8067 20.8882 47.6672 21.6725C48.6672 21.5963 49.4641 21.9187 50.0834 22.34C49.5047 22.4441 48.7915 21.8324 48.4083 22.2588C49.2255 22.3095 49.959 22.6268 49.5707 23.4009C47.7129 22.0887 45.5504 22.2334 44.2357 23.3654C45.2027 22.8654 46.1063 23.2765 46.8601 23.5938C46.2941 24.0633 45.2814 23.543 44.9565 24.1902C45.2662 24.0456 45.6646 24.0354 46.2712 24.1522C46.1672 24.3755 46.1063 24.6775 46.1367 25.0912C43.4286 22.8578 39.52 26.9161 43.0885 26.3577C40.4642 25.4136 44.7763 24.8197 47.3017 26.5405C46.4184 26.3526 44.6266 26.713 44.2611 25.6217C44.1164 26.0481 44.1367 26.4263 44.4438 26.6572C42.8449 27.3679 39.954 27.1801 39.2205 28.6978C40.3982 27.5354 42.2662 28.4668 43.5758 28.2054C43.4591 28.444 43.421 28.6673 43.4642 28.8399C43.0682 28.8958 42.8322 29.7638 43.0276 30.0683C42.7713 31.2866 39.2231 33.4795 42.6088 31.9643C42.5225 33.114 41.1951 33.5201 41.8728 34.8221C41.9667 33.7282 42.8322 33.6013 43.685 33.4033C43.454 34.0099 44.0098 34.8703 44.6824 34.7358C44.4058 35.2257 44.6697 36.1038 45.3144 36.2333C45.0124 37.1114 43.8093 36.213 43.4718 37.0886C44.3855 36.7942 44.9515 38.0378 45.9134 37.586C45.7915 37.9693 45.8753 38.2003 46.1266 38.581C45.52 38.515 44.5682 38.8068 44.2814 38.1013C43.8144 38.916 45.2763 38.9211 45.2611 39.5073C45.1545 39.1723 44.5479 38.9185 44.289 39.2307C44.1342 38.2739 42.9616 38.2053 42.4972 38.4845C42.7002 37.8754 41.4997 37.4236 41.2281 37.8094C40.9236 36.8449 39.8627 36.1317 39.4439 35.3729C38.982 36.0201 39.8322 36.2688 39.6368 36.9541C39.3982 36.6927 38.8678 36.5861 38.6089 36.8906C38.4464 36.4998 37.7129 36.3246 37.4363 36.7282C37.2688 36.3576 36.5454 36.2383 36.2815 36.6114C36.0201 35.4541 34.4871 36.0658 34.114 35.1597C33.817 35.9668 35.0328 36.0455 34.8475 36.8525C34.1038 36.3424 33.0607 36.9795 33.3196 37.8602C32.7815 37.3525 31.7232 37.8551 31.8932 38.6089C31.0861 37.9338 29.2816 38.7688 28.911 39.4261C29.4364 39.1266 30.0582 39.3246 30.5861 39.4693C30.3602 39.8018 30.0709 40.3957 30.3729 40.8271C29.5201 40.8271 29.2384 41.9464 29.5684 42.5936C28.5252 42.8525 27.7765 44.3576 26.5785 43.9692C27.1014 44.8956 28.241 44.0251 28.9567 44.1291C28.6547 44.3322 28.3552 45.4515 28.7232 45.8372C28.3044 46.0454 27.9288 46.6621 27.9821 47.0174C27.3044 47.091 26.9998 47.921 26.307 47.6773C26.4136 47.992 26.8476 48.1875 27.3501 48.2941C27.0227 48.5174 26.7587 48.9057 26.307 48.7281C26.3197 48.9793 26.4389 49.2408 26.6851 49.4336C26.1978 49.4083 25.6065 49.6748 25.1623 49.492C25.1572 49.7306 25.2156 49.9946 25.3653 50.2407C24.5405 50.0276 23.373 49.8397 22.9187 50.5225C23.3374 50.4793 23.7511 50.6138 23.8755 50.8448C21.7055 51.2357 18.4796 48.8956 17.1497 50.5098C18.6167 50.4108 20.6801 51.0098 22.0278 51.6367C20.7689 51.7204 17.8426 52.1519 17.0355 53.0783C18.1141 52.9996 19.6471 52.6646 20.5913 52.6214C18.4238 53.8854 15.8045 54.5504 13.7132 55.8524C15.2132 56.1798 16.9923 54.9133 18.538 54.5707C16.472 55.5732 14.7487 57.332 12.4315 58.2559C16.1802 58.2737 19.9872 55.4666 22.8857 53.5504C22.0786 53.992 22.0557 55.162 20.9999 55.2915C22.34 55.7661 22.9694 53.8981 24.3755 54.0351C23.6572 55.1899 22.6649 54.6544 22.3476 55.8676C26.2486 55.0706 27.5988 50.4463 31.4744 50.4869C31.482 50.6291 31.4871 50.7763 31.4719 50.9184C31.4592 51.1671 31.4084 51.4184 31.3221 51.6519C30.1013 51.4108 29.9034 51.6088 30.8323 52.2813C30.2638 52.4387 30.1597 53.2204 29.4744 53.3702C29.7993 53.7991 30.6064 53.5199 30.9059 53.19C30.9237 53.5098 31.2815 53.7915 31.0988 54.1316C31.6902 54.1823 31.416 53.1341 32.0658 53.129C31.8399 53.3803 32.0582 53.8219 32.4566 53.7661C32.2561 53.9691 32.4008 54.228 32.6825 54.2356C32.4998 54.5859 32.6978 55.0021 32.5734 55.4387C29.4795 55.7889 31.51 61.228 33.8373 61.1848C36.1216 61.1543 37.1774 57.4615 35.9414 55.8803C36.1419 55.9057 36.3551 55.8473 36.5175 55.7204C36.6444 55.9666 36.9591 56.1341 37.2764 56.1189C37.652 56.7102 38.1368 57.261 37.8906 58.1011C39.1469 56.7026 37.6368 53.3905 35.8246 54.6138C35.5911 54.3955 35.2587 54.3321 35.0175 54.3676C35.0861 53.8245 34.9845 53.5808 34.581 53.4971C33.9363 52.2915 33.317 51.2737 33.9668 49.8626C41.0809 54.728 42.289 44.7713 36.1114 46.8474C36.2256 46.6799 36.2586 46.3626 36.1749 46.2103C36.4135 46.0987 36.6571 45.7966 36.7003 45.5606C37.0302 45.6164 37.515 45.3677 37.8145 45.4591C36.6952 43.8677 34.4363 45.3449 34.7485 47.0276C33.1191 48.0733 33.5049 45.4921 33.5734 44.6545C33.8044 44.5175 33.8044 43.9312 33.6927 43.7637C33.8957 43.7027 34.1191 43.3652 34.1038 43.1266C34.4845 43.1748 34.7917 42.7129 34.817 42.4007C35.2028 42.6114 35.8323 42.4312 35.9769 42.0048C36.2612 42.2357 37.0327 42.2434 37.2231 41.9312C40.1926 42.9515 43.3677 43.685 46.6367 44.0784C46.4438 44.4692 46.421 44.7687 46.5657 44.9946C45.8195 45.1393 45.0834 44.6621 44.52 45.0631C45.185 45.1215 44.9718 45.5479 45.8372 45.6367C44.9337 45.7357 45.086 46.9667 44.2433 46.9108C45.02 47.7712 45.4667 46.4134 46.1646 46.4946C46.1418 46.8372 46.4565 47.1748 46.1342 47.657C46.6443 47.6748 46.9007 47.1063 47.0098 46.7078C47.2839 46.9616 47.5733 47.6646 48.1748 47.3854C48.1824 47.8321 48.9692 48.1443 49.3017 47.9768C49.459 48.4057 50.3397 48.5656 50.6418 48.3144C50.7179 48.5656 51.0478 48.69 51.322 48.7712L51.3169 48.7864C51.9184 48.9946 52.4844 48.4946 52.9717 48.8397C53.2204 48.9717 53.4514 49.2052 53.7331 49.1773C51.7839 52.6976 60.233 55.0351 60.3092 50.5859C59.8828 48.8981 59.8879 45.9743 57.3447 46.8093C57.2864 46.7332 57.1925 46.7205 57.0757 46.7459C57.3853 46.525 57.4945 46.2509 57.4006 45.9362C58.1671 45.9667 58.1975 44.9971 59.0757 45.3296C58.3092 44.421 55.7762 44.751 55.8651 46.0707C55.426 45.8956 54.9133 46.2865 54.9361 46.756C54.662 46.69 54.2813 46.822 54.0783 47.2002C53.058 46.586 51.9768 46.2357 50.8397 46.388C50.7103 46.086 50.1722 45.7332 49.7712 45.8499C51.2103 43.2814 51.8448 39.8601 53.2356 37.9845C54.3676 37.5708 54.5503 39.119 53.5326 39.3779C53.9285 39.6596 54.4564 39.4337 54.7458 39.0607C54.4361 39.8779 54.6011 40.855 55.4691 41.0606C55.0833 40.4287 55.7864 40.0911 55.6569 39.5454C56.129 39.7916 56.4869 40.3906 56.4488 40.7916C57.0782 40.1875 56.2686 39.3703 56.2178 38.7104C57.327 38.9236 58.2762 38.1368 59.0503 37.6317C59.2559 37.4896 59.4691 37.4084 59.6341 37.3805C69.8421 42.5632 63.8827 25.7689 59.5935 35.147C56.4158 35.6597 52.3905 35.1292 50.2052 32.3018C51.8626 32.1216 52.5428 34.1571 53.9717 33.9059C52.8676 33.5937 52.8397 32.2561 51.6011 32.0455C53.4361 30.746 56.0656 31.1851 57.3777 32.9668C56.959 33.1952 56.8092 33.8957 56.261 33.8577C56.7661 34.1749 57.3041 34.0708 57.7229 33.6724C57.6112 34.1318 57.7229 34.5582 58.3041 34.7434C57.9285 34.3272 58.4031 34.0125 58.6493 33.6978C58.827 34.0125 59.266 34.2231 59.0351 34.6318C59.6747 34.5404 59.8295 33.4059 59.3295 33.0125C59.8193 32.4465 59.2584 31.6546 58.6468 31.449C59.9082 30.3907 60.4818 32.3805 59.9132 33.5049C60.5503 33.0962 60.5503 32.3475 60.5528 31.7079C62.2685 32.7434 66.4538 29.9668 66.7939 32.6445C67.6061 31.6013 66.3675 30.9871 65.0655 30.8551C65.1112 30.1521 64.2406 29.3831 63.6366 29.9465C64.3523 29.8475 64.5452 30.8831 63.6949 31.1775C63.8878 30.4034 63.0046 29.7587 62.3015 30.1445C63.4944 30.5404 62.601 31.6648 61.5807 31.4516C61.5985 30.515 62.6264 29.7562 61.9056 28.7562C62.1594 28.7206 62.1518 28.4719 61.931 28.3501C62.2432 28.3983 62.3878 28.1141 62.0883 27.9465C62.2812 27.9719 62.4944 27.8628 62.3853 27.6775C64.3675 26.9212 67.1619 26.7816 68.7837 25.8882L68.7355 25.9034L68.7406 25.9009ZM56.2559 29.5836C56.6087 28.5481 58.2204 28.043 57.7432 29.4744C58.2001 28.6496 59.8904 28.5557 58.7813 29.6546C59.1874 29.7562 59.7051 29.4415 60.1264 29.4719C59.6671 31.4973 57.426 29.6064 56.2483 29.6013C56.2483 29.5963 56.2534 29.5887 56.2559 29.5836Z" fill="white"/>
</svg>
