<svg width="82" height="82" viewBox="0 0 82 82" fill="none" xmlns="http://www.w3.org/2000/svg">
<path d="M68.5273 10.1523H12.6902C7.08331 10.1523 2.53802 14.6976 2.53802 20.3045V60.9133C2.53802 66.5202 7.08331 71.0655 12.6902 71.0655H68.5273C74.1342 71.0655 78.6794 66.5202 78.6794 60.9133V20.3045C78.6794 14.6976 74.1342 10.1523 68.5273 10.1523Z" fill="#091C91"/>
<path d="M68.5273 10.1523H12.6902C7.08331 10.1523 2.53802 14.6976 2.53802 20.3045V60.9133C2.53802 66.5202 7.08331 71.0655 12.6902 71.0655H68.5273C74.1342 71.0655 78.6794 66.5202 78.6794 60.9133V20.3045C78.6794 14.6976 74.1342 10.1523 68.5273 10.1523Z" fill="#091C91"/>
<path d="M60.9132 71.0655L20.3044 10.1523H60.9132V71.0655Z" fill="#F6CE46"/>
<path d="M12.6903 10.1523C11.3147 10.1523 10.0051 10.4315 8.80967 10.929L9.93148 11.7437L8.59393 15.8629L12.099 13.3173L15.604 15.8629L14.2665 11.7437L16.4543 10.1523H12.6903Z" fill="white"/>
<path d="M22.114 23.7993L25.6191 21.2511H21.2866L19.9465 17.1318L18.609 21.2511H14.2766L17.7816 23.7993L16.4415 27.9185L19.9465 25.3729L23.4516 27.9185L22.114 23.7993Z" fill="white"/>
<path d="M29.9668 35.8549L33.4693 33.3068H29.1394L27.7993 29.1875L26.4618 33.3068H22.1293L25.6344 35.8549L24.2943 39.9742L27.7993 37.4285L31.3044 39.9742L29.9668 35.8549Z" fill="white"/>
<path d="M37.817 47.9106L41.3221 45.3624H36.9896L35.6521 41.2432L34.312 45.3624H29.9821L33.4846 47.9106L32.147 52.0299L35.6521 49.4842L39.1571 52.0299L37.817 47.9106Z" fill="white"/>
<path d="M45.6698 59.9663L49.1748 57.4181H44.8424L43.5048 53.2988L42.1647 57.4181H37.8323L41.3373 59.9663L39.9998 64.0855L43.5048 61.5399L47.0099 64.0855L45.6698 59.9663Z" fill="white"/>
<path d="M54.8372 71.0651L57.0275 69.4737H52.6951L51.355 65.3545L50.0174 69.4737H45.685L47.8728 71.0651H54.8372Z" fill="white"/>
<path opacity="0.15" d="M68.5273 10.1523H12.6902C7.08367 10.1523 2.53802 14.698 2.53802 20.3045V60.9133C2.53802 66.5198 7.08367 71.0655 12.6902 71.0655H68.5273C74.1338 71.0655 78.6794 66.5198 78.6794 60.9133V20.3045C78.6794 14.698 74.1338 10.1523 68.5273 10.1523ZM76.1414 60.9133C76.1414 65.1112 72.7252 68.5274 68.5273 68.5274H12.6902C8.49228 68.5274 5.07607 65.1112 5.07607 60.9133V20.3045C5.07607 16.1066 8.49228 12.6904 12.6902 12.6904H68.5273C72.7252 12.6904 76.1414 16.1066 76.1414 20.3045V60.9133Z" fill="black"/>
<path opacity="0.2" d="M68.5273 12.6904H12.6903C8.48471 12.6904 5.07611 16.099 5.07611 20.3046V22.8426C5.07611 18.6371 8.48471 15.2285 12.6903 15.2285H68.5273C72.7328 15.2285 76.1414 18.6371 76.1414 22.8426V20.3046C76.1414 16.099 72.7328 12.6904 68.5273 12.6904Z" fill="white"/>
</svg>
