<svg id="Layer_1" data-name="Layer 1" xmlns="http://www.w3.org/2000/svg" width="190.18" height="270.5" viewBox="0 0 190.18 270.5"><title>Brazil national football team logo - Brandlogos.net</title><g id="layer1"><path id="path3706" d="M393.56,278.63,390,267.39l9.13-6.91V260H387.69l-3.58-11.25h-.4L380.21,260H368.79v.48l9,6.91-3.49,11.24H375L383.9,272l9,6.66Z" transform="translate(-288.91 -248.75)" style="fill:#19ae47"/><path id="path3708" d="M350,290.54l-3.57-11.25,9.13-6.9v-.49H344.16l-3.58-11.24h-.39l-3.5,11.24H325.26v.49l9,6.9-3.5,11.25h.65l8.91-6.67,9,6.67Z" transform="translate(-288.91 -248.75)" style="fill:#19ae47"/><path id="path3710" d="M418,290.54l3.57-11.25-9.13-6.9v-.49h11.42l3.58-11.24h.39l3.5,11.24h11.42v.49l-9,6.9,3.5,11.25h-.65l-8.91-6.67-9,6.67Z" transform="translate(-288.91 -248.75)" style="fill:#19ae47"/><path id="path3712" d="M313.69,317.19l-3.59-11.24,9.14-6.91v-.48H307.82l-3.58-11.24h-.4l-3.49,11.24H288.92V299l9,6.9-3.49,11.24h.65l8.92-6.66,9,6.66Z" transform="translate(-288.91 -248.75)" style="fill:#19ae47"/><path id="path3714" d="M473.43,317.19l-3.58-11.24L479,299v-.48H467.56L464,287.32h-.4l-3.49,11.24H448.67V299l9,6.9-3.5,11.24h.65l8.91-6.66,9,6.66Z" transform="translate(-288.91 -248.75)" style="fill:#19ae47"/><path id="path3716" d="M384,502.82c-12-10.69-23.66-15.42-33.44-19.37-11.28-4.56-19.44-7.86-26.06-18.86a48.52,48.52,0,0,1-6.8-25.07V374.61a58.32,58.32,0,0,0-5.82-25.55c-.6-1.24-1.25-2.46-1.94-3.66,13.73-4.86,23.41-13,32.27-20.43,12.39-10.41,22.18-18.64,41.78-18.64s29.8,8.6,40.65,17.69l1.1.93c8.86,7.44,18.54,15.58,32.27,20.44a58.69,58.69,0,0,0-7.75,29.2v64.91a48.63,48.63,0,0,1-6.79,25.08c-6.3,10.46-13.45,13.74-25.53,18.63l-.57.23c-9.76,4-21.45,8.68-33.39,19.36" transform="translate(-288.91 -248.75)" style="fill:#0c87d1"/><path id="path3718" d="M432.38,365.67v63.46h-.56l-12.7-12.75a9.53,9.53,0,0,0-6.71-2.78H400.23v12.17a9.53,9.53,0,0,0,2.78,6.7l12.75,12.74v.56H352.3v-.56l12.76-12.74a9.56,9.56,0,0,0,2.77-6.7V413.6H355.61a9.48,9.48,0,0,0-6.71,2.79l-12.71,12.75h-.56V365.66h.56l12.71,12.75a9.48,9.48,0,0,0,6.71,2.79h12.22V369a9.56,9.56,0,0,0-2.77-6.7L352.3,349.58V349h63.46v.56L403,362.33a9.52,9.52,0,0,0-2.78,6.7v12.18H412.4a9.5,9.5,0,0,0,6.71-2.79l12.7-12.75Z" transform="translate(-288.91 -248.75)" style="fill:#fff"/><path id="path3720" d="M359.38,398.91a12.46,12.46,0,0,0,.21,2.48,2.93,2.93,0,0,0,.74,1.51,2.83,2.83,0,0,0,1.47.78,10.87,10.87,0,0,0,2.4.22h2.91l1.67,0,2.29-.05-1,5.48-1.92.05-1.41,0h-3a21.33,21.33,0,0,1-5.14-.54,7.85,7.85,0,0,1-3.43-1.75,7.13,7.13,0,0,1-1.93-3.22,17.57,17.57,0,0,1-.6-5v-3a16.92,16.92,0,0,1,.6-4.85,7.05,7.05,0,0,1,1.95-3.23,8,8,0,0,1,3.42-1.81,19.94,19.94,0,0,1,5.1-.57h3l1.75,0,2.37.05-1,5.48c-1.07-.05-2-.08-2.7-.08h-3a11,11,0,0,0-2.4.22,2.83,2.83,0,0,0-1.47.78,2.76,2.76,0,0,0-.71,1.51,13.43,13.43,0,0,0-.2,2.48Z" transform="translate(-288.91 -248.75)" style="fill:#193375"/><path id="path3722" d="M380.35,404.42h5.1a3.62,3.62,0,0,0,2.18-.49,2.15,2.15,0,0,0,.63-1.81v-.44a2.23,2.23,0,0,0-.64-1.89,3.94,3.94,0,0,0-2.26-.49h-5Zm7.24-12.06a1.88,1.88,0,0,0-.54-1.52,2.88,2.88,0,0,0-1.83-.45h-4.87v4.37h4.77a2.91,2.91,0,0,0,1.93-.49,2,2,0,0,0,.55-1.59Zm-13.22-6.85h12.14q3.82,0,5.53,1.48a5.55,5.55,0,0,1,1.73,4.43v.44a4.88,4.88,0,0,1-2.78,4.81,5.26,5.26,0,0,1,2.57,2,6,6,0,0,1,.9,3.46v.6c0,2.33-.69,4-2.1,5.06s-3.51,1.55-6.32,1.55H374.37Z" transform="translate(-288.91 -248.75)" style="fill:#193375"/><path id="path3724" d="M415.32,385.51l-1,5.21H403.64v4.61h10.15l-.93,5h-9.22v8.92h-6.28V385.51Z" transform="translate(-288.91 -248.75)" style="fill:#193375"/><path id="path3726" d="M335.62,397.41h-15V381.2h15Z" transform="translate(-288.91 -248.75)" style="fill:#19ae47"/><path id="path3728" d="M432.38,397.41h15v16.2h-15Z" transform="translate(-288.91 -248.75)" style="fill:#19ae47"/><path id="path3730" d="M447.34,439.52A45.52,45.52,0,0,1,441,463.07c-6.1,10.15-13.48,13.13-24.64,17.64A160.29,160.29,0,0,0,400.2,488V445.78H384V498.9c-11.67-9.84-23.06-14.45-32.3-18.19-11.18-4.52-18.55-7.49-24.66-17.64a45.52,45.52,0,0,1-6.37-23.55V413.61h15v-16.2h-15V374.61A61.83,61.83,0,0,0,314.15,347c12.56-5.12,21.78-12.85,30-19.75s14.81-12.41,23.66-15.45V349H384V309.29c18.51,0,27.47,7.52,39.88,17.93,8.21,6.9,17.42,14.64,30,19.75a61.82,61.82,0,0,0-6.51,27.64v6.59h-15v16.2h15ZM461.8,381.2H450.28v-6.59a58.69,58.69,0,0,1,7.75-29.2c-13.73-4.86-23.4-13-32.26-20.43-12.39-10.4-22.18-18.63-41.77-18.63V294.83a66.23,66.23,0,0,0-16.2,1.91v12c-9.9,3.16-17.14,9.21-25.56,16.29-8.86,7.44-18.55,15.57-32.27,20.43a58.58,58.58,0,0,1,7.74,29.2v22.79H306.2v16.2h11.5v25.91a48.65,48.65,0,0,0,6.8,25.07c6.62,11,14.77,14.3,26.06,18.84,9.78,4,21.48,8.67,33.44,19.38v16.43a79.2,79.2,0,0,1,16.2-14.44V491.33a150.3,150.3,0,0,1,17.23-7.89c11.29-4.55,19.46-7.85,26.06-18.84a48.45,48.45,0,0,0,6.8-25.07V397.41H461.8Z" transform="translate(-288.91 -248.75)" style="fill:#fddc02"/><path id="path3732" d="M400.2,311.78a49.1,49.1,0,0,0-16.2-2.49V349h16.2Z" transform="translate(-288.91 -248.75)" style="fill:#19ae47"/><path id="path3734" d="M367.8,488A91.91,91.91,0,0,1,384,498.9V445.78H367.8Z" transform="translate(-288.91 -248.75)" style="fill:#19ae47"/><path id="path3736" d="M384,306.35c19.58,0,29.37,8.23,41.76,18.63,8.86,7.44,18.53,15.57,32.26,20.43a58.69,58.69,0,0,0-7.75,29.2v6.59H461.8v-6.59a47.26,47.26,0,0,1,17.29-36.56c-22.42-1.64-34.64-12.43-47-22.83s-25-20.39-48-20.39h0v11.52Z" transform="translate(-288.91 -248.75)" style="fill:#193375"/><path id="path3738" d="M317.7,374.61a58.58,58.58,0,0,0-7.74-29.2c13.72-4.86,23.41-13,32.27-20.43,8.42-7.08,15.65-13.13,25.56-16.29v-12c-31.74,8-40,38.48-78.88,41.32a47.75,47.75,0,0,1,12.61,16,47.05,47.05,0,0,1,4.68,20.54v22.79h11.5Z" transform="translate(-288.91 -248.75)" style="fill:#193375"/><path id="path3740" d="M350.55,483.44c-11.28-4.56-19.44-7.85-26.06-18.84a48.65,48.65,0,0,1-6.8-25.07V413.6H306.2v25.92a60.07,60.07,0,0,0,8.43,31c16.94,28.15,42.78,17.94,69.33,48.69V502.79c-11.95-10.69-23.63-15.41-33.41-19.35" transform="translate(-288.91 -248.75)" style="fill:#193375"/><path id="path3742" d="M450.28,439.52a48.54,48.54,0,0,1-6.79,25.07c-6.61,11-14.77,14.3-26.07,18.84a150.81,150.81,0,0,0-17.26,7.92v13.48c7.65-5.11,15.09-8.08,22.12-10.93,11.9-4.81,22.61-9.29,31.08-23.37a60.17,60.17,0,0,0,8.43-31V397.41H450.28Z" transform="translate(-288.91 -248.75)" style="fill:#193375"/></g></svg>