<svg width="82" height="82" viewBox="0 0 82 82" fill="none" xmlns="http://www.w3.org/2000/svg">
<path d="M68.5273 10.1523H12.6902C7.08331 10.1523 2.53802 14.6976 2.53802 20.3045V60.9133C2.53802 66.5202 7.08331 71.0655 12.6902 71.0655H68.5273C74.1342 71.0655 78.6794 66.5202 78.6794 60.9133V20.3045C78.6794 14.6976 74.1342 10.1523 68.5273 10.1523Z" fill="#459A45"/>
<path opacity="0.15" d="M68.5273 10.1523H12.6902C7.08367 10.1523 2.53802 14.698 2.53802 20.3045V60.9133C2.53802 66.5198 7.08367 71.0655 12.6902 71.0655H68.5273C74.1338 71.0655 78.6794 66.5198 78.6794 60.9133V20.3045C78.6794 14.698 74.1338 10.1523 68.5273 10.1523ZM76.1414 60.9133C76.1414 65.1112 72.7252 68.5274 68.5273 68.5274H12.6902C8.49228 68.5274 5.07607 65.1112 5.07607 60.9133V20.3045C5.07607 16.1066 8.49228 12.6904 12.6902 12.6904H68.5273C72.7252 12.6904 76.1414 16.1066 76.1414 20.3045V60.9133Z" fill="black"/>
<path d="M8.81216 40.6086L40.6088 60.913L72.4055 40.6086L40.6088 20.3042L8.81216 40.6086Z" fill="#FEDF00"/>
<path d="M40.6086 53.2989C47.6173 53.2989 53.2989 47.6173 53.2989 40.6087C53.2989 33.6001 47.6173 27.9185 40.6086 27.9185C33.6 27.9185 27.9184 33.6001 27.9184 40.6087C27.9184 47.6173 33.6 53.2989 40.6086 53.2989Z" fill="#0A2172"/>
<path d="M35.5325 36.8015C33.0021 36.8015 30.563 37.1796 28.2407 37.8395C28.0428 38.7278 27.9209 39.6415 27.9184 40.5882C30.3143 39.7887 32.8701 39.337 35.53 39.337C41.936 39.337 47.7532 41.8649 52.0755 45.9562C52.4613 45.1288 52.776 44.2659 52.9791 43.3522C48.2989 39.2811 42.2051 36.7964 35.53 36.7964L35.5325 36.8015Z" fill="white"/>
<path opacity="0.2" d="M68.5273 12.6904H12.6902C8.48468 12.6904 5.07608 16.099 5.07608 20.3046V22.8426C5.07608 18.6371 8.48468 15.2285 12.6902 15.2285H68.5273C72.7328 15.2285 76.1414 18.6371 76.1414 22.8426V20.3046C76.1414 16.099 72.7328 12.6904 68.5273 12.6904Z" fill="white"/>
</svg>
