<svg width="82" height="82" viewBox="0 0 82 82" fill="none" xmlns="http://www.w3.org/2000/svg">
<path d="M68.5273 10.1523H12.6903C7.08338 10.1523 2.53809 14.6976 2.53809 20.3045V60.9133C2.53809 66.5202 7.08338 71.0655 12.6903 71.0655H68.5273C74.1342 71.0655 78.6795 66.5202 78.6795 60.9133V20.3045C78.6795 14.6976 74.1342 10.1523 68.5273 10.1523Z" fill="#061B65"/>
<path d="M59.9664 58.3065C55.4766 58.3065 51.6061 55.6365 50.0148 54.3624C49.6087 54.7101 49.266 54.8523 48.9335 54.8523C48.1696 54.7457 46.8016 53.8294 46.6696 52.6848C46.563 51.766 47.1645 51.0376 47.7153 50.6924C48.332 50.2102 48.9564 49.5782 49.0478 49.3828C49.4234 48.8498 49.7457 48.6188 50.1087 48.563C49.8802 48.0884 49.7559 47.5934 49.7483 47.0655L49.8244 29.5073H70.2252V47.0884C70.2328 47.6214 70.0932 48.1391 69.8166 48.6493C70.5628 48.8726 70.9587 49.3549 71.3445 49.8193C71.6643 50.2076 72.1059 50.7406 72.4003 50.8472L72.781 51.1086C73.6846 52.4665 73.0298 53.8117 72.2607 54.3243C72.0755 54.4462 71.4587 54.7609 70.8217 54.7609C70.6059 54.7609 70.4029 54.7254 70.2227 54.6543C70.0729 54.5959 69.9384 54.5172 69.8217 54.4183C68.1897 55.7558 64.5222 58.3116 60.304 58.3142L59.9664 58.3091V58.3065Z" fill="white"/>
<path d="M16.4973 34.9592V40.6089H26.6495V34.9567L34.3576 40.6089H40.6088V37.4592L31.0607 30.4567H40.6088V20.3045H33.6545L40.6088 15.2056V10.1523H36.9515L26.6495 17.7081V10.1523H16.4973V17.2436L8.23093 11.1803C6.28424 12.1295 4.70558 13.6752 3.69797 15.5914L10.1243 20.3071H2.53809V30.4593H12.0888L2.53809 37.4643V40.6114H8.79183L16.4973 34.9592Z" fill="white"/>
<path d="M4.58374 14.1853L12.9212 20.3046H16.3831L5.98982 12.6777C5.47206 13.1346 4.99998 13.6346 4.58374 14.1853Z" fill="#D22D32"/>
<path d="M2.53809 40.6087L16.3806 30.4565V32.9946L5.99744 40.6087H2.53809Z" fill="#D22D32"/>
<path d="M24.1115 40.6089H19.0354V27.9187H2.53809V22.8426H19.0354V10.1523H24.1115V22.8426H40.6088V27.9187H24.1115V40.6089Z" fill="#D22D32"/>
<path d="M40.6088 39.7636L27.9186 30.4565V32.9946L38.3017 40.6087H40.6088V39.7636Z" fill="#D22D32"/>
<path d="M40.6089 10.1523H39.9794L26.1191 20.3147H29.581L40.6089 12.2285V10.1523Z" fill="#D22D32"/>
<path d="M59.8421 54.5299C53.6544 51.3396 50.4209 49.5604 50.3828 47.0528L50.4564 30.1367H69.5908V47.0833C69.6288 49.3853 66.1517 51.5578 60.1264 54.5324L59.9842 54.6035L59.8421 54.5299Z" fill="#006129"/>
<path d="M62.9538 48.7229C62.8777 46.9666 61.8041 43.0783 61.4386 41.8321C62.2432 39.6976 63.8548 36.0047 60.9132 34.7129C60.5198 34.2992 61.3218 34.723 61.5553 34.0301C62.3269 33.1672 60.8726 31.2053 59.9538 31.7763C58.1341 32.2205 59.9158 32.6012 59.1214 33.3347C58.9488 34.8271 60.6366 34.0301 58.9792 35.3093C58.3929 35.5606 58.1924 37.1519 58.1874 37.7661C57.5605 38.7306 55.1112 40.761 56.4336 41.8829C57.1594 41.5199 56.6721 40.3854 57.1417 40.0225C57.4742 39.8017 58.4082 39.1012 58.7229 38.6722C58.832 39.388 57.8117 41.1671 58.3143 41.2433C57.6747 43.3422 57.8219 46.1442 57.9488 48.1315C57.6544 48.7051 57.4158 49.7914 58.2229 49.9513C57.6341 49.9208 57.8701 50.4564 58.2178 50.5046C58.5604 50.0858 60.596 50.0021 59.8878 49.431C60.3117 49.4894 60.0604 50.2711 60.8117 50.03C61.3701 51.5452 62.1061 49.7889 62.3142 49.6036C62.6924 49.2813 63.398 49.662 62.9513 48.7178L62.9538 48.7229ZM62.8751 48.4691C62.8751 48.4691 62.8675 48.4818 62.8574 48.4843C62.8624 48.4843 62.8701 48.4767 62.8751 48.4691ZM61.4386 39.1595C61.6264 38.7484 61.3777 38.3499 61.596 38.0022C62.1264 38.36 61.4614 40.0022 61.4386 39.1595Z" fill="white"/>
<path d="M59.9766 57.6719C55.1696 57.6719 51.0681 54.446 49.9793 53.5095L49.8447 53.6592C49.6087 53.9156 49.2585 54.2176 48.9311 54.2176C48.4996 54.1542 47.393 53.4283 47.2966 52.6136C47.1976 51.7862 47.9615 51.2862 48.0478 51.2303C48.6366 50.7735 49.5453 49.941 49.6442 49.5831C49.8955 49.2608 50.0884 49.1821 50.3041 49.1821C50.8016 49.1821 51.2762 49.6034 51.3295 49.6517C51.398 49.7278 55.233 54.0603 59.4843 54.0603L59.8599 54.0501C62.4233 53.979 64.4918 52.9892 65.7786 52.1719C67.1517 51.2989 67.9588 50.4334 68.0502 50.3116C68.1771 50.0603 68.809 49.2126 69.5248 49.2126C70.1136 49.3319 70.441 49.7253 70.8522 50.2227C71.2633 50.7202 71.7253 51.2811 72.1821 51.4435L72.3801 51.6009C72.9714 52.5323 72.3648 53.4867 71.9055 53.7912C71.7481 53.8953 71.2557 54.1237 70.8166 54.1237C70.6796 54.1237 70.5552 54.1034 70.4461 54.0603C70.205 53.9663 70.04 53.776 69.9765 53.5247V53.4486C68.9588 54.3623 64.9411 57.6795 60.299 57.6795L59.9741 57.6744L59.9766 57.6719Z" fill="#FFC72C"/>
<path opacity="0.15" d="M68.5273 10.1523H12.6903C7.08373 10.1523 2.53809 14.698 2.53809 20.3045V60.9133C2.53809 66.5198 7.08373 71.0655 12.6903 71.0655H68.5273C74.1339 71.0655 78.6795 66.5198 78.6795 60.9133V20.3045C78.6795 14.698 74.1339 10.1523 68.5273 10.1523ZM76.1415 60.9133C76.1415 65.1112 72.7252 68.5274 68.5273 68.5274H12.6903C8.49234 68.5274 5.07613 65.1112 5.07613 60.9133V20.3045C5.07613 16.1066 8.49234 12.6904 12.6903 12.6904H68.5273C72.7252 12.6904 76.1415 16.1066 76.1415 20.3045V60.9133Z" fill="black"/>
<path opacity="0.2" d="M68.5274 12.6904H12.6903C8.48477 12.6904 5.07617 16.099 5.07617 20.3046V22.8426C5.07617 18.6371 8.48477 15.2285 12.6903 15.2285H68.5274C72.7329 15.2285 76.1415 18.6371 76.1415 22.8426V20.3046C76.1415 16.099 72.7329 12.6904 68.5274 12.6904Z" fill="white"/>
</svg>
