<svg width="82" height="82" viewBox="0 0 82 82" fill="none" xmlns="http://www.w3.org/2000/svg">
<path d="M68.5273 10.1523H12.6903C7.08338 10.1523 2.53809 14.6976 2.53809 20.3045V60.9133C2.53809 66.5202 7.08338 71.0655 12.6903 71.0655H68.5273C74.1342 71.0655 78.6795 66.5202 78.6795 60.9133V20.3045C78.6795 14.6976 74.1342 10.1523 68.5273 10.1523Z" fill="#F4E24E"/>
<path d="M78.6795 48.2227L2.53809 32.9944V20.3042L78.6795 35.5325V48.2227Z" fill="white"/>
<path d="M78.6795 60.9131L2.53809 45.6849V32.9946L78.6795 48.2229V60.9131Z" fill="black"/>
<path d="M38.5427 55.7354C36.9158 55.5197 35.4259 55.0019 34.3879 54.2938C34.1874 54.1567 33.997 54.0425 33.9691 54.0425C33.9386 54.0425 33.9133 54.1948 33.9133 54.3852C33.9133 54.9207 33.6975 55.1897 33.1569 55.3293C32.6392 55.4638 31.8498 55.1923 31.2102 54.6618C30.5478 54.111 29.7813 53.6923 29.1341 53.5222C28.6011 53.3826 27.893 53.4055 27.3803 53.5781C27.1418 53.6567 26.8727 53.7709 26.7788 53.8293C26.6849 53.8877 26.5808 53.9334 26.5478 53.9334C26.4565 53.9334 26.4692 53.3572 26.5656 53.1745C26.69 52.9334 26.9996 52.6948 27.3575 52.5654C27.5402 52.4994 27.6874 52.4131 27.6874 52.3776C27.6874 52.342 27.6265 52.1999 27.5504 52.0705C27.3067 51.6441 27.4057 51.2304 27.8321 50.9055C28.2661 50.573 29.0047 50.5146 29.6544 50.7634C29.8194 50.8243 29.9717 50.8776 29.9945 50.8776C30.0808 50.8776 30.0275 50.7583 29.7915 50.4131C29.5199 50.0146 29.4666 49.8192 29.4996 49.3446C29.5427 48.7456 30.0326 48.2532 30.6316 48.2101C31.1214 48.1746 31.4234 48.3395 32.1468 49.0273C34.3016 51.0832 36.6442 52.2151 39.3777 52.5222C40.068 52.5984 41.4563 52.5578 42.2685 52.4359C44.7279 52.0654 47.205 50.8293 49.1415 49.007C49.6771 48.502 49.936 48.3674 50.375 48.3674C50.7583 48.3674 51.0248 48.4893 51.2989 48.7913C51.5476 49.0679 51.6339 49.3319 51.606 49.7532C51.5882 50.0223 51.5451 50.1568 51.3852 50.4182C51.1491 50.804 51.1898 50.8395 51.6568 50.6568C52.2913 50.4106 53.0704 50.5248 53.4918 50.9233C53.8623 51.276 53.8978 51.6263 53.6085 52.1034C53.5044 52.2786 53.4182 52.441 53.4182 52.4689C53.4182 52.5172 53.4968 52.54 53.8826 52.6009C54.3851 52.6821 54.6745 53.0552 54.6745 53.6263C54.6745 53.7989 54.6542 53.9359 54.6263 53.9359C54.6009 53.9359 54.4105 53.8674 54.2024 53.7811C53.6161 53.54 53.2836 53.4765 52.5958 53.4816C52.073 53.4841 51.8953 53.5095 51.5298 53.6288C50.974 53.8116 50.3776 54.1618 49.8903 54.5958C49.3547 55.073 49.0172 55.2227 48.4969 55.2202C48.0121 55.2151 47.6822 55.0755 47.507 54.7989C47.4131 54.6516 47.4004 54.5603 47.4233 54.2278C47.4385 54.0095 47.436 53.8319 47.4182 53.8319C47.4004 53.8319 47.2126 53.9511 46.9994 54.0984C46.4411 54.4816 46.0857 54.672 45.4487 54.9232C43.502 55.6948 40.6898 56.0273 38.5401 55.743L38.5427 55.7354Z" fill="#BF2A2C"/>
<path d="M39.4337 51.9944C36.1926 51.6822 33.0912 49.9944 31.2054 47.3193C29.1572 44.5274 28.5125 40.8397 29.1369 37.4691C29.4694 35.9336 30.1394 34.3981 31.2841 33.3067C30.3729 35.2382 30.0633 37.4539 30.5506 39.5478C31.3069 43.728 34.8373 47.266 39.0657 47.8777C40.7383 48.3624 42.4667 47.8497 44.0657 47.332C47.5885 46.0909 50.2737 42.7457 50.6011 39.0072C50.8803 36.9844 50.5707 34.8803 49.6595 33.0479C50.1798 33.322 50.8346 34.4006 51.2204 35.124C52.5656 37.728 52.6265 40.8498 51.8346 43.629C50.761 47.167 48.058 50.2634 44.4819 51.3903C42.8601 51.9208 41.1342 52.0807 39.4363 51.9918L39.4337 51.9944Z" fill="#BF2A2C"/>
<path d="M20.6242 33.3196C21.0227 33.1343 22.6648 33.581 22.8679 33.7435C23.0709 33.9059 23.4085 34.7054 23.4262 35.5759C23.7308 35.5759 23.9643 35.8475 24.3196 36.2612C24.6749 36.6749 25.1876 37.4693 25.7155 37.6241C26.2435 37.779 26.6495 38.5353 26.6622 39.4871C26.6749 40.4388 26.7105 45.4337 26.779 45.7662C26.8475 46.0987 27.2358 47.1621 27.345 47.4718C27.4541 47.7814 27.5099 47.8347 26.8754 48.2027C26.2409 48.5707 23.3526 48.5606 22.8374 47.8601C22.4618 47.3449 22.8146 47.1469 23.043 46.9007C23.2714 46.6545 23.3526 46.0631 23.4237 45.7281C23.4948 45.3931 23.68 45.0581 23.7283 44.4413C23.7765 43.8246 23.6673 41.0911 23.5684 40.3449C23.4694 39.5987 21.7765 38.9515 21.3755 38.0125C20.9745 37.0734 20.0912 33.5658 20.6217 33.3171L20.6242 33.3196Z" fill="#BF2A2C"/>
<path d="M60.5934 33.3196C60.1949 33.1343 58.5528 33.581 58.3497 33.7435C58.1467 33.9059 57.8091 34.7054 57.7914 35.5759C57.4868 35.5759 57.2533 35.8475 56.898 36.2612C56.5426 36.6749 56.0299 37.4693 55.502 37.6241C54.9741 37.779 54.568 38.5353 54.5553 39.4871C54.5427 40.4388 54.5071 45.4337 54.4386 45.7662C54.3701 46.0987 53.9817 47.1621 53.8726 47.4718C53.7635 47.7814 53.7076 47.8347 54.3421 48.2027C54.9767 48.5707 57.865 48.5606 58.3802 47.8601C58.7558 47.3449 58.403 47.1469 58.1746 46.9007C57.9462 46.6545 57.865 46.0631 57.7939 45.7281C57.7228 45.3931 57.5375 45.0581 57.4893 44.4413C57.4411 43.8246 57.5502 41.0911 57.6492 40.3449C57.7482 39.5987 59.4411 38.9515 59.8421 38.0125C60.2431 37.0734 61.1263 33.5658 60.5959 33.3171L60.5934 33.3196Z" fill="#BF2A2C"/>
<path d="M47.3372 29.84C46.058 29.236 44.9438 28.5076 43.7078 28.3451C42.5606 28.1928 41.5733 29.038 41.1418 29.5253V27.5L41.4058 26.8451L42.1215 27.6827L42.7433 26.9949L43.7433 27.6319C43.7433 27.6319 42.9514 26.4822 42.9717 24.9898C42.9717 24.6548 42.1113 24.3782 41.0047 24.3426V23.0634L42.8347 23.8985L41.7992 22.5152L43.2103 22.0584L41.0834 20.9366C41.2484 20.8731 41.3575 20.7716 41.3575 20.6523C41.3575 20.4619 41.0733 20.3071 40.7256 20.3071C40.3779 20.3071 40.0936 20.4619 40.0936 20.6523C40.0936 20.7919 40.2459 20.9112 40.4641 20.967V24.3477C39.3804 24.3908 38.5454 24.6624 38.5454 24.9949C38.5454 24.9949 38.2916 27.0177 37.718 27.7538L38.6494 26.8883L39.2992 27.6598L40.0022 26.8756L40.3246 27.5025V29.4746C39.8702 28.9822 38.9134 28.2005 37.8068 28.3477C36.5708 28.5101 35.4566 29.2385 34.1774 29.8426C32.8982 30.4466 31.5074 31.0278 30.2333 30.5278C30.3881 32.1826 34.4439 33.8248 35.7053 34.208C36.9667 34.5913 38.5251 33.8273 39.0911 33.637C39.657 33.4441 39.8804 33.9923 39.7129 34.4542C39.5454 34.9136 39.7586 35.1826 40.0428 35.4618C40.1063 35.1369 40.2129 34.9694 40.3246 34.8882V36.0303C40.1012 35.8374 39.6291 35.5024 39.0911 35.543C39.1799 35.8374 39.9794 35.977 39.7763 37.142C39.5733 38.3044 39.2053 39.6217 39.7636 40.6496C39.0885 40.3526 38.822 40.8272 38.822 40.8272C38.822 40.8272 39.789 41.175 39.5301 42.1293C39.2713 43.0836 38.3677 45.0912 39.6418 46.4795C38.5428 45.9693 38.0606 46.3221 37.7104 45.85C37.7154 47.0505 39.5048 47.8424 40.322 47.8424H41.1393C41.9565 47.8424 43.7941 47.048 43.8017 45.85C43.4514 46.3246 42.9692 45.9719 41.8702 46.4795C43.1443 45.0912 42.2433 43.0861 41.9819 42.1293C41.723 41.175 42.69 40.8272 42.69 40.8272C42.69 40.8272 42.4235 40.3526 41.7484 40.6496C42.3068 39.6217 41.9388 38.3044 41.7357 37.142C41.5327 35.9796 42.3321 35.8374 42.421 35.543C41.8398 35.4973 41.3372 35.8933 41.1393 36.0735V34.8578C41.2712 34.9237 41.3981 35.0913 41.4692 35.4593C41.7509 35.1801 41.9667 34.9111 41.7992 34.4517C41.6316 33.9923 41.855 33.4441 42.421 33.6344C42.987 33.8273 44.5428 34.5913 45.8067 34.2055C47.0707 33.8197 51.1265 32.1801 51.2788 30.5253C50.0047 31.0253 48.6163 30.4441 47.3372 29.84Z" fill="#BF2A2C"/>
<path opacity="0.15" d="M68.5273 10.1523H12.6903C7.08373 10.1523 2.53809 14.698 2.53809 20.3045V60.9133C2.53809 66.5198 7.08373 71.0655 12.6903 71.0655H68.5273C74.1339 71.0655 78.6795 66.5198 78.6795 60.9133V20.3045C78.6795 14.698 74.1339 10.1523 68.5273 10.1523ZM76.1415 60.9133C76.1415 65.1112 72.7252 68.5274 68.5273 68.5274H12.6903C8.49234 68.5274 5.07613 65.1112 5.07613 60.9133V20.3045C5.07613 16.1066 8.49234 12.6904 12.6903 12.6904H68.5273C72.7252 12.6904 76.1415 16.1066 76.1415 20.3045V60.9133Z" fill="black"/>
<path opacity="0.2" d="M68.5274 12.6904H12.6903C8.48477 12.6904 5.07617 16.099 5.07617 20.3046V22.8426C5.07617 18.6371 8.48477 15.2285 12.6903 15.2285H68.5274C72.7329 15.2285 76.1415 18.6371 76.1415 22.8426V20.3046C76.1415 16.099 72.7329 12.6904 68.5274 12.6904Z" fill="white"/>
</svg>
