<svg width="82" height="82" viewBox="0 0 82 82" fill="none" xmlns="http://www.w3.org/2000/svg">
<path d="M68.5274 10.1523H12.6903C7.08344 10.1523 2.53815 14.6976 2.53815 20.3045V60.9133C2.53815 66.5202 7.08344 71.0655 12.6903 71.0655H68.5274C74.1343 71.0655 78.6796 66.5202 78.6796 60.9133V20.3045C78.6796 14.6976 74.1343 10.1523 68.5274 10.1523Z" fill="#62AF3F"/>
<path d="M40.6088 40.6089L75.3395 12.8249C73.5349 11.1803 71.1593 10.1523 68.5273 10.1523H12.6903C10.0583 10.1523 7.68019 11.1803 5.87817 12.8249L40.6088 40.6089Z" fill="#B92932"/>
<path d="M40.6088 40.6089L5.87817 68.3929C7.68273 70.0375 10.0583 71.0655 12.6903 71.0655H68.5273C71.1593 71.0655 73.5374 70.0375 75.3395 68.3929L40.6088 40.6089Z" fill="#B92932"/>
<path d="M71.837 10.751L49.7306 28.4361C47.1875 26.5275 44.0352 25.3803 40.6089 25.3803C37.1825 25.3803 34.0328 26.5249 31.4871 28.4361L9.38074 10.751C6.83508 11.6342 4.76403 13.4794 3.59399 15.8753L26.7232 34.3777C25.8679 36.2812 25.3806 38.3878 25.3806 40.6086C25.3806 42.8294 25.8679 44.9359 26.7232 46.8395L3.59653 65.3418C4.76657 67.7378 6.83762 69.5829 9.38328 70.4662L31.4897 52.781C34.0328 54.6897 37.185 55.8368 40.6114 55.8368C44.0378 55.8368 47.1875 54.6922 49.7331 52.781L71.8395 70.4662C74.3852 69.5829 76.4562 67.7378 77.6263 65.3418L54.4971 46.8395C55.3524 44.9359 55.8397 42.8294 55.8397 40.6086C55.8397 38.3878 55.3524 36.2812 54.4971 34.3777L77.6263 15.8753C76.4562 13.4794 74.3827 11.6342 71.837 10.751Z" fill="white"/>
<path d="M41.8194 31.2814L40.6088 29.1875L39.3981 31.2814H36.9794L38.19 33.3778L36.9794 35.4717H39.3981L40.6088 37.5681L41.8194 35.4717H44.2382L43.0275 33.3778L44.2382 31.2814H41.8194Z" fill="#B92932"/>
<path d="M49.5656 44.9057L50.7737 42.8118L48.3549 42.8092L47.1443 40.7153L45.9362 42.8092H43.5174L44.7255 44.9057L43.5174 46.9995L45.9362 47.0021L47.1443 49.096L48.3549 47.0021L50.7737 46.9995L49.5656 44.9057Z" fill="#B92932"/>
<path d="M35.2815 42.8092L34.0734 40.7153L32.8627 42.8092L30.444 42.8118L31.6521 44.9057L30.444 46.9995L32.8627 47.0021L34.0734 49.096L35.2815 47.0021L37.7002 46.9995L36.4921 44.9057L37.7002 42.8092H35.2815Z" fill="#B92932"/>
<path opacity="0.15" d="M68.5274 10.1523H12.6903C7.08379 10.1523 2.53815 14.698 2.53815 20.3045V60.9133C2.53815 66.5198 7.08379 71.0655 12.6903 71.0655H68.5274C74.1339 71.0655 78.6796 66.5198 78.6796 60.9133V20.3045C78.6796 14.698 74.1339 10.1523 68.5274 10.1523ZM76.1415 60.9133C76.1415 65.1112 72.7253 68.5274 68.5274 68.5274H12.6903C8.49241 68.5274 5.07619 65.1112 5.07619 60.9133V20.3045C5.07619 16.1066 8.49241 12.6904 12.6903 12.6904H68.5274C72.7253 12.6904 76.1415 16.1066 76.1415 20.3045V60.9133Z" fill="black"/>
<path opacity="0.2" d="M68.5273 12.6904H12.6903C8.48471 12.6904 5.07611 16.099 5.07611 20.3046V22.8426C5.07611 18.6371 8.48471 15.2285 12.6903 15.2285H68.5273C72.7328 15.2285 76.1414 18.6371 76.1414 22.8426V20.3046C76.1414 16.099 72.7328 12.6904 68.5273 12.6904Z" fill="white"/>
</svg>
