<svg width="82" height="82" viewBox="0 0 82 82" fill="none" xmlns="http://www.w3.org/2000/svg">
<path d="M2.53815 20.3042H78.6796V60.913H2.53815V20.3042Z" fill="#CE2C2D"/>
<path d="M12.6903 10.1523H68.5274C74.1314 10.1523 78.6796 14.7005 78.6796 20.3045V25.3806H2.53815V20.3045C2.53815 14.7005 7.08633 10.1523 12.6903 10.1523Z" fill="#0F299C"/>
<path d="M68.5274 71.0654L12.6903 71.0654C7.08633 71.0654 2.53815 66.5172 2.53815 60.9132V55.8371L78.6796 55.8371V60.9132C78.6796 66.5172 74.1314 71.0654 68.5274 71.0654Z" fill="#0F299C"/>
<path opacity="0.15" d="M68.5274 10.1523H12.6903C7.08379 10.1523 2.53815 14.698 2.53815 20.3045V60.9133C2.53815 66.5198 7.08379 71.0655 12.6903 71.0655H68.5274C74.1339 71.0655 78.6796 66.5198 78.6796 60.9133V20.3045C78.6796 14.698 74.1339 10.1523 68.5274 10.1523ZM76.1415 60.9133C76.1415 65.1112 72.7253 68.5274 68.5274 68.5274H12.6903C8.49241 68.5274 5.07619 65.1112 5.07619 60.9133V20.3045C5.07619 16.1066 8.49241 12.6904 12.6903 12.6904H68.5274C72.7253 12.6904 76.1415 16.1066 76.1415 20.3045V60.9133Z" fill="black"/>
<path d="M58.3751 49.644H57.4893V47.9283H56.6035V46.4639H55.7228V45.3598H55.1975V44.5045C52.2 44.8091 55.0934 39.2253 54.5173 37.6365C54.2939 37.6137 54.1061 37.7558 54.0071 37.9056C54.1619 37.4995 53.7685 36.3599 53.5401 37.2914H53.0807V36.0553C51.9284 37.134 52.8066 36.2787 52.4208 35.2178C52.3955 35.3878 52.1924 35.7152 52.1087 35.6873C52.2812 35.2685 52.5046 34.964 52.2 34.3954C51.8269 35.5782 52.3066 34.2762 51.9411 33.7533C51.9234 33.8904 51.7889 34.2838 51.766 34.2533C51.8929 32.233 49.8143 32.2356 49.9437 34.2533C49.9209 34.2838 49.7863 33.8904 49.7686 33.7533C49.4056 34.2762 49.8828 35.5782 49.5097 34.3954C49.2026 34.9665 49.4259 35.2685 49.6011 35.6873C49.5173 35.7152 49.3143 35.3904 49.2889 35.2203C48.9031 36.2812 49.7813 37.1365 48.629 36.0579V38.2203H48.0732C48.1341 37.9741 47.5909 37.9842 47.6696 38.2254H44.3701L44.3752 36.2381C43.8651 36.436 43.8879 36.7025 43.8955 37.0172C43.3194 37.266 43.223 36.2101 43.7864 36.2457V35.4259C43.6823 35.4487 43.3854 35.4437 43.1214 35.8447V35.6366C42.7737 35.6061 42.7712 35.9335 42.7636 36.568H42.6722C42.4235 35.6848 43.4488 35.2863 42.9158 34.4234C42.0605 35.799 43.5808 33.3955 42.8397 32.9767C42.162 34.8091 43.0554 32.3016 42.4742 31.9589C42.0301 33.6366 42.5884 31.4082 42.2103 31.2736C41.6214 32.3625 42.3752 30.9945 41.9717 30.728C41.5504 31.4361 41.8118 30.4437 41.8473 30.261H41.69L41.7458 29.827H41.5453L41.5935 29.4666H41.2458L41.2788 29.1011H40.9615C41.0402 28.3752 40.1443 28.3777 40.2204 29.1011H39.9032L39.9362 29.4666H39.5885L39.6367 29.827H39.4362L39.492 30.261H39.3372C39.3626 30.431 39.6088 31.4361 39.2128 30.728C38.8144 31.0072 39.558 32.3675 38.9692 31.2559C38.591 31.5122 39.1748 33.5021 38.7103 31.9589C38.1291 32.299 39.0225 34.8117 38.3448 32.9767C37.6037 33.3929 39.124 35.799 38.2687 34.4234C37.7357 35.2888 38.7636 35.6873 38.5123 36.568H38.4692C38.4666 35.8904 38.4692 35.6112 38.091 35.6366V35.8421C37.8271 35.4462 37.5326 35.4513 37.4286 35.4259V36.2457C37.9819 36.1975 37.9057 37.2634 37.3423 37.0172C37.3575 36.6949 37.3499 36.4411 36.8423 36.2406V38.2279H33.5505C33.6291 37.9868 33.086 37.9766 33.1469 38.2228H32.5936V36.0604C31.4413 37.1391 32.3195 36.2838 31.9337 35.2228C31.9083 35.3929 31.7053 35.7203 31.6215 35.6898C31.7941 35.2711 32.0175 34.9665 31.7129 34.398C31.3424 35.5807 31.8195 34.2787 31.454 33.7559C31.4363 33.8929 31.3017 34.2863 31.2789 34.2559C31.4058 32.2356 29.3271 32.2381 29.4566 34.2559C29.4337 34.2863 29.2992 33.8929 29.2815 33.7559C28.9185 34.2787 29.3957 35.5807 29.0226 34.398C28.7155 34.969 28.9414 35.2711 29.1139 35.6898C29.0302 35.7178 28.8271 35.3929 28.8018 35.2203C28.416 36.2838 29.2941 37.1365 28.1419 36.0579V37.2939H27.6825C27.4541 36.3599 27.0607 37.5046 27.2155 37.9081C27.1165 37.7609 26.9262 37.6162 26.7053 37.6391C26.1292 39.2279 29.0251 44.8065 26.0226 44.507V45.3623H25.4972V46.474L24.6165 46.4664V47.9334H23.7307V49.6491H22.845V51.4867H29.1723C29.7688 51.4867 30.9058 51.4867 31.5022 51.4867H39.4489C40.0453 51.4867 41.1824 51.4867 41.7788 51.4867H49.7102C50.3066 51.4867 51.4437 51.4867 52.0401 51.4867H58.3827V49.6491L58.3751 49.644Z" fill="white"/>
<path opacity="0.2" d="M68.5273 12.6904H12.6903C8.48471 12.6904 5.07611 16.099 5.07611 20.3046V22.8426C5.07611 18.6371 8.48471 15.2285 12.6903 15.2285H68.5273C72.7328 15.2285 76.1414 18.6371 76.1414 22.8426V20.3046C76.1414 16.099 72.7328 12.6904 68.5273 12.6904Z" fill="white"/>
</svg>
