<svg width="82" height="82" viewBox="0 0 82 82" fill="none" xmlns="http://www.w3.org/2000/svg">
<path d="M20.3044 10.1523H60.9132V71.0655H20.3044V10.1523Z" fill="white"/>
<path d="M12.6902 10.1523H22.8424V71.0655H12.6902C7.08621 71.0655 2.53802 66.5173 2.53802 60.9133V20.3045C2.53802 14.7005 7.08621 10.1523 12.6902 10.1523Z" fill="#C53A28"/>
<path d="M68.5274 71.0654H58.3752L58.3752 10.1523H68.5274C74.1314 10.1523 78.6796 14.7005 78.6796 20.3045V60.9132C78.6796 66.5172 74.1314 71.0654 68.5274 71.0654Z" fill="#C53A28"/>
<path opacity="0.15" d="M68.5273 10.1523H12.6902C7.08367 10.1523 2.53802 14.698 2.53802 20.3045V60.9133C2.53802 66.5198 7.08367 71.0655 12.6902 71.0655H68.5273C74.1338 71.0655 78.6794 66.5198 78.6794 60.9133V20.3045C78.6794 14.698 74.1338 10.1523 68.5273 10.1523ZM76.1414 60.9133C76.1414 65.1112 72.7252 68.5274 68.5273 68.5274H12.6902C8.49228 68.5274 5.07607 65.1112 5.07607 60.9133V20.3045C5.07607 16.1066 8.49228 12.6904 12.6902 12.6904H68.5273C72.7252 12.6904 76.1414 16.1066 76.1414 20.3045V60.9133Z" fill="black"/>
<path d="M41.3067 56.2609L40.9565 49.5579C40.9387 49.1518 41.2534 48.8067 41.6595 48.7864C41.7128 48.7864 41.7661 48.7864 41.8194 48.7965L48.4919 49.9691L47.5909 47.4843C47.5148 47.2813 47.5782 47.0529 47.7457 46.9184L55.0553 40.9996L53.4081 40.2306C53.1772 40.1215 53.0655 39.8601 53.1442 39.6164L54.5883 35.1723L50.3777 36.0657C50.1417 36.1139 49.9056 35.9921 49.8117 35.7713L48.997 33.8525L45.7102 37.3778C45.5173 37.5809 45.2001 37.5885 44.997 37.3956C44.8727 37.2763 44.8168 37.1037 44.8498 36.9337L46.4336 28.7612L43.893 30.2282C43.6519 30.3703 43.3422 30.2891 43.2026 30.048C43.1976 30.0378 43.1925 30.0277 43.1874 30.0175L40.6087 24.9541L38.0301 30.0175C37.9057 30.2662 37.6012 30.3678 37.3524 30.2434C37.3423 30.2383 37.3321 30.2332 37.322 30.2282L34.7814 28.7612L36.3651 36.9337C36.4184 37.2078 36.2382 37.4718 35.9641 37.5251C35.7941 37.558 35.6215 37.5022 35.5022 37.3778L32.2154 33.8525L31.4007 35.7713C31.3068 35.9921 31.0682 36.1164 30.8347 36.0657L26.6241 35.1723L28.0683 39.6164C28.1469 39.8575 28.0353 40.1215 27.8043 40.2306L26.1571 40.9996L33.4667 46.9184C33.6342 47.0554 33.6976 47.2838 33.6215 47.4843L32.7205 49.9691L39.393 48.7965C39.794 48.728 40.1773 48.997 40.2458 49.398C40.256 49.4513 40.2585 49.5046 40.256 49.5579L39.9057 56.2609H41.3067Z" fill="#C53A28"/>
<path opacity="0.2" d="M68.5273 12.6904H12.6903C8.48471 12.6904 5.07611 16.099 5.07611 20.3046V22.8426C5.07611 18.6371 8.48471 15.2285 12.6903 15.2285H68.5273C72.7328 15.2285 76.1414 18.6371 76.1414 22.8426V20.3046C76.1414 16.099 72.7328 12.6904 68.5273 12.6904Z" fill="white"/>
</svg>
