<svg width="82" height="82" viewBox="0 0 82 82" fill="none" xmlns="http://www.w3.org/2000/svg">
<path d="M68.5273 10.1523H12.6902C7.08331 10.1523 2.53802 14.6976 2.53802 20.3045V60.9133C2.53802 66.5202 7.08331 71.0655 12.6902 71.0655H68.5273C74.1342 71.0655 78.6794 66.5202 78.6794 60.9133V20.3045C78.6794 14.6976 74.1342 10.1523 68.5273 10.1523Z" fill="#13348F"/>
<path d="M2.53802 43.147H78.6794V53.2992H2.53802V43.147Z" fill="#BF312D"/>
<path d="M2.53802 40.6089H78.6794V45.685H2.53802V40.6089Z" fill="white"/>
<path d="M2.53802 50.7607H78.6794V55.8368H2.53802V50.7607Z" fill="white"/>
<path opacity="0.15" d="M68.5273 10.1523H12.6902C7.08367 10.1523 2.53802 14.698 2.53802 20.3045V60.9133C2.53802 66.5198 7.08367 71.0655 12.6902 71.0655H68.5273C74.1338 71.0655 78.6794 66.5198 78.6794 60.9133V20.3045C78.6794 14.698 74.1338 10.1523 68.5273 10.1523ZM76.1414 60.9133C76.1414 65.1112 72.7252 68.5274 68.5273 68.5274H12.6902C8.49228 68.5274 5.07607 65.1112 5.07607 60.9133V20.3045C5.07607 16.1066 8.49228 12.6904 12.6902 12.6904H68.5273C72.7252 12.6904 76.1414 16.1066 76.1414 20.3045V60.9133Z" fill="black"/>
<path d="M17.7077 50.3931L18.3219 52.2839H20.3143L18.7026 53.4514L19.3194 55.3423L17.7077 54.1722L16.0961 55.3423L16.7128 53.4514L15.1011 52.2839H17.091L17.7077 50.3931Z" fill="#F7D116"/>
<path d="M17.543 40.5049L18.1598 42.3932H20.1496L18.5379 43.5607L19.1547 45.4515L17.543 44.284L15.9313 45.4515L16.5481 43.5607L14.9364 42.3932H16.9288L17.543 40.5049Z" fill="#F7D116"/>
<path d="M45.6974 40.5098L46.3142 42.3955H48.3065L46.6949 43.5605L47.3091 45.4463L45.7 44.2813L44.0883 45.4463L44.7025 43.5605L43.0909 42.3955H45.0832L45.6974 40.5098Z" fill="#F7D116"/>
<path d="M45.5149 50.3979L46.1291 52.2837H48.1215L46.5098 53.4487L47.124 55.3345L45.5123 54.1695L43.9007 55.3345L44.5149 53.4487L42.9032 52.2837H44.8931L45.5073 50.3979H45.5149Z" fill="#F7D116"/>
<path d="M31.6191 30.335L32.2333 32.2283H34.2257L32.614 33.3984L33.2308 35.2918L31.6191 34.1217L30.0074 35.2918L30.6216 33.3984L29.01 32.2283H30.9998L31.6166 30.335H31.6191Z" fill="#F7D116"/>
<path d="M31.624 60.0098L32.2382 61.9031H34.2306L32.619 63.0732L33.2332 64.9666L31.6215 63.7965L30.0098 64.9666L30.6266 63.0732L29.0149 61.9031H31.0048L31.6215 60.0098H31.624Z" fill="#F7D116"/>
<path d="M22.9133 33.1597L23.5276 35.0531H25.5199L23.9083 36.2231L24.525 38.1165L22.9133 36.9464L21.3017 38.1165L21.9159 36.2231L20.3042 35.0531H22.2941L22.9133 33.1597Z" fill="#F7D116"/>
<path d="M40.3117 57.1924L40.9259 59.0858H42.9182L41.3066 60.2558L41.9233 62.1492L40.3117 60.9791L38.7 62.1492L39.3167 60.2558L37.7051 59.0858H39.6949L40.3117 57.1924Z" fill="#F7D116"/>
<path d="M23.2179 57.4155L23.8347 59.3089H25.8245L24.2128 60.479L24.8296 62.3749L23.2179 61.2023L21.6063 62.3749L22.223 60.479L20.6114 59.3089H22.6037L23.2179 57.4155Z" fill="#F7D116"/>
<path d="M40.0579 32.9438L40.6746 34.8372H42.667L41.0553 36.0073L41.6696 37.9007L40.0604 36.7306L38.4488 37.9007L39.063 36.0073L37.4539 34.8372H39.4437L40.0579 32.9438Z" fill="#F7D116"/>
<path opacity="0.2" d="M68.5273 12.6904H12.6902C8.48468 12.6904 5.07608 16.099 5.07608 20.3046V22.8426C5.07608 18.6371 8.48468 15.2285 12.6902 15.2285H68.5273C72.7328 15.2285 76.1414 18.6371 76.1414 22.8426V20.3046C76.1414 16.099 72.7328 12.6904 68.5273 12.6904Z" fill="white"/>
</svg>
