<svg width="82" height="82" viewBox="0 0 82 82" fill="none" xmlns="http://www.w3.org/2000/svg">
<path d="M68.5273 10.1523H12.6903C7.08338 10.1523 2.53809 14.6976 2.53809 20.3045V60.9133C2.53809 66.5202 7.08338 71.0655 12.6903 71.0655H68.5273C74.1342 71.0655 78.6795 66.5202 78.6795 60.9133V20.3045C78.6795 14.6976 74.1342 10.1523 68.5273 10.1523Z" fill="#001B69"/>
<path d="M16.4973 34.9592V40.6089H26.6495V34.9567L34.3576 40.6089H40.6088V37.4592L31.0607 30.4567H40.6088V20.3045H33.6545L40.6088 15.2056V10.1523H36.9515L26.6495 17.7081V10.1523H16.4973V17.2436L8.23093 11.1803C6.28424 12.1295 4.70558 13.6752 3.69797 15.5914L10.1243 20.3071H2.53809V30.4593H12.0888L2.53809 37.4643V40.6114H8.79183L16.4973 34.9592Z" fill="white"/>
<path d="M4.58374 14.1853L12.9212 20.3046H16.3831L5.98982 12.6777C5.47206 13.1346 4.99998 13.6346 4.58374 14.1853Z" fill="#CA0A2B"/>
<path d="M2.53809 40.6087L16.3806 30.4565V32.9946L5.99744 40.6087H2.53809Z" fill="#CA0A2B"/>
<path d="M24.1115 40.6089H19.0354V27.9187H2.53809V22.8426H19.0354V10.1523H24.1115V22.8426H40.6088V27.9187H24.1115V40.6089Z" fill="#CA0A2B"/>
<path d="M40.6088 39.7636L27.9186 30.4565V32.9946L38.3017 40.6087H40.6088V39.7636Z" fill="#CA0A2B"/>
<path d="M40.6089 10.1523H39.9794L26.1191 20.3147H29.581L40.6089 12.2285V10.1523Z" fill="#CA0A2B"/>
<path opacity="0.15" d="M68.5273 10.1523H12.6903C7.08373 10.1523 2.53809 14.698 2.53809 20.3045V60.9133C2.53809 66.5198 7.08373 71.0655 12.6903 71.0655H68.5273C74.1339 71.0655 78.6795 66.5198 78.6795 60.9133V20.3045C78.6795 14.698 74.1339 10.1523 68.5273 10.1523ZM76.1415 60.9133C76.1415 65.1112 72.7252 68.5274 68.5273 68.5274H12.6903C8.49234 68.5274 5.07613 65.1112 5.07613 60.9133V20.3045C5.07613 16.1066 8.49234 12.6904 12.6903 12.6904H68.5273C72.7252 12.6904 76.1415 16.1066 76.1415 20.3045V60.9133Z" fill="black"/>
<path opacity="0.2" d="M68.5274 12.6904H12.6903C8.48477 12.6904 5.07617 16.099 5.07617 20.3046V22.8426C5.07617 18.6371 8.48477 15.2285 12.6903 15.2285H68.5274C72.7329 15.2285 76.1415 18.6371 76.1415 22.8426V20.3046C76.1415 16.099 72.7329 12.6904 68.5274 12.6904Z" fill="white"/>
<path d="M56.9716 31.4512C56.0706 30.6365 53.1493 28.3319 52.0656 27.6822C51.9742 27.6289 51.9361 27.5198 51.9691 27.4182C52.0021 27.3218 52.1239 27.1797 52.2255 27.1797H52.2381C52.7838 27.2507 53.3676 27.4182 53.9869 27.6746C53.2737 27.1111 52.5782 26.6441 52.0072 26.3447C51.9133 26.2964 51.8676 26.1873 51.898 26.0883C51.926 25.9893 52.0427 25.8345 52.1468 25.8345H52.1544C52.9818 25.8929 53.8523 26.1441 54.8447 26.6162C54.0325 25.7381 53.1442 24.9817 52.4234 24.5706C52.3295 24.5173 52.2889 24.4056 52.3244 24.3041C52.36 24.2076 52.4818 24.0706 52.5833 24.0706C52.5884 24.0706 52.5935 24.0706 52.6011 24.0706C53.5706 24.2279 54.5528 24.6467 55.5275 25.3167L54.7229 23.7558C54.6747 23.6619 54.6975 23.5477 54.7787 23.4817C54.8346 23.4335 54.9437 23.3904 55.0325 23.3904C55.0706 23.3904 55.1036 23.4005 55.129 23.4183L55.6442 23.8015C56.0528 24.0985 56.4285 24.3726 56.865 24.8066C56.3675 23.8269 55.8523 23.03 55.3574 22.3092C55.3041 22.2279 55.3066 22.1213 55.365 22.0452C55.4082 21.9919 55.4716 21.9589 55.5401 21.9589C55.5655 21.9589 55.5934 21.964 55.6188 21.9741C56.4005 22.2686 57.0706 22.7736 57.7127 23.5553C57.964 23.3675 58.2432 23.2762 58.563 23.2762C58.6873 23.2762 58.8168 23.2888 58.9564 23.3168C58.9081 22.898 59.0579 22.5554 59.1924 22.2457C59.2685 22.0731 59.3472 21.8955 59.3878 21.7C59.4056 21.6163 59.4741 21.5477 59.5579 21.53C59.5731 21.53 59.5883 21.5249 59.6036 21.5249C59.6746 21.5249 59.7406 21.5604 59.7838 21.6163C59.9234 21.8092 60.0477 22.0731 60.1315 22.3523C60.4386 22.0147 60.8777 21.6442 61.3269 21.5325C61.3447 21.5274 61.3624 21.5249 61.3802 21.5249C61.4716 21.5249 61.5528 21.5807 61.5883 21.6696C61.6289 21.7762 61.6162 21.9818 61.5147 22.0351C61.4842 22.0528 61.4513 22.1188 61.4208 22.2C61.733 22.0325 62.0477 21.9361 62.3218 21.9361C62.4284 21.9538 62.6822 22.0579 62.6822 22.167C62.6822 22.2736 62.6086 22.4614 62.502 22.4817C62.2254 22.535 62.1061 22.7838 61.9411 23.1924L61.9106 23.266C62.0147 23.2432 62.1238 23.2229 62.2457 23.2051C62.5223 22.8066 62.9715 22.3523 63.4665 21.8802C63.5096 21.8396 63.5654 21.8193 63.6213 21.8193C63.6695 21.8193 63.7152 21.8345 63.7558 21.865C63.8396 21.9285 63.9436 22.101 63.8979 22.1975C63.7152 22.5807 63.5122 23.0985 63.2888 23.7711C63.8472 23.2457 64.4918 22.8142 65.238 22.4691C65.2685 22.4538 65.2989 22.4462 65.3319 22.4462C65.403 22.4462 65.4741 22.4843 65.5172 22.5452C65.5756 22.634 65.6187 22.8295 65.5426 22.9056C65.0477 23.398 64.3294 24.5731 63.7558 25.7736C65.5959 23.8523 67.205 23.2203 67.8674 22.9614C67.8954 22.9487 67.9207 22.9437 67.9487 22.9437C68.0223 22.9437 68.0908 22.9817 68.1339 23.0452C68.1923 23.1315 68.2329 23.3244 68.1568 23.4005C67.3268 24.2305 66.2989 25.4005 65.3649 26.5553C66.3421 25.832 67.4994 25.1289 68.7278 24.7203C68.7507 24.7127 68.7761 24.7076 68.7989 24.7076C68.875 24.7076 68.9486 24.7482 68.9893 24.8142C69.0426 24.903 69.0781 25.0985 69.0019 25.1721C68.2913 25.8548 67.2278 26.9132 66.205 27.9436C66.974 27.7228 67.6745 27.6111 68.2964 27.6111C68.5705 27.6111 68.8319 27.634 69.0806 27.6797C69.1796 27.7 69.3344 27.7964 69.3446 27.8954C69.3522 27.9944 69.3776 28.1035 69.2837 28.1391C67.9639 28.6264 64.7431 30.101 63.2076 31.535C63.167 31.573 63.1111 31.5933 63.0553 31.5933L56.9767 31.4512H56.9716Z" fill="#F9D24E"/>
<path d="M61.3802 21.7487L61.4132 21.8376C61.1848 21.9492 61.134 22.4645 61.0249 22.7411C61.4437 22.3833 61.936 22.1599 62.3167 22.1599C62.365 22.1599 62.4132 22.1624 62.4589 22.1701V22.264C61.8421 22.3782 61.799 23.165 61.4767 23.6345C61.7178 23.5228 62.0071 23.4645 62.2761 23.4239C62.6848 22.9569 63.1264 22.5076 63.6188 22.0406L63.6949 22.0965C63.3853 22.7462 63.0629 23.698 62.766 24.6599C63.4513 23.7969 64.2914 23.1472 65.3269 22.6675L65.3802 22.7437C64.6492 23.4746 63.5579 25.4518 62.9919 26.972C65.1619 24.2614 67.1492 23.4746 67.9436 23.1599L67.9944 23.2386C66.7152 24.5178 65.0604 26.4974 63.9766 27.9873C65.068 26.9873 66.8472 25.5761 68.7938 24.9264L68.8421 25.0051C67.9766 25.8325 66.5959 27.2157 65.3929 28.4365C66.37 28.0736 67.3928 27.8248 68.2862 27.8248C68.5451 27.8248 68.7938 27.8451 69.0299 27.8908L69.1974 27.9238C67.9867 28.373 64.6568 29.8654 63.0477 31.3654L56.9742 31.2233C56.2153 30.4644 53.2661 28.1395 52.1773 27.4847L52.2077 27.3959C53.2026 27.5253 54.3295 27.9796 55.5732 28.7487C54.4488 27.6878 53.1189 26.6726 52.1087 26.1421L52.1341 26.0533C53.3371 26.1396 54.5478 26.6497 55.7686 27.3528C54.695 26 53.4158 24.8807 52.5326 24.3756L52.563 24.2868C53.7635 24.4797 54.9691 25.0863 56.1721 26.0888C55.761 25.302 55.2762 24.335 54.9158 23.6497L54.9894 23.5914C55.9209 24.3122 56.5427 24.5939 57.7153 26.1446C57.0275 24.4543 56.2686 23.2487 55.5376 22.1827C56.3447 22.4873 57.0224 23.0254 57.6797 23.8756C57.9488 23.6015 58.2406 23.4949 58.5604 23.4949C58.7787 23.4949 59.0097 23.5431 59.2584 23.6193C58.9665 22.8528 59.464 22.3934 59.6036 21.7437C59.7812 21.9924 59.9564 22.4188 60.0147 22.8452C60.2812 22.4695 60.8498 21.8756 61.3777 21.7437M59.601 21.2995C59.5706 21.2995 59.5401 21.302 59.5097 21.3097C59.3371 21.3452 59.2026 21.4797 59.167 21.6523C59.129 21.8325 59.0554 21.9949 58.9843 22.1574C58.8726 22.4137 58.7432 22.7107 58.7229 23.0584C58.667 23.0533 58.6112 23.0508 58.5579 23.0508C58.2635 23.0508 57.9945 23.1218 57.7508 23.2614C57.1239 22.5355 56.4615 22.0558 55.6924 21.7665C55.6417 21.7462 55.5884 21.7386 55.5351 21.7386C55.4006 21.7386 55.2711 21.7995 55.1848 21.9086C55.0655 22.0609 55.0579 22.2741 55.1671 22.434C55.4666 22.8706 55.7711 23.3325 56.0757 23.8477C55.9716 23.7716 55.8701 23.6954 55.7661 23.6218C55.6036 23.5025 55.4361 23.3807 55.2559 23.2411C55.1747 23.1802 55.0808 23.1472 54.9843 23.1472C54.8853 23.1472 54.7838 23.1802 54.7026 23.2487C54.5402 23.3832 54.4209 23.6726 54.5173 23.8579C54.6493 24.1091 54.7965 24.3959 54.9539 24.698C54.1798 24.2589 53.4006 23.9721 52.629 23.8477C52.6062 23.8426 52.5808 23.8426 52.558 23.8426C52.3727 23.8426 52.2026 23.9594 52.1392 24.1396C52.0681 24.3426 52.1189 24.6548 52.3067 24.7614C52.7229 25 53.2889 25.4238 53.893 25.9822C53.2838 25.7715 52.7128 25.6497 52.162 25.6091C52.1519 25.6091 52.1417 25.6091 52.129 25.6091C51.9311 25.6091 51.7559 25.7411 51.7026 25.9314C51.6443 26.1345 51.7128 26.4391 51.8981 26.5355C52.1544 26.67 52.4361 26.8401 52.7356 27.038C52.5732 27.0025 52.4158 26.9746 52.261 26.9543C52.2407 26.9543 52.2229 26.9517 52.2026 26.9517C52.0148 26.9517 51.8473 27.071 51.7839 27.2487C51.7153 27.4467 51.7635 27.7563 51.9438 27.8629C52.9894 28.4898 55.9259 30.807 56.6544 31.5355C56.7356 31.6167 56.8447 31.6624 56.9589 31.6649L63.0325 31.807H63.0426C63.1543 31.807 63.2634 31.7639 63.3447 31.6877C64.8523 30.2817 68.04 28.8248 69.3471 28.3375C69.535 28.269 69.6517 28.0837 69.6339 27.8832C69.6162 27.6827 69.4715 27.5203 69.2761 27.4847L69.1086 27.4517C68.8548 27.4035 68.5756 27.3781 68.2837 27.3781C67.8598 27.3781 67.4005 27.4289 66.9106 27.5279C67.7482 26.6878 68.5629 25.8781 69.1441 25.3223C69.2938 25.1776 69.3243 24.9492 69.2177 24.7716C69.1263 24.6218 68.9258 24.4848 68.7456 24.4848C68.7126 24.4848 68.6796 24.4898 68.6492 24.5C67.903 24.7487 67.1822 25.1015 66.5121 25.5051C67.139 24.7741 67.7659 24.0888 68.3065 23.5482C68.4563 23.3985 68.4791 23.165 68.3649 22.9898C68.271 22.8477 68.0705 22.7208 67.8954 22.7208C67.8548 22.7208 67.8167 22.7284 67.7786 22.7411C67.2203 22.9619 66.0121 23.4391 64.5578 24.6878C64.9639 23.9746 65.3751 23.368 65.6924 23.0533C65.8446 22.901 65.8649 22.6599 65.7431 22.4848C65.6467 22.3477 65.4512 22.231 65.2761 22.231C65.2279 22.231 65.1822 22.2411 65.1391 22.2589C64.6365 22.4899 64.1797 22.7589 63.7634 23.0685C63.8802 22.7589 63.9893 22.4975 64.0934 22.2792C64.1848 22.0863 64.1264 21.8553 63.9538 21.7284C63.8573 21.6599 63.7203 21.6168 63.5883 21.6168C63.4817 21.6168 63.3802 21.6447 63.3091 21.7107C63.1594 21.8528 63.0172 21.9899 62.8827 22.1244C62.837 21.9391 62.7 21.7513 62.5274 21.7234C62.4589 21.7107 62.3878 21.7056 62.3142 21.7056C62.167 21.7056 62.0122 21.7284 61.8548 21.7716C61.8472 21.7386 61.8396 21.7056 61.8269 21.6726C61.7558 21.4848 61.5452 21.297 61.3447 21.297C61.3193 21.297 61.2939 21.2995 61.2711 21.3071C60.8904 21.4036 60.5223 21.6625 60.2203 21.9416C60.1467 21.769 60.0579 21.6092 59.964 21.4797C59.8802 21.363 59.7457 21.2944 59.6036 21.2944L59.601 21.2995Z" fill="white"/>
<path d="M68.2431 38.3955C67.9537 38.3955 67.6974 38.2609 67.4512 38.1315C67.2025 37.997 66.9664 37.8726 66.6948 37.8726L66.436 37.8853C65.5197 37.8853 65.3471 37.2787 65.1949 36.7432C65.1416 36.5528 65.0857 36.3574 64.9994 36.1645C64.0604 36.5351 62.6873 36.7457 61.1847 36.7457C59.898 36.7457 58.6873 36.5858 57.865 36.3066C57.1239 36.9005 56.063 37.2305 54.9944 37.2305C53.4894 37.2305 52.1417 36.5452 51.7204 35.5655C51.4336 34.9006 51.6011 34.1925 52.1874 33.5732C52.0985 32.8676 51.7559 32.6696 50.9996 32.6544H50.9894C50.4564 32.6544 49.9184 32.4158 49.5706 32.0656C49.3422 31.8346 49.2153 31.5783 49.2001 31.3219C49.195 31.3016 49.1925 31.2839 49.1925 31.2661C49.1392 31.3143 48.9717 31.4234 48.8879 31.4234C48.8803 31.4234 48.7432 31.4234 48.7077 31.4234C48.6544 31.4234 48.6113 31.4158 48.6011 31.3803C48.459 30.9412 48.5123 30.5047 48.7432 30.1798C48.964 29.8676 49.3194 29.6925 49.7407 29.6823C49.8879 29.6544 50.0376 29.5707 50.195 29.4844C50.4209 29.3575 50.6772 29.2153 51.0452 29.2153C51.9666 29.228 52.3828 29.5859 52.7483 29.9032C53.03 30.1443 53.294 30.3752 53.6544 30.4361C53.7381 30.327 54.1163 30.19 54.4386 30.19C54.464 30.19 54.7254 30.2306 54.7508 30.2407C55.2609 29.6037 56.0376 29.256 56.8371 29.256C57.0376 29.256 57.2432 29.2788 57.4437 29.3194C57.6289 29.1214 58.0655 28.9971 58.5325 28.9971C58.8726 28.9971 59.2152 29.0631 59.5223 29.19C59.7685 29.1138 60.1518 29.0758 60.5325 29.0758C61.5934 29.0758 62.4665 29.3625 63.1213 29.9336C63.0984 29.8702 63.2355 29.8651 63.3725 29.8651C65.0959 29.8651 66.3167 30.7559 67.6212 32.0884C67.705 32.2534 67.936 32.3448 68.1009 32.4082C68.309 32.4894 68.5527 32.5833 68.6669 32.7585C68.7101 32.7458 68.7583 32.7305 68.8014 32.7178C68.9588 32.6696 69.1212 32.6214 69.2735 32.6214C69.3522 32.6214 69.6314 32.761 69.672 32.8244C69.7405 33.195 69.5121 33.393 69.2887 33.5833C69.1339 33.7204 68.9715 33.86 68.9182 34.0072C68.5984 34.5681 68.1771 34.6747 67.6365 34.6747H67.4994C67.6314 34.8752 67.771 35.0478 67.9207 35.2305C68.342 35.7457 68.7735 36.2813 68.9283 37.4462C69.0375 37.9411 68.8192 38.1899 68.6796 38.2914C68.5146 38.3726 68.3801 38.4031 68.2456 38.4031L68.2431 38.3955Z" fill="#009431"/>
<path d="M58.5326 29.2128C58.8447 29.2128 59.1595 29.2737 59.4386 29.3905C59.7965 29.3296 60.1671 29.2915 60.5351 29.2915C61.4183 29.2915 62.2965 29.5021 62.9741 30.0935C63.1087 30.0834 63.2406 30.0783 63.3701 30.0783C64.9716 30.0783 66.134 30.8803 67.4589 32.2356C67.6112 32.6163 68.5452 32.629 68.5045 33.0021H68.5096C68.7076 33.0021 69.0401 32.8371 69.2685 32.8371C69.3599 32.8371 69.4335 32.8625 69.4766 32.9336C69.5172 33.2432 68.8599 33.5021 68.7025 33.9209C68.4614 34.3397 68.1441 34.4437 67.6315 34.4437C67.4893 34.4437 67.3294 34.4361 67.1543 34.4234C67.1442 34.4386 67.1315 34.4513 67.1213 34.4666C67.6594 35.5148 68.4792 35.7838 68.7 37.4665C68.7837 37.8371 68.6594 38.0173 68.5401 38.1036C68.4335 38.1518 68.3345 38.1721 68.2355 38.1721C67.7381 38.1721 67.3066 37.6493 66.6873 37.6493C66.6442 37.6493 66.5985 37.6493 66.5528 37.6569C66.5096 37.6569 66.4665 37.6594 66.4284 37.6594C65.3244 37.6594 65.5782 36.695 65.096 35.8803C64.1239 36.3143 62.6315 36.5198 61.1823 36.5198C59.9539 36.5198 58.7559 36.3726 57.9336 36.0934C56.9564 36.7407 55.926 37.0046 54.992 37.0046C52.6113 37.0046 50.8727 35.2737 52.3448 33.7229C52.6392 33.4742 52.5935 33.5123 52.393 33.2991C52.2788 32.6341 51.7407 32.4437 50.9996 32.426C50.9717 32.426 50.9438 32.4285 50.9159 32.4285C50.2585 32.4285 49.4108 31.8625 49.4159 31.2585H49.4108V31.2204C49.2636 31.1823 49.1799 31.1392 49.0986 31.1392C49.02 31.1392 48.9413 31.1798 48.8093 31.3016C48.5657 30.5504 48.987 29.9108 49.7408 29.893C50.2357 29.8067 50.4895 29.4235 51.0428 29.4235C51.1012 29.4235 51.1646 29.4285 51.2306 29.4362C51.2509 29.4362 51.2712 29.4362 51.2915 29.4362C52.3676 29.4362 52.69 30.4793 53.6164 30.6392C53.8093 30.5275 54.1494 30.3955 54.4387 30.3955C54.5224 30.3955 54.6037 30.4057 54.6722 30.4311C55.2915 29.8575 56.0148 29.4615 56.8321 29.4615C57.0148 29.4615 57.2026 29.4818 57.3955 29.5224C57.7255 29.3042 58.1265 29.2026 58.53 29.2026M58.53 28.7585C58.0859 28.7585 57.6696 28.86 57.3118 29.0554C57.1519 29.0301 56.992 29.0174 56.8321 29.0174C56.0402 29.0174 55.2686 29.3321 54.5402 29.9539C54.5072 29.9539 54.4717 29.9488 54.4387 29.9488C54.129 29.9488 53.8016 30.0529 53.5605 30.1646C53.322 30.0859 53.1214 29.9108 52.893 29.7153C52.5149 29.3905 52.0453 28.9869 51.2915 28.9869C51.2052 28.9793 51.1215 28.9742 51.0428 28.9742C50.6189 28.9742 50.322 29.1392 50.0834 29.2712C49.9362 29.3524 49.8068 29.426 49.6646 29.4514C49.2458 29.4539 48.8169 29.6697 48.558 30.0326C48.2865 30.4158 48.223 30.926 48.3854 31.4336C48.4311 31.5783 48.5479 31.6874 48.6951 31.7255C48.7332 31.7356 48.7712 31.7407 48.8093 31.7407C48.8931 31.7407 48.9768 31.7153 49.0504 31.6696C49.1215 31.8574 49.2433 32.0402 49.4108 32.2077C49.8068 32.6062 50.3981 32.8651 50.9184 32.8651C50.9311 32.8651 51.0276 32.8625 51.0377 32.86C51.8067 32.8803 51.9159 33.1189 51.959 33.365C51.9641 33.3955 51.9742 33.4285 51.9844 33.4564C51.36 34.1569 51.2027 34.9158 51.5123 35.6391C51.9742 36.7153 53.3727 37.4386 54.992 37.4386C56.0351 37.4386 57.0681 37.1391 57.997 36.5681C58.8295 36.8143 59.9742 36.9538 61.1823 36.9538C62.6036 36.9538 63.9158 36.7686 64.8701 36.4361C64.9107 36.5528 64.9462 36.6721 64.9792 36.7889C65.134 37.3396 65.3498 38.0909 66.431 38.0909L66.5832 38.0858C66.5832 38.0858 66.6036 38.0858 66.6137 38.0858C66.9233 38.0858 67.1289 38.195 67.3447 38.3092C67.6035 38.4462 67.8954 38.601 68.2406 38.601C68.4081 38.601 68.5731 38.563 68.733 38.4919C68.9563 38.3422 69.2863 38.0198 69.1391 37.3549C68.9842 36.1645 68.5096 35.5808 68.0908 35.0655C68.035 34.997 67.9792 34.9285 67.9259 34.86C68.3497 34.8193 68.7837 34.662 69.0934 34.129C69.1594 33.9691 69.3116 33.8371 69.4335 33.7305C69.6746 33.5199 69.9741 33.261 69.9208 32.8625C69.9132 32.8016 69.8929 32.7407 69.8599 32.6874C69.7888 32.5732 69.6187 32.3777 69.271 32.3777C69.0883 32.3777 68.9005 32.4336 68.738 32.4843C68.5731 32.3346 68.3472 32.2458 68.1822 32.1798C68.0756 32.1392 67.898 32.0681 67.8548 32.025C67.832 31.9717 67.8218 31.9564 67.7812 31.9133C66.4386 30.5377 65.1746 29.6214 63.3752 29.6214C63.2939 29.6214 63.2102 29.6214 63.1239 29.6265C62.4462 29.1011 61.5782 28.8346 60.5376 28.8346C60.2026 28.8346 59.8498 28.8626 59.4869 28.9184C59.1874 28.8118 58.86 28.7534 58.5351 28.7534L58.53 28.7585Z" fill="white"/>
<path d="M59.964 59.9488C55.6899 59.9488 52.0022 57.4082 50.4869 56.1925C50.1012 56.5249 49.7738 56.6595 49.4565 56.6595C48.7306 56.5579 47.4261 55.6849 47.3017 54.596C47.2002 53.7204 47.7738 53.0275 48.2966 52.6976C48.8829 52.2382 49.4793 51.6367 49.5656 51.4514C49.9235 50.9438 50.2306 50.7255 50.5758 50.6697C50.3575 50.2179 50.2408 49.7458 50.2331 49.2433L50.3042 35.6343H69.7304V49.2636C69.738 49.7712 69.6061 50.2636 69.3421 50.7509C70.0527 50.9641 70.4309 51.4235 70.7964 51.8651C71.101 52.2356 71.5197 52.7433 71.8015 52.8422L72.1644 53.091C73.0248 54.3854 72.4004 55.6671 71.6695 56.1519C71.4944 56.2686 70.9055 56.5681 70.2989 56.5681C70.0934 56.5681 69.9005 56.5351 69.7279 56.4666C69.5857 56.4107 69.4588 56.3346 69.3472 56.2432C67.7939 57.5173 64.299 59.9513 60.2838 59.9513L59.964 59.9462V59.9488Z" fill="white"/>
<path d="M59.8447 56.3547C53.9513 53.3167 50.8727 51.6213 50.8372 49.2355L50.9057 36.2407H69.1263V49.266C69.1619 51.4589 65.8497 53.5274 60.1163 56.3573L59.9817 56.4258L59.8472 56.3573L59.8447 56.3547Z" fill="#CA0A2B"/>
<path d="M59.974 59.3448C55.3979 59.3448 51.4919 56.2738 50.4538 55.3829L50.3244 55.5251C50.0985 55.7687 49.766 56.058 49.4538 56.058C49.0427 55.9971 47.9894 55.3068 47.898 54.5301C47.8041 53.7433 48.5325 53.2662 48.6137 53.2129C49.1746 52.7763 50.0401 51.9845 50.134 51.6444C50.3726 51.3373 50.5553 51.2637 50.7609 51.2637C51.2355 51.2637 51.6873 51.6647 51.7381 51.7104C51.804 51.7814 55.4563 55.9083 59.5019 55.9083L59.8598 55.8981C62.3014 55.8296 64.2709 54.888 65.4968 54.1114C66.8039 53.2814 67.5729 52.4566 67.6592 52.3398C67.7811 52.1012 68.3826 51.2941 69.0628 51.2941C69.6237 51.4083 69.9359 51.7814 70.3267 52.2561C70.7176 52.7281 71.1567 53.2637 71.5932 53.4185L71.781 53.5708C72.3445 54.4565 71.7658 55.3677 71.3292 55.657C71.1795 55.756 70.71 55.9743 70.2937 55.9743C70.1643 55.9743 70.045 55.954 69.9409 55.9134C69.7125 55.8245 69.5526 55.6443 69.4942 55.4032V55.3296C68.5247 56.2002 64.6973 59.3575 60.2786 59.3575L59.9689 59.3524L59.974 59.3448Z" fill="#F9D24E"/>
<path d="M69.1288 49.2637V40.8374C68.6593 40.8374 68.3039 41.0684 67.7024 41.5887C66.9385 42.2511 66.073 42.0988 64.9537 41.6902C63.8852 41.2308 62.8167 40.4186 61.7482 41.6902C61.4436 42.0455 60.7304 42.5557 60.0172 42.5557C59.2533 42.5557 58.5908 42.0455 58.2863 41.6902C57.167 40.4186 56.1492 41.2308 55.0807 41.6902C53.9614 42.0988 53.0452 42.2511 52.2812 41.5887C51.7203 41.0684 51.3726 40.8399 50.8802 40.8374L50.8422 49.2333C50.8777 51.619 53.9563 53.3144 59.8497 56.3525L59.9842 56.421L60.1187 56.355C65.8547 53.5251 69.1669 51.4541 69.1288 49.2637Z" fill="#234F9A"/>
<path d="M60.0146 50.4409C60.6263 50.4409 61.8471 49.7785 62.1516 49.6262C63.2709 48.9638 64.0856 49.5755 64.7481 49.88C65.4613 50.1846 66.7836 50.5424 67.5983 49.88C68.413 49.2176 68.8699 49.2683 69.4308 49.2683C69.5323 48.5044 69.5323 47.7404 69.5323 46.875V46.2633C68.8191 46.111 68.4638 46.3141 67.6998 46.9765C66.9359 47.6389 66.0704 47.4866 64.9511 47.078C63.8826 46.6212 62.8141 45.8065 61.7456 47.078C61.441 47.4333 60.7278 47.9435 60.0146 47.9435C59.2507 47.9435 58.5882 47.4333 58.2837 47.078C57.1644 45.8065 56.1466 46.6212 55.0781 47.078C53.9588 47.4841 53.0426 47.6389 52.2786 46.9765C51.5654 46.3141 51.2101 46.111 50.4462 46.2633V46.875C50.4462 47.7404 50.4969 48.5044 50.5985 49.2683C51.1594 49.2683 51.5654 49.2176 52.3802 49.88C53.1949 50.5424 54.568 50.1846 55.2304 49.88C55.9436 49.5755 56.7583 48.9638 57.8776 49.6262C58.1821 49.7785 59.3547 50.4409 60.0146 50.4409Z" fill="white"/>
<path d="M60.0146 43.9893C60.6263 43.9893 61.8471 43.3268 62.1516 43.1746C63.2709 42.5121 64.0856 43.1238 64.7481 43.4284C65.4613 43.7329 66.7836 44.0908 67.5983 43.4284C68.413 42.7659 68.8699 42.8167 69.4308 42.8167C69.5323 42.0527 69.5323 41.2888 69.5323 40.4233V39.8116C68.8191 39.6594 68.4638 39.8624 67.6998 40.5248C66.9359 41.1873 66.0704 41.035 64.9511 40.6264C63.8826 40.1695 62.8141 39.3548 61.7456 40.6264C61.441 40.9817 60.7278 41.4918 60.0146 41.4918C59.2507 41.4918 58.5882 40.9817 58.2837 40.6264C57.1644 39.3548 56.1466 40.1695 55.0781 40.6264C53.9588 41.0324 53.0426 41.1873 52.2786 40.5248C51.5654 39.8624 51.2101 39.6594 50.4462 39.8116V40.4233C50.4462 41.2888 50.4969 42.0527 50.5985 42.8167C51.1594 42.8167 51.5654 42.7659 52.3802 43.4284C53.1949 44.0908 54.568 43.7329 55.2304 43.4284C55.9436 43.1238 56.7583 42.5121 57.8776 43.1746C58.1821 43.3268 59.3547 43.9893 60.0146 43.9893Z" fill="white"/>
</svg>
