<svg width="82" height="82" viewBox="0 0 82 82" fill="none" xmlns="http://www.w3.org/2000/svg">
<path d="M2.53809 38.0708H78.6795V55.8371H2.53809V38.0708Z" fill="#4B9638"/>
<path d="M2.53809 22.8423H78.6795V40.6086H2.53809V22.8423Z" fill="white"/>
<path d="M12.6903 10.1523H68.5273C74.1313 10.1523 78.6795 14.7005 78.6795 20.3045V25.3806H2.53809V20.3045C2.53809 14.7005 7.08627 10.1523 12.6903 10.1523Z" fill="#0F2C7E"/>
<path d="M68.5273 71.0654L12.6902 71.0654C7.0862 71.0654 2.53802 66.5172 2.53802 60.9132V55.8371L78.6794 55.8371V60.9132C78.6794 66.5172 74.1313 71.0654 68.5273 71.0654Z" fill="#F8D147"/>
<path d="M19.2257 18.9645L22.5251 16.5686H18.449L17.1876 12.6904L15.9287 16.5686H11.8501L15.1496 18.9645L13.8881 22.8426L17.1876 20.4467L20.4871 22.8426L19.2257 18.9645Z" fill="#F8D147"/>
<path d="M32.9946 10.1523H48.2229V71.0655H32.9946V10.1523Z" fill="#C22B38"/>
<path opacity="0.15" d="M68.5273 10.1523H12.6903C7.08373 10.1523 2.53809 14.698 2.53809 20.3045V60.9133C2.53809 66.5198 7.08373 71.0655 12.6903 71.0655H68.5273C74.1339 71.0655 78.6795 66.5198 78.6795 60.9133V20.3045C78.6795 14.698 74.1339 10.1523 68.5273 10.1523ZM76.1415 60.9133C76.1415 65.1112 72.7252 68.5274 68.5273 68.5274H12.6903C8.49234 68.5274 5.07613 65.1112 5.07613 60.9133V20.3045C5.07613 16.1066 8.49234 12.6904 12.6903 12.6904H68.5273C72.7252 12.6904 76.1415 16.1066 76.1415 20.3045V60.9133Z" fill="black"/>
<path opacity="0.2" d="M68.5274 12.6904H12.6903C8.48477 12.6904 5.07617 16.099 5.07617 20.3046V22.8426C5.07617 18.6371 8.48477 15.2285 12.6903 15.2285H68.5274C72.7329 15.2285 76.1415 18.6371 76.1415 22.8426V20.3046C76.1415 16.099 72.7329 12.6904 68.5274 12.6904Z" fill="white"/>
</svg>
