<svg width="82" height="82" viewBox="0 0 82 82" fill="none" xmlns="http://www.w3.org/2000/svg">
<path d="M68.5274 10.1523H12.6903C7.08344 10.1523 2.53815 14.6976 2.53815 20.3045V60.9133C2.53815 66.5202 7.08344 71.0655 12.6903 71.0655H68.5274C74.1343 71.0655 78.6796 66.5202 78.6796 60.9133V20.3045C78.6796 14.6976 74.1343 10.1523 68.5274 10.1523Z" fill="#DB362F"/>
<path opacity="0.15" d="M68.5274 10.1523H12.6903C7.08379 10.1523 2.53815 14.698 2.53815 20.3045V60.9133C2.53815 66.5198 7.08379 71.0655 12.6903 71.0655H68.5274C74.1339 71.0655 78.6796 66.5198 78.6796 60.9133V20.3045C78.6796 14.698 74.1339 10.1523 68.5274 10.1523ZM76.1415 60.9133C76.1415 65.1112 72.7253 68.5274 68.5274 68.5274H12.6903C8.49241 68.5274 5.07619 65.1112 5.07619 60.9133V20.3045C5.07619 16.1066 8.49241 12.6904 12.6903 12.6904H68.5274C72.7253 12.6904 76.1415 16.1066 76.1415 20.3045V60.9133Z" fill="black"/>
<path d="M20.1978 25.7663L18.2486 19.7612L16.2969 25.7663H9.98474L15.0913 29.4769L13.1395 35.4794L18.2486 31.7687L23.3552 35.4794L21.4034 29.4769L26.5125 25.7663H20.1978Z" fill="#FFFF00"/>
<path d="M32.2967 20.7789L33.3805 22.5834L33.5632 20.487L35.6139 20.0149L33.6774 19.1926L33.8627 17.0962L32.482 18.6825L30.5455 17.8601L31.6267 19.6647L30.246 21.251L32.2967 20.7789Z" fill="#FFFF00"/>
<path d="M37.7281 26.3246L38.025 28.4084L39.0098 26.548L41.0834 26.9084L39.6189 25.3982L40.6011 23.5379L38.7128 24.4642L37.2458 22.9541L37.5453 25.0378L35.6545 25.9642L37.7281 26.3246Z" fill="#FFFF00"/>
<path d="M39.586 34.548L41.2434 33.2511L39.1393 33.3247L38.4185 31.3501L37.8398 33.3729L35.7383 33.4491L37.4845 34.6242L36.9058 36.647L38.5632 35.3501L40.3068 36.5252L39.586 34.548Z" fill="#FFFF00"/>
<path d="M33.6546 39.4287L33.751 37.3271L32.4363 38.9693L30.4693 38.2282L31.6242 39.9845L30.3094 41.6291L32.3399 41.0708L33.4972 42.8296L33.5937 40.7281L35.6241 40.1698L33.6546 39.4287Z" fill="#FFFF00"/>
<path opacity="0.2" d="M68.5273 12.6904H12.6903C8.48471 12.6904 5.07611 16.099 5.07611 20.3046V22.8426C5.07611 18.6371 8.48471 15.2285 12.6903 15.2285H68.5273C72.7328 15.2285 76.1414 18.6371 76.1414 22.8426V20.3046C76.1414 16.099 72.7328 12.6904 68.5273 12.6904Z" fill="white"/>
</svg>
