<svg width="82" height="82" viewBox="0 0 82 82" fill="none" xmlns="http://www.w3.org/2000/svg">
<path d="M2.53796 38.0708H78.6794V55.8371H2.53796V38.0708Z" fill="#DD4446"/>
<path d="M2.53796 22.8423H78.6794V40.6086H2.53796V22.8423Z" fill="white"/>
<path d="M12.6902 10.1523H68.5272C74.1312 10.1523 78.6794 14.7005 78.6794 20.3045V25.3806H2.53796V20.3045C2.53796 14.7005 7.08614 10.1523 12.6902 10.1523Z" fill="#F8D448"/>
<path d="M68.5273 71.0654L12.6903 71.0654C7.08627 71.0654 2.53808 66.5172 2.53808 60.9132V55.8371L78.6795 55.8371V60.9132C78.6795 66.5172 74.1313 71.0654 68.5273 71.0654Z" fill="#163AA0"/>
<path d="M5.87803 68.3927L40.6087 40.6087L5.87803 12.8247C3.83998 14.6826 2.53796 17.3323 2.53796 20.3043V60.9131C2.53796 63.8877 3.83998 66.5374 5.87803 68.3927Z" fill="#439543"/>
<path opacity="0.15" d="M68.5272 10.1523H12.6902C7.08361 10.1523 2.53796 14.698 2.53796 20.3045V60.9133C2.53796 66.5198 7.08361 71.0655 12.6902 71.0655H68.5272C74.1337 71.0655 78.6794 66.5198 78.6794 60.9133V20.3045C78.6794 14.698 74.1337 10.1523 68.5272 10.1523ZM76.1413 60.9133C76.1413 65.1112 72.7251 68.5274 68.5272 68.5274H12.6902C8.49222 68.5274 5.07601 65.1112 5.07601 60.9133V20.3045C5.07601 16.1066 8.49222 12.6904 12.6902 12.6904H68.5272C72.7251 12.6904 76.1413 16.1066 76.1413 20.3045V60.9133Z" fill="black"/>
<path d="M12.5809 41.9667C11.8297 35.7181 16.2865 30.043 22.5351 29.2892C20.4819 28.7207 18.3144 28.7207 16.2611 29.2892C10.0124 31.0227 6.35001 37.4922 8.0835 43.7434C9.81699 49.992 16.2865 53.6544 22.5377 51.921C17.322 51.2941 13.2104 47.1824 12.5835 41.9667H12.5809Z" fill="white"/>
<path d="M23.081 32.2613L22.5379 30.5913L21.9947 32.2613H20.2384L21.6597 33.2943L21.1166 34.9644L22.5379 33.9339L23.9592 34.9644L23.416 33.2943L24.8373 32.2613H23.081Z" fill="white"/>
<path d="M22.5379 35.771L21.9947 37.441H20.2384L21.6597 38.474L21.1166 40.1466L22.5379 39.1136L23.9592 40.1466L23.416 38.474L24.8373 37.441H23.081L22.5379 35.771Z" fill="white"/>
<path d="M22.5379 40.9517L21.9947 42.6242H20.2384L21.6597 43.6547L21.1166 45.3273L22.5379 44.2943L23.9592 45.3273L23.416 43.6572L24.8373 42.6242H23.0785L22.5379 40.9517Z" fill="white"/>
<path d="M23.0785 47.8043L22.5379 46.1343L21.9947 47.8043H20.2384L21.6597 48.8373L21.1166 50.5073L22.5379 49.4743L23.9592 50.5073L23.416 48.8373L24.8373 47.8043H23.0785Z" fill="white"/>
<path opacity="0.2" d="M68.5272 12.6904H12.6902C8.48465 12.6904 5.07605 16.099 5.07605 20.3046V22.8426C5.07605 18.6371 8.48465 15.2285 12.6902 15.2285H68.5272C72.7328 15.2285 76.1414 18.6371 76.1414 22.8426V20.3046C76.1414 16.099 72.7328 12.6904 68.5272 12.6904Z" fill="white"/>
</svg>
