<svg width="82" height="82" viewBox="0 0 82 82" fill="none" xmlns="http://www.w3.org/2000/svg">
<path d="M68.5279 10.1523H12.6908C7.08392 10.1523 2.53864 14.6976 2.53864 20.3045V60.9133C2.53864 66.5202 7.08392 71.0655 12.6908 71.0655H68.5279C74.1348 71.0655 78.6801 66.5202 78.6801 60.9133V20.3045C78.6801 14.6976 74.1348 10.1523 68.5279 10.1523Z" fill="#001B69"/>
<path d="M16.4979 34.9585V40.6089H26.6501V34.9562L34.3584 40.6089H40.6093V37.4589L31.0615 30.4567H40.6093V20.3045H33.6551L40.6093 15.2048V10.1523H36.952L26.6501 17.7079V10.1523H16.4979V17.2424L8.23249 11.1785C6.28454 12.128 4.70587 13.6744 3.70055 15.5893L10.1271 20.3045H2.53864V30.4567H12.0898L2.53864 37.4615V40.6089H8.79289L16.4979 34.9585Z" fill="white"/>
<path d="M4.58302 14.1853L12.9215 20.3043H16.3824L5.98859 12.6782C5.47006 13.1338 4.99976 13.6338 4.58302 14.1853Z" fill="#CA0A2B"/>
<path d="M2.53766 40.6087L16.3817 30.4565V32.9946L5.99879 40.6087H2.53766Z" fill="#CA0A2B"/>
<path d="M24.112 40.6089H19.0359V27.9187H2.53864V22.8426H19.0359V10.1523H24.112V22.8426H40.6093V27.9187H24.112V40.6089Z" fill="#CA0A2B"/>
<path d="M58.0984 34.8979L58.74 36.8703H60.8072L59.1359 38.0822L59.7776 40.0545L58.0984 38.8426L56.4192 40.0545L57.0608 38.0822L55.3895 36.8703H57.4568L58.0984 34.8979Z" fill="white"/>
<path d="M64.5161 36.2622L64.3001 38.3249L66.1887 39.1657L64.1689 39.5931L63.9529 41.6558L62.9118 39.8657L60.8849 40.2898L62.2732 38.749L61.2392 36.9622L63.1278 37.8031L64.5161 36.2622Z" fill="white"/>
<path d="M69.8243 40.1187L68.788 41.9151L70.1712 43.4514L68.1522 43.0202L67.1159 44.8166L66.8928 42.7578L64.8685 42.3207L66.7634 41.4778L66.5456 39.4248L67.9288 40.9611L69.8243 40.1187Z" fill="white"/>
<path d="M73.1048 45.801L71.4274 47.0207L72.0663 48.987L70.3972 47.772L68.7198 48.9918L69.3536 47.0202L67.682 45.7976L69.7561 45.7984L70.3922 43.8345L71.031 45.8007L73.1048 45.801Z" fill="white"/>
<path d="M73.7906 52.326L71.7619 52.758L71.546 54.8141L70.5155 53.0252L68.4868 53.4572L69.8675 51.9138L68.8379 50.1171L70.7323 50.9613L72.1122 49.4258L71.8962 51.4819L73.7906 52.326Z" fill="white"/>
<path d="M71.7631 58.5659L69.7342 58.1354L68.7004 59.9258L68.4865 57.8725L66.4576 57.442L68.3466 56.5938L68.1367 54.5337L69.524 56.0756L71.4093 55.2342L70.3755 57.0245L71.7631 58.5659Z" fill="white"/>
<path d="M67.3729 63.4416L65.6945 62.223L64.0219 63.4382L64.6617 61.4753L62.9833 60.2568L65.0541 60.2502L65.7003 58.2827L66.3407 60.2555L68.4051 60.2535L66.7325 61.4687L67.3729 63.4416Z" fill="white"/>
<path d="M61.3792 66.1104L60.3417 64.3145L58.3196 64.7444L59.7023 63.2114L58.6648 61.4155L60.5592 62.2518L61.9498 60.7173L61.7323 62.78L63.6191 63.6178L61.597 64.0477L61.3792 66.1104Z" fill="white"/>
<path d="M54.8181 66.1104L54.6006 64.0477L52.5785 63.6178L54.4653 62.78L54.2478 60.7173L55.6384 62.2518L57.5328 61.4155L56.4952 63.2114L57.878 64.7444L55.8559 64.3145L54.8181 66.1104Z" fill="white"/>
<path d="M48.8242 63.4416L49.4645 61.4687L47.7919 60.2535L49.8564 60.2555L50.4967 58.2827L51.1429 60.2502L53.2137 60.2568L51.5353 61.4753L52.1751 63.4382L50.5026 62.223L48.8242 63.4416Z" fill="white"/>
<path d="M44.4341 58.5659L45.8214 57.024L44.7877 55.2337L46.6729 56.0751L48.0602 54.5332L47.8503 56.5933L49.7394 57.4415L47.7105 57.872L47.4965 59.9253L46.4628 58.1349L44.4341 58.5659Z" fill="white"/>
<path d="M42.4065 52.326L44.3009 51.4819L44.0849 49.4258L45.4649 50.9613L47.3593 50.1171L46.3296 51.9138L47.7103 53.4572L45.6816 53.0252L44.6512 54.8141L44.4352 52.758L42.4065 52.326Z" fill="white"/>
<path d="M43.0923 45.801L45.1663 45.8002L45.8052 43.834L46.4412 45.7979L48.5153 45.7972L46.8437 47.0197L47.4775 48.9913L45.8001 47.7715L44.1311 48.9865L44.7699 47.0202L43.0923 45.801Z" fill="white"/>
<path d="M46.373 40.1187L48.2679 40.9616L49.6511 39.4253L49.4334 41.4783L51.3283 42.3212L49.3039 42.7583L49.0808 44.8171L48.0445 43.0207L46.0255 43.4519L47.4087 41.9156L46.373 40.1187Z" fill="white"/>
<path d="M51.681 36.2622L53.0693 37.8031L54.9579 36.9622L53.9239 38.749L55.3122 40.2898L53.2853 39.8657L52.2442 41.6558L52.0282 39.5931L50.0085 39.1657L51.897 38.3249L51.681 36.2622Z" fill="white"/>
<path d="M40.6092 39.7628L27.919 30.4565V32.9946L38.3019 40.6087H40.6092V39.7628Z" fill="#CA0A2B"/>
<path d="M40.6095 10.1523H39.979L26.12 20.3157H29.5809L40.6095 12.2282V10.1523Z" fill="#CA0A2B"/>
<path opacity="0.15" d="M68.5279 10.1523H12.6908C7.08402 10.1523 2.53864 14.6975 2.53864 20.3045V60.9133C2.53864 66.5203 7.08402 71.0655 12.6908 71.0655H68.5279C74.1349 71.0655 78.6801 66.5203 78.6801 60.9133V20.3045C78.6801 14.6975 74.1349 10.1523 68.5279 10.1523ZM76.142 60.9133C76.142 65.112 72.7266 68.5274 68.5279 68.5274H12.6908C8.49213 68.5274 5.07668 65.112 5.07668 60.9133V20.3045C5.07668 16.1058 8.49213 12.6904 12.6908 12.6904H68.5279C72.7266 12.6904 76.142 16.1058 76.142 20.3045V60.9133Z" fill="black"/>
<path opacity="0.2" d="M68.5273 12.6904H12.6903C8.48496 12.6904 5.07611 16.0993 5.07611 20.3046V22.8426C5.07611 18.6373 8.48496 15.2285 12.6903 15.2285H68.5273C72.7326 15.2285 76.1414 18.6373 76.1414 22.8426V20.3046C76.1414 16.0993 72.7326 12.6904 68.5273 12.6904Z" fill="white"/>
</svg>
