<?xml version="1.0" encoding="UTF-8"?><svg id="Layer_1" xmlns="http://www.w3.org/2000/svg" viewBox="0 0 228.92 289.22"><defs><style>.cls-1{fill:#0766af;}.cls-2{fill:#fefefd;}.cls-3{fill:#d8b17b;}.cls-4{fill:#eb3226;}</style></defs><path class="cls-3" d="M72.31.07c12.02-.15,24.05-.02,36.08-.06,16.08.04,32.16-.08,48.24.05.07,3.14.87,6.2,1.96,9.13,2.64,7,7.01,13.3,12.46,18.4,4.97,4.56,10.68,8.27,16.82,11.04,12.85,5.89,27.05,7.94,41.04,8.75-1.14,7.33-2.92,14.54-4.57,21.76-8.11,33.88-18.76,67.23-33.11,99-9.06,19.98-19.75,39.33-33.15,56.75-2.8,3.57-5.69,7.06-8.73,10.43-.69.48-.2,1.24-.02,1.87,1.68,4.08,2.77,8.48,2.73,12.92-3.45-5.69-7-11.37-11.35-16.43-1.94-2.37-4.13-4.5-6.3-6.65-1.42-1.41-3.08-2.54-4.45-4.01,1.24-1.28,2.43-2.61,3.53-4.02,1.92,1.04,3.73,2.28,5.35,3.75,2.77-5.18,5.21-10.53,7.43-15.97.52-1.17.94-2.38,1.28-3.62-4.09.59-8.17,1.2-12.27,1.68-.76,4.5-1.46,9.01-2.44,13.47-.52.13-1.18.05-1.51.56-6.01,6.67-11.53,13.98-14.83,22.4-1.15,2.66-1.85,5.48-2.77,8.22-.12.59-.75.76-1.22.99-3.88,1.56-8.05,2.4-12.24,2.41.14-7.02,2.53-13.79,5.36-20.14,3.18-6.76,7.18-13.15,11.92-18.93,3.15.11,6.14,1.27,9.26,1.6.22-2.52.79-4.99,1.22-7.48,2.95-17.38,5.35-34.84,7.52-52.33,5.27-43.05,9.3-86.25,12.81-129.48.47-6.47,1.08-12.94,1.42-19.42-23.55-.03-47.11,0-70.65-.02.2,5.95.88,11.87,1.26,17.81,3.4,41.83,7.25,83.64,12.26,125.32,2.27,18.82,4.78,37.61,7.91,56.31.5,3.1,1.2,6.18,1.55,9.3,4.18-.66,8.29-2.02,12.58-1.65-2.29,3.61-4.92,7-7.03,10.73-5.16,8.6-8.88,18.21-9.74,28.26-4.81.29-9.73.32-14.37-1.18,1.94-8.51,4.42-16.95,8.29-24.81,1.21-2.72,2.9-5.19,4.23-7.84-.78-4.71-1.78-9.4-2.47-14.14-4.15-.49-8.29-1.05-12.42-1.68,2.54,6.64,5.43,13.16,8.79,19.44.73-.41,1.45-.83,2.18-1.24-4.74,9.37-9.22,19.09-10.66,29.59-1.58-.22-3.16-.47-4.72-.8.08-4.94,1.41-9.73,3.26-14.28-9.28-10.08-17.14-21.39-24.29-33.06-9.1-15.08-16.79-30.98-23.54-47.23-10.82-25.98-19.33-52.87-26.12-80.17-2.29-9.28-4.52-18.58-6.11-28.01,1.94-.25,3.89-.32,5.85-.4,12.93-1.1,25.96-3.66,37.63-9.51,8.11-4.05,15.46-9.78,20.81-17.15,4.27-5.93,7.6-12.87,8.02-20.26h0Z"/><path class="cls-1" d="M79.15,6.72c23.55.02,47.1-.02,70.65.02-.34,6.48-.95,12.94-1.42,19.42-3.51,43.23-7.55,86.43-12.81,129.48-2.17,17.49-4.57,34.96-7.52,52.33-.43,2.49-1,4.95-1.22,7.48-3.12-.33-6.1-1.49-9.26-1.6-.95-.04-1.91-.02-2.86-.03-4.29-.37-8.4.99-12.58,1.65-.35-3.13-1.05-6.2-1.55-9.3-3.13-18.7-5.65-37.49-7.91-56.31-5.01-41.68-8.86-83.48-12.26-125.32-.37-5.94-1.06-11.86-1.26-17.81h0Z"/><path class="cls-4" d="M73.23,19.07c.41,3.12.54,6.25.84,9.38.23,4.4.85,8.77.96,13.19-4.99-.05-9.94-.65-14.91-.92-2.35-.31-4.75-.27-7.07-.77,5.52-3.72,10.71-8.01,14.9-13.21,2-2.39,3.67-5.02,5.29-7.67h0Z"/><path class="cls-4" d="M155.66,18.93c4.85,8.61,12.06,15.82,20.43,21.02-5.44.74-10.95.97-16.43,1.38-1.91.25-3.85.28-5.77.31.44-7.58,1.14-15.15,1.77-22.71h0Z"/><path class="cls-3" d="M99.98,23.89c3.29-.04,6.57-.02,9.86-.01.16,4.98-.27,9.99.24,14.95,2.91-.07,5.83-.03,8.74-.02.06-4.95.02-9.91.03-14.86,3.35-.14,6.7-.09,10.05-.03-.01,14.63-.01,29.25,0,43.88-1.23.14-2.46.33-3.69.14-2.13-.03-4.26.29-6.36-.18,0-5.61,0-11.23-.02-16.84-2.96,0-5.92-.03-8.88,0-.27,5.72.05,11.46-.17,17.18-3.28.04-6.56-.06-9.83-.28.03-14.65-.02-29.29.02-43.93h0Z"/><path class="cls-2" d="M43.86,46.13c4.54.04,9.04.8,13.58,1.02,6.07.58,12.17.82,18.23,1.42,1.07,11.79,2.03,23.58,3.23,35.36-9.71-.72-19.4-1.77-29.08-2.88-2.07-10.17-3.71-20.43-5.46-30.65-.26-1.41-.41-2.83-.5-4.26h0Z"/><path class="cls-2" d="M158.86,48.11c8.72-.63,17.44-1.24,26.12-2.19,0,.99-.02,1.99-.18,2.98-1.84,10.72-3.53,21.47-5.68,32.13-9.66,1.15-19.35,2.11-29.04,2.94,1.04-11.8,2.13-23.59,3.17-35.39,1.85-.31,3.73-.36,5.6-.47h0Z"/><path class="cls-4" d="M35.38,48.16c.61-.18,1.23-.32,1.86-.46,1.44,9.45,3.09,18.86,4.78,28.26.29,1.4.51,2.81.62,4.24-9.83-1.28-19.66-2.56-29.43-4.25-1.65-6.59-3.24-13.2-4.65-19.86-.16-.85-.25-1.71-.34-2.56,9.22-.74,18.37-2.47,27.16-5.37h0Z"/><path class="cls-4" d="M191.67,47.69c2.59.53,5.03,1.57,7.59,2.19,7.08,1.95,14.37,2.97,21.65,3.77-1.64,7.46-3.34,14.9-5.18,22.32-9.74,1.68-19.56,2.87-29.34,4.27-.02-1.65.32-3.27.65-4.88,1.57-9.22,3.28-18.42,4.63-27.68h0Z"/><path class="cls-2" d="M15.22,83.13c9.57,1.4,19.12,2.87,28.73,3.94,1.66,7.91,3.07,15.88,4.79,23.79.56,2.91,1.33,5.79,1.76,8.73-3.57-.18-7.09-.85-10.63-1.31-5.01-.77-10.02-1.51-15.01-2.36-2.85-8.29-5.24-16.72-7.7-25.13-.63-2.55-1.51-5.05-1.94-7.65h0Z"/><path class="cls-2" d="M184.94,87.09c9.6-1.13,19.17-2.49,28.71-3.98-.29,2.32-1.08,4.52-1.68,6.77-2.41,8.73-5.02,17.42-7.89,26.01-5.65.94-11.31,1.85-16.99,2.64-2.88.38-5.75.95-8.66,1.05,1.2-6.94,2.9-13.78,4.18-20.7.82-3.92,1.45-7.88,2.32-11.79h0Z"/><path class="cls-3" d="M99.96,84.87c3.17-.16,6.38-.21,9.55.04,2.62,7.07,5.56,14.02,8.21,21.08.53,1.42,1.1,2.82,1.76,4.18.22-4.14-.01-8.3.04-12.45,0-4.28-.03-8.56-.07-12.84,3.15-.13,6.32-.32,9.46.03-.01,14.64,0,29.27,0,43.91-3.17.07-6.34.03-9.51.03-3.46-8.68-6.88-17.38-10.29-26.08.4,2.99.07,6.03.18,9.04.13,5.67,0,11.35.12,17.02-3.14.05-6.29.02-9.42.02-.02-14.66,0-29.32-.01-43.98h0Z"/><path class="cls-4" d="M51.02,88.04c5.31.35,10.58,1.13,15.89,1.55,4.21.49,8.45.71,12.66,1.21,1.03,10.76,2.18,21.5,3.29,32.25-2.86.08-5.68-.41-8.52-.59-5.53-.52-11.06-1.1-16.57-1.82-2.49-10.82-4.59-21.72-6.75-32.6h0Z"/><path class="cls-4" d="M169.84,88.8c2.69-.2,5.36-.68,8.07-.73-2.13,10.88-4.31,21.76-6.73,32.58-5.61.73-11.24,1.31-16.86,1.83-2.75.23-5.49.61-8.26.61,1.15-10.75,2.28-21.51,3.28-32.27,6.82-.75,13.68-1.23,20.5-2.03h0Z"/><path class="cls-4" d="M27.32,123.2c7.59.98,15.13,2.31,22.74,3.21.64.08,1.3.11,1.92.31.41.36.4.97.58,1.46,2.12,9.56,4.52,19.06,6.92,28.55-4.86-.5-9.66-1.51-14.48-2.32-2.16-.36-4.32-.75-6.45-1.26-4.02-9.87-7.91-19.81-11.22-29.94h0Z"/><path class="cls-4" d="M191.64,124.63c3.33-.43,6.62-1.14,9.97-1.43-2.49,7.74-5.46,15.31-8.38,22.9-.94,2.22-1.73,4.51-2.76,6.69-.22.58-.94.54-1.42.69-6.52,1.18-13.04,2.41-19.61,3.26,2.52-9.97,5.03-19.95,7.24-30,4.98-.72,9.98-1.33,14.95-2.11h0Z"/><path class="cls-2" d="M59.32,127.64c8.07.89,16.16,1.63,24.25,2.39,1.22,10.05,2.36,20.1,3.6,30.15-6.82-.66-13.64-1.39-20.42-2.4-2.67-10-5.13-20.05-7.43-30.14h0Z"/><path class="cls-2" d="M145.34,130.04c8.05-.76,16.1-1.49,24.14-2.4-2.04,10.13-4.7,20.13-7.3,30.14-6.77,1.01-13.59,1.75-20.4,2.41,1.19-10.05,2.37-20.1,3.56-30.15h0Z"/><path class="cls-3" d="M104.84,148.16c2.74-2.98,7.08-3.95,10.98-3.53,2.72.33,5.46,1.26,7.43,3.22,2.73,2.79,4,6.79,3.86,10.65-3.01.03-6.03.01-9.04,0-.37-1.19-.69-2.56-1.84-3.27-1.67-1.23-4.9-.78-5.28,1.56-.41,1.84,1.23,3.15,2.71,3.82,3.41,1.49,7.19,2.31,10.2,4.59,2.58,2.17,4.03,5.46,4.22,8.79.27,4.28-.26,8.9-2.94,12.41-2.11,2.96-5.8,4.28-9.3,4.6-3.84.31-8-.72-10.79-3.51-2.96-3.07-4.26-7.43-4.29-11.63,3.09.07,6.18-.09,9.26.07.87,1.22.87,3.08,2.29,3.94,1.96,1.13,5.35.82,6.05-1.67.51-1.68-.69-3.15-2.12-3.86-3.82-1.91-8.28-2.73-11.56-5.62-1.99-2.17-3.21-5.08-3.26-8.03l-.23-.31c0-1.19,0-2.39.06-3.58.36-3.13,1.25-6.39,3.58-8.65h0Z"/><path class="cls-2" d="M41.88,160.82c1.6.05,3.19.31,4.77.63,4.86.81,9.73,1.68,14.63,2.29,1.26,3.66,2.14,7.43,3.3,11.13,1.93,6.54,4.02,13.02,6.23,19.47-3.82-.43-7.53-1.5-11.3-2.21-.75-.18-1.55-.25-2.22-.64-.52-.54-.88-1.2-1.25-1.84-5.15-9.39-9.87-19.01-14.15-28.83h0Z"/><path class="cls-2" d="M170.16,163.4c5.66-.67,11.22-2.02,16.89-2.6-3.31,7.73-7.02,15.27-10.87,22.74-1.57,2.71-2.81,5.63-4.64,8.18-4.48.75-8.86,2.07-13.37,2.64,3.3-9.76,6.34-19.6,9.06-29.54.19-1.44,1.89-1.17,2.93-1.42h0Z"/><path class="cls-4" d="M68.61,164.81c6.5.89,13.06,1.42,19.56,2.33,1.22,10.24,2.73,20.45,4.37,30.62-2.51-.06-4.97-.54-7.45-.87-2.28-.34-4.58-.6-6.81-1.17-2.21-6.83-4.66-13.59-6.63-20.5-1.07-3.46-2-6.95-3.04-10.41h0Z"/><path class="cls-4" d="M144.83,166.6c5.17-.47,10.32-1.17,15.48-1.78-2.95,10.43-6.12,20.8-9.78,31-4.68.77-9.38,1.66-14.13,1.93,1.52-9.18,2.77-18.39,4-27.61.18-1.01.14-2.1.57-3.04,1.23-.4,2.58-.3,3.85-.5h0Z"/><path class="cls-4" d="M61.85,199.59c3.66.66,7.3,1.46,10.95,2.13.87,0,.99.97,1.3,1.58,3.12,8.35,6.75,16.54,11.06,24.35-.51.66-1.02,1.33-1.53,2-8.25-9.25-15.46-19.41-21.79-30.06h0Z"/><path class="cls-4" d="M158.38,201.27c2.92-.5,5.79-1.22,8.72-1.68-6.33,10.62-13.55,20.72-21.71,30.02-.54-.66-1.08-1.31-1.61-1.97,4.13-7.49,7.59-15.34,10.65-23.32.32-.81.59-1.65,1.06-2.4.91-.39,1.92-.47,2.89-.65h0Z"/><path class="cls-3" d="M121.04,236.01c2.01-4.36,4.58-8.53,8.08-11.85,6.13,5.64,11.93,11.7,16.68,18.57,2.31,3.44,4.64,6.95,6.26,10.78-.16,6.18-2.12,12.35-5.44,17.56-2.93-6.79-6.27-13.44-10.52-19.51-3.77-5.5-8.41-10.42-13.76-14.41-.45-.36-.88-.75-1.31-1.13h0Z"/><path class="cls-3" d="M119.77,237.66c5.08,3.18,9.25,7.6,12.96,12.26,5.09,6.61,9.13,13.99,12.33,21.68.29.65.54,1.45-.06,2.02-2.71,3.62-5.94,6.96-9.84,9.3-2.17-6.02-4.48-12.02-7.71-17.57-3.08-5.35-7.15-10.06-11.48-14.42,0-4.68,1.6-9.19,3.8-13.26h0Z"/><path class="cls-3" d="M76.79,252.36c3.74.79,7.5,1.52,11.29,2.04,8.77,1.14,17.78.58,26.28-1.93,4.25,2.32,7.15,6.42,9.31,10.64-6.8,3.36-14.4,4.8-21.93,5.21-4.56.44-9.13.06-13.68-.23-2.69-.23-5.38-.52-8.03-1.03-1.93-4.67-3.22-9.64-3.24-14.71h0Z"/><path class="cls-3" d="M112.96,268.65c3.99-.89,7.88-2.24,11.56-4.03,2.09,2.65,3.78,5.6,5.25,8.65.72,1.34,1.35,2.73,1.75,4.2-11.01,3.45-22.48,5.9-34.07,5.55-1.48-.13-3.12.23-4.47-.56-4.86-3.36-8.89-7.89-11.69-13.09,10.52,1.15,21.28,1.66,31.67-.73h0Z"/><path class="cls-3" d="M118.49,283.15c4.59-.8,9.1-2.09,13.45-3.77.63,1.51,1.24,3.04,1.74,4.61-5.76,3.29-12.34,5.25-19,5.22-5.8-.04-11.73-1.18-16.83-4.02,6.9-.49,13.82-.83,20.64-2.04h0Z"/></svg>