<svg width="82" height="82" viewBox="0 0 82 82" fill="none" xmlns="http://www.w3.org/2000/svg">
<path d="M2.53802 27.9185H78.6794V53.2989H2.53802V27.9185Z" fill="white"/>
<path d="M12.6902 10.1523H68.5273C74.1313 10.1523 78.6794 14.7005 78.6794 20.3045V30.4567H2.53802V20.3045C2.53802 14.7005 7.08621 10.1523 12.6902 10.1523Z" fill="#EA3323"/>
<path d="M68.5272 71.0654L12.6901 71.0654C7.08611 71.0654 2.53793 66.5172 2.53793 60.9132V50.7611L78.6794 50.7611V60.9132C78.6794 66.5172 74.1312 71.0654 68.5272 71.0654Z" fill="#100E91"/>
<path opacity="0.15" d="M68.5273 10.1523H12.6902C7.08367 10.1523 2.53802 14.698 2.53802 20.3045V60.9133C2.53802 66.5198 7.08367 71.0655 12.6902 71.0655H68.5273C74.1338 71.0655 78.6794 66.5198 78.6794 60.9133V20.3045C78.6794 14.698 74.1338 10.1523 68.5273 10.1523ZM76.1414 60.9133C76.1414 65.1112 72.7252 68.5274 68.5273 68.5274H12.6902C8.49228 68.5274 5.07607 65.1112 5.07607 60.9133V20.3045C5.07607 16.1066 8.49228 12.6904 12.6902 12.6904H68.5273C72.7252 12.6904 76.1414 16.1066 76.1414 20.3045V60.9133Z" fill="black"/>
<path d="M40.6111 55.8369C47.0171 55.8369 52.2607 50.5958 52.2607 44.1872V30.3447H28.964V44.1872C28.964 50.5933 34.205 55.8369 40.6136 55.8369H40.6111Z" fill="#EA3323"/>
<path d="M40.6113 55.6493C46.8955 55.6493 52.0375 50.5073 52.0375 44.2231V30.5684H29.185V44.2231C29.185 50.5073 34.3271 55.6493 40.6113 55.6493Z" fill="white"/>
<path d="M34.0072 30.9995H29.6088V35.832H34.0072V30.9995Z" fill="#EA3323"/>
<path d="M34.0073 40.662H38.4057V35.8296H34.0073V40.662Z" fill="#EA3323"/>
<path d="M29.6114 44.1976C29.6114 44.6367 29.6393 45.0682 29.69 45.4945H34.0098V40.6621H29.6114V44.1976Z" fill="#EA3323"/>
<path d="M42.804 40.6621H38.4056V45.4945H42.804V40.6621Z" fill="#EA3323"/>
<path d="M42.8041 50.3246H47.2025V45.4922H42.8041V50.3246Z" fill="#FF0000"/>
<path d="M47.2026 52.9693C48.1772 52.2332 49.0274 51.3398 49.7127 50.3271H47.2026V52.9693Z" fill="#EA3323"/>
<path d="M34.0099 50.3246H38.4083V45.4922H34.0099V50.3246Z" fill="#EA3323"/>
<path d="M31.4947 50.3242C32.1825 51.3394 33.0328 52.2328 34.0099 52.9714V50.3242H31.4947Z" fill="#EA3323"/>
<path d="M41.37 55.1567C41.8574 55.1237 42.3345 55.0577 42.804 54.9612V50.3242H38.4056V54.9612C38.8726 55.0577 39.3498 55.1211 39.8345 55.1567C40.3472 55.1871 40.8599 55.1871 41.37 55.1567Z" fill="#EA3323"/>
<path d="M51.5173 45.4945C51.568 45.0682 51.5959 44.6342 51.5959 44.1925V40.6621H47.2026V45.4945H51.5173Z" fill="#EA3323"/>
<path d="M42.8041 40.662H47.2025V35.8296H42.8041V40.662Z" fill="#EA3323"/>
<path d="M42.804 30.9995H38.4056V35.832H42.804V30.9995Z" fill="#EA3323"/>
<path d="M51.5959 35.8295V30.9971H47.2026V35.8295H51.5959Z" fill="#EA3323"/>
<path d="M51.8421 30.2029L54.568 24.0228L52.4918 20.6675L49.0503 21.9416L46.634 19.1802L43.4488 21.005L40.6087 18.6802L37.7686 21.005L34.5834 19.1802L32.1672 21.9416L28.7256 20.6675L26.6469 24.0228L29.3702 30.2054C32.8017 28.6522 36.6062 27.7867 40.6062 27.7867C44.6061 27.7867 48.4081 28.6522 51.8396 30.2029H51.8421Z" fill="white"/>
<path d="M32.2458 22.2154L32.2407 22.2205L28.827 20.9565L26.9159 24.0403L27.6469 25.7027L29.4996 29.9108C30.8829 29.2991 32.327 28.7966 33.8168 28.4184L32.2458 22.2154Z" fill="#0093DD"/>
<path d="M37.7989 21.2865L37.7938 21.2916L34.6364 19.4819L32.2456 22.2154L33.8192 28.4184C35.2811 28.0453 36.7862 27.7915 38.3293 27.6646L37.8014 21.2865H37.7989Z" fill="#100E91"/>
<path d="M43.4308 21.2892L43.4232 21.2943L40.6085 18.9897L37.7989 21.2918L38.3268 27.6699C39.0781 27.609 39.8395 27.5734 40.6085 27.5734C41.3775 27.5734 42.144 27.6064 42.9004 27.6699L43.4308 21.2918V21.2892Z" fill="#0093DD"/>
<path d="M48.9842 22.2179H48.9766L46.5807 19.4819L43.4309 21.2865L42.9005 27.6646C44.4436 27.7915 45.9487 28.0478 47.4106 28.4184L48.9867 22.2154L48.9842 22.2179Z" fill="#100E91"/>
<path d="M51.7125 29.9107L54.3013 24.0427L52.3902 20.959L48.9841 22.2204L47.408 28.4234C48.8927 28.8016 50.3318 29.3041 51.71 29.9132L51.7125 29.9107Z" fill="#0093DD"/>
<path opacity="0.2" d="M68.5273 12.6904H12.6902C8.48468 12.6904 5.07608 16.099 5.07608 20.3046V22.8426C5.07608 18.6371 8.48468 15.2285 12.6902 15.2285H68.5273C72.7328 15.2285 76.1414 18.6371 76.1414 22.8426V20.3046C76.1414 16.099 72.7328 12.6904 68.5273 12.6904Z" fill="white"/>
</svg>
