<svg width="82" height="82" viewBox="0 0 82 82" fill="none" xmlns="http://www.w3.org/2000/svg">
<path d="M68.5273 10.1523H12.6903C7.08338 10.1523 2.53809 14.6976 2.53809 20.3045V60.9133C2.53809 66.5202 7.08338 71.0655 12.6903 71.0655H68.5273C74.1342 71.0655 78.6795 66.5202 78.6795 60.9133V20.3045C78.6795 14.6976 74.1342 10.1523 68.5273 10.1523Z" fill="white"/>
<path opacity="0.15" d="M68.5273 10.1523H12.6903C7.08373 10.1523 2.53809 14.698 2.53809 20.3045V60.9133C2.53809 66.5198 7.08373 71.0655 12.6903 71.0655H68.5273C74.1339 71.0655 78.6795 66.5198 78.6795 60.9133V20.3045C78.6795 14.698 74.1339 10.1523 68.5273 10.1523ZM76.1415 60.9133C76.1415 65.1112 72.7252 68.5274 68.5273 68.5274H12.6903C8.49234 68.5274 5.07613 65.1112 5.07613 60.9133V20.3045C5.07613 16.1066 8.49234 12.6904 12.6903 12.6904H68.5273C72.7252 12.6904 76.1415 16.1066 76.1415 20.3045V60.9133Z" fill="black"/>
<path d="M25.6192 50.4767C25.576 50.4767 25.5329 50.4843 25.4897 50.4919C25.5735 51.4335 26.2537 52.0401 26.8121 52.3827C27.1877 52.6112 27.5912 52.7888 28.0126 52.9081C27.5811 51.931 27.0963 51.2355 26.571 50.8345C26.1598 50.5223 25.8172 50.4741 25.6522 50.4741C25.6395 50.4741 25.6293 50.4741 25.6192 50.4741V50.4767Z" fill="#4E5B31"/>
<path d="M23.8475 49.449C24.3069 49.7129 24.7231 49.8931 24.9592 49.9337C24.9668 49.9337 24.9769 49.9337 24.9845 49.9337C24.9998 49.9337 25.015 49.9312 25.0277 49.9261C25.0454 49.916 25.0581 49.9007 25.0658 49.8804C25.0835 49.8221 25.0835 49.7586 25.0658 49.7028C25.0201 49.5023 24.9515 49.3094 24.8627 49.1266C24.685 48.7256 24.4566 48.3145 24.4287 48.2662V48.2612C24.1977 47.982 23.9566 47.713 23.7028 47.4591C23.5023 47.2561 23.284 47.0708 23.0505 46.9059C22.7942 46.7307 22.6064 46.6495 22.4287 46.647C22.383 46.647 22.3399 46.652 22.2967 46.6673C22.2739 46.9059 22.2714 47.147 22.2891 47.3881C22.3272 47.9185 22.4592 48.3145 22.68 48.5657C22.9211 48.8424 23.3373 49.1571 23.8475 49.449Z" fill="#4E5B31"/>
<path d="M29.4641 52.8574C29.1063 51.7203 28.69 50.8879 28.2205 50.3802C27.8119 49.9386 27.4413 49.8371 27.2002 49.832C27.185 49.832 27.1697 49.832 27.1545 49.832C27.1444 49.832 27.1342 49.832 27.1241 49.832C27.0225 49.8371 26.9261 49.8625 26.8347 49.9031C27.2002 50.8066 27.7763 51.6112 28.5149 52.2483C28.8017 52.497 29.1215 52.7026 29.4667 52.8599L29.4641 52.8574Z" fill="#4E5B31"/>
<path d="M25.1089 51.3753C25.081 51.1139 24.9693 50.8702 24.7866 50.6799C24.4922 50.3601 23.8627 49.9692 22.5277 49.9312C22.5607 50.1469 22.6216 50.3575 22.7079 50.5606C22.8373 50.855 23.081 51.2205 23.5125 51.2992C23.883 51.3626 24.2561 51.3956 24.6317 51.3956C24.9185 51.3956 25.1064 51.3753 25.1089 51.3753Z" fill="#4E5B31"/>
<path d="M26.0252 53.04C25.9998 53.04 25.9769 53.04 25.9516 53.04C25.5962 53.0426 25.2434 53.0883 24.9008 53.1746C24.8983 53.2126 24.8983 53.2482 24.9008 53.2837C24.916 53.3751 24.9516 53.4614 25.0049 53.5375C25.1267 53.7228 25.4135 53.9766 26.0785 54.1416C26.4719 54.238 26.8754 54.2862 27.279 54.2862C27.6901 54.2862 28.0987 54.2405 28.4972 54.1441C28.0987 53.6213 27.5277 53.2583 26.8856 53.1238C26.6013 53.068 26.3145 53.04 26.0252 53.04Z" fill="#4E5B31"/>
<path d="M33.8118 54.8979C33.2179 53.1136 32.0555 52.8243 31.4159 52.8091C31.3981 52.8091 31.3778 52.8091 31.3601 52.8091C31.3423 52.8091 31.3245 52.8091 31.3068 52.8091C31.1748 52.8091 31.0428 52.8269 30.9159 52.8573C31.025 53.1847 31.2052 53.4842 31.4387 53.7355C31.8194 54.1593 32.5402 54.705 33.8118 54.9004V54.8979Z" fill="#4E5B31"/>
<path d="M38.8067 57.0986C37.6646 54.9361 36.4768 54.7026 36.0148 54.7026C35.926 54.7026 35.8346 54.7128 35.7484 54.7331C35.7204 55.0884 35.8143 55.4412 36.0123 55.7356C36.3245 56.2204 37.0631 56.8498 38.8092 57.1011L38.8067 57.0986Z" fill="#4E5B31"/>
<path d="M29.1952 53.3345H29.1571C29.0251 53.3345 28.8931 53.3548 28.7662 53.3928C28.7865 53.4791 28.817 53.5604 28.8576 53.639C28.9642 53.8472 29.1089 54.0324 29.284 54.1873C29.6952 54.5553 30.515 55.0045 32.0962 55.0603C30.817 53.5604 29.7307 53.337 29.1977 53.337L29.1952 53.3345Z" fill="#4E5B31"/>
<path d="M35.9718 57.167C35.4033 57.167 35.0505 57.3396 34.8576 57.4842C34.7408 57.568 34.6418 57.6721 34.5682 57.7964C35.1723 58.1568 35.8626 58.3497 36.5682 58.3548C37.2256 58.3573 37.8702 58.1822 38.4337 57.8472C37.4819 57.3954 36.6571 57.167 35.9845 57.167H35.9718Z" fill="#4E5B31"/>
<path d="M30.7943 55.4917C30.7435 55.4917 30.6953 55.4917 30.6471 55.4917C30.1217 55.5095 29.5989 55.578 29.0862 55.6998C29.7588 56.3749 30.84 56.6135 31.6242 56.6135H31.6851C32.1115 56.6059 32.4136 56.5374 32.5836 56.4105C32.6572 56.3648 32.6978 56.281 32.6902 56.1947C32.6547 56.078 32.576 55.979 32.4719 55.9156C32.0963 55.6338 31.5303 55.4917 30.7943 55.4917Z" fill="#4E5B31"/>
<path d="M33.5454 56.3727C33.9185 56.6265 34.487 56.7534 35.2306 56.7534C35.619 56.7509 36.0048 56.723 36.388 56.6697C35.4641 55.7738 34.5885 55.5859 34.0124 55.5859C33.9718 55.5859 33.9337 55.5859 33.8956 55.5885C33.6266 55.5986 33.3626 55.6545 33.1165 55.7534C33.1266 55.8245 33.1444 55.893 33.1748 55.9565C33.2586 56.1265 33.3855 56.2687 33.5454 56.3702V56.3727Z" fill="#4E5B31"/>
<path d="M49.7787 53.7355C50.0148 53.4842 50.1924 53.1847 50.3016 52.8573C50.1721 52.8269 50.0427 52.8116 49.9107 52.8091C49.8929 52.8091 49.8752 52.8091 49.8574 52.8091C49.8396 52.8091 49.8219 52.8091 49.8016 52.8091C49.162 52.8243 47.9995 53.1136 47.4056 54.8979C48.6772 54.705 49.398 54.1593 49.7787 53.7355Z" fill="#4E5B31"/>
<path d="M49.1239 55.0579C50.7051 55.0021 51.5249 54.5528 51.9361 54.1848C52.1112 54.03 52.2559 53.8447 52.3625 53.6366C52.4031 53.5579 52.4335 53.4767 52.4538 53.3904C52.3269 53.3523 52.1949 53.332 52.063 53.332H52.0249C51.4919 53.332 50.4056 53.5554 49.1264 55.0554L49.1239 55.0579Z" fill="#4E5B31"/>
<path d="M54.4057 52.3856C54.9615 52.0429 55.6443 51.4363 55.728 50.4947C55.6849 50.4846 55.6417 50.4795 55.5986 50.4795C55.5884 50.4795 55.5757 50.4795 55.5656 50.4795C55.3981 50.4795 55.058 50.5252 54.6468 50.8399C54.124 51.2384 53.6392 51.9363 53.2052 52.9109C53.6265 52.7917 54.0326 52.614 54.4057 52.3856Z" fill="#4E5B31"/>
<path d="M56.2331 49.9337C56.2331 49.9337 56.2509 49.9337 56.2585 49.9337C56.4945 49.8931 56.9107 49.7129 57.3701 49.449C57.8803 49.1571 58.2965 48.8424 58.5376 48.5657C58.7584 48.3145 58.8904 47.916 58.9285 47.3881C58.9463 47.1495 58.9412 46.9084 58.9209 46.6673C58.8777 46.6546 58.8346 46.647 58.7889 46.647C58.6112 46.6495 58.4234 46.7307 58.1671 46.9059C57.9336 47.0708 57.7153 47.2561 57.5148 47.4591C57.2585 47.713 57.0173 47.9794 56.7915 48.2612V48.2662C56.761 48.3145 56.5326 48.7256 56.3549 49.1266C56.2661 49.3119 56.1976 49.5048 56.1519 49.7028C56.1341 49.7612 56.1341 49.8221 56.1519 49.8804C56.1595 49.8982 56.1722 49.916 56.1899 49.9261C56.2026 49.9312 56.2179 49.9337 56.2331 49.9337Z" fill="#4E5B31"/>
<path d="M50.5707 55.4946C50.5224 55.4946 50.4717 55.4946 50.4235 55.4946C49.6874 55.4946 49.124 55.6368 48.7484 55.9185C48.6443 55.9819 48.5656 56.0809 48.5301 56.1977C48.5225 56.284 48.5631 56.3677 48.6367 56.4134C48.8067 56.5403 49.1088 56.6088 49.5352 56.6164H49.5961C50.3829 56.6164 51.4615 56.3753 52.1341 55.7028C51.6214 55.5809 51.1011 55.5124 50.5732 55.4946H50.5707Z" fill="#4E5B31"/>
<path d="M47.2026 55.5859C46.6265 55.5859 45.7509 55.7738 44.827 56.6697C45.2103 56.723 45.5986 56.7509 45.9844 56.7534C46.7306 56.7534 47.2965 56.624 47.6696 56.3727C47.8295 56.2712 47.9564 56.1265 48.0402 55.959C48.0706 55.8956 48.091 55.8271 48.0986 55.756C47.8498 55.6545 47.5859 55.5986 47.3194 55.591C47.2813 55.591 47.2432 55.5885 47.2001 55.5885L47.2026 55.5859Z" fill="#4E5B31"/>
<path d="M41.4515 58.0579L42.02 57.7914L41.7154 57.4487L40.6697 57.8954L40.6088 57.9081L40.5479 57.8954L39.5022 57.4487L39.1977 57.7914L39.7662 58.0579L39.8525 58.0832L38.4464 59.1188C38.4464 59.1188 38.6571 59.2939 38.8627 59.4817C38.954 59.5655 39.0708 59.6721 39.152 59.7609C39.185 59.7964 39.218 59.8345 39.2459 59.8751C39.2637 59.903 39.2789 59.9335 39.2916 59.9639C39.3043 59.9589 39.317 59.9487 39.3271 59.9386L39.3398 59.9259C39.3956 59.8726 39.4489 59.8193 39.4997 59.7609C39.6342 59.6086 39.8119 59.3853 39.9718 59.1898C40.284 58.799 40.5428 58.4639 40.5911 58.4005L40.6088 58.3777L40.6266 58.4005C40.6748 58.4639 40.9337 58.799 41.2459 59.1898C41.4032 59.3853 41.5834 59.6086 41.718 59.7609C41.7687 59.8193 41.822 59.8726 41.8779 59.9259L41.8905 59.9386C41.8905 59.9386 41.9134 59.9589 41.9261 59.9639C41.9413 59.9335 41.9565 59.903 41.9718 59.8751C41.9997 59.8345 42.0327 59.7964 42.0657 59.7609C42.1469 59.6721 42.2636 59.5655 42.355 59.4817C42.5606 59.2939 42.7687 59.1213 42.7712 59.1188L41.3652 58.0832L41.4515 58.0579Z" fill="#4E5B31"/>
<path d="M45.2457 57.167H45.233C44.5604 57.167 43.7356 57.3954 42.7838 57.8472C43.3473 58.1822 43.9919 58.3573 44.6493 58.3548C45.3523 58.3472 46.0427 58.1543 46.6493 57.7964C46.5757 57.6721 46.4767 57.5655 46.3599 57.4842C46.1645 57.3421 45.8142 57.1695 45.2457 57.167Z" fill="#4E5B31"/>
<path d="M45.2078 55.7355C45.4058 55.4411 45.4997 55.0883 45.4718 54.7355C45.3829 54.7152 45.2941 54.7051 45.2053 54.7051C44.7408 54.7051 43.5555 54.9386 42.4109 57.101C44.1545 56.8523 44.8931 56.2228 45.2078 55.7355Z" fill="#4E5B31"/>
<path d="M56.4285 50.68C56.2458 50.8703 56.1341 51.114 56.1062 51.3754C56.1062 51.3754 56.2966 51.3932 56.5834 51.3932C56.959 51.3932 57.3321 51.3627 57.7026 51.2967C58.1341 51.218 58.3778 50.8526 58.5072 50.5581C58.5935 50.3576 58.6544 50.147 58.6874 49.9287C57.3524 49.9668 56.7229 50.3576 56.4285 50.6774V50.68Z" fill="#4E5B31"/>
<path d="M55.2634 53.0425C55.2406 53.0425 55.2152 53.0425 55.1898 53.0425C54.9005 53.0425 54.6137 53.0704 54.3294 53.1262C53.6873 53.2608 53.1137 53.6212 52.7178 54.144C53.1162 54.2404 53.5249 54.2887 53.936 54.2861C54.3396 54.2861 54.7457 54.2404 55.1365 54.144C55.8015 53.9765 56.0883 53.7227 56.2101 53.5399C56.2634 53.4638 56.299 53.3775 56.3142 53.2861C56.3193 53.2506 56.3218 53.2151 56.3167 53.1795C55.9741 53.0932 55.6162 53.045 55.2634 53.0425Z" fill="#4E5B31"/>
<path d="M54.096 49.8297C54.096 49.8297 54.0757 49.8297 54.0656 49.8297C54.0503 49.8297 54.0351 49.8297 54.0199 49.8297C53.7788 49.8373 53.4082 49.9363 52.9996 50.3779C52.5301 50.8855 52.1113 51.718 51.7534 52.855C52.0986 52.6977 52.4209 52.4921 52.7077 52.2434C53.4463 51.6063 54.0224 50.8043 54.3879 49.8982C54.2965 49.8551 54.1976 49.8322 54.0986 49.8271L54.096 49.8297Z" fill="#4E5B31"/>
<path d="M68.6238 19.4972C66.9563 20.1317 65.634 20.6977 63.9944 21.3372C62.8955 21.9616 61.7026 23.0631 60.2838 23.0276C58.7559 23.6849 56.6595 25.8397 54.3752 26.1672C50.4159 26.8499 47.4159 28.4006 43.2916 28.355C39.8145 27.7154 36.1648 28.2077 33.0861 26.6824C33.8272 28.7357 33.7942 33.9082 30.4338 32.9564C28.779 31.7204 26.6039 31.9387 25.175 32.5783C22.0913 39.9868 17.4086 30.3625 20.0202 36.7407C20.3832 38.0071 19.8476 39.7559 21.4035 40.332C22.2994 40.7965 21.5558 42.5858 22.5557 42.7482C24.043 44.0172 26.2664 44.403 28.2511 45.2939C31.4262 44.8979 32.7308 43.8447 33.7257 47.1593C37.8703 47.5553 32.048 45.5172 37.6114 43.7736C41.553 44.4766 44.3246 41.7406 47.7484 41.0985C48.7484 40.0427 47.9692 38.0934 49.4083 37.3599C50.7712 36.997 52.1519 37.3625 53.2407 38.1188C54.3321 37.3066 55.5986 36.7077 56.9336 37.3219C58.1341 37.8929 57.9514 37.8244 57.7102 36.8447C56.4234 34.8803 54.0986 33.5833 53.9641 31.5986C54.228 28.893 55.5529 29.0656 57.5351 28.5732C58.6138 25.3296 63.3929 25.0885 65.0503 22.4413C66.0629 21.0378 68.4183 21.355 68.6213 19.4946L68.6238 19.4972Z" fill="#D57800"/>
<path opacity="0.2" d="M68.5274 12.6904H12.6903C8.48477 12.6904 5.07617 16.099 5.07617 20.3046V22.8426C5.07617 18.6371 8.48477 15.2285 12.6903 15.2285H68.5274C72.7329 15.2285 76.1415 18.6371 76.1415 22.8426V20.3046C76.1415 16.099 72.7329 12.6904 68.5274 12.6904Z" fill="white"/>
</svg>
