<?xml version="1.0" encoding="UTF-8"?><svg id="Layer_1" xmlns="http://www.w3.org/2000/svg" viewBox="0 0 132 180"><defs><style>.cls-1{fill:#fff;}.cls-1,.cls-2,.cls-3{fill-rule:evenodd;}.cls-2{fill:#00257a;}.cls-3{fill:#e92b1e;}</style></defs><path class="cls-1" d="M131.48,51.4c-.02-.29-.05-.57-.08-.86-.52-6.18-1.34-12.33-2.39-18.43-2.74-.51-5.49-.97-8.24-1.38-.23-1.49-.48-2.97-.75-4.44-1.73-.3-3.47-.58-5.22-.84l-.27-.35c-.76-5.87-1.83-13.8-2.81-19.43-.55-3.17-3.34-5.67-6.52-5.67H26.79c-3.18,0-5.97,2.5-6.52,5.67-.98,5.62-2.05,13.55-2.81,19.42l-.27.34c-1.75.27-3.49.54-5.22.85-.27,1.48-.52,2.96-.75,4.44-2.82.42-5.58.88-8.24,1.38-1.05,6.1-1.87,12.26-2.39,18.43-.02.29-.05.57-.08.86-.07.83-.11,1.66-.17,2.49-.03.47-.07.93-.09,1.4-.04.75-.07,1.5-.1,2.25-.02.55-.05,1.1-.07,1.64-.02.69-.03,1.37-.04,2.06-.01.61-.03,1.23-.04,1.84,0,.62,0,1.23.01,1.85,0,.68,0,1.36.01,2.05,0,.56.04,1.12.05,1.69.02.74.04,1.47.07,2.21.02.51.06,1.03.09,1.54.05.79.08,1.57.14,2.35.04.47.09.95.13,1.42.07.82.14,1.65.23,2.47.05.46.11.91.16,1.37.1.84.19,1.67.31,2.51.06.44.14.88.2,1.32.13.85.25,1.7.4,2.55.07.42.16.85.24,1.27.16.86.31,1.73.49,2.59.09.41.19.82.28,1.24.19.87.38,1.74.59,2.61.1.4.21.8.31,1.2.23.88.45,1.76.69,2.63.11.39.24.78.35,1.17.26.88.52,1.77.8,2.65.12.39.27.77.39,1.15.3.88.59,1.76.91,2.64.14.38.29.76.44,1.14.33.88.66,1.76,1.02,2.64.16.38.33.76.49,1.14.37.87.74,1.75,1.13,2.61.17.38.37.76.54,1.14.41.87.81,1.73,1.25,2.6.19.38.4.75.59,1.12.45.86.9,1.72,1.37,2.58.21.38.44.76.66,1.14.49.85.97,1.7,1.48,2.54.23.38.49.76.73,1.14.53.84,1.05,1.67,1.6,2.51.26.38.53.76.79,1.14.57.83,1.13,1.66,1.72,2.48.28.38.58.77.86,1.15.61.81,1.21,1.63,1.85,2.44.3.39.63.77.94,1.16.65.8,1.29,1.6,1.96,2.4.33.39.69.78,1.03,1.17.68.78,1.36,1.57,2.08,2.35.36.39.75.79,1.12,1.18.72.77,1.44,1.54,2.2,2.3.39.4.81.79,1.21,1.18.76.76,1.53,1.51,2.33,2.26.42.4.87.79,1.3,1.19.71.65,1.41,1.31,2.15,1.96-.04.56-.06,1.13-.06,1.69,0,14.42,11.68,26.11,26.1,26.11.08,0,.16,0,.24,0,.08,0,.16,0,.24,0,14.41,0,26.1-11.69,26.1-26.11,0-.57-.02-1.13-.06-1.69.74-.65,1.44-1.31,2.16-1.97.43-.4.88-.79,1.3-1.19.8-.75,1.56-1.51,2.33-2.26.4-.39.81-.78,1.2-1.18.76-.77,1.48-1.54,2.21-2.31.37-.39.75-.78,1.11-1.17.72-.78,1.4-1.57,2.09-2.35.34-.39.69-.77,1.02-1.16.68-.8,1.32-1.6,1.97-2.41.31-.38.63-.76.93-1.15.64-.81,1.25-1.63,1.85-2.45.28-.38.58-.76.85-1.14.6-.82,1.16-1.65,1.73-2.48.26-.38.53-.76.79-1.14.56-.84,1.08-1.68,1.61-2.52.24-.38.49-.76.72-1.13.52-.85,1-1.7,1.49-2.55.22-.38.45-.75.66-1.13.47-.85.92-1.71,1.37-2.57.2-.38.41-.75.6-1.13.43-.86.84-1.72,1.25-2.59.18-.38.37-.76.55-1.14.4-.87.76-1.74,1.13-2.61.16-.38.33-.76.49-1.14.36-.87.69-1.75,1.02-2.62.15-.38.3-.77.44-1.15.32-.88.61-1.76.91-2.63.13-.39.27-.77.4-1.16.28-.88.54-1.75.8-2.63.12-.4.25-.79.36-1.18.25-.88.47-1.76.7-2.64.1-.4.22-.79.31-1.19.21-.88.4-1.76.6-2.64.09-.4.19-.8.27-1.21.18-.87.34-1.75.5-2.62.07-.41.16-.82.23-1.24.15-.86.27-1.73.4-2.59.06-.43.14-.85.2-1.28.12-.85.21-1.7.31-2.55.05-.44.11-.89.16-1.33.09-.82.15-1.64.22-2.46.04-.48.09-.95.13-1.43.06-.79.1-1.58.14-2.36.03-.51.07-1.02.09-1.53.03-.76.05-1.51.07-2.27.02-.54.04-1.08.05-1.63.01-.71,0-1.41.01-2.12,0-.59.01-1.18,0-1.78,0-.64-.03-1.28-.04-1.93-.01-.66-.02-1.31-.04-1.97-.02-.57-.05-1.14-.07-1.71-.03-.73-.06-1.46-.1-2.19-.03-.47-.06-.93-.09-1.4-.05-.83-.1-1.66-.17-2.49"/><path class="cls-3" d="M84,134.77c33.36-29.51,37.72-69.25,31.91-103.51-32.19-5.68-68.02-6.03-99.83,0-5.83,34.35-1.43,74.2,32.17,103.73,4.68-4.46,11.02-7.21,17.99-7.21s13.1,2.65,17.76,6.98"/><path class="cls-2" d="M54.31,141.86c-2.11,3.14-3.79,6.72-5.12,10.65,1.89,3.2,4.71,6.21,8.12,9.1,4.51-2.4,8.8-4.7,11.4-6.8l-2.2-12.63c-3.54-.72-7.9-.86-12.2-.32"/><path class="cls-2" d="M85.17,137.88c-1.88-2.25-4.1-4.1-6.64-5.56-2.55-1.46-5.27-2.43-8.16-2.92,1.8,1.78,3.77,4.87,4.29,6.52,3.79,1.25,7.11,2.97,9.7,5.42.9-1.31.81-3.44.81-3.44"/><path class="cls-2" d="M87.28,153.2c-1.9,2.79-4.39,5.06-7.41,6.84.35,3.45.21,6.88-.42,10.29,2.15-.38,4.9-1.07,6.53-1.74,2.17-2.87,3.63-6.07,4.39-9.59-.52-2.08-1.79-4.47-3.09-5.8"/><path class="cls-2" d="M50.12,172.44c4.41,3.81,10.16,6.08,16.44,6,.04,0,.08,0,.12,0,.63-.66,1.23-1.83,1.5-2.73-4.13-.91-7.37-2.32-10.36-4.42-1.98.58-5.28,1.06-7.71,1.15"/><path class="cls-2" d="M41.93,149.53c-.26,1.5-.38,3.01-.36,4.53.04,3.73.89,7.28,2.55,10.62,0,0-.6-4.56,1.06-10.43-1.24-.61-2.98-2.68-3.24-4.72"/><path class="cls-2" d="M52.99,137.4c1.9-4.43,6.71-7.47,6.71-7.47-2.31.64-4.48,1.59-6.51,2.86-2.03,1.27-3.84,2.8-5.43,4.6,1.83-.83,3.88-.54,5.23.01"/><path class="cls-2" d="M98.3,14.83h-6.98v-5.14h6.83c1.76,0,3.13.92,3.13,2.57,0,1.56-1.15,2.57-2.98,2.57ZM106.19,12.26c0-4.15-3.46-6.59-7.48-6.59h-12.25v18.13h4.85v-4.96h4.96l3.54,4.96h5.92l-4.2-5.43c2.72-.83,4.66-3.05,4.66-6.11ZM53.93,8.85h-.16l-3.06,7.99h6.28l-3.06-7.99h0ZM57.36,5.67l7.87,18.13h-5.45l-1.21-3.04h-9.45l-1.21,3.04h-5.28l7.97-18.13h6.75ZM46.15,5.67v4.01h-13.85v3.9h11.01v3.92h-11.01v6.3h-4.85V5.67h18.71ZM74.24,5c4.9,0,8.67,2.65,9.71,7.48h-4.91c-.78-2.22-2.49-3.51-4.8-3.51-2.96,0-5.25,2.24-5.25,5.78s2.29,5.78,5.25,5.78c2.42,0,4.38-1.46,4.9-3.72h4.99c-.89,4.81-4.88,7.69-9.89,7.69-5.54,0-10.17-3.8-10.17-9.75s4.63-9.75,10.17-9.75h0ZM71.52,4.81l-2.15-1.64,1.8-1.99,3.05,1.94,2.86-1.94,1.87,1.99-2.2,1.58c-.83-.16-1.67-.25-2.52-.25-.94,0-1.85.11-2.72.31h0Z"/><path class="cls-2" d="M11.09,35.55c-1.4.22-2.79.46-4.18.7C.25,72.73,4.89,114.85,41.09,146.94c.85-3.09,2.25-5.94,4.09-8.46C12.43,108.74,6.76,70.75,11.09,35.55"/><path class="cls-2" d="M125.09,36.25c-1.39-.23-2.78-.44-4.17-.65,4.31,35.08-1.32,72.93-33.8,102.62,1.91,2.54,3.3,5.33,4.19,8.38,35.84-32.05,40.43-73.99,33.78-110.34"/><path class="cls-1" d="M93.23,84.97c0,2.3-.97,4.3-2.5,5.47-1.54-1.17-2.51-3.17-2.51-5.47,0-1.97,1.06-4.1,2.54-6.38,1.44,2.28,2.47,4.4,2.47,6.38h0ZM63.04,45.88c-.64-.62-1.28-.75-1.28-.75.2-.39.54-.66.54-.66,0,0,1.13-.24,3.63.48l-2.89.93ZM64.61,52.26c-1.12-.1-3.56-.01-6.46.3.07-.23.36-1.15.79-2.01,1.73-.41,3.96-1.11,3.96-1.11.99.56,1.85,2.16,1.71,2.82ZM99,53.84c-.94-2.23-1.26-6.17,2.43-6.1-.93-2.04-4.55-1.79-5.45.22-1.62-3.24-4.24-5.05-6.48-5.03-.07,1.07.39,3.08,1.79,5-2.44.02-4.39,1.64-3.83,3.99,5.39-3.21,9.79,2.36,9.79,7.7,0,2.6-.86,5.06-2.12,7.42.08-3.6-4.82-3.61-4.96-.24,1.94-.87,4.19.64,3.24,3.1-.86,1.3-1.79,2.58-2.7,3.84-1.69-2.32-3.46-4.68-4.78-7.11-2.07-4.14,1.17-5.56,3.16-3.89.75-2.94-1.83-4.24-3.77-3.48,2.04-2.41,5.82-2.71,7.59-.98.2-3.8-4.34-5.35-7.38-3.31,1.36-2.47-.15-3.81-.15-3.81-1.76,1.15-3.85,4.51-3.85,8.45s1.62,7.42,3.66,10.74c-2.1-1.52-4.9-1.48-6.7-.21,0,0,.71,2.28,5.28,2.5-1.16,1.02-1.23,3.17.89,4.5.22-2.04,2.51-3.22,4.14-1.45.09.12.17.25.26.37-2.09,3.02-3.76,5.95-3.76,8.91,0,2.54.91,4.85,2.38,6.55-.05,0-.1,0-.15,0-3.27,0-5.88-3.05-6.51-6.82-4.87-3.45-8.15-8.17-6.38-15.22.43-.18.82-.43,1.16-.75.34-.32.61-.69.81-1.11.2-.42.32-.87.35-1.33.03-.47-.02-.92-.16-1.37.39-.28.72-.62.99-1.03.27-.4.45-.84.55-1.31s.12-.95.05-1.42c-.07-.48-.23-.93-.47-1.35.32-.36.57-.77.74-1.22.17-.45.26-.92.25-1.41s-.09-.95-.27-1.41c-.18-.45-.43-.86-.75-1.22.22-.42.36-.86.42-1.33.06-.47.03-.93-.08-1.39-.11-.46-.3-.88-.57-1.27-.27-.39-.6-.72-.99-.98-.03-.02-.05-.03-.08-.05.15-.61.13-1.22-.03-1.82-.17-.6-.47-1.13-.91-1.57.22-.72.38-1.44.46-2.19,0,0-.96-.47-2.17-.71l1.96-4.48s-2.01-.54-2.22,1.13c-.1-.03-.21-.04-.31-.05-.77-.05-1.43.41-1.48,1.03-.02.29.1.57.31.78.28-.04.62.04.75.24-.25.32-1.33.57-2.29.37-.59-.12-1.08-.42-1.35-.73.21-.18.63-.14.88,0,.51-.15.89-.55.92-1.04.04-.66-.54-1.24-1.32-1.29-.14,0-.28,0-.42.02.68-1.76-1.04-2.33-1.04-2.33,0,0-1.79.33-1.36,2.17-.13-.04-.27-.07-.41-.08-.77-.05-1.44.44-1.48,1.1-.03.49.28.93.77,1.15.27-.11.7-.09.87.12-.31.26-.84.5-1.44.53-.98.06-2.01-.33-2.22-.68.16-.18.5-.21.77-.13.24-.18.4-.44.42-.73.04-.62-.55-1.17-1.32-1.22-.11,0-.21,0-.31,0,.02-1.69-2.05-1.43-2.05-1.43l1.55,5.47c-.56.32-1.32.8-1.92,1.34l-4.89,2.51h0c0,.2.16,1.03.71,1.14-.13,1.01.06,2.22.96,2.65.29.82.75,1.53,1,1.76-1.03.11-2.05.25-3.08.41-1.93.3-3.58-.3-4.25-1.87-.85,1.77.07,7.1,7.27,3.49.59,1.19.43,2.69.43,2.69,0,0,.13.05.21.07,4.28-2.89,6.56-.73,6.01.46-3.2.92-5.69,2.26-7.4,3.62-6.44-3.01-10.12-5.52-12.36-7.8-1.45-2.22.67-4.7,1.9-7.6-.09-.11-.2-.21-.32-.29.25-2.23-1.85-2.99-3.27-2.37v.03c.41.07,1.26.44,1.19,1.54-1.5-.08-2.94.87-2.91,3.2-.43-1.21-.76-2.42-1.23-3.68-.2-.04-.41-.06-.61-.04-1.44-1.7-3.83-.81-4.13.46l.02.03c.38-.22,1.55-.3,2.13.55-1.01,1.19-1.07,3.61,1.23,5.21-1.08-.33-2.68-.7-3.45-.8-.26.23-.47.5-.65.81-1.96.16-3.02,1.87-2.13,3.49h.03c.12-.5.98-1.31,1.83-1.31.43,1.33,1.6,2.33,4.81,2.15-.74.63-1.4,1.4-1.64,1.94-.35.78-.43,1.69,0,2.39-.62.1-1.28-.07-1.55-.31l-.03.02c-.04,1.99,2.5,2.79,4.37,1.36.52-.07.84-.24.84-.24.19-.42.6-1.53.96-2.53.71,1.15,2.92,4.3,3.36,4.88-.86.17-1.45.55-1.72.71.03,1.1.75,2.18,2.58,2.39-1.21.94-1.17,2.8-.65,3.54.96-.22,2.55-.89,3.91-1.54.57.65,1.15,1.28,1.76,1.9-2.26,1.69-4.69,3.4-6.48,4.33-2.27.92-2.3-4.8-2.52-5.8-.18-.05-.36-.08-.55-.09-1.1-1.47-3.28-1.33-3.94.33l.02.03c.39-.19,1.28-.28,1.83.31-1.24.92-1.92,2.72-.13,4.7l-.09.12c-1.67-1.1-3.83-3.34-3.83-3.34-.19.08-.36.17-.52.29-2.27-.32-3.45,1.69-2.91,2.89h.03c.15-.37.79-1.08,1.67-.94-.3,1.65.77,3.62,3.98,3.64l.09.14c-1.18.14-2.86.41-3.65.66-.13.27-.23.54-.29.84-.04.02-.09.04-.13.07-2.06,1.19-2.11,3.96-.27,4.85l.03-.02c-.2-.5.08-2.09.88-2.59,1.02,1.23,3.3,1.44,6.26-1.26h.04c-.9,2.17-1.34,3.69-1.34,3.69.09.72.47,1.41,1.08,1.85-.46.57-1.31.85-1.75.76v.03c1.05,1.37,3.46.97,4.29-.5.98-.42,1.37-1.37,1.37-1.37,0,0,.14-1.83.02-3.71,0,0,.76-.19,5.04-.86-.13.43-.25,1.26-.23,1.54.78.46,2.04.45,3.17-.72.11.51.27,1,.47,1.47,2.21-.33,3.58-1.52,4.04-3.44,2.21,2.3,5.2,3.98,7.58,5.52-5.2-.36-14.04,2.56-14.04,2.56,0,0,.63,1.86,3.05,1.26-.5,2.45,1.79,7.63,2.63,9.21-6.11,1.39-5.99-5.94-5.99-5.94-.43-.07-.86-.05-1.29.06-1.45-1.05-3.29-.22-3.74,1.08l.03.02c.31-.25,1.23-.55,2.02.11-.75,1.12-.76,2.77.64,4.25-2-.93-3.2-1.94-3.66-2.19-.2.09-.39.2-.56.33-2.2-.32-3.6,1.54-3.06,2.94h.03c.14-.36,1.01-.89,1.84-.85-.09,1.5,1.22,3.01,4.34,2.96l.04.04c-1.38.55-2.56,1.19-3.35,1.89-.07.38-.07.76,0,1.14-1.4,1.51-.7,3.9,1.21,4.42l.03-.02c-.27-.49-.49-1.99.27-2.51,2.3.91,4.2-1.1,5.15-2.49-.22,1.27-.19,2.45-.03,3.08.29,1.16,1.09,2.04,2.01,2.14.05.74-.72,1.39-1.18,1.56v.03c1.57.86,3.46-.53,3.45-2.31.29-.23.55-.49.77-.78-.98-1.68-1.25-2.95-1.31-3.66.4-1.05,1.59-1.67,4.15-2.13,2,2.01,4.24,1.3,4.71,1.11.12-.73-.18-1.53-1.23-1.96,1.22-.7,1.71-2.38,1.44-3-.41.02-1.48.12-2.41.7-.66-4.69.12-5.05,6.03-3.68-1.53,3.52-2.3,5.88-2.01,7.64-.06,3.15.11,5.14.11,5.14,1.76.63,2.64-1,2.17-2.15,1.76,1.09,4.35,2.13,8.14,3.16-.4.5-3.33,4.24-6.69,3.89-1.57-.36-3.1-3.05-3.1-3.05-.21-.02-.42-.02-.62,0-1.83-.91-3.61.29-3.66,1.71l.03.02c.2-.24.84-.51,1.56-.34-.44.86-.29,1.97.95,2.88-1.13-.11-2.22-.28-3.3-.36-.25.14-.47.33-.66.55-2.69-.08-3.75,2.56-2.85,4.1h.04c.11-.53.99-1.85,2.3-1.5.56,1.67,2.88,2.78,7.26.19l.27.15c-1.1,1.01-2.17,2.23-2.72,3.41.05.42.15.8.3,1.14-.94,2.05.75,4.06,2.72,3.78v-.03c-.38-.3-.97-1.21-.74-2.16h0c1.7.21,3-1.36,4.69-5.3.18,1,.43,1.85.43,1.85.34.75,1.3,1.36,2.29,1.37-.1.67-.65,1.23-1.03,1.41v.03c1.76.75,3.3-1.14,3.15-2.71.45-.53.57-1.61.57-1.61-1.55-1.59-1.49-2.82-1.49-2.82,0,0,1.39-2.84,4.29-5.65,3.08.62,6.53-.64,7.03-2.08-.7-.91-2.27-1.35-3.77-1.14,2.01-1.83,1.32-4.98.28-5.54-1.77.2-3.8,2.26-4.13,4.49l-5.12-4.52c2.66-1.6,5.61-4.05,7.07-7.09,1.73,1.96,4.22,3.32,7.05,3.32,4.76,0,8.62-4.26,8.62-9.51,0-2.89-1.63-5.82-3.7-8.82,3.47-4.84,7.81-10.34,7.81-16.54,0-2.65-.69-4.47-1.25-5.78h0Z"/><path class="cls-1" d="M68.34,36.91h.02c.18.07,1.67.68,1.03,2.33.13-.03.27-.03.42-.02.77.05,1.36.63,1.32,1.29-.03.49-.41.89-.92,1.03-.26-.14-.68-.19-.88,0,.27.31.76.61,1.35.73.96.2,2.04-.05,2.29-.37-.13-.2-.47-.27-.75-.24-.21-.22-.33-.49-.31-.78.04-.62.71-1.08,1.48-1.03.11,0,.21.02.31.05.21-1.68,2.22-1.14,2.22-1.14l-1.96,4.48c-1.16-.23-2.55-.24-3.54.58,0,0-2.43-.65-5.55-.7v-.07c1.52-.31,4.46-2.07,3.5-6.15h0ZM75.15,44.41c-1.19.66-2.41,1.27-3.64,1.85-.55-2.04,2.51-2.11,3.64-1.85ZM55.34,47.04c.43.65,2.53.18,2.88.07l.03.07c-.17.14-1.61,1.1-2.21.99-.55-.1-.7-.93-.71-1.14h0ZM89.51,42.93c1.62,2.55,2.85,4.22,4.35,5.56-.81-.38-1.67-.56-2.56-.56-1.4-1.92-1.86-3.93-1.79-5h0ZM95.99,47.96c.88-1.95,4.31-2.24,5.36-.39-.99-1.15-3.94-.8-4.76,1.79-.18-.48-.38-.95-.61-1.41h0ZM67.7,47.8c.71.6,2.46,3.14,3.1,4.57-2.74-2.56-4.56-4.04-4.56-4.04.76-.28,1.46-.53,1.46-.53h0ZM58.94,50.56c-.31.65-.58,1.32-.79,2.01,2.9-.32,5.34-.4,6.46-.3l-.02.06c-.04.13-.12.2-.25.22-.69.1-2.45.36-4.53,1.2-.85-.34-1.48-.91-1.6-1.03l-.02-.02s-.07,0-.11.02c-.17.93-.13,1.89-.13,1.89-6.37,3.2-7.82-.6-7.49-2.75-.06,1.43,1.2,1.62,4.46,1.13,1.02-.16,2.05-.3,3.08-.41-.24-.23-.71-.94-1-1.76.21.1,1-.04,1.94-.27h0ZM67.17,50.51c3.78,3.57,2.27,5.29-.1,6.39l-.22.1c-.29.13-.59.25-.89.36l-.23.08c-.11.04-.23.08-.34.12l-.23.08-.56.19c.51-1.11-1.42-3.04-5.12-1.01l-.05.03.24-.14c4.77-2.69,6.71-1.38,7.19-.76,0,0,.95-1.28-.4-2.26,1.35-.67,1.17-2.1.7-3.2h0ZM85.38,51.16l.02.02c.17.17,1.4,1.49.13,3.79-1.06.71-1.93,1.87-2.36,3.51-.06-3.49,1.42-6.35,2.21-7.32h0ZM92.91,58.28c-1.77-1.73-5.55-1.43-7.59.98-.5.19-.91.5-1.24.92l.04-.21c1.12-5.4,7.72-5.42,8.78-1.69ZM89.09,62.74c-1.98-1.67-5.22-.26-3.17,3.86-.1-.18-.46-.79-.85-1.9-1.49-4.48,3.28-4.86,4.02-1.97h0ZM95.47,66.45l-.23.4.17-.32c1.12-2.21,1.86-4.5,1.86-6.91,0-5.34-4.4-10.92-9.79-7.7,3.79-6.08,15.5,1,7.99,14.53h0ZM40.17,44.47h.04c.82,2.18,1.19,4.21,2.45,6.35h.02c-.87-4.73,2.76-6.4,4.07-4.77-1.23,2.9-3.34,5.38-1.9,7.6.91,1.4,1.39,2.64,1.17,4.28,1.76-.6,10.35,4.23,10.35,4.23-.38.32-.83.73-1.27,1.2l.12.42c4.32-2.45,9.68-.71,12.66-.83-4.31.8-11.39-1.04-14.9,3.98l.11.35c1.88-.7,4.1-.42,5.55.17-3.3-.52-5.43.82-7.17,2.08-.68-.7-1.34-1.41-1.97-2.15-1.51-1.56-1.82.67-3.7,1.79-.52-.75-.56-2.6.65-3.54-1.83-.2-2.55-1.28-2.58-2.39.27-.17.86-.54,1.72-.71-.54-.74-1.06-1.48-1.58-2.23l-.28-.41c-.6-.88-1.19-1.75-1.5-2.25l-.07.19-.14.38c-.3.82-.6,1.62-.76,1.96,0,0-.32.17-.84.24-1.04.8-2.3.9-3.19.49,1.17.33,2.43-.84,2.84-1.87-.15-.32-.87-.54-1.22-.4-.51-.87.81-2.76,1.58-3.74-.35.04-.73.09-1.14.11-3.21.18-4.39-.82-4.81-2.15.13,0,.26.02.39.06.59.19,1.13-1.04,1.08-1.88,0,0,2.43.86,4.93.97l-.02-.07s-.4-.54-1.24-.99c-2.8-3.1-1.22-6.05.54-6.49h0ZM93.75,69.39c-.11.17-.22.34-.33.51.95-2.45-1.31-3.97-3.24-3.1,1.47-2.53,5.41-.6,3.57,2.59h0ZM85.94,72.15l-.17-.03c-.8-.14-1.5.09-1.99.52-4.57-.22-5.28-2.5-5.28-2.5,2.78-.21,5.42.71,7.44,2.01h0ZM39.84,68.63c-.34,1.71,1.1,4.79,2.25,5.89-1.06-.33-1.87-.69-2.48-1.07l.09-.12c-1.78-1.98-1.11-3.78.13-4.7h0ZM34.8,70.82c.02.57.35,3.06,4.53,5.17-.33.03-.96.1-1.2.13l-.09-.14c-3.21-.02-4.27-1.99-3.98-3.64.1-.58.35-1.09.74-1.53ZM97.51,68.64c-1.5,2.66-3.38,5.16-5.06,7.51-.19-.28-.38-.56-.58-.83,1.87-2.15,3.98-4.39,5.65-6.68ZM87.99,74.53c.27.39.54.77.81,1.16-1.63-1.77-3.91-.59-4.14,1.45-1.55-2.6,1.59-4.87,3.33-2.61ZM52.56,77.12c-.1.73-.05,1.5.11,2.25-1.12,1.18-2.39,1.19-3.17.72,0,0,1.56-.67,3.06-2.97h0ZM41.48,77.62c-.18.33-.48,1.07-.48,1.07h-.04c-2.96,2.68-5.24,2.47-6.26,1.25.07-.04.14-.08.21-.11.26-.09.75-.32.75-1.01,1.35.63,4.06-.18,5.81-1.2h0ZM61.83,78.22s-2.29.48-4.04-.22c-.21-.2-.42-.4-.61-.61-.46,1.92-1.83,3.12-4.04,3.44,0,0,2.42-1.19,3.14-5.74,3.71-.3,5,1.6,5.56,3.13h0ZM51.01,76.31c-.6.55-1.04,1.33-1.28,2.24-4.27.67-5.04.86-5.04.86.11,2.57-.02,3.71-.02,3.71,0,0-.39.95-1.37,1.37l.07-.15c.07-.15.13-.31.17-.48.09-.42-.08-1.29-1.23-1.34,0,0,.63-1.22,1.33-5.09,0,0,1.06.07,1.96.87,2.05-1.23,5.42-2,5.42-2h0ZM76.11,43.96v.02c-.09.74-.24,1.46-.46,2.17.44.45.74.97.91,1.57s.18,1.21.03,1.82c.03.02.05.03.08.05.39.27.72.59.99.98.27.39.46.81.57,1.27.11.46.14.92.08,1.39-.06.47-.2.91-.42,1.33.33.36.58.77.75,1.22.18.45.26.92.27,1.41,0,.48-.08.95-.25,1.41-.17.45-.42.86-.74,1.22.24.42.39.87.47,1.35.07.48.06.95-.05,1.42-.1.47-.29.91-.55,1.31s-.59.75-.99,1.03c.14.45.19.9.16,1.37s-.15.91-.35,1.33-.47.79-.81,1.11c-.34.32-.72.57-1.16.75-1.77,7.06,1.51,11.77,6.38,15.22-2.81-1.63-13.9-8.16-13.37-11.84,1.38.15,4.05-.58,4.1-2.47-2.74.3-6.41-.29-10.7-2.2,6.71,1.89,13,1.09,13.06-2.07-1.67.37-3.77.38-6.18-.09,4.48.18,8.33-1.64,8.06-4.64-1.24.66-2.57,1.01-3.98,1.06,3-.6,5.69-3.19,4.78-5.95-.58.67-1.32,1.34-2.25,1.96,2.4-2.67,2.78-5.72,1.62-6.9-.5,1.4-1.14,2.46-1.14,2.46,0,0,1.21-3.79-.15-5.97-.87.46-2.2.51-3.09.08,2.86-.15,4.15-3.63,4.32-4.11l.02-.05h0ZM50.71,85.47c.87.73,2.82.39,3.61.2-.13.15-.25.31-.35.46-.11.19-.19.4-.23.62v-.03c-2.41.6-3.04-1.26-3.04-1.26h0ZM89.8,77.17c.08.11.63.92.96,1.43-1.49,2.28-2.54,4.4-2.54,6.38,0,2.3.97,4.3,2.51,5.47-.9.69-1.92,1.05-3.05,1.08-.84-.98-1.46-2.09-1.86-3.32-.14-.61-.22-1.29-.22-2.1,0-3.38,2.1-6.28,4.2-8.93h0ZM81.4,87.54c.95,3.12,3.94,5.95,7.62,5.95,1.98,0,3.76-.89,5.05-2.33-1.58,2.04-3.93,3.33-6.55,3.33-2.83,0-5.32-1.36-7.05-3.32.55-1.13.89-2.35.93-3.63h0ZM64.73,99.94c.2,1.22.93,2.16,2.27,2.99.47,1.15-.41,2.77-2.17,2.15,0,0-.16-1.99-.1-5.14h0ZM66.65,84.23c1.66,1.3,2.56,2.6,1.83,4.21-.59,1.28-1.17,2.57-1.74,3.86-5.9-1.38-6.68-1.01-6.02,3.68.08.55.22,1.12.22,1.12.85-1.18,1.8-1.81,2.18-1.82.28.61-.22,2.3-1.44,2.99,1.05.43,1.35,1.23,1.23,1.96-.48.18-2.71.9-4.72-1.11-2.56.46-3.75,1.08-4.15,2.13.06.71.32,1.98,1.31,3.66l-.03.04c-.09.11-.35.43-.74.73,0,1.79-1.88,3.17-3.45,2.31v-.03c.45-.17,1.22-.82,1.17-1.56-.92-.1-1.72-.98-2.01-2.14-.16-.63-.19-1.81.03-3.08-.95,1.39-2.85,3.41-5.15,2.49,0,0,.04-.04.14-.08.59-.27-.03-1.67-.68-2.1.05-.13.12-.25.2-.37.65-.73,2.06-1.67,3.2-2.21,0,0-.46-.14-1.01-.15l-.04-.04c-.96.01-1.75-.12-2.38-.36-1.41-.83-1.4-2.8-.5-3.97,1.65,1.15,3.73,1.79,5.44,2.06-2.23-1.84-1.75-5.87.86-6.47v.08c0,.51.12,3.48,1.97,5.2,1.17,1.34,2.68,2.23,5.65,2.02-4.3-9.13-1.58-10.38,1.9-10.49h.21s.22,0,.22,0h.6s.36.01.36.01l.62.02h.41c.16.01.31.01.46.02h.3c2.09-.01,3.75-.36,3.53-2.62ZM62.66,108.33c.48,1.32,2.48,2.51,4.89,2.84-1.37.22-2.67.16-3.93.04-1.24-.91-1.39-2.02-.95-2.88h0ZM67.47,113.24l.17.26c-.31.25-.64.53-.97.83l-.27-.15c-4.39,2.59-6.7,1.47-7.26-.19.5.17.78-.12.99-.52,1.04.7,4.14.93,7.33-.23ZM73.4,98.26l6.56,5.78c-.02-1.33.28-3.96,2.7-5.75,1.04.57,1.73,3.71-.28,5.54,1.5-.21,3.07.23,3.77,1.14-.5,1.44-3.94,2.7-7.03,2.08-2.9,2.8-4.29,5.65-4.29,5.65v.03c0,.2.09,1.35,1.49,2.8,0,0-.13,1.08-.57,1.61,0,0-.02-.14-.08-.31-.11-.36-.85-.76-1.4-.4v-.03s0-.05,0-.05c0-.05,0-.11,0-.19v-.14c0-.66-.18-2.1-1.22-4.1,2.06-.64,4.48-4.46,5.14-6.27-3.09-1.16-9.14-3.87-8.13-5.72,1.39-.55,3.32-1.66,3.32-1.66h0ZM70.68,113.09s.04,1.09.23,2.08c-1.68,3.94-2.99,5.51-4.69,5.29.04-.17.1-.34.19-.5.1-.18.12-.6-.03-.82,1.52-.75,3.5-4.15,4.29-6.06Z"/></svg>