<svg width="200" height="200" viewBox="0 0 200 200" fill="none" xmlns="http://www.w3.org/2000/svg">
<path d="M194.369 37.5623C194.229 43.605 192.147 49.442 188.432 54.2095C189.565 58.3528 190.137 62.6296 190.131 66.9251C190.105 80.1897 183.9 87.222 182.328 89.608C183.585 97.7434 182.294 106.068 178.631 113.44C174.477 121.616 168.819 127.25 159.921 131.739C159.921 131.739 153.188 148.535 144.395 160.588C125.574 186.389 103.864 198.76 100.079 200C95.9627 198.696 74.9034 186.503 56.0039 160.589C47.2111 148.534 40.4765 131.742 40.4765 131.742C31.579 127.25 25.9216 121.615 21.767 113.444C18.1047 106.072 16.8135 97.7473 18.0705 89.612C16.5 87.2244 10.2943 80.1913 10.2678 66.9267C10.262 62.6312 10.8336 58.3544 11.9671 54.2111C8.25186 49.4438 6.16998 43.6071 6.0295 37.5648C5.77651 31.286 7.15403 25.0488 10.0279 19.4606C10.4751 18.6433 10.9758 17.8564 11.5268 17.1052C12.1252 19.35 12.9858 21.5167 14.0907 23.5604C15.3144 25.7848 16.9186 27.7775 18.8304 29.4481C21.2697 31.6967 24.1602 33.3998 27.3094 34.4438L27.2812 6.76995C39.9734 3.97181 65.6211 0 100.109 0C134.602 0 160.008 3.97181 173.114 6.76995L173.085 34.4438C176.235 33.3998 179.125 31.6968 181.564 29.4481C183.477 27.7778 185.081 25.785 186.305 23.5604C187.41 21.5166 188.27 19.35 188.868 17.1052C189.419 17.8567 189.92 18.6438 190.367 19.4614C193.241 25.0496 194.618 31.2868 194.365 37.5656" fill="#231F20"/>
<path d="M189.286 23.8367C188.05 26.9801 185.324 29.936 182.613 32.2858C179.373 35.0976 173.776 37.6551 170.413 38.2081V8.74957C166.136 7.85845 141.251 2.60107 100.158 2.60107C59.0668 2.60107 34.2643 7.85925 29.9931 8.74877V38.2081C26.6202 37.6551 21.0263 35.0976 17.7854 32.2858C15.0766 29.936 12.3542 26.9801 11.1153 23.8358C9.49928 28.0087 8.75759 32.469 8.9362 36.9402C9.16642 44.4524 11.678 48.7132 15.1427 53.7452C15.1427 53.7452 12.6464 59.0951 13.2026 69.5914C13.6744 78.4816 18.815 85.7112 21.1752 88.9996C18.489 104.698 25.7355 115.348 30.1967 120.471C33.817 124.451 38.1731 127.693 43.025 130.018C45.3699 136.186 51.4162 149.79 59.5981 160.383C69.5156 173.225 83.8701 188.289 100.049 196.704C116.231 188.289 130.884 173.225 140.802 160.383C148.983 149.789 155.029 136.186 157.375 130.018C162.227 127.693 166.583 124.451 170.203 120.471C174.665 115.348 181.91 104.698 179.225 88.9996C181.585 85.7112 186.727 78.4816 187.198 69.5914C187.754 59.0951 185.257 53.7452 185.257 53.7452C188.722 48.7132 191.234 44.4532 191.464 36.9402C191.642 32.469 190.9 28.0088 189.285 23.8358" fill="white"/>
<path d="M46.5403 12.1584C45.7225 12.1319 44.904 12.182 44.0956 12.3081C42.1193 12.5496 37.4375 13.3135 37.4375 13.3135L37.452 41.2209C37.452 41.2209 40.2831 40.8538 41.2918 40.7113C42.36 40.56 45.6588 40.1623 46.4051 40.0061C47.3894 39.8535 48.3017 39.3976 49.0148 38.702C49.5123 38.2144 49.9005 37.6267 50.1538 36.9778C50.407 36.3289 50.5196 35.6336 50.4839 34.9379L50.4694 17.8271C50.5216 16.5827 50.3121 15.3413 49.8544 14.1829C49.4391 13.3973 48.7668 12.7778 47.9498 12.4281C47.4988 12.2595 47.0217 12.1683 46.5403 12.1584ZM44.4852 14.9324C44.6686 14.8827 44.8617 14.8815 45.0458 14.9289C45.2298 14.9763 45.3983 15.0707 45.5349 15.2028C45.7651 15.4484 45.8029 15.9233 45.8053 16.7621L45.8198 36.0625C45.848 36.2719 45.8304 36.4849 45.7683 36.6868C45.7062 36.8887 45.601 37.0748 45.46 37.2321C45.1414 37.4692 44.7614 37.6097 44.3652 37.6371L42.1161 37.9373L42.1008 15.2632L44.4852 14.9324ZM53.4326 36.0472C53.2129 36.0666 52.9995 36.1312 52.806 36.2371C52.6125 36.3429 52.4429 36.4877 52.308 36.6622C52.1642 36.8308 52.0556 37.0265 51.9887 37.2378C51.9218 37.449 51.8979 37.6716 51.9184 37.8922C51.9306 38.1153 51.9872 38.3336 52.0849 38.5345C52.1827 38.7354 52.3196 38.9147 52.4875 39.0619C52.6465 39.2126 52.8356 39.3279 53.0423 39.4002C53.249 39.4725 53.4688 39.5001 53.687 39.4813C53.9061 39.4658 54.1195 39.4044 54.3134 39.301C54.5073 39.1977 54.6773 39.0548 54.8124 38.8816C55.0988 38.5322 55.2385 38.0854 55.2022 37.6352C55.1659 37.1849 54.9563 36.7663 54.6175 36.4674C54.4611 36.3173 54.2746 36.2022 54.0703 36.1298C53.866 36.0573 53.6486 36.0292 53.4326 36.0472ZM63.9361 9.97123C63.1142 10.0276 60.5052 10.195 58.913 11.8308C58.4097 12.3911 58.0266 13.0486 57.7873 13.7627C57.5481 14.4769 57.4578 15.2325 57.5219 15.9829V33.8439C57.5018 34.5579 57.6454 35.267 57.9418 35.9168C58.2381 36.5666 58.6794 37.1399 59.2317 37.5928C59.7381 37.9904 60.8586 38.8767 63.8805 38.5974C65.6067 38.5456 67.2695 37.9355 68.6195 36.8586C69.0984 36.4288 69.4749 35.8971 69.7214 35.3028C69.968 34.7084 70.0783 34.0663 70.0443 33.4237V26.8108L65.4398 28.7452L65.4551 33.4986C65.4551 34.9444 64.9246 35.5843 63.821 35.7188C63.0965 35.8057 62.1257 35.7075 62.1257 33.9035V14.5733C62.0979 14.3517 62.1155 14.1268 62.1776 13.9122C62.2396 13.6976 62.3447 13.498 62.4865 13.3254C62.6283 13.1528 62.8037 13.0109 63.0022 12.9084C63.2006 12.8059 63.4179 12.7449 63.6407 12.7291C63.8689 12.6738 64.1073 12.6754 64.3348 12.7338C64.5622 12.7922 64.7719 12.9056 64.9452 13.0641C65.1186 13.2226 65.2503 13.4212 65.3288 13.6426C65.4073 13.8639 65.4303 14.1012 65.3955 14.3335L65.41 19.8669L69.9984 17.9173L69.984 15.1884C70.086 14.0304 69.8627 12.867 69.3392 11.8291C68.3072 10.2481 65.8495 9.8368 63.9256 9.96962L63.9361 9.97123ZM73.1677 34.3825C72.951 34.3989 72.7402 34.4607 72.5491 34.5641C72.358 34.6674 72.1908 34.8099 72.0584 34.9822C71.9121 35.1528 71.8009 35.3506 71.7314 35.5644C71.6619 35.7781 71.6355 36.0035 71.6535 36.2275C71.6686 36.4493 71.7282 36.6657 71.8285 36.864C71.9289 37.0623 72.0682 37.2384 72.2379 37.3819C72.3968 37.5312 72.5851 37.6458 72.7908 37.7182C72.9964 37.7906 73.215 37.8193 73.4323 37.8024C73.6497 37.7855 73.8612 37.7234 74.0532 37.6201C74.2452 37.5167 74.4136 37.3745 74.5474 37.2024C74.8405 36.8568 74.9859 36.4099 74.9523 35.9581C74.9187 35.5063 74.7088 35.0858 74.3679 34.7874C74.2077 34.6394 74.018 34.5269 73.8114 34.4571C73.6047 34.3873 73.3848 34.3619 73.1677 34.3825ZM90.7502 8.81607L86.0258 8.93682V32.6002C86.0258 34.2666 85.0735 34.5507 84.1212 34.5644C82.9483 34.5821 82.2777 34.075 82.2777 32.7951V9.05596L77.6128 9.28136V32.5552C77.6128 34.9854 78.5981 35.7051 79.0674 36.1237C79.957 36.9158 81.9686 37.4527 84.0616 37.369C86.5337 37.2692 87.9135 36.75 89.1153 35.854C89.6601 35.4189 90.0928 34.8596 90.3771 34.2229C90.6614 33.5862 90.7891 32.8907 90.7494 32.1945L90.7502 8.81607ZM99.5673 8.71143L95.2332 8.72592V36.7846H99.8675V17.394L104.381 26.3165V36.7846L108.941 36.8594V8.80158L104.261 8.7565L104.246 19.1038L99.5673 8.71143ZM113.845 8.92153V36.9794L118.493 37.2346V9.08655L113.845 8.92153ZM121.642 9.25077L120.247 12.0553L125.287 12.3403V37.534C125.287 37.534 130.018 37.8673 129.92 37.8641V12.6253L134.569 12.9392L134.539 10.0759C134.539 10.0759 129.84 9.7402 127.941 9.62509C125.316 9.46811 121.642 9.25077 121.642 9.25077H121.642ZM136.804 10.2409V38.3744C136.804 38.3744 140.346 38.7286 141.677 38.8695C143.166 39.0273 147.151 39.4539 147.151 39.4539L147.121 36.2742L141.422 35.6149L141.438 25.4777L144.482 25.7925L146.162 22.5685L141.423 22.0581V13.6299L146.386 14.1548L146.417 11.2165C146.417 11.2165 143.229 10.8929 141.812 10.736C140.65 10.6072 136.804 10.2409 136.804 10.2409ZM149.881 11.6657V39.8435C149.881 39.8435 152.782 40.2106 153.734 40.3684C154.679 40.527 158.203 41.0043 158.938 41.0132C159.794 41.1184 160.658 40.9049 161.367 40.4135C162.303 39.8234 162.837 38.6908 162.837 37.0695L162.822 19.8388C162.893 18.5185 162.808 17.1944 162.566 15.8943C162.425 15.4082 162.187 14.9556 161.866 14.5636C161.546 14.1716 161.15 13.8483 160.701 13.613C159.887 13.1171 158.436 12.8595 156.432 12.5335C154.451 12.222 149.86 11.6633 149.86 11.6633L149.881 11.6657ZM154.544 15.0378L156.868 15.3679C157.563 15.4637 157.771 15.6383 157.948 16.028C158.115 16.5195 158.182 17.0397 158.143 17.5574V36.8127C158.143 37.3561 158.05 37.621 157.873 37.757C157.511 37.9424 157.092 37.9799 156.703 37.8616L154.544 37.5622V15.0378Z" fill="#231F20"/>
<path d="M12.9144 32.0726C11.781 38.6743 14.105 44.8799 17.6533 50.0689C23.3011 58.3256 31.2544 62.3168 34.7642 64.2552C40.0578 67.1773 42.0235 68.3896 44.4079 70.1783C52.7379 76.4346 50.6305 84.1408 50.6305 84.1408C47.8975 77.9134 41.6822 73.6172 32.5746 69.0835C20.0168 62.8336 18.2981 57.0264 18.2981 57.0264C16.8198 62.7557 16.892 68.7751 18.5074 74.4672C22.1846 87.0089 32.7131 91.6521 40.7621 96.1818C43.9455 97.8656 46.9546 99.8599 49.7458 102.135C57.2451 108.702 55.8782 113.397 55.8782 113.397C53.1742 108 45.0559 104.468 37.9592 100.89C28.2752 95.999 25.1671 91.5459 25.1671 91.5459C23.7487 99.9676 26.3424 107.797 29.7257 113.26C34.212 120.357 41.0732 125.629 49.0857 128.137H151.289C159.302 125.629 166.164 120.357 170.65 113.26C174.033 107.796 176.628 99.9668 175.209 91.5459C175.209 91.5459 172.102 95.9974 162.418 100.889C155.318 104.473 147.202 108.002 144.497 113.396C144.497 113.396 143.116 108.699 150.615 102.134C153.411 99.8585 156.425 97.8641 159.613 96.1794C167.661 91.6497 178.176 87.0057 181.853 74.4648C183.475 68.7742 183.553 62.7544 182.078 57.024C182.078 57.024 180.359 62.8311 167.801 69.0811C158.694 73.614 152.478 77.9094 149.745 84.1376C149.745 84.1376 147.638 76.4314 155.968 70.175C158.351 68.3856 160.317 67.174 165.612 64.2519C169.121 62.3143 177.076 58.3224 182.723 50.0648C186.271 44.8767 188.595 38.671 187.461 32.0693C187.461 32.0693 186.322 34.5535 182.017 37.2132C176.804 40.4332 171.117 42.0673 163.123 44.2311C155.565 46.2766 142.649 48.801 135.019 53.0779C131.481 55.0614 129.373 57.7468 129.305 60.8315C129.124 69.0448 136.518 76.7405 136.518 87.3454C136.518 94.0075 131.386 98.4728 122.497 98.4728C115.878 98.4728 112.608 96.7662 110.995 95.3679C110.136 94.5612 109.449 93.5882 108.978 92.5082C108.506 91.4282 108.258 90.2636 108.25 89.085C108.2 88.245 108.326 87.4038 108.619 86.6152C108.913 85.8266 109.368 85.108 109.955 84.5053C110.542 83.9025 111.249 83.429 112.029 83.1149C112.81 82.8009 113.648 82.6532 114.489 82.6813C116.457 82.6813 118.996 83.7657 119.468 85.8908C120.278 85.6493 123.397 83.3881 123.397 78.662C123.397 75.496 121.301 71.9742 115.466 71.9742C113.941 71.9608 112.422 72.1577 110.951 72.5594C111.112 68.7575 107.528 66.8907 103.678 66.8907C99.6768 66.8907 96.8738 68.1553 88.877 67.3254C87.0271 67.1417 85.2021 66.7598 83.4337 66.1863C84.0275 66.9502 84.5307 67.7803 84.9334 68.6601C85.5158 70.0309 85.7228 71.5321 85.5331 73.0094C85.2796 75.5934 83.4949 77.2855 80.8988 78.3481C82 78.8987 86.8227 80.3992 86.8227 87.1659C86.7686 88.7111 86.4019 90.2292 85.7447 91.6287C85.0875 93.0282 84.1535 94.28 82.999 95.3084C80.7445 97.3532 77.7934 98.4582 74.7503 98.3971C67.3122 98.3971 63.8629 94.0075 63.8629 87.3446C63.8629 76.7397 71.2003 68.9853 71.0756 60.8315C71.0297 57.7468 68.8304 55.0034 65.3778 53.0795C57.7385 48.8211 44.8152 46.2774 37.2596 44.2311C29.2653 42.0665 23.5781 40.4332 18.3641 37.2132C14.0591 34.5535 12.9208 32.0693 12.9208 32.0693L12.9144 32.0726ZM87.5818 69.4288C90.3075 70.7917 95.5432 70.7852 98.9499 70.2241C101.671 69.7613 104.797 69.2855 106.613 70.7337C108.972 72.6134 108.307 75.8325 108.307 75.8325L108.758 75.6675C110.624 74.9582 112.61 74.617 114.606 74.6628C118.059 74.6661 120.239 75.7439 120.679 78.3368C120.842 79.6642 120.534 81.0067 119.81 82.1307C119.81 82.1307 118.585 79.7463 114.516 79.7463C109.011 79.7463 104.79 83.4115 104.948 89.539C105.079 92.095 106.061 94.5337 107.737 96.4675C107.657 96.4217 107.662 96.7227 107.662 96.7227C105.666 95.6585 102.558 94.6459 100.899 95.5378C98.8017 96.6656 98.9265 100.295 99.3089 102.331L98.904 102.496C98.3469 100.992 97.6128 97.9028 93.2956 96.3323C91.4603 95.6658 88.6299 95.8155 86.0668 96.2872C88.6022 93.7228 90.0936 90.3074 90.2512 86.7047C90.2512 81.3273 87.5408 79.4549 86.1119 78.3972C86.7979 77.9233 87.3822 77.3169 87.8304 76.6138C88.2786 75.9107 88.5817 75.125 88.7217 74.303C88.8823 72.5995 88.4832 70.89 87.585 69.4336L87.5818 69.4288Z" fill="#231F20"/>
<path d="M98.1702 74.6467C98.9258 75.6911 99.7687 76.6694 100.69 77.5712C101.948 78.5147 104.024 77.6654 105.728 76.9417C106.548 76.5529 108.172 75.9065 108.172 75.9065C107.589 75.5246 106.952 75.2316 106.283 75.0371C104.803 74.6426 103.265 74.5104 101.739 74.6467C100.191 74.7031 98.1702 74.6467 98.1702 74.6467ZM83.5187 144.23C84.1968 145.655 84.5598 147.21 84.5828 148.788C84.6492 150.826 84.3653 152.86 83.7432 154.802H116.571C115.942 152.861 115.653 150.827 115.716 148.788C115.752 147.207 116.131 145.652 116.825 144.23H83.5187ZM74.7129 170.819C80.7551 177.663 93.0811 188.14 100.027 191.814C107.667 187.77 119.739 176.499 125.97 170.819L74.7129 170.819Z" fill="#231F20"/>
<path d="M134.289 133.766C142.012 131.277 151.204 128.125 151.204 128.125H49.0918C49.0918 128.125 58.5311 131.444 66.3121 133.8C72.9975 135.826 81.0587 138.705 83.534 144.236H116.855C119.564 138.705 127.639 135.912 134.286 133.77M80.1716 162.817C78.5456 165.605 76.7371 168.283 74.758 170.832H125.949C124.851 169.259 122.524 166.264 120.428 162.824C118.807 160.328 117.512 157.634 116.574 154.808H83.7441C82.8237 157.592 81.6261 160.276 80.1692 162.82M125.909 114.256H120.288L124.835 117.559L123.098 122.905L127.645 119.601L132.193 122.905L130.454 117.56L135.003 114.256H129.381L127.645 108.914L125.908 114.256H125.909ZM98.2049 114.256H92.5845L97.1319 117.559L95.3947 122.905L99.9413 119.601L104.487 122.905L102.751 117.56L107.296 114.256H101.678L99.9413 108.914L98.2049 114.256ZM71.8689 108.914L73.6061 114.256H79.2257L74.6775 117.559L76.4155 122.905L71.8689 119.601L67.3216 122.905L69.0587 117.56L64.5121 114.256H70.1326L71.8689 108.914Z" fill="#EF3E42"/>
<path d="M100.012 42.6445C84.0634 42.6821 68.1268 43.523 52.2627 45.1641C52.2627 45.1641 61.1264 47.2402 67.7845 50.7878C71.712 52.8791 74.3628 56.1836 74.6075 59.7256C74.9625 64.8694 72.4936 70.4045 71.0092 73.8523C68.5975 79.4462 67.3248 83.9726 67.3498 87.4083C67.3312 89.1852 67.8259 90.9297 68.7746 92.4322C69.8323 93.8957 71.4343 95.3865 75.0277 95.3865C81.049 95.3865 83.3513 90.0108 83.3513 86.8086C83.3694 85.7049 83.1228 84.613 82.6322 83.6242C82.1416 82.6354 81.4212 81.7786 80.5314 81.1254C79.025 79.9029 77.3068 78.9675 75.4624 78.3659C75.4624 78.3659 82.4063 76.136 82.4063 72.0966C82.4063 68.7865 80.3833 64.9982 77.7872 62.2444L77.9523 62.0794C79.7026 62.8912 81.5458 63.4854 83.4407 63.8487C86.6763 64.3919 89.9524 64.658 93.2333 64.644C98.5607 64.644 100.989 64.0137 104.93 64.0137C109.038 64.0137 112.677 65.9618 113.568 69.6825C115.01 69.4934 116.468 69.4583 117.917 69.5778C122.801 70.0689 126.139 73.507 126.225 77.9762C126.343 80.6636 125.532 83.3097 123.929 85.4697C122.326 87.6298 120.028 89.1722 117.422 89.8377C117.619 89.2695 117.665 88.66 117.557 88.0684C117.461 87.403 117.136 86.7919 116.637 86.3403C116.139 85.8887 115.5 85.6247 114.828 85.5938C112.542 85.5938 111.392 87.4719 111.468 89.3435C111.634 93.4368 116.237 95.1925 120.856 95.4469C121.557 95.4847 122.058 95.5097 122.716 95.492C127.007 95.3785 129.695 94.303 131.249 92.3879C132.268 90.9296 132.803 89.188 132.778 87.4091C132.803 83.9726 131.531 79.447 129.119 73.8523C127.638 70.4037 125.165 64.8686 125.518 59.7248C125.764 56.1828 128.435 52.9089 132.344 50.787C138.886 47.2402 147.869 45.1633 147.869 45.1633C133.711 43.7466 117.134 42.6445 100.012 42.6445ZM151.869 132.503C145.588 134.919 140.012 136.664 134.684 138.352C128.106 140.437 119.325 143.168 118.848 148.489C118.246 155.202 127.158 164.994 129.405 167.235C134.333 162 138.761 156.317 142.632 150.259C146.213 144.615 149.304 138.675 151.87 132.504L151.869 132.503ZM48.5605 132.533C53.8745 145.421 61.515 157.22 71.1002 167.341C73.6327 164.723 81.5819 155.274 81.5819 148.535C81.5819 143.343 72.3326 140.513 65.7462 138.457C60.616 136.853 54.8427 134.941 48.5605 132.53V132.533Z" fill="#231F20"/>
</svg>
