<svg width="82" height="82" viewBox="0 0 82 82" fill="none" xmlns="http://www.w3.org/2000/svg">
<path d="M68.5274 10.1523H12.6903C7.08344 10.1523 2.53815 14.6976 2.53815 20.3045V60.9133C2.53815 66.5202 7.08344 71.0655 12.6903 71.0655H68.5274C74.1343 71.0655 78.6796 66.5202 78.6796 60.9133V20.3045C78.6796 14.6976 74.1343 10.1523 68.5274 10.1523Z" fill="#387EF7"/>
<path d="M23.5912 28.0935L30.1901 23.3017H22.0354L19.5151 15.5454L16.9948 23.3017H8.84009L15.4365 28.0935L12.9162 35.8498L19.5151 31.0554L26.1115 35.8498L23.5912 28.0935Z" fill="#F2D84B"/>
<path d="M78.6796 20.3042C78.6796 16.1418 76.1694 12.5758 72.5857 11.0073L2.53815 55.3699V60.9129C2.53815 65.0753 5.04828 68.6413 8.632 70.2098L78.6796 25.8473V20.3042Z" fill="#F2D84B"/>
<path d="M74.9588 12.5098L2.53815 58.3748V60.9129C2.53815 64.0651 4.00514 66.8468 6.25892 68.7072L78.6796 22.8422V20.3041C78.6796 17.1519 77.2126 14.3702 74.9588 12.5098Z" fill="#BE2A28"/>
<path opacity="0.15" d="M2.53815 20.3045V60.9133C2.53815 66.5198 7.08379 71.0655 12.6903 71.0655H68.5274C74.1339 71.0655 78.6796 66.5198 78.6796 60.9133V20.3045C78.6796 14.698 74.1339 10.1523 68.5274 10.1523H12.6903C7.08379 10.1523 2.53815 14.698 2.53815 20.3045ZM5.07619 20.3045C5.07619 16.1066 8.49241 12.6904 12.6903 12.6904H68.5274C72.7253 12.6904 76.1415 16.1066 76.1415 20.3045V60.9133C76.1415 65.1112 72.7253 68.5274 68.5274 68.5274H12.6903C8.49241 68.5274 5.07619 65.1112 5.07619 60.9133V20.3045Z" fill="black"/>
<path opacity="0.2" d="M68.5273 12.6904H12.6903C8.48471 12.6904 5.07611 16.099 5.07611 20.3046V22.8426C5.07611 18.6371 8.48471 15.2285 12.6903 15.2285H68.5273C72.7328 15.2285 76.1414 18.6371 76.1414 22.8426V20.3046C76.1414 16.099 72.7328 12.6904 68.5273 12.6904Z" fill="white"/>
</svg>
