<svg id="Layer_1" data-name="Layer 1" xmlns="http://www.w3.org/2000/svg" xmlns:xlink="http://www.w3.org/1999/xlink" width="95.64" height="95.64" viewBox="0 0 95.64 95.64"><defs><mask id="mask" x="0" y="0" width="95.64" height="95.64" maskUnits="userSpaceOnUse"><g transform="translate(-345 -321.35)"><g id="mask-2"><g id="use30"><polygon id="path-1" points="440.64 321.35 440.64 416.99 345 416.99 345 321.35 440.64 321.35" style="fill:#fff"/></g></g></g></mask></defs><title>Denmark national football team logo - Brandlogos.net</title><g id="Symbols"><g id="Modules-_-00_Top-navigation_default" data-name="Modules-/-00_Top-navigation_default"><g id="Logo-_-Logo-White" data-name="Logo-/-Logo-White"><g id="Logo"><g id="Group-118"><path id="Fill-29" d="M392.82,321.74a47.43,47.43,0,1,0,47.43,47.43,47.43,47.43,0,0,0-47.43-47.43" transform="translate(-345 -321.35)" style="fill:#fff"/><g id="Group-33"><g style="mask:url(#mask)"><path id="Fill-31" d="M440,369.17a47.14,47.14,0,1,1-13.81-33.34A46.83,46.83,0,0,1,440,369.17m-47.14-47.82a47.82,47.82,0,1,0,33.81,14,47.51,47.51,0,0,0-33.81-14" transform="translate(-345 -321.35)" style="fill:#c81517"/></g></g><path id="Fill-34" d="M392.82,415A45.79,45.79,0,1,0,347,369.17,45.79,45.79,0,0,0,392.82,415" transform="translate(-345 -321.35)" style="fill:#c81517"/><path id="Fill-36" d="M372,403.43a.79.79,0,1,0-.79-.79.79.79,0,0,0,.79.79" transform="translate(-345 -321.35)" style="fill:#fff"/><path id="Fill-38" d="M414.85,402.68a.79.79,0,1,0-.79-.79.79.79,0,0,0,.79.79" transform="translate(-345 -321.35)" style="fill:#fff"/><path id="Fill-40" d="M360.16,347.8a.79.79,0,1,0-.79-.79.79.79,0,0,0,.79.79" transform="translate(-345 -321.35)" style="fill:#fff"/><path id="Fill-42" d="M361,369.17A31.78,31.78,0,1,1,392.82,401,31.82,31.82,0,0,1,361,369.17m31.78,32.65a32.65,32.65,0,1,0-32.65-32.65,32.69,32.69,0,0,0,32.65,32.65" transform="translate(-345 -321.35)" style="fill:#fff"/><path id="Fill-44" d="M379.35,370.19c-.57,4.38-4,4-4,4H373V360.69c0,.45,7,4.69,6.34,9.5m.34-8.53a14.43,14.43,0,0,1-2.25-5.78H366.93l-.77,2a4.1,4.1,0,0,1,2.55,3.27V374c0,.72-1,2.16-3.13,3.08l.87,2.18H377c.77,0,7.09-.67,6.94-8.49-.06-2.93-2.2-6.26-4.24-9.1" transform="translate(-345 -321.35)" style="fill:#fff"/><path id="Fill-46" d="M395.57,360.77a4.07,4.07,0,0,1-1.47,3.16l-3.71-3.52a1.9,1.9,0,0,1,0-2.84c1.24-1.22,2.68-.37,3.35,0,.36.21,1.94,1.72,1.88,3.18m4.6,8.79a33.41,33.41,0,0,0-2.76-3.48c1.16-1.57,2.5-3.39,2-6.4a6.8,6.8,0,0,0-4.45-5.2,11.2,11.2,0,0,0-12,2.07,5.73,5.73,0,0,1,2.17,4.29v12c0,1.52-1.34,5.17-3.85,6.37h6.43a4.53,4.53,0,0,1-1.29-3.73c.35-2,1.81-3.66,3.34-3.71v-6.36L395,371a3.51,3.51,0,0,1,.63,3.32,2.46,2.46,0,0,1-2.66,1.73c-1.12-.2-1.95-.78-2-1.79s-.59-1.14-.93-1.24a1.91,1.91,0,0,0-1.41.47,3.61,3.61,0,0,0-1.11,3.08,5.22,5.22,0,0,0,5.49,4.19c2.94,0,5.68-1,7.32-3.81a7.44,7.44,0,0,0-.14-7.37" transform="translate(-345 -321.35)" style="fill:#fff"/><path id="Fill-48" d="M409.31,355.89h-4.72l-1,2a2.77,2.77,0,0,1,1.25,2.26c0,3.32-2.79,7.9-3.61,9,0,0,2.6,4.32.14,7.9a5.25,5.25,0,0,0,4.29,2.23h13.44l.87-2.19c-1.28-.49-3.13-2-3.13-3.11V361.41a4.14,4.14,0,0,1,2.56-3.5l-.77-2H412.3v18.4s-5.4,1.26-6.25-3.56c-.29-1.64,0-3.84,1.77-7.8,1.66-3.74,1.49-4.14,1.49-4.93Z" transform="translate(-345 -321.35)" style="fill:#fff"/><path id="Fill-50" d="M371.45,397.26l-2.78-2.79c-3.06-3.06-5.46-2.19-6.58-1.08-1.51,1.51-1.65,4.55,1.12,7.33l2.38,2.38.3-.3c-.42-.55-.17-.79.18-1.15l3.92-3.91c.35-.35.6-.6,1.15-.18Zm-7,3.32-.36-.36c-1.67-1.67-2-4-.56-5.45s3.19-.81,4.79.8l.58.58Z" transform="translate(-345 -321.35)" style="fill:#fff"/><path id="Fill-52" d="M354.07,388.41l.94,1.79,7.69-.4c.36,0,.88-.09,1.14.36l.38-.2L363,387.53l-.38.2c.17.63,0,.76-.56.78l-1.89.11-1.58-3,1.14-1.55c.31-.43.54-.63.95,0l.38-.2-1.51-2.88-.38.2a.79.79,0,0,1-.22.88Zm5,.32-3,.17,1.83-2.43Z" transform="translate(-345 -321.35)" style="fill:#fff"/><path id="Fill-54" d="M352.31,379.16l5.21-.94c.49-.09.83-.15.81-.77l.42-.08.46,2.57-.42.08c-.2-.59-.54-.52-1-.44l-5.45,1c-.49.09-.83.15-.82.77l-.42.08-.5-2.79,2.85-4.94-2.28.41c-.49.09-.83.15-.82.77l-.42.08-.46-2.57.42-.08c.2.59.54.52,1,.44l5.45-1c.49-.09.83-.15.82-.77l.42-.08.46,2.57-.42.08c-.2-.59-.54-.52-1-.44l-1.07.19Z" transform="translate(-345 -321.35)" style="fill:#fff"/><path id="Fill-56" d="M354.73,367.13l.39-.39a.84.84,0,0,0,.56.39c.9.1,1.41-1.24,1.51-2.09s-.13-2.39-1.11-2.51c-2.18-.25-1.36,6.14-4.47,5.79-1.76-.2-2.13-2.37-1.93-4.15a5.43,5.43,0,0,1,2-3.9l1,1.71-.32.44a.54.54,0,0,0-.33-.16c-.82-.09-1.2,1.28-1.28,2s-.09,2,.75,2.12c1.75.2,1.23-6.27,4.56-5.89,1.91.22,2.43,2.59,2.2,4.58a4.9,4.9,0,0,1-2.63,4.21Z" transform="translate(-345 -321.35)" style="fill:#fff"/><path id="Fill-58" d="M361.47,351.19a1.18,1.18,0,0,0,.76-.51l.39.17-1.31,3.05-.39-.17c.22-.63,0-.62-.31-.54l-4.16,1.14.5,1.65,1.67.72c.46.2.78.33,1.1-.19l.39.17-1.23,2.86-.39-.17c.16-.6-.16-.74-.62-.93l-5.09-2.19c-.46-.2-.78-.33-1.1.19l-.39-.17,1.23-2.86.39.17c-.16.6.16.74.62.93l2.09.9-1.19-3.74c-.19-.56-.42-.44-.71,0l-.39-.17,1.43-3.33.39.17a2.39,2.39,0,0,0,.09,1.7l.72,2.6Z" transform="translate(-345 -321.35)" style="fill:#fff"/><path id="Fill-60" d="M364.66,340.73,363.14,339l1.45-1.31c.63-.57,1.41-.87,2-.26s.18,1.38-.53,2Zm1.5,5.39,3.84-3.47c1.3-1.17,2.06-2.82,1-4a2.4,2.4,0,0,0-3.23,0l0,0a2.06,2.06,0,0,0,.11-2.53c-.85-.94-2.28-.58-3.24.29l-4,3.61.29.32c.52-.34.75-.08,1.08.29l3.71,4.11c.33.37.57.63.17,1.11Zm1.19-2.42-2-2.24,1.35-1.22c.92-.83,2.05-1.28,2.83-.42s.15,1.78-.68,2.53Z" transform="translate(-345 -321.35)" style="fill:#fff"/><path id="Fill-62" d="M378.48,337.46c2.85-1.29,4.09-3.82,3-6.16s-3.85-2.92-6.53-1.72-4.11,3.81-3.07,6.12,3.76,3,6.57,1.76m-.43-1a3,3,0,0,1-4.3-1.58,3.07,3.07,0,0,1,1.68-4.36,3,3,0,0,1,4.24,1.56,3.07,3.07,0,0,1-1.62,4.38" transform="translate(-345 -321.35)" style="fill:#fff"/><path id="Fill-64" d="M384.41,334.6c.59-.18.54-.52.48-1l-.77-5.48c-.07-.49-.12-.84-.74-.84l-.06-.42,3.08-.43.06.42c-.59.18-.55.52-.48,1l.82,5.85,2.64-.37c.74-.1,1.37-.31,1.35-1.06l.69-.1.26,1.84-7.28,1Z" transform="translate(-345 -321.35)" style="fill:#fff"/><path id="Fill-66" d="M397.81,331.35l.36.42a.84.84,0,0,0-.43.53c-.17.89,1.12,1.51,2,1.67s2.4.05,2.59-.92c.42-2.15-6-1.83-5.42-4.9.34-1.74,2.53-1.94,4.29-1.6a5.43,5.43,0,0,1,3.73,2.32l-1.78.84-.41-.35a.54.54,0,0,0,.19-.32c.16-.81-1.18-1.29-1.93-1.44s-2-.25-2.17.58c-.34,1.73,6.15,1.71,5.52,5-.37,1.89-2.77,2.22-4.74,1.84a4.9,4.9,0,0,1-4-2.95Z" transform="translate(-345 -321.35)" style="fill:#fff"/><path id="Fill-68" d="M409.6,335.5c2,.42,4.34.83,5.26-1,.59-1.17.1-2.61-2.06-3.69l-4.08-2-.19.38c.51.36.35.67.13,1.11l-2.49,4.95c-.22.45-.38.76-1,.56l-.19.38,2.78,1.4.19-.38c-.5-.36-.35-.67-.12-1.11l.42-.84Zm.91-4.73,1.28.64c1,.5,1.67,1.42,1.21,2.33-.64,1.27-2.9.82-4.28.59Z" transform="translate(-345 -321.35)" style="fill:#fff"/><path id="Fill-70" d="M415.8,341c-.3.39-.52.67-.09,1.12l-.26.34L413,340.56l.26-.34c.54.3.75,0,1.06-.37l3.39-4.38c.31-.39.52-.67.09-1.12l.26-.34,2.46,1.91-.26.34c-.54-.3-.75,0-1.06.37Z" transform="translate(-345 -321.35)" style="fill:#fff"/><path id="Fill-72" d="M416.92,343c.48.39.74.16,1.11-.17l4.13-3.69c.37-.33.63-.56.29-1.08l.32-.28,2.07,2.32-.32.29c-.48-.39-.74-.16-1.11.17L419,344.5l1.78,2c.5.56,1,1,1.63.54l.46.52-1.38,1.23-4.9-5.49Z" transform="translate(-345 -321.35)" style="fill:#fff"/><polygon id="Fill-74" points="79.84 25.91 80.83 25.29 82.55 28.04 81.56 28.65 79.84 25.91" style="fill:#fff"/><path id="Fill-76" d="M433,357.22c.47-.16.8-.28.69-.88l.4-.14,1,2.94-.41.14c-.29-.55-.62-.43-1.09-.27l-5.24,1.81c-.47.16-.8.28-.69.88l-.41.14-1.42-4.13c-1.07-3.1.62-4.73,2-5.19,1.79-.62,4.05.45,4.37.34s.17-.4.1-.58l.4-.14,1,2.85-.41.14c-.93-1.17-3.41-1.33-4.61-.91-1.6.55-2.19,2-1.53,3.91l.34,1Z" transform="translate(-345 -321.35)" style="fill:#fff"/><path id="Fill-78" d="M434.33,365l-5.29.19c-.5,0-.85,0-.92.64l-.43,0-.09-2.61.43,0c.11.61.46.6,1,.58l5.54-.2c.5,0,.85,0,.92-.65l.43,0,.1,2.84-3.52,4.48,2.32-.08c.5,0,.85,0,.92-.65l.43,0,.09,2.61-.43,0c-.11-.61-.46-.6-1-.58l-5.54.2c-.5,0-.85,0-.92.65h-.43l-.09-2.61h.43c.11.61.46.59,1,.58l1.09,0Z" transform="translate(-345 -321.35)" style="fill:#fff"/><path id="Fill-80" d="M428.41,376.59c-.49-.09-.83-.15-1,.44L427,377l.55-3.06.42.08c0,.62.32.68.82.77l5.45,1c.49.09.83.15,1-.44l.42.08-.55,3.07-.42-.08c0-.62-.32-.68-.82-.77Z" transform="translate(-345 -321.35)" style="fill:#fff"/><path id="Fill-82" d="M424.71,383.11c-1.26,2.87-.48,5.57,1.87,6.61s4.82-.4,6-3.09.5-5.58-1.81-6.6-4.83.27-6.06,3.08m1,.44a3,3,0,0,1,4.25-1.7,3.07,3.07,0,0,1,1.67,4.36,3,3,0,0,1-4.19,1.68,3.07,3.07,0,0,1-1.73-4.34" transform="translate(-345 -321.35)" style="fill:#fff"/><path id="Fill-84" d="M425.58,395l-3.95-3.53c-.37-.33-.63-.56-1.11-.17l-.32-.29L422,389l.32.29c-.34.52-.08.75.29,1.08l4.13,3.69c.37.33.63.56,1.11.17l.32.29-1.89,2.11-5.65.79L422.3,399c.37.33.63.56,1.11.17l.32.29L422,401.42l-.32-.29c.34-.52.08-.75-.29-1.08l-4.13-3.69c-.37-.33-.63-.56-1.11-.17l-.32-.29,1.74-1.95.32.29c-.34.52-.08.75.29,1.08l.81.73Z" transform="translate(-345 -321.35)" style="fill:#fff"/><path id="Fill-86" d="M381.15,402.36l-2.65,6.71c-.26.64-.09.86.73,1.24l-.16.41-4.15-1.64.16-.41c1.22.43,1.4.21,1.69-.54l2.09-5.3a6.47,6.47,0,0,1-1.85-.24l.25-.62a5.1,5.1,0,0,0,2.65-.1Z" transform="translate(-345 -321.35)" style="fill:#fff"/><path id="Fill-88" d="M388,404.84c.92.12,1.54.59,1.44,1.4s-.9,1.09-1.74,1-1.51-.66-1.4-1.43S387.1,404.72,388,404.84Zm-2.1,2.62a2.4,2.4,0,0,0-2.36,2c-.25,1.87,1.42,2.94,3.45,3.21s4-.48,4.25-2.31a2.33,2.33,0,0,0-1.82-2.41v0h0a1.9,1.9,0,0,0,1.86-1.59c.2-1.52-1.61-2.3-3.13-2.5s-3.47.19-3.66,1.62a2,2,0,0,0,1.42,2Zm-.32,2.26a1.6,1.6,0,0,1,2-1.48,1.69,1.69,0,0,1,1.6,1.91,1.71,1.71,0,0,1-2.06,1.48A1.63,1.63,0,0,1,385.55,409.72Z" transform="translate(-345 -321.35)" style="fill:#fff"/><path id="Fill-90" d="M397.32,404.88c.93-.12,1.64.18,1.74,1s-.59,1.28-1.43,1.39-1.62-.25-1.72-1S396.45,405,397.32,404.88ZM396,407.95a2.4,2.4,0,0,0-1.78,2.51c.24,1.88,2.12,2.48,4.16,2.22s3.75-1.49,3.52-3.31a2.33,2.33,0,0,0-2.38-1.87v0h0a1.9,1.9,0,0,0,1.4-2c-.19-1.52-2.14-1.82-3.66-1.62s-3.31,1.07-3.13,2.5a2,2,0,0,0,1.88,1.56Zm.27,2.27a1.6,1.6,0,0,1,1.55-1.94,1.69,1.69,0,0,1,2,1.44,1.71,1.71,0,0,1-1.62,2A1.62,1.62,0,0,1,396.23,410.22Z" transform="translate(-345 -321.35)" style="fill:#fff"/><path id="Fill-92" d="M409.54,405.34a2.76,2.76,0,0,1-1.57,4c-.56.23-1.35.46-1.72,0l-.66.27.52,1.27a11.77,11.77,0,0,0,2.28-.64,4.61,4.61,0,0,0,2.77-6.35,3.78,3.78,0,0,0-5.35-2.21c-1.86.76-3,2.39-2.31,4,.59,1.44,2.3,2,4,1.28a3,3,0,0,0,1.86-1.86h0Zm-3.17-2.74a1.69,1.69,0,0,1,2.34.87,1.74,1.74,0,0,1-1.09,2.22,1.62,1.62,0,0,1-2.22-.87A1.6,1.6,0,0,1,406.37,402.6Z" transform="translate(-345 -321.35)" style="fill:#fff"/><path id="Fill-94" d="M391.24,329.75l-.21-3.36h.16a2.06,2.06,0,0,1,2.44,1.72c.06,1-.63,1.54-2.05,1.63Zm3.83-1.78c-.08-1.3-1.43-2.6-3.77-2.46l-1.95.12h-.14v.14l0,.25v.12h.12c.28,0,.28.1.3.39l.2,3.21c0,.29,0,.37-.25.42l-.12,0v.12l0,.25v.14h.14l2.28-.14C394.36,330.42,395.14,329.12,395.07,328Z" transform="translate(-345 -321.35)" style="fill:#fff"/><path id="Fill-96" d="M392.59,339.69s-2.34.06-3.05.83c0,0,3.25,5.06-.61,5.2a2.15,2.15,0,0,1-2.08-.85c-.52-1-.2-2.52.9-2.66a4.11,4.11,0,0,0-5-.88c-1.84.84-1.94,3.42-1.73,4.13,0,0-4-1-5.65,2.26a5,5,0,0,0,.08,4.4,6.73,6.73,0,0,1,3.59-1.69c1.28-.23,5.15.86,6.35.74,1.38-.13,4.34-.19,5.82-3.5.26-.59.46-1.27.63-.79.3.82.52,1,.65,1a.37.37,0,0,0,.15,0,.36.36,0,0,0,.15,0c.12,0,.34-.2.65-1,.18-.48.37.2.63.79,1.48,3.31,4.44,3.37,5.82,3.5,1.2.12,5.07-1,6.35-.74a6.73,6.73,0,0,1,3.59,1.69,5,5,0,0,0,.08-4.4c-1.68-3.21-5.65-2.26-5.65-2.26.2-.71.1-3.29-1.73-4.13a4.12,4.12,0,0,0-5,.88c1.1.14,1.42,1.67.9,2.66a2.15,2.15,0,0,1-2.08.85c-3.86-.14-.61-5.2-.61-5.2-.71-.76-3.05-.83-3.05-.83" transform="translate(-345 -321.35)" style="fill:#fff"/><path id="Fill-98" d="M409.39,349.35c-.23-1.47-1.22-2.6-3.53-3a10.07,10.07,0,0,0-2.74.09,4.2,4.2,0,0,0,.23-1.42,3.41,3.41,0,0,0-.93-2.49,3.28,3.28,0,0,0-2.6-.67l-1,.3s.22.09.51.74a2.45,2.45,0,0,1-.41,2.58,3.25,3.25,0,0,1-3.39,1.12,2.45,2.45,0,0,1-1.42-.8s.43,1.13.68,1.64,1.91,3.94,8,2.35a8.33,8.33,0,0,1,5.53.22,7.42,7.42,0,0,1,1,.63s.2-.23,0-1.3" transform="translate(-345 -321.35)" style="fill:#c81517"/><path id="Fill-100" d="M375.8,349.35c.23-1.47,1.22-2.6,3.52-3a10.07,10.07,0,0,1,2.74.09,4.17,4.17,0,0,1-.23-1.42,3.41,3.41,0,0,1,.93-2.49,3.28,3.28,0,0,1,2.6-.67l1,.3s-.22.09-.51.74a2.46,2.46,0,0,0,.41,2.58,3.25,3.25,0,0,0,3.39,1.12,2.45,2.45,0,0,0,1.42-.8s-.43,1.13-.68,1.64-1.91,3.94-8,2.35a8.33,8.33,0,0,0-5.53.22,7.38,7.38,0,0,0-1,.63s-.2-.23,0-1.3" transform="translate(-345 -321.35)" style="fill:#c81517"/><path id="Fill-102" d="M392.54,346.23a.27.27,0,0,1-.26-.22s-.54-2.22-.79-3-.68-1.81-.68-1.81a3,3,0,0,1,1.73-.44h.11a3,3,0,0,1,1.73.44s-.42,1-.68,1.81-.79,3-.79,3a.27.27,0,0,1-.26.22Z" transform="translate(-345 -321.35)" style="fill:#c81517"/><path id="Fill-104" d="M392.87,398.77a6.79,6.79,0,0,1-2.35-.41,2.59,2.59,0,0,1-1.38-3.42c-1.25.91-3.22,0-3.82-2.17a5.12,5.12,0,0,1,.58-4.38,2.33,2.33,0,0,0-3,2,6.13,6.13,0,0,0,.44,3.45s-.69.47-2.28-.17c-2.21-.89-1.9-3.6-1.9-3.6a3.51,3.51,0,0,1-3.49-.56c-3-2.44-2.82-5-2.82-5s3.73,1.49,5.57,1.26c1.35-.16,3-.66,4.36-.88,3.37-.54,6.42,2.58,6.42,2.58-1-3.73,3-3.93,3.66-3.92s4.62.19,3.66,3.92c0,0,3-3.12,6.42-2.58,1.36.22,3,.71,4.36.88,1.84.22,5.57-1.26,5.57-1.26s.18,2.51-2.82,5a3.51,3.51,0,0,1-3.49.56s.31,2.71-1.9,3.6c-1.59.64-2.28.17-2.28.17a6.13,6.13,0,0,0,.44-3.45,2.33,2.33,0,0,0-3-2,5.13,5.13,0,0,1,.58,4.38c-.61,2.22-2.58,3.07-3.82,2.17a2.59,2.59,0,0,1-1.38,3.42,6.78,6.78,0,0,1-2.35.41" transform="translate(-345 -321.35)" style="fill:#fff"/><path id="Fill-106" d="M381.69,385.93c3.53-1.21,6.43,1.61,6.43,1.61a2.33,2.33,0,0,0-1.81.34,2.89,2.89,0,0,0-3.37.79c-1.41,1.56-.44,4.64-.44,4.64s-3.39-.11-2.45-4.26a11.23,11.23,0,0,1-2.2.46c-2.44,0-4.21-4-4.21-4a10.49,10.49,0,0,0,8.05.38" transform="translate(-345 -321.35)" style="fill:#c81517"/><path id="Fill-108" d="M398.57,388.35a3.31,3.31,0,0,0-1.94,0,11.68,11.68,0,0,0-1.77,1.36,2.44,2.44,0,0,1,.47,1.38,2.07,2.07,0,0,1-.45,1.36s1.62,1.5,1.88,1.64a1.65,1.65,0,0,0,2.14-.14,4.44,4.44,0,0,0,.61-4.71,1.61,1.61,0,0,0-.93-.89" transform="translate(-345 -321.35)" style="fill:#c81517"/><path id="Fill-110" d="M404,385.93c-3.53-1.21-6.43,1.61-6.43,1.61a2.33,2.33,0,0,1,1.81.34,2.89,2.89,0,0,1,3.37.79c1.41,1.56.44,4.64.44,4.64s3.39-.11,2.45-4.26a11.21,11.21,0,0,0,2.2.46c2.44,0,4.21-4,4.21-4a10.49,10.49,0,0,1-8.05.38" transform="translate(-345 -321.35)" style="fill:#c81517"/><path id="Fill-112" d="M387.17,388.35a3.31,3.31,0,0,1,1.94,0,11.68,11.68,0,0,1,1.77,1.36,2.44,2.44,0,0,0-.47,1.38,2.07,2.07,0,0,0,.45,1.36s-1.62,1.5-1.88,1.64a1.65,1.65,0,0,1-2.14-.14,4.44,4.44,0,0,1-.61-4.71,1.6,1.6,0,0,1,.93-.89" transform="translate(-345 -321.35)" style="fill:#c81517"/><path id="Fill-114" d="M395.58,385.4a3.37,3.37,0,0,0-2.68-1.05h-.07a3.37,3.37,0,0,0-2.68,1.05,2.61,2.61,0,0,0-.14,2.55,4.38,4.38,0,0,0,1.25,1.26,2.85,2.85,0,0,1,3.21,0,4.37,4.37,0,0,0,1.25-1.26,2.61,2.61,0,0,0-.14-2.55" transform="translate(-345 -321.35)" style="fill:#c81517"/><path id="Fill-116" d="M395.84,394.82c-.21-.41-1.36-1.9-1.36-1.9a3.27,3.27,0,0,1-3.21,0s-1.15,1.49-1.36,1.9a2.76,2.76,0,0,0,0,1.71,1.61,1.61,0,0,0,.89.93,5.51,5.51,0,0,0,2,.45h.07a5.5,5.5,0,0,0,2-.45,1.61,1.61,0,0,0,.89-.93,2.76,2.76,0,0,0,0-1.71" transform="translate(-345 -321.35)" style="fill:#c81517"/></g></g></g></g></g></svg>