<svg width="82" height="82" viewBox="0 0 82 82" fill="none" xmlns="http://www.w3.org/2000/svg">
<path d="M2.53796 60.9132C2.53796 66.5198 7.08361 71.0654 12.6902 71.0654H68.5272C74.1337 71.0654 78.6794 66.5198 78.6794 60.9132V38.0708H2.53796V60.9132Z" fill="#4FAC3F"/>
<path d="M68.5272 10.1523H12.6902C7.08361 10.1523 2.53796 14.698 2.53796 20.3045V40.6089H78.6794V20.3045C78.6794 14.698 74.1337 10.1523 68.5272 10.1523Z" fill="#7CB2E3"/>
<path d="M6.17499 68.639L48.2228 40.6088L6.17499 12.5786C3.96942 14.4415 2.53796 17.1928 2.53796 20.3044V60.9132C2.53796 64.0274 3.96942 66.7786 6.17499 68.639Z" fill="white"/>
<path opacity="0.15" d="M68.5272 10.1523H12.6902C7.08361 10.1523 2.53796 14.698 2.53796 20.3045V60.9133C2.53796 66.5198 7.08361 71.0655 12.6902 71.0655H68.5272C74.1337 71.0655 78.6794 66.5198 78.6794 60.9133V20.3045C78.6794 14.698 74.1337 10.1523 68.5272 10.1523ZM76.1413 60.9133C76.1413 65.1112 72.7251 68.5274 68.5272 68.5274H12.6902C8.49222 68.5274 5.07601 65.1112 5.07601 60.9133V20.3045C5.07601 16.1066 8.49222 12.6904 12.6902 12.6904H68.5272C72.7251 12.6904 76.1413 16.1066 76.1413 20.3045V60.9133Z" fill="black"/>
<path d="M24.0277 42.0122L29.345 38.1467H22.7714L20.741 31.8955L18.708 38.1467H12.1345L17.4542 42.0122L15.4212 48.2634L20.741 44.4005L26.0582 48.2634L24.0277 42.0122Z" fill="#C62D25"/>
<path opacity="0.2" d="M68.5272 12.6904H12.6902C8.48465 12.6904 5.07605 16.099 5.07605 20.3046V22.8426C5.07605 18.6371 8.48465 15.2285 12.6902 15.2285H68.5272C72.7328 15.2285 76.1414 18.6371 76.1414 22.8426V20.3046C76.1414 16.099 72.7328 12.6904 68.5272 12.6904Z" fill="white"/>
</svg>
