<svg width="82" height="82" viewBox="0 0 82 82" fill="none" xmlns="http://www.w3.org/2000/svg">
<path d="M12.6905 10.1523C7.08397 10.1523 2.53833 14.698 2.53833 20.3045V40.6089H40.609V10.1523H12.6905Z" fill="#0D285F"/>
<path d="M78.6797 20.3045C78.6797 14.698 74.1341 10.1523 68.5275 10.1523H40.609V40.6089H78.6797V20.3045Z" fill="#BE2A2C"/>
<path d="M12.6905 71.0655C7.08397 71.0655 2.53833 66.5198 2.53833 60.9133V40.6089H40.609V71.0655H12.6905Z" fill="#BE2A2C"/>
<path d="M78.6797 60.9133C78.6797 66.5198 74.1341 71.0655 68.5275 71.0655H40.609V40.6089H78.6797V60.9133Z" fill="#0D285F"/>
<path d="M32.9948 10.1523H48.2231V71.0655H32.9948V10.1523Z" fill="white"/>
<path d="M2.53833 48.2227L2.53833 32.9944L78.6797 32.9944V48.2227L2.53833 48.2227Z" fill="white"/>
<path opacity="0.15" d="M68.5276 10.1523H12.6905C7.08397 10.1523 2.53833 14.698 2.53833 20.3045V60.9133C2.53833 66.5198 7.08397 71.0655 12.6905 71.0655H68.5276C74.1341 71.0655 78.6797 66.5198 78.6797 60.9133V20.3045C78.6797 14.698 74.1341 10.1523 68.5276 10.1523ZM76.1417 60.9133C76.1417 65.1112 72.7255 68.5274 68.5276 68.5274H12.6905C8.49259 68.5274 5.07638 65.1112 5.07638 60.9133V20.3045C5.07638 16.1066 8.49259 12.6904 12.6905 12.6904H68.5276C72.7255 12.6904 76.1417 16.1066 76.1417 20.3045V60.9133Z" fill="black"/>
<path d="M48.1901 35.9286C48.0378 35.6951 47.5657 35.4489 47.2942 35.3423L46.2104 34.9464C46.3094 34.756 46.3906 34.5986 46.2916 34.4438C46.1419 34.2154 45.2358 33.7712 45.0074 33.7078C44.6165 33.6012 44.2206 33.5174 43.8196 33.4514C43.4338 33.3905 42.6901 33.3372 42.6901 33.3372C42.6368 33.2814 42.7917 32.987 42.5531 32.7814C42.4135 32.6697 42.2105 32.6317 42.0023 32.6113C41.1749 32.5327 40.0455 32.5555 39.2105 32.6113C38.9694 32.6266 38.7993 32.652 38.6597 32.7814C38.4922 32.9388 38.4694 33.0352 38.4846 33.3347C37.3679 33.3144 36.241 33.5707 35.3019 34.1519C34.8704 34.4184 34.7689 34.5098 35.0075 34.9387C34.9516 34.9768 34.5582 35.0961 34.4618 35.1316C34.1039 35.2687 33.7385 35.4032 33.4339 35.5885C33.2486 35.7002 33.1699 35.7839 33.0278 35.9311L33.9237 35.8626C33.8958 35.921 33.8298 36.0047 33.7943 36.0606C33.642 36.2814 33.5456 36.4565 33.4136 36.6875C33.6674 36.5149 33.8958 36.355 34.1877 36.2128C34.8273 35.8905 35.9796 35.8804 36.4516 35.3144C36.5735 35.1722 36.4999 35.0859 36.3983 34.8524C36.7486 34.7357 36.8806 34.6545 37.3044 34.558C38.3323 34.3296 39.0379 34.6012 39.5354 34.4794C39.6902 34.4413 39.8425 34.355 39.8526 34.1926L39.779 33.6748H41.4465C41.4465 33.9667 41.1673 34.3423 41.6851 34.4768C42.1521 34.5986 43.0988 34.3321 43.916 34.558L44.8221 34.8499C44.817 34.8931 44.7536 35.0073 44.7333 35.0682C44.6952 35.1722 44.6977 35.2281 44.7663 35.3042C44.8551 35.4057 44.9795 35.5047 45.114 35.5834C45.3805 35.7357 45.7257 35.8321 46.0556 35.9108C46.9972 36.1392 47.086 36.2001 47.8119 36.6824C47.7637 36.5402 47.4185 36.0377 47.3043 35.86L48.1952 35.9311L48.1901 35.9286Z" fill="#002D62"/>
<path d="M34.2841 43.629C34.3754 43.1823 33.7739 42.8498 32.9364 43.0199C33.0303 43.3574 33.6343 43.7331 34.2841 43.629Z" fill="#00863D"/>
<path d="M37.9541 45.1406L37.9589 45.1334C37.9517 45.1165 37.9517 45.1213 37.9541 45.1406Z" fill="#00863D"/>
<path d="M43.256 45.1406L43.2511 45.1334C43.2584 45.1165 43.2584 45.1213 43.256 45.1406Z" fill="#00863D"/>
<path d="M47.7587 45.2637L47.8577 44.7764C47.8882 44.6419 47.9618 44.4439 47.977 44.3145C47.7613 44.5429 47.5709 44.7815 47.3805 44.9947C47.2917 45.1139 47.1902 45.2129 47.1014 45.3424C46.911 45.6342 46.9491 45.6444 46.8755 45.7383C46.2105 45.3703 45.9136 46.2688 45.4643 46.8195C44.6318 46.3525 43.906 46.2053 42.9288 46.0251C42.7105 46.0023 42.5126 45.9718 42.3324 45.9515C41.1014 45.8068 39.7461 45.8119 38.5202 45.9972C37.8882 46.0784 37.4949 46.1926 36.939 46.3246C36.4872 46.4743 36.1852 46.5759 35.7538 46.8297C35.5888 46.5809 35.3629 46.2155 35.203 46.0023C35.1142 45.888 34.9873 45.7637 34.8324 45.685C34.5862 45.5708 34.4974 45.6063 34.3426 45.7408L34.2335 45.5327C34.0127 45.1444 33.7842 44.9667 33.538 44.6546L33.3172 44.3957C33.2868 44.3601 33.2766 44.3373 33.2385 44.317C33.3325 44.6292 33.401 44.9261 33.4644 45.2637C33.3299 45.1901 33.2056 45.1139 33.0634 45.0556C32.9594 45.015 32.6878 44.9566 32.5583 44.9718L32.7182 45.1165C32.9924 45.3601 33.1726 45.6825 33.2842 46.0429C33.4035 46.4337 33.6852 46.8525 33.9797 47.1393C34.0406 47.1977 34.2106 47.3525 34.3198 47.3931C34.6497 47.5124 34.6345 47.388 34.7538 47.3297C35.0076 47.7586 35.1725 47.9743 35.4644 48.3017C35.7791 48.6342 36.2741 48.723 36.7258 48.619C36.9263 48.5682 37.0507 48.5149 37.2055 48.4261C37.7918 48.0885 37.5101 47.8271 37.4416 47.5581C37.6319 47.4997 38.3756 47.2738 38.6446 47.2231C39.5862 47.0479 41.3349 47.0251 42.4517 47.1875C42.5506 47.2028 43.6775 47.5022 43.7892 47.5657C43.7105 47.7535 43.6775 47.8449 43.6902 48.0505C43.7105 48.2408 43.873 48.3398 44.0176 48.4236C44.1725 48.5124 44.2968 48.5682 44.4973 48.6164C44.6928 48.6621 44.9034 48.6697 45.1014 48.6418C45.5227 48.5733 45.741 48.3296 45.9212 48.1114C46.2207 47.7687 46.3146 47.5632 46.4669 47.322C46.4669 47.322 46.5531 47.4007 46.6141 47.421C46.6724 47.4388 46.8577 47.4058 46.9085 47.3855C47.0531 47.3322 47.1445 47.2231 47.2435 47.1266C47.5531 46.8297 47.8146 46.4413 47.9389 46.02C48.0887 45.5251 48.2942 45.2916 48.6597 44.9693C48.1876 44.9845 48.0252 45.1165 47.7587 45.2637Z" fill="#CE1126"/>
<path d="M36.9338 36.8498C36.944 36.9158 36.9389 42.3548 36.9389 42.9183C36.9389 43.4563 36.944 43.799 37.2003 44.1391C37.411 44.4335 37.7638 44.6771 38.109 44.7583C38.3526 44.8091 39.2511 44.7888 39.5633 44.7888C40.2561 44.7558 40.3399 44.9106 40.6039 45.2533C40.9033 44.771 41.2308 44.7634 41.845 44.7888C42.1571 44.7888 42.8272 44.8142 43.1038 44.7533C43.4363 44.6746 43.6952 44.5147 43.9084 44.2507C44.2612 43.8472 44.2409 43.3447 44.2409 42.8167V37.0808C44.2409 36.8219 44.2104 36.8853 44.3424 36.7508L45.2053 35.8447L35.9719 35.8498L36.9288 36.8523L36.9338 36.8498Z" fill="white"/>
<path d="M39.817 39.5504V35.8423H35.9972L36.9464 36.8448L36.9566 39.5504H39.8195H39.817Z" fill="#002D62"/>
<path d="M41.3475 39.5504V35.8423H45.2383L44.2459 36.9057V39.5504H41.3475ZM39.817 41.0808H36.9287L36.9211 43.4158C37.0531 44.4361 37.8069 44.7838 38.482 44.7787C38.9389 44.7838 39.0962 44.7762 39.817 44.7711V41.0783V41.0808Z" fill="#CE1126"/>
<path d="M41.3477 41.0807H44.2537L44.2436 43.4157C44.175 44.4258 43.3578 44.7837 42.6827 44.7786L41.3477 44.771V41.0781V41.0807Z" fill="#002D62"/>
<path d="M40.6014 45.3117L40.5684 45.261C40.5101 45.1696 40.4872 45.1341 40.4111 45.0605C40.17 44.8193 39.9999 44.8193 39.6573 44.8219H39.5811C39.5228 44.8219 39.4441 44.8219 39.3527 44.8219C38.9416 44.8244 38.3223 44.832 38.1192 44.7889C37.6624 44.7178 37.3654 44.4183 37.1954 44.1823C36.9213 43.794 36.9213 43.464 36.9213 42.9158V42.3574C36.9213 40.9057 36.9238 37.0935 36.9162 36.86L35.9137 35.8093L45.3044 35.8042L44.3857 36.7687C44.3679 36.7864 44.3552 36.7991 44.3425 36.8118C44.3053 36.849 44.2875 36.8981 44.2892 36.959C44.2892 36.9895 44.2892 37.025 44.2892 37.0732V42.8879C44.2892 43.3955 44.2892 43.8726 43.9491 44.266C43.7385 44.5148 43.4288 44.7077 43.1268 44.7813C42.9009 44.8295 42.4288 44.8244 42.0862 44.8193C41.9999 44.8193 41.9212 44.8193 41.8578 44.8193C41.8096 44.8193 41.7563 44.8193 41.7004 44.8193C41.4771 44.8143 41.2258 44.8092 41.0634 44.8752C40.8984 44.9437 40.7563 45.1061 40.6268 45.2737L40.5964 45.3117H40.6014ZM39.7258 44.7534C40.0329 44.7534 40.2157 44.7686 40.4593 45.0122C40.5329 45.0833 40.5608 45.1214 40.6065 45.1924C40.7334 45.03 40.8755 44.8777 41.0431 44.8092C41.2182 44.7381 41.4771 44.7432 41.7055 44.7483C41.7613 44.7483 41.8121 44.7483 41.8603 44.7483C41.9238 44.7483 42.0024 44.7483 42.0887 44.7483C42.4288 44.7534 42.8958 44.7584 43.1141 44.7127C43.4034 44.6442 43.6979 44.4589 43.9009 44.2204C44.2258 43.8473 44.2258 43.3803 44.2258 42.8853V37.0707C44.2258 37.0225 44.2258 36.9869 44.2258 36.9565C44.2232 36.8397 44.2258 36.8296 44.2994 36.7585C44.3121 36.7484 44.3248 36.7331 44.34 36.7179L45.1496 35.8676L36.0761 35.8727L36.9847 36.8245V36.8372C36.9923 36.8778 36.9949 38.5275 36.9923 42.3549V42.9133C36.9923 43.4463 36.9923 43.7686 37.2538 44.1391C37.4162 44.365 37.7005 44.6493 38.1345 44.7178C38.3299 44.7584 38.972 44.7534 39.3553 44.7483C39.4466 44.7483 39.5253 44.7483 39.5837 44.7483H39.6598C39.6827 44.7483 39.7055 44.7483 39.7258 44.7483V44.7534Z" fill="black"/>
<path d="M34.6752 37.1748C35.1955 38.1824 35.9239 38.2357 34.8173 39.3854C34.8478 39.5504 35.3249 39.3854 35.3249 39.3854C35.0483 40.8042 34.1447 40.6545 36.0736 40.0733C35.7589 40.2966 35.8477 40.6316 35.8477 40.6316L36.2818 40.7128C36.2818 40.7128 36.4315 40.921 35.6701 40.9514C34.6041 41.393 35.3122 42.4235 35.9569 42.8118C36.4213 43.2534 35.4417 44.025 36.0736 44.2661C38.7183 44.3575 36.2513 47.6011 35.3249 45.8625C35.3249 45.8625 35.5635 46.0707 35.9137 45.8321C36.3604 45.19 34.7132 45.6493 34.4569 45.0072C34.8173 45.0707 35.2056 44.7813 35.2056 44.7813C34.4493 44.8245 33.4468 43.4666 32.9391 43.0199C32.9391 43.0199 33.7234 42.7585 34.2412 43.058C34.2412 42.6113 33.4899 42.2839 33.3554 41.7306C33.2209 41.1773 33.8655 40.7941 33.6168 40.5606C33.3681 40.3271 33.3732 38.5047 34.6752 37.1748Z" fill="#00863D"/>
<path d="M46.5355 37.1748C46.0152 38.1824 45.2867 38.2357 46.3933 39.3854C46.3629 39.5504 45.8857 39.3854 45.8857 39.3854C46.1624 40.8042 47.0659 40.6545 45.137 40.0733C45.4517 40.2966 45.3629 40.6316 45.3629 40.6316L44.9289 40.7128C44.9289 40.7128 44.7791 40.921 45.5406 40.9514C46.6065 41.393 45.8984 42.4235 45.2538 42.8118C44.7893 43.2534 45.769 44.025 45.137 44.2661C42.4924 44.3575 44.9593 47.6011 45.8857 45.8625C45.8857 45.8625 45.6472 46.0707 45.2969 45.8321C44.8502 45.19 46.4974 45.6493 46.7537 45.0072C46.3933 45.0707 46.005 44.7813 46.005 44.7813C46.7614 44.8245 47.7639 43.4666 48.2715 43.0199C48.2715 43.0199 47.4872 42.7585 46.9695 43.058C46.9695 42.6113 47.7207 42.2839 47.8552 41.7306C47.9898 41.1773 47.3451 40.7941 47.5938 40.5606C47.8426 40.3271 47.8375 38.5047 46.5355 37.1748Z" fill="#00863D"/>
<path opacity="0.2" d="M68.5276 12.6904H12.6905C8.48498 12.6904 5.07639 16.099 5.07639 20.3046V22.8426C5.07639 18.6371 8.48498 15.2285 12.6905 15.2285H68.5276C72.7331 15.2285 76.1417 18.6371 76.1417 22.8426V20.3046C76.1417 16.099 72.7331 12.6904 68.5276 12.6904Z" fill="white"/>
</svg>
