<svg width="82" height="82" viewBox="0 0 82 82" fill="none" xmlns="http://www.w3.org/2000/svg">
<path d="M68.5273 10.1523H12.6902C7.08331 10.1523 2.53802 14.6976 2.53802 20.3045V60.9133C2.53802 66.5202 7.08331 71.0655 12.6902 71.0655H68.5273C74.1342 71.0655 78.6794 66.5202 78.6794 60.9133V20.3045C78.6794 14.6976 74.1342 10.1523 68.5273 10.1523Z" fill="#2D693B"/>
<path d="M38.0708 10.1523H43.1469V71.0655H38.0708V10.1523Z" fill="black"/>
<path d="M32.9947 10.1523H38.0708V71.0655H32.9947V10.1523Z" fill="#F8D047"/>
<path d="M43.1469 10.1523H48.223V71.0655H43.1469V10.1523Z" fill="white"/>
<path d="M78.6796 38.0708V43.1469L2.53815 43.1469V38.0708L78.6796 38.0708Z" fill="black"/>
<path d="M78.6796 32.9946V38.0707L2.53815 38.0707V32.9946L78.6796 32.9946Z" fill="#F8D047"/>
<path d="M78.6796 43.147V48.2231L2.53815 48.2231V43.147L78.6796 43.147Z" fill="white"/>
<path opacity="0.15" d="M68.5273 10.1523H12.6902C7.08367 10.1523 2.53802 14.698 2.53802 20.3045V60.9133C2.53802 66.5198 7.08367 71.0655 12.6902 71.0655H68.5273C74.1338 71.0655 78.6794 66.5198 78.6794 60.9133V20.3045C78.6794 14.698 74.1338 10.1523 68.5273 10.1523ZM76.1414 60.9133C76.1414 65.1112 72.7252 68.5274 68.5273 68.5274H12.6902C8.49228 68.5274 5.07607 65.1112 5.07607 60.9133V20.3045C5.07607 16.1066 8.49228 12.6904 12.6902 12.6904H68.5273C72.7252 12.6904 76.1414 16.1066 76.1414 20.3045V60.9133Z" fill="black"/>
<path d="M40.6088 55.8369C49.0192 55.8369 55.8371 49.019 55.8371 40.6087C55.8371 32.1983 49.0192 25.3804 40.6088 25.3804C32.1985 25.3804 25.3806 32.1983 25.3806 40.6087C25.3806 49.019 32.1985 55.8369 40.6088 55.8369Z" fill="#C42936"/>
<path d="M40.5708 30.241L39.3195 31.2029L39.7282 29.576L38.4261 28.6826L40.1013 28.5684L40.5505 27.0532L41.1749 28.6116L42.7561 28.5684L41.4667 29.6471L42.0556 31.3197L40.5708 30.241Z" fill="#2D693B"/>
<path d="M40.6087 27.0733L41.1163 28.6316H42.7559L41.4285 29.5961L41.9361 31.1545L40.6087 30.19L39.2813 31.1545L39.7889 29.5961L38.4615 28.6316H40.1011L40.6087 27.0733ZM40.6087 26.6621L40.4869 27.0327L40.0097 28.5047H38.0732L38.3905 28.7332L39.6417 29.6418L39.162 31.1113L39.0402 31.4819L39.3575 31.2534L40.6087 30.3448L41.86 31.2534L42.1772 31.4819L42.0554 31.1113L41.5757 29.6418L42.827 28.7332L43.1442 28.5047H41.2077L40.7305 27.0327L40.6087 26.6621Z" fill="black"/>
<path d="M46.6749 32.2003L45.0937 32.2435L46.3805 31.1673L45.8526 29.6775L47.2764 30.5709L48.5277 29.6064L48.119 31.2384L49.4236 32.1293L47.7459 32.2435L47.2383 33.9465L46.6749 32.2003Z" fill="#2D693B"/>
<path d="M48.5655 29.6573L48.0605 31.2156L49.3853 32.1776H47.7457L47.2407 33.7359L46.7331 32.1776H45.0935L46.4183 31.2156L45.9107 29.6573L47.2356 30.6192L48.563 29.6547M48.8041 29.3223L48.4894 29.5507L47.2381 30.4593L45.9869 29.5507L45.6696 29.3223L45.7914 29.6928L46.2686 31.1649L45.0173 32.0735L44.7001 32.3019H45.0909H46.6366L47.1138 33.774L47.2356 34.1446L47.3574 33.774L47.8346 32.3019H49.3802H49.7711L49.4538 32.0735L48.2026 31.1649L48.6797 29.6928L48.8041 29.3223Z" fill="black"/>
<path d="M51.2991 38.0354L50.0479 38.9999L50.459 37.3705L49.1545 36.4771L50.8296 36.3629L51.2763 34.8477L51.9032 36.406L53.4819 36.3629L52.1925 37.439L52.7839 39.1141L51.2991 38.0354Z" fill="#2D693B"/>
<path d="M51.3371 34.8677L51.8447 36.4261H53.4843L52.1569 37.3905L52.6619 38.9489L51.3371 37.9844L50.0122 38.9489L50.5198 37.3905L49.195 36.4261H50.8345L51.3396 34.8677M51.3396 34.4565L51.2178 34.8271L50.7406 36.2992H49.195H48.8041L49.1214 36.5276L50.3726 37.4362L49.8955 38.9083L49.7736 39.2788L50.0909 39.0479L51.3422 38.1393L52.5934 39.0479L52.9107 39.2763L52.7888 38.9057L52.3117 37.4362L53.5629 36.5276L53.8777 36.2992H53.4868H51.9386L51.4614 34.8296L51.3396 34.4565Z" fill="black"/>
<path d="M50.7713 44.8117L49.1926 44.8548L50.4819 43.7787L49.9515 42.2888L51.3728 43.1822L52.624 42.2178L52.2154 43.8472L53.52 44.7406L51.8449 44.8548L51.3372 46.5553L50.7713 44.8117Z" fill="#2D693B"/>
<path d="M50.0098 42.2684L51.3346 43.2329L52.6595 42.2684L52.1544 43.8268L53.4818 44.7912H51.8423L51.3346 46.3496L50.8296 44.7912H49.19L50.5149 43.8293L50.0072 42.271M49.7661 41.9385L49.888 42.309L50.3651 43.7811L49.1139 44.6897L48.7966 44.9181H49.1875H50.7331L51.2103 46.3902L51.3321 46.7608L51.4539 46.3902L51.9311 44.9207H53.4793H53.8702L53.5554 44.6923L52.3042 43.7836L52.7813 42.3141L52.9032 41.9435L52.5859 42.172L51.3346 43.0806L50.0834 42.172L49.7661 41.9385Z" fill="black"/>
<path d="M47.2028 50.6468L45.949 51.6087L46.3601 49.9793L45.0556 49.0884L46.7332 48.9742L47.1799 47.459L47.8043 49.0173L49.3855 48.9742L48.0962 50.0503L48.6875 51.7254L47.2028 50.6468Z" fill="#2D693B"/>
<path d="M47.2382 47.479L47.7433 49.0374H49.3829L48.058 49.9993L48.5631 51.5577L47.2357 50.5932L45.9108 51.5577L46.4184 49.9993L45.0936 49.0374H46.7331L47.2407 47.479M47.2407 47.0679L47.1189 47.4384L46.6418 48.9105H45.0961H44.7052L45.0225 49.1389L46.2737 50.0475L45.7966 51.5196L45.6748 51.8902L45.992 51.6617L47.2433 50.7531L48.4945 51.6617L48.8093 51.8902L48.6874 51.5196L48.2103 50.0475L49.4615 49.1389L49.7788 48.9105H49.3879H47.8423L47.3651 47.4384L47.2407 47.0679Z" fill="black"/>
<path d="M40.0404 52.606L38.4617 52.6491L39.751 51.5705L39.2231 50.0832L40.647 50.9766L41.8982 50.0146L41.4896 51.6415L42.7916 52.5349L41.114 52.6491L40.6089 54.3522L40.0404 52.606Z" fill="#2D693B"/>
<path d="M41.9361 50.063L41.4285 51.6213L42.7559 52.5858H41.1163L40.6087 54.1441L40.1011 52.5858H38.4615L39.7889 51.6213L39.2813 50.063L40.6087 51.0274L41.9361 50.063ZM42.1772 49.7305L41.86 49.9589L40.6087 50.8675L39.3575 49.9589L39.0402 49.7305L39.162 50.101L39.6417 51.5706L38.3905 52.4792L38.0732 52.7076H40.0097L40.4869 54.1797L40.6087 54.5502L40.7305 54.1797L41.2077 52.7076H43.1442L42.827 52.4792L41.5757 51.5706L42.0554 50.101L42.1772 49.7305Z" fill="black"/>
<path d="M33.0987 49.9793L31.7941 49.0884L33.4718 48.9742L33.9185 47.459L34.5428 49.0173L36.124 48.9742L34.8372 50.0503L35.3652 51.5402L33.9413 50.6468L32.5302 51.7254L33.0987 49.9793Z" fill="#2D693B"/>
<path d="M33.9793 47.479L34.487 49.0374H36.1265L34.8017 49.9993L35.3093 51.5577L33.9844 50.5932L32.657 51.5577L33.1646 49.9993L31.8398 49.0374H33.4794L33.9844 47.479M33.9844 47.0679L33.8626 47.4384L33.3854 48.9105H31.8398H31.4489L31.7662 49.1389L33.0174 50.0475L32.5403 51.5196L32.4184 51.8902L32.7332 51.6617L33.9844 50.7531L35.2357 51.6617L35.5529 51.8902L35.4311 51.5196L34.954 50.0475L36.2052 49.1389L36.5225 48.9105H36.1316H34.5834L34.1062 47.4384L33.9844 47.0679Z" fill="black"/>
<path d="M29.3144 44.8117L27.7357 44.8548L29.025 43.7761L28.4971 42.2888L29.9184 43.1822L31.1697 42.2178L30.7585 43.8472L32.0631 44.7406L30.388 44.8548L29.8804 46.5553L29.3144 44.8117Z" fill="#2D693B"/>
<path d="M31.2054 42.2686L30.6978 43.827L32.0226 44.7914H30.3831L29.878 46.3498L29.3704 44.7914H27.7308L29.0582 43.827L28.5531 42.2686L29.878 43.2331L31.2028 42.2686M31.444 41.9361L31.1267 42.1671L29.8754 43.0757L28.6242 42.1671L28.3069 41.9387L28.4288 42.3092L28.9059 43.7788L27.6547 44.6874L27.3399 44.9158H27.7308H29.279L29.7562 46.3853L29.878 46.7559L29.9998 46.3853L30.477 44.9133H32.0226H32.4135L32.0962 44.6848L30.845 43.7762L31.3221 42.3041L31.444 41.9336V41.9361Z" fill="black"/>
<path d="M29.845 38.0354L28.5937 38.9999L29.0024 37.3705L27.6978 36.4771L29.3729 36.3629L29.8222 34.8477L30.4465 36.406L32.0252 36.3629L30.7359 37.439L31.3298 39.1141L29.845 38.0354Z" fill="#2D693B"/>
<path d="M29.8804 34.8679L30.3855 36.4263H32.025L30.7002 37.3882L31.2078 38.9465L29.8829 37.9821L28.5581 38.9465L29.0631 37.3882L27.7357 36.4237H29.3753L29.8829 34.8654M29.8829 34.4542L29.7611 34.8248L29.2839 36.2943H27.7357H27.3449L27.6596 36.5227L28.9109 37.4313L28.4337 38.9009L28.3119 39.2714L28.6291 39.043L29.8804 38.1344L31.1316 39.043L31.4489 39.2739L31.3271 38.9034L30.8499 37.4313L32.1012 36.5227L32.4184 36.2943H32.0276H30.4819L30.0048 34.8222L29.8829 34.4542Z" fill="black"/>
<path d="M33.4134 32.2002L31.8322 32.2434L33.1216 31.1672L32.5937 29.6774L34.015 30.5708L35.2688 29.6089L34.8576 31.2383L36.1622 32.1292L34.4845 32.2434L33.9794 33.9464L33.4134 32.2002Z" fill="#2D693B"/>
<path d="M32.652 29.6571L33.9794 30.6216L35.3042 29.6596L34.7966 31.218L36.1215 32.1799H34.4819L33.9743 33.7383L33.4692 32.1799H31.8296L33.1545 31.218L32.6469 29.6596M32.4058 29.3271L32.5276 29.6977L33.0048 31.1698L31.7535 32.0784L31.4362 32.3068H31.8271H33.3728L33.8499 33.7789L33.9718 34.1494L34.0936 33.7789L34.5707 32.3068H36.1189H36.5098L36.1926 32.0784L34.9413 31.1698L35.4184 29.6977L35.5403 29.3271L35.223 29.5556L33.9718 30.4642L32.7205 29.5556L32.4058 29.3271Z" fill="black"/>
<path opacity="0.2" d="M68.5273 12.6904H12.6903C8.48471 12.6904 5.07611 16.099 5.07611 20.3046V22.8426C5.07611 18.6371 8.48471 15.2285 12.6903 15.2285H68.5273C72.7328 15.2285 76.1414 18.6371 76.1414 22.8426V20.3046C76.1414 16.099 72.7328 12.6904 68.5273 12.6904Z" fill="white"/>
</svg>
