<svg width="82" height="82" viewBox="0 0 82 82" fill="none" xmlns="http://www.w3.org/2000/svg">
<path d="M68.5273 10.1523H12.6902C7.08331 10.1523 2.53802 14.6976 2.53802 20.3045V60.9133C2.53802 66.5202 7.08331 71.0655 12.6902 71.0655H68.5273C74.1342 71.0655 78.6794 66.5202 78.6794 60.9133V20.3045C78.6794 14.6976 74.1342 10.1523 68.5273 10.1523Z" fill="#C93927"/>
<path d="M6.17505 68.639L48.2229 40.6088L6.17505 12.5786C3.96948 14.4415 2.53802 17.1928 2.53802 20.3044V60.9132C2.53802 64.0274 3.96948 66.7786 6.17505 68.639Z" fill="#F7CB4F"/>
<path d="M5.76388 68.3013L38.0707 40.6086L5.76388 12.916C3.78928 14.7688 2.53802 17.383 2.53802 20.3043V60.913C2.53802 63.8343 3.78928 66.4485 5.76388 68.3013Z" fill="black"/>
<path d="M19.2105 40.5401L22.5455 34.8726L16.5176 37.497L12.1598 32.5757L12.7918 39.1188L6.76392 41.7431L13.1826 43.1644L13.8171 49.7075L17.1496 44.04L23.5709 45.4614L19.2105 40.5401Z" fill="white"/>
<path opacity="0.15" d="M68.5273 10.1523H12.6902C7.08367 10.1523 2.53802 14.698 2.53802 20.3045V60.9133C2.53802 66.5198 7.08367 71.0655 12.6902 71.0655H68.5273C74.1338 71.0655 78.6794 66.5198 78.6794 60.9133V20.3045C78.6794 14.698 74.1338 10.1523 68.5273 10.1523ZM76.1414 60.9133C76.1414 65.1112 72.7252 68.5274 68.5273 68.5274H12.6902C8.49228 68.5274 5.07607 65.1112 5.07607 60.9133V20.3045C5.07607 16.1066 8.49228 12.6904 12.6902 12.6904H68.5273C72.7252 12.6904 76.1414 16.1066 76.1414 20.3045V60.9133Z" fill="black"/>
<path opacity="0.2" d="M68.5273 12.6904H12.6902C8.48468 12.6904 5.07608 16.099 5.07608 20.3046V22.8426C5.07608 18.6371 8.48468 15.2285 12.6902 15.2285H68.5273C72.7328 15.2285 76.1414 18.6371 76.1414 22.8426V20.3046C76.1414 16.099 72.7328 12.6904 68.5273 12.6904Z" fill="white"/>
</svg>
