<svg width="82" height="82" viewBox="0 0 82 82" fill="none" xmlns="http://www.w3.org/2000/svg">
<path d="M2.53809 60.913C2.53809 66.5195 7.08373 71.0652 12.6903 71.0652H68.5273C74.1339 71.0652 78.6795 66.5195 78.6795 60.913V53.2988H2.53809V60.913Z" fill="#DA352E"/>
<path d="M2.53809 38.0708H78.6795V55.8371H2.53809V38.0708Z" fill="#1F4C9E"/>
<path d="M68.5273 10.1523H12.6903C7.08373 10.1523 2.53809 14.698 2.53809 20.3045V40.6089H78.6795V20.3045C78.6795 14.698 74.1339 10.1523 68.5273 10.1523Z" fill="#FADF4B"/>
<path opacity="0.15" d="M68.5273 10.1523H12.6903C7.08373 10.1523 2.53809 14.698 2.53809 20.3045V60.9133C2.53809 66.5198 7.08373 71.0655 12.6903 71.0655H68.5273C74.1339 71.0655 78.6795 66.5198 78.6795 60.9133V20.3045C78.6795 14.698 74.1339 10.1523 68.5273 10.1523ZM76.1415 60.9133C76.1415 65.1112 72.7252 68.5274 68.5273 68.5274H12.6903C8.49234 68.5274 5.07613 65.1112 5.07613 60.9133V20.3045C5.07613 16.1066 8.49234 12.6904 12.6903 12.6904H68.5273C72.7252 12.6904 76.1415 16.1066 76.1415 20.3045V60.9133Z" fill="black"/>
<path d="M30.5378 30.2787C30.5251 30.266 30.5124 30.2686 30.5074 30.2711C30.4769 30.2838 30.4134 30.3092 30.3804 32.1848C30.3627 33.2279 30.3551 34.7076 30.3627 36.4665V36.4741L33.0555 39.1924L34.0479 40.1949L34.5124 39.0502L34.5987 38.3624L35.5606 35.4411V35.431C35.5606 35.431 31.1038 30.8625 30.5378 30.2787Z" fill="#FADF4B"/>
<path d="M34.0936 40.421L30.2383 36.5251V36.4718C30.2307 34.7154 30.2383 33.2332 30.2561 32.1799C30.2891 30.2206 30.3424 30.1977 30.4616 30.152L30.5403 30.1216L30.6317 30.1901C31.1951 30.7713 35.657 35.3423 35.657 35.3423L35.7078 35.3931L35.69 35.4616L34.723 38.4007L34.6342 39.0987L34.0961 40.421H34.0936ZM33.1824 39.1418L34.0048 39.9717L34.3905 39.02L34.4743 38.3474L35.4235 35.4667C34.9464 34.9794 31.4337 31.3805 30.5759 30.4998C30.5555 30.7053 30.5276 31.1622 30.5099 32.1876C30.4921 33.2282 30.487 34.6926 30.4921 36.421L33.185 39.1393L33.1824 39.1418Z" fill="black"/>
<path d="M30.1241 51.842L29.8221 51.4766L28.015 53.1999L28.0099 53.205L27.9997 53.3623L28.015 53.375V53.3801C27.9871 53.3953 27.7637 53.5045 27.5251 53.5222H27.5124L27.5099 53.5349C27.5099 53.5425 27.2713 54.2836 26.9998 54.5095L27.0201 54.5375C27.3525 54.3116 27.8805 54.1136 28.0023 54.1009H28.0175V54.0831C28.0251 53.8877 28.0581 53.639 28.1825 53.5628L28.2104 53.5578H28.3348L30.1139 51.8522L30.1241 51.842Z" fill="#B4BBC0"/>
<path d="M31.0404 56.3752L31.0353 56.3803L31.0251 56.5376L31.0404 56.5528C31.0404 56.5528 31.0404 56.5579 31.0378 56.5579C31.0099 56.5706 30.7942 56.6797 30.5581 56.6975C30.5581 56.6975 30.5531 56.6975 30.5505 56.6975H30.5378L30.5353 56.7102C30.5353 56.7178 30.2967 57.4589 30.0251 57.6848L30.0455 57.7127C30.3779 57.4868 30.9058 57.2889 31.0277 57.2762H31.0429V57.2584C31.048 57.063 31.0835 56.8143 31.2079 56.7381L31.2383 56.7305H31.3602L34.6545 53.53L34.3525 53.1646L31.0404 56.3752Z" fill="#B4BBC0"/>
<path d="M30.4691 29.0046C30.4615 28.9919 30.4463 28.9767 30.4285 28.9589L30.4006 28.9361L30.4057 28.9716C30.4488 29.2356 30.4184 29.4945 30.3194 29.7203C30.2864 29.7914 30.2483 29.8599 30.2027 29.9234L30.195 29.9183L30.1823 29.9107C30.1773 29.898 30.0377 29.596 30.0225 29.2737V29.266L30.0148 29.2635C30.0072 29.261 29.1265 28.9437 28.8626 28.5884L28.8397 28.6036C29.091 29.0122 29.327 29.6975 29.3423 29.8777V29.8879H29.3549C29.5884 29.9005 29.8879 29.9488 29.9768 30.1163L29.9818 30.1442H29.9869C29.6824 30.3777 29.2763 30.4234 28.8956 30.266L28.8829 30.2889L28.8905 30.2939C28.8905 30.2939 28.8981 30.299 28.9032 30.3041C28.9362 30.3269 28.9717 30.3472 29.0072 30.3701C29.2407 30.5046 29.492 30.5757 29.728 30.5757C29.8448 30.5757 29.959 30.5579 30.0656 30.5224C30.3042 30.4437 30.492 30.2787 30.5884 30.0579C30.7255 29.7508 30.6798 29.3574 30.4691 29.0046Z" fill="#B4BBC0"/>
<path d="M28.3626 34.2942C28.3753 34.2308 28.3626 34.1775 28.3297 34.1419C28.3043 34.1165 28.2687 34.1039 28.2256 34.1039C28.2078 34.1039 28.1901 34.1064 28.1698 34.1115C28.2053 34.0658 28.2231 34.0328 28.2231 34.015L28.2078 33.9744C28.3601 33.8018 28.6063 33.4998 28.5885 33.3424C28.5835 33.3094 28.5708 33.2866 28.5454 33.2688C28.4109 33.18 28.0352 33.4795 27.8753 33.6191L27.8144 33.5937C27.7967 33.5937 27.7687 33.6115 27.7281 33.6445C27.6545 33.4922 27.4997 33.1292 27.4642 32.7333V32.7257L27.454 32.7232C27.4413 32.7181 26.0683 32.2993 25.6393 31.7739L25.619 31.7892C26.0302 32.3957 26.4413 33.4287 26.4769 33.7003V33.7105H26.4896L26.4946 33.7155L26.4997 33.7105C26.8246 33.7105 27.2459 33.7587 27.4261 33.9668C27.4083 33.9922 27.388 34.0252 27.388 34.0429C27.383 34.0734 27.3906 34.1089 27.4083 34.1521C27.355 34.2054 27.1926 34.3551 26.987 34.3907C26.7358 34.4363 26.4997 34.1546 26.4972 34.1521V34.147H26.4743V34.1572C26.4413 34.2561 26.4261 34.3602 26.4261 34.4668C26.4261 35.0201 26.855 35.4719 27.383 35.4719C27.5124 35.4719 27.6393 35.4465 27.7561 35.3932L27.7738 35.3856L27.7484 35.3602C27.7484 35.3602 27.5073 35.2155 27.4845 34.9287C27.4693 34.7333 27.6012 34.5531 27.685 34.4566C27.7078 34.4744 27.751 34.4998 27.7764 34.4998H27.7814L27.8195 34.4769C27.8043 34.5429 27.8144 34.6013 27.85 34.6394C27.883 34.6724 27.9363 34.6851 27.9972 34.6724C28.0175 34.7688 28.0708 34.8627 28.1444 34.9389C28.2434 35.0404 28.3703 35.0962 28.4896 35.0962C28.5733 35.0962 28.6469 35.0658 28.7002 35.0099C28.8322 34.8729 28.7992 34.6165 28.6241 34.4414C28.5505 34.3653 28.4566 34.3145 28.3626 34.2942Z" fill="#B4BBC0"/>
<path d="M45.3092 53.5859C45.266 53.091 43.5884 50.8144 43.5173 50.7179L43.5122 50.7129H43.5046C43.5046 50.7129 42.4945 50.5834 41.959 50.5682C41.7635 50.5631 41.6798 50.5733 41.6442 50.586C41.6239 50.4261 41.6036 50.2814 41.5859 50.1596V50.1367C41.5503 49.8753 41.5224 49.718 41.5224 49.718L41.5173 49.6875L40.6341 50.3626L39.7509 49.6875L39.7458 49.718C39.7458 49.718 39.7229 49.8753 39.6849 50.1367L39.6823 50.1596C39.6646 50.2814 39.6443 50.4261 39.624 50.586C39.5859 50.5733 39.5047 50.5631 39.3092 50.5682C38.7737 50.5834 37.7737 50.7103 37.7636 50.7129H37.756L37.7509 50.7205C37.6798 50.8169 35.9996 53.0936 35.959 53.5885C35.9362 53.8626 35.9311 54.0859 36.0834 54.2281C36.19 54.3296 36.3651 54.3778 36.6214 54.3778C36.756 54.3778 36.9133 54.3651 37.0935 54.3372C37.0986 54.3372 37.5859 54.2433 38.0224 54.2001C37.9082 54.723 37.7813 55.4489 37.7331 55.7128C37.723 55.7509 37.7153 55.7839 37.7153 55.8169C37.7128 55.8753 37.7306 55.9235 37.7661 55.959C37.8194 56.0123 37.9158 56.0402 38.058 56.0402C38.0834 56.0402 38.1113 56.0402 38.1417 56.0377C38.5884 56.0098 38.9031 55.9311 39.1341 55.8727H39.1443C39.129 56.2255 39.1113 56.6646 39.0859 56.9692C39.0859 56.9692 39.0859 56.9742 39.0859 56.9768C39.0834 57.0174 39.0783 57.0529 39.0757 57.091C39.0757 57.1062 39.0783 57.1214 39.0834 57.1367C39.1316 57.3549 39.3854 57.4412 39.5833 57.4412C39.6113 57.4412 39.6366 57.4412 39.6595 57.4362C39.992 57.393 40.5884 57.0098 40.6316 56.9818C40.6747 57.0098 41.2737 57.3955 41.6036 57.4362C41.6265 57.4387 41.6544 57.4412 41.6798 57.4412C41.8777 57.4412 42.1315 57.3549 42.1798 57.1367C42.1823 57.1214 42.1848 57.1062 42.1874 57.0884C42.1848 57.0529 42.1798 57.0174 42.1772 56.9742C42.1772 56.9742 42.1772 56.9692 42.1772 56.9666C42.1518 56.657 42.1315 56.1976 42.1189 55.8702H42.129C42.36 55.9311 42.6747 56.0123 43.1214 56.0377C43.1518 56.0377 43.1772 56.0402 43.2051 56.0402C43.3473 56.0402 43.4437 56.0149 43.497 55.959C43.5325 55.9235 43.5503 55.8753 43.5478 55.8169C43.5478 55.7864 43.5402 55.7509 43.53 55.7154C43.4843 55.4514 43.3549 54.7255 43.2407 54.2027C43.6772 54.2433 44.1645 54.3372 44.1721 54.3397C44.3523 54.3677 44.5097 54.3804 44.6442 54.3804C44.9006 54.3804 45.0757 54.3321 45.1823 54.2306C45.3346 54.0859 45.3295 53.8651 45.3066 53.591L45.3092 53.5859Z" fill="#FADF4B"/>
<path d="M41.6824 57.5629C41.6494 57.5629 41.6215 57.5629 41.591 57.5603C41.2864 57.5197 40.8093 57.2405 40.6316 57.1289C40.454 57.2405 39.9768 57.5223 39.6748 57.5603C39.3905 57.5883 39.0301 57.474 38.9591 57.1619C38.954 57.1441 38.9514 57.1212 38.9514 57.1009L38.9641 56.936C38.9844 56.6771 39.0022 56.3268 39.0124 56.0324C38.789 56.0857 38.5124 56.1416 38.1494 56.1644C37.9032 56.1746 37.7687 56.139 37.6773 56.0502C37.6164 55.9944 37.5834 55.9081 37.5885 55.8167C37.5885 55.7786 37.5961 55.7329 37.6114 55.6822C37.6596 55.4106 37.7611 54.8319 37.8626 54.3497C37.4845 54.3954 37.119 54.4639 37.119 54.4639C36.52 54.5553 36.1901 54.5071 35.9946 54.3243C35.7992 54.1416 35.8043 53.8776 35.8322 53.5807C35.8804 53.035 37.5784 50.7457 37.6494 50.6492L37.6799 50.6086L37.7357 50.5934C37.8525 50.5782 38.7865 50.4614 39.3068 50.4487C39.3981 50.4462 39.4667 50.4487 39.5174 50.4487C39.5327 50.3396 39.5453 50.2381 39.5606 50.1492C39.6012 49.8624 39.624 49.7051 39.624 49.7051L39.6291 49.6721L39.6646 49.4665L40.6367 50.2101L41.6189 49.4614L41.6469 49.6797C41.6469 49.7051 41.6722 49.8624 41.7103 50.1264C41.7255 50.233 41.7408 50.3371 41.756 50.4487C41.8093 50.4487 41.8778 50.4487 41.9666 50.4487C42.4869 50.4614 43.4184 50.5782 43.5225 50.5909L43.5732 50.5985L43.6138 50.6391C43.6925 50.7457 45.3905 53.035 45.4387 53.5807C45.4641 53.8802 45.4692 54.1416 45.2763 54.3243C45.0808 54.5096 44.7357 54.5527 44.1595 54.4665C44.1519 54.4665 43.7864 54.3954 43.4083 54.3522C43.5098 54.8421 43.6164 55.4385 43.6595 55.6796C43.6748 55.7304 43.6824 55.7786 43.6824 55.8218C43.6874 55.9157 43.6544 55.9969 43.591 56.0578C43.5047 56.1441 43.3499 56.1695 43.124 56.1695C42.756 56.1466 42.4768 56.0908 42.2585 56.0375C42.2737 56.4182 42.289 56.7253 42.3067 56.936L42.3194 57.0832C42.3194 57.1289 42.3169 57.1492 42.3093 57.172C42.2484 57.4461 41.9514 57.5705 41.6875 57.5705L41.6824 57.5629ZM40.6316 56.8243L40.7002 56.87C40.8677 56.9791 41.3601 57.2735 41.6189 57.3065C41.7281 57.3268 42.0149 57.2811 42.0555 57.106L42.0479 56.974C42.0276 56.7279 42.0073 56.3573 41.992 55.8725L41.9869 55.7076L42.1469 55.7431C42.393 55.804 42.7001 55.8827 43.1316 55.9081C43.157 55.9081 43.1824 55.9081 43.2078 55.9081C43.355 55.9081 43.3981 55.8751 43.4083 55.8649C43.4159 55.8598 43.4235 55.8497 43.4235 55.8192C43.4235 55.7939 43.4184 55.771 43.4108 55.7482L43.4057 55.7152C43.3575 55.4461 43.2306 54.7355 43.1215 54.2253L43.0834 54.0553L43.256 54.0705C43.6976 54.1137 44.1951 54.2076 44.2001 54.2076C44.657 54.271 44.9692 54.2507 45.0986 54.1289C45.2001 54.0324 45.2052 53.8725 45.1824 53.5934C45.1519 53.2355 44.0148 51.601 43.4413 50.8269C43.2306 50.8015 42.4133 50.7051 41.954 50.6898C41.7458 50.6873 41.6951 50.6975 41.6875 50.7L41.5403 50.7533L41.5199 50.5985C41.4971 50.4386 41.4768 50.2939 41.4616 50.1721C41.4489 50.0706 41.4362 49.9843 41.426 49.9157L40.6367 50.5198L39.8474 49.9157C39.8372 49.9792 39.8271 50.0604 39.8118 50.1492C39.7915 50.2964 39.7712 50.4386 39.7535 50.5985L39.7332 50.7558L39.586 50.7025C39.586 50.7025 39.5327 50.6873 39.3169 50.6924C38.855 50.7051 38.0352 50.8041 37.8296 50.8294C37.2535 51.6061 36.1215 53.238 36.0885 53.5959C36.0657 53.8751 36.0708 54.0375 36.1723 54.1314C36.3043 54.2533 36.5987 54.2786 37.0784 54.2076C37.0784 54.2076 37.5631 54.1137 38.0149 54.0705L38.1875 54.0553L38.1494 54.2253C38.0403 54.7304 37.9185 55.4157 37.8677 55.7076L37.8601 55.7482C37.8525 55.7761 37.8474 55.7989 37.8474 55.8167C37.8474 55.8522 37.855 55.8624 37.8601 55.8649C37.8753 55.8801 37.921 55.9106 38.0631 55.9106C38.0885 55.9106 38.1139 55.9106 38.1418 55.9106C38.5682 55.8852 38.8778 55.8065 39.1012 55.7507L39.2662 55.7076L39.2763 55.8725C39.2636 56.1999 39.2433 56.6593 39.2205 56.9766L39.2078 57.1009C39.2509 57.2837 39.5225 57.3243 39.6494 57.3091C39.9083 57.2761 40.3981 56.9842 40.5656 56.8725L40.6342 56.8268L40.6316 56.8243ZM42.0504 56.9715C42.0504 56.9715 42.0504 56.9842 42.0504 56.9893V56.9715Z" fill="black"/>
<path d="M54.1772 25.9695C51.5071 24.67 45.0808 21.0152 43.2001 24.2487C42.0529 25.5431 39.9793 24.3781 38.6138 25.2664C36.8626 21.9543 33.1114 22.566 29.5353 24.401C26.7865 26.0812 25.4515 26.1294 28.3982 26.0228C28.0581 26.4796 29.2002 26.1268 29.7662 26.0253C29.3601 26.5608 30.3322 26.3578 31.1215 26.1192C30.4363 26.769 31.85 26.5355 32.3119 26.3045C31.6571 26.8959 32.5682 26.6294 33.1494 26.4517C32.4565 27.203 33.4032 27.1877 34.1672 26.6395C33.4971 27.4009 34.2611 27.34 34.8601 27.0634C34.2586 27.7766 34.9337 27.8629 35.5327 27.5253C35.053 28.1395 35.5327 28.3349 36.0885 28.0862C35.7865 28.7486 36.3931 28.736 36.7535 28.3349C36.7002 29.307 37.1291 28.8603 37.5047 28.3349C37.355 29.0354 37.7103 29.4618 38.1646 28.7512C38.19 29.1167 38.0529 29.4136 38.3727 29.3603C37.8474 30.0938 35.9337 33.8222 37.0377 32.7968C37.3575 32.7664 37.6519 32.4136 38.1316 32.043C38.0606 32.2791 38.2179 32.1496 38.3448 32.0557C38.1139 33.3603 39.1595 31.0202 38.9793 32.0913C38.9286 32.2131 38.921 32.4314 39.1189 32.5303C39.0605 32.2537 39.5149 32.0202 39.6037 31.6649C39.6621 32.1496 39.8651 31.2512 40.3042 31.7537C40.3245 31.7359 40.4286 31.7537 40.393 31.7105C40.4742 31.6928 40.4945 31.8273 40.5199 31.9009C40.6316 31.7918 40.5783 31.576 40.5453 31.4948C39.6011 30.0786 42.8905 29.142 40.6341 31.7512C41.8981 30.6623 41.2788 33.1369 41.7864 32.1877C41.926 32.2892 41.7661 31.6522 41.7382 31.5456C42.162 31.6877 42.3295 31.8374 42.4844 32.1192C42.9158 31.406 41.4285 31.3197 41.7534 30.4238L41.7737 30.4821L41.7788 30.472C42.0021 30.9237 42.3499 29.7004 42.2915 29.7131C42.3118 29.7359 42.3473 29.8019 42.3651 29.8425C42.4133 29.7131 42.596 29.4136 42.6214 29.1649L42.6392 29.175C42.6417 29.1167 42.6468 29.0228 42.6519 28.8324C42.9945 29.4136 43.4184 29.2461 43.3092 28.5659C43.728 29.0913 44.1519 29.1801 44.0377 28.4238C44.4463 28.8959 44.992 28.8857 44.7305 28.2258C45.2711 28.4948 45.7635 28.3197 45.3041 27.6852C45.9082 28.0558 46.5732 27.9745 45.9742 27.2385C46.6087 27.5608 47.3346 27.6446 46.6975 26.8553C47.4209 27.4212 48.3803 27.4923 47.7407 26.7563C48.2026 26.8806 49.0884 27.17 48.6747 26.7157C49.0884 26.8933 50.4615 27.0177 49.7356 26.4441C50.4285 26.7055 51.4386 26.9162 50.9208 26.3578C51.7685 26.6471 52.6721 26.774 51.667 26.0786C52.4589 26.4974 53.7939 26.6751 52.563 26.0329C53.4284 26.3883 53.7787 26.1548 52.8523 25.7411C53.5249 25.9365 54.4843 26.2969 54.1695 25.9695H54.1772Z" fill="#3F2921"/>
<path d="M50.7304 30.2787C50.7431 30.266 50.7558 30.2686 50.7609 30.2711C50.7913 30.2838 50.8548 30.3092 50.8878 32.1848C50.9056 33.2279 50.9132 34.7076 50.9056 36.4665V36.4741L48.2127 39.1924L47.2203 40.1949L46.7559 39.0502L46.6696 38.3624L45.7076 35.4411V35.431C45.7076 35.431 50.1645 30.8625 50.7304 30.2787Z" fill="#FADF4B"/>
<path d="M47.1721 40.4208L46.6289 39.068L46.5401 38.3802L45.5604 35.4107L45.6112 35.3447C45.6112 35.3447 50.0731 30.7762 50.6365 30.1924C50.6822 30.1391 50.7533 30.1315 50.8142 30.1594C50.9182 30.2026 50.9741 30.2254 51.0096 32.1848C51.0299 33.2381 51.035 34.7203 51.0274 36.469V36.5223L50.9918 36.568L47.1695 40.4258L47.1721 40.4208ZM46.8777 39.0198L47.2635 39.9715L50.7761 36.4233C50.7812 34.6873 50.7761 33.2279 50.7583 32.1899C50.7406 31.1645 50.7127 30.7077 50.6898 30.5021C49.8345 31.3802 46.3218 34.9792 45.8447 35.469L46.7863 38.3269L46.8777 39.0223V39.0198Z" fill="black"/>
<path d="M51.1443 51.842L51.4463 51.4766L53.2534 53.1999L53.2585 53.205L53.2686 53.3623L53.2534 53.375V53.3801C53.2813 53.3953 53.5046 53.5045 53.7432 53.5222H53.7559L53.7585 53.5349C53.7585 53.5425 53.997 54.2836 54.2686 54.5095L54.2483 54.5375C53.9158 54.3116 53.3879 54.1136 53.2661 54.1009H53.2508V54.0831C53.2432 53.8877 53.2102 53.639 53.0859 53.5628L53.058 53.5578H52.9336L51.1544 51.8522L51.1443 51.842Z" fill="#B4BBC0"/>
<path d="M50.2254 56.3752L50.2305 56.3803L50.2406 56.5376L50.2254 56.5528C50.2254 56.5528 50.2254 56.5579 50.2279 56.5579C50.2558 56.5706 50.4716 56.6797 50.7076 56.6975C50.7076 56.6975 50.7127 56.6975 50.7152 56.6975H50.7279L50.7305 56.7102C50.7305 56.7178 50.969 57.4589 51.2406 57.6848L51.2203 57.7127C50.8878 57.4868 50.3599 57.2889 50.2381 57.2762H50.2228V57.2584C50.2178 57.063 50.1822 56.8143 50.0579 56.7381L50.0274 56.7305H49.9056L46.6112 53.53L46.9132 53.1646L50.2254 56.3752Z" fill="#B4BBC0"/>
<path d="M50.799 29.0046C50.8066 28.9919 50.8219 28.9767 50.8396 28.9589L50.8676 28.9361L50.8625 28.9716C50.8193 29.2356 50.8498 29.4945 50.9488 29.7203C50.9818 29.7914 51.0198 29.8599 51.0655 29.9234L51.0731 29.9183L51.0858 29.9107C51.0909 29.898 51.2305 29.596 51.2457 29.2737V29.266L51.2533 29.2635C51.261 29.261 52.1417 28.9437 52.4056 28.5884L52.4285 28.6036C52.1772 29.0122 51.9411 29.6975 51.9259 29.8777V29.8879H51.9132C51.6797 29.9005 51.3802 29.9488 51.2914 30.1163L51.2863 30.1442H51.2813C51.5858 30.3777 51.9919 30.4234 52.3726 30.266L52.3853 30.2889L52.3777 30.2939C52.3777 30.2939 52.3701 30.299 52.365 30.3041C52.332 30.3269 52.2965 30.3472 52.2609 30.3701C52.0274 30.5046 51.7762 30.5757 51.5401 30.5757C51.4234 30.5757 51.3092 30.5579 51.2026 30.5224C50.964 30.4437 50.7762 30.2787 50.6797 30.0579C50.5427 29.7508 50.5884 29.3574 50.799 29.0046Z" fill="#B4BBC0"/>
<path d="M52.9056 34.2942C52.8929 34.2308 52.9056 34.1775 52.9386 34.1419C52.964 34.1165 52.9995 34.1039 53.0426 34.1039C53.0604 34.1039 53.0782 34.1064 53.0985 34.1115C53.0629 34.0658 53.0452 34.0328 53.0452 34.015L53.0604 33.9744C52.9081 33.8018 52.6619 33.4998 52.6797 33.3424C52.6848 33.3094 52.6975 33.2866 52.7228 33.2688C52.8574 33.18 53.233 33.4795 53.3929 33.6191L53.4538 33.5937C53.4716 33.5937 53.4995 33.6115 53.5401 33.6445C53.6137 33.4922 53.7685 33.1292 53.804 32.7333V32.7257L53.8142 32.7232C53.8269 32.7181 55.2 32.2993 55.6289 31.7739L55.6492 31.7892C55.238 32.3957 54.8269 33.4287 54.7913 33.7003V33.7105H54.7787L54.7736 33.7155L54.7685 33.7105C54.4436 33.7105 54.0223 33.7587 53.8421 33.9668C53.8599 33.9922 53.8802 34.0252 53.8802 34.0429C53.8853 34.0734 53.8777 34.1089 53.8599 34.1521C53.9132 34.2054 54.0756 34.3551 54.2812 34.3907C54.5325 34.4363 54.7685 34.1546 54.771 34.1521V34.147H54.7939V34.1572C54.8269 34.2561 54.8421 34.3602 54.8421 34.4668C54.8421 35.0201 54.4132 35.4719 53.8853 35.4719C53.7558 35.4719 53.6289 35.4465 53.5122 35.3932L53.4944 35.3856L53.5198 35.3602C53.5198 35.3602 53.7609 35.2155 53.7837 34.9287C53.799 34.7333 53.667 34.5531 53.5832 34.4566C53.5604 34.4744 53.5172 34.4998 53.4919 34.4998H53.4868L53.4487 34.4769C53.4639 34.5429 53.4538 34.6013 53.4183 34.6394C53.3853 34.6724 53.332 34.6851 53.2711 34.6724C53.2508 34.7688 53.1975 34.8627 53.1238 34.9389C53.0249 35.0404 52.898 35.0962 52.7787 35.0962C52.6949 35.0962 52.6213 35.0658 52.568 35.0099C52.436 34.8729 52.469 34.6165 52.6442 34.4414C52.7178 34.3653 52.8117 34.3145 52.9056 34.2942Z" fill="#B4BBC0"/>
<path opacity="0.2" d="M68.5274 12.6904H12.6903C8.48477 12.6904 5.07617 16.099 5.07617 20.3046V22.8426C5.07617 18.6371 8.48477 15.2285 12.6903 15.2285H68.5274C72.7329 15.2285 76.1415 18.6371 76.1415 22.8426V20.3046C76.1415 16.099 72.7329 12.6904 68.5274 12.6904Z" fill="white"/>
<path d="M41.0072 50.1567C40.7813 50.1567 40.5503 50.1415 40.3219 50.1136H40.3168H40.3117C40.3549 50.1136 40.2787 50.106 40.2787 50.106L40.2356 50.1009C38.5681 49.8572 37.1062 48.9486 36.0072 47.474C34.9209 46.0146 34.2382 44.0654 34.0326 41.8421C34.0123 41.634 33.9996 40.9081 33.9996 40.1111V40.1035L33.9945 40.0985C33.8169 39.9183 29.4844 35.5198 28.7205 34.7279C28.7078 34.7153 28.6951 34.7178 28.69 34.7203C28.5428 34.7812 28.5606 38.2102 28.6012 43.4335C28.6139 45.0426 28.6266 46.5629 28.6266 47.6923C28.6266 48.3446 28.756 49.4156 29.1164 50.4715C29.322 51.073 29.5834 51.6085 29.8905 52.0603C30.2509 52.5907 30.6798 53.012 31.1621 53.3115C31.7661 53.6872 32.4565 53.875 33.2306 53.875C34.228 53.875 35.36 53.5628 36.6163 52.9384C36.6239 52.9359 37.4793 52.6212 38.4437 52.1263C39.3346 51.6694 40.5046 50.9613 41.0198 50.1821L41.0376 50.1542H41.0046L41.0072 50.1567Z" fill="#FADF4B"/>
<path d="M33.2306 54.0046C32.4362 54.0046 31.7179 53.8092 31.0961 53.4234C30.5987 53.1138 30.157 52.6823 29.7865 52.1341C29.4718 51.6722 29.2078 51.1265 28.9972 50.5148C28.6291 49.4438 28.4997 48.3549 28.4997 47.695C28.4997 46.6443 28.4895 45.2534 28.4769 43.7661V43.4362C28.4058 35.0759 28.454 34.6799 28.6393 34.6038L28.7205 34.5708L28.8119 34.6444C29.4159 35.2713 32.289 38.1875 33.5149 39.4337L34.1189 40.0479L34.124 40.1037C34.124 40.8829 34.1392 41.6215 34.157 41.8322C34.36 44.0326 35.0352 45.959 36.1062 47.4006C37.1849 48.8499 38.6164 49.7407 40.2509 49.9793L40.294 49.9844C40.294 49.9844 40.3118 49.9844 40.3245 49.9869C40.563 50.0174 40.7864 50.0326 41.0072 50.0326H41.2711L41.129 50.2534C40.596 51.0605 39.4082 51.7813 38.5047 52.2432C37.5174 52.7508 36.6595 53.063 36.6544 53.0656C35.4057 53.6874 34.2458 54.0072 33.2332 54.0072L33.2306 54.0046ZM28.7611 34.9566C28.6647 35.8601 28.7002 40.0301 28.7281 43.4337V43.7636C28.7433 45.2509 28.7535 46.6418 28.7535 47.695C28.7535 48.3372 28.8804 49.393 29.2383 50.4336C29.4413 51.025 29.6977 51.5478 29.9971 51.9945C30.3474 52.5123 30.7611 52.9209 31.2281 53.2102C32.5733 54.0427 34.3778 53.9107 36.5605 52.8321C36.5834 52.8244 37.4311 52.5123 38.3854 52.0199C39.1976 51.6036 40.2458 50.9767 40.794 50.2839C40.6443 50.2788 40.497 50.2661 40.3498 50.2483L39.9057 50.1798C38.3321 49.8701 36.9539 48.9666 35.9032 47.5554C34.8042 46.0758 34.1113 44.1088 33.9032 41.8575C33.8854 41.6469 33.8702 40.921 33.8702 40.1596L33.3347 39.6164C32.1824 38.4464 29.5733 35.7967 28.7611 34.9617V34.9566Z" fill="black"/>
<path d="M40.261 50.1567C40.4869 50.1567 40.7179 50.1415 40.9463 50.1136H40.9514H40.9565C40.9133 50.1136 40.9895 50.106 40.9895 50.106L41.0326 50.1009C42.7001 49.8572 44.162 48.9486 45.261 47.474C46.3473 46.0146 47.03 44.0654 47.2356 41.8421C47.2559 41.634 47.2686 40.9081 47.2686 40.1111V40.1035L47.2737 40.0985C47.4513 39.9183 51.7838 35.5198 52.5477 34.7279C52.5604 34.7153 52.5731 34.7178 52.5782 34.7203C52.7254 34.7812 52.7076 38.2102 52.667 43.4335C52.6543 45.0426 52.6416 46.5629 52.6416 47.6923C52.6416 48.3446 52.5122 49.4156 52.1518 50.4715C51.9462 51.073 51.6848 51.6085 51.3777 52.0603C51.0173 52.5907 50.5884 53.012 50.1061 53.3115C49.5021 53.6872 48.8117 53.875 48.0376 53.875C47.0402 53.875 45.9082 53.5628 44.6519 52.9384C44.6443 52.9359 43.7889 52.6212 42.8245 52.1263C41.9336 51.6694 40.7636 50.9613 40.2484 50.1821L40.2306 50.1542H40.2636L40.261 50.1567Z" fill="#FADF4B"/>
<path d="M48.0376 54.0047C47.0249 54.0047 45.865 53.6875 44.596 53.0555C44.596 53.0555 43.7432 52.7433 42.7661 52.2408C41.8625 51.7789 40.6747 51.0581 40.1417 50.2535L39.9971 50.0301H40.261C40.4844 50.0301 40.7077 50.0149 40.9285 49.9845H40.9412C40.9539 49.9845 40.9641 49.9819 40.9742 49.9794L41.0174 49.9743C42.6493 49.7357 44.0833 48.8449 45.1595 47.3957C46.2305 45.9515 46.9056 44.0251 47.1087 41.8272C47.1264 41.6292 47.1417 40.9236 47.1442 40.1064V40.0531L47.1823 40.0074L47.7533 39.4262C48.9792 38.18 51.8523 35.2638 52.4589 34.6344L52.5122 34.5811L52.6137 34.5912C52.8142 34.6724 52.865 35.0658 52.7964 43.4287V43.7586C52.7838 45.2434 52.7711 46.6368 52.7711 47.6875C52.7711 48.35 52.6416 49.4388 52.2736 50.5073C52.0629 51.119 51.799 51.6647 51.4843 52.1266C51.1137 52.6748 50.6721 53.1088 50.1746 53.4159C49.5528 53.8017 48.8346 53.9971 48.0401 53.9971L48.0376 54.0047ZM40.4742 50.2814C41.0224 50.9743 42.0707 51.6012 42.8828 52.0174C43.8346 52.5073 44.6848 52.8195 44.6925 52.822C46.9006 53.9134 48.6975 54.0377 50.0376 53.2078C50.5046 52.9184 50.9208 52.5098 51.2711 51.9921C51.5731 51.5454 51.8294 51.0225 52.03 50.4312C52.3878 49.3906 52.5147 48.3347 52.5147 47.6926C52.5147 46.6393 52.5249 45.2485 52.5376 43.7612V43.4312C52.568 39.8526 52.601 35.8374 52.5071 34.9541C51.6899 35.7942 49.0833 38.4389 47.9335 39.6089L47.398 40.1521C47.398 40.9719 47.3828 41.647 47.3625 41.85C47.1544 44.0962 46.464 46.0657 45.365 47.5454C44.3143 48.9591 42.9361 49.8601 41.3625 50.1697L40.9108 50.2408C40.7686 50.2586 40.624 50.2687 40.4742 50.2763V50.2814ZM52.6442 34.8171H52.6416H52.6442Z" fill="black"/>
<path d="M40.6087 50.1162C44.2841 50.1162 47.2635 45.9913 47.2635 40.9031C47.2635 35.8148 44.2841 31.6899 40.6087 31.6899C36.9334 31.6899 33.954 35.8148 33.954 40.9031C33.954 45.9913 36.9334 50.1162 40.6087 50.1162Z" fill="#B4BBC0"/>
<path d="M40.6088 50.243C36.8677 50.243 33.8271 46.0552 33.8271 40.903C33.8271 35.7508 36.8703 31.563 40.6088 31.563C44.3474 31.563 47.3905 35.7533 47.3905 40.903C47.3905 46.0527 44.3474 50.243 40.6088 50.243ZM40.6088 31.8168C37.0099 31.8168 34.0784 35.8929 34.0784 40.9055C34.0784 45.9182 37.0073 49.9917 40.6088 49.9917C44.2103 49.9917 47.1392 45.9156 47.1392 40.9055C47.1392 35.8954 44.2103 31.8168 40.6088 31.8168Z" fill="black"/>
<path d="M40.6088 32.8345C37.619 32.8345 35.0962 36.5299 35.0962 40.9055C35.0962 45.2811 37.6215 48.9765 40.6088 48.9765C43.5961 48.9765 46.1215 45.2811 46.1215 40.9055C46.1215 36.5299 43.5961 32.8345 40.6088 32.8345Z" fill="#7BC1DD"/>
<path d="M40.6088 49.1013C37.5504 49.1013 34.9692 45.3475 34.9692 40.9059C34.9692 36.4643 37.553 32.708 40.6088 32.708C43.6646 32.708 46.2483 36.4618 46.2483 40.9059C46.2483 45.35 43.6646 49.1013 40.6088 49.1013ZM40.6088 32.9593C37.69 32.9593 35.2205 36.5988 35.2205 40.9034C35.2205 45.2079 37.6875 48.8475 40.6088 48.8475C43.5301 48.8475 45.9971 45.2079 45.9971 40.9034C45.9971 36.5988 43.5301 32.9593 40.6088 32.9593Z" fill="black"/>
</svg>
