<svg width="82" height="82" viewBox="0 0 82 82" fill="none" xmlns="http://www.w3.org/2000/svg">
<path d="M2.53809 27.9185H78.6795V53.2989H2.53809V27.9185Z" fill="white"/>
<path d="M12.6903 10.1523H68.5273C74.1313 10.1523 78.6795 14.7005 78.6795 20.3045V30.4567H2.53809V20.3045C2.53809 14.7005 7.08627 10.1523 12.6903 10.1523Z" fill="#BE2A2C"/>
<path d="M68.5273 71.0654L12.6902 71.0654C7.0862 71.0654 2.53802 66.5172 2.53802 60.9132V50.7611L78.6794 50.7611V60.9132C78.6794 66.5172 74.1313 71.0654 68.5273 71.0654Z" fill="black"/>
<path opacity="0.15" d="M68.5273 10.1523H12.6903C7.08373 10.1523 2.53809 14.698 2.53809 20.3045V60.9133C2.53809 66.5198 7.08373 71.0655 12.6903 71.0655H68.5273C74.1339 71.0655 78.6795 66.5198 78.6795 60.9133V20.3045C78.6795 14.698 74.1339 10.1523 68.5273 10.1523ZM76.1415 60.9133C76.1415 65.1112 72.7252 68.5274 68.5273 68.5274H12.6903C8.49234 68.5274 5.07613 65.1112 5.07613 60.9133V20.3045C5.07613 16.1066 8.49234 12.6904 12.6903 12.6904H68.5273C72.7252 12.6904 76.1415 16.1066 76.1415 20.3045V60.9133Z" fill="black"/>
<path fill-rule="evenodd" clip-rule="evenodd" d="M46.9539 46.6164C46.8625 44.3778 46.6037 38.3601 46.5072 36.0429C46.1773 33.3932 43.6367 36.1495 42.1875 35.9109C41.4032 34.7967 42.2941 31.1165 40.1088 32.0962C39.6037 31.9972 39.119 31.8526 38.9921 32.284C38.9337 32.4846 38.9438 32.7358 39.0301 32.6648C39.4007 32.3602 39.8118 32.7942 39.8728 33.1648C40.0301 33.8906 39.492 35.3373 39.0047 35.9109C37.5657 36.1317 35.0352 33.4033 34.7104 36.0429L34.2637 46.6164L37.69 43.553L36.9565 46.1545C36.7027 46.1113 36.4692 45.921 36.2459 46.0986C35.8449 46.0783 35.6621 46.553 35.7992 46.8271C35.817 46.789 35.8525 46.7611 35.8931 46.7357C35.8347 46.8118 35.7967 46.9159 35.7967 47.0504C35.4515 46.9768 35.3728 47.492 35.1165 47.492C35.3373 47.5529 35.1698 48.0073 35.5733 48.1418C36.2459 49.6595 44.9565 49.6697 45.6367 48.1418C46.0402 48.0073 45.8752 47.5529 46.0935 47.492C45.8372 47.492 45.7559 46.9768 45.4133 47.0504C45.4133 46.9159 45.3778 46.8144 45.3194 46.7357C45.3626 46.7585 45.3955 46.7865 45.4133 46.8271C45.5504 46.553 45.3676 46.0783 44.9666 46.0986C44.7433 45.921 44.5072 46.1113 44.2534 46.1545L43.5199 43.553C43.5199 43.553 46.9438 46.6113 46.9488 46.6164H46.9539Z" fill="#C09300"/>
<path fill-rule="evenodd" clip-rule="evenodd" d="M46.1519 47.4844C46.1316 47.4844 46.1139 47.4869 46.0986 47.492C46.1164 47.492 46.1342 47.492 46.1519 47.4844Z" fill="#C09300"/>
<path fill-rule="evenodd" clip-rule="evenodd" d="M35.119 47.492C35.1037 47.4869 35.086 47.4844 35.0657 47.4844C35.0834 47.4895 35.1037 47.492 35.119 47.492Z" fill="#C09300"/>
<path opacity="0.2" d="M68.5274 12.6904H12.6903C8.48477 12.6904 5.07617 16.099 5.07617 20.3046V22.8426C5.07617 18.6371 8.48477 15.2285 12.6903 15.2285H68.5274C72.7329 15.2285 76.1415 18.6371 76.1415 22.8426V20.3046C76.1415 16.099 72.7329 12.6904 68.5274 12.6904Z" fill="white"/>
</svg>
