<svg width="82" height="82" viewBox="0 0 82 82" fill="none" xmlns="http://www.w3.org/2000/svg">
<path d="M2.53809 27.9185H78.6795V53.2989H2.53809V27.9185Z" fill="white"/>
<path d="M12.6903 10.1523H68.5273C74.1313 10.1523 78.6795 14.7005 78.6795 20.3045V30.4567H2.53809V20.3045C2.53809 14.7005 7.08627 10.1523 12.6903 10.1523Z" fill="#1C44A6"/>
<path d="M68.5273 71.0654L12.6903 71.0654C7.08627 71.0654 2.53808 66.5172 2.53808 60.9132V50.7611L78.6795 50.7611V60.9132C78.6795 66.5172 74.1313 71.0654 68.5273 71.0654Z" fill="#1C44A6"/>
<path opacity="0.15" d="M68.5273 10.1523H12.6903C7.08373 10.1523 2.53809 14.698 2.53809 20.3045V60.9133C2.53809 66.5198 7.08373 71.0655 12.6903 71.0655H68.5273C74.1339 71.0655 78.6795 66.5198 78.6795 60.9133V20.3045C78.6795 14.698 74.1339 10.1523 68.5273 10.1523ZM76.1415 60.9133C76.1415 65.1112 72.7252 68.5274 68.5273 68.5274H12.6903C8.49234 68.5274 5.07613 65.1112 5.07613 60.9133V20.3045C5.07613 16.1066 8.49234 12.6904 12.6903 12.6904H68.5273C72.7252 12.6904 76.1415 16.1066 76.1415 20.3045V60.9133Z" fill="black"/>
<path d="M39.1595 38.8294L36.2103 35.5122C36.2103 35.5122 35.7433 41.6061 36.6519 43.0807L39.1595 38.8294Z" fill="#1C44A6"/>
<path d="M38.3981 41.1872L34.5148 38.6567C34.5148 38.6567 34.195 43.2278 35.8905 43.9156L38.3981 41.1872Z" fill="#1C44A6"/>
<path d="M42.058 38.8294L45.0072 35.5122C45.0072 35.5122 45.4742 41.6061 44.5656 43.0807L42.058 38.8294Z" fill="#1C44A6"/>
<path d="M42.8193 41.1872L46.7025 38.6567C46.7025 38.6567 47.0223 43.2278 45.3269 43.9156L42.8193 41.1872Z" fill="#1C44A6"/>
<path d="M40.6088 49.596C35.652 49.596 31.6216 45.5656 31.6216 40.6088C31.6216 35.652 35.652 31.6216 40.6088 31.6216C45.5656 31.6216 49.596 35.652 49.596 40.6088C49.596 45.5656 45.5656 49.596 40.6088 49.596ZM40.6088 32.9388C36.3779 32.9388 32.9388 36.3804 32.9388 40.6088C32.9388 44.8372 36.3804 48.2788 40.6088 48.2788C44.8372 48.2788 48.2788 44.8372 48.2788 40.6088C48.2788 36.3804 44.8372 32.9388 40.6088 32.9388Z" fill="#F7CF46"/>
<path d="M40.6089 35.0405L35.3069 44.2232H45.9108L40.6089 35.0405Z" fill="white"/>
<path d="M47.0504 44.8827H34.1698L40.6114 33.728L47.0504 44.8827ZM36.4464 43.5655H44.7712L40.6088 36.3574L36.4464 43.5655Z" fill="#F7CF46"/>
<path opacity="0.2" d="M68.5274 12.6904H12.6903C8.48477 12.6904 5.07617 16.099 5.07617 20.3046V22.8426C5.07617 18.6371 8.48477 15.2285 12.6903 15.2285H68.5274C72.7329 15.2285 76.1415 18.6371 76.1415 22.8426V20.3046C76.1415 16.099 72.7329 12.6904 68.5274 12.6904Z" fill="white"/>
</svg>
