<svg xmlns="http://www.w3.org/2000/svg" viewBox="0 0 234.17 276.7"><defs><style>.a{fill:#fff;}.b{fill:#004f9f;}.c{fill:#045327;}.d{fill:#a11a17;}.e{fill:#f9c400;}</style></defs><title>England national football team logo - Brandlogos.net</title><path class="a" d="M512,647.34C437.73,626.92,398.37,583.88,398.37,523V376.41H625.86V523C625.88,583.88,586.25,626.92,512,647.34Z" transform="translate(-394.92 -373.65)"/><path class="b" d="M394.92,373.65v149c0,30.44,9.59,56.76,28.53,78.16,19.83,22.44,49.62,39.08,88.54,49.49,38.94-10.41,68.72-27.05,88.57-49.49,18.91-21.4,28.53-47.7,28.53-78.16v-149Zm228.27,149c0,59.48-38.68,101.5-111.2,121.44-72.5-19.94-110.93-62-110.93-121.44V379.62H623.16V522.7Z" transform="translate(-394.92 -373.65)"/><path class="c" d="M508.54,560.19a1.13,1.13,0,0,0,0-1.08c-.16-.18-.4-.16-.67,0a4,4,0,0,0-1.42,2c-.07.15-.11.33-.18.49a9.13,9.13,0,0,0-.44,2.48,19.91,19.91,0,0,0,1.71-1.9,4.11,4.11,0,0,0,.27-.4A8.78,8.78,0,0,0,508.54,560.19Z" transform="translate(-394.92 -373.65)"/><path class="d" d="M502.66,553.29a4,4,0,0,0-1.58,5,5.43,5.43,0,0,0,5.12,3.32c.07-.15.11-.33.18-.49a3.88,3.88,0,0,1,1.42-2,17.68,17.68,0,0,0-.64-2.92,15.21,15.21,0,0,0-1.74-2.85A3.67,3.67,0,0,1,502.66,553.29Z" transform="translate(-394.92 -373.65)"/><path class="d" d="M511.79,549a6.43,6.43,0,0,1-.65-2.92,1.48,1.48,0,0,1,0-.29c-.82-.66-3.74-2.67-6.52-.4a5,5,0,0,0-1.33,6.3,6.39,6.39,0,0,1,2.36.75,29.29,29.29,0,0,1,2.76-2A14.77,14.77,0,0,1,511.79,549Z" transform="translate(-394.92 -373.65)"/><path class="c" d="M503,551.61a6.67,6.67,0,0,0-3.09.18s.42.84,2.67,1.48h.07a3.79,3.79,0,0,0,2.76,0,.65.65,0,0,0,.42-.62.63.63,0,0,0-.22-.33,6.38,6.38,0,0,0-2.36-.75A.76.76,0,0,1,503,551.61Z" transform="translate(-394.92 -373.65)"/><path class="d" d="M516.66,558.4a19,19,0,0,0-3.94.26,23.51,23.51,0,0,0-4.18,1.5,6.52,6.52,0,0,1-.8,1.57,2.08,2.08,0,0,1-.27.4,6.51,6.51,0,0,0,5.85,2.3c3.85-.46,4.81-3.09,5-3.74a3.79,3.79,0,0,1-.27-.31A9,9,0,0,1,516.66,558.4Z" transform="translate(-394.92 -373.65)"/><path class="d" d="M521.2,551.21a9.86,9.86,0,0,1-1,.49,11.4,11.4,0,0,1-2.43.75,8,8,0,0,0-.51,2.39,12,12,0,0,0,.25,2.67,11.21,11.21,0,0,1,1.67,1.77l.16.22a6.62,6.62,0,0,1,.38.62c1.13,0,3.67-.27,4.21-3.85C524.56,552.27,521.76,551.34,521.2,551.21Z" transform="translate(-394.92 -373.65)"/><path class="d" d="M520.76,550.26c.09-.46.85-4.35-2.65-6.15a4.73,4.73,0,0,0-5.5,1,4.79,4.79,0,0,1,.09.66,7.85,7.85,0,0,1-.09,3,15.08,15.08,0,0,0,2.54,1.57,15.59,15.59,0,0,0,2.67,1,14.91,14.91,0,0,1,1.89-.71A5.16,5.16,0,0,1,520.76,550.26Z" transform="translate(-394.92 -373.65)"/><path class="c" d="M512.7,545.71c0-.26-.07-.46-.09-.66-.29-1.3-.91-1.5-.91-1.5s-.62.38-.56,2.21V546a6.85,6.85,0,0,0,.65,2.92.45.45,0,0,0,.45.22c.16,0,.27-.2.36-.46l0,0A8.36,8.36,0,0,0,512.7,545.71Z" transform="translate(-394.92 -373.65)"/><path class="c" d="M521.2,551.21a8.37,8.37,0,0,0,1.8-1.13,7.33,7.33,0,0,0-2.25.18,9.38,9.38,0,0,0-1.07.27,19.71,19.71,0,0,0-1.89.69c-.51.26-.8.57-.69.91s.31.33.65.33a11.36,11.36,0,0,0,2.43-.75C520.45,551.59,520.8,551.41,521.2,551.21Z" transform="translate(-394.92 -373.65)"/><path class="c" d="M519.15,559.28a10.23,10.23,0,0,0-1.67-1.77,1.87,1.87,0,0,0-.51-.31.51.51,0,0,0-.49,0c-.13.13-.13.33,0,.62a2.47,2.47,0,0,0,.22.53,10.29,10.29,0,0,0,1.38,2,3.88,3.88,0,0,0,.27.31,1.41,1.41,0,0,0,.2.18,2.94,2.94,0,0,0,1.74.86,3.52,3.52,0,0,0-.53-1.66,6.62,6.62,0,0,0-.38-.62A1.53,1.53,0,0,0,519.15,559.28Z" transform="translate(-394.92 -373.65)"/><path class="e" d="M514.44,553.31c.31,1.19-.67,2.5-2.2,2.9s-3-.26-3.36-1.46.67-2.48,2.23-2.87S514.12,552.12,514.44,553.31Z" transform="translate(-394.92 -373.65)"/><path class="c" d="M590.92,560.19a1.13,1.13,0,0,0-.07-1.08q-.23-.26-.67,0a4,4,0,0,0-1.42,2,4.07,4.07,0,0,0-.16.49,8.72,8.72,0,0,0-.47,2.48,23.75,23.75,0,0,0,1.71-1.9l.27-.4A8.88,8.88,0,0,0,590.92,560.19Z" transform="translate(-394.92 -373.65)"/><path class="d" d="M585,553.29a4,4,0,0,0-1.56,5,5.4,5.4,0,0,0,5.14,3.32,4.07,4.07,0,0,1,.16-.49,3.88,3.88,0,0,1,1.42-2,15.65,15.65,0,0,0-.64-2.92,18,18,0,0,0-1.74-2.85A3.73,3.73,0,0,1,585,553.29Z" transform="translate(-394.92 -373.65)"/><path class="d" d="M594.15,549a6.76,6.76,0,0,1-.64-2.92c0-.13,0-.2,0-.29-.8-.66-3.74-2.67-6.5-.4a5,5,0,0,0-1.33,6.3,6.5,6.5,0,0,1,2.38.75,29.31,29.31,0,0,1,2.76-2A14.51,14.51,0,0,1,594.15,549Z" transform="translate(-394.92 -373.65)"/><path class="c" d="M585.38,551.61a6.54,6.54,0,0,0-3.07.18s.4.84,2.67,1.48h0a3.84,3.84,0,0,0,2.78,0c.33-.18.47-.42.42-.62a.53.53,0,0,0-.22-.33,6.24,6.24,0,0,0-2.38-.75A.85.85,0,0,1,585.38,551.61Z" transform="translate(-394.92 -373.65)"/><path class="d" d="M599,558.4a19.22,19.22,0,0,0-3.94.26,22.87,22.87,0,0,0-4.18,1.5,6.54,6.54,0,0,1-.8,1.57,3.9,3.9,0,0,1-.24.4,6.46,6.46,0,0,0,5.83,2.3c3.85-.46,4.81-3.09,5-3.74a3.9,3.9,0,0,1-.27-.31A9.77,9.77,0,0,1,599,558.4Z" transform="translate(-394.92 -373.65)"/><path class="d" d="M603.58,551.21a8.13,8.13,0,0,1-1,.49,12.21,12.21,0,0,1-2.43.75,8,8,0,0,0-.51,2.39,10.85,10.85,0,0,0,.25,2.67,10.26,10.26,0,0,1,1.67,1.77,2,2,0,0,0,.18.22,7.13,7.13,0,0,1,.4.62c1.16,0,3.67-.27,4.21-3.85C606.92,552.27,604.11,551.34,603.58,551.21Z" transform="translate(-394.92 -373.65)"/><path class="d" d="M603.12,550.26c.11-.46.85-4.35-2.63-6.15a4.77,4.77,0,0,0-5.52,1,4.62,4.62,0,0,1,.11.66,7.77,7.77,0,0,1-.11,3,15.59,15.59,0,0,0,2.51,1.57,16.33,16.33,0,0,0,2.69,1,14.49,14.49,0,0,1,1.87-.71A6.28,6.28,0,0,1,603.12,550.26Z" transform="translate(-394.92 -373.65)"/><path class="c" d="M595.08,545.71A4.62,4.62,0,0,0,595,545c-.29-1.3-.91-1.5-.91-1.5s-.62.38-.58,2.21c0,.09,0,.15,0,.29a6.85,6.85,0,0,0,.65,2.92.45.45,0,0,0,.44.22c.16,0,.27-.2.36-.46l0,0A8.28,8.28,0,0,0,595.08,545.71Z" transform="translate(-394.92 -373.65)"/><path class="c" d="M603.58,551.21a9.08,9.08,0,0,0,1.8-1.13,7.33,7.33,0,0,0-2.25.18,8.35,8.35,0,0,0-1.07.27,19.14,19.14,0,0,0-1.87.69c-.51.26-.82.57-.71.91s.31.33.67.33a11.75,11.75,0,0,0,2.43-.75Z" transform="translate(-394.92 -373.65)"/><path class="c" d="M601.51,559.28a10.26,10.26,0,0,0-1.67-1.77,1.87,1.87,0,0,0-.51-.31c-.22-.07-.38-.07-.49,0s-.11.33,0,.62a4.09,4.09,0,0,0,.2.53,10.47,10.47,0,0,0,1.4,2,3.88,3.88,0,0,0,.27.31,1.31,1.31,0,0,0,.18.18,3,3,0,0,0,1.74.86,3.9,3.9,0,0,0-.53-1.66,7.22,7.22,0,0,0-.4-.62A.39.39,0,0,0,601.51,559.28Z" transform="translate(-394.92 -373.65)"/><path class="e" d="M596.81,553.31c.31,1.19-.67,2.5-2.2,2.9s-3-.26-3.36-1.46.69-2.48,2.22-2.87S596.5,552.12,596.81,553.31Z" transform="translate(-394.92 -373.65)"/><path class="c" d="M425.56,560.19a1.13,1.13,0,0,0-.07-1.08c-.16-.18-.38-.16-.67,0a4,4,0,0,0-1.42,2,4.11,4.11,0,0,0-.16.49,8.73,8.73,0,0,0-.47,2.48,23.8,23.8,0,0,0,1.71-1.9l.27-.4A7.63,7.63,0,0,0,425.56,560.19Z" transform="translate(-394.92 -373.65)"/><path class="d" d="M419.66,553.29a4.05,4.05,0,0,0-1.56,5,5.4,5.4,0,0,0,5.14,3.32,4.11,4.11,0,0,1,.16-.49,4,4,0,0,1,1.42-2,14.06,14.06,0,0,0-.65-2.92,16.48,16.48,0,0,0-1.74-2.85A3.72,3.72,0,0,1,419.66,553.29Z" transform="translate(-394.92 -373.65)"/><path class="d" d="M428.79,549a6.76,6.76,0,0,1-.65-2.92c0-.13,0-.2,0-.29-.82-.66-3.72-2.67-6.5-.4a5,5,0,0,0-1.34,6.3,6.52,6.52,0,0,1,2.36.75,29.31,29.31,0,0,1,2.76-2A15.51,15.51,0,0,1,428.79,549Z" transform="translate(-394.92 -373.65)"/><path class="c" d="M420,551.61a6.54,6.54,0,0,0-3.07.18s.4.84,2.67,1.48h0a3.84,3.84,0,0,0,2.78,0,.69.69,0,0,0,.42-.62.52.52,0,0,0-.22-.33,6.38,6.38,0,0,0-2.36-.75A.94.94,0,0,1,420,551.61Z" transform="translate(-394.92 -373.65)"/><path class="d" d="M433.68,558.4a19,19,0,0,0-3.94.26,22.88,22.88,0,0,0-4.18,1.5,7.39,7.39,0,0,1-.78,1.57l-.27.4a6.48,6.48,0,0,0,5.85,2.3c3.85-.46,4.81-3.09,5-3.74a3.79,3.79,0,0,1-.27-.31A9.11,9.11,0,0,1,433.68,558.4Z" transform="translate(-394.92 -373.65)"/><path class="d" d="M438.22,551.21a8,8,0,0,1-1,.49,11.9,11.9,0,0,1-2.45.75,8.74,8.74,0,0,0-.51,2.39,10.78,10.78,0,0,0,.27,2.67,12.32,12.32,0,0,1,1.67,1.77,2,2,0,0,0,.18.22,6.59,6.59,0,0,1,.38.62c1.13,0,3.67-.27,4.23-3.85C441.56,552.27,438.78,551.34,438.22,551.21Z" transform="translate(-394.92 -373.65)"/><path class="d" d="M437.78,550.26c.11-.46.85-4.35-2.65-6.15a4.78,4.78,0,0,0-5.52,1,4.58,4.58,0,0,1,.11.66,7.34,7.34,0,0,1-.11,3,16.11,16.11,0,0,0,2.54,1.57,16.34,16.34,0,0,0,2.69,1,13.75,13.75,0,0,1,1.89-.71A5.17,5.17,0,0,1,437.78,550.26Z" transform="translate(-394.92 -373.65)"/><path class="c" d="M429.72,545.71a2.75,2.75,0,0,0-.11-.66c-.27-1.3-.91-1.5-.91-1.5s-.62.38-.56,2.21c0,.09,0,.15,0,.29a6.85,6.85,0,0,0,.65,2.92.47.47,0,0,0,.45.22c.16,0,.29-.2.36-.46v0A7.37,7.37,0,0,0,429.72,545.71Z" transform="translate(-394.92 -373.65)"/><path class="c" d="M438.22,551.21a7.74,7.74,0,0,0,1.8-1.13,7.31,7.31,0,0,0-2.25.18,9.37,9.37,0,0,0-1.07.27,13.93,13.93,0,0,0-1.89.69c-.51.26-.8.57-.69.91s.31.33.65.33a11.86,11.86,0,0,0,2.45-.75C437.46,551.59,437.84,551.41,438.22,551.21Z" transform="translate(-394.92 -373.65)"/><path class="c" d="M436.17,559.28a11.16,11.16,0,0,0-1.67-1.77,1.86,1.86,0,0,0-.51-.31.51.51,0,0,0-.49,0c-.11.13-.11.33,0,.62a2.48,2.48,0,0,0,.22.53,9.38,9.38,0,0,0,1.38,2,3.89,3.89,0,0,0,.27.31l.18.18a3,3,0,0,0,1.76.86,3.89,3.89,0,0,0-.53-1.66,6.6,6.6,0,0,0-.38-.62C436.28,559.43,436.24,559.35,436.17,559.28Z" transform="translate(-394.92 -373.65)"/><path class="e" d="M431.46,553.31c.31,1.19-.67,2.5-2.23,2.9s-3-.26-3.34-1.46.69-2.48,2.23-2.87S431.17,552.12,431.46,553.31Z" transform="translate(-394.92 -373.65)"/><path class="c" d="M508.54,483.93a1.14,1.14,0,0,0,0-1.08c-.16-.18-.4-.15-.67,0a4.31,4.31,0,0,0-1.42,2c-.07.15-.11.31-.18.49a9.21,9.21,0,0,0-.44,2.5,18.52,18.52,0,0,0,1.71-1.92c.09-.13.2-.29.27-.4A9,9,0,0,0,508.54,483.93Z" transform="translate(-394.92 -373.65)"/><path class="d" d="M502.66,477.05a4,4,0,0,0-1.58,5,5.36,5.36,0,0,0,5.12,3.29c.07-.15.11-.31.18-.49a4.28,4.28,0,0,1,1.42-2,16.67,16.67,0,0,0-.64-2.87,15.43,15.43,0,0,0-1.74-2.87A3.75,3.75,0,0,1,502.66,477.05Z" transform="translate(-394.92 -373.65)"/><path class="d" d="M511.79,472.72a6.35,6.35,0,0,1-.65-2.92,1.37,1.37,0,0,1,0-.29c-.82-.66-3.74-2.65-6.52-.4a5,5,0,0,0-1.33,6.3,6.77,6.77,0,0,1,2.36.73,29,29,0,0,1,2.76-2A16.59,16.59,0,0,1,511.79,472.72Z" transform="translate(-394.92 -373.65)"/><path class="c" d="M503,475.37a7,7,0,0,0-3.09.18s.42.84,2.67,1.48l.07,0a3.92,3.92,0,0,0,2.76,0,.67.67,0,0,0,.42-.62.73.73,0,0,0-.22-.33,6.4,6.4,0,0,0-2.36-.75A1.41,1.41,0,0,1,503,475.37Z" transform="translate(-394.92 -373.65)"/><path class="d" d="M516.66,482.14a19.06,19.06,0,0,0-3.94.26,23.38,23.38,0,0,0-4.18,1.53,7.61,7.61,0,0,1-.8,1.59c-.07.11-.16.24-.27.4a6.56,6.56,0,0,0,5.85,2.32c3.85-.49,4.81-3.12,5-3.78a1.92,1.92,0,0,1-.27-.31A9.57,9.57,0,0,1,516.66,482.14Z" transform="translate(-394.92 -373.65)"/><path class="d" d="M521.2,475a10,10,0,0,1-1,.49,10.21,10.21,0,0,1-2.43.75,8,8,0,0,0-.51,2.39,12,12,0,0,0,.25,2.67,9.53,9.53,0,0,1,1.67,1.77,1.47,1.47,0,0,1,.16.24c.16.22.27.42.38.6,1.13,0,3.67-.26,4.21-3.85C524.56,476,521.76,475.11,521.2,475Z" transform="translate(-394.92 -373.65)"/><path class="d" d="M520.76,474c.11-.49.85-4.35-2.65-6.14a4.73,4.73,0,0,0-5.5,1,2.82,2.82,0,0,1,.09.66,7.85,7.85,0,0,1-.09,3,15.11,15.11,0,0,0,2.54,1.57,17.88,17.88,0,0,0,2.67,1,12.17,12.17,0,0,1,1.89-.71A7.18,7.18,0,0,1,520.76,474Z" transform="translate(-394.92 -373.65)"/><path class="c" d="M512.7,469.45c0-.27-.07-.46-.09-.66-.29-1.3-.91-1.5-.91-1.5s-.62.4-.56,2.21v.29a6.66,6.66,0,0,0,.65,2.92.47.47,0,0,0,.45.24c.16,0,.27-.22.36-.46l0,0A8.33,8.33,0,0,0,512.7,469.45Z" transform="translate(-394.92 -373.65)"/><path class="c" d="M521.2,475a8.37,8.37,0,0,0,1.8-1.13,10.18,10.18,0,0,0-3.32.44,15,15,0,0,0-1.89.71c-.51.27-.8.55-.69.91s.31.33.65.31a10.24,10.24,0,0,0,2.43-.75C520.45,475.33,520.8,475.15,521.2,475Z" transform="translate(-394.92 -373.65)"/><path class="c" d="M519.15,483a10.23,10.23,0,0,0-1.67-1.77,1.87,1.87,0,0,0-.51-.31.42.42,0,0,0-.49,0c-.13.13-.13.33,0,.62a2.47,2.47,0,0,0,.22.53,9.6,9.6,0,0,0,1.38,2,3.88,3.88,0,0,0,.27.31,1.66,1.66,0,0,0,.2.2,2.94,2.94,0,0,0,1.74.86,3.42,3.42,0,0,0-.53-1.64,6.52,6.52,0,0,0-.38-.6A1.11,1.11,0,0,0,519.15,483Z" transform="translate(-394.92 -373.65)"/><path class="e" d="M514.44,477.05c.31,1.19-.67,2.5-2.2,2.9s-3-.27-3.36-1.46.67-2.5,2.23-2.9S514.12,475.86,514.44,477.05Z" transform="translate(-394.92 -373.65)"/><path class="c" d="M424.51,483.93a1.21,1.21,0,0,0,0-1.08c-.16-.18-.38-.15-.67,0a4.17,4.17,0,0,0-1.42,2,1.78,1.78,0,0,0-.16.49,9.21,9.21,0,0,0-.45,2.5,24.61,24.61,0,0,0,1.74-1.92c.09-.13.18-.29.24-.4A13.36,13.36,0,0,0,424.51,483.93Z" transform="translate(-394.92 -373.65)"/><path class="d" d="M418.64,477.05a4.05,4.05,0,0,0-1.56,5,5.33,5.33,0,0,0,5.12,3.29c0-.15.09-.31.16-.49a4.15,4.15,0,0,1,1.45-2,14.8,14.8,0,0,0-.65-2.87,16.77,16.77,0,0,0-1.76-2.87A3.75,3.75,0,0,1,418.64,477.05Z" transform="translate(-394.92 -373.65)"/><path class="d" d="M427.76,472.72a6.67,6.67,0,0,1-.65-2.92v-.29c-.82-.66-3.74-2.65-6.52-.4a5,5,0,0,0-1.36,6.3,6.74,6.74,0,0,1,2.38.73,26.39,26.39,0,0,1,2.76-2A16.44,16.44,0,0,1,427.76,472.72Z" transform="translate(-394.92 -373.65)"/><path class="c" d="M419,475.37a7.11,7.11,0,0,0-3.09.18s.45.84,2.69,1.48c0,0,0,0,0,0a4,4,0,0,0,2.78,0,.79.79,0,0,0,.45-.62.73.73,0,0,0-.22-.33,6.26,6.26,0,0,0-2.38-.75A1.89,1.89,0,0,1,419,475.37Z" transform="translate(-394.92 -373.65)"/><path class="d" d="M432.64,482.14a19.26,19.26,0,0,0-3.94.26,23.38,23.38,0,0,0-4.18,1.53,8.78,8.78,0,0,1-.78,1.59l-.24.4a6.51,6.51,0,0,0,5.83,2.32c3.85-.49,4.83-3.12,5-3.78a1.92,1.92,0,0,1-.27-.31A8.44,8.44,0,0,1,432.64,482.14Z" transform="translate(-394.92 -373.65)"/><path class="d" d="M437.17,475a8.09,8.09,0,0,1-1,.49,10.63,10.63,0,0,1-2.45.75,8.74,8.74,0,0,0-.51,2.39,12,12,0,0,0,.24,2.67,9.51,9.51,0,0,1,1.67,1.77,1.48,1.48,0,0,1,.16.24c.16.22.27.42.38.6,1.16,0,3.67-.26,4.23-3.85C440.54,476,437.73,475.11,437.17,475Z" transform="translate(-394.92 -373.65)"/><path class="d" d="M436.73,474c.11-.49.85-4.35-2.63-6.14a4.76,4.76,0,0,0-5.52,1c0,.2.07.4.11.66a8.34,8.34,0,0,1-.09,3,14.62,14.62,0,0,0,2.51,1.57,17.92,17.92,0,0,0,2.69,1,11.38,11.38,0,0,1,1.89-.71A6.89,6.89,0,0,1,436.73,474Z" transform="translate(-394.92 -373.65)"/><path class="c" d="M428.67,469.45c0-.27-.07-.46-.11-.66-.29-1.3-.91-1.5-.91-1.5s-.6.4-.53,2.21v.29a6.66,6.66,0,0,0,.65,2.92.47.47,0,0,0,.45.24c.16,0,.27-.22.38-.46v0A8.49,8.49,0,0,0,428.67,469.45Z" transform="translate(-394.92 -373.65)"/><path class="c" d="M437.17,475a9.07,9.07,0,0,0,1.8-1.13,9.56,9.56,0,0,0-2.27.18,8,8,0,0,0-1,.27,13.74,13.74,0,0,0-1.89.71c-.51.27-.8.55-.71.91s.31.33.67.31a10.66,10.66,0,0,0,2.45-.75C436.44,475.33,436.8,475.15,437.17,475Z" transform="translate(-394.92 -373.65)"/><path class="c" d="M435.13,483a11.16,11.16,0,0,0-1.67-1.77,1.86,1.86,0,0,0-.51-.31c-.22-.09-.4-.07-.49,0s-.11.33,0,.62a4.11,4.11,0,0,0,.2.53,9,9,0,0,0,1.4,2,3.88,3.88,0,0,0,.27.31,1.66,1.66,0,0,0,.2.2,2.94,2.94,0,0,0,1.74.86,3.33,3.33,0,0,0-.56-1.64,6.5,6.5,0,0,0-.38-.6A.47.47,0,0,0,435.13,483Z" transform="translate(-394.92 -373.65)"/><path class="e" d="M430.43,477.05c.31,1.19-.67,2.5-2.23,2.9a2.67,2.67,0,0,1-3.36-1.44c-.31-1.22.67-2.5,2.23-2.9A2.65,2.65,0,0,1,430.43,477.05Z" transform="translate(-394.92 -373.65)"/><path class="c" d="M592.77,483.93a1.14,1.14,0,0,0,0-1.08c-.16-.18-.4-.15-.67,0a4.16,4.16,0,0,0-1.42,2,3.08,3.08,0,0,0-.16.49,8.81,8.81,0,0,0-.47,2.5,21.8,21.8,0,0,0,1.71-1.92c.09-.13.18-.29.27-.4A8.15,8.15,0,0,0,592.77,483.93Z" transform="translate(-394.92 -373.65)"/><path class="d" d="M586.89,477.05a4.05,4.05,0,0,0-1.56,5,5.37,5.37,0,0,0,5.14,3.29c0-.15.09-.31.16-.49a4.28,4.28,0,0,1,1.42-2,14.89,14.89,0,0,0-.62-2.87,16.78,16.78,0,0,0-1.76-2.87A3.8,3.8,0,0,1,586.89,477.05Z" transform="translate(-394.92 -373.65)"/><path class="d" d="M596,472.72a6.67,6.67,0,0,1-.64-2.92c0-.11,0-.2,0-.29-.8-.66-3.74-2.65-6.52-.4a5,5,0,0,0-1.33,6.3,6.91,6.91,0,0,1,2.36.73,26.4,26.4,0,0,1,2.76-2A17.68,17.68,0,0,1,596,472.72Z" transform="translate(-394.92 -373.65)"/><path class="c" d="M587.25,475.37a7,7,0,0,0-3.09.18s.42.84,2.67,1.48c0,0,0,0,0,0a4,4,0,0,0,2.78,0,.7.7,0,0,0,.44-.62.49.49,0,0,0-.22-.33,6.53,6.53,0,0,0-2.36-.75A2.36,2.36,0,0,1,587.25,475.37Z" transform="translate(-394.92 -373.65)"/><path class="d" d="M600.91,482.14a19.06,19.06,0,0,0-3.94.26,23.68,23.68,0,0,0-4.21,1.53,8.81,8.81,0,0,1-.78,1.59q-.1.17-.27.4a6.51,6.51,0,0,0,5.83,2.32c3.85-.49,4.81-3.12,5-3.78a1.89,1.89,0,0,1-.27-.31A8.6,8.6,0,0,1,600.91,482.14Z" transform="translate(-394.92 -373.65)"/><path class="d" d="M605.43,475a10,10,0,0,1-1,.49,10.31,10.31,0,0,1-2.45.75,8.76,8.76,0,0,0-.51,2.39,12.06,12.06,0,0,0,.24,2.67,9.51,9.51,0,0,1,1.67,1.77l.18.24c.16.22.27.42.38.6,1.13,0,3.67-.26,4.21-3.85C608.77,476,606,475.11,605.43,475Z" transform="translate(-394.92 -373.65)"/><path class="d" d="M605,474c.09-.49.82-4.35-2.65-6.14a4.77,4.77,0,0,0-5.52,1,4.32,4.32,0,0,1,.13.66,8.26,8.26,0,0,1-.11,3,14.15,14.15,0,0,0,2.49,1.57,18.82,18.82,0,0,0,2.69,1,12.22,12.22,0,0,1,1.89-.71A9.4,9.4,0,0,1,605,474Z" transform="translate(-394.92 -373.65)"/><path class="c" d="M596.95,469.47a4.32,4.32,0,0,0-.13-.66c-.27-1.3-.91-1.5-.91-1.5s-.62.4-.56,2.21v.29a6.66,6.66,0,0,0,.64,2.92c.16.18.27.27.47.24s.27-.22.36-.46l0,0A7.82,7.82,0,0,0,596.95,469.47Z" transform="translate(-394.92 -373.65)"/><path class="c" d="M605.43,475a9.09,9.09,0,0,0,1.8-1.13A9.31,9.31,0,0,0,605,474a8.32,8.32,0,0,0-1.07.27A13.74,13.74,0,0,0,602,475c-.51.27-.8.55-.69.91s.29.33.65.31a10.35,10.35,0,0,0,2.45-.75C604.7,475.33,605.05,475.15,605.43,475Z" transform="translate(-394.92 -373.65)"/><path class="c" d="M603.4,483a12.26,12.26,0,0,0-1.67-1.77,2.26,2.26,0,0,0-.51-.31.43.43,0,0,0-.49,0,.89.89,0,0,0,0,.62,4.13,4.13,0,0,0,.2.53,9.58,9.58,0,0,0,1.38,2,3.88,3.88,0,0,0,.27.31,1.66,1.66,0,0,0,.2.2,2.94,2.94,0,0,0,1.74.86,3.9,3.9,0,0,0-.51-1.64,6.52,6.52,0,0,0-.38-.6C603.51,483.18,603.45,483.11,603.4,483Z" transform="translate(-394.92 -373.65)"/><path class="e" d="M598.66,477.05c.31,1.19-.67,2.5-2.2,2.9a2.66,2.66,0,0,1-3.36-1.46c-.31-1.22.67-2.5,2.23-2.9S598.35,475.86,598.66,477.05Z" transform="translate(-394.92 -373.65)"/><path class="c" d="M508.54,407.67a1.13,1.13,0,0,0,0-1.08c-.16-.18-.4-.15-.67,0a4,4,0,0,0-1.42,2c-.07.15-.11.33-.18.49a9,9,0,0,0-.44,2.48,19.92,19.92,0,0,0,1.71-1.9,4.1,4.1,0,0,0,.27-.4A8.12,8.12,0,0,0,508.54,407.67Z" transform="translate(-394.92 -373.65)"/><path class="d" d="M502.66,400.8a4,4,0,0,0-1.58,5,5.4,5.4,0,0,0,5.12,3.29c.07-.15.11-.31.18-.49a4,4,0,0,1,1.42-2,9.79,9.79,0,0,0-2.38-5.77A3.63,3.63,0,0,1,502.66,400.8Z" transform="translate(-394.92 -373.65)"/><path class="d" d="M511.79,396.46a6.66,6.66,0,0,1-.65-2.92,1.27,1.27,0,0,1,0-.29c-.82-.64-3.74-2.65-6.52-.4a5,5,0,0,0-1.33,6.3,6.78,6.78,0,0,1,2.36.73c.64-.51,1.74-1.33,2.76-2A18.14,18.14,0,0,1,511.79,396.46Z" transform="translate(-394.92 -373.65)"/><path class="c" d="M503,399.12a7.05,7.05,0,0,0-3.09.18s.42.86,2.67,1.48a.1.1,0,0,0,.07,0,3.92,3.92,0,0,0,2.76,0,.67.67,0,0,0,.42-.62.73.73,0,0,0-.22-.33,7.33,7.33,0,0,0-2.36-.75A1.4,1.4,0,0,1,503,399.12Z" transform="translate(-394.92 -373.65)"/><path class="d" d="M516.66,405.9a19,19,0,0,0-3.94.27,21.88,21.88,0,0,0-4.18,1.5,8.78,8.78,0,0,1-.78,1.59q-.1.17-.27.4a6.51,6.51,0,0,0,5.85,2.3c3.85-.49,4.81-3.09,5-3.76a3.49,3.49,0,0,1-.27-.29A9.78,9.78,0,0,1,516.66,405.9Z" transform="translate(-394.92 -373.65)"/><path class="d" d="M521.2,398.72c-.4.2-.73.38-1,.49a11.39,11.39,0,0,1-2.43.75,8,8,0,0,0-.51,2.39,11,11,0,0,0,.24,2.7,10.25,10.25,0,0,1,1.67,1.77l.16.22a6.65,6.65,0,0,1,.38.62c1.13,0,3.67-.29,4.21-3.85C524.56,399.78,521.76,398.85,521.2,398.72Z" transform="translate(-394.92 -373.65)"/><path class="d" d="M520.76,397.74c.09-.46.85-4.35-2.65-6.14a4.77,4.77,0,0,0-5.5,1,5.29,5.29,0,0,1,.09.66,7.88,7.88,0,0,1-.09,3,15.09,15.09,0,0,0,2.54,1.57,15.6,15.6,0,0,0,2.67,1,14.9,14.9,0,0,1,1.89-.71A7.21,7.21,0,0,1,520.76,397.74Z" transform="translate(-394.92 -373.65)"/><path class="c" d="M512.7,393.21c0-.24-.07-.46-.09-.66-.29-1.3-.91-1.5-.91-1.5s-.62.38-.56,2.21v.29a6.66,6.66,0,0,0,.65,2.92.47.47,0,0,0,.45.24c.16,0,.27-.22.36-.49l0,0A8.36,8.36,0,0,0,512.7,393.21Z" transform="translate(-394.92 -373.65)"/><path class="c" d="M521.2,398.72a7.26,7.26,0,0,0,1.8-1.15,10.19,10.19,0,0,0-3.32.44,14.93,14.93,0,0,0-1.89.71c-.51.27-.8.57-.69.93s.31.33.65.31a11.38,11.38,0,0,0,2.43-.75C520.45,399.09,520.8,398.92,521.2,398.72Z" transform="translate(-394.92 -373.65)"/><path class="c" d="M519.15,406.79a10.25,10.25,0,0,0-1.67-1.77,1.44,1.44,0,0,0-.51-.31c-.22-.09-.38-.07-.49.07s-.13.33,0,.6a2.58,2.58,0,0,0,.22.55,9.59,9.59,0,0,0,1.38,2l.27.29.2.2a3,3,0,0,0,1.74.86,3.42,3.42,0,0,0-.53-1.64,6.64,6.64,0,0,0-.38-.62A.69.69,0,0,0,519.15,406.79Z" transform="translate(-394.92 -373.65)"/><path class="e" d="M514.44,400.82c.31,1.19-.67,2.5-2.2,2.9s-3-.27-3.36-1.46.67-2.5,2.23-2.9S514.15,399.62,514.44,400.82Z" transform="translate(-394.92 -373.65)"/><path class="c" d="M424.51,407.67a1.2,1.2,0,0,0,0-1.08c-.16-.18-.4-.15-.67,0a4.81,4.81,0,0,0-1.6,2.5,8.61,8.61,0,0,0-.47,2.48s1.07-1.06,1.74-1.9a3.84,3.84,0,0,0,.24-.4A7.12,7.12,0,0,0,424.51,407.67Z" transform="translate(-394.92 -373.65)"/><path class="d" d="M418.64,400.8a4.05,4.05,0,0,0-1.56,5,5.37,5.37,0,0,0,5.12,3.29c0-.15.09-.31.16-.49a3.87,3.87,0,0,1,1.45-2,15.42,15.42,0,0,0-.65-2.9,16.75,16.75,0,0,0-1.76-2.87A3.63,3.63,0,0,1,418.64,400.8Z" transform="translate(-394.92 -373.65)"/><path class="d" d="M427.76,396.46a6.66,6.66,0,0,1-.65-2.92v-.29c-.82-.64-3.74-2.65-6.52-.4a5,5,0,0,0-1.36,6.3,6.75,6.75,0,0,1,2.38.73,30.52,30.52,0,0,1,2.76-2A18,18,0,0,1,427.76,396.46Z" transform="translate(-394.92 -373.65)"/><path class="c" d="M419,399.12a7.12,7.12,0,0,0-3.09.18s.45.86,2.69,1.48c0,0,0,0,0,0a4,4,0,0,0,2.78,0,.79.79,0,0,0,.45-.62.73.73,0,0,0-.22-.33,7.12,7.12,0,0,0-2.38-.75A1.87,1.87,0,0,1,419,399.12Z" transform="translate(-394.92 -373.65)"/><path class="d" d="M432.64,405.9a19.23,19.23,0,0,0-3.94.27,21.88,21.88,0,0,0-4.18,1.5,8.79,8.79,0,0,1-.78,1.59c-.07.11-.16.24-.24.4a6.46,6.46,0,0,0,5.83,2.3c3.85-.49,4.81-3.09,5-3.76a3.4,3.4,0,0,1-.27-.29A8.44,8.44,0,0,1,432.64,405.9Z" transform="translate(-394.92 -373.65)"/><path class="d" d="M437.17,398.72c-.38.2-.73.38-1,.49a11.88,11.88,0,0,1-2.45.75,8.74,8.74,0,0,0-.51,2.39,11,11,0,0,0,.24,2.7,10.27,10.27,0,0,1,1.67,1.77l.16.22a6.63,6.63,0,0,1,.38.62c1.16,0,3.67-.29,4.23-3.85C440.53,399.78,437.73,398.85,437.17,398.72Z" transform="translate(-394.92 -373.65)"/><path class="d" d="M436.73,397.74c.11-.46.85-4.35-2.63-6.14a4.79,4.79,0,0,0-5.52,1c0,.2.07.42.11.66a8.37,8.37,0,0,1-.09,3,14.6,14.6,0,0,0,2.51,1.57,15.66,15.66,0,0,0,2.69,1,13.73,13.73,0,0,1,1.89-.71A6.92,6.92,0,0,1,436.73,397.74Z" transform="translate(-394.92 -373.65)"/><path class="c" d="M428.67,393.21c0-.24-.07-.46-.11-.66-.29-1.3-.91-1.5-.91-1.5s-.6.38-.53,2.21v.29a6.66,6.66,0,0,0,.65,2.92.47.47,0,0,0,.45.24c.16,0,.27-.22.38-.49a0,0,0,0,1,0,0A9,9,0,0,0,428.67,393.21Z" transform="translate(-394.92 -373.65)"/><path class="c" d="M437.17,398.72a7.79,7.79,0,0,0,1.8-1.15,9.58,9.58,0,0,0-2.27.18,8,8,0,0,0-1,.27,13.73,13.73,0,0,0-1.89.71c-.51.27-.8.57-.71.93s.31.33.67.31a11.88,11.88,0,0,0,2.45-.75C436.44,399.09,436.8,398.92,437.17,398.72Z" transform="translate(-394.92 -373.65)"/><path class="c" d="M435.13,406.79a11.18,11.18,0,0,0-1.67-1.77,1.44,1.44,0,0,0-.51-.31c-.22-.09-.4-.07-.49.07s-.11.33,0,.6a4.28,4.28,0,0,0,.2.55,9,9,0,0,0,1.4,2l.27.29.2.2a3,3,0,0,0,1.74.86,3.33,3.33,0,0,0-.56-1.64,6.62,6.62,0,0,0-.38-.62A.36.36,0,0,0,435.13,406.79Z" transform="translate(-394.92 -373.65)"/><path class="e" d="M430.43,400.82c.31,1.19-.67,2.5-2.23,2.9a2.66,2.66,0,0,1-3.36-1.46c-.31-1.19.67-2.5,2.23-2.9A2.66,2.66,0,0,1,430.43,400.82Z" transform="translate(-394.92 -373.65)"/><path class="c" d="M592.77,407.67a1.13,1.13,0,0,0,0-1.08.53.53,0,0,0-.67,0,4,4,0,0,0-1.42,2,4.06,4.06,0,0,0-.16.49,8.61,8.61,0,0,0-.47,2.48,23.84,23.84,0,0,0,1.71-1.9l.27-.4A8.15,8.15,0,0,0,592.77,407.67Z" transform="translate(-394.92 -373.65)"/><path class="d" d="M586.89,400.8a4.05,4.05,0,0,0-1.56,5,5.41,5.41,0,0,0,5.14,3.29c0-.15.09-.31.16-.49a4,4,0,0,1,1.42-2,15.49,15.49,0,0,0-.62-2.9,16.77,16.77,0,0,0-1.76-2.87A3.68,3.68,0,0,1,586.89,400.8Z" transform="translate(-394.92 -373.65)"/><path class="d" d="M596,396.46a6.67,6.67,0,0,1-.64-2.92c0-.09,0-.2,0-.29-.8-.64-3.74-2.65-6.52-.4a5,5,0,0,0-1.33,6.3,6.92,6.92,0,0,1,2.36.73c.65-.51,1.74-1.33,2.76-2A19.47,19.47,0,0,1,596,396.46Z" transform="translate(-394.92 -373.65)"/><path class="c" d="M587.25,399.12a7.05,7.05,0,0,0-3.09.18s.42.86,2.67,1.48c0,0,0,0,0,0a4,4,0,0,0,2.78,0,.7.7,0,0,0,.44-.62.49.49,0,0,0-.22-.33,7.5,7.5,0,0,0-2.36-.75A2.34,2.34,0,0,1,587.25,399.12Z" transform="translate(-394.92 -373.65)"/><path class="d" d="M600.91,405.9a19.13,19.13,0,0,0-3.94.27,22.15,22.15,0,0,0-4.21,1.5,8.82,8.82,0,0,1-.78,1.59q-.1.17-.27.4a6.46,6.46,0,0,0,5.83,2.3c3.85-.46,4.81-3.09,5-3.76a3.31,3.31,0,0,1-.27-.29A8.6,8.6,0,0,1,600.91,405.9Z" transform="translate(-394.92 -373.65)"/><path class="d" d="M605.43,398.72c-.38.2-.76.38-1,.49A11.49,11.49,0,0,1,602,400a8,8,0,0,0-.51,2.39,12.27,12.27,0,0,0,.24,2.7,10.27,10.27,0,0,1,1.67,1.77,1.94,1.94,0,0,0,.18.22,6.64,6.64,0,0,1,.38.62c1.13,0,3.67-.29,4.21-3.85C608.77,399.78,606,398.85,605.43,398.72Z" transform="translate(-394.92 -373.65)"/><path class="d" d="M605,397.74c.11-.46.85-4.35-2.65-6.14a4.81,4.81,0,0,0-5.52,1,5,5,0,0,1,.13.66,8.23,8.23,0,0,1-.11,3,14.14,14.14,0,0,0,2.49,1.57,16.34,16.34,0,0,0,2.69,1,15,15,0,0,1,1.89-.71A9.45,9.45,0,0,1,605,397.74Z" transform="translate(-394.92 -373.65)"/><path class="c" d="M596.95,393.21a5,5,0,0,0-.13-.66c-.27-1.3-.91-1.5-.91-1.5s-.62.38-.56,2.21v.29a6.67,6.67,0,0,0,.64,2.92c.16.18.27.27.47.24s.27-.22.36-.49l0,0A7.79,7.79,0,0,0,596.95,393.21Z" transform="translate(-394.92 -373.65)"/><path class="c" d="M605.43,398.72a7.8,7.8,0,0,0,1.8-1.15,9.33,9.33,0,0,0-2.25.18,7.52,7.52,0,0,0-1.07.27,12.7,12.7,0,0,0-1.89.71c-.51.27-.8.57-.69.93s.29.33.65.31a11.5,11.5,0,0,0,2.45-.75C604.7,399.09,605.05,398.92,605.43,398.72Z" transform="translate(-394.92 -373.65)"/><path class="c" d="M603.4,406.79a12.29,12.29,0,0,0-1.67-1.77,1.66,1.66,0,0,0-.51-.31.39.39,0,0,0-.49.07.83.83,0,0,0,0,.6,4.29,4.29,0,0,0,.2.55,9.57,9.57,0,0,0,1.38,2l.27.29.2.2a3,3,0,0,0,1.74.86,3.77,3.77,0,0,0-.53-1.64,6.64,6.64,0,0,0-.38-.62A1.14,1.14,0,0,0,603.4,406.79Z" transform="translate(-394.92 -373.65)"/><path class="e" d="M598.66,400.82c.31,1.19-.67,2.5-2.2,2.9a2.66,2.66,0,0,1-3.36-1.46c-.31-1.19.67-2.5,2.23-2.9S598.35,399.62,598.66,400.82Z" transform="translate(-394.92 -373.65)"/><path class="c" d="M508.54,625.08c.13-.44.18-.82,0-1.06s-.4-.18-.67,0a3.88,3.88,0,0,0-1.42,2c-.07.15-.11.31-.18.49a9.13,9.13,0,0,0-.44,2.48,18.49,18.49,0,0,0,1.71-1.92,4.1,4.1,0,0,0,.27-.4A8.11,8.11,0,0,0,508.54,625.08Z" transform="translate(-394.92 -373.65)"/><path class="d" d="M502.66,618.21a4,4,0,0,0-1.58,5,5.36,5.36,0,0,0,5.12,3.29c.07-.16.11-.33.18-.49a3.88,3.88,0,0,1,1.42-2,17.42,17.42,0,0,0-.64-2.9,16.19,16.19,0,0,0-1.74-2.87A3.63,3.63,0,0,1,502.66,618.21Z" transform="translate(-394.92 -373.65)"/><path class="d" d="M511.79,613.88a6.43,6.43,0,0,1-.65-2.92,1.18,1.18,0,0,1,0-.27c-.82-.66-3.74-2.65-6.52-.42a5,5,0,0,0-1.33,6.3,6.78,6.78,0,0,1,2.36.73,25.77,25.77,0,0,1,2.76-2A18.13,18.13,0,0,1,511.79,613.88Z" transform="translate(-394.92 -373.65)"/><path class="c" d="M503,616.53a7,7,0,0,0-3.09.18s.42.84,2.67,1.5l.07,0a3.92,3.92,0,0,0,2.76,0,.65.65,0,0,0,.42-.62.63.63,0,0,0-.22-.33,6.35,6.35,0,0,0-2.36-.73C503.16,616.55,503,616.55,503,616.53Z" transform="translate(-394.92 -373.65)"/><path class="d" d="M516.66,623.31a19,19,0,0,0-3.94.26,22.88,22.88,0,0,0-4.18,1.5,8.11,8.11,0,0,1-.78,1.59,2.08,2.08,0,0,1-.27.4,6.56,6.56,0,0,0,5.85,2.34c3.85-.49,4.81-3.12,5-3.76a4,4,0,0,1-.27-.31A10.84,10.84,0,0,1,516.66,623.31Z" transform="translate(-394.92 -373.65)"/><path class="d" d="M521.2,616.13a9.85,9.85,0,0,1-1,.49,9.27,9.27,0,0,1-2.43.75,8,8,0,0,0-.51,2.39,12,12,0,0,0,.25,2.67,11.21,11.21,0,0,1,1.67,1.77,1.47,1.47,0,0,1,.16.24,6.69,6.69,0,0,1,.38.62c1.13,0,3.67-.26,4.21-3.85C524.56,617.19,521.76,616.26,521.2,616.13Z" transform="translate(-394.92 -373.65)"/><path class="d" d="M520.76,615.16c.09-.46.85-4.35-2.65-6.14a4.76,4.76,0,0,0-5.5,1,4.35,4.35,0,0,1,.09.66,7.88,7.88,0,0,1-.09,3,12.61,12.61,0,0,0,2.54,1.57,17.88,17.88,0,0,0,2.67,1,12.18,12.18,0,0,1,1.89-.71A7.18,7.18,0,0,1,520.76,615.16Z" transform="translate(-394.92 -373.65)"/><path class="c" d="M512.7,610.63c0-.26-.07-.46-.09-.66-.29-1.3-.91-1.5-.91-1.5s-.62.38-.56,2.21a1.06,1.06,0,0,0,0,.27,6.67,6.67,0,0,0,.65,2.92.47.47,0,0,0,.44.24c.16,0,.27-.22.36-.49a0,0,0,0,0,0,0A8.84,8.84,0,0,0,512.7,610.63Z" transform="translate(-394.92 -373.65)"/><path class="c" d="M521.2,616.13A7.27,7.27,0,0,0,523,615a8.24,8.24,0,0,0-2.25.18,9.38,9.38,0,0,0-1.07.27,14.94,14.94,0,0,0-1.89.71c-.51.27-.8.55-.69.91s.31.33.65.31a11.37,11.37,0,0,0,2.43-.75A9.07,9.07,0,0,0,521.2,616.13Z" transform="translate(-394.92 -373.65)"/><path class="c" d="M519.15,624.18a10.23,10.23,0,0,0-1.67-1.77,1.87,1.87,0,0,0-.51-.31.47.47,0,0,0-.49,0c-.13.13-.13.35,0,.62a2.58,2.58,0,0,0,.22.55,10.19,10.19,0,0,0,1.38,2,3.89,3.89,0,0,1,.27.31c.07,0,.13.13.2.18a3,3,0,0,0,1.74.86,3.42,3.42,0,0,0-.53-1.64,6.63,6.63,0,0,0-.38-.62A2.48,2.48,0,0,1,519.15,624.18Z" transform="translate(-394.92 -373.65)"/><path class="e" d="M514.44,618.23c.31,1.19-.67,2.5-2.2,2.9s-3-.26-3.36-1.46.67-2.5,2.23-2.9S514.12,617,514.44,618.23Z" transform="translate(-394.92 -373.65)"/><path class="b" d="M583.24,570s3.27-4.58-8.21-9.17c-8.5-3.4-20.21-2.7-27.66-3.71-6.23-.86-6.92-2.25-6.59-3.82.73-3.43,6.56-1.17,10.21.77,4,2.1,11,2.78,16.09-1.92a10.89,10.89,0,0,1,4.38-2.3s-3-1.92-5.5-.22a6.77,6.77,0,0,1-3.92,1.57c-3.65.27-4.34-.88-4.34-.88s1.87,1.24,6.45-1.08c5.94-3,2.38-9.64,2.38-9.64a4.19,4.19,0,0,1-2.11,4,5.82,5.82,0,0,1-6.45.2,4.51,4.51,0,0,0,3.45-.11c2.6-1,3.45-2.34,2.58-4.11a6.64,6.64,0,0,0-1.6-1.66s2.85,3.76-8.43,3c-5.76-.35-7.74,5.37-7.74,5.37a9.54,9.54,0,0,0-4.45,0,6.66,6.66,0,0,0-.47-3.25c-.6,3-2.87,4.84-3.92,6.1s-3.32,4.55-.47,8.44c2.83,3.27,7.94,3.74,11.19,4,4.81.35,12.77.77,19.83,1.75,9.52,1.3,7.86,5.84,6.7,7.23s-3.47,1.53-10.08-.77-13.51-6.39-27.3-5.86c-19,.73-32.6,14.57-39.57,13.82a9.72,9.72,0,0,1,.22,2.78c-.62,4.8-5,7.41-5,7.41s-.24-1-.62-1,0,1-1.6,2.19a7.16,7.16,0,0,0-2.8,4.58s-.78-1.53-1.22-.15a2.69,2.69,0,0,1-2,2s0-.91-.45-.88c-.6,0-.85,3.82-7.5,3.21l-.49.13c-4.87.82-5.74-3.93-7.45-5.61-1.14-1.08-2.51.88-2.51.88a4,4,0,0,1-.82-2.85c.13-1.95.49-2.61-.29-3.93-.6-1-3.14-3.16-2.2-6.81-1.16,0-3.47-.86-4.43-7.65-.07-.49.85.09.85.09-.18-1-1.09-1.41-1.27-2.61-.24-1.75-.49-5.15.47-6.32,1.47-1.81,5.52-2.45,3.6-6a2.71,2.71,0,0,1-.62,1,1.23,1.23,0,0,1-1,.4,1.26,1.26,0,0,1-1.2-1.3,1.93,1.93,0,0,1,.67-1.17s0,0,0-.07a3.44,3.44,0,0,0-1.74.35c.09-.77,1.42-4.89-2.09-5.79a3.34,3.34,0,0,1-.25,1.64,1.22,1.22,0,0,1-.76.69,1.28,1.28,0,0,1-1.6-.8,1.8,1.8,0,0,1,.25-1.33,4.88,4.88,0,0,0,.16-.53c-3.38.4-2.69,4.77-2.65,5.44-.07-1-2.14-3.76-4.09-2.5a1.21,1.21,0,0,0-.2.15,2.93,2.93,0,0,1,.62.66,1.24,1.24,0,0,1,.2,1,1.27,1.27,0,0,1-1.51.93c-.47-.11-.71-.46-1-.88,0,0,0-.07-.09-.11-.71.91-.6,2.54,1.29,4,2.83,2.1,3.76,10.68,3.32,11.8-.58,1.52-2.09-.66-2.09-.66a6.06,6.06,0,0,0,1.16,4c2.49,3.56,3.25,5.13,1.38,4.53a4.4,4.4,0,0,1-1.16-.73s.11,1.77,2.38,3.63c.91.73.78,1.13.13,1.06a2.83,2.83,0,0,1-1.33-.57,14.92,14.92,0,0,0,1.78,3.16,15.39,15.39,0,0,0,3.69,3.65,14.64,14.64,0,0,1-5.32-2c-4.67-2.72-2.72-4.62-4.12-7.82s-2.2-3.56-3.58-3.76h-.11a2.83,2.83,0,0,1,.18.69,1.25,1.25,0,0,1-.27,1,1.3,1.3,0,0,1-1.78.18,1.78,1.78,0,0,1-.51-1.26,2.46,2.46,0,0,0-1.18,2.72,9,9,0,0,0-3.78-2.56,4,4,0,0,0-2.38.49.2.2,0,0,1-.11,0,1,1,0,0,1,.22.18,1.23,1.23,0,0,1,.51.91,1.28,1.28,0,0,1-1.2,1.33,1.85,1.85,0,0,1-1.22-.57.78.78,0,0,0-.18-.11c-.82,1.46-.58,4.24,4.27,5.81,0,0-2.31.35-3.07,2.06a3.27,3.27,0,0,1,1.62.24,1.26,1.26,0,0,1-.11,2.34,1.92,1.92,0,0,1-1.36-.24.94.94,0,0,0-.22-.09c.56,2.41,2.54,2.78,4.21,2.76a26.48,26.48,0,0,1,12.84,3.36,3.62,3.62,0,0,0-2.43,1.22c-.91,1.15-.69,1.83-.69,1.83a5.07,5.07,0,0,1,2.45-.91c1.91-.33,2.29.35,2.29.35a2.91,2.91,0,0,0-1.71,3.89,8,8,0,0,1,2.87-1.83c1.45-.49,3.12-.38,3.76.55.91,1.3-3,2.56-3,2.56,2.69,1.59,8.59.82,8.59.82s-4.12.73-4.09,3.4c0,0,2.56-1.95,7.59,0,7.61,2.92,16.93,4.33,29.11-.57,15.38-6.21,15.8-19.38,37.16-26.39.69,1,5.5,5.48,11.53,7.69,4.83,1.79,11.68,3,13.75,3.49,3,.73,8.34,1.86,5.14,7.63a12.13,12.13,0,0,1-4.21,4.46c-.25,0-1.83-.49-4.12-1.3-1.33-.49-2.31-.18-2.74.71a2.23,2.23,0,0,1,1,.2,1.26,1.26,0,0,1,.64.66,1.14,1.14,0,0,1-.69,1.44,1.76,1.76,0,0,1-1.18-.18.17.17,0,0,0-.09,0,1.88,1.88,0,0,0,1.54,1.79,2.4,2.4,0,0,0-1.56,2.06,3.08,3.08,0,0,1,.82-.22,1.18,1.18,0,0,1,.89.29,1.12,1.12,0,0,1,.07,1.59,1.63,1.63,0,0,1-1.16.4s.07.07.13.09c.93,1.17,3.67.29,3.67.29a2.49,2.49,0,0,0,.22,2.41,3,3,0,0,1,.58-1.08,1.16,1.16,0,0,1,.85-.38,1.14,1.14,0,0,1,1.14,1.13,1.61,1.61,0,0,1-.56,1.06l-.16.2a1.75,1.75,0,0,0,.47,0c1.31-.2,3.2-1.39,4.09-4.22,1.07-3.25,2.14-4,2.14-4s2.76-2.59,1.71,2c2.74-.73,2.4-3.69,2.4-3.69s2.2,1,2.87.46c.91-.73,0-2.87,1.07-4.4,1.18-1.68,1.85.27,1.42,1.64a2.81,2.81,0,0,0,1.76-2.67c.09-1.39-.49-3,.85-4.22,1-.84,1.25.38,1,1.5,0,0,1.31.07,1.54-2.19.13-1.37-.2-1.81.2-2s.85,1.13.85,1.13a3.35,3.35,0,0,0-1.25-4.16c-4-2.61-14.22-.82-20.32-10.37-2.23-3.49-.58-5.11-.58-5.11s10.86,5.08,16.73,4.24c7.08-1,7.1-4.8,7.1-4.8s1.16.22.16,2.5a2.73,2.73,0,0,0,1.83-2,5.58,5.58,0,0,0-1.11-5.48C583.2,568,583.24,570,583.24,570Z" transform="translate(-394.92 -373.65)"/><path class="d" d="M433.68,588.68a1.25,1.25,0,0,0,.82-1.57,1.32,1.32,0,0,0-.69-.77,3.27,3.27,0,0,0-1.62-.24.62.62,0,0,0-.2,0,3.66,3.66,0,0,0-3.12,2.74,3.5,3.5,0,0,1,3.25-.51.68.68,0,0,1,.22.09A1.86,1.86,0,0,0,433.68,588.68Z" transform="translate(-394.92 -373.65)"/><path class="d" d="M432.39,578.93a1.28,1.28,0,0,0,1.2-1.33,1.23,1.23,0,0,0-.51-.91c-.07-.07-.16-.11-.22-.18a3.7,3.7,0,0,0-5.16,1.39,3.52,3.52,0,0,1,3.32.31,1.2,1.2,0,0,0,.18.11A1.7,1.7,0,0,0,432.39,578.93Z" transform="translate(-394.92 -373.65)"/><path class="d" d="M440.82,577.1a1.28,1.28,0,0,0,1.78-.18,1.25,1.25,0,0,0,.27-1,2.51,2.51,0,0,0-.2-.66,3.6,3.6,0,0,0-.6-1,3.66,3.66,0,0,0-4-1.11,3.43,3.43,0,0,1,2.25,2.65A1.76,1.76,0,0,0,440.82,577.1Z" transform="translate(-394.92 -373.65)"/><path class="d" d="M459.29,557.31a1.26,1.26,0,0,0,1.2,1.3,1.31,1.31,0,0,0,1-.4,2.71,2.71,0,0,0,.62-1,3.08,3.08,0,0,0,.2-.64,3.62,3.62,0,0,0-1.58-3.82,3.39,3.39,0,0,1-.71,3.34s0,0,0,.07A1.84,1.84,0,0,0,459.29,557.31Z" transform="translate(-394.92 -373.65)"/><path class="d" d="M453.6,552.14a1.25,1.25,0,0,0,1.6.8,1.23,1.23,0,0,0,.76-.69,3.11,3.11,0,0,0,.27-1.64.32.32,0,0,0,0-.15,3.63,3.63,0,0,0-2.76-3.09,3.43,3.43,0,0,1,.58,2.94c0,.18-.09.33-.16.53A1.66,1.66,0,0,0,453.6,552.14Z" transform="translate(-394.92 -373.65)"/><path class="d" d="M446.39,556a1.27,1.27,0,0,0,1.51-.93,1.24,1.24,0,0,0-.2-1,2.89,2.89,0,0,0-.62-.66,5.79,5.79,0,0,0-.8-.46,3.71,3.71,0,0,0-4.09.8,3.45,3.45,0,0,1,3.14,1.3l.09.09A1.66,1.66,0,0,0,446.39,556Z" transform="translate(-394.92 -373.65)"/><path class="d" d="M551.42,604.42a1.14,1.14,0,0,0,.69-1.44,1.12,1.12,0,0,0-.65-.66,2.57,2.57,0,0,0-1-.2,2.88,2.88,0,0,0-.62,0,3.27,3.27,0,0,0-2.71,2.56,3.17,3.17,0,0,1,3-.51.17.17,0,0,1,.09,0A1.68,1.68,0,0,0,551.42,604.42Z" transform="translate(-394.92 -373.65)"/><path class="d" d="M551.82,608.13a1.18,1.18,0,0,0-.89-.29,3.08,3.08,0,0,0-.82.22,3.62,3.62,0,0,0-.69.42,3.26,3.26,0,0,0-1.2,3.51,3.13,3.13,0,0,1,2.49-1.88h0a1.6,1.6,0,0,0,1.16-.4A1.12,1.12,0,0,0,551.82,608.13Z" transform="translate(-394.92 -373.65)"/><path class="d" d="M557.32,612.57a1.14,1.14,0,0,0-1.13-1.13,1.25,1.25,0,0,0-.85.38,2.68,2.68,0,0,0-.58,1.08,3,3,0,0,0-.11.42,3.3,3.3,0,0,0,1.56,3.4,3.13,3.13,0,0,1,.4-2.9.6.6,0,0,1,.16-.18A1.76,1.76,0,0,0,557.32,612.57Z" transform="translate(-394.92 -373.65)"/><path class="b" d="M552.07,591.75c-12.4-2.34-15-3.89-20-8.71-.51.24-2.47,3.71,2.8,8.71a10.82,10.82,0,0,0,4.07,2.54,33.7,33.7,0,0,0-8.3-.18c-2.2-.62-3.78-3.38-6.7-4.51a2.85,2.85,0,0,0-2.4,0,2.63,2.63,0,0,1,.87.55,1.12,1.12,0,0,1-.82,1.95,1.76,1.76,0,0,1-1-.6l-.27-.24a3,3,0,0,0,1,2.7,2.78,2.78,0,0,0-3,2.17,2.56,2.56,0,0,1,1.25-.24,1.1,1.1,0,0,1,.85.4,1.12,1.12,0,0,1-.16,1.59,1.64,1.64,0,0,1-1.2.24,2.83,2.83,0,0,0-.62.07c0,.07,0,.13.09.15.91,2.72,5.1.73,5.1.73s-2.14,1.55-1,3.43a3.11,3.11,0,0,1,.47-.75,1.18,1.18,0,0,1,.85-.4,1.1,1.1,0,0,1,1.14,1.11,1.65,1.65,0,0,1-.58,1.08,1.92,1.92,0,0,0-.27.38c2.94,1.11,5.3-3.29,5.3-3.43a3.73,3.73,0,0,0,2.45,3.93,2.15,2.15,0,0,1,1-2.28,7,7,0,0,1,3.92-.75c-.4,1.61.2,2.34,1.09,2.63.22-3.4,6.61-3.51,6.61-3.51a2.84,2.84,0,0,0,1.8,1.77,3.66,3.66,0,0,1,1.29-2.85c1.4-1.06,3.69-1.1,6.12-2.45C556.74,595.38,556.14,592.3,552.07,591.75Z" transform="translate(-394.92 -373.65)"/><path class="d" d="M525.19,602.43a1.12,1.12,0,0,0-2-.71,2.54,2.54,0,0,0-.47.75,4,4,0,0,0-.22.73,3.3,3.3,0,0,0,1.56,3.4,3.05,3.05,0,0,1,.29-2.7,4.38,4.38,0,0,1,.27-.4A1.57,1.57,0,0,0,525.19,602.43Z" transform="translate(-394.92 -373.65)"/><path class="d" d="M520.31,597.85a1.14,1.14,0,0,0,.16-1.59,1,1,0,0,0-.85-.4,2.84,2.84,0,0,0-1.25.24c-.11,0-.22.11-.36.18a3.27,3.27,0,0,0-1.67,3.34,3.1,3.1,0,0,1,2.14-1.46,2.82,2.82,0,0,1,.62-.07A1.63,1.63,0,0,0,520.31,597.85Z" transform="translate(-394.92 -373.65)"/><path class="d" d="M521.6,592.08a1.15,1.15,0,0,0,1.18-1.08,1.13,1.13,0,0,0-.36-.86,2.74,2.74,0,0,0-.87-.53,3.21,3.21,0,0,0-.6-.2,3.33,3.33,0,0,0-3.47,1.39,3.18,3.18,0,0,1,2.8.46l.27.22A1.7,1.7,0,0,0,521.6,592.08Z" transform="translate(-394.92 -373.65)"/><path class="b" d="M498.64,567.86c.53-4.42-2.54-4.11-2.54-4.11a4.75,4.75,0,0,0,1.62-2.45c.73-2.74-.89-6.34-.89-6.34s-1.69,3-3.69.88a5.14,5.14,0,0,0,.93-3.85c-.2.75-6.43,5.44-8.19-3-3.54.77-3.23,4.18-5.39,3.91-1.16-.13-2.31-1.06-1.45-3.25a4,4,0,0,0-3.65,3.45c-.58,4.07-2.58-1.37-5.3-1.17,0,0-2,2.14-1.91,6.68-2.45.11-3.56,2-3.78,5-.69,8.64-3,5.79-3,6,.76,5.33,3.78,2.5,3.78,2.5-.51,3.71-3.89,1.68-3.89,1.68,1,5.68,3.38,3.8,3.38,3.8-1.09,4.73.71,6,1.36,6.87a3.84,3.84,0,0,1,.91,3.65,9.37,9.37,0,0,0-.16,2.48s1.45-1.46,2.47-.35c1.58,1.66,2.54,6.7,6.19,6.08,0,0-.44-2.21.36-2.21s1,1.95,1,1.95c1,.11,3.74.53,5.27-1.41.91-1.15,1.13-2.81,2.09-2.74.73.07.8,1.41.8,1.41.65-.4.76-.75,1.07-2.32.36-2,1.36.11,1.36.11a5.16,5.16,0,0,1,2.38-3.58c1.71-1.08,1.22-4,2.25-4.8s1.36,2.39,1.36,2.39a7.59,7.59,0,0,0,2.43-7.8c-.58-2.21-1.22-4.09-.49-4.27s.53,2,2,2.83c1,.62,2.65-.24,2.65-.24C498.1,573.6,498.39,570,498.64,567.86Zm-26.21-3.23v-.38l.16.09,2.36,1a1.81,1.81,0,0,0-.42.49,1.44,1.44,0,0,0,2.56,1.33,1.53,1.53,0,0,0,.11-.88h0a2.47,2.47,0,0,1,1.47,2.54,10.29,10.29,0,0,1-1.09,3.27s-.78-.35-.36-1.68c.47-1.61.24-1.64.24-1.64a5,5,0,0,1-2.89-.29l-.13-.09A4.25,4.25,0,0,1,472.42,564.63Zm10.15,16.58c-1.74,1.48-1.42,3.71-1.8,5.26a3.32,3.32,0,0,1-4.07,2.41c-1.62-.27-3.16-1.24-3.29-2.94-.16-2,3.12-4.53,1-7-1.69-2-1.6-3-1.6-3a4.46,4.46,0,0,0,1.56,1.22c.38.2,3.72,1.75,4.36-.8.16-.64-.33-1-.73-1.3a5.4,5.4,0,0,1-.78-.55,1.1,1.1,0,0,1-.09-1.26,4.29,4.29,0,0,0,2.51,1.46,5.46,5.46,0,0,0,3.07-.46,1,1,0,0,1-1,1.33c-.71.09-1.78.13-1.89,1-.42,2.94,3.85,2.32,5.14,2.1,1-.18,1.54-.31,1.54-.31C485.71,579.64,484.15,579.88,482.57,581.21Zm7.9-13.31-.07.18a4.44,4.44,0,0,1-3.32,2.7l-.13,0a5,5,0,0,1-2.8-.84s-.22-.07-.42,1.59c-.13,1.37-1,1.39-1,1.39a10.19,10.19,0,0,1,.27-3.45,2.43,2.43,0,0,1,2.31-1.77h0a1.51,1.51,0,0,0-.24.88,1.47,1.47,0,0,0,1.56,1.3,1.46,1.46,0,0,0,1.34-1.55,1.56,1.56,0,0,0-.2-.62h2.58l.18,0Z" transform="translate(-394.92 -373.65)"/><path class="d" d="M476.34,587.82c3.67,1,3.74-2.85,3.78-3.58.24-3.87,2.94-4.18,3.4-4.62-1.25.24-3.78.15-4.58-1.28a4.62,4.62,0,0,1-4,0,5.06,5.06,0,0,1,1,1.57,4.42,4.42,0,0,1-.36,3C475.16,583.75,473,587,476.34,587.82Z" transform="translate(-394.92 -373.65)"/><path class="b" d="M573.61,523.16c-29.71-1-37.21-9.37-37.21-9.37s-3.4,5.61,10.24,11.52c0,0-4.61-.75-7.19-.86a31.21,31.21,0,0,0-6.28.44s-3.43-3.12-5.83-4a3.71,3.71,0,0,0-3.18,0,2.61,2.61,0,0,1,.93.55,1.19,1.19,0,0,1,.42.93,1.25,1.25,0,0,1-1.25,1.24,1.93,1.93,0,0,1-1.18-.62c-.13-.11-.27-.18-.38-.29a2.59,2.59,0,0,0,1.18,3.18c-3.45.75-4.47,1.61-4.49,3.34a2.6,2.6,0,0,1,1.11-.29,1.18,1.18,0,0,1,1,.35,1.22,1.22,0,0,1,0,1.75,1.71,1.71,0,0,1-1.27.38,1.51,1.51,0,0,1-.29,0c.71,1.24,2.27,1.88,4.45,1.13a8.34,8.34,0,0,0,1.27-.49s-1.87,2.12-1.07,4.16a2.48,2.48,0,0,1,.64-.71,1.12,1.12,0,0,1,1-.24,1.23,1.23,0,0,1,1,1.44c-.09.44-.42.71-.85,1l-.27.24a7.94,7.94,0,0,0,.89.31c1.91.53,3.49-1.06,4.78-2.63,2.6-3.14,5.16-2.19,5.16-2.19-1.74,1.72-.11,3.8-.11,3.8s1.42-3.34,3.78-2.39c-.47,2,1.58,3.16,1.58,3.16s1.22-3.27,2.8-3.27c2.09,0,1,3.16,1,3.16s1.13-.15,2.94-1.92c1.18-1.17,2.2-2.45,4.63-2.28a4.28,4.28,0,0,0,2.45,3.65c-.07-7.8,11-8.86,12.86-9.22C574.16,527.23,573.61,523.16,573.61,523.16Z" transform="translate(-394.92 -373.65)"/><path class="d" d="M524.27,523.65a1.24,1.24,0,0,0,1.25-1.24,1.19,1.19,0,0,0-.42-.93,2.62,2.62,0,0,0-.93-.55,4,4,0,0,0-.69-.2,3.72,3.72,0,0,0-3.78,1.66,3.53,3.53,0,0,1,3,.33,2.42,2.42,0,0,0,.38.29A1.86,1.86,0,0,0,524.27,523.65Z" transform="translate(-394.92 -373.65)"/><path class="d" d="M521.47,531.08a1.22,1.22,0,0,0-.93-2.1,2.6,2.6,0,0,0-1.11.29,3,3,0,0,0-.58.33,3.54,3.54,0,0,0-1.49,3.8,3.41,3.41,0,0,1,2.58-1.88l.29,0A1.8,1.8,0,0,0,521.47,531.08Z" transform="translate(-394.92 -373.65)"/><path class="d" d="M527.17,536.78a1.22,1.22,0,0,0-1-1.44,1.09,1.09,0,0,0-1,.26,2.5,2.5,0,0,0-.65.71,4.1,4.1,0,0,0-.4.75,3.55,3.55,0,0,0,1,4,3.36,3.36,0,0,1,1-3l.27-.24A1.92,1.92,0,0,0,527.17,536.78Z" transform="translate(-394.92 -373.65)"/><path class="d" d="M470.24,513.06c4.12,1.41,4.52-2.92,4.65-3.71.62-4.38,3.72-4.49,4.27-4.93-1.45.15-4.32-.15-5.12-1.9a5.22,5.22,0,0,1-4.54-.38,5.37,5.37,0,0,1,.93,1.88,4.91,4.91,0,0,1-.67,3.38C469.29,508.33,466.53,511.78,470.24,513.06Z" transform="translate(-394.92 -373.65)"/><path class="b" d="M497.81,486.58c1.25-3-.27-8.51-.27-8.51s-2.49,3.91-4.58,1.81c-2-1.95.13-5,.13-5-2.38-.77-4.41,2.48-7.37.88-2.07-1.13.36-4.84.36-4.84a11.82,11.82,0,0,0-4.83,1c-2.09,1-3,1.86-4.45,1.81-2-.07-1.29-3.32-1.29-3.32a4.45,4.45,0,0,0-3.74,2.37,7,7,0,0,1-2.94,3c-.64-1-2.07-1-3.14-1.35a7.25,7.25,0,0,1-2-.88s-2.2,4.2-1.18,7.69c-1.67.44-2.11,2.28-2.38,3.21-1.91,6.92-4.78,3.85-4.76,4,.53,6.12,4.09,5.92,3.78,7.36-.42,1.92-3.72-.71-3.72-.71.09,4.31,2,4.6,2.83,7.16.69,2.23-.71,3.71.42,7.14s.31,4.84.31,4.84a5.64,5.64,0,0,0,4-1.68c-.49,4.53,1.67,6.68,1.67,6.68s1.34-2.76,1.91-.93c1.51,4.93,4,6.68,4,6.68s2.25-.07,6.21-4.24c2.78-2.9,1.51.84,1.51.84s1.94.18,5.94-7.14c1.31-2.36,3.47-3.74,4.25.11,4.58-4.93,3-10.26,3-12.11,0-1.66.82-1.86.89-1.11.47,4.55,5.27,3,5.27,3s-2-2,0-8.91a9.79,9.79,0,0,0-.93-6.83S497.57,487.13,497.81,486.58Zm-29.89-.24,0-.2,0-.22.18.11,2.63,1.35a1.53,1.53,0,0,0-.53.53,1.61,1.61,0,0,0,.53,2.25,1.64,1.64,0,0,0,2.25-.53,1.37,1.37,0,0,0,.2-1l0,0a2.78,2.78,0,0,1,1.42,3,11.2,11.2,0,0,1-1.54,3.63s-.82-.49-.24-1.92c.67-1.79.4-1.83.4-1.83a5.69,5.69,0,0,1-3.25-.6l-.2-.11A5,5,0,0,1,467.93,486.34Zm10,19.78c-2.11,1.52-2,4.09-2.54,5.81a3.73,3.73,0,0,1-4.83,2.37c-1.85-.44-3.49-1.68-3.49-3.65,0-2.23,4-4.89,1.82-7.85-1.76-2.43-1.56-3.49-1.56-3.49a5.56,5.56,0,0,0,1.69,1.53c.42.27,4,2.32,5-.51.24-.71-.27-1.17-.73-1.57a6.32,6.32,0,0,1-.82-.71,1.33,1.33,0,0,1,0-1.46,4.91,4.91,0,0,0,2.74,1.88,6.18,6.18,0,0,0,3.54-.24,1.12,1.12,0,0,1-1.2,1.41c-.82,0-2,0-2.27,1-.76,3.34,4.18,3,5.67,2.87a16.44,16.44,0,0,0,1.76-.2C481.66,504.64,479.85,504.75,477.94,506.12Zm10.24-14.41-.11.18a5,5,0,0,1-4,2.78h-.18a5.67,5.67,0,0,1-3.09-1.19s-.25-.11-.62,1.77c-.29,1.52-1.25,1.5-1.25,1.5a11,11,0,0,1,.62-3.89,2.84,2.84,0,0,1,2.83-1.81h0a1.62,1.62,0,0,0-.36,1,1.66,1.66,0,0,0,3.32,0,1.46,1.46,0,0,0-.2-.71l2.94.22h.2Z" transform="translate(-394.92 -373.65)"/><path class="b" d="M608.77,519.94s.27-4.2-2.8-5.3c-4-1.46-9.21.42-19.54-.53-25.06-2.34-22-11.34-22-11.34s15.76,7,22.43,3.71c3.69-1.79,3.45-5,3.45-5,1,1.22-.09,3.58-.09,3.58s6.45-4.73-1.22-12.09c-2.78-2.65-7.88-4.62-11.73-5.13-11-1.44-15.24-.84-23-1.9-6.5-.91-8-3.18-7.63-5,1-5.35,13.13,2.25,19.78-.66,1.78-.8,3.25-2,4.78-2.41a7,7,0,0,1,3.25.13s-1.56-2.81-6.72-1.72c-4.23.88-4.56-.53-4.56-.53a8.34,8.34,0,0,0,4.54-1.33c1.65-1,2.11-3,3.92-3.8a6.4,6.4,0,0,1,4.45-.07,6.18,6.18,0,0,0-8.46-2c-3.78,2.45-5.16.64-5.16.64A5.42,5.42,0,0,0,567,466c1.4-2.79,3.2-3.23,3.2-3.23a4.81,4.81,0,0,0-5.25,1c-1.56,1.5-3.83,1.95-7.72,1.9-4.94-.07-6.92,5.77-6.92,5.77a10.43,10.43,0,0,0-3.65,1,16,16,0,0,0-3.18,2.41l.62-1.9s-3.67,1.81-3.76,7.4c-.18,9.44,10.13,10.19,13.51,10.45,5,.38,14.58.64,21.9,1.64,9.92,1.35,10.19,5.9,8.88,8-1.45,2.34-5.52,1.15-12.42-1.26s-12.71-6.37-26.64-5.92c-22,.71-45.28,16.27-52,12.29.33,2.54-.27,7.76-6.05,12.42-.22-3.89-1.42-3.38-2.74-1-3.69,6.59-7.52,7.25-7.52,7.25s.71-2.23-1.78-.09a11.16,11.16,0,0,1-5.39,2.54,11.77,11.77,0,0,1-4.32-6.41c-.11-.49-.71,1.24-.71,1.24-2.94-1.41-3.63-6-3.63-6s-1.4.91-4.61.38c0,0,1.8-2-.22-7.1-4,0-20-2.76-22-10.94-.73-3.05-1.65-4.51-3.58-4.64a2.25,2.25,0,0,1,.4.57,1.31,1.31,0,0,1,.09,1.08,1.34,1.34,0,0,1-1.74.77,1.92,1.92,0,0,1-.93-1.08,3.17,3.17,0,0,0-.31-.44c-1.56,1.22-1.07,3.78-1.07,3.78-1.8-1.5-5.5-4-7.66-2.45a3,3,0,0,1,1,.62,1.41,1.41,0,0,1-1,2.48,2.05,2.05,0,0,1-1.36-.71c-.22-.15-.42-.31-.62-.42-1.91,3.07,4.27,6.41,4.27,6.41-2.34-.13-5.72,1.7-5.63,3.82a2.87,2.87,0,0,1,1-.33,1.33,1.33,0,0,1,1,.33,1.3,1.3,0,0,1,.11,1.86,1.91,1.91,0,0,1-1.34.51.81.81,0,0,0-.24,0c.6,1.28,1.69,2.1,4.74,1.28,7.32-2.06,12.31-.75,12.31-.75s-.22,2.43-3.54,1.79a5.26,5.26,0,0,0,4.29,1.83,10.66,10.66,0,0,0,6.08-1.59,1.44,1.44,0,0,1-.93,1.48c-2.36,1.19-.82,3.78-.82,3.78,1.29-2.87,3.65-1.75,3.65-1.75a2.67,2.67,0,0,0,.42,3.51s.16-1.66,2.76-2.32a5.65,5.65,0,0,1,3.34.2,3.86,3.86,0,0,0,.31,4.53s.76-3.47,3.18-2.45a1.34,1.34,0,0,1,.58,2,2.7,2.7,0,0,1-1.54.88c3.76,1.79,4.72-1.17,7.61,1.53-3.74,1.7-8.41,2-12.73,1.81-9.06-.77-10.93-2.54-13.06-4.49-2.92-2.76-5.21-3.05-6.59-2.63a2.49,2.49,0,0,1,.47.33,1.49,1.49,0,0,1,.49,1.06,1.43,1.43,0,0,1-1.42,1.44,2.14,2.14,0,0,1-1.36-.73l-.33-.24c-.8,1.37.67,2.61,1.11,3.21-.53-.09-1.2-.22-1.69-.33-1.91-.42-3.54.29-4,1.7a3.55,3.55,0,0,1,1.54.11,1.52,1.52,0,0,1,.91.75,1.41,1.41,0,0,1-.69,1.88,2.08,2.08,0,0,1-1.54-.09c-.2,0-.36-.07-.53-.09.56,2.45,3.4,2.74,5.56,2.85-1,.62-2.16,1.55-1.91,3a2.73,2.73,0,0,1,1-.62,1.38,1.38,0,0,1,1,.07,1.27,1.27,0,0,1,.51,1.72,1.89,1.89,0,0,1-1.13.73c-.13,0-.24.11-.36.15,1.76,1.86,6.05-.57,7.25-1.26,3.43-1.95,6.39-1.59,8.08-.77,3.18,1.57-1.11,2.9-1.11,2.9,1,.84,2.76.44,3.81,0s1.89-1.15,2.34-.51c.27.4.11,1.13-.6,1.77a3.54,3.54,0,0,1-1.38.64c4,1.52,7.7-2.12,7.7-2.12a1.66,1.66,0,0,1-.07,1.44,3.91,3.91,0,0,1-2.07,2.1c4.32,1.3,6.54-3.82,6.54-3.82s2.07,1.57-.47,3.82c3.56.11,4-2.79,5.76-1.68,1,.66.49,2.12-1,2.41,4.09,1.39,3.76-2.25,8.52-1.46,7,1.19,15,2.21,27.24-2.5,18.83-7.16,20.76-23.65,41.37-25.93,0,0,1.74,3.58,15.84,7.38,15,4,37.94.91,36.92,8-.51,3.6-10.75-1.57-12,2a.69.69,0,0,0,0,.18,2.82,2.82,0,0,1,1.14,0,1.36,1.36,0,0,1,.87.57,1.24,1.24,0,0,1-.4,1.7,1.83,1.83,0,0,1-1.34.07h-.16a2.85,2.85,0,0,0,2.09,1.35c-1.22.66-2,1.15-2,2.74V535a2.42,2.42,0,0,1,.73-.4,1.28,1.28,0,0,1,1,0,1.26,1.26,0,0,1,.53,1.68,1.84,1.84,0,0,1-1.11.73l-.16.07a2.88,2.88,0,0,0,2.83.71,4,4,0,0,0,1.8-1,4.1,4.1,0,0,0-.67,3,1.68,1.68,0,0,0,.56,1,2.85,2.85,0,0,1,.44-1.13,1.28,1.28,0,0,1,.87-.55,1.24,1.24,0,0,1,1.4,1.06,1.67,1.67,0,0,1-.47,1.24c0,.07-.07.11-.09.18,2.63.09,4.94-3.38,5.43-6.41.58-3.87,1.78-3.27,1.78-3.27a2.45,2.45,0,0,0,.73,1.46,2.61,2.61,0,0,0,1.56.75c-.11-2.63,1.85-3.45,2.69-2.7s.16,2.3.16,2.3,1.33.46,2.91-2.19c.89-1.41.82-3.25,1.87-3.36,1.42,0,.85,1.72.85,1.72,3.32-1.77,1.25-7,2.54-7.6,1-.26.62,1.64.62,1.64a3,3,0,0,0,1.47-3.36C607.12,517.2,608.77,519.94,608.77,519.94Z" transform="translate(-394.92 -373.65)"/><path class="d" d="M418.77,509.35a1.32,1.32,0,0,0-.13-1.86,1.45,1.45,0,0,0-1-.33,2.87,2.87,0,0,0-1,.33,3.62,3.62,0,0,0-.73.44,3.83,3.83,0,0,0-1.29,4.18,3.61,3.61,0,0,1,2.67-2.21.94.94,0,0,1,.24,0A1.91,1.91,0,0,0,418.77,509.35Z" transform="translate(-394.92 -373.65)"/><path class="d" d="M419.86,498.45a1.41,1.41,0,0,0,.93-2.48,3,3,0,0,0-1-.62,5.35,5.35,0,0,0-.85-.26,4.17,4.17,0,0,0-4.32,1.9,4,4,0,0,1,3.29.31,4.76,4.76,0,0,1,.62.44A2.05,2.05,0,0,0,419.86,498.45Z" transform="translate(-394.92 -373.65)"/><path class="d" d="M429.72,495.53a1.35,1.35,0,0,0,1.74-.77,1.39,1.39,0,0,0-.07-1.08,2.1,2.1,0,0,0-.42-.6,3.66,3.66,0,0,0-1-.8,3.87,3.87,0,0,0-4.41.26,3.66,3.66,0,0,1,2.87,1.48,2.19,2.19,0,0,1,.29.44C429,495,429.27,495.38,429.72,495.53Z" transform="translate(-394.92 -373.65)"/><path class="d" d="M426.47,534.59a1.26,1.26,0,0,0-1.54-1.79,2.85,2.85,0,0,0-1,.62,3.88,3.88,0,0,0-.42.44,3.64,3.64,0,0,0-.36,4.13,3.4,3.4,0,0,1,1.85-2.52c.11,0,.22-.11.36-.15A2,2,0,0,0,426.47,534.59Z" transform="translate(-394.92 -373.65)"/><path class="d" d="M426.78,521.42a1.41,1.41,0,0,0,1.42-1.41,1.43,1.43,0,0,0-.47-1.06,1.78,1.78,0,0,0-.47-.33,4,4,0,0,0-1.42-.53,4.16,4.16,0,0,0-4.32,1.9,4,4,0,0,1,3.58.49l.33.24A2.1,2.1,0,0,0,426.78,521.42Z" transform="translate(-394.92 -373.65)"/><path class="d" d="M422.29,527.76a1.41,1.41,0,0,0,.69-1.88,1.52,1.52,0,0,0-.91-.75,3.52,3.52,0,0,0-1.54-.11,2.5,2.5,0,0,0-.56.11,4.1,4.1,0,0,0-3.07,3.56,4,4,0,0,1,3.32-1.11,5.26,5.26,0,0,1,.53.09A2,2,0,0,0,422.29,527.76Z" transform="translate(-394.92 -373.65)"/><path class="d" d="M579.17,530.35a1.22,1.22,0,0,0,.4-1.7,1.32,1.32,0,0,0-.85-.57,2.82,2.82,0,0,0-1.14,0,2.76,2.76,0,0,0-.64.18,3.65,3.65,0,0,0-2.34,3.38,3.36,3.36,0,0,1,3-1.24.44.44,0,0,0,.16,0A2.13,2.13,0,0,0,579.17,530.35Z" transform="translate(-394.92 -373.65)"/><path class="d" d="M580,536.27a1.23,1.23,0,0,0-.53-1.66,1.12,1.12,0,0,0-1,0,3,3,0,0,0-.73.4,4.07,4.07,0,0,0-.71.66,3.57,3.57,0,0,0-.27,4.09,3.37,3.37,0,0,1,2-2.61l.13-.07A2.26,2.26,0,0,0,580,536.27Z" transform="translate(-394.92 -373.65)"/><path class="d" d="M586,540.14a1.24,1.24,0,0,0-2.27-.51,3,3,0,0,0-.45,1.13,2.68,2.68,0,0,0-.07.57,3.59,3.59,0,0,0,2.16,3.47,3.32,3.32,0,0,1,.09-3.25c0-.07.07-.11.09-.18A1.85,1.85,0,0,0,586,540.14Z" transform="translate(-394.92 -373.65)"/><path class="d" d="M419,422.57a1.42,1.42,0,0,0,1.51-2.19,4.86,4.86,0,0,0-.31-.4,4,4,0,0,0-1.31-.88,4.19,4.19,0,0,0-4.65.84,4,4,0,0,1,3.63,1.64s0,0,0,.07A1.92,1.92,0,0,0,419,422.57Z" transform="translate(-394.92 -373.65)"/><path class="b" d="M571.87,450.29c-25.9-.77-34.47-10.08-34.47-10.08s-4.36,6.61,6.39,10.92a26.94,26.94,0,0,0-4.56-.75c-3-.26-4.34-.29-4.34-.29a10.35,10.35,0,0,0-6.3-4.11,10.14,10.14,0,0,0-3.14-.11.6.6,0,0,1,.18.15,1.18,1.18,0,0,1,.36,1,1.25,1.25,0,0,1-1.33,1.13,1.86,1.86,0,0,1-1.11-.73,3.85,3.85,0,0,0-.49-.4l-.13.13a2.8,2.8,0,0,0-.36,3.12c-3.69.49-4.9,1.64-5.21,3.14a3.62,3.62,0,0,1,1.8-.13,1.32,1.32,0,0,1,.82.6,1.25,1.25,0,0,1-.51,1.7,1.68,1.68,0,0,1-1.31,0,5.66,5.66,0,0,0-.82-.07c.36,1.95,2.69,3.34,6.41,1.79.91-.38-2.27,1.1-1,4.35A2.6,2.6,0,0,1,523,461a1.19,1.19,0,0,1,.85-.6,1.24,1.24,0,0,1,1.45,1,1.7,1.7,0,0,1-.42,1.26,3.62,3.62,0,0,0-.36.91,0,0,0,0,1,0,0c3.14,1.37,6.45-2.41,6.88-4.16a5.37,5.37,0,0,0,1.69,3.23,4.45,4.45,0,0,1,.93-1.75c1.38-1.48,1.22.29,1.22.29,0,2.7,1.71,3.14,1.71,3.14s-.27-3.09,2.16-3.6c1,3.34,4.7-1.77,4.29-.24-.82,3.38.67,4.4.67,4.4s.31-4,8.48-4.51a4.25,4.25,0,0,0,2.29,3.74c.58-7.8,11.73-7.89,13.57-8.2C573.76,455.11,571.87,450.29,571.87,450.29Z" transform="translate(-394.92 -373.65)"/><path class="d" d="M524.65,448.1A1.23,1.23,0,0,0,526,447a1.21,1.21,0,0,0-.36-1,.6.6,0,0,0-.18-.15,3.4,3.4,0,0,0-1.4-.73,3.63,3.63,0,0,0-3.87,1.35A3.47,3.47,0,0,1,523,447a3.85,3.85,0,0,1,.49.4A1.87,1.87,0,0,0,524.65,448.1Z" transform="translate(-394.92 -373.65)"/><path class="d" d="M518.15,455.55a1.69,1.69,0,0,0,1.31,0,1.23,1.23,0,0,0,.49-1.68,1.18,1.18,0,0,0-.82-.6,3.38,3.38,0,0,0-1.8.13,3.54,3.54,0,0,0-2.47,3.25,3.42,3.42,0,0,1,2.47-1.15A3.55,3.55,0,0,1,518.15,455.55Z" transform="translate(-394.92 -373.65)"/><path class="d" d="M525.3,461.43A1.24,1.24,0,0,0,523,461a1.73,1.73,0,0,0-.27.62,3.85,3.85,0,0,0-.18,1.13,3.61,3.61,0,0,0,2.31,3.38,3.36,3.36,0,0,1,0-3.43C525.14,462.22,525.39,461.87,525.3,461.43Z" transform="translate(-394.92 -373.65)"/><path class="b" d="M495.88,418.19c.91-4.2-2.43-4.29-2.43-4.29a5.44,5.44,0,0,0,2-2.72c1-3.12-.78-7.29-.78-7.29S493.52,407,490,405.5c0,0,1.71-2,.36-5.72a4.17,4.17,0,0,1-2,2.32c-1.76,1-3.81.82-4.54-.46-.64-1.13-.11-2.67,1.2-3.76a9.48,9.48,0,0,0-4.67-.09,26.67,26.67,0,0,0-5.36,2.74,3.64,3.64,0,0,1-1.11-4.2,4.34,4.34,0,0,0-4.43,3.47,2.42,2.42,0,0,1-1.91,1.81,4.1,4.1,0,0,0-2.65-3.4,11.28,11.28,0,0,0-4.43,9.06c-1.65.49-2.29,2.37-2.45,3.32-2,12.11-5.18,6.37-5.16,6.56.67,6.1,4.87,5.24,4.87,5.24-.73,4.24-5.18,2-5.18,2,1.62,6.17,5.39,3.6,5.39,3.6-2.65,4.55-.64,8,.78,11.52a14.6,14.6,0,0,1,1.45,5.95,8.62,8.62,0,0,1,2.74-.93c1.36,0,.91,1.48,1,3.29.07,2.59,1.13,3.36,1.13,3.36a4.39,4.39,0,0,1,.58-1.15c.69-1.06,1.07-.91,1.07-.91s-.36,3.25,1.76,4.84c0,0,3-4.33,4.67-4,1.09.2,1.76,2.85,1.76,2.85,8.66-5.44,9.81-17.35,11.46-13.11a7.35,7.35,0,0,1,.49,2s5.27-3.12,4.72-14.7a6.38,6.38,0,0,0,2.58,1.39,3.62,3.62,0,0,0,2.56-.07S494.34,425.2,495.88,418.19Zm-29.24-4.82,0-.22,0-.22.18.11,2.65,1.3a1.53,1.53,0,0,0-.53.53,1.6,1.6,0,0,0,.58,2.23,1.64,1.64,0,0,0,2.25-.55,1.68,1.68,0,0,0,.2-1h0a2.79,2.79,0,0,1,1.47,3,11.16,11.16,0,0,1-1.47,3.65s-.87-.46-.29-1.92c.64-1.81.38-1.83.38-1.83a5.65,5.65,0,0,1-3.29-.55l-.13-.09A5,5,0,0,1,466.64,413.37ZM477,433c-2.09,1.57-1.91,4.13-2.45,5.86a3.72,3.72,0,0,1-4.78,2.45c-1.82-.42-3.52-1.64-3.54-3.58,0-2.23,3.85-4.93,1.67-7.87-1.78-2.41-1.6-3.47-1.6-3.47a5.19,5.19,0,0,0,1.69,1.48c.45.26,4.12,2.25,5-.57.24-.73-.27-1.19-.73-1.57a5,5,0,0,1-.85-.69,1.27,1.27,0,0,1,0-1.44,4.82,4.82,0,0,0,2.76,1.83,6.21,6.21,0,0,0,3.52-.31,1.12,1.12,0,0,1-1.18,1.44c-.82,0-2,0-2.25,1-.69,3.34,4.25,2.92,5.74,2.76a14,14,0,0,0,1.74-.24C480.68,431.43,478.9,431.58,477,433Zm10-14.59-.09.18c-.16.31-1.45,2.72-4,2.83l-.18,0a5.7,5.7,0,0,1-3.12-1.15s-.25-.11-.6,1.77c-.22,1.53-1.22,1.5-1.22,1.5a11.33,11.33,0,0,1,.56-3.89,2.82,2.82,0,0,1,2.78-1.86h0a1.61,1.61,0,0,0-.33,1,1.65,1.65,0,0,0,3.29,0,1.54,1.54,0,0,0-.2-.71l3,.18h.2Z" transform="translate(-394.92 -373.65)"/><path class="d" d="M469.42,440.05c4.14,1.35,4.47-3,4.56-3.78.56-4.4,3.65-4.55,4.21-5-1.45.18-4.32-.09-5.14-1.81a5.19,5.19,0,0,1-4.56-.29,5.57,5.57,0,0,1,1,1.86,5,5,0,0,1-.6,3.4C468.37,435.34,465.66,438.84,469.42,440.05Z" transform="translate(-394.92 -373.65)"/><path class="d" d="M418.61,433.71a1.31,1.31,0,0,0-1.16-2.17,3.45,3.45,0,0,0-1.51.57l-.27.18a3.89,3.89,0,0,0-1.31,4.18,3.61,3.61,0,0,1,2.36-2.12,5,5,0,0,1,.56-.13A2,2,0,0,0,418.61,433.71Z" transform="translate(-394.92 -373.65)"/><path class="d" d="M429.52,419.27a1.34,1.34,0,0,0,1.82-.46,1.38,1.38,0,0,0,.11-1.11l-.13-.31a3.59,3.59,0,0,0-1-1.26,4,4,0,0,0-4.41-.49,3.64,3.64,0,0,1,2.71,2.19.79.79,0,0,1,.09.24A1.79,1.79,0,0,0,429.52,419.27Z" transform="translate(-394.92 -373.65)"/><path class="d" d="M426.47,445.16a1.33,1.33,0,0,0,1.94-1.57,3.08,3.08,0,0,0-.47-.88,4.88,4.88,0,0,0-.65-.71,3.92,3.92,0,0,0-4.41-.46,3.69,3.69,0,0,1,2.83,2.43l.07.24A1.81,1.81,0,0,0,426.47,445.16Z" transform="translate(-394.92 -373.65)"/><path class="d" d="M420.73,452a1.41,1.41,0,0,0,.85-1.81,1.46,1.46,0,0,0-.82-.84,3.82,3.82,0,0,0-1.76-.22l-.31,0a4.12,4.12,0,0,0-3.4,3.25,4,4,0,0,1,3.2-.82,2.31,2.31,0,0,1,.71.2A2.14,2.14,0,0,0,420.73,452Z" transform="translate(-394.92 -373.65)"/><path class="d" d="M426.45,458.11a1.41,1.41,0,0,0-1.16-.27,3.68,3.68,0,0,0-1.4.6,3.48,3.48,0,0,0-.45.35,4.13,4.13,0,0,0-1.09,4.58,3.94,3.94,0,0,1,3-2.65s0,0,0,0a2.11,2.11,0,0,0,1.36-.62A1.4,1.4,0,0,0,426.45,458.11Z" transform="translate(-394.92 -373.65)"/><path class="b" d="M604.67,441.4c-1.8-.86-4.7-.49-8.17-.13a42.11,42.11,0,0,1-8.9.24c-20.94-2.08-22.63-9.73-21.79-9.22a47.9,47.9,0,0,0,11.35,3.6c18.67,3.6,18.8-6.54,18.8-6.54a2.4,2.4,0,0,1,.8,1.57,6.47,6.47,0,0,1-.69,3.07,6,6,0,0,0,2.34-4.31c0-3.85-2.54-5.19-2.54-5.19s.53,0,1.45.75A6.78,6.78,0,0,1,598.8,428s1-3.21-2.6-6.19c-10-8.31-31.69-6.68-40-7.87-7.3-1-9.21-4-8.7-7.1.89-5.06,7.72-5.19,7.72-5.19-.36,5.5,6.54,9.13,13.11,7.67a19,19,0,0,0,8.48-4.11,18.58,18.58,0,0,1,3.52-2.28c-3.38-.64-5.54.69-6.9,1.24a15.3,15.3,0,0,1-4.54,1.19c-4.07.33-4.47-2.37-4.47-2.37a11.52,11.52,0,0,0,7,.53c11.37-2.63,7.66-13.17,7.66-13.17s-1,4-4.56,5.48a6.47,6.47,0,0,1-6.14-.8s5.5.55,6.65-3.71a3.3,3.3,0,0,0-1.65-3.67s.51,5.44-12.62,4.62c-5.74-.35-5.72,4.51-5.72,4.51a15.48,15.48,0,0,0-3.27.69,13.23,13.23,0,0,0-3.58,1.64c.58-1.57,2.89-2.32,2.89-2.32a9.33,9.33,0,0,0-5.56,2.32,3.69,3.69,0,0,1,.44-1.44,14.39,14.39,0,0,0-4.14,8.66,10.42,10.42,0,0,0,2.4,8.11c3.16,3.67,9.19,4.16,12.82,4.44,5.41.4,14.31.88,22.19,1.95,10.66,1.48,11.3,5,9.88,7.27-1.56,2.52-6.3,2.59-13.69,0s-22.25-7.94-32.93-7.89c-28.22.11-40.86,12-49.29,9.79.24,10.74-7.5,15-7.5,15-1.16-5.92-.36,4.84-11.82,10.43,0,0-.09-2.67-1.27-2.9-1.56-.31-3.78,3.85-3.78,3.85a8.48,8.48,0,0,1-3.23-4.13l-.6,1.22a5.65,5.65,0,0,1-2.31-3.23c-.42-2.08.2-3.6-.71-3.65-1.07,0-3.32,1.46-3.32,1.46a15.61,15.61,0,0,0-1.25-7.21c-.89-2.37-2.22-4.53-2.45-7.07-9.08-1.68-20.14-5.31-20.41-8.78-.22-3.27.33-6.56-3.29-7.63a1.86,1.86,0,0,1,.13.31,1.34,1.34,0,0,1-1.94,1.59c-.45-.24-.58-.69-.76-1.22l-.11-.24c-2.09,1.22-1.25,5-1.25,5-1.65-1.66-5.12-4.73-7.21-2.79a2.88,2.88,0,0,1,.33.4,1.49,1.49,0,0,1,.22,1.15,1.45,1.45,0,0,1-1.74,1,2.05,2.05,0,0,1-1.09-1c-2.23,3.09,2.34,6.81,2.34,6.81-.67.33-4.32,1.06-4.32,3.69a3.51,3.51,0,0,1,1.51-.6,1.32,1.32,0,0,1,1,.31,1.3,1.3,0,0,1,.11,1.86,1.91,1.91,0,0,1-1.34.51,4.12,4.12,0,0,0-.56.13,3.69,3.69,0,0,0,4.52,1.28c5.83-2.48,7.32-1.08,9.86-.53,1.8.4,3.43,0,3.45,1,0,.88-.82,1.52-3.54,1.19,0,0,.65,1.7,3.61,2,4.47.49,5.85-.6,6.45.15,1.09,1.44-3.2,1.95-3.2,1.95,3.49,2.65,8.12.6,8.12.6.25,1.57-3.07,1.88-3.07,1.88a4,4,0,0,0,3.94.8,9.83,9.83,0,0,0,1.85-.69,3.54,3.54,0,0,0,1.62,3.87s1.29-4.38,3.12-3.25a1.39,1.39,0,0,1,.62,2,1.67,1.67,0,0,1-1.45.64c.53,1.33,2.87,1.33,2.87,1.33s-2.83,1.75-10.77,1.64c-10.53-.86-9.92-2-12.48-5.11-2-2.72-3.25-2.85-4.18-2.45a3.4,3.4,0,0,1,.47.88,1.33,1.33,0,0,1-1.94,1.57,1.56,1.56,0,0,1-.67-1,2.57,2.57,0,0,0-.45,3.49c-.51-.09-5.47-.8-6.36,1.48a3.4,3.4,0,0,1,1.78.22,1.35,1.35,0,0,1,.82.84,1.41,1.41,0,0,1-.85,1.81,2.14,2.14,0,0,1-1.54-.22,3,3,0,0,0-.71-.18c0,.13,0,.22,0,.22,0,3.38,4.92,3.47,7.37,3.56-1,.62-2.16,1.55-1.91,3a3.14,3.14,0,0,1,1.4-.6,1.42,1.42,0,0,1,1.42,2.25,2.11,2.11,0,0,1-1.36.62c3.25,2.12,5.67-.82,6.85-1.5,3.43-1.95,8.68-1.72,10-.29,1,1.06-1.2,2.28-1.2,2.28a5.93,5.93,0,0,0,4.21-1.17,3.59,3.59,0,0,0-.67,1.66,2.66,2.66,0,0,0,.82,2.48c2-3.82,3.54-3.58,4.32-2.85.93.86-.93,2.17-.93,2.17,2.31,1.17,5.34-1.19,5.34-1.19a4,4,0,0,0,.91,3c1.51-2.76,4.87-2.5,7.08-2.23,0,0-3.16,2.14-1.91,4.86,2-1.92,4.47-2.63,7.86-2.21,7,.84,20.29,4.8,43.08-16.2,15.4-14.21,25.7-12.38,25.7-12.38,13.69,11,40,11.23,46.71,11.74,3.25.24,3.29,2.23,1.87,4a4.21,4.21,0,0,1-2.16,1.35s-6.48-2.67-8.86.91a3,3,0,0,1,1.27,0,1.23,1.23,0,0,1,.8.57,1.19,1.19,0,0,1-.47,1.64,1.72,1.72,0,0,1-1.29,0l-.56-.07A2.28,2.28,0,0,0,576,459c.29,0,.27.09.18.2a3.76,3.76,0,0,0-1.29,3.09,2.73,2.73,0,0,1,1-.46,1.19,1.19,0,0,1,1.31,1.81,1.8,1.8,0,0,1-1.13.62c-.11,0-.24.09-.36.11.69,1.06,1.91,1.72,3.81,1a5.24,5.24,0,0,0,1.94-1,2.31,2.31,0,0,0-.11,2.19,3.36,3.36,0,0,0,.22.29,2.78,2.78,0,0,1,.78-1.39,1.15,1.15,0,0,1,.91-.38,1.21,1.21,0,0,1,1.16,1.26,1.83,1.83,0,0,1-.67,1.11,4.23,4.23,0,0,0-.29.38,5.72,5.72,0,0,0,1.65,0c2-.4,3.58-2.1,4-6.34a5.05,5.05,0,0,1,.82-2.61,6.66,6.66,0,0,1,2.23-1.33,3,3,0,0,1-.47,2.92c4,.66,4.52-5.57,4.52-5.57a5.47,5.47,0,0,0,1.31,2,4.47,4.47,0,0,0,2.14,1c-.73-4.44,1-5.95,1.87-6.17,1.69-.42,1.62,1.61,1.62,1.61a3,3,0,0,0,1.16-3,7.77,7.77,0,0,0-.78-2.21s1.42-.69,2.16,1.19c0,0,1.51-2.41.13-3.74a.85.85,0,0,1,.73-.09,1.24,1.24,0,0,1,.67.55A4.34,4.34,0,0,0,604.67,441.4Z" transform="translate(-394.92 -373.65)"/><path class="d" d="M576,457.36a1.2,1.2,0,0,0,.47-1.64,1.15,1.15,0,0,0-.8-.6,3,3,0,0,0-1.25,0l-.49.13a3.5,3.5,0,0,0-2.4,3.18,3.29,3.29,0,0,1,2.65-1.13,5.16,5.16,0,0,1,.56,0A1.68,1.68,0,0,0,576,457.36Z" transform="translate(-394.92 -373.65)"/><path class="d" d="M577.14,463.68a1.2,1.2,0,0,0-.33-1.66,1.18,1.18,0,0,0-1-.15,2.47,2.47,0,0,0-1,.46,5.18,5.18,0,0,0-.53.44,3.46,3.46,0,0,0-.67,3.91,3.35,3.35,0,0,1,2-2.28c.13,0,.24-.09.36-.11A1.84,1.84,0,0,0,577.14,463.68Z" transform="translate(-394.92 -373.65)"/><path class="d" d="M584.33,466.38a1.23,1.23,0,0,0-1.16-1.26,1.12,1.12,0,0,0-.91.38,2.88,2.88,0,0,0-.78,1.39.42.42,0,0,1,0,.16,3.5,3.5,0,0,0,1.47,3.69,3.22,3.22,0,0,1,.47-2.87,2.41,2.41,0,0,1,.29-.38C584,467.11,584.31,466.82,584.33,466.38Z" transform="translate(-394.92 -373.65)"/></svg>