<svg width="82" height="82" viewBox="0 0 82 82" fill="none" xmlns="http://www.w3.org/2000/svg">
<path d="M2.53815 60.9132C2.53815 66.5198 7.08379 71.0654 12.6903 71.0654H68.5274C74.1339 71.0654 78.6796 66.5198 78.6796 60.9132V38.0708H2.53815V60.9132Z" fill="#568FD9"/>
<path d="M68.5274 10.1523H12.6903C7.08379 10.1523 2.53815 14.698 2.53815 20.3045V40.6089H78.6796V20.3045C78.6796 14.698 74.1339 10.1523 68.5274 10.1523Z" fill="#62AF3F"/>
<path d="M2.53815 20.3045V60.9132C2.53815 64.3954 4.29448 67.4639 6.96704 69.2938L78.6796 40.6088L6.96704 11.9238C4.29448 13.7512 2.53815 16.8223 2.53815 20.3045Z" fill="#D22D32"/>
<path d="M32.591 43.8116C35.5758 41.4283 36.2001 38.3066 34.8651 36.5984C35.0529 37.3649 33.5682 39.903 33.3423 39.0756C36.2534 36.5858 33.4514 29.7127 32.8626 35.5832C33.4616 33.4386 32.5073 30.0757 30.6646 30.0884C31.3981 30.6442 31.3677 32.8726 30.9286 32.1264C30.9514 28.6442 25.6622 26.393 28.8779 30.4411C28.0758 29.2102 23.7079 26.4031 26.2967 29.4132C25.9413 29.0934 24.5327 27.997 23.6469 28.4336C23.7992 29.2889 26.3398 29.4488 26.3525 29.7889C22.6216 29.2813 27.4439 31.4005 28.2434 30.6442C29.8982 31.1746 27.7611 31.3853 27.0124 31.1467C27.2764 32.6899 30.0022 33.3574 30.5733 32.4538C31.9159 33.4157 29.3829 33.3751 29.0225 32.9614C28.6748 34.87 34.7763 36.4766 31.8956 36.1619C30.7687 36.0375 30.756 35.8066 30.4007 35.1035C29.2687 35.9284 35.0047 41.0806 32.1875 39.4233C28.685 35.5756 32.7484 42.8446 31.756 44.2634C29.855 37.4157 29.7027 45.3319 29.7383 47.0044C28.0505 49.177 28.9895 45.9765 29.4946 44.2507C26.52 45.5146 23.218 55.1719 23.3043 46.4004C24.7358 44.4639 28.1444 45.9359 28.6038 43.2557C27.0682 44.4588 26.2789 44.3674 27.9007 43.1999C30.5073 39.601 23.3297 45.0222 26.6977 41.0984C24.1799 41.5984 24.4921 43.6796 24.6672 44.1999C22.5962 48.2659 22.1901 41.9918 22.3779 40.8751C23.8246 40.1111 24.1799 40.1644 26.1139 40.3116C28.987 38.6137 26.2332 39.837 25.6419 39.2126C28.2713 38.9614 27.9464 36.9842 25.4388 38.0578C27.1012 35.2507 23.7231 38.3243 23.6876 39.5756C21.3932 41.6898 24.1825 34.3447 27.1723 35.3269C29.0378 33.497 27.1012 35.134 26.5885 34.5198C27.3373 34.5147 28.1494 33.1289 27.888 32.9614C27.5403 33.5858 26.2281 33.0147 25.949 33.9005C26.3424 32.6899 26.685 31.9564 25.3018 33.2127C24.7104 35.6619 24.2002 36.4182 24.4617 33.2888C24.2865 31.5325 23.548 26.9615 23.3754 30.7305C21.9896 28.0579 21.6292 30.4513 22.6038 31.1543C19.9109 29.4335 22.9921 33.035 23.6393 32.0452C24.4718 33.5198 23.6292 36.3142 23.1952 37.4284C21.7028 37.134 20.0861 30.8548 20.718 35.0426C18.7891 33.1112 17.7764 34.6289 19.8983 35.9106C15.6445 36.9538 25.7002 35.667 21.8729 40.1949C21.0784 48.1948 21.7079 39.2888 18.4719 39.3192C20.779 41.403 17.6495 40.2862 16.6013 39.3903C16.3628 41.5045 20.5201 42.8395 16.6369 41.436C18.1292 44.6618 20.6495 41.8344 21.9642 44.705C23.8957 54.4815 20.0125 47.3699 16.4211 44.2507C16.9338 45.9715 17.8602 49.1846 16.1775 47.007C16.4744 46.8572 15.7156 37.6365 14.8552 42.9156C13.9262 43.8903 14.2841 44.71 13.68 43.2837C14.7435 42.0527 15.4186 38.8725 14.8069 37.9081C14.5912 39.1822 12.5836 40.7228 12.8653 39.238C14.2638 38.4868 15.9465 35.8979 15.515 35.1061C15.2993 36.0807 12.241 37.1949 13.6521 35.4335C20.3881 33.2888 13.8196 33.3599 15.3425 32.4564C15.9135 33.3599 18.6394 32.6924 18.9033 31.1467C18.1495 31.3751 16.0227 31.1823 17.6724 30.6467C18.4922 31.4183 23.2789 29.2736 19.5658 29.7914C19.5785 29.4513 22.119 29.2914 22.2713 28.4361C21.3957 28.0249 19.9642 29.0655 19.6216 29.4183C22.2155 26.4234 17.8323 29.2026 17.0404 30.4488C20.2561 26.4006 14.9643 28.6493 14.9871 32.1315C14.5303 32.8624 14.5379 30.667 15.2511 30.0934C13.4186 30.0909 12.444 33.4335 13.0531 35.5883C12.4262 29.7457 9.68769 36.6289 12.5734 39.0807C12.312 39.9081 10.8983 37.3726 11.0506 36.6035C9.73337 38.3116 10.3273 41.4334 13.3247 43.8167C7.23847 38.6289 12.2207 47.6999 16.1622 47.809C12.4973 47.1999 9.7689 46.1314 15.4034 50.0374C16.6394 51.6364 24.6368 49.8268 20.147 52.6516C20.8018 54.1973 22.9515 50.2836 22.2409 52.7912C22.3449 52.8952 23.2485 52.715 23.4591 52.9308C23.0226 50.6364 24.6013 52.7709 25.185 53.1541C26.5048 52.446 24.5302 51.7252 23.6495 50.9993C29.5454 52.281 38.728 45.2608 29.756 47.8115C33.6951 47.7049 38.6798 38.6238 32.5936 43.8192L32.591 43.8116Z" fill="#F5C851"/>
<path opacity="0.15" d="M68.5274 10.1523H12.6903C7.08379 10.1523 2.53815 14.698 2.53815 20.3045V60.9133C2.53815 66.5198 7.08379 71.0655 12.6903 71.0655H68.5274C74.1339 71.0655 78.6796 66.5198 78.6796 60.9133V20.3045C78.6796 14.698 74.1339 10.1523 68.5274 10.1523ZM76.1415 60.9133C76.1415 65.1112 72.7253 68.5274 68.5274 68.5274H12.6903C8.49241 68.5274 5.07619 65.1112 5.07619 60.9133V20.3045C5.07619 16.1066 8.49241 12.6904 12.6903 12.6904H68.5274C72.7253 12.6904 76.1415 16.1066 76.1415 20.3045V60.9133Z" fill="black"/>
<path opacity="0.2" d="M68.5273 12.6904H12.6903C8.48471 12.6904 5.07611 16.099 5.07611 20.3046V22.8426C5.07611 18.6371 8.48471 15.2285 12.6903 15.2285H68.5273C72.7328 15.2285 76.1414 18.6371 76.1414 22.8426V20.3046C76.1414 16.099 72.7328 12.6904 68.5273 12.6904Z" fill="white"/>
</svg>
