<svg width="82" height="82" viewBox="0 0 82 82" fill="none" xmlns="http://www.w3.org/2000/svg">
<path d="M68.5273 10.1523H12.6902C7.08331 10.1523 2.53802 14.6976 2.53802 20.3045V60.9133C2.53802 66.5202 7.08331 71.0655 12.6902 71.0655H68.5273C74.1342 71.0655 78.6794 66.5202 78.6794 60.9133V20.3045C78.6794 14.6976 74.1342 10.1523 68.5273 10.1523Z" fill="#3C5EBB"/>
<path d="M78.6796 55.8369V25.3804L2.53815 25.3804V55.8369H78.6796Z" fill="#B30403"/>
<path d="M78.6794 20.3042H2.53802V25.3803H78.6794V20.3042Z" fill="#FFDB01"/>
<path d="M78.6794 55.8369H2.53802V60.913H78.6794V55.8369Z" fill="#FFDB01"/>
<path opacity="0.15" d="M68.5273 10.1523H12.6902C7.08341 10.1523 2.53802 14.6975 2.53802 20.3045V60.9133C2.53802 66.5203 7.08341 71.0655 12.6902 71.0655H68.5273C74.1343 71.0655 78.6794 66.5203 78.6794 60.9133V20.3045C78.6794 14.6975 74.1343 10.1523 68.5273 10.1523ZM76.1414 60.9133C76.1414 65.112 72.7259 68.5274 68.5273 68.5274H12.6902C8.49152 68.5274 5.07607 65.112 5.07607 60.9133V20.3045C5.07607 16.1058 8.49152 12.6904 12.6902 12.6904H68.5273C72.7259 12.6904 76.1414 16.1058 76.1414 20.3045V60.9133Z" fill="black"/>
<path opacity="0.2" d="M68.5273 12.6904H12.6903C8.48496 12.6904 5.07611 16.0993 5.07611 20.3046V22.8426C5.07611 18.6373 8.48496 15.2285 12.6903 15.2285H68.5273C72.7326 15.2285 76.1414 18.6373 76.1414 22.8426V20.3046C76.1414 16.0993 72.7326 12.6904 68.5273 12.6904Z" fill="white"/>
<path d="M17.3831 36.1031H63.4809L65.6065 36.8534L68.7983 35.7267L65.6065 34.6001L63.4763 35.3519H17.3831C17.1577 35.3519 16.975 35.5199 16.975 35.7275C16.975 35.9349 17.1577 36.1031 17.3831 36.1031Z" fill="#FFDB01"/>
<path d="M14.3244 38.357H60.4222L62.5478 39.1073L65.7397 37.9806L62.5478 36.854L60.4177 37.6058H14.3244C14.0991 37.6058 13.9163 37.7738 13.9163 37.9814C13.9163 38.189 14.0991 38.357 14.3244 38.357Z" fill="#FFDB01"/>
<path d="M71.9729 40.0469H9.24458C8.93799 40.0469 8.68951 40.2992 8.68951 40.6101C8.68951 40.921 8.93799 41.1733 9.24458 41.1733H71.9732C72.2798 41.1733 72.5283 40.921 72.5283 40.6101C72.5283 40.2992 72.2795 40.0469 71.9729 40.0469Z" fill="#FFDB01"/>
<path d="M59.0351 40.6091C55.2798 44.3642 50.2727 51.875 40.2581 51.875C31.4958 51.875 25.2375 44.3644 21.4811 40.6091C25.2364 36.8533 31.495 29.3433 40.2581 29.3433C50.272 29.3433 55.2788 36.8539 59.0351 40.6091Z" fill="white"/>
<path d="M38.9473 33.262C39.9462 34.3856 39.112 34.8387 40.1696 34.9125C41.2848 34.9945 40.6526 36.0998 41.5906 36.1384C42.2465 36.1671 41.5251 38.7868 42.1564 39.6516C42.7995 40.5528 43.3381 39.9158 43.3495 40.5668C43.3607 41.2404 41.599 41.1724 41.5683 43.2467C41.5165 44.4424 40.0818 44.5188 40.0132 45.2881C39.928 46.0116 42.8401 46.4177 42.8013 47.0654C42.7614 47.7111 39.6571 47.6101 39.5219 48.3467C39.4526 49.0083 43.7865 49.5504 44.135 51.4634C43.4883 51.6748 41.6482 51.8738 40.2576 51.875C31.4966 51.8814 25.237 44.364 21.4819 40.6089C25.2372 36.8534 31.4958 29.3428 40.2589 29.3428C40.2589 29.3428 37.6567 31.7199 38.9473 33.262Z" fill="black"/>
</svg>
