<svg width="82" height="82" viewBox="0 0 82 82" fill="none" xmlns="http://www.w3.org/2000/svg">
<path d="M2.53833 27.9185H78.6797V53.2989H2.53833V27.9185Z" fill="#F7DF4B"/>
<path d="M12.6905 10.1523H68.5276C74.1316 10.1523 78.6797 14.7005 78.6797 20.3045V30.4567H2.53833V20.3045C2.53833 14.7005 7.08651 10.1523 12.6905 10.1523Z" fill="#3C883A"/>
<path d="M68.5275 71.0654L12.6904 71.0654C7.08642 71.0654 2.53824 66.5172 2.53824 60.9132V50.7611L78.6797 50.7611V60.9132C78.6797 66.5172 74.1315 71.0654 68.5275 71.0654Z" fill="#C92D25"/>
<path opacity="0.15" d="M68.5276 10.1523H12.6905C7.08397 10.1523 2.53833 14.698 2.53833 20.3045V60.9133C2.53833 66.5198 7.08397 71.0655 12.6905 71.0655H68.5276C74.1341 71.0655 78.6797 66.5198 78.6797 60.9133V20.3045C78.6797 14.698 74.1341 10.1523 68.5276 10.1523ZM76.1417 60.9133C76.1417 65.1112 72.7255 68.5274 68.5276 68.5274H12.6905C8.49259 68.5274 5.07638 65.1112 5.07638 60.9133V20.3045C5.07638 16.1066 8.49259 12.6904 12.6905 12.6904H68.5276C72.7255 12.6904 76.1417 16.1066 76.1417 20.3045V60.9133Z" fill="black"/>
<path d="M40.6089 55.8369C49.0193 55.8369 55.8372 49.019 55.8372 40.6087C55.8372 32.1983 49.0193 25.3804 40.6089 25.3804C32.1986 25.3804 25.3806 32.1983 25.3806 40.6087C25.3806 49.019 32.1986 55.8369 40.6089 55.8369Z" fill="#1E44AA"/>
<path d="M40.6089 27.6876L40.0429 29.4287L42.3779 36.6139H39.2637L38.9135 37.69H48.8956L50.3778 36.6139H43.5099L40.6089 27.6851V27.6876Z" fill="#F6DD4C"/>
<path d="M43.8709 35.6592L47.988 29.9981L48.4252 30.316L44.3081 35.9771L43.8709 35.6592Z" fill="#F6DD4C"/>
<path d="M52.8982 36.6162H51.0658L44.9516 41.0578L43.9897 38.0959H42.8577L45.9415 47.5907L47.4237 48.6669L45.3019 42.1339L52.8982 36.6162Z" fill="#F6DD4C"/>
<path d="M52.8144 44.8572L46.1571 42.6948L46.3246 42.1821L52.9819 44.3445L52.8144 44.8572Z" fill="#F6DD4C"/>
<path d="M48.2029 51.0629L47.6369 49.3218L41.5228 44.8802L44.0405 43.0503L43.6903 41.9741L35.6142 47.8421L35.0482 49.5832L40.6065 45.5452L48.2004 51.0629H48.2029Z" fill="#F6DD4C"/>
<path d="M40.3398 46.5298H40.8804V53.5297H40.3398V46.5298Z" fill="#F6DD4C"/>
<path d="M33.0152 51.063L34.4974 49.9868L36.8324 42.8016L39.3501 44.6316L40.2664 43.9666L32.1903 38.0986H30.3578L35.9161 42.1367L33.0152 51.0655V51.063Z" fill="#F6DD4C"/>
<path d="M28.4034 44.8572L28.2359 44.3445L34.8932 42.1821L35.0607 42.6948L28.4034 44.8572Z" fill="#F6DD4C"/>
<path d="M28.3198 36.6164L29.802 37.6926H37.3578L36.3959 40.6545L37.3121 41.3194L40.3959 31.8246L39.8299 30.0835L37.7081 36.6164H28.3198Z" fill="#F6DD4C"/>
<path d="M32.7977 30.3149L33.2351 29.9972L37.3499 35.6599L36.9126 35.9777L32.7977 30.3149Z" fill="#F6DD4C"/>
<path opacity="0.2" d="M68.5276 12.6904H12.6905C8.48498 12.6904 5.07639 16.099 5.07639 20.3046V22.8426C5.07639 18.6371 8.48498 15.2285 12.6905 15.2285H68.5276C72.7331 15.2285 76.1417 18.6371 76.1417 22.8426V20.3046C76.1417 16.099 72.7331 12.6904 68.5276 12.6904Z" fill="white"/>
</svg>
