<svg width="82" height="82" viewBox="0 0 82 82" fill="none" xmlns="http://www.w3.org/2000/svg">
<path d="M68.5273 10.1523H12.6902C7.08331 10.1523 2.53802 14.6976 2.53802 20.3045V60.9133C2.53802 66.5202 7.08331 71.0655 12.6902 71.0655H68.5273C74.1342 71.0655 78.6794 66.5202 78.6794 60.9133V20.3045C78.6794 14.6976 74.1342 10.1523 68.5273 10.1523Z" fill="#112F95"/>
<path opacity="0.15" d="M68.5273 10.1523H12.6902C7.08367 10.1523 2.53802 14.698 2.53802 20.3045V60.9133C2.53802 66.5198 7.08367 71.0655 12.6902 71.0655H68.5273C74.1338 71.0655 78.6794 66.5198 78.6794 60.9133V20.3045C78.6794 14.698 74.1338 10.1523 68.5273 10.1523ZM76.1414 60.9133C76.1414 65.1112 72.7252 68.5274 68.5273 68.5274H12.6902C8.49228 68.5274 5.07607 65.1112 5.07607 60.9133V20.3045C5.07607 16.1066 8.49228 12.6904 12.6902 12.6904H68.5273C72.7252 12.6904 76.1414 16.1066 76.1414 20.3045V60.9133Z" fill="black"/>
<path d="M40.6087 20.728L39.9615 22.7179H37.8702L39.5631 23.9463L38.9159 25.9361L40.6087 24.7077L42.3016 25.9361L41.6544 23.9463L43.3473 22.7179H41.2559L40.6087 20.728Z" fill="#F6CD46"/>
<path d="M41.2559 57.2711L40.6087 55.2812L39.9615 57.2711H37.8702L39.5631 58.4995L38.9159 60.4893L40.6087 59.2609L42.3016 60.4893L41.6544 58.4995L43.3473 57.2711H41.2559Z" fill="#F6CD46"/>
<path d="M23.3321 41.9845L25.025 43.213L24.3778 41.2231L26.0707 39.9947H23.9793L23.3321 38.0049L22.6849 39.9947H20.5936L22.2864 41.2231L21.6392 43.213L23.3321 41.9845Z" fill="#F6CD46"/>
<path d="M31.9691 23.043L31.3245 25.0328H29.2306L30.9235 26.2612L30.2788 28.251L31.9691 27.0226L33.662 28.251L33.0174 26.2612L34.7077 25.0328H32.6163L31.9691 23.043Z" fill="#F6CD46"/>
<path d="M25.6468 29.3652L24.9996 31.3551H22.9083L24.6011 32.586L23.9539 34.5758L25.6468 33.3449L27.3397 34.5758L26.6925 32.586L28.3854 31.3551H26.294L25.6468 29.3652Z" fill="#F6CD46"/>
<path d="M26.294 48.6314L25.6468 46.6416L24.9996 48.6314H22.9083L24.6011 49.8624L23.9539 51.8522L25.6468 50.6213L27.3397 51.8522L26.6925 49.8624L28.3854 48.6314H26.294Z" fill="#F6CD46"/>
<path d="M32.6163 54.9561L31.9691 52.9663L31.3245 54.9561H29.2306L30.9235 56.1846L30.2788 58.1744L31.9691 56.946L33.662 58.1744L33.0174 56.1846L34.7077 54.9561H32.6163Z" fill="#F6CD46"/>
<path d="M60.6237 39.9947H58.5323L57.8851 38.0049L57.2379 39.9947H55.1466L56.8395 41.2231L56.1922 43.213L57.8851 41.9845L59.578 43.213L58.9308 41.2231L60.6237 39.9947Z" fill="#F6CD46"/>
<path d="M49.2481 23.043L48.6009 25.0328H46.5096L48.1999 26.2612L47.5553 28.251L49.2481 27.0226L50.9385 28.251L50.2938 26.2612L51.9867 25.0328H49.8928L49.2481 23.043Z" fill="#F6CD46"/>
<path d="M54.525 32.586L53.8778 34.5758L55.5706 33.3449L57.2635 34.5758L56.6163 32.586L58.3092 31.3551H56.2178L55.5706 29.3652L54.9234 31.3551H52.8321L54.525 32.586Z" fill="#F6CD46"/>
<path d="M56.2178 48.6314L55.5706 46.6416L54.9234 48.6314H52.8321L54.525 49.8624L53.8778 51.8522L55.5706 50.6213L57.2635 51.8522L56.6163 49.8624L58.3092 48.6314H56.2178Z" fill="#F6CD46"/>
<path d="M49.8928 54.9561L49.2481 52.9663L48.6009 54.9561H46.5096L48.1999 56.1846L47.5553 58.1744L49.2481 56.946L50.9385 58.1744L50.2938 56.1846L51.9867 54.9561H49.8928Z" fill="#F6CD46"/>
<path opacity="0.2" d="M68.5273 12.6904H12.6902C8.48468 12.6904 5.07608 16.099 5.07608 20.3046V22.8426C5.07608 18.6371 8.48468 15.2285 12.6902 15.2285H68.5273C72.7328 15.2285 76.1414 18.6371 76.1414 22.8426V20.3046C76.1414 16.099 72.7328 12.6904 68.5273 12.6904Z" fill="white"/>
</svg>
