<?xml version="1.0" encoding="utf-8"?>
<!-- Generator: Adobe Illustrator 30.2.1, SVG Export Plug-In . SVG Version: 9.03 Build 0)  -->
<svg version="1.0" id="Calque_1" xmlns="http://www.w3.org/2000/svg" xmlns:xlink="http://www.w3.org/1999/xlink" x="0px" y="0px"
	 viewBox="1.89 2.46 138.04 139.75" style="enable-background:new 1.89 2.46 138.04 139.75;" xml:space="preserve">
<style type="text/css">
	.st0{fill-rule:evenodd;clip-rule:evenodd;stroke:#000000;stroke-width:0.1893;stroke-miterlimit:10;}
	.st1{fill-rule:evenodd;clip-rule:evenodd;fill:#004D98;}
	.st2{fill:#A50044;}
	.st3{fill-rule:evenodd;clip-rule:evenodd;fill:#FFFFFF;}
	.st4{fill-rule:evenodd;clip-rule:evenodd;fill:#FFED02;}
	.st5{fill:#DB0030;}
	.st6{fill-rule:evenodd;clip-rule:evenodd;fill:#EDBB00;stroke:#DEB405;stroke-width:0.1775;stroke-miterlimit:10;}
	.st7{fill:none;stroke:#000000;stroke-width:0.7571;stroke-miterlimit:10;}
	.st8{fill:#EDBB00;stroke:#000000;stroke-width:0.7609;stroke-miterlimit:1.0145;}
	.st9{fill:none;stroke:#000000;stroke-width:0.6624;stroke-miterlimit:10;}
	.st10{fill-rule:evenodd;clip-rule:evenodd;stroke:#000000;stroke-width:0.0379;stroke-miterlimit:10;}
</style>
<path data-source="https://football-logos.cc" class="st0" d="M12.64,4.7c9.48,4.16,25.04,3.67,35.47-4.21
	c14.59,10.69,28.63,9.59,42.02,0c8.93,6.45,22.67,9.21,35.57,4.34l5.78,8.03c-15.08,20.15-9.49,39.4,6.05,56.35L131,75.85
	c1.48,43.45-32.18,53.83-51.5,54.9l-10.39,8.5l-10.31-8.37C24.3,127.9,6.08,109.69,7.21,75.96L0.5,69.17
	C13.61,54.99,23.47,35.6,6.62,12.87L12.64,4.7z"/>
<path class="st1" d="M13.42,75.08h111.02c2.92,30.72-16.6,47.31-46.28,48.94l-18.86,0.05C30.9,122.03,9.75,107.04,13.42,75.08"/>
<path class="st2" d="M61.28,75.45h15.73v49.09H61.28V75.45z"/>
<path class="st2" d="M29.98,75.45h15.73v43.87H29.98V75.45z"/>
<path class="st2" d="M35.46,117.08h10.24v4.52H35.46V117.08z M92.4,75.45h15.73v43.87H92.4V75.45z"/>
<path class="st2" d="M92.4,117.08h10.24v4.52H92.4V117.08z"/>
<path class="st3" d="M68.63,14.86v43.6l-52.99,0.38l5.46-20.99l-6.8-25.11l33.54-4.31L68.63,14.86z"/>
<path class="st4" d="M69.4,14.86v43.6l52.99,0.38l-5.46-20.99l6.8-25.11L90.19,8.43L69.4,14.86z"/>
<path class="st5" d="M38.01,9.68H53.2v48.51H38.01V9.68z"/>
<path class="st5" d="M68.63,28.77v15.19H21.35V28.77L68.63,28.77z"/>
<path data-source="https://football-logos.cc" class="st5" d="M74.15,13.12h5.62v44.76h-5.62V13.12z M84.82,9.91h5.62v48.07h-5.62
	V9.91z M95.56,12.62h5.62v45.46h-5.62V12.62z M106.2,14.28h5.62v43.75h-5.62V14.28z"/>
<path class="st6" d="M48.02,3.95c-9.79,7.17-25.27,7.93-34.16,4.34l-3.56,4.58c15.28,21.49,6.5,43.12-5.61,56.36l5.58,5.9
	C8,107.54,26.9,126.27,60.14,128.2l9.01,7.52l8.99-7.64c19.35-0.33,53.29-11.19,49.64-52.99l5.61-5.81
	C119.16,53.51,114.25,31.9,128,12.88l-3.34-4.55c-12.16,4-26.07,1.78-34.45-4.27C77.65,13.05,61.7,13.98,48.02,3.95z M90.32,10.11
	c7.55,4.69,15.89,6.02,30.28,4.76c-7.2,12.46-7.98,27.31-1.6,41.64l-99.82-0.06c5.37-12.81,6.6-27.54-1.82-41.86
	c10.37,1.51,20.51,1.15,30.61-4.35C61.68,18.28,75.79,18.43,90.32,10.11z M15.64,75.57h107.04c2.81,29.62-16.01,45.61-44.62,47.19
	l-18.19,0.05C32.49,120.83,12.1,106.38,15.64,75.57z"/>
<path class="st7" d="M17.25,14.74c8.42,14.32,7.18,29.06,1.82,41.86l99.81,0.06c-6.38-14.33-5.6-29.18,1.61-41.64
	c-14.38,1.26-22.72-0.07-30.28-4.76c-14.53,8.32-28.64,8.17-42.35,0.12C37.75,15.88,27.62,16.25,17.25,14.74z M15.63,75.57h107.04
	c2.81,29.62-16,45.62-44.62,47.19l-18.18,0.05C32.49,120.83,12.09,106.38,15.63,75.57L15.63,75.57z M69.05,16.24v40.44"/>
<path class="st8" d="M83.81,98.65c0.03,8.04-6.45,14.58-14.49,14.61s-14.58-6.45-14.61-14.49c0-0.04,0-0.08,0-0.12
	c-0.03-8.04,6.45-14.58,14.49-14.61c8.04-0.03,14.58,6.45,14.61,14.49C83.81,98.57,83.81,98.61,83.81,98.65z"/>
<g>
	<path class="st9" d="M60.86,86.79c-1.7,6.19-2.75,12.29,2.15,15.22c3.42,2.05,5.74-2.13,6.38-3.74"/>
	<path class="st9" d="M55.79,104.52c2.87-0.13,4.37-0.37,6.21-3.16"/>
</g>
<path class="st9" d="M69.27,98.37c2.88-1.77,5.44-0.91,6.63,3.52c2.8-1.13,5.5,1.04,6.21,3.22"/>
<path class="st9" d="M75.96,101.89c-2.13,5.13-7.72,7.51-15.57,8.29 M69.28,98.58c-1.77-1.62-4.49-3.47-0.53-8.23
	c-1.68-2.13-2.14-4.21,0.06-6.18"/>
<path class="st9" d="M83.74,99.52c-2.58-4.57-8.6-10.9-14.99-9.22"/>
<path d="M48.91,59.11v0.05h-2.64v13.75h2.86V67.2h4.08v-2.91h-4.07v-2.23h7.03v-2.96H48.91z"/>
<path class="st10" d="M70.54,63.41l2.56-1.34c-1.64-3.62-8.27-4.65-10.46,0c-2.25,5.54,0.14,10.69,4.5,11.2
	c2.77,0.4,4.97-0.95,5.9-3.36l-2.54-1.45c-0.68,1.68-3.25,2.84-5.21,0.03c-0.6-1.26-0.76-3.19-0.09-5.07
	C66.82,61.2,69.17,61.44,70.54,63.41L70.54,63.41z"/>
<path data-source="https://football-logos.cc" class="st0" d="M80.34,59.14l0.05,13.88l7.55-0.03c2.46-0.34,5.68-4.37,1.9-7.49
	c2-1.76,1.75-5.52-2.25-6.32L80.34,59.14z M83.25,61.88h3.76c1.65,0.48,1.16,2.07,0.05,2.34h-3.82V61.88z M83.28,66.92l3.96,0.05
	c1.96,0.58,1.52,2.81,0.06,3.19l-3.99-0.03L83.28,66.92z"/>
</svg>
