<svg width="82" height="82" viewBox="0 0 82 82" fill="none" xmlns="http://www.w3.org/2000/svg">
<path d="M68.5273 10.1523H12.6903C7.08338 10.1523 2.53809 14.6976 2.53809 20.3045V60.9133C2.53809 66.5202 7.08338 71.0655 12.6903 71.0655H68.5273C74.1342 71.0655 78.6795 66.5202 78.6795 60.9133V20.3045C78.6795 14.6976 74.1342 10.1523 68.5273 10.1523Z" fill="#77B5E1"/>
<path d="M12.6903 10.1523H40.6088V40.6089H2.53809V20.3045C2.53809 14.7005 7.08627 10.1523 12.6903 10.1523Z" fill="#071B65"/>
<path d="M16.4973 34.9592V40.6089H26.6495V34.9567L34.3576 40.6089H40.6088V37.4592L31.0607 30.4567H40.6088V20.3045H33.6545L40.6088 15.2056V10.1523H36.9515L26.6495 17.7081V10.1523H16.4973V17.2436L8.23093 11.1803C6.28424 12.1295 4.70558 13.6752 3.69797 15.5914L10.1243 20.3071H2.53809V30.4593H12.0888L2.53809 37.4643V40.6114H8.79183L16.4973 34.9592Z" fill="white"/>
<path d="M4.58386 14.1848L12.9213 20.3041H16.3832L5.98994 12.6772C5.47218 13.1341 5.0001 13.6341 4.58386 14.1848Z" fill="#B92932"/>
<path d="M2.53809 40.6087L16.3806 30.4565V32.9946L5.99744 40.6087H2.53809Z" fill="#B92932"/>
<path d="M24.1115 40.6089H19.0354V27.9187H2.53809V22.8426H19.0354V10.1523H24.1115V22.8426H40.6088V27.9187H24.1115V40.6089Z" fill="#B92932"/>
<path d="M40.6088 39.7636L27.9186 30.4565V32.9946L38.3017 40.6087H40.6088V39.7636Z" fill="#B92932"/>
<path d="M40.6089 10.1523H39.9794L26.1191 20.3147H29.581L40.6089 12.2285V10.1523Z" fill="#B92932"/>
<path d="M59.4944 53.5806L59.3624 53.512C53.5274 50.4765 50.4792 48.776 50.4412 46.2558L50.5097 30.1392H68.842V46.2786C68.8801 48.6035 65.7329 50.6161 59.9132 53.5171L59.7685 53.5882L59.4944 53.5806Z" fill="white"/>
<path d="M68.5273 30.4568V46.279C68.5628 48.4287 65.3446 50.4566 59.7736 53.2332L59.6416 53.2992L59.5096 53.2307C53.7863 50.2535 50.7965 48.5886 50.761 46.251L50.8295 30.4568H68.5273ZM69.1618 29.8223H50.1975V30.4542L50.1265 46.2485C50.1671 48.9617 53.2711 50.7028 59.2178 53.7941L59.3497 53.8627L59.6365 54.0124L59.9259 53.8677L60.0578 53.8017C65.9943 50.8449 69.2024 48.7688 69.1618 46.2688V30.4568V29.8223Z" fill="black"/>
<path opacity="0.15" d="M68.5273 10.1523H12.6903C7.08373 10.1523 2.53809 14.698 2.53809 20.3045V60.9133C2.53809 66.5198 7.08373 71.0655 12.6903 71.0655H68.5273C74.1339 71.0655 78.6795 66.5198 78.6795 60.9133V20.3045C78.6795 14.698 74.1339 10.1523 68.5273 10.1523ZM76.1415 60.9133C76.1415 65.1112 72.7252 68.5274 68.5273 68.5274H12.6903C8.49234 68.5274 5.07613 65.1112 5.07613 60.9133V20.3045C5.07613 16.1066 8.49234 12.6904 12.6903 12.6904H68.5273C72.7252 12.6904 76.1415 16.1066 76.1415 20.3045V60.9133Z" fill="black"/>
<path d="M50.761 30.4565H68.5273V35.5326H50.761V30.4565Z" fill="#B92932"/>
<path d="M60.9132 52.6518V35.5327H58.3751V52.6341C58.7508 52.832 59.1086 53.0199 59.5096 53.2305L59.6416 53.299L59.7736 53.2331C60.1746 53.0326 60.535 52.8447 60.9132 52.6518Z" fill="#B92932"/>
<path d="M50.761 43.147V40.6089H68.5273V43.147H50.761Z" fill="#B92932"/>
<path opacity="0.2" d="M68.5274 12.6904H12.6903C8.48477 12.6904 5.07617 16.099 5.07617 20.3046V22.8426C5.07617 18.6371 8.48477 15.2285 12.6903 15.2285H68.5274C72.7329 15.2285 76.1415 18.6371 76.1415 22.8426V20.3046C76.1415 16.099 72.7329 12.6904 68.5274 12.6904Z" fill="white"/>
</svg>
