<svg width="82" height="82" viewBox="0 0 82 82" fill="none" xmlns="http://www.w3.org/2000/svg">
<path d="M78.6794 25.3804H2.53796V55.8369H78.6794V25.3804Z" fill="white"/>
<path d="M12.6902 10.1523H68.5272C74.1304 10.1523 78.6794 14.7013 78.6794 20.3045V27.9187H2.53796V20.3045C2.53796 14.7013 7.08691 10.1523 12.6902 10.1523Z" fill="#CF0922"/>
<path d="M68.5273 71.0654L12.6903 71.0654C7.08703 71.0654 2.53808 66.5165 2.53808 60.9132V53.2991L78.6795 53.2991V60.9132C78.6795 66.5165 74.1306 71.0654 68.5273 71.0654Z" fill="#CF0922"/>
<path opacity="0.15" d="M68.5272 10.1523H12.6902C7.08335 10.1523 2.53796 14.6975 2.53796 20.3045V60.9133C2.53796 66.5203 7.08335 71.0655 12.6902 71.0655H68.5272C74.1342 71.0655 78.6794 66.5203 78.6794 60.9133V20.3045C78.6794 14.6975 74.1342 10.1523 68.5272 10.1523ZM76.1413 60.9133C76.1413 65.112 72.7259 68.5274 68.5272 68.5274H12.6902C8.49146 68.5274 5.07601 65.112 5.07601 60.9133V20.3045C5.07601 16.1058 8.49146 12.6904 12.6902 12.6904H68.5272C72.7259 12.6904 76.1413 16.1058 76.1413 20.3045V60.9133Z" fill="black"/>
<path opacity="0.2" d="M68.5272 12.6904H12.6902C8.4849 12.6904 5.07605 16.0993 5.07605 20.3046V22.8426C5.07605 18.6373 8.4849 15.2285 12.6902 15.2285H68.5272C72.7325 15.2285 76.1414 18.6373 76.1414 22.8426V20.3046C76.1414 16.0993 72.7325 12.6904 68.5272 12.6904Z" fill="white"/>
<path d="M40.6088 50.7609C46.2157 50.7609 50.761 46.2156 50.761 40.6087C50.761 35.0018 46.2157 30.4565 40.6088 30.4565C35.0019 30.4565 30.4566 35.0018 30.4566 40.6087C30.4566 46.2156 35.0019 50.7609 40.6088 50.7609Z" fill="#F0A03C"/>
<path d="M31.8646 45.6851C33.6232 48.7069 36.8605 50.7612 40.6086 50.7612C44.3568 50.7612 47.5941 48.7069 49.3527 45.6851H31.8646Z" fill="#1A3C95"/>
<path d="M42.7992 40.3946V34.534C42.7992 34.4995 42.785 34.4665 42.7601 34.4429C42.7353 34.4193 42.7007 34.4074 42.667 34.4084C41.6568 34.4589 40.7731 33.365 40.715 32.4262C40.6581 31.5072 41.3289 30.9277 42.5558 30.8363C42.6198 30.8315 42.67 30.7792 42.6723 30.715C42.6746 30.6508 42.6279 30.5952 42.5642 30.5863C39.1444 30.0988 38.3617 31.0851 38.3617 31.9597C38.3617 31.9767 38.3617 31.9795 38.3617 31.9962L38.3937 39.3949L42.7992 40.3946Z" fill="#5A1314"/>
<path d="M46.3717 41.0566H35.1447V45.7147H46.3717V41.0566Z" fill="white"/>
<path d="M39.4902 44.4784C33.9849 48.0017 36.2938 41.7548 35.3329 37.9082C35.6412 37.7737 35.8917 37.245 35.4245 37.131C35.2318 37.0544 35.2791 37.0201 35.442 36.9338C36.3067 36.5369 34.7577 36.2044 35.4684 35.9173C36.0826 35.446 34.2989 35.5506 34.1681 35.7331C34.6308 36.3884 33.6867 36.4828 34.4605 37.0721C33.7212 37.2389 34.1948 43.8259 34.0923 44.7903C34.2912 48.7494 39.3851 48.2959 39.4902 44.4784Z" fill="#5A1314"/>
<path d="M41.7273 44.4784C47.2326 48.0017 44.9237 41.7548 45.8846 37.9082C45.5762 37.7737 45.3257 37.245 45.793 37.131C45.9856 37.0544 45.9384 37.0201 45.7755 36.9338C44.9108 36.5369 46.4597 36.2044 45.7491 35.9173C45.1349 35.446 46.9186 35.5506 47.0493 35.7331C46.5866 36.3884 47.5308 36.4828 46.7569 37.0721C47.4963 37.2389 47.0227 43.8259 47.1252 44.7903C46.9262 48.7494 41.8324 48.2959 41.7273 44.4784Z" fill="#5A1314"/>
</svg>
