<svg width="82" height="82" viewBox="0 0 82 82" fill="none" xmlns="http://www.w3.org/2000/svg">
<path d="M5.87822 12.8247C3.84017 14.6826 2.53815 17.3323 2.53815 20.3043V60.9131C2.53815 66.5196 7.08379 71.0653 12.6903 71.0653H68.5274C71.1593 71.0653 73.5375 70.0374 75.3395 68.3927L5.87822 12.8247Z" fill="#F7DF4B"/>
<path d="M75.3394 68.3929C77.3774 66.5351 78.6795 63.8853 78.6795 60.9133V20.3045C78.6795 14.698 74.1338 10.1523 68.5273 10.1523H12.6902C10.0583 10.1523 7.68013 11.1803 5.87811 12.8249L75.3394 68.3929Z" fill="#3C883A"/>
<path d="M44.855 41.7687L51.7281 36.7764H43.2332L40.6089 28.6978L37.9845 36.7764H29.4897L36.3627 41.7687L33.7358 49.8473L40.6089 44.855L47.4819 49.8473L44.855 41.7687Z" fill="#C92D25"/>
<path opacity="0.15" d="M68.5274 10.1523H12.6903C7.08379 10.1523 2.53815 14.698 2.53815 20.3045V60.9133C2.53815 66.5198 7.08379 71.0655 12.6903 71.0655H68.5274C74.1339 71.0655 78.6796 66.5198 78.6796 60.9133V20.3045C78.6796 14.698 74.1339 10.1523 68.5274 10.1523ZM76.1415 60.9133C76.1415 65.1112 72.7253 68.5274 68.5274 68.5274H12.6903C8.49241 68.5274 5.07619 65.1112 5.07619 60.9133V20.3045C5.07619 16.1066 8.49241 12.6904 12.6903 12.6904H68.5274C72.7253 12.6904 76.1415 16.1066 76.1415 20.3045V60.9133Z" fill="black"/>
<path opacity="0.2" d="M68.5273 12.6904H12.6903C8.48471 12.6904 5.07611 16.099 5.07611 20.3046V22.8426C5.07611 18.6371 8.48471 15.2285 12.6903 15.2285H68.5273C72.7328 15.2285 76.1414 18.6371 76.1414 22.8426V20.3046C76.1414 16.099 72.7328 12.6904 68.5273 12.6904Z" fill="white"/>
</svg>
