<svg width="82" height="82" viewBox="0 0 82 82" fill="none" xmlns="http://www.w3.org/2000/svg">
<path d="M68.5273 10.1523H12.6902C7.08331 10.1523 2.53802 14.6976 2.53802 20.3045V60.9133C2.53802 66.5202 7.08331 71.0655 12.6902 71.0655H68.5273C74.1342 71.0655 78.6794 66.5202 78.6794 60.9133V20.3045C78.6794 14.6976 74.1342 10.1523 68.5273 10.1523Z" fill="white"/>
<path d="M78.6794 35.5328H45.6848V10.1523H35.5326V35.5328H2.53802V45.685H35.5326V71.0655H45.6848V45.685H78.6794V35.5328Z" fill="#EA3323"/>
<path opacity="0.15" d="M68.5273 10.1523H12.6902C7.08367 10.1523 2.53802 14.698 2.53802 20.3045V60.9133C2.53802 66.5198 7.08367 71.0655 12.6902 71.0655H68.5273C74.1338 71.0655 78.6794 66.5198 78.6794 60.9133V20.3045C78.6794 14.698 74.1338 10.1523 68.5273 10.1523ZM76.1414 60.9133C76.1414 65.1112 72.7252 68.5274 68.5273 68.5274H12.6902C8.49228 68.5274 5.07607 65.1112 5.07607 60.9133V20.3045C5.07607 16.1066 8.49228 12.6904 12.6902 12.6904H68.5273C72.7252 12.6904 76.1414 16.1066 76.1414 20.3045V60.9133Z" fill="black"/>
<path d="M25.3803 20.662C23.8092 20.9767 22.2179 21.1747 20.624 21.2534C20.7027 19.6595 20.9006 18.0707 21.2154 16.4971C19.7687 16.6874 18.3017 16.6874 16.855 16.4971C17.1697 18.0681 17.3677 19.6595 17.4464 21.2534C15.8525 21.1747 14.2637 20.9767 12.6901 20.662C12.8804 22.1087 12.8804 23.5757 12.6901 25.0224C14.2611 24.7077 15.8525 24.5097 17.4464 24.431C17.3677 26.0249 17.1697 27.6137 16.855 29.1873C18.3017 28.997 19.7687 28.997 21.2154 29.1873C20.9006 27.6163 20.7027 26.0249 20.624 24.431C22.2179 24.5097 23.8067 24.7077 25.3803 25.0224C25.1899 23.5757 25.1899 22.1087 25.3803 20.662Z" fill="#EA3323"/>
<path d="M55.8368 20.662C57.4079 20.9767 58.9992 21.1747 60.5931 21.2534C60.5145 19.6595 60.3165 18.0707 60.0018 16.4971C61.4485 16.6874 62.9154 16.6874 64.3621 16.4971C64.0474 18.0681 63.8495 19.6595 63.7708 21.2534C65.3647 21.1747 66.9535 20.9767 68.5271 20.662C68.3367 22.1087 68.3367 23.5757 68.5271 25.0224C66.956 24.7077 65.3647 24.5097 63.7708 24.431C63.8495 26.0249 64.0474 27.6137 64.3621 29.1873C62.9154 28.997 61.4485 28.997 60.0018 29.1873C60.3165 27.6163 60.5145 26.0249 60.5931 24.431C58.9992 24.5097 57.4104 24.7077 55.8368 25.0224C56.0272 23.5757 56.0272 22.1087 55.8368 20.662Z" fill="#EA3323"/>
<path d="M25.3803 60.5551C23.8092 60.2404 22.2179 60.0424 20.624 59.9637C20.7027 61.5576 20.9006 63.1464 21.2154 64.72C19.7687 64.5297 18.3017 64.5297 16.855 64.72C17.1697 63.149 17.3677 61.5576 17.4464 59.9637C15.8525 60.0424 14.2637 60.2404 12.6901 60.5551C12.8804 59.1084 12.8804 57.6414 12.6901 56.1947C14.2611 56.5094 15.8525 56.7074 17.4464 56.7861C17.3677 55.1922 17.1697 53.6034 16.855 52.0298C18.3017 52.2201 19.7687 52.2201 21.2154 52.0298C20.9006 53.6008 20.7027 55.1922 20.624 56.7861C22.2179 56.7074 23.8067 56.5094 25.3803 56.1947C25.1899 57.6414 25.1899 59.1084 25.3803 60.5551Z" fill="#EA3323"/>
<path d="M55.8368 60.5551C57.4079 60.2404 58.9992 60.0424 60.5931 59.9637C60.5145 61.5576 60.3165 63.1464 60.0018 64.72C61.4485 64.5297 62.9154 64.5297 64.3621 64.72C64.0474 63.149 63.8495 61.5576 63.7708 59.9637C65.3647 60.0424 66.9535 60.2404 68.5271 60.5551C68.3367 59.1084 68.3367 57.6414 68.5271 56.1947C66.956 56.5094 65.3647 56.7074 63.7708 56.7861C63.8495 55.1922 64.0474 53.6034 64.3621 52.0298C62.9154 52.2201 61.4485 52.2201 60.0018 52.0298C60.3165 53.6008 60.5145 55.1922 60.5931 56.7861C58.9992 56.7074 57.4104 56.5094 55.8368 56.1947C56.0272 57.6414 56.0272 59.1084 55.8368 60.5551Z" fill="#EA3323"/>
<path opacity="0.2" d="M68.5273 12.6904H12.6902C8.48468 12.6904 5.07608 16.099 5.07608 20.3046V22.8426C5.07608 18.6371 8.48468 15.2285 12.6902 15.2285H68.5273C72.7328 15.2285 76.1414 18.6371 76.1414 22.8426V20.3046C76.1414 16.099 72.7328 12.6904 68.5273 12.6904Z" fill="white"/>
</svg>
