<?xml version="1.0" encoding="UTF-8"?><svg id="Layer_1" xmlns="http://www.w3.org/2000/svg" viewBox="0 0 307.42 380.62"><defs><style>.cls-1{fill:#a9936f;}</style></defs><g id="Logo"><path id="Vector" class="cls-1" d="M251.25,324.31l10,9.24c-15.52,16.8-34.93,29.95-56.8,38.03l-4.71-12.78c19.84-7.33,37.44-19.26,51.52-34.5Z"/><path id="Vector_2" class="cls-1" d="M189.82,362.04l3.7,13.11c-12.66,3.57-26.01,5.48-39.8,5.48s-27.08-1.9-39.7-5.45l3.7-13.11c11.45,3.22,23.53,4.94,36.01,4.94s24.63-1.73,36.11-4.97Z"/><path id="Vector_3" class="cls-1" d="M107.78,358.85l-4.71,12.78c-21.88-8.07-41.3-21.21-56.84-38.01l10-9.24c14.09,15.23,31.71,27.15,51.56,34.47Z"/><path id="Vector_4" class="cls-1" d="M258.03,316.38c17.82-22.6,28.46-51.14,28.46-82.16,0-73.33-59.45-132.78-132.78-132.78S20.93,160.9,20.93,234.23c0,31.05,10.66,59.61,28.51,82.22l-10.69,8.43c-19.69-24.93-31.44-56.42-31.44-90.65,0-80.85,65.54-146.39,146.39-146.39s146.39,65.54,146.39,146.39c0,34.2-11.73,65.67-31.38,90.58l-10.69-8.43Z"/><path id="Vector_5" class="cls-1" d="M40.17,234.23c0-62.6,50.94-113.54,113.54-113.54s113.54,50.94,113.54,113.54-50.94,113.54-113.54,113.54-113.54-50.92-113.54-113.54ZM34.69,234.23c0,65.63,53.39,119.02,119.02,119.02s119.02-53.39,119.02-119.02-53.38-119.02-119.02-119.02-119.02,53.39-119.02,119.02Z"/><path id="Vector_6" class="cls-1" d="M235.84,234.23c0,45.36-36.77,82.13-82.13,82.13s-82.13-36.77-82.13-82.13,36.77-82.13,82.13-82.13,82.13,36.77,82.13,82.13ZM153.71,156.83c-42.75,0-77.4,34.65-77.4,77.4s34.65,77.4,77.4,77.4,77.4-34.65,77.4-77.4-34.65-77.4-77.4-77.4Z"/><path id="Vector_7" class="cls-1" d="M87.86,174.77c4.17-4.47,4.15-9.37-.03-13.26-4.04-3.77-8.84-3.36-13.01,1.11l-3.91,4.19,13.04,12.15,3.91-4.19ZM77.44,164.77c2.43-2.61,5.24-2.7,7.72-.4,2.59,2.41,2.76,5.26.32,7.88l-1.43,1.53-8.03-7.48,1.43-1.53Z"/><path id="Vector_8" class="cls-1" d="M107.91,157.97l-1.96-2.79-6.42,4.51-2.3-3.28,5.41-3.8-1.84-2.62-5.41,3.8-2.22-3.17,6.21-4.37-1.91-2.73-9.36,6.58,10.23,14.58,9.57-6.73Z"/><path id="Vector_9" class="cls-1" d="M119.01,152.98c4.44-1.89,5.81-5.46,3.84-10.09l-4.09-9.6-3.49,1.49,4.1,9.62c1.08,2.54.47,4.46-1.64,5.36-2.11.9-3.95.03-5.03-2.51l-4.1-9.62-3.54,1.51,4.09,9.6c1.99,4.66,5.52,6.1,9.87,4.24Z"/><path id="Vector_10" class="cls-1" d="M134.58,147.56l3.78-.74-2.8-14.16,4.99-.98-.66-3.32-13.74,2.7.66,3.32,4.97-.98,2.8,14.16Z"/><path id="Vector_11" class="cls-1" d="M158.48,140.36c-.04-3.07-1.63-4.23-4.54-5.43-2.34-.94-3.22-1.39-3.21-2.68-.01-.98.78-1.59,2.05-1.61,1.7-.03,2.65.99,3.17,1.68l2.27-2.41c-1.03-1.35-2.67-2.64-5.64-2.59-3.46.06-5.78,2.24-5.74,5.18.04,3.2,2.12,4.51,4.82,5.55,2,.72,2.81,1.4,2.82,2.66.01,1.06-.8,1.77-2.43,1.8-1.94.03-3.04-1.29-3.59-2.08l-2.29,2.57c.97,1.38,2.77,2.98,6,2.92,4.05-.07,6.35-2.51,6.31-5.55Z"/><path id="Vector_12" class="cls-1" d="M171.92,144.18c-3.07-.57-4.75-3.27-4.1-6.75.63-3.4,3.16-5.27,6.26-4.7,1.75.32,2.94,1.28,3.57,2.81l3.15-1.81c-1.06-2.22-2.89-3.79-6.09-4.38-5.31-.98-9.75,2.03-10.76,7.41-1.05,5.61,1.87,9.85,7.28,10.85,3.45.64,5.74-.36,7.47-2.03l-2.15-2.71c-1.07,1.06-2.39,1.71-4.63,1.3Z"/><path id="Vector_13" class="cls-1" d="M192,154.1l3.53,1.52,7.06-16.37-3.53-1.52-2.82,6.55-6.33-2.73,2.82-6.55-3.53-1.52-7.06,16.37,3.53,1.52,2.87-6.67,6.33,2.73-2.88,6.67Z"/><path id="Vector_14" class="cls-1" d="M210.16,165.5l1.97-2.78-6.4-4.54,2.31-3.27,5.39,3.82,1.85-2.61-5.39-3.83,2.24-3.16,6.19,4.39,1.93-2.72-9.33-6.62-10.3,14.54,9.54,6.77Z"/><path id="Vector_15" class="cls-1" d="M216.65,171.67l4.37-4.13.9.96-1.63,7.04,3.21,3.4,1.6-7.9c2.27,1.12,4.56.84,6.46-.95,2.78-2.62,2.45-5.98-.76-9.37l-3.85-4.07-12.95,12.23,2.64,2.8ZM227.16,161.74l1.26,1.33c1.51,1.6,1.61,3.13.41,4.27-1.3,1.22-2.82,1.07-4.35-.54l-1.26-1.33,3.94-3.72Z"/><path id="Vector_16" class="cls-1" d="M64.6,272.86l4.41-1.97,2.93,6.55,3.07-1.37-4.49-10.04-16.19,7.24,1.56,3.5,5.73-2.56,2.65,5.91,2.98-1.33-2.65-5.91Z"/><path id="Vector_17" class="cls-1" d="M83.7,289.13l-8.45,6.08c-2.23,1.61-4.23,1.43-5.57-.43-1.34-1.86-.89-3.83,1.34-5.43l8.45-6.08-2.24-3.11-8.43,6.07c-4.09,2.94-4.72,6.69-1.97,10.51,2.81,3.9,6.57,4.45,10.64,1.52l8.43-6.07-2.21-3.07Z"/><path id="Vector_18" class="cls-1" d="M91.93,302.16c1.25,1.15,1.24,2.53,1.15,3.39l3.28-.2c.18-1.68-.13-3.75-2.3-5.74-2.54-2.33-5.7-2.34-7.68-.18-2.15,2.35-1.54,4.73-.3,7.33.96,1.89,1.07,2.94.22,3.87-.71.78-1.79.73-2.98-.36-1.42-1.3-1.31-3.02-1.17-3.97l-3.41.29c-.24,1.67-.02,4.06,2.34,6.23,2.97,2.73,6.29,2.53,8.34.29,2.07-2.26,1.71-4.19.42-7.05-1.04-2.28-1.38-3.22-.49-4.15.66-.72,1.65-.62,2.57.23Z"/><path id="Vector_19" class="cls-1" d="M106.52,309.12c-2.91-1.85-6.02-1.3-7.59,1.18-1.71,2.69-.68,4.92.99,7.27,1.27,1.69,1.57,2.7.9,3.77-.56.89-1.63,1.04-3,.17-1.63-1.03-1.82-2.74-1.85-3.7l-3.3.89c.06,1.68.69,4,3.4,5.72,3.41,2.16,6.64,1.38,8.26-1.18,1.64-2.58.95-4.42-.82-7.01-1.43-2.06-1.92-2.92-1.21-4,.52-.82,1.51-.9,2.58-.22,1.43.91,1.66,2.27,1.73,3.14l3.2-.77c-.12-1.69-.78-3.66-3.28-5.25Z"/><path id="Vector_20" class="cls-1" d="M120.97,316.9l-5.38-2.13-6.55,16.49,5.73,2.28c3.99,1.58,6.73.6,7.82-2.15.86-2.17-.11-4.11-1.71-5.1l.02-.05c1.69.14,3.32-.62,4.16-2.75,1.04-2.63-.24-5.04-4.11-6.58ZM119.25,329.52c-.5,1.27-1.69,1.62-3.49.91l-1.96-.78,1.56-3.94,1.93.77c1.79.71,2.45,1.78,1.95,3.04ZM121.38,322.68c-.48,1.22-1.64,1.62-3.21.99l-1.72-.68,1.52-3.82,1.72.68c1.62.65,2.19,1.59,1.7,2.83Z"/><path id="Vector_21" class="cls-1" d="M135.69,321.33l.39,1.66-9.21,14.81,3.95.69,1.87-3.2,6.18,1.08.66,3.64,4.1.72-3.94-18.7-4-.7ZM134.33,332.47l2.89-4.98h.05s1.01,5.67,1.01,5.67l-3.95-.69Z"/><path id="Vector_22" class="cls-1" d="M154.79,337.41l-.22-14.29-3.83.06.27,17.74,10.31-.16-.05-3.45-6.48.1Z"/><path id="Vector_23" class="cls-1" d="M171.61,335.86l-2.54-14.06-3.77.68,3.15,17.45,10.15-1.83-.61-3.39-6.38,1.15Z"/><path id="Vector_24" class="cls-1" d="M186.27,325.79l-6.37,2.02.92,2.89,6.37-2.02-.92-2.89Z"/><path id="Vector_25" class="cls-1" d="M201.06,319.7l-.02-.05c1.22-1.17,1.73-2.9.69-4.94-1.28-2.52-3.94-3.16-7.65-1.26l-5.15,2.63,8.05,15.81,5.5-2.8c3.82-1.95,4.9-4.66,3.55-7.3-1.06-2.09-3.16-2.63-4.96-2.09ZM195.65,320.87l-1.87-3.67,1.65-.84c1.56-.8,2.64-.6,3.25.6.6,1.17.13,2.3-1.38,3.07l-1.65.84ZM200.78,326.3l-1.88.96-1.92-3.78,1.86-.95c1.72-.88,2.95-.67,3.57.55.62,1.22.1,2.35-1.62,3.22Z"/><path id="Vector_26" class="cls-1" d="M215.66,298.4l-2.93,2.39,6.59,8.07c1.74,2.13,1.69,4.14-.09,5.58-1.77,1.45-3.77,1.12-5.51-1.01l-6.59-8.07-2.97,2.42,6.57,8.05c3.19,3.9,6.97,4.3,10.61,1.33,3.72-3.04,4.05-6.83.88-10.71l-6.57-8.05Z"/><path id="Vector_27" class="cls-1" d="M226.43,285.48l8.61,6.6-.02.02-13.2-.63-2.79,3.63,2.18.12,12.64,9.7,2.3-3-8.57-6.57.03-.04,13.08.7,2.1-2.73-14.07-10.8-2.3,3Z"/><path id="Vector_28" class="cls-1" d="M246.12,266.81c-5.02-2.26-9.41-.35-11.91,5.21l-2.35,5.2,16.17,7.29,2.35-5.2c2.51-5.55.92-10.16-4.26-12.49ZM247.32,277.7l-.86,1.9-9.96-4.49.86-1.9c1.46-3.23,4.08-4.23,7.15-2.84,3.21,1.45,4.28,4.07,2.81,7.33Z"/><path id="Vector_29" class="cls-1" d="M219.25,241.72s-12.49-41.41-14.51-48.05c-1.73-5.68-6.18-5.32-6.18-5.32,0,0-1.47.07-13.23-.06-11.35-.12-12.44,2.71-4.37,13.37,2.56,3.38,1.56,3.87-5,5.01-6.57,1.14-9.7-5.28-10.08-8.1-.38-2.83-1.83-12.86-2-13.35-.42-1.2,2.65-2.1,4.14-1.14,2.75,1.76,2.36,2.32,2.36-2.89s-6.89-4.79-6.89-4.79c-.45-5.52-8.69-4.58-11.33-4.4-2.64.18-5.29,2.1-12.33,2.1s-5.81,9.03-5.81,9.03c0,0,3.27-.97,5.76-.91,2.46.06,8.84-.06,6.91,3.85,0,0-5.11-1.81-7.51-1.81s-8.18-.05-9.62-2.16c-1.44-2.1-1.98-2.76-1.98-2.76,0,0-1.62,6.6,2.11,7.27,3.73.66,7.58,0,9.38-.12,1.8-.13,5.35-.13,6.31,0,.96.12-.06,1.14-1.93,1.26-1.86.12-6.13-.18-4.98,1.74,1.14,1.93,3.12,3.01,4.32,3.25,1.21.24,4.51-.3,3.07,3.25l-.81,2.37c-.93,2.7-3.82,9.07-10.38,7.91-6.57-1.13-7.55-1.61-5.01-4.99,8.07-10.67,6.99-13.5-4.37-13.38-11.76.14-13.23.05-13.23.05,0,0-4.45-.36-6.18,5.32-2.03,6.64-17.69,48.69-17.69,48.69,0,0-.7,4.07,2.72,5.2,4.48,1.48,5.94-2.86,5.94-2.86l11.36-30.11c.85.53,1.68,1.05,2.52,1.54l-14.19,39.35s-1.45,4.34,3.13,5.94c4.09,1.42,5.94-3.68,5.94-3.68l13.66-37.23c.73.31,1.46.62,2.16.91l-14.39,41.12s-1.32,4.41,2.93,5.85c4.24,1.45,5.96-3.6,5.96-3.6l14.28-40.42c.85.23,1.69.44,2.52.63,0,.05-.01.08-.01.08l-7.26,24.25s-1.2,4.17,2.88,5.77c4.09,1.6,6.33-3.85,6.33-3.85l6.65-21.4s2.73,11.14-2.08,18.92c-4.81,7.78-9.52,12.97-15.69,15.85,0,0,.16.89,2.41,1.04,2.24.17,2.4.74,2.72,1.13l-3.19,4.89s-.49,1.76-2.65.81c-2.16-.96-4.88-2.41-4.88-2.41,0,0-2.81-.71-3.45.65l-.64,1.36s-3.2.32-3.61,2.16c-.4,1.85.17,2.08.17,2.08,0,0,1.45-1.02,2.08-.63.86.51.16,2.05,1.16,2.42,1.79.64,3.1-.36,4.06-1.22.63-.58,2.16.07,2.24.56.08.48-.64,1.76-2.48,2-1.84.25-5.85.95-5.62,3.05.21,1.76.24,1.92.24,1.93-.02.04-1.5,3.21,1.52,4.4,0,0,.49-1.92,1.12-1.92s1.2,1.12,2.32,1.12,2.16-.96,2.81-2.88c.63-1.93,1.76-4.49,1.76-4.49,0,0,.8-.95,1.28-.8.48.16.73,1.05.56,1.6-.16.57-.48,1.85-.56,2.17-.08.31-2.8,3.68-.64,5.29,2.16,1.59,1.92,2.24,2.48,2.63.56.41,2.81,1.2,3.61.73,0,0-.96-1.76-1.21-2.08-.24-.32-.16-.96,1.36-.96s1.53-1.93.57-3.37c-.96-1.44-1.3-2.83-1.61-3.77-.62-1.89,1.08-2.57,1.85-.65.74,1.86.44,3.67,2.08,3.41,1.22-.19,1.52-1,2.08-.93.56.08,2.15,1.19,1.3,3.25,0,0,3.75-.61,2.47-4.04-.85-2.27-1.88-1.14-1.21-3.37.52-1.76-1.04-3.05-2.89-2.97-1.73.07-3.97-.39-2.88-2.48,1.15-2.22,2.72-4.88,2.72-4.88l2.64,3.05s2.49-6.25,4.73-9.06c2.24-2.8,4.97-6.26,6.25-5.53,1.28.72,1.68,9.78.64,14.34-1.04,4.57-4.81,14.59-5.69,15.95-.88,1.36,4.97-.88,5.69-1.13.72-.24,2.17-2,2.48.73.33,2.72,1.39,7.9,3.87,10.56l.06-.06c2.49-2.65,3.69-8.01,4.01-10.74.32-2.72,1.76-.95,2.49-.72.71.24,6.57,2.48,5.68,1.12-.88-1.36-4.64-11.38-5.68-15.94-1.05-4.57-.65-13.64.64-14.35,1.28-.72,4,2.74,6.24,5.53,2.24,2.81,4.73,9.06,4.73,9.06l2.64-3.05s1.57,2.66,2.73,4.89c1.09,2.08-1.16,2.56-2.88,2.48-1.85-.07-3.42,1.22-2.88,2.97.67,2.23-.36,1.1-1.21,3.37-1.27,3.43,2.47,4.04,2.47,4.04-.85-2.06.74-3.16,1.3-3.25.56-.07.86.74,2.08.93,1.65.25,1.35-1.56,2.09-3.41.77-1.93,2.47-1.26,1.84.65-.31.94-.64,2.32-1.61,3.76-.96,1.44-.96,3.37.56,3.37s1.61.64,1.36.95c-.24.33-1.2,2.09-1.2,2.09.8.48,3.04-.33,3.61-.73.56-.4.32-1.04,2.48-2.64,2.16-1.61-.57-4.97-.64-5.29-.09-.33-.41-1.6-.56-2.16-.16-.56.08-1.44.56-1.6.48-.16,1.28.79,1.28.79,0,0,1.12,2.57,1.76,4.49.64,1.93,1.69,2.89,2.8,2.89s1.68-1.13,2.33-1.13,1.12,1.93,1.12,1.93c3.02-1.2,1.54-4.37,1.52-4.4,0,0,.03-.17.24-1.93.23-2.09-3.77-2.81-5.61-3.06-1.85-.24-2.56-1.52-2.49-1.99.08-.49,1.61-1.14,2.25-.56.95.86,2.25,1.86,4.05,1.22,1.01-.36.31-1.9,1.16-2.42.63-.38,2.08.64,2.08.64,0,0,.56-.24.16-2.08-.4-1.85-3.61-2.16-3.61-2.16l-.64-1.37c-.65-1.35-3.44-.64-3.44-.64,0,0-2.73,1.45-4.9,2.4-2.16.96-2.64-.8-2.64-.8l-2.57-5.53c.31-.4.48-.96,2.72-1.12,2.24-.16,2.41-1.05,2.41-1.05-6.18-2.88-9.3-7.13-14.11-14.91-4.81-7.77-2.09-18.91-2.09-18.91l6.65,21.4s2.25,5.45,6.33,3.84c4.08-1.6,2.88-5.77,2.88-5.77l-7.42-24.85s0,0-.01-.05c.81-.21,1.64-.45,2.48-.7l12.25,40.76s1.72,5.05,5.97,3.6c4.24-1.44,2.92-5.86,2.92-5.86l-12.45-41.7c.71-.3,1.42-.63,2.13-.96,0,.02.01.04.01.04l11.74,37.83s1.84,5.11,5.93,3.68c4.58-1.59,3.13-5.93,3.13-5.93l-12.38-40.23s0,0,0,0c.79-.5,1.59-1,2.38-1.54.24.24.3.52.3.52l9.4,30.48s1.46,4.33,5.95,2.84c3.41-1.12,2.71-5.18,2.71-5.18ZM94.05,242.42s-.75,2.44-2.15,1.76c-1.39-.67-.35-2.68-.35-2.68,0,0,10.82-27.83,11.9-30.54.77.56,1.55,1.11,2.31,1.64l-11.71,29.82ZM102.72,255.6s-.69,2.46-2.1,1.82c-1.41-.63-.42-2.66-.42-2.66,0,0,11.63-32.21,13.5-37.33.83.44,1.66.86,2.47,1.26l-13.45,36.91ZM112.98,263.07s-.66,2.47-2.07,1.84c-1.42-.61-.46-2.66-.46-2.66,0,0,11.84-33.95,14-40.08.88.31,1.76.61,2.62.88l-14.08,40.01ZM131.4,249.82s-.55,2.48-2,1.93c-1.44-.56-.56-2.64-.56-2.64,0,0,5.64-18.9,7.13-23.83.95.18,1.86.33,2.75.45l-7.32,24.09ZM151.84,179.27c-1.14-.05-2.16-1.2-2.16-1.2,0,0,.6-1.14,2.11-1.08,1.5.06,2.17,1.08,2.17,1.08,0,0-.96,1.26-2.11,1.2ZM180.76,249.16s.88,2.08-.56,2.65c-1.45.55-2-1.93-2-1.93l-7.42-23.72s-.17-.3.09-.76c.78-.14,1.59-.3,2.42-.47.47,1.45,7.47,24.23,7.47,24.23ZM197.2,262.14s.88,2.08-.57,2.65c-1.45.56-2-1.93-2-1.93l-12.49-40.39c.86-.29,1.72-.61,2.59-.95,1.36,4.34,12.46,40.62,12.46,40.62ZM207.52,254.93s.88,2.08-.56,2.65c-1.44.56-2.01-1.93-2.01-1.93l-11.76-37.98c.82-.43,1.64-.88,2.47-1.35.81,2.56,11.86,38.61,11.86,38.61ZM215.38,243.95c-1.43.56-2-1.93-2-1.93l-9.51-31.04c.77-.56,1.55-1.15,2.33-1.76,0,.02.01.03.01.04.26.75,9.74,32.05,9.74,32.05,0,0,.88,2.08-.56,2.65Z"/><path id="Vector_30" class="cls-1" d="M24.63,55.53H0l19.91,15.14-7.6,24.48,19.93-15.13,19.93,15.13-7.6-24.48,19.91-15.14h-24.62l-7.61-24.48-7.61,24.48Z"/><path id="Vector_31" class="cls-1" d="M105.61,24.48h-24.63l19.91,15.14-7.6,24.48,19.93-15.13,19.93,15.13-7.6-24.48,19.91-15.14h-24.62L113.22,0l-7.61,24.48Z"/><path id="Vector_32" class="cls-1" d="M186.59,24.48h-24.63l19.91,15.14-7.6,24.48,19.93-15.13,19.92,15.13-7.6-24.48,19.91-15.14h-24.62l-7.61-24.48-7.61,24.48Z"/><path id="Vector_33" class="cls-1" d="M267.58,55.53h-24.63l19.91,15.14-7.6,24.48,19.93-15.13,19.92,15.13-7.6-24.48,19.92-15.14h-24.62l-7.61-24.48-7.61,24.48Z"/></g></svg>