<svg width="82" height="82" viewBox="0 0 82 82" fill="none" xmlns="http://www.w3.org/2000/svg">
<path d="M2.53809 27.9185H78.6795V53.2989H2.53809V27.9185Z" fill="#F6D44A"/>
<path d="M12.6903 10.1523H68.5273C74.1313 10.1523 78.6795 14.7005 78.6795 20.3045V30.4567H2.53809V20.3045C2.53809 14.7005 7.08627 10.1523 12.6903 10.1523Z" fill="#BE2A2C"/>
<path d="M68.5273 71.0654L12.6902 71.0654C7.0862 71.0654 2.53802 66.5172 2.53802 60.9132V50.7611L78.6794 50.7611V60.9132C78.6794 66.5172 74.1313 71.0654 68.5273 71.0654Z" fill="#2D6A41"/>
<path opacity="0.15" d="M68.5273 10.1523H12.6903C7.08373 10.1523 2.53809 14.698 2.53809 20.3045V60.9133C2.53809 66.5198 7.08373 71.0655 12.6903 71.0655H68.5273C74.1339 71.0655 78.6795 66.5198 78.6795 60.9133V20.3045C78.6795 14.698 74.1339 10.1523 68.5273 10.1523ZM76.1415 60.9133C76.1415 65.1112 72.7252 68.5274 68.5273 68.5274H12.6903C8.49234 68.5274 5.07613 65.1112 5.07613 60.9133V20.3045C5.07613 16.1066 8.49234 12.6904 12.6903 12.6904H68.5273C72.7252 12.6904 76.1415 16.1066 76.1415 20.3045V60.9133Z" fill="black"/>
<path d="M44.6848 43.0046L51.2838 38.2128H43.129L40.6087 30.4565L38.0885 38.2128H29.9337L36.5326 43.0046L34.0124 50.7609L40.6087 45.9666L47.2051 50.7609L44.6848 43.0046Z" fill="black"/>
<path opacity="0.2" d="M68.5274 12.6904H12.6903C8.48477 12.6904 5.07617 16.099 5.07617 20.3046V22.8426C5.07617 18.6371 8.48477 15.2285 12.6903 15.2285H68.5274C72.7329 15.2285 76.1415 18.6371 76.1415 22.8426V20.3046C76.1415 16.099 72.7329 12.6904 68.5274 12.6904Z" fill="white"/>
</svg>
