<svg width="82" height="82" viewBox="0 0 82 82" fill="none" xmlns="http://www.w3.org/2000/svg">
<path d="M2.53809 20.3045V53.2991H78.6795V20.3045C78.6795 14.698 74.1339 10.1523 68.5273 10.1523H12.6903C7.08373 10.1523 2.53809 14.698 2.53809 20.3045Z" fill="white"/>
<path d="M68.5273 71.0654L12.6903 71.0654C7.08627 71.0654 2.53808 66.5172 2.53808 60.9132V50.7611L78.6795 50.7611V60.9132C78.6795 66.5172 74.1313 71.0654 68.5273 71.0654Z" fill="#C92A1E"/>
<path opacity="0.15" d="M68.5273 10.1523H12.6903C7.08373 10.1523 2.53809 14.698 2.53809 20.3045V60.9133C2.53809 66.5198 7.08373 71.0655 12.6903 71.0655H68.5273C74.1339 71.0655 78.6795 66.5198 78.6795 60.9133V20.3045C78.6795 14.698 74.1339 10.1523 68.5273 10.1523ZM76.1415 60.9133C76.1415 65.1112 72.7252 68.5274 68.5273 68.5274H12.6903C8.49234 68.5274 5.07613 65.1112 5.07613 60.9133V20.3045C5.07613 16.1066 8.49234 12.6904 12.6903 12.6904H68.5273C72.7252 12.6904 76.1415 16.1066 76.1415 20.3045V60.9133Z" fill="black"/>
<path d="M43.0656 53.3853L40.6088 51.9614L38.152 53.3853H37.6114V54.3193H38.152L40.0936 55.4462V60.9436H37.1393V62.4918H38.1748V61.8014H39.1697V62.4918H40.0936V62.8344H39.1697V63.5248H38.1748V62.8344H37.1393V64.3877H40.0936V65.2557H41.1215V55.4411L43.0631 54.3142H43.6037V53.3802H43.0631L43.0656 53.3853ZM42.2534 53.8523L40.6113 54.804L38.9692 53.8523L40.6113 52.8954L42.2534 53.8523Z" fill="#F3DA4A"/>
<path d="M28.4565 38.3853H41.5453V47.3826H28.4565V38.3853Z" fill="black"/>
<path d="M30.0836 26.8652H33.8704V33.8093H30.0836V26.8652Z" fill="black"/>
<path d="M39.6748 38.3853H52.7635V47.3826H39.6748V38.3853Z" fill="black"/>
<path d="M47.3474 26.8652H51.1342V33.8093H47.3474V26.8652Z" fill="black"/>
<path d="M37.5023 22.4463H43.4997V33.337H37.5023V22.4463Z" fill="black"/>
<path d="M54.8523 34.713V33.7917H55.8371V31.4516H54.6493V32.6267H53.2051V31.4516H52.0173V24.4415H52.464V23.4643H53.2305V21.3882H51.6646V22.34H50.5326V21.3882H48.289V22.34H47.157V21.3882H45.8473V23.4643H46.2763V24.4415H46.6722V31.4516H46.4666V32.6267H44.8169V31.4516H44.2357V22.538H44.8804V21.241H45.6671V19.5278H44.2154V20.3578H43.0149V19.5278H41.2053V20.3578H40.0048V19.5278H38.1951V20.3578H36.9946V19.5278H35.5429V21.241H36.3297V22.538H36.9743V31.4516H36.3931V32.6267H34.7434V31.4516H34.5378V24.4415H34.9337V23.4643H35.3627V21.3882H34.053V22.34H32.9211V21.3882H30.6774V22.34H29.5455V21.3882H27.9795V23.4643H28.746V24.4415H29.1927V31.4516H28.0049V32.6267H26.5607V31.4516H25.3729V33.7917H26.3577V34.713H27.1572V46.0124L25.4567 47.1316H25.3856V48.5707H32.8881V49.1748H48.3143V48.5707H55.8168V47.1316H55.7457L54.0452 46.0124V34.713H54.8447H54.8523ZM39.119 24.1877V26.2638H38.7281V24.1877H39.119ZM42.0961 26.2638V24.1877H42.487V26.2638H42.0961ZM40.4159 26.4872V23.5735H40.7992V26.4872H40.4159ZM39.086 31.4516V28.8577C39.086 27.7638 40.0428 27.4719 40.6063 27.4719C41.1697 27.4719 42.1266 27.7638 42.1266 28.8577V32.6292H39.086V31.4516ZM43.4641 46.5656H37.751V42.5022C37.751 40.7611 38.8195 39.7231 40.6063 39.7231C42.7129 39.7231 43.4616 41.1596 43.4616 42.5022L43.4641 46.5656ZM48.058 29.5734C48.058 28.8653 48.6341 28.2892 49.3422 28.2892H49.3676C49.3803 28.2892 49.393 28.2892 49.4082 28.2892C50.0707 28.3222 50.5681 28.8755 50.5681 29.5734V32.6292H48.0656V31.4541H48.058V29.5734ZM30.647 31.4516V29.5734C30.647 28.8755 31.1444 28.3222 31.8069 28.2892C31.8196 28.2892 31.8323 28.2892 31.8475 28.2892H31.8729C32.581 28.2892 33.1571 28.8653 33.1571 29.5734V31.4516H33.1495V32.6267H30.647V31.4516ZM29.9236 43.0378C29.9236 41.9337 30.8348 40.9997 31.9109 40.9997C33.0074 40.9997 33.8982 41.9134 33.8982 43.0378V45.9616H29.9236V43.0378ZM51.294 45.9616H47.3194V43.0378C47.3194 41.9134 48.2103 40.9997 49.3067 40.9997C50.3828 40.9997 51.294 41.9337 51.294 43.0378V45.9616Z" fill="#C92A1E"/>
<path opacity="0.2" d="M68.5274 12.6904H12.6903C8.48477 12.6904 5.07617 16.099 5.07617 20.3046V22.8426C5.07617 18.6371 8.48477 15.2285 12.6903 15.2285H68.5274C72.7329 15.2285 76.1415 18.6371 76.1415 22.8426V20.3046C76.1415 16.099 72.7329 12.6904 68.5274 12.6904Z" fill="white"/>
</svg>
