<svg width="82" height="82" viewBox="0 0 82 82" fill="none" xmlns="http://www.w3.org/2000/svg">
<path d="M78.6794 60.9131V27.9185H2.53796V60.9131C2.53796 66.5196 7.08361 71.0653 12.6902 71.0653H68.5272C74.1337 71.0653 78.6794 66.5196 78.6794 60.9131Z" fill="#C83029"/>
<path d="M12.6902 10.1523H68.5272C74.1312 10.1523 78.6794 14.7005 78.6794 20.3045V30.4567H2.53796V20.3045C2.53796 14.7005 7.08614 10.1523 12.6902 10.1523Z" fill="#0A2383"/>
<path opacity="0.15" d="M12.6902 71.0655H68.5272C74.1337 71.0655 78.6794 66.5198 78.6794 60.9133V20.3045C78.6794 14.698 74.1337 10.1523 68.5272 10.1523H12.6902C7.08361 10.1523 2.53796 14.698 2.53796 20.3045V60.9133C2.53796 66.5198 7.08361 71.0655 12.6902 71.0655ZM5.07601 20.3045C5.07601 16.1066 8.49222 12.6904 12.6902 12.6904H68.5272C72.7251 12.6904 76.1413 16.1066 76.1413 20.3045V60.9133C76.1413 65.1112 72.7251 68.5274 68.5272 68.5274H12.6902C8.49222 68.5274 5.07601 65.1112 5.07601 60.9133V20.3045Z" fill="black"/>
<path d="M39.6647 14.9617C38.8423 16.3195 38.7434 17.4058 39.3043 19.2814C39.5758 20.1571 39.8728 21.4641 39.9972 22.1723C40.1647 23.1723 40.1469 23.2687 40.1697 23.4844C40.3779 23.4844 40.8499 23.4844 41.0707 23.4844C41.1012 23.1393 41.1266 22.7382 41.2002 22.19C41.2865 21.5504 41.5428 20.2078 41.8169 19.2789C42.3652 17.4185 42.3296 16.2764 41.4768 14.9845C41.1647 14.5048 40.7484 14.1089 40.5606 14.1089C40.3728 14.1089 39.9489 14.4718 39.6647 14.9617Z" fill="#F6DD4C"/>
<path d="M43.7077 18.802C42.5428 19.302 41.8423 20.6878 41.459 22.5939C41.388 22.9517 41.3702 23.0786 41.3347 23.4822C41.5859 23.4822 41.6849 23.4847 41.9311 23.4822C41.9844 23.2106 42.0225 23.0659 42.1418 22.6827C42.6113 21.1903 43.9971 20.5939 43.9362 21.9898C43.9159 22.3756 43.7534 22.5913 43.5732 22.7969C43.7966 22.7411 44.2712 22.5203 44.657 22.2994C46.8016 21.0076 45.9564 17.8452 43.7077 18.802Z" fill="#F6DD4C"/>
<path d="M38.9463 23.9694C39.8879 23.9745 41.5123 23.9821 42.294 23.977C42.294 23.7765 42.299 23.878 42.299 23.7156C41.7255 23.7105 39.5224 23.7182 38.9514 23.7182C38.9514 23.8222 38.9514 23.873 38.9463 23.9694Z" fill="#F6DD4C"/>
<path d="M39.223 25.0733C38.8829 25.4388 38.355 25.7129 38.355 25.7129C38.355 25.7129 38.8245 25.7662 39.2611 25.7332C39.6976 25.7002 39.9413 25.6469 40.1976 25.52C40.1265 26.0403 40.124 26.5454 40.124 26.5454C40.1874 27.2154 40.2585 27.388 40.4057 27.7154C40.6037 27.987 40.7179 27.9895 40.8626 27.7027C41.0199 27.3804 41.1215 27.0505 41.1544 26.5454C41.1443 26.1672 41.1215 25.9921 41.0326 25.5302C41.3346 25.6622 41.525 25.6951 41.9768 25.7358C42.4387 25.7764 42.8626 25.7561 42.8626 25.7561C42.8626 25.7561 42.2382 25.4439 41.9641 25.0581C41.6925 24.6799 41.7509 24.7434 41.5529 24.2535C41.3143 24.2434 40.1012 24.2535 39.7154 24.2535C39.5047 24.7002 39.4844 24.7916 39.223 25.0733Z" fill="#F6DD4C"/>
<path d="M37.5099 18.802C38.6748 19.302 39.3753 20.6878 39.7586 22.5939C39.8296 22.9517 39.8474 23.0786 39.8829 23.4822C39.6317 23.4822 39.5327 23.4847 39.2865 23.4822C39.2332 23.2106 39.1951 23.0659 39.0758 22.6827C38.6063 21.1903 37.2205 20.5939 37.2814 21.9898C37.3017 22.3756 37.4642 22.5913 37.6444 22.7969C37.421 22.7411 36.9464 22.5203 36.5606 22.2994C34.416 21.0076 35.2611 17.8452 37.5099 18.802Z" fill="#F6DD4C"/>
<path d="M19.6774 14.9617C18.8551 16.3195 18.7561 17.4058 19.317 19.2814C19.5886 20.1571 19.8855 21.4641 20.0099 22.1723C20.1774 23.1723 20.1597 23.2687 20.1825 23.4844C20.3906 23.4844 20.8627 23.4844 21.0835 23.4844C21.114 23.1393 21.1393 22.7382 21.2129 22.19C21.2992 21.5504 21.5556 20.2078 21.8297 19.2789C22.3779 17.4185 22.3424 16.2764 21.4896 14.9845C21.1774 14.5048 20.7612 14.1089 20.5734 14.1089C20.3855 14.1089 19.9617 14.4718 19.6774 14.9617Z" fill="#F6DD4C"/>
<path d="M23.7207 18.802C22.5557 19.302 21.8552 20.6878 21.472 22.5939C21.4009 22.9517 21.3831 23.0786 21.3476 23.4822C21.5989 23.4822 21.6978 23.4847 21.944 23.4822C21.9973 23.2106 22.0354 23.0659 22.1547 22.6827C22.6242 21.1903 24.01 20.5939 23.9491 21.9898C23.9288 22.3756 23.7664 22.5913 23.5862 22.7969C23.8095 22.7411 24.2841 22.5203 24.6699 22.2994C26.8145 21.0076 25.9694 17.8452 23.7207 18.802Z" fill="#F6DD4C"/>
<path d="M18.959 23.9694C19.9007 23.9745 21.525 23.9821 22.3067 23.977C22.3067 23.7765 22.3118 23.878 22.3118 23.7156C21.7382 23.7105 19.5352 23.7182 18.9641 23.7182C18.9641 23.8222 18.9641 23.873 18.959 23.9694Z" fill="#F6DD4C"/>
<path d="M19.2359 25.0733C18.8958 25.4388 18.3679 25.7129 18.3679 25.7129C18.3679 25.7129 18.8375 25.7662 19.274 25.7332C19.7105 25.7002 19.9542 25.6469 20.2105 25.52C20.1395 26.0403 20.1369 26.5454 20.1369 26.5454C20.2004 27.2154 20.2715 27.388 20.4187 27.7154C20.6166 27.987 20.7308 27.9895 20.8755 27.7027C21.0329 27.3804 21.1344 27.0505 21.1674 26.5454C21.1572 26.1672 21.1344 25.9921 21.0456 25.5302C21.3476 25.6622 21.5379 25.6951 21.9897 25.7358C22.4516 25.7764 22.8755 25.7561 22.8755 25.7561C22.8755 25.7561 22.2511 25.4439 21.977 25.0581C21.7055 24.6799 21.7638 24.7434 21.5659 24.2535C21.3273 24.2434 20.1141 24.2535 19.7283 24.2535C19.5177 24.7002 19.4974 24.7916 19.2359 25.0733Z" fill="#F6DD4C"/>
<path d="M17.5228 18.802C18.6878 19.302 19.3883 20.6878 19.7715 22.5939C19.8426 22.9517 19.8603 23.0786 19.8959 23.4822C19.6446 23.4822 19.5456 23.4847 19.2994 23.4822C19.2461 23.2106 19.2081 23.0659 19.0888 22.6827C18.6192 21.1903 17.2335 20.5939 17.2944 21.9898C17.3147 22.3756 17.4771 22.5913 17.6573 22.7969C17.434 22.7411 16.9593 22.5203 16.5736 22.2994C14.4289 21.0076 15.2741 17.8452 17.5228 18.802Z" fill="#F6DD4C"/>
<path d="M60.6441 14.1065C60.4563 14.1065 60.04 14.5025 59.7279 14.9822C58.8751 16.274 58.837 17.4162 59.3878 19.2765C59.6619 20.208 59.9182 21.5481 60.0045 22.1877C60.0781 22.7384 60.1035 23.1369 60.1339 23.4821C60.3522 23.4821 60.8268 23.4821 61.0349 23.4821C61.0578 23.2638 61.04 23.1699 61.2075 22.1699C61.3319 21.4618 61.6288 20.1547 61.9004 19.2791C62.4613 17.4035 62.3649 16.3172 61.54 14.9593C61.2558 14.472 60.8319 14.1065 60.6441 14.1065Z" fill="#F6DD4C"/>
<path d="M57.497 18.8017C55.2483 17.8423 54.4057 21.0098 56.5478 22.3016C56.9336 22.5199 57.4082 22.7433 57.6316 22.7991C57.4514 22.5935 57.2889 22.3778 57.2686 21.992C57.2052 20.5961 58.5909 21.1951 59.063 22.6849C59.1823 23.0707 59.2204 23.2128 59.2737 23.4844C59.5199 23.4844 59.6188 23.4844 59.8701 23.4844C59.8346 23.0808 59.8168 22.9539 59.7457 22.5961C59.3625 20.6875 58.662 19.3017 57.497 18.8017Z" fill="#F6DD4C"/>
<path d="M62.2532 23.7206C61.6796 23.7206 59.4791 23.713 58.9055 23.7181C58.9055 23.8805 58.9106 23.779 58.9106 23.9795C59.6923 23.9845 61.3167 23.9769 62.2583 23.9719C62.2557 23.8779 62.2532 23.8272 62.2532 23.7206Z" fill="#F6DD4C"/>
<path d="M61.9816 25.0733C61.7202 24.7916 61.6999 24.7002 61.4892 24.2535C61.1034 24.2535 59.8903 24.2434 59.6517 24.2535C59.4537 24.7434 59.5121 24.6774 59.2405 25.0581C58.9664 25.4413 58.342 25.7561 58.342 25.7561C58.342 25.7561 58.7659 25.7764 59.2278 25.7358C59.6796 25.6951 59.8699 25.6622 60.172 25.5302C60.0831 25.9921 60.0603 26.1672 60.0501 26.5454C60.0831 27.0505 60.1872 27.3829 60.342 27.7027C60.4867 27.9895 60.6009 27.9895 60.7989 27.7154C60.9435 27.388 61.0171 27.218 61.0806 26.5454C61.0806 26.5454 61.0755 26.0429 61.007 25.52C61.2659 25.6444 61.507 25.7002 61.9435 25.7332C62.3801 25.7662 62.8496 25.7129 62.8496 25.7129C62.8496 25.7129 62.3192 25.4388 61.9816 25.0733Z" fill="#F6DD4C"/>
<path d="M63.6948 18.8017C65.9435 17.8423 66.7861 21.0098 64.644 22.3016C64.2582 22.5199 63.7836 22.7433 63.5603 22.7991C63.7405 22.5935 63.9029 22.3778 63.9232 21.992C63.9867 20.5961 62.6009 21.1951 62.1288 22.6849C62.0095 23.0707 61.9715 23.2128 61.9182 23.4844C61.672 23.4844 61.573 23.4844 61.3217 23.4844C61.3572 23.0808 61.375 22.9539 61.4461 22.5961C61.8293 20.6875 62.5298 19.3017 63.6948 18.8017Z" fill="#F6DD4C"/>
<path d="M21.0453 40.7304C26.4539 44.5882 18.2966 37.4944 17.7687 37.0908C18.0732 38.2329 19.4971 39.7431 21.0453 40.7304Z" fill="#377E22"/>
<path d="M31.9895 43.1495C30.6723 42.9084 28.7967 40.4034 28.548 38.8323C28.5276 38.2435 28.0023 38.3323 28.2104 38.9795C28.6241 40.6978 31.2281 44.0328 28.6368 41.4769C28.0175 40.911 27.1444 39.5379 26.6622 39.2891C26.6977 40.7815 29.8601 42.7206 26.4997 42.2409C26.3678 41.8247 24.4439 39.246 24.7307 39.9693C24.5962 40.1749 27.2942 43.3906 25.5734 41.9211C24.5861 40.8475 23.0734 38.7866 22.5886 37.8805C20.7917 35.8856 24.5962 41.779 24.9008 41.982C24.5988 42.6013 19.68 34.8323 20.5506 37.142C22.0404 39.8272 22.515 40.6394 19.6673 37.1014C19.1978 36.4897 18.0303 34.7537 19.0379 36.6166C19.6902 37.8577 22.3374 40.7181 23.8069 41.812C24.3653 42.2181 25.1444 42.4668 25.784 42.5302C25.817 43.251 28.4185 44.0607 27.6546 44.4185C25.3348 42.7663 24.1114 42.1419 21.2384 41.4516C20.4135 40.8526 18.5379 39.0734 16.8501 38.0455C12.8476 35.8044 19.6445 40.3374 17.6014 39.4364C13.8654 38.0557 19.18 40.6851 19.6597 41.0226C17.7333 40.4795 14.6902 39.8577 15.307 40.2587C15.774 40.4643 22.2663 41.4896 19.4922 41.8983C19.0201 41.9313 18.1217 40.982 19.1394 42.0125C18.3628 42.2333 18.8653 42.1622 19.2815 42.2764C22.2587 43.6901 17.5937 42.8729 18.2714 44.4211C18.5024 43.4236 21.6165 43.0581 23.3576 44.5454C21.845 44.4414 18.4161 44.8449 19.0683 45.6216C20.449 44.949 21.5049 44.2993 20.8754 46.3779C21.1978 45.0607 23.317 44.6089 25.1749 45.3018C24.6394 45.0226 20.2663 47.0327 21.9744 46.7104C22.9642 46.2535 25.0632 45.4008 26.1089 45.5378C25.1825 47.4084 22.0277 47.2485 23.0505 49.0175C23.3043 50.1165 23.2028 47.8855 23.6597 47.7764C25.015 46.7053 25.7561 47.5251 24.4135 48.9921C25.1571 48.2434 25.4262 47.85 25.7003 49.1089C25.2104 47.449 26.5124 47.2637 28.1698 47.7205C26.383 48.4642 26.3551 49.5962 26.4566 51.0987C26.5048 49.2814 28.0251 47.4185 29.9896 48.1647C28.9794 47.3906 30.5759 47.5809 30.6165 47.2891C30.5124 46.9997 28.5378 47.6089 27.9363 47.185C25.0353 47.1368 25.2434 47.0936 27.8195 46.5784C29.6215 46.0886 28.0023 45.8602 25.8855 46.5987C25.8449 44.8855 29.454 46.2129 29.9083 45.5759C29.5657 45.3424 28.0277 44.7333 28.2865 44.3906C29.4642 44.9998 30.7205 45.5201 30.9591 45.4287C31.6545 44.9845 26.9541 44.2916 29.4693 43.9592C32.0225 44.6013 28.8525 43.251 28.3855 42.7358C29.1647 42.4389 29.7535 43.7333 31.2154 43.6673C32.5098 43.7231 30.4845 42.9769 29.9363 42.7536C30.3297 42.6901 33.7763 44.1216 31.9819 43.1444L31.9895 43.1495ZM28.3754 45.1393C28.1292 45.0327 27.2789 45.0556 27.8195 44.7713C27.9464 44.8703 28.1393 45.0099 28.3754 45.1393ZM21.2663 42.0023C21.5303 41.9008 21.6749 41.9922 22.2181 42.18C21.8881 42.1521 21.5099 42.2663 21.2663 42.0023ZM21.3323 42.5835C22.8703 43.6241 19.6394 42.7333 20.9719 42.6394C21.0836 42.6241 21.2054 42.6064 21.3323 42.5835ZM22.2536 42.7003C21.7105 41.8653 23.4516 42.7028 23.8678 43.3653C23.0658 43.0988 22.8221 43.1114 22.2536 42.7003ZM24.9211 44.0734C25.2536 44.2688 25.6444 44.4668 25.9439 44.6546C25.2586 44.751 23.3627 43.647 24.9211 44.0734ZM27.2764 44.6267C26.9363 44.9566 26.6216 44.5125 26.251 44.35C26.5937 44.4312 26.9896 44.5505 27.2764 44.6267ZM25.3119 43.6241C24.817 43.6216 24.3323 43.0201 23.9439 42.8196C24.8805 43.1977 25.4414 43.4998 25.3119 43.6241ZM19.9161 42.3069C20.2739 42.3323 20.6622 41.8475 20.944 42.1698C20.9338 42.4389 20.1902 42.7054 19.9161 42.3069ZM23.1292 44.0581C23.0277 44.0937 22.6597 43.9388 22.114 43.6419C22.3729 43.6419 23.2028 43.7739 23.1292 44.0581ZM28.2612 44.0429C27.3195 43.5759 26.6089 43.1241 26.4718 42.8779C26.7079 43.2383 29.4693 43.5658 28.2612 44.0429ZM27.6165 42.6749C28.2586 43.1977 27.3703 42.7764 26.8703 42.6647C27.0404 42.6673 27.3398 42.6216 27.6165 42.6749Z" fill="#377E22"/>
<path d="M27.5834 42.2003C28.0301 42.1165 25.0885 38.8297 25.124 38.8551C25.2611 39.5302 27.3829 42.7155 27.5834 42.2003Z" fill="#377E22"/>
<path d="M19.152 41.2102C17.0835 40.129 15.6191 43.0655 16.5251 42.5782C17.0531 41.0351 19.6292 41.5731 19.152 41.2102Z" fill="#377E22"/>
<path d="M28.9769 48.8267C28.2738 48.5145 26.9896 51.5805 28.053 50.1744C28.1444 49.6465 29.8677 48.7277 28.9769 48.8267Z" fill="#377E22"/>
<path d="M63.6212 56.459C63.6212 56.459 63.6085 56.459 63.6034 56.4564C63.1821 57.497 64.4511 54.6468 63.6212 56.459Z" fill="#377E22"/>
<path d="M55.6619 53.8779C42.7051 50.3525 60.6999 55.9717 63.6034 56.4565C64.04 55.1596 57.3827 54.7535 55.6619 53.8779Z" fill="#377E22"/>
<path d="M56.1289 53.1821C43.0732 50.1161 61.2253 55.0958 64.1542 55.4815C64.5476 54.1719 57.8776 53.9968 56.1289 53.1821Z" fill="#377E22"/>
<path d="M64.1694 55.4841C64.1694 55.4841 64.1567 55.4841 64.1516 55.4841C63.7684 56.5374 64.9359 53.6466 64.1694 55.4841Z" fill="#377E22"/>
<path d="M62.8674 57.5072C62.8674 57.5072 62.8573 57.5072 62.8497 57.5047C62.3751 58.5199 63.7913 55.7408 62.8674 57.5072Z" fill="#377E22"/>
<path d="M55.0552 54.5124C42.299 50.3119 59.9765 56.8677 62.8495 57.5047C63.3521 56.2332 56.7278 55.4768 55.0552 54.5124Z" fill="#377E22"/>
<path d="M62.2024 58.5931C58.9512 57.4916 52.5959 55.182 49.5908 53.8901C48.5959 54.5246 60.3319 58.8114 61.606 59.5601C62.1491 58.9307 61.5425 58.9586 60.8141 58.6312C61.3141 58.7911 62.2252 59.2784 62.1567 58.6845C62.3775 58.3241 62.9004 57.4104 62.1999 58.5906L62.2024 58.5931Z" fill="#377E22"/>
<path d="M62.1998 57.9894C62.3293 57.2813 51.8116 54.4362 49.9817 53.3423C47.6365 53.0402 63.9282 59.8727 62.1998 57.9894Z" fill="#377E22"/>
<path d="M61.6238 59.5652C61.6238 59.5652 61.6136 59.5626 61.6086 59.5601C61.0477 60.5322 62.6999 57.885 61.6238 59.5652Z" fill="#377E22"/>
<path d="M53.5553 56.6364C41.5275 50.7101 58.0882 59.6491 60.8598 60.6846C61.5374 59.4968 55.0781 57.8242 53.5553 56.6364Z" fill="#377E22"/>
<path d="M60.875 60.6897C60.875 60.6897 60.8648 60.6847 60.8598 60.6847C60.2481 61.6263 62.0374 59.0705 60.875 60.6897Z" fill="#377E22"/>
<path d="M41.6696 59.1873L42.3498 59.6746C43.3244 60.3548 43.8625 61.3015 43.8092 62.2761L43.7736 63.0832L44.0934 62.2913C44.4437 61.4614 44.3955 60.205 43.9818 59.2736L43.7406 58.7304L44.5071 59.0655C45.6036 59.5274 46.3244 60.3421 46.4741 61.3066L46.6061 62.1035L46.7558 61.2609C46.9259 60.3751 46.6188 59.1568 46.0198 58.332L45.6721 57.8523L46.4919 58.0198C47.6594 58.2431 48.535 58.8903 48.8827 59.804L49.1771 60.5553L49.1467 59.7C49.1289 58.799 48.5756 57.6721 47.8193 56.9893L47.3777 56.5909L48.2127 56.5833C49.4005 56.5604 50.3903 57.0096 50.9208 57.8294L51.3649 58.502L51.1594 57.6721C50.9563 56.7939 50.1797 55.8066 49.2964 55.2965L48.7812 54.9995L49.5985 54.8193C50.7558 54.5477 51.8167 54.7812 52.5071 55.4741L53.0807 56.0401L52.705 55.2711C52.3243 54.4564 51.3599 53.6493 50.3903 53.3346L49.8269 53.1518L50.5883 52.8041C51.6644 52.299 52.7507 52.3066 53.568 52.8396L54.2482 53.2736L53.7228 52.5985C53.1796 51.8803 52.068 51.294 51.0578 51.1874L50.4665 51.1264L51.1391 50.629C52.0857 49.9107 53.1517 49.6925 54.0629 50.0427L54.8167 50.327L54.1619 49.7762C53.4817 49.1874 52.2736 48.8447 51.2609 48.9513L50.6695 49.0123L51.2228 48.3854C51.9994 47.4844 52.9969 47.0504 53.9614 47.2052L54.7583 47.3245L54.0045 46.9234C53.2177 46.4869 51.9639 46.4057 50.9969 46.7204L50.4335 46.9031L50.8446 46.1747C51.4182 45.1316 52.3015 44.4996 53.2761 44.4489L54.0806 44.4006L53.2583 44.1646C52.3979 43.9032 51.1543 44.0808 50.2736 44.591L49.7584 44.8879L50.0096 44.0884C50.3548 42.9489 51.0858 42.1468 52.0299 41.8956L52.8065 41.6798L51.9538 41.6215C51.0578 41.5453 49.8776 41.9793 49.1213 42.6595L48.6797 43.058L48.7609 42.2255C48.8624 41.0402 49.4106 40.1012 50.2837 39.6596L50.9995 39.289L50.1543 39.4083C49.2609 39.52 48.1975 40.19 47.601 41.0149L47.2533 41.4946L47.1594 40.6621C47.0122 39.4819 47.3548 38.4489 48.1137 37.8347L48.7355 37.322L47.9335 37.6139C47.0833 37.9083 46.1822 38.7839 45.7685 39.7154L45.5274 40.2585L45.2635 39.4641C44.8726 38.3398 44.9944 37.2586 45.6112 36.4997L46.1137 35.8677L45.3878 36.322C44.6163 36.7865 43.9183 37.8322 43.7077 38.8296L43.5833 39.4108L43.1594 38.69C42.5452 37.6697 42.4386 36.5885 42.8828 35.718L43.2432 34.9972L42.629 35.5911C41.9716 36.2078 41.5046 37.3753 41.5046 38.3931V38.987L40.9412 38.3702C40.129 37.5022 39.7991 36.4642 40.0554 35.52L40.2584 34.7383L39.7813 35.4489C39.2661 36.1875 39.0529 37.4261 39.2635 38.4235L39.3879 39.0047L38.7077 38.5174C37.7331 37.8372 37.195 36.8905 37.2483 35.9159L37.2839 35.1088L36.9641 35.9032C36.6138 36.7332 36.662 37.9895 37.0757 38.921L37.3168 39.4641L36.5504 39.1291C35.4539 38.6672 34.7331 37.8525 34.5834 36.888L34.4514 36.0911L34.3042 36.9337C34.1341 37.8195 34.4412 39.0377 35.0402 39.8626L35.3879 40.3423L34.5681 40.1748C33.4006 39.9514 32.525 39.3042 32.1773 38.3905L31.8829 37.6393L31.9133 38.4946C31.9311 39.3956 32.4844 40.5225 33.2407 41.2052L33.6824 41.6037L32.8473 41.6113C31.6595 41.6342 30.6697 41.1849 30.1392 40.3651L29.6951 39.6925L29.9007 40.5225C30.1037 41.4007 30.8804 42.388 31.7636 42.8981L32.2788 43.1951L31.4616 43.3753C30.3042 43.6468 29.2433 43.4133 28.553 42.7204L27.9794 42.1545L28.355 42.9235C28.7357 43.7407 29.7027 44.5453 30.6697 44.86L31.2331 45.0428L30.4717 45.3905C29.3956 45.8955 28.3093 45.8879 27.4921 45.3549L26.8119 44.9209L27.3372 45.596C27.8804 46.3143 28.9921 46.9006 30.0022 47.0072L30.5936 47.0707L29.921 47.5681C28.9743 48.2864 27.9083 48.5046 26.9971 48.1544L26.2433 47.8701L26.8982 48.4209C27.5784 49.0123 28.7865 49.3524 29.7992 49.2458L30.3905 49.1848L29.8372 49.8117C29.0606 50.7127 28.0631 51.1468 27.0987 50.9919L26.3017 50.8726L27.0555 51.2737C27.8423 51.7102 29.0961 51.7914 30.0631 51.4767L30.6266 51.294L30.2154 52.0224C29.6418 53.0655 28.7586 53.6975 27.7839 53.7483L26.9794 53.7965L27.8017 54.0325C28.6621 54.2939 29.9057 54.1163 30.7865 53.6061L31.3017 53.3092L31.0504 54.1087C30.7052 55.2482 29.9743 56.0503 29.0301 56.3015L28.2535 56.5173L29.1063 56.5782C30.0022 56.6543 31.1824 56.2203 31.9387 55.5401L32.3803 55.1416L32.2991 55.9741C32.1976 57.1594 31.6494 58.0985 30.7763 58.5401L30.0606 58.9132L30.9057 58.7939C31.7991 58.6822 32.8626 58.0122 33.459 57.1873L33.8067 56.7076L33.9006 57.5401C34.0478 58.7203 33.7052 59.7533 32.9463 60.3675L32.3245 60.8802L33.1265 60.5883C33.9768 60.2939 34.8778 59.4157 35.2915 58.4868L35.5326 57.9436L35.7966 58.7381C36.1874 59.8624 36.0656 60.9436 35.4488 61.7025L34.9463 62.3345L35.6722 61.8802C36.4438 61.4157 37.1417 60.37 37.3524 59.3726L37.4767 58.7914L37.9006 59.5122C38.5148 60.5299 38.6214 61.6137 38.1772 62.4842L37.8168 63.205L38.431 62.6111C39.0884 61.9969 39.5554 60.8294 39.5554 59.8091V59.2152L40.1189 59.832C40.931 60.7 41.261 61.738 41.0046 62.6822L40.8016 63.4639L41.2787 62.7532C41.794 62.0147 42.0072 60.7761 41.7965 59.7787L41.6721 59.1974" fill="#F6DD4C"/>
<path opacity="0.2" d="M68.5272 12.6904H12.6902C8.48465 12.6904 5.07605 16.099 5.07605 20.3046V22.8426C5.07605 18.6371 8.48465 15.2285 12.6902 15.2285H68.5272C72.7328 15.2285 76.1414 18.6371 76.1414 22.8426V20.3046C76.1414 16.099 72.7328 12.6904 68.5272 12.6904Z" fill="white"/>
</svg>
