<svg width="82" height="82" viewBox="0 0 82 82" fill="none" xmlns="http://www.w3.org/2000/svg">
<path d="M68.5273 10.1523H12.6902C7.08331 10.1523 2.53802 14.6976 2.53802 20.3045V60.9133C2.53802 66.5202 7.08331 71.0655 12.6902 71.0655H68.5273C74.1342 71.0655 78.6794 66.5202 78.6794 60.9133V20.3045C78.6794 14.6976 74.1342 10.1523 68.5273 10.1523Z" fill="white"/>
<path d="M3.15735 16.9289H78.0602C76.6643 12.9899 72.9435 10.1523 68.5273 10.1523H12.6903C8.27405 10.1523 4.55327 12.9899 3.15735 16.9289Z" fill="#295CAB"/>
<path d="M2.53802 23.7051H78.6794V30.4817H2.53802V23.7051Z" fill="#295CAB"/>
<path d="M2.53802 37.2583H78.6794V44.0349H2.53802V37.2583Z" fill="#295CAB"/>
<path d="M2.53802 50.8115H78.6794V57.5881H2.53802V50.8115Z" fill="#295CAB"/>
<path d="M3.18018 64.3647C4.59641 68.2632 8.30195 71.0652 12.6902 71.0652H68.5273C72.9156 71.0652 76.6186 68.2632 78.0373 64.3647H3.18018Z" fill="#295CAB"/>
<path d="M36.421 10.1523H12.6902C7.08367 10.1523 2.53802 14.698 2.53802 20.3045V44.0353H36.421V10.1523Z" fill="#295CAB"/>
<path d="M2.53802 23.7051H36.421V30.4817H2.53802V23.7051Z" fill="white"/>
<path d="M22.8679 10.1523L22.8679 44.0353H16.0913V10.1523H22.8679Z" fill="white"/>
<path opacity="0.15" d="M68.5273 10.1523H12.6902C7.08367 10.1523 2.53802 14.698 2.53802 20.3045V60.9133C2.53802 66.5198 7.08367 71.0655 12.6902 71.0655H68.5273C74.1338 71.0655 78.6794 66.5198 78.6794 60.9133V20.3045C78.6794 14.698 74.1338 10.1523 68.5273 10.1523ZM76.1414 60.9133C76.1414 65.1112 72.7252 68.5274 68.5273 68.5274H12.6902C8.49228 68.5274 5.07607 65.1112 5.07607 60.9133V20.3045C5.07607 16.1066 8.49228 12.6904 12.6902 12.6904H68.5273C72.7252 12.6904 76.1414 16.1066 76.1414 20.3045V60.9133Z" fill="black"/>
<path opacity="0.2" d="M68.5272 12.6904H12.6902C8.48465 12.6904 5.07605 16.099 5.07605 20.3046V22.8426C5.07605 18.6371 8.48465 15.2285 12.6902 15.2285H68.5272C72.7328 15.2285 76.1414 18.6371 76.1414 22.8426V20.3046C76.1414 16.099 72.7328 12.6904 68.5272 12.6904Z" fill="white"/>
</svg>
