<svg width="82" height="82" viewBox="0 0 82 82" fill="none" xmlns="http://www.w3.org/2000/svg">
<path d="M68.5274 10.1523H12.6903C7.08344 10.1523 2.53815 14.6976 2.53815 20.3045V60.9133C2.53815 66.5202 7.08344 71.0655 12.6903 71.0655H68.5274C74.1343 71.0655 78.6796 66.5202 78.6796 60.9133V20.3045C78.6796 14.6976 74.1343 10.1523 68.5274 10.1523Z" fill="#BE2A2C"/>
<path opacity="0.15" d="M68.5274 10.1523H12.6903C7.08379 10.1523 2.53815 14.698 2.53815 20.3045V60.9133C2.53815 66.5198 7.08379 71.0655 12.6903 71.0655H68.5274C74.1339 71.0655 78.6796 66.5198 78.6796 60.9133V20.3045C78.6796 14.698 74.1339 10.1523 68.5274 10.1523ZM76.1415 60.9133C76.1415 65.1112 72.7253 68.5274 68.5274 68.5274H12.6903C8.49241 68.5274 5.07619 65.1112 5.07619 60.9133V20.3045C5.07619 16.1066 8.49241 12.6904 12.6903 12.6904H68.5274C72.7253 12.6904 76.1415 16.1066 76.1415 20.3045V60.9133Z" fill="black"/>
<path d="M15.2283 22.8423H65.9893V58.3749H15.2283V22.8423Z" fill="#F6D44A"/>
<path d="M15.2283 22.8423L40.6088 40.6086L15.2283 58.3749V22.8423Z" fill="#357960"/>
<path d="M65.9892 22.8423L40.6087 40.6086L65.9892 58.3749V22.8423Z" fill="#357960"/>
<path d="M40.6089 48.2229C44.8141 48.2229 48.223 44.8139 48.223 40.6088C48.223 36.4036 44.8141 32.9946 40.6089 32.9946C36.4037 32.9946 32.9948 36.4036 32.9948 40.6088C32.9948 44.8139 36.4037 48.2229 40.6089 48.2229Z" fill="#BE2A2C"/>
<path d="M43.1469 41.4665L47.256 38.4818H42.1773L40.6088 33.6519L39.0403 38.4818H33.9617L38.0708 41.4665L36.4997 46.2964L40.6088 43.3117L44.7179 46.2964L43.1469 41.4665Z" fill="#F6D44A"/>
<path d="M41.9871 18.2358L44.2205 16.614H41.4617L40.6089 13.9922L39.7561 16.614H36.9973L39.2307 18.2358L38.378 20.8601L40.6089 19.2383L42.8398 20.8601L41.9871 18.2358Z" fill="#F6D44A"/>
<path d="M29.6953 18.2358L31.9263 16.614H29.1674L28.3146 13.9922L27.4618 16.614H24.7055L26.9364 18.2358L26.0837 20.8601L28.3146 19.2383L30.5456 20.8601L29.6953 18.2358Z" fill="#F6D44A"/>
<path d="M51.5225 18.2358L49.2916 16.614H52.0504L52.9032 13.9922L53.756 16.614H56.5123L54.2814 18.2358L55.1341 20.8601L52.9032 19.2383L50.6723 20.8601L51.5225 18.2358Z" fill="#F6D44A"/>
<path d="M41.9871 64.0474L44.2205 62.4256H41.4617L40.6089 59.8013L39.7561 62.4256H36.9973L39.2307 64.0474L38.378 66.6718L40.6089 65.0499L42.8398 66.6718L41.9871 64.0474Z" fill="#F6D44A"/>
<path d="M29.6953 64.0474L31.9263 62.4256H29.1674L28.3146 59.8013L27.4618 62.4256H24.7055L26.9364 64.0474L26.0837 66.6718L28.3146 65.0499L30.5456 66.6718L29.6953 64.0474Z" fill="#F6D44A"/>
<path d="M51.5225 64.0474L49.2916 62.4256H52.0504L52.9032 59.8013L53.756 62.4256H56.5123L54.2814 64.0474L55.1341 66.6718L52.9032 65.0499L50.6723 66.6718L51.5225 64.0474Z" fill="#F6D44A"/>
<path d="M20.4694 40.9411C21.3323 42.6619 23.048 44.5604 24.5759 45.2533C24.6495 43.5325 24.1013 41.3066 23.3171 39.5249L20.4694 40.9411Z" fill="#BE2A2C"/>
<path d="M18.9212 35.1519C20.2055 37.9209 15.3756 44.4233 23.2587 46.0655C22.3019 44.7228 21.7765 42.4767 22.0379 40.7153C23.675 41.4132 25.3171 43.0325 25.9618 44.5528C28.68 36.9742 20.6116 37.6924 18.9212 35.1519Z" fill="#F6D44A"/>
<path opacity="0.2" d="M68.5273 12.6904H12.6903C8.48471 12.6904 5.07611 16.099 5.07611 20.3046V22.8426C5.07611 18.6371 8.48471 15.2285 12.6903 15.2285H68.5273C72.7328 15.2285 76.1414 18.6371 76.1414 22.8426V20.3046C76.1414 16.099 72.7328 12.6904 68.5273 12.6904Z" fill="white"/>
</svg>
