<svg width="82" height="82" viewBox="0 0 82 82" fill="none" xmlns="http://www.w3.org/2000/svg">
<path d="M25.3806 10.1523H55.8371V71.0655H25.3806V10.1523Z" fill="white"/>
<path d="M12.6902 10.1523H27.9185V71.0655H12.6902C7.08621 71.0655 2.53802 66.5173 2.53802 60.9133V20.3045C2.53802 14.7005 7.08621 10.1523 12.6902 10.1523Z" fill="#5D97CC"/>
<path d="M68.5274 71.0654H53.2991L53.2991 10.1523H68.5274C74.1314 10.1523 78.6796 14.7005 78.6796 20.3045V60.9132C78.6796 66.5172 74.1314 71.0654 68.5274 71.0654Z" fill="#5D97CC"/>
<path opacity="0.15" d="M68.5273 10.1523H12.6902C7.08367 10.1523 2.53802 14.698 2.53802 20.3045V60.9133C2.53802 66.5198 7.08367 71.0655 12.6902 71.0655H68.5273C74.1338 71.0655 78.6794 66.5198 78.6794 60.9133V20.3045C78.6794 14.698 74.1338 10.1523 68.5273 10.1523ZM76.1414 60.9133C76.1414 65.1112 72.7252 68.5274 68.5273 68.5274H12.6902C8.49228 68.5274 5.07607 65.1112 5.07607 60.9133V20.3045C5.07607 16.1066 8.49228 12.6904 12.6902 12.6904H68.5273C72.7252 12.6904 76.1414 16.1066 76.1414 20.3045V60.9133Z" fill="black"/>
<path d="M41.5123 50.6262C41.421 50.479 41.2687 50.3876 41.1342 50.314C40.2408 49.8369 39.3524 49.6262 38.3448 49.4613C38.1113 49.4207 37.8804 49.1998 37.6418 49.0856C37.0682 48.8064 36.4286 48.6998 35.8702 48.4156C35.8322 48.3978 35.6926 48.3141 35.6266 48.2328C35.4058 47.9714 35.0048 47.8902 34.7535 47.6466C33.789 46.7202 32.7662 45.8648 32.2358 44.6364C31.5911 43.1415 30.7891 41.5984 30.8982 39.8979C30.9693 38.8218 30.8119 37.7355 31.0708 36.7126C31.4566 35.1949 31.949 33.6924 32.8525 32.436L32.7002 32.5325C31.7916 33.7888 31.2967 35.2913 30.9134 36.8116C30.6546 37.8345 30.8094 38.9233 30.7409 39.9969C30.6317 41.6974 31.4337 43.2405 32.0784 44.7405C32.6089 45.9638 33.6368 46.8166 34.5961 47.7506C34.8449 47.9892 35.2459 48.0679 35.4692 48.3369C35.5352 48.4105 35.6799 48.5019 35.7129 48.5196C36.2713 48.8039 36.9108 48.913 37.4844 49.1846C37.723 49.3039 37.9565 49.5196 38.1875 49.5602C39.1951 49.7252 40.0834 49.941 40.9768 50.413C41.1164 50.4866 41.2636 50.578 41.355 50.7252L41.5123 50.6262Z" fill="#528132"/>
<path d="M41.3473 50.7279C41.2533 50.5807 41.1036 50.4894 40.9716 50.4183C40.0148 49.9132 39.0655 49.7102 38.1848 49.5655C38.0326 49.5401 37.8828 49.4411 37.7356 49.3447C37.6519 49.2889 37.5656 49.233 37.4793 49.1899C37.2052 49.0604 36.9107 48.9665 36.6265 48.8726C36.3168 48.7736 35.9996 48.6696 35.7077 48.5224C35.6722 48.5021 35.525 48.4132 35.459 48.3371C35.3397 48.1924 35.1671 48.1036 34.9971 48.0148C34.8524 47.9386 34.7026 47.8625 34.5884 47.7508C34.4463 47.6137 34.3042 47.4767 34.1595 47.3396C33.3169 46.5402 32.5199 45.7813 32.0681 44.7381C31.9869 44.5503 31.9057 44.3625 31.822 44.1722C31.2382 42.8498 30.6342 41.4793 30.7281 39.9895C30.7534 39.6087 30.7509 39.223 30.7458 38.8473C30.7408 38.1671 30.7331 37.4641 30.9032 36.7991C31.2534 35.4235 31.7382 33.8372 32.6925 32.5174L32.8473 32.4185L32.86 32.4311C31.9083 33.7535 31.426 35.3347 31.0783 36.7078C30.9108 37.3677 30.9184 38.0707 30.9235 38.7509C30.926 39.124 30.9311 39.5123 30.9057 39.893C30.8093 41.3828 31.4159 42.7508 31.9996 44.0732C32.0808 44.2584 32.1621 44.4437 32.2433 44.6265C32.7001 45.6848 33.5072 46.4488 34.3625 47.2584C34.4945 47.3828 34.6265 47.5071 34.7585 47.6341C34.8752 47.7457 35.025 47.8269 35.1722 47.9031C35.3397 47.9894 35.5123 48.0782 35.6316 48.2203C35.695 48.299 35.8346 48.3828 35.8727 48.398C36.1595 48.5452 36.4742 48.6467 36.7762 48.7457C37.0656 48.8396 37.3625 48.9361 37.6417 49.0706C37.7331 49.1137 37.8244 49.1746 37.9107 49.2305C38.0529 49.3244 38.2001 49.4208 38.3422 49.4437C39.3752 49.6112 40.2457 49.8218 41.1341 50.2965C41.2711 50.3726 41.4234 50.464 41.5148 50.6137L41.5198 50.6213L41.3473 50.7279ZM32.8169 32.4667L32.7052 32.5377C31.756 33.8525 31.2712 35.4362 30.921 36.8118C30.7534 37.4717 30.7611 38.1747 30.7661 38.8549C30.7687 39.228 30.7737 39.6164 30.7484 39.9971C30.6545 41.4818 31.256 42.8498 31.8397 44.1722C31.9235 44.3625 32.0047 44.5503 32.0859 44.7381C32.5377 45.7787 33.3321 46.5351 34.1747 47.332C34.3169 47.4691 34.4615 47.6036 34.6011 47.7432C34.7153 47.8498 34.8625 47.9285 35.0072 48.0046C35.1773 48.0934 35.3524 48.1848 35.4742 48.3295C35.5377 48.4031 35.6823 48.4894 35.7153 48.5097C36.0047 48.6569 36.3219 48.7609 36.6316 48.8599C36.9158 48.9513 37.2102 49.0452 37.4843 49.1772C37.5732 49.2203 37.6595 49.2787 37.7432 49.3345C37.8904 49.431 38.0402 49.5274 38.1848 49.5528C39.0681 49.6975 40.0173 49.9005 40.9792 50.4056C41.1112 50.4767 41.261 50.568 41.3549 50.7152L41.497 50.6289C41.4056 50.4868 41.2584 50.398 41.1264 50.3269C40.2407 49.8523 39.3726 49.6442 38.3422 49.4741C38.195 49.4488 38.0453 49.3523 37.9031 49.2584C37.8143 49.2 37.7255 49.1416 37.6366 49.0985C37.3574 48.964 37.0605 48.8675 36.7737 48.7736C36.4691 48.6746 36.1544 48.5731 35.8676 48.4259C35.8245 48.4082 35.6849 48.3219 35.6189 48.2432C35.5021 48.1036 35.3321 48.0148 35.1646 47.9285C35.0174 47.8523 34.8651 47.7711 34.7458 47.6569C34.6138 47.53 34.4818 47.4056 34.3499 47.2813C33.4945 46.4716 32.6849 45.7077 32.2255 44.6442C32.1468 44.4615 32.0656 44.2762 31.9819 44.0909C31.3981 42.7661 30.7915 41.3955 30.8854 39.9032C30.9108 39.5225 30.9083 39.1367 30.9032 38.761C30.8981 38.0808 30.8905 37.3778 31.0605 36.7128C31.4032 35.3524 31.8829 33.7865 32.8143 32.4718L32.8169 32.4667Z" fill="#528132"/>
<path d="M32.0963 48.4412C32.0963 48.4412 33.9516 47.8473 35.4592 48.3346C35.4085 48.8295 34.675 49.0046 34.3171 49.0072C33.977 49.0097 32.7511 48.8879 32.0963 48.4387V48.4412Z" fill="#528132"/>
<path d="M30.6293 45.3779C30.6293 45.3779 32.5049 45.9033 33.4973 47.1393C33.1825 47.5251 32.4744 47.2688 32.1724 47.0733C31.8856 46.8881 30.9313 46.114 30.6318 45.3779H30.6293Z" fill="#528132"/>
<path d="M29.0048 43.4766C29.0048 43.4766 30.6926 43.4994 31.7282 44.4004C31.5175 44.837 30.8703 44.771 30.581 44.6669C30.3068 44.5679 29.3703 44.0832 29.0023 43.4766H29.0048Z" fill="#528132"/>
<path d="M28.9541 41.6543C28.9541 41.6543 30.4262 41.9868 31.1571 42.9741C30.8856 43.3193 30.3323 43.1441 30.1013 42.9969C29.883 42.8573 29.1571 42.2584 28.9541 41.6543Z" fill="#528132"/>
<path d="M28.4009 39.7812C28.4009 39.7812 29.873 40.1137 30.6039 41.101C30.3324 41.4462 29.7791 41.2711 29.5481 41.1239C29.3298 40.9843 28.604 40.3853 28.4009 39.7812Z" fill="#528132"/>
<path d="M28.9541 37.7153C28.9541 37.7153 30.2054 38.558 30.5303 39.7432C30.1521 39.9691 29.7003 39.6036 29.5379 39.3828C29.3831 39.1747 28.9262 38.3524 28.9541 37.7153Z" fill="#528132"/>
<path d="M29.8248 35.3804C29.8248 35.3804 30.7055 36.6062 30.5963 37.8296C30.1648 37.9083 29.8679 37.4108 29.7918 37.1469C29.7207 36.8981 29.5735 35.9667 29.8248 35.3804Z" fill="#528132"/>
<path d="M30.4336 33.251C30.4336 33.251 31.1595 34.4692 30.9565 35.6037C30.5428 35.6418 30.3067 35.152 30.256 34.9007C30.2103 34.6621 30.1494 33.7789 30.4336 33.251Z" fill="#528132"/>
<path d="M31.7358 31.7305C31.7358 31.7305 32.1267 32.9284 31.7155 33.87C31.345 33.8218 31.2359 33.3497 31.2435 33.1213C31.2511 32.9056 31.3805 32.1315 31.7358 31.7305Z" fill="#528132"/>
<path d="M33.4288 50.1316C33.4288 50.1316 35.2029 48.893 36.9491 49.129C37.0506 49.7788 36.3298 50.1899 35.9517 50.2864C35.5938 50.3777 34.2613 50.5351 33.4288 50.129V50.1316Z" fill="#528132"/>
<path d="M36.0759 45.5708C36.0759 45.5708 37.751 46.9388 38.0023 48.685C37.4059 48.9591 36.812 48.3804 36.6165 48.0429C36.4313 47.7231 35.9135 46.4845 36.0785 45.5733L36.0759 45.5708Z" fill="#528132"/>
<path d="M34.2053 44.9107C34.2053 44.9107 35.6063 46.2077 35.7332 47.7559C35.1926 47.9665 34.7028 47.4234 34.5454 47.1138C34.3982 46.8219 34.0099 45.7051 34.2053 44.9107Z" fill="#528132"/>
<path d="M32.8981 42.4868C32.8981 42.4868 33.6925 44.1112 33.2737 45.5249C32.7255 45.5249 32.4768 44.8777 32.4438 44.5528C32.4134 44.2457 32.454 43.1239 32.8981 42.4868Z" fill="#528132"/>
<path d="M32.1775 40.543C32.1775 40.543 32.7841 41.9744 32.3145 43.1521C31.8196 43.1191 31.6419 42.5531 31.6343 42.2739C31.6267 42.01 31.7384 41.0582 32.1775 40.543Z" fill="#528132"/>
<path d="M32.3755 38.2026C32.3755 38.2026 32.3374 39.7585 31.4237 40.6366C30.9872 40.4031 31.0583 39.8118 31.1674 39.5554C31.2715 39.3118 31.7638 38.4894 32.3755 38.2052V38.2026Z" fill="#528132"/>
<path d="M32.9592 36.144C32.9592 36.144 32.3551 37.578 31.1825 38.0603C30.8627 37.6821 31.1445 37.1593 31.3399 36.9588C31.5252 36.7709 32.284 36.1872 32.9592 36.144Z" fill="#528132"/>
<path d="M33.3297 34.4287C33.3297 34.4287 32.6901 35.6013 31.6774 35.9998C31.4515 35.6927 31.7358 35.2637 31.916 35.1013C32.086 34.9465 32.7713 34.4668 33.3297 34.4313V34.4287Z" fill="#528132"/>
<path d="M34.5202 32.1162C34.5202 32.1162 33.6775 33.6365 32.3603 34.1644C32.0709 33.771 32.444 33.2152 32.6801 33.002C32.9034 32.7989 33.7943 32.172 34.5176 32.1187L34.5202 32.1162Z" fill="#528132"/>
<path d="M39.7051 50.6263L39.8625 50.7228C39.9539 50.5756 40.1011 50.4842 40.2407 50.4106C41.1341 49.9385 42.0224 49.7228 43.03 49.5578C43.2635 49.5172 43.4944 49.3015 43.733 49.1822C44.3066 48.9081 44.9462 48.8015 45.5046 48.5172C45.5376 48.4994 45.6822 48.4081 45.7482 48.3345C45.969 48.068 46.37 47.9867 46.6213 47.7482C47.5807 46.8142 48.6086 45.9614 49.1391 44.738C49.7837 43.2355 50.5857 41.6949 50.4766 39.9944C50.4055 38.9183 50.5629 37.832 50.304 36.8092C49.9182 35.2914 49.4259 33.7889 48.5172 32.53L48.365 32.4336C49.2685 33.6899 49.7609 35.1924 50.1467 36.7102C50.4055 37.733 50.2507 38.8219 50.3193 39.8955C50.4284 41.5959 49.6264 43.1391 48.9817 44.634C48.4512 45.8624 47.4284 46.7152 46.464 47.6441C46.2152 47.8878 45.8142 47.969 45.5909 48.2304C45.5249 48.3091 45.3853 48.3954 45.3472 48.4131C44.7888 48.6974 44.1493 48.8065 43.5757 49.0832C43.3371 49.1974 43.1036 49.4182 42.8726 49.4588C41.865 49.6238 40.9767 49.8344 40.0833 50.3116C39.9488 50.3852 39.7965 50.4766 39.7051 50.6238" fill="#528132"/>
<path d="M49.1214 48.4412C49.1214 48.4412 47.2661 47.8473 45.7585 48.3346C45.8092 48.8295 46.5427 49.0046 46.9006 49.0072C47.2407 49.0097 48.4666 48.8879 49.1214 48.4387V48.4412Z" fill="#528132"/>
<path d="M50.5884 45.3779C50.5884 45.3779 48.7128 45.9033 47.7204 47.1393C48.0351 47.5251 48.7433 47.2688 49.0453 47.0733C49.3321 46.8881 50.2889 46.114 50.5884 45.3779Z" fill="#528132"/>
<path d="M52.2128 43.4766C52.2128 43.4766 50.525 43.4994 49.4894 44.4004C49.7001 44.837 50.3473 44.771 50.6366 44.6669C50.9107 44.5679 51.8447 44.0832 52.2128 43.4766Z" fill="#528132"/>
<path d="M52.2636 41.6543C52.2636 41.6543 50.7916 41.9868 50.0606 42.9741C50.3322 43.3193 50.8855 43.1441 51.1164 42.9969C51.3347 42.8573 52.0606 42.2584 52.2636 41.6543Z" fill="#528132"/>
<path d="M52.8168 39.7812C52.8168 39.7812 51.3448 40.1137 50.6138 41.101C50.8854 41.4462 51.4387 41.2711 51.6696 41.1239C51.8879 40.9843 52.6138 40.3853 52.8168 39.7812Z" fill="#528132"/>
<path d="M52.2636 37.7153C52.2636 37.7153 51.0123 38.558 50.6875 39.7432C51.0656 39.9691 51.5174 39.6036 51.6798 39.3828C51.8347 39.1747 52.2915 38.3524 52.2636 37.7153Z" fill="#528132"/>
<path d="M51.3929 35.3804C51.3929 35.3804 50.5122 36.6062 50.6214 37.8296C51.0528 37.9083 51.3498 37.4108 51.4259 37.1469C51.497 36.8981 51.6417 35.9667 51.3904 35.3804H51.3929Z" fill="#528132"/>
<path d="M50.7838 33.251C50.7838 33.251 50.0579 34.4692 50.2609 35.6037C50.6746 35.6418 50.9107 35.152 50.9614 34.9007C51.0071 34.6621 51.068 33.7789 50.7838 33.251Z" fill="#528132"/>
<path d="M49.4819 31.7305C49.4819 31.7305 49.091 32.9284 49.5022 33.87C49.8728 33.8218 49.9819 33.3497 49.9743 33.1213C49.9667 32.9056 49.8372 32.1315 49.4819 31.7305Z" fill="#528132"/>
<path d="M47.789 50.1316C47.789 50.1316 46.0149 48.893 44.2688 49.129C44.1672 49.7788 44.888 50.1899 45.2662 50.2864C45.6241 50.3777 46.9566 50.5351 47.789 50.129V50.1316Z" fill="#528132"/>
<path d="M45.1416 45.5708C45.1416 45.5708 43.4665 46.9388 43.2153 48.685C43.8117 48.9591 44.4056 48.3804 44.601 48.0429C44.7863 47.7231 45.3041 46.4845 45.1391 45.5733L45.1416 45.5708Z" fill="#528132"/>
<path d="M47.0125 44.9107C47.0125 44.9107 45.6115 46.2077 45.4846 47.7559C46.0252 47.9665 46.515 47.4234 46.6724 47.1138C46.8196 46.8219 47.2079 45.7051 47.0125 44.9107Z" fill="#528132"/>
<path d="M48.3195 42.4868C48.3195 42.4868 47.5251 44.1112 47.9439 45.5249C48.4921 45.5249 48.7408 44.8777 48.7738 44.5528C48.8043 44.2457 48.7637 43.1239 48.3195 42.4868Z" fill="#528132"/>
<path d="M49.0402 40.543C49.0402 40.543 48.4336 41.9744 48.9032 43.1521C49.3981 43.1191 49.5757 42.5531 49.5834 42.2739C49.591 42.01 49.4793 41.0582 49.0402 40.543Z" fill="#528132"/>
<path d="M48.8422 38.2026C48.8422 38.2026 48.8803 39.7585 49.794 40.6366C50.2305 40.4031 50.1595 39.8118 50.0503 39.5554C49.9463 39.3118 49.4539 38.4894 48.8422 38.2052V38.2026Z" fill="#528132"/>
<path d="M48.2584 36.144C48.2584 36.144 48.8625 37.578 50.0351 38.0603C50.3549 37.6821 50.0731 37.1593 49.8777 36.9588C49.6924 36.7709 48.9335 36.1872 48.2584 36.144Z" fill="#528132"/>
<path d="M47.8879 34.4287C47.8879 34.4287 48.5275 35.6013 49.5402 35.9998C49.7661 35.6927 49.4818 35.2637 49.3016 35.1013C49.1315 34.9465 48.4463 34.4668 47.8879 34.4313V34.4287Z" fill="#528132"/>
<path d="M46.6976 32.1162C46.6976 32.1162 47.5402 33.6365 48.8574 34.1644C49.1468 33.771 48.7737 33.2152 48.5377 33.002C48.3143 32.7989 47.4235 32.172 46.7001 32.1187L46.6976 32.1162Z" fill="#528132"/>
<path d="M39.7484 30.8218C39.7484 30.8218 39.8931 30.6772 40.0352 30.6315C40.0174 30.3066 40.2788 30.0224 40.6722 30.063C41.0656 30.1036 41.2915 30.6239 41.0504 30.997C41.0504 30.997 42.6773 32.0173 44.1062 33.5477C45.5351 35.0781 47.2889 37.6466 46.7534 41.0375C46.2179 44.4283 42.5479 49.1364 41.7915 51.1592C41.7915 51.1592 42.2484 48.776 43.7712 46.7303C43.7712 46.7303 41.3448 49.8724 39.5276 50.1085C42.5479 48.1491 45.1544 44.3522 45.8169 41.9461C45.8169 41.9461 45.0326 43.3547 44.4362 43.7913C44.4362 43.7913 45.5605 42.073 45.8042 40.9207C45.8042 40.9207 45.0859 42.672 44.3194 43.0654C45.3194 41.8116 46.2839 39.6441 45.7991 37.3522C45.3143 35.0604 43.7864 33.9411 43.1012 33.7558C42.4159 33.5705 40.8702 33.535 40.2103 32.7203C39.5504 31.9056 40.1063 31.002 40.1063 31.002C40.1063 31.002 40.1519 30.8853 40.0428 30.8574C39.9362 30.8574 39.8702 30.8421 39.7459 30.8218H39.7484Z" fill="#528132"/>
<path d="M42.8855 33.5073C42.8855 33.5073 37.3424 33.5936 36.9008 33.6292C36.4591 33.6647 36.152 34.2637 36.2053 34.6926C36.2586 35.1215 36.3729 35.4667 36.7891 36.3296C37.2053 37.1926 38.2307 39.3144 38.4008 40.5377C38.4008 40.5377 37.6393 40.6037 37.2358 40.657C36.8322 40.7103 36.5784 41.1748 36.6901 41.8321C36.8018 42.4895 37.0277 42.6874 37.5911 42.7661C38.1546 42.8448 44.2078 42.3803 44.2078 42.3803C44.2078 42.3803 44.8931 41.9083 44.9819 41.0809C45.0707 40.2535 44.6494 38.7027 44.1545 37.7459C43.6596 36.789 42.6621 35.1368 42.6621 35.1368C42.6621 35.1368 43.0022 35.0708 43.1824 34.751C43.3626 34.4312 43.3322 33.9388 42.8906 33.5124L42.8855 33.5073Z" fill="#F8F1B3"/>
<path opacity="0.2" d="M68.5273 12.6904H12.6903C8.48471 12.6904 5.07611 16.099 5.07611 20.3046V22.8426C5.07611 18.6371 8.48471 15.2285 12.6903 15.2285H68.5273C72.7328 15.2285 76.1414 18.6371 76.1414 22.8426V20.3046C76.1414 16.099 72.7328 12.6904 68.5273 12.6904Z" fill="white"/>
</svg>
