<svg width="82" height="82" viewBox="0 0 82 82" fill="none" xmlns="http://www.w3.org/2000/svg">
<path d="M68.5276 10.1523H12.6905C7.08362 10.1523 2.53833 14.6976 2.53833 20.3045V60.9133C2.53833 66.5202 7.08362 71.0655 12.6905 71.0655H68.5276C74.1345 71.0655 78.6797 66.5202 78.6797 60.9133V20.3045C78.6797 14.6976 74.1345 10.1523 68.5276 10.1523Z" fill="white"/>
<path d="M78.6797 32.9948H48.2232V10.1523H32.9949V32.9948H2.53833V48.2231H32.9949V71.0655H48.2232V48.2231H78.6797V32.9948Z" fill="#BE2A2A"/>
<path opacity="0.15" d="M68.5276 10.1523H12.6905C7.08397 10.1523 2.53833 14.698 2.53833 20.3045V60.9133C2.53833 66.5198 7.08397 71.0655 12.6905 71.0655H68.5276C74.1341 71.0655 78.6797 66.5198 78.6797 60.9133V20.3045C78.6797 14.698 74.1341 10.1523 68.5276 10.1523ZM76.1417 60.9133C76.1417 65.1112 72.7255 68.5274 68.5276 68.5274H12.6905C8.49259 68.5274 5.07638 65.1112 5.07638 60.9133V20.3045C5.07638 16.1066 8.49259 12.6904 12.6905 12.6904H68.5276C72.7255 12.6904 76.1417 16.1066 76.1417 20.3045V60.9133Z" fill="black"/>
<path d="M55.8372 38.0706H43.147V25.3803L45.685 22.8423H35.5328L38.0709 25.3803V38.0706H25.3806L22.8426 35.5325V45.6847L25.3806 43.1467H38.0709V55.8369L35.5328 58.3749H45.685L43.147 55.8369V43.1467H55.8372L58.3753 45.6847V35.5325L55.8372 38.0706Z" fill="#F5DF4C"/>
<path opacity="0.2" d="M68.5276 12.6904H12.6905C8.48498 12.6904 5.07639 16.099 5.07639 20.3046V22.8426C5.07639 18.6371 8.48498 15.2285 12.6905 15.2285H68.5276C72.7331 15.2285 76.1417 18.6371 76.1417 22.8426V20.3046C76.1417 16.099 72.7331 12.6904 68.5276 12.6904Z" fill="white"/>
</svg>
