<svg width="82" height="82" viewBox="0 0 82 82" fill="none" xmlns="http://www.w3.org/2000/svg">
<path d="M68.5272 10.1523H30.4565V40.6089H78.6794V20.3045C78.6794 14.6975 74.1343 10.1523 68.5272 10.1523Z" fill="#FDD310"/>
<path d="M30.4565 40.6089V71.0655H68.5272C74.1343 71.0655 78.6794 66.5203 78.6794 60.9133V40.6089H30.4565Z" fill="#049F48"/>
<path d="M12.6903 10.1523H32.9947V71.0655H12.6903C7.08703 71.0655 2.53809 66.5165 2.53809 60.9133V20.3045C2.53809 14.7013 7.08703 10.1523 12.6903 10.1523Z" fill="#CF0922"/>
<path opacity="0.15" d="M68.5273 10.1523H12.6903C7.08347 10.1523 2.53809 14.6975 2.53809 20.3045V60.9133C2.53809 66.5203 7.08347 71.0655 12.6903 71.0655H68.5273C74.1344 71.0655 78.6795 66.5203 78.6795 60.9133V20.3045C78.6795 14.6975 74.1344 10.1523 68.5273 10.1523ZM76.1415 60.9133C76.1415 65.112 72.726 68.5274 68.5273 68.5274H12.6903C8.49158 68.5274 5.07613 65.112 5.07613 60.9133V20.3045C5.07613 16.1058 8.49158 12.6904 12.6903 12.6904H68.5273C72.726 12.6904 76.1415 16.1058 76.1415 20.3045V60.9133Z" fill="black"/>
<path opacity="0.2" d="M68.5274 12.6904H12.6903C8.48502 12.6904 5.07617 16.0993 5.07617 20.3046V22.8426C5.07617 18.6373 8.48502 15.2285 12.6903 15.2285H68.5274C72.7326 15.2285 76.1415 18.6373 76.1415 22.8426V20.3046C76.1415 16.0993 72.7326 12.6904 68.5274 12.6904Z" fill="white"/>
<path d="M24.4792 49.9623L22.1574 42.8169L28.2358 38.4007H20.7227L18.4009 31.2554L16.079 38.4007H8.56592L14.6443 42.8169L12.3225 49.9623L18.4009 45.5464L24.4792 49.9623Z" fill="black"/>
</svg>
