<svg width="82" height="82" viewBox="0 0 82 82" fill="none" xmlns="http://www.w3.org/2000/svg">
<path d="M68.5273 10.1523H12.6903C7.08338 10.1523 2.53809 14.6976 2.53809 20.3045V60.9133C2.53809 66.5202 7.08338 71.0655 12.6903 71.0655H68.5273C74.1342 71.0655 78.6795 66.5202 78.6795 60.9133V20.3045C78.6795 14.6976 74.1342 10.1523 68.5273 10.1523Z" fill="#4A926D"/>
<path d="M2.53809 20.3045V60.9132C2.53809 64.3954 4.29441 67.4639 6.96698 69.2938L78.6795 40.6088L6.96698 11.9238C4.29441 13.7512 2.53809 16.8223 2.53809 20.3045Z" fill="white"/>
<path d="M7.40356 66.3853C5.92896 64.959 5.07617 62.992 5.07617 60.9133V20.3045C5.07617 18.2259 5.92896 16.2564 7.40356 14.8325L71.8471 40.6089L7.40356 66.3853Z" fill="#F6C644"/>
<path d="M5.76394 68.3013L38.0707 40.6086L5.76394 12.916C3.78934 14.7688 2.53809 17.383 2.53809 20.3043V60.913C2.53809 63.8343 3.78934 66.4485 5.76394 68.3013Z" fill="black"/>
<path d="M4.12944 14.8906C3.13453 16.4591 2.53809 18.3094 2.53809 20.3043V60.913C2.53809 62.9181 3.1396 64.7759 4.14213 66.3521L34.1723 40.6087L4.12944 14.8906Z" fill="#B02D30"/>
<path opacity="0.15" d="M68.5273 10.1523H12.6903C7.08373 10.1523 2.53809 14.698 2.53809 20.3045V60.9133C2.53809 66.5198 7.08373 71.0655 12.6903 71.0655H68.5273C74.1339 71.0655 78.6795 66.5198 78.6795 60.9133V20.3045C78.6795 14.698 74.1339 10.1523 68.5273 10.1523ZM76.1415 60.9133C76.1415 65.1112 72.7252 68.5274 68.5273 68.5274H12.6903C8.49234 68.5274 5.07613 65.1112 5.07613 60.9133V20.3045C5.07613 16.1066 8.49234 12.6904 12.6903 12.6904H68.5273C72.7252 12.6904 76.1415 16.1066 76.1415 20.3045V60.9133Z" fill="black"/>
<path opacity="0.2" d="M68.5274 12.6904H12.6903C8.48477 12.6904 5.07617 16.099 5.07617 20.3046V22.8426C5.07617 18.6371 8.48477 15.2285 12.6903 15.2285H68.5274C72.7329 15.2285 76.1415 18.6371 76.1415 22.8426V20.3046C76.1415 16.099 72.7329 12.6904 68.5274 12.6904Z" fill="white"/>
</svg>
