<svg width="82" height="82" viewBox="0 0 82 82" fill="none" xmlns="http://www.w3.org/2000/svg">
<path d="M2.53809 60.9132C2.53809 66.5198 7.08373 71.0654 12.6903 71.0654H68.5273C74.1339 71.0654 78.6795 66.5198 78.6795 60.9132V38.0708H2.53809V60.9132Z" fill="#C22B38"/>
<path d="M68.5273 10.1523H12.6903C7.08373 10.1523 2.53809 14.698 2.53809 20.3045V40.6089H78.6795V20.3045C78.6795 14.698 74.1339 10.1523 68.5273 10.1523Z" fill="#061A9A"/>
<path opacity="0.15" d="M68.5273 10.1523H12.6903C7.08373 10.1523 2.53809 14.698 2.53809 20.3045V60.9133C2.53809 66.5198 7.08373 71.0655 12.6903 71.0655H68.5273C74.1339 71.0655 78.6795 66.5198 78.6795 60.9133V20.3045C78.6795 14.698 74.1339 10.1523 68.5273 10.1523ZM76.1415 60.9133C76.1415 65.1112 72.7252 68.5274 68.5273 68.5274H12.6903C8.49234 68.5274 5.07613 65.1112 5.07613 60.9133V20.3045C5.07613 16.1066 8.49234 12.6904 12.6903 12.6904H68.5273C72.7252 12.6904 76.1415 16.1066 76.1415 20.3045V60.9133Z" fill="black"/>
<path d="M30.4565 32.9946H50.7609V48.2229H30.4565V32.9946Z" fill="white"/>
<path d="M40.7713 37.7863C42.4352 37.7863 43.784 37.0159 43.784 36.0655C43.784 35.1152 42.4352 34.3447 40.7713 34.3447C39.1075 34.3447 37.7587 35.1152 37.7587 36.0655C37.7587 37.0159 39.1075 37.7863 40.7713 37.7863Z" fill="#2D6920"/>
<path d="M40.5555 35.7075H40.9844L41.2001 44.1059H40.3397L40.5555 35.7075Z" fill="#E8B942"/>
<path d="M40.7713 42.8449L37.2917 38.6851C37.2917 38.6851 36.8602 39.9033 36.8983 40.4414L35.9668 39.5099C35.9668 39.5099 35.7866 41.0531 35.9668 41.6622L35.213 41.0175C35.213 41.0175 35.2485 43.8855 36.0023 45.1774L40.7713 44.1089V42.8449Z" fill="#112E88"/>
<path d="M40.7712 42.8449L44.2509 38.6851C44.2509 38.6851 44.6824 39.9033 44.6443 40.4414L45.5758 39.5099C45.5758 39.5099 45.756 41.0531 45.5758 41.6622L46.3296 41.0175C46.3296 41.0175 46.294 43.8855 45.5402 45.1774L40.7712 44.1089V42.8449Z" fill="#112E88"/>
<path d="M30.4565 47.1114C31.7383 47.0048 36.3296 43.5962 40.794 43.5962C45.2584 43.5962 49.3955 47.1114 50.7609 47.1114V48.2231H30.4565V47.1114Z" fill="#2D6920"/>
<path opacity="0.2" d="M68.5274 12.6904H12.6903C8.48477 12.6904 5.07617 16.099 5.07617 20.3046V22.8426C5.07617 18.6371 8.48477 15.2285 12.6903 15.2285H68.5274C72.7329 15.2285 76.1415 18.6371 76.1415 22.8426V20.3046C76.1415 16.099 72.7329 12.6904 68.5274 12.6904Z" fill="white"/>
</svg>
