<svg width="82" height="82" viewBox="0 0 82 82" fill="none" xmlns="http://www.w3.org/2000/svg">
<path d="M78.3211 17.7665C77.1889 13.3955 73.2529 10.1523 68.5278 10.1523H38.0707V17.7665H78.3211Z" fill="white"/>
<path d="M78.6795 25.3804H38.0707V32.9945H78.6795V25.3804Z" fill="#001B69"/>
<path d="M78.6795 20.2996C78.679 19.4194 78.532 18.5803 78.3211 17.7661H38.0707V25.3803H78.6795V20.2996Z" fill="#CA0A2B"/>
<path d="M78.6795 32.9946H38.0707V40.6088H78.6795V32.9946Z" fill="white"/>
<path d="M78.6794 40.6089H2.53802V48.223H78.6794V40.6089Z" fill="#CA0A2B"/>
<path d="M2.53851 60.913C2.53851 61.7947 2.68623 62.6353 2.89739 63.4511H78.321C78.532 62.6369 78.6792 61.7978 78.6794 60.9176V55.8369H2.53851V60.913Z" fill="white"/>
<path d="M78.6794 48.2227H2.53802V55.8368H78.6794V48.2227Z" fill="#001B69"/>
<path d="M78.3211 63.4512H2.89746C4.02968 67.8222 7.96569 71.0653 12.6908 71.0653H68.5278C73.2529 71.0653 77.1889 67.8222 78.3211 63.4512Z" fill="#CA0A2B"/>
<path d="M12.6902 10.1523H40.6087V40.6089H2.53802V20.3045C2.53802 14.7013 7.08697 10.1523 12.6902 10.1523Z" fill="#001B69"/>
<path d="M16.4978 34.9585V40.6089H26.65V34.9562L34.3583 40.6089H40.6092V37.4589L31.0613 30.4567H40.6092V20.3045H33.655L40.6092 15.2048V10.1523H36.9519L26.65 17.7079V10.1523H16.4978V17.2424L8.23237 11.1785C6.28442 12.128 4.70575 13.6744 3.70043 15.5893L10.127 20.3045H2.53851V30.4567H12.0897L2.53851 37.4615V40.6089H8.79277L16.4978 34.9585Z" fill="white"/>
<path d="M4.58296 14.1853L12.9215 20.3043H16.3823L5.98853 12.6782C5.47 13.1338 4.9997 13.6338 4.58296 14.1853Z" fill="#CA0A2B"/>
<path d="M2.53754 40.6087L16.3816 30.4565V32.9946L5.99867 40.6087H2.53754Z" fill="#CA0A2B"/>
<path d="M24.1119 40.6089H19.0358V27.9187H2.53851V22.8426H19.0358V10.1523H24.1119V22.8426H40.6092V27.9187H24.1119V40.6089Z" fill="#CA0A2B"/>
<path d="M40.6092 39.7628L27.919 30.4565V32.9946L38.3019 40.6087H40.6092V39.7628Z" fill="#CA0A2B"/>
<path d="M40.6093 10.1523H39.9789L26.1199 20.3157H29.5808L40.6093 12.2282V10.1523Z" fill="#CA0A2B"/>
<path opacity="0.15" d="M68.5277 10.1523H12.6907C7.0839 10.1523 2.53851 14.6975 2.53851 20.3045V60.9133C2.53851 66.5203 7.0839 71.0655 12.6907 71.0655H68.5277C74.1348 71.0655 78.6799 66.5203 78.6799 60.9133V20.3045C78.6799 14.6975 74.1348 10.1523 68.5277 10.1523ZM76.1419 60.9133C76.1419 65.112 72.7264 68.5274 68.5277 68.5274H12.6907C8.49201 68.5274 5.07656 65.112 5.07656 60.9133V20.3045C5.07656 16.1058 8.49201 12.6904 12.6907 12.6904H68.5277C72.7264 12.6904 76.1419 16.1058 76.1419 20.3045V60.9133Z" fill="black"/>
<path opacity="0.2" d="M68.5272 12.6904H12.6902C8.4849 12.6904 5.07605 16.0993 5.07605 20.3046V22.8426C5.07605 18.6373 8.4849 15.2285 12.6902 15.2285H68.5272C72.7325 15.2285 76.1414 18.6373 76.1414 22.8426V20.3046C76.1414 16.0993 72.7325 12.6904 68.5272 12.6904Z" fill="white"/>
</svg>
