<svg width="82" height="82" viewBox="0 0 82 82" fill="none" xmlns="http://www.w3.org/2000/svg">
<path d="M2.53815 27.9185H78.6796V53.2989H2.53815V27.9185Z" fill="white"/>
<path d="M12.6903 10.1523H68.5274C74.1314 10.1523 78.6796 14.7005 78.6796 20.3045V30.4567H2.53815V20.3045C2.53815 14.7005 7.08633 10.1523 12.6903 10.1523Z" fill="#55BBE0"/>
<path d="M68.5273 71.0654L12.6903 71.0654C7.08627 71.0654 2.53808 66.5172 2.53808 60.9132V50.7611L78.6795 50.7611V60.9132C78.6795 66.5172 74.1313 71.0654 68.5273 71.0654Z" fill="#55BBE0"/>
<path opacity="0.15" d="M68.5274 10.1523H12.6903C7.08379 10.1523 2.53815 14.698 2.53815 20.3045V60.9133C2.53815 66.5198 7.08379 71.0655 12.6903 71.0655H68.5274C74.1339 71.0655 78.6796 66.5198 78.6796 60.9133V20.3045C78.6796 14.698 74.1339 10.1523 68.5274 10.1523ZM76.1415 60.9133C76.1415 65.1112 72.7253 68.5274 68.5274 68.5274H12.6903C8.49241 68.5274 5.07619 65.1112 5.07619 60.9133V20.3045C5.07619 16.1066 8.49241 12.6904 12.6903 12.6904H68.5274C72.7253 12.6904 76.1415 16.1066 76.1415 20.3045V60.9133Z" fill="black"/>
<path d="M23.5531 32.4058L22.7866 34.7636H20.3069L22.312 36.2204L21.548 38.5783L23.5531 37.1215L25.5582 38.5783L24.7917 36.2204L26.7967 34.7636H24.3171L23.5531 32.4058Z" fill="#55BBE0"/>
<path d="M24.3171 44.997L23.5531 42.6392L22.7866 44.997H20.3069L22.312 46.4538L21.548 48.8117L23.5531 47.3549L25.5582 48.8117L24.7917 46.4538L26.7967 44.997H24.3171Z" fill="#55BBE0"/>
<path d="M41.3753 39.8803L40.6089 37.5225L39.8424 39.8803H37.3652L39.3703 41.3371L38.6038 43.695L40.6089 42.2382L42.6139 43.695L41.8474 41.3371L43.8525 39.8803H41.3753Z" fill="#55BBE0"/>
<path d="M56.426 36.2204L55.6595 38.5783L57.6645 37.1215L59.6696 38.5783L58.9056 36.2204L60.9107 34.7636H58.431L57.6645 32.4058L56.9006 34.7636H54.4209L56.426 36.2204Z" fill="#55BBE0"/>
<path d="M58.431 44.997L57.6645 42.6392L56.9006 44.997H54.4209L56.426 46.4538L55.6595 48.8117L57.6645 47.3549L59.6696 48.8117L58.9056 46.4538L60.9107 44.997H58.431Z" fill="#55BBE0"/>
<path opacity="0.2" d="M68.5273 12.6904H12.6903C8.48471 12.6904 5.07611 16.099 5.07611 20.3046V22.8426C5.07611 18.6371 8.48471 15.2285 12.6903 15.2285H68.5273C72.7328 15.2285 76.1414 18.6371 76.1414 22.8426V20.3046C76.1414 16.099 72.7328 12.6904 68.5273 12.6904Z" fill="white"/>
</svg>
