<svg width="82" height="82" viewBox="0 0 82 82" fill="none" xmlns="http://www.w3.org/2000/svg">
<g clip-path="url(#clip0_2002_1049)">
<path d="M68.5274 10.1523H12.6903C7.08344 10.1523 2.53815 14.6976 2.53815 20.3045V60.9133C2.53815 66.5202 7.08344 71.0655 12.6903 71.0655H68.5274C74.1343 71.0655 78.6796 66.5202 78.6796 60.9133V20.3045C78.6796 14.6976 74.1343 10.1523 68.5274 10.1523Z" fill="#DB362F"/>
<path opacity="0.15" d="M68.5274 10.1523H12.6903C7.08379 10.1523 2.53815 14.698 2.53815 20.3045V60.9133C2.53815 66.5198 7.08379 71.0655 12.6903 71.0655H68.5274C74.1339 71.0655 78.6796 66.5198 78.6796 60.9133V20.3045C78.6796 14.698 74.1339 10.1523 68.5274 10.1523ZM76.1415 60.9133C76.1415 65.1112 72.7253 68.5274 68.5274 68.5274H12.6903C8.49241 68.5274 5.07619 65.1112 5.07619 60.9133V20.3045C5.07619 16.1066 8.49241 12.6904 12.6903 12.6904H68.5274C72.7253 12.6904 76.1415 16.1066 76.1415 20.3045V60.9133Z" fill="black"/>
<path opacity="0.2" d="M68.5273 12.6904H12.6903C8.48471 12.6904 5.07611 16.099 5.07611 20.3046V22.8426C5.07611 18.6371 8.48471 15.2285 12.6903 15.2285H68.5273C72.7328 15.2285 76.1414 18.6371 76.1414 22.8426V20.3046C76.1414 16.099 72.7328 12.6904 68.5273 12.6904Z" fill="white"/>
<path d="M43.9159 24.3068C39.9362 23.69 36.0556 25.9006 34.5581 29.6392C32.7815 34.0757 34.9363 39.1112 39.3728 40.8878C38.9692 40.5249 38.789 39.9995 38.5784 39.4995C37.7814 37.6163 38.6621 35.4437 40.5454 34.6493C40.7789 34.5503 41.0047 34.431 41.2154 34.294C43.2205 32.992 43.789 30.3143 42.487 28.3093C42.3575 28.1113 42.256 27.8956 42.1824 27.6671C41.7332 26.2611 42.5073 24.756 43.9133 24.3042L43.9159 24.3068Z" fill="white"/>
<path d="M49.0327 32.5354C44.2637 32.2156 40.1393 35.8221 39.8221 40.5911C40.0429 40.0962 40.4871 39.7612 40.8957 39.4058C42.4414 38.0658 44.7789 38.2333 46.119 39.7789C46.284 39.9718 46.4667 40.147 46.6647 40.3068C48.5225 41.8094 51.2458 41.5251 52.7509 39.6673C52.9006 39.482 53.0732 39.3196 53.2661 39.18C54.4641 38.317 56.1367 38.5886 56.9996 39.7865C56.3575 35.8094 53.0529 32.8044 49.0327 32.5354Z" fill="white"/>
<path d="M40.058 41.4312C40.1697 41.9616 40.0072 42.4946 39.8854 43.0225C39.4235 45.0149 37.4337 46.2534 35.4413 45.7915C35.1951 45.7331 34.9413 45.6976 34.69 45.6849C32.3043 45.5606 30.2688 47.393 30.1419 49.7788C30.1292 50.0148 30.086 50.2509 30.0099 50.4768C29.548 51.8803 28.0353 52.6417 26.6343 52.1798C29.4921 55.0199 33.9312 55.5097 37.3398 53.365C41.3854 50.8194 42.6011 45.4793 40.0555 41.4337L40.058 41.4312Z" fill="white"/>
<path d="M50.7534 47.1976C49.5834 42.5631 44.8778 39.7561 40.2459 40.9261C40.784 40.9819 41.2408 41.3017 41.7053 41.5809C43.4565 42.6367 44.02 44.9108 42.9642 46.6621C42.8322 46.8804 42.7205 47.1088 42.6317 47.3448C41.7764 49.5758 42.8906 52.0783 45.119 52.9336C45.3398 53.0199 45.5504 53.1341 45.7408 53.2737C46.9311 54.1468 47.19 55.8194 46.3169 57.0122C49.9006 55.1722 51.7382 51.1011 50.7534 47.1976Z" fill="white"/>
<path d="M37.9541 41.7383C35.916 41.9134 34.1242 40.4058 33.949 38.3677C33.9262 38.1139 33.8831 37.8652 33.8171 37.619C33.1978 35.3119 30.8272 33.9414 28.5176 34.5607C28.2892 34.6216 28.0506 34.652 27.8146 34.652C26.3374 34.6444 25.1471 33.4439 25.1522 31.9668C23.3349 35.5607 24.2385 39.9363 27.3324 42.5149C31.0024 45.5758 36.4592 45.0809 39.5201 41.4109C39.0505 41.6824 38.4947 41.6926 37.9541 41.7383Z" fill="white"/>
</g>
<defs>
<clipPath id="clip0_2002_1049">
<rect width="81.2175" height="81.2175" fill="white"/>
</clipPath>
</defs>
</svg>
