<svg width="82" height="82" viewBox="0 0 82 82" fill="none" xmlns="http://www.w3.org/2000/svg">
<path d="M2.53833 27.9185H78.6797V53.2989H2.53833V27.9185Z" fill="white"/>
<path d="M12.6905 10.1523H68.5276C74.1316 10.1523 78.6797 14.7005 78.6797 20.3045V30.4567H2.53833V20.3045C2.53833 14.7005 7.08651 10.1523 12.6905 10.1523Z" fill="#E06535"/>
<path d="M68.5275 71.0654L12.6904 71.0654C7.08642 71.0654 2.53824 66.5172 2.53824 60.9132V50.7611L78.6797 50.7611V60.9132C78.6797 66.5172 74.1315 71.0654 68.5275 71.0654Z" fill="#2C6837"/>
<path opacity="0.15" d="M68.5276 10.1523H12.6905C7.08397 10.1523 2.53833 14.698 2.53833 20.3045V60.9133C2.53833 66.5198 7.08397 71.0655 12.6905 71.0655H68.5276C74.1341 71.0655 78.6797 66.5198 78.6797 60.9133V20.3045C78.6797 14.698 74.1341 10.1523 68.5276 10.1523ZM76.1417 60.9133C76.1417 65.1112 72.7255 68.5274 68.5276 68.5274H12.6905C8.49259 68.5274 5.07638 65.1112 5.07638 60.9133V20.3045C5.07638 16.1066 8.49259 12.6904 12.6905 12.6904H68.5276C72.7255 12.6904 76.1417 16.1066 76.1417 20.3045V60.9133Z" fill="black"/>
<path d="M40.6089 31.1978C35.4109 31.1978 31.1978 35.4109 31.1978 40.6088C31.1978 45.8068 35.4109 50.0199 40.6089 50.0199C45.8068 50.0199 50.0199 45.8068 50.0199 40.6088C50.0199 35.4109 45.8068 31.1978 40.6089 31.1978ZM48.3271 41.6266C48.3017 41.8195 48.4337 41.9946 48.624 42.0251C48.5403 42.4971 48.421 42.9565 48.2611 43.3956C48.0809 43.3245 47.8753 43.4108 47.8017 43.591C47.7281 43.7712 47.8118 43.9743 47.987 44.053C47.8854 44.2687 47.7763 44.4768 47.657 44.6824L43.5682 41.9692L42.0657 41.3373C42.0987 41.2713 42.1266 41.2027 42.152 41.1317L43.6621 41.7459L48.4717 42.7179L43.8195 41.1545L42.2053 40.9337C42.2205 40.8626 42.2281 40.789 42.2332 40.7129L43.8525 40.9159L48.7509 40.6114L43.8525 40.3068L42.2332 40.5099C42.2281 40.4337 42.2205 40.3601 42.2053 40.289L43.8195 40.0682L48.4717 38.5048L43.6621 39.4769L42.152 40.0911C42.1292 40.02 42.0987 39.9515 42.0657 39.8855L43.5682 39.2535L47.657 36.5403C47.7763 36.7459 47.8854 36.954 47.987 37.1698C47.8093 37.2485 47.7255 37.4515 47.8017 37.6317C47.8753 37.8119 48.0809 37.8982 48.2611 37.8271C48.421 38.2662 48.5428 38.7256 48.624 39.1977C48.4337 39.2281 48.3017 39.4033 48.3271 39.5962C48.3524 39.789 48.525 39.9236 48.7179 39.9033C48.7382 40.1368 48.7509 40.3728 48.7509 40.6114C48.7509 40.8499 48.7382 41.086 48.7179 41.3195C48.5276 41.2992 48.3524 41.4337 48.3271 41.6266ZM46.8448 35.3779C46.6951 35.4997 46.6672 35.718 46.7865 35.8703C46.9032 36.0226 47.1215 36.053 47.2789 35.9414C47.4134 36.1343 47.5403 36.3348 47.657 36.5403L43.2662 38.7256L41.9667 39.7104C41.9261 39.6495 41.8804 39.5911 41.8297 39.5352L43.119 38.5352L46.3677 34.8551L42.6875 38.1038L41.6875 39.3931C41.6317 39.3449 41.5733 39.2967 41.5124 39.2561L42.4972 37.9566L44.6824 33.5632C44.888 33.6825 45.0885 33.8094 45.2814 33.9439C45.1672 34.0987 45.1977 34.317 45.3525 34.4363C45.5073 34.5531 45.7256 34.5277 45.8449 34.3779C46.0251 34.5302 46.2027 34.6901 46.3702 34.8576C46.5377 35.0251 46.6976 35.2003 46.8499 35.383L46.8448 35.3779ZM41.3195 32.5023C41.2992 32.6927 41.4337 32.8678 41.6266 32.8932C41.8195 32.9186 41.9946 32.7866 42.0251 32.5962C42.4972 32.68 42.9566 32.7993 43.3956 32.9592C43.3246 33.1394 43.4109 33.3449 43.5911 33.4185C43.7713 33.4921 43.9743 33.4084 44.053 33.2333C44.2687 33.3348 44.4768 33.4439 44.6824 33.5632L41.9693 37.652L41.3373 39.1545C41.2713 39.1215 41.2028 39.0936 41.1317 39.0682L41.7459 37.5581L42.718 32.7485L41.1545 37.4007L40.9337 39.0149C40.8627 38.9997 40.7891 38.9921 40.7129 38.987L40.916 37.3677L40.6114 32.4693L40.3068 37.3677L40.5099 38.987C40.4337 38.9921 40.3601 38.9997 40.2891 39.0149L40.0683 37.4007L38.5048 32.7485L39.4769 37.5581L40.0911 39.0682C40.02 39.0911 39.9515 39.1215 39.8855 39.1545L39.2535 37.652L36.5404 33.5632C36.746 33.4439 36.9541 33.3348 37.1698 33.2333C37.2485 33.4109 37.4515 33.4947 37.6317 33.4185C37.8119 33.3449 37.8982 33.1394 37.8272 32.9592C38.2662 32.7993 38.7256 32.6774 39.1977 32.5962C39.2282 32.7866 39.4033 32.9186 39.5962 32.8932C39.7891 32.8678 39.9236 32.6952 39.9033 32.5023C40.1368 32.482 40.3728 32.4693 40.6114 32.4693C40.85 32.4693 41.086 32.482 41.3195 32.5023ZM33.4186 43.5885C33.345 43.4083 33.1394 43.322 32.9592 43.3931C32.7993 42.954 32.6775 42.4946 32.5962 42.0225C32.7866 41.9921 32.9186 41.8169 32.8932 41.6241C32.8678 41.4312 32.6952 41.2966 32.5023 41.3169C32.482 41.0834 32.4693 40.8474 32.4693 40.6088C32.4693 40.3703 32.482 40.1342 32.5023 39.9007C32.6927 39.921 32.8678 39.7865 32.8932 39.5936C32.9186 39.4007 32.7866 39.2256 32.5962 39.1951C32.68 38.7231 32.7993 38.2637 32.9592 37.8246C33.1394 37.8957 33.345 37.8094 33.4186 37.6292C33.4922 37.449 33.4084 37.2459 33.2333 37.1672C33.3348 36.9515 33.444 36.7434 33.5632 36.5378L37.652 39.251L39.1546 39.883C39.1216 39.9489 39.0936 40.0175 39.0683 40.0885L37.5581 39.4743L32.7485 38.5023L37.4008 40.0657L39.015 40.2865C38.9997 40.3576 38.9921 40.4312 38.9871 40.5073L37.3678 40.3043L32.4693 40.6088L37.3678 40.9134L38.9871 40.7104C38.9921 40.7865 38.9997 40.8601 39.015 40.9312L37.4008 41.152L32.7485 42.7154L37.5581 41.7433L39.0683 41.1291C39.0911 41.2002 39.1216 41.2687 39.1546 41.3347L37.652 41.9667L33.5632 44.6799C33.444 44.4743 33.3348 44.2662 33.2333 44.0504C33.411 43.9717 33.4947 43.7687 33.4186 43.5885ZM35.3779 34.3754C35.4998 34.5251 35.718 34.5531 35.8703 34.4338C36.0226 34.317 36.0531 34.0987 35.9414 33.9414C36.1343 33.8069 36.3348 33.6774 36.5404 33.5607L38.7256 37.954L39.7104 39.2535C39.6495 39.2941 39.5911 39.3398 39.5353 39.3906L38.5353 38.1012L34.8551 34.8525L38.1038 38.5327L39.3931 39.5327C39.3449 39.5885 39.2967 39.6469 39.2561 39.7078L37.9566 38.7231L33.5632 36.5378C33.6825 36.3322 33.8094 36.1317 33.944 35.9388C34.0988 36.053 34.317 36.0226 34.4363 35.8678C34.5531 35.7129 34.5277 35.4947 34.378 35.3754C34.5302 35.1952 34.6901 35.0175 34.8576 34.85C35.0252 34.6825 35.2003 34.5226 35.383 34.3703L35.3779 34.3754ZM34.3754 45.8423C34.5252 45.7205 34.5531 45.5022 34.4338 45.3499C34.317 45.1976 34.0988 45.1672 33.9414 45.2788C33.8069 45.0859 33.6775 44.8854 33.5607 44.6799L37.9541 42.4946L39.2535 41.5098C39.2942 41.5708 39.3398 41.6291 39.3906 41.685L38.1013 42.685L34.8526 46.3651L38.5327 43.1164L39.5327 41.8271C39.5886 41.8753 39.6469 41.9235 39.7079 41.9642L38.7231 43.2636L36.5378 47.657C36.3323 47.5377 36.1317 47.4108 35.9389 47.2763C36.0531 47.1215 36.0226 46.9032 35.8678 46.7839C35.713 46.6672 35.4947 46.6925 35.3754 46.8423C35.1952 46.69 35.0175 46.5301 34.85 46.3626C34.6825 46.1951 34.5226 46.0199 34.3703 45.8372L34.3754 45.8423ZM39.9007 48.7179C39.9211 48.5275 39.7865 48.3524 39.5936 48.327C39.4008 48.3017 39.2256 48.4336 39.1952 48.624C38.7231 48.5402 38.2637 48.4209 37.8246 48.261C37.8957 48.0808 37.8094 47.8753 37.6292 47.8017C37.449 47.7281 37.246 47.8118 37.1673 47.9869C36.9515 47.8854 36.7434 47.7763 36.5378 47.657L39.251 43.5682L39.883 42.0657C39.949 42.0987 40.0175 42.1266 40.0886 42.152L39.4744 43.6621L38.5023 48.4717L40.0657 43.8195L40.2865 42.2053C40.3576 42.2205 40.4312 42.2281 40.5073 42.2332L40.3043 43.8525L40.6089 48.7509L40.9134 43.8525L40.7104 42.2332C40.7865 42.2281 40.8601 42.2205 40.9312 42.2053L41.152 43.8195L42.7154 48.4717L41.7434 43.6621L41.1292 42.152C41.2002 42.1291 41.2688 42.0987 41.3347 42.0657L41.9667 43.5682L44.6799 47.657C44.4743 47.7763 44.2662 47.8854 44.0505 47.9869C43.9718 47.8093 43.7687 47.7255 43.5885 47.8017C43.4083 47.8753 43.322 48.0808 43.3931 48.261C42.954 48.4209 42.4946 48.5428 42.0226 48.624C41.9921 48.4336 41.817 48.3017 41.6241 48.327C41.4312 48.3524 41.2967 48.525 41.317 48.7179C41.0835 48.7382 40.8474 48.7509 40.6089 48.7509C40.3703 48.7509 40.1342 48.7382 39.9007 48.7179ZM45.8423 46.8448C45.7205 46.6951 45.5022 46.6672 45.3499 46.7864C45.1977 46.9032 45.1672 47.1215 45.2789 47.2788C45.086 47.4133 44.8855 47.5402 44.6799 47.657L42.4946 43.2662L41.5099 41.9667C41.5708 41.9261 41.6292 41.8804 41.685 41.8296L42.685 43.119L46.3652 46.3677L43.1165 42.6875L41.8271 41.6875C41.8753 41.6317 41.9236 41.5733 41.9642 41.5124L43.2637 42.4971L47.657 44.6824C47.5377 44.888 47.4108 45.0885 47.2763 45.2814C47.1215 45.1672 46.9032 45.1976 46.7839 45.3524C46.6672 45.5073 46.6926 45.7255 46.8423 45.8448C46.69 46.025 46.5301 46.2027 46.3626 46.3702C46.1951 46.5377 46.02 46.6976 45.8372 46.8499L45.8423 46.8448Z" fill="#2C2C6B"/>
<path opacity="0.2" d="M68.5276 12.6904H12.6905C8.48498 12.6904 5.07639 16.099 5.07639 20.3046V22.8426C5.07639 18.6371 8.48498 15.2285 12.6905 15.2285H68.5276C72.7331 15.2285 76.1417 18.6371 76.1417 22.8426V20.3046C76.1417 16.099 72.7331 12.6904 68.5276 12.6904Z" fill="white"/>
</svg>
