<svg width="82" height="82" viewBox="0 0 82 82" fill="none" xmlns="http://www.w3.org/2000/svg">
<path d="M78.6794 20.3045C78.6794 14.698 74.1338 10.1523 68.5273 10.1523H12.6902C7.08367 10.1523 2.53802 14.698 2.53802 20.3045V43.147H78.6794V20.3045Z" fill="#EA3323"/>
<path d="M12.6902 71.0655H68.5273C74.1338 71.0655 78.6794 66.5198 78.6794 60.9133V40.6089H2.53802V60.9133C2.53802 66.5198 7.08367 71.0655 12.6902 71.0655Z" fill="white"/>
<path opacity="0.15" d="M12.6902 71.0655H68.5273C74.1338 71.0655 78.6794 66.5198 78.6794 60.9133V20.3045C78.6794 14.698 74.1338 10.1523 68.5273 10.1523H12.6902C7.08367 10.1523 2.53802 14.698 2.53802 20.3045V60.9133C2.53802 66.5198 7.08367 71.0655 12.6902 71.0655ZM5.07607 20.3045C5.07607 16.1066 8.49228 12.6904 12.6902 12.6904H68.5273C72.7252 12.6904 76.1414 16.1066 76.1414 20.3045V60.9133C76.1414 65.1112 72.7252 68.5274 68.5273 68.5274H12.6902C8.49228 68.5274 5.07607 65.1112 5.07607 60.9133V20.3045Z" fill="black"/>
<path opacity="0.2" d="M68.5273 12.6904H12.6902C8.48468 12.6904 5.07608 16.099 5.07608 20.3046V22.8426C5.07608 18.6371 8.48468 15.2285 12.6902 15.2285H68.5273C72.7328 15.2285 76.1414 18.6371 76.1414 22.8426V20.3046C76.1414 16.099 72.7328 12.6904 68.5273 12.6904Z" fill="white"/>
</svg>
