<svg width="82" height="82" viewBox="0 0 82 82" fill="none" xmlns="http://www.w3.org/2000/svg">
<path d="M2.53809 27.9185H78.6795V53.2989H2.53809V27.9185Z" fill="white"/>
<path d="M12.6903 10.1523H68.5273C74.1313 10.1523 78.6795 14.7005 78.6795 20.3045V30.4567H2.53809V20.3045C2.53809 14.7005 7.08627 10.1523 12.6903 10.1523Z" fill="#4D9E4A"/>
<path d="M68.5273 71.0654L12.6902 71.0654C7.0862 71.0654 2.53802 66.5172 2.53802 60.9132V50.7611L78.6794 50.7611V60.9132C78.6794 66.5172 74.1313 71.0654 68.5273 71.0654Z" fill="#C92A1D"/>
<path opacity="0.15" d="M68.5273 10.1523H12.6903C7.08373 10.1523 2.53809 14.698 2.53809 20.3045V60.9133C2.53809 66.5198 7.08373 71.0655 12.6903 71.0655H68.5273C74.1339 71.0655 78.6795 66.5198 78.6795 60.9133V20.3045C78.6795 14.698 74.1339 10.1523 68.5273 10.1523ZM76.1415 60.9133C76.1415 65.1112 72.7252 68.5274 68.5273 68.5274H12.6903C8.49234 68.5274 5.07613 65.1112 5.07613 60.9133V20.3045C5.07613 16.1066 8.49234 12.6904 12.6903 12.6904H68.5273C72.7252 12.6904 76.1415 16.1066 76.1415 20.3045V60.9133Z" fill="black"/>
<path d="M45.8397 42.6521C46.8295 39.609 45.893 36.2715 43.4692 34.1827C46.1036 38.0811 45.1544 43.3476 41.3753 46.0912L41.6392 39.5938V34.4796C41.2306 34.2842 40.8753 33.9873 40.6113 33.6167C40.3474 33.9847 39.9946 34.2817 39.5834 34.4796V39.5938L39.8474 46.0912C36.0682 43.3476 35.1164 38.0811 37.7535 34.1827C35.3271 36.269 34.3931 39.609 35.3829 42.6521C36.0504 44.7054 37.4768 46.2993 39.2484 47.2282C38.1646 47.6242 37.0073 47.8044 35.8423 47.746C37.2103 48.1902 38.6113 48.2409 39.9235 47.9643L39.9337 48.2384L40.6113 49.1699L41.289 48.2384L41.2991 47.9643C42.6113 48.2409 44.0123 48.1902 45.3803 47.746C44.2153 47.8018 43.058 47.6216 41.9742 47.2282C43.7483 46.2993 45.1722 44.7054 45.8397 42.6521Z" fill="#C92A1D"/>
<path d="M48.4182 37.1418C47.5172 35.5835 46.0249 34.4566 44.2787 34.02C48.1188 36.9083 48.8929 42.3626 46.0046 46.2052C45.9995 46.2128 45.9944 46.2179 45.9893 46.2255C49.167 44.3879 50.2558 40.322 48.4182 37.1444V37.1418Z" fill="#C92A1D"/>
<path d="M36.9387 34.0201C35.1925 34.4567 33.6976 35.5836 32.7991 37.1419C30.9616 40.3195 32.0504 44.3855 35.228 46.223C35.2229 46.2154 35.2179 46.2104 35.2128 46.2027C32.3245 42.3627 33.0986 36.9059 36.9387 34.0176V34.0201Z" fill="#C92A1D"/>
<path d="M38.8601 33.5402C39.4261 33.9387 40.2104 33.8016 40.6088 33.2357C41.0073 33.8016 41.7916 33.9387 42.3575 33.5402C42.8322 33.2052 43.0174 32.5885 42.8017 32.0479C42.6799 32.6925 42.0606 33.1164 41.4159 32.9945C41.0758 32.9311 40.7814 32.723 40.6088 32.4235C40.4362 32.723 40.1418 32.9311 39.8017 32.9945C39.1571 33.1164 38.5378 32.6925 38.416 32.0479C38.2002 32.5885 38.383 33.2052 38.8601 33.5402Z" fill="#C92A1D"/>
<path opacity="0.2" d="M68.5274 12.6904H12.6903C8.48477 12.6904 5.07617 16.099 5.07617 20.3046V22.8426C5.07617 18.6371 8.48477 15.2285 12.6903 15.2285H68.5274C72.7329 15.2285 76.1415 18.6371 76.1415 22.8426V20.3046C76.1415 16.099 72.7329 12.6904 68.5274 12.6904Z" fill="white"/>
</svg>
