<svg width="82" height="82" viewBox="0 0 82 82" fill="none" xmlns="http://www.w3.org/2000/svg">
<path d="M2.53809 27.9185H78.6795V53.2989H2.53809V27.9185Z" fill="white"/>
<path d="M12.6903 10.1523H68.5273C74.1313 10.1523 78.6795 14.7005 78.6795 20.3045V30.4567H2.53809V20.3045C2.53809 14.7005 7.08627 10.1523 12.6903 10.1523Z" fill="#BD2A2B"/>
<path d="M68.5273 71.0654L12.6902 71.0654C7.0862 71.0654 2.53802 66.5172 2.53802 60.9132V50.7611L78.6794 50.7611V60.9132C78.6794 66.5172 74.1313 71.0654 68.5273 71.0654Z" fill="black"/>
<path opacity="0.15" d="M68.5273 10.1523H12.6903C7.08373 10.1523 2.53809 14.698 2.53809 20.3045V60.9133C2.53809 66.5198 7.08373 71.0655 12.6903 71.0655H68.5273C74.1339 71.0655 78.6795 66.5198 78.6795 60.9133V20.3045C78.6795 14.698 74.1339 10.1523 68.5273 10.1523ZM76.1415 60.9133C76.1415 65.1112 72.7252 68.5274 68.5273 68.5274H12.6903C8.49234 68.5274 5.07613 65.1112 5.07613 60.9133V20.3045C5.07613 16.1066 8.49234 12.6904 12.6903 12.6904H68.5273C72.7252 12.6904 76.1415 16.1066 76.1415 20.3045V60.9133Z" fill="black"/>
<path d="M38.619 45.3905H21.9567C21.8272 46.5656 20.6141 47.426 19.2511 47.3118C19.1039 47.2991 18.9567 47.2762 18.8146 47.2407C21.147 46.096 21.0024 44.9336 19.5303 42.3499C20.3476 42.058 20.477 41.9793 21.3044 41.421C20.7181 43.1951 22.8196 42.9793 24.3704 42.9793C24.3704 42.36 24.4313 41.6545 23.9668 41.558C24.5683 41.3423 24.6216 41.2738 25.5759 40.4641V42.8499H37.0707V41.2128C37.0707 41.0225 36.9159 40.8677 36.7256 40.8677C36.5352 40.8677 36.3804 41.0225 36.3804 41.2128V42.1595C36.3804 42.3017 36.2636 42.4184 36.1215 42.4184H27.3373V40.8677L33.9337 34.4946C33.8906 34.822 34.5708 35.7002 34.855 35.8474C34.6393 35.8829 34.3982 35.8398 34.2434 35.9946L28.8449 41.2128H34.8297C34.8297 39.8271 36.1215 39.8271 36.723 39.3347C37.3246 39.8245 38.6164 39.8245 38.6164 41.2128V45.3879L38.619 45.3905Z" fill="#357A42"/>
<path d="M39.8677 45.3904V34.4971C40.4793 34.8321 40.9514 35.2204 41.7103 35.4108C41.6748 35.8422 41.289 35.9793 41.289 36.2813V42.9818C42.1316 43.1721 42.322 42.6797 42.7281 42.431C42.8321 43.4995 43.5123 44.5503 43.4869 45.3929H39.8702L39.8677 45.3904Z" fill="#357A42"/>
<path d="M51.2508 38.1138L52.5858 36.9946V42.8498H53.5325V36.1925C53.9969 35.8042 54.601 35.3829 54.8675 34.8931V45.3904H46.4716C46.3523 43.2204 46.3523 40.9895 48.8828 41.4717V40.5859C48.8828 40.3803 48.5731 40.5428 48.5731 40.3524L50.3041 38.9057V42.8498H51.2508V38.1138Z" fill="#357A42"/>
<path d="M56.1162 45.3904V34.4971C56.7279 34.8321 57.2 35.2204 57.9588 35.4108C57.9233 35.8422 57.5375 35.9793 57.5375 36.2813V42.9818C58.3801 43.1721 58.5705 42.6797 58.9766 42.431C59.0806 43.4995 59.7608 44.5503 59.7355 45.3929H56.1187L56.1162 45.3904Z" fill="#357A42"/>
<path opacity="0.2" d="M68.5274 12.6904H12.6903C8.48477 12.6904 5.07617 16.099 5.07617 20.3046V22.8426C5.07617 18.6371 8.48477 15.2285 12.6903 15.2285H68.5274C72.7329 15.2285 76.1415 18.6371 76.1415 22.8426V20.3046C76.1415 16.099 72.7329 12.6904 68.5274 12.6904Z" fill="white"/>
</svg>
