<svg width="82" height="82" viewBox="0 0 82 82" fill="none" xmlns="http://www.w3.org/2000/svg">
<path d="M68.5273 10.1523H12.6902C7.08331 10.1523 2.53802 14.6976 2.53802 20.3045V60.9133C2.53802 66.5202 7.08331 71.0655 12.6902 71.0655H68.5273C74.1342 71.0655 78.6794 66.5202 78.6794 60.9133V20.3045C78.6794 14.6976 74.1342 10.1523 68.5273 10.1523Z" fill="#BF2C30"/>
<path opacity="0.15" d="M68.5273 10.1523H12.6902C7.08367 10.1523 2.53802 14.698 2.53802 20.3045V60.9133C2.53802 66.5198 7.08367 71.0655 12.6902 71.0655H68.5273C74.1338 71.0655 78.6794 66.5198 78.6794 60.9133V20.3045C78.6794 14.698 74.1338 10.1523 68.5273 10.1523ZM76.1414 60.9133C76.1414 65.1112 72.7252 68.5274 68.5273 68.5274H12.6902C8.49228 68.5274 5.07607 65.1112 5.07607 60.9133V20.3045C5.07607 16.1066 8.49228 12.6904 12.6902 12.6904H68.5273C72.7252 12.6904 76.1414 16.1066 76.1414 20.3045V60.9133Z" fill="black"/>
<path d="M60.3777 27.9617C60.2127 27.477 59.7939 27.5937 59.4589 27.411C59.0021 27.2029 58.3777 26.9161 55.8752 27.5658L53.8117 27.3552C52.9234 26.5252 51.7255 27.3425 51.9641 28.1978L52.1392 29.1267C51.8955 30.0734 51.8143 30.4236 51.7965 30.5683C50.3143 32.7282 49.0554 35.7992 49.0225 37.718C49.0199 37.9058 49.0224 37.9464 49.1697 38.7129C49.1874 38.9033 48.9488 38.8347 48.7763 38.7941C46.7763 37.6266 45.3321 37.0809 43.3753 36.1089C43.3195 36.0403 43.2585 35.8855 43.2433 35.5987L43.2585 35.586C43.3195 34.6698 41.6799 30.7003 41.4565 30.1673C40.9312 29.4668 40.4362 28.4541 40.2484 27.642C40.0758 25.3882 37.0124 24.6623 35.6596 25.9998C35.2942 26.4795 35.1546 26.4262 34.8018 26.68C32.8018 26.9288 30.8805 27.7917 29.3348 28.4846C27.6064 29.3501 26.543 30.279 25.043 28.9998L22.0202 26.1166C21.411 25.6369 21.0811 25.9009 20.9669 26.0354C20.6395 26.4212 20.9466 26.7054 20.9542 27.081C20.9973 27.5734 21.0582 28.2511 22.8856 30.0582L23.7308 31.9186C23.4415 33.1064 24.7866 33.6952 25.3958 33.0759L26.1267 32.4617C27.0861 32.1977 27.4338 32.0886 27.5683 32.0328C30.213 32.2181 33.548 31.7561 35.2535 30.8272C35.4211 30.7358 35.4541 30.713 36.0556 30.2079C36.218 30.0962 36.2764 30.3297 36.3271 30.4973C36.3018 32.7587 36.5378 34.2358 36.6622 36.3627C36.7383 36.4287 36.2662 36.8348 36.0073 36.9464L36.02 36.954C35.053 37.6977 32.7028 40.6291 32.3932 41.0378C32.0378 41.8347 31.3957 42.7611 30.7739 43.3296C28.8754 44.5885 29.7764 47.5859 31.6267 48.0605C32.2383 48.1341 32.2561 48.2788 32.6571 48.4514C33.8779 50.0301 35.5987 51.2356 36.9845 52.2052C38.5962 53.2432 39.9616 53.6671 39.586 55.5985L38.5606 59.6112C38.4667 60.4386 38.8271 60.535 39.1241 60.5604C39.5708 60.5731 39.6291 60.2127 39.9439 60.0427C40.355 59.7584 40.921 59.3701 41.5987 56.9132L42.8144 55.2635C43.9971 54.926 43.8575 53.4767 42.9971 53.2635L42.091 52.9463C41.3753 52.261 41.1088 52.0174 40.9895 51.9336C39.8271 49.5834 37.7408 46.9717 36.0784 45.992C35.9134 45.8956 35.8779 45.8778 35.1292 45.6189C34.9515 45.5403 35.1292 45.3727 35.251 45.2484C37.2586 44.1393 38.4413 43.2002 40.256 42.0301C40.388 41.9109 40.822 42.1494 41.0707 42.2865V42.2763C42.1849 42.7357 45.9616 43.2687 46.5072 43.3347C47.3854 43.2382 48.525 43.3245 49.3372 43.5707C51.2382 44.5656 53.6315 42.3398 53.0732 40.4819C52.8321 39.9312 52.9488 39.8398 52.9031 39.4134C54.0732 36.8068 53.9234 33.5226 54.2458 31.1191C54.8295 29.7409 58.5706 29.2739 59.7762 28.8145C60.4919 28.5404 60.4386 28.1318 60.3802 27.9694L60.3777 27.9617Z" fill="white"/>
<path opacity="0.2" d="M68.5272 12.6904H12.6902C8.48465 12.6904 5.07605 16.099 5.07605 20.3046V22.8426C5.07605 18.6371 8.48465 15.2285 12.6902 15.2285H68.5272C72.7328 15.2285 76.1414 18.6371 76.1414 22.8426V20.3046C76.1414 16.099 72.7328 12.6904 68.5272 12.6904Z" fill="white"/>
</svg>
