<svg width="82" height="82" viewBox="0 0 82 82" fill="none" xmlns="http://www.w3.org/2000/svg">
<path d="M68.5274 10.1523H12.6903C7.08344 10.1523 2.53815 14.6976 2.53815 20.3045V60.9133C2.53815 66.5202 7.08344 71.0655 12.6903 71.0655H68.5274C74.1343 71.0655 78.6796 66.5202 78.6796 60.9133V20.3045C78.6796 14.6976 74.1343 10.1523 68.5274 10.1523Z" fill="white"/>
<path d="M2.53815 20.3042H78.6796V30.4564H2.53815V20.3042Z" fill="#1433B3"/>
<path d="M2.53815 50.7607H78.6796V60.9129H2.53815V50.7607Z" fill="#1433B3"/>
<path opacity="0.15" d="M68.5274 10.1523H12.6903C7.08379 10.1523 2.53815 14.698 2.53815 20.3045V60.9133C2.53815 66.5198 7.08379 71.0655 12.6903 71.0655H68.5274C74.1339 71.0655 78.6796 66.5198 78.6796 60.9133V20.3045C78.6796 14.698 74.1339 10.1523 68.5274 10.1523ZM76.1415 60.9133C76.1415 65.1112 72.7253 68.5274 68.5274 68.5274H12.6903C8.49241 68.5274 5.07619 65.1112 5.07619 60.9133V20.3045C5.07619 16.1066 8.49241 12.6904 12.6903 12.6904H68.5274C72.7253 12.6904 76.1415 16.1066 76.1415 20.3045V60.9133Z" fill="black"/>
<path d="M40.6088 49.4005L38.0708 45.0046H32.9947L35.5327 40.6087L32.9947 36.2128H38.0708L40.6088 31.8169L43.1469 36.2128H48.223L45.6849 40.6087L48.223 45.0046H43.1469L40.6088 49.4005ZM39.6824 45.0046L40.6088 46.6086L41.5352 45.0046H39.6824ZM43.9514 43.6087H45.8042L44.8778 42.0046L43.9514 43.6087ZM38.8753 43.6087H42.3398L44.0707 40.6087L42.3398 37.6087H38.8753L37.1444 40.6087L38.8753 43.6087ZM35.4109 43.6087H37.2637L36.3373 42.0046L35.4109 43.6087ZM43.9514 37.6087L44.8778 39.2128L45.8042 37.6087H43.9514ZM35.4109 37.6087L36.3373 39.2128L37.2637 37.6087H35.4109ZM39.6799 36.2128H41.5327L40.6063 34.6087L39.6799 36.2128Z" fill="#1437B0"/>
<path opacity="0.2" d="M68.5273 12.6904H12.6903C8.48471 12.6904 5.07611 16.099 5.07611 20.3046V22.8426C5.07611 18.6371 8.48471 15.2285 12.6903 15.2285H68.5273C72.7328 15.2285 76.1414 18.6371 76.1414 22.8426V20.3046C76.1414 16.099 72.7328 12.6904 68.5273 12.6904Z" fill="white"/>
</svg>
