<svg id="Layer_1" data-name="Layer 1" xmlns="http://www.w3.org/2000/svg" width="184.99" height="310.43" viewBox="0 0 184.99 310.43"><title>Italy national football team logo - Brandlogos.net</title><polygon points="58.85 16.95 61.15 19.18 59.22 30.44 63.37 28.25 68.9 25.33 69.29 25.12 69.31 25.13 73.41 27.28 78.93 30.18 79.42 30.44 78.93 27.55 77.49 19.18 78.93 17.78 83.45 13.37 85.66 11.2 83.45 10.88 78.93 10.23 74.37 9.57 73.41 7.63 69.31 0.03 69.29 0 68.9 0.81 64.27 9.57 63.37 9.7 58.85 10.35 53.34 11.14 52.95 11.2 53.34 11.57 58.85 16.95" style="fill:#c5b783"/><polygon points="105.25 16.95 107.54 19.18 105.61 30.44 109.77 28.25 115.29 25.33 115.69 25.12 115.7 25.13 119.8 27.28 125.33 30.18 125.82 30.44 125.33 27.55 123.89 19.18 125.33 17.78 129.84 13.37 132.06 11.2 129.84 10.88 125.33 10.23 120.76 9.57 119.8 7.63 115.7 0.03 115.69 0 115.29 0.81 110.66 9.57 109.77 9.7 105.25 10.35 99.73 11.14 99.34 11.2 99.73 11.57 105.25 16.95" style="fill:#c5b783"/><polygon points="15.46 27.33 17.74 29.56 15.82 40.81 19.97 38.62 25.5 35.71 25.89 35.5 25.91 35.5 30.01 37.66 35.53 40.55 36.03 40.81 35.53 37.93 34.1 29.56 35.53 28.15 40.05 23.74 42.26 21.57 40.05 21.25 35.53 20.6 30.97 19.94 30.01 18 25.91 9.72 25.89 9.7 25.5 10.51 20.87 19.94 19.97 20.07 15.46 20.73 9.94 21.52 9.55 21.57 9.94 21.95 15.46 27.33" style="fill:#c5b783"/><polygon points="148.65 27.33 150.94 29.56 149.01 40.81 153.16 38.62 158.69 35.71 159.09 35.5 159.1 35.5 163.2 37.66 168.72 40.55 169.22 40.81 168.72 37.93 167.28 29.56 168.72 28.15 173.24 23.74 175.46 21.57 173.24 21.25 168.72 20.6 164.16 19.94 163.2 18 159.1 9.72 159.09 9.7 158.69 10.51 154.06 19.94 153.16 20.07 148.65 20.73 143.13 21.52 142.74 21.57 143.13 21.95 148.65 27.33" style="fill:#c5b783"/><path d="M384,532.84c76.68-30.16,86.52-71.19,86.51-103.62.23-8.73-.45-94.08-1.89-135.39C431.73,292.33,401.14,283,384,274.43c-18.55,9.39-49.92,19.16-84.63,19.54-1.44,41.32-2.13,126.53-1.9,135.17,0,32.49,9.84,73.52,86.52,103.7" transform="translate(-291.5 -228.78)" style="fill:#0057b8"/><path d="M299.38,294c34.71-.38,66.07-10.15,84.63-19.54,17.13,8.6,47.72,17.9,84.61,19.41,1.44,41.31,2.13,126.66,1.89,135.39,0,32.43-9.84,73.46-86.51,103.62-76.68-30.18-86.54-71.21-86.52-103.7-.23-8.64.45-93.86,1.9-135.17m175.08-3.11-.11-2.77-2.77-.08c-38.15-1.14-69.55-10.85-86.2-19.54l-1.38-.72-1.38.72c-18.09,9.47-50,19.59-85.36,19.59l-3.61,0-.11,2.87c-1.52,40.13-2.24,129.52-2,138.32,0,51.18,28.16,85,91.38,109.58l1.08.42,1.07-.42c63.22-24.58,91.4-58.37,91.38-109.49.24-8.88-.48-98.28-2-138.45" transform="translate(-291.5 -228.78)" style="fill:#c5b783"/><path d="M349.75,362.41a37.82,37.82,0,0,1,.21-3.9,279.37,279.37,0,0,0-36.84,7.15c-.22,21.6-.34,42.12-.32,63.72,0,20.38,4.81,35.93,14.92,49.11,7.42,9.66,18,18.52,31.93,26.51V387.32a35.94,35.94,0,0,1-9.91-24.92" transform="translate(-291.5 -228.78)" style="fill:#009f4d"/><path d="M418.26,362.41a36,36,0,0,1-9.93,24.95V505c13.93-8,24.52-16.86,31.95-26.52,10.1-13.18,14.9-28.74,14.92-49.12,0-21.61-.09-42.13-.31-63.74A279.23,279.23,0,0,0,418,358.5a36.93,36.93,0,0,1,.21,3.91" transform="translate(-291.5 -228.78)" style="fill:#e4002b"/><path d="M384,397.84a33.6,33.6,0,0,1-24.35-10.52V505A197.66,197.66,0,0,0,384,516.71,198.23,198.23,0,0,0,408.33,505V387.35A33.59,33.59,0,0,1,384,397.84" transform="translate(-291.5 -228.78)" style="fill:#fff"/><path d="M415,347.19a300.3,300.3,0,0,1,39.78,6.87c0-2,0-4.09-.08-6.14a305.93,305.93,0,0,0-43.42-7.06,35.61,35.61,0,0,1,3.72,6.32" transform="translate(-291.5 -228.78)" style="fill:#c5b783"/><path d="M353,347.24a36.08,36.08,0,0,1,3.71-6.33,305.92,305.92,0,0,0-43.4,7.14q0,3.07-.08,6.13A300.23,300.23,0,0,1,353,347.24" transform="translate(-291.5 -228.78)" style="fill:#c5b783"/><path d="M376.57,389.67a23,23,0,0,0,7.94,1.35,25.92,25.92,0,0,0,13.59-3.85A28.08,28.08,0,0,0,408,376.74c-3.76,4.68-9.45,8.27-16.09,8.27a20.24,20.24,0,0,1-11.49-3.76,30.93,30.93,0,0,1-13.5-22.41,19,19,0,0,0-3.44,15.65,20.11,20.11,0,0,0,13.12,15.17" transform="translate(-291.5 -228.78)" style="fill:#c5b783"/><path d="M370.12,349A29.14,29.14,0,0,1,384,345.39a27.12,27.12,0,0,1,11.43,2.51,18.12,18.12,0,0,0-17.09-12,19.38,19.38,0,0,0-13.08,5.31c-5.42,4.92-8.84,13.14-8.74,20.93A29.93,29.93,0,0,0,360,376a24.49,24.49,0,0,1-.85-12.51,20.76,20.76,0,0,1,11-14.53" transform="translate(-291.5 -228.78)" style="fill:#c5b783"/><path d="M397.9,336.71a26.74,26.74,0,0,0-13.51-3.79h-.22a22,22,0,0,1,12.1,6.34c4.05,4.26,6,10,5.71,16.49-.47,9.61-4.85,18.26-11.83,23.55,5.67,1.14,12.1-1.38,16.25-6.36a21.4,21.4,0,0,0,4.37-17.86,28,28,0,0,0-12.86-18.39" transform="translate(-291.5 -228.78)" style="fill:#c5b783"/><polygon points="80.55 137.17 80.55 133.06 84.25 133.06 84.25 131.16 80.55 131.16 80.55 129.01 85.12 129.01 85.12 127.11 78.54 127.11 78.54 137.17 80.55 137.17" style="fill:#c5b783"/><rect x="86.87" y="127.11" width="2.01" height="10.06" style="fill:#c5b783"/><path d="M387.56,355.84h-3.31a1.89,1.89,0,0,0-2,2V364a1.89,1.89,0,0,0,2,2h3.31a1.89,1.89,0,0,0,2-2v-3.21h-3.27v1.82h1.26v1a.42.42,0,0,1-.47.47h-2.3a.42.42,0,0,1-.48-.47v-5.42a.42.42,0,0,1,.48-.47h2.3a.42.42,0,0,1,.47.47v.92h2v-1.31a1.9,1.9,0,0,0-2-2" transform="translate(-291.5 -228.78)" style="fill:#c5b783"/><path d="M396.59,355.84h-3.18a1.89,1.89,0,0,0-2,2V364a1.89,1.89,0,0,0,2,2h3.18a1.89,1.89,0,0,0,2-2v-1.28h-2v.89a.42.42,0,0,1-.47.47h-2.18a.42.42,0,0,1-.48-.47v-5.42a.42.42,0,0,1,.48-.47h2.18a.42.42,0,0,1,.47.47v.84h2v-1.23a1.89,1.89,0,0,0-2-2" transform="translate(-291.5 -228.78)" style="fill:#c5b783"/><path d="M313.74,307l-.15,0v29.85l.24-.06c1.8-.43,3.59-.85,5.4-1.25l.16,0V305.74l-.24.05q-2.71.6-5.41,1.25" transform="translate(-291.5 -228.78)" style="fill:#c5b783"/><path d="M329.44,303.7l-.16,0v5.49l.23,0c2.24-.41,4.56-.81,6.89-1.19v24.13q2.93-.51,5.86-1V307.11c2.36-.33,4.71-.63,7-.9l.17,0V300.7l-.22,0c-6.6.77-13.25,1.77-19.77,3" transform="translate(-291.5 -228.78)" style="fill:#c5b783"/><path d="M365.56,306a1,1,0,0,1,1.12-1.18c2-.13,4-.23,6-.31h.1c.7,0,1,.31,1,1v11.1c-2.75.1-5.53.25-8.27.42Zm0,22.62v-6c2.75-.18,5.53-.32,8.27-.42v6q3-.11,5.92-.15V304.36a5.22,5.22,0,0,0-5.65-5.45c-2.91.11-5.89.26-8.82.45a5.83,5.83,0,0,0-5.62,6v23.73c2-.17,3.93-.32,5.9-.45" transform="translate(-291.5 -228.78)" style="fill:#c5b783"/><path d="M448.63,323.49c-2.68-.59-5.42-1.15-8.13-1.67V310.7c0-.79.35-.89.7-.89a2.11,2.11,0,0,1,.36,0c2,.4,4,.81,5.95,1.23a1.26,1.26,0,0,1,1.13,1.39v11ZM440.27,304a4.63,4.63,0,0,0-4.4,1.17,4.94,4.94,0,0,0-1.21,3.45v24q2.92.54,5.84,1.14v-6.4c2.74.53,5.47,1.09,8.13,1.67v6.51q2.9.68,5.79,1.43V312.63a7,7,0,0,0-5.48-6.83c-2.89-.64-5.81-1.24-8.67-1.78" transform="translate(-291.5 -228.78)" style="fill:#c5b783"/><path d="M396.79,299q-2.76-.11-5.53-.17h-.2v29.33q8.54.22,17.08,1v-5.15l-.18,0c-3.64-.28-7.34-.5-11-.66V299Z" transform="translate(-291.5 -228.78)" style="fill:#c5b783"/><path d="M418.95,300.75l-.22,0V330.2c2,.25,3.92.51,5.88.8V301.47l-.17,0c-1.74-.24-3.54-.47-5.49-.7" transform="translate(-291.5 -228.78)" style="fill:#c5b783"/></svg>