<svg width="82" height="82" viewBox="0 0 82 82" fill="none" xmlns="http://www.w3.org/2000/svg">
<path d="M68.5273 10.1523H12.6902C7.08331 10.1523 2.53802 14.6976 2.53802 20.3045V60.9133C2.53802 66.5202 7.08331 71.0655 12.6902 71.0655H68.5273C74.1342 71.0655 78.6794 66.5202 78.6794 60.9133V20.3045C78.6794 14.6976 74.1342 10.1523 68.5273 10.1523Z" fill="black"/>
<path d="M40.6088 40.6089L75.3394 12.8249C73.5348 11.1803 71.1592 10.1523 68.5273 10.1523H12.6902C10.0583 10.1523 7.68013 11.1803 5.87811 12.8249L40.6088 40.6089Z" fill="#33764C"/>
<path d="M40.6088 40.6089L75.3394 68.3929C73.5348 70.0375 71.1592 71.0655 68.5273 71.0655H12.6902C10.0583 71.0655 7.68013 70.0375 5.87811 68.3929L40.6088 40.6089Z" fill="#33764C"/>
<path d="M71.8369 10.7511L40.6088 35.7331L9.38065 10.7511C6.83498 11.6343 4.76648 13.4795 3.59644 15.8754L34.5149 40.6112L3.59644 65.3445C4.76648 67.7404 6.83752 69.5855 9.38065 70.4688L40.6088 45.4868L71.8369 70.4688C74.3826 69.5855 76.4511 67.7404 77.6211 65.3445L46.7026 40.6087L77.6211 15.8729C76.4511 13.4769 74.38 11.6343 71.8369 10.7511Z" fill="#F5BD45"/>
<path opacity="0.15" d="M68.5273 10.1523H12.6902C7.08367 10.1523 2.53802 14.698 2.53802 20.3045V60.9133C2.53802 66.5198 7.08367 71.0655 12.6902 71.0655H68.5273C74.1338 71.0655 78.6794 66.5198 78.6794 60.9133V20.3045C78.6794 14.698 74.1338 10.1523 68.5273 10.1523ZM76.1414 60.9133C76.1414 65.1112 72.7252 68.5274 68.5273 68.5274H12.6902C8.49228 68.5274 5.07607 65.1112 5.07607 60.9133V20.3045C5.07607 16.1066 8.49228 12.6904 12.6902 12.6904H68.5273C72.7252 12.6904 76.1414 16.1066 76.1414 20.3045V60.9133Z" fill="black"/>
<path opacity="0.2" d="M68.5273 12.6904H12.6903C8.48471 12.6904 5.07611 16.099 5.07611 20.3046V22.8426C5.07611 18.6371 8.48471 15.2285 12.6903 15.2285H68.5273C72.7328 15.2285 76.1414 18.6371 76.1414 22.8426V20.3046C76.1414 16.099 72.7328 12.6904 68.5273 12.6904Z" fill="white"/>
</svg>
