<svg id="Layer_1" data-name="Layer 1" xmlns="http://www.w3.org/2000/svg" viewBox="0 0 205.13 271.77"><title>Japan national football team logo - Brandlogos.net</title><path d="M394.61,331.35a1.53,1.53,0,1,0,1.53,1.53A1.53,1.53,0,0,0,394.61,331.35Zm5.26-.62c.05.11.14,2.89.14,2.89l7.55-3.06s.23-.37.08-.56a.35.35,0,0,0-.38-.11Zm-5.26-1.11a3.26,3.26,0,1,0,3.25,3.26A3.25,3.25,0,0,0,394.61,329.62ZM406.8,512.91c3.93-2.73,8.83-5.92,14.53-9.26a245.65,245.65,0,0,1,26.09-13.21,165.58,165.58,0,0,0,16.76-8.28,69.86,69.86,0,0,0,10.89-7.57,33.71,33.71,0,0,0,5.68-6.24,30.49,30.49,0,0,0,3.45-6.57c4-10.41,3.5-27.9,3.44-29.65l-.07-120.94H326L326,432.14c-.06,1.75-.56,19.24,3.44,29.65a30.56,30.56,0,0,0,3.45,6.57,33.72,33.72,0,0,0,5.68,6.24,69.8,69.8,0,0,0,10.89,7.57,165.57,165.57,0,0,0,16.76,8.28,245.61,245.61,0,0,1,26.09,13.21c5.7,3.34,10.6,6.53,14.53,9.26Z" transform="translate(-304.23 -269.05)" style="fill:#fff;fill-rule:evenodd"/><path d="M406.8,533.93s17.55-15.16,47.26-28.07,40.34-23.85,45.8-38.08,4.55-36.45,4.55-36.45v-158H309.19v158s-.91,22.22,4.55,36.45,16.09,25.17,45.8,38.08S406.79,533.93,406.8,533.93Zm48.8-24.06c-26.73,11.62-42.4,25.06-42.69,25.31-1.91,1.86-4.57,3.88-6.66,5.65l-6-6a156.87,156.87,0,0,0-19.31-13.22A208,208,0,0,0,358,509.87a182.27,182.27,0,0,1-19.2-9.55A90.22,90.22,0,0,1,325,490.66a57.12,57.12,0,0,1-9.72-10.74,54.93,54.93,0,0,1-6.07-11.66,75,75,0,0,1-3.95-16.95,146.07,146.07,0,0,1-1.06-20.16V269.05H509.34v162.1a146.09,146.09,0,0,1-1.06,20.16,75,75,0,0,1-3.95,16.95,54.94,54.94,0,0,1-6.07,11.66,57.1,57.1,0,0,1-9.72,10.74,90.22,90.22,0,0,1-13.74,9.66A182.23,182.23,0,0,1,455.6,509.87Z" transform="translate(-304.23 -269.05)" style="fill:#fff;fill-rule:evenodd"/><path d="M383.8,287l-.41,1-.07.17L381.7,292h4.2l-1.62-3.89-.07-.17Zm-15.22,8.71c-1.25,1.34-3.8,2.25-6.74,2.25a11.5,11.5,0,0,1-5.28-1.17l1.58-3.88a8.8,8.8,0,0,0,3.7.94c3.14,0,2.95-2.4,2.95-2.4v-6.53h-3.59l1.63-3.9h6a1,1,0,0,1,1.09.9v9.53c0,3.48-1.32,4.26-1.32,4.26ZM425.53,287l-.41,1-.07.17L423.43,292h4.2L426,288.16l-.07-.17ZM421,298h-5l2.07-5,0-.07,2-4.79.07-.17,1.76-4.23h0l.69-1.65h0l.1-.23a1.55,1.55,0,0,1,1.46-.84h5.57l-.78,1.88.35.85h0L431,288l.07.17,2,4.79,0,.07,2.07,5h-5l-1-2.4H422Zm-17.41-13.12v5.25h2.24a2.63,2.63,0,0,0,0-5.25h-2.24ZM399,281h8.33a6.46,6.46,0,0,1,0,12.91h-3.79v4h-5.12V281.61A.58.58,0,0,1,399,281Zm41.37,0h4.55l6.57,9.1v-8.53a.58.58,0,0,1,.57-.57h4.55V297.4a.58.58,0,0,1-.57.57H451.5l-6.57-9.1v8.53a.58.58,0,0,1-.57.57h-4.55V281.59A.58.58,0,0,1,440.38,281ZM379.24,298h-5l2.07-5,0-.07,2-4.79.07-.17,1.76-4.23h0l.69-1.65h0l.1-.23a1.56,1.56,0,0,1,1.46-.84h5.57l-.78,1.88.35.85h0l1.76,4.23.07.17,2,4.79,0,.07,2.07,5h-5l-1-2.4h-7.14Z" transform="translate(-304.23 -269.05)" style="fill:#fff;fill-rule:evenodd"/><path d="M394.61,331.35a1.53,1.53,0,1,0,1.53,1.53A1.53,1.53,0,0,0,394.61,331.35Zm5.26-.62c.05.11.14,2.89.14,2.89l7.55-3.06s.23-.37.08-.56a.35.35,0,0,0-.38-.11Zm-5.26-1.11a3.26,3.26,0,1,0,3.25,3.26A3.25,3.25,0,0,0,394.61,329.62Z" transform="translate(-304.23 -269.05)" style="fill:#fff;fill-rule:evenodd"/><path d="M357.31,409.28q.85,0,1.69.08t1.67.25q.83.17,1.64.41t1.59.57q.78.32,1.53.72t1.45.87q.7.47,1.36,1t1.25,1.14q.6.6,1.13,1.25t1,1.36q.47.7.87,1.45t.72,1.53q.32.78.57,1.59t.41,1.64q.16.83.25,1.67t.08,1.69q0,.85-.08,1.69t-.25,1.67q-.16.83-.41,1.64t-.57,1.59q-.32.78-.72,1.53t-.87,1.45q-.47.7-1,1.36t-1.13,1.25q-.6.6-1.25,1.14t-1.36,1q-.7.47-1.45.87t-1.53.72q-.78.32-1.59.57t-1.64.41q-.83.17-1.67.25t-1.69.08q-.85,0-1.69-.08t-1.67-.25q-.83-.16-1.64-.41t-1.59-.57q-.78-.32-1.53-.72t-1.45-.87q-.7-.47-1.36-1t-1.25-1.14q-.6-.6-1.13-1.25t-1-1.36q-.47-.7-.87-1.45t-.72-1.53q-.32-.78-.57-1.59t-.41-1.64q-.16-.83-.25-1.67t-.08-1.69q0-.85.08-1.69t.25-1.67q.16-.83.41-1.64t.57-1.59q.32-.78.72-1.53t.87-1.45q.47-.7,1-1.36t1.13-1.25q.6-.6,1.25-1.14t1.36-1q.7-.47,1.45-.87t1.53-.72q.78-.32,1.59-.57t1.64-.41q.83-.16,1.67-.25T357.31,409.28Z" transform="translate(-304.23 -269.05)" style="fill:#e30016;fill-rule:evenodd"/><path d="M431,436.27v-18l-5.11-5.66h-5.38l4.92,3.39-5.52,2.79,6.77,3.72-6.7,4.17,5,9.76h4.6a6.32,6.32,0,0,0,1.45-.13Zm-48.71,5.36v6h.42a2,2,0,0,1,1.94,1.94v20.49c0,7.49-2.36,9.15-2.36,9.15v13.3l.31.16c4.46,2.28,8.53,4.53,12.2,6.67,2.79,1.63,5.52,3.32,8.1,5,1.35.87,2.66,1.73,3.93,2.58,1.46-1,3-2,4.48-2.94,2.36-1.5,4.89-3.06,7.55-4.62,3.58-2.1,7.62-4.32,12.14-6.63V478.92h-3.78l-1.78,5.15h-9l3.68-10.66,0-.14L423.7,463l.13-.37,3.14-9.09h0l1.23-3.55h0l.17-.5a2.78,2.78,0,0,1,2.6-1.81v-6h-6.48v-.88H411.63a4.36,4.36,0,0,0-3,1.7c-1.09,1.56.79-6,4.4-6h6L406.7,412.57h-5.62L406,416l-5.52,2.79,6.77,3.72-8.52,5.31-4.15,8.62h6.05c3.6,0,5.49,7.61,4.4,6a4.35,4.35,0,0,0-3-1.7H389.17v.88Zm0-28.35v22.88a6.37,6.37,0,0,0,1.89.24h4.38c1.2-2.29,3-5.73,4.15-7.69a5.87,5.87,0,0,0,.38-5.64s-3.58-7.11-7.81-15.48h0l-2.86,5.82Zm0-11.61v.83h.42Zm20.6,46h-7.18a2,2,0,0,0-1.94,1.94v34.49h9.12V471.29h8.4l2.62-7.58h-11V456h14l2.9-8.39H402.85Zm-20.6-131.48v10.9c2.83-1.57,5.87-3.27,6.93-3.9a3.92,3.92,0,0,1,3.77-.4s4.27,2.89,4.83,3.08,1.46-.49,1.71-1.4,1.17-.41,1.17-.41,2.14,1.68,2.62,2.16a1.78,1.78,0,0,0,1.09.5h14.47a1.83,1.83,0,0,1,1,.41,30.07,30.07,0,0,1,3.63,2.27c1.17,1-.52,1.64-.52,1.64l-22.8,11.19c-4.34,2-1.61,5.68-1.61,5.68l10.78,11.54L424.06,336l4.47-7.1a14.92,14.92,0,0,1,2.43-2.68V316.16Z" transform="translate(-304.23 -269.05)" style="fill:#e30016;fill-rule:evenodd"/><path d="M406.8,533.93s17.55-15.16,47.26-28.07,40.34-23.85,45.8-38.08,4.55-36.45,4.55-36.45v-158H309.19v158s-.91,22.22,4.55,36.45,16.09,25.17,45.8,38.08S406.79,533.93,406.8,533.93ZM383.8,287l-.41,1-.07.17L381.7,292h4.2l-1.62-3.89-.07-.17Zm-15.22,8.71c-1.25,1.34-3.8,2.25-6.74,2.25a11.5,11.5,0,0,1-5.28-1.17l1.58-3.88a8.8,8.8,0,0,0,3.7.94c3.14,0,2.95-2.4,2.95-2.4v-6.53h-3.59l1.63-3.9h6a1,1,0,0,1,1.09.9v9.53c0,3.48-1.32,4.26-1.32,4.26ZM425.53,287l-.41,1-.07.17L423.43,292h4.2L426,288.16l-.07-.17ZM421,298h-5l2.07-5,0-.07,2-4.79.07-.17,1.76-4.23h0l.69-1.65h0l.1-.23a1.55,1.55,0,0,1,1.46-.84h5.57l-.78,1.88.35.85h0L431,288l.07.17,2,4.79,0,.07,2.07,5h-5l-1-2.4H422Zm-17.41-13.12v5.25h2.24a2.63,2.63,0,0,0,0-5.25h-2.24ZM399,281h8.33a6.46,6.46,0,0,1,0,12.91h-3.79v4h-5.12V281.61A.58.58,0,0,1,399,281Zm41.37,0h4.55l6.57,9.1v-8.53a.58.58,0,0,1,.57-.57h4.55V297.4a.58.58,0,0,1-.57.57H451.5l-6.57-9.1v8.53a.58.58,0,0,1-.57.57h-4.55V281.59A.58.58,0,0,1,440.38,281ZM379.24,298h-5l2.07-5,0-.07,2-4.79.07-.17,1.76-4.23h0l.69-1.65h0l.1-.23a1.56,1.56,0,0,1,1.46-.84h5.57l-.78,1.88.35.85h0l1.76,4.23.07.17,2,4.79,0,.07,2.07,5h-5l-1-2.4h-7.14ZM406.8,519a232.84,232.84,0,0,1,42.57-24C463,489,472.12,483.7,478.3,478.33a35.76,35.76,0,0,0,10.51-14.79c4.57-11.91,3.76-31.69,3.76-31.75l0-.47V306.23H321.08v125.1l0,.47c0,.06-.81,19.83,3.76,31.75a35.78,35.78,0,0,0,10.51,14.79c6.18,5.37,15.29,10.71,28.93,16.64a232.84,232.84,0,0,1,42.57,24Z" transform="translate(-304.23 -269.05)" style="fill:#0f0d04;fill-rule:evenodd"/><path d="M394.61,331.35a1.53,1.53,0,1,0,1.53,1.53A1.53,1.53,0,0,0,394.61,331.35Zm5.26-.62c.05.11.14,2.89.14,2.89l7.55-3.06s.23-.37.08-.56a.35.35,0,0,0-.38-.11Zm-5.26-1.11a3.26,3.26,0,1,0,3.25,3.26A3.25,3.25,0,0,0,394.61,329.62Zm90.55-7.38h-43a16.12,16.12,0,0,0-13.6,6.65l-4.47,7.1-14.77,23.43-10.78-11.54s-2.73-3.72,1.61-5.68L422.92,331s1.69-.68.52-1.64a30.07,30.07,0,0,0-3.63-2.27,1.83,1.83,0,0,0-1-.41H404.38a1.78,1.78,0,0,1-1.09-.5c-.48-.48-2.62-2.16-2.62-2.16s-.93-.49-1.17.41-1.15,1.59-1.71,1.4-4.83-3.08-4.83-3.08a3.92,3.92,0,0,0-3.77.4c-2.16,1.29-12.59,7-12.59,7a5.19,5.19,0,0,0-2.1,4.57v31.14l-3.06,10.51a5.81,5.81,0,0,0,.33,4.71c.65,1.12,5.83,11.33,10.91,21.39H359.32L356.18,400h-1.12v3.17h-5.45l-3.13,6.34a20.14,20.14,0,0,1,30.8,14.3h0l2.7-5.49h0c0-.06.55-1.93-.17-2.65s-7.58-8.26-7.58-8.26h4.55l5.6,6,2.86-5.82h0c4.23,8.37,7.81,15.48,7.81,15.48a5.87,5.87,0,0,1-.38,5.64c-1.13,2-2.95,5.4-4.15,7.69h-4.38s-2.9.15-4-1.75v3.06h-5.39s-3.82,0-3.63,6c0,0,2-2.11,4-2.11h14.09v-.88H402a4.35,4.35,0,0,1,3,1.7c1.09,1.56-.79-6-4.4-6h-6.05l4.15-8.62,8.52-5.31-6.77-3.72L406,416l-4.92-3.39h5.62L419,436.4h-6c-3.6,0-5.49,7.61-4.4,6a4.35,4.35,0,0,1,3-1.7h12.86v.88h14.09c2,0,4,2.11,4,2.11.2-6-3.63-6-3.63-6h-5.39v-3.06c-1.1,1.91-4,1.75-4,1.75h-4.6l-5-9.76,6.7-4.17-6.77-3.72,5.52-2.79-4.92-3.39h5.38L441,429.4h6.29l-21.47-23.78h4.86L452.2,429.4h6.51l-27.6-30.57H436l27.6,30.57h8.25l-32.54-36h16.16L444.89,382.8H429.73L426.33,379H443l7.85-10.57H421.07l2.38-3.77h30.19l7.85-10.57H430.11l2.38-3.77H464.3l7.85-10.57h-33l2.38-3.78H475Z" transform="translate(-304.23 -269.05)" style="fill:#0f0d04;fill-rule:evenodd"/><path d="M402.85,447.64h-7.18a2,2,0,0,0-1.94,1.94v34.49h9.12V471.29h8.4l2.62-7.58h-11V456h14l2.9-8.39H402.85Zm30.69,12.87-.72,2.09-.13.37h0l-2.89,8.37h7.48L434.39,463h0l-.13-.37Zm-8.13,23.56h-9l3.68-10.66,0-.14L423.7,463l.13-.37,3.14-9.09h0l1.23-3.55h0l.17-.5a2.78,2.78,0,0,1,2.6-1.81h9.91l-1.4,4,.63,1.82h0l3.14,9.09.13.37,3.55,10.29,0,.14,3.68,10.66h-9l-1.78-5.15H427.18Zm-43.16-4.84c-2.22,2.87-6.77,4.84-12,4.84a17.64,17.64,0,0,1-9.4-2.51l2.82-8.34h0a13.62,13.62,0,0,0,6.59,2,4.82,4.82,0,0,0,5.25-5.17V456H369.1l2.9-8.39h10.68a2,2,0,0,1,1.94,1.94v20.49c0,7.49-2.36,9.15-2.36,9.15Z" transform="translate(-304.23 -269.05)" style="fill:#0f0d04;fill-rule:evenodd"/><path d="M492.57,431.87v1.33s0,1,.05,2.56c0,6.4-.5,19.15-3.82,27.79a35.76,35.76,0,0,1-10.51,14.79C472.12,483.7,463,489,449.37,495a232.84,232.84,0,0,0-42.57,24,232.84,232.84,0,0,0-42.57-24c-13.64-5.93-22.75-11.27-28.93-16.64a35.78,35.78,0,0,1-10.51-14.79c-3.31-8.63-3.8-21.39-3.82-27.79,0-1.6.05-2.55.05-2.56v-1.4l0-.47V306.23H492.52v125.1l0,.47Zm-85.77,81c3.93-2.73,8.83-5.92,14.53-9.26a245.65,245.65,0,0,1,26.09-13.21,165.58,165.58,0,0,0,16.76-8.28,69.86,69.86,0,0,0,10.89-7.57,33.71,33.71,0,0,0,5.68-6.24,30.49,30.49,0,0,0,3.45-6.57c4-10.41,3.5-27.9,3.44-29.65l-.07-120.94H326L326,432.14c-.06,1.75-.56,19.24,3.44,29.65a30.56,30.56,0,0,0,3.45,6.57,33.72,33.72,0,0,0,5.68,6.24,69.8,69.8,0,0,0,10.89,7.57,165.57,165.57,0,0,0,16.76,8.28,245.61,245.61,0,0,1,26.09,13.21c5.7,3.34,10.6,6.53,14.53,9.26Z" transform="translate(-304.23 -269.05)" style="fill:#b09438;fill-rule:evenodd"/></svg>