<svg width="82" height="82" viewBox="0 0 82 82" fill="none" xmlns="http://www.w3.org/2000/svg">
<path d="M68.5273 10.1523H12.6902C7.08331 10.1523 2.53802 14.6976 2.53802 20.3045V60.9133C2.53802 66.5202 7.08331 71.0655 12.6902 71.0655H68.5273C74.1342 71.0655 78.6794 66.5202 78.6794 60.9133V20.3045C78.6794 14.6976 74.1342 10.1523 68.5273 10.1523Z" fill="white"/>
<path d="M71.8367 10.7511L40.6086 35.7331L9.38043 10.7511C6.83477 11.6343 4.76626 13.4795 3.59622 15.8754L34.5147 40.6112L3.59622 65.3445C4.76626 67.7404 6.83731 69.5855 9.38043 70.4688L40.6086 45.4868L71.8367 70.4688C74.3824 69.5855 76.4509 67.7404 77.6209 65.3445L46.7024 40.6087L77.6209 15.8729C76.4509 13.4769 74.3798 11.6343 71.8367 10.7511Z" fill="#BF2C30"/>
<path opacity="0.15" d="M68.5273 10.1523H12.6902C7.08367 10.1523 2.53802 14.698 2.53802 20.3045V60.9133C2.53802 66.5198 7.08367 71.0655 12.6902 71.0655H68.5273C74.1338 71.0655 78.6794 66.5198 78.6794 60.9133V20.3045C78.6794 14.698 74.1338 10.1523 68.5273 10.1523ZM76.1414 60.9133C76.1414 65.1112 72.7252 68.5274 68.5273 68.5274H12.6902C8.49228 68.5274 5.07607 65.1112 5.07607 60.9133V20.3045C5.07607 16.1066 8.49228 12.6904 12.6902 12.6904H68.5273C72.7252 12.6904 76.1414 16.1066 76.1414 20.3045V60.9133Z" fill="black"/>
<path d="M45.0907 19.416L45.0856 19.3957H45.073C43.9918 18.6393 42.1897 18.2586 40.1314 18.3551C38.37 18.4363 36.7253 18.8677 36.1365 19.4033L36.1314 19.4083V19.416C35.705 21.1342 35.3522 23.7484 36.0908 26.4337C36.7913 28.9895 38.3091 30.9996 40.5984 32.4057L40.6111 32.4133L40.6238 32.4057C42.9131 30.9996 44.4308 28.9895 45.1313 26.4337C45.8674 23.7484 45.5171 21.1342 45.0907 19.416Z" fill="#BF2C30"/>
<path d="M46.6341 14.812C46.1214 14.6826 45.5935 15.1699 45.5402 15.675C44.8194 15.0202 44.7407 16.2968 44.4869 16.642C44.9539 17.0227 45.5834 15.6674 45.2687 16.7283C45.1697 16.6648 44.8753 16.7384 44.8956 16.8501C44.9006 16.8552 45.0123 17.0328 45.0199 17.0354C44.525 17.4085 43.7611 17.1851 43.6392 16.5506C45.5148 15.3603 41.8448 14.741 43.2382 16.4821C42.6925 17.2206 41.4058 17.3983 40.8702 16.5811C40.9616 16.6191 41.0783 16.4795 41.1367 16.4288C41.223 16.4034 40.9667 16.2156 40.9438 16.2232C41.0479 15.0202 41.2129 16.6699 41.8524 16.4465C41.7306 15.9592 42.1494 14.6699 41.1012 15.0658C41.4286 13.6877 39.7839 13.6877 40.1088 15.0658C39.0631 14.6674 39.4794 15.9567 39.3575 16.4465C40.0047 16.6978 40.1443 14.9846 40.2712 16.2232C39.9946 16.2917 40.0707 16.5887 40.3347 16.5836C39.8017 17.3958 38.5225 17.2257 37.9743 16.4922C39.4159 14.7917 35.7383 15.3019 37.5682 16.5481C37.4489 17.1877 36.685 17.4085 36.1901 17.0379C36.1977 17.0328 36.3093 16.8577 36.3144 16.8526C36.3474 16.7435 36.0302 16.6648 35.9413 16.7308C35.6292 15.6674 36.2535 17.0252 36.7231 16.6445C36.4692 16.2993 36.3931 15.0227 35.6698 15.6775C35.7916 15.1724 34.4363 14.3603 34.6672 15.043L35.4819 16.845C35.0784 16.9922 35.4007 17.3247 35.7104 17.1597C35.7814 17.3526 35.8449 17.5404 35.8982 17.6876C35.6088 17.6267 35.5479 18.0481 35.8601 18.0074L35.8779 18.0861C35.8855 18.2257 35.784 18.4694 35.7484 18.5963C35.8728 18.6724 35.9769 19.01 36.0733 19.0455C36.0479 19.0633 36.0962 19.1267 36.1012 19.1445C35.9312 19.1648 35.9743 19.4313 36.1291 19.4541C37.7992 19.2232 39.553 19.2232 41.2915 19.2282C41.9235 18.9744 45.2737 19.8602 45.0986 19.1445C45.0986 19.1343 45.1215 19.0785 45.1113 19.0683L45.1189 19.0328C45.223 19.0683 45.3296 18.6572 45.4565 18.5963C45.4235 18.4694 45.3194 18.2257 45.327 18.0861L45.3448 18.0074C45.6417 18.0303 45.6367 17.6369 45.2813 17.6876C45.3473 17.5074 45.4133 17.3298 45.4793 17.1572C45.789 17.3247 46.1341 17.0024 45.7204 16.845L46.5351 15.043C46.5631 15.0176 46.6189 14.8603 46.6265 14.8146L46.6341 14.812ZM36.0835 19.0379L36.0911 19.0303L36.0809 19.0379H36.0835Z" fill="#F9DA49"/>
<path opacity="0.2" d="M68.5273 12.6904H12.6902C8.48468 12.6904 5.07608 16.099 5.07608 20.3046V22.8426C5.07608 18.6371 8.48468 15.2285 12.6902 15.2285H68.5273C72.7328 15.2285 76.1414 18.6371 76.1414 22.8426V20.3046C76.1414 16.099 72.7328 12.6904 68.5273 12.6904Z" fill="white"/>
</svg>
