<svg width="82" height="82" viewBox="0 0 82 82" fill="none" xmlns="http://www.w3.org/2000/svg">
<path d="M68.5273 10.1523H12.6903C7.08338 10.1523 2.53809 14.6976 2.53809 20.3045V60.9133C2.53809 66.5202 7.08338 71.0655 12.6903 71.0655H68.5273C74.1342 71.0655 78.6795 66.5202 78.6795 60.9133V20.3045C78.6795 14.6976 74.1342 10.1523 68.5273 10.1523Z" fill="#4DAAC1"/>
<path opacity="0.15" d="M68.5273 10.1523H12.6903C7.08373 10.1523 2.53809 14.698 2.53809 20.3045V60.9133C2.53809 66.5198 7.08373 71.0655 12.6903 71.0655H68.5273C74.1339 71.0655 78.6795 66.5198 78.6795 60.9133V20.3045C78.6795 14.698 74.1339 10.1523 68.5273 10.1523ZM76.1415 60.9133C76.1415 65.1112 72.7252 68.5274 68.5273 68.5274H12.6903C8.49234 68.5274 5.07613 65.1112 5.07613 60.9133V20.3045C5.07613 16.1066 8.49234 12.6904 12.6903 12.6904H68.5273C72.7252 12.6904 76.1415 16.1066 76.1415 20.3045V60.9133Z" fill="black"/>
<path d="M40.629 44.2966C45.5561 44.2966 49.5502 40.3024 49.5502 35.3753C49.5502 30.4483 45.5561 26.4541 40.629 26.4541C35.7019 26.4541 31.7078 30.4483 31.7078 35.3753C31.7078 40.3024 35.7019 44.2966 40.629 44.2966Z" fill="#FBEC5A"/>
<path d="M40.6291 25.2357C41.1595 25.2281 41.3575 24.8981 41.3575 24.4997C41.3575 23.9692 40.6291 21.4438 40.6291 21.4438C40.6291 21.4438 39.9006 23.9692 39.9006 24.4997C39.9006 24.8981 40.0986 25.2357 40.6291 25.2357Z" fill="#FBEC5A"/>
<path d="M50.7686 35.3754C50.7762 35.9058 51.1061 36.1038 51.5046 36.1038C52.035 36.1038 54.5604 35.3754 54.5604 35.3754C54.5604 35.3754 52.035 34.647 51.5046 34.647C51.1061 34.647 50.7686 34.8449 50.7686 35.3754Z" fill="#FBEC5A"/>
<path d="M40.6291 45.5146C40.0986 45.5223 39.9006 45.8522 39.9006 46.2507C39.9006 46.7811 40.6291 49.3065 40.6291 49.3065C40.6291 49.3065 41.3575 46.7811 41.3575 46.2507C41.3575 45.8522 41.1595 45.5146 40.6291 45.5146Z" fill="#FBEC5A"/>
<path d="M30.4922 35.3754C30.4845 34.8449 30.1546 34.647 29.7561 34.647C29.2257 34.647 26.7003 35.3754 26.7003 35.3754C26.7003 35.3754 29.2257 36.1038 29.7561 36.1038C30.1546 36.1038 30.4922 35.9058 30.4922 35.3754Z" fill="#FBEC5A"/>
<path d="M44.5097 26.0075C45.0021 26.2055 45.3143 25.9745 45.4666 25.6065C45.6696 25.1166 45.9615 22.5024 45.9615 22.5024C45.9615 22.5024 44.3219 24.5583 44.1189 25.0481C43.9666 25.4161 44.0174 25.8044 44.5097 26.0075Z" fill="#FBEC5A"/>
<path d="M49.9971 39.2558C49.7991 39.7482 50.0301 40.0604 50.3981 40.2127C50.8879 40.4157 53.5021 40.7076 53.5021 40.7076C53.5021 40.7076 51.4463 39.068 50.9564 38.865C50.5884 38.7127 50.2001 38.766 49.9971 39.2584V39.2558Z" fill="#FBEC5A"/>
<path d="M36.751 44.7435C36.2586 44.5455 35.9464 44.7765 35.7941 45.1445C35.5911 45.6344 35.2992 48.2486 35.2992 48.2486C35.2992 48.2486 36.9388 46.1927 37.1418 45.7029C37.2941 45.3349 37.2433 44.9466 36.751 44.7435Z" fill="#FBEC5A"/>
<path d="M31.2637 31.4947C31.4617 31.0024 31.2307 30.6902 30.8627 30.5379C30.3729 30.3348 27.7587 30.043 27.7587 30.043C27.7587 30.043 29.8145 31.6825 30.3043 31.8856C30.6723 32.0379 31.0607 31.9846 31.2637 31.4922V31.4947Z" fill="#FBEC5A"/>
<path d="M47.7991 28.2052C48.1798 28.5757 48.5529 28.4818 48.8346 28.2001C49.2102 27.8245 50.4792 25.5225 50.4792 25.5225C50.4792 25.5225 48.1772 26.794 47.8016 27.1671C47.5199 27.4488 47.4209 27.827 47.7965 28.2026L47.7991 28.2052Z" fill="#FBEC5A"/>
<path d="M47.799 42.5454C47.4284 42.9261 47.5224 43.2992 47.8041 43.5809C48.1797 43.9566 50.4817 45.2256 50.4817 45.2256C50.4817 45.2256 49.2102 42.9236 48.8371 42.5479C48.5553 42.2662 48.1772 42.1672 47.8015 42.5429L47.799 42.5454Z" fill="#FBEC5A"/>
<path d="M33.4615 42.5452C33.0808 42.1747 32.7077 42.2686 32.426 42.5503C32.0504 42.9259 30.7814 45.2279 30.7814 45.2279C30.7814 45.2279 33.0834 43.9564 33.459 43.5833C33.7407 43.3016 33.8397 42.9234 33.4641 42.5478L33.4615 42.5452Z" fill="#FBEC5A"/>
<path d="M33.4616 28.2056C33.8322 27.8249 33.7383 27.4518 33.4566 27.17C33.0809 26.7944 30.7789 25.5254 30.7789 25.5254C30.7789 25.5254 32.0505 27.8274 32.4236 28.203C32.7053 28.4848 33.0835 28.5837 33.4591 28.2081L33.4616 28.2056Z" fill="#FBEC5A"/>
<path d="M49.997 31.4946C50.2051 31.9819 50.5884 32.0403 50.9564 31.888C51.4462 31.685 53.5021 30.0454 53.5021 30.0454C53.5021 30.0454 50.8879 30.3373 50.398 30.5403C50.03 30.6926 49.794 31.0023 49.997 31.4946Z" fill="#FBEC5A"/>
<path d="M44.5097 44.7432C44.0224 44.9513 43.964 45.3346 44.1163 45.7026C44.3193 46.1925 45.9589 48.2483 45.9589 48.2483C45.9589 48.2483 45.667 45.6341 45.464 45.1442C45.3117 44.7762 44.9995 44.5402 44.5071 44.7432H44.5097Z" fill="#FBEC5A"/>
<path d="M31.2637 39.2559C31.0556 38.7686 30.6723 38.7102 30.3043 38.8625C29.8145 39.0655 27.7587 40.7051 27.7587 40.7051C27.7587 40.7051 30.3729 40.4132 30.8627 40.2102C31.2307 40.0579 31.4668 39.7457 31.2637 39.2533V39.2559Z" fill="#FBEC5A"/>
<path d="M36.751 26.0075C37.2383 25.7994 37.2967 25.4161 37.1444 25.0481C36.9413 24.5583 35.3018 22.5024 35.3018 22.5024C35.3018 22.5024 35.5936 25.1166 35.7967 25.6065C35.949 25.9745 36.2611 26.2105 36.7535 26.0075H36.751Z" fill="#FBEC5A"/>
<path d="M42.6087 25.4311C43.1316 25.5276 43.3904 25.2408 43.4666 24.8525C43.5706 24.3322 43.3473 21.7129 43.3473 21.7129C43.3473 21.7129 42.1392 24.0479 42.0351 24.5682C41.9564 24.9591 42.0859 25.3296 42.6062 25.4337L42.6087 25.4311Z" fill="#FBEC5A"/>
<path d="M50.5757 37.3526C50.4792 37.8755 50.766 38.1343 51.1544 38.2105C51.6747 38.3145 54.2939 38.0912 54.2939 38.0912C54.2939 38.0912 51.9589 36.8831 51.4386 36.779C51.0478 36.7003 50.6772 36.8298 50.5732 37.3501L50.5757 37.3526Z" fill="#FBEC5A"/>
<path d="M38.6519 45.3191C38.129 45.2227 37.8701 45.5095 37.794 45.8978C37.6899 46.4181 37.9133 49.0373 37.9133 49.0373C37.9133 49.0373 39.1214 46.7023 39.2255 46.182C39.3041 45.7912 39.1747 45.4206 38.6544 45.3166L38.6519 45.3191Z" fill="#FBEC5A"/>
<path d="M30.685 33.3982C30.7815 32.8754 30.4947 32.6165 30.1064 32.5403C29.5861 32.4363 26.9668 32.6596 26.9668 32.6596C26.9668 32.6596 29.3018 33.8677 29.8221 33.9718C30.213 34.0505 30.5835 33.921 30.6876 33.4007L30.685 33.3982Z" fill="#FBEC5A"/>
<path d="M46.2634 26.9438C46.7076 27.2331 47.0578 27.0681 47.2787 26.7382C47.5731 26.2966 48.37 23.7915 48.37 23.7915C48.37 23.7915 46.3599 25.4869 46.0655 25.9285C45.8447 26.2585 45.8218 26.6493 46.2634 26.9438Z" fill="#FBEC5A"/>
<path d="M49.0605 41.0071C48.7711 41.4512 48.9361 41.8015 49.2661 42.0223C49.7077 42.3167 52.2127 43.1137 52.2127 43.1137C52.2127 43.1137 50.5173 41.1035 50.0757 40.8091C49.7458 40.5883 49.3549 40.5655 49.0605 41.0071Z" fill="#FBEC5A"/>
<path d="M34.9971 43.8041C34.5529 43.5148 34.2027 43.6798 33.9819 44.0097C33.6875 44.4513 32.8905 46.9564 32.8905 46.9564C32.8905 46.9564 34.9006 45.261 35.195 44.8194C35.4159 44.4894 35.4387 44.096 34.9971 43.8016V43.8041Z" fill="#FBEC5A"/>
<path d="M32.2002 29.7409C32.4896 29.2967 32.3246 28.9464 31.9946 28.7256C31.553 28.4312 29.048 27.6343 29.048 27.6343C29.048 27.6343 30.7434 29.6444 31.185 29.9388C31.515 30.1596 31.9058 30.1825 32.2002 29.7409Z" fill="#FBEC5A"/>
<path d="M49.0603 29.7409C49.3598 30.1774 49.7456 30.1596 50.0781 29.9388C50.5197 29.6444 52.2151 27.6343 52.2151 27.6343C52.2151 27.6343 49.7101 28.4312 49.2685 28.7256C48.9385 28.9464 48.7634 29.2992 49.0603 29.7409Z" fill="#FBEC5A"/>
<path d="M46.2635 43.804C45.827 44.1035 45.8448 44.4893 46.0656 44.8217C46.36 45.2634 48.3701 46.9588 48.3701 46.9588C48.3701 46.9588 47.5732 44.4537 47.2788 44.0121C47.0579 43.6822 46.7052 43.507 46.2635 43.804Z" fill="#FBEC5A"/>
<path d="M32.2002 41.0074C31.9007 40.5709 31.5149 40.5887 31.1824 40.8095C30.7408 41.1039 29.0454 43.114 29.0454 43.114C29.0454 43.114 31.5505 42.3171 31.9921 42.0227C32.322 41.8018 32.4946 41.4491 32.1977 41.0074H32.2002Z" fill="#FBEC5A"/>
<path d="M34.9971 26.9439C35.4336 26.6444 35.4159 26.2586 35.195 25.9261C34.9006 25.4845 32.8905 23.7891 32.8905 23.7891C32.8905 23.7891 33.6875 26.2941 33.9819 26.7357C34.2027 27.0657 34.5555 27.2383 34.9971 26.9413V26.9439Z" fill="#FBEC5A"/>
<path d="M50.5756 33.3983C50.6847 33.916 51.0502 34.048 51.4411 33.9693C51.9614 33.8653 54.2964 32.6572 54.2964 32.6572C54.2964 32.6572 51.6771 32.4338 51.1568 32.5379C50.7659 32.6166 50.4741 32.8754 50.5781 33.3957L50.5756 33.3983Z" fill="#FBEC5A"/>
<path d="M42.6088 45.3195C42.091 45.4286 41.9591 45.7941 42.0377 46.185C42.1418 46.7053 43.3499 49.0403 43.3499 49.0403C43.3499 49.0403 43.5733 46.421 43.4692 45.9007C43.3905 45.5098 43.1316 45.218 42.6113 45.322L42.6088 45.3195Z" fill="#FBEC5A"/>
<path d="M30.6851 37.3523C30.576 36.8346 30.2105 36.7026 29.8197 36.7813C29.2994 36.8853 26.9644 38.0934 26.9644 38.0934C26.9644 38.0934 29.5836 38.3168 30.1039 38.2127C30.4948 38.134 30.7867 37.8752 30.6826 37.3549L30.6851 37.3523Z" fill="#FBEC5A"/>
<path d="M38.6518 25.4312C39.1696 25.3221 39.3016 24.9566 39.2229 24.5658C39.1188 24.0455 37.9107 21.7104 37.9107 21.7104C37.9107 21.7104 37.6874 24.3297 37.7914 24.85C37.8701 25.2409 38.129 25.5327 38.6493 25.4287L38.6518 25.4312Z" fill="#FBEC5A"/>
<path d="M39.0377 54.7026C38.3727 54.7356 37.7509 55.0123 37.0885 55.0605C37.256 55.5123 36.69 55.9133 36.3372 55.5732C36.0885 55.6519 35.8321 55.5986 35.619 55.4539C34.7915 55.7737 34.5073 57.1595 35.5504 56.36C35.822 56.1874 35.4362 56.7534 35.6266 56.629C37.7179 55.9234 40.223 56.4945 42.3422 56.2559C40.9996 56.0072 39.5225 56.1671 38.2382 55.9184C38.393 55.7052 38.5783 55.5148 38.7484 55.3168C38.6113 55.294 38.4793 55.2661 38.3423 55.2331C38.5834 55.0681 38.8067 54.8803 39.0402 54.7026H39.0377Z" fill="#FBEC5A"/>
<path d="M49.365 56.9942C48.8853 57.2835 48.5173 56.7708 48.1163 56.6185C47.8168 57.0322 47.1188 58.4485 46.8498 57.0805C46.4666 57.4028 46.2737 58.1363 45.6518 58.0373C44.9945 56.8495 44.728 58.8799 43.992 58.1236C43.9133 57.7505 43.728 57.3114 43.525 57.9053C43.3854 58.3241 42.9387 58.6337 42.5047 58.4485C42.2686 58.2556 42.695 57.5373 42.393 57.5881C41.9412 57.885 41.6798 58.6261 41.0504 58.5678C40.8067 58.2936 41.1976 57.8292 40.9311 57.5246C40.6138 57.9307 40.2636 58.5246 39.7153 58.5678C39.4514 58.3546 39.7255 57.7378 39.558 57.649C38.9971 57.9865 38.4032 58.5855 37.6976 58.3977C38.9819 55.649 42.8346 57.5246 45.1036 56.4637C45.3625 56.3064 45.9894 56.083 45.7661 55.7175C45.5681 55.4282 46.2813 55.5424 46.3498 55.2048C47.5021 54.0703 50.2178 55.314 51.8624 55.1287C51.9843 55.913 51.1137 56.4663 50.4107 56.2226C50.0757 56.2759 49.5731 55.4536 49.6721 56.0525C49.6036 56.3673 49.6518 56.7835 49.365 56.9942ZM35.6113 55.385C37.9032 55.4307 39.7153 52.8445 41.7661 52.0323C43.3676 51.5475 45.0706 51.6059 46.6798 51.1592C47.9031 49.4841 49.9843 48.8851 51.7254 47.9206C53.1035 46.5628 54.2863 43.8445 56.7203 44.1973C56.6797 44.8801 56.2863 45.4867 55.8142 45.9587C56.2025 45.9511 56.535 45.7049 56.9258 45.7202C57.0604 46.4207 56.3015 46.7887 55.9005 47.2252C57.7076 47.3978 55.1188 48.1846 54.6848 48.7481C55.9132 48.9892 53.8269 49.2455 53.865 49.7582C54.5147 50.3724 52.1289 50.2886 53.1721 50.8952C52.964 51.21 52.5173 51.2759 52.1543 51.2455C52.5122 52.8064 49.6239 53.38 48.4082 53.6414C49.7051 53.9561 55.6086 52.5678 52.8751 51.5323C53.6289 51.0678 54.5782 51.2328 55.3878 50.9561C55.4081 50.6947 54.771 50.7658 54.535 50.7074C53.2812 50.4587 56.3421 50.2937 56.6035 49.7937C56.1314 49.5755 55.535 49.7683 55.0299 49.5881C55.6543 49.4156 59.0578 48.408 56.9842 48.3547C56.5096 48.4384 56.2913 48.21 56.8294 48.0146C58.6619 46.9029 62.073 44.276 57.4944 45.979C61.2558 43.139 63.1212 39.4563 57.5121 44.4055C61.0121 41.3014 62.3903 35.8649 57.4614 42.5248C60.1441 37.8801 59.2405 33.2152 56.8294 41.276C57.1264 40.5832 57.4791 36.8497 56.3294 38.441C54.9868 45.5222 48.3802 50.5805 41.3651 50.9917C39.9362 53.1719 37.2433 53.8368 35.6164 55.3876" fill="#FBEC5A"/>
<path d="M40.3194 50.9537C40.0884 51.375 39.9514 51.8598 39.6519 52.2354C37.9717 50.7431 35.3067 52.0654 33.624 50.5832C30.4362 48.2761 27.586 46.1264 24.9414 43.134C24.6749 43.2 24.7967 43.7736 24.4693 43.4792C24.2916 43.3523 23.85 43.3421 23.8094 43.5172C24.2104 44.0452 24.6114 44.6467 24.6673 45.3218C24.3931 45.3497 23.9084 45.2634 23.7739 45.3649C24.1368 45.9081 24.6013 46.3903 25.1292 46.7761C24.8754 46.8167 24.3754 46.7939 24.2789 46.8979C24.8043 47.3243 25.3652 47.7634 26.053 47.8725C26.1926 48.0578 25.8474 48.4157 26.1393 48.573C26.3068 48.6416 26.8652 48.7583 26.482 48.9487C25.8424 49.6085 27.2561 49.5349 27.3804 49.8547C26.1749 50.4893 28.0352 50.8547 28.6368 50.9004C28.3703 51.1263 28.0403 51.2532 27.7637 51.4639C29.4972 52.4258 31.4134 53.106 33.3398 53.5679C30.8525 53.4765 28.6545 52.2557 26.3779 51.3953C26.7205 51.2177 27.1165 51.1745 27.4718 51.0197C26.7332 50.8725 25.9287 50.8243 25.2789 50.4182C25.3779 50.2405 25.7561 50.2329 25.9642 50.1415C27.1672 49.804 24.6266 49.8624 24.3576 49.4791C24.6368 49.1644 25.52 49.3649 25.8804 48.9994C23.8754 48.5984 21.581 47.9715 25.2815 47.9893C23.35 47.4563 18.9922 44.2076 23.6368 46.0198C20.5023 43.4969 17.6013 39.0934 23.5353 44.3269C20.9769 42.0452 18.1495 35.3067 23.7586 42.5299C21.0861 37.8752 21.9439 33.1138 24.3906 41.2812C23.1952 31.1773 26.8246 52.1415 40.3169 50.9461" fill="#FBEC5A"/>
<path opacity="0.2" d="M68.5274 12.6904H12.6903C8.48477 12.6904 5.07617 16.099 5.07617 20.3046V22.8426C5.07617 18.6371 8.48477 15.2285 12.6903 15.2285H68.5274C72.7329 15.2285 76.1415 18.6371 76.1415 22.8426V20.3046C76.1415 16.099 72.7329 12.6904 68.5274 12.6904Z" fill="white"/>
</svg>
