<svg width="82" height="82" viewBox="0 0 82 82" fill="none" xmlns="http://www.w3.org/2000/svg">
<path d="M2.53809 30.4565H78.6795V50.7609H2.53809V30.4565Z" fill="#AD2317"/>
<path d="M12.6903 10.1523H68.5273C74.1313 10.1523 78.6795 14.7005 78.6795 20.3045V32.9948H2.53809V20.3045C2.53809 14.7005 7.08627 10.1523 12.6903 10.1523Z" fill="black"/>
<path d="M68.5273 71.0654L12.6903 71.0654C7.08627 71.0654 2.53808 66.5172 2.53808 60.9132V48.223L78.6795 48.223V60.9132C78.6795 66.5172 74.1313 71.0654 68.5273 71.0654Z" fill="#2B6519"/>
<path d="M2.53809 27.9185H78.6795V32.9946H2.53809V27.9185Z" fill="white"/>
<path d="M2.53809 48.2231H78.6795V53.2992H2.53809V48.2231Z" fill="white"/>
<path d="M49.0985 28.1621C50.4564 25.8094 51.0528 23.7028 51.3142 22.3526L51.4031 21.8906L51.0477 22.1977C50.0071 23.0987 48.4818 24.6672 47.1239 27.02C46.6391 27.8627 46.1366 28.7307 46.3523 29.6621L40.6138 39.6037L34.8753 29.6621C35.091 28.7307 34.5885 27.8627 34.1037 27.02C32.7459 24.6672 31.2205 23.0987 30.1799 22.1977L29.8246 21.8906L29.9134 22.3526C30.1748 23.7028 30.7687 25.8094 32.1291 28.1621C32.6139 29.0048 33.1164 29.8728 34.0301 30.152L40.0529 40.5808L31.0758 56.1289L31.9235 56.6187L40.6189 41.558L49.3142 56.6187L50.162 56.1289L41.1849 40.5808L47.2077 30.152C48.1214 29.8728 48.6239 29.0048 49.1087 28.1621H49.0985Z" fill="white"/>
<path d="M43.7382 27.799C42.8905 26.8142 42.0048 26.0021 41.1469 25.3345C40.8296 25.0884 40.3855 25.0884 40.0682 25.3345C39.2104 26.0021 38.3246 26.8142 37.4769 27.799C33.416 32.5096 32.8602 38.0832 32.7815 40.5806C32.8348 42.8623 33.2891 47.9511 36.8677 52.5805C37.8703 53.8774 38.9363 54.9028 39.9312 55.7099C40.3246 56.0297 40.8906 56.0297 41.284 55.7099C42.2789 54.9053 43.3448 53.8774 44.3474 52.5805C47.926 47.9511 48.3803 42.8623 48.4336 40.5806C48.355 38.0832 47.7991 32.5071 43.7382 27.799Z" fill="#AD2317"/>
<path d="M34.3475 48.1517C35.8729 46.0197 36.7942 43.4284 36.7942 40.6086C36.7942 37.7888 35.8627 35.1746 34.3272 33.0376C33.0937 36.1239 32.8348 38.9842 32.7841 40.5832C32.8196 42.1416 33.0709 45.0172 34.35 48.1517H34.3475Z" fill="black"/>
<path d="M46.8701 48.1517C45.3448 46.0197 44.4235 43.4284 44.4235 40.6086C44.4235 37.7761 45.3549 35.1746 46.8904 33.0376C48.1239 36.1239 48.3828 38.9842 48.4336 40.5832C48.398 42.1416 48.1493 45.0172 46.8701 48.1517Z" fill="black"/>
<path opacity="0.15" d="M68.5273 10.1523H12.6903C7.08373 10.1523 2.53809 14.698 2.53809 20.3045V60.9133C2.53809 66.5198 7.08373 71.0655 12.6903 71.0655H68.5273C74.1339 71.0655 78.6795 66.5198 78.6795 60.9133V20.3045C78.6795 14.698 74.1339 10.1523 68.5273 10.1523ZM76.1415 60.9133C76.1415 65.1112 72.7252 68.5274 68.5273 68.5274H12.6903C8.49234 68.5274 5.07613 65.1112 5.07613 60.9133V20.3045C5.07613 16.1066 8.49234 12.6904 12.6903 12.6904H68.5273C72.7252 12.6904 76.1415 16.1066 76.1415 20.3045V60.9133Z" fill="black"/>
<path opacity="0.2" d="M68.5274 12.6904H12.6903C8.48477 12.6904 5.07617 16.099 5.07617 20.3046V22.8426C5.07617 18.6371 8.48477 15.2285 12.6903 15.2285H68.5274C72.7329 15.2285 76.1415 18.6371 76.1415 22.8426V20.3046C76.1415 16.099 72.7329 12.6904 68.5274 12.6904Z" fill="white"/>
</svg>
