<svg width="82" height="82" viewBox="0 0 82 82" fill="none" xmlns="http://www.w3.org/2000/svg">
<path d="M68.5273 10.1523H12.6902C7.08331 10.1523 2.53802 14.6976 2.53802 20.3045V60.9133C2.53802 66.5202 7.08331 71.0655 12.6902 71.0655H68.5273C74.1342 71.0655 78.6794 66.5202 78.6794 60.9133V20.3045C78.6794 14.6976 74.1342 10.1523 68.5273 10.1523Z" fill="#B9291D"/>
<path d="M54.4437 16.0484C42.8321 14.9393 44.8321 15.2109 41.5123 18.9773C41.1951 18.8453 40.8905 18.7286 40.5961 18.6169C40.124 18.4418 39.6773 18.287 39.256 18.1601C38.1012 17.8073 37.1063 17.622 36.1241 17.5306C35.921 17.5129 35.718 17.4951 35.5149 17.4849C34.6977 17.4342 33.7561 17.4316 32.9794 17.5586C30.7155 17.9063 29.2992 18.8352 26.8678 18.9139C26.9592 19.0179 27.0581 19.1118 27.18 19.1981V19.2032C27.4059 19.3504 27.6724 19.5052 27.9896 19.6194C29.7282 20.2666 32.6368 20.2362 34.0962 18.9012C36.652 19.1702 37.2789 19.8656 37.9311 20.6803C36.8271 20.5027 35.6241 20.2413 34.586 21.3707C33.4693 21.8123 30.7459 20.4545 30.8145 22.4925C32.3551 21.2819 35.7256 22.5687 37.2256 23.5763C41.1519 23.7108 46.7356 21.4113 50.898 21.3682H46.8219L51.6797 20.3936H46.0377C45.9285 20.2743 45.6925 20.1245 45.4945 19.9951C46.8321 19.1144 47.9996 17.5662 48.3194 16.7971C48.898 16.7921 49.426 16.7718 49.9209 16.7438C50.332 16.721 50.7153 16.688 51.0833 16.6499C51.6493 16.5916 52.1721 16.5129 52.6823 16.424C53.2762 16.3174 53.8574 16.1905 54.4462 16.051L54.4437 16.0484Z" fill="#F2D347"/>
<path d="M51.5731 39.8371L55.7939 38.497L50.8091 37.8828C52.0452 37.1011 53.4918 36.6645 54.9791 36.6366C53.6695 36.0173 52.2228 35.7584 50.8066 35.8777L54.2583 33.1036L49.3853 34.3321C50.2558 33.1569 51.4487 32.2255 52.8243 31.6595C51.3802 31.5554 49.9386 31.8372 48.6594 32.459L50.8751 28.624L46.7736 31.5301C47.1594 30.1189 47.9361 28.8194 49.0173 27.7966C47.6315 28.2204 46.3904 29.0047 45.4234 30.0478L46.1036 25.6697L43.332 29.8575C43.1823 28.4032 43.4386 26.9133 44.0757 25.5682C42.9361 26.4641 42.063 27.6443 41.5351 28.9641L40.5884 24.6367L39.5148 29.5478C38.8498 28.2458 38.5478 26.7636 38.657 25.2763C37.9184 26.5225 37.5301 27.9387 37.5148 29.3626L35.0707 25.6697L35.8448 30.6367C34.7534 29.6621 33.9362 28.388 33.5022 26.9641C33.2636 28.393 33.4134 29.8549 33.9133 31.1849L30.2992 28.624L32.8118 32.9742C31.4438 32.459 30.223 31.5681 29.3043 30.3981C29.5987 31.8169 30.2636 33.1265 31.2129 34.1849L26.9185 33.1036L30.8347 36.2534C29.3728 36.2686 27.9109 35.8777 26.6292 35.1189C27.4159 36.3346 28.5098 37.3143 29.7763 37.9615L25.3804 38.5046L32.3093 40.7051C32.8347 49.4182 45.9741 50.87 48.4589 42.5934C50.5122 41.4437 52.9792 41.2508 55.1898 42.0604C54.1923 41.0097 52.9385 40.2457 51.5731 39.8447V39.8371Z" fill="#F2D347"/>
<path d="M2.53802 43.147H78.6794V60.9133C78.6794 66.5173 74.1313 71.0655 68.5273 71.0655H12.6902C7.08621 71.0655 2.53802 66.5173 2.53802 60.9133V43.147Z" fill="#182C6D"/>
<path d="M74.055 60.6618C70.2606 62.1795 66.5703 62.1795 62.781 60.6618C57.7684 58.6542 52.4512 58.644 46.9867 60.6313C42.6949 62.1897 38.5249 62.1897 34.2331 60.6313C28.7737 58.644 23.4565 58.6542 18.4388 60.6618C14.6495 62.1795 10.9592 62.1795 7.16479 60.6618C5.62927 60.0476 4.08614 59.6415 2.54047 59.4029V60.9156C2.54047 62.3927 2.87041 63.7861 3.43893 65.0501C4.02522 65.2125 4.60897 65.3445 5.1978 65.5805C10.2409 67.5983 15.3601 67.6008 20.4083 65.5805C24.2281 64.0526 28.1646 64.0602 32.4234 65.611C37.8574 67.5881 43.365 67.5881 48.7964 65.611C53.0578 64.0628 56.9917 64.0526 60.8115 65.5805C65.8597 67.6008 70.9789 67.5983 76.022 65.5805C76.6108 65.3445 77.1971 65.2125 77.7809 65.0501C78.3469 63.7836 78.6793 62.3902 78.6793 60.9156V59.4029C77.1337 59.644 75.5905 60.0476 74.055 60.6618Z" fill="white"/>
<path d="M78.6793 48.8092C77.1337 49.0503 75.5905 49.4538 74.055 50.068C70.2657 51.5833 66.5754 51.5858 62.781 50.068C57.7684 48.0604 52.4512 48.0503 46.9867 50.0376C42.6949 51.5959 38.5249 51.5959 34.2331 50.0376C28.7686 48.0503 23.4565 48.0604 18.4388 50.068C14.6495 51.5833 10.9592 51.5858 7.16479 50.068C5.62927 49.4538 4.08614 49.0477 2.54047 48.8092V54.1848C3.42117 54.3726 4.30695 54.6289 5.1978 54.9868C10.246 57.0045 15.3652 57.002 20.4083 54.9868C24.2281 53.4589 28.1646 53.4665 32.4234 55.0172C37.8574 56.9918 43.365 56.9918 48.7964 55.0172C53.0578 53.4665 56.9917 53.4589 60.8115 54.9868C65.8597 57.0045 70.9789 57.002 76.022 54.9868C76.9129 54.6314 77.7961 54.3751 78.6793 54.1848V48.8092Z" fill="white"/>
<path d="M78.6793 38.2154C77.1337 38.4565 75.5905 38.8601 74.055 39.4743C70.2657 40.9895 66.5754 40.992 62.781 39.4743C57.7684 37.4667 52.4512 37.4565 46.9867 39.4438C42.6949 41.0022 38.5249 41.0022 34.2331 39.4438C28.7686 37.4565 23.4565 37.4667 18.4388 39.4743C14.6495 40.9895 10.9592 40.992 7.16479 39.4743C5.62927 38.8601 4.08614 38.454 2.54047 38.2154V43.591C3.42117 43.7788 4.30695 44.0352 5.1978 44.393C10.246 46.4108 15.3652 46.4082 20.4083 44.393C24.2281 42.8626 28.1646 42.8727 32.4234 44.4235C37.8574 46.3981 43.365 46.3981 48.7964 44.4235C53.0578 42.8753 56.9917 42.8651 60.8115 44.393C65.8597 46.4108 70.9789 46.4082 76.022 44.393C76.9129 44.0377 77.7961 43.7814 78.6793 43.591V38.2154Z" fill="white"/>
<path opacity="0.15" d="M68.5273 10.1523H12.6902C7.08367 10.1523 2.53802 14.698 2.53802 20.3045V60.9133C2.53802 66.5198 7.08367 71.0655 12.6902 71.0655H68.5273C74.1338 71.0655 78.6794 66.5198 78.6794 60.9133V20.3045C78.6794 14.698 74.1338 10.1523 68.5273 10.1523ZM76.1414 60.9133C76.1414 65.1112 72.7252 68.5274 68.5273 68.5274H12.6902C8.49228 68.5274 5.07607 65.1112 5.07607 60.9133V20.3045C5.07607 16.1066 8.49228 12.6904 12.6902 12.6904H68.5273C72.7252 12.6904 76.1414 16.1066 76.1414 20.3045V60.9133Z" fill="black"/>
<path opacity="0.2" d="M68.5272 12.6904H12.6902C8.48465 12.6904 5.07605 16.099 5.07605 20.3046V22.8426C5.07605 18.6371 8.48465 15.2285 12.6902 15.2285H68.5272C72.7328 15.2285 76.1414 18.6371 76.1414 22.8426V20.3046C76.1414 16.099 72.7328 12.6904 68.5272 12.6904Z" fill="white"/>
</svg>
