<svg width="82" height="82" viewBox="0 0 82 82" fill="none" xmlns="http://www.w3.org/2000/svg">
<path d="M68.5274 10.1523H12.6903C7.08344 10.1523 2.53815 14.6976 2.53815 20.3045V60.9133C2.53815 66.5202 7.08344 71.0655 12.6903 71.0655H68.5274C74.1343 71.0655 78.6796 66.5202 78.6796 60.9133V20.3045C78.6796 14.6976 74.1343 10.1523 68.5274 10.1523Z" fill="#2B48A1"/>
<path opacity="0.15" d="M68.5274 10.1523H12.6903C7.08379 10.1523 2.53815 14.698 2.53815 20.3045V60.9133C2.53815 66.5198 7.08379 71.0655 12.6903 71.0655H68.5274C74.1339 71.0655 78.6796 66.5198 78.6796 60.9133V20.3045C78.6796 14.698 74.1339 10.1523 68.5274 10.1523ZM76.1415 60.9133C76.1415 65.1112 72.7253 68.5274 68.5274 68.5274H12.6903C8.49241 68.5274 5.07619 65.1112 5.07619 60.9133V20.3045C5.07619 16.1066 8.49241 12.6904 12.6903 12.6904H68.5274C72.7253 12.6904 76.1415 16.1066 76.1415 20.3045V60.9133Z" fill="black"/>
<path d="M41.0048 30.9616C40.8601 34.4235 44.4641 31.9514 45.6545 34.7407C46.8905 35.8625 47.289 38.6036 50.0428 38.4437C49.6316 40.431 49.2052 40.926 51.4742 41.3777C52.6011 40.7153 52.6697 41.9564 53.4133 42.3498C54.0453 42.1899 55.2712 41.5935 55.6087 42.8346C54.6671 45.1543 53.7458 47.7939 52.2915 49.0401C49.4006 48.9716 55.6544 51.9563 51.2204 51.3599C50.6113 49.8827 49.5022 52.0705 48.5656 52.2786C48.322 54.8776 46.8169 55.4613 45.657 52.7126C35.7612 54.0324 42.3043 58.9029 37.0277 59.3522C35.4693 46.0224 32.7104 53.3954 30.6952 47.6594C30.3805 46.3498 29.2206 45.7812 28.3222 44.8523C28.9694 43.1366 28.5227 42.6569 26.8425 41.9691C26.6826 40.398 28.6496 39.761 29.9059 40.7686C31.01 40.4234 31.444 39.1798 33.0226 39.1087C35.6216 39.2026 34.9033 38.4488 35.2663 36.6316C36.5657 35.5808 37.4541 36.0301 37.7688 34.2585C39.0251 33.822 35.5759 32.4565 37.4896 31.6798C38.6571 31.4793 40.1875 29.6646 41.0124 30.9667" fill="#C8A75E"/>
<path d="M44.9566 24.0377L44.251 21.8677L43.553 24.0377H41.2688L43.1165 25.3803L42.4109 27.5504L44.2485 26.2077L46.0962 27.5504L45.3906 25.3803L47.2383 24.0377H44.9566Z" fill="white"/>
<path d="M52.1366 25.3015L51.4311 23.1416L50.7331 25.3015H48.4489L50.2965 26.6441L49.591 28.8141L51.4285 27.4715L53.2762 28.8141L52.5706 26.6441L54.4183 25.3015H52.1366Z" fill="white"/>
<path d="M58.9869 27.7942L58.2889 25.6343L57.5833 27.7942H55.2991L57.1468 29.1368L56.4412 31.3068L58.2889 29.9642L60.1264 31.3068L59.4209 29.1368L61.2686 27.7942H58.9869Z" fill="white"/>
<path d="M37.6648 24.0377L36.9669 21.8677L36.2613 24.0377H33.9771L35.8247 25.3803L35.1192 27.5504L36.9669 26.2077L38.8044 27.5504L38.0988 25.3803L39.9465 24.0377H37.6623H37.6648Z" fill="white"/>
<path d="M30.4845 25.3015L29.7866 23.1416L29.081 25.3015H26.7968L28.6445 26.6441L27.9389 28.8141L29.7866 27.4715L31.6241 28.8141L30.9185 26.6441L32.7662 25.3015H30.4845Z" fill="white"/>
<path d="M23.6344 27.7942L22.9288 25.6343L22.2308 27.7942H19.9466L21.7943 29.1368L21.0887 31.3068L22.9263 29.9642L24.774 31.3068L24.0684 29.1368L25.9161 27.7942H23.6318H23.6344Z" fill="white"/>
<path opacity="0.2" d="M68.5273 12.6904H12.6903C8.48471 12.6904 5.07611 16.099 5.07611 20.3046V22.8426C5.07611 18.6371 8.48471 15.2285 12.6903 15.2285H68.5273C72.7328 15.2285 76.1414 18.6371 76.1414 22.8426V20.3046C76.1414 16.099 72.7328 12.6904 68.5273 12.6904Z" fill="white"/>
</svg>
