<svg width="82" height="82" viewBox="0 0 82 82" fill="none" xmlns="http://www.w3.org/2000/svg">
<path d="M68.5273 10.1523H12.6902C7.08331 10.1523 2.53802 14.6976 2.53802 20.3045V60.9133C2.53802 66.5202 7.08331 71.0655 12.6902 71.0655H68.5273C74.1342 71.0655 78.6794 66.5202 78.6794 60.9133V20.3045C78.6794 14.6976 74.1342 10.1523 68.5273 10.1523Z" fill="#EA3323"/>
<path opacity="0.15" d="M68.5273 10.1523H12.6902C7.08367 10.1523 2.53802 14.698 2.53802 20.3045V60.9133C2.53802 66.5198 7.08367 71.0655 12.6902 71.0655H68.5273C74.1338 71.0655 78.6794 66.5198 78.6794 60.9133V20.3045C78.6794 14.698 74.1338 10.1523 68.5273 10.1523ZM76.1414 60.9133C76.1414 65.1112 72.7252 68.5274 68.5273 68.5274H12.6902C8.49228 68.5274 5.07607 65.1112 5.07607 60.9133V20.3045C5.07607 16.1066 8.49228 12.6904 12.6902 12.6904H68.5273C72.7252 12.6904 76.1414 16.1066 76.1414 20.3045V60.9133Z" fill="black"/>
<path d="M40.6088 58.3751L40.0022 52.3194C39.9819 52.1163 40.053 51.9082 40.2104 51.7762C40.3043 51.6975 40.4337 51.6366 40.6088 51.6417C40.8677 51.6468 41.0251 51.7864 41.1164 51.9234C41.1977 52.0452 41.2307 52.1925 41.2154 52.3397L40.6063 58.3751H40.6088ZM58.3752 40.6088L52.3194 40.0022C52.1163 39.9819 51.9082 40.053 51.7762 40.2103C51.6976 40.3042 51.6366 40.4337 51.6417 40.6088C51.6468 40.8677 51.7864 41.025 51.9234 41.1164C52.0453 41.1976 52.1925 41.2306 52.3397 41.2154L58.3752 40.6063V40.6088ZM58.1569 43.388L52.2712 41.8423C52.0732 41.7915 51.8575 41.8271 51.7026 41.9616C51.6113 42.0428 51.53 42.1596 51.5072 42.3347C51.4717 42.5936 51.5833 42.7687 51.7052 42.8804C51.8118 42.9793 51.9539 43.0352 52.1011 43.0428L58.1594 43.3854L58.1569 43.388ZM57.5046 46.0986L51.9336 43.6519C51.7458 43.5707 51.5275 43.5732 51.3549 43.6824C51.2509 43.7484 51.1544 43.8499 51.1037 44.0199C51.0275 44.2687 51.1113 44.4616 51.2128 44.591C51.3042 44.7052 51.4336 44.7839 51.5783 44.8144L57.5072 46.1011L57.5046 46.0986ZM56.4386 48.6747L51.3169 45.3854C51.1443 45.2763 50.9285 45.2433 50.7382 45.3245C50.624 45.3727 50.5148 45.459 50.4361 45.6164C50.3219 45.8499 50.3752 46.0529 50.4539 46.1976C50.525 46.3245 50.6417 46.4209 50.7788 46.4742L56.4336 48.6722L56.4386 48.6747ZM54.9818 51.0529L50.4387 47.0047C50.2864 46.8702 50.0757 46.8042 49.8778 46.8549C49.7585 46.8854 49.6341 46.9539 49.5351 47.0986C49.3854 47.3118 49.4057 47.5199 49.4615 47.6747C49.5123 47.8118 49.6113 47.926 49.7407 47.9996L54.9818 51.0529ZM53.1722 53.1696L49.3194 48.459C49.19 48.3016 48.9945 48.2052 48.789 48.2229C48.6671 48.2331 48.5326 48.2813 48.4133 48.4082C48.2331 48.596 48.2204 48.8042 48.2534 48.9666C48.2813 49.1113 48.3626 49.2382 48.4768 49.3321L53.1722 53.1696ZM51.0529 54.9792L47.9844 49.7255C47.8829 49.5503 47.7027 49.4234 47.4971 49.4082C47.3753 49.4006 47.2357 49.426 47.0961 49.5326C46.888 49.6899 46.8448 49.8955 46.8499 50.058C46.855 50.2052 46.9159 50.3422 47.0149 50.4539L51.0529 54.9792ZM48.6747 56.4361L46.4666 50.7661C46.393 50.5757 46.2357 50.4234 46.0352 50.3778C45.9159 50.3498 45.7738 50.3549 45.6189 50.4387C45.388 50.5605 45.3118 50.7559 45.2941 50.9184C45.2763 51.063 45.3144 51.2102 45.393 51.3346L48.6747 56.4361ZM46.0986 57.502L44.8042 51.5554C44.7611 51.3549 44.6291 51.1798 44.4387 51.1036C44.3245 51.0579 44.1849 51.0402 44.0174 51.0986C43.7712 51.1823 43.6646 51.365 43.6215 51.5224C43.5809 51.6645 43.5961 51.8143 43.6545 51.9488L46.0986 57.502ZM43.388 58.1543L43.0377 52.0782C43.0276 51.8727 42.9235 51.6798 42.7484 51.5757C42.6443 51.5123 42.5073 51.4742 42.3347 51.5046C42.0784 51.5503 41.9464 51.7128 41.8753 51.86C41.8144 51.992 41.8043 52.1442 41.8423 52.2864L43.388 58.1543ZM22.8425 40.6063L28.8983 39.9997C29.1013 39.9794 29.3094 40.0504 29.4414 40.2078C29.5201 40.3017 29.581 40.4311 29.5759 40.6063C29.5709 40.8651 29.4313 41.0225 29.2942 41.1139C29.1724 41.1951 29.0252 41.2281 28.878 41.2129L22.8425 40.6063ZM23.0608 37.8271L29.1369 38.1774C29.3424 38.1875 29.5353 38.2916 29.6394 38.4667C29.7028 38.5708 29.7409 38.7078 29.7105 38.8804C29.6648 39.1367 29.5023 39.2687 29.3551 39.3398C29.2231 39.4007 29.0709 39.4108 28.9287 39.3728L23.0608 37.8271ZM23.7131 35.1165L29.6597 36.4109C29.8602 36.454 30.0353 36.586 30.1115 36.7764C30.1572 36.8906 30.1749 37.0302 30.1165 37.1977C30.0328 37.4439 29.85 37.5505 29.6927 37.5936C29.5506 37.6342 29.4008 37.619 29.2663 37.5606L23.7131 35.1165ZM24.779 32.5404L30.449 34.7485C30.6394 34.8221 30.7917 34.9794 30.8373 35.1799C30.8653 35.2992 30.8602 35.4413 30.7764 35.5962C30.6546 35.8271 30.4592 35.9033 30.2967 35.921C30.1521 35.9388 30.0049 35.9007 29.8805 35.8221L24.779 32.5404ZM26.2359 30.1622L31.4896 33.2307C31.6648 33.3322 31.7917 33.5124 31.8069 33.718C31.8145 33.8398 31.7891 33.9794 31.6825 34.119C31.5252 34.3271 31.3196 34.3703 31.1571 34.3652C31.0099 34.3601 30.8729 34.2992 30.7612 34.2002L26.2359 30.1622ZM28.0455 28.0429L32.7561 31.8957C32.9135 32.0251 33.0099 32.2206 32.9921 32.4261C32.982 32.548 32.9338 32.6825 32.8069 32.8018C32.6191 32.982 32.4109 32.9947 32.2485 32.9617C32.1038 32.9338 31.9769 32.8525 31.883 32.7383L28.0455 28.0429ZM30.1648 26.2333L34.2129 30.7764C34.3475 30.9287 34.4135 31.1394 34.3627 31.3373C34.3322 31.4566 34.2637 31.581 34.119 31.68C33.9058 31.8297 33.6977 31.8094 33.5429 31.7536C33.4059 31.7028 33.2916 31.6038 33.218 31.4744L30.1622 26.2333H30.1648ZM32.5429 24.7765L35.8322 29.8982C35.9414 30.0708 35.9744 30.2866 35.8931 30.4769C35.8449 30.5911 35.7586 30.7003 35.6013 30.779C35.3678 30.8932 35.1647 30.8399 35.0201 30.7612C34.8931 30.6901 34.7967 30.5734 34.7434 30.4363L32.5455 24.7815L32.5429 24.7765ZM35.119 23.708L37.5657 29.279C37.6469 29.4668 37.6444 29.6851 37.5353 29.8576C37.4693 29.9617 37.3677 30.0581 37.1977 30.1089C36.949 30.185 36.7561 30.1013 36.6266 29.9998C36.5124 29.9084 36.4337 29.779 36.4033 29.6343L35.1165 23.7054L35.119 23.708ZM37.8297 23.0557L39.3753 28.9414C39.4261 29.1394 39.3906 29.3551 39.2561 29.5099C39.1748 29.6013 39.0581 29.6825 38.883 29.7054C38.6241 29.7409 38.449 29.6292 38.3373 29.5074C38.2383 29.4008 38.1825 29.2587 38.1748 29.1115L37.8322 23.0531L37.8297 23.0557ZM40.6088 22.8374L41.2154 28.8932C41.2357 29.0962 41.1647 29.3043 41.0073 29.4363C40.9134 29.515 40.784 29.5759 40.6088 29.5708C40.3499 29.5658 40.1926 29.4262 40.1012 29.2891C40.02 29.1673 39.987 29.0201 40.0022 28.8729L40.6088 22.8374ZM37.8297 58.1518L39.3753 52.2661C39.4261 52.0681 39.3906 51.8524 39.2561 51.6975C39.1748 51.6062 39.0581 51.5249 38.883 51.5021C38.6241 51.4666 38.449 51.5782 38.3373 51.7001C38.2383 51.8067 38.1825 51.9488 38.1748 52.096L37.8322 58.1543L37.8297 58.1518ZM35.119 57.4995L37.5657 51.9285C37.6469 51.7407 37.6444 51.5224 37.5353 51.3498C37.4693 51.2458 37.3677 51.1493 37.1977 51.0986C36.949 51.0224 36.7561 51.1062 36.6266 51.2077C36.5124 51.2991 36.4337 51.4285 36.4033 51.5732L35.1165 57.502L35.119 57.4995ZM32.5429 56.4335L35.8322 51.3117C35.9414 51.1392 35.9744 50.9234 35.8931 50.7331C35.8449 50.6189 35.7586 50.5097 35.6013 50.4311C35.3678 50.3168 35.1647 50.3701 35.0201 50.4488C34.8931 50.5199 34.7967 50.6366 34.7434 50.7737L32.5455 56.4285L32.5429 56.4335ZM30.1648 54.9767L34.2129 50.4336C34.3475 50.2813 34.4135 50.0706 34.3627 49.8727C34.3322 49.7534 34.2637 49.629 34.119 49.53C33.9058 49.3803 33.6977 49.4006 33.5429 49.4564C33.4059 49.5072 33.2916 49.6062 33.218 49.7356L30.1622 54.9767H30.1648ZM28.0455 53.1671L32.7561 49.3143C32.9135 49.1849 33.0099 48.9894 32.9921 48.7839C32.982 48.662 32.9338 48.5275 32.8069 48.4082C32.6191 48.228 32.4109 48.2153 32.2485 48.2483C32.1038 48.2762 31.9769 48.3575 31.883 48.4717L28.0455 53.1671ZM26.2359 51.0478L31.4896 47.9793C31.6648 47.8778 31.7917 47.6976 31.8069 47.492C31.8145 47.3702 31.7891 47.2306 31.6825 47.091C31.5252 46.8829 31.3196 46.8397 31.1571 46.8448C31.0099 46.8499 30.8729 46.9108 30.7612 47.0098L26.2359 51.0478ZM24.779 48.6696L30.449 46.4615C30.6394 46.3879 30.7917 46.2306 30.8373 46.0301C30.8653 45.9108 30.8602 45.7687 30.7764 45.6138C30.6546 45.3829 30.4592 45.3067 30.2967 45.289C30.1521 45.2712 30.0049 45.3093 29.8805 45.3879L24.779 48.6696ZM23.7131 46.0935L29.6597 44.7991C29.8602 44.756 30.0353 44.624 30.1115 44.4336C30.1572 44.3194 30.1749 44.1798 30.1165 44.0123C30.0328 43.7661 29.85 43.6595 29.6927 43.6164C29.5506 43.5758 29.4008 43.591 29.2663 43.6494L23.7131 46.0935ZM23.0608 43.3829L29.1369 43.0326C29.3424 43.0225 29.5353 42.9184 29.6394 42.7433C29.7028 42.6392 29.7409 42.5022 29.7105 42.3296C29.6648 42.0733 29.5023 41.9413 29.3551 41.8702C29.2231 41.8093 29.0709 41.7991 28.9287 41.8372L23.0608 43.3829ZM43.388 23.0557L43.0377 29.1318C43.0276 29.3373 42.9235 29.5302 42.7484 29.6343C42.6443 29.6977 42.5073 29.7358 42.3347 29.7054C42.0784 29.6597 41.9464 29.4972 41.8753 29.35C41.8144 29.2181 41.8043 29.0658 41.8423 28.9236L43.388 23.0557ZM46.0986 23.708L44.8042 29.6546C44.7611 29.8551 44.6291 30.0302 44.4387 30.1064C44.3245 30.1521 44.1849 30.1698 44.0174 30.1114C43.7712 30.0277 43.6646 29.8449 43.6215 29.6876C43.5809 29.5455 43.5961 29.3957 43.6545 29.2612L46.0986 23.708ZM48.6747 24.7739L46.4666 30.4439C46.393 30.6343 46.2357 30.7866 46.0352 30.8322C45.9159 30.8602 45.7738 30.8551 45.6189 30.7713C45.388 30.6495 45.3118 30.4541 45.2941 30.2916C45.2763 30.147 45.3144 29.9998 45.393 29.8754L48.6747 24.7739ZM51.0529 26.2308L47.9844 31.4845C47.8829 31.6597 47.7027 31.7866 47.4971 31.8018C47.3753 31.8094 47.2357 31.784 47.0961 31.6774C46.888 31.5201 46.8448 31.3145 46.8499 31.152C46.855 31.0048 46.9159 30.8678 47.0149 30.7561L51.0529 26.2308ZM53.1722 28.0404L49.3194 32.751C49.19 32.9084 48.9945 33.0048 48.789 32.9871C48.6671 32.9769 48.5326 32.9287 48.4133 32.8018C48.2331 32.614 48.2204 32.4058 48.2534 32.2434C48.2813 32.0987 48.3626 31.9718 48.4768 31.8779L53.1722 28.0404ZM54.9818 30.1597L50.4387 34.2079C50.2864 34.3424 50.0757 34.4084 49.8778 34.3576C49.7585 34.3271 49.6341 34.2586 49.5351 34.1139C49.3854 33.9007 49.4057 33.6926 49.4615 33.5378C49.5123 33.4008 49.6113 33.2865 49.7407 33.2129L54.9818 30.1571V30.1597ZM56.4386 32.5378L51.3169 35.8271C51.1443 35.9363 50.9285 35.9693 50.7382 35.888C50.624 35.8398 50.5148 35.7535 50.4361 35.5962C50.3219 35.3627 50.3752 35.1596 50.4539 35.015C50.525 34.888 50.6417 34.7916 50.7788 34.7383L56.4336 32.5404L56.4386 32.5378ZM57.5046 35.1139L51.9336 37.5606C51.7458 37.6418 51.5275 37.6393 51.3549 37.5302C51.2509 37.4642 51.1544 37.3626 51.1037 37.1926C51.0275 36.9439 51.1113 36.751 51.2128 36.6215C51.3042 36.5073 51.4336 36.4286 51.5783 36.3982L57.5072 35.1114L57.5046 35.1139ZM58.1569 37.8246L52.2712 39.3702C52.0732 39.421 51.8575 39.3855 51.7026 39.251C51.6113 39.1697 51.53 39.053 51.5072 38.8779C51.4717 38.619 51.5833 38.4439 51.7052 38.3322C51.8118 38.2332 51.9539 38.1774 52.1011 38.1697L58.1594 37.8271L58.1569 37.8246Z" fill="#FFFF55"/>
<path d="M40.6088 51.3497C46.5409 51.3497 51.3498 46.5408 51.3498 40.6087C51.3498 34.6766 46.5409 29.8677 40.6088 29.8677C34.6767 29.8677 29.8677 34.6766 29.8677 40.6087C29.8677 46.5408 34.6767 51.3497 40.6088 51.3497Z" fill="#FFFF55"/>
<path d="M40.6087 49.7863C35.5478 49.7863 31.4311 45.6696 31.4311 40.6087C31.4311 35.5479 35.5478 31.4312 40.6087 31.4312C45.6696 31.4312 49.7863 35.5479 49.7863 40.6087C49.7863 45.6696 45.6696 49.7863 40.6087 49.7863ZM40.6087 32.1646C35.9539 32.1646 32.1646 35.954 32.1646 40.6087C32.1646 45.2635 35.9539 49.0528 40.6087 49.0528C45.2635 49.0528 49.0528 45.2635 49.0528 40.6087C49.0528 35.954 45.2635 32.1646 40.6087 32.1646Z" fill="#EA3323"/>
<path opacity="0.2" d="M68.5273 12.6904H12.6903C8.48471 12.6904 5.07611 16.099 5.07611 20.3046V22.8426C5.07611 18.6371 8.48471 15.2285 12.6903 15.2285H68.5273C72.7328 15.2285 76.1414 18.6371 76.1414 22.8426V20.3046C76.1414 16.099 72.7328 12.6904 68.5273 12.6904Z" fill="white"/>
</svg>
