<svg width="82" height="82" viewBox="0 0 82 82" fill="none" xmlns="http://www.w3.org/2000/svg">
<path d="M78.6796 27.9185H2.53815V53.2989H78.6796V27.9185Z" fill="white"/>
<path d="M12.6903 10.1523H68.5274C74.1306 10.1523 78.6796 14.7013 78.6796 20.3045V30.4567H2.53815V20.3045C2.53815 14.7013 7.08709 10.1523 12.6903 10.1523Z" fill="#ED1B1E"/>
<path d="M68.5274 71.0654L12.6903 71.0654C7.08709 71.0654 2.53815 66.5165 2.53815 60.9132V50.7611L78.6796 50.7611V60.9132C78.6796 66.5165 74.1306 71.0654 68.5274 71.0654Z" fill="#248F41"/>
<path opacity="0.15" d="M68.5274 10.1523H12.6903C7.08354 10.1523 2.53815 14.6975 2.53815 20.3045V60.9133C2.53815 66.5203 7.08354 71.0655 12.6903 71.0655H68.5274C74.1344 71.0655 78.6796 66.5203 78.6796 60.9133V20.3045C78.6796 14.6975 74.1344 10.1523 68.5274 10.1523ZM76.1415 60.9133C76.1415 65.112 72.7261 68.5274 68.5274 68.5274H12.6903C8.49164 68.5274 5.07619 65.112 5.07619 60.9133V20.3045C5.07619 16.1058 8.49164 12.6904 12.6903 12.6904H68.5274C72.7261 12.6904 76.1415 16.1058 76.1415 20.3045V60.9133Z" fill="black"/>
<path opacity="0.2" d="M68.5273 12.6904H12.6903C8.48496 12.6904 5.07611 16.0993 5.07611 20.3046V22.8426C5.07611 18.6373 8.48496 15.2285 12.6903 15.2285H68.5273C72.7326 15.2285 76.1414 18.6373 76.1414 22.8426V20.3046C76.1414 16.0993 72.7326 12.6904 68.5273 12.6904Z" fill="white"/>
<path d="M40.6089 23.7358L41.8733 32.3144L45.6103 24.4894L44.29 33.0599L50.1674 26.684L46.3796 34.4845L53.875 30.1244L47.9562 36.4616L56.4039 34.5045L48.8801 38.8159L57.5293 39.4357L49.0692 41.3377L57.1513 44.4793L48.5065 43.8032L55.3036 49.1876L47.242 45.9932L52.1501 53.1419L45.3883 47.7133L47.9712 55.9911L43.1098 48.8107L43.138 57.482L40.6091 49.1876L38.0802 57.482L38.1084 48.8107L33.247 55.9911L35.83 47.7133L29.0681 53.1419L33.9762 45.9932L25.9146 49.1876L32.7117 43.8032L24.0669 44.4793L32.149 41.3375L23.689 39.4354L32.3381 38.8156L24.8143 34.5043L33.262 36.4614L27.3432 30.1241L34.8386 34.4842L31.0508 26.684L36.9282 33.0599L35.6079 24.4894L39.3449 32.3144L40.6089 23.7358Z" fill="#F3BF45"/>
</svg>
