<svg width="82" height="82" viewBox="0 0 82 82" fill="none" xmlns="http://www.w3.org/2000/svg">
<path d="M2.53833 25.3804H78.6797V55.8369H2.53833V25.3804Z" fill="#0B2364"/>
<path d="M12.6905 10.1523H68.5276C74.1316 10.1523 78.6797 14.7005 78.6797 20.3045V27.9187H2.53833V20.3045C2.53833 14.7005 7.08651 10.1523 12.6905 10.1523Z" fill="#BE2A2C"/>
<path d="M68.5275 71.0654L12.6904 71.0654C7.08642 71.0654 2.53824 66.5172 2.53824 60.9132V53.2991L78.6797 53.2991V60.9132C78.6797 66.5172 74.1315 71.0654 68.5275 71.0654Z" fill="#BE2A2C"/>
<path opacity="0.15" d="M68.5276 10.1523H12.6905C7.08397 10.1523 2.53833 14.698 2.53833 20.3045V60.9133C2.53833 66.5198 7.08397 71.0655 12.6905 71.0655H68.5276C74.1341 71.0655 78.6797 66.5198 78.6797 60.9133V20.3045C78.6797 14.698 74.1341 10.1523 68.5276 10.1523ZM76.1417 60.9133C76.1417 65.1112 72.7255 68.5274 68.5276 68.5274H12.6905C8.49259 68.5274 5.07638 65.1112 5.07638 60.9133V20.3045C5.07638 16.1066 8.49259 12.6904 12.6905 12.6904H68.5276C72.7255 12.6904 76.1417 16.1066 76.1417 20.3045V60.9133Z" fill="black"/>
<path d="M40.609 50.7609C46.2159 50.7609 50.7612 46.2156 50.7612 40.6087C50.7612 35.0018 46.2159 30.4565 40.609 30.4565C35.0021 30.4565 30.4568 35.0018 30.4568 40.6087C30.4568 46.2156 35.0021 50.7609 40.609 50.7609Z" fill="white"/>
<path opacity="0.2" d="M68.5276 12.6904H12.6905C8.48498 12.6904 5.07639 16.099 5.07639 20.3046V22.8426C5.07639 18.6371 8.48498 15.2285 12.6905 15.2285H68.5276C72.7331 15.2285 76.1417 18.6371 76.1417 22.8426V20.3046C76.1417 16.099 72.7331 12.6904 68.5276 12.6904Z" fill="white"/>
</svg>
