<svg width="82" height="82" viewBox="0 0 82 82" fill="none" xmlns="http://www.w3.org/2000/svg">
<path d="M2.53802 30.4565H78.6794V50.7609H2.53802V30.4565Z" fill="white"/>
<path d="M12.6902 10.1523H68.5273C74.1313 10.1523 78.6794 14.7005 78.6794 20.3045V32.9948H2.53802V20.3045C2.53802 14.7005 7.08621 10.1523 12.6902 10.1523Z" fill="#922A35"/>
<path d="M68.5272 71.0654L12.6901 71.0654C7.08611 71.0654 2.53793 66.5172 2.53793 60.9132V48.223L78.6794 48.223V60.9132C78.6794 66.5172 74.1312 71.0654 68.5272 71.0654Z" fill="#922A35"/>
<path opacity="0.15" d="M68.5273 10.1523H12.6902C7.08367 10.1523 2.53802 14.698 2.53802 20.3045V60.9133C2.53802 66.5198 7.08367 71.0655 12.6902 71.0655H68.5273C74.1338 71.0655 78.6794 66.5198 78.6794 60.9133V20.3045C78.6794 14.698 74.1338 10.1523 68.5273 10.1523ZM76.1414 60.9133C76.1414 65.1112 72.7252 68.5274 68.5273 68.5274H12.6902C8.49228 68.5274 5.07607 65.1112 5.07607 60.9133V20.3045C5.07607 16.1066 8.49228 12.6904 12.6902 12.6904H68.5273C72.7252 12.6904 76.1414 16.1066 76.1414 20.3045V60.9133Z" fill="black"/>
<path opacity="0.2" d="M68.5273 12.6904H12.6902C8.48468 12.6904 5.07608 16.099 5.07608 20.3046V22.8426C5.07608 18.6371 8.48468 15.2285 12.6902 15.2285H68.5273C72.7328 15.2285 76.1414 18.6371 76.1414 22.8426V20.3046C76.1414 16.099 72.7328 12.6904 68.5273 12.6904Z" fill="white"/>
</svg>
