<svg width="82" height="82" viewBox="0 0 82 82" fill="none" xmlns="http://www.w3.org/2000/svg">
<path d="M2.53809 27.9185H78.6795V53.2989H2.53809V27.9185Z" fill="white"/>
<path d="M12.6903 10.1523H68.5273C74.1313 10.1523 78.6795 14.7005 78.6795 20.3045V30.4567H2.53809V20.3045C2.53809 14.7005 7.08627 10.1523 12.6903 10.1523Z" fill="#030A85"/>
<path d="M68.5273 71.0654L12.6902 71.0654C7.0862 71.0654 2.53802 66.5172 2.53802 60.9132V50.7611L78.6794 50.7611V60.9132C78.6794 66.5172 74.1313 71.0654 68.5273 71.0654Z" fill="#45994D"/>
<path opacity="0.15" d="M68.5273 10.1523H12.6903C7.08373 10.1523 2.53809 14.698 2.53809 20.3045V60.9133C2.53809 66.5198 7.08373 71.0655 12.6903 71.0655H68.5273C74.1339 71.0655 78.6795 66.5198 78.6795 60.9133V20.3045C78.6795 14.698 74.1339 10.1523 68.5273 10.1523ZM76.1415 60.9133C76.1415 65.1112 72.7252 68.5274 68.5273 68.5274H12.6903C8.49234 68.5274 5.07613 65.1112 5.07613 60.9133V20.3045C5.07613 16.1066 8.49234 12.6904 12.6903 12.6904H68.5273C72.7252 12.6904 76.1415 16.1066 76.1415 20.3045V60.9133Z" fill="black"/>
<path d="M40.6087 31.6367C40.8651 31.6367 41.0986 31.7788 41.2153 32.0073C42.662 32.1799 43.4209 33.2255 43.6848 34.4438C43.9945 35.8676 43.6671 37.8016 42.662 39.8321L46.5198 44.9488C46.7254 44.8523 46.9259 44.7533 47.1264 44.6467L48.5452 47.6467C43.5681 50.2228 37.6494 50.2228 32.6722 47.6467L34.091 44.6467C34.2915 44.7533 34.492 44.8523 34.6976 44.9488L38.5554 39.8321C37.5504 37.8016 37.223 35.8651 37.5326 34.4438C37.7966 33.2255 38.558 32.1799 40.0021 32.0073C40.1189 31.7788 40.3549 31.6367 40.6087 31.6367ZM42.1366 39.1316C42.9183 37.3854 43.1721 35.7306 42.926 34.6367C42.7077 33.6672 42.2178 32.9489 41.2432 32.7966V35.2966L42.4615 36.5148H41.4869V38.2712L42.1366 39.1316ZM39.9742 32.7941C38.9996 32.9463 38.5097 33.6672 38.2915 34.6342C38.0453 35.7281 38.2991 37.3829 39.0808 39.129L39.7306 38.2661V36.5098H38.7559L39.9742 35.2915V32.7941Z" fill="black"/>
<path opacity="0.2" d="M68.5274 12.6904H12.6903C8.48477 12.6904 5.07617 16.099 5.07617 20.3046V22.8426C5.07617 18.6371 8.48477 15.2285 12.6903 15.2285H68.5274C72.7329 15.2285 76.1415 18.6371 76.1415 22.8426V20.3046C76.1415 16.099 72.7329 12.6904 68.5274 12.6904Z" fill="white"/>
</svg>
