<svg width="82" height="82" viewBox="0 0 82 82" fill="none" xmlns="http://www.w3.org/2000/svg">
<path d="M68.5273 10.1523H12.6903C7.08338 10.1523 2.53809 14.6976 2.53809 20.3045V60.9133C2.53809 66.5202 7.08338 71.0655 12.6903 71.0655H68.5273C74.1342 71.0655 78.6795 66.5202 78.6795 60.9133V20.3045C78.6795 14.6976 74.1342 10.1523 68.5273 10.1523Z" fill="white"/>
<path d="M3.69543 15.6904H77.5222C75.8369 12.4163 72.4638 10.1523 68.5273 10.1523H12.6903C8.75376 10.1523 5.3807 12.4163 3.69543 15.6904Z" fill="#B12532"/>
<path d="M2.53809 21.2285H78.6795V26.7665H2.53809V21.2285Z" fill="#B12532"/>
<path d="M2.53809 32.3018H78.6795V37.8398H2.53809V32.3018Z" fill="#B12532"/>
<path d="M2.53809 43.3779H78.6795V48.916H2.53809V43.3779Z" fill="#B12532"/>
<path d="M2.53809 54.4512H78.6795V59.9892H2.53809V54.4512Z" fill="#B12532"/>
<path d="M77.5222 65.5273H3.69543C5.3807 68.8014 8.75376 71.0654 12.6903 71.0654H68.5273C72.4638 71.0654 75.8369 68.8014 77.5222 65.5273Z" fill="#B12532"/>
<path d="M12.6903 10.1523H30.2256V37.8399H2.53809V20.3045C2.53809 14.7005 7.08627 10.1523 12.6903 10.1523Z" fill="#0B2364"/>
<path opacity="0.15" d="M68.5273 10.1523H12.6903C7.08373 10.1523 2.53809 14.698 2.53809 20.3045V60.9133C2.53809 66.5198 7.08373 71.0655 12.6903 71.0655H68.5273C74.1339 71.0655 78.6795 66.5198 78.6795 60.9133V20.3045C78.6795 14.698 74.1339 10.1523 68.5273 10.1523ZM76.1415 60.9133C76.1415 65.1112 72.7252 68.5274 68.5273 68.5274H12.6903C8.49234 68.5274 5.07613 65.1112 5.07613 60.9133V20.3045C5.07613 16.1066 8.49234 12.6904 12.6903 12.6904H68.5273C72.7252 12.6904 76.1415 16.1066 76.1415 20.3045V60.9133Z" fill="black"/>
<path d="M18.9212 25.4895L23.0303 22.5047H17.9516L16.3831 17.6748L14.8121 22.5047H9.73596L13.8425 25.4895L12.274 30.3168L16.3831 27.3321L20.4897 30.3168L18.9212 25.4895Z" fill="white"/>
<path opacity="0.2" d="M68.5274 12.6904H12.6903C8.48477 12.6904 5.07617 16.099 5.07617 20.3046V22.8426C5.07617 18.6371 8.48477 15.2285 12.6903 15.2285H68.5274C72.7329 15.2285 76.1415 18.6371 76.1415 22.8426V20.3046C76.1415 16.099 72.7329 12.6904 68.5274 12.6904Z" fill="white"/>
</svg>
