<svg width="82" height="82" viewBox="0 0 82 82" fill="none" xmlns="http://www.w3.org/2000/svg">
<path d="M2.53802 25.3804H78.6794V55.8369H2.53802V25.3804Z" fill="black"/>
<path d="M12.6902 10.1523H68.5273C74.1313 10.1523 78.6794 14.7005 78.6794 20.3045V27.9187H2.53802V20.3045C2.53802 14.7005 7.08621 10.1523 12.6902 10.1523Z" fill="#D52E23"/>
<path d="M68.5273 71.0654L12.6902 71.0654C7.0862 71.0654 2.53802 66.5172 2.53802 60.9132V53.2991L78.6794 53.2991V60.9132C78.6794 66.5172 74.1313 71.0654 68.5273 71.0654Z" fill="#4C9D4F"/>
<path opacity="0.15" d="M68.5273 10.1523H12.6902C7.08367 10.1523 2.53802 14.698 2.53802 20.3045V60.9133C2.53802 66.5198 7.08367 71.0655 12.6902 71.0655H68.5273C74.1338 71.0655 78.6794 66.5198 78.6794 60.9133V20.3045C78.6794 14.698 74.1338 10.1523 68.5273 10.1523ZM76.1414 60.9133C76.1414 65.1112 72.7252 68.5274 68.5273 68.5274H12.6902C8.49228 68.5274 5.07607 65.1112 5.07607 60.9133V20.3045C5.07607 16.1066 8.49228 12.6904 12.6902 12.6904H68.5273C72.7252 12.6904 76.1414 16.1066 76.1414 20.3045V60.9133Z" fill="black"/>
<path d="M34.7713 40.6089C34.7713 36.3323 38.2383 32.8654 42.5149 32.8654C44.1951 32.8654 45.7509 33.4034 47.0199 34.312C45.4057 32.6953 43.1773 31.6953 40.7129 31.6953C35.7916 31.6953 31.8018 35.6851 31.8018 40.6064C31.8018 45.5277 35.7916 49.5175 40.7129 49.5175C43.1773 49.5175 45.4083 48.5175 47.0199 46.9008C45.7509 47.8119 44.1951 48.3474 42.5149 48.3474C38.2383 48.3474 34.7713 44.8805 34.7713 40.6039V40.6089Z" fill="white"/>
<path d="M54.2024 40.6086L57.0324 36.7127L52.4537 38.2025L49.6238 34.3066V39.1213L45.0452 40.6086L49.6238 42.0959V46.9106L52.4537 43.0147L57.0324 44.5045L54.2024 40.6086Z" fill="white"/>
<path opacity="0.2" d="M68.5272 12.6904H12.6902C8.48465 12.6904 5.07605 16.099 5.07605 20.3046V22.8426C5.07605 18.6371 8.48465 15.2285 12.6902 15.2285H68.5272C72.7328 15.2285 76.1414 18.6371 76.1414 22.8426V20.3046C76.1414 16.099 72.7328 12.6904 68.5272 12.6904Z" fill="white"/>
</svg>
