<svg width="82" height="82" viewBox="0 0 82 82" fill="none" xmlns="http://www.w3.org/2000/svg">
<path d="M78.6796 20.3045C78.6796 14.698 74.1339 10.1523 68.5274 10.1523H12.6903C7.08379 10.1523 2.53815 14.698 2.53815 20.3045V43.147H78.6796V20.3045Z" fill="#0C267B"/>
<path d="M12.6903 71.0655H68.5274C74.1339 71.0655 78.6796 66.5198 78.6796 60.9133V40.6089H2.53815V60.9133C2.53815 66.5198 7.08379 71.0655 12.6903 71.0655Z" fill="#BE2A2C"/>
<path opacity="0.15" d="M12.6903 71.0655H68.5274C74.1339 71.0655 78.6796 66.5198 78.6796 60.9133V20.3045C78.6796 14.698 74.1339 10.1523 68.5274 10.1523H12.6903C7.08379 10.1523 2.53815 14.698 2.53815 20.3045V60.9133C2.53815 66.5198 7.08379 71.0655 12.6903 71.0655ZM5.07619 20.3045C5.07619 16.1066 8.49241 12.6904 12.6903 12.6904H68.5274C72.7253 12.6904 76.1415 16.1066 76.1415 20.3045V60.9133C76.1415 65.1112 72.7253 68.5274 68.5274 68.5274H12.6903C8.49241 68.5274 5.07619 65.1112 5.07619 60.9133V20.3045Z" fill="black"/>
<path d="M32.1699 28.1877C31.9085 27.9796 31.6242 27.8298 31.3349 27.7384C31.779 27.6623 31.8907 27.0075 31.4948 26.7892C32.0049 26.7258 32.0785 25.9542 31.5938 25.7918C32.1115 25.6293 32.0049 24.8045 31.4567 24.7867C31.9161 24.4821 31.5684 23.708 31.0303 23.8628C31.3577 23.4212 30.7816 22.8197 30.3273 23.1294C30.4872 22.604 29.7435 22.236 29.4212 22.6725C29.4313 22.1268 28.6293 21.9745 28.4288 22.4695C28.2918 21.9695 27.5075 22.0101 27.4263 22.5228C27.2461 22.0355 26.4618 22.1471 26.4314 22.67C26.2232 22.1649 25.4009 22.3502 25.4415 22.906C25.2334 22.4314 24.4593 22.5837 24.4568 23.1116C24.3654 22.9517 24.1903 22.84 23.9923 22.8476C24.3908 22.3781 24.1928 21.5685 23.637 21.3299C23.9009 21.1294 23.4695 20.6319 23.3959 20.4365C23.472 20.3984 23.5355 20.3375 23.5761 20.2639C24.0304 20.7487 24.5304 20.4238 24.8984 20.0431C24.5481 19.6598 23.9999 19.3451 23.5684 19.8274C23.5253 19.7563 23.4619 19.7005 23.3882 19.6649C23.3984 19.6116 23.7994 18.9822 23.7334 18.9365C23.6522 18.8959 23.2969 17.835 23.1294 18.0939C22.774 18.6421 22.5405 19.0964 23.0253 19.6649C22.9492 19.7005 22.8883 19.7563 22.8451 19.8274C22.4136 19.3451 21.8629 19.6573 21.5152 20.0431C21.8832 20.4263 22.3832 20.7487 22.8375 20.2639C22.8806 20.3375 22.9416 20.3984 23.0177 20.4365C22.9441 20.6345 22.5126 21.1294 22.7766 21.3299C22.2182 21.5685 22.0202 22.3781 22.4213 22.8476C22.2233 22.84 22.0482 22.9517 21.9568 23.1116C21.9568 22.5837 21.1827 22.4314 20.972 22.906C21.0126 22.3502 20.1903 22.1649 19.9822 22.67C19.9492 22.1446 19.1675 22.0355 18.9873 22.5228C18.9061 22.0101 18.1193 21.9695 17.9847 22.4695C17.7842 21.9745 16.9822 22.1294 16.9924 22.6725C16.67 22.2385 15.9264 22.604 16.0863 23.1294C15.632 22.8197 15.0558 23.4212 15.3832 23.8628C14.8452 23.708 14.4975 24.4821 14.9569 24.7867C14.4086 24.807 14.302 25.6293 14.8198 25.7918C14.335 25.9542 14.4086 26.7232 14.9188 26.7892C14.5254 27.0075 14.6345 27.6623 15.0787 27.7384C13.368 27.812 16.1751 31.6394 16.604 32.713C17 33.9973 29.4212 33.9973 29.8146 32.713C30.6674 31.614 31.345 29.1293 32.175 28.1877H32.1699Z" fill="#F9DB5C"/>
<path opacity="0.2" d="M68.5273 12.6904H12.6903C8.48471 12.6904 5.07611 16.099 5.07611 20.3046V22.8426C5.07611 18.6371 8.48471 15.2285 12.6903 15.2285H68.5273C72.7328 15.2285 76.1414 18.6371 76.1414 22.8426V20.3046C76.1414 16.099 72.7328 12.6904 68.5273 12.6904Z" fill="white"/>
</svg>
