<svg width="82" height="82" viewBox="0 0 82 82" fill="none" xmlns="http://www.w3.org/2000/svg">
<path d="M68.5273 10.1523H12.6902C7.08331 10.1523 2.53802 14.6976 2.53802 20.3045V60.9133C2.53802 66.5202 7.08331 71.0655 12.6902 71.0655H68.5273C74.1342 71.0655 78.6794 66.5202 78.6794 60.9133V20.3045C78.6794 14.6976 74.1342 10.1523 68.5273 10.1523Z" fill="#0A7662"/>
<path opacity="0.15" d="M68.5273 10.1523H12.6902C7.08341 10.1523 2.53802 14.6975 2.53802 20.3045V60.9133C2.53802 66.5203 7.08341 71.0655 12.6902 71.0655H68.5273C74.1343 71.0655 78.6794 66.5203 78.6794 60.9133V20.3045C78.6794 14.6975 74.1343 10.1523 68.5273 10.1523ZM76.1414 60.9133C76.1414 65.112 72.7259 68.5274 68.5273 68.5274H12.6902C8.49152 68.5274 5.07607 65.112 5.07607 60.9133V20.3045C5.07607 16.1058 8.49152 12.6904 12.6902 12.6904H68.5273C72.7259 12.6904 76.1414 16.1058 76.1414 20.3045V60.9133Z" fill="black"/>
<path opacity="0.2" d="M68.5273 12.6904H12.6903C8.48496 12.6904 5.07611 16.0993 5.07611 20.3046V22.8426C5.07611 18.6373 8.48496 15.2285 12.6903 15.2285H68.5273C72.7326 15.2285 76.1414 18.6373 76.1414 22.8426V20.3046C76.1414 16.0993 72.7326 12.6904 68.5273 12.6904Z" fill="white"/>
<path d="M32.3641 29.9848L32.9684 28.2303L31.4481 29.2947L29.9661 28.1777L30.5088 29.9526L28.9885 31.0168L30.844 31.0493L31.3867 32.8239L31.9907 31.0693L33.8463 31.1018L32.3641 29.9848Z" fill="#FFDF1E"/>
<path d="M26.8053 35.8623L26.451 34.0405L25.6667 35.7225L23.8249 35.4964L25.1822 36.7621L24.3977 38.4438L26.021 37.5443L27.3781 38.8098L27.0241 36.9882L28.6471 36.0885L26.8053 35.8623Z" fill="#FFDF1E"/>
<path d="M50.5968 29.9526L51.1394 28.1777L49.6572 29.2947L48.1372 28.2303L48.7412 29.9848L47.2593 31.1018L49.1148 31.0693L49.7189 32.8239L50.2615 31.0493L52.1171 31.0168L50.5968 29.9526Z" fill="#FFDF1E"/>
<path d="M55.9234 36.7621L57.2807 35.4964L55.4386 35.7225L54.6544 34.0405L54.3003 35.8623L52.4584 36.0885L54.0815 36.9882L53.7275 38.8098L55.0846 37.5443L56.7076 38.4438L55.9234 36.7621Z" fill="#FFDF1E"/>
<path d="M41.3818 26.2534L40.5529 23.7026L39.7242 26.2534H37.0423L39.212 27.8298L38.3831 30.3805L40.5529 28.8041L42.7227 30.3805L41.894 27.8298L44.0638 26.2534H41.3818Z" fill="#FFDF1E"/>
<path d="M46.0401 52.1701C51.2289 53.0778 55.0672 50.7443 57.635 45.3616C53.3391 43.6735 49.1289 43.9761 45.0178 46.5687C47.3769 44.3867 50.1911 43.1568 53.6533 43.2832L54.5489 42.0515C51.1698 41.7487 47.8906 42.8329 44.7343 45.6332C47.0703 41.0236 46.7691 37.1947 44.9107 33.8264L43.8569 35.6447C45.6952 39.5162 45.1104 43.0845 43.0564 46.4687H42.9787C45.6104 41.2862 44.7871 36.6429 40.5529 32.5312C36.3189 36.6426 35.4956 41.2862 38.127 46.4687H38.0493C35.9953 43.0842 35.4105 39.516 37.2488 35.6447L36.195 33.8264C34.3598 37.1525 34.0441 40.9286 36.2862 45.4613C33.1908 42.7893 29.9776 41.755 26.6687 42.0515L27.5644 43.2832C31.0304 43.1565 33.8468 44.3893 36.2077 46.5758C32.0938 43.9786 27.8814 43.6725 23.5827 45.3616C26.1502 50.7443 29.9885 53.0778 35.1775 52.1701C32.5207 53.3161 29.3644 52.9448 25.2134 49.5534L23.8698 49.8892C29.5692 55.1414 35.1354 54.6897 40.609 50.2811C46.0825 54.6897 51.6487 55.1414 57.3482 49.8892L56.0045 49.5534C51.8535 52.9448 48.697 53.3161 46.0401 52.1701ZM43.7193 46.5976V46.5824L43.7544 46.5626C43.7427 46.5745 43.731 46.5857 43.7193 46.5976Z" fill="white"/>
</svg>
