<svg width="82" height="82" viewBox="0 0 82 82" fill="none" xmlns="http://www.w3.org/2000/svg">
<path d="M68.5273 10.1523H12.6903C7.08338 10.1523 2.53809 14.6976 2.53809 20.3045V60.9133C2.53809 66.5202 7.08338 71.0655 12.6903 71.0655H68.5273C74.1342 71.0655 78.6795 66.5202 78.6795 60.9133V20.3045C78.6795 14.6976 74.1342 10.1523 68.5273 10.1523Z" fill="white"/>
<path d="M4.15735 14.8401H77.0602C75.2557 12.028 72.1161 10.1523 68.5273 10.1523H12.6903C9.09893 10.1523 5.9619 12.028 4.15735 14.8401Z" fill="#BC271A"/>
<path d="M2.61677 19.5229C2.59646 19.7844 2.53809 20.0356 2.53809 20.3047V24.2107H78.6795V20.3047C78.6795 20.0382 78.6211 19.7869 78.6008 19.5229H2.61677Z" fill="#BC271A"/>
<path d="M2.53809 28.8931H78.6795V33.5808H2.53809V28.8931Z" fill="#BC271A"/>
<path d="M2.53809 38.2661H78.6795V42.9539H2.53809V38.2661Z" fill="#BC271A"/>
<path d="M2.53809 47.6367H78.6795V52.3245H2.53809V47.6367Z" fill="#BC271A"/>
<path d="M2.53809 60.9129C2.53809 61.1794 2.59646 61.4307 2.61677 61.6946H78.6008C78.6211 61.4332 78.6795 61.1819 78.6795 60.9129V57.0068H2.53809V60.9129Z" fill="#BC271A"/>
<path d="M77.0602 66.3774H4.15735C5.9619 69.1896 9.10146 71.0652 12.6903 71.0652H68.5273C72.1186 71.0652 75.2557 69.1896 77.0602 66.3774Z" fill="#BC271A"/>
<path d="M40.6088 10.1523H12.6903C7.08373 10.1523 2.53809 14.698 2.53809 20.3045V47.6368H40.6088V10.1523Z" fill="#010062"/>
<path opacity="0.15" d="M68.5273 10.1523H12.6903C7.08373 10.1523 2.53809 14.698 2.53809 20.3045V60.9133C2.53809 66.5198 7.08373 71.0655 12.6903 71.0655H68.5273C74.1339 71.0655 78.6795 66.5198 78.6795 60.9133V20.3045C78.6795 14.698 74.1339 10.1523 68.5273 10.1523ZM76.1415 60.9133C76.1415 65.1112 72.7252 68.5274 68.5273 68.5274H12.6903C8.49234 68.5274 5.07613 65.1112 5.07613 60.9133V20.3045C5.07613 16.1066 8.49234 12.6904 12.6903 12.6904H68.5273C72.7252 12.6904 76.1415 16.1066 76.1415 20.3045V60.9133Z" fill="black"/>
<path opacity="0.2" d="M68.5274 12.6904H12.6903C8.48477 12.6904 5.07617 16.099 5.07617 20.3046V22.8426C5.07617 18.6371 8.48477 15.2285 12.6903 15.2285H68.5274C72.7329 15.2285 76.1415 18.6371 76.1415 22.8426V20.3046C76.1415 16.099 72.7329 12.6904 68.5274 12.6904Z" fill="white"/>
<path d="M29.5402 20.5786L30.2813 25.6496L33.1493 21.4009L31.6113 26.2943L36.0402 23.7106L32.5326 27.4516L37.6467 27.043L32.8651 28.8933L37.6467 30.7435L32.5326 30.3349L36.0402 34.0785L31.6113 31.4922L33.1493 36.3856L30.2813 32.1369L29.5402 37.2104L28.7966 32.1369L25.9286 36.3856L27.4666 31.4922L23.0377 34.0785L26.5453 30.3349L21.4312 30.7435L26.2128 28.8933L21.4312 27.043L26.5453 27.4516L23.0377 23.7106L27.4666 26.2943L25.9286 21.4009L28.7966 25.6496L29.5402 20.5786Z" fill="#F6CD46"/>
<path d="M25.3804 20.7839C20.9033 18.7966 15.6623 20.8169 13.675 25.294C11.6877 29.7711 13.708 35.0122 18.1851 36.9995C20.4769 38.0147 23.0886 38.0147 25.3804 36.9995C20.9033 40.2126 14.6673 39.1872 11.4542 34.7076C8.241 30.2279 9.26637 23.9945 13.746 20.7813C17.2232 18.2864 21.9033 18.2864 25.3804 20.7813V20.7839Z" fill="#F6CD46"/>
</svg>
