<svg width="82" height="82" viewBox="0 0 82 82" fill="none" xmlns="http://www.w3.org/2000/svg">
<path d="M68.5273 71.0654H38.0707L38.0707 10.1523L68.5273 10.1523C74.1313 10.1523 78.6794 14.7005 78.6794 20.3045V60.9132C78.6794 66.5172 74.1313 71.0654 68.5273 71.0654Z" fill="#BF2C30"/>
<path d="M12.6902 10.1523H40.6087V71.0655H12.6902C7.08621 71.0655 2.53802 66.5173 2.53802 60.9133V20.3045C2.53802 14.7005 7.08621 10.1523 12.6902 10.1523Z" fill="white"/>
<path opacity="0.15" d="M68.5273 10.1523H12.6902C7.08367 10.1523 2.53802 14.698 2.53802 20.3045V60.9133C2.53802 66.5198 7.08367 71.0655 12.6902 71.0655H68.5273C74.1338 71.0655 78.6794 66.5198 78.6794 60.9133V20.3045C78.6794 14.698 74.1338 10.1523 68.5273 10.1523ZM76.1414 60.9133C76.1414 65.1112 72.7252 68.5274 68.5273 68.5274H12.6902C8.49228 68.5274 5.07607 65.1112 5.07607 60.9133V20.3045C5.07607 16.1066 8.49228 12.6904 12.6902 12.6904H68.5273C72.7252 12.6904 76.1414 16.1066 76.1414 20.3045V60.9133Z" fill="black"/>
<path opacity="0.2" d="M68.5272 12.6904H12.6902C8.48465 12.6904 5.07605 16.099 5.07605 20.3046V22.8426C5.07605 18.6371 8.48465 15.2285 12.6902 15.2285H68.5272C72.7328 15.2285 76.1414 18.6371 76.1414 22.8426V20.3046C76.1414 16.099 72.7328 12.6904 68.5272 12.6904Z" fill="white"/>
<path d="M21.2359 23.0152C21.2333 22.9923 21.2283 22.9695 21.2257 22.9492C21.1064 22.3375 20.5811 21.8553 19.9871 21.769V17.769H15.2638V21.769C15.241 21.7715 15.2182 21.7766 15.1979 21.7792C14.5862 21.8984 14.104 22.4238 14.0177 23.0177H10.0177V27.741H14.0177C14.0202 27.7639 14.0253 27.7867 14.0278 27.807C14.1471 28.4187 14.6725 28.9009 15.2664 28.9872V32.9872H19.9897V28.9872C20.0125 28.9847 20.0354 28.9796 20.0557 28.9771C20.6673 28.8578 21.1496 28.3324 21.2359 27.7385H25.2358V23.0152H21.2359Z" fill="white"/>
<path d="M20.6216 33.6215H14.6292V29.4566C14.1521 29.2409 13.7612 28.8525 13.5455 28.3728H9.38055V22.3805H13.548C13.7612 21.9034 14.1495 21.5125 14.6292 21.2968V17.1318H20.6216V21.2968C21.0987 21.5125 21.4896 21.9008 21.7053 22.3805H25.8702V28.3728H21.7053C21.4921 28.85 21.1013 29.2434 20.6216 29.4566V33.6215ZM15.8983 32.3525H19.3525V28.449L19.883 28.3602C20.2688 28.2866 20.5607 27.982 20.6089 27.6444L20.6876 27.1013H24.5987V23.647H20.6672L20.6063 23.0937C20.5327 22.7282 20.2307 22.4414 19.8931 22.3907L19.3525 22.312V18.3983H15.8983V22.3018L15.3678 22.3907C14.9846 22.4643 14.6927 22.7688 14.6445 23.1064L14.5658 23.6495H10.6521V27.1038H14.5226L14.6343 27.6013C14.7155 28.0201 15.0176 28.3094 15.3577 28.3602L15.8983 28.4388V32.3525Z" fill="#BF2C30"/>
</svg>
