<svg width="82" height="82" viewBox="0 0 82 82" fill="none" xmlns="http://www.w3.org/2000/svg">
<path d="M68.5274 10.1523H12.6903C7.08344 10.1523 2.53815 14.6976 2.53815 20.3045V60.9133C2.53815 66.5202 7.08344 71.0655 12.6903 71.0655H68.5274C74.1343 71.0655 78.6796 66.5202 78.6796 60.9133V20.3045C78.6796 14.6976 74.1343 10.1523 68.5274 10.1523Z" fill="#13348F"/>
<path d="M75.3395 12.8247L5.87817 68.3927C6.02792 68.5298 6.18782 68.6516 6.34771 68.7785L78.6795 25.3804V20.3043C78.6795 17.3297 77.3775 14.68 75.3395 12.8247Z" fill="#D07B2C"/>
<path d="M6.96698 69.2937L78.6795 40.6087V25.3804L6.34515 68.781C6.55327 68.951 6.74363 69.1414 6.96698 69.2937Z" fill="white"/>
<path opacity="0.15" d="M68.5274 10.1523H12.6903C7.08379 10.1523 2.53815 14.698 2.53815 20.3045V60.9133C2.53815 66.5198 7.08379 71.0655 12.6903 71.0655H68.5274C74.1339 71.0655 78.6796 66.5198 78.6796 60.9133V20.3045C78.6796 14.698 74.1339 10.1523 68.5274 10.1523ZM76.1415 60.9133C76.1415 65.1112 72.7253 68.5274 68.5274 68.5274H12.6903C8.49241 68.5274 5.07619 65.1112 5.07619 60.9133V20.3045C5.07619 16.1066 8.49241 12.6904 12.6903 12.6904H68.5274C72.7253 12.6904 76.1415 16.1066 76.1415 20.3045V60.9133Z" fill="black"/>
<path opacity="0.2" d="M68.5273 12.6904H12.6903C8.48471 12.6904 5.07611 16.099 5.07611 20.3046V22.8426C5.07611 18.6371 8.48471 15.2285 12.6903 15.2285H68.5273C72.7328 15.2285 76.1414 18.6371 76.1414 22.8426V20.3046C76.1414 16.099 72.7328 12.6904 68.5273 12.6904Z" fill="white"/>
<path d="M25.3804 20.3042L25.9033 29.0173L27.7307 24.2153L26.9134 29.2863L29.9236 25.1214L27.822 29.8092L31.8068 26.5656L28.5657 30.5503L33.2509 28.4488L29.086 31.4564L34.1596 30.6391L29.3576 32.4691L38.0707 32.9919L29.3576 33.5147L34.1596 35.3421L29.086 34.5249L33.2509 37.535L28.5657 35.4335L31.8068 39.4182L27.822 36.1771L29.9236 40.8624L26.9134 36.6974L27.7307 41.771L25.9033 36.969L25.3804 45.6821L24.8576 36.969L23.0277 41.771L23.8449 36.6974L20.8373 40.8624L22.9388 36.1771L18.9541 39.4182L22.1977 35.4335L17.51 37.535L21.6749 34.5249L16.6039 35.3421L21.4059 33.5147L12.6927 32.9919L21.4059 32.4691L16.6039 30.6391L21.6749 31.4564L17.51 28.4488L22.1977 30.5503L18.9541 26.5656L22.9388 29.8092L20.8373 25.1214L23.8449 29.2863L23.0277 24.2153L24.8576 29.0173L25.3804 20.3042Z" fill="white"/>
</svg>
