<svg width="82" height="82" viewBox="0 0 82 82" fill="none" xmlns="http://www.w3.org/2000/svg">
<path d="M2.53815 60.9132C2.53815 66.5203 7.08328 71.0654 12.6903 71.0654H68.5274C74.1344 71.0654 78.6796 66.5203 78.6796 60.9132V38.0708H2.53815V60.9132Z" fill="#1E1918"/>
<path d="M68.5274 10.1523H12.6903C7.08328 10.1523 2.53815 14.6975 2.53815 20.3045V40.6089H78.6796V20.3045C78.6796 14.6975 74.1344 10.1523 68.5274 10.1523Z" fill="#05A84F"/>
<path d="M5.87746 68.3938L40.6089 40.6087L5.87746 12.8237C3.83966 14.6806 2.53815 17.3303 2.53815 20.3044V60.9131C2.53815 63.8872 3.83966 66.5369 5.87746 68.3938Z" fill="#F0121E"/>
<path opacity="0.15" d="M68.5274 10.1523H12.6903C7.08354 10.1523 2.53815 14.6975 2.53815 20.3045V60.9133C2.53815 66.5203 7.08354 71.0655 12.6903 71.0655H68.5274C74.1344 71.0655 78.6796 66.5203 78.6796 60.9133V20.3045C78.6796 14.6975 74.1344 10.1523 68.5274 10.1523ZM76.1415 60.9133C76.1415 65.112 72.7261 68.5274 68.5274 68.5274H12.6903C8.49164 68.5274 5.07619 65.112 5.07619 60.9133V20.3045C5.07619 16.1058 8.49164 12.6904 12.6903 12.6904H68.5274C72.7261 12.6904 76.1415 16.1058 76.1415 20.3045V60.9133Z" fill="black"/>
<path opacity="0.2" d="M68.5273 12.6904H12.6903C8.48496 12.6904 5.07611 16.0993 5.07611 20.3046V22.8426C5.07611 18.6373 8.48496 15.2285 12.6903 15.2285H68.5273C72.7326 15.2285 76.1414 18.6373 76.1414 22.8426V20.3046C76.1414 16.0993 72.7326 12.6904 68.5273 12.6904Z" fill="white"/>
</svg>
