<svg width="82" height="82" viewBox="0 0 82 82" fill="none" xmlns="http://www.w3.org/2000/svg">
<path d="M2.53796 22.8423H78.6794V58.3749H2.53796V22.8423Z" fill="#4CA863"/>
<path d="M12.6902 10.1523H68.5272C74.1312 10.1523 78.6794 14.7005 78.6794 20.3045V25.3806H2.53796V20.3045C2.53796 14.7005 7.08614 10.1523 12.6902 10.1523Z" fill="#C02F27"/>
<path d="M68.5273 71.0654L12.6903 71.0654C7.08627 71.0654 2.53808 66.5172 2.53808 60.9132V55.8371L78.6795 55.8371V60.9132C78.6795 66.5172 74.1313 71.0654 68.5273 71.0654Z" fill="#C02F27"/>
<path opacity="0.15" d="M68.5272 10.1523H12.6902C7.08361 10.1523 2.53796 14.698 2.53796 20.3045V60.9133C2.53796 66.5198 7.08361 71.0655 12.6902 71.0655H68.5272C74.1337 71.0655 78.6794 66.5198 78.6794 60.9133V20.3045C78.6794 14.698 74.1337 10.1523 68.5272 10.1523ZM76.1413 60.9133C76.1413 65.1112 72.7251 68.5274 68.5272 68.5274H12.6902C8.49222 68.5274 5.07601 65.1112 5.07601 60.9133V20.3045C5.07601 16.1066 8.49222 12.6904 12.6902 12.6904H68.5272C72.7251 12.6904 76.1413 16.1066 76.1413 20.3045V60.9133Z" fill="black"/>
<path opacity="0.2" d="M68.5272 12.6904H12.6902C8.48465 12.6904 5.07605 16.099 5.07605 20.3046V22.8426C5.07605 18.6371 8.48465 15.2285 12.6902 15.2285H68.5272C72.7328 15.2285 76.1414 18.6371 76.1414 22.8426V20.3046C76.1414 16.099 72.7328 12.6904 68.5272 12.6904Z" fill="white"/>
<path d="M35.4135 33.9923H39.3677L40.6088 30.2715L41.8499 33.9923H45.8042L42.5479 36.3704L43.8652 40.1445L40.6088 37.8171L37.3525 40.1445L38.6698 36.3704L35.4135 33.9923Z" fill="#F8D749"/>
<path d="M21.2255 32.0811C22.9869 40.9261 33.0934 46.9159 43.7989 45.4591C52.1085 44.3297 58.6237 38.9465 59.9917 32.0811C59.9917 42.4997 51.3141 50.9464 40.6086 50.9464C29.9031 50.9464 21.2255 42.4997 21.2255 32.0811Z" fill="#F8D749"/>
</svg>
