<?xml version="1.0" encoding="UTF-8"?><svg id="uuid-6069275c-0758-4f47-a8f5-cf8ab39276a6" xmlns="http://www.w3.org/2000/svg" viewBox="0 0 270.68 369.23">
<title>Mexico national football team logo - Brandlogos.net</title><path d="M12.33,298.97h13.97v-14.77h9.61C12.96,258.16.58,228.47.02,194.42s9.76-64.78,32.47-90.1c42.63-47.47,95.03-58.19,155.12-37.95,12.15-19.85,16.12-42,14.77-66.37,12.23,13.58,23.97,26.2,32.31,41.92-.79,3.1-1.67,6.35-2.54,9.76,4.13,8.97,7.78,18.18,10.32,28.02-.79,1.35-1.59,2.86-2.54,4.6,1.59,8.02,2.7,16.19,3.1,24.53.08,1.27.71,2.22,1.43,3.18,38.03,51.76,34.14,122.57-7.94,170.05-.4.48-.79.95-1.59,2.06h9.45v14.85h14.05v70.26H12.33v-70.26ZM66.23,122.02c-.16-.4-.4-.71-.79-.24.08.24.16.48.32.71,2.06,3.81,4.21,7.54,6.27,11.35-13.89,15.56-21.12,33.58-22.47,54.14-4.53,1.19-13.1,3.97-13.1,4.21,4.37,1.19,8.73,2.38,13.18,3.57,1.27,20.8,8.73,38.82,22.39,54.06-2.14,3.81-4.05,7.38-6.03,10.96-.16.32-.32.56-.71,1.19.71-.24,8.65-4.6,12.3-6.67,11.03,10,23.66,16.51,37.71,20.16-2.78,15.72,7.46,28.26,22.55,26.67,3.57-.4,6.91-1.83,9.76-3.97,7.62-6.03,9.53-13.89,7.7-22.78,14.45-3.65,26.91-10.32,37.79-20.08,3.97,2.3,11.75,6.51,11.99,6.35-2.22-3.81-4.21-7.86-6.51-11.75,13.89-15.48,21.2-33.5,22.47-54.14,4.53-1.27,8.81-2.46,14.21-3.97-5.48-1.51-9.84-2.62-14.21-3.81-.48-6.59-1.51-12.78-2.94-18.74,4.13-8.34,6.99-16.83,9.21-25.56,1.35-.79,2.62-1.51,3.81-2.22,2.38-9.29,2.78-18.66,3.18-27.94,1.19-.95,2.14-1.83,3.18-2.7-.24-9.69-1.51-19.13-3.73-28.26.87-1.43,1.67-2.62,2.46-3.89-2.38-9.61-6.03-18.58-10.32-27.15.71-3.49,2.3-6.51,2.3-9.92-5.56-9.61-12.07-18.26-20.32-26.83-.16,3.41-.16,5.72-.4,8.1-3.73,37.63-22.07,65.18-56.28,81.85-4.13,1.98-8.1,1.51-12.07.95-1.67-3.81-1.67-7.94-4.05-12.23-1.27,4.6-2.38,8.49-3.49,12.38-20.72,1.19-38.66,8.73-53.98,22.31l-11.35-6.11ZM108.07,279.52c-11.83-3.73-22.39-9.69-31.91-17.47-8.34,4.84-24.93,13.81-25.09,13.58l14.29-24.53c-9.61-11.67-16.12-24.53-19.37-38.98-.16-.64-.24-1.51-.71-1.83-4.29-2.94-4.45-6.67-1.83-10.96-9.45-2.46-27.39-7.7-27.31-7.86,9.13-2.38,18.18-4.76,27.39-7.22-2.62-5.32-2.54-6.67,1.19-10.24,1.03-1.03,1.27-2.22,1.59-3.49,3.18-13.18,8.97-25.09,17.39-35.72.64-.79,1.59-1.43,1.51-2.7-4.6-7.94-13.42-24.37-13.18-24.61l24.21,14.13c11.99-9.92,25.48-16.59,40.49-19.77,3.89-4.53,5.56-4.84,11.27-2.3,2.38-8.89,7.54-26.44,7.78-26.44,2.3,8.81,4.6,17.54,7.07,26.91,2.7-2.7,5.64-2.14,8.57-1.59,12.7-6.59,23.66-15.16,32.31-26.83-45.96-19.05-108.44-10.56-148.45,37.87-18.74,22.7-28.74,48.9-29.53,78.35-.24,10.08.32,27.47,7.14,47.47,9.45,27.47,25.64,45.41,35.17,54.46h-16.04v15h-14.13v58.83h234.75v-58.9h-13.97v-14.92h-17.7c24.93-23.1,39.3-50.49,43.35-83.36,3.65-29.85-9.53-79.55-24.61-89.87-.48,10-1.27,19.69-3.73,28.98-1.51.95-2.86,1.83-4.21,2.7-1.91,7.38-4.6,14.45-7.14,20.4-.79,4.37,2.38,5.64,3.65,7.94,1.59,2.78-.08,5.24-.95,7.86,9.21,2.46,18.18,4.76,27.07,7.14v.71c-9.05,2.38-18.1,4.76-27.15,7.14,2.06,4.84,2.38,6.99.08,8.97-2.3,1.91-2.78,4.29-3.49,6.83-1.59,6.03-3.73,11.83-6.51,17.47-3.25,6.67-7.46,12.78-12.15,18.58,4.84,8.34,9.61,16.43,14.37,24.61-.24.24-16.91-8.89-25.24-13.81-9.53,8.02-20.32,13.81-31.91,17.62-1.27,17.78-11.75,28.9-26.83,29.06-15.24.08-25.8-10.96-27.47-29.21h0Z" style="fill:#3a544c;"/><path d="M47.41,340.25c4.53-8.57,8.73-16.35,12.86-24.13h9.13v39.14h-9.13c-.08-2.86-.16-5.8-.24-8.73v-8.57c-3.25,5.8-6.51,11.51-9.69,17.31h-6.03c-2.94-5.56-9.37-16.83-9.61-16.75v16.43h-9.45v-39.06c1.43,0,2.94-.08,4.45,0,1.59,0,3.18.08,4.68.16,4.21,7.86,8.41,15.72,13.02,24.21ZM31.3,351.6v-26.67c1.98,3.33,3.97,6.83,5.95,10.32,3.33,5.8,6.43,11.59,9.45,17.23h1.19c5.08-9.13,10.24-18.34,15.32-27.47.16,8.89.24,17.78.4,26.75h2.54v-32.15h-1.67c-.79,0-1.51.08-2.22.16-4.92,9.45-9.84,18.89-14.85,28.34-5-9.61-10.08-19.13-15.08-28.74h-1.91c-.64,0-1.27,0-1.91.08,0,10.72.08,21.43.08,32.23h1.35c.4-.08.87-.08,1.35-.08h0Z" style="fill:#3a544c;"/><path d="M83.85,325.41v5.32h21.12v9.45h-21.04v5.87h22.78v9.21h-32.39v-38.98h31.99v9.21c-7.54-.08-15-.08-22.47-.08ZM77.66,319.37v32.63h25.56c0-.48-.08-.87-.08-1.35v-1.27c-7.54,0-15.08,0-22.55-.08v-12.7h21.91c0-.79.08-1.51.08-2.3-3.65-.08-7.3-.16-10.96-.16-3.73-.08-7.38-.08-11.03-.08v-12.07h21.91v-2.7h-12.38c-1.83.08-10.56.08-12.46.08h0Z" style="fill:#3a544c;"/><path d="M232.15,244.03c3.02.56,5.32.95,8.02,1.51-5,9.92-11.43,18.58-18.97,26.75l-3.65-5.64c4.05-4.92,8.34-9.76,11.67-15.48l-7.7-1.98c7.3-11.59,12.7-23.82,15.4-37.23l6.91,3.97c1.91-5.95,1.91-12.23,2.86-18.42l6.43-1.75c0,10.96-2.06,21.2-5.24,31.44l-6.83-3.97c-2.38,6.91-5.08,13.81-8.89,20.8h0Z" style="fill:#f33946;"/><path d="M40.98,132.65c2.94.48,5.24.87,8.18,1.43-7.38,11.75-12.54,24.05-15.32,37.71-2.46-1.67-4.45-3.02-6.75-4.6-1.91,6.35-2.06,12.62-2.86,19.21-2.22.48-4.53,1.03-6.75,1.51.24-4.21.64-8.81,1.43-13.73,1.03-6.75,2.54-12.7,4.13-17.94,1.19.64,4.53,2.54,6.67,3.97,1.35-3.57,2.54-7.07,3.89-10.48s2.94-6.75,4.6-10.48c-2.62-.48-5-.95-7.7-1.43,5-10.08,11.27-18.81,19.05-27.15,1.27,2.14,2.3,3.89,3.49,5.87-4.21,5.16-8.41,10-12.07,16.12h0Z" style="fill:#0a9841;"/><path d="M77.18,106.06c-.56-3.1-.95-5.4-1.43-8.1-5.72,3.1-10.24,7.3-15.24,11.19-1.83-1.11-3.65-2.14-5.87-3.41,7.94-7.46,16.43-13.58,26.2-18.66.48,2.7.95,5.08,1.51,7.94,6.75-3.49,13.5-6.43,20.88-8.81-1.67-2.3-3.02-4.29-4.68-6.59,10.8-3.73,21.67-5.4,32.95-5.95-.24,1.11-.48,2.3-.71,3.41s-.48,2.14-.64,3.18c-6.67.64-13.42,1.19-20.32,3.1,1.51,2.22,2.94,4.21,4.6,6.67-13.34,3.25-25.56,8.26-37.23,16.04h0Z" style="fill:#0a9841;"/><path d="M53.29,266.42c-1.11,1.91-2.14,3.65-3.18,5.32-5.08-3.41-16.12-18.74-18.97-26.28,2.38-.48,4.76-.95,7.46-1.43-3.33-6.83-6.35-13.58-8.57-20.72-2.78.48-4.05,3.02-6.83,3.97-3.41-10.16-5.16-20.56-5.48-31.28,6.59,1.43,4.37.71,6.59,1.43.71,6.19,1.11,12.3,2.78,18.89,2.3-1.67,4.29-3.02,6.75-4.68,3.02,13.58,8.02,25.96,15.48,37.23-2.46,1.75-5.32.64-7.62,2.22,3.1,5.4,7.3,10.16,11.59,15.32Z" style="fill:#0a9841;"/><path d="M196.11,339.14c2.38,1.59,4.76,3.1,7.14,4.68-3.41,8.81-12.23,13.58-21.83,11.91-10.08-1.75-16.75-9.53-16.91-19.53s6.11-18.1,15.56-20.24c10.08-2.3,19.21,2.22,23.18,11.59-2.38,1.59-4.76,3.1-7.14,4.68-7.14-8.18-13.42-9.69-18.74-4.45-4.45,4.29-4.37,11.83.08,16.04,5.4,5.08,11.83,3.57,18.66-4.68ZM198.88,326.44c-4.68-6.91-12.07-9.29-19.69-6.67-7.3,2.46-11.75,9.13-11.35,17.15.4,7.38,5.64,13.58,12.78,15.24,7.7,1.83,14.69-.95,18.02-7.14-.56-.4-1.11-.79-1.67-1.19-.48.71-1.19,1.59-2.14,2.46-.4.4-1.98,1.75-4.13,2.7-3.73,1.59-8.1,1.51-12.07-.4-5.32-2.62-8.18-7.94-7.7-14.37.48-5.95,4.45-10.72,10.24-12.23,6.51-1.75,11.67.4,15.8,5.64.56-.4,1.11-.71,1.91-1.19h0Z" style="fill:#3a544c;"/><path d="M110.37,316.04h11.59c2.38,3.41,4.84,6.99,7.54,10.96,2.62-3.81,5.08-7.3,7.54-10.88h11.35c-4.53,6.59-8.73,12.78-13.1,19.13,4.53,6.59,8.97,13.02,13.81,20.01h-11.75c-2.46-3.57-5.08-7.38-7.94-11.59-2.86,4.21-5.48,7.94-8.02,11.59h-11.51c4.76-6.83,9.13-13.18,13.65-19.85-4.21-6.27-8.49-12.54-13.18-19.37h0ZM129.66,337.95c6.43,9.13,9.92,14.13,9.92,14.13,0,0,.08,0,3.33-.08-3.89-5.56-7.78-11.11-11.67-16.75,3.97-5.4,7.94-10.88,11.83-16.27-1.03.08-2.14.08-3.18.16-3.57,4.6-7.07,9.13-10.64,13.73-5.16-6.99-9.92-13.42-9.92-13.42h-2.78c3.73,5.32,7.38,10.64,11.11,16.04-3.97,5.48-7.86,10.96-11.83,16.51,1.11,0,2.22,0,3.33.08,3.49-4.84,6.99-9.45,10.48-14.13Z" style="fill:#3a544c;"/><path d="M200.15,282.54c3.18-2.54,6.59-5.24,10.16-8.1,1.83,1.11,3.65,2.14,5.87,3.49-2.94,2.62-5.56,4.92-8.34,7.3v11.75h23.18l.24,7.38h-31.04c-.08-7.14-.08-14.29-.08-21.83h0Z" style="fill:#f33946;"/><path d="M63.05,297.3v-12.15c-2.62-2.3-5.32-4.6-8.18-7.07.79-.71,4.76-3.33,5.56-3.73,3.49,2.78,6.99,5.56,10.4,8.26v21.75h-31.44v-7.14c7.86.08,15.72.08,23.66.08Z" style="fill:#0a9841;"/><path d="M245.8,335.96c-.08,11.27-8.97,20.16-20.16,20.16s-20.4-9.21-20.32-20.48,8.97-20.08,20.24-20.08c11.43-.08,20.32,8.81,20.24,20.4h0ZM242.47,335.88c.08-9.45-7.22-16.91-16.59-17.07-9.61-.08-17.15,7.3-17.15,16.91s7.38,16.83,16.83,16.83c9.37.08,16.83-7.22,16.91-16.67Z" style="fill:#3a544c;"/><path d="M241.44,160.36c2.06-1.43,3.97-2.78,6.35-4.45,3.65,10.48,5.48,31.91,5.48,31.91l-6.51-1.35c-.64-6.35-.95-12.78-2.94-19.29-2.22,1.51-4.13,2.86-6.43,4.45-1.75-5.95-3.57-11.91-5.32-17.86.24-1.11.48-2.22.71-3.33,1.19-.56,2.46-1.19,3.65-1.75,3.33,7.38,3.1,7.7,5,11.67h0Z" style="fill:#f33946;"/><path d="M161.02,355.33h-9.29v-39.22h9.29v39.22ZM157.6,351.6v-31.52c-.4,0-.87-.08-1.35-.08h-1.35c0,11.35.08,31.6.08,31.6h2.62Z" style="fill:#3a544c;"/><path d="M172.69,79.62c-4.53,5.4-14.21,11.03-14.21,11.03l-1.91-.71c1.43-2.06,2.78-4.05,4.45-6.43-6.83-1.91-13.42-2.54-20.16-2.94-.32-1.11-.64-2.22-.95-3.41-.24-1.11-.48-2.22-.71-3.25,11.51.16,22.47,2.3,33.5,5.72h0Z" style="fill:#f33946;"/><path d="M82.11,313.02c-.48-3.18-.79-5.95-1.27-9.13,6.43-.95,12.54-1.83,18.89-2.7.24,1.51.4,3.02.64,4.6.24,1.51.4,3.02.64,4.53-6.27.95-12.3,1.83-18.89,2.7ZM96.56,304.92c-3.97.56-7.86,1.11-11.51,1.67,0,.48.08.87.16,1.43.08.48.16.95.32,1.43,3.81-.56,7.78-1.19,11.67-1.75-.64-2.78-.08,0-.64-2.78h0Z" style="fill:#3a544c;"/><path d="M102.43,121.7c-1.43,4.05-2.7,7.3-3.97,10.96,6.11,5.56,13.5,6.67,21.04,6.83,5.56-3.73,9.13-8.65,11.67-14.53,2.46-5.64,3.18-11.67,4.13-18.5,1.19,2.46,1.98,4.21,2.94,6.11,3.65-1.19,7.14-2.38,11.11-3.65,1.51,14.05-2.38,26.04-11.43,36.36s-20.8,15.48-35.01,16.19c7.46,23.58,20.72,42,40.96,55.09.4,0,.71.16.95,0,6.91-3.25,13.73-1.98,20.72.08,12.3,3.65,38.98,10.32,39.69,11.43-3.18,6.59-7.7,12.38-12.86,18.02.79,1.98,1.67,3.97,2.46,6.03-28.26-14.45-50.49-25.8-65.73-33.42-1.59-.79-5.87-3.02-11.11-6.83-17.23-12.38-27.15-28.26-23.74-50.49-3.81-2.22-7.62-4.29-11.27-6.67-3.57-2.3-6.75-5.08-9.29-8.49,2.7-6.51,18.66-20.32,28.74-24.53h0Z" style="fill:#3a544c;"/><path d="M210.47,21.59c6.27,6.99,10.96,13.58,15.24,20.8-6.59,25.48-20.64,45.49-43.11,60.25-1.11-4.68-2.14-8.97-3.25-13.5,18.66-18.1,29.13-40.33,31.12-67.56Z" style="fill:#3a544c;"/><path d="M183.64,119.48v-14.13c18.81-11.91,32.47-28.5,40.88-50.17,3.97,7.62,6.67,15.08,8.81,22.86-11.83,19.13-27.94,33.1-49.7,41.44h0Z" style="fill:#3a544c;"/><path d="M231.67,85.5c1.75,8.65,2.94,16.19,2.94,23.97-15,14.37-32.55,23.5-53.67,26.67.87-4.76,1.59-8.97,2.46-13.65,19.45-7.14,35.57-19.21,48.27-36.99Z" style="fill:#3a544c;"/><path d="M174.59,151.87c1.83-4.37,3.57-8.34,5.4-12.62,18.89-2.7,35.88-10.16,51.28-23.02.08,8.41-1.03,15.96-2.46,23.18-16.43,9.53-38.66,14.69-54.22,12.46h0Z" style="fill:#3a544c;"/><path d="M162.92,168.62c15.4,4.45,30.88,5.32,47.39,2.22-2.86,5.87-6.11,10.56-9.69,15.64,6.51,1.75,12.94,3.49,19.45,5.24-4.92,1.11-9.76,2.3-14.69,3.41-12.07-3.1-22.07-5.72-30.48-7.7-4.84-1.19-11.83-4.05-20.88-8.26-.48-.24-.87-.56-1.51-.95,3.49-3.25,6.75-6.27,10.4-9.61h0Z" style="fill:#3a544c;"/><path d="M216.35,166.71c-17.31,4.05-34.14,4.45-51.36-.56,2.7-3.89,5.24-7.54,7.94-11.43,17.39,1.19,34.22-1.83,50.97-9.69-1.75,8.18-4.45,14.85-7.54,21.67h0Z" style="fill:#3a544c;"/><path d="M200.15,197.2c-9.29,2.78-18.5,5.56-27.79,8.34-12.62-3.89-23.9-9.84-34.22-18.5,4.05-2.38,7.7-4.6,11.75-6.99,7.78,4.05,16.12,7.3,24.61,10,8.41,2.78,16.99,4.76,25.64,7.14Z" style="fill:#3a544c;"/><path d="M158.87,104.08c6.91,30.72-16.19,63.59-49.22,67.08-1.51-1.91-1.98-4.37-2.94-7.07,14.13-1.83,25.96-7.7,34.77-18.74,8.89-11.03,12.3-23.74,10.64-37.95,2.14-1.11,4.29-2.14,6.75-3.33Z" style="fill:#3a544c;"/><path d="M122.04,192.99c4.6-1.59,8.65-3.02,13.26-4.53,9.21,7.7,19.69,13.97,32.47,18.5-8.26,2.46-15.56,4.68-23.02,6.91-8.57-5.64-16.12-12.3-22.7-20.88h0Z" style="fill:#3a544c;"/><path d="M130.53,222.68c4.92,2.54,9.45,4.92,14.05,7.22v15.48c-6.51,1.59-13.34-3.02-13.97-9.61-.4-4.13-.08-8.34-.08-13.1h0Z" style="fill:#3a544c;"/><path d="M110.61,174.02c3.41-.71,6.35-1.35,9.61-2.06,3.65,4.92,7.78,9.53,12.46,13.97-4.05,2.38-8.18,3.1-12.38,4.37-3.81-5-6.91-10.24-9.69-16.27Z" style="fill:#3a544c;"/><path d="M158.71,136.94c.95-3.25,1.83-6.11,2.78-9.29,6.11-1.19,12.3-1.98,18.58-4.21.08,4.76-1.35,8.81-2.38,13.18-6.27.79-12.38.71-18.97.32Z" style="fill:#3a544c;"/><path d="M180.55,120.51c-6.11,2.06-11.91,3.33-18.34,4.13.32-3.41.56-6.35.87-9.61,5.8-2.22,11.59-4.68,17.31-7.78.87,4.6.71,8.81.16,13.26h0Z" style="fill:#3a544c;"/><path d="M144.5,157.82c2.3-2.62,4.29-4.84,6.43-7.3,5.95,1.67,11.99,3.02,18.42,3.97-1.91,4.29-4.84,7.38-7.54,10.72-6.11-1.67-11.51-4.29-17.31-7.38Z" style="fill:#3a544c;"/><path d="M177.21,91.06c1.67,4.53,2.62,8.57,2.86,13.02-5.32,3.18-10.8,5.8-17.07,7.7-.4-3.25-.71-6.27-1.19-9.61,5.32-3.1,10.32-6.75,15.4-11.11h0Z" style="fill:#3a544c;"/><path d="M142.2,159.8c5.64,3.02,11.19,5.56,17.23,7.7-2.78,3.73-6.19,6.11-9.61,9.05-5.48-3.1-10.48-6.67-15.32-10.96,2.62-1.98,5-3.73,7.7-5.8h0Z" style="fill:#3a544c;"/><path d="M176.58,139.56c-1.27,4.53-3.1,8.26-5.24,12.15-6.27-.24-12.23-1.67-18.5-3.57,1.59-2.94,3.1-5.56,4.68-8.49,6.27.56,12.46.56,19.05-.08h0Z" style="fill:#3a544c;"/><path d="M131.8,167.03c4.76,4.13,9.61,7.7,15.24,11.19-3.65,2.86-7.38,4.76-11.43,6.75-4.6-4.21-8.81-8.65-12.54-13.89,3.02-1.43,5.72-2.62,8.73-4.05Z" style="fill:#3a544c;"/><path d="M107.91,229.11c-6.67-7.3-6.11-14.45,1.59-20.24,1.83,1.43,3.73,2.94,5.56,4.37,1.75,1.35,3.57,2.54,4.6,3.25-3.97,4.29-7.86,8.41-11.75,12.62Z" style="fill:#3a544c;"/><path d="M97.27,247.45c-1.19-13.26-6.83-18.89-19.93-20.24,4.84-4.21,12.94-3.73,18.1,1.11,5.48,5.08,6.27,13.02,1.83,19.13Z" style="fill:#3a544c;"/><path d="M149.43,266.74c-9.13-8.65-17.78-8.81-28.74,0,1.11-5.24,3.65-8.57,7.86-10.72,5.08-2.62,10.32-2.38,15,.87,3.41,2.22,6.27,5.16,5.87,9.84h0Z" style="fill:#3a544c;"/><path d="M68.21,163.14c-3.41-5.16-2.7-7.94,3.33-14.53,3.02,2.7,6.03,5.48,9.45,8.65-5.08.56-9.21,2.38-12.78,5.87h0Z" style="fill:#3a544c;"/><path d="M141.25,279.44c-.87,2.54-1.59,4.76-2.3,6.91-2.46.48-4.68.4-7.22,0-.71-2.14-1.51-4.37-2.3-6.83,1.98-1.43,3.89-2.78,5.87-4.29,1.98,1.43,3.81,2.7,5.95,4.21Z" style="fill:#3a544c;"/><path d="M122.36,270.95c.71,2.78,1.27,4.76,1.75,6.83-1.19,2.06-2.78,3.73-5.08,5.72-.64-4.76.4-8.49,3.33-12.54h0Z" style="fill:#3a544c;"/><path d="M141.88,265.94c-2.54,1.35-4.37,2.38-6.19,3.41-2.3-.71-4.29-1.83-6.43-3.41,4.13-1.98,8.02-1.91,12.62,0h0Z" style="fill:#3a544c;"/><path d="M148.39,271.1c2.94,3.89,3.73,7.62,3.25,12.78-2.06-2.22-3.49-3.81-5-5.48.16-2.46.87-4.68,1.75-7.3Z" style="fill:#3a544c;"/><path d="M132.99,297.3c-4.76-.95-8.1-2.78-10.8-6.67h6.51c1.98,1.67,2.78,3.97,4.29,6.67h0Z" style="fill:#3a544c;"/><path d="M141.41,290.71c2.22-.16,4.29-.24,7.46-.48-3.02,4.13-6.27,6.03-11.27,6.99,1.43-2.54,2.62-4.45,3.81-6.51h0Z" style="fill:#3a544c;"/><path d="M106,231.41c-.64.56-1.27,1.11-1.91,1.67s-1.19,1.11-1.67,1.67c-.95-1.98-1.91-3.97-2.94-6.03.32-.4.71-.79,1.03-1.19.48-.48.87-1.03,1.27-1.51,1.35,1.75,2.7,3.49,4.21,5.4h0Z" style="fill:#3a544c;"/><path d="M144.58,249.11l-.24,4.76c-2.06-.71-4.13-1.43-6.27-2.22l-.08-3.57c2.14.4,4.29.71,6.59,1.03Z" style="fill:#3a544c;"/><path d="M76.63,223.71c-1.83-.64-3.41-1.19-5.8-1.98,3.89-1.43,6.99-1.51,10.48-.08-1.67.71-3.02,1.35-4.68,2.06Z" style="fill:#3a544c;"/><path d="M119.74,260.55c-.48,1.19-.87,2.38-1.43,3.73-1.35.64-4.45,1.51-4.6,1.35,1.03-2.62,5.87-5.24,6.03-5.08h0Z" style="fill:#3a544c;"/><path d="M149.35,266.74c.08,0,.16-.08.24-.08,0,0-.08,0-.24.08Z" style="fill:#3a544c;"/><path d="M239.45,335.65c0,8.1-5.87,14.29-13.73,14.37-8.02.08-14.21-6.27-14.13-14.37.08-8.02,6.19-14.21,13.97-14.21s13.81,6.19,13.89,14.21h0ZM225.72,324.85c-6.03-.08-10.64,4.68-10.72,10.88,0,6.19,4.6,11.03,10.56,11.03s10.4-4.68,10.56-10.64c.16-6.27-4.45-11.19-10.4-11.27h0Z" style="fill:#3a544c;"/></svg>