<svg width="82" height="82" viewBox="0 0 82 82" fill="none" xmlns="http://www.w3.org/2000/svg">
<path d="M25.3806 10.1523H55.8372V71.0655H25.3806V10.1523Z" fill="white"/>
<path d="M12.6905 10.1523H27.9188V71.0655H12.6905C7.08651 71.0655 2.53833 66.5173 2.53833 60.9133V20.3045C2.53833 14.7005 7.08651 10.1523 12.6905 10.1523Z" fill="#2C6748"/>
<path d="M68.5275 71.0654H53.2992L53.2992 10.1523H68.5275C74.1315 10.1523 78.6797 14.7005 78.6797 20.3045V60.9132C78.6797 66.5172 74.1315 71.0654 68.5275 71.0654Z" fill="#BE2A2C"/>
<path opacity="0.15" d="M68.5276 10.1523H12.6905C7.08397 10.1523 2.53833 14.698 2.53833 20.3045V60.9133C2.53833 66.5198 7.08397 71.0655 12.6905 71.0655H68.5276C74.1341 71.0655 78.6797 66.5198 78.6797 60.9133V20.3045C78.6797 14.698 74.1341 10.1523 68.5276 10.1523ZM76.1417 60.9133C76.1417 65.1112 72.7255 68.5274 68.5276 68.5274H12.6905C8.49259 68.5274 5.07638 65.1112 5.07638 60.9133V20.3045C5.07638 16.1066 8.49259 12.6904 12.6905 12.6904H68.5276C72.7255 12.6904 76.1417 16.1066 76.1417 20.3045V60.9133Z" fill="black"/>
<path opacity="0.2" d="M68.5276 12.6904H12.6905C8.48498 12.6904 5.07639 16.099 5.07639 20.3046V22.8426C5.07639 18.6371 8.48498 15.2285 12.6905 15.2285H68.5276C72.7331 15.2285 76.1417 18.6371 76.1417 22.8426V20.3046C76.1417 16.099 72.7331 12.6904 68.5276 12.6904Z" fill="white"/>
<path d="M47.4642 47.2357C46.2917 45.4845 45.5861 48.0454 44.3805 47.8753C44.6978 45.8195 42.4059 46.6063 41.345 47.0835L41.7638 46.4718C40.1775 47.2104 38.2917 44.6647 37.1547 46.5429C36.9136 46.0226 34.9161 44.7941 34.1065 45.7104C34.17 43.1292 29.7334 43.2815 32.0583 45.916C33.6573 46.3703 34.5329 48.3626 36.9187 47.322C37.2461 48.6672 39.5202 48.8017 40.5049 48.0758C40.3729 48.4845 40.4364 49.6545 40.4009 49.8905C41.6166 50.8651 41.6318 49.3246 42.4871 48.8398C43.7282 48.2053 48.2612 50.1139 47.4617 47.2383L47.4642 47.2357Z" fill="#3B8288"/>
<path d="M37.1166 43.8169C37.1166 43.8169 37.1263 43.8241 37.1456 43.8338C37.1287 43.8241 37.1166 43.8169 37.1166 43.8169Z" fill="#A27037"/>
<path d="M46.2309 33.0431C46.236 31.7817 37.0432 29.0989 39.8198 33.2157C39.165 33.3096 38.066 32.8349 38.0127 32.3223C38.0508 32.4238 37.7335 32.9517 37.6295 32.9999C37.6142 32.7461 37.5533 32.5126 37.5533 32.5126V32.5228C37.2361 31.736 37.4823 33.6217 36.9213 33.4618C37.1142 33.3882 36.9366 32.538 36.7894 32.6497C36.8833 32.7106 36.6701 33.6903 36.4823 33.7334C36.5965 33.5684 36.3757 32.9111 36.3249 33.0431C36.4848 33.7106 35.1828 34.4923 35.3706 34.8222C34.5178 35.1243 34.1498 37.2232 35.6752 36.7435C35.0254 36.4034 35.3325 35.5532 36.1117 35.642C36.0762 35.6344 36.2208 35.6953 36.1802 35.7232C36.3807 36.6649 37.4112 35.5405 37.8173 35.3984C37.3883 37.7892 36.2894 40.0582 38.5482 42.4364C37.7995 41.647 37.6625 42.5734 38.5076 42.8501C37.9975 42.8755 37.4137 43.3704 38.2919 43.6445C38.1117 43.8272 37.4163 43.2968 37.797 43.6673C37.7894 43.6648 37.7817 43.6597 37.7741 43.6572C37.7741 43.6572 37.7792 43.6623 37.7894 43.6699C36.3376 43.6064 37.7259 44.1775 38.3325 44.2333C37.8401 45.0074 39.5558 44.2917 39.7234 44.2739C40.0609 45.1242 40.3274 44.3551 40.2513 43.7232C40.4924 43.9998 40.7335 44.2739 40.9797 44.5455C41.3655 44.6496 41.7868 46.3678 42.0761 45.4719C42.0863 45.4364 42.0914 45.4008 42.0964 45.3653C42.67 46.01 42.9441 46.2536 42.6929 45.2308C43.005 45.7435 43.2842 45.8907 43.203 45.2206C43.6751 45.7155 43.5507 45.043 43.5025 44.6978C43.9568 46.5023 48.5405 46.1216 48.0685 44.9084C47.2766 44.1369 42.2462 41.3171 43.5457 39.5557C44.038 39.807 46.4796 42.8653 45.4187 41.076C44.4771 38.6268 46.2208 41.076 46.4796 41.9846C47.0634 43.0379 46.1548 40.1471 45.9619 40.0455C47.5735 42.0582 47.4238 43.8298 46.9136 40.1141C46.9771 40.2359 47.0812 40.3323 47.2081 40.3806C47.1141 40.1927 47.005 40.1191 46.9441 40.0912C47.0431 40.1141 47.1649 40.2638 47.2157 40.3831C47.2131 40.3831 47.2106 40.3831 47.2081 40.3806C48.0685 44.9567 48.3806 44.1724 47.84 40.0455C49.1395 45.1724 48.9568 45.1419 48.8146 39.9516C49.7461 41.2866 49.0761 44.0734 49.4745 45.345C50.17 43.8628 49.9212 39.5049 50.3755 38.3374C49.5202 37.5253 47.5507 33.2309 46.236 33.0456L46.2309 33.0431ZM38.8985 43.8018C38.8985 43.8018 38.8985 43.7993 38.8985 43.7968H38.9036C38.9036 43.7968 38.901 43.7993 38.8985 43.8018Z" fill="#A27037"/>
<path d="M37.3476 42.0985C37.5481 40.4716 36.0811 40.6949 35.0278 40.6924C32.9695 38.9665 38.8933 37.5097 36.1243 35.6341H36.1344C36.1344 35.6341 36.1141 35.629 36.1167 35.629L36.1344 35.6341C36.1344 35.6341 36.0761 35.5757 36.0786 35.5757C35.84 35.6138 35.4821 35.6239 35.3629 35.9209C35.3629 35.9209 35.3705 35.9259 35.3781 35.9335L35.0583 36.3092C35.0583 36.3244 35.5913 36.6823 35.5684 36.7077C35.5887 36.7026 35.6167 36.7305 35.6319 36.7406C35.9111 37.6213 34.1471 37.9741 33.7943 38.7762C32.6649 41.0959 34.741 41.8497 36.3908 41.865C34.17 44.266 34.3756 42.2152 32.8832 40.8091C33.0938 39.9107 33.4847 38.7762 32.2461 38.4031C32.2538 38.2026 31.9162 37.9944 31.8274 38.299C31.9111 38.2127 31.6091 37.9538 31.4847 38.1239C31.0025 37.5071 30.4365 39.0604 31.2868 38.9031C31.3071 39.0934 31.6243 39.0046 31.6725 38.9614C31.6649 39.2026 32.0329 39.1772 32.0812 39.0249C32.9187 39.5097 31.7106 40.4157 32.0837 41.1746C32.5786 42.0883 33.4746 42.4563 33.5025 43.6568C34.2385 44.8599 37.2486 43.2685 37.3248 42.4208C37.3375 42.3218 37.3425 42.2152 37.3502 42.1086L37.3476 42.0985ZM36.703 37.1467C36.703 37.1467 36.7131 37.1569 36.7156 37.1594C36.7156 37.1594 36.7055 37.1518 36.7004 37.1467H36.703Z" fill="#A9AC78"/>
<path d="M34.8882 35.3701C34.9009 35.4234 33.7233 35.6874 33.8933 35.1645C34.1167 35.2356 35.1573 34.4767 34.736 34.563C33.5735 35.3574 33.9568 34.3778 34.34 33.7026C34.4542 33.7407 34.472 34.3016 34.4111 34.3371C34.7487 34.1113 34.6065 32.8828 34.1344 33.5224C33.6725 33.3372 32.434 34.5402 33.1268 35.0326C32.8832 36.096 33.7182 36.5452 34.6116 36.3194L34.6167 36.3041H34.6954C34.5634 36.2864 34.8908 35.431 34.8882 35.3727V35.3701Z" fill="#A9AC78"/>
</svg>
