<svg width="82" height="82" viewBox="0 0 82 82" fill="none" xmlns="http://www.w3.org/2000/svg">
<path d="M68.5273 10.1523H12.6902C7.08331 10.1523 2.53802 14.6976 2.53802 20.3045V60.9133C2.53802 66.5202 7.08331 71.0655 12.6902 71.0655H68.5273C74.1342 71.0655 78.6794 66.5202 78.6794 60.9133V20.3045C78.6794 14.6976 74.1342 10.1523 68.5273 10.1523Z" fill="#83B2DA"/>
<path opacity="0.15" d="M68.5273 10.1523H12.6902C7.08367 10.1523 2.53802 14.698 2.53802 20.3045V60.9133C2.53802 66.5198 7.08367 71.0655 12.6902 71.0655H68.5273C74.1338 71.0655 78.6794 66.5198 78.6794 60.9133V20.3045C78.6794 14.698 74.1338 10.1523 68.5273 10.1523ZM76.1414 60.9133C76.1414 65.1112 72.7252 68.5274 68.5273 68.5274H12.6902C8.49228 68.5274 5.07607 65.1112 5.07607 60.9133V20.3045C5.07607 16.1066 8.49228 12.6904 12.6902 12.6904H68.5273C72.7252 12.6904 76.1414 16.1066 76.1414 20.3045V60.9133Z" fill="black"/>
<path opacity="0.2" d="M68.5273 12.6904H12.6902C8.48468 12.6904 5.07608 16.099 5.07608 20.3046V22.8426C5.07608 18.6371 8.48468 15.2285 12.6902 15.2285H68.5273C72.7328 15.2285 76.1414 18.6371 76.1414 22.8426V20.3046C76.1414 16.099 72.7328 12.6904 68.5273 12.6904Z" fill="white"/>
<path d="M40.6087 19.3652L39.1138 23.9642H34.2763L38.19 26.8093L36.6951 31.4083L40.6087 28.5657L44.5224 31.4083L43.0275 26.8093L46.9412 23.9642H42.1036L40.6087 19.3652Z" fill="white"/>
<path d="M57.1847 42.0323L61.5629 40.6084L57.1847 39.1846V34.5806L54.4766 38.3064L50.0985 36.8826L52.8041 40.6084L50.0985 44.3343L54.4766 42.9104L57.1847 46.6363V42.0323Z" fill="white"/>
<path d="M43.0275 54.408L44.5224 49.8091L40.6087 52.6517L36.6951 49.8091L38.19 54.408L34.2763 57.2532H39.1138L40.6087 61.8521L42.1036 57.2532H46.9412L43.0275 54.408Z" fill="white"/>
<path d="M26.7409 38.3064L24.0328 34.5806V39.1846L19.6547 40.6084L24.0328 42.0323V46.6363L26.7409 42.9104L31.119 44.3343L28.4135 40.6084L31.119 36.8826L26.7409 38.3064Z" fill="white"/>
</svg>
