<svg width="82" height="82" viewBox="0 0 82 82" fill="none" xmlns="http://www.w3.org/2000/svg">
<path d="M25.3805 10.1519H55.8371V71.065H25.3805V10.1519Z" fill="#F8D548"/>
<path d="M12.6903 10.1519H27.9186V71.065H12.6903C7.08627 71.065 2.53809 66.5168 2.53809 60.9128V20.304C2.53809 14.7 7.08627 10.1519 12.6903 10.1519Z" fill="#1A43A9"/>
<path d="M68.5273 71.0649H53.299L53.299 10.1518H68.5273C74.1313 10.1518 78.6794 14.7 78.6794 20.304V60.9128C78.6794 66.5168 74.1313 71.0649 68.5273 71.0649Z" fill="#BC2833"/>
<path opacity="0.15" d="M68.5273 10.1519H12.6903C7.08373 10.1519 2.53809 14.6975 2.53809 20.304V60.9128C2.53809 66.5193 7.08373 71.065 12.6903 71.065H68.5273C74.1339 71.065 78.6795 66.5193 78.6795 60.9128V20.304C78.6795 14.6975 74.1339 10.1519 68.5273 10.1519ZM76.1415 60.9128C76.1415 65.1107 72.7252 68.5269 68.5273 68.5269H12.6903C8.49234 68.5269 5.07613 65.1107 5.07613 60.9128V20.304C5.07613 16.1061 8.49234 12.6899 12.6903 12.6899H68.5273C72.7252 12.6899 76.1415 16.1061 76.1415 20.304V60.9128Z" fill="black"/>
<path opacity="0.2" d="M68.5274 12.6899H12.6903C8.48477 12.6899 5.07617 16.0985 5.07617 20.3041V22.8421C5.07617 18.6366 8.48477 15.228 12.6903 15.228H68.5274C72.7329 15.228 76.1415 18.6366 76.1415 22.8421V20.3041C76.1415 16.0985 72.7329 12.6899 68.5274 12.6899Z" fill="white"/>
<path d="M50.1671 49.2658C49.4691 46.5196 52.1087 29.8751 47.9437 28.7456C47.0909 29.2482 46.1671 30.3776 45.8346 30.4664C45.8854 30.9284 45.9894 31.4969 45.9514 31.9842C44.9818 32.002 43.9894 33.0349 43.1265 33.1695C41.6037 32.1796 42.1646 30.4157 42.3042 29.035C42.426 29.0528 42.6367 29.2659 42.6367 29.2659C42.6367 29.2659 42.629 28.6467 42.4336 28.5375C42.4336 28.5375 42.5123 28.4563 42.7991 28.4487C42.7179 28.2457 42.3194 27.9969 42.3194 27.9969C42.4235 27.8599 42.6138 27.8294 42.7712 27.7913C41.6265 27.6061 39.8575 26.1391 38.9666 27.3193C38.3829 27.3573 37.5986 27.8446 37.7687 28.1847C38.5098 27.3294 40.492 28.9081 37.9946 28.1517V28.2888C39.789 28.5705 39.5453 32.2888 38.0961 33.172C37.2332 33.0375 36.2408 32.0045 35.2687 31.9867C35.2281 31.4969 35.3322 30.9334 35.3855 30.469C35.053 30.3802 34.1291 29.2507 33.2763 28.7482C28.8297 30.2532 32.1012 46.8876 30.8931 49.9079C31.35 49.715 32.1901 48.5653 32.3677 48.1287V48.3368C33.0581 48.0221 33.5657 47.1922 33.7916 46.7658L33.8068 46.9841C34.2865 46.5653 34.8652 44.5501 35.1012 43.6617C35.1317 43.7201 35.1647 43.7734 35.2053 43.8242C35.3804 44.0526 35.6063 44.2404 35.8448 44.3978C36.0149 44.5095 36.2103 44.6211 36.4184 44.7328C36.2687 45.0247 35.9921 45.5424 35.8626 45.6643C35.9514 45.6744 36.0377 45.6795 36.1266 45.6795C36.0403 45.8039 35.3829 46.7506 35.1748 47.1084C34.5428 47.4257 32.8956 47.6846 33.6774 48.8165C33.685 48.7708 33.7053 48.7302 33.7357 48.6972C34.9413 50.9409 36.0809 47.1465 37.025 46.4028L37.0606 46.5983C37.2129 46.2912 37.789 45.7785 38.091 45.5221C38.2661 45.6008 38.7966 45.8369 38.9692 45.913L38.9895 45.9206C39.0809 45.9612 39.1646 46.0018 39.2458 46.0374C38.8524 46.8978 37.1519 50.4536 35.6215 51.0627C35.5149 51.0043 37.1037 51.7327 37.7306 52.0931C38.1773 51.5881 39.2255 49.9916 39.1951 50.0221C39.3042 50.2201 38.5479 51.682 38.1266 52.3165C39.0732 52.8495 40.2712 53.6591 40.6138 54.319C40.9565 53.6591 42.157 52.8495 43.1011 52.3165C42.6823 51.6794 41.926 50.2226 42.0326 50.0221C42.0047 49.9942 43.0478 51.5855 43.4971 52.0931C44.1189 51.7353 45.7179 51.0018 45.6062 51.0627C44.0732 50.4536 42.3727 46.8927 41.9793 46.0374C42.2813 45.8978 42.8219 45.6567 43.1316 45.5196C43.4311 45.7734 44.0097 46.2886 44.162 46.5957L44.1976 46.4003C45.1417 47.1465 46.2813 50.9358 47.4869 48.6947C47.5173 48.7277 47.5376 48.7683 47.5452 48.814C48.327 47.6795 46.6823 47.4257 46.0478 47.1059C45.8422 46.748 45.1823 45.7988 45.096 45.6744C45.1849 45.6744 45.2712 45.6693 45.36 45.6592C45.228 45.5374 44.9514 45.0171 44.8016 44.7252C45.2686 44.4714 45.6899 44.2354 46.0123 43.8216C46.0529 43.7709 46.0884 43.715 46.1189 43.6567C46.3549 44.5425 46.9361 46.5602 47.4158 46.9815L47.431 46.7632C47.6569 47.1922 48.1645 48.0196 48.8549 48.3343V48.1262C49.0325 48.5627 49.8701 49.7099 50.3295 49.9053C50.3295 49.9053 50.1696 49.5323 50.1696 49.2683L50.1671 49.2658Z" fill="#AA8160"/>
</svg>
