<svg width="82" height="82" viewBox="0 0 82 82" fill="none" xmlns="http://www.w3.org/2000/svg">
<path d="M25.3805 10.1519H55.8371V71.065H25.3805V10.1519Z" fill="#2B65AE"/>
<path d="M12.6903 10.1519H27.9186V71.065H12.6903C7.08627 71.065 2.53809 66.5168 2.53809 60.9128V20.304C2.53809 14.7 7.08627 10.1519 12.6903 10.1519Z" fill="#C93336"/>
<path d="M68.5273 71.0649H53.299L53.299 10.1518H68.5273C74.1313 10.1518 78.6795 14.7 78.6795 20.304V60.9128C78.6795 66.5168 74.1313 71.0649 68.5273 71.0649Z" fill="#C93336"/>
<path opacity="0.15" d="M68.5273 10.1519H12.6903C7.08373 10.1519 2.53809 14.6975 2.53809 20.304V60.9128C2.53809 66.5193 7.08373 71.065 12.6903 71.065H68.5273C74.1339 71.065 78.6795 66.5193 78.6795 60.9128V20.304C78.6795 14.6975 74.1339 10.1519 68.5273 10.1519ZM76.1415 60.9128C76.1415 65.1107 72.7252 68.5269 68.5273 68.5269H12.6903C8.49234 68.5269 5.07613 65.1107 5.07613 60.9128V20.304C5.07613 16.1061 8.49234 12.6899 12.6903 12.6899H68.5273C72.7252 12.6899 76.1415 16.1061 76.1415 20.304V60.9128Z" fill="black"/>
<path opacity="0.2" d="M68.5274 12.6899H12.6903C8.48477 12.6899 5.07617 16.0985 5.07617 20.3041V22.8421C5.07617 18.6366 8.48477 15.228 12.6903 15.228H68.5274C72.7329 15.228 76.1415 18.6366 76.1415 22.8421V20.3041C76.1415 16.0985 72.7329 12.6899 68.5274 12.6899Z" fill="white"/>
<path d="M15.2282 33.4613C17.3701 33.4613 19.1064 31.725 19.1064 29.5832C19.1064 27.4414 17.3701 25.7051 15.2282 25.7051C13.0864 25.7051 11.3501 27.4414 11.3501 29.5832C11.3501 31.725 13.0864 33.4613 15.2282 33.4613Z" fill="#F7D448"/>
<path d="M7.61414 34.1494H11.076V50.7609H7.61414V34.1494Z" fill="#F7D448"/>
<path d="M19.3806 34.1494H22.8425V50.7609H19.3806V34.1494Z" fill="#F7D448"/>
<path d="M11.7664 34.1494H18.6901L15.2283 36.2255L11.7664 34.1494Z" fill="#F7D448"/>
<path d="M11.7664 36.9155H18.6876V38.2988H11.7664V36.9155Z" fill="#F7D448"/>
<path d="M11.7664 46.6089H18.6876V47.9921H11.7664V46.6089Z" fill="#F7D448"/>
<path d="M11.7664 48.6846H18.6901L15.2283 50.7607L11.7664 48.6846Z" fill="#F7D448"/>
<path d="M15.2283 45.9155C17.1402 45.9155 18.6901 44.3655 18.6901 42.4536C18.6901 40.5416 17.1402 38.9917 15.2283 38.9917C13.3163 38.9917 11.7664 40.5416 11.7664 42.4536C11.7664 44.3655 13.3163 45.9155 15.2283 45.9155Z" fill="#F7D448"/>
</svg>
