<svg width="82" height="82" viewBox="0 0 82 82" fill="none" xmlns="http://www.w3.org/2000/svg">
<path d="M68.5273 10.1519H12.6902C7.08331 10.1519 2.53802 14.6971 2.53802 20.304V60.9128C2.53802 66.5197 7.08331 71.065 12.6902 71.065H68.5273C74.1342 71.065 78.6794 66.5197 78.6794 60.9128V20.304C78.6794 14.6971 74.1342 10.1519 68.5273 10.1519Z" fill="#E2B847"/>
<path opacity="0.15" d="M68.5273 10.1519H12.6902C7.08367 10.1519 2.53802 14.6975 2.53802 20.304V60.9128C2.53802 66.5193 7.08367 71.065 12.6902 71.065H68.5273C74.1338 71.065 78.6794 66.5193 78.6794 60.9128V20.304C78.6794 14.6975 74.1338 10.1519 68.5273 10.1519ZM76.1414 60.9128C76.1414 65.1107 72.7252 68.5269 68.5273 68.5269H12.6902C8.49228 68.5269 5.07607 65.1107 5.07607 60.9128V20.304C5.07607 16.1061 8.49228 12.6899 12.6902 12.6899H68.5273C72.7252 12.6899 76.1414 16.1061 76.1414 20.304V60.9128Z" fill="black"/>
<path opacity="0.2" d="M68.5272 12.6899H12.6902C8.48465 12.6899 5.07605 16.0985 5.07605 20.3041V22.8421C5.07605 18.6366 8.48465 15.228 12.6902 15.228H68.5272C72.7328 15.228 76.1414 18.6366 76.1414 22.8421V20.3041C76.1414 16.0985 72.7328 12.6899 68.5272 12.6899Z" fill="white"/>
<path d="M10.1522 17.7661H71.0653V63.451H10.1522V17.7661Z" fill="#D12D22"/>
<path d="M52.5223 40.0527C53.1923 40.1669 56.606 37.9563 55.6517 37.2228C55.2507 37.5908 53.9741 38.436 53.3852 38.5019C52.9258 38.875 56.0806 36.7837 55.6669 35.7507C55.7126 34.5604 53.9842 37.304 53.2989 37.3065C53.0375 37.4613 52.667 37.6314 53.1822 37.2786C54.1035 37.0502 55.7862 34.0147 55.3877 33.2C55.2583 32.4969 54.0045 35.5502 53.4157 35.6771C53.5502 35.436 55.5324 32.0325 54.4994 30.8142C54.1796 30.3142 53.4563 34.0121 52.8725 34.2862C52.8446 34.4157 54.469 28.9665 52.969 28.1822C52.969 28.1822 52.9994 29.0782 52.7329 30.3624C51.2609 35.7329 53.2837 27.6975 51.469 26.9462C51.3446 28.1746 51.37 29.7584 50.9182 31.0426C50.7355 30.4792 49.6416 34.5807 49.0959 34.4766C49.0553 34.502 48.8726 33.6771 48.7152 34.0756C48.4817 35.1568 45.1772 37.5933 47.3396 38.6542C48.6721 39.6161 46.8066 39.9131 46.1467 39.8877C45.9462 40.0806 45.7711 40.6161 45.3954 40.5806C45.365 39.0349 45.964 38.3446 45.964 38.3446L44.2889 36.3776C44.2026 36.4207 44.1163 36.4588 44.03 36.4969C43.7965 36.1898 43.6747 35.9284 43.6848 35.5324C44.563 35.8827 43.7787 34.573 44.063 34.139C44.7457 34.9334 44.5147 33.6492 44.9665 33.3396C45.3548 33.8015 46.7533 33.2837 46.8954 32.738C47.6721 33.2989 50.0299 32.7964 49.035 31.4208C48.3193 32.8167 47.7457 31.8243 46.2888 32.1594C46.365 31.9563 47.4437 31.3421 47.6619 31.8548C47.7761 31.9918 47.8751 32.2127 47.9665 31.8929C48.3066 30.9639 47.2787 30.3599 46.5706 30.7127C45.9792 29.167 44.0452 31.2152 42.9995 30.1416C43.0274 29.6416 43.3346 29.8142 43.4437 29.4919C42.9361 29.0934 43.6087 28.7051 43.8955 28.6086C43.9107 28.6492 44.3092 28.5985 44.2863 28.4817C44.7305 28.3421 44.4462 27.7229 44.6213 27.398C44.8142 27.3675 44.7305 26.7812 44.4741 26.865C44.5325 26.8802 44.2127 26.3396 44.2026 26.3828C44.3853 25.8929 43.7381 26.0224 43.4234 25.7305C42.9285 25.1899 41.9386 25.2711 41.1391 24.9056C41.6468 24.4818 40.9767 23.9209 40.8143 23.6163L41.1391 23.6493L41.1671 23.1264L40.8498 23.1671L40.898 22.8523L40.2331 22.8447L40.2813 23.1594L39.9615 23.1366L39.9894 23.6518L40.3244 23.6087L40.2914 23.8041C39.7965 23.8117 39.629 24.6645 39.9133 24.9132C39.1087 25.2711 38.1316 25.195 37.6341 25.733C37.3194 26.0224 36.6722 25.8955 36.8549 26.3853C36.8448 26.3422 36.525 26.8828 36.5833 26.8675C36.327 26.7838 36.2433 27.3701 36.4361 27.4005C36.6113 27.7254 36.3295 28.3472 36.7712 28.4843C36.7483 28.601 37.1468 28.6518 37.162 28.6112C37.4564 28.7127 38.1163 29.0909 37.6138 29.4944C37.7229 29.8167 38.03 29.6442 38.058 30.1441C37.0148 31.2177 35.0757 29.1695 34.4869 30.7152C33.7763 30.3624 32.7509 30.9665 33.091 31.8954C33.1824 32.2152 33.2813 31.9944 33.3956 31.8573C33.6113 31.3421 34.6976 31.9614 34.7686 32.1619C33.3093 31.8294 32.7357 32.8193 32.0225 31.4233C31.0276 32.7989 33.3905 33.3015 34.1621 32.7406C34.3067 33.2863 35.7001 33.804 36.091 33.3421C36.5427 33.6517 36.3143 34.936 36.9945 34.1416C37.2788 34.5756 36.4945 35.8827 37.3752 35.535C37.3854 35.9284 37.2661 36.1923 37.0326 36.4969C36.9488 36.4613 36.8676 36.4233 36.7839 36.3801L35.1087 38.3471C35.1087 38.3471 35.7103 39.04 35.6773 40.5958V40.5857C35.2966 40.6237 35.1214 40.0882 34.9184 39.8903C34.2585 39.9106 32.3956 39.6187 33.7255 38.6568C35.8879 37.6009 32.5808 35.1543 32.3499 34.0781C32.2001 33.6898 32.0022 34.4893 31.9692 34.4791C31.4159 34.568 30.3347 30.4944 30.1469 31.0452C29.6951 29.7609 29.7205 28.1772 29.5961 26.9487C27.7814 27.7025 29.8068 35.7329 28.3322 30.365C28.0657 29.0782 28.0961 28.1848 28.0961 28.1848C26.6164 28.9614 28.1976 34.4309 28.1926 34.2888C27.7459 33.8345 26.8372 31.271 26.7535 30.7177C25.6494 31.3802 26.7662 34.7253 27.7129 35.6187C27.8347 36.2888 25.7713 33.2126 25.8677 33.0781C24.8855 33.4132 26.9794 37.1187 27.8829 37.2811C28.4514 37.9715 25.7586 35.8218 25.586 35.4106C24.9591 35.3928 25.8119 37.1542 26.388 37.6365C27.7484 38.6669 28.4743 38.7964 26.6469 38.1009C26.1596 37.9639 25.0378 36.573 25.2992 37.5629C24.8246 38.842 30.4819 40.7481 27.8575 39.9816C23.0302 37.6974 27.2306 41.639 28.7484 41.3547C28.1621 41.4258 26.553 41.1694 26.3423 40.6618C26.3322 40.672 25.9286 40.9486 25.9616 40.7329C26.0352 39.8903 24.8093 40.5527 25.4819 41.1136C24.6748 41.0476 25.1342 42.3395 25.6875 41.7659C25.751 42.106 25.9286 42.1517 25.4921 42.3319C25.1799 42.7786 26.02 42.5755 26.223 43.2405C26.4642 43.6897 26.8347 47.7151 27.7586 47.7557C27.7205 48.3546 27.7509 48.446 28.1951 48.8876C27.921 49.2886 28.6393 50.8013 28.8702 50.9866C28.2205 51.1135 27.9489 52.2252 28.6164 52.4942C28.2662 52.8064 28.9997 53.4155 29.2687 53.38C29.487 54.5043 30.8169 53.2455 30.3651 55.0805C30.6672 55.0221 31.1418 55.0525 31.4565 55.2404C31.5529 54.8419 31.355 54.4688 32.0047 54.4256C32.7103 54.1947 31.058 53.8825 31.2661 53.5323C31.7382 52.5576 32.7331 51.3292 33.8346 50.9155C33.5986 52.2505 35.5757 50.078 35.8067 50.3013C36.1849 51.7962 38.058 48.0247 38.5986 48.0069C38.6493 48.0298 38.7001 48.0526 38.7508 48.0755C38.5732 48.913 36.9311 50.1059 37.7255 50.9815C37.2585 51.2506 37.1773 52.2455 36.9336 52.6312C36.7382 53.1871 35.1544 53.6515 35.2839 54.1845C35.3803 54.4434 36.1265 54.6998 36.4082 54.6135C36.1341 55.4536 36.0072 56.0805 37.3524 55.5018C36.9006 56.748 37.926 56.3089 38.5808 55.9536C38.2128 56.8622 38.9894 57.8875 39.5884 56.7226C39.4843 56.8469 40.4336 58.5906 40.5224 58.3799C40.6112 58.5931 41.563 56.8469 41.4564 56.7226C42.0554 57.8875 42.8295 56.8622 42.464 55.9536C43.1214 56.3089 44.1442 56.748 43.6924 55.5018C45.0376 56.0779 44.9107 55.4612 44.6366 54.6135C44.9208 54.7023 45.667 54.4434 45.7635 54.1845C45.8954 53.6515 44.3092 53.1871 44.1137 52.6312C43.8701 52.248 43.7863 51.2429 43.3219 50.9841C44.1163 50.1059 42.4792 48.9232 42.299 48.0831C42.3676 48.0526 42.4361 48.0222 42.5046 47.9942C43.0452 48.0095 44.9208 51.7861 45.3015 50.2912C45.4437 50.0602 47.4284 52.0729 47.2457 51.0475C49.6467 52.4739 52.1416 52.5881 54.4969 50.8343C54.6111 49.6693 54.3065 47.9689 53.1086 47.3013C53.1289 47.3039 53.0578 46.7709 53.1847 46.8547C53.5248 47.2227 53.5933 46.6643 53.6872 46.4003C53.7888 46.1465 53.3446 46.3267 53.3319 46.1668C53.3218 46.1237 53.6441 45.7734 53.3827 45.776C53.2532 45.7684 52.705 45.4638 52.6974 45.7328C52.6746 45.7963 52.7812 46.1745 52.6035 46.0679C52.2279 45.6338 52.068 46.4486 52.1314 46.6948C52.1568 46.7252 52.6086 46.6389 52.5121 46.7582C52.1619 47.4841 51.7228 46.8166 50.8649 47.4663C49.8243 48.5171 48.8396 49.5196 49.9512 50.7886C50.2254 51.4257 47.8421 49.7252 48.7178 49.7963C49.2051 49.5526 47.7431 49.4105 48.2482 49.0628C48.398 48.9841 48.733 48.7683 48.4716 48.6947C48.1467 48.5475 47.0249 48.5729 47.5325 48.1135C47.2711 47.6541 45.2559 47.3902 45.3295 46.2176C45.5401 47.1897 47.6442 47.2379 46.4284 46.1415C46.3878 46.0805 46.3777 45.9968 46.5401 46.1516C46.4031 46.6415 48.9386 47.0095 48.903 46.4714C48.9766 46.3191 48.2584 46.0069 48.6924 46.0755C49.068 46.276 50.705 46.1871 50.9665 45.4156C48.2736 44.7455 52.3269 45.842 52.2659 44.2836C52.2507 44.2887 51.2634 44.0628 51.1898 43.9461C51.4411 44.375 54.0883 43.512 53.5426 42.6415C53.6695 42.6973 51.7101 42.8826 51.672 42.7557C52.0096 43.0476 55.0502 41.9638 54.5933 40.9638C54.5933 40.9638 53.7761 41.2557 53.2634 41.3141C50.4132 41.6314 55.8217 40.941 55.3852 39.2811C55.903 38.6009 52.0096 40.6948 52.5147 40.0628L52.5223 40.0527ZM35.4945 46.8597C35.2915 47.6694 33.5885 47.6846 33.5783 48.1211C34.0884 48.5831 32.9616 48.5551 32.6392 48.7049C32.2331 48.8749 33.228 49.0856 32.893 49.3191C32.2052 49.6592 32.223 49.8521 32.9565 49.9485C32.3067 50.6998 30.5834 50.5145 29.6926 50.4587C29.6063 49.6135 28.9083 48.0501 28.4108 47.512C28.657 45.6795 26.3017 43.7836 26.8322 41.9055C27.2433 42.639 29.355 42.7659 29.388 42.7456C29.3499 42.8725 27.3855 42.6872 27.5174 42.6313C26.9692 43.5019 29.624 44.3674 29.8702 43.9359C29.7966 44.0527 28.8093 44.2785 28.7941 44.2735C28.7408 45.8344 32.7661 44.7354 30.0936 45.4054C30.3575 46.1745 31.992 46.2658 32.3702 46.0653C32.8017 45.9968 32.0885 46.309 32.1595 46.4613C32.1215 46.9993 34.662 46.6313 34.5225 46.1415C33.7179 47.2227 35.1646 47.3217 35.7382 46.2024C35.8042 46.3597 35.5859 46.6313 35.4996 46.8572L35.4945 46.8597ZM37.5224 28.2127C37.3727 28.1543 37.2153 28.1137 37.2153 28.1137C37.36 27.5097 37.1823 26.365 38.0757 26.1797C37.1316 26.9741 38.5859 28.6442 37.5224 28.2127ZM43.5554 26.5858C44.0833 27.063 43.5351 27.6518 43.8472 28.1137C42.2356 28.8193 44.0071 27.0452 42.9868 26.1797C42.9868 26.1797 43.3422 26.3472 43.5554 26.5858ZM42.1391 27.8777C41.8219 28.1797 41.2229 28.1822 40.8777 27.931C41.5605 27.5706 41.1112 26.431 41.0935 25.733C41.997 25.8878 42.2762 27.1721 42.1391 27.8777ZM39.8397 26.7736C39.7331 27.3193 39.8803 27.7635 40.1925 27.9284C39.8473 28.1797 39.2458 28.1772 38.931 27.8751C38.7914 27.1746 39.0782 25.8828 39.9793 25.7305C39.9615 26.1137 39.893 26.4183 39.8397 26.7736ZM38.2153 30.8193C38.2915 30.6644 38.3092 30.5249 38.3016 30.4081C39.7305 30.8421 41.3422 30.8421 42.7711 30.4081C42.6341 30.8117 43.4538 31.4766 43.5021 31.3979C43.6036 31.7964 41.6442 32.1187 42.7889 32.4411C42.6061 32.903 40.7965 33.3345 41.9386 33.8192C41.827 34.2177 40.4412 34.6796 40.7381 35.2202C41.2534 35.6847 40.9336 35.9157 40.5326 36.4284C40.1392 35.9055 39.8143 35.6872 40.332 35.2202C40.6315 34.6847 39.2407 34.2126 39.1315 33.8192C40.2737 33.3345 38.4615 32.9005 38.2813 32.4411C39.426 32.1187 37.4641 31.7964 37.5681 31.3979C37.5681 31.3979 37.9996 31.2533 38.2128 30.8193H38.2153ZM26.5708 41.4105C26.6012 41.5019 26.6444 41.5984 26.6977 41.6973C26.6266 41.7354 26.4007 41.8674 26.3982 41.8674C26.2713 41.6415 26.1317 41.3953 26.5708 41.4105Z" fill="#E2B847"/>
</svg>
