<svg width="82" height="82" viewBox="0 0 82 82" fill="none" xmlns="http://www.w3.org/2000/svg">
<path d="M68.5274 10.1519H12.6903C7.08344 10.1519 2.53815 14.6971 2.53815 20.304V60.9128C2.53815 66.5197 7.08344 71.065 12.6903 71.065H68.5274C74.1343 71.065 78.6796 66.5197 78.6796 60.9128V20.304C78.6796 14.6971 74.1343 10.1519 68.5274 10.1519Z" fill="#B33431"/>
<path opacity="0.15" d="M68.5274 10.1519H12.6903C7.08379 10.1519 2.53815 14.6975 2.53815 20.304V60.9128C2.53815 66.5193 7.08379 71.065 12.6903 71.065H68.5274C74.1339 71.065 78.6796 66.5193 78.6796 60.9128V20.304C78.6796 14.6975 74.1339 10.1519 68.5274 10.1519ZM76.1415 60.9128C76.1415 65.1107 72.7253 68.5269 68.5274 68.5269H12.6903C8.49241 68.5269 5.07619 65.1107 5.07619 60.9128V20.304C5.07619 16.1061 8.49241 12.6899 12.6903 12.6899H68.5274C72.7253 12.6899 76.1415 16.1061 76.1415 20.304V60.9128Z" fill="black"/>
<path opacity="0.2" d="M68.5273 12.6899H12.6903C8.48471 12.6899 5.07611 16.0985 5.07611 20.3041V22.8421C5.07611 18.6366 8.48471 15.228 12.6903 15.228H68.5273C72.7328 15.228 76.1414 18.6366 76.1414 22.8421V20.3041C76.1414 16.0985 72.7328 12.6899 68.5273 12.6899Z" fill="white"/>
<path d="M51.3295 55.5019L40.6088 47.7127L29.8881 55.5019L33.9819 42.9005L23.2612 35.1113H36.5124L40.6062 22.5073L44.7001 35.1113H57.9513L47.2305 42.9005L51.3244 55.5019H51.3295ZM42.558 46.299L46.9742 49.5071L45.2864 44.3168L42.558 46.299ZM35.9312 44.3168L34.2434 49.5071L38.6596 46.299L35.9312 44.3168ZM36.6748 42.0274L40.6088 44.8853L44.5428 42.0274L43.0402 37.4031H38.1773L36.6748 42.0274ZM45.4463 37.4031L46.4894 40.6112L50.9056 37.4031H45.4463ZM30.3094 37.4031L34.7256 40.6112L35.7687 37.4031H30.3094ZM38.921 35.1138H42.294L40.6062 29.921L38.9184 35.1138H38.921Z" fill="#286038"/>
</svg>
