<svg width="82" height="82" viewBox="0 0 82 82" fill="none" xmlns="http://www.w3.org/2000/svg">
<path d="M2.53815 30.4565H78.6796V50.7609H2.53815V30.4565Z" fill="black"/>
<path d="M12.6903 10.1519H68.5274C74.1314 10.1519 78.6796 14.7 78.6796 20.304V32.9943H2.53815V20.304C2.53815 14.7 7.08633 10.1519 12.6903 10.1519Z" fill="#307068"/>
<path d="M68.5274 71.0649L12.6903 71.0649C7.08633 71.0649 2.53815 66.5168 2.53815 60.9128V48.2225L78.6796 48.2225V60.9128C78.6796 66.5168 74.1314 71.0649 68.5274 71.0649Z" fill="#F8E34C"/>
<path d="M2.53815 27.9185H78.6796V32.9946H2.53815V27.9185Z" fill="white"/>
<path d="M2.53815 48.2227H78.6796V53.2988H2.53815V48.2227Z" fill="white"/>
<path d="M5.87822 68.3927L40.6089 40.6087L5.87822 12.8247C3.84017 14.6826 2.53815 17.3323 2.53815 20.3043V60.9131C2.53815 63.8877 3.84017 66.5374 5.87822 68.3927Z" fill="#C22B38"/>
<path d="M20.345 42.2024L26.1876 37.9588H18.9669L16.7359 31.0908L14.505 37.9588H7.28424L13.1243 42.2024L10.8933 49.0678L16.7359 44.8242L22.576 49.0678L20.345 42.2024Z" fill="white"/>
<path opacity="0.15" d="M68.5274 10.1519H12.6903C7.08379 10.1519 2.53815 14.6975 2.53815 20.304V60.9128C2.53815 66.5193 7.08379 71.065 12.6903 71.065H68.5274C74.1339 71.065 78.6796 66.5193 78.6796 60.9128V20.304C78.6796 14.6975 74.1339 10.1519 68.5274 10.1519ZM76.1415 60.9128C76.1415 65.1107 72.7253 68.5269 68.5274 68.5269H12.6903C8.49241 68.5269 5.07619 65.1107 5.07619 60.9128V20.304C5.07619 16.1061 8.49241 12.6899 12.6903 12.6899H68.5274C72.7253 12.6899 76.1415 16.1061 76.1415 20.304V60.9128Z" fill="black"/>
<path opacity="0.2" d="M68.5273 12.6899H12.6903C8.48471 12.6899 5.07611 16.0985 5.07611 20.3041V22.8421C5.07611 18.6366 8.48471 15.228 12.6903 15.228H68.5273C72.7328 15.228 76.1414 18.6366 76.1414 22.8421V20.3041C76.1414 16.0985 72.7328 12.6899 68.5273 12.6899Z" fill="white"/>
</svg>
