<svg width="82" height="82" viewBox="0 0 82 82" fill="none" xmlns="http://www.w3.org/2000/svg">
<path d="M2.53796 27.9185H78.6794V53.2989H2.53796V27.9185Z" fill="#5CB145"/>
<path d="M12.6902 10.1519H68.5272C74.1312 10.1519 78.6794 14.7 78.6794 20.304V30.4562H2.53796V20.304C2.53796 14.7 7.08614 10.1519 12.6902 10.1519Z" fill="#F6CE46"/>
<path d="M68.5273 71.0649L12.6903 71.0649C7.08627 71.0649 2.53808 66.5168 2.53808 60.9128V50.7606L78.6795 50.7606V60.9128C78.6795 66.5168 74.1313 71.0649 68.5273 71.0649Z" fill="#D83B3F"/>
<path opacity="0.15" d="M68.5272 10.1519H12.6902C7.08361 10.1519 2.53796 14.6975 2.53796 20.304V60.9128C2.53796 66.5193 7.08361 71.065 12.6902 71.065H68.5272C74.1337 71.065 78.6794 66.5193 78.6794 60.9128V20.304C78.6794 14.6975 74.1337 10.1519 68.5272 10.1519ZM76.1413 60.9128C76.1413 65.1107 72.7251 68.5269 68.5272 68.5269H12.6902C8.49222 68.5269 5.07601 65.1107 5.07601 60.9128V20.304C5.07601 16.1061 8.49222 12.6899 12.6902 12.6899H68.5272C72.7251 12.6899 76.1413 16.1061 76.1413 20.304V60.9128Z" fill="black"/>
<path d="M47.1519 43.0808L57.7406 35.388H44.6519L40.6088 22.9414L36.5657 35.388H23.477L34.0657 43.0808L30.0201 55.5274L40.6088 47.8346L51.1975 55.5274L47.1519 43.0808Z" fill="white"/>
<path opacity="0.2" d="M68.5272 12.6899H12.6902C8.48465 12.6899 5.07605 16.0985 5.07605 20.3041V22.8421C5.07605 18.6366 8.48465 15.228 12.6902 15.228H68.5272C72.7328 15.228 76.1414 18.6366 76.1414 22.8421V20.3041C76.1414 16.0985 72.7328 12.6899 68.5272 12.6899Z" fill="white"/>
</svg>
