<svg width="82" height="82" viewBox="0 0 82 82" fill="none" xmlns="http://www.w3.org/2000/svg">
<path d="M5.8781 68.3924L75.3394 12.8244C73.5348 11.1798 71.1592 10.1519 68.5273 10.1519H12.6902C7.08367 10.1519 2.53802 14.6975 2.53802 20.304V60.9128C2.53802 63.8874 3.84004 66.5371 5.8781 68.3924Z" fill="#0E2A68"/>
<path d="M75.3394 12.8247L5.87811 68.3927C7.68266 70.0374 10.0583 71.0653 12.6902 71.0653H68.5273C74.1338 71.0653 78.6795 66.5196 78.6795 60.9131V20.3043C78.6795 17.3297 77.3774 14.68 75.3394 12.8247Z" fill="#44994D"/>
<path d="M68.5273 10.1519H64.4588L2.53802 59.6895V60.9128C2.53802 66.5193 7.08367 71.065 12.6902 71.065H16.7587L78.6794 21.5274V20.304C78.6794 14.6975 74.1338 10.1519 68.5273 10.1519Z" fill="white"/>
<path d="M68.5272 10.1519H68.5222L2.72583 62.7884C3.60653 67.4965 7.72578 71.065 12.6902 71.065H12.6953L78.4916 18.4284C77.6109 13.7204 73.4917 10.1519 68.5272 10.1519Z" fill="#B92831"/>
<path d="M18.6394 32.5251C21.063 32.5251 23.0277 30.5604 23.0277 28.1368C23.0277 25.7132 21.063 23.7485 18.6394 23.7485C16.2158 23.7485 14.2511 25.7132 14.2511 28.1368C14.2511 30.5604 16.2158 32.5251 18.6394 32.5251Z" fill="#F6CE46"/>
<path d="M17.2766 23.0507C17.7106 22.9339 18.1675 22.8705 18.6395 22.8705C19.1116 22.8705 19.5685 22.9339 20.0025 23.0507L18.6395 19.3604L17.2766 23.0507Z" fill="#F6CE46"/>
<path d="M23.7256 29.4995L27.4159 28.1366L23.7256 26.7737L26.2383 23.7483L22.3601 24.4133L23.0251 20.5352L19.9998 23.0504C22.2459 23.6519 23.9033 25.7052 23.9033 28.1366C23.9033 31.0401 21.5404 33.4031 18.6368 33.4031C15.7333 33.4031 13.3704 31.0401 13.3704 28.1366C13.3704 25.7052 15.0277 23.6519 17.2739 23.0504L14.2485 20.5352L14.9135 24.4133L11.0354 23.7483L13.548 26.7737L9.85773 28.1366L13.548 29.4995L11.0354 32.5249L14.9135 31.8599L14.2485 35.7381L17.2739 33.2229L18.6368 36.9132L19.9998 33.2229L23.0251 35.7381L22.3601 31.8599L26.2383 32.5249L23.7256 29.4995Z" fill="#F6CE46"/>
<path opacity="0.15" d="M68.5273 10.1519H12.6902C7.08367 10.1519 2.53802 14.6975 2.53802 20.304V60.9128C2.53802 66.5193 7.08367 71.065 12.6902 71.065H68.5273C74.1338 71.065 78.6794 66.5193 78.6794 60.9128V20.304C78.6794 14.6975 74.1338 10.1519 68.5273 10.1519ZM76.1414 60.9128C76.1414 65.1107 72.7252 68.5269 68.5273 68.5269H12.6902C8.49228 68.5269 5.07607 65.1107 5.07607 60.9128V20.304C5.07607 16.1061 8.49228 12.6899 12.6902 12.6899H68.5273C72.7252 12.6899 76.1414 16.1061 76.1414 20.304V60.9128Z" fill="black"/>
<path opacity="0.2" d="M68.5273 12.6899H12.6903C8.48471 12.6899 5.07611 16.0985 5.07611 20.3041V22.8421C5.07611 18.6366 8.48471 15.228 12.6903 15.228H68.5273C72.7328 15.228 76.1414 18.6366 76.1414 22.8421V20.3041C76.1414 16.0985 72.7328 12.6899 68.5273 12.6899Z" fill="white"/>
</svg>
