<svg width="82" height="82" viewBox="0 0 82 82" fill="none" xmlns="http://www.w3.org/2000/svg">
<path d="M68.5276 10.1519H12.6905C7.08362 10.1519 2.53833 14.6971 2.53833 20.304V60.9128C2.53833 66.5197 7.08362 71.065 12.6905 71.065H68.5276C74.1345 71.065 78.6797 66.5197 78.6797 60.9128V20.304C78.6797 14.6971 74.1345 10.1519 68.5276 10.1519Z" fill="#071B65"/>
<path d="M2.53833 38.0708H78.6797V43.1469H2.53833V38.0708Z" fill="#F6CA4F"/>
<path opacity="0.15" d="M68.5276 10.1519H12.6905C7.08397 10.1519 2.53833 14.6975 2.53833 20.304V60.9128C2.53833 66.5193 7.08397 71.065 12.6905 71.065H68.5276C74.1341 71.065 78.6797 66.5193 78.6797 60.9128V20.304C78.6797 14.6975 74.1341 10.1519 68.5276 10.1519ZM76.1417 60.9128C76.1417 65.1107 72.7255 68.5269 68.5276 68.5269H12.6905C8.49259 68.5269 5.07638 65.1107 5.07638 60.9128V20.304C5.07638 16.1061 8.49259 12.6899 12.6905 12.6899H68.5276C72.7255 12.6899 76.1417 16.1061 76.1417 20.304V60.9128Z" fill="black"/>
<path opacity="0.2" d="M68.5276 12.6899H12.6905C8.48498 12.6899 5.07639 16.0985 5.07639 20.3041V22.8421C5.07639 18.6366 8.48498 15.228 12.6905 15.228H68.5276C72.7331 15.228 76.1417 18.6366 76.1417 22.8421V20.3041C76.1417 16.0985 72.7331 12.6899 68.5276 12.6899Z" fill="white"/>
<path d="M24.1116 60.9133L22.9619 56.3194L19.67 59.723L20.972 55.1697L16.4188 56.4717L19.8223 53.1799L15.2284 52.0301L19.8223 50.8804L16.4188 47.5886L20.972 48.8906L19.67 44.3373L22.9619 47.7408L24.1116 43.147L25.2613 47.7408L28.5532 44.3373L27.2512 48.8906L31.8044 47.5886L28.4009 50.8804L32.9948 52.0301L28.4009 53.1799L31.8044 56.4717L27.2512 55.1697L28.5532 59.723L25.2613 56.3194L24.1116 60.9133Z" fill="white"/>
</svg>
