<svg width="82" height="82" viewBox="0 0 82 82" fill="none" xmlns="http://www.w3.org/2000/svg">
<path d="M68.5273 10.1519H12.6902C7.08331 10.1519 2.53802 14.6971 2.53802 20.304V60.9128C2.53802 66.5197 7.08331 71.065 12.6902 71.065H68.5273C74.1342 71.065 78.6794 66.5197 78.6794 60.9128V20.304C78.6794 14.6971 74.1342 10.1519 68.5273 10.1519Z" fill="white"/>
<path d="M58.3751 48.2229L6.13951 12.6064C3.95426 14.4694 2.53802 17.2079 2.53802 20.3043V60.9131C2.53802 66.5196 7.08367 71.0653 12.6902 71.0653H58.3751L24.8728 48.2229H58.3751Z" fill="#13348F"/>
<path d="M12.6902 68.5273C8.49229 68.5273 5.07608 65.1111 5.07608 60.9132V20.3044C5.07608 18.7308 5.58369 17.2054 6.50246 15.9263L50.1467 45.6849H16.6445L50.1467 68.5273H12.6902Z" fill="#CB2E3F"/>
<path d="M15.9311 42.228C20.1316 42.228 23.5351 38.8245 23.5351 34.624C22.8702 36.3194 21.662 37.728 20.1189 38.6493L19.4692 38.162L20.7509 37.2027L19.2001 36.8067L20.0174 35.4311L18.4336 35.6595L18.6621 34.0758L17.2864 34.893L16.8905 33.3423L15.9311 34.624L14.9718 33.3423L14.5758 34.893L13.2002 34.0758L13.4286 35.6595L11.8449 35.4311L12.6621 36.8067L11.1114 37.2027L12.3931 38.162L11.7434 38.6493C10.2434 37.7559 9.01749 36.3753 8.32968 34.624C8.32968 38.8245 11.7307 42.228 15.9311 42.228Z" fill="white"/>
<path d="M20.9363 58.205V58.2024L24.1012 56.8624L20.9363 55.5223L23.0073 52.7786L19.5962 53.2L20.015 49.7863L17.2714 51.8573L15.9313 48.6924L14.5912 51.8573L11.845 49.7863L12.2663 53.2L8.85519 52.7786L10.9262 55.5223L7.76129 56.8624L10.9262 58.2024V58.205L8.85519 60.9486L12.2663 60.5273L11.845 63.9384L14.5886 61.8674L15.9313 65.0323L17.2714 61.8674L20.015 63.9384L19.5962 60.5273L23.0073 60.9486L20.9363 58.205Z" fill="white"/>
<path opacity="0.15" d="M68.5273 10.1519H12.6902C7.08367 10.1519 2.53802 14.6975 2.53802 20.304V60.9128C2.53802 66.5193 7.08367 71.065 12.6902 71.065H68.5273C74.1338 71.065 78.6794 66.5193 78.6794 60.9128V20.304C78.6794 14.6975 74.1338 10.1519 68.5273 10.1519ZM76.1414 60.9128C76.1414 65.1107 72.7252 68.5269 68.5273 68.5269H12.6902C8.49228 68.5269 5.07607 65.1107 5.07607 60.9128V20.304C5.07607 16.1061 8.49228 12.6899 12.6902 12.6899H68.5273C72.7252 12.6899 76.1414 16.1061 76.1414 20.304V60.9128Z" fill="black"/>
<path opacity="0.2" d="M68.5273 12.6899H12.6902C8.48468 12.6899 5.07608 16.0985 5.07608 20.3041V22.8421C5.07608 18.6366 8.48468 15.228 12.6902 15.228H68.5273C72.7328 15.228 76.1414 18.6366 76.1414 22.8421V20.3041C76.1414 16.0985 72.7328 12.6899 68.5273 12.6899Z" fill="white"/>
</svg>
