<svg width="82" height="82" viewBox="0 0 82 82" fill="none" xmlns="http://www.w3.org/2000/svg">
<path d="M68.5273 10.1523H12.6903C7.08338 10.1523 2.53809 14.6976 2.53809 20.3045V60.9133C2.53809 66.5202 7.08338 71.0655 12.6903 71.0655H68.5273C74.1342 71.0655 78.6795 66.5202 78.6795 60.9133V20.3045C78.6795 14.6976 74.1342 10.1523 68.5273 10.1523Z" fill="white"/>
<path d="M50.7609 10.1523H30.4565V71.0655H50.7609V10.1523Z" fill="#DD1216"/>
<path d="M78.6794 50.7609V30.4565L2.53802 30.4565V50.7609H78.6794Z" fill="#022588"/>
<path opacity="0.15" d="M68.5273 10.1523H12.6903C7.08347 10.1523 2.53809 14.6975 2.53809 20.3045V60.9133C2.53809 66.5203 7.08347 71.0655 12.6903 71.0655H68.5273C74.1344 71.0655 78.6795 66.5203 78.6795 60.9133V20.3045C78.6795 14.6975 74.1344 10.1523 68.5273 10.1523ZM76.1415 60.9133C76.1415 65.112 72.726 68.5274 68.5273 68.5274H12.6903C8.49158 68.5274 5.07613 65.112 5.07613 60.9133V20.3045C5.07613 16.1058 8.49158 12.6904 12.6903 12.6904H68.5273C72.726 12.6904 76.1415 16.1058 76.1415 20.3045V60.9133Z" fill="black"/>
<path opacity="0.2" d="M68.5274 12.6904H12.6903C8.48502 12.6904 5.07617 16.0993 5.07617 20.3046V22.8426C5.07617 18.6373 8.48502 15.2285 12.6903 15.2285H68.5274C72.7326 15.2285 76.1415 18.6373 76.1415 22.8426V20.3046C76.1415 16.0993 72.7326 12.6904 68.5274 12.6904Z" fill="white"/>
<path fill-rule="evenodd" clip-rule="evenodd" d="M37.2451 49.5263L35.7337 48.3103L34.2304 49.4775L34.8271 47.678L33.3162 46.4621H35.1316L35.7679 44.6626L36.3458 46.4621H38.1801L36.7258 47.678L37.2451 49.5263Z" fill="white"/>
<path fill-rule="evenodd" clip-rule="evenodd" d="M46.9722 49.5263L45.4608 48.3103L43.9575 49.4775L44.5542 47.678L43.0433 46.4621H44.8588L45.4951 44.6626L46.073 46.4621H47.9073L46.4529 47.678L46.9722 49.5263Z" fill="white"/>
<path fill-rule="evenodd" clip-rule="evenodd" d="M37.2451 36.5551L35.7337 35.3391L34.2304 36.5063L34.8271 34.7069L33.3162 33.4909H35.1316L35.7679 31.6914L36.3458 33.4909H38.1801L36.7258 34.7069L37.2451 36.5551Z" fill="white"/>
<path fill-rule="evenodd" clip-rule="evenodd" d="M46.5836 36.5551L45.0722 35.3391L43.5689 36.5063L44.1656 34.7069L42.6547 33.4909H44.4701L45.1064 31.6914L45.6843 33.4909H47.5186L46.0643 34.7069L46.5836 36.5551Z" fill="white"/>
<path fill-rule="evenodd" clip-rule="evenodd" d="M29.1324 43.0409L27.621 41.8249L26.1177 42.9922L26.7144 41.1927L25.2035 39.9767H27.019L27.6552 38.1772L28.2332 39.9767H30.0674L28.6131 41.1927L29.1324 43.0409Z" fill="white"/>
<path fill-rule="evenodd" clip-rule="evenodd" d="M55.0792 43.0414L53.5678 41.8254L52.0645 42.9927L52.6612 41.1932L51.1503 39.9772H52.9657L53.602 38.1777L54.1799 39.9772H56.0142L54.5599 41.1932L55.0792 43.0414Z" fill="white"/>
</svg>
