<svg width="82" height="82" viewBox="0 0 82 82" fill="none" xmlns="http://www.w3.org/2000/svg">
<path d="M68.5273 10.1523H12.6902C7.08331 10.1523 2.53802 14.6976 2.53802 20.3045V60.9133C2.53802 66.5202 7.08331 71.0655 12.6902 71.0655H68.5273C74.1342 71.0655 78.6794 66.5202 78.6794 60.9133V20.3045C78.6794 14.6976 74.1342 10.1523 68.5273 10.1523Z" fill="#071B65"/>
<path d="M16.4973 34.9592V40.6089H26.6495V34.9567L34.3575 40.6089H40.6087V37.4592L31.0606 30.4567H40.6087V20.3045H33.6545L40.6087 15.2056V10.1523H36.9514L26.6495 17.7081V10.1523H16.4973V17.2436L8.23087 11.1803C6.28418 12.1295 4.70552 13.6752 3.69791 15.5914L10.1242 20.3071H2.53802V30.4593H12.0887L2.53802 37.4643V40.6114H8.79177L16.4973 34.9592Z" fill="white"/>
<path d="M4.5838 14.1848L12.9213 20.3041H16.3832L5.98988 12.6772C5.47212 13.1341 5.00004 13.6341 4.5838 14.1848Z" fill="#B92831"/>
<path d="M2.53802 40.6087L16.3805 30.4565V32.9946L5.99738 40.6087H2.53802Z" fill="#B92831"/>
<path d="M24.1114 40.6089H19.0353V27.9187H2.53802V22.8426H19.0353V10.1523H24.1114V22.8426H40.6087V27.9187H24.1114V40.6089Z" fill="#B92831"/>
<path d="M40.6088 39.7636L27.9185 30.4565V32.9946L38.3017 40.6087H40.6088V39.7636Z" fill="#B92831"/>
<path d="M40.6088 10.1523H39.9794L26.1191 20.3147H29.581L40.6088 12.2285V10.1523Z" fill="#B92831"/>
<path opacity="0.15" d="M68.5273 10.1523H12.6902C7.08367 10.1523 2.53802 14.698 2.53802 20.3045V60.9133C2.53802 66.5198 7.08367 71.0655 12.6902 71.0655H68.5273C74.1338 71.0655 78.6794 66.5198 78.6794 60.9133V20.3045C78.6794 14.698 74.1338 10.1523 68.5273 10.1523ZM76.1414 60.9133C76.1414 65.1112 72.7252 68.5274 68.5273 68.5274H12.6902C8.49228 68.5274 5.07607 65.1112 5.07607 60.9133V20.3045C5.07607 16.1066 8.49228 12.6904 12.6902 12.6904H68.5273C72.7252 12.6904 76.1414 16.1066 76.1414 20.3045V60.9133Z" fill="black"/>
<path opacity="0.2" d="M68.5272 12.6904H12.6902C8.48465 12.6904 5.07605 16.099 5.07605 20.3046V22.8426C5.07605 18.6371 8.48465 15.2285 12.6902 15.2285H68.5272C72.7328 15.2285 76.1414 18.6371 76.1414 22.8426V20.3046C76.1414 16.099 72.7328 12.6904 68.5272 12.6904Z" fill="white"/>
<path d="M59.6314 20.4619L58.3954 24.2639H54.3979L57.6314 26.6141L56.3954 30.4161L59.6314 28.0659L62.8649 30.4161L61.6288 26.6141L64.8623 24.2639H60.8649L59.6314 20.4619Z" fill="#B92831"/>
<path d="M63.469 31.2461L59.6315 28.4593L55.7939 31.2461L57.2609 26.7359L53.4234 23.9466H58.167L59.634 19.4365L61.101 23.9466H65.8446L62.0071 26.7359L63.4741 31.2461H63.469ZM59.6315 27.675L62.2634 29.5836L61.2584 26.4923L63.8878 24.5811H60.6365L59.6315 21.4873L58.6264 24.5811H55.3752L58.0046 26.4923L56.9995 29.5836L59.6315 27.675Z" fill="white"/>
<path d="M59.6314 48.416L58.3954 52.218H54.3979L57.6314 54.5682L56.3954 58.3702L59.6314 56.02L62.8649 58.3702L61.6288 54.5682L64.8623 52.218H60.8649L59.6314 48.416Z" fill="#B92831"/>
<path d="M63.469 59.2002L59.6315 56.4108L55.7939 59.2002L57.2609 54.69L53.4234 51.9007H58.167L59.634 47.3906L61.101 51.9007H65.8446L62.0071 54.69L63.4741 59.2002H63.469ZM59.6315 55.6291L62.2634 57.5403L61.2584 54.4464L63.8878 52.5352H60.6365L59.6315 49.4414L58.6264 52.5352H55.3752L58.0046 54.4464L56.9995 57.5403L59.6315 55.6291Z" fill="white"/>
<path d="M69.804 32.4209L68.809 35.4894H65.5832L68.1923 37.3853L67.1949 40.4513L69.804 38.5554L72.4131 40.4513L71.4182 37.3853L74.0273 35.4894H70.8014L69.804 32.4209Z" fill="#B92831"/>
<path d="M73.017 41.2812L69.8039 38.9462L66.5907 41.2812L67.8166 37.5046L64.6034 35.1721H68.5729L69.7988 31.3955L71.0247 35.1721H74.9942L71.781 37.5046L73.0069 41.2812H73.017ZM69.8039 38.1619L71.8089 39.6188L71.0424 37.2609L73.0475 35.8041H70.5678L69.8013 33.4463L69.0348 35.8041H66.5551L68.5602 37.2609L67.7937 39.6188L69.7988 38.1619H69.8039Z" fill="white"/>
<path d="M50.1772 34.0527L49.1797 37.1187H45.9539L48.563 39.0146L47.5681 42.0806L50.1772 40.1847L52.7863 42.0806L51.7888 39.0146L54.3979 37.1187H51.1721L50.1772 34.0527Z" fill="#B92831"/>
<path d="M53.3877 42.9111L50.1746 40.5786L46.9614 42.9111L48.1873 39.137L44.9741 36.802H48.9436L50.1695 33.0254L51.3954 36.802H55.3674L52.1543 39.137L53.3801 42.9111H53.3877ZM50.1746 39.7944L52.1796 41.2512L51.4131 38.8934L53.4207 37.4365H50.9411L50.1746 35.0787L49.4081 37.4365H46.9284L48.9335 38.8934L48.167 41.2512L50.1746 39.7944Z" fill="white"/>
</svg>
