<svg width="82" height="82" viewBox="0 0 82 82" fill="none" xmlns="http://www.w3.org/2000/svg">
<path d="M78.6795 27.9185H2.53809V53.2989H78.6795V27.9185Z" fill="#ED3F32"/>
<path d="M12.6903 10.1523H68.5273C74.1306 10.1523 78.6795 14.7013 78.6795 20.3045V30.4567H2.53809V20.3045C2.53809 14.7013 7.08703 10.1523 12.6903 10.1523Z" fill="#0331AF"/>
<path d="M68.5273 71.0654L12.6903 71.0654C7.08703 71.0654 2.53808 66.5165 2.53808 60.9132V50.7611L78.6795 50.7611V60.9132C78.6795 66.5165 74.1306 71.0654 68.5273 71.0654Z" fill="#009641"/>
<path opacity="0.15" d="M68.5273 10.1523H12.6903C7.08347 10.1523 2.53809 14.6975 2.53809 20.3045V60.9133C2.53809 66.5203 7.08347 71.0655 12.6903 71.0655H68.5273C74.1344 71.0655 78.6795 66.5203 78.6795 60.9133V20.3045C78.6795 14.6975 74.1344 10.1523 68.5273 10.1523ZM76.1415 60.9133C76.1415 65.112 72.726 68.5274 68.5273 68.5274H12.6903C8.49158 68.5274 5.07613 65.112 5.07613 60.9133V20.3045C5.07613 16.1058 8.49158 12.6904 12.6903 12.6904H68.5273C72.726 12.6904 76.1415 16.1058 76.1415 20.3045V60.9133Z" fill="black"/>
<path opacity="0.2" d="M68.5274 12.6904H12.6903C8.48502 12.6904 5.07617 16.0993 5.07617 20.3046V22.8426C5.07617 18.6373 8.48502 15.2285 12.6903 15.2285H68.5274C72.7326 15.2285 76.1415 18.6373 76.1415 22.8426V20.3046C76.1415 16.0993 72.7326 12.6904 68.5274 12.6904Z" fill="white"/>
<path d="M29.1876 57.1059C38.2988 57.1059 45.6849 49.7198 45.6849 40.6086C45.6849 31.4974 38.2988 24.1113 29.1876 24.1113C20.0764 24.1113 12.6903 31.4974 12.6903 40.6086C12.6903 49.7198 20.0764 57.1059 29.1876 57.1059Z" fill="#F6E64D"/>
<path d="M31.9856 52.3518C31.4716 51.9219 30.5269 51.6851 29.5231 51.631V50.8531C30.382 50.6232 31.0333 49.5306 31.0333 48.2148C31.0333 46.8991 30.382 45.8065 29.5231 45.5765V45.3326C30.3589 45.4595 31.1955 46.0501 31.5744 46.9869C32.3982 49.024 33.1025 49.8925 33.1025 49.8925C33.1025 49.8925 32.6652 48.0514 32.4439 45.6824C32.3422 44.592 31.4226 43.8278 29.5229 43.7481V43.4045H31.9838V42.7334H29.5229V42.3981C30.5988 42.2953 31.4244 41.7093 31.4244 40.9997C31.4244 40.29 30.5988 39.704 29.5229 39.6012V39.2659H31.9838V38.5949H29.5229V38.2571C30.8132 38.237 32.447 38.0383 32.5432 36.1898C32.6086 34.9292 33.0465 33.6728 33.0465 33.6728C33.0465 33.6728 32.1158 34.7911 31.7602 35.5185C31.1216 36.8241 30.3736 37.0888 29.5229 37.1324V36.6652C30.5988 36.503 31.4244 35.5771 31.4244 34.4558C31.4244 33.3345 30.5988 32.4089 29.5229 32.2465V29.8899C30.1777 29.3467 30.9181 28.5099 31.6579 27.1777C32.0658 26.4432 31.8711 26.1206 31.8719 26.1221C31.8719 26.1221 31.8927 26.1686 31.5899 26.431C30.9274 27.0046 30.2023 27.3797 29.5226 27.6902V24.1646H28.8516V27.9891C27.8409 28.4376 27.0374 28.8381 26.877 29.728C26.8557 29.8465 26.8285 31.0759 26.7993 31.3767C26.7993 31.3767 26.9721 31.3995 27.3813 31.0663C27.5607 30.9201 28.1112 30.8257 28.8518 30.3719V32.2465C27.7759 32.4086 26.9501 33.3345 26.9501 34.4558C26.9501 35.5771 27.7757 36.503 28.8518 36.6652V37.1324C28.0011 37.0888 27.2531 36.8241 26.6145 35.5185C26.2587 34.7911 25.3283 33.6728 25.3283 33.6728C25.3283 33.6728 25.7661 34.9289 25.8316 36.1898C25.9275 38.0383 27.5615 38.2368 28.8518 38.2571V38.5949H26.3907V39.2659H28.8518V39.6012C27.7759 39.704 26.9501 40.29 26.9501 40.9997C26.9501 41.7093 27.7757 42.2956 28.8518 42.3981V42.7334H26.3907V43.4045H28.8518V43.7481C26.9524 43.8281 26.0326 44.592 25.9308 45.6824C25.7095 48.0514 25.2722 49.8925 25.2722 49.8925C25.2722 49.8925 25.9765 49.024 26.8003 46.9869C27.1793 46.0501 28.0161 45.4593 28.8516 45.3326V45.5765C27.9927 45.8062 27.3414 46.8989 27.3414 48.2148C27.3414 49.5308 27.9927 50.6232 28.8516 50.8531V51.6219C27.7412 51.6514 26.6577 51.8986 26.0917 52.3516C25.2453 53.0293 23.0762 55.231 22.6222 55.7224C24.6884 56.6262 26.9178 57.0965 29.1731 57.1046C29.1843 57.1046 29.195 57.1046 29.2061 57.1046C31.349 57.0911 33.4688 56.6604 35.4467 55.8366C35.0802 55.4363 33.096 53.281 31.9856 52.3518Z" fill="black"/>
</svg>
