<svg width="82" height="82" viewBox="0 0 82 82" fill="none" xmlns="http://www.w3.org/2000/svg">
<path d="M2.53802 20.3047H78.6794V60.9134H2.53802V20.3047Z" fill="#DA3530"/>
<path d="M12.6902 10.1523H68.5273C74.1313 10.1523 78.6794 14.7005 78.6794 20.3045V22.8426H2.53802V20.3045C2.53802 14.7005 7.08621 10.1523 12.6902 10.1523Z" fill="#1F4D9E"/>
<path d="M68.5272 71.0654L12.6901 71.0654C7.08611 71.0654 2.53793 66.5172 2.53793 60.9132V58.3752L78.6794 58.3752V60.9132C78.6794 66.5172 74.1312 71.0654 68.5272 71.0654Z" fill="#1F4D9E"/>
<path d="M2.53802 22.8423H78.6794V25.3803H2.53802V22.8423Z" fill="white"/>
<path d="M2.53802 55.8369H78.6794V58.375H2.53802V55.8369Z" fill="white"/>
<path opacity="0.15" d="M68.5273 10.1523H12.6902C7.08367 10.1523 2.53802 14.698 2.53802 20.3045V60.9133C2.53802 66.5198 7.08367 71.0655 12.6902 71.0655H68.5273C74.1338 71.0655 78.6794 66.5198 78.6794 60.9133V20.3045C78.6794 14.698 74.1338 10.1523 68.5273 10.1523ZM76.1414 60.9133C76.1414 65.1112 72.7252 68.5274 68.5273 68.5274H12.6902C8.49228 68.5274 5.07607 65.1112 5.07607 60.9133V20.3045C5.07607 16.1066 8.49228 12.6904 12.6902 12.6904H68.5273C72.7252 12.6904 76.1414 16.1066 76.1414 20.3045V60.9133Z" fill="black"/>
<path opacity="0.2" d="M68.5273 12.6904H12.6902C8.48468 12.6904 5.07608 16.099 5.07608 20.3046V22.8426C5.07608 18.6371 8.48468 15.2285 12.6902 15.2285H68.5273C72.7328 15.2285 76.1414 18.6371 76.1414 22.8426V20.3046C76.1414 16.099 72.7328 12.6904 68.5273 12.6904Z" fill="white"/>
<path d="M26.1722 30.4565C21.0022 30.4565 16.8144 34.6469 16.8144 39.8169C16.8144 44.9869 21.0047 49.1772 26.1722 49.1772C31.3397 49.1772 35.5325 44.9869 35.5325 39.8169C35.5325 34.6469 31.3422 30.4565 26.1722 30.4565ZM31.5021 47.1518L26.1722 43.2788L20.8423 47.1518L22.8778 40.8879L17.5479 37.0149H24.1341L26.1697 30.751L28.2052 37.0149H34.7914L29.4615 40.8879L31.497 47.1518H31.5021Z" fill="white"/>
</svg>
