<svg width="82" height="82" viewBox="0 0 82 82" fill="none" xmlns="http://www.w3.org/2000/svg">
<path d="M68.5273 10.1523H12.6903C7.08338 10.1523 2.53809 14.6976 2.53809 20.3045V60.9133C2.53809 66.5202 7.08338 71.0655 12.6903 71.0655H68.5273C74.1342 71.0655 78.6795 66.5202 78.6795 60.9133V20.3045C78.6795 14.6976 74.1342 10.1523 68.5273 10.1523Z" fill="#C8342D"/>
<path d="M30.0683 45.4541L2.53809 59.4514V60.9133C2.53809 63.0326 3.19036 64.9971 4.30203 66.6265L31.3982 47.6317C30.883 46.9566 30.4287 46.2333 30.0683 45.4541Z" fill="#F4E959"/>
<path d="M28.9769 40.6088C28.9769 40.2154 29.0556 39.8423 29.0937 39.4566L2.53809 36.8018V44.4159L29.0937 41.7611C29.0556 41.3779 28.9769 41.0048 28.9769 40.6088Z" fill="#F4E959"/>
<path d="M40.6086 28.977C41.0427 28.977 41.4538 29.0583 41.8751 29.1039L46.7 10.1523H34.5173L39.3422 29.1039C39.7635 29.0583 40.1746 28.977 40.6086 28.977Z" fill="#F4E959"/>
<path d="M40.6087 50.1262C45.8652 50.1262 50.1264 45.865 50.1264 40.6085C50.1264 35.352 45.8652 31.0908 40.6087 31.0908C35.3523 31.0908 31.0911 35.352 31.0911 40.6085C31.0911 45.865 35.3523 50.1262 40.6087 50.1262Z" fill="#F4E959"/>
<path d="M31.3982 33.5861L4.30203 14.5913C3.19036 16.2182 2.53809 18.1852 2.53809 20.3045V21.7664L30.0683 35.7637C30.4287 34.9845 30.8805 34.2637 31.3982 33.5886V33.5861Z" fill="#F4E959"/>
<path d="M52.2407 40.6088C52.2407 41.0022 52.162 41.3753 52.1239 41.7611L78.6795 44.4159V36.8018L52.1239 39.4566C52.162 39.8398 52.2407 40.2129 52.2407 40.6088Z" fill="#F4E959"/>
<path d="M76.9155 14.5914L49.8193 33.5862C50.3346 34.2613 50.7889 34.9821 51.1493 35.7613L78.6795 21.7639V20.302C78.6795 18.1827 78.0272 16.2208 76.9155 14.5914Z" fill="#F4E959"/>
<path d="M40.6086 52.2407C40.1746 52.2407 39.7635 52.1595 39.3422 52.1138L34.5173 71.0654H46.7L41.8751 52.1138C41.4538 52.1595 41.0427 52.2407 40.6086 52.2407Z" fill="#F4E959"/>
<path d="M49.8193 47.6317L76.9155 66.6265C78.0272 64.9996 78.6795 63.0326 78.6795 60.9133V59.4514L51.1493 45.4541C50.7889 46.2333 50.3371 46.9566 49.8193 47.6317Z" fill="#F4E959"/>
<path opacity="0.15" d="M68.5273 10.1523H12.6903C7.08373 10.1523 2.53809 14.698 2.53809 20.3045V60.9133C2.53809 66.5198 7.08373 71.0655 12.6903 71.0655H68.5273C74.1339 71.0655 78.6795 66.5198 78.6795 60.9133V20.3045C78.6795 14.698 74.1339 10.1523 68.5273 10.1523ZM76.1415 60.9133C76.1415 65.1112 72.7252 68.5274 68.5273 68.5274H12.6903C8.49234 68.5274 5.07613 65.1112 5.07613 60.9133V20.3045C5.07613 16.1066 8.49234 12.6904 12.6903 12.6904H68.5273C72.7252 12.6904 76.1415 16.1066 76.1415 20.3045V60.9133Z" fill="black"/>
<path opacity="0.2" d="M68.5274 12.6904H12.6903C8.48477 12.6904 5.07617 16.099 5.07617 20.3046V22.8426C5.07617 18.6371 8.48477 15.2285 12.6903 15.2285H68.5274C72.7329 15.2285 76.1415 18.6371 76.1415 22.8426V20.3046C76.1415 16.099 72.7329 12.6904 68.5274 12.6904Z" fill="white"/>
</svg>
