<svg width="82" height="82" viewBox="0 0 82 82" fill="none" xmlns="http://www.w3.org/2000/svg">
<path d="M68.5276 10.1523H12.6905C7.08362 10.1523 2.53833 14.6976 2.53833 20.3045V60.9133C2.53833 66.5202 7.08362 71.0655 12.6905 71.0655H68.5276C74.1345 71.0655 78.6797 66.5202 78.6797 60.9133V20.3045C78.6797 14.6976 74.1345 10.1523 68.5276 10.1523Z" fill="white"/>
<path d="M70.3288 10.3335L40.609 34.1092L10.8892 10.3335C7.21514 10.9941 4.2639 13.6294 3.103 17.103L32.4847 40.6083L3.103 64.114C4.26415 67.5878 7.21514 70.223 10.8892 70.8834L40.609 47.1078L70.3288 70.8834C74.0028 70.2228 76.9541 67.5875 78.115 64.114L48.7333 40.6086L78.115 17.1032C76.9538 13.6294 74.0028 10.9939 70.3288 10.3335Z" fill="#CA0A2B"/>
<path opacity="0.15" d="M68.5276 10.1523H12.6905C7.08372 10.1523 2.53833 14.6975 2.53833 20.3045V60.9133C2.53833 66.5203 7.08372 71.0655 12.6905 71.0655H68.5276C74.1346 71.0655 78.6797 66.5203 78.6797 60.9133V20.3045C78.6797 14.6975 74.1346 10.1523 68.5276 10.1523ZM76.1417 60.9133C76.1417 65.112 72.7263 68.5274 68.5276 68.5274H12.6905C8.49183 68.5274 5.07638 65.112 5.07638 60.9133V20.3045C5.07638 16.1058 8.49183 12.6904 12.6905 12.6904H68.5276C72.7263 12.6904 76.1417 16.1058 76.1417 20.3045V60.9133Z" fill="black"/>
<path opacity="0.2" d="M68.5276 12.6904H12.6905C8.48524 12.6904 5.07639 16.0993 5.07639 20.3046V22.8426C5.07639 18.6373 8.48524 15.2285 12.6905 15.2285H68.5276C72.7329 15.2285 76.1417 18.6373 76.1417 22.8426V20.3046C76.1417 16.0993 72.7329 12.6904 68.5276 12.6904Z" fill="white"/>
</svg>
