<svg width="82" height="82" viewBox="0 0 82 82" fill="none" xmlns="http://www.w3.org/2000/svg">
<path d="M68.5273 10.1523H12.6903C7.08338 10.1523 2.53809 14.6976 2.53809 20.3045V60.9133C2.53809 66.5202 7.08338 71.0655 12.6903 71.0655H68.5273C74.1342 71.0655 78.6795 66.5202 78.6795 60.9133V20.3045C78.6795 14.6976 74.1342 10.1523 68.5273 10.1523Z" fill="#AC2431"/>
<path d="M78.6795 30.4567H43.1468V10.1523H22.8425V30.4567H2.53809V50.7611H22.8425V71.0655H43.1468V50.7611H78.6795V30.4567Z" fill="white"/>
<path d="M78.6795 35.5328H38.0707V10.1523H27.9186V35.5328H2.53809V45.685H27.9186V71.0655H38.0707V45.685H78.6795V35.5328Z" fill="#061A57"/>
<path opacity="0.15" d="M68.5273 10.1523H12.6903C7.08373 10.1523 2.53809 14.698 2.53809 20.3045V60.9133C2.53809 66.5198 7.08373 71.0655 12.6903 71.0655H68.5273C74.1339 71.0655 78.6795 66.5198 78.6795 60.9133V20.3045C78.6795 14.698 74.1339 10.1523 68.5273 10.1523ZM76.1415 60.9133C76.1415 65.1112 72.7252 68.5274 68.5273 68.5274H12.6903C8.49234 68.5274 5.07613 65.1112 5.07613 60.9133V20.3045C5.07613 16.1066 8.49234 12.6904 12.6903 12.6904H68.5273C72.7252 12.6904 76.1415 16.1066 76.1415 20.3045V60.9133Z" fill="black"/>
<path opacity="0.2" d="M68.5274 12.6904H12.6903C8.48477 12.6904 5.07617 16.099 5.07617 20.3046V22.8426C5.07617 18.6371 8.48477 15.2285 12.6903 15.2285H68.5274C72.7329 15.2285 76.1415 18.6371 76.1415 22.8426V20.3046C76.1415 16.099 72.7329 12.6904 68.5274 12.6904Z" fill="white"/>
</svg>
