<svg width="82" height="82" viewBox="0 0 82 82" fill="none" xmlns="http://www.w3.org/2000/svg">
<path d="M68.5279 10.1523H12.6908C7.08392 10.1523 2.53864 14.6976 2.53864 20.3045V60.9133C2.53864 66.5202 7.08392 71.0655 12.6908 71.0655H68.5279C74.1348 71.0655 78.6801 66.5202 78.6801 60.9133V20.3045C78.6801 14.6976 74.1348 10.1523 68.5279 10.1523Z" fill="#FEDE02"/>
<path d="M12.6902 10.1523H40.6087V40.6089H2.53802V20.3045C2.53802 14.7013 7.08697 10.1523 12.6902 10.1523Z" fill="#001B69"/>
<path d="M16.4979 34.9585V40.6089H26.6501V34.9562L34.3584 40.6089H40.6093V37.4589L31.0615 30.4567H40.6093V20.3045H33.6551L40.6093 15.2048V10.1523H36.952L26.6501 17.7079V10.1523H16.4979V17.2424L8.23249 11.1785C6.28454 12.128 4.70587 13.6744 3.70055 15.5893L10.1271 20.3045H2.53864V30.4567H12.0898L2.53864 37.4615V40.6089H8.79289L16.4979 34.9585Z" fill="white"/>
<path d="M4.58302 14.1853L12.9215 20.3043H16.3824L5.98859 12.6782C5.47006 13.1338 4.99976 13.6338 4.58302 14.1853Z" fill="#CA0A2B"/>
<path d="M2.53766 40.6087L16.3817 30.4565V32.9946L5.99879 40.6087H2.53766Z" fill="#CA0A2B"/>
<path d="M24.112 40.6089H19.0359V27.9187H2.53864V22.8426H19.0359V10.1523H24.112V22.8426H40.6093V27.9187H24.112V40.6089Z" fill="#CA0A2B"/>
<path d="M11.4275 25.9357L12.9565 24.825H11.0666L10.4826 23.0273L9.89863 24.825H8.00854L9.53772 25.9357L8.95346 27.7334L10.4826 26.6225L12.0116 27.7334L11.4275 25.9357Z" fill="#FEDE02"/>
<path d="M32.9219 25.9357L34.4509 24.825H32.5608L31.9768 23.0273L31.3928 24.825H29.5029L31.0318 25.9357L30.4478 27.7334L31.9768 26.6225L33.5059 27.7334L32.9219 25.9357Z" fill="#FEDE02"/>
<path d="M22.5185 17.6349L24.0477 16.524H22.1576L21.5736 14.7266L20.9896 16.524H19.0995L20.6287 17.6349L20.0447 19.4324L21.5736 18.3217L23.1025 19.4324L22.5185 17.6349Z" fill="#FEDE02"/>
<path d="M22.5185 33.8942L24.0477 32.7833H22.1576L21.5736 30.9858L20.9896 32.7833H19.0995L20.6287 33.8942L20.0447 35.6916L21.5736 34.5807L23.1025 35.6916L22.5185 33.8942Z" fill="#FEDE02"/>
<path d="M21.5735 29.3665C23.7749 29.3665 25.5595 27.5819 25.5595 25.3805C25.5595 23.1791 23.7749 21.3945 21.5735 21.3945C19.3721 21.3945 17.5875 23.1791 17.5875 25.3805C17.5875 27.5819 19.3721 29.3665 21.5735 29.3665Z" fill="#001B69"/>
<path d="M23.0163 25.8593L25.3511 24.1631H22.4653L21.5734 21.4185L20.6816 24.1631H17.7958L20.1306 25.8593L19.2387 28.6037L21.5734 26.9075L23.9082 28.6037L23.0163 25.8593Z" fill="#FEDE02"/>
<path d="M40.6092 39.7628L27.919 30.4565V32.9946L38.3019 40.6087H40.6092V39.7628Z" fill="#CA0A2B"/>
<path d="M40.6095 10.1523H39.979L26.12 20.3157H29.5809L40.6095 12.2282V10.1523Z" fill="#CA0A2B"/>
<path opacity="0.15" d="M68.5279 10.1523H12.6908C7.08402 10.1523 2.53864 14.6975 2.53864 20.3045V60.9133C2.53864 66.5203 7.08402 71.0655 12.6908 71.0655H68.5279C74.1349 71.0655 78.6801 66.5203 78.6801 60.9133V20.3045C78.6801 14.6975 74.1349 10.1523 68.5279 10.1523ZM76.142 60.9133C76.142 65.112 72.7266 68.5274 68.5279 68.5274H12.6908C8.49213 68.5274 5.07668 65.112 5.07668 60.9133V20.3045C5.07668 16.1058 8.49213 12.6904 12.6908 12.6904H68.5279C72.7266 12.6904 76.142 16.1058 76.142 20.3045V60.9133Z" fill="black"/>
<path opacity="0.2" d="M68.5273 12.6904H12.6903C8.48496 12.6904 5.07611 16.0993 5.07611 20.3046V22.8426C5.07611 18.6373 8.48496 15.2285 12.6903 15.2285H68.5273C72.7326 15.2285 76.1414 18.6373 76.1414 22.8426V20.3046C76.1414 16.0993 72.7326 12.6904 68.5273 12.6904Z" fill="white"/>
</svg>
