<svg width="82" height="82" viewBox="0 0 82 82" fill="none" xmlns="http://www.w3.org/2000/svg">
<path d="M68.5273 10.1523H12.6903C7.08338 10.1523 2.53809 14.6976 2.53809 20.3045V60.9133C2.53809 66.5202 7.08338 71.0655 12.6903 71.0655H68.5273C74.1342 71.0655 78.6795 66.5202 78.6795 60.9133V20.3045C78.6795 14.6976 74.1342 10.1523 68.5273 10.1523Z" fill="#CD312C"/>
<path d="M27.9186 50.7607V71.0651H68.5273C74.1339 71.0651 78.6795 66.5195 78.6795 60.9129V50.7607H27.9186Z" fill="#377D41"/>
<path d="M68.5273 10.1523H27.9186V30.4567H78.6795V20.3045C78.6795 14.698 74.1339 10.1523 68.5273 10.1523Z" fill="white"/>
<path opacity="0.15" d="M68.5273 10.1523H12.6903C7.08373 10.1523 2.53809 14.698 2.53809 20.3045V60.9133C2.53809 66.5198 7.08373 71.0655 12.6903 71.0655H68.5273C74.1339 71.0655 78.6795 66.5198 78.6795 60.9133V20.3045C78.6795 14.698 74.1339 10.1523 68.5273 10.1523ZM76.1415 60.9133C76.1415 65.1112 72.7252 68.5274 68.5273 68.5274H12.6903C8.49234 68.5274 5.07613 65.1112 5.07613 60.9133V20.3045C5.07613 16.1066 8.49234 12.6904 12.6903 12.6904H68.5273C72.7252 12.6904 76.1415 16.1066 76.1415 20.3045V60.9133Z" fill="black"/>
<path opacity="0.2" d="M68.5274 12.6904H12.6903C8.48477 12.6904 5.07617 16.099 5.07617 20.3046V22.8426C5.07617 18.6371 8.48477 15.2285 12.6903 15.2285H68.5274C72.7329 15.2285 76.1415 18.6371 76.1415 22.8426V20.3046C76.1415 16.099 72.7329 12.6904 68.5274 12.6904Z" fill="white"/>
<path d="M23.4136 32.1491C21.9365 30.6136 18.8984 29.1365 17.7867 26.7761C17.7766 26.771 17.7766 26.7583 17.7867 26.7532C17.6725 26.1467 18.0304 25.4766 18.4974 25.1619C18.5608 26.1314 19.9593 25.4411 20.4162 25.3928C20.0151 26.4309 23.175 25.7482 23.5227 25.9335C24.0633 25.9842 23.7334 24.5883 23.8197 24.3294C23.7892 23.9182 20.0101 23.6771 20.4162 24.5934C19.9492 24.6847 19.8882 24.134 19.2487 24.2101C23.6319 16.7838 22.0634 16.398 17.9492 23.6873L18.0609 23.738C17.5304 24.5502 18.0228 22.8497 17.7944 22.5096V22.2736C17.5101 22.2888 17.1091 22.1086 17.1649 21.8167H17.1472V21.8117H17.0532V21.3548H16.9619V20.431H16.868V19.8472H16.901C17.9289 18.634 18.3654 18.8066 16.5253 17.7686C14.7335 18.7838 15.1294 18.5833 16.0634 19.8472H16.0964V20.431H16.005V21.3548H15.9137V21.8142H15.8172L15.7995 21.8167C15.868 22.0325 15.5456 22.2888 15.17 22.2761V22.7C14.8553 23.1441 15.3426 23.6086 15.1142 24.068C15.0279 23.9512 14.9517 23.8421 14.8781 23.738L14.9898 23.6873C10.9188 16.4691 9.2919 16.7305 13.6472 24.134C13.0203 24.1035 13.0101 24.6213 12.5254 24.5198C12.8553 23.6086 9.76398 23.9868 9.4188 24.0553C8.93403 24.1517 9.13454 25.3954 9.12185 25.6593C9.10408 26.0705 13.0101 26.3522 12.5254 25.3192C13.0279 25.3091 13.9619 26.002 14.4188 25.3243C14.7157 25.436 14.9873 25.6746 15.1167 25.9893H15.1116L15.0913 26.0096C15.1218 26.6314 12.0457 26.5197 11.7995 26.5197C11.8147 26.5197 11.4822 26.5375 11.4848 26.5248C8.93657 26.6923 12.6193 28.3268 12.6193 28.3268C12.6193 28.3268 13.6193 28.5781 13.7335 28.5781C10.7081 30.8065 9.56855 33.7963 12.3909 31.309C12.3909 31.309 14.3198 29.1162 15.6091 28.7101C15.7842 28.6745 17.0583 28.2025 17.1218 28.1466C18.3147 29.3547 19.5405 30.3547 20.104 30.9207C20.6674 31.4867 25.34 34.0247 23.4161 32.1542L23.4136 32.1491Z" fill="white"/>
</svg>
