<svg width="200" height="200" viewBox="0 0 200 200" fill="none" xmlns="http://www.w3.org/2000/svg">
<g clip-path="url(#clip0_106_6697)">
<path d="M99.6447 200C70.221 187.934 47.8443 170.761 33.1312 148.953C21.3158 131.441 14.3776 110.905 12.5084 87.9122C9.49261 50.8221 20.8208 19.1073 22.1815 15.4628C25.6367 13.8061 55.7676 0 99.6447 0C143.521 0 173.652 13.8055 177.107 15.4628C178.468 19.1073 189.797 50.8221 186.782 87.9116C184.911 110.904 177.973 131.441 166.159 148.952C151.444 170.761 129.068 187.934 99.6447 200Z" fill="#633492"/>
<path fill-rule="evenodd" clip-rule="evenodd" d="M99.6449 195.368C71.8131 183.669 50.6303 167.253 36.6677 146.556C25.2691 129.662 18.5728 109.814 16.7633 87.5638C14.0905 54.696 22.9735 26.1535 25.5931 18.5995C32.8293 15.3822 60.6398 4.27734 99.6449 4.27734C138.649 4.27734 166.46 15.3828 173.697 18.5995C176.316 26.1529 185.198 54.6954 182.526 87.5638C180.716 109.814 174.02 129.662 162.622 146.556C148.659 167.253 127.476 183.669 99.6443 195.369M99.6443 190.721C73.4068 179.4 53.4155 163.742 40.2045 144.161C29.2234 127.884 22.7677 108.724 21.0186 87.2166C18.5976 57.4399 25.8817 31.3569 29.0294 21.7736C38.2826 17.8779 64.1624 8.55469 99.6449 8.55469C135.127 8.55469 161.006 17.8773 170.26 21.7736C173.408 31.3563 180.692 57.4399 178.271 87.2166C176.521 108.725 170.067 127.884 159.085 144.161C145.874 163.742 125.881 179.401 99.6443 190.721Z" fill="white"/>
<path d="M62.4159 140.434C61.77 139.804 61.0104 139.304 60.1777 138.959C59.3268 138.603 58.4031 138.423 57.4321 138.423C56.4612 138.423 55.5375 138.603 54.686 138.959C53.8534 139.304 53.094 139.804 52.4484 140.434C51.8096 141.059 51.2983 141.804 50.9428 142.625C50.5759 143.473 50.3892 144.389 50.3946 145.314C50.3946 146.265 50.5791 147.169 50.9428 148.002C51.2987 148.823 51.81 149.567 52.4484 150.193C53.0939 150.822 53.8534 151.323 54.686 151.668C55.5363 152.023 56.4606 152.204 57.4321 152.204C58.4037 152.204 59.328 152.024 60.1777 151.668C61.0104 151.323 61.77 150.822 62.4159 150.193C63.0544 149.567 63.5659 148.823 63.922 148.002C64.2857 147.169 64.4702 146.264 64.4702 145.314C64.4702 144.363 64.2863 143.458 63.922 142.625C63.5657 141.804 63.0543 141.06 62.4159 140.434ZM62.1581 145.314C62.1627 145.951 62.0388 146.584 61.7938 147.172C61.561 147.731 61.2186 148.237 60.7868 148.66C60.35 149.084 59.8369 149.422 59.2747 149.654C58.1335 150.136 56.7302 150.136 55.5889 149.654C55.0268 149.421 54.5138 149.084 54.0769 148.659C53.6453 148.236 53.303 147.731 53.0704 147.172C52.8255 146.584 52.7018 145.951 52.7068 145.314C52.7068 144.65 52.8292 144.024 53.0704 143.454C53.3034 142.896 53.6458 142.39 54.0775 141.966C54.5146 141.543 55.0276 141.205 55.5895 140.972C56.1736 140.729 56.8003 140.606 57.4327 140.61C58.0832 140.61 58.7041 140.732 59.2753 140.972C59.8489 141.213 60.3575 141.547 60.7874 141.966C61.2187 142.39 61.5611 142.896 61.7944 143.454C62.039 144.043 62.1627 144.675 62.1581 145.314ZM75.2757 146.905C76.7103 146.093 77.4128 144.705 77.4128 143.134C77.4128 140.616 75.7754 138.576 72.7294 138.576H67.8491V152.051H70.1606V140.819H72.5993C73.212 140.819 73.7997 141.063 74.233 141.497C74.6662 141.931 74.9096 142.52 74.9096 143.134C74.9096 143.748 74.6662 144.336 74.233 144.771C73.7997 145.205 73.212 145.449 72.5993 145.449H70.8271L76.278 152.051H79.3884L75.2757 146.905ZM91.3813 149.959H84.5348V138.576H82.2227V152.051H90.2566L91.3807 149.959M100.299 137.652L93.4592 152.05H96.0067L100.3 142.897L101.688 145.846H100.299L99.3318 147.938H102.677L104.592 152.051H107.14L100.299 137.652ZM109.693 143.816L118.584 152.441V139.063H116.038V146.764L107.52 138.138V147.406L109.693 151.518V143.817M130.687 140.509C130.051 139.899 129.304 139.418 128.486 139.092C127.644 138.75 126.724 138.576 125.754 138.576H121.198V152.052H125.754C126.724 152.052 127.644 151.877 128.486 151.536C129.329 151.193 130.069 150.717 130.688 150.118C131.312 149.51 131.811 148.784 132.156 147.983C132.513 147.163 132.694 146.265 132.694 145.314C132.694 144.362 132.513 143.465 132.156 142.644C131.811 141.843 131.312 141.117 130.687 140.509ZM123.511 140.667H125.526C126.191 140.667 126.825 140.787 127.41 141.023C127.997 141.26 128.519 141.591 128.959 142.006C129.402 142.423 129.756 142.925 130.003 143.482C130.254 144.046 130.382 144.662 130.382 145.313C130.382 145.976 130.255 146.595 130.003 147.153C129.755 147.706 129.401 148.205 128.959 148.621C128.027 149.49 126.799 149.968 125.526 149.959H123.511V140.667ZM148.346 142.624C147.99 141.804 147.479 141.06 146.841 140.434C146.195 139.804 145.436 139.304 144.603 138.959C143.751 138.603 142.828 138.423 141.857 138.423C140.886 138.423 139.962 138.603 139.111 138.959C138.278 139.304 137.519 139.804 136.873 140.434C136.235 141.06 135.723 141.804 135.367 142.625C135 143.473 134.814 144.389 134.819 145.314C134.819 146.265 135.004 147.169 135.367 148.002C135.723 148.823 136.235 149.567 136.873 150.193C137.519 150.822 138.278 151.323 139.111 151.668C139.961 152.023 140.885 152.204 141.857 152.204C142.828 152.204 143.753 152.024 144.603 151.668C145.435 151.323 146.195 150.822 146.841 150.193C147.479 149.567 147.99 148.822 148.347 148.002C148.71 147.169 148.895 146.264 148.895 145.314C148.895 144.363 148.711 143.458 148.346 142.624ZM146.582 145.314C146.587 145.951 146.464 146.584 146.219 147.172C145.986 147.731 145.644 148.237 145.212 148.66C144.775 149.084 144.262 149.421 143.7 149.654C142.557 150.136 141.155 150.136 140.013 149.654C139.451 149.421 138.938 149.084 138.501 148.659C138.07 148.236 137.728 147.73 137.495 147.172C137.25 146.584 137.126 145.951 137.131 145.314C137.131 144.65 137.254 144.024 137.495 143.454C137.728 142.896 138.07 142.39 138.502 141.966C138.939 141.543 139.452 141.205 140.013 140.972C140.597 140.729 141.224 140.606 141.857 140.61C142.508 140.61 143.128 140.732 143.7 140.972C144.274 141.213 144.782 141.547 145.212 141.966C145.643 142.39 145.986 142.896 146.219 143.454C146.461 144.025 146.582 144.65 146.582 145.314ZM89.9284 165.57C89.7541 165.837 89.5512 166.084 89.3234 166.307C88.8863 166.731 88.3733 167.068 87.8114 167.302C86.6695 167.783 85.2669 167.783 84.1256 167.302C83.5637 167.068 83.0507 166.731 82.6136 166.307C82.1816 165.884 81.8391 165.378 81.6065 164.82C81.3616 164.231 81.2379 163.598 81.2428 162.96C81.238 162.323 81.3617 161.69 81.6065 161.102C81.8399 160.543 82.1823 160.038 82.6136 159.614C83.0509 159.19 83.5638 158.853 84.1256 158.62C84.7097 158.377 85.3364 158.254 85.9688 158.258C86.6193 158.258 87.2402 158.379 87.812 158.619C88.3856 158.861 88.8941 159.195 89.3234 159.614C89.5511 159.835 89.7522 160.084 89.9284 160.352V157.254C89.5499 157.004 89.1443 156.786 88.7144 156.607C87.8634 156.251 86.9398 156.07 85.9688 156.07C84.9984 156.07 84.0742 156.251 83.2232 156.607C82.3905 156.952 81.631 157.452 80.985 158.082C80.3465 158.707 79.835 159.451 79.4789 160.271C79.112 161.12 78.9253 162.036 78.9307 162.96C78.9307 163.912 79.1158 164.817 79.4789 165.65C79.8351 166.47 80.3466 167.214 80.985 167.84C81.6306 168.47 82.39 168.97 83.2226 169.315C84.0724 169.671 84.9966 169.851 85.9688 169.851C86.9398 169.851 87.864 169.671 88.7144 169.315C89.1443 169.135 89.5493 168.918 89.9278 168.667V165.57M93.27 156.069H95.5821V169.545H93.27V156.069ZM107.473 156.069H98.4844V158.161H102.217V169.545H104.529V158.161H108.853L107.473 156.069ZM119.626 156.069L116.033 161.203L112.439 156.069H109.707C109.782 156.223 114.877 163.627 114.877 163.627V169.545H117.189V163.627L122.405 156.069H119.626Z" fill="white"/>
<path d="M143.24 77.756C158.103 76.9519 157.613 68.1958 157.613 68.1958C148.906 72.0175 145.972 65.5052 142.408 64.7794C154.69 60.5506 152.867 51.2778 152.867 51.2778C148.089 57.466 140.874 51.9841 137.362 52.5173C147.243 45.9363 143.444 36.6457 143.444 36.6457C141.591 43.6166 129.434 41.5505 129.434 41.5505C136.16 31.6028 130.169 24.8417 130.169 24.8417C130.671 32.1811 117.902 34.076 117.902 34.076C121.215 21.0745 113.786 17.7944 113.786 17.7944C115.257 23.9778 106.667 28.8714 106.667 28.8714L99.6457 15.1523L92.6242 28.8714C92.6242 28.8714 84.0338 23.9772 85.5039 17.7944C85.5039 17.7944 78.0761 21.0745 81.3894 34.0766C81.3894 34.0766 68.6189 32.1811 69.1221 24.8423C69.1221 24.8423 63.1301 31.6034 69.8572 41.5505C69.8572 41.5505 57.6993 43.6166 55.8466 36.6457C55.8466 36.6457 52.0467 45.9363 61.9291 52.5173C58.4172 51.9841 51.2011 57.466 46.4237 51.2778C46.4237 51.2778 44.6006 60.5506 56.8827 64.7794C53.3193 65.5052 50.3857 72.0169 41.6777 68.1958C41.6777 68.1958 41.188 76.9519 56.0512 77.756C50.7263 80.8915 51.8693 87.0513 42.104 86.0097C42.104 86.0097 45.3055 94.0382 58.4704 90.5779C54.431 94.8339 56.5243 100.354 47.4231 102.077C47.4231 102.077 53.3583 109.324 64.764 101.914C62.6352 105.9 65.625 111.917 57.6301 115.895C57.6301 115.895 65.9017 120.728 74.6003 110.385C74.2141 116.621 78.0211 121.307 71.9523 126.653C71.9523 126.653 81.0937 129.148 86.453 116.317C87.3979 121.723 92.584 123.941 88.4576 132.479C88.4576 132.479 95.2905 133.007 99.6457 121.821C104.001 133.007 110.833 132.479 110.833 132.479C106.707 123.941 111.893 121.723 112.838 116.317C118.198 129.148 127.339 126.653 127.339 126.653C121.27 121.307 125.076 116.621 124.691 110.384C133.39 120.729 141.661 115.895 141.661 115.895C133.666 111.916 136.657 105.9 134.527 101.914C145.932 109.324 151.867 102.077 151.867 102.077C142.766 100.355 144.86 94.834 140.821 90.5773C153.985 94.0382 157.187 86.0091 157.187 86.0091C147.421 87.0513 148.565 80.8915 143.24 77.756ZM79.626 41.5867C85.5559 41.5867 85.045 36.9912 84.4076 35.9205C84.4076 35.9205 89.3488 36.1409 93.4928 39.1947C93.4928 39.1947 98.4346 33.5285 99.6457 28.9958C100.857 33.5285 105.798 39.1947 105.798 39.1947C109.941 36.1415 114.883 35.9205 114.883 35.9205C114.245 36.9912 113.735 41.5867 119.665 41.5867C125.594 41.5867 126.836 43.5384 126.836 43.5384C125.116 43.193 122.694 42.8458 116.286 45.0185C109.878 47.1901 111.281 41.5867 111.281 41.5867C102.195 42.2479 99.6457 47.3299 99.6457 47.3299C99.6457 47.3299 97.0958 42.2479 88.01 41.5867C88.01 41.5867 89.4126 47.1901 83.0055 45.0185C76.5978 42.8458 74.1751 43.193 72.4537 43.5384C72.4537 43.5384 73.6967 41.5867 79.626 41.5867ZM103.439 84.2001C100.952 85.7116 99.6457 87.8601 99.6457 87.8601C99.6457 87.8601 98.3382 85.7122 95.8523 84.2001C95.8523 84.2001 96.1391 82.4297 95.517 82.3124C94.8961 82.1945 93.0783 82.265 93.0783 82.265C93.0783 82.265 90.1855 81.0847 89.6834 78.7236C89.6834 78.7236 91.2611 79.1721 93.3651 78.5114C95.4691 77.8502 96.3295 78.6062 96.9989 78.8889C97.6683 79.1727 98.3702 79.2669 99.6451 79.2669C100.92 79.2669 101.622 79.1721 102.291 78.8889C102.96 78.6062 103.821 77.8502 105.924 78.5114C108.03 79.1721 109.607 78.7236 109.607 78.7236C109.104 81.0847 106.211 82.265 106.211 82.265C106.211 82.265 104.394 82.1945 103.774 82.3124C103.152 82.4297 103.439 84.2001 103.439 84.2001H103.439ZM89.8904 65.6367C86.7983 65.5733 78.9247 65.0069 78.6373 58.9627V58.8057C78.6373 58.8057 82.9996 58.1142 84.663 58.8057C87.6907 60.0648 90.3044 65.8258 95.2142 61.5123C95.2142 61.5123 91.9311 68.7848 89.8904 72.4044C89.8904 72.4044 92.9831 65.6995 89.8904 65.6367ZM109.4 65.6367C106.308 65.6995 109.4 72.4044 109.4 72.4044C107.36 68.7842 104.076 61.5123 104.076 61.5123C108.985 65.8258 111.6 60.0653 114.628 58.8057C116.291 58.1142 120.653 58.8057 120.653 58.8057V58.9627C120.365 65.0069 112.492 65.5727 109.4 65.6367ZM132.798 84.7441C123.905 82.9967 120.365 87.0578 120.365 87.0578C126.152 87.8601 128.63 94.6834 128.63 94.6834C124.39 92.0865 119.696 92.6772 119.696 92.6772C125.434 107.149 106.331 110.501 99.6451 118.457C92.9583 110.501 73.8564 107.149 79.5941 92.6772C79.5941 92.6772 74.9001 92.0865 70.6602 94.6834C70.6602 94.6834 73.1391 87.8607 78.9247 87.0578C78.9247 87.0578 75.3861 82.9967 66.4925 84.7441C66.4925 84.7441 71.1309 79.2669 76.9165 80.305C76.9165 80.305 73.9516 75.159 65.3926 74.6394C65.3926 74.6394 66.7793 72.7978 71.8482 72.4204C71.8482 72.4204 67.9909 68.0287 69.7436 59.97C69.7436 59.97 66.7473 57.61 67.8312 50.5585C67.8312 50.5585 68.9619 56.2762 71.3698 55.564C73.0433 55.0681 72.2781 52.9748 70.9635 53.1324C70.9635 53.1324 71.3455 51.5741 73.8079 50.5591C76.2708 49.5441 76.9165 49.4499 76.8201 47.4899C76.8201 47.4899 78.5658 46.7581 79.1872 48.4343C79.8093 50.1106 78.1116 50.9134 77.2506 51.0781C76.3902 51.244 75.1945 51.5978 74.6689 52.5896C74.6689 52.5896 76.486 53.2035 75.0509 54.8086C73.6169 56.4143 68.4042 68.4541 80.6461 76.8121C80.6461 76.8121 80.3593 80.6836 84.7103 84.3198C84.7103 84.3198 82.8452 84.1462 82.5188 84.225C82.1924 84.3038 82.0807 87.8293 82.5188 87.9555C82.9564 88.0811 89.7787 87.9555 89.7787 87.9555C89.7787 87.9555 82.9085 90.0334 82.6401 90.2769C82.3716 90.5199 82.7181 92.3626 82.941 92.3934C83.164 92.4248 88.7267 90.7415 91.5964 90.5525C91.5964 90.5525 85.0929 93.5269 83.993 94.4239C83.993 94.4239 85.0444 96.7377 86.479 97.5405C86.479 97.5405 95.8836 94.1407 99.6445 91.0715C103.406 94.1407 112.811 97.5405 112.811 97.5405C114.245 96.7377 115.297 94.4239 115.297 94.4239C114.197 93.5269 107.694 90.5525 107.694 90.5525C110.563 90.7415 116.126 92.4248 116.349 92.3934C116.571 92.3626 116.918 90.5205 116.649 90.2769C116.38 90.0334 109.512 87.9555 109.512 87.9555C109.512 87.9555 116.333 88.0811 116.771 87.9555C117.209 87.8293 117.098 84.3038 116.771 84.225C116.444 84.1462 114.579 84.3198 114.579 84.3198C118.93 80.6836 118.644 76.8121 118.644 76.8121C130.885 68.4547 125.673 56.4137 124.238 54.8086C122.804 53.2029 124.621 52.5896 124.621 52.5896C124.094 51.5978 122.899 51.244 122.039 51.0787C121.177 50.9134 119.48 50.1106 120.102 48.4343C120.724 46.7575 122.469 47.4899 122.469 47.4899C122.374 49.4499 123.019 49.5441 125.481 50.5591C127.944 51.5747 128.327 53.1324 128.327 53.1324C127.012 52.9748 126.247 55.0681 127.92 55.564C130.327 56.2768 131.458 50.5585 131.458 50.5585C132.542 57.6106 129.546 59.97 129.546 59.97C131.299 68.0287 127.442 72.4204 127.442 72.4204C132.51 72.7978 133.898 74.6394 133.898 74.6394C125.338 75.159 122.374 80.305 122.374 80.305C128.16 79.2663 132.798 84.7441 132.798 84.7441Z" fill="#FDE192"/>
<path d="M99.6455 96.1191C99.6455 96.1191 89.0499 96.5469 87.532 99.9948C87.2535 100.627 87.532 105.142 87.532 105.142C87.532 105.142 88.4243 105.331 89.1256 104.843C89.1256 104.843 89.0139 106.841 90.4644 107.849C91.9144 108.856 94.194 110.272 94.2419 110.272C94.2898 110.272 95.6286 109.265 96.3937 109.202C97.1583 109.14 98.8164 112.035 99.6455 112.853C100.473 112.035 102.131 109.14 102.896 109.202C103.662 109.265 105.001 110.272 105.049 110.272C105.096 110.272 107.375 108.856 108.825 107.849C110.277 106.842 110.165 104.843 110.165 104.843C110.866 105.331 111.758 105.142 111.758 105.142C111.758 105.142 112.037 100.627 111.758 99.9948C110.241 96.5469 99.6455 96.1197 99.6455 96.1197" fill="#FDE192"/>
</g>
<defs>
<clipPath id="clip0_106_6697">
<rect width="200" height="200" fill="white"/>
</clipPath>
</defs>
</svg>
