<svg width="82" height="82" viewBox="0 0 82 82" fill="none" xmlns="http://www.w3.org/2000/svg">
<path d="M68.5273 10.1523H12.6902C7.08331 10.1523 2.53802 14.6976 2.53802 20.3045V60.9133C2.53802 66.5202 7.08331 71.0655 12.6902 71.0655H68.5273C74.1342 71.0655 78.6794 66.5202 78.6794 60.9133V20.3045C78.6794 14.6976 74.1342 10.1523 68.5273 10.1523Z" fill="#173E1B"/>
<path d="M25.3804 10.1523H12.6902C7.08367 10.1523 2.53802 14.698 2.53802 20.3045V60.9133C2.53802 66.5198 7.08367 71.0655 12.6902 71.0655H25.3804V10.1523Z" fill="white"/>
<path opacity="0.15" d="M68.5273 10.1523H12.6902C7.08367 10.1523 2.53802 14.698 2.53802 20.3045V60.9133C2.53802 66.5198 7.08367 71.0655 12.6902 71.0655H68.5273C74.1338 71.0655 78.6794 66.5198 78.6794 60.9133V20.3045C78.6794 14.698 74.1338 10.1523 68.5273 10.1523ZM76.1414 60.9133C76.1414 65.1112 72.7252 68.5274 68.5273 68.5274H12.6902C8.49228 68.5274 5.07607 65.1112 5.07607 60.9133V20.3045C5.07607 16.1066 8.49228 12.6904 12.6902 12.6904H68.5273C72.7252 12.6904 76.1414 16.1066 76.1414 20.3045V60.9133Z" fill="black"/>
<path opacity="0.2" d="M68.5272 12.6904H12.6902C8.48465 12.6904 5.07605 16.099 5.07605 20.3046V22.8426C5.07605 18.6371 8.48465 15.2285 12.6902 15.2285H68.5272C72.7328 15.2285 76.1414 18.6371 76.1414 22.8426V20.3046C76.1414 16.099 72.7328 12.6904 68.5272 12.6904Z" fill="white"/>
<path d="M66.6695 48.4515C59.8371 54.5251 49.3727 53.9109 43.2966 47.0759C37.2231 40.2435 37.8373 29.7791 44.6722 23.703C44.959 23.4492 45.2534 23.2056 45.5504 22.9746C38.2662 25.302 32.9921 32.1243 32.9921 40.18C32.9921 50.1546 41.0783 58.2408 51.0529 58.2408C58.3574 58.2408 64.6492 53.9032 67.4943 47.6622C67.2304 47.9312 66.9563 48.1952 66.6695 48.4515Z" fill="white"/>
<path d="M58.3345 33.7106L58.7635 38.0633L60.9741 34.2892L65.2482 35.2258L62.3421 31.9568L64.5527 28.1827L60.5452 29.9365L57.6391 26.6675L58.0706 31.0202L54.063 32.774L58.3345 33.7106Z" fill="white"/>
</svg>
