<svg width="82" height="82" viewBox="0 0 82 82" fill="none" xmlns="http://www.w3.org/2000/svg">
<path d="M12.6902 10.1523C7.08361 10.1523 2.53796 14.698 2.53796 20.3045V40.6089H40.6087V10.1523H12.6902Z" fill="white"/>
<path d="M78.6794 20.3045C78.6794 14.698 74.1337 10.1523 68.5272 10.1523H40.6086V40.6089H78.6794V20.3045Z" fill="#C92D25"/>
<path d="M12.6902 71.0655C7.08361 71.0655 2.53796 66.5198 2.53796 60.9133V40.6089H40.6087V71.0655H12.6902Z" fill="#081D53"/>
<path d="M78.6794 60.9133C78.6794 66.5198 74.1337 71.0655 68.5272 71.0655H40.6086V40.6089H78.6794V60.9133Z" fill="white"/>
<path opacity="0.15" d="M68.5272 10.1523H12.6902C7.08361 10.1523 2.53796 14.698 2.53796 20.3045V60.9133C2.53796 66.5198 7.08361 71.0655 12.6902 71.0655H68.5272C74.1337 71.0655 78.6794 66.5198 78.6794 60.9133V20.3045C78.6794 14.698 74.1337 10.1523 68.5272 10.1523ZM76.1413 60.9133C76.1413 65.1112 72.7251 68.5274 68.5272 68.5274H12.6902C8.49222 68.5274 5.07601 65.1112 5.07601 60.9133V20.3045C5.07601 16.1066 8.49222 12.6904 12.6902 12.6904H68.5272C72.7251 12.6904 76.1413 16.1066 76.1413 20.3045V60.9133Z" fill="black"/>
<path opacity="0.2" d="M68.5272 12.6904H12.6902C8.48465 12.6904 5.07605 16.099 5.07605 20.3046V22.8426C5.07605 18.6371 8.48465 15.2285 12.6902 15.2285H68.5272C72.7328 15.2285 76.1414 18.6371 76.1414 22.8426V20.3046C76.1414 16.099 72.7328 12.6904 68.5272 12.6904Z" fill="white"/>
<path d="M22.3653 16.9312L20.2689 23.3854H13.4822L18.9745 27.3752L16.8755 33.8295L22.3653 29.8397L27.8577 33.8295L25.7587 27.3752L31.2485 23.3854H24.4643L22.3653 16.9312Z" fill="#081D53"/>
<path d="M58.2151 45.6445L56.1187 52.0988H49.332L54.8243 56.0861L52.7253 62.5403L58.2151 58.553L63.7075 62.5403L61.6085 56.0861L67.0983 52.0988H60.3141L58.2151 45.6445Z" fill="#C92D25"/>
</svg>
