<svg width="82" height="82" viewBox="0 0 82 82" fill="none" xmlns="http://www.w3.org/2000/svg">
<path d="M75.3394 68.3929L5.87811 12.8249C7.68266 11.1803 10.0583 10.1523 12.6902 10.1523H68.5273C74.1338 10.1523 78.6795 14.698 78.6795 20.3045V60.9133C78.6795 63.8879 77.3774 66.5376 75.3394 68.3929Z" fill="#BE2A2C"/>
<path d="M5.8781 12.8247L75.3394 68.3927C73.5348 70.0374 71.1592 71.0653 68.5273 71.0653H12.6902C7.08367 71.0653 2.53802 66.5196 2.53802 60.9131V20.3043C2.53802 17.3297 3.84004 14.68 5.8781 12.8247Z" fill="black"/>
<path opacity="0.15" d="M2.53802 20.3045V60.9133C2.53802 66.5198 7.08367 71.0655 12.6902 71.0655H68.5273C74.1338 71.0655 78.6794 66.5198 78.6794 60.9133V20.3045C78.6794 14.698 74.1338 10.1523 68.5273 10.1523H12.6902C7.08367 10.1523 2.53802 14.698 2.53802 20.3045ZM5.07607 20.3045C5.07607 16.1066 8.49228 12.6904 12.6902 12.6904H68.5273C72.7252 12.6904 76.1414 16.1066 76.1414 20.3045V60.9133C76.1414 65.1112 72.7252 68.5274 68.5273 68.5274H12.6902C8.49228 68.5274 5.07607 65.1112 5.07607 60.9133V20.3045Z" fill="black"/>
<path opacity="0.2" d="M12.6903 12.6904H68.5273C72.7328 12.6904 76.1414 16.099 76.1414 20.3046V22.8426C76.1414 18.6371 72.7328 15.2285 68.5273 15.2285H12.6903C8.48471 15.2285 5.07611 18.6371 5.07611 22.8426V20.3046C5.07611 16.099 8.48471 12.6904 12.6903 12.6904Z" fill="white"/>
<path d="M62.8979 37.5427C62.6517 34.299 61.573 33.8346 61.408 33.3397C61.2405 32.8397 61.6745 33.4716 62.04 33.6062C62.4055 33.7407 61.974 32.9082 61.8725 32.5402C61.771 32.1722 62.9715 33.3067 63.271 33.4057C63.5704 33.5046 62.573 30.6773 62.2735 30.4768C61.974 30.2762 62.573 30.5427 62.7735 30.6087C62.974 30.6747 60.9436 27.5148 60.5121 27.5148C60.0806 27.5148 60.8776 27.3473 61.1111 27.3473C61.3446 27.3473 58.7811 25.2839 58.3497 25.2839C57.9182 25.2839 59.2811 24.7509 59.4131 24.7179C59.6466 24.7509 56.4512 23.02 53.5908 24.7509C53.4233 24.6189 54.9385 23.5707 54.9893 23.1215C53.9487 22.2941 54.8421 22.6316 55.2888 21.7916C55.0883 21.5251 54.7228 21.624 54.5223 21.5581C54.6314 21.0403 55.903 20.0581 54.4233 20.3271C54.3142 20.2433 55.2863 18.9692 54.0908 19.4286C53.9233 19.3956 54.9563 17.9642 54.7558 17.7637C47.5681 20.8905 51.799 24.9032 49.6315 26.3473C48.6264 26.289 47.8269 25.0479 47.0021 24.6494C46.5351 24.5174 45.4716 24.9159 45.0732 24.9489C44.6747 24.9819 43.1087 24.6494 43.0097 24.7484C43.2534 25.0225 45.261 25.6291 45.5706 26.2788C45.8371 26.4438 48.332 27.1773 47.5351 28.2077C45.1366 28.7077 43.9133 25.4666 40.8473 29.5047C40.1925 30.4818 37.3321 35.1366 40.1823 32.0986C39.525 34.063 40.393 32.5554 41.4463 32.2661C41.5453 32.5326 41.2458 32.7991 41.3473 33.1975C41.4793 33.3295 42.0783 32.5326 42.4793 32.3651C42.5453 32.6645 42.1138 33.2305 42.3473 33.596C42.5148 33.629 43.5123 32.464 43.8447 32.3321C44.1772 32.2001 43.6772 33.431 43.8447 33.53C44.8574 32.9133 45.7153 30.7585 45.4742 33.497C45.8396 33.2305 46.7711 31.9666 46.8726 31.7661C46.5833 33.8727 49.0401 36.4361 50.5655 37.2559C50.766 36.8904 50.4995 36.1239 50.6645 36.1569C51.1315 36.6569 51.9944 37.3879 52.1949 37.3879C52.3954 37.3879 52.0629 36.5884 52.3269 36.5884C52.8599 37.0884 54.3903 39.0503 57.3852 39.9487C57.1847 39.3828 56.7532 38.8828 56.7202 38.6188C56.9208 38.6518 57.6187 38.9843 57.7507 38.9513C57.8827 38.9183 56.2862 36.9538 56.3852 36.6899C56.7507 36.6569 56.9182 36.8904 57.0502 36.7229C56.8827 36.4564 55.4868 34.893 55.4868 34.5275C55.4868 34.162 55.9182 34.5935 56.0527 34.5275C56.1873 34.4615 55.5198 33.063 55.6543 32.898C55.8827 32.6087 57.8827 34.5985 57.8192 33.3574C58.8091 34.1671 60.7507 35.7178 62.0806 37.6899C61.8979 40.7355 59.2558 42.9386 55.9538 41.6492C57.4258 43.7355 62.4842 42.8421 62.8496 39.0554C65.1136 43.634 61.1898 46.5705 58.4157 45.8091C62.474 48.2989 66.8902 42.3294 62.9004 37.5351L62.8979 37.5427Z" fill="#F4D24B"/>
<path d="M22.411 31.1953L23.3273 33.8298L26.1166 33.8856L23.8932 35.5709L24.7003 38.2409L22.411 36.647L20.1217 38.2409L20.9288 35.5709L18.7055 33.8856L21.4948 33.8298L22.411 31.1953Z" fill="white"/>
<path d="M13.8426 42.8779L14.7588 45.5124L17.5481 45.5683L15.3248 47.2535L16.1319 49.9236L13.8426 48.3297L11.5533 49.9236L12.3604 47.2535L10.137 45.5683L12.9263 45.5124L13.8426 42.8779Z" fill="white"/>
<path d="M22.411 58.4565L23.3273 61.091L26.1166 61.1469L23.8932 62.8321L24.7003 65.5022L22.411 63.9083L20.1217 65.5022L20.9288 62.8321L18.7055 61.1469L21.4948 61.091L22.411 58.4565Z" fill="white"/>
<path d="M30.2004 42.0986L31.1166 44.7331L33.9059 44.789L31.6826 46.4742L32.4897 49.1443L30.2004 47.5504L27.9111 49.1443L28.7182 46.4742L26.4948 44.789L29.2842 44.7331L30.2004 42.0986Z" fill="white"/>
<path d="M26.3068 51.8369L26.7637 53.1542L28.1571 53.1821L27.0454 54.0247L27.4489 55.3597L26.3043 54.5628L25.1596 55.3597L25.5632 54.0247L24.4515 53.1821L25.8449 53.1542L26.3017 51.8369H26.3068Z" fill="white"/>
</svg>
