<svg width="82" height="82" viewBox="0 0 82 82" fill="none" xmlns="http://www.w3.org/2000/svg">
<path d="M2.53833 27.9185H78.6797V53.2989H2.53833V27.9185Z" fill="white"/>
<path d="M12.6905 10.1523H68.5276C74.1316 10.1523 78.6797 14.7005 78.6797 20.3045V30.4567H2.53833V20.3045C2.53833 14.7005 7.08651 10.1523 12.6905 10.1523Z" fill="#C53A28"/>
<path d="M68.5275 71.0654L12.6904 71.0654C7.08642 71.0654 2.53824 66.5172 2.53824 60.9132V50.7611L78.6797 50.7611V60.9132C78.6797 66.5172 74.1315 71.0654 68.5275 71.0654Z" fill="#1334A3"/>
<path opacity="0.15" d="M68.5276 10.1523H12.6905C7.08397 10.1523 2.53833 14.698 2.53833 20.3045V60.9133C2.53833 66.5198 7.08397 71.0655 12.6905 71.0655H68.5276C74.1341 71.0655 78.6797 66.5198 78.6797 60.9133V20.3045C78.6797 14.698 74.1341 10.1523 68.5276 10.1523ZM76.1417 60.9133C76.1417 65.1112 72.7255 68.5274 68.5276 68.5274H12.6905C8.49259 68.5274 5.07638 65.1112 5.07638 60.9133V20.3045C5.07638 16.1066 8.49259 12.6904 12.6905 12.6904H68.5276C72.7255 12.6904 76.1417 16.1066 76.1417 20.3045V60.9133Z" fill="black"/>
<path opacity="0.2" d="M68.5276 12.6904H12.6905C8.48498 12.6904 5.07639 16.099 5.07639 20.3046V22.8426C5.07639 18.6371 8.48498 15.2285 12.6905 15.2285H68.5276C72.7331 15.2285 76.1417 18.6371 76.1417 22.8426V20.3046C76.1417 16.099 72.7331 12.6904 68.5276 12.6904Z" fill="white"/>
<path d="M40.6089 48.8577C36.0607 48.8577 32.3603 45.1572 32.3603 40.609C32.3603 36.0608 36.0607 32.3604 40.6089 32.3604C45.1571 32.3604 48.8576 36.0608 48.8576 40.609C48.8576 45.1572 45.1571 48.8577 40.6089 48.8577ZM40.6089 33.6294C36.7587 33.6294 33.6293 36.7588 33.6293 40.609C33.6293 44.4592 36.7587 47.5886 40.6089 47.5886C44.4591 47.5886 47.5885 44.4592 47.5885 40.609C47.5885 36.7588 44.4591 33.6294 40.6089 33.6294Z" fill="black"/>
</svg>
