<?xml version="1.0" encoding="UTF-8"?><svg id="Layer_1" xmlns="http://www.w3.org/2000/svg" viewBox="0 0 161.35 214.24"><defs><style>.cls-1,.cls-2{fill:#9d8f68;}.cls-1,.cls-2,.cls-3,.cls-4,.cls-5{stroke:#231f20;stroke-miterlimit:1;}.cls-1,.cls-4,.cls-5{stroke-width:2.18px;}.cls-2,.cls-3{stroke-width:.2px;}.cls-3,.cls-5{fill:#ed3024;}.cls-4,.cls-6{fill:#fff;}.cls-7{fill:#005ca5;}</style></defs><path class="cls-1" d="M104.33,157.85v35.12l25.08,20.17h0s-98.39,0-98.39,0h0s25.08-20.18,25.08-20.18v-35.12h0c3.99,4.83,8.52,8.86,13.48,11.91.55.26,1.2.4,1.9.4,1.22,0,2.3-.45,2.94-1.13.82-1.23,2.04-1.94,3.19-1.7,1.49.31,2.38,2.08,2.18,4.12h.83c-.2-2.03.7-3.8,2.18-4.12,1.16-.24,2.37.46,3.19,1.69.64.68,1.72,1.13,2.94,1.13.7,0,1.35-.15,1.9-.4,4.96-3.05,9.49-7.09,13.48-11.91h0Z"/><path class="cls-1" d="M104.33,48.81v-27.54L129.42,1.1h0s-98.39,0-98.39,0h0s25.08,20.18,25.08,20.18v27.54h0c3.1-1.21,6.32-2.81,9.5-4.76,1.25-.77,2.45-1.57,3.59-2.39,1.26,2.17,3.85,3.55,6.28,3.19,2.29-.34,3.75-2.12,3.75-4.27,0-.03,0-.05,0-.08,0-.17-.02-.34-.04-.51h2.07c-.02.17-.03.34-.04.51v.08c0,2.15,1.45,3.93,3.75,4.27,2.43.36,5.02-1.02,6.28-3.19,1.14.82,2.34,1.62,3.59,2.39,3.18,1.96,6.4,3.55,9.5,4.76h0Z"/><path class="cls-1" d="M27.17,64.89h-5.91L1.1,39.81h0v98.39h0l20.17-25.08h18.09c-1.33-18.02-5.68-34.56-12.18-48.23h0Z"/><path class="cls-1" d="M133.26,64.89h6.82l20.17-25.08h0v98.39h0l-20.17-25.08h-19c1.33-18.02,5.68-34.56,12.18-48.23h0Z"/><path class="cls-5" d="M98.16,164.3v31.48l14.9,11.98H47.38l14.9-11.98v-31.48h0c2.31,2.07,4.75,3.9,7.31,5.47.55.26,1.2.4,1.9.4,1.22,0,2.3-.45,2.94-1.13.82-1.23,2.04-1.94,3.19-1.7,1.49.31,2.38,2.08,2.18,4.12h.83c-.2-2.03.7-3.8,2.18-4.12,1.16-.24,2.37.46,3.19,1.69.64.68,1.72,1.13,2.94,1.13.7,0,1.35-.15,1.9-.4,2.55-1.57,4.99-3.4,7.31-5.47h0Z"/><path class="cls-5" d="M98.16,45.95v-27.49l14.9-11.98H47.38l14.9,11.98v27.49h0c1.11-.59,2.22-1.23,3.32-1.91,1.25-.77,2.45-1.57,3.59-2.39,1.26,2.17,3.85,3.55,6.28,3.19,2.29-.34,3.75-2.12,3.75-4.27,0-.03,0-.05,0-.08,0-.17-.02-.34-.04-.51h2.07c-.02.17-.03.34-.04.51v.08c0,2.15,1.45,3.93,3.75,4.27,2.43.36,5.02-1.02,6.28-3.19,1.14.82,2.34,1.62,3.59,2.39,1.11.68,2.22,1.32,3.32,1.91h0Z"/><path class="cls-5" d="M29.89,71.07h-11.42l-11.98-14.9v65.68l11.98-14.9h20.31c-1.49-13.04-4.56-25.19-8.89-35.88h0Z"/><path class="cls-5" d="M130.55,71.07h12.33l11.98-14.9v65.68l-11.98-14.9h-21.22c1.49-13.04,4.56-25.19,8.89-35.88h0Z"/><path class="cls-1" d="M89.09,170.17v28.39h-17.73v-28.39h0s.09,0,.14,0c1.22,0,2.3-.45,2.94-1.13.82-1.23,2.04-1.94,3.19-1.7,1.49.31,2.38,2.08,2.18,4.12h.83c-.2-2.03.7-3.8,2.18-4.12,1.16-.24,2.37.46,3.19,1.69.64.68,1.72,1.13,2.94,1.13.05,0,.09,0,.14,0h0Z"/><path class="cls-1" d="M89.09,43.89V15.68h-17.73v28.2h0c1.23.79,2.7,1.17,4.12.96,2.29-.34,3.75-2.12,3.75-4.27,0-.03,0-.05,0-.08,0-.17-.02-.34-.04-.51h2.07c-.02.17-.03.34-.04.51v.08c0,2.15,1.45,3.93,3.75,4.27,1.42.21,2.89-.17,4.12-.96h0Z"/><path class="cls-1" d="M33.14,80.14H15.68v17.73h21.78c-1.09-6.18-2.54-12.11-4.32-17.73h0Z"/><path class="cls-1" d="M127.3,80.14h18.37v17.73h-22.69c1.09-6.18,2.54-12.11,4.32-17.73h0Z"/><path class="cls-4" d="M83.21,167.3v24.66h-5.98v-24.66h0c.13,0,.26.02.39.05,1.49.31,2.38,2.08,2.18,4.12h.83c-.2-2.03.7-3.8,2.18-4.12.13-.03.26-.04.39-.05h0Z"/><path class="cls-4" d="M83.21,44.22v-21.94h-5.98v21.94h0c1.26-.77,2-2.11,1.99-3.64,0-.03,0-.05,0-.08,0-.17-.02-.34-.04-.51h2.07c-.02.17-.03.34-.04.51v.08c0,1.53.74,2.88,1.99,3.64h0Z"/><path class="cls-4" d="M34.85,86.02h-12.57v5.98h14.02c-.44-2.02-.93-4.02-1.45-5.98h0Z"/><path class="cls-4" d="M125.59,86.02h13.48v5.98h-14.93c.44-2.02.93-4.02,1.45-5.98h0Z"/><path class="cls-3" d="M81.26,39.99h-2.07c.02.17.03.34.04.51,0,.03,0,.05,0,.08,0,2.15-1.45,3.93-3.75,4.27-2.43.36-5.03-1.02-6.28-3.19-1.14.82-2.34,1.62-3.59,2.39-11.52,7.09-23.5,9.42-28.72,5.96h0l-2.62-1.41-9.97,10.7h0c9.62,17.39,15.48,40.42,15.48,65.62,0,5.89-.32,11.66-.93,17.26,5.72,2.72,10.65,6.83,14.33,11.89h.02c4.64,6.53,10.18,11.89,16.39,15.71.55.26,1.2.4,1.9.4,1.22,0,2.3-.45,2.94-1.13.82-1.23,2.04-1.94,3.19-1.7,1.49.31,2.38,2.08,2.18,4.12h.83c-.2-2.03.7-3.8,2.18-4.12,1.16-.24,2.37.46,3.19,1.69.64.68,1.72,1.13,2.94,1.13.7,0,1.35-.15,1.9-.4,6.21-3.82,11.75-9.18,16.39-15.71h.02c3.69-5.06,8.61-9.17,14.33-11.89-.61-5.61-.94-11.37-.94-17.26,0-25.2,5.87-48.23,15.48-65.62h0l-9.97-10.7-2.62,1.41h0c-5.21,3.45-17.19,1.13-28.72-5.96-1.25-.77-2.45-1.57-3.59-2.39-1.26,2.17-3.85,3.55-6.28,3.19-2.29-.34-3.75-2.12-3.75-4.27v-.08c0-.17.02-.34.04-.51h0Z"/><path class="cls-1" d="M94.24,64.4c4.28,1.91,9.37,2.4,14,2.42,1.88,0,3.74-.14,5.62-.25h0l5.36,6.1-1.8,5.69h0c-3.03,10.22-5,20.53-6.08,31.14-.63,6.89-.91,13.78-.76,20.7.05,2.28.16,4.56.26,6.84h0l-3.26,2.13h0c-4.3,3.02-7.59,7-10.36,11.43-1.6,2.62-3.93,4.7-6.54,6.29-3.23,1.85-6.75,2.85-10.48,2.79-6.14.09-11.75-2.61-15.72-7.24h0l-2.27-3.35h0c-2.68-3.96-5.8-7.49-9.78-10.18h0l-2.87-1.87.2-4.88-1.25-27.55h0c-1.17-8.93-2.97-17.62-5.53-26.25h0l-1.79-5.69,5.36-6.1h0c1.75.11,3.48.23,5.23.25,4.8.03,10.29-.48,14.68-2.56.57-.29,1.1-.61,1.69-.85,3.88-1.47,8.44-1.3,12.04.9,3.6-2.2,8.16-2.37,12.04-.9.69.28,1.31.67,1.99.99h0Z"/><path class="cls-4" d="M80.22,70.97c1.61-2.07,4.13-3.4,6.95-3.4,1.21,0,2.36.25,3.42.69,3.71,2.21,10.24,3.69,17.65,3.69,1.17,0,2.32-.04,3.44-.11h0l1.79,2.04h0c-5.15,15.88-8.04,33.64-8.04,52.36,0,2.72.06,5.42.18,8.09-4.96,3.16-9.4,8.02-13.08,14.14-2.73,3.68-7.11,6.08-12.04,6.08-.09,0-.19,0-.28,0-.09,0-.19,0-.28,0-4.92,0-9.31-2.4-12.04-6.08-3.68-6.12-8.13-10.98-13.08-14.14.12-2.67.18-5.37.18-8.09,0-18.72-2.89-36.48-8.04-52.36h0l1.79-2.04h0c1.12.07,2.27.11,3.44.11,7.41,0,13.94-1.47,17.65-3.69,1.05-.44,2.21-.69,3.42-.69,2.82,0,5.34,1.33,6.95,3.4h0Z"/><path class="cls-7" d="M73.87,101.52h12.71v15.27h0c0,2.63-2.85,4.78-6.35,4.78s-6.35-2.15-6.35-4.78h0v-15.27h0Z"/><path class="cls-6" d="M83.9,118.62c-1.09,0-1.98-.89-1.98-1.98s.89-1.98,1.98-1.98,1.98.89,1.98,1.98-.89,1.98-1.98,1.98h0Z"/><path class="cls-6" d="M76.54,118.62c-1.09,0-1.98-.89-1.98-1.98s.89-1.98,1.98-1.98,1.98.89,1.98,1.98-.89,1.98-1.98,1.98h0Z"/><path class="cls-6" d="M80.22,108.75c1.09,0,1.98.89,1.98,1.98s-.89,1.98-1.98,1.98-1.98-.89-1.98-1.98.89-1.98,1.98-1.98h0Z"/><path class="cls-6" d="M83.9,102.85c1.09,0,1.98.89,1.98,1.98s-.89,1.98-1.98,1.98-1.98-.89-1.98-1.98.89-1.98,1.98-1.98h0Z"/><path class="cls-6" d="M76.54,106.82c-1.09,0-1.98-.89-1.98-1.98s.89-1.98,1.98-1.98,1.98.89,1.98,1.98-.89,1.98-1.98,1.98h0Z"/><path class="cls-7" d="M89.17,101.53h12.71v15.27h0c0,2.63-2.85,4.78-6.35,4.78s-6.35-2.15-6.35-4.78h0v-15.27h0Z"/><path class="cls-6" d="M99.2,118.62c-1.09,0-1.98-.89-1.98-1.98s.89-1.98,1.98-1.98,1.98.89,1.98,1.98-.89,1.98-1.98,1.98h0Z"/><path class="cls-6" d="M91.84,118.62c-1.09,0-1.98-.89-1.98-1.98s.89-1.98,1.98-1.98,1.98.89,1.98,1.98-.89,1.98-1.98,1.98h0Z"/><path class="cls-6" d="M95.52,108.76c1.09,0,1.98.89,1.98,1.98s-.89,1.98-1.98,1.98-1.98-.89-1.98-1.98.89-1.98,1.98-1.98h0Z"/><path class="cls-6" d="M99.2,102.86c1.09,0,1.98.89,1.98,1.98s-.89,1.98-1.98,1.98-1.98-.89-1.98-1.98.89-1.98,1.98-1.98h0Z"/><path class="cls-6" d="M91.84,106.82c-1.09,0-1.98-.89-1.98-1.98s.89-1.98,1.98-1.98,1.98.89,1.98,1.98-.89,1.98-1.98,1.98h0Z"/><path class="cls-7" d="M58.56,101.53h12.71v15.27h0c0,2.63-2.85,4.78-6.35,4.78s-6.35-2.15-6.35-4.78h0v-15.27h0Z"/><path class="cls-6" d="M68.6,118.62c-1.09,0-1.98-.89-1.98-1.98s.89-1.98,1.98-1.98,1.98.89,1.98,1.98-.89,1.98-1.98,1.98h0Z"/><path class="cls-6" d="M61.24,118.62c-1.09,0-1.98-.89-1.98-1.98s.89-1.98,1.98-1.98,1.98.89,1.98,1.98-.89,1.98-1.98,1.98h0Z"/><path class="cls-6" d="M64.92,108.76c1.09,0,1.98.89,1.98,1.98s-.89,1.98-1.98,1.98-1.98-.89-1.98-1.98.89-1.98,1.98-1.98h0Z"/><path class="cls-6" d="M68.6,102.86c1.09,0,1.98.89,1.98,1.98s-.89,1.98-1.98,1.98-1.98-.89-1.98-1.98.89-1.98,1.98-1.98h0Z"/><path class="cls-6" d="M61.24,106.82c-1.09,0-1.98-.89-1.98-1.98s.89-1.98,1.98-1.98,1.98.89,1.98,1.98-.89,1.98-1.98,1.98h0Z"/><path class="cls-7" d="M73.87,76.98h12.71v15.27h0c0,2.63-2.85,4.78-6.35,4.78s-6.35-2.15-6.35-4.78h0v-15.27h0Z"/><path class="cls-6" d="M83.9,94.08c-1.09,0-1.98-.89-1.98-1.98s.89-1.98,1.98-1.98,1.98.89,1.98,1.98-.89,1.98-1.98,1.98h0Z"/><path class="cls-6" d="M76.54,94.08c-1.09,0-1.98-.89-1.98-1.98s.89-1.98,1.98-1.98,1.98.89,1.98,1.98-.89,1.98-1.98,1.98h0Z"/><path class="cls-6" d="M80.22,84.21c1.09,0,1.98.89,1.98,1.98s-.89,1.98-1.98,1.98-1.98-.89-1.98-1.98.89-1.98,1.98-1.98h0Z"/><path class="cls-6" d="M83.9,78.31c1.09,0,1.98.89,1.98,1.98s-.89,1.98-1.98,1.98-1.98-.89-1.98-1.98.89-1.98,1.98-1.98h0Z"/><path class="cls-6" d="M76.54,82.28c-1.09,0-1.98-.89-1.98-1.98s.89-1.98,1.98-1.98,1.98.89,1.98,1.98-.89,1.98-1.98,1.98h0Z"/><path class="cls-7" d="M73.87,126.07h12.71v15.27h0c0,2.63-2.85,4.78-6.35,4.78s-6.35-2.15-6.35-4.78h0v-15.27h0Z"/><path class="cls-6" d="M83.9,143.17c-1.09,0-1.98-.89-1.98-1.98s.89-1.98,1.98-1.98,1.98.89,1.98,1.98-.89,1.98-1.98,1.98h0Z"/><path class="cls-6" d="M76.54,143.17c-1.09,0-1.98-.89-1.98-1.98s.89-1.98,1.98-1.98,1.98.89,1.98,1.98-.89,1.98-1.98,1.98h0Z"/><path class="cls-6" d="M80.22,133.3c1.09,0,1.98.89,1.98,1.98s-.89,1.98-1.98,1.98-1.98-.89-1.98-1.98.89-1.98,1.98-1.98h0Z"/><path class="cls-6" d="M83.9,127.4c1.09,0,1.98.89,1.98,1.98s-.89,1.98-1.98,1.98-1.98-.89-1.98-1.98.89-1.98,1.98-1.98h0Z"/><path class="cls-6" d="M76.54,131.36c-1.09,0-1.98-.89-1.98-1.98s.89-1.98,1.98-1.98,1.98.89,1.98,1.98-.89,1.98-1.98,1.98h0Z"/><path class="cls-1" d="M95.19,37.21c.43.28.87.55,1.31.83,11.87,7.31,24.22,9.55,29.17,5.63h0l2.59-1.75,14.8,15.88h0c-10.08,17.54-16.26,41.12-16.26,66.99,0,6.91.44,13.65,1.28,20.16-7.04,3.08-12.96,8.23-16.97,14.67-4.66,6.46-10.22,11.75-16.44,15.51h0v-.04h0c-1.59,1-3.78,1.62-6.2,1.62-1.44,0-2.81-.22-4.01-.61h0c-1.42-.47-2.58-1.38-3.23-2.54-.2-.41-.37-.86-.48-1.34,0-.02,0-.03-.01-.05-.51-2.32.41-4.49,2.07-4.83,1.16-.24,2.37.46,3.19,1.69.64.68,1.72,1.13,2.94,1.13.7,0,1.35-.15,1.9-.4,6.21-3.82,11.75-9.18,16.39-15.71h.02c3.69-5.06,8.61-9.17,14.33-11.89-.61-5.61-.94-11.37-.94-17.26,0-25.2,5.87-48.23,15.48-65.62h0l-9.97-10.7-2.62,1.41h0c-5.21,3.45-17.19,1.13-28.72-5.96-1.25-.77-2.45-1.57-3.59-2.39-1.26,2.17-3.85,3.55-6.28,3.19-2.29-.34-3.75-2.12-3.75-4.27v-.08c0-.48.09-.98.26-1.48.9-2.75,3.87-4.67,6.67-4.32,2.69.5,5.1,1.37,7.05,2.51h0Z"/><path class="cls-1" d="M65.25,37.21c-.43.28-.87.55-1.31.83-11.87,7.31-24.22,9.55-29.17,5.63h0l-2.59-1.75-14.8,15.88h0c10.07,17.54,16.26,41.12,16.26,66.99,0,6.91-.44,13.65-1.28,20.16,7.04,3.08,12.96,8.23,16.97,14.67,4.66,6.46,10.22,11.75,16.44,15.51h0v-.04h0c1.59,1,3.78,1.62,6.2,1.62,1.44,0,2.81-.22,4.01-.61h0c1.42-.47,2.58-1.38,3.23-2.54.2-.41.37-.86.48-1.34,0-.02,0-.03,0-.05.51-2.32-.41-4.49-2.07-4.83-1.16-.24-2.37.46-3.19,1.7-.64.68-1.72,1.13-2.94,1.13-.7,0-1.35-.15-1.9-.4-6.21-3.82-11.75-9.18-16.39-15.71h-.02c-3.69-5.06-8.61-9.17-14.33-11.89.61-5.61.93-11.37.93-17.26,0-25.2-5.87-48.23-15.48-65.62h0l9.97-10.7,2.62,1.41h0c5.21,3.45,17.19,1.13,28.72-5.96,1.25-.77,2.45-1.57,3.59-2.39,1.26,2.17,3.85,3.55,6.28,3.19,2.29-.34,3.75-2.12,3.75-4.27,0-.03,0-.05,0-.08,0-.48-.09-.98-.26-1.48-.89-2.75-3.87-4.67-6.67-4.32-2.69.5-5.1,1.37-7.05,2.51h0Z"/><path class="cls-2" d="M64.49,61.1l-1.69-11.89,6.03-.85.3,2.09-4.25.6.39,2.74,3.72-.53.3,2.09-3.72.53.71,4.98-1.77.25h0ZM71.56,60.1l-.34-2.39,1.74-.25.34,2.39-1.74.25h0Z"/><path class="cls-2" d="M91.1,59.9l2.01-11.84,6,1.02-.35,2.08-4.24-.72-.46,2.73,3.71.63-.35,2.08-3.71-.63-.84,4.96-1.77-.3h0ZM98.15,61.09l.4-2.38,1.73.29-.4,2.38-1.73-.29h0Z"/><path class="cls-2" d="M82.42,51.48c0-1.24-.54-1.76-1.41-1.76h-1.75v3.58h1.75c.88,0,1.41-.59,1.41-1.82h0ZM84.27,51.48c0,2.79-1.12,3.83-3.12,3.83h-1.9v4.35h-1.9v-12.02h3.94c1.8,0,2.97,1.23,2.97,3.83h0ZM85.5,59.67v-2.41h1.85v2.41h-1.85Z"/></svg>