<svg width="82" height="82" viewBox="0 0 82 82" fill="none" xmlns="http://www.w3.org/2000/svg">
<path d="M5.8781 68.3929L75.3394 12.8249C73.5348 11.1803 71.1592 10.1523 68.5273 10.1523H12.6902C7.08367 10.1523 2.53802 14.698 2.53802 20.3045V60.9133C2.53802 63.8879 3.84004 66.5376 5.8781 68.3929Z" fill="#439643"/>
<path d="M75.3394 12.8247L5.87814 68.3927C7.6827 70.0374 10.0583 71.0653 12.6903 71.0653H68.5273C74.1339 71.0653 78.6795 66.5196 78.6795 60.9131V20.3043C78.6795 17.3297 77.3775 14.68 75.3394 12.8247Z" fill="#B92932"/>
<path d="M68.5273 10.1523H64.4588L2.53802 59.69V60.9133C2.53802 66.5198 7.08367 71.0655 12.6902 71.0655H16.7587L78.6794 21.5279V20.3045C78.6794 14.698 74.1338 10.1523 68.5273 10.1523Z" fill="#F2D84B"/>
<path d="M68.5271 10.1523H68.522L2.72565 62.7889C3.60635 67.497 7.7256 71.0655 12.69 71.0655H12.6951L78.4914 18.4289C77.6107 13.7208 73.4915 10.1523 68.5271 10.1523Z" fill="black"/>
<path d="M31.629 49.134L32.7584 45.063L29.4514 47.6924L25.9286 45.3599L27.4082 49.3193L24.1012 51.9487L28.3219 51.766L29.8016 55.7228L30.9311 51.6518L35.1544 51.4665L31.629 49.134Z" fill="white"/>
<path d="M53.4767 33.7205L57.6975 33.5378L54.1747 31.2053L55.3041 27.1343L51.997 29.7637L48.4742 27.4312L49.9539 31.388L46.6468 34.02L50.8676 33.8347L52.3473 37.7941L53.4767 33.7205Z" fill="white"/>
<path opacity="0.15" d="M68.5273 10.1523H12.6902C7.08367 10.1523 2.53802 14.698 2.53802 20.3045V60.9133C2.53802 66.5198 7.08367 71.0655 12.6902 71.0655H68.5273C74.1338 71.0655 78.6794 66.5198 78.6794 60.9133V20.3045C78.6794 14.698 74.1338 10.1523 68.5273 10.1523ZM76.1414 60.9133C76.1414 65.1112 72.7252 68.5274 68.5273 68.5274H12.6902C8.49228 68.5274 5.07607 65.1112 5.07607 60.9133V20.3045C5.07607 16.1066 8.49228 12.6904 12.6902 12.6904H68.5273C72.7252 12.6904 76.1414 16.1066 76.1414 20.3045V60.9133Z" fill="black"/>
<path opacity="0.2" d="M68.5273 12.6904H12.6902C8.48468 12.6904 5.07608 16.099 5.07608 20.3046V22.8426C5.07608 18.6371 8.48468 15.2285 12.6902 15.2285H68.5273C72.7328 15.2285 76.1414 18.6371 76.1414 22.8426V20.3046C76.1414 16.099 72.7328 12.6904 68.5273 12.6904Z" fill="white"/>
</svg>
