<svg width="82" height="82" viewBox="0 0 82 82" fill="none" xmlns="http://www.w3.org/2000/svg">
<path d="M20.3043 10.1519H60.9131V71.065H20.3043V10.1519Z" fill="#F5D34D"/>
<path d="M12.6903 10.1519H22.8425V71.065H12.6903C7.08627 71.065 2.53809 66.5168 2.53809 60.9128V20.304C2.53809 14.7 7.08627 10.1519 12.6903 10.1519Z" fill="#0A2070"/>
<path d="M68.5273 71.0654H58.3751L58.3751 10.1523H68.5273C74.1313 10.1523 78.6794 14.7005 78.6794 20.3045V60.9132C78.6794 66.5172 74.1313 71.0654 68.5273 71.0654Z" fill="#367B35"/>
<path opacity="0.15" d="M68.5273 10.1519H12.6903C7.08373 10.1519 2.53809 14.6975 2.53809 20.304V60.9128C2.53809 66.5193 7.08373 71.065 12.6903 71.065H68.5273C74.1339 71.065 78.6795 66.5193 78.6795 60.9128V20.304C78.6795 14.6975 74.1339 10.1519 68.5273 10.1519ZM76.1415 60.9128C76.1415 65.1107 72.7252 68.5269 68.5273 68.5269H12.6903C8.49234 68.5269 5.07613 65.1107 5.07613 60.9128V20.304C5.07613 16.1061 8.49234 12.6899 12.6903 12.6899H68.5273C72.7252 12.6899 76.1415 16.1061 76.1415 20.304V60.9128Z" fill="black"/>
<path opacity="0.2" d="M68.5274 12.6899H12.6903C8.48477 12.6899 5.07617 16.0985 5.07617 20.3041V22.8421C5.07617 18.6366 8.48477 15.228 12.6903 15.228H68.5274C72.7329 15.228 76.1415 18.6366 76.1415 22.8421V20.3041C76.1415 16.0985 72.7329 12.6899 68.5274 12.6899Z" fill="white"/>
<path d="M35.0707 30.4565L39.6849 38.4489L35.0707 46.4412L30.4565 38.4489L35.0707 30.4565Z" fill="#367B35"/>
<path d="M46.1468 30.4565L50.7609 38.4489L46.1468 46.4412L41.5326 38.4489L46.1468 30.4565Z" fill="#367B35"/>
<path d="M40.6087 40.0479L45.2228 48.0402L40.6087 56.0325L35.9945 48.0402L40.6087 40.0479Z" fill="#367B35"/>
</svg>
