<svg width="82" height="82" viewBox="0 0 82 82" fill="none" xmlns="http://www.w3.org/2000/svg">
<path d="M68.5273 10.1519H12.6903C7.08338 10.1519 2.53809 14.6971 2.53809 20.304V60.9128C2.53809 66.5197 7.08338 71.065 12.6903 71.065H68.5273C74.1342 71.065 78.6795 66.5197 78.6795 60.9128V20.304C78.6795 14.6971 74.1342 10.1519 68.5273 10.1519Z" fill="#81CBFA"/>
<path opacity="0.15" d="M68.5273 10.1519H12.6903C7.08373 10.1519 2.53809 14.6975 2.53809 20.304V60.9128C2.53809 66.5193 7.08373 71.065 12.6903 71.065H68.5273C74.1339 71.065 78.6795 66.5193 78.6795 60.9128V20.304C78.6795 14.6975 74.1339 10.1519 68.5273 10.1519ZM76.1415 60.9128C76.1415 65.1107 72.7252 68.5269 68.5273 68.5269H12.6903C8.49234 68.5269 5.07613 65.1107 5.07613 60.9128V20.304C5.07613 16.1061 8.49234 12.6899 12.6903 12.6899H68.5273C72.7252 12.6899 76.1415 16.1061 76.1415 20.304V60.9128Z" fill="black"/>
<path opacity="0.2" d="M68.5274 12.6899H12.6903C8.48477 12.6899 5.07617 16.0985 5.07617 20.3041V22.8421C5.07617 18.6366 8.48477 15.228 12.6903 15.228H68.5274C72.7329 15.228 76.1415 18.6366 76.1415 22.8421V20.3041C76.1415 16.0985 72.7329 12.6899 68.5274 12.6899Z" fill="white"/>
<path d="M40.6088 17.7661L59.0883 63.451L40.6088 59.0881L22.1293 63.451L40.6088 17.7661Z" fill="white"/>
<path d="M40.6087 23.9263L54.8319 59.0884H26.3855L40.6087 23.9263Z" fill="black"/>
<path d="M40.6088 40.6089L59.0883 63.4513H22.1293L40.6088 40.6089Z" fill="#F4D24B"/>
</svg>
