<svg width="82" height="82" viewBox="0 0 82 82" fill="none" xmlns="http://www.w3.org/2000/svg">
<path d="M78.6794 20.304C78.6794 14.6975 74.1338 10.1519 68.5273 10.1519H12.6902C7.08367 10.1519 2.53802 14.6975 2.53802 20.304V43.1465H78.6794V20.304Z" fill="white"/>
<path d="M12.6902 71.0655H68.5273C74.1338 71.0655 78.6794 66.5198 78.6794 60.9133V40.6089H2.53802V60.9133C2.53802 66.5198 7.08367 71.0655 12.6902 71.0655Z" fill="#75B6E1"/>
<path opacity="0.15" d="M12.6902 71.065H68.5273C74.1338 71.065 78.6794 66.5193 78.6794 60.9128V20.304C78.6794 14.6975 74.1338 10.1519 68.5273 10.1519H12.6902C7.08367 10.1519 2.53802 14.6975 2.53802 20.304V60.9128C2.53802 66.5193 7.08367 71.065 12.6902 71.065ZM5.07607 20.304C5.07607 16.1061 8.49228 12.6899 12.6902 12.6899H68.5273C72.7252 12.6899 76.1414 16.1061 76.1414 20.304V60.9128C76.1414 65.1107 72.7252 68.5269 68.5273 68.5269H12.6902C8.49228 68.5269 5.07607 65.1107 5.07607 60.9128V20.304Z" fill="black"/>
<path opacity="0.2" d="M68.5272 12.6899H12.6902C8.48465 12.6899 5.07605 16.0985 5.07605 20.3041V22.8421C5.07605 18.6366 8.48465 15.228 12.6902 15.228H68.5272C72.7328 15.228 76.1414 18.6366 76.1414 22.8421V20.3041C76.1414 16.0985 72.7328 12.6899 68.5272 12.6899Z" fill="white"/>
<path d="M46.8981 28.223C50.1062 23.6291 44.5986 24.5098 41.9997 23.2788C42.5504 22.9083 42.4387 22.8347 41.9058 22.6393C41.6926 22.322 41.8372 21.7484 41.4286 21.5733C41.7459 21.0961 41.5174 20.3753 41.0047 20.157C41.0403 19.9819 40.7179 19.1901 41.1494 19.4743C42.2865 19.9159 41.9971 18.2129 40.9768 18.789C40.8296 18.4997 41.3195 17.7789 40.591 17.7637C39.8677 17.7738 40.3499 18.5099 40.2078 18.7865C39.1951 18.218 38.8906 19.9032 40.0251 19.4743C40.4692 19.1824 40.1418 19.9667 40.1799 20.1444C39.6494 20.3576 39.4134 21.0936 39.7408 21.5784C39.3449 21.756 39.4921 22.3245 39.2763 22.6367C38.7535 22.8347 38.6266 22.8905 39.1723 23.2712C36.5759 24.5073 31.0531 23.624 34.2713 28.223C32.9668 28.5351 35.1571 28.9945 35.2662 29.5834C35.1216 29.86 35.1977 30.1163 35.5048 30.2534C35.4693 30.4742 35.6799 30.6671 35.8601 30.7229C35.8677 30.8321 35.9287 30.9336 35.9972 31.0097C34.8144 33.0072 45.6011 33.5656 45.1748 31.0199C45.2458 30.9412 45.3118 30.8321 45.3194 30.7179C45.5072 30.6544 45.7103 30.4514 45.657 30.2255C45.8702 30.0377 45.9362 29.8575 45.8651 29.629C46.0681 28.9666 48.2356 28.5402 46.8956 28.2204L46.8981 28.223ZM36.7459 26.3194C36.6495 26.3575 36.5149 26.6443 36.4515 27.393C36.1951 27.2052 35.9464 27.1164 35.7535 27.0707C33.515 24.4413 38.2789 25.6139 39.3652 24.1342C39.256 24.756 39.8652 25.3347 39.7992 25.9895C39.6977 26.1621 39.6063 26.3626 39.5378 26.5961C38.4794 25.4108 38.3271 25.3321 37.8703 26.8753C37.3017 26.3499 36.7687 26.322 36.7459 26.3194ZM45.9362 25.6316C46.1951 26.1037 45.8448 26.6468 45.3397 27.1519C45.157 27.1798 44.9463 27.2484 44.7382 27.3956C44.5479 25.9489 44.5504 26.0809 43.3194 26.8778C42.8626 25.3245 42.7103 25.4184 41.6519 26.5986C41.5834 26.3626 41.4895 26.1621 41.3905 25.992C41.3296 25.3423 41.9134 24.756 41.8068 24.1367C42.8601 25.3854 45.0123 24.7179 45.9362 25.6342V25.6316Z" fill="#EAC34F"/>
<path d="M40.4464 33.6749C41.9819 33.647 48.5935 32.5404 48.5935 41.7205C48.5935 50.492 40.5885 53.9793 40.5885 53.9793C40.5885 53.9793 32.5835 50.6012 32.5835 41.0556C32.5835 32.5379 40.4464 33.6749 40.4464 33.6749Z" fill="#ABCFE9"/>
<path d="M43.0428 47.3903C43.5123 47.1288 44.0504 46.9791 44.6265 46.9791C45.5605 46.9791 46.4032 47.3725 46.9971 48.0045C44.6621 52.2049 40.591 53.979 40.591 53.979C40.591 53.979 36.6241 52.3039 34.2764 47.9842C34.8677 47.3649 35.7027 46.9791 36.6291 46.9791C37.2738 46.9791 37.8728 47.1669 38.3804 47.4892C38.9743 46.8496 39.822 46.4512 40.7636 46.4512C41.6545 46.4512 42.4616 46.809 43.0479 47.3903H43.0428Z" fill="#9BB980"/>
<path d="M50.3803 39.5275C50.1722 36.5402 49.2534 34.1341 47.86 32.926C46.8829 32.0783 45.2991 31.4971 43.959 32.1088C43.8981 32.1367 43.8397 32.1671 43.7839 32.1976H43.6595C43.6595 32.1976 43.6443 32.1976 43.6367 32.2027L41.2382 33.3245C41.124 33.1874 40.9413 33.0885 40.7484 33.0555C40.7433 33.0555 40.7383 33.0555 40.7332 33.0555C40.7179 33.0555 40.7027 33.0504 40.685 33.0504C40.6672 33.0504 40.6469 33.0478 40.6291 33.0478C40.624 33.0478 40.619 33.0478 40.6139 33.0478C40.6088 33.0478 40.6037 33.0478 40.5987 33.0478C40.388 33.0504 40.2027 33.1265 40.0682 33.2509C40.0403 33.2763 40.0124 33.3016 39.9895 33.3296L37.5911 32.2077C37.5911 32.2077 37.5758 32.2027 37.5682 32.2027H37.3906C37.3347 32.1697 37.2764 32.1392 37.2154 32.1113C35.8779 31.4996 34.2916 32.0808 33.3145 32.9286C31.9211 34.1367 30.9998 36.5427 30.7942 39.53C30.383 45.4462 33.4566 49.1949 35.3246 50.9005C36.7129 52.1695 38.8195 53.4715 40.5657 54.1365H40.5707C40.5758 54.1365 40.5784 54.1365 40.5834 54.1365H40.5961H40.6012C42.3474 53.469 44.454 52.1695 45.8423 50.9005C47.7103 49.1924 50.7864 45.4462 50.3727 39.53L50.3803 39.5275ZM41.7027 52.7126C41.1926 52.9969 40.7865 53.2228 40.5885 53.3091C40.3905 53.2228 39.987 52.9969 39.4768 52.7152L39.2738 52.6035C38.6088 52.0375 37.6241 51.1061 36.6621 49.8446C35.1241 47.8294 33.3297 44.5452 33.5226 40.3346C33.6698 37.1239 34.4718 35.9564 34.9972 35.4793C35.2434 35.9235 35.7358 36.2026 36.3576 36.2026C36.7738 36.2026 37.1698 36.0757 37.5048 35.8422L39.9819 34.393C40.0631 34.4971 40.1875 34.5783 40.322 34.629C40.3296 34.6316 40.3347 34.6341 40.3423 34.6367C40.3499 34.6392 40.3601 34.6417 40.3677 34.6443C40.4185 34.662 40.4743 34.6722 40.5352 34.6798C40.553 34.6798 40.5707 34.6823 40.5885 34.6823C40.5961 34.6823 40.6012 34.6823 40.6088 34.6823C40.7839 34.6823 40.9134 34.6392 41.0327 34.5554C41.1088 34.5098 41.1773 34.4514 41.2306 34.3854L43.6215 35.8092C43.9641 36.0605 44.3753 36.1976 44.8093 36.1976C45.4336 36.1976 45.926 35.9209 46.1697 35.4742C46.6976 35.9514 47.4971 37.1189 47.6443 40.3295C47.8397 44.5376 46.0453 47.8218 44.5073 49.8345C43.5428 51.0959 42.558 52.0299 41.8931 52.5984L41.6951 52.7101L41.7027 52.7126Z" fill="#EAC34F"/>
<path d="M42.7128 58.1541C40.393 54.2734 38.8778 53.1669 34.8246 51.7354C34.1774 50.6288 34.3855 49.6237 33.0175 48.8877C32.619 48.6111 32.2434 48.3522 31.9845 47.8903C31.9616 47.8471 31.8906 47.8598 31.8855 47.9106C31.5835 48.9968 32.0885 51.2253 34.0758 51.5476C34.3423 51.611 34.5149 51.6796 34.6799 51.8851C33.6926 51.5679 32.3144 51.2049 31.8601 50.073C31.7561 49.6364 31.6165 49.1694 31.2738 48.8699C32.1241 47.4182 31.1622 45.903 30.9007 44.502C30.2916 44.8471 29.9896 45.6898 29.8855 46.3497C29.317 46.139 28.8094 46.8725 29.2002 47.3294C29.2002 47.3294 29.2002 47.3319 29.2002 47.3344C29.1495 47.2913 29.0886 47.1187 29.0023 47.1948C28.9667 47.1365 28.9312 47.0781 28.8982 47.0197C28.8449 46.5121 29.2053 46.1593 29.5353 45.837C30.6038 44.7177 30.6342 42.7989 29.9312 41.5705C29.2612 42.7101 28.1368 44.0299 28.6063 45.4994C28.7231 46.0121 28.7358 46.403 28.6444 46.5705C27.4236 44.7177 28.6063 44.469 28.35 42.6923C29.8145 41.9487 30.7738 39.8878 29.8804 38.4284C29.284 39.4817 28.2739 39.7025 27.8627 41.0147C27.7358 40.6974 27.8703 39.7558 27.3526 40.3726C27.3322 39.865 27.5251 39.3167 28.0987 39.2381C29.8424 38.6137 31.1114 37.0147 30.5936 34.9538C29.3068 35.7406 28.0962 37.5325 27.7992 38.8802C27.7536 39.0883 27.5759 39.2457 27.4693 39.3015C27.685 38.1467 27.7663 37.0604 28.4109 36.2635C30.2205 35.0731 30.9007 33.4462 30.5657 31.8549C30.5556 31.8193 30.5073 31.8041 30.4794 31.8295C29.7865 32.4285 29.2612 32.7559 28.614 33.6645C27.8145 34.9259 28.0911 36.1721 27.5835 37.266C27.548 37.2228 27.515 37.1695 27.4896 37.1188C27.982 36.7762 27.6317 35.9335 27.0353 36.0579C26.7764 35.1442 26.4795 34.5909 26.2561 33.8752C25.779 34.0833 24.9871 35.7 25.284 37.1949C25.9617 39.1721 27.4363 39.0071 26.9795 40.804C26.8551 40.9741 26.7485 41.1594 26.6571 41.3522C25.883 38.4411 25.9693 39.3269 24.1495 37.2685C23.4313 39.0756 24.3399 41.304 26.5074 41.7177C26.4795 41.8015 26.4515 41.8878 26.4287 41.9741C25.3018 41.3015 25.0632 43.3979 26.312 42.9994C26.284 44.5603 27.4414 44.837 27.8576 46.0603C26.7434 45.6314 26.6546 43.5553 24.9033 42.601C24.4668 42.3066 24.0607 42.0477 23.68 41.6746C23.6318 41.6238 23.5455 41.6441 23.5277 41.7127C23.4516 42.8446 23.7942 44.436 24.5582 45.0705C26.5328 46.5273 27.614 45.1136 28.8931 47.9359C28.8931 47.9943 28.8957 48.0527 28.9008 48.1111C27.3145 46.3801 26.1952 46.436 24.1368 45.9334C24.2663 47.0502 25.1343 47.9969 26.2028 48.4639C27.1673 48.875 28.2129 48.5222 28.9642 48.5654C29.02 48.8268 29.1089 49.0908 29.2358 49.342C28.2129 48.8496 26.6292 49.4943 25.482 49.6923C26.2079 50.7862 27.3221 51.2303 28.4109 51.2405C29.2535 51.2405 29.7561 50.7329 30.3551 50.4765C30.4921 50.54 30.6342 50.5857 30.7815 50.6263C30.3145 50.7151 30.1317 51.3699 30.4921 51.6846C29.3525 52.007 28.9845 52.946 28.015 53.309C28.8602 54.1212 30.5759 53.8267 31.4109 53.0628C31.9819 52.479 32.5657 51.3852 33.4692 52.0374C33.4464 52.0603 33.4261 52.0806 33.4058 52.1009C32.4997 51.7608 32.2129 53.2963 33.1824 53.3065C33.7154 53.3242 34.0124 52.6263 33.6368 52.2557C33.6748 52.2227 33.7104 52.1846 33.751 52.1516C36.4311 52.7582 38.8271 53.6669 40.3448 55.7074C41.0707 56.5704 41.4514 57.215 42.0859 58.4511C42.3321 59.0094 43.1697 58.8876 42.723 58.1617L42.7128 58.1541ZM27.2434 37.2254C27.3119 37.3802 27.4591 37.5401 27.4465 37.7102C27.3145 38.2025 27.2079 38.7482 27.1292 39.3091C26.8272 38.7127 27.2942 37.9462 27.2307 37.2279C27.2358 37.2279 27.2383 37.2279 27.2434 37.2279V37.2254ZM29.6876 47.5629C29.7764 47.5629 29.8601 47.5451 29.9363 47.5096C29.9744 47.6898 30.0251 47.8725 30.0911 48.0552C29.8424 47.9004 29.5454 47.7329 29.35 47.5172C29.3551 47.4994 29.3576 47.4842 29.3627 47.4715C29.4566 47.5299 29.5683 47.5629 29.6876 47.5629ZM31.3652 50.7532C31.8068 51.0222 32.2028 51.3877 32.6444 51.6161C32.2662 51.6897 31.8449 51.5222 31.449 51.5527C31.6165 51.3014 31.5479 50.9182 31.3119 50.7405C31.3297 50.7456 31.3474 50.7481 31.3652 50.7532Z" fill="#6E8D61"/>
<path d="M39.1418 58.4438C39.7738 57.2077 40.1545 56.5631 40.8829 55.7001C42.4032 53.6595 44.7966 52.7509 47.4767 52.1443C47.5173 52.1799 47.5529 52.2154 47.5909 52.2484C47.2179 52.6189 47.5123 53.3169 48.0453 53.2991C49.0123 53.289 48.7255 51.7535 47.8219 52.0936C47.8016 52.0733 47.7813 52.0529 47.7585 52.0301C48.662 51.3778 49.2458 52.4717 49.8168 53.0555C50.6493 53.8194 52.3676 54.1138 53.2127 53.3017C52.2432 52.9413 51.8726 51.9996 50.7356 51.6773C51.0935 51.3626 50.9133 50.7078 50.4463 50.619C50.5909 50.5783 50.7331 50.5327 50.8726 50.4692C51.4716 50.7281 51.9742 51.2357 52.8168 51.2332C53.9031 51.223 55.0198 50.7788 55.7457 49.685C54.5985 49.4844 53.0148 48.8423 51.9919 49.3347C52.1188 49.0834 52.2077 48.8195 52.2635 48.5581C53.0148 48.5149 54.063 48.8702 55.0249 48.4565C56.0934 47.9895 56.9614 47.0428 57.0909 45.9261C55.0325 46.4286 53.9132 46.3728 52.3269 48.1037C52.332 48.0454 52.3346 47.987 52.3346 47.9286C53.6137 45.1038 54.6924 46.52 56.6695 45.0632C57.4335 44.4287 57.7761 42.8373 57.7 41.7053C57.6822 41.6368 57.5959 41.6165 57.5477 41.6673C57.167 42.0404 56.7609 42.2967 56.3244 42.5936C54.5731 43.548 54.4843 45.6241 53.3701 46.053C53.7838 44.8297 54.9437 44.553 54.9158 42.9921C56.1645 43.3931 55.9259 41.2967 54.799 41.9667C54.7762 41.8805 54.7508 41.7942 54.7203 41.7104C56.8878 41.2967 57.7964 39.0683 57.0782 37.2612C55.2584 39.317 55.3447 38.4313 54.5706 41.3449C54.4792 41.152 54.3726 40.9668 54.2482 40.7967C53.7914 38.9998 55.266 39.1622 55.9437 37.1876C56.2406 35.6927 55.4487 34.076 54.9716 33.8678C54.7482 34.5861 54.4513 35.1369 54.1924 36.0506C53.596 35.9287 53.2457 36.7714 53.7381 37.1115C53.7127 37.1597 53.6797 37.2155 53.6442 37.2587C53.1366 36.1648 53.4158 34.9186 52.6137 33.6572C51.9665 32.7486 51.4412 32.4212 50.7483 31.8222C50.7204 31.7968 50.6721 31.812 50.662 31.8476C50.327 33.4389 51.0072 35.0658 52.8168 36.2561C53.4615 37.0531 53.5427 38.1419 53.7584 39.2942C53.6543 39.2383 53.4741 39.0835 53.4285 38.8729C53.1315 37.5252 51.9209 35.7308 50.6341 34.9465C50.1163 37.0074 51.3828 38.6064 53.129 39.2307C53.7026 39.3094 53.8955 39.8576 53.8752 40.3652C53.3549 39.7485 53.4919 40.6901 53.365 41.0074C52.9538 39.6952 51.9412 39.4744 51.3473 38.4211C50.4539 39.8805 51.4132 41.9414 52.8777 42.685C52.6214 44.4617 53.8066 44.7129 52.5833 46.5632C52.4919 46.3956 52.5046 46.0073 52.6214 45.4921C53.0909 44.0226 51.9665 42.7028 51.2965 41.5632C50.5935 42.7916 50.6239 44.7104 51.6924 45.8297C52.0224 46.1545 52.3828 46.5048 52.3295 47.0124C52.294 47.0708 52.261 47.1291 52.2254 47.1875C52.1391 47.1114 52.0782 47.284 52.0275 47.3271C52.0275 47.3271 52.0275 47.3246 52.0275 47.322C52.4183 46.8652 51.9107 46.1317 51.3422 46.3423C51.2356 45.685 50.9361 44.8424 50.327 44.4946C50.0655 45.8956 49.1036 47.4109 49.9539 48.8626C49.6112 49.1621 49.4716 49.6291 49.3676 50.0657C48.9107 51.2002 47.5351 51.5631 46.5478 51.8778C46.7102 51.6722 46.8854 51.6037 47.1519 51.5403C49.1392 51.2179 49.6442 48.987 49.3422 47.9032C49.3397 47.8525 49.2661 47.8398 49.2432 47.8829C48.9843 48.3449 48.6087 48.6063 48.2102 48.8804C46.8448 49.6164 47.0503 50.6215 46.4031 51.7281C42.3499 53.1595 40.8321 54.2661 38.5149 58.1468C38.0682 58.8727 38.9057 58.9945 39.1519 58.4361L39.1418 58.4438ZM53.9868 37.2257C53.9234 37.9439 54.3904 38.7104 54.0884 39.3069C54.0097 38.746 53.9031 38.2003 53.7711 37.7079C53.7584 37.5379 53.9056 37.378 53.9741 37.2231C53.9792 37.2231 53.9818 37.2257 53.9868 37.2257ZM51.8523 47.4718C51.8574 47.4845 51.8625 47.4997 51.865 47.5175C51.6671 47.7332 51.3726 47.9007 51.1239 48.0555C51.1899 47.8728 51.2407 47.69 51.2787 47.5098C51.3549 47.5428 51.4386 47.5631 51.5275 47.5631C51.6467 47.5631 51.7559 47.5301 51.8523 47.4718ZM49.9056 50.7408C49.6696 50.9184 49.6011 51.3017 49.7686 51.553C49.3752 51.5225 48.9513 51.69 48.5732 51.6164C49.0148 51.388 49.4107 51.0225 49.8523 50.7535C49.8701 50.7484 49.8879 50.7459 49.9056 50.7408Z" fill="#6E8D61"/>
</svg>
