<svg width="82" height="82" viewBox="0 0 82 82" fill="none" xmlns="http://www.w3.org/2000/svg">
<path d="M2.53815 25.3804H78.6796V55.8369H2.53815V25.3804Z" fill="#F8D448"/>
<path d="M12.6903 10.1519H68.5274C74.1314 10.1519 78.6796 14.7 78.6796 20.304V27.9182H2.53815V20.304C2.53815 14.7 7.08633 10.1519 12.6903 10.1519Z" fill="#439643"/>
<path d="M68.5273 71.0654L12.6903 71.0654C7.08627 71.0654 2.53808 66.5172 2.53808 60.9132V53.2991L78.6795 53.2991V60.9132C78.6795 66.5172 74.1313 71.0654 68.5273 71.0654Z" fill="#439643"/>
<path d="M5.764 68.3013L38.0708 40.6086L5.764 12.916C3.7894 14.7688 2.53815 17.383 2.53815 20.3043V60.913C2.53815 63.8343 3.7894 66.4485 5.764 68.3013Z" fill="#DD4446"/>
<path opacity="0.15" d="M68.5274 10.1519H12.6903C7.08379 10.1519 2.53815 14.6975 2.53815 20.304V60.9128C2.53815 66.5193 7.08379 71.065 12.6903 71.065H68.5274C74.1339 71.065 78.6796 66.5193 78.6796 60.9128V20.304C78.6796 14.6975 74.1339 10.1519 68.5274 10.1519ZM76.1415 60.9128C76.1415 65.1107 72.7253 68.5269 68.5274 68.5269H12.6903C8.49241 68.5269 5.07619 65.1107 5.07619 60.9128V20.304C5.07619 16.1061 8.49241 12.6899 12.6903 12.6899H68.5274C72.7253 12.6899 76.1415 16.1061 76.1415 20.304V60.9128Z" fill="black"/>
<path opacity="0.2" d="M68.5273 12.6899H12.6903C8.48471 12.6899 5.07611 16.0985 5.07611 20.3041V22.8421C5.07611 18.6366 8.48471 15.228 12.6903 15.228H68.5273C72.7328 15.228 76.1414 18.6366 76.1414 22.8421V20.3041C76.1414 16.0985 72.7328 12.6899 68.5273 12.6899Z" fill="white"/>
<path d="M50.4057 41.5602L54.5808 38.5272H49.421L47.8271 33.6187L46.2307 38.5272H41.0708L45.2459 41.5602L43.652 46.4662L47.8271 43.4333L52.0022 46.4662L50.4057 41.5602Z" fill="black"/>
<path d="M66.7456 41.5602L70.9207 38.5272H65.7608L64.1644 33.6187L62.5705 38.5272H57.4106L61.5857 41.5602L59.9893 46.4662L64.1644 43.4333L68.3395 46.4662L66.7456 41.5602Z" fill="black"/>
</svg>
