<svg width="82" height="82" viewBox="0 0 82 82" fill="none" xmlns="http://www.w3.org/2000/svg">
<path d="M68.5274 10.1519H12.6903C7.08344 10.1519 2.53815 14.6971 2.53815 20.304V60.9128C2.53815 66.5197 7.08344 71.065 12.6903 71.065H68.5274C74.1343 71.065 78.6796 66.5197 78.6796 60.9128V20.304C78.6796 14.6971 74.1343 10.1519 68.5274 10.1519Z" fill="#215230"/>
<path opacity="0.15" d="M68.5274 10.1519H12.6903C7.08379 10.1519 2.53815 14.6975 2.53815 20.304V60.9128C2.53815 66.5193 7.08379 71.065 12.6903 71.065H68.5274C74.1339 71.065 78.6796 66.5193 78.6796 60.9128V20.304C78.6796 14.6975 74.1339 10.1519 68.5274 10.1519ZM76.1415 60.9128C76.1415 65.1107 72.7253 68.5269 68.5274 68.5269H12.6903C8.49241 68.5269 5.07619 65.1107 5.07619 60.9128V20.304C5.07619 16.1061 8.49241 12.6899 12.6903 12.6899H68.5274C72.7253 12.6899 76.1415 16.1061 76.1415 20.304V60.9128Z" fill="black"/>
<path opacity="0.2" d="M68.5273 12.6899H12.6903C8.48471 12.6899 5.07611 16.0985 5.07611 20.3041V22.8421C5.07611 18.6366 8.48471 15.228 12.6903 15.228H68.5273C72.7328 15.228 76.1414 18.6366 76.1414 22.8421V20.3041C76.1414 16.0985 72.7328 12.6899 68.5273 12.6899Z" fill="white"/>
<path d="M64.644 38.0909C64.9104 36.8066 63.0805 30.0427 64.4105 31.0858C64.5907 30.6188 63.6795 29.5021 63.4206 28.8955C62.5018 31.7051 64.6135 37.2228 63.9282 40.9487C63.4079 42.0426 59.8496 43.3548 59.012 43.8268C60.8902 44.3801 65.3597 42.1746 64.644 38.0909Z" fill="white"/>
<path d="M26.6622 40.619C27.1419 39.751 27.2459 38.8145 27.1774 37.7789C27.9008 37.4845 28.7637 36.9947 29.053 36.9591C28.8551 37.6393 29.3271 38.3728 30.284 38.2789C30.4743 43.718 31.1622 42.5809 30.8804 38.1241C31.4997 37.8373 31.6038 37.284 31.8347 37.048C33.1774 39.2485 35.1393 36.3373 33.9109 35.1394C33.8982 35.2383 33.6114 36.1927 33.6114 36.1927C33.6114 36.1927 33.8855 36.482 33.8982 36.6241C33.6012 36.9794 32.2383 36.7383 32.322 36.1876C32.388 36.0378 32.7078 35.2663 32.251 35.7256C31.8373 36.147 31.6241 37.0404 30.7941 37.1926C30.8474 35.3196 29.7865 31.9211 30.2916 30.7993C30.7637 31.3907 30.7713 30.9744 30.482 30.3932C30.0023 29.5379 29.7535 27.9034 29.2916 29.6749C29.7713 31.6699 29.8424 34.949 30.1774 37.1926C29.2612 37.015 29.548 36.3678 29.5581 35.9515C29.4337 35.8678 27.7865 36.7459 27.1013 36.9566C27.0201 36.2612 26.9185 35.6343 26.8754 35.1191C29.4439 34.8729 28.4566 31.7841 27.9261 30.3399C27.9896 30.2536 28.6799 30.8399 28.2637 30.147C27.6267 29.3425 27.3551 28.4186 27.0531 29.9465C27.4515 30.6927 27.817 32.7104 28.1977 33.5505C27.9363 33.7358 27.3424 34.0455 26.7536 34.0277C26.8018 33.1445 26.0404 31.0531 26.6343 30.8983C27.0429 31.3678 27.1038 31.1648 26.817 30.5785C26.3221 29.8247 25.9312 27.9186 25.5784 29.7638C26.0023 30.6343 25.8221 31.9008 26.1038 33.8475C24.4998 32.9896 25.7663 30.3323 24.449 29.0633C24.3881 29.2079 24.1191 30.1039 24.1191 30.1039C25.4262 31.9566 23.2612 36.0505 21.1496 33.482C20.9008 32.1013 22.3577 27.7206 20.2968 31.0531C19.8907 32.3957 18.8882 36.4693 17.7257 33.4059C17.4998 32.5531 17.9745 30.1572 17.4339 32.1292C17.1318 32.8729 17.5481 35.7916 18.8729 35.449C20.0683 34.8069 20.1115 31.7612 21.0404 30.9973C19.2029 34.8805 23.5201 37.5937 24.6673 32.8932C24.7003 33.6216 25.2358 34.7942 26.2206 35.0455C26.2789 35.6241 26.3729 36.3779 26.4592 37.1723C26.2764 37.2282 26.0937 37.2789 25.9084 37.3221C24.3729 33.3221 20.7841 39.586 25.4541 38.3398C25.515 38.5226 25.5556 38.7028 25.5607 38.8652C23.3983 41.8779 15.4948 41.8728 20.6521 36.6089C20.8196 36.6698 21.1369 36.982 21.1089 37.0099C21.2942 36.7256 21.3881 36.4211 20.8805 36.2282C21.7181 34.0049 18.6597 35.8246 20.5252 36.5302C20.147 36.9261 19.2562 37.5074 18.7105 37.8475C18.2866 38.086 16.9846 38.8804 16.6724 39.0632C16.5278 39.3271 17.8273 38.5226 18.2206 38.3881C14.444 45.586 24.0937 44.4286 26.6622 40.619ZM18.5201 38.2383C18.7892 38.1038 19.0455 37.9744 19.2562 37.8576C15.7968 43.8576 25.9008 42.4566 26.0175 38.1901C26.1927 38.1368 26.3678 38.0784 26.5454 38.0175C26.6064 38.6647 26.6495 39.2992 26.652 39.8525C25.7257 40.9413 23.5988 42.2078 21.7155 42.723C18.2435 43.822 17.0151 40.2713 18.5201 38.2409V38.2383Z" fill="white"/>
<path d="M41.4767 42.1593C42.091 41.4817 46.3371 40.3294 47.0579 39.9664C47.1214 39.7862 47.4335 39.1517 47.4539 39.0197C46.0402 39.1466 42.1519 39.3598 40.6011 39.2812C40.9209 39.0071 42.4691 38.2101 43.6011 37.8751C43.7077 38.0629 43.7864 38.2507 43.8016 38.4132C43.8828 38.3294 43.9437 38.0528 43.9234 37.771C44.6671 37.535 45.0478 37.4563 45.2128 37.4106C45.3168 37.2761 45.5021 36.7304 45.53 36.332C44.6189 34.6594 41.7179 35.2 43.1011 37.1492C41.9412 37.6365 39.9996 38.5223 39.4463 39.3218L39.3575 39.3649C39.3346 39.4081 39.1824 40.04 39.1316 40.2355C38.4666 38.2507 38.2661 35.6721 37.1138 34.9233C36.487 36.2076 38.4006 38.7609 38.426 40.1416C38.0656 40.9791 33.3728 44.6009 32.5657 42.5248C35.4438 41.4309 38.4133 39.5172 35.9565 36.7152C35.9311 36.6111 36.2484 36.7583 36.4336 36.766C36.5682 36.4792 35.5504 35.8853 35.2966 35.5985C35.0707 35.5579 35.0352 36.3675 35.0377 36.5629C35.3499 37.0172 36.2864 38.8142 36.525 39.3598C36.1722 39.8091 34.4007 40.7634 32.6723 41.5502C32.685 41.1035 33.723 39.8852 33.4311 39.5553C32.7129 40.8624 32.6139 38.7355 33.1215 38.3243C33.6316 36.6949 31.4388 40.738 32.8931 40.601C32.7408 40.8903 32.553 41.2431 32.4185 41.6644C30.4083 42.6009 27.3424 43.4918 26.0023 43.9309C26.0759 43.6923 26.0657 43.4892 25.9871 43.5502C24.6114 45.1669 25.9439 41.4943 25.7434 41.8497C24.9769 42.4334 24.5251 45.8852 25.9642 44.0349C27.0809 43.7837 30.8322 43.5197 32.2357 42.6796C32.4489 46.4841 38.9032 41.9258 38.6138 39.9842C38.7763 42.2837 40.0098 43.8903 43.3016 44.0679C43.3092 43.8065 43.2052 42.9893 43.2052 42.9893C42.7889 42.9309 41.7356 42.771 41.4793 42.1618L41.4767 42.1593ZM39.1595 40.3065C39.8118 40.3192 43.36 40.2253 44.0351 40.205C42.7889 40.639 41.063 40.8928 41.1417 42.6415C40.1189 42.4106 39.558 41.4639 39.1595 40.3065Z" fill="white"/>
<path d="M32.5429 35.0684C33.7079 34.4441 33.7663 31.5202 34.7104 30.7918C32.7688 34.5304 37.3754 36.9973 38.2738 32.4847C39.0911 36.8019 43.8068 34.109 41.5784 30.7309C40.9667 29.3375 42.1571 30.7893 41.7459 29.8832C41.1088 29.0812 40.8373 28.1548 40.5352 29.6827C40.9413 30.4213 41.3398 32.4365 41.6799 33.2867C38.2307 35.1141 39.3271 30.3274 38.0556 28.6548C37.9947 28.7995 37.7256 29.6954 37.7256 29.6954C39.8525 34.4745 32.9439 35.6446 35.1927 30.0431C34.0582 28.2106 33.5708 34.2486 32.2866 34.1395C31.2435 34.1395 31.2384 31.8223 31.378 31.3299C30.6369 31.3781 31.01 35.5253 32.5429 35.0684Z" fill="white"/>
<path d="M60.3471 36.1239C60.4918 38.5325 60.7227 40.8244 60.644 42.53C61.5298 41.6264 61.0374 38.7381 61.0121 36.8879C62.1237 38.2051 63.3445 39.7127 63.611 41.1467C63.644 41.2381 63.7862 40.8676 63.7633 40.2889C63.8851 39.2737 62.0755 36.959 60.9334 35.7509C61.0806 34.5808 60.0171 31.525 60.644 30.8423C61.0527 31.3143 61.1136 31.1088 60.8268 30.5225C60.3344 29.7509 59.9715 27.9616 59.6187 29.7661C60.0501 30.6976 59.9588 32.926 60.2532 34.9869C59.276 33.8955 58.6618 33.2433 58.1517 32.6874C58.1796 32.2077 57.6923 30.6773 58.1948 30.8702C58.6035 31.3397 58.6644 31.1367 58.3776 30.5479C57.8573 29.7255 57.4943 27.9489 57.1314 29.822C57.469 30.3118 57.3167 30.8803 57.4588 31.8879C56.6974 30.7661 55.7228 30.2966 57.0324 30.4209C56.4943 30.0428 54.4208 28.0885 54.969 29.9869C55.7431 30.3499 56.5679 32.0631 57.5629 33.0123C57.7228 35.162 58.2177 38.6493 58.2938 40.6645C56.2405 42.4691 55.8573 40.6924 54.6771 40.0401C54.6822 39.4691 54.6644 38.9133 54.6644 38.5858C54.9436 37.3041 53.1949 30.1494 54.5603 31.2052C54.4538 30.6215 53.3751 27.6164 53.1187 29.7966C53.6898 31.7585 53.7659 35.8701 54.0604 38.5833C54.0883 38.8397 54.1213 39.3219 54.1492 39.8447C54.1441 39.8447 54.139 39.8396 54.139 39.8396C52.4538 40.3219 51.6898 45.5883 49.8218 42.5452C53.2076 40.0021 50.8624 34.1163 50.6518 30.8372C50.6721 30.6291 51.0045 31.1215 51.1771 31.157C51.3015 30.6824 50.4639 29.4565 50.1645 28.8423C48.9563 31.3093 52.0705 36.7356 50.8853 40.063C51.0401 38.4666 49.1467 36.53 47.7863 35.2838C47.9081 34.6062 46.4691 29.8829 47.7254 31.2001C47.8396 31.1418 47.7127 30.794 47.5553 30.4844C47.0528 29.6443 46.7635 28.0098 46.3472 29.7915C46.6949 30.2306 46.8472 33.9032 47.0756 34.624C46.2711 33.6849 42.3676 30.9133 44.2254 31.1671C44.2102 31.1164 44.129 30.9945 43.9234 30.8702C43.2229 30.6418 41.7077 28.8702 42.162 30.7331C42.2584 30.7407 42.431 30.8575 42.5554 31.0047C43.5173 32.3194 45.7609 34.4818 47.233 35.7915C47.7939 42.8371 48.7533 44.7914 47.9386 36.4691C49.1086 37.6595 50.4639 38.9463 50.738 40.4412C50.4919 40.9513 50.134 41.4056 49.6086 41.7736C49.4614 40.8117 49.6213 40.0325 49.4817 39.9589C49.1898 40.1366 49.2761 41.3701 49.332 41.964C45.1975 44.1873 44.5274 44.7254 49.4919 42.7533C51.2152 47.0832 52.3573 41.7178 54.0705 40.766C54.1162 40.8066 54.1543 40.8295 54.1999 40.8676C54.2177 41.4132 54.2203 41.8802 54.1974 42.0325C54.4258 42.03 54.5502 41.6772 54.6162 41.195C59.6085 45.0959 58.9233 37.7153 58.309 33.8651C59.1466 34.8397 59.6847 35.4082 60.3547 36.1189L60.3471 36.1239Z" fill="white"/>
<path d="M56.2406 52.436H52.4335C52.7254 52.2254 52.8802 51.9157 52.8371 51.6061C52.8117 51.4107 52.6163 51.2635 52.3777 51.2432H52.2584C51.9691 51.2711 51.7609 51.4792 51.7914 51.7076L51.8041 51.7965L51.8193 51.931C51.8345 52.101 51.8193 52.2711 51.7711 52.436H23.6368C24.0556 53.0452 24.817 53.4157 25.6394 53.4157L51.3142 53.4005C51.0198 53.6112 50.8676 53.9208 50.9082 54.233C50.9386 54.4614 51.1975 54.6238 51.4843 54.5959C51.7736 54.568 51.9818 54.3599 51.9513 54.1315L51.9386 54.0426L51.9234 53.9081C51.9081 53.7381 51.9234 53.568 51.9716 53.4005H55.1391L55.2279 53.5477C55.3066 53.6822 55.4081 53.8015 55.5249 53.9081L55.6873 54.0426C56.0071 54.266 56.4157 54.398 56.8446 54.398C57.2507 54.398 57.5781 54.1162 57.5781 53.7685V53.5858C57.5781 52.9513 56.9766 52.436 56.2355 52.436H56.2406Z" fill="white"/>
</svg>
