<svg width="82" height="82" viewBox="0 0 82 82" fill="none" xmlns="http://www.w3.org/2000/svg">
<path d="M68.5272 10.1519H12.6902C7.08325 10.1519 2.53796 14.6971 2.53796 20.304V60.9128C2.53796 66.5197 7.08325 71.065 12.6902 71.065H68.5272C74.1341 71.065 78.6794 66.5197 78.6794 60.9128V20.304C78.6794 14.6971 74.1341 10.1519 68.5272 10.1519Z" fill="#065DB9"/>
<path d="M70.3284 10.3335L40.6086 34.1092L10.8888 10.3335C7.21474 10.9941 4.2635 13.6294 3.1026 17.103L32.4843 40.6083L3.1026 64.114C4.26376 67.5878 7.21474 70.223 10.8888 70.8834L40.6086 47.1078L70.3284 70.8834C74.0024 70.2228 76.9537 67.5875 78.1146 64.114L48.7329 40.6086L78.1146 17.1032C76.9534 13.6294 74.0024 10.9939 70.3284 10.3335Z" fill="white"/>
<path opacity="0.15" d="M68.5272 10.1519H12.6902C7.08335 10.1519 2.53796 14.697 2.53796 20.304V60.9128C2.53796 66.5199 7.08335 71.065 12.6902 71.065H68.5272C74.1342 71.065 78.6794 66.5199 78.6794 60.9128V20.304C78.6794 14.697 74.1342 10.1519 68.5272 10.1519ZM76.1413 60.9128C76.1413 65.1115 72.7259 68.5269 68.5272 68.5269H12.6902C8.49146 68.5269 5.07601 65.1115 5.07601 60.9128V20.304C5.07601 16.1054 8.49146 12.6899 12.6902 12.6899H68.5272C72.7259 12.6899 76.1413 16.1054 76.1413 20.304V60.9128Z" fill="black"/>
<path opacity="0.2" d="M68.5272 12.6899H12.6902C8.4849 12.6899 5.07605 16.0988 5.07605 20.3041V22.8421C5.07605 18.6368 8.4849 15.228 12.6902 15.228H68.5272C72.7325 15.228 76.1414 18.6368 76.1414 22.8421V20.3041C76.1414 16.0988 72.7325 12.6899 68.5272 12.6899Z" fill="white"/>
</svg>
