<svg width="82" height="82" viewBox="0 0 82 82" fill="none" xmlns="http://www.w3.org/2000/svg">
<path d="M25.3806 10.1519H55.8371V71.065H25.3806V10.1519Z" fill="#FBF064"/>
<path d="M12.6902 10.1519H27.9185V71.065H12.6902C7.08621 71.065 2.53802 66.5168 2.53802 60.9128V20.304C2.53802 14.7 7.08621 10.1519 12.6902 10.1519Z" fill="#3A8445"/>
<path d="M68.5274 71.0654H53.2991L53.2991 10.1523H68.5274C74.1314 10.1523 78.6796 14.7005 78.6796 20.3045V60.9132C78.6796 66.5172 74.1314 71.0654 68.5274 71.0654Z" fill="#D1332C"/>
<path opacity="0.15" d="M68.5273 10.1519H12.6902C7.08367 10.1519 2.53802 14.6975 2.53802 20.304V60.9128C2.53802 66.5193 7.08367 71.065 12.6902 71.065H68.5273C74.1338 71.065 78.6794 66.5193 78.6794 60.9128V20.304C78.6794 14.6975 74.1338 10.1519 68.5273 10.1519ZM76.1414 60.9128C76.1414 65.1107 72.7252 68.5269 68.5273 68.5269H12.6902C8.49228 68.5269 5.07607 65.1107 5.07607 60.9128V20.304C5.07607 16.1061 8.49228 12.6899 12.6902 12.6899H68.5273C72.7252 12.6899 76.1414 16.1061 76.1414 20.304V60.9128Z" fill="black"/>
<path d="M44.4565 41.6013L50.6823 37.0785H42.9869L40.6088 29.7588L38.2306 37.0785H30.5353L36.7611 41.6013L34.383 48.921L40.6088 44.3957L46.8346 48.921L44.4565 41.6013Z" fill="#3A8445"/>
<path opacity="0.2" d="M68.5273 12.6899H12.6903C8.48471 12.6899 5.07611 16.0985 5.07611 20.3041V22.8421C5.07611 18.6366 8.48471 15.228 12.6903 15.228H68.5273C72.7328 15.228 76.1414 18.6366 76.1414 22.8421V20.3041C76.1414 16.0985 72.7328 12.6899 68.5273 12.6899Z" fill="white"/>
</svg>
