<svg width="82" height="82" viewBox="0 0 82 82" fill="none" xmlns="http://www.w3.org/2000/svg">
<path d="M2.53833 27.9185H78.6797V53.2989H2.53833V27.9185Z" fill="#1A3D73"/>
<path d="M12.6905 10.1519H68.5276C74.1316 10.1519 78.6797 14.7 78.6797 20.304V30.4562H2.53833V20.304C2.53833 14.7 7.08651 10.1519 12.6905 10.1519Z" fill="#B8403F"/>
<path d="M68.5275 71.0654L12.6904 71.0654C7.08642 71.0654 2.53824 66.5172 2.53824 60.9132V50.7611L78.6797 50.7611V60.9132C78.6797 66.5172 74.1315 71.0654 68.5275 71.0654Z" fill="white"/>
<path opacity="0.15" d="M68.5276 10.1519H12.6905C7.08397 10.1519 2.53833 14.6975 2.53833 20.304V60.9128C2.53833 66.5193 7.08397 71.065 12.6905 71.065H68.5276C74.1341 71.065 78.6797 66.5193 78.6797 60.9128V20.304C78.6797 14.6975 74.1341 10.1519 68.5276 10.1519ZM76.1417 60.9128C76.1417 65.1107 72.7255 68.5269 68.5276 68.5269H12.6905C8.49259 68.5269 5.07638 65.1107 5.07638 60.9128V20.304C5.07638 16.1061 8.49259 12.6899 12.6905 12.6899H68.5276C72.7255 12.6899 76.1417 16.1061 76.1417 20.304V60.9128Z" fill="black"/>
<path opacity="0.2" d="M68.5276 12.6899H12.6905C8.48498 12.6899 5.07639 16.0985 5.07639 20.3041V22.8421C5.07639 18.6366 8.48498 15.228 12.6905 15.228H68.5276C72.7331 15.228 76.1417 18.6366 76.1417 22.8421V20.3041C76.1417 16.0985 72.7331 12.6899 68.5276 12.6899Z" fill="white"/>
<path d="M34.6929 23.9158C35.2183 23.8397 35.033 23.0148 34.5254 23.1722C34.736 22.8244 34.2741 22.4234 33.9594 22.6798C34.0279 22.3118 33.5254 22.0859 33.2944 22.3701C33.3579 22.0072 32.863 21.7813 32.632 22.063C32.6168 21.7382 32.1726 21.5935 31.967 21.8422C31.9213 21.5047 31.3579 21.2788 31.0787 21.459C31.066 21.1316 30.6193 20.9818 30.4137 21.2331C30.3985 20.8981 29.9341 20.761 29.7361 21.025C29.665 20.7103 29.1929 20.6468 29.0407 20.9311C28.9544 20.6037 28.4569 20.5707 28.3275 20.8828C28.2336 20.6544 27.896 20.5859 27.7209 20.7636C27.8122 20.261 27.4569 19.7433 26.9544 19.6493C26.9823 19.393 26.8326 19.2179 27.2057 19.2686C27.3249 19.7509 28.0762 18.9996 27.5914 18.8829C27.5686 18.6646 27.231 18.6646 27.2057 18.8829C26.8732 18.9159 26.9645 18.8397 26.9544 18.5758C27.3249 18.4742 26.9696 18.0631 26.7615 18.0225C26.5534 18.0631 26.198 18.4742 26.5686 18.5758C26.561 18.8448 26.6473 18.9133 26.3173 18.8829C26.292 18.6646 25.9544 18.6671 25.9341 18.8829C25.561 18.9818 25.9163 19.3955 26.127 19.4362C26.3529 19.4006 26.2513 19.2103 26.5711 19.2686C26.7006 19.9311 25.6422 19.7103 25.8046 20.7636C25.6295 20.5859 25.292 20.6544 25.1981 20.8828C25.0712 20.5707 24.5712 20.6037 24.4849 20.9311C24.3326 20.6468 23.8605 20.7103 23.7894 21.025C23.5915 20.7585 23.127 20.8981 23.1118 21.2331C22.9062 20.9818 22.457 21.1316 22.4468 21.459C22.1676 21.2788 21.6042 21.5047 21.5585 21.8422C21.3529 21.5935 20.9088 21.7407 20.8935 22.063C20.66 21.7838 20.1651 22.0072 20.2311 22.3701C19.9976 22.0859 19.4976 22.3118 19.5661 22.6798C19.2539 22.4234 18.7895 22.8244 19.0001 23.1722C18.49 23.0148 18.3073 23.8422 18.8326 23.9158C18.49 24.0681 18.5915 24.6265 18.9722 24.6392C18.7743 24.8853 18.9875 25.2838 19.3047 25.2483C19.1575 25.4615 19.2768 25.6569 19.2996 25.8929C19.3935 26.1163 19.6144 25.9945 19.759 26.0452C20.0154 26.9437 20.6448 27.5376 21.0839 28.3752C20.8225 28.4538 20.9291 28.7381 21.1651 28.6924C21.1702 28.6848 21.1879 28.7939 21.1879 28.7939C21.028 29.035 20.7742 29.6746 21.2235 29.8015C21.4367 30.1873 21.5027 29.9234 21.2996 30.2736C22.8326 30.8929 25.0204 30.535 26.7615 30.6822C28.5026 30.535 30.6929 30.8904 32.2234 30.2736C32.0076 29.9107 32.1041 30.1848 32.3021 29.8015C32.7386 29.6873 32.5026 29.03 32.3376 28.7939C32.3376 28.7609 32.3477 28.6645 32.401 28.6949C32.6193 28.7102 32.6828 28.4437 32.4442 28.3777C32.8833 27.5401 33.5127 26.9462 33.769 26.0478C33.9112 25.997 34.1396 26.1188 34.2284 25.8955C34.2563 25.6569 34.368 25.464 34.2234 25.2508C34.5406 25.2838 34.7538 24.8879 34.5558 24.6417C34.9365 24.6265 35.0381 24.0681 34.6954 23.9183L34.6929 23.9158Z" fill="#E6BD4C"/>
<path d="M36.1192 30.54V45.7785C36.1192 48.2734 35.0101 50.715 33.3451 52.4891C31.6802 54.2632 29.3528 55.484 26.7589 55.484C24.165 55.484 21.8376 54.2632 20.1726 52.4891C18.5077 50.715 17.3986 48.2734 17.3986 45.7785V30.54H36.1167H36.1192Z" fill="#B8403F"/>
<path d="M26.7589 55.5526C24.3046 55.5526 21.9467 54.4815 20.1219 52.5374C18.3478 50.644 17.33 48.1821 17.33 45.7811V30.4741H36.1877V45.7811C36.1877 48.1821 35.1699 50.6465 33.3959 52.5374C31.571 54.484 29.2157 55.5526 26.7589 55.5526ZM17.4696 30.6112V45.7811C17.4696 48.1465 18.4747 50.5755 20.2234 52.4435C22.0203 54.3597 24.3426 55.4155 26.7589 55.4155C29.1751 55.4155 31.4974 54.3597 33.2943 52.4435C35.043 50.578 36.0481 48.1491 36.0481 45.7811V30.6112H17.4696Z" fill="white"/>
<path d="M35.6902 36.1468C35.5532 34.0021 34.2639 30.7686 32.4187 31.4844C33.5811 34.1265 32.4618 34.6163 30.4289 37.0249C30.3197 36.964 29.5025 36.9869 30.0532 36.7356C29.2969 36.3524 28.1548 34.8955 29.0456 33.9564C29.4974 33.8194 30.1015 34.3803 30.3476 33.7813C30.9898 33.7534 31.4644 33.4641 31.4771 32.9793C31.0126 33.5072 30.4847 33.525 29.9213 33.3118C29.4746 33.1925 29.3426 33.2458 29.7157 32.9666C30.2284 33.096 30.0735 32.6747 30.4339 32.6849C30.7563 32.6849 30.6725 33.4488 31.0253 33.0275C32.3705 31.8092 31.3375 31.4336 30.4263 31.1874C29.8096 30.7585 27.835 31.9082 27.2208 31.8397C27.0837 32.2001 27.2005 32.5351 27.5456 32.4971C27.1091 33.2179 26.8807 33.9514 26.7614 35.0376C26.8858 33.9412 25.7589 32.7813 26.2665 32.4057C26.6345 31.4996 25.7842 31.9945 24.8985 31.4387C23.3122 30.5758 20.4797 31.6138 22.7132 33.1569C23.1523 32.19 23.132 33.0123 23.8096 32.9641C24.4568 33.4717 22.3426 33.5935 22.033 33.0072C22.0863 33.6392 23.0685 33.7661 23.5178 34.0478C24.637 33.563 25.0634 34.6874 24.6548 35.5148C24.2436 36.2178 23.7868 36.4589 23.467 36.7762C24.0254 36.8828 23.1523 37.0224 23.0939 37.0224C21.9188 35.7178 19.7132 33.5377 20.8883 32.2255C21.8198 29.7864 17.8275 32.629 17.9721 35.1899C17.1676 38.9665 18.9264 44.535 18.3046 48.4969C19.2792 48.4868 19.2589 47.1619 19.6904 48.4411C20.1066 48.1923 20.33 47.6619 20.4391 47.0477C20.6371 47.7127 20.8833 46.9792 21.033 46.6746C21.5508 46.535 21.7868 45.3497 21.797 44.6822C22.1295 45.4284 22.5305 44.0299 22.4543 43.4716C22.9924 44.7584 21.7868 46.5274 21.0711 47.2812C21.3909 47.5071 22.0888 47.3142 22.3427 47.0071C22.1675 47.5731 22.1193 48.3573 22.8198 47.6949C22.8503 48.5121 23.335 48.2101 23.6015 47.4715C24.203 48.5172 23.9645 47.1238 24.4645 46.4386C25.7157 47.6568 24.5914 48.4132 24.5228 49.5959C24.9162 50.1289 23.5482 50.8751 23.8503 51.5324C24.6091 52.1085 22.3477 53.6035 23.5482 54.0755C23.7792 54.1314 24.1218 54.3141 24.2081 53.9588C24.1269 54.4232 25.0457 54.6263 25.2056 54.243C25.2639 54.639 26.1446 54.7303 26.2462 54.3217C26.2893 54.7354 27.2233 54.738 27.269 54.3217C27.368 54.7303 28.2512 54.639 28.3096 54.2405C28.467 54.6238 29.3883 54.4232 29.3096 53.9588C29.3984 54.3116 29.7436 54.1288 29.9746 54.0705C30.939 53.6085 29.5253 52.4664 29.434 51.672C30.2284 51.2811 29.0101 50.3141 28.8401 49.7304C29.3933 49.2558 28.4974 48.4233 28.3654 47.8116C28.7918 46.1416 29.3629 46.4995 29.5456 47.9309C30.0279 47.1137 30.0735 48.1162 30.5101 48.2329C30.7817 47.1695 31.5811 48.7989 31.1751 47.002C31.4289 47.3091 32.1268 47.502 32.4466 47.2761C31.7309 46.5198 30.5279 44.7558 31.0634 43.4665C30.9898 44.0249 31.3883 45.4259 31.7207 44.6771C31.7309 45.3472 31.9669 46.5325 32.4847 46.6695C32.6319 46.969 32.8781 47.7101 33.0786 47.0426C33.1877 47.6568 33.4111 48.1847 33.8273 48.436C34.2562 47.1441 34.241 48.4918 35.2131 48.4918C34.6344 44.9792 36.1192 39.4285 35.6852 36.1392L35.6902 36.1468Z" fill="white"/>
</svg>
