<svg width="82" height="82" viewBox="0 0 82 82" fill="none" xmlns="http://www.w3.org/2000/svg">
<path d="M6.77142 69.1314C8.44146 70.337 10.4744 71.0654 12.6901 71.0654H68.5272C74.1337 71.0654 78.6794 66.5198 78.6794 60.9132V48.5859L6.77142 69.1314Z" fill="#357939"/>
<path d="M30.4565 10.1519H12.6902C7.08367 10.1519 2.53802 14.6975 2.53802 20.304V60.9128C2.53802 63.1311 3.26898 65.1666 4.47709 66.8366L30.4565 10.1519Z" fill="#0E2A69"/>
<path d="M5.39332 67.9483L58.375 10.1519H30.4565L4.47708 66.8366C4.7588 67.2275 5.05829 67.6031 5.39332 67.9483Z" fill="#F7D45D"/>
<path d="M6.44911 68.8645L78.6794 28.2354V20.304C78.6794 14.6975 74.1338 10.1519 68.5272 10.1519H58.375L5.39328 67.9483C5.71815 68.2833 6.08109 68.5752 6.44911 68.8645Z" fill="#C23635"/>
<path d="M7.78919 69.7532L78.6794 52.03V28.2358L6.4491 68.8649C6.87041 69.1974 7.31711 69.4893 7.78919 69.7532Z" fill="white"/>
<path opacity="0.15" d="M68.5273 10.1519H12.6902C7.08367 10.1519 2.53802 14.6975 2.53802 20.304V60.9128C2.53802 66.5193 7.08367 71.065 12.6902 71.065H68.5273C74.1338 71.065 78.6794 66.5193 78.6794 60.9128V20.304C78.6794 14.6975 74.1338 10.1519 68.5273 10.1519ZM76.1414 60.9128C76.1414 65.1107 72.7252 68.5269 68.5273 68.5269H12.6902C8.49228 68.5269 5.07607 65.1107 5.07607 60.9128V20.304C5.07607 16.1061 8.49228 12.6899 12.6902 12.6899H68.5273C72.7252 12.6899 76.1414 16.1061 76.1414 20.304V60.9128Z" fill="black"/>
<path opacity="0.2" d="M68.5273 12.6899H12.6902C8.48468 12.6899 5.07608 16.0985 5.07608 20.3041V22.8421C5.07608 18.6366 8.48468 15.228 12.6902 15.228H68.5273C72.7328 15.228 76.1414 18.6366 76.1414 22.8421V20.3041C76.1414 16.0985 72.7328 12.6899 68.5273 12.6899Z" fill="white"/>
</svg>
