<svg width="82" height="82" viewBox="0 0 82 82" fill="none" xmlns="http://www.w3.org/2000/svg">
<path d="M2.53809 60.9132C2.53809 66.5198 7.08373 71.0654 12.6903 71.0654H68.5273C74.1339 71.0654 78.6795 66.5198 78.6795 60.9132V38.0708H2.53809V60.9132Z" fill="white"/>
<path d="M68.5273 10.1523H12.6903C7.08373 10.1523 2.53809 14.698 2.53809 20.3045V40.6089H78.6795V20.3045C78.6795 14.698 74.1339 10.1523 68.5273 10.1523Z" fill="#DB3C3F"/>
<path opacity="0.15" d="M12.6903 71.0655H68.5273C74.1339 71.0655 78.6795 66.5198 78.6795 60.9133V20.3045C78.6795 14.698 74.1339 10.1523 68.5273 10.1523H12.6903C7.08373 10.1523 2.53809 14.698 2.53809 20.3045V60.9133C2.53809 66.5198 7.08373 71.0655 12.6903 71.0655ZM5.07613 20.3045C5.07613 16.1066 8.49234 12.6904 12.6903 12.6904H68.5273C72.7252 12.6904 76.1415 16.1066 76.1415 20.3045V60.9133C76.1415 65.1112 72.7252 68.5274 68.5273 68.5274H12.6903C8.49234 68.5274 5.07613 65.1112 5.07613 60.9133V20.3045Z" fill="black"/>
<path opacity="0.2" d="M68.5274 12.6904H12.6903C8.48477 12.6904 5.07617 16.099 5.07617 20.3046V22.8426C5.07617 18.6371 8.48477 15.2285 12.6903 15.2285H68.5274C72.7329 15.2285 76.1415 18.6371 76.1415 22.8426V20.3046C76.1415 16.099 72.7329 12.6904 68.5274 12.6904Z" fill="white"/>
<path d="M17.2867 26.6497C17.2867 21.8325 20.6394 17.7996 25.1394 16.759C24.4008 16.5889 23.6318 16.4976 22.8399 16.4976C17.2334 16.4976 12.6877 21.0432 12.6877 26.6497C12.6877 32.2563 17.2334 36.8019 22.8399 36.8019C23.6293 36.8019 24.4008 36.7106 25.1394 36.5405C20.6394 35.4999 17.2867 31.467 17.2867 26.6497Z" fill="white"/>
<path d="M27.4363 21.1394L26.8424 22.9643L28.3983 21.8349L29.9515 22.9643L29.3576 21.1394L30.9109 20.01H28.9922L28.3983 18.1826L27.8044 20.01H25.8831L27.4363 21.1394Z" fill="white"/>
<path d="M36.4489 24.033H34.5301L33.9362 22.2056L33.3423 24.033H31.421L32.9743 25.1624L32.3829 26.9898L33.9362 25.8604L35.4895 26.9898L34.8956 25.1624L36.4489 24.033Z" fill="white"/>
<path d="M25.5682 30.5426L24.9743 28.7178L24.3804 30.5426H22.4617L24.015 31.6721L23.421 33.4995L24.9743 32.37L26.5276 33.4995L25.9337 31.6721L27.4895 30.5426H25.5682Z" fill="white"/>
<path d="M32.4135 30.5426L31.8196 28.7178L31.2256 30.5426H29.3069L30.8602 31.6721L30.2663 33.4995L31.8196 32.37L33.3728 33.4995L32.7815 31.6721L34.3348 30.5426H32.4135Z" fill="white"/>
<path d="M23.4515 24.0329L22.8602 22.208L22.2663 24.0329H20.345L21.8983 25.1623L21.3044 26.9897L22.8602 25.8603L24.4135 26.9897L23.8196 25.1623L25.3728 24.0329H23.4515Z" fill="white"/>
</svg>
