<svg width="82" height="82" viewBox="0 0 82 82" fill="none" xmlns="http://www.w3.org/2000/svg">
<path d="M2.53809 60.9132C2.53809 66.5203 7.08322 71.0654 12.6903 71.0654H68.5273C74.1344 71.0654 78.6795 66.5203 78.6795 60.9132V38.0708H2.53809V60.9132Z" fill="#022588"/>
<path d="M68.5273 10.1523H12.6903C7.08322 10.1523 2.53809 14.6975 2.53809 20.3045V40.6089H78.6795V20.3045C78.6795 14.6975 74.1344 10.1523 68.5273 10.1523Z" fill="#DD1216"/>
<path d="M5.87739 68.3938L40.6088 40.6087L5.87739 12.8237C3.8396 14.6806 2.53809 17.3303 2.53809 20.3044V60.9131C2.53809 63.8872 3.8396 66.5369 5.87739 68.3938Z" fill="white"/>
<path opacity="0.15" d="M68.5273 10.1523H12.6903C7.08347 10.1523 2.53809 14.6975 2.53809 20.3045V60.9133C2.53809 66.5203 7.08347 71.0655 12.6903 71.0655H68.5273C74.1344 71.0655 78.6795 66.5203 78.6795 60.9133V20.3045C78.6795 14.6975 74.1344 10.1523 68.5273 10.1523ZM76.1415 60.9133C76.1415 65.112 72.726 68.5274 68.5273 68.5274H12.6903C8.49158 68.5274 5.07613 65.112 5.07613 60.9133V20.3045C5.07613 16.1058 8.49158 12.6904 12.6903 12.6904H68.5273C72.726 12.6904 76.1415 16.1058 76.1415 20.3045V60.9133Z" fill="black"/>
<path opacity="0.2" d="M68.5274 12.6904H12.6903C8.48502 12.6904 5.07617 16.0993 5.07617 20.3046V22.8426C5.07617 18.6373 8.48502 15.2285 12.6903 15.2285H68.5274C72.7326 15.2285 76.1415 18.6373 76.1415 22.8426V20.3046C76.1415 16.0993 72.7326 12.6904 68.5274 12.6904Z" fill="white"/>
<path d="M22.38 31.695C22.3351 31.6846 21.81 31.3757 21.9437 30.9237C21.8993 30.9277 21.4158 30.7627 21.4688 30.2298C21.4272 30.2417 20.9054 30.1694 20.859 29.7194C20.8178 29.7371 20.2988 29.7978 20.061 29.3554C20.0247 29.3668 19.5125 29.4531 19.376 29.0818C19.3412 29.1054 18.8298 29.2531 18.5422 28.8219C18.5135 28.8572 17.9339 29.0232 17.7539 28.6069C17.5765 29.0219 16.9986 28.8572 16.9686 28.8219C16.6839 29.2519 16.1712 29.1021 16.1349 29.078C16.0049 29.4475 15.4912 29.3645 15.457 29.3508C15.2202 29.7932 14.7019 29.7326 14.6605 29.7145C14.6316 30.1653 14.0928 30.2326 14.0542 30.2237C14.1194 30.7587 13.6225 30.9196 13.5862 30.916C13.7227 31.3678 13.1991 31.6764 13.1534 31.6869C13.4253 32.0407 13.2316 32.4259 13.2105 32.4407L13.1968 32.8635C13.222 32.8635 22.2754 32.9054 22.2985 32.9054V32.881L22.3214 32.8815L22.3328 32.4498C22.3122 32.4356 22.1135 32.047 22.38 31.695Z" fill="#F9DA05"/>
<path d="M23.3338 30.8725C23.148 30.5753 22.912 30.4763 22.3625 30.4649C22.2645 30.4628 22.0823 30.4324 21.8516 30.3935C21.0552 30.2595 19.5775 30.0111 18.7146 30.4963C18.661 30.4545 18.4615 30.2705 18.3169 30.1349C18.3879 30.1205 18.4494 30.0804 18.5039 30.0136C18.94 30.0344 19.3694 29.9885 19.7818 29.8773C19.8996 29.8405 19.9696 29.8755 20.0009 29.8999C20.0339 29.9255 20.0531 29.9613 20.0516 29.9938L20.0463 30.0966L20.0971 30.0073C20.1679 29.8826 20.1808 29.7829 20.1354 29.7108C20.0641 29.5976 19.8788 29.6017 19.8245 29.6057C19.0448 29.6496 18.6146 29.5989 18.327 29.5491C17.8943 29.3352 17.3912 29.455 17.2621 29.6976C17.2187 29.7793 17.1598 29.9933 17.5499 30.2144L17.7547 30.3428C17.8415 30.4314 17.8717 30.5126 17.8351 30.5606C17.7978 30.6098 17.6897 30.6215 17.5763 30.5578C16.9189 30.0603 16.2476 29.9319 15.4641 30.1542C15.3402 30.1542 15.2159 30.1542 15.0915 30.1542C13.9425 30.1517 12.7547 30.1481 12.1862 30.7694L12.1811 30.7781C12.1766 30.7918 12.1684 30.8095 12.1593 30.8293C12.124 30.907 12.0758 31.0136 12.1347 31.0682C12.191 31.1207 12.3555 31.1418 13.1258 30.7301C13.1177 30.8225 13.1372 30.8847 13.1847 30.9194C13.3149 31.0149 13.6194 30.86 13.9418 30.6961C13.9948 30.6692 14.0489 30.6418 14.1019 30.6154C14.0623 30.6913 14.0867 30.743 14.109 30.7702C14.2321 30.9197 14.7534 30.8966 15.1496 30.6849C15.1182 30.7484 15.1139 30.8012 15.1357 30.8451C15.2027 30.9793 15.5004 30.9806 15.8159 30.9821H15.8567C16.0385 30.988 16.1509 31.0408 16.1504 31.1197C16.1496 31.2786 15.7572 31.5169 15.0522 31.5316C15.0001 31.5288 14.8562 31.5798 14.843 31.66C14.8321 31.7281 14.9067 31.7816 15.0765 31.8248C15.1243 31.827 15.1446 31.8468 15.1702 31.872C15.2501 31.9499 15.3344 31.9862 15.7476 31.7786C15.7489 31.8118 15.7608 31.839 15.7831 31.8593C15.8598 31.9288 16.0547 31.9105 16.4146 31.8001C16.6044 31.9418 16.7656 31.8486 16.9214 31.7585C16.9562 31.7385 16.9923 31.7176 17.0278 31.7001C17.44 31.8608 17.8874 32.0077 18.2811 32.0077C18.4643 32.0077 18.6359 31.976 18.7869 31.8991C19.0275 31.7765 19.195 31.5468 19.2851 31.2159C19.8993 31.1446 20.2889 31.0684 20.3361 30.9128C20.3463 30.8791 20.3399 30.8435 20.3174 30.8065C20.9199 31.0433 21.078 31.0179 21.1475 30.9674C21.1937 30.9336 21.2044 30.8798 21.2041 30.8258C21.2323 30.8364 21.261 30.8476 21.2894 30.8585C21.6648 31.0027 21.8975 31.0844 21.9684 31.0022C21.9958 30.9702 21.994 30.922 21.9618 30.8522C22.0648 30.8768 22.1704 30.8984 22.2729 30.9192C22.5747 30.9803 22.8866 31.0438 23.1414 31.1961C23.2704 31.2628 23.3544 31.2732 23.398 31.2276C23.4843 31.1372 23.3404 30.8839 23.3338 30.8725Z" fill="#BD715F"/>
<path d="M9.9967 31.7759C10.283 33.4 10.6005 35.0644 10.7566 36.7647C11.0964 39.2829 9.56473 41.3971 10.1931 43.8846C10.5683 45.0783 11.881 45.7722 13.0825 45.9098C14.6764 46.211 16.603 45.9108 17.7664 47.1029C18.9299 45.9105 20.8565 46.211 22.4504 45.9098C23.6519 45.7722 24.9646 45.0783 25.3397 43.8846C25.9681 41.3971 24.4364 39.2829 24.7763 36.7647C24.9324 35.0644 25.2501 33.4 25.5362 31.7759C22.7306 33.299 19.9585 31.3175 17.7664 32.5845C15.5743 31.3178 12.8023 33.2992 9.9967 31.7759Z" fill="#DD1216"/>
<path d="M15.9707 33.0875C16.4778 33.098 16.9133 33.182 17.2945 33.4023L17.7666 33.6749L18.2387 33.4023C19.0009 32.9619 19.9803 33.0665 21.3168 33.2152C22.2173 33.3155 23.2716 33.388 24.3709 33.1657C24.1716 34.3073 23.9536 35.4383 23.8412 36.6477C23.6442 38.1238 23.9886 39.4111 24.2457 40.5451C24.5003 41.6669 24.6673 42.6235 24.4275 43.6154C24.2006 44.3009 23.2582 44.8666 22.343 44.9714L22.3087 44.976L22.2754 44.9824C21.6031 45.1095 20.7346 45.1133 19.8204 45.2369C19.1402 45.3288 18.427 45.5851 17.7663 46.0021C17.1057 45.5851 16.3925 45.3288 15.7123 45.2369C14.7981 45.1136 13.9306 45.1095 13.2583 44.9824L13.224 44.976L13.1897 44.9714C12.275 44.8666 11.3337 44.3011 11.106 43.6161C10.8657 42.624 11.0329 41.6672 11.2877 40.5451C11.5451 39.4111 11.8895 38.1238 11.6923 36.6477C11.5799 35.438 11.3618 34.3073 11.1626 33.1657C12.2613 33.3878 13.3154 33.3155 14.2156 33.2152C14.8839 33.1408 15.4636 33.0771 15.9707 33.0875Z" fill="#62B1E3"/>
<path d="M22.3594 43.1429V41.2417H22.6325V40.6846H21.9589V38.7585L19.1237 36.8153V35.5674L17.7534 34.2339L16.3834 35.5674V36.8153L13.5481 38.7585V40.6846H12.8748V41.2417H13.1476V43.1429H12.6661V43.9637H22.8409V43.1429H22.3594Z" fill="white"/>
<path d="M28.9905 40.8919L28.9877 40.8688L28.4572 40.9071C28.4062 40.3944 28.2869 39.7505 28.0524 39.0503L26.455 39.5604L26.9321 42.1147L27.3572 42.1807C27.0557 45.1159 24.8776 47.3213 21.4695 47.356L21.4971 47.6268C19.7121 48.4245 15.82 48.3969 14.036 47.6258L14.0642 47.3499C10.6571 47.3162 8.4767 45.1083 8.17644 42.1746C8.19294 42.1721 8.58634 42.1112 8.60157 42.1086C8.60791 42.0746 9.07288 39.5848 9.07872 39.5543C8.90436 39.4987 7.61883 39.0906 7.48102 39.0444C7.2465 39.7449 7.12722 40.3886 7.0762 40.9013L6.54575 40.8629C5.97012 44.0264 7.99827 48.6751 12.0183 49.0238L12.0135 49.5659C16.4426 50.9953 19.0984 51.0009 23.5205 49.5717L23.5116 49.0304C27.5235 48.6867 29.5577 44.0474 28.9905 40.8919Z" fill="#F9DA05"/>
</svg>
