<svg width="82" height="82" viewBox="0 0 82 82" fill="none" xmlns="http://www.w3.org/2000/svg">
<path d="M5.8781 68.3929L75.3394 12.8249C73.5348 11.1803 71.1592 10.1523 68.5273 10.1523H12.6902C7.08367 10.1523 2.53802 14.698 2.53802 20.3045V60.9133C2.53802 63.8879 3.84004 66.5376 5.8781 68.3929Z" fill="#214FB5"/>
<path d="M75.3393 12.8247L5.87805 68.3927C7.6826 70.0374 10.0582 71.0653 12.6902 71.0653H68.5272C74.1338 71.0653 78.6794 66.5196 78.6794 60.9131V20.3043C78.6794 17.3297 77.3774 14.68 75.3393 12.8247Z" fill="#2E5A34"/>
<path d="M73.1592 11.3199L4.21057 66.4768C5.16742 67.9336 6.50243 69.096 8.06079 69.9006L77.0068 14.7412C76.05 13.2844 74.715 12.1219 73.1566 11.3174L73.1592 11.3199Z" fill="#F6D44A"/>
<path opacity="0.15" d="M68.5273 10.1523H12.6902C7.08367 10.1523 2.53802 14.698 2.53802 20.3045V60.9133C2.53802 66.5198 7.08367 71.0655 12.6902 71.0655H68.5273C74.1338 71.0655 78.6794 66.5198 78.6794 60.9133V20.3045C78.6794 14.698 74.1338 10.1523 68.5273 10.1523ZM76.1414 60.9133C76.1414 65.1112 72.7252 68.5274 68.5273 68.5274H12.6902C8.49228 68.5274 5.07607 65.1112 5.07607 60.9133V20.3045C5.07607 16.1066 8.49228 12.6904 12.6902 12.6904H68.5273C72.7252 12.6904 76.1414 16.1066 76.1414 20.3045V60.9133Z" fill="black"/>
<path opacity="0.2" d="M68.5272 12.6904H12.6901C8.48459 12.6904 5.07599 16.099 5.07599 20.3046V22.8426C5.07599 18.6371 8.48459 15.2285 12.6901 15.2285H68.5272C72.7327 15.2285 76.1413 18.6371 76.1413 22.8426V20.3046C76.1413 16.099 72.7327 12.6904 68.5272 12.6904Z" fill="white"/>
<path d="M23.2636 27.6877L22.3296 24.8096L21.3956 27.6877H18.3702L20.8169 29.4644L19.8829 32.3425L22.3296 30.5633L24.7763 32.3425L23.8423 29.4644L26.2889 27.6877H23.2636Z" fill="white"/>
<path d="M29.0353 22.4214L28.1013 25.297L30.548 23.5204L32.9947 25.297L32.0607 22.4214L34.5073 20.6422H31.482L30.548 17.7666L29.614 20.6422H26.5886L29.0353 22.4214Z" fill="white"/>
<path d="M31.482 34.7306L30.548 31.855L29.614 34.7306H26.5886L29.0353 36.5098L28.1013 39.3854L30.548 37.6087L32.9947 39.3854L32.0607 36.5098L34.5073 34.7306H31.482Z" fill="white"/>
<path d="M15.0455 34.7306L14.1115 31.855L13.1775 34.7306H10.1521L12.5988 36.5098L11.6648 39.3854L14.1115 37.6087L16.5581 39.3854L15.6241 36.5098L18.0708 34.7306H15.0455Z" fill="white"/>
<path d="M14.1115 17.7666L13.1775 20.6422H10.1521L12.5988 22.4214L11.6648 25.297L14.1115 23.5204L16.5581 25.297L15.6241 22.4214L18.0708 20.6422H15.0455L14.1115 17.7666Z" fill="white"/>
</svg>
