<svg width="82" height="82" viewBox="0 0 82 82" fill="none" xmlns="http://www.w3.org/2000/svg">
<path d="M12.6902 71.0655H68.5273C74.1338 71.0655 78.6794 66.5198 78.6794 60.9133V40.6089H2.53802V60.9133C2.53802 66.5198 7.08367 71.0655 12.6902 71.0655Z" fill="#030A85"/>
<path d="M78.6794 20.3045C78.6794 14.698 74.1338 10.1523 68.5273 10.1523H12.6902C7.08367 10.1523 2.53802 14.698 2.53802 20.3045V43.147H78.6794V20.3045Z" fill="#D04839"/>
<path d="M5.76388 68.3013L38.0707 40.6086L5.76388 12.916C3.78928 14.7688 2.53802 17.383 2.53802 20.3043V60.913C2.53802 63.8343 3.78928 66.4485 5.76388 68.3013Z" fill="black"/>
<path d="M14.2385 10.1523H12.6903C10.0051 10.1523 7.57868 11.2158 5.76398 12.9163L38.0708 40.6089L5.76398 68.3015C7.57868 70.0046 10.0051 71.0655 12.6903 71.0655H14.2385L40.888 48.2231H78.6795V32.9948H40.888L14.2385 10.1523Z" fill="white"/>
<path d="M5.76398 12.916C3.81476 14.7434 2.58127 17.3145 2.54828 20.1901L26.3704 40.6086L2.55082 61.0272C2.58381 63.9028 3.8173 66.4739 5.76652 68.3013L38.0733 40.6086L5.76398 12.916Z" fill="#F5BD45"/>
<path d="M10.5963 10.373C6.99482 11.1294 4.13952 13.8096 3.04816 17.2765L30.2687 40.6088L3.04816 63.9411C4.13698 67.408 6.99482 70.0882 10.5963 70.8446L39.9488 45.6849H78.6794V35.5327H39.9488L10.5963 10.373Z" fill="#33764C"/>
<path opacity="0.15" d="M12.6902 71.0655H68.5273C74.1338 71.0655 78.6794 66.5198 78.6794 60.9133V20.3045C78.6794 14.698 74.1338 10.1523 68.5273 10.1523H12.6902C7.08367 10.1523 2.53802 14.698 2.53802 20.3045V60.9133C2.53802 66.5198 7.08367 71.0655 12.6902 71.0655ZM5.07607 20.3045C5.07607 16.1066 8.49228 12.6904 12.6902 12.6904H68.5273C72.7252 12.6904 76.1414 16.1066 76.1414 20.3045V60.9133C76.1414 65.1112 72.7252 68.5274 68.5273 68.5274H12.6902C8.49228 68.5274 5.07607 65.1112 5.07607 60.9133V20.3045Z" fill="black"/>
<path opacity="0.2" d="M68.5273 12.6904H12.6903C8.48471 12.6904 5.07611 16.099 5.07611 20.3046V22.8426C5.07611 18.6371 8.48471 15.2285 12.6903 15.2285H68.5273C72.7328 15.2285 76.1414 18.6371 76.1414 22.8426V20.3046C76.1414 16.099 72.7328 12.6904 68.5273 12.6904Z" fill="white"/>
</svg>
