<svg width="82" height="82" viewBox="0 0 82 82" fill="none" xmlns="http://www.w3.org/2000/svg">
<path d="M68.5274 10.1523H12.6903C7.08344 10.1523 2.53815 14.6976 2.53815 20.3045V60.9133C2.53815 66.5202 7.08344 71.0655 12.6903 71.0655H68.5274C74.1343 71.0655 78.6796 66.5202 78.6796 60.9133V20.3045C78.6796 14.6976 74.1343 10.1523 68.5274 10.1523Z" fill="#071B65"/>
<path d="M16.4974 34.9592V40.6089H26.6496V34.9567L34.3576 40.6089H40.6089V37.4592L31.0607 30.4567H40.6089V20.3045H33.6546L40.6089 15.2056V10.1523H36.9515L26.6496 17.7081V10.1523H16.4974V17.2436L8.23099 11.1803C6.2843 12.1295 4.70564 13.6752 3.69803 15.5914L10.1244 20.3071H2.53815V30.4593H12.0888L2.53815 37.4643V40.6114H8.7919L16.4974 34.9592Z" fill="white"/>
<path d="M4.58383 14.1853L12.9213 20.3046H16.3832L5.98991 12.6777C5.47215 13.1346 5.00007 13.6346 4.58383 14.1853Z" fill="#B92932"/>
<path d="M2.53815 40.6087L16.3807 30.4565V32.9946L5.99751 40.6087H2.53815Z" fill="#B92932"/>
<path d="M24.1115 40.6089H19.0355V27.9187H2.53815V22.8426H19.0355V10.1523H24.1115V22.8426H40.6089V27.9187H24.1115V40.6089Z" fill="#B92932"/>
<path d="M40.6088 39.7636L27.9185 30.4565V32.9946L38.3017 40.6087H40.6088V39.7636Z" fill="#B92932"/>
<path d="M40.6088 10.1523H39.9794L26.1191 20.3147H29.581L40.6088 12.2285V10.1523Z" fill="#B92932"/>
<path opacity="0.15" d="M68.5274 10.1523H12.6903C7.08379 10.1523 2.53815 14.698 2.53815 20.3045V60.9133C2.53815 66.5198 7.08379 71.0655 12.6903 71.0655H68.5274C74.1339 71.0655 78.6796 66.5198 78.6796 60.9133V20.3045C78.6796 14.698 74.1339 10.1523 68.5274 10.1523ZM76.1415 60.9133C76.1415 65.1112 72.7253 68.5274 68.5274 68.5274H12.6903C8.49241 68.5274 5.07619 65.1112 5.07619 60.9133V20.3045C5.07619 16.1066 8.49241 12.6904 12.6903 12.6904H68.5274C72.7253 12.6904 76.1415 16.1066 76.1415 20.3045V60.9133Z" fill="black"/>
<path opacity="0.2" d="M68.5274 12.6904H12.6903C8.4848 12.6904 5.0762 16.099 5.0762 20.3046V22.8426C5.0762 18.6371 8.4848 15.2285 12.6903 15.2285H68.5274C72.7329 15.2285 76.1415 18.6371 76.1415 22.8426V20.3046C76.1415 16.099 72.7329 12.6904 68.5274 12.6904Z" fill="white"/>
<path d="M68.7151 50.2002C68.7151 50.2002 68.7151 50.2002 68.71 50.1952C68.71 50.1952 68.5069 50.0251 68.3191 49.8678C66.2557 49.4312 68.4638 45.4643 67.9004 42.6343C67.0247 39.1877 65.9359 35.7791 62.7481 38.8323C62.71 37.6166 64.2557 37.8755 64.2735 35.4618C63.2329 35.4846 62.7633 36.6547 62.6568 36.9694C62.4182 36.51 62.4639 36.0354 62.5755 35.6674C63.3319 35.9187 64.4156 35.1446 63.5679 34.2537C66.2379 34.2283 66.6136 32.3375 66.6288 32.2563C66.1643 32.6319 64.3192 33.1852 63.8014 33.2232C64.0095 33.0151 64.54 32.3832 64.4283 31.7715C62.0502 32.8552 62.4918 33.7689 61.5578 35.005L61.5705 34.9948C61.2507 35.6699 61.4664 36.3857 61.7278 36.8933C60.6288 36.4796 60.5375 37.6851 60.8497 38.1293C61.0603 37.6496 61.7177 37.7867 61.9156 38.6953C59.4182 38.0684 60.8243 36.9796 61.0324 35.8755C61.2431 35.7892 61.271 35.2816 61.0629 35.1141H61.1162C61.0096 34.4796 61.1035 33.7562 61.073 33.109V32.7207C60.5324 32.6268 59.5857 32.7207 58.9817 32.6877C58.0629 32.8273 56.3852 32.4085 55.7786 32.8476C55.7456 33.5532 55.8472 34.3146 55.7355 35.01C55.3852 35.1395 55.3421 35.9034 55.7507 35.8933C55.4563 36.84 57.8522 38.543 55.0451 38.4973C55.1314 38.0303 55.4741 37.8755 55.7431 38.274C56.4487 38.0455 56.238 36.6725 55.1898 36.9542C55.7736 34.7968 53.1619 31.9339 52.1264 31.8603C52.1137 31.9339 52.002 32.5989 52.5198 33.2562C51.7584 32.9694 50.469 33.1573 49.9107 32.4948C49.9259 34.0354 51.4335 34.6395 52.9868 34.6902C52.4233 35.4897 53.1721 36.1648 53.837 36.0253C53.4208 35.4872 53.7279 34.9872 54.2 35.0405C54.1137 35.6547 54.0299 36.4161 54.0883 36.7638C53.8345 36.4339 53.2482 35.8907 52.3574 35.7055C52.5934 36.576 52.9766 37.4237 53.4538 38.0988C51.9259 37.3501 50.4564 38.4059 50.6137 40.3983C51.3345 43.5201 46.0122 46.779 49.5401 49.6698C48.497 51.0835 48.8066 51.9743 50.4107 50.9439C49.5579 51.7561 51.3193 52.5936 51.8345 51.119C52.1695 51.35 53.4817 52.0657 53.6035 51.35C54.0147 51.9794 54.3497 52.0632 54.9182 51.515C55.1137 52.1215 57.4969 51.4515 57.4867 50.8855C57.4385 51.1698 57.4182 51.4642 57.6213 51.5784C57.6213 51.3906 57.7253 51.2002 57.7989 51.1368C57.7761 51.3779 57.7406 52.0099 58.0832 52.0327C58.0756 51.8347 58.1847 51.6165 58.2609 51.4997C58.205 52.0962 58.8522 52.454 58.8319 51.6571C58.9588 52.1495 59.5933 52.5581 59.4537 51.7256C59.639 52.1951 60.1822 52.4033 60.0959 51.7688C60.1644 52.0175 60.9233 52.2637 60.7481 51.6901C60.9486 51.9515 61.606 52.1672 61.4994 51.619C63.2278 51.5479 64.9841 51.6038 66.7125 51.586C67.0628 51.5378 67.6948 51.6825 67.9359 51.5302C67.9689 51.3957 67.8648 51.0911 67.9841 51.0429C68.0679 50.3551 67.1694 50.6596 67.0197 50.1749C67.54 50.4007 67.8318 50.5454 67.3496 50.081C67.7202 50.2459 68.2633 50.5556 67.6669 50.02C68.2075 50.2662 68.7201 50.5353 68.2151 50.0581C68.4663 50.1469 68.7303 50.3728 68.7049 50.2028L68.7151 50.2002ZM62.5857 35.6319C63.1694 34.7486 62.7862 34.9973 62.5857 35.6319ZM55.6416 41.0988C55.2025 41.0684 54.7812 41.0607 54.9538 41.6166C54.7431 41.609 54.3066 42.147 54.1644 42.3069C53.1695 40.9719 53.2025 39.7562 53.832 38.5506C54.667 39.4719 55.7228 39.8476 56.8472 38.9643C57.1974 40.1927 54.271 39.2866 55.6416 41.0988ZM64.0222 39.3679C62.3217 39.7029 65.3293 42.345 61.4131 40.9135C63.0248 39.4542 60.3928 39.8983 59.8598 39.3349C59.875 39.1547 59.9334 38.9009 59.9842 38.6242C60.6212 39.3932 60.9512 39.4592 61.2405 39.5151C62.1745 39.7308 63.0781 38.779 64.0857 39.1191L64.0248 39.3704L64.0222 39.3679Z" fill="white"/>
<path d="M65.5045 53.88H65.5096C67.9461 55.6287 67.2887 53.1211 66.2278 51.8749C65.1162 51.2836 63.8877 52.6059 63.3319 53.4688C60.6467 52.1236 57.0096 52.1617 54.3371 53.5373C53.7965 52.6287 52.5884 51.4358 51.5021 52.045C50.8092 52.2099 51.1163 53.5703 50.5325 53.8191C49.7762 55.1363 51.7863 54.8521 52.2229 54.0399C52.2432 54.0475 52.4741 54.1516 52.8168 54.4891C52.0604 55.0729 51.4082 55.7683 50.8879 56.5627C51.1924 56.781 51.9564 57.3165 51.9462 57.6236L51.9361 57.6439H51.9488V57.6769L51.9767 57.6363C52.2914 57.5475 53.9843 58.0043 54.5858 58.7226L54.5757 58.6312H54.601C55.3041 56.8419 55.8929 56.9764 55.0325 54.9764C57.3167 53.7911 60.3243 53.6769 62.6314 54.8191C62.1949 55.9003 62.0299 56.8292 62.1822 57.1008C62.4334 57.0957 62.8979 57.9662 63.1492 58.484L63.1416 58.5576L63.1695 58.5271L63.1923 58.5779L63.205 58.4891C63.8725 57.7835 65.4715 57.3495 65.8395 57.4739C65.8167 57.4282 65.7887 57.3698 65.7608 57.3216C66.3065 56.6109 66.8167 56.4053 66.8725 56.3825C66.2913 55.616 65.6111 54.9485 64.8598 54.3952C65.2228 54.017 65.4969 53.8901 65.5045 53.8876V53.88Z" fill="#F5BF42"/>
<path d="M60.7534 30.8956C60.5402 28.5377 56.8829 30.8321 56.9235 28.7737C57.8549 29.1621 58.1316 27.6773 56.992 28.3194C57.0072 28.1697 59.2509 27.1621 58.69 26.5834C58.8042 26.1418 59.2661 25.4768 58.4996 26.0073C58.5427 25.086 58.2001 25.9235 58.0884 25.2738C57.3422 25.2509 58.0808 26.3804 58.2255 26.6443C57.2636 28.9362 58.2712 25.1621 57.5098 26.4235C57.4895 25.9083 57.6113 25.3499 57.0808 26.19C56.261 26.1672 57.9844 27.5073 57.1316 27.6545C57.223 27.3753 56.6621 25.7738 56.4717 26.7941C56.3499 26.2459 56.0935 26.5961 56.3829 27.124C56.1951 27.1443 56.1773 27.2205 56.2357 27.3042L56.2204 27.3093C56.2128 27.2865 56.1798 27.2382 56.0707 27.2331C56.322 26.7585 56.0961 26.4261 55.9971 26.9311C55.8296 26.1139 55.3829 27.3118 55.4159 27.6012C54.7611 27.7306 56.3169 25.5885 55.4539 26.4235C55.3042 25.5682 55.0377 26.2205 55.1113 26.5986C54.6875 26.086 54.5732 26.9844 54.9336 27.0403C54.926 27.6925 54.6291 27.4134 54.5073 26.7991C54.6291 26.5961 55.426 25.6621 54.8524 25.6088C54.5656 26.3321 54.2661 25.2839 54.2687 26.223C53.6925 25.619 54.0555 26.4387 54.1088 26.7408C53.6342 27.421 55.5682 28.1342 55.5707 28.3397C54.426 27.8575 54.7661 29.2585 55.5529 28.8854C55.6037 29.2458 56.289 29.5123 55.9006 29.9869C55.7839 30.1494 55.8702 30.2052 56.0326 30.1824C55.7661 30.4057 55.9717 30.6722 56.2382 30.4311C55.9945 30.7661 55.8423 31.2052 56.426 30.9311C56.3423 31.2509 56.0555 31.591 56.6011 31.3321C56.8093 32.0504 55.7179 34.2305 56.8549 33.3498C57.4514 33.0605 56.5326 31.6087 57.4463 31.4235C57.4641 32.025 57.3346 33.162 57.0377 33.7686C57.1037 33.7255 57.2382 33.6417 57.2712 33.6138C57.294 33.6646 57.3346 33.761 57.36 33.827C58.3879 33.2864 57.157 31.4285 58.6519 31.3727C59.8194 31.2331 57.756 34.6925 59.091 32.9285C59.662 31.3118 60.5808 31.4818 59.7179 33.6214L59.9666 33.4742C60.0935 34.2712 60.3067 33.3727 60.6595 33.2407C60.563 32.294 60.6239 31.6367 60.2077 30.8981C60.2661 31.1392 60.9691 31.025 60.7585 30.8956H60.7534Z" fill="#894217"/>
</svg>
