<svg width="82" height="82" viewBox="0 0 82 82" fill="none" xmlns="http://www.w3.org/2000/svg">
<path d="M68.5273 10.1523H12.6902C7.08331 10.1523 2.53802 14.6976 2.53802 20.3045V60.9133C2.53802 66.5202 7.08331 71.0655 12.6902 71.0655H68.5273C74.1342 71.0655 78.6794 66.5202 78.6794 60.9133V20.3045C78.6794 14.6976 74.1342 10.1523 68.5273 10.1523Z" fill="white"/>
<path opacity="0.15" d="M68.5273 10.1523H12.6902C7.08367 10.1523 2.53802 14.698 2.53802 20.3045V60.9133C2.53802 66.5198 7.08367 71.0655 12.6902 71.0655H68.5273C74.1338 71.0655 78.6794 66.5198 78.6794 60.9133V20.3045C78.6794 14.698 74.1338 10.1523 68.5273 10.1523ZM76.1414 60.9133C76.1414 65.1112 72.7252 68.5274 68.5273 68.5274H12.6902C8.49228 68.5274 5.07607 65.1112 5.07607 60.9133V20.3045C5.07607 16.1066 8.49228 12.6904 12.6902 12.6904H68.5273C72.7252 12.6904 76.1414 16.1066 76.1414 20.3045V60.9133Z" fill="black"/>
<path d="M16.6787 31.5679L23.0605 21.9952L24.6549 23.0581L18.2731 32.6308L16.6787 31.5679Z" fill="black"/>
<path d="M19.0728 33.165L25.4546 23.5923L27.049 24.6552L20.6672 34.228L19.0728 33.165Z" fill="black"/>
<path d="M21.4608 34.7593L27.8426 25.1866L29.437 26.2495L23.0552 35.8222L21.4608 34.7593Z" fill="black"/>
<path d="M60.0195 52.9727L62.9436 48.5865L64.538 49.6494L61.6139 54.0356L60.0195 52.9727Z" fill="black"/>
<path d="M56.5607 58.1592L59.4862 53.7709L61.0806 54.8338L58.1551 59.2221L56.5607 58.1592Z" fill="black"/>
<path d="M57.624 51.3774L60.5481 46.9913L62.1425 48.0542L59.2184 52.4404L57.624 51.3774Z" fill="black"/>
<path d="M54.1676 56.5635L57.0917 52.1773L58.6861 53.2402L55.762 57.6264L54.1676 56.5635Z" fill="black"/>
<path d="M55.2335 49.7832L58.1576 45.397L59.752 46.46L56.8279 50.8461L55.2335 49.7832Z" fill="black"/>
<path d="M51.7775 54.9653L54.7016 50.5792L56.296 51.6421L53.3718 56.0283L51.7775 54.9653Z" fill="black"/>
<path d="M31.0377 34.2278C34.5631 28.9411 41.7051 27.5121 46.9919 31.0375C52.2786 34.5628 53.7076 41.7049 50.1822 46.9916L31.0377 34.2278Z" fill="#BE3B3E"/>
<path d="M31.0378 34.228C27.5124 39.5148 28.9413 46.6568 34.2281 50.1822C39.5148 53.7075 46.6569 52.2786 50.1822 46.9919C51.9437 44.3498 51.2305 40.7762 48.5858 39.0148C45.9412 37.2534 42.3701 37.9666 40.6087 40.6112L31.0378 34.2306V34.228Z" fill="#1C449C"/>
<path d="M35.822 43.1694C38.9983 43.1694 41.5732 40.5945 41.5732 37.4182C41.5732 34.2419 38.9983 31.667 35.822 31.667C32.6456 31.667 30.0707 34.2419 30.0707 37.4182C30.0707 40.5945 32.6456 43.1694 35.822 43.1694Z" fill="#BE3B3E"/>
<path d="M16.6787 49.6499L18.2731 48.587L24.6549 58.1597L23.0605 59.2226L16.6787 49.6499Z" fill="black"/>
<path d="M21.4673 46.4604L23.0617 45.3975L29.4435 54.9702L27.8491 56.0332L21.4673 46.4604Z" fill="black"/>
<path d="M54.1707 24.6553L55.7651 23.5923L62.1469 33.1651L60.5525 34.228L54.1707 24.6553Z" fill="black"/>
<path d="M19.0713 48.0532L20.6657 46.9903L23.5898 51.3765L21.9954 52.4394L19.0713 48.0532Z" fill="black"/>
<path d="M22.5267 53.2393L24.1211 52.1763L27.0453 56.5624L25.4509 57.6254L22.5267 53.2393Z" fill="black"/>
<path d="M51.7761 26.25L53.3705 25.1871L56.2946 29.5733L54.7002 30.6362L51.7761 26.25Z" fill="black"/>
<path d="M55.2343 31.4351L56.8287 30.3721L59.7528 34.7583L58.1584 35.8212L55.2343 31.4351Z" fill="black"/>
<path d="M56.5607 23.061L58.1551 21.9981L61.0792 26.3843L59.4848 27.4472L56.5607 23.061Z" fill="black"/>
<path d="M60.0193 28.2476L61.6137 27.1846L64.5378 31.5707L62.9435 32.6337L60.0193 28.2476Z" fill="black"/>
<path opacity="0.2" d="M68.5273 12.6904H12.6902C8.48468 12.6904 5.07608 16.099 5.07608 20.3046V22.8426C5.07608 18.6371 8.48468 15.2285 12.6902 15.2285H68.5273C72.7328 15.2285 76.1414 18.6371 76.1414 22.8426V20.3046C76.1414 16.099 72.7328 12.6904 68.5273 12.6904Z" fill="white"/>
</svg>
