<svg width="82" height="82" viewBox="0 0 82 82" fill="none" xmlns="http://www.w3.org/2000/svg">
<path d="M2.53809 25.3809H78.6795V55.8374H2.53809V25.3809Z" fill="#F1C142"/>
<path d="M12.6903 10.1523H68.5273C74.1313 10.1523 78.6795 14.7005 78.6795 20.3045V27.9187H2.53809V20.3045C2.53809 14.7005 7.08627 10.1523 12.6903 10.1523Z" fill="#A0251E"/>
<path d="M68.5273 71.0654L12.6902 71.0654C7.0862 71.0654 2.53802 66.5172 2.53802 60.9132V53.2991L78.6794 53.2991V60.9132C78.6794 66.5172 74.1313 71.0654 68.5273 71.0654Z" fill="#A0251E"/>
<path opacity="0.15" d="M68.5273 10.1523H12.6903C7.08373 10.1523 2.53809 14.698 2.53809 20.3045V60.9133C2.53809 66.5198 7.08373 71.0655 12.6903 71.0655H68.5273C74.1339 71.0655 78.6795 66.5198 78.6795 60.9133V20.3045C78.6795 14.698 74.1339 10.1523 68.5273 10.1523ZM76.1415 60.9133C76.1415 65.1112 72.7252 68.5274 68.5273 68.5274H12.6903C8.49234 68.5274 5.07613 65.1112 5.07613 60.9133V20.3045C5.07613 16.1066 8.49234 12.6904 12.6903 12.6904H68.5273C72.7252 12.6904 76.1415 16.1066 76.1415 20.3045V60.9133Z" fill="black"/>
<path opacity="0.2" d="M68.5274 12.6904H12.6903C8.48477 12.6904 5.07617 16.099 5.07617 20.3046V22.8426C5.07617 18.6371 8.48477 15.2285 12.6903 15.2285H68.5274C72.7329 15.2285 76.1415 18.6371 76.1415 22.8426V20.3046C76.1415 16.099 72.7329 12.6904 68.5274 12.6904Z" fill="white"/>
<path d="M32.015 33.2256C32.1825 33.1469 32.1546 32.8703 31.9744 32.8271C32.1191 32.7078 32.0252 32.4464 31.8348 32.4515C31.9363 32.3068 31.8044 32.086 31.6267 32.1215C31.68 31.9642 31.5201 31.7992 31.3627 31.8551C31.3881 31.6825 31.1825 31.553 31.0404 31.6495C31.0505 31.4769 30.8348 31.3652 30.7003 31.4743C30.6749 31.2941 30.4211 31.2332 30.3196 31.3855C30.2841 31.2129 30.0379 31.1647 29.9414 31.3145C29.8729 31.1749 29.6521 31.1698 29.5759 31.3043C29.4998 31.185 29.3044 31.1901 29.2308 31.3094C29.1851 31.2383 29.0861 31.1977 29.0023 31.2231C29.0252 31.0581 28.8348 30.9312 28.6927 31.015C28.6978 30.8373 28.4719 30.7332 28.3425 30.8525C28.3095 30.6901 28.081 30.6317 27.977 30.7612C27.9262 30.6013 27.6876 30.5708 27.6013 30.718C27.51 30.5759 27.2739 30.6114 27.2283 30.7738C27.1242 30.6343 26.8856 30.6952 26.8577 30.8652C26.8298 30.8449 26.7993 30.8297 26.7638 30.8246C26.779 30.8043 26.7892 30.784 26.8019 30.7612H26.8069C26.9541 30.4896 26.8171 30.1114 26.5379 30.0048V29.7561H26.7892V29.3652H26.5379V29.1089H26.1547V29.3652H25.9034V29.7561H26.1547V29.9997C25.8679 30.1013 25.7257 30.4845 25.8755 30.7586H25.8805C25.8907 30.7789 25.9034 30.8018 25.9161 30.8195C25.878 30.8246 25.8425 30.8398 25.8146 30.8627C25.7866 30.6926 25.5455 30.6317 25.444 30.7713C25.3983 30.6089 25.1623 30.5733 25.0709 30.7155C24.9846 30.5708 24.746 30.5987 24.6953 30.7586C24.5912 30.6266 24.3628 30.6876 24.3298 30.85C24.2004 30.7307 23.977 30.8348 23.9796 31.0124C23.8374 30.9287 23.6471 31.0556 23.6699 31.2205C23.5836 31.1952 23.4872 31.2358 23.4389 31.3068C23.3653 31.1875 23.1699 31.1825 23.0938 31.3018C23.0176 31.1647 22.7968 31.1723 22.7308 31.3119C22.6369 31.1622 22.3882 31.2104 22.3527 31.383C22.2537 31.2307 21.9973 31.2891 21.972 31.4718C21.8374 31.3627 21.6217 31.4718 21.6319 31.6469C21.4897 31.5505 21.2841 31.6799 21.3095 31.8525C21.1522 31.7992 20.9923 31.9642 21.0456 32.119C20.9187 32.0962 20.8019 32.2028 20.8019 32.3322C20.8019 32.3754 20.8146 32.416 20.8374 32.4515C20.6471 32.4464 20.5557 32.7078 20.6979 32.8271C20.5177 32.8703 20.4897 33.1444 20.6572 33.2256C20.5024 33.3144 20.538 33.5758 20.7131 33.6165C20.6801 33.6545 20.6598 33.7028 20.6598 33.7561C20.6598 33.8626 20.7359 33.9515 20.8349 33.9692C20.7765 34.0911 20.8578 34.2484 20.9872 34.2687C20.9542 34.3449 20.9567 34.454 20.9567 34.5378C21.1852 34.4895 21.4643 34.553 21.5633 34.817C21.5253 34.9895 21.7283 35.2129 21.9136 35.1875C22.0659 35.4032 22.2511 35.6063 22.5506 35.6875C22.4973 35.9235 22.7131 35.9235 22.8628 35.987C22.8298 36.0276 22.7537 36.1469 22.7232 36.1926C22.7841 36.2256 22.944 36.2966 23.01 36.322C23.0227 36.3702 23.0202 36.3931 23.0202 36.4007C23.2511 37.6723 29.4516 37.6748 29.6597 36.3982V36.3931C29.6597 36.3931 29.6699 36.4007 29.6699 36.4032C29.6699 36.3956 29.6673 36.3753 29.68 36.3246L29.9795 36.218L29.8221 35.9895C29.9643 35.9185 30.1902 35.9261 30.1343 35.6875C30.4363 35.6063 30.6242 35.4032 30.7764 35.185C30.9617 35.2104 31.1648 34.987 31.1267 34.8144C31.2257 34.5505 31.5074 34.487 31.7333 34.5352C31.7333 34.4464 31.7384 34.3373 31.7003 34.2586C31.812 34.2231 31.878 34.0784 31.8247 33.9667C31.982 33.9439 32.0556 33.7307 31.9465 33.6139C32.1216 33.5733 32.1571 33.3094 32.0023 33.2231L32.015 33.2256ZM31.2637 32.9363C31.2637 33.0606 31.2333 33.185 31.1775 33.2941C30.6749 32.9464 29.9668 32.6901 29.416 32.751C29.411 32.7281 29.4008 32.7078 29.3881 32.6901C29.3881 32.6901 29.3881 32.6875 29.3881 32.685C29.5506 32.6317 29.5759 32.3804 29.4262 32.2967C29.548 32.2155 29.5404 32.0099 29.4135 31.9388C30.246 31.8398 31.2637 32.1672 31.2637 32.9363ZM28.8374 32.2383C28.8374 32.3982 28.7866 32.553 28.7003 32.6825C28.0049 32.5327 27.6546 32.2535 26.8805 32.2129C26.8628 32.0048 26.8678 31.7789 26.8526 31.5683C27.477 31.086 28.9059 31.4109 28.8374 32.2383ZM25.8146 31.8221C25.8095 31.949 25.8069 32.0809 25.7968 32.2053C25.0303 32.2383 24.6572 32.5149 23.9719 32.6748C23.312 31.6444 25.0252 30.9591 25.8247 31.5683C25.8196 31.652 25.812 31.7358 25.8146 31.8221ZM23.1598 32.119C23.1598 32.1901 23.1953 32.2535 23.2461 32.2941C23.0988 32.3779 23.1217 32.6292 23.2841 32.6799C23.2841 32.6799 23.2841 32.6825 23.2841 32.685C23.2714 32.7028 23.2638 32.7231 23.2562 32.7459C22.7004 32.685 21.9999 32.916 21.4847 33.2687C21.0913 32.3119 22.3044 31.8068 23.2562 31.9363C23.1978 31.9743 23.1572 32.0403 23.1572 32.119H23.1598ZM23.0379 36.3905V36.3956C23.0379 36.3956 23.0329 36.3956 23.0303 36.4007C23.0303 36.3982 23.0354 36.3905 23.0379 36.3905Z" fill="#9B8028"/>
<path d="M35.8701 42.7813C36.5681 41.1316 36.3803 41.492 35.0605 40.7839V38.5682C35.4386 38.3169 34.8219 38.2611 35.1874 37.9717H35.3701V37.1113H32.8574V37.9717H33.0478C33.393 38.2306 32.8168 38.3423 33.1747 38.5682V40.4971C31.8448 40.4793 31.2179 40.6646 31.4514 41.959H31.5504L31.591 42.0504C31.9463 41.8905 32.5351 41.7788 33.1747 41.7483V42.3169C32.2001 42.3905 32.1087 43.86 33.1747 44.3473V47.6239C33.0402 47.6671 32.9996 47.8498 33.1138 47.9361C33.1316 48.1011 32.9666 48.1696 32.827 48.1468C32.827 48.2127 32.827 48.7483 32.827 48.8295C32.7153 48.8904 32.5402 48.9056 32.3955 48.9006V49.1747V49.4462V49.7178V49.9919V50.464C33.5605 50.2914 34.6671 50.2914 35.8295 50.464V48.9006C35.6848 48.9056 35.5148 48.8904 35.398 48.8295C35.398 48.7457 35.398 48.2178 35.398 48.1493C35.261 48.1696 35.0985 48.1061 35.1112 47.9437C35.2331 47.86 35.1975 47.6696 35.0579 47.6239V45.2585C35.1544 45.3016 35.2432 45.3473 35.3244 45.393C35.0579 45.695 35.0909 46.2204 35.4031 46.4818L35.5478 46.3473C36.1112 45.5123 36.5528 44.4615 35.0579 44.0732V43.1849C35.5072 43.1367 35.7914 42.9971 35.8676 42.7839L35.8701 42.7813Z" fill="#9B8028"/>
<path d="M21.2181 40.7561C20.8298 40.5987 20.2283 40.5074 19.5608 40.4972V38.5683C19.7993 38.4642 19.6471 38.2764 19.5278 38.1648C19.5785 38.0683 19.7613 38.0201 19.6699 37.8729H19.779V37.2104H17.4643V37.8729H17.5633C17.4694 38.0226 17.6623 38.0708 17.708 38.1648C17.5887 38.2714 17.4339 38.4642 17.6725 38.5683V40.784C16.038 41.1216 16.1217 42.6825 17.6725 43.1825V44.0708C16.175 44.4617 16.6192 45.5099 17.1826 46.3449L17.3273 46.4794C17.6395 46.218 17.6725 45.6926 17.406 45.3906C17.4872 45.3449 17.576 45.2992 17.6725 45.2561V47.6215C17.5329 47.6672 17.4973 47.8576 17.6192 47.9413C17.6318 48.1037 17.4694 48.1672 17.3324 48.1469C17.3324 48.2129 17.3324 48.7459 17.3324 48.8271C17.2181 48.888 17.0456 48.9058 16.9009 48.8982V49.9159V50.4616C18.0659 50.289 19.1724 50.289 20.3323 50.4616V49.9895V49.7154V49.4438V49.1723V48.8982C20.1902 48.9032 20.0176 48.888 19.9034 48.8271C19.9034 48.7433 19.9034 48.2154 19.9034 48.1444C19.7638 48.1647 19.6014 48.0987 19.6166 47.9337C19.7308 47.8474 19.6927 47.6621 19.5557 47.619V44.3449C20.6242 43.8576 20.5278 42.3855 19.5557 42.3145V41.7459C21.0151 41.8348 21.576 42.5429 21.213 40.751L21.2181 40.7561Z" fill="#9B8028"/>
<path d="M31.8042 36.8857H20.9414L20.949 43.4136V47.1826C20.949 48.279 21.5226 49.2689 22.449 49.7689C23.6495 50.4085 25.048 50.7612 26.3881 50.7612C27.7281 50.7612 29.0885 50.4186 30.3068 49.7689C31.2306 49.2689 31.8068 48.279 31.8068 47.1826L31.8042 36.8857Z" fill="#A0251E"/>
</svg>
