<svg width="82" height="82" viewBox="0 0 82 82" fill="none" xmlns="http://www.w3.org/2000/svg">
<path d="M2.53802 25.3809H78.6794V55.8374H2.53802V25.3809Z" fill="white"/>
<path d="M12.6902 10.1523H68.5273C74.1313 10.1523 78.6794 14.7005 78.6794 20.3045V27.9187H2.53802V20.3045C2.53802 14.7005 7.08621 10.1523 12.6902 10.1523Z" fill="#BC271A"/>
<path d="M68.5272 71.0654L12.6901 71.0654C7.08611 71.0654 2.53793 66.5172 2.53793 60.9132V53.2991L78.6794 53.2991V60.9132C78.6794 66.5172 74.1312 71.0654 68.5272 71.0654Z" fill="#2B6519"/>
<path opacity="0.15" d="M68.5273 10.1523H12.6902C7.08367 10.1523 2.53802 14.698 2.53802 20.3045V60.9133C2.53802 66.5198 7.08367 71.0655 12.6902 71.0655H68.5273C74.1338 71.0655 78.6794 66.5198 78.6794 60.9133V20.3045C78.6794 14.698 74.1338 10.1523 68.5273 10.1523ZM76.1414 60.9133C76.1414 65.1112 72.7252 68.5274 68.5273 68.5274H12.6902C8.49228 68.5274 5.07607 65.1112 5.07607 60.9133V20.3045C5.07607 16.1066 8.49228 12.6904 12.6902 12.6904H68.5273C72.7252 12.6904 76.1414 16.1066 76.1414 20.3045V60.9133Z" fill="black"/>
<path opacity="0.2" d="M68.5273 12.6904H12.6902C8.48468 12.6904 5.07608 16.099 5.07608 20.3046V22.8426C5.07608 18.6371 8.48468 15.2285 12.6902 15.2285H68.5273C72.7328 15.2285 76.1414 18.6371 76.1414 22.8426V20.3046C76.1414 16.099 72.7328 12.6904 68.5273 12.6904Z" fill="white"/>
<path d="M45.073 43.9391C44.5882 44.3934 43.9664 44.6726 43.3065 44.7309C41.672 44.8782 40.2279 43.6726 40.0807 42.0381V39.6904C40.0984 39.1498 40.5477 38.7259 41.0883 38.7437C41.4258 38.7538 41.7329 38.9366 41.903 39.2285C42.304 38.0178 41.6492 36.7133 40.4385 36.3122C39.2279 35.9112 37.9233 36.566 37.5223 37.7767C37.365 38.2488 37.365 38.7589 37.5223 39.2285C37.7939 38.7615 38.3929 38.6041 38.8599 38.8757C39.1517 39.0457 39.3345 39.3528 39.3446 39.6904V42.0381C39.1974 43.6726 37.7533 44.8782 36.1188 44.7309C35.4589 44.6726 34.8345 44.3934 34.3523 43.9391C33.7203 45.5228 31.9234 46.2969 30.3396 45.6649C30.1061 45.571 29.8853 45.4518 29.6823 45.3045C29.9665 48.1522 34.2381 47.571 34.5553 44.802C35.8954 47.1573 38.8446 46.4822 39.7101 43.599H39.7177C40.5807 46.4822 43.5299 47.1573 44.8725 44.802C45.1898 47.571 49.4613 48.1548 49.7455 45.3045C49.5425 45.4518 49.3192 45.571 49.0882 45.6649C47.5044 46.2969 45.705 45.5228 45.073 43.9391Z" fill="#EFC443"/>
<path d="M36.4946 47.0963C36.4946 47.0963 36.1925 46.9161 35.5656 46.9973C35.4743 46.5912 35.1189 46.2435 34.8651 46.0684C34.6215 46.3349 34.4489 46.8298 34.5327 47.1876C34.0834 47.2689 33.6646 47.5658 33.6646 47.5658C34.7052 48.6039 35.9007 48.3831 36.4946 47.0963Z" fill="#EFC443"/>
<path d="M41.1543 46.9487C41.1543 46.9487 40.8853 46.7203 40.2533 46.6974C40.2305 46.2837 39.936 45.8802 39.7127 45.667C39.4284 45.8903 39.1797 46.3523 39.2026 46.7177C38.7457 46.7254 38.2863 46.9487 38.2863 46.9487C39.1442 48.1416 40.3548 48.1187 41.1543 46.9487Z" fill="#EFC443"/>
<path d="M44.5629 46.0659C44.2456 46.241 43.9258 46.6547 43.8903 47.0202C43.4385 46.9542 42.9487 47.0989 42.9487 47.0989C43.6009 48.4161 44.8014 48.5913 45.7786 47.5634C45.7786 47.5634 45.5502 47.2943 44.9309 47.17C44.9766 46.7563 44.7481 46.3121 44.5629 46.0659Z" fill="#EFC443"/>
<path d="M31.949 49.365L32.3068 50.5655C37.152 49.1239 42.2763 49.1239 47.1214 50.5655L47.4793 49.365C42.4007 47.8523 37.0301 47.8523 31.949 49.365Z" fill="#EFC443"/>
<path d="M39.0019 31.5808L38.5629 32.9335L39.7126 32.0985L40.8623 32.9335L40.4232 31.5808L41.573 30.7458H40.1517L39.7126 29.3955L39.2735 30.7458H37.8522L39.0019 31.5808Z" fill="#EFC443"/>
<path d="M33.5275 33.0481L33.0884 34.4008L34.2381 33.5658L35.3879 34.4008L34.9488 33.0481L36.0985 32.213H34.6772L34.2381 30.8628L33.7991 32.213H32.3777L33.5275 33.0481Z" fill="#EFC443"/>
<path d="M29.5198 37.0559L29.0807 38.4086L30.2305 37.5736L31.3802 38.4086L30.9411 37.0559L32.0909 36.2208H30.6696L30.2305 34.8706L29.7914 36.2208H28.3701L29.5198 37.0559Z" fill="#EFC443"/>
<path d="M28.7635 43.0477L29.9132 43.8828L29.4741 42.53L30.6239 41.695H29.2025L28.7635 40.3447L28.3244 41.695H26.9031L28.0528 42.53L27.6137 43.8828L28.7635 43.0477Z" fill="#EFC443"/>
<path d="M44.4768 33.0481L44.0377 34.4008L45.1875 33.5658L46.3372 34.4008L45.8981 33.0481L47.0479 32.213H45.6266L45.1875 30.8628L44.7484 32.213H43.3271L44.4768 33.0481Z" fill="#EFC443"/>
<path d="M48.4843 37.0559L48.0452 38.4086L49.1949 37.5736L50.3447 38.4086L49.9056 37.0559L51.0553 36.2208H49.634L49.1949 34.8706L48.7558 36.2208H47.3345L48.4843 37.0559Z" fill="#EFC443"/>
<path d="M51.3726 42.53L52.5223 41.695H51.101L50.6619 40.3447L50.2228 41.695H48.8015L49.9513 42.53L49.5122 43.8828L50.6619 43.0477L51.8117 43.8828L51.3726 42.53Z" fill="#EFC443"/>
</svg>
