<svg width="82" height="82" viewBox="0 0 82 82" fill="none" xmlns="http://www.w3.org/2000/svg">
<path d="M5.87816 68.3929L75.3394 12.8249C73.5349 11.1803 71.1593 10.1523 68.5273 10.1523H12.6903C7.08373 10.1523 2.53809 14.698 2.53809 20.3045V60.9133C2.53809 63.8879 3.8401 66.5376 5.87816 68.3929Z" fill="#55B44B"/>
<path d="M75.3393 12.8247L5.87805 68.3927C7.6826 70.0374 10.0582 71.0653 12.6902 71.0653H68.5272C74.1338 71.0653 78.6794 66.5196 78.6794 60.9131V20.3043C78.6794 17.3297 77.3774 14.68 75.3393 12.8247Z" fill="#4AA2D9"/>
<path d="M68.5273 10.1523H64.4588L2.53809 59.69V60.9133C2.53809 66.5198 7.08373 71.0655 12.6903 71.0655H16.7588L78.6795 21.5279V20.3045C78.6795 14.698 74.1339 10.1523 68.5273 10.1523Z" fill="#F6D44A"/>
<path d="M68.5272 10.1523H68.5222L2.72583 62.7889C3.60653 67.497 7.72578 71.0655 12.6902 71.0655H12.6953L78.4916 18.4289C77.6109 13.7208 73.4917 10.1523 68.5272 10.1523Z" fill="black"/>
<path opacity="0.15" d="M68.5273 10.1523H12.6903C7.08373 10.1523 2.53809 14.698 2.53809 20.3045V60.9133C2.53809 66.5198 7.08373 71.0655 12.6903 71.0655H68.5273C74.1339 71.0655 78.6795 66.5198 78.6795 60.9133V20.3045C78.6795 14.698 74.1339 10.1523 68.5273 10.1523ZM76.1415 60.9133C76.1415 65.1112 72.7252 68.5274 68.5273 68.5274H12.6903C8.49234 68.5274 5.07613 65.1112 5.07613 60.9133V20.3045C5.07613 16.1066 8.49234 12.6904 12.6903 12.6904H68.5273C72.7252 12.6904 76.1415 16.1066 76.1415 20.3045V60.9133Z" fill="black"/>
<path opacity="0.2" d="M68.5274 12.6904H12.6903C8.48477 12.6904 5.07617 16.099 5.07617 20.3046V22.8426C5.07617 18.6371 8.48477 15.2285 12.6903 15.2285H68.5274C72.7329 15.2285 76.1415 18.6371 76.1415 22.8426V20.3046C76.1415 16.099 72.7329 12.6904 68.5274 12.6904Z" fill="white"/>
</svg>
