<?xml version="1.0" encoding="UTF-8"?>
<svg id="Calque_1" xmlns="http://www.w3.org/2000/svg" version="1.1" viewBox="0 0 114.63 235.94">
  <!-- Generator: Adobe Illustrator 30.2.1, SVG Export Plug-In . SVG Version: 2.1.1 Build 1)  -->
  <defs>
    <style>
      .st0 {
        fill: #fff;
      }
    </style>
  </defs>
  <path class="st0" d="M34.17,148.3c-.76-.11-1.53.19-2,.8-1.32,1.52-1.95,3.52-1.77,5.52h0c.01.47.1.94.27,1.38.23.71.8,1.26,1.52,1.48.79.03,1.53-.35,1.96-1.02,1.46-1.92,1.96-4.4,1.33-6.73-.15-.68-.65-1.22-1.32-1.43M80.96,168.73c.33-1.32.16-2.71-.48-3.92-.54-.98-1.47-1.68-2.55-1.95l-1.15-.24c-1.68-.33-3.35-.71-5-1.12-3.18-.79-5.9.66-7.4,3.9,1.55.45,3.07.87,4.56,1.24.14-.65.24-1.31.29-1.97.05-.5.49-.87.99-.82.48.04.84.45.83.93-.06.77-.17,1.54-.34,2.3.29.07.59.14.88.2.3.07.59.13.88.19.26-1.28.42-2.37.43-2.39.08-.5.54-.84,1.04-.76s.84.54.76,1.04h0c-.01.09-.18,1.18-.45,2.48.61.12,1.19.22,1.74.32.12-.66.21-1.32.25-1.99.02-.5.45-.89.95-.86.5.02.89.45.86.95-.04.73-.13,1.46-.27,2.18,1.06.15,2.12.25,3.19.3M64.12,170.96c.56,1.25,1.59,2.24,2.87,2.74,2.29.65,4.63,1.11,7,1.37,2.88.32,5.14-1.29,6.43-4.53-.96-.05-2-.17-3.07-.32-.19.65-.46,1.29-.79,1.88-.27.43-.83.55-1.25.29-.4-.25-.54-.77-.33-1.19.22-.4.41-.83.55-1.27-.57-.1-1.13-.2-1.69-.31-.16.68-.38,1.36-.65,2.01-.19.47-.72.69-1.18.51s-.69-.72-.51-1.18c0-.02.02-.04.02-.05.22-.54.39-1.09.53-1.65l-.88-.2c-.31-.07-.62-.14-.93-.22-.17.55-.37,1.1-.59,1.63-.2.46-.73.68-1.19.48-.46-.2-.68-.73-.48-1.19.19-.46.36-.91.5-1.35-1.53-.39-3.11-.82-4.7-1.29-.32,1.28-.2,2.63.35,3.84M84.35,147.8c-1.38-3.61-5.98-6.16-12.04-7.54-11.2-2.53-25.92,1.65-35.29,9.53.34,1.56.26,3.19-.23,4.72,8.27,4.24,16.92,7.71,25.82,10.37,2.18-5,6.35-5.96,9.6-5.15,2.33.58,3.83.89,4.93,1.11l1.2.26c1.58.38,2.92,1.4,3.72,2.82.8,1.47,1.06,3.17.74,4.82.63.04,1.26-.1,1.82-.41,2.32-6.66,2.22-13.93-.28-20.53M73.78,176.87c-2.5-.27-4.98-.76-7.39-1.46-1.75-.66-3.16-1.99-3.92-3.69-.41-.89-.65-1.85-.68-2.84-.03-.77.05-1.54.24-2.29-8.94-2.69-17.62-6.17-25.94-10.41-.23.43-.51.84-.82,1.21-.45.56-1.03,1.01-1.69,1.3.66,5.75,2.63,11.26,5.77,16.12,4.17,6.45,9.86,10.86,16,12.25,2.18.49,5.02,1.1,7.57.54,9.31-2.08,17.07-8.47,20.9-17.21-.49.08-.98.13-1.47.14-2.15,6.3-6.68,6.52-8.56,6.31M29.95,150.28c.29-.68.68-1.32,1.15-1.89.34-.41.74-.76,1.18-1.04.98-4.98,3.35-9.59,6.83-13.29-5.11,3.63-8.96,8.77-10.99,14.7.54.58,1.16,1.09,1.83,1.52M29.37,152.04c-.64-.44-1.24-.92-1.81-1.44-.8,2.95-1.14,6.01-1.01,9.06.03.63.07,1.26.14,1.88.55-2.05,1.43-4,2.62-5.76-.24-1.24-.21-2.51.08-3.74M31.76,158.88c-.68-.18-1.27-.6-1.67-1.19-2.23,3.43-3.17,6.51-2.35,9.27,3.48,11.69,13.71,20.1,25.86,21.25-11.68-3.55-20.33-15.72-21.84-29.33M46.15,17.28c0-1.52-.16-3.04-.5-4.53,0,0,2.69-.14,2.69-3.41,0-2.7-1.8-4.54-2.28-4.54-.39,0-.49.41-1.33.41-2.06,0-2.21-2.62-2.21-2.62.3-.01.62-.02.94-.02,5.88,0,11.32,1.78,11.32,14.71-.05,4.27-.33,8.54-.85,12.78-.46,3.49-.68,7-.65,10.52,0,0-10.24-1.21-10.24-8.91,0-5,3.12-6.22,3.12-14.39M62.43,102.65c0,10.11-4.31,18.34-6.81,20.83-7.72,7.72-14.1,2.1-14.16,9.85-3.5,3.17-6.03,8-7.26,13.51.08,0,.15.02.23.03.74.14,1.4.58,1.83,1.2,9.81-7.99,24.91-12.2,36.46-9.59,3.35.63,6.5,2.1,9.14,4.26-3.57-5.77-8.99-10.16-15.37-12.46-1.52-.54-4.22-1.17-4.22-6.1,0-9.21,10.07-2.05,16.71-12.08.33-.49-.14-.93-.53-.54-2.01,2.01-6.94,3.39-9.55,3.39-1.23.1-2.46-.11-3.59-.59,1.62-3.16,3.47-6.19,5.53-9.08-6.16-6.16,4.21-40.04,31.65-40.04.06-6.23-.56-12.45-1.84-18.55-.65.16-5.82,1.38-6.06.29-.21-.96,3.81-3.05,5.19-3.74-.62-2.4-1.52-4.72-2.69-6.9-23.52,7.41-18.79,26.88-24.52,26.88-3.73,0-6.66-2.9-7.7-3.95-14.05-14.05-7.5-23.34-7.5-42.01,0-12.57-4.88-17.28-13.9-17.28s-12.24,3.9-12.24,3.9c0,0,12.36.4,12.36,13.38s-15.3,17.34-15.3,34.57c0,28.69,34.16,28.15,34.16,50.8M10.66,184.6c1.54,1.01,3.12,1.96,4.72,2.87l-.85,2.2c-.32-1.33-1.64-2.06-3.35-3.12l-5.59,8.09c-.9,1.2-1.61,2.53-2.12,3.94,0,0-.92-.58-1.76-1.21-.57-.42-1.14-.84-1.71-1.26.83-.21,2.27-2.33,3.14-3.5l5.44-7.77c-2.04-1.57-2.84-1.88-4.28-1.96l1.94-1.45s1.86,1.47,4.41,3.15M20.68,191.24c-2.48-1.18-4.44,1.62-5.91,4.71s-2.44,6.39.05,7.58c2.49,1.18,4.45-1.64,5.92-4.73,1.48-3.08,2.43-6.37-.06-7.56M14.28,204.66c-3.89-1.86-4.4-6.13-2.49-10.14,1.92-4.02,5.58-6.29,9.45-4.44,3.87,1.84,4.41,6.11,2.49,10.14-1.91,4.01-5.57,6.3-9.45,4.44M31.66,194.21c2.63.74,4.77,1.24,4.77,1.24l-.23,2.35c-.7-1.02-1.03-1.26-3.27-1.84l-2.72,9.14c-.22.84-1.31,4-.96,4.6,0,0-.76-.16-1.98-.5-1.37-.38-2.01-.64-2.01-.64.7-.46,1.59-3.17,1.88-4.27l2.73-9.2c-2.32-.77-2.86-.83-3.97-.31l1.35-2.01s1.52.61,4.41,1.43M42.5,196.64c2.59.39,5.03.61,5.03.61l.1,2.36c-.97-.86-1.33-1.14-3.89-1.46l-1.48,9.39c-.1.86-.65,4.12-.23,4.66,0,0-.9-.1-2.13-.27s-2-.35-2-.35c.6-.47,1.11-3.57,1.21-4.43l1.52-9.51c-2.22-.44-2.67-.27-3.73.35l.96-2.23s2.07.49,4.65.88M52.1,205.57l-.2,6.31c3.31.04,5.57-.16,6.58-1.6l-.51,2.87s-1.83.04-4.51,0c-2.95-.04-5.26-.23-5.26-.23.49-.49.61-3.56.62-4.43l.27-6.19c0-1.65.16-4.31-.39-4.87,2.4.17,2.09.16,4.29.25,2.88.11,4.51.03,4.51.03l.36,2.37c-1.12-.94-2.81-1.05-5.56-1.06l-.15,5.29,4.23.02c.38,0,.41.22.4.64,0,.42,0,.64-.41.64l-4.27-.02ZM70.58,207.47c.24,2.3.49,3.95,1.01,4.25-.26.35-.66.58-1.1.61-.64.04-1.26-.26-1.62-.79l-7.5-8.6.28,5.47c.09.86.19,4.12.73,4.56l-2.5.12c.44-.54.32-3.65.23-4.51l-.35-6.18c-.09-.86-.25-4.27-.79-4.71l2.29-.08,7.69,9.13-.64-5.25c-.09-.86-.56-3.99-1.08-4.43,0,0,.28-.02,1.21-.15.93-.13,1.27-.2,1.27-.2-.43.54.07,3.75.16,4.61l.72,6.16ZM84.67,204.21c.26,1.07.79,3.81,1.58,4.35,0,0-1.19.34-1.91.57-.65.2-2.07.57-2.07.57.34-.59-.41-3.88-.62-4.71l-.71-2.87-4.77,1.17.54,2.91c.16.94.65,4.11,1.29,4.5,0,0-.67.14-2.06.42-1.17.24-1.97.37-1.97.37.36-.59-.12-3.53-.27-4.47l-1.15-6.16c-.21-1.15-.74-4.05-1.38-4.39l1.98-.38c1.36-.26,2.03-.45,2.03-.45-.33.69.26,3.48.42,4.45l.37,1.95,4.69-1.14-.51-2c-.28-1.06-.86-3.6-1.51-4.07,0,0,.64-.19,1.95-.56s1.87-.58,1.87-.58c-.26.7.47,3.18.77,4.45l1.44,6.05ZM92.53,199.56l-4.13-5.73.29,7.19,3.84-1.46ZM93.37,200.56l-4.65,1.82.16,2.55c.03.72.13,1.43.3,2.12.08.19.22.35.41.45,0,0-.48.18-1.28.43-.8.26-1.24.38-1.24.38.28-.61.39-1.29.32-1.97l-.41-12.11c-.02-.41-.1-.81-.24-1.2-.11-.24-.28-.45-.5-.61.59-.39,1.22-.72,1.86-1,1.07-.45,1.52-.43,2.3.48l6.82,8.46c1.24,1.62,2.33,2.7,3.05,2.92,0,0-.7.32-2.01.91-1.31.58-2.18.91-2.18.91.09-.33.06-.69-.08-1-.37-.66-.8-1.29-1.29-1.87l-1.35-1.69ZM112.86,196.17c-.94.63-1.64,1.11-1.64,1.11-.07-.92-1.85-3.2-2.37-3.89l-4.01-5.23,3.22,10.31c-.15.25-.34.47-.57.65-.53.45-1.32.42-1.82-.06l-7.63-6.33,2.67,4.92c.65,1.25,1.91,3.84,2.76,4.09,0,0-.52.28-1.19.61-.66.32-1.07.51-1.07.51.15-.72-1.09-2.88-1.81-4.25l-2.97-5.59c-.9-1.68-1.89-3.4-2.75-3.74.66-.32.86-.42,1.81-.88.79-.39,1.48-.77,1.48-.77l8.59,7.31-3.38-10.35s.45-.31,1.31-.88c.86-.57,1.63-1.14,1.63-1.14.06.93,1.85,3.29,2.5,4.13l3.7,4.76c.79.98,2.25,3.16,3.3,3.41,0,0-.84.66-1.77,1.29M24.93,214.99c.8.29,1.82.65,1.82.65-.86.63-1.66,3.12-2.18,4.48l-2,5.54c-.53,1.5-1.44,3.68-1.14,4.46,0,0-1.1-.38-1.99-.7-.76-.27-1.19-.42-2-.76.98-.26,1.9-3.51,2.2-4.33l.91-2.58-4.78-1.99-1.38,2.96c-.45,1.03-1.53,3.35-1.27,4.08,0,0-.84-.35-2.08-.91-1.46-.67-1.77-.85-1.77-.85,1.03-.5,1.63-2.16,2.41-3.83l2.5-5.54c.85-1.89,1.61-3.54,1.55-4.62,0,0,.45.27,1.68.82.98.44,1.48.66,2.03.88-.78.31-1.86,3.11-2.43,4.36l-.73,1.57,4.67,1.92.72-1.77c.33-.9,1.49-3.61,1.24-4.54,0,0,.96.35,2.01.73M34.03,218.88c-2.66-.7-4.04,2.35-4.89,5.59s-1.16,6.59,1.5,7.29c2.66.7,4.04-2.37,4.89-5.61.85-3.24,1.16-6.57-1.51-7.27M30.33,232.96c-4.17-1.1-5.49-5.13-4.39-9.33,1.11-4.22,4.26-7.05,8.41-5.96,4.14,1.09,5.49,5.11,4.38,9.33-1.1,4.2-4.24,7.06-8.41,5.96M41.61,234.44c.21-.26.36-.55.44-.87.27-1.2.47-2.41.61-3.63l1.17-9.02c-2.49-.31-3.12-.13-4.21.51l1.02-2.31c.78.17,2.49.36,4.58.62,1.39.18,5.55.55,5.55.55l.14,2.31c-.92-1.06-1.87-1.15-3.94-1.32l-1.16,9.05c-.1.84-.57,3.76-.11,4.63-.5-.06-1.33-.15-2.02-.22-.72-.07-1.67-.24-2.08-.31M61.41,231.31c.03,2.72-2.18,4.68-5.57,4.63-1.66.05-3.27-.51-4.55-1.57l.55-2.58c.62,1.56,2.04,2.66,3.71,2.86,1.42.17,2.7-.85,2.86-2.26,0-.08.01-.16.02-.24.02-1.15-.62-1.85-3.28-3.24-2.55-1.32-3.51-2.64-3.51-4.6,0-2.67,2.33-4.03,5.06-4.03,1.5,0,2.98.36,4.29,1.09l-.57,2.36c-1.22-1.62-2.32-2.23-3.65-2.25-1.07-.15-2.06.6-2.21,1.67-.02.12-.02.25-.02.37,0,1.46,1.62,2.26,3.8,3.48,2.5,1.4,3.06,2.8,3.08,4.3M73.77,223c.09.33.15.67.18,1.01.03.33.03.67,0,1-.1.98-.51,1.9-1.18,2.62-1.13,1.13-2.66,1.75-4.25,1.73-.7.04-.87-.17-.92-.68v-.11s-.02-.2.14-.21l.18-.02c.77-.06,1.48-.42,1.98-1.02.61-.88.87-1.95.72-3.01,0-1.03-.47-2.01-1.27-2.66-.68-.5-1.52-.73-2.35-.64,0,0-.34.03-.71.08-.12,0-.21.11-.2.23,0,0,0,0,0,0l.9,9.35c.08.82.3,3.72.98,4.32,0,0-.77.08-2.22.2-.65.05-1.31.09-1.96.11.25-.98.31-2.01.17-3.01l-.7-7.37c-.08-.84-.22-3.74-.91-4.45,0,0,1.85-.27,5.28-.6,1.57-.25,3.18.08,4.53.92.78.52,1.36,1.3,1.63,2.2M87.79,226.01c.86,2.85-.76,5.86-3.61,6.71-.18.05-.36.1-.55.13-2.37.59-5.78-.28-6.74-4.44l-1.16-4.91c-.31-1.37-.81-3.81-1.6-4.44,0,0,.89-.13,2.29-.39.68-.12,1.37-.26,2.04-.41-.37.58.02,2.85.38,4.52l1.48,6.24c.12.93.57,1.78,1.28,2.39.52.34,1.16.46,1.77.32.65-.1,1.22-.49,1.56-1.06.34-.86.37-1.82.08-2.71l-1.66-6.24c-.46-1.72-.98-3.87-1.54-4.23,0,0,.68-.18,1.96-.55.97-.28,1.55-.45,1.97-.59-.38.94.53,3.82.72,4.64l1.33,5.01ZM102.93,224.73c.3.15.65.18.97.09-.1.35-.28.68-.54.93-.72.93-1.95,1.33-3.08.99-2.41-1.21-4.59-2.82-6.44-4.76-.02-.05,0-.12.05-.14,0,0,0,0,0,0l.14-.06c1.64-.77,2.34-2.73,1.57-4.37-.02-.04-.04-.09-.06-.13-.33-.9-1.02-1.62-1.9-1.98-.68-.21-1.41-.17-2.06.11-.26.1-.51.23-.73.39,0,0-.11.09.02.48l2.97,8.48c.45,1.25,1.24,3.68,1.94,4.1,0,0-.8.32-2.02.76-1.22.44-1.96.64-1.96.64.25-.95-.69-3.52-.92-4.24l-1.92-5.73c-.48-1.38-1.36-3.86-2.07-4.25,1.55-.49,3.07-1.06,4.55-1.72,1.48-.73,3.16-.94,4.77-.57.81.21,1.52.72,1.98,1.42.18.26.32.54.44.83.11.27.19.55.24.84.16.91,0,1.85-.47,2.65-.35.62-.84,1.15-1.42,1.56,1.8,1.51,3.8,2.75,5.95,3.7" data-source="https://football-logos.cc"/>
</svg>