<svg width="82" height="82" viewBox="0 0 82 82" fill="none" xmlns="http://www.w3.org/2000/svg">
<path d="M68.5273 10.1523H12.6902C7.08331 10.1523 2.53802 14.6976 2.53802 20.3045V60.9133C2.53802 66.5202 7.08331 71.0655 12.6902 71.0655H68.5273C74.1342 71.0655 78.6794 66.5202 78.6794 60.9133V20.3045C78.6794 14.6976 74.1342 10.1523 68.5273 10.1523Z" fill="#D52E23"/>
<path opacity="0.15" d="M68.5273 10.1523H12.6902C7.08367 10.1523 2.53802 14.698 2.53802 20.3045V60.9133C2.53802 66.5198 7.08367 71.0655 12.6902 71.0655H68.5273C74.1338 71.0655 78.6794 66.5198 78.6794 60.9133V20.3045C78.6794 14.698 74.1338 10.1523 68.5273 10.1523ZM76.1414 60.9133C76.1414 65.1112 72.7252 68.5274 68.5273 68.5274H12.6902C8.49228 68.5274 5.07607 65.1112 5.07607 60.9133V20.3045C5.07607 16.1066 8.49228 12.6904 12.6902 12.6904H68.5273C72.7252 12.6904 76.1414 16.1066 76.1414 20.3045V60.9133Z" fill="black"/>
<path opacity="0.2" d="M68.5272 12.6904H12.6901C8.48459 12.6904 5.07599 16.099 5.07599 20.3046V22.8426C5.07599 18.6371 8.48459 15.2285 12.6901 15.2285H68.5272C72.7327 15.2285 76.1413 18.6371 76.1413 22.8426V20.3046C76.1413 16.099 72.7327 12.6904 68.5272 12.6904Z" fill="white"/>
<path d="M40.6087 25.3809C32.1976 25.3809 25.3804 32.1981 25.3804 40.6091C25.3804 49.0202 32.1976 55.8374 40.6087 55.8374C49.0197 55.8374 55.8369 49.0202 55.8369 40.6091C55.8369 32.1981 49.0197 25.3809 40.6087 25.3809ZM49.1974 44.637L44.4639 43.099L41.5376 47.1269V42.1472L36.8016 40.6091L41.5376 39.0711V34.0914L44.4639 38.1193L49.1974 36.5813L46.271 40.6091L49.1974 44.637ZM43.6543 31.4722C38.6087 31.4722 34.5173 35.5635 34.5173 40.6091C34.5173 45.6548 38.6087 49.7461 43.6543 49.7461C46.0426 49.7461 48.2152 48.8299 49.8421 47.3324C47.7659 50.1801 44.403 52.0304 40.6087 52.0304C34.3016 52.0304 29.1874 46.9162 29.1874 40.6091C29.1874 34.3021 34.3016 29.1879 40.6087 29.1879C44.403 29.1879 47.7659 31.0382 49.8421 33.8859C48.2152 32.3859 46.0426 31.4722 43.6543 31.4722Z" fill="white"/>
</svg>
