<svg width="82" height="82" viewBox="0 0 82 82" fill="none" xmlns="http://www.w3.org/2000/svg">
<path d="M68.5278 10.1523H12.6907C7.08383 10.1523 2.53854 14.6976 2.53854 20.3045V60.9133C2.53854 66.5202 7.08383 71.0655 12.6907 71.0655H68.5278C74.1347 71.0655 78.68 66.5202 78.68 60.9133V20.3045C78.68 14.6976 74.1347 10.1523 68.5278 10.1523Z" fill="#012368"/>
<path d="M16.4978 34.9585V40.6089H26.65V34.9562L34.3583 40.6089H40.6093V37.4589L31.0614 30.4567H40.6093V20.3045H33.655L40.6093 15.2048V10.1523H36.9519L26.65 17.7079V10.1523H16.4978V17.2424L8.2324 11.1785C6.28445 12.128 4.70578 13.6744 3.70046 15.5893L10.1271 20.3045H2.53854V30.4567H12.0897L2.53854 37.4615V40.6089H8.7928L16.4978 34.9585Z" fill="white"/>
<path d="M4.5829 14.1853L12.9214 20.3043H16.3823L5.98847 12.6782C5.46994 13.1338 4.99964 13.6338 4.5829 14.1853Z" fill="#CA0A2B"/>
<path d="M2.53754 40.6087L16.3816 30.4565V32.9946L5.99867 40.6087H2.53754Z" fill="#CA0A2B"/>
<path d="M24.1119 40.6089H19.0359V27.9187H2.53854V22.8426H19.0359V10.1523H24.1119V22.8426H40.6093V27.9187H24.1119V40.6089Z" fill="#CA0A2B"/>
<path d="M40.6092 39.7628L27.9189 30.4565V32.9946L38.3018 40.6087H40.6092V39.7628Z" fill="#CA0A2B"/>
<path d="M40.6094 10.1523H39.9789L26.1199 20.3157H29.5808L40.6094 12.2282V10.1523Z" fill="#CA0A2B"/>
<path opacity="0.15" d="M68.5278 10.1523H12.6907C7.08393 10.1523 2.53854 14.6975 2.53854 20.3045V60.9133C2.53854 66.5203 7.08393 71.0655 12.6907 71.0655H68.5278C74.1348 71.0655 78.68 66.5203 78.68 60.9133V20.3045C78.68 14.6975 74.1348 10.1523 68.5278 10.1523ZM76.1419 60.9133C76.1419 65.112 72.7265 68.5274 68.5278 68.5274H12.6907C8.49204 68.5274 5.07659 65.112 5.07659 60.9133V20.3045C5.07659 16.1058 8.49204 12.6904 12.6907 12.6904H68.5278C72.7265 12.6904 76.1419 16.1058 76.1419 20.3045V60.9133Z" fill="black"/>
<path opacity="0.2" d="M68.5274 12.6904H12.6903C8.48505 12.6904 5.0762 16.0993 5.0762 20.3046V22.8426C5.0762 18.6373 8.48505 15.2285 12.6903 15.2285H68.5274C72.7327 15.2285 76.1415 18.6373 76.1415 22.8426V20.3046C76.1415 16.0993 72.7327 12.6904 68.5274 12.6904Z" fill="white"/>
<path d="M70.5208 30.353V40.1509C70.5208 46.6828 67.2549 53.7183 59.09 57.5287C50.9251 53.7183 47.6591 46.6828 47.6591 40.1509V30.353H70.5208Z" fill="#F4D24B"/>
<path d="M56.098 38.6607C55.9096 36.1533 55.3513 35.6049 54.1772 33.4132C52.0919 31.4635 53.1957 36.1084 52.1442 36.6404C50.2995 37.834 52.9417 39.0939 52.8637 40.3825C52.9975 41.2175 53.3335 41.9076 53.9526 41.4048C55.1432 41.6837 54.4206 40.2548 55.2048 40.0421C55.7464 39.899 56.2167 39.1048 56.098 38.6607Z" fill="#F1A4A2"/>
<path d="M69.1672 35.8315C71.022 35.7843 69.0375 35.3409 67.7695 35.5485C67.7787 35.2358 67.7706 34.9407 67.7211 34.6701C69.8708 34.4006 70.5845 33.8808 67.6259 34.311C67.5601 34.1219 67.4619 33.9176 67.3368 33.7463C69.684 32.195 69.037 32.1379 67.0594 33.4318C66.8107 33.2049 66.5137 33.0549 66.2046 33.0021C66.1231 32.5414 65.7208 31.946 65.4538 31.8209C65.5086 30.6839 64.5581 33.4364 64.668 33.979C64.779 33.4397 63.8269 30.6821 63.8823 31.8209C63.6153 31.946 63.213 32.5414 63.1315 33.0021C62.8224 33.0549 62.5257 33.2049 62.2767 33.4318C60.2978 32.1371 59.6531 32.1958 61.9993 33.7463C61.8742 33.9176 61.7759 34.1216 61.7102 34.3107C58.7475 33.8803 59.4699 34.4008 61.615 34.6699C61.5655 34.9404 61.5574 35.2356 61.5666 35.5483C58.5217 35.4153 59.465 35.9092 61.5785 35.9508C61.5866 36.1983 61.5952 36.428 61.6041 36.6442C58.9511 37.1995 59.5927 37.7094 61.6199 36.998C61.7546 39.2163 61.9308 41.4784 61.5244 43.6855C62.717 41.7604 61.9234 39.1203 62.0282 36.9983C63.4201 36.9632 63.13 37.9993 63.5198 38.9338C63.4615 39.4264 63.717 40.5228 64.0384 40.8784C63.4003 41.2416 62.1874 43.0619 63.5282 42.4144C63.3886 42.7708 63.697 43.2495 64.0249 42.8853C64.1538 43.3954 64.6883 43.1213 64.6678 42.6434C64.6472 43.1215 65.1817 43.3952 65.3107 42.8853C65.6386 43.2497 65.947 42.7703 65.8074 42.4144C67.148 43.0619 65.9358 41.2421 65.2972 40.8784C65.6178 40.5249 65.8746 39.4249 65.8158 38.9338C66.2051 37.9998 65.916 36.9625 67.3074 36.9983C67.4119 39.1168 66.6188 41.765 67.8109 43.6858C67.4048 41.4787 67.581 39.217 67.7157 36.9983C69.7462 37.7107 70.3812 37.1985 67.7315 36.6445C67.7406 36.4282 67.7492 36.1985 67.7571 35.9511C68.2216 35.8742 68.7381 35.8506 69.1672 35.8315ZM64.2721 33.1577C64.2721 33.2018 64.2708 33.2483 64.2688 33.2952C64.0264 33.0912 63.765 32.9881 63.4209 32.9818C63.4932 32.5782 63.7396 32.2346 63.9287 31.9224C64.0805 32.2539 64.2721 32.6927 64.2721 33.1577ZM65.0642 33.1577C65.0642 32.6927 65.2559 32.2539 65.4076 31.9224C65.5967 32.2349 65.8437 32.5793 65.9158 32.9831C65.5688 32.9897 65.3094 33.0909 65.0675 33.2958C65.0655 33.2485 65.0642 33.2024 65.0642 33.1577ZM67.3203 35.629C66.9414 35.7206 66.4934 35.88 66.1866 35.9838C65.768 35.2526 66.6833 35.166 67.2538 34.8371C67.2982 35.0894 67.3127 35.3523 67.3203 35.629ZM64.0094 33.7437C64.1168 33.8645 64.2246 34.013 64.168 34.1739C63.9541 34.0064 63.6576 33.7447 63.5046 33.4772C63.7079 33.5031 63.882 33.5925 64.0094 33.7437ZM65.3292 33.7409C65.4548 33.5917 65.6284 33.5034 65.8315 33.4775C65.6782 33.7447 65.382 34.0067 65.168 34.1739C65.1112 34.0115 65.2206 33.8638 65.3292 33.7409ZM67.0023 34.5049C66.5777 34.7006 66.2254 34.8762 65.9452 35.0224C65.9109 34.9698 65.8741 34.9209 65.8363 34.8734C66.1325 34.6341 66.548 34.3064 66.948 34.0188C67.0358 34.1506 67.103 34.3018 67.1536 34.4485C67.1023 34.4666 67.0518 34.4848 67.0023 34.5049ZM65.4899 34.5463C65.464 34.5282 65.4381 34.5105 65.4112 34.4942C65.6249 34.2765 65.9896 33.8683 66.1457 33.4848C66.3294 33.5166 66.4949 33.5864 66.6391 33.6909C66.1409 34.0102 65.7533 34.3183 65.4899 34.5463ZM63.9249 34.4942C63.8983 34.5105 63.8721 34.5282 63.8462 34.5463C63.5828 34.3183 63.1952 34.0102 62.697 33.6909C62.8412 33.5864 63.0066 33.5166 63.1904 33.4848C63.3462 33.8683 63.7112 34.2765 63.9249 34.4942ZM62.3881 34.0186C62.7879 34.3064 63.2036 34.6338 63.4998 34.8734C63.462 34.9206 63.4252 34.9698 63.3909 35.0224C63.0853 34.8701 62.6285 34.6199 62.1825 34.4483C62.233 34.3016 62.3003 34.1503 62.3881 34.0186ZM62.0828 34.8371C62.6533 35.166 63.5683 35.2526 63.15 35.9838C62.8434 35.88 62.3952 35.7206 62.0163 35.629C62.0242 35.3521 62.0384 35.0891 62.0828 34.8371ZM63.1155 36.3901C63.047 36.4754 63.0551 36.6787 63.0764 36.8417C62.7909 36.7571 62.4107 36.6734 62.0219 36.648C62.0188 36.4582 62.0168 36.2574 62.0155 36.0424C62.4092 36.1404 62.7983 36.2716 63.1155 36.3901ZM66.2211 36.3909C66.5383 36.2724 66.9274 36.1404 67.3208 36.0424C67.3195 36.2574 67.3175 36.4582 67.3145 36.648C66.9256 36.6734 66.5457 36.7569 66.2599 36.8417C66.281 36.6795 66.2904 36.4754 66.2211 36.3909Z" fill="#95571E"/>
<path d="M63.7426 51.5899C63.759 51.079 63.5489 50.6765 63.5791 50.2344C63.7758 49.9143 63.2545 49.7674 63.3903 49.4336C63.4111 49.276 63.4324 49.1133 63.2621 48.9854C62.9309 48.7476 63.4509 48.3945 63.0829 48.1945C62.741 48.028 63.136 47.5651 62.8253 47.3785C62.5421 47.1727 63.0065 46.7346 62.5931 46.5481C62.4385 46.4651 62.2781 45.8971 62.0667 45.4918C62.0278 45.3298 61.6281 44.6821 61.503 44.5194C61.2088 44.4435 61.4763 43.9344 61.1294 43.9608C61.4913 39.1071 56.9591 39.1053 57.3208 43.9608C57.138 43.9166 57.1188 44.1436 57.1073 44.2562C57.134 44.5288 56.7216 44.5428 56.7629 44.8278C56.8096 45.1296 56.3195 45.189 56.3832 45.492C56.3799 45.6212 56.3764 45.7547 56.2112 45.8405C55.8822 46.0212 56.237 46.3669 55.8571 46.5481C55.666 46.5692 55.6665 47.3006 55.5066 47.7826C55.6497 48.1514 55.0772 48.2323 55.2652 48.5737C55.3074 48.7153 55.351 48.8618 55.1881 48.9854C54.8538 49.2262 55.2607 49.609 54.9437 49.8422C54.8845 50.6222 54.0911 52.5864 55.5431 52.7828C55.8183 53.2166 56.7807 53.5792 57.154 53.4638C57.6175 53.7628 58.686 54.0211 59.2248 53.5211C59.7629 54.0214 60.8332 53.7628 61.2956 53.4638C61.669 53.5792 62.6314 53.2166 62.9065 52.7828C63.5616 52.8752 63.8743 51.96 63.7426 51.5899Z" fill="#479C52"/>
</svg>
