<svg width="82" height="82" viewBox="0 0 82 82" fill="none" xmlns="http://www.w3.org/2000/svg">
<path d="M68.5273 10.1523H12.6902C7.08331 10.1523 2.53802 14.6976 2.53802 20.3045V60.9133C2.53802 66.5202 7.08331 71.0655 12.6902 71.0655H68.5273C74.1342 71.0655 78.6794 66.5202 78.6794 60.9133V20.3045C78.6794 14.6976 74.1342 10.1523 68.5273 10.1523Z" fill="#3A8343"/>
<path d="M15.2283 10.1523H27.9186V71.0655H15.2283V10.1523Z" fill="#C23635"/>
<path opacity="0.15" d="M68.5273 10.1523H12.6902C7.08367 10.1523 2.53802 14.698 2.53802 20.3045V60.9133C2.53802 66.5198 7.08367 71.0655 12.6902 71.0655H68.5273C74.1338 71.0655 78.6794 66.5198 78.6794 60.9133V20.3045C78.6794 14.698 74.1338 10.1523 68.5273 10.1523ZM76.1414 60.9133C76.1414 65.1112 72.7252 68.5274 68.5273 68.5274H12.6902C8.49228 68.5274 5.07607 65.1112 5.07607 60.9133V20.3045C5.07607 16.1066 8.49228 12.6904 12.6902 12.6904H68.5273C72.7252 12.6904 76.1414 16.1066 76.1414 20.3045V60.9133Z" fill="black"/>
<path opacity="0.2" d="M68.5273 12.6904H12.6903C8.48471 12.6904 5.07611 16.099 5.07611 20.3046V22.8426C5.07611 18.6371 8.48471 15.2285 12.6903 15.2285H68.5273C72.7328 15.2285 76.1414 18.6371 76.1414 22.8426V20.3046C76.1414 16.099 72.7328 12.6904 68.5273 12.6904Z" fill="white"/>
<path d="M48.5733 18.9292C50.959 20.9647 52.4184 24.0383 52.2712 27.4139C52.0174 33.226 47.0961 37.7361 41.284 37.4823C39.9744 37.4239 38.7307 37.1295 37.5937 36.6422C39.4338 38.2082 41.817 39.1549 44.421 39.1549C50.2408 39.1549 54.959 34.4367 54.959 28.6169C54.959 24.2718 52.3296 20.5409 48.5733 18.9292Z" fill="white"/>
<path d="M38.5224 26.6751L38.9793 25.2716H40.4539L39.261 24.4035L39.7178 23L38.5224 23.868L37.3295 23L37.7864 24.4035L36.591 25.2716H38.0681L38.5224 26.6751Z" fill="white"/>
<path d="M38.0681 19.8526L38.5224 21.2561L38.9793 19.8526H40.4539L39.261 18.9846L39.7178 17.5811L38.5224 18.4491L37.3295 17.5811L37.7864 18.9846L36.591 19.8526H38.0681Z" fill="white"/>
<path d="M43.4235 22.6295L43.8778 24.033L44.3347 22.6295H45.8093L44.6164 21.7615L45.0732 20.3579L43.8778 21.2259L42.6849 20.3579L43.1392 21.7615L41.9464 22.6295H43.4235Z" fill="white"/>
<path d="M33.9058 27.0481L34.3627 25.6445L33.1698 26.51L31.9744 25.6445L32.4312 27.0481L31.2358 27.9135H32.713L33.1698 29.3171L33.6241 27.9135H35.1013L33.9058 27.0481Z" fill="white"/>
<path d="M38.5224 32.0965L38.9793 30.6929H40.4539L39.261 29.8249L39.7178 28.4214L38.5224 29.2894L37.3295 28.4214L37.7864 29.8249L36.591 30.6929H38.0681L38.5224 32.0965Z" fill="white"/>
</svg>
