<svg width="82" height="82" viewBox="0 0 82 82" fill="none" xmlns="http://www.w3.org/2000/svg">
<path d="M68.5279 10.1523H12.6908C7.08392 10.1523 2.53864 14.6976 2.53864 20.3045V60.9133C2.53864 66.5202 7.08392 71.0655 12.6908 71.0655H68.5279C74.1348 71.0655 78.6801 66.5202 78.6801 60.9133V20.3045C78.6801 14.6976 74.1348 10.1523 68.5279 10.1523Z" fill="#0A9DE0"/>
<path d="M12.6902 10.1523H40.6087V40.6089H2.53802V20.3045C2.53802 14.7013 7.08697 10.1523 12.6902 10.1523Z" fill="#001B69"/>
<path d="M16.4979 34.9585V40.6089H26.6501V34.9562L34.3584 40.6089H40.6093V37.4589L31.0615 30.4567H40.6093V20.3045H33.6551L40.6093 15.2048V10.1523H36.952L26.6501 17.7079V10.1523H16.4979V17.2424L8.23249 11.1785C6.28454 12.128 4.70587 13.6744 3.70055 15.5893L10.1271 20.3045H2.53864V30.4567H12.0898L2.53864 37.4615V40.6089H8.79289L16.4979 34.9585Z" fill="white"/>
<path d="M4.5828 14.1853L12.9213 20.3043H16.3822L5.98837 12.6782C5.46985 13.1338 4.99955 13.6338 4.5828 14.1853Z" fill="#CA0A2B"/>
<path d="M2.53723 40.6092L16.3813 30.457V32.9951L5.99837 40.6092H2.53723Z" fill="#CA0A2B"/>
<path d="M24.112 40.6089H19.0359V27.9187H2.53864V22.8426H19.0359V10.1523H24.112V22.8426H40.6093V27.9187H24.112V40.6089Z" fill="#CA0A2B"/>
<path d="M40.6092 39.7633L27.919 30.457V32.9951L38.3019 40.6092H40.6092V39.7633Z" fill="#CA0A2B"/>
<path d="M40.6091 10.1523H39.9786L26.1196 20.3157H29.5805L40.6091 12.2282V10.1523Z" fill="#CA0A2B"/>
<path opacity="0.15" d="M68.5279 10.1523H12.6908C7.08402 10.1523 2.53864 14.6975 2.53864 20.3045V60.9133C2.53864 66.5203 7.08402 71.0655 12.6908 71.0655H68.5279C74.1349 71.0655 78.6801 66.5203 78.6801 60.9133V20.3045C78.6801 14.6975 74.1349 10.1523 68.5279 10.1523ZM76.142 60.9133C76.142 65.112 72.7266 68.5274 68.5279 68.5274H12.6908C8.49213 68.5274 5.07668 65.112 5.07668 60.9133V20.3045C5.07668 16.1058 8.49213 12.6904 12.6908 12.6904H68.5279C72.7266 12.6904 76.142 16.1058 76.142 20.3045V60.9133Z" fill="black"/>
<path opacity="0.2" d="M68.5273 12.6904H12.6902C8.48493 12.6904 5.07608 16.0993 5.07608 20.3046V22.8426C5.07608 18.6373 8.48493 15.2285 12.6902 15.2285H68.5273C72.7326 15.2285 76.1414 18.6373 76.1414 22.8426V20.3046C76.1414 16.0993 72.7326 12.6904 68.5273 12.6904Z" fill="white"/>
<path d="M31.8937 62.6545L30.8772 59.5264L29.861 62.6545H26.5717L29.2328 64.588L28.2163 67.7161L30.8772 65.7829L33.5383 67.7161L32.5219 64.588L35.183 62.6545H31.8937Z" fill="#FEDE02"/>
<path d="M44.3024 47.0435L41.6413 48.9769L38.9802 47.0435L39.9966 50.1719L37.3358 52.1051H40.6248L41.6413 55.2332L42.6578 52.1051H45.9468L43.286 50.1719L44.3024 47.0435Z" fill="#FEDE02"/>
<path d="M43.286 60.9358L44.3024 57.8076L41.6413 59.7408L38.9802 57.8076L39.9966 60.9358L37.3358 62.8692H40.6248L41.6413 65.9974L42.6578 62.8692H45.9468L43.286 60.9358Z" fill="#FEDE02"/>
<path d="M55.0663 32.4043L52.4054 34.3375L49.7442 32.4043L50.7607 35.5324L48.0998 37.4657H51.3889L52.4054 40.5941L53.4219 37.4657H56.7109L54.05 35.5324L55.0663 32.4043Z" fill="#FEDE02"/>
<path d="M54.05 57.9221L55.0663 54.7939L52.4054 56.7272L49.7442 54.7939L50.7607 57.9221L48.0998 59.8556H51.3889L52.4054 62.9837L53.4219 59.8556H56.7109L54.05 57.9221Z" fill="#FEDE02"/>
<path d="M64.108 28.96L61.4471 30.8934L58.7859 28.96L59.8024 32.0884L57.1415 34.0216H60.4306L61.4471 37.1497L62.4636 34.0216H65.7526L63.0917 32.0884L64.108 28.96Z" fill="#FEDE02"/>
<path d="M62.4636 49.3073L61.4471 46.1792L60.4306 49.3073H57.1415L59.8024 51.2406L58.7859 54.369L61.4471 52.4355L64.108 54.369L63.0917 51.2406L65.7526 49.3073H62.4636Z" fill="#FEDE02"/>
<path d="M68.8443 24.9764L67.8278 28.1048L70.489 26.1713L73.1498 28.1048L72.1336 24.9764L74.7945 23.0432H71.5054L70.489 19.915L69.4725 23.0432H66.1834L68.8443 24.9764Z" fill="#FEDE02"/>
<path d="M71.5054 43.7097L70.489 40.5815L69.4725 43.7097H66.1834L68.8443 45.6432L67.8278 48.7713L70.489 46.8381L73.1498 48.7713L72.1336 45.6432L74.7945 43.7097H71.5054Z" fill="#FEDE02"/>
</svg>
