<svg width="82" height="82" viewBox="0 0 82 82" fill="none" xmlns="http://www.w3.org/2000/svg">
<path d="M12.6903 10.1519H68.5273C74.1313 10.1519 78.6795 14.7 78.6795 20.304H2.53809C2.53809 14.7 7.08627 10.1519 12.6903 10.1519Z" fill="black"/>
<path d="M68.5273 71.0649L12.6902 71.0649C7.0862 71.0649 2.53802 66.5168 2.53802 60.9128L78.6794 60.9128C78.6794 66.5168 74.1313 71.0649 68.5273 71.0649Z" fill="#C82A1D"/>
<path d="M2.53809 30.4565H78.6795V40.6087H2.53809V30.4565Z" fill="#C82A1D"/>
<path d="M2.53809 40.6084H78.6795V50.7606H2.53809V40.6084Z" fill="black"/>
<path d="M2.53809 50.7607H78.6795V60.9129H2.53809V50.7607Z" fill="#F7DE4B"/>
<path d="M2.53809 20.3042H78.6795V30.4564H2.53809V20.3042Z" fill="#F7DE4B"/>
<path opacity="0.15" d="M68.5273 10.1519H12.6903C7.08373 10.1519 2.53809 14.6975 2.53809 20.304V60.9128C2.53809 66.5193 7.08373 71.065 12.6903 71.065H68.5273C74.1339 71.065 78.6795 66.5193 78.6795 60.9128V20.304C78.6795 14.6975 74.1339 10.1519 68.5273 10.1519ZM76.1415 60.9128C76.1415 65.1107 72.7252 68.5269 68.5273 68.5269H12.6903C8.49234 68.5269 5.07613 65.1107 5.07613 60.9128V20.304C5.07613 16.1061 8.49234 12.6899 12.6903 12.6899H68.5273C72.7252 12.6899 76.1415 16.1061 76.1415 20.304V60.9128Z" fill="black"/>
<path opacity="0.2" d="M68.5274 12.6899H12.6903C8.48477 12.6899 5.07617 16.0985 5.07617 20.3041V22.8421C5.07617 18.6366 8.48477 15.228 12.6903 15.228H68.5274C72.7329 15.228 76.1415 18.6366 76.1415 22.8421V20.3041C76.1415 16.0985 72.7329 12.6899 68.5274 12.6899Z" fill="white"/>
<path d="M40.6087 50.7609C46.2156 50.7609 50.7609 46.2156 50.7609 40.6087C50.7609 35.0018 46.2156 30.4565 40.6087 30.4565C35.0018 30.4565 30.4565 35.0018 30.4565 40.6087C30.4565 46.2156 35.0018 50.7609 40.6087 50.7609Z" fill="white"/>
<path d="M42.9031 40.2532C42.4361 39.9868 40.1849 38.7812 39.19 38.5705C39.1595 38.4157 38.8956 36.9512 39.5174 36.2406C40.289 35.6035 40.2813 34.931 40.2483 34.7964C40.4793 34.7406 41.0961 34.6416 41.1164 34.5503L41.1037 34.5376C41.0478 34.1366 40.9057 33.865 40.5555 33.4894C39.4057 32.431 38.3905 32.6391 37.5986 33.1873L38.1392 34.1848C37.7763 34.634 37.8981 35.0046 37.9641 35.1391C37.6925 35.2406 36.5834 35.4792 36.7865 35.7787L36.7915 35.799C36.7915 35.799 36.8068 35.7964 36.8144 35.7939C37.0098 35.8726 37.6316 35.7888 37.9819 35.733C37.7636 35.9487 37.5352 36.4157 37.9666 36.568L37.9616 36.5959C37.2433 36.9462 35.6316 40.1086 37.3601 41.2659C37.4007 41.2431 37.3956 41.2609 37.4413 41.1923C37.6062 41.3852 38.2357 42.073 38.9083 42.2558C39.3143 42.672 39.4717 42.8243 39.5453 42.8725C39.5834 43.1948 39.6494 43.9613 39.5707 44.1821C38.2052 44.2405 35.8956 43.3928 36.3271 45.9461C36.4311 45.7024 36.5733 45.3776 36.6469 45.205C36.6595 45.4359 36.7306 45.7253 36.9387 45.8623C36.893 45.5095 36.992 45.0908 37.0758 44.9283C37.0859 45.2278 37.289 45.9131 37.459 45.3243C37.4438 44.2989 39.2331 44.7304 39.5402 44.6771C39.6392 45.5172 39.761 46.7557 39.7255 47.0121C39.1367 46.9131 37.7484 47.0374 37.6925 47.5095C38.2204 47.4715 38.6925 47.5095 38.822 47.5349C38.6418 47.7075 38.2179 48.1821 38.4641 48.4816C39.0301 47.8395 40.2458 47.3166 41.5986 47.5349C41.3727 47.0222 40.4818 46.9816 40.2712 46.9968C39.9717 44.073 39.8397 44.9842 41.6443 44.4689C41.5351 43.271 40.1798 42.37 42.5351 42.9283C42.7153 43.2151 42.7306 43.304 42.7839 43.3725C42.8245 43.3598 42.8295 43.3547 42.8448 43.2938C42.8575 43.4943 42.8042 43.6618 42.7229 43.7964L42.7864 43.8573C43.1163 43.639 43.2407 43.3395 43.2788 43.0882C43.3397 43.5629 43.1849 44.3294 42.3524 44.7202C42.4133 44.7786 42.5123 44.8496 42.5681 44.8598C42.2864 45.1238 42.2889 45.2735 43.0224 44.9359C42.7788 45.2354 43.0707 45.271 43.3118 45.1009C43.1874 45.2583 43.0884 45.4029 43.0199 45.5298H43.0021V45.6085C45.5935 44.9715 45.629 40.7202 42.9082 40.2532H42.9031Z" fill="black"/>
</svg>
