<svg width="82" height="82" viewBox="0 0 82 82" fill="none" xmlns="http://www.w3.org/2000/svg">
<path d="M68.5273 10.1519H12.6903C7.08338 10.1519 2.53809 14.6971 2.53809 20.304V60.9128C2.53809 66.5197 7.08338 71.065 12.6903 71.065H68.5273C74.1342 71.065 78.6795 66.5197 78.6795 60.9128V20.304C78.6795 14.6971 74.1342 10.1519 68.5273 10.1519Z" fill="white"/>
<path d="M4.15729 14.8371H77.0602C75.2556 12.0249 72.1186 10.1519 68.5272 10.1519H12.6902C9.1014 10.1519 5.96438 12.0249 4.15729 14.8371Z" fill="#A62842"/>
<path d="M5.15219 19.5225C5.13189 19.7839 5.07605 20.0351 5.07605 20.3042V24.2102H78.6794V20.3042C78.6794 20.0377 78.6236 19.7864 78.6033 19.5225H5.15219Z" fill="#A62842"/>
<path d="M5.07605 28.8955H78.6794V33.5807H5.07605V28.8955Z" fill="#A62842"/>
<path d="M5.07605 38.2661H78.6794V42.9514H5.07605V38.2661Z" fill="#A62842"/>
<path d="M2.53809 47.6367H78.6795V52.322H2.53809V47.6367Z" fill="#A62842"/>
<path d="M2.53809 60.9134C2.53809 61.1799 2.59646 61.4311 2.61677 61.6951H78.6008C78.6211 61.4337 78.6795 61.1824 78.6795 60.9134V57.0073H2.53809V60.9134Z" fill="#A62842"/>
<path d="M77.0602 66.3799H4.15729C5.96184 69.192 9.09887 71.0651 12.6902 71.0651H68.5272C72.116 71.0651 75.2531 69.192 77.0602 66.3799Z" fill="#A62842"/>
<path d="M12.6903 10.1519H40.6088V42.951H2.53809V20.304C2.53809 14.7 7.08627 10.1519 12.6903 10.1519Z" fill="#102D5E"/>
<path opacity="0.15" d="M68.5273 10.1519H12.6903C7.08373 10.1519 2.53809 14.6975 2.53809 20.304V60.9128C2.53809 66.5193 7.08373 71.065 12.6903 71.065H68.5273C74.1339 71.065 78.6795 66.5193 78.6795 60.9128V20.304C78.6795 14.6975 74.1339 10.1519 68.5273 10.1519ZM76.1415 60.9128C76.1415 65.1107 72.7252 68.5269 68.5273 68.5269H12.6903C8.49234 68.5269 5.07613 65.1107 5.07613 60.9128V20.304C5.07613 16.1061 8.49234 12.6899 12.6903 12.6899H68.5273C72.7252 12.6899 76.1415 16.1061 76.1415 20.304V60.9128Z" fill="black"/>
<path opacity="0.2" d="M68.5272 12.6899H12.6902C8.48465 12.6899 5.07605 16.0985 5.07605 20.3041V22.8421C5.07605 18.6366 8.48465 15.228 12.6902 15.228H68.5272C72.7328 15.228 76.1414 18.6366 76.1414 22.8421V20.3041C76.1414 16.0985 72.7328 12.6899 68.5272 12.6899Z" fill="white"/>
<path d="M11.6775 18.9412L13.18 17.8499H11.3247L10.7511 16.0859L10.1775 17.8499H8.3222L9.82219 18.9412L9.24859 20.7052L10.7511 19.6164L12.2511 20.7052L11.6775 18.9412Z" fill="white"/>
<path d="M19.2384 18.9412L20.7409 17.8499H18.8856L18.312 16.0859L17.7384 17.8499H15.8831L17.383 18.9412L16.8094 20.7052L18.312 19.6164L19.812 20.7052L19.2384 18.9412Z" fill="white"/>
<path d="M26.8017 18.9412L28.3017 17.8499H26.4464L25.8728 16.0859L25.2992 17.8499H23.4439L24.9439 18.9412L24.3728 20.7052L25.8728 19.6164L27.3728 20.7052L26.8017 18.9412Z" fill="white"/>
<path d="M15.3958 23.5604L16.8983 22.4716H15.043L14.4694 20.7051L13.8958 22.4716H12.0405L13.5405 23.5604L12.9669 25.3269L14.4694 24.2355L15.9694 25.3269L15.3958 23.5604Z" fill="white"/>
<path d="M22.9592 23.5604L24.4592 22.4716H22.6039L22.0303 20.7051L21.4567 22.4716H19.6014L21.1014 23.5604L20.5303 25.3269L22.0303 24.2355L23.5303 25.3269L22.9592 23.5604Z" fill="white"/>
<path d="M30.5201 23.5604L32.0201 22.4716H30.1647L29.5911 20.7051L29.0175 22.4716H27.1622L28.6648 23.5604L28.0912 25.3269L29.5911 24.2355L31.0937 25.3269L30.5201 23.5604Z" fill="white"/>
<path d="M15.3958 32.8016L16.8983 31.7102H15.043L14.4694 29.9463L13.8958 31.7102H12.0405L13.5405 32.8016L12.9669 34.5655L14.4694 33.4767L15.9694 34.5655L15.3958 32.8016Z" fill="white"/>
<path d="M22.9592 32.8016L24.4592 31.7102H22.6039L22.0303 29.9463L21.4567 31.7102H19.6014L21.1014 32.8016L20.5303 34.5655L22.0303 33.4767L23.5303 34.5655L22.9592 32.8016Z" fill="white"/>
<path d="M30.5201 32.8016L32.0201 31.7102H30.1647L29.5911 29.9463L29.0175 31.7102H27.1622L28.6648 32.8016L28.0912 34.5655L29.5911 33.4767L31.0937 34.5655L30.5201 32.8016Z" fill="white"/>
<path d="M34.3626 18.9412L35.8626 17.8499H34.0073L33.4337 16.0859L32.8601 17.8499H31.0048L32.5073 18.9412L31.9337 20.7052L33.4337 19.6164L34.9362 20.7052L34.3626 18.9412Z" fill="white"/>
<path d="M11.6775 28.1825L13.18 27.0911H11.3247L10.7511 25.3271L10.1775 27.0911H8.3222L9.82219 28.1825L9.24859 29.9464L10.7511 28.855L12.2511 29.9464L11.6775 28.1825Z" fill="white"/>
<path d="M19.2384 28.1825L20.7409 27.0911H18.8856L18.312 25.3271L17.7384 27.0911H15.8831L17.383 28.1825L16.8094 29.9464L18.312 28.855L19.812 29.9464L19.2384 28.1825Z" fill="white"/>
<path d="M26.8017 28.1825L28.3017 27.0911H26.4464L25.8728 25.3271L25.2992 27.0911H23.4439L24.9439 28.1825L24.3728 29.9464L25.8728 28.855L27.3728 29.9464L26.8017 28.1825Z" fill="white"/>
<path d="M34.3626 28.1825L35.8626 27.0911H34.0073L33.4337 25.3271L32.8601 27.0911H31.0048L32.5073 28.1825L31.9337 29.9464L33.4337 28.855L34.9362 29.9464L34.3626 28.1825Z" fill="white"/>
<path d="M11.6775 37.4207L13.18 36.3319H11.3247L10.7511 34.5654L10.1775 36.3319H8.3222L9.82219 37.4207L9.24859 39.1872L10.7511 38.0959L12.2511 39.1872L11.6775 37.4207Z" fill="white"/>
<path d="M19.2384 37.4207L20.7409 36.3319H18.8856L18.312 34.5654L17.7384 36.3319H15.8831L17.383 37.4207L16.8094 39.1872L18.312 38.0959L19.812 39.1872L19.2384 37.4207Z" fill="white"/>
<path d="M26.8017 37.4207L28.3017 36.3319H26.4464L25.8728 34.5654L25.2992 36.3319H23.4439L24.9439 37.4207L24.3728 39.1872L25.8728 38.0959L27.3728 39.1872L26.8017 37.4207Z" fill="white"/>
<path d="M34.3626 37.4207L35.8626 36.3319H34.0073L33.4337 34.5654L32.8601 36.3319H31.0048L32.5073 37.4207L31.9337 39.1872L33.4337 38.0959L34.9362 39.1872L34.3626 37.4207Z" fill="white"/>
</svg>
