<svg width="82" height="82" viewBox="0 0 82 82" fill="none" xmlns="http://www.w3.org/2000/svg">
<path d="M68.5273 10.1519H12.6902C7.08331 10.1519 2.53802 14.6971 2.53802 20.304V60.9128C2.53802 66.5197 7.08331 71.065 12.6902 71.065H68.5273C74.1342 71.065 78.6794 66.5197 78.6794 60.9128V20.304C78.6794 14.6971 74.1342 10.1519 68.5273 10.1519Z" fill="#071B65"/>
<path d="M12.9467 10.1519H12.6903C7.66246 10.1519 3.51529 13.8168 2.70819 18.6137L68.271 71.065H68.5274C73.5552 71.065 77.7024 67.4001 78.5095 62.6031L12.9467 10.1519Z" fill="white"/>
<path d="M56.4716 48.2228H50.1265L75.3394 68.3926C76.3217 67.4967 77.1262 66.4206 77.6973 65.2023L56.4716 48.2228Z" fill="#B92932"/>
<path d="M3.52026 16.0125L24.746 32.9946H31.0911L5.87811 12.8247C4.89589 13.7206 4.09132 14.7942 3.52026 16.0125Z" fill="#B92932"/>
<path d="M12.6903 71.065H12.9467L78.5095 18.6137C77.7024 13.8143 73.5552 10.1519 68.5274 10.1519H68.271L2.70819 62.6031C3.51529 67.4026 7.66246 71.065 12.6903 71.065Z" fill="white"/>
<path d="M48.2229 10.1519H32.9946V71.065H48.2229V10.1519Z" fill="white"/>
<path d="M78.6794 32.9946H2.53802V48.2229H78.6794V32.9946Z" fill="white"/>
<path d="M45.6848 10.1519H35.5327V71.065H45.6848V10.1519Z" fill="#B92932"/>
<path d="M78.6794 45.6849V35.5327L2.53802 35.5327V45.6849L78.6794 45.6849Z" fill="#B92932"/>
<path d="M71.6287 10.6851L48.2228 29.4057V32.9945H50.1264L75.3622 12.8424C74.2987 11.8678 73.0322 11.1394 71.6287 10.6851Z" fill="#B92932"/>
<path d="M5.90851 68.4178C6.95926 69.367 8.2029 70.0828 9.58106 70.5295L32.9945 51.7987V48.2251H31.091L5.90851 68.4178Z" fill="#B92932"/>
<path opacity="0.15" d="M68.5273 10.1519H12.6902C7.08367 10.1519 2.53802 14.6975 2.53802 20.304V60.9128C2.53802 66.5193 7.08367 71.065 12.6902 71.065H68.5273C74.1338 71.065 78.6794 66.5193 78.6794 60.9128V20.304C78.6794 14.6975 74.1338 10.1519 68.5273 10.1519ZM76.1414 60.9128C76.1414 65.1107 72.7252 68.5269 68.5273 68.5269H12.6902C8.49228 68.5269 5.07607 65.1107 5.07607 60.9128V20.304C5.07607 16.1061 8.49228 12.6899 12.6902 12.6899H68.5273C72.7252 12.6899 76.1414 16.1061 76.1414 20.304V60.9128Z" fill="black"/>
<path opacity="0.2" d="M68.5272 12.6899H12.6902C8.48465 12.6899 5.07605 16.0985 5.07605 20.3041V22.8421C5.07605 18.6366 8.48465 15.228 12.6902 15.228H68.5272C72.7328 15.228 76.1414 18.6366 76.1414 22.8421V20.3041C76.1414 16.0985 72.7328 12.6899 68.5272 12.6899Z" fill="white"/>
</svg>
