<svg width="82" height="82" viewBox="0 0 82 82" fill="none" xmlns="http://www.w3.org/2000/svg">
<path d="M68.5272 10.1519H12.6902C7.08325 10.1519 2.53796 14.6971 2.53796 20.304V60.9128C2.53796 66.5197 7.08325 71.065 12.6902 71.065H68.5272C74.1341 71.065 78.6794 66.5197 78.6794 60.9128V20.304C78.6794 14.6971 74.1341 10.1519 68.5272 10.1519Z" fill="white"/>
<path d="M2.53796 48.2227H78.6794V55.8368H2.53796V48.2227Z" fill="#1334A3"/>
<path d="M78.3216 63.4512H2.89587C4.02784 67.8217 7.96435 71.0653 12.6902 71.0653H68.5272C73.2531 71.0653 77.187 67.8217 78.3216 63.4512Z" fill="#1334A3"/>
<path d="M38.0708 32.9946H78.6796V40.6088H38.0708V32.9946Z" fill="#1334A3"/>
<path d="M78.3217 17.7661H38.0708V25.3803H78.6796V20.3042C78.6796 19.4235 78.5323 18.5808 78.3217 17.7661Z" fill="#1334A3"/>
<path opacity="0.2" d="M68.5272 12.6899H12.6902C8.48465 12.6899 5.07605 16.0985 5.07605 20.3041V22.8421C5.07605 18.6366 8.48465 15.228 12.6902 15.228H68.5272C72.7328 15.228 76.1414 18.6366 76.1414 22.8421V20.3041C76.1414 16.0985 72.7328 12.6899 68.5272 12.6899Z" fill="white"/>
<path d="M12.6902 10.1519H40.6087V48.2226H2.53796V20.304C2.53796 14.7 7.08614 10.1519 12.6902 10.1519Z" fill="white"/>
<path opacity="0.15" d="M68.5272 10.1519H12.6902C7.08361 10.1519 2.53796 14.6975 2.53796 20.304V60.9128C2.53796 66.5193 7.08361 71.065 12.6902 71.065H68.5272C74.1337 71.065 78.6794 66.5193 78.6794 60.9128V20.304C78.6794 14.6975 74.1337 10.1519 68.5272 10.1519ZM76.1413 60.9128C76.1413 65.1107 72.7251 68.5269 68.5272 68.5269H12.6902C8.49222 68.5269 5.07601 65.1107 5.07601 60.9128V20.304C5.07601 16.1061 8.49222 12.6899 12.6902 12.6899H68.5272C72.7251 12.6899 76.1413 16.1061 76.1413 20.304V60.9128Z" fill="black"/>
<path d="M30.6316 31.7582C29.8778 31.5576 28.9894 31.3241 27.9209 30.3419L34.2635 29.1897L27.5884 27.9765C30.7711 26.7607 29.9742 24.4943 33.2001 24.6846C30.3168 22.9283 29.8473 25.5146 26.8752 25.5171L30.5453 20.2177L25.0047 24.0552C26.4565 20.8877 24.1773 19.9435 26.6087 17.7837C23.3296 18.5806 24.8245 20.7405 22.7255 22.8445L21.5733 16.502L20.3651 23.1491C19.1469 20.1339 16.8601 20.7253 17.0682 17.5654C15.3119 20.4486 17.8982 20.9182 17.9007 23.8902L12.6013 20.2202L16.4312 25.7531C13.2662 24.3064 12.3246 26.5907 10.1673 24.1592C10.9642 27.4384 13.1241 25.9435 15.2281 28.0425L8.88556 29.1947L15.5175 30.4003C12.2942 31.616 13.1901 33.885 9.949 33.6998C12.5226 35.4358 13.416 32.913 16.2738 32.8673L12.6038 38.1667L18.1393 34.3343C16.6748 37.5144 18.9743 38.4358 16.5403 40.6032C19.8195 39.8063 18.3246 37.6464 20.4235 35.5424L21.5758 41.885L22.7839 35.2327C23.9996 38.4459 26.2661 37.583 26.0808 40.8215C27.8372 37.9383 25.2509 37.4688 25.2484 34.4967L30.5478 38.1667L26.7128 32.6287C29.8498 34.0475 30.8219 31.8064 32.9818 34.2302C32.6341 32.6744 31.6772 31.9028 30.6316 31.7632V31.7582Z" fill="#F6D44A"/>
</svg>
