<?xml version="1.0" encoding="UTF-8"?><svg id="uuid-63615032-1c86-46ae-8ca6-317d469bf4bb" xmlns="http://www.w3.org/2000/svg" viewBox="0 0 196.5 309.75">
<title>Uruguay national football team logo - Brandlogos.net</title><path d="M2.54,215.56c-.27-55.27.21-121.83-.7-169.81,68.16.41,120.68-.03,192.03.45-.63,60.04-.2,105.68-.95,170.76-8.42,34.88-59.8,77.87-94.55,89.78C38.27,293.55,5.88,226.62,2.54,215.56Z" style="fill:#fff;"/><path d="M189.69,216.58c.43-55.67,2.14-119,2.16-168.48l-187.83-.24c.29,55.28.17,64.47,1,167.68,12.22,43.8,48.5,70.46,92.63,88.79,42.91-18.66,83.13-46.65,92.05-87.74h0ZM97.67,309.75C39.75,283.42,11.96,260.44.5,215.55c-1.01-55.74-.21-116.05-.08-171.8h196.08c-.32,57.69-.64,115.38-.95,173.07-8.88,42.19-49.18,72.4-97.88,92.93Z" style="fill:#ffc905;"/><path d="M67.68,235.42v27.98l.1-.03h.01c11.05-2.95,18.11-5.42,31.28-9.5,13.36,4,15.55,4.8,31.26,9.52h.1v-27.96c-20.56-.03-41.89.02-62.75,0h0ZM80.67,155.11h37.71v4.55h-28.96v4.45h28.56v4.26h-28.56l-.05,9.24h-8.7c0-7.5,0-14.99,0-22.49h0ZM79.55,122.73h9.15v17.02h20.72v-17.02h9.15c0,5.79,0,11.58,0,17.36-2.18,2-5.25,4.39-8.8,5.12-6.08,0-13.3.02-20.41.03-3.96-.41-7.17-2.51-9.81-5.21v-17.31ZM99.07,96.39c-1.8,2.74-3.94,5.86-5.96,8.93h11.9c-1.69-2.68-4-5.76-5.94-8.93ZM93.19,92.22h11.74c5.17,8.64,7.98,13.23,13.61,22.25-2.76.01-6.01.02-9.23.05-.57-1.16-1.19-2.44-1.83-3.78h-16.83l-1.8,3.77c-2.77,0-6.05,0-9.29,0,4.68-7.67,8.56-14,13.63-22.29h0ZM50.53,91.89c-2.71,2.51-4.87,8.75-.6,10.89l.03,10.63c-1.49-4-5.84-5.49-10.04-4.91.13,4.23,2.77,9.07,7.95,8.17.87-.15,1.73-.87,2.09-1.93v6.32s0,6.32,0,6.32l-.12-.38-.12-.38-.25-.47-.25-.47-.28-.36-.28-.36-.45-.43-.45-.43-.79-.45-.79-.45-.75-.26-.75-.26-.84-.16-.84-.16-1.36-.05-1.36-.05-.08.12-.08.12v.87s.02.87.02.87l.12.67.12.67.24.66.24.67.37.62.37.62.43.48.43.48.64.45.64.46.69.29.69.29.67.14.67.14.65-.04.65-.04.62-.26.62-.26.3-.33.3-.33.18-.39.18-.39v6.61s0,6.61,0,6.61l-.22-.54-.21-.55-.34-.48-.34-.48-.61-.57-.61-.57-.65-.37-.65-.37-.48-.18-.47-.18-.78-.2-.78-.2-1.11-.09-1.11-.09-.94.08-.94.08-.06.05-.06.05.12,1.02.12,1.02.24.78.24.78.42.75.41.75.46.53.47.53.62.44.62.45.73.33.73.33.59.13.59.13h1.55l.52-.17.52-.17.41-.31.41-.31.27-.5.27-.5v14.14s-.22-.54-.22-.54l-.22-.54-.25-.37-.25-.37-.46-.48-.46-.48-.61-.42-.61-.42-.79-.33-.79-.33-.87-.18-.87-.19h-1.59s-1.59,0-1.59,0l-.47.07-.47.07.06.67.07.66.14.6.14.6.2.54.2.54.37.67.37.67.54.59.54.6.69.46.68.46.69.29.69.28.67.14.67.14.77-.04.77-.04.39-.14.38-.14.35-.21.35-.21.26-.32.26-.32.13-.32.13-.31v13.81s-.23-.52-.23-.52l-.22-.52-.36-.48-.36-.47-.55-.47-.55-.46-.71-.38-.71-.38-.87-.25-.87-.25-.92-.1-.91-.1-.87.06-.87.05-.96.17-.96.17-.09.08-.09.08.2.81.2.81.33.76.33.76.43.66.43.65.92.79.91.79.77.34.77.34.67.18.67.18h.96s.96,0,.96,0l.55-.18.56-.19.4-.27.41-.27.31-.52.31-.52v19.23h1.25v-19.18s.18.35.18.35l.18.34.35.34.35.34.51.21.51.21.71.09.71.09.82-.12.82-.12.6-.21.6-.21.55-.28.55-.28.78-.67.78-.67.45-.66.45-.66.29-.6.29-.6.23-.77.23-.77.05-.31.05-.31-.5-.12-.5-.12-.63-.1-.62-.1h-2.69l-.84.18-.84.18-.64.25-.64.25-.6.37-.6.37-.5.47-.5.47-.25.37-.25.37-.22.47-.22.47v-6.82s0-6.82,0-6.82l.14.34.14.34.34.34.34.34.64.27.64.28h1.01s1.01,0,1.01,0l.53-.16.53-.15.75-.33.75-.33.73-.59.72-.58.39-.5.39-.5.37-.68.37-.68.24-.83.24-.83.09-.79.09-.79-.07-.06-.07-.06-.72-.1-.72-.1-1.3.05-1.3.05-.94.21-.93.21-.76.34-.76.34-.57.39-.57.4-.47.5-.47.5-.3.5-.3.5-.12.33-.12.33v-6.99s0-6.99,0-6.99l.19.37.19.37.36.32.35.32.48.22.48.22.93.03.93.04.7-.18.7-.18.63-.29.62-.29.52-.37.52-.37.38-.37.38-.37.45-.65.45-.65.3-.79.3-.78.15-.73.15-.73v-1.3l-.27-.04-.27-.04-.72-.05-.72-.05-1.02.09-1.02.09-.74.17-.74.17-.61.24-.61.24-.54.31-.54.31-.55.48-.56.48-.41.54-.41.54-.23.57-.23.57v-13.06s.27.5.27.5l.27.5.37.28.37.28.44.16.44.16.6.05.6.05c4.52-.75,6.77-4.29,6.41-8.55l-.77-.03c-3.53.02-7.21,1.01-8.72,4.35l-.27.67v-6.24s.01-6.24.01-6.24l.14.35.14.35c4.42,4.34,10.44-2.51,9.74-7.04-3.32-.1-8.11,1.02-10.01,4.77,0-3.47-.02-6.94-.02-10.42,5.01-2.45,1.06-9.52-.7-10.94h0ZM148.24,91.53c-2.71,2.51-4.87,8.75-.6,10.89l.03,10.63c-1.49-4-5.84-5.48-10.04-4.91.13,4.23,2.77,9.07,7.95,8.16.87-.15,1.73-.87,2.09-1.93v6.32s0,6.32,0,6.32l-.12-.38-.12-.38-.25-.47-.25-.47-.28-.36-.28-.36-.45-.43-.45-.43-.79-.45-.79-.45-.75-.26-.75-.26-.84-.16-.84-.16-1.36-.05-1.36-.05-.08.12-.09.12v.87s.02.87.02.87l.12.67.12.67.24.66.24.67.37.62.37.62.43.48.43.48.64.46.64.45.69.29.69.29.67.14.67.14.65-.04.65-.04.62-.26.62-.26.3-.33.3-.33.18-.39.18-.39v13.23s-.21-.54-.21-.54l-.22-.55-.33-.48-.34-.48-.61-.57-.61-.57-.65-.37-.65-.37-.48-.18-.47-.18-.78-.2-.78-.2-1.11-.09-1.11-.09-.94.08-.94.08-.06.05-.06.05.12,1.02.12,1.02.24.78.24.78.42.75.41.75.46.53.47.53.62.45.62.45.73.33.73.33.59.13.59.13h1.55l.52-.16.51-.17.41-.31.42-.31.27-.5.27-.5v14.14s-.22-.54-.22-.54l-.22-.54-.25-.37-.25-.37-.46-.48-.46-.48-.61-.42-.61-.42-.79-.33-.79-.33-.87-.19-.87-.19h-1.59s-1.59,0-1.59,0l-.47.07-.47.07.06.66.07.67.14.6.14.6.2.54.19.54.37.67.37.67.54.6.54.59.68.47.69.46.69.29.69.28.67.14.67.14.77-.04.77-.04.38-.14.39-.14.35-.21.35-.21.26-.32.26-.32.13-.32.13-.31v6.9s0,6.9,0,6.9l-.22-.52-.22-.52-.36-.47-.36-.47-.55-.46-.55-.46-.71-.38-.71-.38-.87-.25-.87-.25-.91-.1-.91-.1-.87.05-.87.06-.96.17-.96.17-.09.08-.09.08.2.81.2.81.33.76.33.76.43.66.43.65.92.79.91.79.77.34.77.34.67.18.67.18h.96s.96,0,.96,0l.55-.18.55-.19.4-.27.41-.27.31-.52.31-.52v19.23h1.25v-19.18s.18.34.18.34l.18.35.36.34.35.34.51.21.51.21.71.09.71.09.82-.12.82-.12.6-.21.6-.21.55-.28.55-.28.78-.67.78-.67.45-.66.45-.66.29-.6.29-.6.23-.77.23-.77.05-.31.05-.31-.5-.12-.5-.12-.63-.1-.62-.1h-2.69l-.84.18-.84.18-.64.25-.64.25-.6.37-.6.37-.5.47-.5.47-.25.37-.25.37-.22.47-.22.47v-6.82s0-6.82,0-6.82l.14.34.14.34.34.34.34.34.64.27.64.27h1.01s1.01,0,1.01,0l.53-.16.53-.15.75-.33.75-.33.73-.59.72-.59.39-.49.39-.5.37-.68.37-.68.24-.83.24-.83.09-.79.09-.79-.07-.06-.07-.06-.72-.1-.72-.1-1.3.05-1.3.05-.94.21-.93.21-.76.34-.76.34-.57.4-.57.39-.47.5-.47.5-.3.5-.3.5-.12.33-.12.33v-6.99s0-6.99,0-6.99l.19.37.19.38.35.32.36.32.48.22.48.22.93.04.93.04.7-.18.7-.18.62-.29.63-.29.52-.37.52-.37.38-.37.38-.37.45-.65.45-.65.3-.79.3-.78.15-.73.15-.73v-1.3l-.26-.04-.27-.04-.72-.05-.72-.05-1.02.09-1.02.09-.74.17-.74.17-.61.24-.61.24-.54.31-.54.31-.56.48-.56.48-.41.54-.41.54-.23.57-.23.57v-6.53s0-6.53,0-6.53l.27.5.27.5.37.28.37.28.44.16.44.16.6.05.6.05c4.52-.75,6.77-4.29,6.41-8.55l-.77-.03c-3.53.02-7.21,1.01-8.72,4.35l-.27.66v-6.24s.01-6.24.01-6.24l.14.35.14.35c4.42,4.34,10.44-2.51,9.74-7.04-3.32-.1-8.11,1.02-10.01,4.77,0-3.47-.02-6.94-.02-10.42,5.01-2.45,1.06-9.52-.69-10.94h0ZM67.68,67.8l.1,125.93c20.9.04,41.79.06,62.69,0l.03-.03.03-.03c-.02-40.14-.13-85.71-.15-125.85-10.5,4.4-18.92,6.52-31.24,11.32-13.71-4.73-18.05-6.33-31.46-11.34h0Z" style="fill:#ffc905;"/><path d="M139.3,203.62h-19.91l-.67-.82-.67-.82-1-1-1-1-.1-.03-.1-.03-.58-.47-.58-.47h44.5v4.67h-19.91ZM60.52,203.62h-19.91v-4.67h44.45l-1.56,1.41-1.56,1.41-.75.92-.75.92h-19.91ZM141.16,212.96h-18.05l-.08-.57-.08-.57-.16-.73-.16-.73-.27-.86-.27-.86-.06-.17-.06-.17h37.24v4.67h-18.05ZM58.65,212.96h-18.05v-4.67h37.23v.08l-.38,1.18-.38,1.18-.19,1.11-.19,1.11h-18.05ZM140.56,222.31l-18.65.03.15-.33.15-.33.32-1.16.32-1.16.14-.87.14-.87h36.09v4.66l-18.65.03ZM77.91,222.36l-.02-.02-18.64-.03-18.64-.03v-4.67h36.11l.13.82.13.82.23.89.23.89.25.67.25.67-.02-.02ZM136.92,231.72h-22.29l.95-.76.95-.76.82-.85.82-.85.56-.71.56-.71h19.96s19.96-.01,19.96-.01v4.67h-22.29,0ZM62.91,231.72h-22.31v-4.67h39.95l.31.42.31.42.63.69.63.69.81.75.81.75.59.46.59.46h-22.31Z" style="fill:#55b5e5;"/><path d="M115.08,232.42l-3.91,2.44-3.9,2.44-.74,1.4c-.68,1.29-.95,1.82-.95,1.86,0,0,.03.03.07.04.32.12,2.58-.51,4.39-1.24.98-.39,1.06-.43,1.07-.5,0-.07.11-.1.14-.05.04.06,1.47-.64,2.45-1.2,1.18-.67,2.39-1.49,3.19-2.15.98-.8,3.1-2.73,3.1-2.81,0-.17-1.02-.24-3.38-.24h-1.51ZM79.77,227.79s-.4,0-.87.04c-2.01.13-2.44.17-2.61.24-.09.03-.1.05-.08.13.08.36,1.76,2.7,2.73,3.8,1.2,1.36,2.97,2.97,4.5,4.1.38.28,1.25.88,1.55,1.07.09.06.17.1.18.1.04,0,.14-.33.17-.55.05-.31.12-1.13.17-2,.04-.7.04-.84,0-.88-.41-.45-4.86-5.13-5.38-5.66-.19-.19-.35-.35-.36-.37h0ZM109.13,218.15l-.18.09c-.5.26-2.38,1.29-5.09,2.82-1.63.91-2.62,1.46-2.83,1.56-.11.05-.17.09-.14.09.04,0,.06.02.06.08,0,.07-.02.08-.07.08-.05,0-.08-.02-.08-.05,0-.05-.04-.04-.27.11-.15.09-.59.35-.99.58-.4.23-.74.43-.76.45-.04.03-.34,1.71-.73,3.99-.31,1.82-.32,1.88-.27,1.95.17.25.81.71,4.96,3.62,1.35.94,2.57,1.81,2.73,1.92.21.15.28.19.29.16,0-.03.03-.04.07-.04.06,0,.06.03.06.09,0,.05,0,.1.02.12.03.05.45.32.62.4.08.04.18.07.21.07.08,0,.55-.26,1.68-.94,1.47-.88,5.35-3.3,5.9-3.68.13-.09.15-.12.17-.22,0-.06.26-1.83.56-3.92.74-5.17.76-5.4.63-5.56-.2-.24-4.83-2.91-6.19-3.58l-.37-.18ZM87.65,215.71c-.06,0-.82.18-1.67.39-.77.19-5.08,1.3-5.09,1.3-.02.01-.06.47-.11,1.38l-.05.73.08.19.08.19-.08.08-.08.08-.02.99c-.05,1.72-.15,4.6-.19,5.31l-.04.68.33.33c.52.53,1.04,1.07,2.41,2.5,2.13,2.23,2.85,2.96,3.07,3.09.09.05.1.05.3,0,.46-.12,2.11-.63,4.08-1.25,1.97-.62,2.07-.66,2.08-.72,0-.08.14-.12.14-.04,0,.03.02.04.06.04.03,0,.86-.26,1.84-.57l1.78-.56.36-2.03c.52-2.93.67-3.88.61-4.01-.02-.03-3.13-2.63-6.02-5.02-1.58-1.31-3.21-2.61-3.63-2.91-.11-.08-.22-.14-.26-.14h0ZM125.76,207.14c-.06,0-1.41,1.76-1.56,2.02-.21.39-.21.65.03,2.24.07.49.22,1.44.31,2.11l.18,1.22.73,1.02c.4.56.87,1.2,1.04,1.41.17.22.31.38.32.37.02-.03.1-.65.15-1.27.05-.55.02-2.45-.05-3.24-.12-1.54-.26-2.55-.49-3.59-.25-1.13-.59-2.29-.67-2.28h0ZM92.97,202.88c.06,0,.07.01.07.07s-.02.07-.07.07c-.06,0-.07-.02-.07-.07s.02-.07.07-.07ZM113.52,202.44c-.07,0-1.08.72-3,2.14-.75.55-1.49,1.1-1.66,1.22l-.3.22v.34c0,.19.02.64.05.99.08.88.97,8.86,1.05,9.35.06.36.08.38.65.75.64.41,3.84,2.28,5.45,3.19h0c.31.17.56.31.57.31.07,0,1.56-1.27,4.53-3.88,1.15-1.01,1.21-1.07,1.2-1.15,0-.08,0-.09.06-.09.04,0,.08.02.08.03s.12-.08.27-.21c.15-.14.46-.42.7-.62l.42-.38-.22-1.52c-.3-2.02-.45-3.01-.55-3.45-.03-.14-.04-.15-.52-.54-1.98-1.58-8.71-6.72-8.79-6.72h0ZM91.08,199.14l-.57.18c-1.01.32-2.52.84-7.23,2.53-1.08.39-1.96.71-1.97.71-.02.02-2.53,4.81-2.91,5.56-.51.99-1.15,2.25-1.26,2.48l-.06.14.21.36c.54.91,2.06,3.34,2.84,4.57l.44.7.1-.02c.06,0,.56-.13,1.12-.27,1.93-.49,1.85-.47,1.86-.53,0-.07.14-.09.16-.02,0,.04,0,.05,1.84-.44,1.49-.39,1.81-.49,1.92-.6.06-.05.23-.31.41-.58,1.32-2.01,3.12-4.78,4.32-6.66,1.17-1.83,1.28-2,1.42-2.28l.13-.23-.24-.5c-.31-.64-.51-1.11-.51-1.22,0-.05-.02-.11-.06-.14-.07-.07-.56-1.02-.95-1.84-.39-.8-.87-1.73-.95-1.82l-.06-.07ZM78.43,198.46c-.15.07-.65.72-1.45,1.87-1.05,1.51-2.11,3.53-2.85,5.44-.22.57-.4,1.1-.61,1.79-.11.34-.22.7-.25.78s-.06.17-.06.19c0,.08.24.23.95.57.66.32,1.28.59,1.63.71.1.03.2.06.22.06.14,0,.31-.25.86-1.24.77-1.4,2.84-5.35,3.29-6.27l.12-.24-.06-.13c-.16-.39-1.24-2.6-1.6-3.27-.15-.27-.15-.28-.22-.25h0ZM92.97,197.68c.07,0,.08,0,.08.07s0,.07-.08.07-.08,0-.08-.07,0-.07.08-.07ZM97.97,193.36l-.18.13c-.2.15-.63.53-2.18,1.88-1.75,1.53-2.46,2.13-2.64,2.24-.06.04-.12.1-.14.14-.02.04-.18.21-.35.37-.17.16-.32.32-.33.34-.02.06.16.45.82,1.86,1.08,2.32,1.81,3.82,1.88,3.87.13.1.92.18,5.56.55,4.54.36,6.27.51,6.86.57.28.03.37,0,.74-.25.86-.56,3.83-2.82,4.51-3.43l.26-.23-.11-.29c-.36-.92-1.57-3.82-2.35-5.65-.42-.98-.53-1.22-.58-1.24-.08-.03-4.09-.33-11.23-.84l-.54-.04ZM100.76,188.47c-1.47-.06-4.81.17-5.9.41-.37.08-.39.11-.2.34.16.2,2.24,2.14,2.77,2.58.22.18.43.36.47.39.06.05.13.06.87.13,1.32.12,2.87.24,6.38.49,2.09.15,3.49.26,3.89.3.17.02.45.03.64.03.39-.01.5-.04.96-.24.55-.24,2.13-1.04,2.22-1.12.03-.03,0-.05-.12-.12-.47-.28-2.41-1.12-3.61-1.58-2.22-.84-5.59-1.49-8.39-1.61h0Z" style="fill:#fff;"/><path d="M111.47,192.51c.76-.37,1.4-.7,1.43-.74.08-.12-3.13-1.52-4.46-1.95-1.85-.6-4.06-1.05-6.17-1.25-1.55-.15-1.95-.16-3.63-.08-1.99.09-3.94.32-4.12.48-.08.07.18.37,1.07,1.19.64.6,1.44,1.32,1.76,1.59l.6.5,1.39.13c.76.07,3.05.24,5.09.38s4,.29,4.37.33c1.24.13,1.19.14,2.67-.58h0ZM110.25,203.46c1.62-1.23,2.52-1.96,2.52-2.05,0-.12-2.92-7.1-3-7.18,0-.01-2.67-.21-5.92-.45l-5.89-.43-.28.22c-.16.12-1.25,1.08-2.44,2.12-1.18,1.05-2.21,1.91-2.28,1.93-.07.01-.12.07-.12.12s-.16.22-.36.38c-.2.16-.36.33-.36.38,0,.11,2.61,5.63,2.7,5.72.11.11,1,.2,6.09.6,2.68.21,5.2.42,5.59.46.4.04.84.08.97.08.2,0,.75-.36,2.77-1.89h0ZM78.28,206.04c1.11-2.1,2.02-3.87,2.02-3.93,0-.11-1.69-3.54-1.8-3.66-.09-.09-.46.35-1.48,1.81-1.41,2.02-2.75,4.79-3.47,7.18-.15.5-.3.97-.33,1.05-.05.12.19.26,1.28.77.76.36,1.43.62,1.55.61.19-.02.45-.47,2.23-3.84h0ZM82.43,215.91c4.26-1.09,5.03-1.3,5.14-1.4.15-.14,5.86-8.98,6.1-9.44l.18-.35-.41-.85c-.22-.47-.38-.87-.35-.9.03-.03,0-.08-.06-.11-.06-.03-.49-.87-.96-1.86-.47-.99-.91-1.82-.98-1.86-.08-.04-1.92.58-4.96,1.67l-4.84,1.73-2.14,4.06c-1.17,2.23-2.12,4.09-2.11,4.13.09.23,3.46,5.63,3.51,5.63.03,0,.86-.21,1.85-.46h0ZM126.97,216.33c.14-1.58-.08-4.7-.44-6.48-.27-1.34-.67-2.73-.77-2.73-.04,0-.46.52-.93,1.14-1,1.34-.95.79-.44,4.23l.33,2.23,1.04,1.45c.57.8,1.06,1.43,1.08,1.41.02-.02.09-.59.15-1.25h0ZM119.22,218.54c1.54-1.34,3.15-2.76,3.59-3.15l.8-.71-.37-2.54c-.21-1.39-.4-2.56-.43-2.59-.63-.55-9.2-7.13-9.28-7.13-.06,0-1.21.81-2.55,1.81l-2.43,1.81v.48c0,.27.1,1.35.22,2.41.12,1.06.37,3.24.54,4.83.18,1.59.34,3.01.37,3.15.05.23.36.43,3.31,2.16,1.79,1.05,3.3,1.9,3.35,1.91.05,0,1.35-1.09,2.89-2.44h0ZM90.18,231.85c1.98-.63,4.23-1.34,5-1.58l1.4-.44.47-2.6c.26-1.43.48-2.79.5-3.03l.03-.44-4.86-4.03c-2.95-2.45-4.93-4.03-5.04-4.03-.1,0-1.67.38-3.49.85l-3.31.85-.08,1.06c-.04.58-.07,1.21-.07,1.4,0,.58-.14,5.25-.19,6.23l-.06.94.61.62c.34.34,1.62,1.68,2.86,2.98,1.64,1.73,2.3,2.37,2.44,2.37.11,0,1.82-.51,3.8-1.14h0ZM110.69,233.92c2.08-1.29,3.79-2.38,3.79-2.41s.31-2.17.68-4.76c.65-4.52.67-4.71.52-4.87-.31-.32-6.37-3.77-6.56-3.74-.1.02-1.93,1.02-4.07,2.23-2.14,1.21-3.97,2.22-4.06,2.26-.09.03-.19.08-.21.11-.02.03-.49.31-1.04.62-.55.31-1,.57-1.01.58-.04.03-1.02,5.71-1.02,5.88,0,.16.71.69,3.95,2.95,2.17,1.51,4.01,2.8,4.08,2.87.32.28.87.6,1.02.61.09,0,1.86-1.05,3.95-2.35h0ZM85.33,236.8c.06-.27.13-1.04.16-1.71l.06-1.23-2.42-2.55c-1.33-1.4-2.64-2.77-2.91-3.04l-.49-.49-1.77.12c-1.46.1-1.78.14-1.8.25-.04.21,1.55,2.47,2.6,3.69,1.29,1.51,3.32,3.34,4.99,4.52.74.52,1.37.94,1.41.94.04,0,.11-.22.17-.48h0ZM107.19,240.34c3.4-.95,6.77-2.61,9.41-4.64.77-.6,3.38-2.94,3.38-3.04,0-.16-1-.25-2.87-.25h-2.05s-3.9,2.44-3.9,2.44l-3.9,2.44-.85,1.59c-.47.87-.85,1.63-.85,1.67,0,.16.57.09,1.64-.21h0ZM97.89,242.39c-3.8-.25-7.24-1.13-10.6-2.72-2.76-1.3-4.75-2.66-7-4.75-2-1.86-3.04-3.07-4.62-5.35-.6-.86-1.61-2.67-1.62-2.9,0-.11-.06-.23-.13-.28-.16-.12-.63-1.24-1.08-2.6-1.19-3.55-1.73-7.36-1.48-10.52.11-1.36.44-3.64.68-4.59,1.17-4.68,3.57-9.04,6.85-12.41,4.69-4.82,10.34-7.66,17.15-8.61,1.69-.24,5.94-.21,7.69.04,4.92.72,9.46,2.58,13.37,5.48,1.24.92,3.46,2.99,4.45,4.15,3.45,4.05,5.54,8.64,6.34,13.9.13.82.16,1.62.16,3.65,0,2.3-.02,2.76-.21,3.95-.38,2.42-1.18,5.14-2.11,7.18-2.22,4.88-6.15,9.29-10.8,12.14-1.29.79-2.58,1.47-2.66,1.4-.03-.03-.1.01-.16.09-.16.2-2.35,1.07-3.86,1.53-2.33.71-4.3,1.05-6.93,1.22-1.52.1-1.92.09-3.44,0h0Z"/><path d="M105,105.3c0-.06-1.04-1.63-2.46-3.7-1.7-2.48-2.57-3.78-3.19-4.79-.14-.23-.26-.41-.27-.41-.01,0-.27.38-.59.86-.31.47-1.23,1.84-2.04,3.05-1.85,2.76-3.33,4.99-3.33,5.01,0,.01,2.67.02,5.94.02s5.94-.01,5.94-.02h0ZM79.76,114.21c.1-.16,1.87-3.06,3.95-6.45,2.07-3.39,5.06-8.27,6.63-10.85l2.87-4.69h5.86s5.86.02,5.86.02l.7,1.17c4.31,7.19,7.02,11.62,11.28,18.47,1.31,2.1,1.57,2.55,1.52,2.56-.03.01-2.1.03-4.59.04l-4.53.02-.74-1.52c-.41-.84-.82-1.69-.91-1.88l-.17-.36h-16.85l-.9,1.89-.9,1.89h-9.25l.18-.29Z" style="fill:#d8000f;"/><path d="M88.59,145.13c-3.02-.5-5.77-1.98-8.43-4.51l-.62-.59v-17.27h9.12v8.5s.02,8.5.02,8.5h20.74v-8.5s.03-8.5.03-8.5h9.08v17.36l-.14.12c-.08.07-.36.31-.63.55-2.63,2.29-5.16,3.73-7.59,4.32l-.44.11h-10.32s-10.32,0-10.32,0l-.5-.08h-.01Z" style="fill:#d8000f;"/><path d="M80.68,166.35v-11.25h37.66v4.52h-28.95v4.48h28.54v4.24h-28.53l-.02,2.67c-.01,1.47-.02,3.55-.02,4.63v1.95h-8.68v-11.25Z" style="fill:#d8000f;"/><polygon points="196.02 14.49 183.93 23.21 188.56 37.31 176.54 28.52 164.52 37.17 169.2 23.12 157.18 14.45 172.03 14.53 176.6 .36 181.16 14.52 196.02 14.49" style="fill:#ffc905;"/><polygon points="196.02 14.49 183.93 23.21 188.56 37.31 176.54 28.52 164.52 37.17 169.2 23.12 157.18 14.45 172.03 14.53 176.6 .36 181.16 14.52 196.02 14.49" style="fill:none; stroke:#ffc905; stroke-linejoin:round; stroke-width:.72px;"/><polygon points="138.59 37.26 126.63 28.54 114.66 37.25 119.22 23.19 107.25 14.47 122.11 14.46 126.67 .39 131.19 14.47 146.05 14.55 133.99 23.19 138.59 37.26" style="fill:#ffc905;"/><polygon points="138.59 37.26 126.63 28.54 114.66 37.25 119.22 23.19 107.25 14.47 122.11 14.46 126.67 .39 131.19 14.47 146.05 14.55 133.99 23.19 138.59 37.26" style="fill:none; stroke:#ffc905; stroke-linejoin:round; stroke-width:.72px;"/><polygon points="73.94 28.54 61.96 37.24 66.58 23.17 54.54 14.51 69.4 14.46 73.94 .39 78.48 14.46 93.34 14.5 81.36 23.2 85.98 37.28 73.94 28.54" style="fill:#ffc905;"/><polygon points="73.94 28.54 61.96 37.24 66.58 23.17 54.54 14.51 69.4 14.46 73.94 .39 78.48 14.46 93.34 14.5 81.36 23.2 85.98 37.28 73.94 28.54" style="fill:none; stroke:#ffc905; stroke-linejoin:round; stroke-width:.72px;"/><polygon points="12.04 37.14 16.71 23.12 4.71 14.3 19.57 14.4 24.24 .37 28.66 14.51 43.48 14.53 31.45 23.18 35.95 37.28 24.07 28.5 12.04 37.14" style="fill:#ffc905;"/><polygon points="12.04 37.14 16.71 23.12 4.71 14.3 19.57 14.4 24.24 .37 28.66 14.51 43.48 14.53 31.45 23.18 35.95 37.28 24.07 28.5 12.04 37.14" style="fill:none; stroke:#ffc905; stroke-linejoin:round; stroke-width:.72px;"/></svg>