<svg width="82" height="82" viewBox="0 0 82 82" fill="none" xmlns="http://www.w3.org/2000/svg">
<path d="M68.5273 10.1519H12.6902C7.08331 10.1519 2.53802 14.6971 2.53802 20.304V60.9128C2.53802 66.5197 7.08331 71.065 12.6902 71.065H68.5273C74.1342 71.065 78.6794 66.5197 78.6794 60.9128V20.304C78.6794 14.6971 74.1342 10.1519 68.5273 10.1519Z" fill="white"/>
<path opacity="0.15" d="M68.5273 10.1519H12.6902C7.08341 10.1519 2.53802 14.697 2.53802 20.304V60.9128C2.53802 66.5199 7.08341 71.065 12.6902 71.065H68.5273C74.1343 71.065 78.6794 66.5199 78.6794 60.9128V20.304C78.6794 14.697 74.1343 10.1519 68.5273 10.1519ZM76.1414 60.9128C76.1414 65.1115 72.7259 68.5269 68.5273 68.5269H12.6902C8.49152 68.5269 5.07607 65.1115 5.07607 60.9128V20.304C5.07607 16.1054 8.49152 12.6899 12.6902 12.6899H68.5273C72.7259 12.6899 76.1414 16.1054 76.1414 20.304V60.9128Z" fill="black"/>
<path opacity="0.2" d="M68.5272 12.6899H12.6901C8.48484 12.6899 5.07599 16.0988 5.07599 20.3041V22.8421C5.07599 18.6368 8.48484 15.228 12.6901 15.228H68.5272C72.7325 15.228 76.1413 18.6368 76.1413 22.8421V20.3041C76.1413 16.0988 72.7325 12.6899 68.5272 12.6899Z" fill="white"/>
<path d="M29.7815 45.8844L29.7389 45.6803L29.6353 45.8613C29.6318 45.8674 29.2759 46.4821 28.8576 46.6833C28.8264 46.6996 28.0927 47.0902 28.0577 47.8496C28.0577 47.8506 28.0566 47.8917 28.0521 47.9529C28.0221 47.6298 28.0617 47.127 28.395 46.7128C29.0064 45.9531 29.2378 45.2948 28.7104 43.9928L28.5797 43.6702L28.5579 44.0174C28.5574 44.0245 28.5079 44.7351 28.0478 45.1354L28.0183 45.161C27.5221 45.592 27.4678 45.6727 27.4757 46.6729C27.4769 46.7432 27.4625 46.9161 27.3904 47.0171C27.2846 46.8536 27.0442 46.4641 26.9693 46.1912L26.9671 46.1833C26.8701 45.8295 26.8371 45.7095 27.231 45.3227C27.2848 45.2861 27.6097 45.0521 27.8249 44.5966C28.0363 44.1494 28.1757 43.3958 27.6407 42.3468L27.5054 42.0816L27.4912 42.3791C27.4909 42.3857 27.4549 43.0306 27.0056 43.4044C26.5384 43.7933 26.5305 44.0816 26.515 44.6557C26.5135 44.7113 26.512 44.7702 26.51 44.8321C26.4988 45.1656 26.4823 45.3207 26.464 45.4016C26.2732 44.9938 25.7927 43.8034 26.3242 43.1291C26.3932 43.0415 26.4592 42.961 26.5211 42.8852C27.0869 42.1938 27.3452 41.8783 26.6452 40.3814L26.4795 40.0268L26.4945 40.4179C26.4947 40.4258 26.5181 41.2078 25.9582 41.5874C25.3199 42.0204 25.4539 42.9928 25.4595 43.0308C25.4597 43.0334 25.4795 43.2278 25.4402 43.4258C25.2524 42.9763 24.8572 41.8093 25.4724 41.1321C26.1643 40.371 26.2498 39.8197 25.8546 38.6748L25.7351 38.3283L25.7011 38.6933C25.7006 38.6979 25.6536 39.1603 25.3059 39.407C24.8952 39.6984 24.5866 40.005 24.6574 41.0575C24.6635 41.2012 24.6686 41.5286 24.6442 41.7562C24.5318 41.5288 24.3567 41.1494 24.292 40.8722C24.195 40.456 24.1562 40.2197 24.4069 39.8078C24.4293 39.771 24.4574 39.7283 24.4894 39.6799C24.8346 39.156 25.643 37.9294 24.4666 36.2444L24.3379 36.0601L24.3227 36.2842C24.3222 36.2898 24.2805 36.8545 23.9757 37.3555C23.6755 37.8489 23.7663 38.4179 23.8394 38.875C23.8481 38.9288 23.8564 38.9811 23.8638 39.0319C23.9052 39.3129 23.8326 39.592 23.7732 39.7603C23.6308 39.4385 23.3427 38.6634 23.429 37.8149C23.5506 36.6207 23.0643 35.6629 21.9836 34.9685L21.9052 34.918L21.8681 35.0038C21.8356 35.0789 21.0867 36.8555 22.1656 37.7893C22.174 37.7976 22.977 38.6007 23.2351 39.5832C23.025 39.507 22.5597 39.2491 22.1204 38.3938C21.8549 37.8768 21.292 37.273 20.1204 37.3327C20.1004 37.3337 20.0859 37.3347 20.0798 37.3344L19.9826 37.3251L19.9935 37.422C19.9958 37.441 20.2329 39.3352 22.2242 39.8677L22.2313 39.8692C22.2432 39.8712 23.4366 40.0837 23.6552 40.9423L23.6567 40.9479C23.6585 40.9532 23.8049 41.3935 23.9016 41.7301C23.759 41.6367 23.5389 41.4578 23.33 41.1491C23.3036 41.11 23.2795 41.0737 23.2569 41.0395C22.9412 40.5636 22.8569 40.4984 21.7163 40.3849C21.7118 40.3844 21.2478 40.3263 21.0075 40.006L20.7628 39.6801L20.8676 40.0738C20.8732 40.0943 21.0044 40.5803 21.3049 41.0725C21.71 41.7359 22.2278 42.0826 22.8062 42.076L22.8135 42.0755C22.8582 42.0704 23.8612 41.9847 24.5224 43.2542C24.4983 43.2379 24.4727 43.2207 24.4463 43.2024C24.2389 43.06 23.758 42.8367 22.8658 42.943C22.0948 43.0346 21.8169 42.9344 21.6138 42.861C21.5846 42.8506 21.557 42.8405 21.5295 42.8316L21.34 42.7697L21.4354 42.9448C21.4435 42.9598 22.1562 44.2415 23.2135 44.2412C23.3729 44.2412 23.5399 44.212 23.7138 44.1453C23.9958 44.0367 24.2661 44.0392 24.5173 44.1529C24.9384 44.3438 25.2275 44.8059 25.3848 45.1255C25.3435 45.0874 25.2985 45.045 25.2513 44.9988C24.9846 44.7372 24.48 44.4846 23.5866 44.7684C23.5805 44.7707 22.9663 45.0024 22.3534 44.8158L22.1737 44.761L22.26 44.9278C22.2666 44.9405 22.9262 46.1811 24.4204 45.9704C25.4282 45.8285 25.8848 46.4209 26.0612 46.7625C26.0242 46.7369 25.9871 46.7095 25.9541 46.6831C25.8252 46.5793 25.3178 46.2658 24.2079 46.595C23.2234 46.8869 22.8552 46.5668 22.8521 46.5643L22.4864 46.2184L22.7283 46.6597C22.7529 46.7047 23.3453 47.7635 24.4942 47.8894L24.4991 47.8899H24.5039C24.5298 47.8894 25.1437 47.8803 25.4181 47.7783C25.6026 47.7097 26.2044 47.5427 26.6645 48.0536C26.627 48.0442 26.5838 48.0303 26.5361 48.009L26.5308 48.0069C26.4985 47.9953 25.7336 47.7265 25.1371 48.2257L25.1315 48.231C25.1267 48.2359 24.643 48.7178 23.9762 48.6262L23.7376 48.5935L23.9102 48.7615C23.9201 48.7711 24.1602 49.0016 24.5892 49.1361C24.7541 49.1879 24.9615 49.2287 25.2046 49.2287C25.5407 49.2287 25.9452 49.1506 26.4003 48.9148L26.4102 48.9087C26.4148 48.9054 26.866 48.5859 27.1803 48.8255C27.5769 49.1277 28.3939 48.6178 28.4858 48.5587L28.5269 48.5305L28.5216 48.4818C28.5214 48.4788 28.4947 48.1668 29.1178 47.9262C29.4564 47.7955 29.6886 47.4907 29.7894 47.0448C29.8668 46.7021 29.864 46.279 29.7815 45.8844Z" fill="#51914C"/>
<path d="M58.2906 42.696L59.2319 43.2011L55.1117 48.0265L58.7878 40.9577L59.5586 41.7377L60.7547 36.3228L57.0297 40.259L58.055 40.5283L56.952 42.6308L56.7868 37.3928L54.1548 42.2123L55.2117 42.193L53.7566 48.3754L54.5175 48.9221L54.5875 48.6198L54.753 48.7165L54.837 48.5551L55.3431 49.1216L59.853 43.7927L60.4377 44.7356L62.759 39.7445L58.2906 42.696ZM55.2025 45.9653L56.0266 42.4077L56.8256 42.8714L55.2025 45.9653Z" fill="#387FBF"/>
<path d="M37.1943 30.1725C36.6392 30.8667 36.691 30.6205 36.2758 30.5317C36.4923 30.8083 36.9823 31.1365 37.2174 31.0652C36.8278 31.6459 36.7417 31.6256 36.4933 31.8228C37.1976 31.5966 48.3538 33.7101 44.4922 30.4164C44.7749 30.3664 45.1922 30.27 45.3373 30.0175C44.4597 29.6375 43.7734 28.7657 43.5617 28.4307C44.0041 28.4596 44.1881 28.3926 44.3683 28.3601C43.1351 26.7294 43.6315 26.285 43.1602 24.8733C42.3666 22.9102 40.0897 22.5513 38.9839 23.9464C38.5087 23.936 38.3641 24.1934 38.29 24.4716C36.9524 24.1393 36.2379 26.0594 36.6024 26.3416C37.1742 25.6647 39.1529 25.4974 39.0927 26.7858C38.4146 27.7599 38.1361 29.3685 37.3466 29.1078C37.5164 29.205 37.808 29.3606 37.9565 29.3776C37.592 29.6667 37.2138 30.1474 37.1943 30.1725Z" fill="#ECC658"/>
<path d="M69.7237 23.4207C66.7826 22.612 63.7491 25.4217 58.9286 25.8897L58.9263 25.8927C41.0247 29.8178 55.9289 32.9419 48.0706 32.7013C48.0252 32.9239 47.0774 37.5662 48.3305 38.3903L48.1041 39.9799C48.2564 40.2159 49.4914 40.6512 49.9622 40.0565C50.1944 40.5225 51.8358 40.2682 51.817 39.6817C52.1693 40.0296 53.3886 39.6357 53.3606 39.0748C54.0058 39.3865 55.3264 38.188 54.7327 37.5111C55.6109 37.6741 56.035 36.401 55.5515 35.9434C56.1774 35.8766 58.6984 35.8396 58.4344 34.4916C59.0035 34.3546 60.9755 33.9825 60.5763 32.8155C61.3291 32.5845 63.4595 32.4132 63.0309 31.0262C63.5979 30.7729 66.1778 30.4683 65.9019 28.8135C66.3793 28.6747 68.6907 27.9003 68.1742 26.695C68.6684 26.5744 69.4447 25.7214 69.1062 24.9937C69.4942 24.8415 70.1521 24.0034 69.7237 23.4207Z" fill="#ECC658"/>
<path d="M26.5268 36.8874C26.7027 37.4435 27.1907 37.5204 27.4986 37.5095C26.9014 38.1862 28.2252 39.3877 28.8696 39.0747C28.8415 39.6364 30.0615 40.029 30.4133 39.6816C30.3943 40.2686 32.0366 40.5219 32.2678 40.0565C32.7374 40.6516 33.9752 40.2156 34.1259 39.9798L33.8996 38.3905C35.1526 37.5659 34.2051 32.9248 34.1594 32.7012C26.3187 32.9423 41.1848 29.806 23.3037 25.8926L23.3014 25.8896C19.9517 25.7198 9.70739 20.5409 13.1239 24.9937C12.7848 25.7205 13.5624 26.5751 14.0558 26.6949C13.5396 27.9005 15.8507 28.6746 16.3284 28.8134C16.05 30.4667 18.6352 30.7748 19.1994 31.0261C18.7723 32.4152 20.9025 32.5834 21.654 32.8154C21.254 33.9819 23.2273 34.3547 23.7958 34.4915C23.5326 35.8397 26.0522 35.8765 26.6788 35.9433C26.5453 36.1116 26.3824 36.4309 26.5268 36.8874Z" fill="#ECC658"/>
<path d="M34.5235 46.7246C34.2953 46.1317 36.777 45.3921 36.9973 44.368C36.9108 43.6513 34.4608 40.7341 34.122 40.3188C33.9382 41.5318 32.7885 42.2813 31.7243 43.5538C30.8568 44.4305 31.4486 46.6523 30.3212 47.1076C30.4222 47.115 30.5093 47.1251 30.6288 47.1244C29.858 48.5568 28.4908 47.5957 27.0949 48.2967C26.5228 48.5046 25.8215 50.4345 26.6433 50.6873C26.6652 50.9063 26.9606 51.2162 27.2647 51.1279C27.8525 51.8863 29.8131 51.3299 29.9258 50.2078C30.0832 49.4061 30.2217 49.3259 30.3557 49.2487C31.1705 48.8429 31.9466 48.3909 32.9212 48.033C32.9199 48.1764 32.9778 48.3789 33.0303 48.5162C33.1798 47.5792 34.0562 48.301 34.5235 46.7246Z" fill="#ECC658"/>
<path d="M45.8564 46.0254C45.2392 43.131 42.6093 45.2127 41.6994 47.0776C41.3753 46.7185 40.857 46.7185 40.5329 47.0776C39.6217 45.2099 36.9926 43.1335 36.3758 46.0254C34.1878 48.2053 32.6741 49.6631 34.0753 50.604C34.0408 51.1918 34.5708 51.5456 35.0121 51.4466C34.9451 52.0139 35.3307 52.4504 35.788 52.4098C35.7601 53.0573 36.2063 53.5403 36.723 53.4631C36.7791 54.1849 37.3753 54.5344 37.9025 54.3037C37.7781 55.742 39.4266 55.7798 39.8019 54.7248C39.7763 57.2253 42.4565 57.2245 42.4306 54.725C42.8067 55.7811 44.4542 55.7405 44.3301 54.3037C44.8577 54.5342 45.4526 54.1857 45.5095 53.4631C46.0265 53.5398 46.4719 53.0575 46.4443 52.4098C46.9029 52.4497 47.2864 52.0141 47.2201 51.4466C47.6623 51.5454 48.1912 51.1921 48.1572 50.604C49.5579 49.6634 48.0448 48.2058 45.8564 46.0254Z" fill="#ECC658"/>
<path d="M55.2119 48.3653C53.8774 47.5204 52.3649 48.6036 51.6033 47.1242C51.7218 47.1249 51.8106 47.1145 51.9109 47.1074C50.784 46.6536 51.3751 44.4295 50.5076 43.5536C49.4464 42.2836 48.2893 41.5285 48.1104 40.3174C47.5056 41.3435 43.4244 44.8719 46.485 45.5183C48.1188 46.41 47.7523 47.8013 48.7299 47.9282C49.2228 48.1483 49.0901 48.2376 49.1995 48.5244C49.252 48.3848 49.3124 48.178 49.3109 48.0325C50.2873 48.3919 51.0609 48.8417 51.8764 49.2483C52.0104 49.3254 52.1487 49.4056 52.3063 50.2071C52.4198 51.3305 54.3784 51.8848 54.9675 51.1277C55.2713 51.2163 55.5674 50.9059 55.5888 50.6871C56.3745 50.4881 55.7482 48.5493 55.2119 48.3653Z" fill="#ECC658"/>
<path d="M41.1161 47.9485C41.1161 47.9485 48.9115 44.4942 48.931 36.5029H33.3015C33.321 44.4942 41.1161 47.9485 41.1161 47.9485Z" fill="white"/>
<path d="M34.5034 36.5024V41.6085C34.5034 41.6085 35.1006 42.7927 35.7057 43.5354V36.5024H34.5034ZM36.908 36.5024V44.9194C36.908 44.9194 37.6597 45.6567 38.1102 46.012V36.5024H36.908ZM39.3125 36.5024V46.9064C39.3125 46.9064 40.1704 47.4605 40.5148 47.6422V36.5024H39.3125Z" fill="#971E35"/>
<path d="M47.7284 36.5024V41.6085C47.7284 41.6085 47.1312 42.7927 46.5261 43.5354V36.5024H47.7284ZM45.3239 36.5024V44.9194C45.3239 44.9194 44.5721 45.6567 44.1216 46.012V36.5024H45.3239ZM42.9193 36.5024V46.9064C42.9193 46.9064 42.0615 47.4605 41.717 47.6422V36.5024H42.9193Z" fill="#971E35"/>
<path d="M53.9233 52.6119L54.0883 52.2987L53.6578 51.5616L53.7959 50.9969L54.1748 50.5154L54.1766 50.4911C54.1852 50.3632 54.1464 50.2522 54.088 50.1588L54.0817 50.1484C54.0819 50.1489 54.0817 50.1482 54.0817 50.1484L54.0636 50.1195C53.8327 49.75 53.3885 49.7446 53.3657 49.7446H53.3172L52.7406 50.8624L51.6162 50.8588L51.1492 51.7461L50.8614 51.6753L47.4843 55.6253L49.2644 55.7595L49.5787 57.6184L50.6193 56.4014L50.3687 57.4595L52.0043 56.6961L53.1103 58.1819L54.3327 53.0195L53.9233 52.6119Z" fill="#387FBF"/>
<path d="M29.1372 49.9609L29.0938 49.9635C28.1862 50.0165 28.2014 50.7513 28.2016 50.7586L28.2024 50.7777L28.2115 50.7942C28.2159 50.8018 28.6417 51.5718 29.0851 52.3312C29.9699 53.8467 30.0874 53.9018 30.16 53.9018H30.1684C30.2039 53.9007 30.2344 53.8804 30.2501 53.8477C30.2882 53.7675 30.358 53.7624 30.358 53.7624C31.4481 53.7863 31.6204 53.581 31.6473 53.5173L31.6646 53.4764L29.1372 49.9609Z" fill="#51914C"/>
<path d="M48.9308 30.6972C48.9308 30.6972 45.1057 32.6982 41.1159 30.5332C37.1264 32.6982 33.301 30.6972 33.301 30.6972V36.5029H48.9306L48.9308 30.6972Z" fill="#1A2663"/>
<path d="M16.8691 35.4485C17.1808 35.5904 17.4501 35.7127 17.4534 36.0315C17.4547 36.1622 17.4153 36.3508 17.3336 36.6081L15.4625 42.4715L13.5897 36.6081C13.5113 36.362 13.4709 36.1675 13.4699 36.03C13.4676 35.7409 13.6862 35.6234 14.043 35.4556L14.412 35.2812H10.4304L10.8179 35.4427C11.0971 35.5589 11.2989 35.6429 11.3971 35.831C11.4499 35.9323 11.5633 36.2092 11.7093 36.6564L14.2527 44.4294C14.3824 44.8279 14.41 44.984 14.41 45.0446C14.411 45.3751 14.2169 45.5126 13.809 45.6791L13.4354 45.8317H17.5823L17.0105 45.6761C16.3321 45.4916 16.4128 45.087 16.4163 45.0705L16.4176 45.0636C16.4359 44.9395 16.4783 44.7289 16.576 44.4296L19.1194 36.6564C19.2653 36.2084 19.3788 35.9318 19.4315 35.831C19.5356 35.632 19.7468 35.5475 20.0143 35.4404L20.4117 35.2812H16.5042L16.8691 35.4485Z" fill="#387FBF"/>
<path d="M69.7859 45.2735C69.7422 45.203 69.7199 45.0954 69.7199 44.9537V36.1528C69.7199 36.0157 69.7415 35.9102 69.7839 35.8393C69.8171 35.7835 70.0179 35.5366 70.3212 35.4361L70.7874 35.2817H66.9775L67.3537 35.4343C67.6483 35.5538 67.8547 35.7764 67.8966 35.8439C67.9387 35.9122 67.96 36.016 67.96 36.1525V44.9535C67.96 45.0951 67.9387 45.2017 67.8966 45.2697C67.8608 45.3278 67.6567 45.5415 67.3506 45.6809L67.0181 45.8321H70.6443L70.3306 45.6816C70.0372 45.5408 69.8308 45.3464 69.7859 45.2735Z" fill="#387FBF"/>
</svg>
