<svg xmlns="http://www.w3.org/2000/svg" viewBox="0 0 146.49 200"><title>USA men&amp;apos;s national soccer team logo - Brandlogos.net</title><path d="M438.76,412V538.17a41.8,41.8,0,0,0,17.44,33.92L512,612l55.8-39.92a41.77,41.77,0,0,0,17.43-33.91V412Z" transform="translate(-438.76 -412)" style="fill:#1f2742"/><path d="M442.37,415.61V538.17a38.17,38.17,0,0,0,15.93,31L512,607.57l53.7-38.42a38.16,38.16,0,0,0,15.92-31V415.61Z" transform="translate(-438.76 -412)" style="fill:#fff"/><path d="M460.88,559.24l3.57,2.62a17.86,17.86,0,0,1-3.35-8.47,17.44,17.44,0,0,1-.13-2.17V484.69l-9.23-4.26,0,59.75c0,7.63,3.14,14.64,9.16,19.06" transform="translate(-438.76 -412)" style="fill:#bb2533"/><polygon points="31.51 153.68 40.76 160.36 40.76 81.23 31.51 76.97 31.51 153.68" style="fill:#bb2533"/><polygon points="59.32 89.78 50.07 85.52 50.07 167.07 59.32 173.75 59.32 89.78" style="fill:#bb2533"/><polygon points="68.62 94.07 68.62 180.47 73.33 183.87 77.87 180.59 77.87 94.07 73.23 96.19 68.62 94.07" style="fill:#bb2533"/><polygon points="87.17 173.87 96.42 167.19 96.42 85.56 87.17 89.8 87.17 173.87" style="fill:#bb2533"/><polygon points="105.73 160.47 114.97 153.79 114.97 77.06 105.73 81.3 105.73 160.47" style="fill:#bb2533"/><path d="M563,484.68V551.2a19.6,19.6,0,0,1-.13,2.17,17.9,17.9,0,0,1-3.35,8.48l3.57-2.62c6-4.43,9.16-11.43,9.16-19.07l0-59.75Z" transform="translate(-438.76 -412)" style="fill:#bb2533"/><path d="M550.39,478.58l-11,5V430a4.76,4.76,0,0,1,4.76-4.76h28.1v38.66a7.1,7.1,0,0,1-4.15,6.46l-6.8,3.12v-12.1l-9,4.13a3.38,3.38,0,0,0-2,3.07Zm0-24.15,10.94-5V435.7H550.39Z" transform="translate(-438.76 -412)" style="fill:#1f2742"/><path d="M499.69,490.43a7.05,7.05,0,0,1-4.11-6.42V468l11,5.08v9.28l5.46,2.52,5.46-2.52V466.68l-17.62-8.11a7.31,7.31,0,0,1-4.26-6.64v-22a4.63,4.63,0,0,1,4.63-4.63h23.58a4.63,4.63,0,0,1,4.63,4.63v18.83l-11-5.08v-8H506.53v13.65l17.62,8.09a7.29,7.29,0,0,1,4.26,6.64V484a7.09,7.09,0,0,1-4.12,6.43L512,496.09l-12.3-5.66" transform="translate(-438.76 -412)" style="fill:#1f2742"/><path d="M456,470.36l28.58,13.15V425.29h-11v41.17l-9.09-4.18a3.14,3.14,0,0,1-1.83-2.86V425.29h-11v38.42a7.33,7.33,0,0,0,4.25,6.65" transform="translate(-438.76 -412)" style="fill:#1f2742"/></svg>