<svg width="82" height="82" viewBox="0 0 82 82" fill="none" xmlns="http://www.w3.org/2000/svg">
<path d="M2.53802 27.9185H78.6794V53.2989H2.53802V27.9185Z" fill="white"/>
<path d="M12.6902 10.1519H68.5273C74.1313 10.1519 78.6794 14.7 78.6794 20.304V30.4562H2.53802V20.304C2.53802 14.7 7.08621 10.1519 12.6902 10.1519Z" fill="#4498B3"/>
<path d="M68.5274 71.0649L12.6903 71.0649C7.08633 71.0649 2.53815 66.5168 2.53815 60.9128V50.7606L78.6796 50.7606V60.9128C78.6796 66.5168 74.1314 71.0649 68.5274 71.0649Z" fill="#55B44B"/>
<path d="M2.53802 30.4565H78.6794V32.9946H2.53802V30.4565Z" fill="#BE2A2C"/>
<path d="M2.53802 48.2227H78.6794V50.7607H2.53802V48.2227Z" fill="#BE2A2C"/>
<path opacity="0.15" d="M68.5273 10.1519H12.6902C7.08367 10.1519 2.53802 14.6975 2.53802 20.304V60.9128C2.53802 66.5193 7.08367 71.065 12.6902 71.065H68.5273C74.1338 71.065 78.6794 66.5193 78.6794 60.9128V20.304C78.6794 14.6975 74.1338 10.1519 68.5273 10.1519ZM76.1414 60.9128C76.1414 65.1107 72.7252 68.5269 68.5273 68.5269H12.6902C8.49228 68.5269 5.07607 65.1107 5.07607 60.9128V20.304C5.07607 16.1061 8.49228 12.6899 12.6902 12.6899H68.5273C72.7252 12.6899 76.1414 16.1061 76.1414 20.304V60.9128Z" fill="black"/>
<path opacity="0.2" d="M68.5273 12.6899H12.6903C8.48471 12.6899 5.07611 16.0985 5.07611 20.3041V22.8421C5.07611 18.6366 8.48471 15.228 12.6903 15.228H68.5273C72.7328 15.228 76.1414 18.6366 76.1414 22.8421V20.3041C76.1414 16.0985 72.7328 12.6899 68.5273 12.6899Z" fill="white"/>
<path d="M18.8249 16.5227C18.5025 16.4694 18.1726 16.439 17.835 16.439C14.5584 16.439 11.9011 19.0963 11.9011 22.3729C11.9011 25.6495 14.5584 28.3069 17.835 28.3069C18.1726 28.3069 18.5025 28.2764 18.8249 28.2231C16.0203 27.751 13.8807 25.3145 13.8807 22.3729C13.8807 19.4313 16.0203 16.9948 18.8249 16.5227Z" fill="white"/>
<path d="M24.7232 25.8399L24.274 24.4541L23.8248 25.8399H22.3679L23.5456 26.6952L23.0963 28.0784L24.274 27.2231L25.4516 28.0784L25.0024 26.6952L26.1801 25.8399H24.7232Z" fill="white"/>
<path d="M32.7383 25.8399L32.2891 24.4541L31.8373 25.8399H30.383L31.5607 26.6952L31.1114 28.0784L32.2891 27.2231L33.4667 28.0784L33.0175 26.6952L34.1951 25.8399H32.7383Z" fill="white"/>
<path d="M32.2891 16.439L31.8373 17.8247H30.383L31.5607 18.6801L31.1114 20.0633L32.2891 19.208L33.4667 20.0633L33.0175 18.6801L34.1951 17.8247H32.7383L32.2891 16.439Z" fill="white"/>
</svg>
