<svg width="82" height="82" viewBox="0 0 82 82" fill="none" xmlns="http://www.w3.org/2000/svg">
<path d="M2.53815 60.9132C2.53815 66.5203 7.08328 71.0654 12.6903 71.0654H68.5274C74.1344 71.0654 78.6796 66.5203 78.6796 60.9132V38.0708H2.53815V60.9132Z" fill="#009641"/>
<path d="M68.5274 10.1519H12.6903C7.08328 10.1519 2.53815 14.697 2.53815 20.304V40.6084H78.6796V20.304C78.6796 14.697 74.1344 10.1519 68.5274 10.1519Z" fill="#D30931"/>
<path d="M78.6796 35.5327H34.2637L5.87746 12.8237C3.83966 14.6806 2.53815 17.33 2.53815 20.3044V60.9131C2.53815 63.8875 3.83966 66.5369 5.87746 68.3938L34.2637 45.6848H78.6796V35.5327Z" fill="black"/>
<path d="M3.60148 15.8765C3.20326 16.6785 2.91265 17.5348 2.74057 18.4414L30.4515 40.6085L2.74057 62.7745C2.9124 63.6808 3.203 64.5374 3.60122 65.3395L32.9304 41.8775H78.6797V39.3394H32.9301L3.60148 15.8765Z" fill="#FDCF09"/>
<path opacity="0.15" d="M68.5274 10.1519H12.6903C7.08354 10.1519 2.53815 14.697 2.53815 20.304V60.9128C2.53815 66.5199 7.08354 71.065 12.6903 71.065H68.5274C74.1344 71.065 78.6796 66.5199 78.6796 60.9128V20.304C78.6796 14.697 74.1344 10.1519 68.5274 10.1519ZM76.1415 60.9128C76.1415 65.1115 72.7261 68.5269 68.5274 68.5269H12.6903C8.49164 68.5269 5.07619 65.1115 5.07619 60.9128V20.304C5.07619 16.1054 8.49164 12.6899 12.6903 12.6899H68.5274C72.7261 12.6899 76.1415 16.1054 76.1415 20.304V60.9128Z" fill="black"/>
<path opacity="0.2" d="M68.5274 12.6899H12.6903C8.48505 12.6899 5.0762 16.0988 5.0762 20.3041V22.8421C5.0762 18.6368 8.48505 15.228 12.6903 15.228H68.5274C72.7327 15.228 76.1415 18.6368 76.1415 22.8421V20.3041C76.1415 16.0988 72.7327 12.6899 68.5274 12.6899Z" fill="white"/>
<path d="M12.1927 45.0768V47.738C14.5079 47.738 19.0515 45.9639 19.0515 40.2518C19.0515 34.5396 14.5366 33.4795 12.7554 33.4795C10.7255 33.4795 6.82703 34.9972 6.82703 39.1916C6.82703 43.8652 11.2194 44.2979 12.0846 44.2979C12.9498 44.2979 16.1955 43.519 15.8277 40.0139C15.8277 41.0094 14.7026 43.1081 12.3442 43.1081C9.98588 43.1081 8.51457 41.3556 8.51457 39.6246C8.51457 37.8937 9.94248 35.5785 12.4308 35.5785C14.9191 35.5785 16.7363 37.7853 16.7363 40.0139C16.7363 42.2426 14.9838 45.0768 12.1927 45.0768Z" fill="#FDCF09"/>
</svg>
