<svg width="82" height="82" viewBox="0 0 82 82" fill="none" xmlns="http://www.w3.org/2000/svg">
<path d="M68.5272 71.0649H38.0706L38.0706 10.1518L68.5272 10.1518C74.1304 10.1518 78.6794 14.7007 78.6794 20.304V60.9128C78.6794 66.516 74.1304 71.0649 68.5272 71.0649Z" fill="white"/>
<path d="M12.6902 10.1519H40.6087V71.065H12.6902C7.08697 71.065 2.53802 66.516 2.53802 60.9128V20.304C2.53802 14.7008 7.08697 10.1519 12.6902 10.1519Z" fill="#FFF301"/>
<path opacity="0.15" d="M68.5273 10.1519H12.6902C7.08341 10.1519 2.53802 14.697 2.53802 20.304V60.9128C2.53802 66.5199 7.08341 71.065 12.6902 71.065H68.5273C74.1343 71.065 78.6794 66.5199 78.6794 60.9128V20.304C78.6794 14.697 74.1343 10.1519 68.5273 10.1519ZM76.1414 60.9128C76.1414 65.1115 72.7259 68.5269 68.5273 68.5269H12.6902C8.49152 68.5269 5.07607 65.1115 5.07607 60.9128V20.304C5.07607 16.1054 8.49152 12.6899 12.6902 12.6899H68.5273C72.7259 12.6899 76.1414 16.1054 76.1414 20.304V60.9128Z" fill="black"/>
<path opacity="0.2" d="M68.5273 12.6899H12.6902C8.48493 12.6899 5.07608 16.0988 5.07608 20.3041V22.8421C5.07608 18.6368 8.48493 15.228 12.6902 15.228H68.5273C72.7326 15.228 76.1414 18.6368 76.1414 22.8421V20.3041C76.1414 16.0988 72.7326 12.6899 68.5273 12.6899Z" fill="white"/>
<path d="M72.1324 34.9368C72.9154 34.2185 71.3256 33.4619 71.2621 34.521C70.9934 34.4025 70.6307 34.5479 70.4324 34.8005C70.1614 34.7309 69.9309 34.8715 69.9002 35.1459C68.0787 36.4078 66.1272 38.1575 64.3619 39.5192C64.0784 39.7347 63.2371 40.4271 62.9422 40.657C62.613 40.5634 62.3516 40.7674 62.3701 41.1154L60.1968 42.857C59.8851 42.6225 59.5952 42.5369 59.4374 42.6633C59.2996 42.5974 58.8524 42.8138 59.098 43.0466C58.7021 45.8529 53.808 45.1488 53.3857 47.9031C53.1912 47.5877 52.5364 47.9344 52.5923 48.2953C51.8017 47.7064 51.572 48.9176 52.2077 49.2856C51.0717 48.2623 49.2689 48.0739 47.9436 48.8435C48.1964 48.3823 47.537 48.2788 47.3291 48.6283C47.6205 46.5915 44.8847 48.7902 46.9337 48.9435C46.5583 49.0656 46.4768 49.7315 47.0037 49.5922C45.9352 50.7721 45.7385 52.5196 46.5185 53.9077C46.0664 53.649 45.9464 54.3056 46.3007 54.5196C44.2771 54.2335 46.4509 56.9584 46.6218 54.9224C46.7499 55.2673 47.3286 55.3845 47.2872 54.9064C48.7621 56.4269 50.5055 56.882 52.1968 55.8026C52.2253 57.4503 54.4169 55.7188 52.8187 55.3104C54.2059 53.9912 54.2082 52.1676 53.1999 50.5295C53.4567 51.1947 54.5011 50.8039 54.0884 50.1716C54.478 50.3645 54.8958 49.5607 54.6488 49.4871C57.2907 49.7884 58.2013 44.4308 60.6407 44.9575C60.93 45.0841 61.1264 44.8712 61.1059 44.7547C61.2635 44.6283 61.2447 44.327 61.0856 43.9715L63.268 42.2402C63.5807 42.34 63.8673 42.1265 63.8414 41.7854L64.8226 41.007C65.4525 41.7065 65.9774 40.7687 66.3535 40.2738C66.3655 41.8337 65.4193 42.6106 66.8475 43.7613C66.868 43.8263 67.2287 43.4991 67.2576 43.4981C67.1271 44.1885 67.4028 44.8549 68.1931 44.8148C68.2129 44.7788 69.9129 43.4788 69.9142 43.4324C69.8705 43.0821 70.1304 42.4694 69.5441 42.4948C69.5005 42.4834 68.5698 41.126 68.5033 41.1809C68.2094 41.3573 68.0033 41.6793 68.1183 42.0276L67.8896 42.1963L67.4756 41.7136C68.1157 41.6085 67.9875 40.606 67.653 40.238L68.0177 39.9195L68.1518 40.0804C68.0652 40.3816 68.2033 40.7936 68.4545 40.9773C68.5949 40.8332 68.9403 40.4319 68.837 40.2022L69.0345 40.0334L69.3368 40.4611C68.3238 41.1309 69.7416 42.6273 70.4682 42.8626C70.5329 42.8529 72.1098 41.4194 72.1459 41.3722C72.2456 40.8834 72.0345 40.2096 71.6545 39.8801C71.6342 39.8111 71.2867 40.1679 71.2649 40.1672C71.4553 39.5479 70.8393 38.6847 70.4624 38.2542C70.4388 38.1908 70.1347 38.4916 70.1099 38.4928C70.0913 38.3093 70.139 37.6525 69.9398 37.5411C70.4335 37.3167 71.1101 36.9956 70.6659 36.3774C70.7065 36.3327 70.7403 36.2835 70.7664 36.2307C71.0302 36.2642 71.2279 36.0558 71.2159 35.7865C71.4997 35.6477 71.723 35.351 71.6733 35.0378C71.8324 35.0789 72.002 35.0406 72.1324 34.9368Z" fill="#FFCD19"/>
<path d="M71.305 54.9905C71.2725 54.5915 70.8022 54.3339 70.4489 54.5197C70.8004 54.3108 70.689 53.652 70.2312 53.9078C71.0109 52.5197 70.8142 50.7723 69.7456 49.5924C70.2728 49.7317 70.1906 49.0652 69.8157 48.9436C71.8652 48.7893 69.1281 46.5921 69.4203 48.6284C69.2121 48.2787 68.5535 48.3825 68.8055 48.8434C68.2088 48.5089 67.5279 48.3426 66.835 48.3708C65.9815 48.4058 65.1749 48.733 64.5416 49.2858C65.184 48.9149 64.9302 47.7056 64.1571 48.2952C64.2124 47.9348 63.5576 47.5878 63.3637 47.9035C63.0262 45.1652 57.7752 45.7947 57.7095 42.9965C57.7843 42.7076 57.4419 42.6338 57.3117 42.6635C57.1539 42.5376 56.8643 42.6229 56.5526 42.8574L54.3793 41.1155C54.3978 40.7678 54.1364 40.5635 53.8072 40.6572C53.5075 40.4234 52.675 39.7379 52.3874 39.5194C50.622 38.1572 48.6712 36.4082 46.8491 35.146C46.8184 34.8719 46.5882 34.7311 46.3172 34.8006C46.119 34.5481 45.7563 34.4026 45.4875 34.5212C45.1641 33.0039 43.5253 35.0658 45.0756 35.0377C45.0258 35.3509 45.2494 35.6476 45.5329 35.7864C45.521 36.0557 45.7185 36.2641 45.9824 36.2306C46.0088 36.2833 46.0426 36.3323 46.0829 36.3773C45.639 36.9955 46.3154 37.3166 46.8091 37.5409C46.6101 37.6496 46.657 38.3125 46.639 38.4925C46.6103 38.4925 46.3126 38.1897 46.2862 38.2536C45.9088 38.6853 45.2943 39.5465 45.4842 40.1666C45.0421 39.5864 44.8989 40.2143 44.6091 40.5282C44.5885 40.5424 44.6103 41.3521 44.6035 41.3716C44.637 41.4224 46.2179 42.8475 46.2811 42.862C47.0075 42.6262 48.4255 41.1308 47.4126 40.4605L47.7149 40.0328L47.9123 40.2016C47.809 40.4303 48.1545 40.8346 48.2953 40.977C48.5458 40.7924 48.6844 40.3808 48.5974 40.08L48.7316 39.9191L49.0963 40.2376C48.7618 40.6056 48.6339 41.6084 49.2737 41.7132L48.8598 42.196L48.6311 42.0272C48.7456 41.6785 48.5402 41.3566 48.2461 41.1805C48.1801 41.1282 47.2479 42.482 47.2052 42.4944C46.6217 42.4696 46.8768 43.0795 46.8354 43.432C46.8278 43.4706 48.5451 44.7883 48.5565 44.8145C49.3441 44.8543 49.6232 44.1906 49.492 43.5C49.5179 43.4975 49.8819 43.8249 49.9014 43.7625C51.3258 42.6125 50.3948 41.8376 50.4006 40.2798C50.7755 40.7726 51.2999 41.7044 51.9273 41.0064L52.9075 41.7838C52.8831 42.1305 53.1691 42.3371 53.4821 42.2396L55.6645 43.9708C55.5052 44.3267 55.4864 44.6282 55.6445 44.7543C55.6019 44.9581 56.0914 45.1442 56.1765 44.781C58.861 45.0995 59.3671 49.568 62.1013 49.4865C61.834 49.7325 62.3208 50.3116 62.6617 50.171C62.249 50.8043 63.2944 51.1934 63.5505 50.5286C62.5416 52.1664 62.5442 53.9908 63.9315 55.3098C62.3325 55.7192 64.5256 57.4486 64.5533 55.8019C66.2449 56.8816 67.9878 56.4263 69.4629 54.9058C69.42 55.387 70.0043 55.2613 70.1284 54.9217C69.9276 55.8141 71.4009 55.8999 71.305 54.9905Z" fill="#BFC0C1"/>
<path d="M62.0961 41.4109C62.41 40.7157 60.9372 38.9421 60.7661 37.4741C60.3489 37.5234 59.6555 37.731 59.074 37.7218C58.3002 38.0949 60.424 42.6015 60.9981 42.2314C61.0387 42.3571 62.0542 41.3957 62.0961 41.4109Z" fill="#FFCD19"/>
<path d="M54.6515 43.0743C54.6428 43.0669 54.6312 43.0664 54.6208 43.0707C54.0944 42.6009 53.3906 42.0019 52.6454 42.192C52.3456 39.6218 53.902 35.1896 53.0446 32.4947C51.8946 30.1962 49.833 30.1437 48.2701 32.452L48.2266 32.4094C48.035 32.2421 47.6949 32.7223 48.033 32.8439C47.8277 32.8508 46.4137 33.3391 47.0901 33.4962C46.9792 33.7886 47.1074 33.8058 47.3678 33.7736C47.0891 34.0543 47.2619 34.0502 47.5543 34.0449C47.5079 34.1538 47.3607 34.3822 47.6079 34.2502C47.6462 34.4439 47.5112 34.6241 47.8058 34.6254C47.7525 34.8393 47.8206 34.9017 48.034 34.8693C48.0231 35.0081 47.9883 35.1657 48.1901 35.1243C48.1439 35.2908 48.1221 35.4104 48.3424 35.3548C48.3586 36.2223 49.4858 34.6101 49.6492 34.4373C49.8472 34.8545 50.4287 34.4898 50.0393 34.1967C50.3109 33.9624 50.5972 33.7109 51.0068 33.3698C50.9297 36.819 48.2173 44.0765 53.7398 43.5276C54.0142 43.5288 55.1329 43.4009 54.6515 43.0743Z" fill="#FFCD19"/>
<path d="M57.9638 37.738C57.256 37.7073 56.674 37.6469 56.0314 37.4575C55.3778 39.3369 54.9139 40.6532 54.4263 41.192C54.526 41.3445 55.5651 42.1994 55.7512 42.2329C56.8052 42.0869 57.5829 39.1844 57.9638 37.738Z" fill="#FFCD19"/>
<path d="M69.8494 33.4311C69.822 33.0547 68.9758 32.9364 68.7192 32.8433C69.0578 32.7217 68.7167 32.2413 68.5258 32.4088L68.434 32.4994C67.7594 31.755 66.851 30.6103 65.9061 30.5923C61.2345 32.2012 64.6624 38.879 64.1063 42.1912C63.3028 42.0117 62.6987 42.5805 62.1287 43.0688C61.5619 43.3612 62.7295 43.5432 63.0112 43.5269C68.5134 44.0757 65.835 36.8795 65.7518 33.4321C66.0962 33.7428 66.3847 34.0197 66.6469 34.2613C66.3886 34.5821 66.9528 34.792 67.1033 34.4367C67.2685 34.6115 68.3926 36.2204 68.4099 35.3542C68.6307 35.4103 68.6081 35.2894 68.5621 35.1237C68.7639 35.1656 68.7289 35.007 68.718 34.8686C68.9322 34.9014 68.9992 34.8382 68.9461 34.6247C69.2413 34.6232 69.1055 34.4435 69.1441 34.2496C69.3916 34.3818 69.2439 34.1524 69.1977 34.0443C69.4913 34.0499 69.6621 34.0532 69.3845 33.773C69.6459 33.8055 69.7723 33.7874 69.6621 33.4956C69.688 33.4811 69.8862 33.5004 69.8494 33.4311Z" fill="#FFCD19"/>
<path d="M62.8982 31.5986C62.8233 31.5278 62.5863 31.7082 62.4853 31.7113C62.4317 31.3544 62.3233 31.2798 62.1505 31.7024C61.9731 30.3775 61.4672 30.6968 61.517 29.575C61.7683 29.5435 61.8599 29.1877 61.6548 29.0392C61.8002 28.4806 62.0644 27.5542 61.566 28.3565C61.1919 28.2397 60.9411 28.1316 60.7855 28.5205C60.2799 27.6763 59.5942 27.1306 58.8508 26.9667C58.8482 26.8108 58.8162 26.5603 58.6589 26.4162C58.663 26.4129 58.6102 25.7895 58.6112 25.7852C59.1723 25.903 59.2343 25.807 59.1805 25.254C59.2048 25.1921 58.6239 25.2956 58.6114 25.2822C58.7058 24.7616 58.6716 24.6451 58.1158 24.7111C58.0546 24.6862 58.1536 25.27 58.1404 25.2822C57.5792 25.1644 57.518 25.2608 57.5713 25.8134C57.5485 25.8758 58.1272 25.7715 58.1406 25.7852C58.1416 25.7885 58.0891 26.4136 58.0929 26.4159C57.9348 26.5603 57.9031 26.8113 57.9005 26.9664C57.1569 27.1304 56.4711 27.6758 55.9653 28.5199C55.811 27.9009 55.217 28.64 55.031 28.1456C54.75 27.6372 54.9853 28.7235 55.0972 29.0425C54.9013 29.192 54.9909 29.5359 55.2338 29.5725C55.2851 30.6971 54.7782 30.3742 54.6011 31.7039C54.4287 31.2816 54.3193 31.3529 54.2658 31.7115C53.3516 31.2862 54.2663 32.2752 54.0572 32.5955C53.9061 32.89 54.6 32.6641 54.6912 32.7935C54.6851 33.0889 53.765 34.2948 54.6714 34.1359C54.678 34.2387 54.5518 34.3481 54.4924 34.3986C54.0968 34.2422 54.4226 34.6945 54.6219 34.9831C54.2696 35.1818 54.6087 35.7272 54.944 35.4973C55.0335 36.093 54.4 37.1161 55.5384 36.7041C55.4802 36.7447 55.4348 36.7869 55.4021 36.83C55.1277 36.9366 55.1439 37.2295 55.4307 37.2135C56.0543 37.9815 60.6969 37.9815 61.3205 37.2135C61.6023 37.2303 61.6254 36.9435 61.3576 36.8336C61.3274 36.7902 61.2842 36.7478 61.2284 36.7069C62.3566 37.1102 61.7111 36.0803 61.8078 35.4973C62.1462 35.7432 62.4967 35.1785 62.1289 34.9841C62.3281 34.6955 62.6553 34.2422 62.2589 34.3988C62.1995 34.3483 62.0728 34.2387 62.0797 34.1356C62.9863 34.295 62.0683 33.093 62.0596 32.7938C62.1627 32.691 62.6188 32.8143 62.7134 32.7042C62.5096 32.3288 62.9385 32.0291 62.8982 31.5986Z" fill="#FFCD19"/>
</svg>
