<svg width="82" height="82" viewBox="0 0 82 82" fill="none" xmlns="http://www.w3.org/2000/svg">
<path d="M2.53809 27.9185H78.6795V53.2989H2.53809V27.9185Z" fill="#091E79"/>
<path d="M12.6903 10.1523H68.5273C74.1313 10.1523 78.6795 14.7005 78.6795 20.3045V30.4567H2.53809V20.3045C2.53809 14.7005 7.08627 10.1523 12.6903 10.1523Z" fill="#F7CF46"/>
<path d="M68.5273 71.0654L12.6902 71.0654C7.0862 71.0654 2.53802 66.5172 2.53802 60.9132V50.7611L78.6794 50.7611V60.9132C78.6794 66.5172 74.1313 71.0654 68.5273 71.0654Z" fill="#BF2C30"/>
<path opacity="0.15" d="M68.5273 10.1523H12.6903C7.08373 10.1523 2.53809 14.698 2.53809 20.3045V60.9133C2.53809 66.5198 7.08373 71.0655 12.6903 71.0655H68.5273C74.1339 71.0655 78.6795 66.5198 78.6795 60.9133V20.3045C78.6795 14.698 74.1339 10.1523 68.5273 10.1523ZM76.1415 60.9133C76.1415 65.1112 72.7252 68.5274 68.5273 68.5274H12.6903C8.49234 68.5274 5.07613 65.1112 5.07613 60.9133V20.3045C5.07613 16.1066 8.49234 12.6904 12.6903 12.6904H68.5273C72.7252 12.6904 76.1415 16.1066 76.1415 20.3045V60.9133Z" fill="black"/>
<path opacity="0.2" d="M68.5274 12.6904H12.6903C8.48477 12.6904 5.07617 16.099 5.07617 20.3046V22.8426C5.07617 18.6371 8.48477 15.2285 12.6903 15.2285H68.5274C72.7329 15.2285 76.1415 18.6371 76.1415 22.8426V20.3046C76.1415 16.099 72.7329 12.6904 68.5274 12.6904Z" fill="white"/>
<path d="M25.9059 44.9615L25.4364 43.3193L24.8526 44.9259L23.1445 44.865L24.4897 45.9183L23.9059 47.5223L25.3222 46.568L26.6699 47.6188L26.1978 45.9767L27.614 45.0224L25.9059 44.9615Z" fill="white"/>
<path d="M29.0937 40.7079L29.3322 39.0176L28.1444 40.246L26.6089 39.4947L27.4109 41.0049L26.2206 42.2307L27.9033 41.9363L28.7053 43.4465L28.9439 41.7536L30.6292 41.4592L29.0937 40.7079Z" fill="white"/>
<path d="M33.4895 37.5504L34.1849 35.9895L32.7053 36.8449L31.4362 35.7002L31.7916 37.3728L30.3119 38.2256L32.0098 38.4058L32.3652 40.0758L33.0606 38.5149L34.7611 38.6926L33.4895 37.5504Z" fill="white"/>
<path d="M38.157 35.1062L37.355 33.5986L37.1164 35.289L35.4337 35.5859L36.9692 36.3346L36.7307 38.0275L37.9185 36.7991L39.454 37.5478L38.652 36.0377L39.8398 34.8093L38.157 35.1062Z" fill="white"/>
<path d="M56.7278 45.9183L58.073 44.865L56.3649 44.9259L55.7812 43.3193L55.3116 44.9615L53.6035 45.0224L55.0197 45.9767L54.5477 47.6188L55.8954 46.568L57.3116 47.5223L56.7278 45.9183Z" fill="white"/>
<path d="M53.3142 41.9363L54.997 42.2307L53.8066 41.0049L54.6086 39.4947L53.0731 40.246L51.8853 39.0176L52.1239 40.7079L50.5884 41.4592L52.2736 41.7536L52.5122 43.4465L53.3142 41.9363Z" fill="white"/>
<path d="M49.2077 38.4058L50.9056 38.2256L49.4259 37.3728L49.7813 35.7002L48.5122 36.8449L47.0326 35.9895L47.728 37.5504L46.4564 38.6926L48.1569 38.5149L48.8523 40.0758L49.2077 38.4058Z" fill="white"/>
<path d="M44.1011 35.289L43.8626 33.5986L43.0605 35.1062L41.3778 34.8093L42.5656 36.0377L41.7636 37.5478L43.2991 36.7991L44.4869 38.0275L44.2483 36.3346L45.7839 35.5859L44.1011 35.289Z" fill="white"/>
</svg>
