<svg width="82" height="82" viewBox="0 0 82 82" fill="none" xmlns="http://www.w3.org/2000/svg">
<path d="M78.6795 20.3045C78.6795 14.6975 74.1344 10.1523 68.5273 10.1523H12.6903C7.08322 10.1523 2.53809 14.6975 2.53809 20.3045V43.147H78.6795V20.3045Z" fill="white"/>
<path d="M12.6903 71.0655H68.5273C74.1344 71.0655 78.6795 66.5203 78.6795 60.9133V40.6089H2.53809V60.9133C2.53809 66.5203 7.08322 71.0655 12.6903 71.0655Z" fill="#02B33E"/>
<path opacity="0.15" d="M12.6903 71.0655H68.5273C74.1341 71.0655 78.6795 66.5203 78.6795 60.9133V20.3045C78.6795 14.6975 74.1341 10.1523 68.5273 10.1523H12.6903C7.08322 10.1523 2.53809 14.6975 2.53809 20.3045V60.9133C2.53809 66.5203 7.08322 71.0655 12.6903 71.0655ZM5.07613 20.3045C5.07613 16.1058 8.49158 12.6904 12.6903 12.6904H68.5273C72.726 12.6904 76.1415 16.1058 76.1415 20.3045V60.9133C76.1415 65.112 72.726 68.5274 68.5273 68.5274H12.6903C8.49158 68.5274 5.07613 65.112 5.07613 60.9133V20.3045Z" fill="black"/>
<path opacity="0.2" d="M68.5274 12.6904H12.6903C8.48502 12.6904 5.07617 16.0993 5.07617 20.3046V22.8426C5.07617 18.6373 8.48502 15.2285 12.6903 15.2285H68.5274C72.7326 15.2285 76.1415 18.6373 76.1415 22.8426V20.3046C76.1415 16.0993 72.7326 12.6904 68.5274 12.6904Z" fill="white"/>
<path d="M68.2987 35.2767C66.3662 26.2725 68.8071 26.5275 61.2282 33.5333C62.0937 33.6442 63.516 33.5544 64.3371 33.4054L63.635 35.0907C56.8331 30.9607 54.3024 42.0322 62.5264 38.8995C60.2287 42.6124 53.975 38.9074 50.7372 39.6411C51.6326 38.368 53.7245 37.3584 55.2823 37.884C52.8912 35.0003 55.6912 31.9316 59.3028 30.9133C55.4483 29.4328 58.3983 27.2489 61.4757 24.8159C58.6191 25.9966 55.1998 27.3319 53.7973 27.8387C50.9377 28.959 50.2872 27.0654 51.712 24.0172C37.9259 30.4303 40.4959 31.8808 36.3421 38.3234C34.0455 39.713 30.7234 37.1335 34.549 37.4833C33.1645 35.6752 31.1199 33.662 34.9708 35.4358C34.8686 33.4089 33.7807 33.7196 33.2117 33.3452C32.7473 31.831 34.3665 32.0107 35.3277 32.6818C35.352 30.9062 31.6188 29.645 35.2551 30.2105C34.497 28.6747 33.0206 29.2943 32.9269 27.8039L33.0178 27.7867C31.7333 27.1456 34.1592 26.477 35.0731 25.7707C34.7513 25.7496 34.4226 25.7583 34.1084 25.8311C34.3762 25.3329 34.5505 24.359 34.3632 23.8958C34.1663 24.4197 33.5505 24.6271 32.8478 24.8364C33.0879 24.1763 33.2589 23.4875 32.8907 23.2651C28.9866 27.1689 22.2768 25.0489 18.1494 28.9115C20.6943 28.3712 22.0875 28.442 23.3725 30.0498C21.5557 30.1978 19.6141 30.2907 18.2223 30.2295C18.6959 29.9719 18.9814 29.7422 19.3266 29.4991C18.2096 29.674 15.5725 28.6417 14.3748 27.8169C14.7479 29.4133 17.1215 31.8871 18.6768 32.3074C18.5096 31.9582 18.2748 31.6044 18.0327 31.2417C19.6847 31.145 21.2725 31.3204 22.8816 31.4158C23.2684 32.4732 23.2748 33.5638 24.0301 34.4919C23.9885 33.5879 24.4953 33.2308 24.6362 32.4808C24.7643 32.7602 24.8245 33.1026 24.8788 33.4188C25.3488 32.6117 25.8115 31.8887 27.0798 31.6026C27.0821 31.8239 27.161 32.0394 27.3021 32.2097C26.7245 32.527 26.4689 33.1754 26.612 33.965C24.1717 36.8201 23.3874 40.4652 23.6608 43.8261C14.1733 41.9941 21.5887 35.6097 18.8928 34.0851C19.5588 35.114 18.5885 35.2381 17.9992 35.8447C18.5349 34.5569 17.4822 32.3579 15.9073 32.9427C17.5565 33.3544 16.2274 35.0605 16.3614 36.1617C15.7781 35.1358 14.6223 33.3922 13.254 34.4049C14.8048 34.3369 14.153 35.98 14.5451 36.9046C14.8162 37.5069 16.0218 37.6944 15.6916 38.5729C15.3033 39.7652 15.5606 41.3807 14.3177 42.2259C13.4424 42.6375 14.4896 44.2385 12.8563 43.9982C14.6535 45.2078 15.7124 42.8563 16.3027 41.4584C17.369 45.7187 22.2699 46.3657 22.273 51.4722C23.5834 49.4276 23.9991 47.9702 26.6232 48.5124C26.5636 48.7497 26.5836 48.9981 26.6808 49.223C26.2613 49.4174 25.9397 50.1243 26.0242 50.6722C25.2948 50.8362 25.5389 51.6504 25.2549 52.2329C25.1159 52.6032 24.8768 52.9981 24.4159 53.4324C21.6773 56.0131 19.2591 51.1324 17.536 54.0293C20.8456 53.5225 16.7403 54.9674 16.7106 56.0681C19.3157 54.5212 17.9515 56.5656 17.986 57.9516C18.2951 56.6775 19.2459 57.3105 20.0991 57.4521C22.1697 56.7874 23.5912 56.4019 25.506 56.057C26.8458 57.8503 28.9222 56.0301 30.0584 57.2818C30.2452 56.5443 29.597 55.793 28.8521 55.825C23.5453 55.1735 29.3092 51.6568 30.7777 49.4382C30.6757 50.7446 31.9884 51.1545 31.7127 52.3283C33.2087 48.9309 35.7023 49.0248 38.8033 48.0126C38.2091 50.5425 41.8017 51.3128 43.5865 51.9534C43.0984 52.0946 42.8659 52.4245 42.8789 52.9565C42.4167 52.9773 41.8832 53.2707 41.8238 53.6235C39.1434 55.208 35.6378 50.0469 34.2922 53.6123C35.1165 52.507 37.3794 54.4029 38.1096 54.8849C36.5807 55.0146 33.2226 52.9603 33.25 55.8829C33.9615 54.4679 34.4315 55.9318 35.3269 55.9737C34.8848 56.3595 34.368 56.8531 34.6267 57.5356C36.3789 56.2514 39.2667 56.2674 41.1708 56.2874C41.8213 55.3384 43.4053 57.2656 44.3403 57.1336C45.0131 56.7945 45.7172 56.4483 46.204 57.3422C46.3113 55.4369 44.0482 55.9361 42.7614 55.4854C45.2451 54.8372 47.3268 53.358 48.9517 51.0875C49.4986 51.6243 50.7291 51.4677 51.3052 52.039C51.3527 49.2552 48.4781 50.0867 46.9819 49.0152C44.487 42.9941 54.728 49.4047 57.4787 48.0169C57.5171 48.5588 57.9216 48.9091 58.2627 48.9725C58.5135 60.794 52.8727 49.0598 50.8798 53.992C51.6242 52.922 52.1849 53.8811 52.8953 54.3384C51.5732 54.3204 50.307 54.8285 50.478 56.145C51.0681 54.9638 52.5615 55.9633 53.6143 55.8252C52.6509 56.1491 51.7258 56.9176 51.961 57.9501C53.7465 56.1438 56.6087 57.0219 58.732 56.3884C60.0036 55.5519 60.8955 57.2663 62.0053 57.0674C62.5031 56.6037 63.2076 56.9646 63.4396 57.5778C63.7033 56.8519 63.1099 56.025 62.347 56.0186C58.1072 55.1443 62.7718 50.3606 60.828 47.6357C61.6211 48.2423 62.7904 48.735 63.569 48.7144C62.5005 46.1233 59.0112 45.7421 56.813 44.1226C63.9338 44.4045 65.52 39 65.8335 33.5808C66.403 34.3237 67.4071 35.0457 68.3611 35.3952L68.2987 35.2767Z" fill="#B62B35"/>
</svg>
