<svg width="82" height="82" viewBox="0 0 82 82" fill="none" xmlns="http://www.w3.org/2000/svg">
<path d="M78.6794 27.9185H2.53802V53.2989H78.6794V27.9185Z" fill="white"/>
<path d="M12.6902 10.1523H68.5273C74.1305 10.1523 78.6794 14.7013 78.6794 20.3045V30.4567H2.53802V20.3045C2.53802 14.7013 7.08697 10.1523 12.6902 10.1523Z" fill="black"/>
<path d="M68.5273 71.0654L12.6902 71.0654C7.08697 71.0654 2.53802 66.5165 2.53802 60.9132V50.7611L78.6794 50.7611V60.9132C78.6794 66.5165 74.1305 71.0654 68.5273 71.0654Z" fill="#027B3B"/>
<path d="M5.76414 68.3002L38.0707 40.6088L5.76414 12.9175C3.78928 14.7697 2.53802 17.3832 2.53802 20.3045V60.9132C2.53802 63.8345 3.78903 66.4479 5.76414 68.3002Z" fill="#C50A14"/>
<path opacity="0.15" d="M68.5273 10.1523H12.6902C7.08341 10.1523 2.53802 14.6975 2.53802 20.3045V60.9133C2.53802 66.5203 7.08341 71.0655 12.6902 71.0655H68.5273C74.1343 71.0655 78.6794 66.5203 78.6794 60.9133V20.3045C78.6794 14.6975 74.1343 10.1523 68.5273 10.1523ZM76.1414 60.9133C76.1414 65.112 72.7259 68.5274 68.5273 68.5274H12.6902C8.49152 68.5274 5.07607 65.112 5.07607 60.9133V20.3045C5.07607 16.1058 8.49152 12.6904 12.6902 12.6904H68.5273C72.7259 12.6904 76.1414 16.1058 76.1414 20.3045V60.9133Z" fill="black"/>
<path opacity="0.2" d="M68.5272 12.6904H12.6902C8.4849 12.6904 5.07605 16.0993 5.07605 20.3046V22.8426C5.07605 18.6373 8.4849 15.2285 12.6902 15.2285H68.5272C72.7325 15.2285 76.1414 18.6373 76.1414 22.8426V20.3046C76.1414 16.0993 72.7325 12.6904 68.5272 12.6904Z" fill="white"/>
<path d="M46.2202 40.609C46.2202 36.007 49.5186 32.1776 53.8797 31.3497C53.3069 31.241 52.7166 31.1816 52.1123 31.1816C46.9057 31.1816 42.6852 35.4024 42.6852 40.6087C42.6852 45.815 46.906 50.0358 52.1123 50.0358C52.7168 50.0358 53.3069 49.9766 53.8797 49.8678C49.5186 49.0401 46.2202 45.2112 46.2202 40.609Z" fill="#C50A14"/>
<path d="M49.5818 46.3171L53.6015 43.4435L57.5898 46.3605L56.0992 41.6493L60.106 38.7575L55.165 38.7194L53.6528 34.0151L52.0899 38.7027L47.1486 38.6872L51.1236 41.6222L49.5818 46.3171Z" fill="#C50A14"/>
</svg>
