<svg width="82" height="82" viewBox="0 0 82 82" fill="none" xmlns="http://www.w3.org/2000/svg">
<path d="M68.5273 10.1523H12.6902C7.08331 10.1523 2.53802 14.6976 2.53802 20.3045V60.9133C2.53802 66.5202 7.08331 71.0655 12.6902 71.0655H68.5273C74.1342 71.0655 78.6794 66.5202 78.6794 60.9133V20.3045C78.6794 14.6976 74.1342 10.1523 68.5273 10.1523Z" fill="#408926"/>
<path d="M65.9891 38.0708H78.6793V60.9132C78.6793 66.5172 74.1311 71.0654 68.5271 71.0654H65.9891V38.0708Z" fill="#E18430"/>
<path d="M53.299 38.0708H65.9892V71.0654H53.299V38.0708Z" fill="black"/>
<path d="M40.6087 38.0708H53.2989V71.0654H40.6087V38.0708Z" fill="#CD3421"/>
<path opacity="0.15" d="M68.5273 10.1523H12.6902C7.08367 10.1523 2.53802 14.698 2.53802 20.3045V60.9133C2.53802 66.5198 7.08367 71.0655 12.6902 71.0655H68.5273C74.1338 71.0655 78.6794 66.5198 78.6794 60.9133V20.3045C78.6794 14.698 74.1338 10.1523 68.5273 10.1523ZM76.1414 60.9133C76.1414 65.1112 72.7252 68.5274 68.5273 68.5274H12.6902C8.49228 68.5274 5.07607 65.1112 5.07607 60.9133V20.3045C5.07607 16.1066 8.49228 12.6904 12.6902 12.6904H68.5273C72.7252 12.6904 76.1414 16.1066 76.1414 20.3045V60.9133Z" fill="black"/>
<path opacity="0.2" d="M68.5272 12.6904H12.6901C8.48459 12.6904 5.07599 16.099 5.07599 20.3046V22.8426C5.07599 18.6371 8.48459 15.2285 12.6901 15.2285H68.5272C72.7327 15.2285 76.1413 18.6371 76.1413 22.8426V20.3046C76.1413 16.099 72.7327 12.6904 68.5272 12.6904Z" fill="white"/>
<path d="M73.7303 23.2257C73.6465 23.1673 73.3927 23.2435 72.8724 23.4694C75.3445 21.3069 73.6542 22.0074 72.1973 22.9085C75.0805 20.307 72.2329 21.5404 70.8166 22.4948C74.1922 19.7664 69.6491 22.3146 67.8649 22.8932C69.3953 21.274 64.5781 23.4414 63.8674 23.3095C62.4461 24.0328 58.7634 23.6826 58.6822 23.9973C57.9843 23.043 59.5401 22.3805 59.6974 23.1191C60.9665 21.6293 55.6061 20.7004 55.6112 23.7029C54.0833 24.0379 46.6037 20.1445 49.5148 22.7968C47.7838 21.9415 42.893 19.444 46.2128 22.6014C44.4159 21.6978 42.7357 20.2968 44.5605 22.7384C43.4108 21.6572 42.9819 22.2638 44.2382 23.2587C42.393 21.9491 43.4311 24.2536 46.5757 24.8526C45.4793 24.9541 46.4006 25.5962 48.0148 25.482C45.4209 25.7612 48.3321 26.548 49.4564 26.1216C47.5935 26.3348 48.4996 27.2155 51.3777 26.5861C49.4285 26.9313 50.7128 27.6952 52.0122 27.3348C51.1544 27.8297 52.7254 27.7714 53.0681 27.6318C52.7787 27.7942 52.7889 27.812 52.8143 27.8602C53.1873 28.1927 54.0477 27.8526 54.2559 27.7485C53.3879 28.515 54.9589 28.2409 55.6416 27.9566C54.5224 28.6977 56.7888 28.9465 57.1162 28.6749C57.0959 28.8043 56.9563 29.0861 57.1264 29.0404C57.1695 29.015 57.2228 28.9541 57.299 28.8653C57.101 29.3475 56.6924 31.0505 57.5096 29.9059C57.4284 30.4947 57.3269 30.652 57.6086 30.5987C57.6442 31.2206 55.8295 31.2231 56.0249 31.8576C55.8168 32.5175 56.332 32.02 57.0299 31.8779C56.8041 32.9236 57.2305 33.1114 57.8396 32.1825C58.5426 33.2662 58.3751 33.0936 58.6949 32.1038C58.9081 32.4388 59.0299 32.2865 58.9436 31.9718C59.0401 31.9947 59.2152 32.0023 59.4056 31.8348C59.4386 32.2535 59.3497 32.7104 59.8903 32.7967C59.9259 32.5378 59.7152 32.4693 60.0807 32.2485C60.3243 31.9591 59.9969 31.1089 60.4817 31.9008C60.8954 31.9744 60.733 32.0429 60.766 32.2967C61.9563 32.284 60.4309 30.5175 61.4005 31.2992C61.7126 31.4693 61.4538 30.7713 61.1213 30.7942C60.5578 30.7333 60.7 30.8246 60.6517 30.4566C62.1593 31.2282 60.8599 29.9998 60.804 29.5048C61.6365 30.0835 61.7812 29.8805 61.0071 29.1647C61.134 29.2993 62.1365 29.9414 62.101 29.3856C63.3598 30.1622 63.9791 29.4693 62.5045 28.713C63.1086 29.251 65.8928 29.8272 64.1441 28.5658C64.4081 28.746 65.8167 28.5226 65.2456 28.2155C65.875 28.2104 66.5806 28.0023 65.8243 27.7663C67.2151 27.6546 68.0222 27.2282 68.172 26.9338C71.8268 26.5125 73.6694 24.2765 72.5298 24.576C73.2658 23.9389 73.7734 23.6546 73.7303 23.2308V23.2257ZM58.8878 31.0683C58.4284 30.9718 58.4106 30.6749 58.4741 30.1267C59.1974 30.949 58.6518 28.8399 58.8497 28.1597C59.7406 29.0607 59.2381 30.5429 59.7609 30.4515C59.9665 31.1825 59.337 30.8449 58.8878 31.0683Z" fill="#E18430"/>
</svg>
