<svg width="82" height="82" viewBox="0 0 82 82" fill="none" xmlns="http://www.w3.org/2000/svg">
<path d="M2.53796 27.5557H78.6794V36.2586H2.53796V27.5557Z" fill="#C4291C"/>
<path d="M2.53796 36.2559H78.6794V44.9588H2.53796V36.2559Z" fill="black"/>
<path d="M2.53796 44.959H78.6794V53.6619H2.53796V44.959Z" fill="#C4291C"/>
<path d="M2.53796 60.9129C2.53796 61.4104 2.61411 61.885 2.68517 62.3647H78.5322C78.6007 61.8875 78.6794 61.4104 78.6794 60.9129V53.6592H2.53796V60.9129Z" fill="#F8D548"/>
<path d="M2.68517 18.8525C2.61664 19.3297 2.53796 19.8068 2.53796 20.3043V27.5555H78.6794V20.3043C78.6794 19.8068 78.6032 19.3322 78.5322 18.8525H2.68517Z" fill="#F8D548"/>
<path d="M78.5321 62.3623H2.68512C3.39323 67.276 7.58101 71.0653 12.6901 71.0653H68.5271C73.6388 71.0653 77.824 67.276 78.5321 62.3623Z" fill="#2A6318"/>
<path d="M2.68512 18.8553H78.5321C77.824 13.9416 73.6362 10.1523 68.5271 10.1523H12.6901C7.57847 10.1523 3.39323 13.9416 2.68512 18.8553Z" fill="#2A6318"/>
<path d="M5.87803 68.3927L40.6087 40.6087L5.87803 12.8247C3.83998 14.6826 2.53796 17.3323 2.53796 20.3043V60.9131C2.53796 63.8877 3.83998 66.5374 5.87803 68.3927Z" fill="white"/>
<path opacity="0.15" d="M68.5272 10.1523H12.6902C7.08361 10.1523 2.53796 14.698 2.53796 20.3045V60.9133C2.53796 66.5198 7.08361 71.0655 12.6902 71.0655H68.5272C74.1337 71.0655 78.6794 66.5198 78.6794 60.9133V20.3045C78.6794 14.698 74.1337 10.1523 68.5272 10.1523ZM76.1413 60.9133C76.1413 65.1112 72.7251 68.5274 68.5272 68.5274H12.6902C8.49222 68.5274 5.07601 65.1112 5.07601 60.9133V20.3045C5.07601 16.1066 8.49222 12.6904 12.6902 12.6904H68.5272C72.7251 12.6904 76.1413 16.1066 76.1413 20.3045V60.9133Z" fill="black"/>
<path opacity="0.2" d="M68.5272 12.6904H12.6902C8.48465 12.6904 5.07605 16.099 5.07605 20.3046V22.8426C5.07605 18.6371 8.48465 15.2285 12.6902 15.2285H68.5272C72.7328 15.2285 76.1414 18.6371 76.1414 22.8426V20.3046C76.1414 16.099 72.7328 12.6904 68.5272 12.6904Z" fill="white"/>
<path d="M21.4185 42.0526L27.591 37.5679H19.9617L17.6038 30.3091L15.246 37.5679H7.61407L13.7866 42.0526L11.4288 49.3089L17.6038 44.8242L23.7764 49.3089L21.4185 42.0526Z" fill="#C1291B"/>
<path d="M23.025 41.7965C23.0149 41.6924 22.9616 41.5985 22.8803 41.53C21.5682 40.5021 18.921 38.431 17.6088 37.4057C17.5733 36.9793 17.5073 36.1214 17.4718 35.695C17.4845 34.5199 15.9819 33.5504 15.185 34.6696C14.5987 34.5757 13.8068 34.9945 14.152 35.6595C14.3246 35.6849 14.652 35.6341 14.8297 35.6341C15.4185 35.9006 15.1901 37.1011 15.2586 37.596L15.2941 38.8879C15.0099 39.4792 15.119 40.1671 15.1951 40.7914C15.3017 42.0427 13.02 42.8548 13.9997 44.1949C14.185 44.9081 14.553 46.3497 14.7383 47.0655C16.1038 47.2178 18.9921 47.068 20.4083 47.1188C20.5428 47.1924 20.5986 45.8244 20.6392 45.7964C20.7306 44.4132 21.0403 42.9234 22.3448 42.162C22.6494 42.3117 23.0605 42.1873 23.0301 41.7965H23.025Z" fill="#F7D347"/>
</svg>
