<svg width="881" height="769" viewBox="0 0 881 769" fill="none" xmlns="http://www.w3.org/2000/svg">
<g clip-path="url(#clip0_506_3924)">
<g clip-path="url(#clip1_506_3924)">
<rect y="36.001" width="733" height="733" rx="366.5" fill="#D2F206"/>
<path d="M-9.78398 801.263C-2.86577 799.301 4.51408 797.432 11.8436 797.004C10.2777 797.097 1.19979 762.845 0.23904 759.157C-3.13691 746.219 -5.80059 732.581 -4.37336 719.182C-1.99889 696.768 9.42739 675.028 28.3964 662.374C41.1042 653.897 55.3667 650.612 69.8411 646.761C85.7086 642.545 186.655 615.397 202.516 611.156C204.102 610.731 205.908 610.111 206.459 608.572C206.807 607.597 206.546 606.522 206.278 605.521L196.937 570.658C196.62 569.543 196.479 568.136 195.489 567.529C191.176 564.867 184.328 566.92 179.825 568.399C170.688 571.411 76.25 596.425 67.0111 599.055C47.4867 604.65 25.3846 608.8 7.70103 618.619C-28.5008 637.754 -51.7905 673.971 -54.7493 714.693C-56.1241 733.613 -53.9896 752.637 -49.6694 771.067C-48.9901 773.975 -37.0932 811.999 -36.4071 811.642C-27.9501 807.213 -18.7923 803.804 -9.77777 801.253L-9.78398 801.263Z" fill="#100A5F"/>
<rect x="99.9296" y="196.513" width="442.431" height="673.874" rx="33.7502" transform="rotate(-11.2576 99.9296 196.513)" fill="white" stroke="#100A5F" stroke-width="17.7461"/>
<g clip-path="url(#clip2_506_3924)">
<path d="M411.592 599.11C372.852 608.012 339.337 605.818 319.646 593.08C308.728 586.025 301.888 575.917 299.318 563.05C296.996 551.424 298.47 542.038 303.695 535.154C309.005 528.15 317.904 524.115 330.167 523.206C339.954 522.461 349.249 522.427 357.187 522.462C381.278 522.554 405.451 516.999 427.086 506.4C434.207 502.904 442.572 498.88 451.714 495.275C462.972 490.81 472.632 490.518 480.407 494.353C487.79 497.997 493.117 505.189 496.247 515.713C496.42 516.085 496.548 516.48 496.612 516.895C496.714 517.203 496.842 517.598 496.864 517.667C500.165 530.348 498.422 542.421 491.687 553.54C479.526 573.598 450.33 590.202 411.591 599.104L411.592 599.11ZM323.862 533.589C318.067 534.921 313.806 537.341 311.164 540.831C307.635 545.485 306.742 552.347 308.518 561.217C310.572 571.513 316.026 579.581 324.731 585.211C342.311 596.575 373.206 598.31 409.492 589.972C445.778 581.633 472.817 566.586 483.672 548.687C489.047 539.822 490.43 530.176 487.785 520.022C487.764 519.933 487.714 519.77 487.656 519.571C487.558 519.363 487.478 519.15 487.415 518.928C485.07 510.707 481.32 505.274 476.265 502.773C470.973 500.158 463.871 500.586 455.162 504.01C446.341 507.491 438.498 511.264 431.214 514.835C408.297 526.072 382.678 531.959 357.155 531.853C349.043 531.821 340.328 531.852 330.878 532.57C328.333 532.761 325.999 533.111 323.871 533.6L323.862 533.589Z" fill="#100A5F"/>
<path d="M410.896 596.082C408.371 596.662 405.857 595.087 405.277 592.563L390.233 527.097C389.653 524.573 391.228 522.058 393.752 521.478C396.277 520.898 398.791 522.473 399.371 524.997L414.415 590.463C414.995 592.988 413.42 595.502 410.896 596.082Z" fill="#100A5F"/>
<path d="M459.733 575.569C457.208 576.149 454.694 574.574 454.114 572.05L439.837 509.921C439.257 507.396 440.832 504.882 443.356 504.302C445.881 503.721 448.395 505.296 448.975 507.821L463.252 569.95C463.832 572.474 462.258 574.989 459.733 575.569Z" fill="#100A5F"/>
<path d="M355.147 599.603C352.623 600.183 350.108 598.609 349.528 596.084L335.251 533.955C334.671 531.43 336.246 528.916 338.77 528.336C341.295 527.756 343.809 529.33 344.389 531.855L358.666 593.984C359.246 596.509 357.672 599.023 355.147 599.603Z" fill="#100A5F"/>
<path d="M469.251 498.207C514.68 487.768 539.957 429.043 525.709 367.041C511.461 305.04 463.084 263.24 417.656 273.679C372.227 284.118 346.95 342.843 361.198 404.845C375.446 466.847 423.823 508.646 469.251 498.207Z" fill="white"/>
<path d="M470.301 502.777C422.43 513.777 371.433 470.318 356.629 405.896C341.825 341.473 368.735 280.111 416.606 269.111C464.478 258.11 515.475 301.569 530.278 365.992C545.082 430.415 518.173 491.776 470.301 502.777ZM418.706 278.249C375.872 288.092 352.127 344.409 365.773 403.794C379.42 463.18 425.367 503.482 468.202 493.639C511.036 483.796 534.781 427.479 521.134 368.093C507.488 308.708 461.541 268.406 418.706 278.249Z" fill="#100A5F"/>
<path d="M488.703 456.902C519.973 449.717 537.371 409.294 527.564 366.615C517.757 323.937 484.457 295.164 453.188 302.35C421.918 309.535 404.519 349.958 414.326 392.637C424.134 435.315 457.433 464.088 488.703 456.902Z" fill="#100A5F"/>
<path d="M387.516 367.977L456.274 393.485L431.953 458.943L387.516 367.977Z" fill="white"/>
<path d="M501.977 313.806C480.035 283.323 448.204 266.654 417.654 273.675C385.185 281.136 363.106 313.318 358.301 353.684C400.066 351.568 460.176 343.002 501.977 313.806Z" fill="white"/>
<path d="M428.885 349.018C404.06 354.723 379.312 357.315 358.54 358.364C357.159 358.438 355.823 357.89 354.875 356.885C353.931 355.873 353.478 354.499 353.643 353.125C358.893 309.019 383.021 276.822 416.604 269.105C447.818 261.932 481.991 278.012 505.777 311.066C506.511 312.089 506.808 313.356 506.588 314.598C506.38 315.837 505.684 316.933 504.651 317.651C482.588 333.065 455.683 342.86 428.879 349.02L428.885 349.018ZM363.739 348.678C403.779 346.171 456.672 337.717 495.27 312.669C473.946 285.357 444.964 272.214 418.711 278.247C390.485 284.733 369.755 311.49 363.746 348.682L363.739 348.678Z" fill="#100A5F"/>
<path d="M315.668 533.501C361.097 523.062 386.374 464.337 372.126 402.335C357.878 340.334 309.501 298.534 264.073 308.973C218.644 319.412 193.367 378.137 207.615 440.139C221.863 502.141 270.24 543.94 315.668 533.501Z" fill="white"/>
<path d="M316.712 538.071C268.841 549.071 217.844 505.612 203.04 441.19C188.236 376.767 215.144 315.399 263.016 304.399C310.888 293.398 361.884 336.857 376.688 401.28C391.492 465.703 364.583 527.064 316.711 538.065L316.712 538.071ZM265.117 313.543C222.283 323.386 198.538 379.703 212.184 439.088C225.831 498.474 271.778 538.776 314.613 528.933C357.447 519.09 381.192 462.773 367.545 403.387C353.899 344.002 307.952 303.7 265.117 313.543Z" fill="#100A5F"/>
<path d="M335.114 492.196C366.384 485.011 383.783 444.588 373.975 401.909C364.168 359.231 330.868 330.458 299.599 337.644C268.329 344.829 250.93 385.252 260.738 427.931C270.545 470.609 303.844 499.382 335.114 492.196Z" fill="#100A5F"/>
<path d="M233.932 403.27L302.684 428.779L278.37 494.236L233.932 403.27Z" fill="white"/>
<path d="M348.388 349.099C326.447 318.616 294.615 301.947 264.066 308.967C231.596 316.429 209.518 348.611 204.712 388.977C246.477 386.861 306.588 378.295 348.388 349.099Z" fill="white"/>
<path d="M275.302 384.312C250.478 390.016 225.724 392.61 204.952 393.659C203.571 393.733 202.235 393.185 201.286 392.18C200.343 391.168 199.889 389.793 200.054 388.42C205.305 344.314 229.432 312.117 263.016 304.399C294.229 297.227 328.401 313.301 352.194 346.359C352.929 347.382 353.225 348.643 353.006 349.891C352.798 351.131 352.101 352.227 351.068 352.945C329.005 368.359 302.101 378.154 275.296 384.313L275.302 384.312ZM210.15 383.973C250.203 381.463 303.094 373.003 341.682 347.964C320.357 320.652 291.376 307.509 265.123 313.542C236.897 320.028 216.167 346.785 210.158 383.977L210.15 383.973Z" fill="#100A5F"/>
<path d="M176.007 291.944C171.376 298.723 167.77 309.041 173.254 315.611C178.516 321.92 187.635 319.25 194.037 315.209C205.156 308.18 214.682 298.561 224.119 289.018C234.401 278.619 238.438 255.68 218.381 257.562C203.126 258.997 184.481 279.54 176.007 291.944Z" fill="#100A5F"/>
<path d="M475.876 220.284C483.404 223.558 491.951 230.372 490.811 238.851C489.719 246.994 480.577 249.594 473.005 249.575C459.852 249.546 446.664 246.481 433.596 243.426C419.354 240.098 403.726 222.832 421.697 213.749C435.376 206.837 462.091 214.299 475.871 220.291L475.876 220.284Z" fill="#100A5F"/>
<path d="M227.279 594.945C225.389 595.379 223.362 595.246 221.431 594.448C216.52 592.407 214.194 586.765 216.236 581.86L225.677 559.164C227.722 554.245 233.348 551.929 238.265 553.969C243.176 556.01 245.502 561.652 243.46 566.557L234.02 589.253C232.778 592.24 230.205 594.266 227.272 594.94L227.279 594.945Z" fill="#100A5F"/>
<path d="M255.867 588.376C253.983 588.809 251.95 588.677 250.019 587.879C245.114 585.837 242.784 580.202 244.825 575.291L254.259 552.596C256.307 547.69 261.943 545.365 266.847 547.401C271.753 549.444 274.083 555.078 272.042 559.99L262.608 582.684C261.366 585.671 258.794 587.697 255.86 588.371L255.867 588.376Z" fill="#100A5F"/>
<path d="M527.008 526.071C525.118 526.505 523.091 526.372 521.16 525.574C516.249 523.533 513.923 517.891 515.965 512.986L525.406 490.29C527.439 485.374 533.077 483.055 537.994 485.095C542.905 487.136 545.231 492.778 543.189 497.683L533.749 520.379C532.507 523.366 529.934 525.392 527.001 526.066L527.008 526.071Z" fill="#100A5F"/>
<path d="M555.591 519.503C553.706 519.936 551.673 519.804 549.743 519.006C544.837 516.964 542.507 511.329 544.548 506.418L553.982 483.723C556.03 478.817 561.661 476.493 566.571 478.528C571.476 480.571 573.806 486.205 571.766 491.117L562.331 513.811C561.09 516.798 558.517 518.824 555.583 519.498L555.591 519.503Z" fill="#100A5F"/>
</g>
</g>
<rect x="15.5" y="51.501" width="702" height="702" rx="351" stroke="white" stroke-width="31"/>
<path d="M781.204 282.248C775.207 284.252 768.799 286.193 762.378 286.866C763.75 286.721 773.114 316.442 774.107 319.643C777.597 330.872 780.49 342.744 779.78 354.572C778.603 374.359 769.447 393.92 753.297 405.805C742.477 413.767 730.081 417.232 717.522 421.202C703.754 425.548 616.177 453.491 602.416 457.86C601.04 458.297 599.479 458.915 599.057 460.289C598.791 461.16 599.063 462.094 599.339 462.962L608.959 493.209C609.283 494.176 609.464 495.406 610.358 495.9C614.255 498.063 620.187 495.982 624.083 494.5C631.987 491.484 713.933 465.68 721.943 462.995C738.867 457.288 758.115 452.746 773.251 443.403C804.277 425.126 823.268 392.366 824.216 356.473C824.656 339.797 822.009 323.171 817.467 307.157C816.752 304.629 804.759 271.71 804.171 272.051C796.922 276.285 789.015 279.65 781.199 282.257L781.204 282.248Z" fill="#100A5F"/>
<path d="M765.767 277.327C747.629 283.674 725.226 283.748 710.717 269.779C706.201 265.438 702.433 260.068 698.792 254.882C696.352 251.411 694.052 248.137 691.551 245.146C687.973 240.863 683.656 236.839 679.48 232.948C669.364 223.514 658.899 213.759 656.464 198.712C653.963 183.293 660.112 171.899 674.233 165.756C680.839 162.876 688.268 161.692 696.295 162.22C708.724 163.034 725.894 165.81 737.133 174.408C742.943 178.858 746.424 185.349 746.934 192.681C747.454 200.247 744.655 207.725 739.247 213.191C730.999 221.524 713.011 233.202 685.171 217.714C683.867 216.993 683.401 215.345 684.123 214.041C684.852 212.735 686.49 212.264 687.796 212.993C711.279 226.06 726.648 218.24 735.405 209.396C739.72 205.032 741.954 199.08 741.54 193.058C741.143 187.292 738.41 182.192 733.845 178.705C723.146 170.518 705.501 168.241 695.938 167.618C688.778 167.15 682.211 168.199 676.388 170.718C664.619 175.833 659.711 184.966 661.799 197.849C663.94 211.062 673.281 219.772 683.174 228.999C687.467 233 691.904 237.14 695.698 241.679C698.348 244.847 700.822 248.369 703.216 251.777C706.712 256.752 710.324 261.9 714.468 265.881C729.808 280.643 755.597 277.478 773.069 268.281C774.388 267.599 776.023 268.094 776.723 269.415C777.415 270.738 776.911 272.369 775.59 273.068C772.532 274.676 769.225 276.117 765.774 277.325L765.767 277.327Z" fill="#100A5F"/>
<path d="M741.139 157.614C741.02 157.656 740.898 157.691 740.771 157.712C739.307 158.003 737.884 157.054 737.593 155.59C734.858 141.921 731.517 127.626 728.186 115.351C724.052 100.076 718.671 82.2569 710.204 65.9679C704.578 55.1524 696.798 42.6319 686.465 41.8198C678.417 41.1886 668.346 47.3372 664.467 55.2562C661.46 61.3921 660.791 69.129 662.418 78.9087C663.884 87.7326 667.317 96.7067 672.612 105.582C682.543 122.237 697.794 160.969 698.442 162.616C698.984 164.007 698.299 165.575 696.915 166.115C695.583 166.715 693.958 165.979 693.409 164.59C693.254 164.194 677.679 124.626 667.971 108.361C662.327 98.8953 658.666 89.2897 657.086 79.802C655.269 68.871 656.094 60.0674 659.613 52.883C664.444 43.01 676.68 35.6374 686.89 36.4372C701.53 37.5843 710.971 55.7303 715.003 63.4824C723.715 80.2232 729.193 98.3879 733.412 113.949C736.768 126.342 740.134 140.755 742.895 154.541C743.165 155.878 742.396 157.183 741.142 157.621L741.139 157.614Z" fill="#100A5F"/>
<path d="M753.324 152.102C751.985 152.57 750.501 151.919 749.945 150.604C748.397 146.924 712.262 60.1643 734.792 27.077C738.866 21.0975 745.337 17.2207 752.563 16.4315C760.155 15.6015 767.746 18.1795 773.385 23.4958C784.433 33.9005 802.052 62.1587 795.893 134.44C795.766 135.932 794.458 137.029 792.967 136.903C791.483 136.774 790.378 135.469 790.507 133.984C796.472 63.969 780.021 37.1756 769.681 27.4401C765.189 23.209 759.166 21.1577 753.15 21.8156C747.418 22.4458 742.482 25.3983 739.252 30.1333C718.367 60.8031 754.553 147.64 754.923 148.514C755.5 149.894 754.86 151.477 753.481 152.055C753.425 152.074 753.375 152.092 753.319 152.111L753.324 152.102Z" fill="#100A5F"/>
<path d="M782.258 152.619C781.801 152.78 781.284 152.818 780.777 152.703C756.42 147.239 720.127 169.978 719.764 170.208C718.499 171.022 716.837 170.631 716.032 169.371C715.237 168.116 715.609 166.444 716.871 165.646C718.431 164.658 755.417 141.479 781.962 147.434C783.421 147.762 784.336 149.204 784.009 150.663C783.794 151.608 783.113 152.328 782.261 152.626L782.258 152.619Z" fill="#100A5F"/>
<path d="M766.277 253.408C766.115 253.465 765.941 253.51 765.759 253.534C764.283 253.742 762.917 252.71 762.702 251.236C758.939 224.549 734.587 218.356 733.552 218.11C732.1 217.756 731.213 216.304 731.559 214.854C731.906 213.404 733.356 212.51 734.813 212.854C735.099 212.928 763.765 220.086 768.06 250.484C768.245 251.779 767.467 252.992 766.277 253.408Z" fill="#100A5F"/>
<path d="M807.003 262.885C805.883 263.277 804.739 263.646 803.567 264C802.136 264.43 800.628 263.622 800.198 262.191C799.769 260.76 800.622 259.244 802.008 258.822C818.613 253.834 830.015 244.485 835.903 231.103C850.027 199.004 828.533 153.617 828.312 153.165C827.667 151.817 828.233 150.204 829.573 149.561C830.921 148.939 832.534 149.482 833.179 150.829C834.114 152.779 855.964 198.935 840.849 233.286C834.714 247.228 823.337 257.17 806.996 262.888L807.003 262.885Z" fill="#100A5F"/>
<path d="M798.382 300.45C797.945 300.603 797.529 300.749 797.132 300.879L795.129 301.549C787.206 304.21 779.014 306.966 770.45 307.954C761.132 309.024 751.707 306.219 745.228 300.445C739.609 295.438 736.63 288.709 736.62 280.972C736.621 279.485 737.816 278.269 739.317 278.265C740.811 278.265 742.023 279.469 742.024 280.963C742.032 287.111 744.384 292.455 748.819 296.406C754.169 301.167 762.022 303.479 769.828 302.582C777.822 301.659 785.738 299 793.401 296.429L795.411 295.758C803.603 293.026 823.231 285.154 828.414 271.363C830.665 265.389 829.782 258.891 825.796 252.063C825.046 250.776 825.479 249.123 826.766 248.372C828.048 247.607 829.707 248.055 830.464 249.339C835.315 257.643 836.326 265.685 833.474 273.261C827.736 288.519 807.912 297.116 798.374 300.453L798.382 300.45Z" fill="#100A5F"/>
<path d="M800.261 202.762C795.063 204.581 789.754 204.344 784.645 202.012C777.685 198.842 773.407 192.852 772.267 184.688C771.052 175.974 773.426 164.976 779.337 152.021C785.285 138.967 792.149 129.64 799.73 124.307C806.955 119.217 814.67 118.131 821.461 121.226C832.701 126.346 839.766 142.698 825.857 173.219C819.946 186.174 813.216 195.186 805.837 199.989C804.002 201.185 802.142 202.104 800.261 202.762ZM808.37 125.814C806.545 126.453 804.695 127.424 802.843 128.728C796.151 133.441 789.721 142.269 784.258 154.269C778.784 166.28 776.553 176.263 777.62 183.946C778.505 190.27 781.619 194.698 786.885 197.094C792.15 199.489 797.535 198.949 802.883 195.457C809.386 191.221 815.462 182.984 820.929 170.975C831.185 148.475 830.527 131.296 819.212 126.14C815.816 124.592 812.128 124.491 808.36 125.81L808.37 125.814Z" fill="#100A5F"/>
<path d="M728.186 115.351C724.051 100.076 718.671 82.2573 710.204 65.9684C704.578 55.1529 696.797 42.6323 686.465 41.8202C678.417 41.189 668.346 47.3376 664.467 55.2566C661.459 61.3926 660.791 69.1294 662.418 78.9091C663.884 87.733 667.317 96.7071 672.612 105.583C682.264 121.757 696.936 158.787 698.351 162.379C704.133 162.839 710.74 163.737 717.234 165.418C719.039 164.296 726.974 159.496 737.476 155.007C734.762 141.512 731.474 127.459 728.193 115.349L728.186 115.351Z" fill="#FCFFFF"/>
<path d="M724.226 167.596C728.922 169.313 733.359 171.531 737.126 174.412C742.937 178.861 746.417 185.352 746.927 192.684C747.447 200.25 744.648 207.728 739.24 213.194C738.965 213.472 738.681 213.745 738.386 214.031C746.259 217.055 764.68 226.588 768.057 250.477C768.241 251.772 767.464 252.985 766.274 253.401C766.112 253.458 765.938 253.503 765.756 253.527C764.28 253.735 762.914 252.703 762.699 251.229C758.935 224.542 734.584 218.349 733.549 218.103C733.533 218.101 733.518 218.082 733.502 218.08C723.826 224.975 707.731 230.267 685.154 217.713C683.85 216.991 683.385 215.344 684.106 214.04C684.835 212.733 686.473 212.263 687.78 212.992C711.263 226.058 726.631 218.238 735.388 209.395C739.704 205.031 741.938 199.079 741.523 193.057C741.126 187.29 738.393 182.19 733.829 178.704C723.13 170.517 705.485 168.239 695.922 167.616C688.762 167.149 682.195 168.198 676.372 170.717C664.603 175.831 659.695 184.964 661.783 197.848C663.924 211.061 673.264 219.77 683.158 228.998C687.451 232.998 691.888 237.138 695.682 241.677C698.332 244.845 700.806 248.368 703.2 251.776C706.695 256.751 710.307 261.899 714.452 265.88C729.791 280.642 755.581 277.477 773.053 268.28C774.371 267.597 776.007 268.092 776.706 269.413C777.399 270.736 776.894 272.368 775.574 273.067C772.515 274.675 769.209 276.116 765.757 277.324C758.291 279.936 750.103 281.457 742.045 281.407C742.161 287.366 744.49 292.552 748.819 296.406C754.169 301.167 762.022 303.479 769.828 302.582C777.822 301.659 785.738 299 793.401 296.429L795.411 295.758C803.603 293.026 823.231 285.154 828.414 271.363C830.615 265.518 829.796 259.179 826.034 252.518C820.705 256.809 814.385 260.302 806.996 262.887C805.876 263.279 804.732 263.647 803.56 264.002C802.129 264.432 800.62 263.623 800.191 262.192C799.761 260.762 800.615 259.245 802.001 258.824C818.606 253.836 830.008 244.486 835.896 231.105C846.88 206.144 836.323 173.146 830.978 159.497C829.752 163.721 828.099 168.26 825.841 173.217C819.93 186.172 813.2 195.183 805.82 199.987C803.985 201.182 802.125 202.102 800.244 202.76C795.046 204.579 789.737 204.341 784.628 202.01C777.669 198.839 773.391 192.849 772.25 184.686C771.048 176.054 773.375 165.191 779.154 152.401C760.003 149.117 734.401 161.901 724.21 167.594L724.226 167.596Z" fill="#FCFFFF"/>
<path d="M769.683 27.4232C765.191 23.1921 759.168 21.1408 753.152 21.7988C747.419 22.4289 742.483 25.3814 739.254 30.1164C718.369 60.7862 754.555 147.623 754.924 148.498C754.981 148.636 754.976 148.78 755.011 148.926C763.938 146.625 773.259 145.585 781.588 147.359C784.404 141.827 787.407 137.124 790.573 133.178C796.343 63.7605 779.98 37.1263 769.683 27.4232Z" fill="#FCFFFF"/>
<path d="M819.219 126.136C815.824 124.588 812.136 124.487 808.367 125.806C806.543 126.444 804.693 127.416 802.841 128.72C796.149 133.433 789.718 142.261 784.256 154.26C778.781 166.271 776.551 176.255 777.618 183.937C778.502 190.261 781.617 194.69 786.883 197.085C792.148 199.48 797.533 198.94 802.881 195.448C809.384 191.212 815.459 182.975 820.927 170.966C831.183 148.467 830.525 131.288 819.21 126.131L819.219 126.136Z" fill="#FCFFFF"/>
<path d="M696.914 166.115C698.306 165.572 698.99 164.005 698.441 162.616C698.424 162.566 698.394 162.482 698.35 162.379C697.651 162.323 696.961 162.272 696.297 162.227C694.993 162.138 693.707 162.122 692.435 162.124C693.042 163.635 693.395 164.531 693.415 164.588C693.964 165.977 695.582 166.715 696.921 166.112L696.914 166.115Z" fill="#100A5F"/>
<path d="M716.872 165.646C715.609 166.444 715.237 168.116 716.033 169.371C716.83 170.634 718.493 171.025 719.765 170.208C719.842 170.157 721.483 169.132 724.229 167.602C721.944 166.765 719.594 166.038 717.23 165.426C717.068 165.53 716.93 165.61 716.872 165.646Z" fill="#100A5F"/>
<path d="M737.593 155.589C737.883 157.053 739.306 158.002 740.77 157.711C740.895 157.683 741.019 157.655 741.139 157.614C742.393 157.175 743.162 155.87 742.892 154.534C742.787 154.009 742.671 153.472 742.564 152.941C740.813 153.609 739.112 154.306 737.468 155.008C737.504 155.201 737.55 155.399 737.585 155.592L737.593 155.589Z" fill="#100A5F"/>
<path d="M753.323 152.103C753.379 152.083 753.428 152.066 753.485 152.046C754.718 151.528 755.312 150.197 755.013 148.934C753.28 149.382 751.555 149.875 749.859 150.405C749.879 150.462 749.923 150.565 749.944 150.605C750.502 151.927 751.984 152.571 753.323 152.103Z" fill="#100A5F"/>
<path d="M734.812 212.854C733.36 212.5 731.913 213.402 731.559 214.854C731.214 216.287 732.085 217.713 733.504 218.086C735.37 216.754 736.997 215.37 738.389 214.037C736.243 213.215 734.874 212.872 734.812 212.854Z" fill="#100A5F"/>
<path d="M742.033 280.968C742.032 279.474 740.82 278.27 739.326 278.271C737.825 278.274 736.621 279.486 736.629 280.978C736.625 281.034 736.638 281.093 736.641 281.147C738.435 281.326 740.241 281.405 742.063 281.416C742.059 281.268 742.04 281.124 742.043 280.973L742.033 280.968Z" fill="#100A5F"/>
<path d="M826.77 248.363C825.483 249.113 825.05 250.767 825.801 252.054C825.886 252.206 825.954 252.356 826.039 252.508C827.457 251.364 828.805 250.157 830.08 248.896C829.238 247.981 827.881 247.697 826.77 248.363Z" fill="#100A5F"/>
<path d="M790.509 133.968C790.38 135.452 791.488 136.764 792.969 136.886C794.453 137.015 795.765 135.908 795.895 134.424C796.114 131.865 796.294 129.375 796.449 126.925C794.431 128.706 792.468 130.8 790.563 133.174C790.539 133.444 790.526 133.701 790.502 133.971L790.509 133.968Z" fill="#100A5F"/>
<path d="M779.17 152.403C779.708 152.492 780.247 152.588 780.777 152.703C781.291 152.816 781.801 152.78 782.258 152.62C783.111 152.321 783.794 151.608 784.006 150.656C784.334 149.198 783.418 147.755 781.959 147.427C781.832 147.401 781.706 147.381 781.578 147.355C780.815 148.856 780.068 150.405 779.335 152.014C779.277 152.145 779.228 152.273 779.168 152.396L779.17 152.403Z" fill="#100A5F"/>
<path d="M829.58 149.558C828.235 150.211 827.669 151.824 828.319 153.162C828.37 153.263 829.469 155.59 830.995 159.499C831.92 156.314 832.576 153.333 832.979 150.551C832.247 149.431 830.818 148.983 829.58 149.558Z" fill="#100A5F"/>
</g>
<defs>
<clipPath id="clip0_506_3924">
<rect width="880.432" height="769" fill="white"/>
</clipPath>
<clipPath id="clip1_506_3924">
<rect y="36.001" width="733" height="733" rx="366.5" fill="white"/>
</clipPath>
<clipPath id="clip2_506_3924">
<rect width="370.408" height="376.319" fill="white" transform="translate(143.778 274.524) rotate(-12.9416)"/>
</clipPath>
</defs>
</svg>
