<svg width="733" height="733" viewBox="0 0 733 733" fill="none" xmlns="http://www.w3.org/2000/svg">
<g clip-path="url(#clip0_505_3836)">
<rect width="733" height="733" rx="366.5" fill="#D2F206"/>
<path d="M587.909 398.774C582.857 400.463 577.459 402.098 572.049 402.665C573.205 402.543 581.093 427.581 581.93 430.277C584.871 439.736 587.308 449.738 586.709 459.702C585.718 476.371 578.005 492.85 564.399 502.863C555.284 509.57 544.842 512.489 534.261 515.833C522.663 519.495 448.885 543.034 437.292 546.715C436.133 547.083 434.818 547.604 434.463 548.761C434.239 549.495 434.468 550.282 434.701 551.013L442.805 576.494C443.078 577.308 443.23 578.345 443.983 578.761C447.266 580.583 452.264 578.83 455.546 577.581C462.204 575.04 531.238 553.303 537.986 551.041C552.243 546.233 568.458 542.407 581.209 534.536C607.346 519.139 623.345 491.541 624.143 461.304C624.514 447.255 622.285 433.249 618.458 419.758C617.856 417.629 607.753 389.897 607.257 390.184C601.15 393.751 594.489 396.586 587.905 398.782L587.909 398.774Z" fill="#100A5F"/>
<path d="M-21.6357 775.755C-15.8076 774.102 -9.59061 772.528 -3.41602 772.167C-4.73516 772.245 -12.3827 743.39 -13.192 740.284C-16.036 729.384 -18.28 717.895 -17.0776 706.608C-15.0773 687.725 -5.45149 669.411 10.5286 658.751C21.234 651.61 33.2491 648.842 45.4428 645.598C58.81 642.046 143.851 619.176 157.212 615.603C158.548 615.245 160.07 614.723 160.534 613.427C160.827 612.605 160.607 611.699 160.381 610.856L152.512 581.487C152.245 580.548 152.126 579.362 151.292 578.85C147.659 576.608 141.89 578.337 138.096 579.584C130.399 582.121 50.8418 603.193 43.0587 605.409C26.6108 610.122 7.9913 613.618 -6.90583 621.89C-37.4033 638.01 -57.0232 668.52 -59.5158 702.826C-60.674 718.764 -58.8758 734.791 -55.2364 750.317C-54.6641 752.767 -44.6418 784.799 -44.0638 784.498C-36.9394 780.767 -29.2246 777.896 -21.6305 775.746L-21.6357 775.755Z" fill="#100A5F"/>
<rect x="70.7903" y="266.296" width="372.716" height="567.691" rx="28.4322" transform="rotate(-11.2576 70.7903 266.296)" fill="white" stroke="#100A5F" stroke-width="14.9498"/>
<g clip-path="url(#clip1_505_3836)">
<path d="M333.343 605.455C300.708 612.955 272.474 611.107 255.885 600.376C246.688 594.432 240.926 585.917 238.761 575.077C236.804 565.283 238.046 557.376 242.448 551.577C246.921 545.677 254.418 542.277 264.749 541.512C272.993 540.884 280.824 540.856 287.511 540.885C307.806 540.962 328.17 536.283 346.396 527.354C352.395 524.409 359.442 521.018 367.143 517.982C376.628 514.22 384.765 513.975 391.316 517.205C397.535 520.275 402.023 526.334 404.659 535.199C404.805 535.513 404.913 535.845 404.967 536.195C405.053 536.454 405.161 536.787 405.179 536.846C407.96 547.528 406.492 557.699 400.818 567.066C390.573 583.963 365.978 597.951 333.342 605.45L333.343 605.455ZM259.437 550.259C254.555 551.381 250.966 553.42 248.74 556.359C245.767 560.28 245.014 566.061 246.511 573.533C248.241 582.207 252.836 589.004 260.17 593.746C274.979 603.32 301.006 604.782 331.574 597.757C362.143 590.733 384.921 578.056 394.066 562.978C398.594 555.509 399.759 547.384 397.531 538.829C397.513 538.754 397.471 538.617 397.422 538.45C397.34 538.274 397.272 538.095 397.219 537.908C395.244 530.982 392.084 526.405 387.826 524.298C383.368 522.096 377.385 522.456 370.048 525.34C362.617 528.273 356.01 531.452 349.874 534.46C330.568 543.926 308.986 548.885 287.484 548.796C280.65 548.769 273.308 548.795 265.348 549.4C263.204 549.561 261.237 549.856 259.445 550.267L259.437 550.259Z" fill="#100A5F"/>
<path d="M332.757 602.904C330.63 603.393 328.512 602.066 328.023 599.94L315.35 544.79C314.862 542.663 316.188 540.545 318.315 540.056C320.442 539.567 322.56 540.894 323.049 543.02L335.722 598.171C336.21 600.297 334.884 602.416 332.757 602.904Z" fill="#100A5F"/>
<path d="M373.899 585.624C371.772 586.113 369.654 584.786 369.165 582.659L357.138 530.32C356.649 528.193 357.976 526.075 360.103 525.586C362.229 525.097 364.347 526.424 364.836 528.551L376.863 580.89C377.352 583.017 376.026 585.135 373.899 585.624Z" fill="#100A5F"/>
<path d="M285.793 605.871C283.666 606.36 281.548 605.033 281.059 602.906L269.032 550.567C268.543 548.44 269.87 546.322 271.997 545.833C274.123 545.345 276.242 546.671 276.73 548.798L288.758 601.137C289.246 603.264 287.92 605.382 285.793 605.871Z" fill="#100A5F"/>
<path d="M381.917 520.452C420.188 511.658 441.482 462.186 429.479 409.954C417.477 357.722 376.722 322.509 338.452 331.303C300.182 340.097 278.888 389.569 290.89 441.801C302.893 494.033 343.647 529.246 381.917 520.452Z" fill="white"/>
<path d="M382.802 524.302C342.474 533.569 299.513 496.958 287.041 442.686C274.57 388.415 297.239 336.722 337.568 327.455C377.896 318.187 420.857 354.799 433.329 409.07C445.8 463.342 423.131 515.035 382.802 524.302ZM339.337 335.153C303.252 343.445 283.249 390.888 294.745 440.916C306.241 490.944 344.948 524.896 381.033 516.604C417.118 508.312 437.122 460.869 425.625 410.841C414.129 360.812 375.422 326.861 339.337 335.153Z" fill="#100A5F"/>
<path d="M398.304 485.655C424.646 479.602 439.304 445.548 431.042 409.595C422.78 373.641 394.727 349.402 368.385 355.455C342.042 361.509 327.385 395.562 335.647 431.516C343.909 467.47 371.961 491.708 398.304 485.655Z" fill="#100A5F"/>
<path d="M313.061 410.742L370.985 432.231L350.497 487.375L313.061 410.742Z" fill="white"/>
<path d="M409.486 365.107C391.002 339.427 364.187 325.385 338.451 331.299C311.098 337.585 292.498 364.696 288.45 398.702C323.634 396.919 374.273 389.703 409.486 365.107Z" fill="white"/>
<path d="M347.912 394.771C326.999 399.577 306.151 401.761 288.651 402.644C287.488 402.707 286.363 402.245 285.564 401.399C284.768 400.546 284.387 399.388 284.526 398.231C288.949 361.075 309.274 333.951 337.566 327.45C363.861 321.407 392.65 334.954 412.688 362.799C413.306 363.661 413.557 364.728 413.372 365.774C413.196 366.819 412.61 367.742 411.739 368.347C393.153 381.332 370.487 389.584 347.907 394.772L347.912 394.771ZM293.031 394.485C326.762 392.373 371.321 385.25 403.837 364.15C385.872 341.141 361.458 330.069 339.341 335.152C315.563 340.616 298.099 363.156 293.037 394.488L293.031 394.485Z" fill="#100A5F"/>
<path d="M252.535 550.185C290.805 541.39 312.099 491.919 300.096 439.687C288.094 387.455 247.34 352.241 209.069 361.036C170.799 369.83 149.505 419.301 161.508 471.533C173.51 523.766 214.264 558.979 252.535 550.185Z" fill="white"/>
<path d="M253.414 554.034C213.086 563.302 170.125 526.69 157.653 472.419C145.182 418.147 167.85 366.45 208.179 357.182C248.507 347.915 291.468 384.526 303.939 438.798C316.411 493.069 293.742 544.762 253.413 554.029L253.414 554.034ZM209.949 364.885C173.864 373.178 153.861 420.621 165.357 470.649C176.853 520.677 215.56 554.628 251.645 546.336C287.73 538.044 307.734 490.601 296.237 440.573C284.741 390.545 246.034 356.593 209.949 364.885Z" fill="#100A5F"/>
<path d="M268.916 515.389C295.259 509.335 309.916 475.282 301.654 439.328C293.392 403.374 265.34 379.135 238.997 385.189C212.655 391.242 197.997 425.296 206.259 461.249C214.521 497.203 242.574 521.442 268.916 515.389Z" fill="#100A5F"/>
<path d="M183.678 440.474L241.597 461.964L221.113 517.107L183.678 440.474Z" fill="white"/>
<path d="M280.099 394.838C261.615 369.159 234.799 355.117 209.063 361.031C181.71 367.316 163.11 394.428 159.062 428.433C194.246 426.65 244.885 419.434 280.099 394.838Z" fill="white"/>
<path d="M218.529 424.504C197.616 429.309 176.763 431.494 159.264 432.378C158.101 432.44 156.975 431.979 156.176 431.132C155.381 430.279 154.999 429.121 155.138 427.965C159.561 390.808 179.887 363.684 208.179 357.183C234.474 351.141 263.261 364.682 283.305 392.531C283.924 393.393 284.173 394.455 283.989 395.507C283.814 396.551 283.227 397.474 282.357 398.079C263.77 411.064 241.105 419.316 218.524 424.505L218.529 424.504ZM163.643 424.218C197.385 422.104 241.942 414.976 274.449 393.883C256.485 370.875 232.07 359.803 209.954 364.885C186.175 370.349 168.712 392.889 163.649 424.222L163.643 424.218Z" fill="#100A5F"/>
<path d="M134.88 346.69C130.978 352.401 127.941 361.093 132.56 366.628C136.993 371.943 144.676 369.694 150.069 366.289C159.436 360.368 167.461 352.264 175.41 344.225C184.072 335.465 187.474 316.14 170.577 317.726C157.725 318.934 142.018 336.241 134.88 346.69Z" fill="#100A5F"/>
<path d="M387.498 286.321C393.84 289.079 401.041 294.82 400.08 301.962C399.16 308.823 391.459 311.013 385.08 310.997C374 310.972 362.889 308.391 351.88 305.817C339.883 303.013 326.717 288.468 341.857 280.816C353.38 274.993 375.886 281.279 387.495 286.327L387.498 286.321Z" fill="#100A5F"/>
<path d="M178.073 601.946C176.481 602.312 174.773 602.2 173.147 601.528C169.009 599.809 167.05 595.055 168.77 590.923L176.723 571.804C178.446 567.66 183.186 565.709 187.328 567.427C191.465 569.146 193.425 573.9 191.704 578.032L183.752 597.151C182.706 599.668 180.538 601.375 178.067 601.942L178.073 601.946Z" fill="#100A5F"/>
<path d="M202.156 596.412C200.569 596.777 198.856 596.666 197.23 595.994C193.098 594.273 191.134 589.526 192.854 585.389L200.802 566.271C202.527 562.137 207.275 560.179 211.406 561.894C215.539 563.615 217.502 568.362 215.783 572.499L207.835 591.618C206.789 594.134 204.622 595.841 202.15 596.408L202.156 596.412Z" fill="#100A5F"/>
<path d="M430.574 543.925C428.981 544.291 427.273 544.179 425.647 543.506C421.51 541.787 419.55 537.034 421.271 532.902L429.224 513.782C430.937 509.641 435.686 507.688 439.828 509.406C443.966 511.125 445.925 515.878 444.205 520.01L436.252 539.13C435.206 541.646 433.039 543.353 430.567 543.921L430.574 543.925Z" fill="#100A5F"/>
<path d="M454.652 538.392C453.065 538.757 451.352 538.646 449.726 537.973C445.593 536.253 443.63 531.506 445.349 527.369L453.297 508.25C455.023 504.117 459.766 502.16 463.902 503.874C468.034 505.594 469.998 510.341 468.278 514.479L460.331 533.597C459.285 536.113 457.117 537.82 454.646 538.388L454.652 538.392Z" fill="#100A5F"/>
</g>
<path d="M574.904 394.628C559.624 399.974 540.751 400.037 528.528 388.27C524.724 384.612 521.549 380.088 518.482 375.72C516.427 372.796 514.489 370.037 512.382 367.517C509.368 363.91 505.731 360.52 502.213 357.242C493.691 349.294 484.875 341.076 482.824 328.4C480.717 315.411 485.897 305.812 497.794 300.638C503.358 298.211 509.616 297.214 516.379 297.658C526.849 298.344 541.314 300.682 550.782 307.926C555.677 311.675 558.609 317.143 559.039 323.32C559.477 329.693 557.119 335.993 552.563 340.598C545.614 347.618 530.461 357.455 507.008 344.409C505.909 343.801 505.517 342.413 506.125 341.314C506.739 340.213 508.119 339.817 509.219 340.431C529.002 351.439 541.949 344.851 549.326 337.401C552.962 333.725 554.844 328.71 554.494 323.638C554.16 318.779 551.857 314.483 548.012 311.546C538.999 304.649 524.135 302.73 516.079 302.206C510.046 301.812 504.514 302.695 499.609 304.818C489.694 309.126 485.559 316.82 487.319 327.673C489.122 338.805 496.991 346.142 505.325 353.915C508.942 357.285 512.68 360.773 515.876 364.597C518.109 367.265 520.193 370.233 522.209 373.104C525.154 377.295 528.197 381.632 531.688 384.986C544.611 397.421 566.337 394.755 581.056 387.008C582.167 386.433 583.545 386.85 584.134 387.962C584.717 389.077 584.292 390.451 583.179 391.04C580.603 392.395 577.817 393.609 574.91 394.626L574.904 394.628Z" fill="#100A5F"/>
<path d="M554.157 293.778C554.056 293.813 553.954 293.843 553.846 293.86C552.613 294.105 551.415 293.306 551.17 292.073C548.866 280.557 546.051 268.515 543.245 258.174C539.762 245.306 535.229 230.295 528.097 216.572C523.357 207.461 516.802 196.913 508.098 196.229C501.318 195.698 492.834 200.877 489.567 207.549C487.033 212.718 486.469 219.235 487.84 227.474C489.075 234.908 491.967 242.468 496.428 249.945C504.794 263.975 517.642 296.604 518.187 297.991C518.644 299.164 518.067 300.484 516.901 300.939C515.779 301.445 514.41 300.825 513.947 299.655C513.817 299.321 500.696 265.988 492.518 252.285C487.763 244.311 484.679 236.219 483.348 228.227C481.818 219.018 482.513 211.602 485.477 205.549C489.547 197.232 499.855 191.021 508.456 191.695C520.789 192.661 528.742 207.948 532.139 214.479C539.478 228.582 544.093 243.884 547.647 256.993C550.474 267.433 553.311 279.575 555.636 291.189C555.863 292.315 555.216 293.414 554.159 293.784L554.157 293.778Z" fill="#100A5F"/>
<path d="M564.421 289.134C563.294 289.529 562.043 288.981 561.575 287.872C560.271 284.772 529.83 211.683 548.809 183.81C552.242 178.772 557.693 175.506 563.781 174.842C570.176 174.142 576.571 176.314 581.322 180.793C590.629 189.558 605.472 213.364 600.283 274.256C600.176 275.512 599.075 276.437 597.818 276.33C596.568 276.221 595.637 275.122 595.746 273.872C600.771 214.889 586.912 192.317 578.202 184.116C574.417 180.551 569.343 178.823 564.275 179.377C559.446 179.908 555.288 182.395 552.567 186.384C534.973 212.222 565.457 285.375 565.768 286.112C566.255 287.274 565.716 288.608 564.554 289.095C564.506 289.111 564.465 289.126 564.417 289.142L564.421 289.134Z" fill="#100A5F"/>
<path d="M588.797 289.571C588.411 289.706 587.976 289.738 587.549 289.641C567.031 285.038 536.456 304.194 536.15 304.388C535.085 305.074 533.684 304.744 533.006 303.683C532.337 302.625 532.65 301.217 533.713 300.545C535.027 299.712 566.185 280.185 588.547 285.202C589.776 285.478 590.548 286.694 590.272 287.922C590.091 288.718 589.517 289.325 588.799 289.576L588.797 289.571Z" fill="#100A5F"/>
<path d="M575.333 374.478C575.197 374.525 575.05 374.563 574.898 374.583C573.654 374.759 572.503 373.889 572.322 372.647C569.152 350.166 548.637 344.949 547.766 344.741C546.542 344.443 545.794 343.219 546.087 341.998C546.379 340.777 547.6 340.023 548.827 340.313C549.069 340.376 573.217 346.406 576.836 372.014C576.991 373.105 576.336 374.127 575.333 374.478Z" fill="#100A5F"/>
<path d="M609.643 382.461C608.699 382.791 607.735 383.102 606.748 383.401C605.542 383.762 604.272 383.081 603.91 381.876C603.548 380.671 604.267 379.393 605.434 379.038C619.423 374.836 629.028 366.96 633.989 355.687C645.887 328.646 627.78 290.41 627.594 290.029C627.05 288.894 627.527 287.535 628.656 286.994C629.792 286.47 631.15 286.927 631.694 288.062C632.482 289.705 650.889 328.587 638.156 357.526C632.987 369.271 623.403 377.646 609.637 382.463L609.643 382.461Z" fill="#100A5F"/>
<path d="M602.38 414.107C602.012 414.236 601.662 414.358 601.327 414.469L599.64 415.033C592.965 417.275 586.064 419.596 578.849 420.429C570.999 421.33 563.059 418.967 557.601 414.103C552.868 409.884 550.359 404.216 550.35 397.698C550.351 396.446 551.357 395.421 552.622 395.418C553.88 395.417 554.902 396.432 554.902 397.69C554.909 402.87 556.891 407.371 560.626 410.7C565.133 414.711 571.749 416.659 578.325 415.903C585.06 415.125 591.729 412.885 598.184 410.72L599.877 410.154C606.778 407.853 623.313 401.221 627.68 389.603C629.576 384.571 628.833 379.096 625.475 373.344C624.842 372.26 625.207 370.867 626.292 370.235C627.372 369.59 628.769 369.967 629.407 371.049C633.493 378.045 634.345 384.82 631.943 391.202C627.109 404.056 610.408 411.298 602.374 414.109L602.38 414.107Z" fill="#100A5F"/>
<path d="M603.963 331.812C599.584 333.344 595.111 333.144 590.808 331.18C584.944 328.509 581.341 323.463 580.38 316.586C579.356 309.245 581.356 299.98 586.336 289.066C591.346 278.069 597.129 270.211 603.516 265.719C609.602 261.431 616.102 260.516 621.823 263.123C631.291 267.436 637.243 281.212 625.526 306.924C620.546 317.838 614.877 325.429 608.66 329.476C607.114 330.483 605.547 331.258 603.963 331.812ZM610.794 266.989C609.257 267.526 607.698 268.345 606.138 269.443C600.501 273.414 595.084 280.851 590.482 290.959C585.87 301.078 583.991 309.488 584.89 315.96C585.635 321.288 588.259 325.018 592.695 327.036C597.13 329.054 601.667 328.599 606.172 325.658C611.65 322.089 616.768 315.15 621.374 305.033C630.014 286.079 629.46 271.607 619.928 267.263C617.067 265.959 613.96 265.874 610.786 266.985L610.794 266.989Z" fill="#100A5F"/>
<path d="M543.245 258.174C539.762 245.307 535.229 230.295 528.096 216.573C523.357 207.462 516.802 196.914 508.098 196.23C501.318 195.698 492.833 200.878 489.566 207.549C487.032 212.718 486.469 219.236 487.84 227.475C489.075 234.908 491.967 242.468 496.428 249.945C504.559 263.571 516.919 294.766 518.111 297.792C522.981 298.179 528.548 298.936 534.018 300.352C535.539 299.407 542.223 295.363 551.071 291.582C548.785 280.213 546.014 268.375 543.251 258.172L543.245 258.174Z" fill="#FCFFFF"/>
<path d="M539.909 302.187C543.865 303.633 547.603 305.502 550.776 307.929C555.671 311.677 558.603 317.145 559.033 323.322C559.471 329.696 557.113 335.996 552.557 340.6C552.326 340.834 552.087 341.065 551.838 341.305C558.47 343.853 573.988 351.884 576.833 372.008C576.989 373.099 576.334 374.121 575.331 374.472C575.194 374.52 575.048 374.558 574.895 374.578C573.651 374.753 572.501 373.884 572.319 372.642C569.149 350.16 548.635 344.943 547.763 344.735C547.749 344.733 547.737 344.718 547.723 344.716C539.572 350.525 526.013 354.983 506.994 344.407C505.895 343.799 505.503 342.411 506.111 341.313C506.725 340.212 508.105 339.816 509.205 340.43C528.988 351.437 541.935 344.85 549.312 337.4C552.948 333.723 554.83 328.709 554.48 323.636C554.146 318.778 551.844 314.482 547.999 311.545C538.985 304.648 524.121 302.729 516.065 302.204C510.033 301.81 504.501 302.694 499.595 304.816C489.68 309.125 485.546 316.819 487.305 327.672C489.108 338.803 496.977 346.14 505.312 353.914C508.928 357.284 512.666 360.772 515.862 364.595C518.095 367.264 520.179 370.231 522.196 373.102C525.141 377.294 528.183 381.63 531.675 384.984C544.597 397.42 566.323 394.754 581.042 387.006C582.153 386.431 583.531 386.848 584.12 387.961C584.703 389.076 584.278 390.45 583.166 391.039C580.589 392.393 577.804 393.607 574.896 394.625C568.606 396.826 561.708 398.107 554.92 398.064C555.018 403.085 556.98 407.454 560.626 410.7C565.133 414.711 571.749 416.659 578.325 415.903C585.059 415.126 591.729 412.886 598.184 410.72L599.877 410.154C606.778 407.853 623.313 401.222 627.68 389.603C629.534 384.679 628.844 379.339 625.675 373.728C621.186 377.343 615.861 380.285 609.637 382.463C608.693 382.793 607.729 383.104 606.742 383.402C605.536 383.764 604.266 383.083 603.904 381.878C603.542 380.672 604.261 379.395 605.429 379.04C619.417 374.838 629.022 366.962 633.983 355.689C643.237 334.661 634.343 306.863 629.84 295.364C628.807 298.922 627.415 302.747 625.512 306.922C620.532 317.836 614.863 325.427 608.646 329.474C607.1 330.481 605.533 331.256 603.949 331.81C599.57 333.342 595.097 333.142 590.794 331.178C584.931 328.507 581.327 323.461 580.366 316.584C579.353 309.312 581.313 300.161 586.182 289.387C570.048 286.62 548.481 297.389 539.895 302.185L539.909 302.187Z" fill="#FCFFFF"/>
<path d="M578.203 184.102C574.418 180.537 569.345 178.809 564.277 179.364C559.447 179.895 555.289 182.382 552.569 186.371C534.974 212.208 565.459 285.361 565.77 286.098C565.817 286.215 565.813 286.336 565.843 286.459C573.363 284.521 581.216 283.645 588.232 285.139C590.605 280.479 593.135 276.517 595.801 273.193C600.662 214.714 586.878 192.276 578.203 184.102Z" fill="#FCFFFF"/>
<path d="M619.934 267.26C617.073 265.957 613.967 265.871 610.792 266.982C609.255 267.52 607.697 268.338 606.136 269.437C600.499 273.408 595.082 280.844 590.48 290.953C585.868 301.072 583.989 309.482 584.888 315.954C585.633 321.281 588.257 325.012 592.693 327.03C597.129 329.048 601.665 328.593 606.17 325.651C611.649 322.083 616.767 315.143 621.372 305.027C630.013 286.072 629.458 271.6 619.926 267.256L619.934 267.26Z" fill="#FCFFFF"/>
<path d="M516.901 300.939C518.073 300.482 518.65 299.161 518.187 297.991C518.173 297.95 518.148 297.879 518.111 297.792C517.521 297.745 516.94 297.702 516.381 297.664C515.282 297.589 514.199 297.575 513.127 297.577C513.639 298.85 513.936 299.605 513.953 299.653C514.416 300.823 515.779 301.445 516.907 300.937L516.901 300.939Z" fill="#100A5F"/>
<path d="M533.714 300.545C532.65 301.217 532.337 302.625 533.007 303.683C533.678 304.746 535.079 305.076 536.151 304.388C536.216 304.345 537.598 303.481 539.912 302.193C537.986 301.487 536.007 300.875 534.015 300.359C533.879 300.447 533.763 300.514 533.714 300.545Z" fill="#100A5F"/>
<path d="M551.169 292.072C551.414 293.305 552.613 294.105 553.846 293.86C553.951 293.836 554.056 293.813 554.157 293.778C555.213 293.408 555.861 292.309 555.634 291.183C555.545 290.741 555.447 290.289 555.357 289.841C553.882 290.404 552.45 290.992 551.065 291.583C551.095 291.745 551.133 291.912 551.163 292.074L551.169 292.072Z" fill="#100A5F"/>
<path d="M564.421 289.135C564.468 289.119 564.51 289.104 564.557 289.087C565.597 288.65 566.097 287.53 565.845 286.466C564.385 286.843 562.932 287.258 561.503 287.705C561.52 287.753 561.557 287.839 561.575 287.873C562.045 288.987 563.293 289.53 564.421 289.135Z" fill="#100A5F"/>
<path d="M548.827 340.314C547.604 340.016 546.384 340.775 546.086 341.998C545.796 343.206 546.53 344.408 547.725 344.722C549.297 343.599 550.668 342.434 551.84 341.311C550.032 340.618 548.879 340.329 548.827 340.314Z" fill="#100A5F"/>
<path d="M554.91 397.695C554.909 396.437 553.888 395.422 552.63 395.423C551.365 395.425 550.351 396.446 550.357 397.703C550.354 397.751 550.365 397.8 550.367 397.846C551.879 397.996 553.401 398.063 554.936 398.072C554.932 397.947 554.916 397.826 554.918 397.699L554.91 397.695Z" fill="#100A5F"/>
<path d="M626.295 370.227C625.211 370.859 624.846 372.253 625.478 373.337C625.55 373.465 625.607 373.591 625.679 373.72C626.873 372.755 628.01 371.739 629.083 370.677C628.374 369.906 627.231 369.666 626.295 370.227Z" fill="#100A5F"/>
<path d="M595.748 273.858C595.639 275.108 596.572 276.213 597.82 276.316C599.07 276.425 600.176 275.492 600.284 274.242C600.469 272.086 600.621 269.988 600.751 267.924C599.052 269.425 597.398 271.189 595.793 273.189C595.773 273.416 595.762 273.633 595.742 273.86L595.748 273.858Z" fill="#100A5F"/>
<path d="M586.196 289.388C586.648 289.463 587.103 289.544 587.55 289.641C587.982 289.736 588.411 289.705 588.797 289.57C589.515 289.319 590.091 288.718 590.27 287.916C590.546 286.687 589.774 285.472 588.545 285.196C588.438 285.174 588.332 285.157 588.224 285.135C587.581 286.399 586.952 287.705 586.334 289.06C586.286 289.17 586.244 289.278 586.194 289.382L586.196 289.388Z" fill="#100A5F"/>
<path d="M628.662 286.992C627.529 287.541 627.052 288.9 627.6 290.028C627.643 290.112 628.568 292.073 629.854 295.366C630.633 292.683 631.186 290.171 631.525 287.828C630.909 286.885 629.705 286.507 628.662 286.992Z" fill="#100A5F"/>
</g>
<rect x="15.5" y="15.5" width="702" height="702" rx="351" stroke="white" stroke-width="31"/>
<defs>
<clipPath id="clip0_505_3836">
<rect width="733" height="733" rx="366.5" fill="white"/>
</clipPath>
<clipPath id="clip1_505_3836">
<rect width="312.043" height="317.022" fill="white" transform="translate(107.729 332.015) rotate(-12.9416)"/>
</clipPath>
</defs>
</svg>
