<svg width="189" height="189" viewBox="0 0 189 189" fill="none" xmlns="http://www.w3.org/2000/svg">
<mask id="mask0_143_4156" style="mask-type:luminance" maskUnits="userSpaceOnUse" x="0" y="0" width="189" height="189">
<path d="M94.35 188.7C146.458 188.7 188.7 146.458 188.7 94.35C188.7 42.2419 146.458 0 94.35 0C42.2419 0 0 42.2419 0 94.35C0 146.458 42.2419 188.7 94.35 188.7Z" fill="white"/>
</mask>
<g mask="url(#mask0_143_4156)">
<path d="M64.7802 229.71C53.6602 229.71 43.4502 227.12 36.7302 225.17C22.2902 220.98 23.7902 212.97 26.2602 199.68L26.4002 198.92C28.7002 186.53 27.7002 175.01 27.5402 173.41C25.1202 171.23 23.1202 166.95 22.3102 165.03C15.0602 177.67 3.36019 189.62 -0.659813 190.89C-1.78981 191.24 -2.66981 191.4 -3.52981 191.4C-6.03981 191.4 -8.53981 189.98 -13.9398 186.77C-20.3598 182.96 -29.9898 162.6 -34.0998 153.91C-34.8198 152.39 -35.3398 151.3 -35.5698 150.85C-35.9198 150.21 -36.7898 149.32 -37.7998 148.29C-41.0398 144.99 -46.4598 139.46 -44.7898 131.43C-43.8498 126.91 -40.5198 122.64 -35.4098 119.4C-30.8798 116.52 -25.4498 114.81 -20.8998 114.81C-20.2498 114.81 -19.6198 114.85 -19.0198 114.92C-15.2298 115.37 -12.5398 118.19 -11.2198 123.07C-10.3898 126.16 -10.3498 129.11 -10.3698 129.98C-7.68981 132.3 -4.63981 139.79 -3.49981 142.75C-1.11981 137.13 2.47019 132.41 3.06019 131.66C3.34019 130.05 6.33019 113.9 13.8502 104.37C20.7602 95.6004 31.3202 94.9204 34.3902 94.9204C34.8202 94.9204 35.0502 94.9304 35.0502 94.9304C35.6202 94.9604 93.1302 97.5304 97.1102 97.8504C101.18 98.1804 116.76 102.24 120.57 111.41C123.38 118.19 117.41 143.38 113.46 160.04C112.16 165.53 111.13 169.86 110.83 171.87C110.09 176.77 112.58 188.21 114.41 196.56C115.56 201.84 116.39 205.66 116.26 206.89C115.86 210.59 102.92 220.35 85.8602 226.26C79.2802 228.54 72.1902 229.7 64.7902 229.7L64.7802 229.71Z" fill="#3DB8B9"/>
<path d="M34.3901 95.4302C34.8001 95.4302 35.0201 95.4402 35.0201 95.4402C35.0201 95.4402 93.0501 98.0302 97.0701 98.3602C101.09 98.6902 116.41 102.71 120.1 111.62C123.79 120.53 111.52 163.88 110.32 171.81C109.12 179.74 116.08 203.75 115.74 206.86C115.4 209.96 103.45 219.65 85.6701 225.81C78.5701 228.27 71.5301 229.22 64.7601 229.22C54.5901 229.22 45.0401 227.08 36.8501 224.7C22.5801 220.56 24.3601 212.56 26.8801 199.03C29.4001 185.5 28.0101 173.18 28.0101 173.18C24.8901 170.49 22.3701 163.9 22.3701 163.9C15.0001 177.17 2.95007 189.24 -0.819931 190.42C-1.82993 190.74 -2.67993 190.91 -3.53993 190.91C-5.87993 190.91 -8.21993 189.6 -13.6899 186.35C-21.1599 181.91 -33.5799 153.51 -35.1399 150.63C-36.6899 147.75 -46.4599 141.83 -44.3099 131.55C-42.3099 121.96 -29.6799 115.32 -20.9099 115.33C-20.2799 115.33 -19.6799 115.36 -19.0899 115.43C-10.3599 116.47 -10.8799 130.22 -10.8799 130.22C-7.62993 132.73 -3.51993 144.14 -3.51993 144.14C-0.979932 137.52 3.53007 131.88 3.53007 131.88C3.53007 131.88 6.35007 114.69 14.2401 104.69C21.0901 96.0102 31.7101 95.4302 34.3901 95.4302ZM34.3901 94.4302C31.2601 94.4302 20.5101 95.1202 13.4601 104.07C10.1101 108.32 7.26007 114.26 4.98007 121.75C3.50007 126.6 2.78007 130.45 2.60007 131.47C1.86007 132.42 -1.14993 136.45 -3.44993 141.46C-4.79993 138.05 -7.40993 132.06 -9.84993 129.77C-9.84993 127.17 -10.2899 115.46 -18.9499 114.44C-19.5599 114.37 -20.2099 114.33 -20.8799 114.33C-29.5799 114.33 -43.0599 120.8 -45.2599 131.35C-46.9899 139.64 -41.4499 145.29 -38.1399 148.66C-37.1599 149.66 -36.2999 150.53 -35.9899 151.11C-35.7599 151.54 -35.2399 152.63 -34.5299 154.14C-28.0999 167.73 -19.9799 183.76 -14.1799 187.21C-8.69993 190.47 -6.15993 191.91 -3.51993 191.91C-2.61993 191.91 -1.68993 191.74 -0.499931 191.37C1.63007 190.7 5.72007 187.25 10.1901 182.36C14.7901 177.32 19.0201 171.63 22.2601 166.14C23.2301 168.27 24.9901 171.69 27.0801 173.66C27.2801 175.81 28.1401 186.92 25.9301 198.84L25.7901 199.6C23.3501 212.69 21.7401 221.35 36.6101 225.66C43.3601 227.62 53.6201 230.22 64.8001 230.22C72.2601 230.22 79.4001 229.05 86.0401 226.76C103.9 220.57 116.37 210.75 116.77 206.97C116.91 205.72 116.23 202.51 114.91 196.48C113.1 188.17 110.62 176.78 111.34 171.97C111.64 169.98 112.67 165.66 113.96 160.18C117.93 143.45 123.92 118.17 121.05 111.24C117.16 101.85 101.31 97.7102 97.1701 97.3702C93.1801 97.0502 37.4601 94.5502 35.0801 94.4502C35.0801 94.4502 34.8301 94.4402 34.4001 94.4402L34.3901 94.4302Z" fill="#101613"/>
<path d="M85.69 225.8C103.47 219.64 115.42 209.95 115.76 206.85C116.08 203.92 109.91 182.39 110.21 173.3C110.2 173.3 110.19 173.32 110.18 173.32C101.29 181.06 99.77 195.16 99.77 195.16C99.77 195.16 92.76 208.91 89.75 211.68C86.73 214.45 49.75 220.98 48.87 211.39C47.99 201.8 56.25 180.13 53.22 175.49C50.19 170.85 42.64 163.42 34.49 157.01C26.34 150.6 20.04 122.89 20.04 122.89C13.22 131.55 17.63 148.47 17.63 148.47C17.63 148.47 3.35003 173.64 -0.979973 170.69C-5.30997 167.75 -4.90997 149.39 -4.90997 149.39C-8.46997 149.55 -13.62 166.3 -13.62 166.3C-13.62 166.3 -18.08 156.67 -27.38 150.35C-33.96 145.87 -37.01 130.65 -38.23 122.14C-41.24 124.72 -43.52 127.92 -44.27 131.55C-46.41 141.83 -36.65 147.75 -35.1 150.63C-33.55 153.51 -21.12 181.91 -13.65 186.35C-6.17997 190.79 -4.54997 191.6 -0.779972 190.42C2.99003 189.24 15.04 177.17 22.41 163.9C22.41 163.9 24.93 170.49 28.05 173.18C28.05 173.18 29.44 185.5 26.92 199.03C24.4 212.56 22.62 220.57 36.89 224.7C50.52 228.65 67.93 231.97 85.71 225.81L85.69 225.8Z" fill="#009FB9"/>
<path d="M100.53 98.9803C99.0701 98.6303 97.8601 98.4303 97.0801 98.3603C93.0601 98.0303 35.0301 95.4403 35.0301 95.4403C35.0301 95.4403 31.0001 95.2003 26.0801 96.7403C26.0301 99.4003 26.6101 102.75 28.6001 106.76C33.7901 117.23 47.8701 121.01 47.8701 121.01C47.8701 121.01 48.5601 126.46 54.8101 124C61.0501 121.54 65.8001 108.39 81.6301 107.14C92.5601 106.28 98.3301 103.15 100.54 98.9903L100.53 98.9803Z" fill="#009FB9"/>
<path d="M23.9036 143.308C22.7596 143.308 21.9676 143.06 21.5276 142.564C21.2236 142.212 21.0716 141.72 21.0716 141.088C21.0716 140.816 21.0996 140.524 21.1556 140.212L21.6476 137.452C22.0076 135.428 23.3076 134.416 25.5476 134.416C26.4756 134.416 27.1796 134.616 27.6596 135.016C28.1396 135.408 28.3796 135.948 28.3796 136.636C28.3796 136.956 28.3316 137.276 28.2356 137.596C28.1476 137.908 28.0596 138.14 27.9716 138.292L27.8396 138.532H25.7156C25.9796 138.228 26.1116 137.796 26.1116 137.236C26.1116 136.94 26.0356 136.708 25.8836 136.54C25.7316 136.364 25.5076 136.276 25.2116 136.276C24.4036 136.276 23.9236 136.724 23.7716 137.62L23.3516 140.044C23.3116 140.252 23.2916 140.456 23.2916 140.656C23.2916 141.184 23.6076 141.448 24.2396 141.448C24.9996 141.448 25.4556 141.02 25.6076 140.164H27.7676L27.7076 140.512C27.3876 142.376 26.1196 143.308 23.9036 143.308ZM33.3052 134.416C35.2332 134.416 36.1972 135.204 36.1972 136.78C36.1972 137.044 36.1692 137.328 36.1132 137.632L35.6932 140.032C35.5012 141.144 35.0852 141.968 34.4452 142.504C33.8052 143.04 32.9052 143.308 31.7452 143.308C30.5852 143.308 29.7772 143.04 29.3212 142.504C29.0092 142.136 28.8532 141.628 28.8532 140.98C28.8532 140.692 28.8852 140.376 28.9492 140.032L29.3692 137.632C29.7452 135.488 31.0572 134.416 33.3052 134.416ZM32.0692 141.448C32.4692 141.448 32.7892 141.344 33.0292 141.136C33.2692 140.928 33.4372 140.544 33.5332 139.984L33.9412 137.68C33.9652 137.52 33.9772 137.376 33.9772 137.248C33.9772 136.6 33.6492 136.276 32.9932 136.276C32.1692 136.292 31.6772 136.76 31.5172 137.68L31.1092 139.984C31.0772 140.184 31.0612 140.392 31.0612 140.608C31.0612 141.168 31.3972 141.448 32.0692 141.448ZM40.7842 143.14L40.8562 141.256H38.8522L38.2642 143.14H35.9722L39.0562 134.5H43.0162L43.0642 143.14H40.7842ZM40.2922 136.6L39.3442 139.648H40.9162L41.0482 136.6H40.2922ZM47.2357 143.308C46.0917 143.308 45.2997 143.06 44.8597 142.564C44.5557 142.212 44.4037 141.72 44.4037 141.088C44.4037 140.816 44.4317 140.524 44.4877 140.212L44.9797 137.452C45.3397 135.428 46.6397 134.416 48.8797 134.416C49.8077 134.416 50.5117 134.616 50.9917 135.016C51.4717 135.408 51.7117 135.948 51.7117 136.636C51.7117 136.956 51.6637 137.276 51.5677 137.596C51.4797 137.908 51.3917 138.14 51.3037 138.292L51.1717 138.532H49.0477C49.3117 138.228 49.4437 137.796 49.4437 137.236C49.4437 136.94 49.3677 136.708 49.2157 136.54C49.0637 136.364 48.8397 136.276 48.5437 136.276C47.7357 136.276 47.2557 136.724 47.1037 137.62L46.6837 140.044C46.6437 140.252 46.6237 140.456 46.6237 140.656C46.6237 141.184 46.9397 141.448 47.5717 141.448C48.3317 141.448 48.7877 141.02 48.9397 140.164H51.0997L51.0397 140.512C50.7197 142.376 49.4517 143.308 47.2357 143.308ZM60.1532 134.5L58.6412 143.14H56.4692L57.0212 140.02H54.6812L54.1412 143.14H51.9692L53.4932 134.5H55.6532L55.0052 138.148H57.3452L57.9932 134.5H60.1532Z" fill="white"/>
<path d="M40.3698 181.05C40.3698 181.05 69.1398 183.99 82.2498 181.05C82.2498 181.05 84.4498 190.81 93.7898 192.8C93.7898 192.8 96.5198 206.44 94.7298 211.06C92.9498 215.68 72.0598 218.95 55.2698 218.52C38.4798 218.09 29.3498 211.17 28.9298 208.65C28.5098 206.13 29.3498 195.95 30.0798 195.22C30.8098 194.49 38.2698 192.39 40.3598 181.05H40.3698Z" stroke="#101613" stroke-linecap="round" stroke-linejoin="round"/>
<path d="M36.5698 101.14C36.5698 101.14 37.9298 117.4 58.8998 148.47C58.8998 148.47 81.7398 119.27 86.7798 99.9902" stroke="#101613" stroke-linecap="round" stroke-linejoin="round"/>
<path d="M97.1997 138.93C97.7297 139.33 117.86 161.19 119.06 165.59C119.06 165.59 117.06 169.99 117.46 172.52C117.46 172.52 109.87 177.97 105.74 188.37C101.61 198.77 107.07 205.03 116.27 210.9C125.47 216.77 136.27 209.57 139.46 201.7C142.66 193.84 142.3 193.62 143.5 190.42C144.7 187.22 155.04 175.72 153.44 162.79C151.84 149.86 122.02 108.01 113.7 103.98" fill="#3DB8B9"/>
<path d="M97.1997 138.93C97.7297 139.33 117.86 161.19 119.06 165.59C119.06 165.59 117.06 169.99 117.46 172.52C117.46 172.52 109.87 177.97 105.74 188.37C101.61 198.77 107.07 205.03 116.27 210.9C125.47 216.77 136.27 209.57 139.46 201.7C142.66 193.84 142.3 193.62 143.5 190.42C144.7 187.22 155.04 175.72 153.44 162.79C151.84 149.86 122.02 108.01 113.7 103.98" stroke="#101613" stroke-linecap="round" stroke-linejoin="round"/>
<path d="M47.18 36.03C47.18 36.03 43.64 32.77 37.89 35.81C32.14 38.85 23.91 58.31 34.41 62.51C44.91 66.71 47.18 36.03 47.18 36.03Z" fill="#101613" stroke="#101613" stroke-linecap="round" stroke-linejoin="round"/>
<path d="M57.2298 120.33C54.2998 120.33 53.0798 118.05 52.7698 116.6C50.6098 115.96 38.3498 111.99 33.4898 102.18C31.3098 97.7897 29.4098 91.2297 32.7098 84.9497C32.7798 84.8197 32.8298 84.7297 32.8498 84.6797C32.9098 84.5197 33.0598 84.3697 33.2398 84.3397C35.2398 83.9797 82.2898 75.4697 90.2898 75.4697C90.5198 75.4697 90.7198 75.4697 90.8798 75.4897C94.1598 75.7597 97.9398 77.1297 101 79.1597C103.57 80.8697 106.76 83.7897 107.34 87.9997C107.76 91.0797 107.07 93.7797 105.27 96.0197C102.2 99.8297 96.0598 102.13 87.0098 102.85C76.7698 103.66 71.2898 109.5 66.8798 114.2C64.5598 116.67 62.5598 118.8 60.3298 119.68C59.1998 120.13 58.1498 120.35 57.2298 120.35V120.33Z" fill="#3DB8B9"/>
<path d="M90.2897 75.96C90.4997 75.96 90.6897 75.96 90.8397 75.98C96.8197 76.48 105.88 81.03 106.85 88.05C107.82 95.08 102.8 101.07 86.9697 102.32C71.1397 103.57 66.3897 116.72 60.1497 119.18C58.9997 119.63 58.0397 119.82 57.2297 119.82C53.6697 119.82 53.2097 116.19 53.2097 116.19C53.2097 116.19 39.1297 112.41 33.9397 101.94C28.7497 91.47 33.1497 85.41 33.3197 84.81C33.3197 84.81 82.2297 75.95 90.2797 75.95M90.2897 74.96C82.2397 74.96 35.1497 83.48 33.1497 83.84C32.7897 83.9 32.4997 84.15 32.3797 84.49C32.3597 84.54 32.3197 84.61 32.2697 84.71C28.8697 91.18 30.8197 97.9 33.0497 102.4C37.8197 112.03 49.5397 116.13 52.3597 116.99C52.7997 118.6 54.1797 120.83 57.2397 120.83C58.2297 120.83 59.3297 120.59 60.5197 120.12C62.8597 119.2 64.8997 117.03 67.2497 114.52C71.5997 109.89 77.0097 104.12 87.0497 103.33C96.2397 102.6 102.5 100.24 105.66 96.32C107.55 93.97 108.28 91.15 107.84 87.92C107.24 83.52 103.94 80.5 101.28 78.74C98.1597 76.67 94.2897 75.27 90.9297 74.99C90.7497 74.98 90.5397 74.97 90.2897 74.97V74.96Z" fill="#101613"/>
<path d="M57.2298 120.33C54.2998 120.33 53.0798 118.05 52.7698 116.6C50.6098 115.96 38.3498 111.99 33.4898 102.18C31.3098 97.7897 29.4098 91.2297 32.7098 84.9497C32.7798 84.8197 32.8298 84.7297 32.8498 84.6797C32.9098 84.5197 33.0598 84.3697 33.2398 84.3397C35.2398 83.9797 82.2898 75.4697 90.2898 75.4697C90.5198 75.4697 90.7198 75.4697 90.8798 75.4897C94.1598 75.7597 97.9398 77.1297 101 79.1597C103.57 80.8697 106.76 83.7897 107.34 87.9997C107.76 91.0797 107.07 93.7797 105.27 96.0197C102.2 99.8297 96.0598 102.13 87.0098 102.85C76.7698 103.66 71.2898 109.5 66.8798 114.2C64.5598 116.67 62.5598 118.8 60.3298 119.68C59.1998 120.13 58.1498 120.35 57.2298 120.35V120.33Z" fill="#3DB8B9"/>
<path d="M90.2897 75.96C90.4997 75.96 90.6897 75.96 90.8397 75.98C96.8197 76.48 105.88 81.03 106.85 88.05C107.82 95.08 102.8 101.07 86.9697 102.32C71.1397 103.57 66.3897 116.72 60.1497 119.18C58.9997 119.63 58.0397 119.82 57.2297 119.82C53.6697 119.82 53.2097 116.19 53.2097 116.19C53.2097 116.19 39.1297 112.41 33.9397 101.94C28.7497 91.47 33.1497 85.41 33.3197 84.81C33.3197 84.81 82.2297 75.95 90.2797 75.95M90.2897 74.96C82.2397 74.96 35.1497 83.48 33.1497 83.84C32.7897 83.9 32.4997 84.15 32.3797 84.49C32.3597 84.54 32.3197 84.61 32.2697 84.71C28.8697 91.18 30.8197 97.9 33.0497 102.4C37.8197 112.03 49.5397 116.13 52.3597 116.99C52.7997 118.6 54.1797 120.83 57.2397 120.83C58.2297 120.83 59.3297 120.59 60.5197 120.12C62.8597 119.2 64.8997 117.03 67.2497 114.52C71.5997 109.89 77.0097 104.12 87.0497 103.33C96.2397 102.6 102.5 100.24 105.66 96.32C107.55 93.97 108.28 91.15 107.84 87.92C107.24 83.52 103.94 80.5 101.28 78.74C98.1597 76.67 94.2897 75.27 90.9297 74.99C90.7497 74.98 90.5397 74.97 90.2897 74.97V74.96Z" fill="#101613"/>
<path d="M58.8697 97.5002C43.2397 97.5002 29.5897 89.0302 27.7997 78.2102C25.9297 66.9002 34.5897 59.8702 36.0997 58.7402C36.0897 45.7202 45.8997 26.5402 67.2397 26.1802C67.4797 26.1802 67.7297 26.1802 67.9697 26.1802C79.3297 26.1802 86.3297 30.8202 90.1997 34.7202C94.3997 38.9502 95.8797 43.1302 95.9397 43.3002C98.3097 50.6002 100.55 59.5402 99.2297 70.6702C98.0797 80.2902 89.2297 92.1502 67.8397 96.5802C64.8897 97.1902 61.8797 97.5002 58.8897 97.5002H58.8697Z" fill="#B06767"/>
<path d="M67.9598 26.6802C89.6198 26.6802 95.4598 43.4702 95.4598 43.4702C98.0198 51.3402 99.9998 59.9202 98.7198 70.6102C97.4398 81.3002 87.0798 92.0802 67.7198 96.0902C64.7198 96.7102 61.7498 97.0002 58.8698 97.0002C43.1498 97.0002 29.9898 88.3902 28.2898 78.1302C26.2798 65.9902 36.5898 58.9902 36.5898 58.9902C36.4598 47.5902 44.9798 27.0602 67.2298 26.6802C67.4698 26.6802 67.7098 26.6802 67.9498 26.6802M67.9598 25.6802C67.7198 25.6802 67.4698 25.6802 67.2298 25.6802C45.6898 26.0402 35.7198 45.2802 35.5998 58.4902C33.5898 60.0502 25.4698 67.1502 27.3098 78.2902C29.1398 89.3402 42.9998 98.0002 58.8698 98.0002C61.8898 98.0002 64.9398 97.6902 67.9198 97.0702C89.5798 92.5802 98.5398 80.5202 99.7098 70.7302C101.05 59.5102 98.7898 50.5002 96.4098 43.1602C96.3398 42.9702 90.0698 25.6802 67.9598 25.6802Z" fill="#101613"/>
<path d="M45.5296 81.6704C43.5196 69.5304 53.8296 62.5304 53.8296 62.5304C53.7096 51.3304 61.9496 31.3004 83.3696 30.2704C79.3196 28.1004 74.0396 26.5704 67.2296 26.6804C44.9796 27.0604 36.4596 47.5904 36.5896 58.9904C36.5896 58.9904 26.2796 65.9904 28.2896 78.1304C29.9996 88.5004 43.4197 97.1704 59.3596 96.9904C51.8396 93.5404 46.5596 87.9104 45.5296 81.6704Z" fill="#965A5A"/>
<path d="M98.3001 63.2303C98.3001 63.2303 94.9301 65.5503 92.9601 63.4603C90.9901 61.3703 85.3001 47.2703 88.0901 41.6403C90.8701 36.0103 97.1201 33.6303 102.12 34.7903C107.12 35.9503 112.03 45.8203 110.66 52.6603C109.29 59.5003 98.3001 63.2203 98.3001 63.2203V63.2303Z" fill="#101613" stroke="#101613" stroke-linecap="round" stroke-linejoin="round"/>
<path d="M74.9399 56.63C73.9599 61.82 69.6299 65.37 65.2699 64.54C60.9099 63.72 58.1699 58.84 59.1499 53.65C60.1299 48.46 64.4599 44.91 68.8199 45.74C73.1799 46.56 75.9199 51.44 74.9399 56.63Z" fill="white" stroke="#101613" stroke-linecap="round" stroke-linejoin="round"/>
<path d="M69.0398 55.5204L63.0498 54.9104C63.0698 54.7404 63.0998 54.5704 63.1298 54.4004C63.9398 50.0804 67.2798 47.0304 70.5198 47.6504C73.7598 48.2604 75.7598 52.3204 74.9398 56.6304C74.1298 60.9504 70.7898 64.0004 67.5498 63.3804C65.6598 63.0204 64.1098 61.4804 63.3798 59.2304L69.0298 55.5204H69.0398Z" fill="#101613" stroke="#101613" stroke-linecap="round" stroke-linejoin="round"/>
<path d="M51.2098 59.53C49.9898 64.67 46.3498 68.21 43.0798 67.44C39.7998 66.67 38.1398 61.87 39.3498 56.73C40.5698 51.59 44.2098 48.05 47.4798 48.82C50.7598 49.59 52.4198 54.39 51.2098 59.53Z" fill="white" stroke="#101613" stroke-linecap="round" stroke-linejoin="round"/>
<path d="M46.7698 58.4804L42.2198 57.9304C42.2498 57.7604 42.2898 57.5904 42.3298 57.4304C43.3398 53.1604 46.1698 50.1104 48.6098 50.6904C51.0398 51.2704 52.2098 55.2604 51.1998 59.5304C50.1898 63.8004 47.3598 66.8504 44.9198 66.2704C43.4998 65.9304 42.4498 64.4204 42.0898 62.2004L46.7598 58.4804H46.7698Z" fill="#101613" stroke="#101613" stroke-linecap="round" stroke-linejoin="round"/>
<path d="M47.4098 82.3C47.4098 82.3 49.3398 89.13 60.6498 87.91C71.9598 86.7 75.6898 79.32 75.3098 75.76C74.9298 72.2 71.9998 69.18 67.5998 71.26C63.1998 73.33 62.8198 75.39 58.8898 75.72C54.9498 76.06 51.5998 75.3 49.0498 76.56C46.4898 77.82 47.0798 81.51 47.4198 82.3H47.4098Z" fill="white" stroke="#101613" stroke-linecap="round" stroke-linejoin="round"/>
<path d="M50.8996 75.98C50.8996 75.98 50.4196 83.99 53.2096 87.37" stroke="#101613" stroke-linecap="round" stroke-linejoin="round"/>
<path d="M57.1396 75.98C57.1396 75.98 57.2796 84.29 60.6496 87.91" stroke="#101613" stroke-linecap="round" stroke-linejoin="round"/>
<path d="M63.3398 73.9502C63.3398 73.9502 68.6998 79.6402 69.8398 84.8302" stroke="#101613" stroke-linecap="round" stroke-linejoin="round"/>
<path d="M67.7798 71.2603C67.7798 71.2603 73.2398 75.8203 73.8798 80.7603" stroke="#101613" stroke-linecap="round" stroke-linejoin="round"/>
<path d="M76.82 67.9799C73.05 64.2699 67.93 66.4099 65.89 67.9799C63.85 69.5499 62.14 71.4399 60.03 71.8299C60.03 71.8299 57.1 72.6499 52.03 72.4799C46.97 72.2999 39.47 76.4599 39.63 85.2399C39.79 94.0199 40.78 98.9899 42.82 101.08C44.86 103.17 48.21 102.18 48.21 102.18C48.21 102.18 49.41 108.3 54.22 108.14C59.03 107.98 61.21 103.7 61.21 103.7C61.21 103.7 63.95 107.36 70.69 105.37C77.44 103.38 82.3 97.1099 82.46 88.6899C82.62 80.2699 80.58 71.6899 76.81 67.9799H76.82ZM78.31 84.6199C78.31 84.6199 74.93 89.1999 70.57 91.3699C66.21 93.5499 64.98 93.1699 64.98 93.1699C64.98 93.1699 64.07 91.0099 63.57 90.4999C63.08 89.9899 60.15 90.3699 59.94 90.7499C59.73 91.1299 59.31 94.4299 59.31 94.4299C59.31 94.4299 47.33 94.5199 45.13 91.3599C42.93 88.1999 42.84 79.5699 45.87 76.7799C48.9 73.9899 52.41 74.0699 53 74.3199C53 74.3199 57.91 74.8699 61.85 72.8799C65.79 70.8899 69.05 67.8399 71.88 68.3499C74.72 68.8599 79.74 72.7099 78.31 84.5999V84.6199Z" fill="#101613" stroke="#101613" stroke-linecap="round" stroke-linejoin="round"/>
<path d="M61.4297 41.74C61.4297 41.74 60.7997 39.09 61.5597 38.25C62.3197 37.41 67.5397 36.99 69.9297 38.3C72.3197 39.61 72.8897 41.74 72.4997 42.08C72.1097 42.42 70.1897 40.95 67.4597 40.95C64.7297 40.95 61.3697 42.39 61.4297 41.74Z" fill="#101613" stroke="#101613" stroke-linecap="round" stroke-linejoin="round"/>
<path d="M50.61 44.57C50.61 44.57 50.65 41.88 49.97 41.14C49.29 40.4 45.42 40.58 43.89 42.15C42.36 43.72 42.27 45.89 42.61 46.18C42.95 46.47 44.11 44.8 46.1 44.49C48.08 44.18 50.75 45.22 50.61 44.57Z" fill="#101613" stroke="#101613" stroke-linecap="round" stroke-linejoin="round"/>
<path d="M22.38 165.06C22.38 165.06 14.42 146.85 17.01 130.67" stroke="#101613" stroke-linecap="round" stroke-linejoin="round"/>
<path d="M63.4197 148.09C63.4197 148.09 65.7797 147.73 67.2897 150.21C68.7997 152.69 69.0997 159.34 63.4197 160.92V170.3H58.6397L55.9197 158.35C55.9197 158.35 55.3797 148.82 63.4197 148.1V148.09Z" fill="#0A6B8E" stroke="#101613" stroke-linecap="round" stroke-linejoin="round"/>
<path d="M63.4197 148.09L54.5897 148.88C54.5897 148.88 49.4497 151.48 52.1097 159.46L52.8397 170.29H59.0697L58.2797 157.83C58.2797 157.83 56.7697 150.08 63.4197 148.09Z" fill="#0A6B8E" stroke="#101613" stroke-linecap="round" stroke-linejoin="round"/>
<path d="M68.3097 157.23C67.7797 157.21 67.2897 156.99 66.9397 156.6C66.5797 156.21 66.3997 155.71 66.4197 155.19C67.0997 137.84 63.1997 111.03 63.1597 110.76C62.9997 109.68 63.7497 108.68 64.8197 108.53C64.9197 108.51 65.0097 108.51 65.1097 108.51C66.0697 108.51 66.9097 109.23 67.0497 110.19C67.0897 110.46 71.0397 137.57 70.3397 155.35C70.2997 156.41 69.4397 157.24 68.3797 157.24H68.3097V157.23Z" fill="#FFE10B"/>
<path d="M65.1097 109C65.8197 109 66.4497 109.53 66.5497 110.25C66.5897 110.52 70.5297 137.63 69.8397 155.31C69.8097 156.1 69.1597 156.72 68.3797 156.72C68.3597 156.72 68.3397 156.72 68.3197 156.72C67.5097 156.69 66.8797 156.01 66.9097 155.2C67.5897 137.79 63.6897 110.95 63.6497 110.68C63.5297 109.88 64.0897 109.13 64.8897 109.02C64.9597 109.01 65.0397 109 65.1097 109ZM65.1097 108C64.9897 108 64.8597 108 64.7397 108.03C64.0997 108.12 63.5197 108.47 63.1297 109C62.7397 109.53 62.5697 110.18 62.6697 110.83C62.7097 111.1 66.5997 137.81 65.9197 155.17C65.8697 156.53 66.9297 157.68 68.2897 157.73H68.3897C69.7197 157.73 70.7997 156.69 70.8497 155.36C71.5497 137.52 67.5897 110.38 67.5497 110.11C67.3697 108.91 66.3197 108 65.1197 108H65.1097Z" fill="#101613"/>
<path d="M49.69 163.73C48.84 163.73 48.09 163.19 47.83 162.39C40.75 141.31 48.64 112.55 48.97 111.34C49.21 110.49 49.99 109.9 50.86 109.9C51.04 109.9 51.22 109.92 51.39 109.97C52.43 110.26 53.05 111.35 52.75 112.39C52.67 112.68 44.86 141.23 51.55 161.13C51.72 161.63 51.68 162.16 51.45 162.63C51.22 163.1 50.81 163.45 50.32 163.62C50.12 163.69 49.91 163.72 49.69 163.72V163.73Z" fill="#FFE10B"/>
<path d="M50.8699 110.39C50.9999 110.39 51.1299 110.41 51.2699 110.45C52.0499 110.67 52.51 111.48 52.29 112.26C52.21 112.55 44.3499 141.22 51.0899 161.3C51.3499 162.07 50.9299 162.9 50.1699 163.16C50.0199 163.21 49.8599 163.24 49.6999 163.24C49.0899 163.24 48.5199 162.85 48.3099 162.24C41.2799 141.3 49.1199 112.69 49.4599 111.48C49.6399 110.83 50.2299 110.41 50.8699 110.41M50.8699 109.39C49.7699 109.39 48.79 110.13 48.5 111.19C48.16 112.41 40.23 141.31 47.36 162.54C47.7 163.55 48.6399 164.22 49.6999 164.22C49.9699 164.22 50.2299 164.18 50.4899 164.09C51.1099 163.88 51.6199 163.44 51.9099 162.85C52.1999 162.26 52.25 161.59 52.04 160.97C45.39 141.19 53.17 112.8 53.25 112.52C53.62 111.21 52.85 109.85 51.54 109.48C51.32 109.42 51.0999 109.39 50.8699 109.39Z" fill="#101613"/>
<path d="M93.1096 64.08C93.1096 64.08 96.6196 57.18 102.79 59.02C108.97 60.86 112.47 70.54 106.69 77.67C100.9 84.79 92.6596 86.69 89.0996 81.4" fill="#B06767"/>
<path d="M93.1096 64.08C93.1096 64.08 96.6196 57.18 102.79 59.02C108.97 60.86 112.47 70.54 106.69 77.67C100.9 84.79 92.6596 86.69 89.0996 81.4" stroke="#101613" stroke-linecap="round" stroke-linejoin="round"/>
<path d="M105.44 70.0502C105.44 70.0502 105.85 65.7302 102.29 64.8202C98.7297 63.9202 95.0797 68.2002 94.9897 73.1102C94.9897 73.1102 98.2398 71.9502 99.3698 74.2802C100.5 76.6102 97.2797 80.3102 93.9897 78.4302" stroke="#101613" stroke-linecap="round" stroke-linejoin="round"/>
<path d="M55.43 63.8603C55.43 63.8603 52.95 61.6903 49.03 62.5603C45.11 63.4303 44.6299 70.3103 48.7699 71.0503C52.9099 71.7903 55.25 70.4803 56.21 69.3103C56.21 69.3103 58.04 70.5703 59.39 70.4803C60.74 70.3903 62.0399 68.2303 61.5199 67.2403" fill="#B06767"/>
<path d="M55.43 63.8603C55.43 63.8603 52.95 61.6903 49.03 62.5603C45.11 63.4303 44.6299 70.3103 48.7699 71.0503C52.9099 71.7903 55.25 70.4803 56.21 69.3103C56.21 69.3103 58.04 70.5703 59.39 70.4803C60.74 70.3903 62.0399 68.2303 61.5199 67.2403" stroke="#101613" stroke-linecap="round" stroke-linejoin="round"/>
<path d="M63.8398 67.2401C63.8398 67.2401 63.9499 64.3301 68.8799 61.8401C73.8099 59.3501 77.7298 60.8801 78.3198 61.6201" fill="#B06767"/>
<path d="M63.8398 67.2401C63.8398 67.2401 63.9499 64.3301 68.8799 61.8401C73.8099 59.3501 77.7298 60.8801 78.3198 61.6201" stroke="#101613" stroke-linecap="round" stroke-linejoin="round"/>
<path d="M130.1 204.77C125.86 205.95 116.22 198.42 114.19 193.47C112.16 188.53 117.16 187.12 119.99 184.53C122.82 181.94 124.45 185.47 126.21 182.88C127.96 180.29 125.4 165.94 123.75 162.31C122.1 158.68 99.73 141.6 99.73 141.6C105.28 147.64 118.12 162.1 119.07 165.58C119.07 165.58 117.07 169.98 117.47 172.51C117.47 172.51 109.88 177.96 105.75 188.36C101.62 198.76 107.08 205.02 116.28 210.89C125.48 216.76 136.28 209.56 139.47 201.69C139.87 200.71 140.21 199.85 140.51 199.09C136.48 201.75 132.13 204.2 130.1 204.77Z" fill="#009FB9"/>
<path d="M97.1997 138.93C97.7297 139.33 117.86 161.19 119.06 165.59C119.06 165.59 117.06 169.99 117.46 172.52C117.46 172.52 109.87 177.97 105.74 188.37C101.61 198.77 107.07 205.03 116.27 210.9C125.47 216.77 136.27 209.57 139.46 201.7C142.66 193.84 142.3 193.62 143.5 190.42C144.7 187.22 155.04 175.72 153.44 162.79C151.84 149.86 122.02 108.01 113.7 103.98" stroke="#101613" stroke-linecap="round" stroke-linejoin="round"/>
<path d="M100.62 142.59C100.62 142.59 99.0799 166.65 103.89 170.7C108.7 174.75 113.28 160.96 114.19 158.31L100.63 142.59H100.62Z" fill="#101613"/>
<path d="M20.28 159.33C20.28 159.33 7.91 183.29 3.5 187.84C3.5 187.84 15.91 176.87 22 165.72L22.1 164.39L20.28 159.33Z" fill="#101613"/>
</g>
</svg>
