<svg width="3955" height="1721" viewBox="0 0 3955 1721" fill="none" xmlns="http://www.w3.org/2000/svg">
<rect width="873.802" height="544.169" rx="54.8084" transform="matrix(-0.258819 0.965926 -0.965926 0.258819 948.955 735.854)" fill="#AFFF25" fill-opacity="0.5"/>
<rect width="873.802" height="544.169" rx="54.8084" transform="matrix(-0.258819 0.965926 -0.965926 0.258819 850.369 367.926)" fill="#AFFF25" fill-opacity="0.7"/>
<rect width="873.802" height="544.169" rx="54.8084" transform="matrix(-0.258819 0.965926 -0.965926 0.258819 751.784 0)" fill="#AFFF25"/>
<path d="M1683.41 863.964L1575.67 1479.62H1420.9L1460.23 1257.3H1293.49L1255.01 1479.62H1100.25L1208.84 863.964H1362.75L1316.58 1123.91H1483.32L1529.49 863.964H1683.41Z" fill="white"/>
<path d="M2029.08 857.979C2166.46 857.979 2235.16 914.128 2235.16 1026.43C2235.16 1045.24 2233.16 1065.48 2229.17 1087.14L2199.24 1258.15C2185.56 1337.39 2155.92 1396.1 2110.32 1434.3C2064.71 1472.49 2000.58 1491.59 1917.92 1491.59C1835.27 1491.59 1777.69 1472.49 1745.2 1434.3C1722.97 1408.08 1711.85 1371.88 1711.85 1325.7C1711.85 1305.18 1714.13 1282.66 1718.69 1258.15L1748.62 1087.14C1775.41 934.365 1868.9 857.979 2029.08 857.979ZM1941.01 1359.05C1969.51 1359.05 1992.31 1351.64 2009.42 1336.82C2026.52 1322 2038.49 1294.64 2045.33 1254.73L2074.4 1090.56C2076.11 1079.16 2076.97 1068.9 2076.97 1059.78C2076.97 1013.6 2053.6 990.515 2006.85 990.515C1948.14 991.655 1913.08 1025 1901.68 1090.56L1872.6 1254.73C1870.32 1268.98 1869.18 1283.8 1869.18 1299.2C1869.18 1339.1 1893.13 1359.05 1941.01 1359.05Z" fill="white"/>
<path d="M2620.85 863.964C2685.83 863.964 2732.01 878.215 2759.37 906.718C2779.89 928.38 2790.15 955.742 2790.15 988.805C2790.15 1000.21 2789.01 1012.18 2786.73 1024.72L2779.04 1065.76C2772.77 1098.25 2760.51 1123.62 2742.27 1141.86C2724.6 1160.1 2708.92 1169.23 2695.24 1169.23L2694.38 1176.07C2710.34 1176.07 2726.59 1184.9 2743.12 1202.57C2759.65 1220.24 2767.92 1241.05 2767.92 1264.99C2767.92 1274.68 2766.78 1284.95 2764.5 1295.78L2759.37 1322.28C2750.25 1371.31 2728.3 1409.79 2693.53 1437.72C2659.33 1465.65 2611.44 1479.62 2549.88 1479.62H2264.28L2372.88 863.964H2620.85ZM2543.89 1228.23H2462.66L2442.14 1346.23H2523.37C2524.51 1346.23 2525.65 1346.23 2526.79 1346.23C2553.01 1346.23 2573.82 1340.24 2589.21 1328.27C2604.6 1315.73 2612.3 1300.62 2612.3 1282.95C2612.3 1246.47 2589.49 1228.23 2543.89 1228.23ZM2566.98 997.355H2502.85L2480.62 1124.76H2543.89C2598.62 1124.76 2625.98 1100.82 2625.98 1052.94C2625.98 1036.4 2620.85 1023.01 2610.59 1012.75C2600.9 1002.49 2586.36 997.355 2566.98 997.355Z" fill="white"/>
<path d="M3182.82 863.964C3247.81 863.964 3293.98 878.215 3321.35 906.718C3341.87 928.38 3352.13 955.742 3352.13 988.805C3352.13 1000.21 3350.99 1012.18 3348.71 1024.72L3341.01 1065.76C3334.74 1098.25 3322.49 1123.62 3304.24 1141.86C3286.57 1160.1 3270.9 1169.23 3257.22 1169.23L3256.36 1176.07C3272.32 1176.07 3288.57 1184.9 3305.1 1202.57C3321.63 1220.24 3329.9 1241.05 3329.9 1264.99C3329.9 1274.68 3328.76 1284.95 3326.48 1295.78L3321.35 1322.28C3312.23 1371.31 3290.28 1409.79 3255.51 1437.72C3221.3 1465.65 3173.42 1479.62 3111.85 1479.62H2826.26L2934.85 863.964H3182.82ZM3105.87 1228.23H3024.64L3004.11 1346.23H3085.35C3086.49 1346.23 3087.63 1346.23 3088.77 1346.23C3114.99 1346.23 3135.79 1340.24 3151.19 1328.27C3166.58 1315.73 3174.27 1300.62 3174.27 1282.95C3174.27 1246.47 3151.47 1228.23 3105.87 1228.23ZM3128.95 997.355H3064.82L3042.59 1124.76H3105.87C3160.59 1124.76 3187.95 1100.82 3187.95 1052.94C3187.95 1036.4 3182.82 1023.01 3172.56 1012.75C3162.87 1002.49 3148.34 997.355 3128.95 997.355Z" fill="white"/>
<path d="M3655.74 1080.3L3800.25 863.964H3954.16L3690.8 1242.76L3648.9 1479.62H3494.13L3536.03 1242.76L3406.06 863.964H3569.38L3636.07 1080.3H3655.74Z" fill="white"/>
<path d="M1263.57 594.71C1263.57 634.043 1291.78 653.71 1348.22 653.71C1405.22 653.71 1433.72 636.038 1433.72 600.695C1433.72 581.883 1424.03 566.492 1404.65 554.521C1385.27 542.55 1361.61 532.574 1333.68 524.594C1306.32 516.613 1278.67 507.492 1250.74 497.231C1223.38 486.4 1200 469.869 1180.62 447.637C1161.24 424.835 1151.55 396.618 1151.55 362.985C1151.55 219.902 1243.61 148.361 1427.74 148.361C1495.01 148.361 1545.74 161.187 1579.94 186.84C1614.72 211.922 1632.1 246.98 1632.1 292.014C1632.1 308.545 1629.82 324.506 1625.26 339.898C1621.27 354.719 1617 365.265 1612.44 371.535L1605.59 381.796H1454.25C1466.79 368.685 1473.06 352.154 1473.06 332.202C1473.06 295.149 1448.83 276.622 1400.38 276.622C1339.38 276.622 1308.88 296.004 1308.88 334.767C1308.88 354.149 1318.58 369.54 1337.96 380.941C1357.34 392.342 1380.71 401.463 1408.07 408.304C1436.01 414.574 1463.94 422.555 1491.87 432.246C1519.8 441.937 1543.46 458.183 1562.84 480.985C1582.22 503.217 1591.91 532.289 1591.91 568.202C1591.91 640.599 1570.25 694.468 1526.93 729.811C1483.6 764.584 1416.91 781.971 1326.84 781.971C1236.77 781.971 1175.21 766.009 1142.14 734.087C1117.63 710.144 1105.38 677.082 1105.38 634.898C1105.38 618.937 1107.09 601.55 1110.51 582.739L1113.07 569.057H1266.99L1265.28 579.318C1264.14 585.019 1263.57 590.149 1263.57 594.71Z" fill="white"/>
<path d="M1871.04 781.971C1789.52 781.971 1733.09 764.299 1701.74 728.956C1680.08 703.874 1669.24 668.816 1669.24 623.782C1669.24 604.4 1671.24 583.594 1675.23 561.362L1710.29 364.695C1735.94 220.473 1828.57 148.361 1988.19 148.361C2054.31 148.361 2104.48 162.613 2138.68 191.115C2172.88 219.047 2189.98 257.526 2189.98 306.55C2189.98 329.352 2186.56 352.154 2179.72 374.956C2173.45 397.188 2167.18 413.719 2160.91 424.55L2151.51 441.651H2000.16C2018.97 419.99 2028.37 389.207 2028.37 349.304C2028.37 328.212 2022.96 311.68 2012.13 299.709C2001.3 287.168 1985.34 280.898 1964.24 280.898C1906.67 280.898 1872.47 312.82 1861.64 376.666L1831.71 549.391C1828.86 564.212 1827.43 578.748 1827.43 592.999C1827.43 630.623 1849.95 649.434 1894.98 649.434C1949.14 649.434 1981.63 618.937 1992.46 557.941H2146.38L2142.1 582.739C2119.3 715.56 2028.94 781.971 1871.04 781.971Z" fill="white"/>
<path d="M2506.06 770L2511.19 635.753H2368.39L2326.49 770H2163.18L2382.93 154.347H2665.1L2668.52 770H2506.06ZM2471 303.985L2403.45 521.173H2515.47L2524.87 303.985H2471Z" fill="white"/>
<path d="M3332.6 154.347L3224.86 770H3070.09L2962.35 433.101L2904.2 770H2749.44L2858.03 154.347H3017.07L3123.1 469.014L3178.68 154.347H3332.6Z" fill="white"/>
</svg>
