<svg width="200" height="200" viewBox="0 0 200 200" fill="none" xmlns="http://www.w3.org/2000/svg">
<path d="M27.475 64.1974C20.0649 64.3679 15.6445 68.2945 13.2326 71.5717C9.9299 76.0452 8.90692 81.212 9.6003 84.0072L9.96407 85.4741L11.4721 86.0156C12.3893 86.3127 13.3714 86.0849 14.0979 85.4136C16.2916 83.644 17.6188 83.1598 17.9385 83.1246L18.2637 83.1026C14.5102 88.1615 12.236 94.4673 10.0401 100.589C7.74393 107.003 5.5756 113.058 2.08886 116.289L1.00635 117.308L1.26871 118.789C1.55973 120.456 1.77579 124.024 1.62146 127.615C1.59941 128.866 2.16382 129.88 3.11295 130.392C4.06207 130.903 5.18206 130.801 6.09481 130.119C11.9803 125.725 15.9554 113.706 19.4608 103.104C20.9182 98.7163 22.3115 94.5289 23.5969 91.6434C23.429 92.4239 23.432 93.2314 23.6057 94.0106C24.4292 97.1404 27.045 98.7746 30.1349 98.1594C30.1349 98.1594 30.4249 98.0274 30.7644 97.8689C31.7124 99.3204 32.2261 101.415 32.2261 103.72C32.2261 105.513 31.9174 107.43 31.2847 109.228C30.4612 111.561 27.8707 116.979 21.5608 116.838C20.195 116.797 18.7752 116.2 18.4985 116.051C16.8891 115.107 15.424 115.795 14.7659 116.848C14.0847 117.934 14.1442 119.591 15.5706 120.678C15.424 120.548 15.6522 120.757 15.6522 120.757C17.0246 121.987 20.2512 124.895 26.6504 124.644C31.9968 124.416 37.0048 120.645 39.7331 114.999C39.7265 115.067 39.7056 115.148 39.7056 115.22C39.7056 116.051 40.1024 116.666 40.2964 116.905C41.0008 117.833 42.4791 118.499 44.3266 117.355C45.3573 116.712 46.7419 115.795 48.2422 114.429C50.7776 112.096 53.2778 108.9 56.1064 104.346C57.1903 102.57 58.1848 100.741 59.0861 98.8659C59.3903 98.8736 59.7133 98.8549 60.033 98.8384C59.3275 100.904 58.5889 103.402 58.5889 105.775C58.5889 108.421 59.5149 110.863 62.4471 112.183C65.7388 113.674 71.0973 112.434 76.1714 106.993C77.3642 108.57 79.0122 109.599 81.0791 109.799C83.1251 109.866 85.3077 108.864 86.9646 107.693C88.1838 108.569 89.8571 109.411 92.085 109.173C95.3513 108.826 98.5999 106.304 102.017 101.439L104.027 98.3718C106.039 95.2134 109.049 90.5254 111.402 88.0669C111.23 88.5225 111.033 89.0342 110.646 89.6758C108.671 93.0047 106.801 96.4427 106.801 99.4074C106.801 100.106 106.904 100.772 107.134 101.405C107.657 102.862 108.799 103.949 110.338 104.461C116.642 106.55 123.311 101.149 128.408 90.0411C129.051 89.8651 129.682 89.6428 130.304 89.3808C129.58 90.9512 129.11 92.4303 129.11 93.7278C129.11 95.9122 130.007 97.6829 131.237 98.867C134.381 101.905 139.902 101.735 144.006 98.7636C145.767 99.765 147.831 100.381 150.028 100.403C154.774 100.483 158.958 98.3157 161.504 94.4684C164.015 90.6717 164.469 85.7713 162.713 81.3726H162.712C162.086 79.8132 160.291 75.3057 163.061 71.465C164.124 70.1785 163.63 68.7908 163.452 68.4023C163.276 68.016 162.542 66.7362 160.719 66.7703H160.616L160.509 66.7758C154.875 67.3326 151.748 73.9124 148.449 80.8774C148.108 81.5883 147.7 82.3576 147.306 83.1026C147.155 83.074 147.001 83.0178 146.85 83.0002C146.303 82.9452 145.792 83.0057 145.274 83.0575C145.255 82.9661 145.261 82.8869 145.233 82.79C145.118 82.4599 144.849 82.198 144.619 81.9306C145.072 81.8161 145.636 81.6687 145.636 81.6687C147.189 81.2604 147.751 79.6713 147.925 78.989C148.036 78.5334 148.096 78.0778 148.096 77.6277C148.096 76.5987 147.798 75.5918 147.226 74.7268C146.314 73.3435 144.809 72.4213 143.081 72.1935C139.782 71.7555 136.196 74.5221 134.725 78.3012C133.646 79.5323 132.334 80.5377 130.864 81.2593C130.527 78.5675 128.857 76.6273 126.392 76.1893C123.718 75.7172 120.98 77.1853 119.871 79.6779C119.825 79.7747 119.808 79.8771 119.765 79.9915C119.229 79.0693 118.5 78.3012 117.533 77.9193C110.439 75.0801 105.039 83.644 100.275 91.19C98.375 94.2054 96.576 97.0556 94.8574 98.9925C94.7185 99.1631 94.6436 99.1862 94.53 99.2995C94.5697 98.8043 94.6921 98.2012 95.0404 97.4441C95.0779 97.3583 101.548 82.0329 101.548 82.0329L92.6086 82.9265C92.6086 82.9265 92.5006 83.1829 92.4389 83.3645C91.6231 82.9606 90.739 82.6129 89.705 82.483C81.7273 81.4695 76.8163 88.5434 74.8717 95.5083C74.7527 95.8781 74.0637 97.2625 73.4199 98.4059C70.8294 103.009 68.6115 104.284 67.7395 104.369C67.6529 104.081 67.6087 103.782 67.6083 103.481C67.6083 101.038 68.811 96.0773 70.1438 92.7813C70.3499 92.2124 70.4326 91.7062 70.4326 91.2682C70.4326 90.1072 69.8483 89.4029 69.5309 89.1068C68.8408 88.4685 67.6293 88.0482 66.2701 88.7371C64.8878 89.5563 63.3849 90.1531 61.8166 90.5055C61.8364 90.2887 61.8971 90.0378 61.8971 89.8221C61.8971 89.2081 61.8177 88.6446 61.6402 88.1604C60.7881 85.8791 59.0861 84.3769 56.9684 84.0358C54.842 83.7001 52.6626 84.6102 51.2715 86.4029C50.371 87.5706 49.8858 89.0044 49.8924 90.478C49.8924 91.4112 50.0798 92.372 50.4447 93.3283C50.7952 94.2274 51.417 95.077 52.1467 95.8671C51.3137 97.5981 50.4221 99.3004 49.4735 100.971C46.754 105.762 44.2506 109.187 40.8278 112.796C40.6856 112.944 40.5853 113.092 40.4772 113.239C40.5654 112.983 40.6624 112.733 40.7517 112.483C41.4737 110.321 41.8155 108.141 41.8155 105.989C41.8155 101.499 40.2193 97.2097 37.3124 93.6914C41.7879 90.1534 44.5107 85.0317 44.5107 79.6658C44.5107 78.5961 44.384 77.5429 44.18 76.4678C44.8326 76.2686 45.4863 76.0463 46.1918 75.8295C48.6831 75.1912 48.4781 72.9561 48.4494 72.7107C48.412 72.4554 48.0614 70.2522 45.4069 70.2863C44.0951 70.3084 42.8263 70.3942 41.5741 70.5141C38.9416 66.9563 34.3933 64.1787 27.475 64.1974ZM26.829 72.7877C27.1244 72.78 27.4287 72.7822 27.7439 72.7954C28.3414 72.8285 29.2795 73.0166 30.2793 73.4392C26.523 75.1283 23.1509 77.5641 20.3692 80.5979L20.3527 80.2732C20.3207 79.6702 20.2369 76.5063 22.1197 74.5309C23.1813 73.4249 24.7643 72.8439 26.829 72.7877ZM174.274 75.2836L171.809 79.1177C170.444 81.2175 170.273 83.2611 170.159 84.6091C170.159 84.6091 170.102 85.144 170.08 85.3718C169.966 85.4928 169.777 85.6799 169.777 85.6799L168.613 86.9488L168.483 87.1194C166.823 89.185 166.546 90.938 166.546 95.1485L166.524 95.5469L166.259 95.877C164.867 97.6752 164.816 99.8311 164.778 101.412C164.778 101.412 164.715 102.695 164.711 102.717C160.677 103.304 80.8994 114.782 79.1081 115.039C73.9932 115.721 71.6275 119.773 72.0045 123.215C72.6549 129.172 76.8637 130.948 80.5886 130.625C82.9454 130.431 140.909 121.791 161.496 118.719C161.333 119.539 161.209 120.397 161.209 121.314C161.209 122.441 161.404 123.641 161.823 124.876C161.468 125.676 161.231 126.523 161.121 127.392C161.053 127.943 161.024 128.472 161.024 128.951C161.024 132.262 162.432 134.096 163.708 135.073C165.732 136.632 168.445 136.752 171.706 135.603C175.096 136.235 178.825 135.882 182.188 134.602C185.343 135.2 188.563 133.339 190.153 132.377C190.153 132.377 190.192 132.348 190.201 132.348H190.35L192.561 132.291L192.925 132.217C194.377 131.938 197.087 131.43 198.313 128.695C198.641 127.961 198.807 127.165 198.801 126.362C198.801 124.471 197.914 122.884 197.546 122.235C197.555 122.098 197.566 121.99 197.566 121.839C197.566 121.309 197.528 120.65 197.358 119.903C196.913 117.832 195.799 116.319 194.99 115.22L194.348 114.287L194.062 113.581C193.951 113.272 193.815 112.909 193.64 112.516C195.391 111.071 196.104 109.472 196.385 108.39C196.682 107.258 196.674 106.068 196.363 104.94C196.052 103.812 195.449 102.786 194.614 101.965C192.915 100.287 190.395 99.513 187.553 99.7177C187.467 96.0355 185.762 93.9468 184.806 92.8661C184.797 92.6834 184.797 92.4908 184.797 92.4908C184.781 90.3394 184.754 86.3501 181.548 83.1411C180.855 82.4412 180.773 82.2365 180.493 81.5355C180.493 81.5355 180.166 80.763 180.069 80.5517C179.895 80.1192 179.424 79.1188 177.898 77.9809L174.274 75.2836ZM142.394 79.2608C142.474 80.0575 142.831 80.643 143.047 80.8873C143.047 80.8873 143.208 81.059 143.296 81.1503C142.743 81.004 142.165 80.9005 141.437 81.1415C141.415 81.1382 141.381 81.125 141.343 81.1162C141.343 81.0821 141.329 81.0535 141.329 81.0194C141.329 80.4273 141.657 79.8187 142.054 79.4952C142.192 79.3752 142.283 79.3246 142.395 79.2608H142.394ZM34.8486 80.2556C34.8277 81.6797 34.4683 84.7753 32.0354 87.7862L32.0034 87.8193C31.9152 87.9337 31.8017 88.0284 31.6937 88.1208C29.5132 87.0456 27.2159 87.1645 25.4918 88.5423C25.321 88.6842 25.1611 88.8372 25.0101 88.9957C25.0443 88.9506 25.0784 88.8889 25.1027 88.8427L25.6219 88.1208C27.2776 85.8285 29.2189 83.1455 34.8486 80.2556ZM155.6 82.6635C155.697 83.1917 155.822 83.6979 155.822 84.3252C155.822 84.564 155.809 84.8094 155.794 85.0714C155.586 89.4931 152.982 90.9733 150.583 91.4509C152.213 88.9638 153.605 86.3622 154.842 84.0523C155.092 83.5978 155.347 83.1191 155.6 82.6635ZM119.756 86.9378C119.822 87.0852 119.85 87.2448 119.922 87.3813C120.238 87.9623 120.737 88.3563 121.189 88.7822C119.216 92.3621 117.32 94.6764 116.152 95.4225C116.554 93.9479 117.687 91.5752 118.39 90.1127L119.337 88.1208C119.542 87.6828 119.611 87.3472 119.756 86.9378ZM139.222 89.6175C139.155 90.0334 138.964 90.4384 138.964 90.8357C138.964 91.7062 139.129 92.5546 139.4 93.391C138.81 93.5968 138.252 93.687 137.964 93.4361C137.779 93.2711 137.694 93.0157 137.694 92.6746C137.694 92.2234 137.865 91.6324 138.204 90.9887C138.443 90.511 138.803 90.0565 139.222 89.6175ZM87.8817 90.2887C88.0471 90.2887 88.0724 90.3295 88.089 90.3515C88.1827 90.489 88.2687 90.7961 88.2687 91.2968C88.2687 91.9901 88.0923 93.0554 87.5235 94.5465C85.4841 99.8564 84.0588 100.812 83.6685 100.971C83.5693 101.028 83.4723 101.067 83.1989 100.949C83.0589 100.885 82.6599 99.8795 83.0887 97.7225C83.9155 93.6188 86.581 90.2887 87.8817 90.2887Z" fill="#13274F"/>
<path d="M27.4867 66.9065C15.2837 67.1673 11.2138 79.6017 12.142 83.329C12.1574 83.3973 12.2522 83.4941 12.3514 83.3984C14.6289 81.5496 16.5382 80.5349 17.732 80.4381C17.5468 77.1487 18.6878 69.6775 27.8593 70.1001C29.9229 70.1904 33.4395 71.3272 35.6177 74.3491C30.5326 75.772 25.0891 78.6069 20.7315 84.2061C12.885 94.2789 11.4497 111.248 3.85449 118.31C4.20725 120.346 4.40346 124.176 4.24693 127.727C4.23811 128.113 4.44646 128.007 4.5611 127.922C13.1253 121.511 18.098 93.9036 23.0145 87.2038C25.2214 84.1995 27.446 80.4095 36.7322 76.3971C37.0519 77.1993 37.3032 78.083 37.4311 79.079C37.6571 80.9113 37.3319 85.4574 34.0502 89.5149C33.3006 90.4767 32.0064 91.2844 31.625 91.2107C31.1466 90.8178 31.2061 90.9488 30.6737 90.579C27.8296 89.0604 25.6778 91.2965 26.1595 93.3908C26.5299 94.7851 27.6808 95.8889 29.643 95.507C30.2426 95.3882 31.2557 94.4836 31.4519 94.6486C38.2578 100.271 34.8251 119.829 21.5109 119.538C19.4903 119.482 17.5612 118.623 17.2338 118.418C16.9086 118.224 16.9031 118.327 17.1158 118.474C18.1928 119.421 20.7679 122.175 26.5508 121.941C37.3319 121.478 45.0505 103.491 33.3303 93.2884C40.8153 89.2353 43.4466 80.9553 40.9443 74.7299C42.3332 74.2456 43.8038 73.7339 45.4452 73.2277C45.8211 73.1364 46.1099 72.9889 45.4452 72.9889C43.7251 73.0209 42.0082 73.1502 40.3027 73.3763C38.2005 69.6027 33.9532 66.8845 27.4867 66.9065ZM160.761 69.4783C156.661 69.8657 154.006 75.3164 150.805 82.0723C150.093 83.5539 149.332 85.0114 148.523 86.4423C147.385 85.4816 143.657 84.7311 142.102 88.4562C141.198 90.6153 141.59 92.6733 142.8 94.3075C142.48 94.6211 142.159 94.9348 141.843 95.1846C138.054 98.2406 133.09 95.0591 135.897 89.6931C137.271 87.0696 140.659 85.0106 141.962 84.4989C142.592 84.2347 143.27 83.3654 142.241 83.7175C141.001 84.1566 139.231 83.4622 138.867 82.1768C138.341 80.3159 139.175 78.4143 140.406 77.3897C143.522 74.7893 145.338 77.3039 145.01 78.7895C144.836 79.3409 145.228 78.9326 145.385 78.3009C145.835 76.5313 144.476 75.1018 142.758 74.874C140.468 74.5835 137.656 77.009 136.855 79.9616C134.201 83.0572 130.533 84.7652 127.622 85.0601C128.088 83.6658 128.372 82.4365 128.317 81.7818C127.982 77.8442 123.448 78.1359 122.265 80.8045C121.107 83.3874 121.471 87.2732 124.741 87.7519C122.287 92.8339 118.131 99.2123 114.993 98.5014C111.26 97.654 114.762 91.729 116.98 86.9496C118.736 83.1585 118.002 80.996 116.589 80.4392C109.251 77.5031 102.926 93.9091 96.8016 100.817C92.8916 105.222 90.5182 100.919 92.6744 96.2817L97.3627 85.1668L94.4591 85.4574L93.5188 87.8751C93.1396 86.9012 91.6426 85.4508 89.3916 85.1679C83.0388 84.3536 79.0251 90.4316 77.398 96.2575C77.1775 97.0543 76.0355 99.1485 75.6971 99.7571C72.368 105.675 68.7523 107.987 66.3194 106.803C63.1611 105.284 66.5564 94.6299 67.7271 91.7334C67.9376 91.159 67.8208 90.9653 67.4438 91.159C64.6956 92.8042 61.2022 93.7649 58.4408 93.6285C59.1419 91.6872 59.5156 89.9925 59.1871 89.122C57.3848 84.2689 50.9448 87.3128 52.8905 92.32C53.3072 93.4128 54.1791 94.4439 55.4094 95.1714C54.2826 97.6089 53.0591 100.001 51.7418 102.341C48.6067 107.861 45.8961 111.321 42.7103 114.69C41.9243 115.526 42.611 115.26 42.9781 115.031C44.2334 114.27 45.4122 113.39 46.4979 112.403C48.8945 110.195 51.3042 107.06 53.8947 102.877C54.8946 101.278 56.3398 98.5851 57.4884 95.9802C58.6653 96.2349 59.8812 96.254 61.0655 96.0363C61.8118 95.9065 63.2195 95.2803 63.7873 95.0129C63.9383 94.9502 63.9846 95.1504 63.9846 95.1504C63.7013 97.8521 58.216 107.315 63.5084 109.704C66.4638 111.041 72.0406 109.063 76.9185 101.915C77.2657 104.749 78.6602 106.843 81.3279 107.098C83.3077 107.161 86.1033 105.363 86.9499 104.202C88.5428 105.653 92.5146 110.336 99.8926 99.855C101.669 97.3338 106.223 89.4918 109.731 85.9306C113.417 82.1966 116.216 85.508 112.89 91.0853C110.476 95.1482 107.478 100.663 111.149 101.881C117.203 103.889 123.064 95.8548 126.585 87.7167C130.56 87.1015 135.347 83.4424 136.65 82.1108C136.747 83.0374 137.259 84.3118 138.116 84.7333C136.432 85.9911 134.651 87.3513 133.653 88.6543C127.565 97.2821 137.259 101.259 143.159 96.1992C143.421 95.9835 143.666 95.7337 143.913 95.5004C145.458 96.821 147.653 97.6684 150.078 97.697C158.259 97.8312 163.27 89.8769 160.286 82.3936V82.3958C159.65 80.8023 157.241 75.0149 160.952 69.8536C161.169 69.5972 161.153 69.4618 160.762 69.4794L160.761 69.4783ZM156.641 76.3234C156.472 78.0401 158.768 80.6318 158.419 85.2703C158.104 92.1901 152.979 93.9476 150.268 94.302C148.535 94.5232 146.905 94.2734 145.616 93.7099C150.841 87.5978 154.067 78.5144 156.641 76.3234ZM174.812 77.9224L173.361 80.1762C172.262 81.8665 172.125 83.5513 172.025 84.7806L171.87 85.9988C171.786 86.3455 171.61 86.5447 171.062 87.0685L170.07 88.1558L169.922 88.3428C168.753 89.8065 168.415 90.8762 168.415 95.1493C168.415 96.0771 168.321 96.3159 168.321 96.3313C168.309 96.3379 168.068 96.6504 168.068 96.6504L167.725 97.0774C166.716 98.3639 166.682 100.013 166.645 101.46L166.556 103.018C166.457 103.718 166.319 104.156 166.179 104.446C164.353 104.714 80.1351 116.836 79.347 116.943C74.9409 117.541 73.6445 120.971 73.8672 123.008C74.4735 128.614 78.6646 128.857 80.4372 128.711C82.848 128.501 147.901 118.809 164.073 116.39C163.597 117.807 163.07 119.463 163.07 121.307C163.07 122.491 163.287 123.732 163.88 125.023C163.44 125.848 163.093 126.668 162.976 127.629C162.925 128.102 162.892 128.528 162.892 128.932C162.892 131.464 163.903 132.824 164.829 133.531C167.065 135.255 170.084 134.299 171.686 133.639C174.955 134.327 178.583 133.906 181.852 132.586C184.506 133.56 187.599 131.693 189.212 130.708L189.577 130.498C189.751 130.389 189.891 130.384 190.506 130.429L192.214 130.39L192.597 130.311C193.951 130.066 195.803 129.718 196.618 127.891C196.849 127.374 196.946 126.863 196.946 126.361C196.945 125.161 196.406 124.028 195.93 123.192H195.931L195.791 122.946C195.791 122.946 195.731 122.861 195.657 122.805C195.66 122.772 195.66 122.714 195.66 122.714C195.678 122.481 195.708 122.179 195.708 121.837C195.708 121.41 195.67 120.905 195.543 120.313C195.186 118.662 194.256 117.404 193.503 116.38L192.732 115.248L192.315 114.264C192.081 113.62 191.788 112.811 191.155 111.913C193.511 110.581 194.316 108.931 194.586 107.891C194.797 107.091 194.791 106.249 194.569 105.452C194.346 104.655 193.916 103.931 193.322 103.355C191.819 101.863 189.416 101.312 186.677 101.767C186.555 101.59 186.434 101.425 186.314 101.26C186.314 101.26 185.821 100.531 185.708 100.355C185.719 100.235 185.727 100.093 185.727 99.9728C185.727 96.7473 184.239 95.0624 183.331 94.039C183.331 94.039 183.072 93.7308 182.98 93.612C182.97 93.3611 182.931 92.5071 182.931 92.5071C182.92 90.5042 182.892 87.1697 180.252 84.5231C179.281 83.5436 179.087 83.0649 178.773 82.2693L178.343 81.2458C178.237 81.029 177.986 80.4832 176.883 79.5951L174.814 77.9224H174.812ZM125.424 80.5415C125.539 80.5525 125.658 80.58 125.779 80.6262C126.991 81.0929 126.992 82.3947 125.926 85.081C125.493 85.0416 125.067 84.9442 124.66 84.7916C122.733 83.997 123.695 80.3808 125.424 80.5415ZM145.202 87.3271C146.061 87.3447 146.842 88.0633 147.178 88.6774C146.215 90.1917 145.214 91.6102 144.185 92.8328C142.995 91.8149 142.501 90.4195 143.227 88.9349H143.228C143.819 87.7222 144.534 87.3128 145.202 87.3271ZM87.8902 87.5857C90.2272 87.5857 92.0924 90.0156 89.9748 95.5422C87.7491 101.335 85.2732 104.806 82.1712 103.429C77.3881 101.294 82.5438 87.5857 87.8902 87.5857ZM55.9142 88.3307C56.6782 88.3395 57.3561 88.8854 57.3175 90.1917C57.3032 90.6407 56.9008 91.7687 56.2769 93.2246C55.4281 92.9132 54.7391 92.4345 54.3169 91.7334C53.1341 89.7911 54.641 88.3153 55.9142 88.3307Z" fill="#CE1141"/>
<path d="M194.144 124.251C193.525 123.59 193.554 123.215 193.608 122.544C193.646 122.088 193.691 121.519 193.529 120.768C193.275 119.567 192.553 118.594 191.861 117.661L190.946 116.289L190.384 115.003C190.089 114.184 189.789 113.336 188.812 112.335C188.729 112.243 188.654 112.164 188.578 112.073L187.748 111.036C190.421 110.257 192.185 108.925 192.596 107.349C192.828 106.45 192.57 105.545 191.892 104.873C190.921 103.913 188.783 103.252 185.677 104.145C185.671 104.139 185.667 104.132 185.664 104.124C185.661 104.116 185.659 104.108 185.659 104.1C185.411 103.588 185.046 103.059 184.667 102.529C184.621 102.473 184.578 102.415 184.539 102.353C184.328 102.045 184.04 101.602 183.835 101.254C183.719 101.004 183.629 100.788 183.641 100.611C183.843 97.772 182.663 96.4294 181.805 95.461C181.42 95.023 181.089 94.6587 180.995 94.2658C180.885 93.8509 180.875 93.2248 180.87 92.5194C180.859 90.6419 180.839 88.069 178.82 86.032C177.535 84.7642 177.222 83.9719 176.869 83.0728L176.487 82.1737C176.354 81.8326 175.82 81.4111 175.594 81.246L175.281 81.0127L175.066 81.3483C174.262 82.5941 174.157 83.8464 174.063 84.9502L173.864 86.514C173.622 87.4824 173.065 88.0272 172.473 88.6082L171.668 89.4666L171.501 89.6779C170.76 90.6111 170.461 91.146 170.461 95.1462C170.461 97.0126 170.158 97.3703 169.626 98.0185L169.318 98.4015C168.751 99.13 168.723 100.284 168.697 101.497L168.583 103.335C168.55 103.568 168.509 103.791 168.472 103.984L168.258 104.849C168.252 104.849 168.252 104.86 168.252 104.86H168.246C168.009 105.623 167.709 106.049 167.357 106.357C167.317 106.379 167.285 106.409 167.247 106.425C167.015 106.466 164.669 106.801 160.874 107.347L160.239 107.427C160.228 107.427 160.228 107.438 160.219 107.438C157.836 107.78 154.928 108.2 151.674 108.673C151.667 108.673 151.665 108.668 151.665 108.668L149.957 108.912C129.613 111.85 109.267 114.781 88.92 117.704C88.887 117.704 88.8627 117.686 88.8318 117.686L86.96 117.989L79.6073 119.041C76.653 119.439 75.7656 121.539 75.899 122.768C76.0093 123.792 76.351 126.934 80.2533 126.604C80.6645 126.564 82.9982 126.239 86.6315 125.722C86.6514 125.722 86.6635 125.728 86.6834 125.728L88.6268 125.426C101.221 123.599 125.417 120.008 143.686 117.288L143.854 117.277L144.837 117.128C152.333 115.996 158.74 115.046 162.794 114.443C162.82 114.443 162.856 114.449 162.885 114.443L165.709 114.011C165.718 114.011 165.718 114.005 165.725 114.005C166.174 113.936 166.544 113.879 166.821 113.84C166.727 114.756 166.439 115.741 166.094 116.793C165.62 118.193 165.119 119.689 165.119 121.283C165.119 122.467 165.433 123.689 166.203 124.958C166.172 125.039 166.101 125.209 166.101 125.209C165.406 126.342 165.109 127.064 165.007 127.901C164.96 128.271 164.941 128.623 164.941 128.948C164.941 130.301 165.31 131.27 166.054 131.832C167.138 132.668 168.953 132.532 171.436 131.446C174.774 132.326 178.7 131.883 182.02 130.296C183.79 131.502 186.615 129.822 188.163 128.89L188.547 128.663C189.3 128.212 189.99 128.27 190.656 128.327L191.819 128.316L192.213 128.236C193.331 128.031 194.373 127.832 194.748 127.001C195.036 126.354 194.842 125.488 194.144 124.247V124.251ZM86.4276 124.962C82.8648 125.484 80.5873 125.804 80.1938 125.832C77.3718 126.078 76.814 124.285 76.6398 122.685C76.6308 122.632 76.6271 122.579 76.6288 122.525C76.6288 121.769 77.1557 120.148 79.701 119.811L85.743 118.942C86.2413 119.311 86.6635 120.233 86.8542 121.388C87.0824 122.822 86.9126 124.228 86.4276 124.962ZM140.592 116.978C123.842 119.475 107.089 121.949 90.3321 124.398C90.7764 123.312 90.7797 121.849 90.6 120.768C90.4347 119.772 90.1183 118.952 89.6994 118.377L139.936 111.14C140.308 112.728 140.639 114.502 140.592 116.978ZM144.083 113.923C143.969 112.812 143.775 111.71 143.504 110.627L146.795 110.154L144.083 113.923ZM146.949 116.027L149.156 112.926C149.247 113.744 149.296 114.661 149.276 115.679C148.518 115.794 147.744 115.907 146.95 116.026L146.949 116.027ZM152.85 115.144C152.861 114.132 152.816 113.233 152.724 112.402L155.252 114.792C154.474 114.907 153.671 115.025 152.85 115.144ZM157.292 111.59C156.919 111.249 155.378 109.83 154.52 109.044L159.514 108.322C158.776 109.413 158.036 110.502 157.292 111.59ZM162.466 113.722C161.603 113.842 160.641 113.99 159.593 114.149L162.283 110.553C162.415 111.452 162.486 112.483 162.466 113.722ZM191.377 105.437C191.607 105.652 191.775 105.926 191.862 106.228C191.95 106.531 191.953 106.851 191.873 107.156C191.529 108.476 189.825 109.654 187.325 110.348C187.109 110.059 186.909 109.655 186.741 109.234C186.663 109.066 186.598 108.893 186.547 108.715C186.544 108.699 186.527 108.687 186.518 108.676C186.393 108.323 186.28 107.966 186.18 107.606C186.086 107.197 186.016 106.782 185.97 106.365C185.944 106.034 185.944 105.715 185.944 105.46L185.901 105.198V105.044L185.898 105.011V104.976C185.898 104.947 185.887 104.919 185.884 104.884C188.679 104.083 190.554 104.618 191.377 105.437ZM185.276 106.917C185.307 107.165 185.355 107.41 185.419 107.651C185.419 107.651 185.42 107.658 185.427 107.669V107.691L185.429 107.713C185.484 107.953 185.555 108.203 185.628 108.46C185.172 108.456 184.721 108.363 184.3 108.186C184.623 107.771 184.954 107.349 185.276 106.917ZM184.341 103.412C183.5 104.611 182.577 105.752 181.579 106.826C180.738 106.371 179.356 105.301 178.441 104.424C178.755 104.379 179.071 104.328 179.376 104.287L184.341 103.412ZM182.992 111.122C182.547 111.122 182.134 111.111 181.768 111.071C181.877 110.962 181.985 110.861 182.096 110.747C182.387 110.895 182.684 111.02 182.992 111.122ZM171.697 108.174C171.631 107.469 171.469 106.826 171.221 106.341C171.166 106.21 171.086 106.12 171.021 106.011C172.117 105.658 173.233 105.366 174.361 105.135C175.827 106.626 177.924 108.276 179.162 109.101C178.798 109.391 178.423 109.676 178.038 109.949L177.083 109.63C175.544 109.09 173.473 108.389 171.697 108.174ZM174.028 112.107C172.904 112.544 171.713 112.892 170.419 113.119C170.816 112.459 171.109 111.816 171.318 111.19C171.979 111.293 172.621 111.543 173.247 111.8C173.5 111.908 173.757 112.01 174.028 112.107ZM169.443 101.521C169.468 100.429 169.487 99.4051 169.903 98.8747L170.189 98.5225C170.858 97.7136 171.203 97.2019 171.203 95.1484C171.203 91.2615 171.494 90.8972 172.078 90.1797L172.255 89.953L172.99 89.1607C173.596 88.5642 174.297 87.8874 174.585 86.6978L174.806 85.0306C174.887 84.0841 175.033 83.1289 175.52 82.1792C175.66 82.3157 175.773 82.4235 175.799 82.4928C175.808 82.5094 176.167 83.3622 176.167 83.3622C176.545 84.302 176.897 85.1956 178.287 86.5944C180.095 88.3925 180.111 90.686 180.122 92.5249C180.132 93.2864 180.132 93.9467 180.265 94.465C180.413 95.034 180.819 95.4885 181.249 95.9782C181.993 96.8201 182.91 97.8622 182.91 99.9784C182.91 100.16 182.91 100.354 182.892 100.547C182.898 100.577 182.898 100.611 182.898 100.646L179.428 101.237C180.296 99.1322 179.687 96.5152 178.797 94.7677C178.775 94.7233 178.745 94.6839 178.707 94.6519C178.67 94.6198 178.626 94.5958 178.579 94.5814C178.532 94.5669 178.482 94.5623 178.433 94.5679C178.384 94.5734 178.336 94.589 178.293 94.6136C178.111 94.7049 178.045 94.9437 178.139 95.1308C179.005 96.8443 179.604 99.4777 178.513 101.391L177.891 101.499C174.961 101.932 171.955 102.387 169.34 103.252L169.45 101.522L169.443 101.521ZM166.646 113.091C166.481 113.119 166.277 113.152 166.035 113.181C166.074 110.859 165.757 109.181 165.355 107.485L166.991 107.247C167.016 107.253 167.033 107.275 167.068 107.275C167.509 107.275 167.801 107.457 167.98 107.845C168.502 108.995 167.858 111.498 166.646 113.091ZM194.067 126.68C193.851 127.146 192.995 127.318 192.083 127.483L191.681 127.562H190.715C190.003 127.499 189.131 127.43 188.173 127.995L187.779 128.222C186.436 129.042 183.632 130.737 182.287 129.587L182.102 129.422L181.885 129.536C180.671 130.134 176.327 132.001 171.5 130.67L171.374 130.64L171.257 130.692C169.003 131.704 167.358 131.88 166.495 131.22C165.8 130.686 165.553 129.61 165.746 127.995C165.829 127.289 166.097 126.652 166.724 125.633L167.033 124.791L166.913 124.723C165.143 121.986 165.976 119.481 166.794 117.058C172.043 116.824 175.714 115.669 178.752 113.591C181.883 114.389 185.95 114.263 188.646 113.302C189.208 114.006 189.452 114.628 189.682 115.265L190.292 116.683L191.268 118.122C191.91 118.993 192.567 119.903 192.798 120.939C192.872 121.275 192.892 121.571 192.892 121.838C192.892 122.072 192.875 122.282 192.861 122.488C192.848 122.669 192.83 122.84 192.83 123.027C192.83 123.557 192.952 124.092 193.56 124.711C193.925 125.395 194.126 125.953 194.126 126.35C194.126 126.48 194.11 126.582 194.068 126.681L194.067 126.68Z" fill="#13274F"/>
<path d="M174.285 95.3709C174.368 95.569 174.292 95.7979 174.098 95.8826C173.334 96.259 172.695 97.1581 172.505 98.1309C172.316 99.0762 172.558 99.9797 173.179 100.709C173.247 100.786 173.282 100.885 173.278 100.986C173.275 101.088 173.232 101.184 173.159 101.255C173.123 101.289 173.08 101.314 173.033 101.331C172.986 101.348 172.937 101.355 172.887 101.352C172.837 101.35 172.789 101.338 172.744 101.316C172.699 101.295 172.659 101.265 172.626 101.228C172.239 100.79 171.96 100.268 171.811 99.7038C171.662 99.1393 171.647 98.5479 171.768 97.9768C172.005 96.7652 172.799 95.6658 173.783 95.1893C173.828 95.1683 173.877 95.1563 173.926 95.1541C173.976 95.1519 174.025 95.1594 174.072 95.1763C174.118 95.1931 174.161 95.219 174.198 95.2524C174.234 95.2858 174.264 95.326 174.285 95.3709ZM186.212 114.559C186.419 114.57 186.578 114.74 186.565 114.957C186.539 115.435 187.143 115.926 187.838 116.481C189.068 117.477 190.745 118.844 190.043 121.342C189.981 121.551 189.776 121.672 189.58 121.61C189.484 121.579 189.404 121.513 189.356 121.425C189.308 121.337 189.296 121.233 189.323 121.137C189.888 119.134 188.61 118.086 187.379 117.097C186.552 116.42 185.775 115.794 185.819 114.912C185.832 114.706 186.005 114.536 186.214 114.559H186.212ZM190.12 122.947C190.007 123.453 189.839 123.567 189.71 123.607L188.932 123.591L188.092 123.551C187.561 123.608 187.034 123.835 186.636 124.165L185.322 125.213L185.022 125.337C184.473 125.469 183.928 125.417 183.361 125.207C183.315 125.189 183.266 125.181 183.217 125.183C183.167 125.184 183.119 125.196 183.074 125.216C183.03 125.237 182.99 125.266 182.957 125.303C182.924 125.339 182.898 125.382 182.882 125.428C182.846 125.524 182.849 125.629 182.891 125.722C182.933 125.815 183.01 125.887 183.105 125.924C183.809 126.191 184.494 126.243 185.183 126.083L185.778 125.816L187.095 124.775C187.389 124.525 187.793 124.36 188.17 124.319L188.823 124.353L189.925 124.342C190.62 124.132 190.792 123.374 190.843 123.125C190.868 123.028 190.852 122.924 190.801 122.838C190.75 122.751 190.666 122.689 190.569 122.663C190.472 122.642 190.37 122.66 190.286 122.714C190.202 122.767 190.143 122.852 190.121 122.949L190.12 122.947ZM179.492 116.041C180.305 117.362 180.367 119.057 179.66 120.696C179.511 121.043 179.662 121.396 180.207 121.989C180.207 121.989 180.401 122.159 180.372 122.331C180.335 122.501 180.33 122.644 180.156 122.661C180.033 122.672 179.833 122.677 179.679 122.523C179.317 122.141 178.568 121.334 178.975 120.388C179.58 118.977 179.543 117.556 178.859 116.457C178.806 116.371 178.788 116.268 178.81 116.169C178.832 116.071 178.891 115.985 178.975 115.929C179.017 115.902 179.063 115.884 179.111 115.876C179.159 115.867 179.209 115.868 179.257 115.878C179.305 115.889 179.35 115.908 179.39 115.936C179.431 115.964 179.465 116 179.491 116.041H179.492ZM171.711 117.242C172.435 117.976 172.193 119.058 171.574 119.762L170.648 120.549C169.826 121.163 169.328 121.583 169.547 122.365C169.561 122.412 169.566 122.461 169.561 122.51C169.556 122.559 169.541 122.606 169.517 122.649C169.493 122.692 169.461 122.729 169.422 122.759C169.383 122.79 169.339 122.812 169.291 122.825C169.244 122.84 169.194 122.845 169.145 122.84C169.096 122.835 169.048 122.821 169.005 122.797C168.961 122.773 168.923 122.74 168.893 122.701C168.863 122.662 168.841 122.617 168.828 122.569C168.458 121.237 169.43 120.514 170.205 119.934L171.029 119.24C171.237 119 171.675 118.277 171.185 117.782C171.15 117.747 171.122 117.706 171.103 117.66C171.084 117.614 171.074 117.565 171.074 117.515C171.074 117.466 171.084 117.417 171.103 117.371C171.122 117.325 171.15 117.283 171.185 117.249C171.328 117.094 171.567 117.094 171.711 117.242ZM169.916 126.107C170.249 127.008 171.168 127.525 172.002 127.292L173.068 126.802L174.185 126.307C174.627 126.153 175.028 126.29 175.38 126.416C175.665 126.5 175.912 126.597 176.115 126.517L176.422 126.42L176.406 126.431C176.422 126.42 176.918 126.237 177.052 126.363C177.411 126.704 176.883 126.937 177.041 126.841L176.451 127.222L176.368 127.239C175.916 127.409 175.51 127.267 175.148 127.142C174.863 127.045 174.616 126.966 174.399 127.034L173.421 127.49L172.195 128.035C170.99 128.371 169.684 127.637 169.219 126.385C169.183 126.29 169.185 126.185 169.225 126.091C169.265 125.998 169.34 125.924 169.434 125.884C169.527 125.851 169.63 125.857 169.72 125.898C169.81 125.94 169.88 126.015 169.915 126.107H169.916ZM176.729 86.9334C176.918 87.0193 176.999 87.2471 176.918 87.4397C176.562 88.2705 176.591 89.3864 176.992 90.3758C177.3 91.1219 177.781 91.6743 178.306 91.8779C178.4 91.9152 178.475 91.9867 178.517 92.0778C178.559 92.1689 178.565 92.2727 178.532 92.3676C178.516 92.4144 178.491 92.4574 178.458 92.4942C178.425 92.5311 178.385 92.561 178.341 92.5822C178.296 92.6034 178.247 92.6155 178.198 92.6178C178.149 92.6201 178.099 92.6125 178.053 92.5954C177.318 92.3115 176.699 91.6347 176.302 90.6718C175.827 89.4998 175.801 88.1407 176.231 87.1326C176.317 86.9346 176.539 86.8487 176.727 86.9346L176.729 86.9334Z" fill="#13274F"/>
<path d="M178.821 102.12C178.824 102.114 178.829 102.114 178.838 102.114C180.177 101.88 182.695 101.453 183.065 101.392C183.073 101.414 183.102 101.442 183.11 101.471C183.292 101.88 183.564 102.296 183.878 102.728L179.269 103.524C178.386 103.661 177.502 103.792 176.621 103.946C175.345 104.14 174.648 104.27 174.392 104.35C173.055 104.628 171.75 104.947 170.527 105.374C170.141 104.983 169.642 104.722 169.1 104.628C169.136 104.458 169.179 104.281 169.217 104.099C171.843 103.182 174.961 102.71 177.997 102.255C177.997 102.255 178.324 102.198 178.82 102.119L178.821 102.12ZM188.076 112.653C185.695 113.41 182.404 113.541 179.619 112.978C179.702 112.927 179.782 112.852 179.859 112.779C179.972 112.699 180.068 112.625 180.178 112.54C180.506 112.272 180.84 111.994 181.101 111.737C182.58 112.056 185.541 111.829 187.001 111.305C187.297 111.743 187.64 112.171 188.029 112.609C188.05 112.625 188.068 112.647 188.076 112.653ZM160.996 108.108C161.255 108.078 161.551 108.044 161.765 108.009C161.82 108.243 161.951 108.778 162.041 109.16C162.061 109.284 162.084 109.409 162.11 109.534L158.537 114.297C158.289 114.332 156.487 114.594 156.197 114.644C155.961 114.424 152.806 111.441 152.56 111.201C152.449 110.597 152.324 109.995 152.186 109.397C152.634 109.34 153.346 109.22 153.569 109.187L157.114 112.454C157.195 112.522 157.299 112.556 157.405 112.549C157.51 112.53 157.604 112.471 157.667 112.384C157.667 112.384 160.379 108.395 160.533 108.173L160.996 108.108ZM151.419 109.489L151.782 111.179C151.972 112.243 152.109 113.388 152.109 114.77C152.109 114.924 152.109 115.089 152.104 115.248C151.696 115.311 150.567 115.481 150.028 115.572C150.028 115.441 150.037 115.311 150.037 115.186C150.037 113.962 149.929 112.915 149.775 111.942H149.779C149.759 111.788 149.716 111.531 149.659 111.23C149.616 111.032 149.581 110.832 149.538 110.632C149.47 110.319 149.407 110.023 149.351 109.785C149.53 109.755 149.797 109.722 150.074 109.682L151.419 109.489ZM140.682 111.054L142.758 110.751C143.096 112.163 143.402 113.712 143.432 115.72V116.556C143.019 116.603 141.877 116.762 141.34 116.836C141.346 116.704 141.346 116.562 141.346 116.443C141.346 114.2 141.035 112.544 140.682 111.054ZM144.185 116.443C144.192 116.096 144.192 115.754 144.18 115.436V115.072C144.319 114.885 147.651 110.257 147.831 110.007C147.996 109.985 148.298 109.95 148.6 109.91C148.686 110.332 148.937 111.549 148.999 111.839C148.793 112.129 146.098 115.937 145.924 116.169C145.787 116.199 145.309 116.272 144.841 116.346C144.624 116.368 144.408 116.409 144.185 116.443ZM163.213 113.604C163.216 113.488 163.224 113.365 163.224 113.25C163.224 111.793 163.082 110.632 162.888 109.619C162.894 109.605 162.897 109.589 162.897 109.574C162.897 109.558 162.894 109.543 162.888 109.529C162.787 108.985 162.665 108.445 162.524 107.911C163.048 107.844 164.167 107.673 164.61 107.616C164.992 109.186 165.305 110.746 165.305 112.84C165.305 112.982 165.297 113.147 165.294 113.294C164.721 113.386 164.022 113.483 163.214 113.603L163.213 113.604ZM182.917 109.865C182.958 109.814 183.001 109.756 183.053 109.706C183.335 109.387 183.686 108.977 183.845 108.796C184.484 109.104 185.188 109.25 185.897 109.223C185.986 109.438 186.085 109.666 186.184 109.899C186.272 110.076 186.361 110.253 186.46 110.412C186.469 110.441 186.483 110.468 186.501 110.492C186.51 110.52 186.518 110.538 186.523 110.554C185.4 110.752 183.962 110.714 182.678 110.133C182.713 110.093 182.799 109.985 182.915 109.866L182.917 109.865ZM175.145 111.628C174.62 111.538 174.085 111.326 173.517 111.093C172.891 110.832 172.235 110.598 171.526 110.474C171.654 109.951 171.708 109.438 171.717 108.955C173.392 109.176 175.365 109.842 176.84 110.359L177.223 110.485C176.581 110.895 175.9 111.272 175.182 111.613C175.175 111.613 175.157 111.629 175.146 111.629L175.145 111.628ZM179.767 108.584C178.721 107.913 176.769 106.389 175.27 104.953C175.661 104.879 176.062 104.81 176.447 104.748C176.774 104.691 177.128 104.64 177.535 104.578C178.331 105.442 179.907 106.712 181.018 107.372L179.988 108.39L179.817 108.538C179.806 108.556 179.785 108.568 179.767 108.584ZM168.854 105.397C169.382 105.455 169.855 105.699 170.216 106.154L170.237 106.177C170.354 106.325 170.458 106.49 170.554 106.677C170.822 107.23 170.969 107.919 170.975 108.715C170.977 108.737 170.977 108.76 170.977 108.777C170.974 109.096 170.946 109.413 170.894 109.728C170.892 109.773 170.883 109.814 170.874 109.859C170.687 110.923 170.229 112.089 169.427 113.245C169.265 113.261 169.105 113.296 168.934 113.301C168.908 113.301 168.886 113.307 168.854 113.307C168.458 113.347 168.039 113.365 167.626 113.376L167.624 112.943H167.612C168.352 111.742 168.906 110.188 168.906 108.879C168.906 108.373 168.826 107.9 168.652 107.519C168.515 107.217 168.297 106.959 168.022 106.773C168.363 106.415 168.637 105.972 168.853 105.397H168.854Z" fill="#EAAA00"/>
<path d="M167.291 115.463C167.417 115.032 167.514 114.605 167.57 114.167C167.573 114.161 167.575 114.155 167.575 114.149C168.1 114.149 169.103 114.109 169.734 113.984C169.759 113.978 169.767 113.962 169.787 113.951C171.687 113.712 173.54 113.186 175.282 112.392C175.801 112.243 177.429 111.355 178.31 110.69L178.316 110.673C178.895 110.27 179.455 109.841 179.994 109.386C180.016 109.37 180.052 109.359 180.068 109.353L180.49 108.955L180.524 108.927C182.251 107.362 183.642 105.66 184.773 104.102C184.895 104.272 185.012 104.487 185.084 104.699C185.121 104.807 185.152 104.919 185.158 105.024V105.795C185.141 105.818 185.125 105.847 185.125 105.847C180.421 112.351 176.262 115.755 167.074 116.25C167.145 116.01 167.225 115.744 167.291 115.463ZM88.7592 118.474C89.2553 118.856 89.6797 119.755 89.8649 120.904C89.935 121.325 89.9704 121.752 89.9707 122.179C89.9707 123.17 89.7624 124.017 89.4085 124.529L87.2512 124.859C87.5443 124.155 87.6971 123.401 87.701 122.639C87.701 122.155 87.6624 121.677 87.5907 121.261C87.4199 120.186 87.0384 119.413 86.5732 118.826C87.3063 118.707 88.5002 118.519 88.7592 118.474Z" fill="#EAAA00"/>
</svg>
