<svg width="200" height="200" viewBox="0 0 200 200" fill="none" xmlns="http://www.w3.org/2000/svg">
<path d="M41.2198 179.905C34.8558 181.054 28.2785 182.237 22.6545 179.448C18.6411 177.46 15.4158 171.986 15.3131 166.992C15.2098 162.174 15.9337 157.375 17.4531 152.803C17.9158 153.298 18.4811 153.578 19.0438 153.783C20.2998 154.24 22.1118 154.22 23.6225 153.707C25.9625 152.921 28.2371 152.149 30.4625 151.391C30.3345 151.521 30.2105 151.64 30.0838 151.781C25.3398 157.123 23.3638 163.439 24.5638 169.27C23.8785 169.687 22.9278 170.209 21.9131 170.693C21.9131 170.693 19.2945 171.944 19.1678 172.011L18.4585 172.438V173.268C18.4558 174.102 18.4558 174.102 21.6238 176.009C21.6345 176.019 22.9411 176.873 23.6598 178.374L24.5038 180.144L26.4611 180.095C28.2505 180.052 29.6705 179.079 30.5518 178.302C33.5785 179.63 36.7785 179.318 39.5825 177.422C41.9558 178.839 44.4198 179.117 45.6945 179.155C44.1878 179.376 42.6865 179.644 41.2198 179.906M152.774 146.921H144.766L144.7 147.178C143.575 147.009 142.429 147.036 141.313 147.255C136.874 148.091 133.476 150.783 131.129 155.267C131.392 152.93 131.124 151.112 130.021 149.701C128.742 148.065 126.942 147.152 124.812 147.059C123.999 147.031 123.187 147.112 122.396 147.299L122.454 147.046H110.533L110.541 147.023H108.95C110.044 146.489 110.966 145.659 111.611 144.626C112.256 143.593 112.6 142.4 112.601 141.181C112.599 139.456 111.914 137.802 110.697 136.583C109.48 135.363 107.83 134.677 106.109 134.675C104.811 134.677 103.543 135.068 102.469 135.799C101.395 136.529 100.564 137.566 100.082 138.774L101.882 131.712L87.9145 137.231L85.6291 147.255C80.7811 146.554 77.5065 149.106 75.4425 151.657C75.8105 150.985 76.3891 149.92 76.3398 149.999L77.7571 147.722L63.9878 147.716L64.3731 146.249H53.2798C53.2798 146.249 51.2038 154.603 50.2558 157.568C50.7385 155.424 52.6958 147.032 52.6958 147.032H43.1465C63.5265 139.96 77.9091 134.592 86.0105 131.025C89.7971 129.359 108.83 122.424 115.202 120.122C120.924 118.071 126.667 116.079 132.429 114.145C136.81 120.831 148.033 137.843 154.762 146.945C154.344 146.923 153.732 146.923 152.776 146.923M107.58 104.004L108.429 104.372L102.164 110.418C99.6585 110.418 98.8038 112.921 98.8038 112.921L94.3211 114.176C94.1171 113.971 93.0305 113.878 93.0305 113.878L98.6438 108.992C103.246 107.568 107.58 104.004 107.58 104.004ZM112.997 106.075L118.413 107.906L110.897 109.807C110.897 109.807 110.288 109.398 109.477 109.333L112.997 106.075ZM194.036 168.011C192.594 167.287 191.019 166.867 189.409 166.776C189.261 164.68 188.582 162.643 187.998 160.937C187.75 160.198 187.509 159.499 187.358 158.917C186.626 156.153 186.43 155.028 187.084 153.234C188.478 149.413 183.624 147.219 181.705 146.349L181.113 146.081C180.548 145.822 180.222 145.946 179.362 146.28C178.665 146.551 177.862 147.095 176.802 148.068C177.684 146.619 178.249 144.797 178.397 142.866C178.965 142.452 179.494 141.8 179.922 140.938C181.372 138.047 181.433 133.236 177.281 128.406C175.597 126.445 163.77 116.179 153.366 107.244L153.326 107.211C156.984 106.028 162.582 104.222 162.536 104.234C163.321 104.023 164.584 103.438 165.744 104.488C166.77 105.487 168.78 105.851 170.517 104.625C173.532 102.501 171.861 97.8293 171.244 96.0869C170.16 93.0269 168.628 91.8737 167.533 91.4448C166.474 91.0279 165.348 91.0038 164.38 91.5223C162.872 92.3267 162.505 93.6229 162.332 94.6798C162.138 95.8263 160.31 96.0962 157.058 96.9154C157.058 96.9154 145.912 99.9646 145.12 100.189L145.061 100.14L142.362 97.8414C141.838 96.9701 140.802 95.4148 139.584 94.4206C139.37 90.9263 136.664 86.768 134.445 85.0696C134.329 82.6377 132.384 79.118 130.31 77.8339C121 61.3728 112.685 50.8085 104.902 45.5571L104.646 45.3834C103.252 44.4467 103.133 44.3144 103.081 43.5848C102.601 37.0987 100.868 30.8772 98.6678 27.5446C99.5385 26.1443 100.853 23.6522 101.76 20.1953L102.744 16.4672L101.617 17.2129C101.901 16.2735 102.188 15.1497 102.464 13.7894L102.49 13.6077C102.573 12.4893 101.818 12.071 101.584 11.9668C101.488 11.9227 101.396 11.9027 101.302 11.8813C101.402 10.3907 101.169 8.89667 100.62 7.50778L99.7598 5.28027L98.1665 7.05613C94.9065 10.692 89.9491 12.5868 85.5745 14.2611C84.5718 14.6446 83.6251 15.0094 82.7265 15.3795C75.5905 18.3353 71.1771 21.4995 67.0171 30.4443L66.6918 30.7209C64.8011 32.3123 60.8638 35.6275 58.6345 42.1965L58.2651 43.2855L59.2318 43.9095C61.5265 45.3794 64.0118 46.4176 67.1465 47.5174C55.3785 73.8813 77.7811 89.5233 96.5265 99.1041C95.4425 101.104 94.5718 102.979 94.3411 105.184L85.9411 114.055C85.1358 114.268 83.6091 114.77 82.7211 115.716C82.4185 116.037 82.1371 116.475 81.8771 117.011C81.6438 117.063 81.4398 117.105 81.2625 117.141C76.0118 118.196 67.6225 120.119 45.3558 126.318C42.1371 123.357 36.7785 121.459 31.5051 121.459C23.1531 121.459 17.7585 125.957 12.2305 132.71C4.24782 142.456 -4.76952 169.14 7.17848 183.264C9.22115 185.679 16.9038 193.472 30.0718 192.463C33.5945 192.193 36.2345 191.608 38.5611 191.096C43.1571 190.079 45.2571 189.615 49.8358 192.698L51.6625 193.933L53.3931 192.56C56.0025 190.496 60.4305 191.19 63.9971 192.019L70.9078 193.635L67.2838 187.522C62.4505 179.366 55.5985 178.197 48.6905 178.8C52.5798 177.714 55.1625 174.25 57.0451 170.148C56.7945 172.85 57.2585 175.723 59.8078 177.537C63.9145 180.462 69.0611 179.178 72.8678 176.817C74.6678 178.358 77.0838 179.258 79.3105 179.159C81.2438 179.123 82.9051 178.74 84.4598 177.982C85.4742 178.708 86.6617 179.153 87.9025 179.272C89.9891 179.472 92.2251 178.797 94.5558 177.27C95.7705 178.486 97.3611 179.154 99.1718 179.162C100.054 179.159 100.933 179.047 101.788 178.828L101.697 179.162H114.266L115.956 172.969C116.105 174.191 116.472 175.363 117.18 176.388C117.965 177.521 119.484 178.919 122.28 179.151C125.276 179.4 128.865 178.272 131.762 176.233C134.91 179.338 138.882 179.845 143.602 177.723C144.536 178.529 146.144 179.477 148.562 179.145C150.221 179.035 151.89 178.327 153.628 177.012C154.325 177.716 155.159 178.269 156.077 178.639C156.995 179.009 157.979 179.187 158.968 179.163C162.366 179.11 165.222 177.074 167.466 174.977C169.938 177.512 173.685 180.095 179.44 179.121C180.29 178.967 181.132 178.773 181.964 178.538C183.868 178.029 184.11 177.963 185.629 179.25L190.12 183.063L190.586 177.303C190.674 177.015 191.3 175.267 194.346 173.255L198.726 170.36L194.037 168.012L194.036 168.011Z" fill="white"/>
<path d="M111.133 141.189C111.133 138.411 108.878 136.15 106.106 136.15C103.334 136.15 101.08 138.411 101.08 141.188C101.082 142.523 101.612 143.804 102.554 144.748C103.496 145.692 104.774 146.224 106.106 146.225C107.439 146.224 108.717 145.693 109.66 144.749C110.602 143.804 111.132 142.525 111.133 141.189ZM193.379 169.333C191.698 168.498 189.826 168.124 187.955 168.248C188.136 165.93 187.312 163.496 186.608 161.421C186.349 160.655 186.104 159.934 185.936 159.299C185.212 156.556 184.872 155.022 185.705 152.738C186.631 150.199 182.819 148.476 181.192 147.735L180.498 147.425C180.294 147.501 180.091 147.578 179.888 147.658C177.765 148.481 173.429 153.652 165.656 163.539C164.744 164.702 163.82 165.877 163.078 166.805C163.558 164.613 165.116 157.518 165.865 154.113C168.861 154.387 171.169 152.486 171.729 149.623C174.217 150.238 176.975 146.574 176.975 141.913C178.284 142.002 182.024 136.186 176.169 129.371C174.384 127.296 160.153 115.006 150.412 106.658L150.378 106.625L162.152 102.823C162.88 102.627 164.218 102.313 164.873 102.369C165.3 102.404 166.209 103.025 166.653 103.514C167.081 103.934 168.265 104.459 169.652 103.447C171.529 102.077 170.669 98.8772 169.858 96.5855C168.961 94.0494 167.844 92.955 167.036 92.637C166.374 92.3777 165.609 92.3029 164.874 92.6837C163.188 93.5576 163.968 95.3923 163.042 96.0911C163.042 96.0911 162.774 96.9089 157.526 98.1904L145.469 101.624L144.762 101.825L144.705 101.775C142.558 99.9448 141.226 98.8144 141.226 98.8144C140.38 97.3619 139.184 95.7811 138.117 95.1878C138.36 91.6348 134.76 86.6974 132.921 85.8409C133.425 84.2801 131.316 79.8545 129.24 78.9325C122.61 67.1656 113.621 53.2193 104.08 46.78C102.556 45.7524 101.733 45.2888 101.616 43.6973C101.081 36.4308 99.0252 30.1612 96.8852 27.5876C97.6718 26.4746 99.2918 23.8088 100.34 19.8281C100.34 19.8281 99.1212 20.6352 98.1892 20.9332C98.6892 20.3586 99.9225 18.9515 101.024 13.5037C101.073 12.8463 100.516 14.0783 99.1932 14.8413C99.4105 13.8859 100.533 11.3497 99.2532 8.04785C94.9812 12.8075 88.1425 14.729 83.2798 16.7427C75.8972 19.8001 72.0372 22.9883 68.2012 31.3612C66.8438 32.5878 62.3838 35.7079 60.0145 42.6751C62.3758 44.189 64.9425 45.2246 68.5838 46.4713C68.5838 46.4713 68.6118 47.6419 68.6332 47.7742C57.5665 72.0041 75.8118 87.1036 98.5398 98.4843C97.0758 101.122 95.8745 103.221 95.7425 105.835L86.7025 115.389C86.7025 115.389 84.6412 115.813 83.7838 116.728C83.4065 117.132 83.1025 117.8 82.9132 118.291C82.3812 118.412 81.9198 118.512 81.5452 118.585C76.0385 119.694 67.1758 121.766 44.9238 127.963C44.8478 127.886 44.7772 127.797 44.6985 127.72C41.7958 124.816 36.6158 122.935 31.4998 122.935C23.7212 122.935 18.6212 127.217 13.3572 133.646C5.63716 143.075 -3.14684 168.8 8.2905 182.318C10.2185 184.598 17.4812 191.959 29.9518 191.004C33.3732 190.739 35.9585 190.17 38.2385 189.666C42.9518 188.624 45.5465 188.051 50.6465 191.485L51.5892 192.12L52.4798 191.413C55.5772 188.96 60.4398 189.686 64.3225 190.595L67.8865 191.426L66.0172 188.277C59.9465 178.036 50.5585 179.725 41.4785 181.362C34.8838 182.548 28.0638 183.776 22.0052 180.774C17.4718 178.528 13.9638 172.616 13.8478 167.029C13.7358 161.524 14.9785 155.411 16.8838 150.153C18.3825 152.085 20.2878 153.128 22.0105 152.673C22.2335 152.611 22.4511 152.532 22.6612 152.435C22.8287 152.413 22.9938 152.376 23.1545 152.324C54.0265 141.901 74.9758 134.282 85.4172 129.688C89.2425 128.007 108.321 121.053 114.702 118.75C120.356 116.708 126.768 114.503 133.033 112.396C136.8 118.162 151.66 140.776 158.116 148.949C156.842 156.465 154.63 165.414 150.876 167.728C150.717 167.828 150.524 167.953 150.356 168.057C151.172 163.67 153.865 152.073 154.289 150.332L154.756 148.398L145.903 148.395L145.752 148.979C144.603 148.52 143.182 148.405 141.581 148.705C134.728 149.998 130.568 156.327 129.221 167.52C129.196 167.72 129.173 167.926 129.149 168.089C127.812 169.63 126.761 169.926 126.445 169.807C126.332 169.767 126.312 169.515 126.318 169.37C126.362 168.047 127.084 165.553 127.784 163.143C129.554 157.01 130.59 152.82 128.868 150.612C127.861 149.323 126.436 148.607 124.746 148.534C123.264 148.469 121.741 148.909 120.356 149.603L120.606 148.521H111.421L111.162 149.766C110.12 154.841 107.074 165.587 104.986 168.041C104.573 168.524 103.76 168.825 103.195 168.905C103.769 166.129 106.373 156.508 108.054 150.481L108.606 148.5H99.2932L99.0198 149.718C98.9892 149.852 95.9518 163.365 93.5838 167.505C92.8998 168.696 92.2638 169.024 92.0238 168.948C91.8638 168.9 91.7118 168.646 91.7345 168.32C91.9665 165.155 97.0572 144.713 98.9958 137.1L99.7505 134.14L89.1705 138.323L86.7345 149.015C86.3876 148.899 86.0318 148.811 85.6705 148.752C78.8638 147.603 75.5478 153.825 74.3012 156.167C72.7012 159.163 71.0905 164.096 70.9412 168.017C69.9545 169.182 68.7518 170.069 68.3452 170.016C68.0052 169.972 67.9172 169.85 67.8385 169.696C66.5505 167.158 70.5878 157.529 73.8665 151.501L75.1198 149.189L62.0865 149.193L62.4705 147.726H54.4438L54.1665 148.934C52.5292 155.979 49.5972 165.213 47.0198 168.841C46.7105 169.275 46.4425 169.505 46.2598 169.616C46.4198 167.949 48.4718 158.639 50.3985 150.428L50.8505 148.506H41.6772L41.2878 150C38.3145 148.901 34.4212 149.116 31.1812 152.766C26.4545 158.09 24.6772 164.302 26.2238 169.937C25.5372 170.455 24.0238 171.325 22.5425 172.028L19.9265 173.276L22.4105 174.774C22.4185 174.782 24.0638 175.816 24.9825 177.746L25.4185 178.659L26.4252 178.633C28.1065 178.592 29.4212 177.431 30.2732 176.537C33.3518 178.282 36.7238 177.953 39.5398 175.639C42.0825 177.528 45.0732 177.696 46.0318 177.696C53.8998 177.696 56.9118 167.256 59.1065 159.629C59.3998 158.614 59.6798 157.646 59.9505 156.771H62.9638C62.7772 157.225 62.5852 157.693 62.3852 158.174C61.5078 160.284 60.5158 162.677 59.7492 165.006C58.8998 167.602 56.9038 173.677 60.6532 176.344C64.3478 178.974 69.3665 177.576 73.0332 174.952C74.7758 176.94 77.3305 177.781 79.2798 177.695C81.3252 177.656 83.0265 177.194 84.6145 176.233C85.6012 177.153 86.7478 177.686 88.0412 177.813C90.4585 178.048 92.8812 176.777 94.8252 175.289C95.8025 176.824 97.3052 177.688 99.1745 177.695C100.721 177.704 102.356 177.263 103.948 176.462L103.61 177.695H113.148L116.235 166.373C118.021 159.163 119.808 158.326 120.152 158.229C120.212 158.212 120.275 158.207 120.337 158.215C120.398 158.223 120.458 158.244 120.512 158.276C120.505 158.746 120.112 159.95 119.758 161.031C119.438 162.01 119.041 163.226 118.633 164.683L118.513 165.1C117.716 167.929 116.379 172.663 118.383 175.556C118.987 176.43 120.172 177.507 122.399 177.691C125.452 177.946 129.252 176.523 131.932 174.258C135.754 178.954 140.345 177.783 143.896 175.962C144.877 177.051 146.2 177.993 148.462 177.683C150.45 177.551 152.271 176.347 153.808 174.97C155.029 176.756 156.821 177.727 158.941 177.696C162.384 177.647 165.261 175.175 167.525 172.874C170.29 176.097 173.731 178.6 179.191 177.675C179.997 177.531 180.795 177.348 181.584 177.127C183.624 176.578 184.468 176.349 186.573 178.133L188.887 180.098L189.135 177.072C189.132 177.087 189.504 174.697 193.537 172.031L195.795 170.542L193.381 169.332L193.379 169.333ZM103.138 111.398C102.06 111.609 101.536 111.763 100.802 112.443C100.286 112.918 99.9372 113.586 99.7492 114.084C97.7145 114.614 95.6145 115.153 93.5758 115.674C93.1118 115.398 92.2212 115.036 90.8425 115.134C90.7132 115.124 90.3492 115.059 90.3772 114.676C90.4038 114.341 97.9878 107.46 97.9878 107.46C100.108 107.026 107.876 102.502 107.876 102.502L110.252 103.475L110.076 103.867L109.737 104.468L103.586 111.014C103.454 111.161 103.328 111.362 103.14 111.398M110.256 111.318C109.722 110.921 109.153 110.69 108.629 110.699C106.658 110.732 107.328 110.012 107.777 109.503L113.05 104.567C113.05 104.567 117.208 106.299 122.2 108.054C118.221 109.15 114.239 110.237 110.256 111.316M35.3892 169.226C35.3692 169.226 35.3412 169.226 35.2692 169.135C35.1652 169.003 34.3078 167.732 35.4252 163.269C36.2492 159.977 37.4612 157.769 38.8318 157.056C39.0958 156.918 39.4678 156.775 39.9945 156.796C39.2878 162.924 37.3452 169.226 35.3892 169.226ZM83.9732 163.264C83.5785 164.839 83.1732 166.471 82.8078 168.146C82.7572 168.39 82.1278 168.889 81.2532 168.972C80.9385 169.006 80.3705 168.98 80.2465 168.69C79.4598 166.869 80.5438 160.999 83.0918 157.968C83.8412 157.076 84.5825 156.619 85.2998 156.593C85.3292 157.836 84.5532 160.932 83.9732 163.264ZM139.156 169.277C139.136 169.277 139.105 169.277 139.036 169.183C138.932 169.055 138.076 167.782 139.193 163.317C140.037 159.955 141.156 157.892 142.524 157.187C142.986 156.949 143.513 156.883 144.094 156.954C143.29 163.131 141.233 169.278 139.157 169.278M179.328 169.575C178.968 169.928 178.274 170.163 177.536 170.179C176.62 170.199 175.769 169.903 175.215 169.366C172.379 166.701 172.379 166.701 173.745 164.922C174.628 163.776 175.4 162.707 176.152 161.671C176.811 160.756 177.439 159.902 178.06 159.096C178.277 160.687 178.732 162.165 179.16 163.551C180.044 166.405 180.485 168.105 179.328 169.575Z" fill="#14264B"/>
<path d="M80.5426 37.5459C80.2963 37.9429 79.9467 38.2651 79.5313 38.478C79.116 38.6908 78.6506 38.7862 78.1852 38.7538C77.848 38.735 77.518 38.6493 77.2142 38.5014C76.9104 38.3536 76.6389 38.1467 76.4157 37.8928C76.1924 37.6389 76.0218 37.343 75.9137 37.0223C75.8057 36.7017 75.7623 36.3627 75.7862 36.0251C75.81 35.6875 75.9007 35.3581 76.0528 35.0559C76.2049 34.7537 76.4155 34.4849 76.6722 34.2651C76.929 34.0452 77.2268 33.8788 77.5484 33.7754C77.8699 33.672 78.2088 33.6337 78.5452 33.6628C79.4719 33.7296 80.2519 34.2854 80.6412 35.0645C78.8879 34.8747 78.5052 36.5731 78.5052 36.5731C77.3692 35.178 78.8359 34.3736 78.8359 34.3736C77.8599 34.244 76.9332 34.991 76.8532 36.1121C76.8344 36.3792 76.8682 36.6474 76.9528 36.9014C77.0375 37.1554 77.1712 37.3902 77.3464 37.5923C77.5216 37.7945 77.7349 37.96 77.974 38.0795C78.2131 38.199 78.4734 38.2702 78.7399 38.2888C79.4972 38.3423 80.1479 38.0951 80.5426 37.5459Z" fill="white"/>
<path d="M98.1628 11.2676C94.4361 15.1828 88.5295 16.4602 83.4775 18.5902C76.0748 21.7143 72.2295 26.5368 70.3135 31.1962C71.0321 32.4282 75.5255 32.5418 76.1988 32.1409C77.3455 31.4568 78.9001 31.1134 80.1415 31.8323C81.0481 32.3574 81.5388 32.8812 81.9521 33.1578C83.0495 33.6268 84.5815 34.0143 85.7175 33.7457C80.7175 38.7713 80.1415 45.3683 80.6108 46.4841C74.7281 46.4841 68.8255 54.4654 67.7495 56.6181C61.4588 80.363 97.3695 96.0117 100.933 97.674C98.8601 100.995 97.1068 103.652 97.2615 104.887C97.3855 105.873 97.9415 105.9 99.0868 105.667C101.711 104.184 106.34 102.061 107.973 100.163C108.964 99.0142 107.937 97.3426 107.452 96.7987C106.931 96.2094 107.231 95.6937 108.431 96.4286C109.569 97.3934 109.775 97.9292 110.135 98.775C110.648 99.999 109.179 101.303 109.179 101.303C113.22 103.134 127.037 108.582 131.316 109.43L126.679 101.904C118.255 98.5345 106.408 93.4461 99.6868 90.1028C89.2668 84.9129 72.0188 74.1081 80.6188 57.5548C83.1308 53.339 84.0855 53.2548 84.4415 54.2409C84.4655 54.3412 84.3908 54.6244 84.2855 54.6792C84.1255 54.8422 82.9921 55.9353 81.9361 58.1815C73.8535 73.2355 90.5788 84.0257 100.441 88.8187C114.72 95.7538 127.937 101.096 136.641 104.024C137.975 104.471 139.188 104.928 140.135 105.198C142.775 105.976 139.375 96.8094 136.041 95.8674C118.38 90.6654 101.379 82.9072 96.6708 78.2491C93.8455 77.9124 86.3041 75.61 85.0775 65.3718C85.0281 65.0952 85.0415 64.8573 85.3868 64.7785C85.7068 64.7063 85.8375 64.9402 85.8655 65.0818C88.0255 74.3754 94.3441 76.8527 97.0148 76.9169C98.4921 76.9516 100.819 75.4764 100.209 75.1196C95.6255 72.4538 93.0495 67.0862 92.8681 66.5303C92.7495 66.1682 92.8841 66.0693 93.1108 65.9477C93.3228 65.8368 93.5681 65.925 93.7988 66.2818C94.9815 68.1204 99.3321 75.304 105.775 75.5005C107.479 75.5526 109.353 75.4924 109.733 73.9638C109.733 73.9638 104.284 71.4463 101.611 67.018C101.517 66.8764 101.441 66.6065 101.785 66.3967C102.136 66.1856 102.407 66.5477 102.567 66.6973C107.769 72.0463 111.947 74.219 114.473 73.9504C115.495 73.8849 116.209 73.1527 116.247 72.6369C116.383 70.694 114.421 69.5048 113.905 69.1533C113.831 69.1039 113.791 68.9275 113.876 68.8139C113.953 68.703 114.152 68.6456 114.413 68.7725C115.433 69.2589 117.429 70.6967 117.264 72.9629C117.233 73.3652 117.181 73.6324 116.879 73.9638C119.831 75.5192 124.855 77.5208 127.189 78.2464C120.028 66.2136 112.112 53.5635 101.796 47.2618C101.519 48.1597 102.381 50.2042 101.353 49.7098C100.64 49.3677 100.017 46.3892 99.9908 45.0463C99.8561 38.1005 97.9561 32.308 95.4228 28.9754C94.0215 30.0751 91.4775 30.6323 91.4881 30.6484C96.5628 26.1372 97.2148 22.9717 97.2148 22.9717C95.7348 24.1182 92.1815 25.6989 90.3321 26.021C90.3321 26.021 96.1228 22.6309 98.4468 16.5831C98.4468 16.531 94.7521 20.2164 89.3481 21.4403C89.3455 21.4323 98.3281 17.3301 98.1628 11.2676ZM110.913 74.3941C110.812 75.0488 110.615 75.6715 109.585 76.1365C118.997 81.7434 129.045 84.802 131.249 85.4407C131.703 85.1147 130.553 80.8067 127.4 79.6869C122.695 78.0099 118.775 76.3463 115.993 74.5958C115.012 75.1383 113.555 75.4577 110.913 74.3941ZM101.624 75.8425C101.515 76.6363 99.4388 77.8095 98.5041 77.9738C105.272 83.741 129.111 92.6364 135.921 94.2358C137.015 94.4924 135.428 89.579 132.428 87.5653C130.236 86.0848 116.461 82.8925 107.733 76.5948C106.261 76.8354 104.428 76.8928 101.624 75.8425ZM142.228 101.632C142.508 102.244 142.655 103.035 142.788 103.77C143.988 109.462 139.695 106.309 128.733 102.611C137.521 116.519 150.908 137.058 158.481 146.663C158.908 143.83 159.215 141.345 159.401 139.728L159.561 138.352L161.148 137.737L140.508 111.211H142.348C142.348 111.211 154.108 126.443 162.641 137.156L168.548 134.84C159.895 125.665 145.495 110.76 145.495 110.76L147.375 110.809C147.361 110.658 175.268 139.701 175.268 139.701C176.801 141.425 179.401 135.586 175.215 130.916C172.895 127.203 142.228 101.632 142.228 101.632ZM31.5015 124.495C24.8215 124.495 20.0975 127.88 14.5641 134.64C6.60279 144.365 -1.06787 168.845 9.48413 181.312C13.0175 185.494 20.1588 190.184 29.8348 189.449C40.4148 188.634 43.2881 184.652 51.5148 190.184C55.3881 187.124 61.2935 188.287 64.6788 189.075C55.0028 172.746 36.4881 189.69 21.3161 182.18C16.0588 179.575 12.4148 173.04 12.2908 167.067C12.1641 161.028 13.6161 154.306 15.8268 148.561C15.3441 147.665 14.9441 146.663 14.6601 145.594C13.4935 141.158 14.9615 136.713 17.5588 135.711C17.7001 135.644 17.8521 135.586 18.0175 135.543C20.6441 134.781 23.1521 134.132 25.5615 133.444C26.3481 132.73 27.2018 132.095 28.1108 131.546C31.1455 129.769 36.9468 129.694 40.3348 132.168C38.7615 134.021 37.4055 136.544 39.6321 138.619C41.3721 140.303 44.2375 139.608 45.4161 137.609C47.2308 134.514 45.7495 131.034 43.6001 128.824C41.0175 126.239 36.2455 124.495 31.5015 124.495ZM169.741 136.107L168.061 143.884C169.808 145.968 170.981 147.304 171.261 147.425C173.955 148.627 175.888 143.282 174.848 141.759C174.501 141.238 172.515 139.073 169.741 136.107ZM97.4788 136.713L90.5001 139.474L87.6855 151.834C87.6855 151.834 87.6601 150.672 85.4041 150.284C80.4428 149.456 77.6908 153.104 75.6695 156.899C74.1588 159.731 72.4788 164.849 72.4788 168.591C72.4788 168.591 70.0335 171.811 68.1375 171.571C61.6281 170.715 72.4895 150.752 72.4895 150.752H60.0548L60.4428 149.282H55.6748C54.3575 154.961 51.3415 165.437 48.2815 169.753C46.6228 172.092 44.7388 171.437 44.6855 169.82C44.6308 168.163 48.8748 150.07 48.8748 150.07H42.8748L42.3068 152.249C40.6241 151.166 36.2348 149.416 32.3388 153.812C27.2441 159.544 26.3961 165.638 27.9241 170.221C28.1361 171.089 23.2028 173.441 23.2028 173.441C23.2028 173.441 25.2308 174.657 26.3801 177.076C28.2708 177.022 29.8641 174.417 30.0681 174.55C32.9801 176.755 36.5455 176.728 39.5028 173.548C41.3055 175.446 43.9988 176.14 46.0255 176.14C54.1095 176.14 56.5428 161.883 58.8095 155.215H65.2428C64.3028 157.794 62.4508 161.763 61.2215 165.504C59.9321 169.419 59.1481 173.361 61.5468 175.071C65.2295 177.69 70.4308 175.299 73.3588 172.693C74.5881 175.071 77.1508 176.221 79.2055 176.14C81.4708 176.1 83.1788 175.512 84.8588 174.176C87.9921 178.506 92.7748 175.205 95.4095 172.746C95.8681 174.564 97.0055 176.127 99.1748 176.14C101.741 176.154 104.455 174.724 106.573 172.693L105.643 176.14H111.948L114.721 165.972C117.776 153.638 121.552 156.912 121.852 157.406C122.551 158.489 121.396 160.56 120.128 165.103C119.247 168.27 116.899 175.673 122.521 176.14C125.741 176.408 129.961 174.417 132.135 171.878C135.341 177.049 139.195 176.902 144.275 173.976C145.381 175.406 146.208 176.421 148.261 176.14C150.621 176.034 152.955 173.708 154.235 172.372C154.955 174.43 156.448 176.181 158.915 176.14C162.341 176.087 165.381 172.88 167.621 170.528C170.635 174.443 173.688 177.022 178.928 176.14C182.595 175.512 184.021 173.936 187.568 176.942C187.568 176.942 187.821 173.936 192.675 170.729C190.008 169.392 187.315 169.74 185.808 170.208C187.501 167.094 185.235 162.751 184.421 159.705C183.701 156.952 183.221 155.001 184.235 152.208C184.688 150.966 181.048 149.389 180.448 149.122C177.341 150.324 164.035 168.524 162.648 169.686C162.008 170.234 160.488 171.116 161.408 167.107C161.408 167.107 168.088 136.746 168.048 136.713L160.995 139.474C160.195 146.182 158.101 165.103 151.688 169.058C151.101 169.419 149.155 170.862 148.581 169.727C148.261 169.112 152.728 150.164 152.768 149.964H147.101L146.661 151.687C145.728 149.964 143.368 149.964 141.861 150.244C131.119 152.262 130.948 168.257 130.588 168.804C127.475 172.653 124.672 171.677 124.755 169.312C124.897 165.237 129.799 154.36 127.633 151.58C125.249 148.52 120.339 150.712 117.88 153.358L118.637 150.084H112.685C111.829 154.226 108.728 166.052 106.164 169.058C104.813 170.635 101.376 171.103 101.525 169.419C101.696 167.468 106.549 150.057 106.549 150.057H100.533C100.533 150.057 97.4428 163.887 94.9268 168.283C92.7735 172.052 90.0121 170.395 90.1721 168.203C90.4695 164.208 97.4788 136.713 97.4788 136.713ZM106.101 137.71C105.182 137.711 104.301 138.078 103.651 138.729C103.001 139.38 102.635 140.263 102.633 141.184C102.633 143.109 104.185 144.659 106.101 144.659C107.021 144.659 107.903 144.293 108.553 143.641C109.203 142.99 109.568 142.106 109.568 141.184C109.568 140.263 109.203 139.379 108.553 138.728C107.903 138.076 107.021 137.71 106.101 137.71ZM167.608 146.048L166.235 152.382C168.488 152.315 170.755 150.351 169.635 148.667L167.608 146.048ZM179.768 154.841C178.168 161.295 183.861 166.466 180.488 170.622C179.141 172.025 175.941 172.225 174.128 170.488C170.448 167.027 170.515 166.533 172.501 163.967C175.355 160.253 177.208 157.139 179.768 154.841ZM85.1668 155.015C85.4841 155.001 85.8095 155.028 86.1401 155.108C87.9841 155.562 85.7361 161.923 84.3201 168.47C83.8815 170.515 79.7495 171.49 78.8068 169.299C77.3281 165.878 80.4095 155.268 85.1668 155.015ZM40.0881 155.228C40.5815 155.255 41.1081 155.375 41.6695 155.589C41.6695 155.589 40.3801 170.782 35.3775 170.782C33.8095 170.782 32.4548 168.671 33.9068 162.885C34.8188 159.224 36.6375 155.055 40.0881 155.228ZM144.061 155.362C144.595 155.402 145.168 155.536 145.795 155.776C145.795 155.776 144.275 170.836 139.141 170.836C137.581 170.836 136.221 168.724 137.675 162.938C138.581 159.277 140.315 155.055 144.061 155.362Z" fill="#B72126"/>
<path d="M68.7958 33.4697C63.9331 36.4589 61.7465 42.0016 61.7465 42.0016C66.0251 41.0849 66.6958 39.8556 69.9518 40.1375C71.1131 40.2391 71.6625 40.7696 72.5865 41.4524C71.1718 41.1317 70.0798 41.0609 68.8891 41.0328C67.2345 40.9941 63.9611 42.1593 62.2985 42.325C62.2985 42.325 67.7518 44.6781 69.4278 44.9266C69.4278 44.9266 72.9478 46.3136 73.9651 41.8466C74.5171 39.4227 72.6918 35.915 70.3451 36.8958C70.3211 36.9065 70.7651 34.3423 68.7958 33.4697ZM166.174 93.6338C166.058 93.6273 165.942 93.6354 165.828 93.6578C164.694 93.8703 164.654 95.1638 164.654 95.1638C164.654 95.1638 164.841 96.3143 163.548 97.2804C162.908 97.7694 160.961 98.6273 157.828 99.25L145.774 102.685L149.441 105.772L161.814 101.774C161.814 101.774 166.388 100.629 166.388 98.4696C166.388 95.1451 168.121 101.472 167.414 102.727C167.414 102.727 168.001 103.289 169.014 102.554C170.014 101.82 169.828 99.8005 168.828 96.957C167.934 94.4649 167.001 93.6792 166.174 93.6338ZM124.149 108.724L111.532 112.179L111.233 112.278C112.653 114.026 113.384 116.838 111.477 118.702C112.634 118.285 114.154 117.73 114.154 117.73C120.186 115.568 126.239 113.468 132.313 111.431L132.389 111.41L132.149 111.042C129.689 110.493 126.864 109.633 124.149 108.724ZM108.474 113.104C107.994 113.223 107.59 113.302 107.353 113.299C106.593 113.496 96.9385 116.005 94.7958 116.564C97.0345 118.528 97.4091 122.545 94.7665 124.84C100.185 122.816 106.334 120.571 109.704 119.346L110.384 119.098C111.158 117.679 111.117 114.856 109.686 113.685C109.366 113.423 108.912 113.238 108.474 113.104ZM91.0425 117.576C90.9567 117.58 90.8709 117.582 90.7851 117.582C89.8171 117.828 89.0291 118.023 89.0291 118.023C85.4505 118.915 82.9531 119.505 81.6105 119.775C74.3105 121.244 63.2318 124.077 45.7305 128.951C47.5891 131.465 48.7238 135.046 46.7558 138.406C46.3263 139.126 45.7409 139.74 45.0427 140.202C44.3446 140.665 43.5516 140.964 42.7225 141.078C41.1705 141.292 39.6505 140.811 38.5718 139.769C37.3345 138.62 35.8011 136.252 38.0398 132.659C37.1438 132.274 36.1465 132.045 35.1265 131.93L18.1705 136.777C18.0851 136.804 17.9998 136.822 17.9158 136.845C15.7411 137.631 14.7598 141.519 15.7331 145.221C16.7345 149.029 19.2945 151.942 21.6158 151.327C23.9318 150.712 24.8318 146.891 23.8291 143.096C23.4451 141.626 23.1305 140.637 22.3865 139.582C22.3865 139.582 23.9758 140.904 24.7251 144.152C25.3651 146.931 25.2651 149.162 24.4878 150.672C54.3065 140.584 74.5998 133.188 84.7985 128.702C85.9958 128.174 88.7105 127.113 92.8651 125.552L93.6025 125.279C94.5531 123.624 94.7398 119.653 92.7718 118.261C92.3118 117.932 91.6185 117.714 91.0425 117.576Z" fill="#FEE60E"/>
</svg>
