<svg width="200" height="200" viewBox="0 0 200 200" fill="none" xmlns="http://www.w3.org/2000/svg">
<g clip-path="url(#clip0_106_10598)">
<path d="M0 99.9996C0 44.7736 44.7706 0 99.9897 0C155.229 0 200 44.7736 200 99.9996C200 155.226 155.229 199.999 99.9906 199.999C44.7715 199.999 0 155.226 0 99.9996Z" fill="white"/>
<path d="M6.44775 99.6068C6.44775 47.966 48.3155 6.09082 99.9639 6.09082C151.607 6.09082 193.489 47.966 193.489 99.6068C193.489 151.248 151.607 193.132 99.9639 193.132C48.3155 193.132 6.44775 151.248 6.44775 99.6068ZM99.9639 168.696C138.108 168.696 169.039 137.76 169.039 99.6068C169.039 61.4632 138.109 30.5344 99.963 30.5344C61.8125 30.5344 30.8856 61.4623 30.8856 99.6068C30.8873 137.76 61.8133 168.696 99.9639 168.696Z" fill="#0E3386"/>
<path d="M130.376 119.14C123.943 129.127 112.73 135.749 99.9638 135.749C80.0036 135.749 63.835 119.571 63.835 99.6078C63.835 79.6708 80.0036 63.4755 99.9638 63.4755C113.115 63.4755 124.634 70.5174 130.962 81.0339L148.745 63.6862C137.703 48.7248 119.974 39.0303 99.9638 39.0303C66.5143 39.0303 39.3843 66.1736 39.3843 99.607C39.3843 133.058 66.5143 160.173 99.9638 160.173C119.763 160.173 137.336 150.69 148.384 136.022L130.376 119.14Z" fill="#CC3433"/>
<path d="M89.2722 105.615V83.6475H100.156V105.879C100.156 113.863 98.2718 115.729 91.9378 115.729H80.6201C75.4019 115.729 73.7158 112.353 73.7158 105.294V83.6475H84.5934V105.614C84.5934 108.605 89.2722 108.606 89.2722 105.615ZM104.097 115.729V83.6475H121.277C127.747 83.6475 130.523 85.1665 130.523 92.675C130.523 96.6163 129.773 98.6645 127.519 99.799C130.523 101.481 130.523 104.673 130.523 107.488C130.523 114.604 127.376 115.729 121.277 115.729H104.097Z" fill="#CC3433"/>
<path d="M120.152 92.3901C120.115 91.0826 118.881 91.1742 115.524 91.1742V95.6739C117.399 95.6739 120.153 95.8657 120.153 94.1737V92.3901H120.152ZM120.073 105.459C119.502 103.922 119.183 104.106 115.524 104.106V108.605C117.866 108.605 120.074 108.797 120.074 107.107C120.074 106.694 120.186 105.779 120.074 105.459H120.073Z" fill="white"/>
<path d="M152.229 115.729C158.086 115.729 161.119 114.138 161.119 108.961C161.119 108.33 161.087 102.423 161.087 101.782C161.119 98.0231 158.417 95.5811 154.639 95.5811H146.802C144.675 95.5811 145.151 92.4815 145.151 91.5481C145.151 90.0497 149.581 89.5822 149.581 92.0242V93.5141H161.119C161.119 86.0253 159.752 83.6475 152.229 83.6475C150.491 83.6757 144.086 83.6757 142.09 83.6757C137.272 83.6757 134.638 85.5595 134.455 91.1748C134.28 96.8004 134.455 94.3584 134.455 96.4339C134.455 98.483 134.138 103.083 140.449 103.083H148.409C150.664 103.083 150.216 105.707 150.216 105.707V107.38C150.216 109.273 146.411 109.356 145.552 107.8C144.985 106.777 145.287 105.149 145.287 105.149H134.455C134.455 107.38 133.237 115.73 139.777 115.73H152.227L152.229 115.729Z" fill="#CC3433"/>
</g>
<defs>
<clipPath id="clip0_106_10598">
<rect width="200" height="200" fill="white"/>
</clipPath>
</defs>
</svg>
