<svg width="200" height="200" viewBox="0 0 200 200" fill="none" xmlns="http://www.w3.org/2000/svg">
<path d="M80.9648 97.5558H86.6943L88.1956 96.3018V94.5283H80.9648V97.5558ZM148.929 108.8H153.672L155.172 107.543V94.5283H148.929V108.8Z" fill="#C6011F"/>
<path d="M200 99.4452C200 59.8795 155.862 32 108.729 32C70.8914 32 44.6628 54.4149 30.4005 71.39C10.8174 94.6984 0 97.6684 0 97.6684C15.1671 110.972 22.3021 117.736 29.3415 125.363C49.2015 146.879 65.6516 168.888 112.417 168.888C168.113 168.888 200 132.485 200 99.4452ZM183.386 97.5321L189.609 102.735L192.67 105.801L192.698 110.419L184.64 117.034H178.668L177.034 115.656V117.109H170.85L167.786 114.04V105.751H173.973L177.153 108.771L181.911 108.803L183.424 107.538V105.8H177.646L167.786 97.5309V91.4286L174.139 86.1624H181.819L183.424 87.5111V86.1624H189.609L192.67 89.227V97.5129H186.487L183.328 94.5158L178.765 94.5215L177.167 95.8544V97.5309L183.386 97.5321ZM113.387 164.035C72.9284 164.035 57.2921 148.359 38.5586 128.438C30.8755 120.274 25.9327 113.197 13.973 103.397L11.4161 97.478C11.4161 97.478 16.45 95.8352 35.5729 73.1567C50.0017 56.0498 75.1387 37.0499 108.041 37.0499C141.534 37.0499 175.03 52.5107 188.005 78.1616C188.005 78.1616 189.314 81.7186 189.851 82.7867H160.553C154.656 73.453 137.097 62.6996 113.828 62.6996C75.1387 62.6996 60.2001 88.1184 60.2001 100.735C60.2001 105.073 60.7583 111.782 63.1284 116.239C72.512 130.43 91.95 138.2 110.559 138.2C130.715 138.2 146.575 130.26 159.515 120.417H187.182L189.122 124.955C176.228 146.518 148.81 164.035 113.387 164.035ZM138.602 94.5282H138.56L135.543 91.4613H135.497V86.1635H155.138L161.394 91.4298L164.459 94.4933V110.245L156.249 116.978H138.56L135.543 113.911H135.497V108.804H135.543V108.8H139.646V94.5282H138.602ZM121.098 97.5321L124.16 100.597V105.802H116.506V108.8H122.742V105.809H128.97L132.031 108.877V116.978H106.133L103.111 113.912H103.072V108.805H103.111V108.801H107.221V94.5282H106.133L103.111 91.4613H103.072V86.1635H128.97L132.031 89.2282V97.514H125.806L122.639 94.5282H116.505V97.5321H121.098ZM82.0476 108.804L85.1132 111.871V116.978H70.5887L67.5287 113.912V108.805H71.677V94.5294H70.5887L67.5287 91.4624V86.1646H88.1596L94.4203 91.4309L97.4847 94.4944V100.598L92.8739 104.382L94.7826 108.805H96.509L99.5723 111.872V116.979H91.6608L88.5997 113.912L85.0907 105.736H80.9649V108.805L82.0476 108.804Z" fill="#C6011F"/>
<path d="M187.182 120.416C174.29 141.982 146.87 159.502 111.449 159.502C70.9893 159.502 55.0817 142.13 36.346 122.208C28.6628 114.045 23.8574 106.667 11.416 97.4775L13.9729 103.396C25.9326 113.196 30.8754 120.274 38.5585 128.437C57.292 148.359 72.9283 164.035 113.387 164.035C148.811 164.035 176.228 146.518 189.122 124.955L187.182 120.416Z" fill="black"/>
<path d="M112.485 58.0771C72.9161 58.0771 57.381 84.4119 57.381 97.0221C57.3396 103.858 59.3412 110.55 63.1284 116.238C60.7583 111.782 60.2001 105.075 60.2001 100.735C60.2001 88.1188 75.1387 62.7001 113.828 62.7001C137.097 62.7001 154.656 73.4534 160.553 82.7872H189.85C189.314 81.719 188.005 78.162 188.005 78.162H160.028C154.133 68.8305 135.753 58.0771 112.485 58.0771Z" fill="black"/>
<path d="M36.346 122.209C55.0817 142.131 70.9893 159.504 111.449 159.504C146.87 159.504 174.29 141.982 187.182 120.418H159.515C146.575 130.26 130.716 138.2 110.558 138.2C91.951 138.2 72.5119 130.43 63.1283 116.238C59.341 110.55 57.3395 103.857 57.3809 97.0215C57.3809 84.4113 72.9159 58.0766 112.485 58.0766C135.754 58.0766 154.133 68.83 160.029 78.1614H188.005C175.029 52.5106 141.534 37.0498 108.041 37.0498C75.1386 37.0498 50.0027 56.0496 35.5728 73.1566C16.4499 95.8351 11.416 97.4778 11.416 97.4778C23.8585 106.667 28.664 114.045 36.346 122.209Z" fill="white"/>
<path d="M122.639 94.5278L125.807 97.5136H132.031V89.2266L128.97 86.1631V94.4467H122.742V91.4609H113.443V97.5317H116.506V94.5278H122.639ZM103.111 113.911L106.134 116.978H132.031V108.877L128.97 105.809V113.911H103.111ZM113.443 102.735V108.8H116.506V105.801H124.16V100.596L121.098 97.5317V102.735H113.443ZM103.111 91.4609L106.134 94.5278H107.221V91.4609H103.111ZM67.5288 91.4609L70.5888 94.5278H71.677V91.4609H67.5288ZM67.5288 113.911L70.5888 116.978H85.1132V111.87L82.0476 108.803V113.911H67.5288ZM89.8129 101.315L93.0406 108.803H94.7827L92.874 104.381L97.4848 100.596V94.4929L94.4203 91.4294V97.5317L89.8129 101.315ZM85.0907 105.734L83.774 102.671H77.8994V108.803H80.965V105.734H85.0907ZM88.5997 113.911L91.662 116.978H99.5724V111.87L96.5091 108.803V113.911H88.5997ZM80.965 94.5278H88.1957V92.7758L86.6224 91.4609H77.8994V97.5553H80.965V94.5278Z" fill="black"/>
<path d="M113.443 91.4609H122.742V94.4467H128.97V86.1631H103.072V91.4609H107.221V108.8H103.111V108.803H103.072V113.911H128.97V105.809H122.742V108.8H113.443V102.735H121.098V97.5317H113.443V91.4609ZM77.8994 102.671H83.774L85.0907 105.735L88.5997 113.911H96.5091V108.803H93.0406L89.8129 101.315L94.4203 97.5317V91.4294L88.1597 86.1631H67.5288V91.4609H71.677V108.803H67.5288V113.912H82.0476V108.804H77.9005L77.8994 102.671ZM77.8994 91.4598H86.6224L88.1957 92.7758V96.3013L86.6944 97.5553H77.9005L77.8994 91.4598Z" fill="white"/>
<path d="M135.542 91.4609L138.56 94.5279H139.646V91.4609H135.542ZM148.929 94.5279H155.172V92.7758L153.602 91.4609H145.871V108.8H148.929V94.5279Z" fill="black"/>
<path d="M155.138 113.911H135.542L138.56 116.978H156.249L164.46 110.244V94.4929L161.394 91.4294V108.772L155.138 113.911ZM181.86 102.735H174.011L167.786 97.5317L177.646 105.801H183.424V104.042L181.86 102.735ZM183.391 113.969H175.605L173.973 112.592V114.039H167.786L170.85 117.108H177.034V115.656L178.668 117.034H184.639L192.698 110.419L192.669 105.801L189.609 102.735L189.646 108.7L183.391 113.969ZM178.765 94.5222L183.328 94.5166L186.487 97.5136H192.669V89.2266L189.609 86.1631V94.4467H183.424V92.7803L181.833 91.4474L175.701 91.4564L174.104 92.7916V96.2337L175.659 97.5317H177.168V95.8551L178.765 94.5222ZM175.491 108.755L177.153 108.77L173.973 105.751V107.493L175.491 108.755Z" fill="black"/>
<path d="M135.543 108.8V108.803H135.498V113.912H155.138L161.394 108.773V91.4294L155.138 86.1631H135.499V91.4609H139.647V108.801L135.543 108.8ZM145.872 91.4598H153.602L155.172 92.7758V107.543L153.672 108.8H145.873L145.872 91.4598ZM174.105 96.2337V92.7916L175.701 91.4564L181.833 91.4474L183.424 92.7803V94.4467H189.609V86.1631H183.424V87.5118L181.819 86.1631H174.139L167.787 91.4294V97.5317L174.011 102.735H181.86L183.424 104.042V107.538L181.911 108.802L177.153 108.77L175.491 108.755L173.973 107.493V105.751H167.787V114.039H173.973V112.592L175.605 113.969H183.391L189.646 108.7L189.609 102.735L183.386 97.5317H175.659L174.105 96.2337Z" fill="white"/>
</svg>
