<svg width="200" height="200" viewBox="0 0 200 200" fill="none" xmlns="http://www.w3.org/2000/svg">
<g clip-path="url(#clip0_106_10665)">
<path d="M89.3502 175.066L108.133 184.67L118.772 180.174C124.962 182.269 131.6 183.422 138.52 183.422C172.461 183.422 200 155.907 200 121.942C200 104.266 192.539 88.3072 180.582 77.1034L181.217 63.1692C181.217 63.1692 181.217 56.9082 176.627 55.6607L65.5538 16L52.208 18.495C52.208 18.495 51.7843 27.6746 58.469 34.7829L14.2184 18.9187L0.0253222 21.4136C0.0253222 21.4136 -1.22217 36.4541 13.7948 45.21C13.7948 45.21 11.6999 58.1557 25.893 66.5115C25.893 66.5115 24.2219 78.6098 35.92 85.2944C35.92 85.2944 33.8252 94.8977 47.6182 104.077L64.7299 154.589L83.0892 163.768L92.2688 160.85L89.3502 175.066Z" fill="#00385D"/>
<path d="M97.2825 151.693L93.5165 173.395L107.286 180.08L121.055 119.117L97.7062 109.514L95.2112 118.27L103.143 125.378L101.049 136.653C101.049 136.653 100.225 139.572 96.8824 139.995L81.0181 143.338L68.4962 107.843L91.8689 73.1958L126.092 86.5651L126.516 74.4668C126.516 74.4668 127.34 71.1244 123.174 69.4533L86.4317 56.084L51.3608 104.924L67.6488 152.093L83.0894 160.026L97.2825 151.693Z" fill="#E50022"/>
<path d="M131.318 114.316L123.809 116.411L101.26 106.808L107.945 104.713L131.318 114.316Z" fill="white"/>
<path d="M81.6298 106.384L72.4502 109.302L83.7247 139.36L92.0805 137.289L81.6298 106.384Z" fill="white"/>
<path d="M138.002 44.5983L131.317 46.6931L58.6807 20.3782L66.1891 18.707L138.002 44.5983Z" fill="white"/>
<path d="M142.992 46.2695L136.308 47.9407L167.613 59.6388C167.613 59.6388 169.284 59.6388 170.955 62.1338L177.428 59.8271C177.428 59.8271 177.428 58.156 172.414 56.9085L142.992 46.2695Z" fill="white"/>
<path d="M128.799 48.7646L122.538 57.5206L83.7011 43.7511C83.7011 43.7511 78.2639 39.1613 77.8638 30.3818L128.799 48.7646Z" fill="white"/>
<path d="M74.9453 29.1573C74.9453 29.1573 75.3689 36.2656 78.2876 41.6793L66.1893 37.5131C66.1893 37.5131 56.586 30.4048 55.7622 22.4727L74.9453 29.1573Z" fill="white"/>
<path d="M129.223 69.2416C129.223 69.2416 127.975 66.7466 122.962 65.4756L91.2334 53.7775L98.3417 51.6826L132.989 64.2046C132.989 64.2046 135.908 65.0284 136.331 66.6996L129.223 69.2416Z" fill="white"/>
<path d="M92.9044 50.0349L85.3959 52.1062L6.47461 23.72L15.2541 22.0488L92.9044 50.0349Z" fill="white"/>
<path d="M83.3014 54.2015L73.698 67.1471L46.1356 56.2963C46.1356 56.2963 27.7764 50.459 27.7764 34.5947L83.3014 54.2015Z" fill="white"/>
<path d="M24.4337 33.3237L3.1323 25.3916C3.1323 25.3916 2.30849 40.4321 31.0949 50.4355C31.1184 50.4355 25.4694 45.2337 24.4337 33.3237Z" fill="white"/>
<path d="M72.0265 70.0653L64.9181 79.6687L51.1487 74.6552C51.1487 74.6552 37.3792 69.218 36.9556 56.2959L72.0265 70.0653Z" fill="white"/>
<path d="M33.6132 55.0484C33.6132 55.0484 32.7894 61.7331 38.6267 69.2415C38.6267 69.2415 18.1726 64.6517 16.5015 47.1163C16.5015 47.0927 28.4114 53.1654 33.6132 55.0484Z" fill="white"/>
<path d="M62.847 82.5876L56.586 90.9434C56.586 90.9434 46.1589 86.3536 45.3115 75.0791L62.847 82.5876Z" fill="white"/>
<path d="M42.6049 74.4437C42.6049 74.4437 41.3574 80.281 47.6184 87.813C47.6184 87.813 29.6593 82.7996 28.8354 68.6064L42.6049 74.4437Z" fill="white"/>
<path d="M49.0778 101.37L54.9151 94.2617C54.9151 94.2617 42.8168 89.2482 39.0508 87.1533C39.0508 87.1769 39.2626 96.5683 49.0778 101.37Z" fill="white"/>
<path d="M168.883 68.3943C169.707 63.8044 166.388 62.557 166.388 62.557L131.741 49.6113L125.692 58.5791L132.377 60.674C132.377 60.674 150.736 58.5791 167.871 67.7823L168.883 68.3943Z" fill="#E50022"/>
<path d="M137.579 64.0869C137.296 63.9221 138.214 64.0869 138.52 64.0869C170.484 64.0869 196.375 90.0017 196.375 121.942C196.375 153.882 170.461 179.797 138.52 179.797C132.259 179.797 126.21 178.809 120.561 176.949L136.119 112.857L108.157 101.582L94.7875 105.748L91.4451 119.118L99.3773 126.626L98.1298 134.558C98.1298 134.558 97.7061 136.653 95.2111 136.653L84.3604 104.924L100.648 80.2807L127.34 91.155L139.438 86.5652L140.262 68.206C140.285 68.1824 139.862 65.405 137.579 64.0869Z" fill="white"/>
<path d="M182.865 150.423C184.536 151.247 183.288 154.589 183.288 154.589H184.112C185.36 153.341 184.536 150.423 184.536 150.423C185.36 150.423 188.702 145.833 188.702 145.833H187.031C186.207 147.928 182.865 150.423 182.865 150.423Z" fill="#E50022"/>
<path d="M183.5 146.045H182.252C182.252 146.045 181.429 149.387 178.91 150.635C178.91 150.635 180.793 152.518 179.546 155.013L180.581 155.225C180.581 155.225 181.829 151.058 180.158 150.635C180.158 150.635 183.076 148.964 183.5 146.045Z" fill="#E50022"/>
<path d="M177.263 146.374C177.263 146.374 176.51 150.14 174.25 151.646C174.25 151.646 176.886 153.529 175.568 155.977L176.698 155.601C176.698 155.601 176.98 151.929 175.662 151.552C175.662 151.552 178.298 148.728 178.487 146.468L177.263 146.374Z" fill="#E50022"/>
<path d="M173.12 147.692H171.802C171.614 151.082 169.731 153.153 169.731 153.153C171.426 153.718 171.802 157.296 171.802 157.296H172.744C173.309 155.413 171.049 152.965 171.049 152.965C171.802 152.4 173.12 147.692 173.12 147.692Z" fill="#E50022"/>
<path d="M166.341 155.036C166.341 155.036 168.601 150.14 167.659 149.387L166.341 149.763C166.341 149.763 166.153 154.659 164.835 155.601C164.835 155.601 168.789 157.672 167.659 159.367L168.978 158.802C168.978 158.802 168.507 156.636 166.341 155.036Z" fill="#E50022"/>
<path d="M161.351 157.766C161.351 157.766 163.234 153.624 162.575 151.646L161.069 152.4C161.069 152.4 160.88 157.484 159.939 158.237C159.939 158.237 163.893 159.743 163.517 161.626L164.552 161.156C164.552 161.156 163.799 158.331 161.351 157.766Z" fill="#E50022"/>
<path d="M156.644 160.214C156.644 160.214 158.527 156.072 157.868 154.095L156.361 154.848C156.361 154.848 156.173 159.932 155.231 160.685C155.231 160.685 159.186 162.192 158.809 164.075L159.845 163.604C159.845 163.604 159.092 160.779 156.644 160.214Z" fill="#E50022"/>
<path d="M152.219 162.568C152.972 161.062 152.407 156.919 152.407 156.919L150.901 157.672C151.843 159.743 150.524 163.133 150.524 163.133C152.125 163.604 154.761 166.24 154.761 166.24L156.173 165.581C155.609 163.886 152.219 162.568 152.219 162.568Z" fill="#E50022"/>
<path d="M147.417 164.545C147.417 164.545 147.794 159.649 147.229 159.461L146.005 160.12C146.005 160.12 146.946 162.568 145.816 165.204C145.816 165.204 149.771 166.522 150.524 168.593L151.465 168.029C151.465 168.029 149.3 164.922 147.417 164.545Z" fill="#E50022"/>
<path d="M142.521 166.993C142.521 166.993 143.463 162.474 142.521 161.344L141.297 162.003C141.297 162.003 142.427 165.957 140.921 167.464C140.921 167.464 144.687 168.405 145.817 170.665L147.229 170.006C147.229 170.006 144.593 166.804 142.521 166.993Z" fill="#E50022"/>
<path d="M138.567 168.688C138.567 168.688 138.944 163.792 138.379 163.604L137.155 164.263C137.155 164.263 138.097 166.71 136.967 169.347C136.967 169.347 140.921 170.665 141.674 172.736L142.616 172.171C142.616 172.171 140.45 169.064 138.567 168.688Z" fill="#E50022"/>
<path d="M134.142 170.665C134.895 168.782 133.577 165.204 133.577 165.204L132.447 165.957C133.765 166.711 132.824 171.041 132.824 171.041C134.142 171.418 137.343 174.243 137.343 174.243L138.473 173.866C137.908 171.795 134.142 170.665 134.142 170.665Z" fill="#E50022"/>
<path d="M129.999 171.795C130.188 170.288 129.623 166.522 129.623 166.522L128.305 167.276C129.434 167.841 128.87 172.171 128.87 172.171C129.999 172.36 133.2 175.184 133.2 175.184L134.142 174.808C133.2 173.301 129.999 171.795 129.999 171.795Z" fill="#E50022"/>
<path d="M125.857 172.736C126.61 171.607 125.48 167.652 125.48 167.652L124.162 168.406C125.48 169.535 124.539 173.113 124.539 173.113C125.857 173.113 128.87 176.126 128.87 176.126L129.999 175.749C129.246 174.055 125.857 172.736 125.857 172.736Z" fill="#E50022"/>
<path d="M187.243 97.4161C187.243 97.4161 187.054 102.5 187.996 103.442L188.937 102.877C188.937 102.877 187.713 99.205 187.996 96.2863C187.996 96.2863 185.925 96.4746 184.795 94.4033L184.042 95.1565C184.042 95.1565 185.36 97.981 187.243 97.4161Z" fill="#E50022"/>
<path d="M184.607 101.371C184.607 101.371 184.042 106.643 184.418 107.396L185.548 106.643C185.548 106.643 185.266 101.841 185.548 100.052C185.548 100.052 182.535 99.8641 181.782 97.6045L181.029 98.546C181.029 98.546 183.477 101.182 184.607 101.371Z" fill="#E50022"/>
<path d="M180.84 104.384C180.84 104.384 179.522 108.715 180.275 110.033L181.593 109.468C181.593 109.468 181.123 106.549 182.158 103.442C182.158 103.442 178.957 102.501 178.204 100.053L177.074 100.806C177.074 100.806 179.334 103.819 180.84 104.384Z" fill="#E50022"/>
<path d="M175.191 111.727L176.509 111.538C176.133 109.279 178.016 105.513 178.016 105.513C174.721 105.042 174.062 101.37 174.062 101.37L172.555 101.935C172.743 104.383 176.321 106.266 176.321 106.266C175.38 108.337 175.191 111.727 175.191 111.727Z" fill="#E50022"/>
<path d="M169.26 102.312H167.471C167.283 105.137 171.049 107.397 171.049 107.397C169.166 108.338 169.166 112.481 169.166 112.481H170.861C170.484 110.409 173.12 106.832 173.12 106.832C169.825 106.549 169.26 102.312 169.26 102.312Z" fill="#E50022"/>
<path d="M162.575 112.669H164.458C164.27 110.598 167.283 107.585 167.283 107.585C164.741 106.173 163.893 102.312 163.893 102.312H162.763C161.822 103.631 165.588 107.585 165.588 107.585C164.27 108.15 162.575 112.669 162.575 112.669Z" fill="#E50022"/>
<path d="M156.455 112.197H158.15C158.15 112.197 159.657 108.431 161.445 107.584C161.445 107.584 158.621 104.948 158.809 101.747L156.926 101.37C156.926 101.37 157.868 106.078 159.374 107.396C159.374 107.396 156.267 110.503 156.455 112.197Z" fill="#E50022"/>
<path d="M149.583 111.162L151.466 111.35C151.466 111.35 152.501 107.678 155.42 106.831C155.42 106.831 152.595 103.065 153.16 100.617L151.277 100.24C151.277 100.24 152.219 105.513 153.349 106.454C153.349 106.454 149.959 109.279 149.583 111.162Z" fill="#E50022"/>
<path d="M149.206 105.701C149.206 105.701 146.382 102.688 147.135 98.9223L145.064 98.3574C145.064 98.3574 145.629 104.383 147.135 105.136C147.135 105.136 143.369 107.584 143.181 109.655L144.97 109.938C144.97 109.938 146.099 106.737 149.206 105.701Z" fill="#E50022"/>
<path d="M137.155 107.396L138.849 107.961C138.849 107.961 141.203 104.289 142.992 104.195C142.992 104.195 140.732 99.6759 141.297 97.0397L139.603 96.6631C139.603 96.6631 139.791 101.559 141.109 103.254C141.109 103.254 137.908 105.137 137.155 107.396Z" fill="#E50022"/>
<path d="M131.129 105.325L132.918 105.984C132.918 105.984 134.99 102.406 137.343 102.124C137.343 102.124 135.46 98.7344 135.837 95.1567L134.331 94.5918C134.331 94.5918 134.142 100.052 135.272 101.182C135.272 101.182 132.259 102.877 131.129 105.325Z" fill="#E50022"/>
<path d="M125.292 103.254L126.798 104.007C126.798 104.007 128.776 100.335 131.318 99.8644C131.318 99.8644 129.435 95.5335 130.188 93.2739L128.493 92.709C128.493 92.709 128.87 98.358 129.623 99.1112C129.623 99.1112 126.045 100.994 125.292 103.254Z" fill="#E50022"/>
<path d="M124.539 91.5787L122.844 91.2021C122.844 91.2021 122.844 96.2862 123.786 97.2277C123.786 97.2277 120.396 99.1108 119.643 101.559L121.149 101.935C121.149 101.935 122.938 98.2634 125.669 97.9809C125.669 97.9809 123.786 92.7085 124.539 91.5787Z" fill="#E50022"/>
<path d="M118.89 90.0721L117.195 89.8838C117.195 89.8838 116.63 94.2147 117.948 95.5328C117.948 95.5328 113.994 98.5456 113.994 100.24L115.595 100.523C115.595 100.523 117.666 96.3801 120.02 96.0977C120.02 96.0977 118.137 93.4615 118.89 90.0721Z" fill="#E50022"/>
<path d="M113.429 88.9424H111.546C111.546 88.9424 110.981 93.2733 112.299 94.2148C112.299 94.2148 108.345 97.0393 107.78 99.1106L109.475 99.2989C109.475 99.2989 112.017 95.4387 114.182 94.7797C114.182 94.7797 112.488 90.4488 113.429 88.9424Z" fill="#E50022"/>
<path d="M108.157 88.7547L106.462 88.5664C106.462 88.5664 105.897 92.5207 106.838 93.6505C106.838 93.6505 103.449 96.2867 102.696 98.7346L104.108 98.8288C104.108 98.8288 106.179 94.4979 108.533 94.0271C108.533 94.0271 106.838 90.826 108.157 88.7547Z" fill="#E50022"/>
<path d="M103.261 88.5664H101.754C101.754 88.5664 101.001 92.709 101.754 93.8388C101.754 93.8388 98.5534 96.2867 98.1768 98.358H99.4007C99.4007 98.358 101.095 94.6862 103.261 93.8388C103.261 93.8388 101.943 90.4494 103.261 88.5664Z" fill="#E50022"/>
<path d="M98.7419 89.1309H97.2355C97.2355 89.1309 96.4823 93.0852 97.4238 94.215C97.4238 94.215 94.7876 96.6629 94.2227 98.7342H95.4466C95.4466 98.7342 96.953 95.0623 98.7419 94.0267C98.7419 94.0267 97.2355 91.0139 98.7419 89.1309Z" fill="#E50022"/>
</g>
<defs>
<clipPath id="clip0_106_10665">
<rect width="200" height="200" fill="white"/>
</clipPath>
</defs>
</svg>
