<svg width="200" height="200" viewBox="0 0 200 200" fill="none" xmlns="http://www.w3.org/2000/svg">
<g clip-path="url(#clip0_106_10575)">
<path d="M100.004 200C155.23 200 199.999 155.236 199.999 100.003C199.999 44.7787 155.231 0 100.004 0C44.7769 0 0 44.7787 0 100.003C0 155.236 44.7769 200 100.004 200Z" fill="white"/>
<path d="M99.9998 181.599C55.0225 181.599 18.4252 145.006 18.4252 100.004C18.4252 55.0097 55.0208 18.4007 99.9998 18.4007C144.975 18.4007 181.574 55.0088 181.574 100.004C181.574 145.005 144.975 181.599 99.9998 181.599ZM99.9998 15.752C53.5267 15.752 15.7104 53.5396 15.7104 100.004C15.7104 146.468 53.5267 184.262 99.9998 184.262C146.473 184.262 184.285 146.467 184.285 100.004C184.285 53.5396 146.473 15.752 99.9998 15.752Z" fill="#005C5C"/>
<path d="M6.19482 100.003C6.19482 151.693 48.275 193.759 100.001 193.759C151.726 193.759 193.802 151.694 193.802 100.003C193.802 48.3059 151.725 6.25586 100.001 6.25586C48.2776 6.25586 6.19482 48.3059 6.19482 100.003ZM10.9461 100.003C10.9461 50.8686 50.8927 10.9051 99.9997 10.9051C149.107 10.9051 189.058 50.8686 189.058 100.003C189.058 149.137 149.107 189.108 99.9997 189.108C50.8927 189.108 10.9461 149.139 10.9461 100.003Z" fill="#C4CED4"/>
<path d="M87.2826 74.1659C83.1794 71.6676 68.3701 63.8135 68.3701 63.8135L81.0415 78.356C82.931 76.6942 85.0291 75.2856 87.2826 74.1659ZM118.77 78.1617C120.65 79.776 122.315 81.6245 123.724 83.662C125.769 78.6947 131.139 65.3179 131.664 63.8496L118.769 78.1617H118.77ZM76.2472 116.217C74.2381 121.098 69.1919 133.668 68.4896 135.776L81.2074 121.76C79.3239 120.132 77.657 118.269 76.2472 116.217ZM68.4148 136.094C68.4148 136.094 68.5223 136.008 68.7277 135.856C68.6285 135.905 68.5276 135.951 68.4251 135.992C68.4148 136.044 68.4036 136.086 68.4148 136.094ZM112.986 125.67C117.09 128.203 131.426 136.352 131.426 136.352L119.184 121.444C117.311 123.115 115.227 124.536 112.986 125.67Z" fill="#C4CED4"/>
<path d="M81.8875 81.0618C82.1076 81.0042 82.6294 79.1472 82.6294 79.1472C82.595 79.0467 82.344 78.8163 82.2253 78.7002C82.0921 78.8085 81.9657 78.9237 81.8368 79.0389L81.4757 80.3628L81.1491 80.0963C81.1095 80.0877 80.8508 80.1539 80.5335 80.2476C80.1742 80.5932 79.8355 80.9457 79.502 81.3137C79.9799 81.2053 81.3072 80.8021 81.5419 80.7291C81.6846 80.889 81.8858 81.0609 81.8858 81.0609L81.8875 81.0618Z" fill="#D50032"/>
<path d="M83.8318 82.3445C84.0295 82.2585 84.5479 80.3216 84.5479 80.3216C84.4946 80.1781 83.9547 79.8617 83.9547 79.8617L83.7974 79.7757L83.7579 79.933L83.273 81.6971L82.8157 81.416C82.6971 81.4074 80.4946 82.078 80.4946 82.078C80.4602 82.3161 81.0448 82.6608 81.0448 82.6608C81.1531 82.6694 83.108 82.0788 83.3452 81.9989C83.5198 82.1657 83.8335 82.3462 83.8335 82.3462L83.8318 82.3445ZM83.3238 84.0647C83.4321 84.0647 85.4076 83.3374 85.5675 83.2798C85.7652 83.4174 86.109 83.5824 86.109 83.5824C86.3042 83.4879 86.6394 81.5312 86.6394 81.5312C86.5681 81.3937 85.9603 81.0988 85.9603 81.0988L85.797 81.0274L85.7652 81.208L85.4729 82.9635L84.9571 82.7116C84.8496 82.7047 82.7005 83.5042 82.7005 83.5042C82.6902 83.7415 83.3238 84.0647 83.3238 84.0647ZM85.307 84.9287C85.472 85.1436 85.9363 85.3388 85.9363 85.3388C86.0368 85.3388 87.9668 84.5109 88.1172 84.4533C88.3218 84.5909 88.6966 84.7344 88.6966 84.7344C88.8875 84.633 89.0491 82.6608 89.0491 82.6608C88.9631 82.5319 88.333 82.2723 88.333 82.2723L88.161 82.2078L88.1456 82.3815L87.9977 84.1438L87.4432 83.9289C87.3341 83.9289 85.2537 84.8144 85.2537 84.8144C85.2554 84.8574 85.2769 84.8917 85.3053 84.9287H85.307ZM87.9169 86.0076C87.9238 86.0506 87.9513 86.0876 87.9857 86.1237H87.9882C88.1722 86.318 88.7052 86.4624 88.7052 86.4624C88.8023 86.4478 90.5707 85.4247 90.6884 85.3534C90.9291 85.4609 91.359 85.5838 91.359 85.5838C91.5266 85.4402 91.3074 83.475 91.3074 83.475C91.2102 83.352 90.4976 83.1715 90.4976 83.1715L90.3067 83.1139L90.3205 83.3228L90.5268 85.0645L89.9079 84.8909C89.8021 84.9124 87.9169 86.0059 87.9169 86.0059V86.0076ZM108.703 85.8855C108.736 85.742 108.746 85.619 108.761 85.5623C109.006 85.5262 109.449 85.4041 109.449 85.4041C109.459 85.3826 109.438 85.3396 109.397 85.282L109.416 85.2752L109.382 85.2537C109.22 85.0302 108.789 84.6347 108.414 84.3037C108.519 84.8574 108.612 85.3904 108.703 85.8855ZM110.881 84.6261C110.795 84.7275 110.525 86.3971 110.525 86.3971C110.704 86.5415 111.395 86.2767 111.395 86.2767C111.478 86.1821 111.708 84.7722 111.747 84.5401C111.98 84.4757 112.313 84.3458 112.313 84.3458C112.313 84.3235 112.285 84.2736 112.242 84.2238L112.259 84.2152L112.206 84.1877C111.824 83.7767 110.42 82.8483 110.42 82.8483C110.287 82.8345 109.646 83.0864 109.646 83.0864L109.409 83.181L111.338 84.4464L110.88 84.6252L110.881 84.6261ZM113.119 83.7045C113.045 83.8206 113.098 85.4755 113.098 85.4755C113.292 85.5915 113.918 85.2606 113.918 85.2606C113.983 85.16 113.944 83.8352 113.933 83.5541C114.159 83.4767 114.461 83.3323 114.461 83.3323C114.461 83.3039 114.433 83.2678 114.387 83.2162L114.398 83.2093L114.355 83.1801C113.951 82.7907 112.464 81.9421 112.464 81.9421C112.338 81.9336 111.748 82.2224 111.748 82.2224L111.522 82.3376L113.52 83.4896L113.122 83.7045H113.119ZM115.2 82.6394C115.128 82.7683 115.318 84.4034 115.318 84.4034C115.516 84.5032 116.103 84.1576 116.103 84.1576C116.163 84.0492 116.023 82.7245 115.992 82.4657C116.198 82.3651 116.471 82.2061 116.471 82.2061C116.471 82.1777 116.439 82.1416 116.385 82.0986L116.396 82.0831L116.363 82.0745C115.961 81.7161 114.409 80.9449 114.409 80.9449C114.276 80.9449 113.732 81.263 113.732 81.263L113.52 81.3919L115.571 82.421L115.199 82.6376L115.2 82.6394ZM117.197 81.4083C117.154 81.5527 117.738 83.1079 117.738 83.1079C117.947 83.1655 118.422 82.7623 118.422 82.7623C118.448 82.6333 118.012 81.4298 117.9 81.1289C118.077 81.0128 118.318 80.8048 118.318 80.8048C118.282 80.5813 116.177 79.7749 116.177 79.7749C116.035 79.7972 115.61 80.1703 115.61 80.1703L115.448 80.3079L117.532 81.122L117.197 81.4083ZM119.473 81.667C119.686 81.7169 120.157 81.3283 120.157 81.3283C120.171 81.2707 120.108 81.0472 120.02 80.7816C119.714 80.4575 119.401 80.148 119.077 79.8445L118.933 79.9752C118.89 80.1127 119.473 81.667 119.473 81.667ZM117.188 78.8739L118.65 79.4353C118.303 79.1258 117.953 78.8163 117.597 78.5283C117.468 78.6229 117.348 78.7372 117.348 78.7372L117.187 78.8748L117.188 78.8739ZM118.303 118.938C118.077 119.002 117.566 120.853 117.566 120.853C117.587 120.933 117.738 121.09 117.86 121.212C118.05 121.054 118.23 120.889 118.415 120.73L118.718 119.642L119.041 119.9C119.063 119.909 119.192 119.879 119.379 119.836C119.741 119.477 120.089 119.123 120.431 118.75C119.844 118.915 118.847 119.211 118.643 119.268C118.5 119.109 118.302 118.936 118.302 118.936L118.303 118.938Z" fill="#D50032"/>
<path d="M119.148 117.354C119.041 117.333 117.098 117.916 116.853 118.002C116.676 117.837 116.353 117.658 116.353 117.658C116.155 117.744 115.632 119.687 115.632 119.687C115.701 119.825 116.244 120.141 116.244 120.141L116.396 120.227L116.915 118.32L117.383 118.587C117.491 118.601 119.704 117.932 119.704 117.932C119.729 117.694 119.149 117.356 119.149 117.356L119.148 117.354ZM116.87 115.95C116.762 115.936 114.743 116.678 114.618 116.721C114.443 116.608 114.262 116.507 114.074 116.418C113.883 116.519 113.558 118.47 113.558 118.47C113.63 118.608 114.224 118.895 114.224 118.895L114.39 118.972L114.71 117.036L115.228 117.288C115.34 117.303 117.478 116.506 117.478 116.506C117.5 116.267 116.87 115.95 116.87 115.95ZM114.876 115.072H114.884L114.876 115.065C114.714 114.856 114.261 114.669 114.261 114.669C114.149 114.669 112.191 115.512 112.076 115.546C111.861 115.417 111.483 115.266 111.483 115.266C111.294 115.367 111.133 117.346 111.133 117.346C111.219 117.469 111.855 117.736 111.855 117.736L112.032 117.801L112.19 115.85L112.74 116.082C112.85 116.082 114.933 115.188 114.933 115.188C114.934 115.153 114.909 115.109 114.877 115.073L114.876 115.072ZM112.281 113.992C112.271 113.95 112.247 113.912 112.213 113.884H112.206C112.018 113.684 111.489 113.547 111.489 113.547C111.392 113.561 109.589 114.598 109.506 114.656C109.275 114.54 108.829 114.425 108.829 114.425C108.655 114.563 108.898 116.54 108.898 116.54C108.991 116.649 109.7 116.829 109.7 116.829L109.893 116.886L109.659 114.935L110.285 115.109C110.395 115.094 112.281 113.992 112.281 113.992ZM108.996 112.955C108.961 112.927 108.937 112.905 108.899 112.884C108.884 112.997 108.864 113.11 108.84 113.223C108.98 113.13 109.074 113.065 109.074 113.065C109.069 113.043 109.059 113.021 109.045 113.003C109.031 112.984 109.014 112.968 108.994 112.956L108.996 112.955ZM89.3208 115.388C89.3999 115.288 89.6664 113.611 89.6664 113.611C89.4825 113.468 88.7879 113.726 88.7879 113.726C88.7131 113.827 88.4896 115.224 88.4526 115.468C88.2597 115.525 88.0693 115.59 87.8818 115.662C87.8818 115.683 87.9781 115.82 87.9781 115.82C88.3666 116.231 89.7661 117.158 89.7661 117.158C89.8882 117.167 90.5398 116.921 90.5398 116.921L90.7771 116.82L88.8601 115.561L89.32 115.389L89.3208 115.388ZM87.078 116.296C87.1425 116.181 87.0952 114.534 87.0952 114.534C86.8915 114.417 86.2759 114.748 86.2759 114.748C86.2123 114.843 86.2416 116.181 86.2519 116.454C86.0284 116.54 85.7335 116.669 85.7335 116.669C85.7335 116.698 85.8401 116.821 85.8401 116.821C86.2441 117.211 87.7193 118.068 87.7193 118.068C87.8483 118.068 88.4466 117.779 88.4466 117.779L88.6735 117.672L86.6619 116.52L87.078 116.296ZM84.9908 117.354C85.0595 117.232 84.8756 115.59 84.8756 115.59C84.6778 115.496 84.083 115.85 84.083 115.85C84.0254 115.95 84.1689 117.275 84.199 117.549C83.9927 117.644 83.7236 117.8 83.7236 117.8C83.7435 117.838 83.769 117.872 83.7993 117.902V117.91L83.8096 117.917C84.2024 118.261 85.7868 119.069 85.7868 119.069C85.9157 119.055 86.4556 118.73 86.4556 118.73L86.6645 118.608L84.6168 117.579L84.9916 117.355L84.9908 117.354ZM82.9963 118.599C83.035 118.461 82.4522 116.9 82.4522 116.9C82.2399 116.842 81.7731 117.244 81.7731 117.244C81.7387 117.367 82.1823 118.577 82.2906 118.872C82.1135 118.988 81.8797 119.203 81.8797 119.203C81.908 119.418 84.0142 120.225 84.0142 120.225C84.1543 120.203 84.5816 119.822 84.5816 119.822L84.7406 119.7L82.6568 118.894L82.9972 118.597L82.9963 118.599ZM80.7174 118.34C80.5025 118.283 80.0331 118.686 80.0331 118.686C80.0185 118.75 80.1225 119.074 80.2412 119.427C80.5119 119.702 80.7776 119.96 81.0552 120.226L81.259 120.046C81.302 119.895 80.7157 118.34 80.7157 118.34H80.7174ZM83.0101 121.133L81.3364 120.493C81.7249 120.838 82.1272 121.183 82.5399 121.522C82.6946 121.407 82.8451 121.277 82.8451 121.277L83.0101 121.133ZM91.3935 114.446C91.1562 114.489 90.7453 114.597 90.7453 114.597C90.735 114.633 90.7565 114.668 90.7926 114.726L90.778 114.735L90.8106 114.762C90.9516 114.943 91.2791 115.245 91.6032 115.54C91.5345 115.158 91.4623 114.798 91.3935 114.446Z" fill="#D50032"/>
<path d="M182.028 99.9961C181.982 99.9854 181.935 99.9782 181.887 99.9746C181.942 99.9884 181.973 100.003 181.989 100.003C182.002 100.003 182.016 100.001 182.029 99.9961H182.028Z" fill="#C4CED4"/>
<path d="M150.598 104.265C150.529 105.05 150.443 105.827 150.346 106.619C150.339 106.635 150.339 106.656 150.336 106.679C150.233 107.448 150.11 108.204 149.98 108.968C149.98 108.989 149.969 109.011 149.969 109.04C149.83 109.797 149.675 110.551 149.502 111.301C149.502 111.315 149.498 111.335 149.491 111.344C147.213 121.279 142.014 130.111 134.842 136.885C134.834 136.885 134.833 136.894 134.833 136.894C134.287 137.409 133.73 137.914 133.164 138.407C133.149 138.413 133.138 138.428 133.128 138.435C132.555 138.916 131.991 139.399 131.403 139.853C131.389 139.867 131.371 139.867 131.36 139.881C122.737 146.69 112.128 150.502 101.144 150.739C100.499 153.64 100.066 155.455 100.012 155.439C99.9546 155.454 99.5222 153.64 98.8749 150.739C87.8812 150.501 77.264 146.689 68.6288 139.881C68.6219 139.867 68.615 139.867 68.603 139.853C68.0141 139.393 67.4373 138.918 66.8733 138.428C66.8622 138.419 66.851 138.413 66.8407 138.406C66.2714 137.911 65.7119 137.405 65.1626 136.887C57.9785 130.113 52.7698 121.265 50.4986 111.316C50.49 111.301 50.49 111.301 50.4874 111.287C50.3155 110.531 50.1642 109.783 50.0266 109.013C50.0241 108.99 50.0241 108.97 50.0138 108.955C49.8788 108.188 49.7624 107.417 49.6647 106.644C49.6561 106.636 49.6561 106.615 49.6527 106.599C49.5535 105.814 49.4704 105.027 49.4034 104.238V104.231C33.9554 102.223 19.814 100.322 18.4274 100.019C18.4446 145.015 55.0333 181.601 100.002 181.601C144.953 181.601 181.523 145.049 181.573 100.083C178.974 100.521 165.355 102.344 150.6 104.265H150.598ZM49.406 95.6831C49.4704 94.8991 49.5573 94.121 49.6622 93.3507C49.6656 93.3224 49.6656 93.2932 49.6733 93.2717C49.7705 92.5083 49.8882 91.7526 50.0223 91.0038C50.0327 90.9677 50.0361 90.9316 50.0438 90.9032C50.1762 90.1553 50.3275 89.4056 50.4969 88.6792C50.5003 88.65 50.5106 88.6207 50.5184 88.5932C50.6906 87.8498 50.8792 87.1103 51.084 86.3752C51.084 86.3752 51.0875 86.3606 51.0943 86.346C53.6131 77.3321 58.5596 69.3413 65.1841 63.1L65.1927 63.0914C65.7319 62.577 66.2851 62.0776 66.8518 61.5938C66.8708 61.5723 66.8862 61.5654 66.9069 61.5439C67.4622 61.0625 68.033 60.6009 68.6133 60.1469C68.6279 60.1254 68.6494 60.1126 68.6631 60.104C69.2498 59.6387 69.8474 59.1875 70.4555 58.7508C70.4641 58.7439 70.4667 58.7439 70.4727 58.7302C78.5157 52.9849 88.2934 49.5074 98.8629 49.2701H98.8715C99.5222 46.3403 99.9546 44.5186 100.011 44.5186C100.085 44.4971 100.532 46.3257 101.194 49.2701C112.562 49.5452 123.014 53.5462 131.358 60.128C131.375 60.1349 131.391 60.1487 131.401 60.1555C131.989 60.6086 132.553 61.084 133.118 61.574C133.136 61.5826 133.151 61.5955 133.168 61.6101C133.734 62.1002 134.281 62.5962 134.821 63.1077C134.828 63.1077 134.832 63.1223 134.839 63.1223C141.549 69.4428 146.412 77.4711 148.906 86.346C148.906 86.3598 148.915 86.3675 148.915 86.3804C149.118 87.1154 149.306 87.8505 149.479 88.5915C149.479 88.6199 149.49 88.6491 149.501 88.6775C149.664 89.4125 149.816 90.1536 149.953 90.9024C149.957 90.9307 149.967 90.9668 149.975 91.0029C150.105 91.7509 150.227 92.5005 150.325 93.2708C150.328 93.2923 150.335 93.3138 150.338 93.3499C150.435 94.1202 150.522 94.8973 150.588 95.6754V95.6822C165.374 97.6045 179.004 99.4408 181.57 99.9162C181.516 54.957 144.943 18.4004 99.9994 18.4004C55.0427 18.4004 18.4575 54.9716 18.4248 99.9454C19.814 99.6059 33.964 97.6982 49.4017 95.6814H49.4051L49.406 95.6831Z" fill="#0C2C56"/>
<path d="M132.064 146.9L133.276 149.003L130.215 150.774L132.581 154.878L135.645 153.093L136.857 155.217L133.799 156.996L137.057 162.624L140.115 160.839L141.339 162.955L135.536 166.311L126.258 150.278L132.064 146.901V146.9ZM159.711 118.62L158.531 121.552L156.012 120.493C155.63 120.341 155.378 120.327 155.216 120.493C155.173 120.543 154.557 122.198 154.525 122.278C154.385 122.617 154.601 122.797 155.075 122.99L157.737 124.07C158.29 124.293 158.527 124.307 159.108 123.86L161.274 121.391C162.4 120.491 163.488 120.102 164.603 120.562L168.185 121.996C171.029 123.154 171.446 123.695 170.355 126.488C170.323 126.589 169.696 128.281 169.659 128.388C168.457 131.347 167.759 131.563 164.862 130.383L162.169 129.274L163.375 126.316L166.459 127.59C166.946 127.778 167.252 127.755 167.403 127.396C167.436 127.302 168.026 125.639 168.001 125.56C167.958 125.372 167.749 125.229 167.403 125.084L163.76 123.623C163.213 123.399 162.447 124.962 161.838 125.423L159.979 126.87C158.903 127.712 157.959 127.612 156.747 127.115L154.297 126.122C151.374 124.949 151.049 124.299 152.245 121.334C152.29 121.226 152.909 119.534 152.947 119.434C154.104 116.683 154.839 116.626 157.615 117.74L159.711 118.62ZM94.9859 156.417L92.8196 174.825L89.6663 174.45L91.8327 156.05L94.9859 156.417ZM47.7933 121.702L40.7201 127.57L40.7845 127.699L49.6433 125.721L51.3781 129.413L34.5684 137.232L33.3734 134.675L43.348 130.153L43.1099 129.636L32.3444 132.464L31.6533 130.953L40.5954 124.193L40.5206 124.012L30.6329 128.749L29.4268 126.18L46.2365 118.349L47.7942 121.701L47.7933 121.702ZM77.6905 152.177C80.4044 153.415 80.4689 154.386 79.2413 157.036L78.2338 159.225C77.5288 160.743 77.0165 161.536 75.5877 161.529C76.4517 162.429 76.3356 163.329 75.6952 164.719L73.0561 170.448L70.202 169.125L73.0758 162.89C73.2306 162.538 73.2521 162.299 73.1334 162.105C73.0217 161.947 71.268 161.091 70.9525 160.982L67.727 167.972L64.8438 166.639L72.6065 149.808L77.6905 152.177ZM72.1113 158.476C72.3417 158.613 74.0799 159.426 74.2312 159.447C74.5519 159.483 74.7384 159.282 74.9654 158.771L76.4629 155.546C76.7586 154.891 76.8927 154.602 76.5531 154.342C76.4328 154.249 74.7135 153.429 74.4814 153.336L72.1113 158.476ZM109.718 155.704L114.355 164.206L114.488 164.185L112.64 155.129L115.329 154.582L118.946 172.775L116.187 173.322L111.478 164.575L111.349 164.611L113.271 173.904L110.56 174.446L106.944 156.267L109.719 155.705L109.718 155.704ZM143.024 136.568C144.986 134.3 146.256 134.178 148.469 136.078L150.292 137.67C151.562 138.756 152.177 139.476 151.774 140.842C152.886 140.266 153.711 140.628 154.869 141.628L159.636 145.739L157.577 148.129L152.386 143.63C152.105 143.392 151.868 143.299 151.659 143.364C151.464 143.428 150.206 144.789 150.011 145.07L155.829 150.095L153.755 152.5L139.736 140.376L143.024 136.567L143.024 136.568ZM147.919 143.263C148.114 143.069 149.327 141.709 149.402 141.565C149.521 141.283 149.38 141.039 148.959 140.679L146.267 138.346C145.724 137.877 145.485 137.669 145.126 137.92C145.006 138.008 143.797 139.362 143.639 139.556L147.919 143.263ZM104.622 25.2254L104.607 27.6875L102.12 27.6961L102.051 43.7723L98.8733 43.7491L98.9455 27.6866L96.3751 27.6952L96.3854 25.2391L104.621 25.2236L104.622 25.2254ZM39.1056 67.3983L37.8162 70.2568L35.263 69.0902C34.8641 68.9182 34.6337 68.9028 34.4635 69.0618C34.4171 69.1134 33.7551 70.6608 33.7225 70.7399C33.5712 71.0632 33.7826 71.2643 34.2408 71.4741L36.8697 72.6605C37.4095 72.884 37.8127 72.4946 38.3999 72.0561L40.6693 69.6945C41.8299 68.8374 42.7394 68.9956 43.838 69.4925L47.354 71.0829C50.1505 72.3381 50.5434 72.884 49.3484 75.641C49.3055 75.7485 48.6538 77.326 48.6005 77.4335C47.2896 80.3478 46.5846 80.537 43.7297 79.2474L40.6805 77.9149L41.9924 74.992L45.4379 76.5127C45.9176 76.7277 46.2227 76.713 46.3852 76.3606C46.4179 76.266 47.0557 74.6971 47.036 74.6103C46.993 74.4383 46.7987 74.2793 46.46 74.1202L42.8787 72.516C42.3345 72.2788 41.7009 73.2941 41.0777 73.7402L39.1607 75.1071C38.0397 75.9153 36.9462 76.1878 35.7513 75.6548L33.3382 74.569C30.4669 73.288 30.1747 72.6175 31.4779 69.7092C31.5235 69.6086 32.1897 68.0096 32.2258 67.9236C33.4921 65.2156 34.2305 65.1665 36.9659 66.4054L39.1056 67.4V67.3983ZM51.336 43.2023L53.0166 44.9587L50.4032 47.414L53.6785 50.8183L56.2919 48.3639L57.9871 50.1203L55.3703 52.5824L59.8767 57.2677L62.4969 54.8064L64.1887 56.5714L59.2904 61.2292L46.4402 47.8765L51.336 43.2041V43.2023ZM75.7253 29.1928L84.6589 45.6069L81.8005 46.7443L79.9393 43.2238L77.3122 44.2898L78.3696 48.112L75.5198 49.2494L70.7101 31.1151L75.7253 29.1928ZM76.6709 41.8922L78.7307 41.0497L74.8141 33.5042L74.3928 33.7277L76.6709 41.8922ZM131.402 31.943L130.502 34.2323L128.255 33.3176L122.352 48.2702L119.398 47.0959L125.293 32.151L122.963 31.2372L123.866 28.9401L131.402 31.9404V31.943ZM151.375 45.3988L140.622 57.3631L143.207 59.7531L141.578 61.567L136.617 57.0537L149.022 43.2728L151.376 45.3988H151.375ZM169.191 70.4803L167.032 71.5678L165.395 68.4213L161.176 70.5302L162.803 73.6766L160.623 74.765L158.986 71.6271L153.167 74.5346L154.791 77.6664L152.613 78.7686L149.565 72.7791L166.147 64.5003L169.193 70.482L169.191 70.4803Z" fill="white"/>
<path d="M100.011 44.5195C99.9532 44.5195 99.5208 46.3421 98.8701 49.271H98.8632C88.6633 49.4932 78.7683 52.7905 70.4739 58.7311C70.467 58.7448 70.4636 58.7448 70.4567 58.7526C69.8481 59.1894 69.2502 59.6409 68.6634 60.1066C68.6441 60.1174 68.6272 60.1321 68.6136 60.1496C68.033 60.6003 67.4643 61.0662 66.908 61.5466C66.8857 61.568 66.8719 61.5749 66.8539 61.5964C66.2868 62.0798 65.7335 62.5792 65.1947 63.094L65.1844 63.1026C58.5651 69.3439 53.6152 77.3348 51.0946 86.3486L51.086 86.3701C50.8797 87.112 50.6932 87.8522 50.5187 88.5941C50.5118 88.6225 50.5015 88.6517 50.498 88.6801C50.328 89.4177 50.1772 90.1595 50.0459 90.905C50.0373 90.9333 50.0347 90.9694 50.0235 91.0056C49.8911 91.7535 49.7725 92.51 49.6745 93.2734C49.6659 93.2949 49.6659 93.3233 49.6633 93.3525C49.5576 94.1228 49.4716 94.8999 49.4054 95.6848H49.4028C50.3141 95.5628 51.2356 95.4476 52.1572 95.3324C53.3641 82.8067 59.3998 71.6754 68.3737 63.8213C68.2938 64.0947 74.1549 78.5134 76.2912 83.6836C74.3851 86.4484 72.9783 89.5259 72.1347 92.7765C72.5156 92.7266 72.8972 92.6759 73.2643 92.6252C74.4234 88.4166 76.5608 84.5416 79.502 81.316C79.8373 80.9489 80.1751 80.5964 80.5336 80.25C80.9548 79.8339 81.3907 79.4307 81.8377 79.0412C81.9666 78.9252 82.093 78.8091 82.2262 78.7017C85.5895 75.8724 89.5803 73.8881 93.866 72.9142C92.1957 81.1217 90.785 88.4428 90.5821 90.5448C90.6371 90.5379 90.7025 90.5379 90.7454 90.531C93.1061 92.712 99.2861 99.0763 100.013 99.9842L100.011 44.5212V44.5195ZM94.0861 71.819C91.6988 72.3305 89.4138 73.1085 87.2827 74.1659C85.0292 75.2856 82.9311 76.6941 81.0416 78.3561L68.3712 63.8136C76.4304 56.7589 86.8469 52.3453 98.2829 51.9352C96.8395 58.5541 95.44 65.1824 94.0843 71.8198L94.0861 71.819Z" fill="#005C5C"/>
<path d="M49.402 104.237C49.4665 105.037 49.5542 105.813 49.6513 106.598C49.6539 106.612 49.6539 106.634 49.6616 106.641C49.7579 107.426 49.8765 108.182 50.0098 108.953C50.0201 108.966 50.0201 108.988 50.0235 109.01C50.1611 109.78 50.3124 110.528 50.4852 111.285C50.4886 111.299 50.4886 111.299 50.4964 111.313C52.7676 121.263 57.9754 130.111 65.1604 136.885C65.7106 137.404 66.265 137.909 66.8384 138.405L66.8711 138.426C67.4385 138.916 68.0119 139.397 68.6016 139.851C68.6136 139.865 68.6205 139.865 68.6274 139.88C77.2638 146.686 87.8809 150.497 98.8744 150.735C98.6982 149.929 98.5047 149.029 98.2873 148.064C86.7936 147.66 76.3118 143.183 68.2422 136.056C68.2457 136.07 68.3067 136.042 68.4262 135.991C68.5019 135.963 68.6102 135.912 68.7288 135.854C71.227 134.616 82.7498 128.252 87.1444 125.725C89.3485 126.817 91.6813 127.628 94.0878 128.137C94.0122 127.771 93.9434 127.411 93.8678 127.044C89.715 126.106 85.8372 124.215 82.5409 121.521C82.1335 121.185 81.7323 120.842 81.3374 120.492C81.2411 120.406 81.1509 120.312 81.0572 120.226C80.7803 119.959 80.5138 119.701 80.2431 119.426C76.9201 116.05 74.5177 111.879 73.2652 107.31C82.0733 108.433 88.8792 109.269 90.5856 109.413C90.6406 109.42 90.7059 109.435 90.7489 109.435C93.1095 107.254 99.2896 100.889 100.016 99.9824L18.3091 99.9962C18.3091 99.9962 18.3589 100.011 18.4277 100.018C19.8135 100.321 33.9557 102.222 49.4046 104.23V104.239L49.402 104.237ZM72.1262 107.174C72.9644 110.404 74.3593 113.464 76.2482 116.216C77.6574 118.269 79.3245 120.133 81.2084 121.761L68.489 135.776L68.2379 136.057C59.3233 128.195 53.3298 117.087 52.1486 104.59C59.0173 105.489 66.002 106.397 72.1262 107.174Z" fill="#005C5C"/>
<path d="M100.021 100.003H99.9994C99.9994 100.003 100.011 99.9885 100.021 99.9816L100.032 99.9593C100.857 98.9517 106.909 92.688 109.243 90.5285C109.301 90.5285 109.372 90.5371 109.45 90.5371C109.243 88.4412 107.851 81.12 106.195 72.9203C106.119 72.5592 106.047 72.1999 105.968 71.8328C104.558 64.8066 102.97 57.3126 101.79 51.9422C101.58 50.9776 101.377 50.0852 101.195 49.2702C100.533 46.3258 100.086 44.4972 100.011 44.5187L100.014 99.9816C99.2868 100.889 93.1067 107.253 90.7452 109.434C90.7022 109.434 90.6386 109.419 90.5845 109.412C90.7856 111.5 92.1963 118.829 93.8684 127.043C93.9423 127.41 94.0111 127.77 94.0876 128.137C95.5198 135.172 97.1136 142.702 98.2879 148.065C98.5028 149.03 98.6988 149.93 98.875 150.737C99.5232 153.638 99.9547 155.453 100.012 155.438L100.021 100.005V100.003Z" fill="#C4CED4"/>
<path d="M100.015 99.9816C99.288 99.0746 93.1079 92.7103 90.7464 90.5293C90.7034 90.5379 90.6398 90.5379 90.5856 90.5439C88.8835 90.6952 82.0725 91.524 73.2653 92.6244C72.8982 92.6742 72.5174 92.7258 72.1348 92.7757C66.0167 93.5459 59.0294 94.4314 52.1581 95.3315C51.2366 95.4476 50.315 95.5636 49.4038 95.684C33.9661 97.7008 19.817 99.6093 18.4269 99.9481C18.3513 99.961 18.3048 99.9824 18.3083 99.9971L100.016 99.9833L100.015 99.9816ZM100.032 100.003C100.821 100.968 106.932 107.259 109.287 109.434C109.33 109.434 109.384 109.425 109.438 109.419C111.119 109.268 117.925 108.433 126.766 107.324C127.137 107.267 127.519 107.224 127.897 107.181C134.016 106.403 140.985 105.512 147.853 104.611L150.598 104.267C165.353 102.344 178.973 100.523 181.572 100.083C181.737 100.055 181.859 100.033 181.935 100.012L100.032 100.003Z" fill="#C4CED4"/>
<path d="M150.586 95.6774C150.519 94.9008 150.436 94.1255 150.339 93.352C150.335 93.3176 150.328 93.2944 150.325 93.2729C150.226 92.5144 150.109 91.7582 149.976 91.005C149.967 90.9689 149.959 90.9328 149.954 90.9044C149.817 90.1565 149.666 89.4155 149.501 88.6813C149.49 88.652 149.479 88.6228 149.479 88.5953C149.308 87.8541 149.119 87.1168 148.914 86.3842C148.914 86.3704 148.906 86.3627 148.906 86.3481C146.413 77.4733 141.55 69.4449 134.84 63.1244C134.831 63.1244 134.829 63.1098 134.823 63.1098C134.282 62.5985 133.731 62.0989 133.169 61.6114C133.15 61.5967 133.134 61.583 133.117 61.5753C132.559 61.0865 131.986 60.6135 131.401 60.1568C131.39 60.1482 131.375 60.1353 131.358 60.1284C122.748 53.3313 112.16 49.5202 101.193 49.2705C101.378 50.0855 101.58 50.9779 101.788 51.9441C113.201 52.3602 123.608 56.7885 131.652 63.8423C131.639 63.8354 117.348 71.5605 112.813 74.2101C110.644 73.1234 108.343 72.3245 105.967 71.8339C106.047 72.201 106.119 72.5612 106.194 72.9214C110.45 73.8929 114.334 75.8444 117.598 78.5292C117.955 78.8172 118.303 79.1267 118.649 79.4362C118.795 79.5668 118.937 79.7113 119.077 79.8488C119.401 80.1497 119.713 80.4592 120.02 80.7842C123.217 84.1092 125.534 88.1796 126.76 92.6264C118.002 91.526 111.224 90.7041 109.45 90.5391C109.374 90.5391 109.302 90.5305 109.244 90.5305C106.912 92.6917 100.858 98.9554 100.033 99.9613L100.022 99.9845C100.012 99.9914 100.005 100.006 100.005 100.006H100.022L100.012 155.439C100.066 155.454 100.497 153.64 101.142 150.739C112.127 150.503 122.736 146.692 131.359 139.883C131.37 139.868 131.388 139.868 131.402 139.854C131.99 139.399 132.554 138.917 133.127 138.436C133.138 138.427 133.149 138.413 133.164 138.407C133.73 137.915 134.286 137.41 134.83 136.894C134.83 136.894 134.833 136.887 134.841 136.887C142.014 130.112 147.211 121.279 149.489 111.345C149.498 111.337 149.501 111.316 149.501 111.301C149.673 110.553 149.828 109.803 149.969 109.04C149.969 109.012 149.981 108.99 149.981 108.968C150.11 108.205 150.233 107.449 150.337 106.679C150.34 106.657 150.34 106.636 150.348 106.62C150.446 105.83 150.533 105.051 150.601 104.267L147.854 104.612C145.574 128.42 125.9 147.201 101.738 148.066C102.907 142.703 104.495 135.172 105.927 128.138C108.38 127.63 110.754 126.8 112.989 125.669C115.23 124.535 117.313 123.114 119.187 121.442L131.429 136.351C131.602 136.287 125.991 121.153 123.918 116.028C125.74 113.328 127.087 110.335 127.898 107.18C127.52 107.223 127.14 107.266 126.769 107.324C125.6 111.584 123.427 115.502 120.433 118.751C120.092 119.125 119.743 119.478 119.382 119.837C119.066 120.14 118.742 120.449 118.418 120.73C118.234 120.888 118.053 121.054 117.863 121.211C114.484 124.066 110.469 126.069 106.155 127.051C107.824 118.83 109.235 111.486 109.44 109.42C109.386 109.427 109.332 109.434 109.289 109.434C106.934 107.259 100.822 100.966 100.034 100.003L181.936 100.012H182.022C182.022 100.012 182.008 100.012 181.989 100.003C181.974 100.003 181.941 99.9888 181.888 99.975C181.782 99.9536 181.676 99.9344 181.57 99.9174C179.005 99.442 165.374 97.6066 150.588 95.6835V95.6774H150.586ZM127.896 92.7751C127.052 89.5158 125.639 86.4309 123.724 83.6624C122.314 81.6244 120.65 79.7753 118.77 78.1604L131.498 64.0142L131.652 63.8423C140.607 71.6886 146.637 82.8113 147.846 95.3241C141.198 94.4616 134.548 93.6119 127.896 92.7751Z" fill="#005C5C"/>
<path d="M51.3471 148.426L52.8979 149.989L58.2467 143.379L57.9287 143.061L51.3471 148.426ZM62.5545 142.494L51.0832 157.238L48.9057 155.071L51.3815 151.953L49.4017 149.965L46.3104 152.45L44.1406 150.297L58.8442 138.648L62.5553 142.495L62.5545 142.494Z" fill="white"/>
</g>
<defs>
<clipPath id="clip0_106_10575">
<rect width="200" height="200" fill="white"/>
</clipPath>
</defs>
</svg>
