<svg width="200" height="200" viewBox="0 0 200 200" fill="none" xmlns="http://www.w3.org/2000/svg">
<path d="M79.8975 96.8878C79.0686 97.7974 78.2796 98.7427 77.533 99.721C76.5004 100.973 74.9597 103.462 74.0943 105.175C74.0943 105.175 73.8143 105.727 73.7761 105.807C72.5458 108.362 71.5957 111.041 70.9423 113.8C70.7623 115.713 70.789 117.639 71.0221 119.546C71.5084 115.027 72.8419 110.641 74.9529 106.616C75.053 106.424 75.1591 106.237 75.2634 106.048C76.0416 104.64 76.9227 103.291 77.8995 102.012C78.6538 101.032 79.4566 100.091 80.3048 99.1909L80.3116 99.1832C80.3956 98.8015 80.4872 98.4189 80.5822 98.0372C80.8037 97.1372 81.065 96.2474 81.3662 95.3711L81.3653 95.3719C80.8622 95.8639 80.3727 96.3695 79.8975 96.8878Z" fill="white"/>
<path d="M142.961 42.0369L142.821 42.0327C142.213 42.014 141.605 42.0047 140.997 42.0047C137.62 42.0047 134.826 42.2821 133.461 42.4483L133.083 42.4941L132.736 42.3355C128.258 40.2165 123.59 39.5065 123.59 39.5065L123.311 38.9297C119.092 30.1848 111.667 17.1561 100.247 4.73653C99.0003 3.48193 98.2749 2.79313 97.4926 2.11621C97.1467 3.17373 96.8265 4.23947 96.5322 5.31251C95.6447 8.2976 95.0161 12.1971 95.1391 18.8238C95.1917 21.6749 94.7793 29.2449 91.4238 35.2465C89.4139 38.8415 86.2356 41.8104 81.1637 45.2442L81.1179 45.2739C80.7285 45.5148 79.1716 46.4895 78.7805 46.7185C76.3828 48.1309 73.1163 50.0887 70.5405 52.0126C62.5398 57.9879 56.9376 64.9548 53.2486 72.2856C45.4821 74.3571 37.4152 77.2726 29.4688 81.3019L29.4984 81.296C49.6487 74.7422 70.7653 73.955 86.4732 74.6404C90.7578 72.16 95.2536 70.1089 99.6833 68.4811C93.4685 67.6039 83.0294 67.2485 70.6525 68.8577C68.9921 69.074 67.2978 69.3242 65.5738 69.6144C62.4252 70.1403 59.2971 70.7799 56.1952 71.5323L56.0798 71.562C57.9692 68.1372 60.2257 64.9283 62.8096 61.9917C66.4994 57.7665 71.0097 53.9051 76.4634 50.5112L76.4676 50.5069C77.9436 49.5408 79.4415 48.6086 80.9601 47.711C82.8962 46.548 86.1228 44.8057 90.0222 40.6551C90.6644 39.973 91.2525 39.2418 91.781 38.4682C93.8036 35.4984 94.1371 34.489 94.4272 33.9579C96.9471 28.115 97.2661 22.5681 97.2483 17.5854L97.2466 16.7591C97.2449 15.9355 97.2449 15.1194 97.2627 14.3034C97.3212 11.583 97.5758 8.85576 98.6032 5.81639C99.2625 6.53318 99.909 7.25252 100.541 7.97355C103.073 10.8577 105.394 13.7707 107.513 16.6421C109.325 19.0983 111.057 21.6122 112.708 24.1799C112.935 24.5336 113.147 24.878 113.368 25.2283C113.698 25.7458 114.001 26.2259 114.17 26.4999C117.113 31.2624 119.784 36.1871 122.172 41.2506C123.136 41.427 124.013 41.6102 124.825 41.7968C129.332 42.8317 131.6 43.9625 132.759 44.5419L132.761 44.5427C132.761 44.5427 137.381 43.8166 143.106 44.0261L144.741 43.7318L150.31 42.7291L183.614 36.7208L190.953 34.8418L192.712 33.1258L142.961 42.0369ZM50.1968 88.7786C50.408 87.446 50.6651 86.1176 50.9773 84.7985C51.4457 82.8299 52.0267 80.8898 52.7175 78.9878L52.6963 78.9886C51.914 79.0192 51.1445 79.0531 50.3928 79.0904C44.4665 96.447 48.0486 114.739 55.2696 126.238C47.2824 112.106 48.9606 95.7217 50.1968 88.7786Z" fill="#00A3E0"/>
<path d="M183.713 36.7149C183.714 36.7149 150.169 48.992 142.79 51.7811C135.412 54.5703 135.587 61.5117 135.587 61.5117L136.148 61.4778L150.001 60.6371C151.799 60.5181 153.602 60.5025 155.402 60.5905C155.429 60.5922 155.46 60.5922 155.487 60.593C155.839 60.6125 156.163 60.6414 156.493 60.6685C156.657 60.6821 156.836 60.6906 156.996 60.7067C158.338 60.8373 159.471 61.0316 160.434 61.2513C160.498 61.2657 160.571 61.2793 160.634 61.2937C163.641 62.0063 164.819 62.9631 164.819 62.9631L138.799 65.7472L130.58 73.7371L130.542 73.7744H130.507C112.496 73.6463 77.8931 84.9869 71.6851 109.645C71.3949 110.752 71.1778 111.876 71.0352 113.011C71.0293 113.054 70.9843 113.337 70.9385 113.822L70.9444 113.8C71.5978 111.042 72.5479 108.362 73.7782 105.808C73.8562 105.648 73.936 105.491 74.0174 105.333L73.9513 105.464L74.0972 105.176C74.9617 103.462 76.5025 100.973 77.5359 99.7214C78.2811 98.742 79.0701 97.7966 79.9005 96.8882C80.3765 96.37 80.8659 95.8642 81.3682 95.3715L81.3691 95.3706C87.1927 89.6253 94.5741 85.7257 99.6596 83.3692C105.096 80.8498 110.984 78.8496 116.625 77.5305C121.497 76.3905 126.185 75.7568 130.228 75.7568H130.235L131.345 75.7653L140.197 67.1129L169.116 64.0023C166.407 61.9749 161.277 59.1951 153.385 59.0381C152.34 59.0195 151.232 59.0695 149.89 59.1535L138.093 59.8737L138.734 57.9786C139.477 55.7833 141.257 53.968 143.494 53.1223C150.499 50.4748 186.231 37.3342 189.712 36.0541L190.953 34.8428L183.614 36.7217L183.713 36.7149Z" fill="#41748D"/>
<path d="M102.186 160.99C101.959 159.463 101.732 158.148 101.51 156.994C101.182 157.037 100.817 157.126 100.43 157.254L100.439 157.308L100.543 157.975C100.728 159.162 101.142 161.811 101.673 165.395L102.446 162.801C102.362 162.197 102.275 161.593 102.186 160.99Z" fill="#00A3E0"/>
<path d="M74.0156 105.331L73.9452 105.47L73.896 105.568L73.9495 105.462L74.0156 105.331Z" fill="#FFF100"/>
<path d="M111.538 176.662C111.572 177.686 111.641 178.708 111.744 179.727C111.88 181.024 112.072 182.315 112.319 183.596C112.966 186.93 113.86 189.456 114.467 190.933C114.819 191.83 115.432 192.968 115.432 192.968L115.442 192.986C116.864 194.41 118.432 195.68 120.087 196.9L120.167 196.923L117.433 191.996L116.682 190.59C116.558 190.346 113.822 184.873 113.395 176.557C112.827 176.624 112.267 176.671 111.727 176.671C111.664 176.669 111.602 176.663 111.538 176.662ZM142.585 118.293L142.586 118.294L142.586 118.295L142.035 118.515L142.004 118.528L141.738 118.632L141.685 118.654C141.623 118.68 141.504 118.73 141.336 118.806L141.047 118.94C139.82 119.518 137.084 120.947 133.856 123.511C133.41 123.867 132.97 124.232 132.538 124.605C130.084 126.803 126.917 130.342 126.647 130.634C121.374 136.318 115.076 144.349 115.002 144.451C114.557 145.068 114.384 145.475 114.27 146.022C114.24 146.192 114.218 146.363 114.204 146.536C114.188 146.821 114.161 147.28 114.111 147.805H115.884C115.952 147.176 115.997 146.554 116.03 145.988L116.034 145.916C116.1 145.549 116.194 145.403 116.568 144.92C117.469 143.755 119.641 141.033 121.518 138.728C124.605 135.256 127.228 132.229 129.675 129.512C135.706 122.817 142.161 119.778 142.219 119.754L146.74 117.801L147.445 117.566L147.437 117.564C146.005 117.7 144.106 117.884 142.632 118.283C142.616 118.285 142.6 118.289 142.585 118.293ZM135.237 54.1338C126.931 56.8932 125.625 62.1203 125.625 62.1203L131.915 61.736C132.626 55.6369 135.237 54.1338 135.237 54.1338Z" fill="#41748D"/>
<path d="M101.972 17.5742C101.979 17.9805 101.978 18.3911 101.989 18.5463C102.804 30.2144 98.6813 38.7565 95.084 43.6053C100.557 41.27 107.458 39.3495 115.369 39.2977C112.833 34.3421 108.247 26.0782 101.972 17.5742ZM79.802 117.091C83.0778 134.671 95.6558 140.492 96.6544 140.883C101.075 142.753 104.264 141.35 105.059 140.772C106.239 140.037 107.508 139.036 108.693 137.988L115.827 131.686L121.214 127.007L122.219 126.136C122.97 125.484 123.738 124.851 124.521 124.238C125.863 123.183 127.265 122.206 128.718 121.311C128.936 121.178 129.151 121.049 129.364 120.925C132.979 118.815 135.844 117.997 137.892 117.744C140.928 117.341 142.58 118.29 142.584 118.293L142.633 118.281C144.106 117.882 146.005 117.698 147.437 117.561L147.179 117.465C146.483 117.209 145.786 116.956 145.088 116.705C143.032 116.004 141.013 115.618 139.402 115.618C133.807 115.618 127.497 118.629 120.647 124.568C117.934 126.921 109.382 134.891 109.296 134.971L108.913 135.327C107.238 136.89 104.12 139.801 101.184 139.818C99.2455 139.818 96.0257 138.966 93.533 137.094C86.4613 131.784 82.3965 124.297 80.5639 112.814C80.1125 110.218 79.5475 107.121 79.578 103.676C79.5101 104.267 79.4491 104.891 79.399 105.551C79.1097 108.714 79.0571 112.752 79.802 117.091Z" fill="#00A3E0"/>
<path d="M161.653 106.694L161.672 106.671L161.681 106.642C161.905 105.954 161.934 105.479 161.962 105.021C161.972 104.858 162.14 103.239 162.14 103.239L161.701 104.454C161.329 105.48 160.876 106.049 160.316 106.191C160.227 106.216 160.136 106.229 160.043 106.231L159.864 106.234L159.891 106.41C159.906 106.502 160.215 108.665 157.929 110.119L157.863 110.161L157.858 110.239C157.835 110.592 157.793 110.977 157.728 111.451L157.683 111.776L157.962 111.604C158.371 111.353 158.752 111.079 159.094 110.791C160.36 109.725 161.038 108.506 161.06 107.259C161.172 107.176 161.401 106.989 161.653 106.694ZM160.008 112.927L160.051 112.898L160.067 112.848C160.377 111.875 160.633 110.946 160.883 110.005L161.291 108.536L160.674 109.855C160.23 110.732 159.28 112.256 158.248 112.624L158.145 112.66V112.77C158.145 112.801 158.136 113.549 157.42 114.128C157.325 114.205 157.24 114.265 157.152 114.318L157.099 114.349L157.082 114.408C156.929 114.938 156.761 115.463 156.578 115.982L156.44 116.376L156.802 116.167C157.675 115.662 159.14 114.639 159.288 113.393C159.412 113.322 159.682 113.159 160.008 112.927ZM158.033 118.363L158.055 118.311C158.395 117.503 158.871 116.098 159.231 115.079C158.833 115.785 157.894 116.83 156.033 117.55L155.972 117.573L155.946 117.634C155.699 118.229 155.457 118.771 155.207 119.293L155.042 119.638L155.401 119.505C155.551 119.449 156.901 118.944 157.983 118.389L158.033 118.363ZM147.83 131.436L147.872 131.431L147.906 131.404C148.811 130.702 149.687 129.962 150.531 129.189L150.896 128.854L150.406 128.922C149.86 128.997 149.34 129.037 148.858 129.04L148.794 129.041L148.749 129.088C148.006 129.854 147.23 130.587 146.423 131.287L146.078 131.586L146.534 131.558C146.934 131.532 147.37 131.491 147.83 131.436ZM152.277 127.473L152.308 127.44C153.102 126.601 153.835 125.735 154.488 124.865L154.803 124.444L154.309 124.627C153.491 124.93 152.69 125.159 151.931 125.31L151.869 125.323L151.834 125.374C151.283 126.159 150.694 126.915 150.068 127.642L149.803 127.95L150.206 127.895C150.89 127.799 151.567 127.662 152.234 127.484L152.277 127.473ZM145.621 132.634C145.354 132.634 145.105 132.626 144.878 132.61L144.819 132.606L144.772 132.642L144.713 132.688L144.66 132.729C142.365 134.507 138.496 136.889 135.535 138.415C136.531 138.013 141.519 135.938 145.855 132.914L146.266 132.627L145.764 132.632L145.621 132.634ZM155.888 122.796L155.91 122.757C156.411 121.926 156.853 121.061 157.234 120.169L157.417 119.736L157.013 119.975L157.012 119.976L153.93 121.754L153.832 121.81C153.832 121.81 153.789 121.928 153.743 122.042C153.497 122.617 153.214 123.175 152.897 123.714L152.699 124.057L153.077 123.94C154.029 123.64 154.956 123.264 155.848 122.816L155.888 122.796ZM85.309 104.213C85.1648 101.447 84.7949 99.7731 84.7915 99.7578L84.7508 99.5873L84.587 99.6493L82.8146 100.315L82.6865 100.364L82.7188 100.497C82.7213 100.509 83.0505 102.357 83.1311 104.828L83.1413 105.115L83.143 105.166L83.1752 105.207L83.3466 105.419C83.3653 105.442 85.1538 107.677 86.0582 110.826L86.1049 110.989L88.2132 110.177L88.1742 110.041C87.3258 107.093 85.8011 104.879 85.309 104.213ZM88.55 104.174C88.5679 104.189 90.4039 105.775 91.2744 108.737L91.3227 108.901L93.398 108.061L93.3581 107.926C92.5453 105.166 91.0325 103.416 90.3733 102.752C90.3326 101.094 89.9228 99.1327 89.5834 97.7712L89.5402 97.5956L89.373 97.666L87.5888 98.4142L87.4666 98.4651L87.4988 98.594C87.8374 99.9682 88.2344 101.913 88.203 103.377L88.1937 103.797L88.192 103.871L88.2488 103.919L88.55 104.174ZM96.3811 106.723L96.4277 106.893L98.4699 106.042L98.4317 105.91C97.624 103.103 96.0357 101.384 95.3332 100.732C95.441 98.1487 94.5756 95.961 94.3991 95.5453L94.338 95.4019L94.1947 95.4639L92.3222 96.3155L92.3824 96.4496C92.3926 96.4716 93.3785 98.7017 93.1358 101.188L93.0883 101.706L93.0807 101.793L93.1502 101.845L93.5473 102.142C93.5668 102.156 95.5428 103.681 96.3811 106.723ZM101.713 104.575L101.761 104.742L103.656 103.953L103.787 103.899L103.745 103.764C102.928 101.121 101.417 99.5347 100.546 98.7984C100.809 95.9109 99.6365 93.4161 99.5856 93.3101L99.5186 93.1701L99.3794 93.2363L97.6893 94.0413L97.5502 94.1075L97.6155 94.2466C97.6266 94.2703 98.7219 96.6438 98.3079 99.0987L98.2043 99.7103L98.1874 99.8113L98.2739 99.8664L98.7974 100.2C98.8186 100.214 100.837 101.547 101.713 104.575ZM106.755 102.456L106.789 102.607L108.849 101.838L108.816 101.706C108.134 98.9952 106.643 97.4132 105.766 96.682C106.326 93.7215 105.167 91.0452 105.117 90.9315L105.055 90.7899L104.913 90.8526L103.2 91.6076L103.059 91.6695L103.12 91.8112C103.131 91.8366 104.204 94.3594 103.49 96.8287L103.286 97.5303L103.253 97.6465L103.358 97.7075L103.989 98.0749C104.009 98.0876 106.05 99.3218 106.755 102.456ZM111.774 100.474L111.8 100.626L113.882 99.8851L113.855 99.7553C113.291 97.0433 111.85 95.4969 110.985 94.7852C111.842 91.7399 110.695 88.8923 110.646 88.771L110.586 88.6276L110.443 88.6861L108.711 89.3978L108.568 89.4564L108.626 89.5997C108.638 89.626 109.699 92.2803 108.679 94.792L108.355 95.5707L108.301 95.7014L108.425 95.7675L109.173 96.1637C109.256 96.2086 111.229 97.3267 111.774 100.474ZM116.796 98.5558L116.815 98.7094L116.968 98.6899C116.968 98.6899 118.292 98.2869 118.806 98.1113L118.929 98.0689L118.909 97.94C118.472 95.1839 117.066 93.6494 116.206 92.947C117.358 89.8228 116.221 86.7979 116.172 86.6689L116.116 86.5247L115.971 86.5807L114.224 87.2526L114.079 87.3077L114.135 87.4519C114.146 87.4799 115.192 90.2936 113.875 92.8351L113.43 93.6927L113.356 93.8343L113.501 93.903L114.373 94.3195C114.393 94.3314 116.398 95.3536 116.796 98.5558ZM121.821 96.9161L121.837 97.1104L122.022 97.0518C122.632 96.8593 123.239 96.6727 123.843 96.4928L123.968 96.4555L123.953 96.3257C123.621 93.5654 122.263 92.0241 121.42 91.3158C122.818 88.2433 121.832 85.1463 121.714 84.7993L121.666 84.6585L119.738 85.2947L119.594 85.3465L119.645 85.4915C119.656 85.5212 120.676 88.525 119.074 91.0808L118.503 91.9741L118.408 92.1234L118.568 92.198L119.53 92.645C119.609 92.6849 121.565 93.6825 121.821 96.9161ZM126.814 95.4707L126.832 95.6522L127.008 95.6064C127.624 95.4452 128.239 95.2917 128.835 95.1492L128.97 95.1169L128.953 94.9795C128.627 92.3651 127.362 90.7212 126.578 89.9323C128.09 87.2118 127.604 84.4219 127.322 83.3386L127.283 83.1936L127.138 83.2266C126.553 83.3581 125.939 83.5049 125.313 83.6618L125.16 83.7L125.201 83.8518C125.403 84.6017 125.933 87.2246 124.271 89.4971L123.688 90.2936L123.591 90.4251L123.728 90.5142L124.554 91.0537C124.574 91.0664 126.517 92.3889 126.814 95.4707ZM131.749 94.4544C131.749 94.4544 133.233 94.2483 133.809 94.1584L133.939 94.138V94.0057C133.945 91.3022 132.885 89.7134 131.952 88.8388C133.661 86.121 133.243 83.1707 133.071 82.3224L133.043 82.1816L132.9 82.1994C132.306 82.274 131.679 82.3648 131.037 82.4683L130.873 82.4946L130.911 82.6557C130.988 82.9917 131.606 86.0039 129.602 88.3621L128.808 89.2969L128.677 89.4513L128.861 89.537L129.972 90.0561C129.99 90.0646 131.882 91.018 131.755 94.2992L131.749 94.4544ZM137.075 93.8496L137.262 93.8352C137.893 93.7877 138.526 93.7554 139.143 93.741L139.283 93.7376L139.294 93.5985C139.508 90.9001 138.489 89.1137 137.806 88.2399C139.502 86.0531 139.411 83.4591 139.202 82.095L139.183 81.9669L139.053 81.9636C138.418 81.9457 137.782 81.9457 137.147 81.9636L136.962 81.9678L136.999 82.1485C137.157 82.9314 137.52 85.6273 135.574 87.4612L134.767 88.2094L134.632 88.3341L134.778 88.4461L135.651 89.1154C135.722 89.1722 137.437 90.5778 137.096 93.6638L137.075 93.8496ZM144.608 82.7346L144.592 82.6295L144.489 82.6066C143.824 82.461 143.154 82.3407 142.481 82.246L142.246 82.2129L142.31 82.4411C142.515 83.1724 143.023 85.6824 140.958 87.2763L140.194 87.8659L140.068 87.9634L140.169 88.0864L140.78 88.832C140.796 88.8507 142.336 90.7882 142.001 93.6392L141.983 93.7995L142.143 93.8123C142.768 93.8606 143.39 93.9319 143.991 94.026L144.149 94.0506L144.168 93.8912C144.469 91.3379 143.62 89.3402 143.043 88.3205C144.922 86.3161 144.765 83.7534 144.608 82.7346ZM145.606 94.3407L145.774 94.3823C146.394 94.5367 146.993 94.7191 147.553 94.9235L147.699 94.977L147.752 94.8302C148.448 92.8851 148.463 90.7619 147.796 88.8066C148.492 87.9312 149.361 86.54 149.216 84.4388L149.205 84.3023L149.202 84.2564L149.194 84.1648L149.109 84.1275C148.469 83.8476 147.799 83.5931 147.12 83.3725L146.879 83.2945L146.919 83.5447C146.978 83.9163 147.019 84.2785 147.042 84.6204C147.117 85.7783 146.614 87.06 145.817 87.7369L145.26 88.217L145.168 88.2959L145.222 88.4037L145.549 89.0594C145.597 89.1544 146.695 91.4066 145.666 94.1787L145.606 94.3407ZM149.148 95.6089L149.285 95.6793C149.841 95.9643 150.376 96.285 150.877 96.6328L151.021 96.7329L151.102 96.5777C152.049 94.7708 152.365 92.6993 152 90.6923C152.787 90.1096 153.355 89.2798 153.614 88.3358C153.71 87.9914 153.768 87.6182 153.788 87.2271L153.791 87.1508L153.733 87.1016C153.087 86.5526 152.407 86.0449 151.698 85.5815L151.37 85.3668L151.463 85.7486C151.652 86.5205 151.667 87.1957 151.51 87.7564C151.332 88.3901 150.918 88.8728 150.245 89.2316L149.545 89.6091L149.43 89.671L149.472 89.7948L149.725 90.5464C149.758 90.6423 150.501 92.9385 149.218 95.4723L149.148 95.6089ZM156.207 89.5896L156.073 89.4343L155.86 89.1875L155.804 89.5081C155.778 89.6515 155.742 89.7923 155.696 89.9297C155.45 90.6474 154.911 91.1826 154.048 91.5677L153.382 91.8655L153.262 91.9189L153.296 92.0462L153.482 92.7511C153.488 92.7731 154.055 95.1033 152.301 97.5896L152.223 97.7008L152.322 97.7932C152.731 98.1716 153.132 98.5923 153.511 99.0444L153.636 99.1929L153.753 99.0385C155.58 96.6345 155.684 94.278 155.569 93.0378C156.979 91.8324 157.038 91.2352 157.077 90.8382L157.086 90.7627L157.092 90.7025L157.057 90.6533C156.794 90.2834 156.51 89.928 156.207 89.5896ZM158.558 92.8843L158.439 92.6909L158.2 92.2998L158.153 92.7562C158.009 94.1567 157.864 94.7683 156.665 95.2823L155.736 95.586L155.792 95.7379C155.792 95.7379 156.029 96.2383 156.079 96.5005C156.129 96.7634 156.704 98.3268 154.592 100.278L154.496 100.366L154.567 100.475C154.849 100.91 155.115 101.369 155.359 101.839L155.449 102.012L155.597 101.884C157.93 99.8902 158.126 97.8246 158.013 96.7091C158.787 96.2341 159.216 95.441 159.32 94.289L159.325 94.2449L159.304 94.205C158.986 93.5815 158.851 93.3635 158.558 92.8843Z" fill="#EF3340"/>
<path d="M160.38 96.4187L160.213 96.053L159.968 95.5127L159.917 96.1031C159.838 97.0277 159.584 98.1653 158.829 98.3315L158.186 98.4732L158.058 98.5012L158.064 98.6318L158.097 99.2901C158.097 99.3079 158.143 101.261 156.122 103.262L156.049 103.334L156.087 103.43C156.286 103.923 156.475 104.458 156.65 105.019L156.72 105.245L156.899 105.091C159.179 103.12 159.774 101.028 159.922 99.9068C160.398 99.6336 160.918 98.9279 160.918 97.7538V97.7258L160.907 97.6996C160.753 97.2641 160.577 96.8367 160.38 96.4187ZM160.143 102.245L159.459 102.236L159.454 102.357L159.428 103.023C159.39 103.296 159.309 104.901 157.143 106.43L157.057 106.49L157.082 106.592C157.203 107.098 157.305 107.579 157.393 108.059L157.434 108.281L157.627 108.163C160.024 106.695 160.79 104.816 161.035 103.777C161.256 103.666 161.553 103.382 161.764 102.95C162.045 102.371 162.259 101.362 161.68 99.8397L161.455 99.2493L161.381 99.8771C161.261 100.89 161.032 101.616 160.718 101.977C160.583 102.132 160.319 102.242 160.143 102.245Z" fill="#EF3340"/>
<path d="M102.447 162.802L103.856 158.083C103.839 157.734 103.637 157.433 103.28 157.231C102.886 157.008 102.283 156.895 101.51 156.994C101.732 158.148 101.959 159.464 102.186 160.99C102.271 161.565 102.358 162.173 102.447 162.802ZM71.683 109.644C77.8918 84.9858 112.493 73.6452 130.505 73.7733H130.54L130.578 73.736L138.796 65.7461L164.817 62.9621C164.816 62.9612 163.637 62.0052 160.632 61.2927C160.569 61.2782 160.495 61.2647 160.431 61.2502C159.298 60.996 158.15 60.8141 156.994 60.7057C156.834 60.6904 156.655 60.6811 156.491 60.6675C156.161 60.6403 155.837 60.6106 155.485 60.592C155.458 60.5903 155.427 60.5903 155.399 60.5894C153.6 60.5015 151.797 60.5171 149.999 60.6361L136.146 61.4767L135.585 61.5107C135.585 61.5107 135.409 54.5692 142.788 51.7801C150.167 48.991 183.706 36.7156 183.712 36.7139L150.306 42.7281L144.737 43.7308L143.102 44.0252C137.378 43.8156 132.757 44.5418 132.757 44.5418C131.6 43.9624 129.331 42.8308 124.822 41.7959C124.01 41.6093 123.134 41.426 122.169 41.2496C119.781 36.1862 117.11 31.2614 114.167 26.4989C113.909 26.0807 113.634 25.6515 113.366 25.2274C113.145 24.877 112.932 24.5326 112.705 24.1789C111.055 21.6111 109.322 19.0972 107.51 16.6411C105.309 13.6548 102.983 10.7627 100.538 7.97259C99.9052 7.25156 99.2595 6.53222 98.6003 5.81543C97.572 8.8548 97.3183 11.5812 97.2598 14.3024C97.242 15.1185 97.242 15.9345 97.2437 16.7582L97.2454 17.5844C97.2632 22.5672 96.9442 28.1141 94.4243 33.957C94.1342 34.488 93.8016 35.4983 91.7781 38.4673C91.2496 39.2408 90.6615 39.972 90.0193 40.6541C86.1199 44.8056 82.8933 46.5471 80.9572 47.7101C79.4385 48.6076 77.9407 49.5399 76.4647 50.506L76.4605 50.5102L76.3875 50.5577L76.3722 50.5679C71.0025 53.9203 66.5016 57.7791 62.8067 61.9916C60.2228 64.9282 57.9662 68.1371 56.0769 71.5619L56.1923 71.5322C59.4308 70.745 62.4894 70.1325 65.5709 69.6142C66.9977 67.6892 68.5654 65.8726 70.261 64.1793C71.6598 62.8371 73.1367 61.5786 74.6839 60.4105C84.3831 53.089 97.9139 49.1453 112.522 48.6907C112.853 48.6805 113.188 48.6763 113.521 48.6695C96.352 50.8529 80.8944 57.4406 70.6496 68.8567C83.0265 67.2467 93.4656 67.603 99.6804 68.4801C95.2507 70.1079 90.7557 72.1591 86.4703 74.6394C83.8415 76.1555 81.3123 77.838 78.898 79.6765C73.852 79.2013 68.7891 78.9276 63.7213 78.8562C59.2789 87.4051 57.129 97.8016 58.0758 110.144C57.193 106.711 56.667 103.196 56.5062 99.6551C56.1813 92.3268 57.4386 85.3285 60.241 78.8333C57.6092 78.8392 55.0961 78.8969 52.7146 78.9885C52.0242 80.8907 51.4432 82.8307 50.9744 84.7992C50.6639 86.1156 50.4035 87.4432 50.1939 88.7793C48.9577 95.7225 47.2795 112.107 55.2667 126.238C56.5454 128.495 58.0385 130.623 59.7252 132.594C60.1748 132.302 60.633 132.024 61.103 131.755L61.1047 131.754C62.8007 130.811 64.6042 130.076 66.4761 129.565C68.2494 129.091 68.6481 129.043 68.6642 129.041L69.1979 128.981C71.103 128.524 73.0549 128.291 75.0139 128.287C78.3924 128.293 79.8508 128.481 79.8508 128.481C78.4916 129.592 77.8044 130.121 76.497 131.32C73.8583 133.607 71.8272 136.816 70.4324 141.099C71.9741 142.025 73.5572 142.88 75.1768 143.661C74.8884 142.658 74.9211 141.59 75.2703 140.606C75.6195 139.622 76.2676 138.772 77.124 138.175C77.1579 138.146 77.1901 138.113 77.2241 138.084C77.4828 137.718 77.7849 137.38 78.137 137.085C79.0755 136.301 80.2594 135.871 81.4824 135.871C82.8664 135.872 84.1933 136.422 85.172 137.401C86.1507 138.379 86.7012 139.706 86.7028 141.09C86.7022 142.094 86.4116 143.077 85.8658 143.919C85.3201 144.762 84.5424 145.43 83.6263 145.841C83.5398 145.911 83.4499 145.977 83.3582 146.041C83.0967 146.275 82.8115 146.481 82.5073 146.656C86.3871 147.964 90.7608 149.034 95.6563 149.691C95.7106 149.658 95.7623 149.62 95.8166 149.587C96.5632 149.136 97.3251 148.746 98.0819 148.429C101.637 146.937 105.182 146.889 108.064 148.295C108.414 148.466 108.759 148.663 109.089 148.879C109.885 148.196 110.871 147.807 111.821 147.805H114.109C114.158 147.28 114.185 146.821 114.201 146.535C114.215 146.363 114.237 146.191 114.267 146.022C114.381 145.475 114.554 145.068 115 144.451C115.073 144.348 121.371 136.317 126.644 130.633C126.914 130.342 130.081 126.803 132.536 124.605C133.009 124.18 133.459 123.801 133.854 123.51C137.082 120.946 139.817 119.517 141.044 118.939C141.153 118.888 141.248 118.843 141.333 118.806C141.501 118.729 141.62 118.679 141.683 118.653L141.735 118.632L142.032 118.514L142.584 118.294L142.583 118.293L142.582 118.293C142.578 118.29 140.926 117.341 137.89 117.744C135.841 117.997 132.977 118.816 129.362 120.925C129.149 121.049 128.933 121.178 128.716 121.311C127.263 122.206 125.862 123.184 124.519 124.238C123.736 124.851 122.968 125.484 122.216 126.136L121.212 127.007C120.24 127.85 116.411 131.176 115.825 131.686L108.691 137.988C107.505 139.035 106.236 140.037 105.057 140.772C104.262 141.35 101.073 142.753 96.6523 140.883C95.6537 140.493 83.0757 134.671 79.7999 117.091C79.055 112.752 79.1076 108.714 79.3952 105.552C79.4453 104.892 79.5064 104.269 79.5742 103.678C79.7957 101.735 80.0892 100.184 80.3039 99.1894C79.4559 100.089 78.6531 101.031 77.8986 102.011C76.9223 103.29 76.0412 104.639 75.2625 106.047C75.1581 106.236 75.0521 106.423 74.952 106.614C72.8402 110.639 71.5066 115.026 71.0212 119.545C70.7276 116.94 70.8337 114.89 70.9346 113.82C70.9805 113.335 71.0254 113.052 71.0314 113.009C71.1722 111.909 71.3835 110.787 71.683 109.644ZM135.237 54.1341C135.237 54.1341 132.626 55.6372 131.915 61.7363L125.625 62.1206C125.626 62.1206 126.932 56.8935 135.237 54.1341ZM95.0844 43.6044C98.6818 38.7557 102.804 30.2135 101.99 18.5455C101.979 18.3903 101.98 17.9797 101.973 17.5734C108.248 26.0773 112.834 34.3412 115.37 39.2969C107.458 39.3486 100.557 41.27 95.0844 43.6044ZM115.432 192.967C115.432 192.967 114.819 191.83 114.467 190.932C113.86 189.455 112.966 186.929 112.319 183.595C111.873 181.309 111.612 178.99 111.538 176.662C109.72 176.624 108.087 176.06 106.766 175.292C105.822 174.749 104.985 174.037 104.296 173.193L104.077 173.329C105.806 182.543 108.811 191.954 115.442 192.986L115.432 192.967Z" fill="black"/>
<path d="M178.841 175.314C176.436 175.298 174.253 174.67 172.528 173.495C172.082 173.193 171.664 172.85 171.28 172.471C168.342 174.354 165.045 175.349 161.732 175.349C158.42 175.349 155.673 174.11 153.996 171.863C152.228 169.491 151.835 166.233 152.891 162.688L154.15 158.653C154.55 157.461 154.53 156.548 154.098 156.144C153.623 155.701 152.572 155.689 151.54 156.115C151.052 156.317 150.537 156.641 150.05 157.052C150.014 157.082 149.984 157.119 149.948 157.15C150.043 157.105 150.122 157.071 150.173 157.049C150.996 156.7 151.775 156.709 152.16 157.07C152.542 157.428 152.595 158.225 152.301 159.2L151.237 162.693C150.062 166.636 150.525 170.287 152.539 172.972C153.109 173.732 153.796 174.549 155.352 175.436C156.787 176.252 158.485 176.667 160.4 176.667C163.322 176.667 166.58 175.71 170.089 173.823C172.051 175.739 174.818 176.845 177.725 176.866H183.977L185.619 175.312H178.841V175.314ZM133.692 174.19L138.535 158.269C138.86 157.221 138.804 156.371 138.389 155.991C137.963 155.603 137.098 155.595 136.185 155.974C135.674 156.19 135.194 156.472 134.757 156.813C134.663 156.885 134.574 156.961 134.485 157.036C135.294 156.719 136.046 156.717 136.425 157.072C136.806 157.43 136.859 158.227 136.565 159.203L131.545 175.794H141.737L143.713 174.181L133.692 174.19ZM118.523 174.188C114.298 175.659 110.571 175.598 107.745 174.01C106.949 173.563 106.228 172.994 105.61 172.322C105.383 172.489 105.152 172.651 104.918 172.808C104.708 172.949 104.504 173.065 104.296 173.194C104.985 174.038 105.822 174.749 106.766 175.293C108.088 176.062 109.72 176.625 111.538 176.662C111.602 176.664 111.664 176.669 111.728 176.669C112.268 176.669 112.828 176.622 113.396 176.555C114.573 176.413 115.734 176.157 116.861 175.793H126.028L128.158 174.179L118.523 174.188ZM83.6292 145.841C83.5952 145.856 83.5647 145.877 83.5299 145.892C82.7359 146.228 81.8709 146.363 81.0121 146.284C80.1533 146.205 79.3273 145.915 78.6079 145.44C77.8885 144.964 77.298 144.318 76.889 143.559C76.48 142.8 76.2653 141.951 76.2639 141.089C76.2639 139.998 76.6093 138.955 77.2269 138.083C77.1921 138.112 77.1599 138.144 77.1268 138.175C76.4654 138.638 75.9254 139.254 75.5526 139.97C75.1798 140.686 74.9852 141.482 74.9854 142.289C74.9854 142.765 75.0558 143.224 75.1796 143.661C75.4781 144.714 76.1119 145.641 76.985 146.301C77.858 146.962 78.9226 147.319 80.0174 147.32C81.2515 147.32 82.4422 146.865 83.3611 146.041C83.4527 145.977 83.5426 145.911 83.6292 145.841ZM181.104 146.304C179.72 146.303 178.393 145.753 177.414 144.774C176.435 143.796 175.884 142.469 175.883 141.085C175.883 139.976 176.239 138.916 176.877 138.034C176.823 138.079 176.772 138.128 176.719 138.175C176.057 138.638 175.517 139.254 175.144 139.97C174.771 140.686 174.577 141.482 174.577 142.289C174.577 142.95 174.707 143.604 174.959 144.214C175.212 144.825 175.583 145.379 176.05 145.846C176.517 146.314 177.072 146.684 177.682 146.937C178.292 147.19 178.946 147.32 179.607 147.32H179.609C180.843 147.32 182.034 146.865 182.953 146.041C183.031 145.986 183.109 145.928 183.183 145.868C183.171 145.873 183.16 145.882 183.148 145.887C182.502 146.163 181.806 146.305 181.104 146.304Z" fill="#EF3340"/>
<path d="M169.574 162.169L172.978 150.9C173.014 150.781 173.057 150.664 173.104 150.548L173.135 150.479C173.187 150.362 173.224 150.284 173.264 150.208L173.311 150.122C173.367 150.024 173.408 149.955 173.452 149.887L173.503 149.808C173.92 149.193 174.477 148.686 175.128 148.329C173.817 148.563 172.911 149.149 172.279 149.83C171.35 150.724 171.021 151.889 170.807 152.6L167.402 163.869C167.174 164.613 166.717 165.357 166.087 166.053C166.113 166.039 166.14 166.028 166.166 166.014C167.83 165.073 169.136 163.6 169.574 162.169ZM121.717 162.399L125.234 150.899C125.269 150.786 125.309 150.672 125.359 150.551L125.391 150.479C125.431 150.389 125.472 150.301 125.517 150.213L125.567 150.123C125.622 150.026 125.663 149.957 125.706 149.889L125.779 149.781C125.991 149.475 126.24 149.195 126.518 148.948C126.214 149.072 125.924 149.225 125.65 149.407C124.267 150.227 123.349 151.663 123.066 152.594L119.481 164.096C119.162 165.049 118.574 165.993 117.824 166.81C117.898 166.773 117.973 166.744 118.047 166.704C119.724 165.8 121.131 164.15 121.717 162.399ZM103.435 173.703C101.153 174.94 98.7577 175.599 96.4881 175.599C94.5511 175.599 92.7864 175.135 91.244 174.221C90.2353 173.626 89.3503 172.844 88.6367 171.915C88.3661 172.094 88.0802 172.27 87.7857 172.442C87.5329 172.588 87.2767 172.728 87.0171 172.862C87.744 173.868 88.6699 174.714 89.7371 175.348C91.2703 176.255 93.0214 176.716 94.944 176.716H94.9465C97.6997 176.716 100.378 175.818 102.917 174.067C103.026 173.992 103.136 173.925 103.245 173.846L103.435 173.703ZM79.4754 174.788L79.427 174.787C75.8195 174.764 72.7235 173.353 70.9333 170.918C69.2509 168.629 68.8352 165.696 69.7651 162.659L73.359 150.899C73.3912 150.791 73.4328 150.675 73.4854 150.548L73.5151 150.483C73.5677 150.363 73.6059 150.285 73.6466 150.208L73.6941 150.122C73.74 150.04 73.7875 149.959 73.8384 149.881L73.8935 149.797C74.0971 149.495 74.339 149.221 74.6121 148.981C73.7807 149.355 73.0322 149.891 72.4105 150.558C71.7444 151.23 71.3491 151.968 71.1573 152.601L68.1352 162.488C67.0883 165.913 67.582 169.239 69.5046 171.853C71.618 174.728 75.5429 176.233 78.3274 176.233C80.468 176.233 82.226 175.845 83.8813 174.965C84.8968 174.479 85.8708 173.815 86.8567 172.946C84.4845 174.15 81.9341 174.788 79.4754 174.788ZM85.1157 164.96C85.6529 164.574 86.1417 164.125 86.5716 163.622C86.8482 160.952 87.8587 158.224 89.4953 155.728C90.9493 153.504 92.8297 151.59 95.028 150.097C94.098 150.622 93.2141 151.225 92.3859 151.899C89.9408 153.763 88.21 156.027 86.9322 158.329C85.691 160.562 84.8943 162.965 84.6075 165.301C84.7798 165.194 84.9494 165.081 85.1157 164.96ZM101.509 156.994C102.283 156.895 102.885 157.008 103.28 157.231C103.636 157.433 103.84 157.734 103.856 158.083L102.447 162.802L101.673 165.396L101.611 165.603C101.78 165.47 101.949 165.338 102.113 165.19C102.88 164.501 103.549 163.71 104.1 162.839L105.62 157.852C105.518 156.707 105.028 156.034 104.122 155.794C103.894 155.735 103.659 155.707 103.423 155.708C102.464 155.708 101.327 156.138 100.22 156.919C100.048 157.04 99.881 157.166 99.7181 157.299C99.5408 157.441 99.3864 157.574 99.215 157.731C99.1878 157.757 99.1632 157.787 99.1361 157.812C99.5959 157.571 100.027 157.387 100.429 157.256C100.78 157.134 101.142 157.047 101.509 156.994Z" fill="#EF3340"/>
<path d="M186.324 141.086C186.323 139.702 185.773 138.375 184.794 137.396C183.815 136.417 182.488 135.867 181.104 135.865C179.881 135.866 178.697 136.297 177.759 137.081C177.427 137.361 177.131 137.681 176.877 138.034C176.232 138.921 175.884 139.989 175.883 141.086C175.884 141.948 176.099 142.796 176.508 143.555C176.917 144.314 177.507 144.96 178.226 145.436C178.946 145.911 179.772 146.201 180.63 146.28C181.489 146.359 182.354 146.224 183.148 145.888C183.161 145.883 183.172 145.874 183.183 145.869C184.116 145.464 184.91 144.796 185.468 143.946C186.026 143.096 186.324 142.102 186.324 141.086ZM181.104 144.698C179.111 144.698 177.49 143.077 177.49 141.085C177.49 139.092 179.111 137.471 181.104 137.471C183.096 137.471 184.717 139.092 184.717 141.085C184.717 143.077 183.096 144.698 181.104 144.698ZM107.243 158.043C107.17 156.062 106.183 154.677 104.533 154.241C104.171 154.146 103.799 154.1 103.425 154.101C100.442 154.101 96.8402 156.871 95.0823 160.723C94.1295 162.81 93.9191 164.905 94.5062 166.471C94.854 167.4 95.4674 168.086 96.2802 168.454C98.7135 169.558 102.551 167.755 105.017 164.349C105.209 164.083 105.392 163.808 105.577 163.509L107.243 158.043ZM96.9437 166.991C96.522 166.799 96.2081 166.435 96.0104 165.907C95.5786 164.756 95.7788 163.067 96.5441 161.39C97.1363 160.09 98.0569 158.826 99.1369 157.811C99.1641 157.786 99.1887 157.756 99.2158 157.73C99.3872 157.573 99.5416 157.44 99.7189 157.298C99.8903 157.159 100.059 157.031 100.22 156.918C101.328 156.137 102.465 155.707 103.424 155.707C103.673 155.707 103.908 155.736 104.123 155.793C105.028 156.032 105.519 156.706 105.621 157.851L104.101 162.838C103.549 163.708 102.88 164.499 102.114 165.189C101.949 165.337 101.781 165.469 101.612 165.602C99.9259 166.927 98.0687 167.501 96.9437 166.991Z" fill="#00A3E0"/>
<path d="M111.823 147.805C110.875 147.807 109.888 148.197 109.092 148.879C108.763 148.663 108.421 148.468 108.067 148.296C105.185 146.889 101.64 146.937 98.0848 148.43C97.328 148.747 96.5661 149.137 95.8195 149.588C95.7652 149.621 95.7135 149.658 95.6592 149.691C95.4462 149.823 95.2358 149.958 95.0279 150.098C92.8297 151.591 90.9493 153.504 89.4953 155.728C87.8587 158.224 86.8482 160.952 86.5716 163.622C86.0055 164.278 85.3433 164.845 84.6075 165.302C83.4494 166.022 82.1886 166.429 81.0738 166.429C80.3042 166.429 79.7222 166.216 79.4363 165.828C79.1631 165.46 79.1249 164.891 79.3285 164.226L84.3156 147.807L77.4416 147.808C76.4422 147.809 75.4139 148.248 74.6113 148.98C74.3379 149.22 74.0965 149.495 73.8926 149.796L73.8375 149.88C73.7866 149.958 73.7391 150.039 73.6933 150.121L73.6457 150.207C73.5988 150.297 73.555 150.389 73.5142 150.482L73.4845 150.547C73.4319 150.674 73.3912 150.79 73.3581 150.897L69.7642 162.658C68.8351 165.696 69.25 168.628 70.9325 170.917C72.7227 173.353 75.8186 174.763 79.4261 174.786L79.4745 174.787C81.9324 174.787 84.4836 174.149 86.8558 172.944C86.8753 172.934 86.8957 172.925 86.9152 172.916C86.95 172.898 86.9805 172.88 87.0153 172.862C87.5719 172.576 88.1124 172.26 88.635 171.915C89.3488 172.843 90.2338 173.626 91.2422 174.221C92.7847 175.135 94.5494 175.599 96.4864 175.599C98.7568 175.598 101.152 174.94 103.433 173.702L103.242 173.846C103.134 173.925 103.023 173.992 102.914 174.067C103.987 181.63 105.625 186.628 108.208 190.226C110.511 193.433 113.016 194.561 113.496 194.754C113.521 194.766 114.12 195.053 114.947 195.332C116.944 196.006 119.071 196.616 120.086 196.9C118.431 195.68 116.863 194.409 115.44 192.986C108.809 191.955 105.804 182.544 104.076 173.329C104.149 173.286 104.222 173.238 104.294 173.194C104.502 173.065 104.707 172.949 104.916 172.808C105.163 172.642 105.391 172.483 105.608 172.322C106.227 172.994 106.947 173.563 107.743 174.01C110.569 175.598 114.297 175.659 118.522 174.188L128.156 174.179L132.577 159.696C132.807 158.833 133.528 157.838 134.484 157.035C134.573 156.96 134.662 156.884 134.756 156.812C135.193 156.471 135.674 156.189 136.185 155.973C137.097 155.595 137.962 155.603 138.388 155.99C138.804 156.37 138.859 157.22 138.535 158.268L133.691 174.189L143.713 174.178L148.03 160.002L148.044 159.954C148.295 159.014 149.006 157.977 149.948 157.149C149.983 157.118 150.014 157.081 150.05 157.051C150.537 156.64 151.052 156.316 151.54 156.114C152.572 155.689 153.623 155.7 154.098 156.143C154.53 156.547 154.55 157.46 154.15 158.652L152.891 162.688C151.836 166.232 152.228 169.49 153.996 171.862C155.673 174.11 158.42 175.348 161.732 175.348C165.045 175.348 168.342 174.354 171.28 172.47C171.663 172.847 172.082 173.191 172.528 173.495C174.253 174.669 176.436 175.297 178.841 175.313H185.621L188.172 166.954H180.529C179.759 166.954 179.178 166.741 178.89 166.353C178.617 165.985 178.579 165.416 178.783 164.75L183.934 147.794L177.062 147.802C176.405 147.803 175.738 147.993 175.128 148.329C174.477 148.687 173.92 149.193 173.502 149.807L173.451 149.886C173.407 149.955 173.366 150.024 173.31 150.122L173.264 150.208C173.223 150.284 173.187 150.362 173.134 150.479L173.103 150.548C173.052 150.672 173.011 150.786 172.977 150.9L169.573 162.168C169.135 163.6 167.829 165.073 166.166 166.014C166.139 166.028 166.112 166.038 166.087 166.053C165.035 166.632 163.923 166.954 162.945 166.954C162.75 166.954 162.401 166.924 162.25 166.721C162.024 166.416 162.053 165.647 162.325 164.764L163.632 160.494C165.203 155.314 164.162 150.939 160.848 148.793C158.945 147.559 156.532 147.218 153.868 147.806C151.813 148.26 149.636 149.293 147.563 150.799C146.489 149.391 144.891 148.35 143.041 147.856C140.86 147.275 138.39 147.431 136.039 148.293L136.186 147.805L129.317 147.805C128.329 147.806 127.315 148.234 126.518 148.948C126.239 149.195 125.991 149.474 125.778 149.78L125.706 149.889C125.658 149.965 125.611 150.043 125.567 150.123L125.517 150.213C125.472 150.3 125.43 150.389 125.391 150.478L125.359 150.551C125.312 150.665 125.27 150.781 125.234 150.898L121.717 162.398C121.131 164.15 119.724 165.8 118.047 166.703C117.973 166.743 117.898 166.772 117.824 166.809C117.117 167.155 116.412 167.346 115.772 167.346C115.018 167.346 114.432 167.086 114.079 166.596C113.562 165.878 113.508 164.743 113.933 163.475L118.696 147.805H114.112L111.823 147.805ZM116.528 149.407L112.415 162.973C111.824 164.736 111.956 166.398 112.775 167.535C113.433 168.449 114.497 168.952 115.771 168.952C118.767 168.952 122.112 166.239 123.228 162.905L126.769 151.367C127.095 150.29 128.239 149.413 129.318 149.411L134.022 149.406L133.361 151.574C136.201 149.415 139.767 148.598 142.748 149.442C144.847 150.036 146.383 151.374 147.091 153.217C151.707 149.261 156.75 148.052 159.974 150.14C162.652 151.875 163.445 155.571 162.094 160.027L160.788 164.293C160.341 165.751 160.4 166.92 160.958 167.675C161.38 168.246 162.085 168.56 162.944 168.56C166.328 168.56 170.144 165.792 171.109 162.637L174.514 151.363C174.841 150.286 175.984 149.409 177.063 149.408H181.765L177.246 164.282C176.89 165.445 177.015 166.521 177.599 167.309C178.196 168.116 179.236 168.56 180.528 168.56H185.969L184.431 173.707H178.849C175.676 173.686 173.029 172.452 171.56 170.316C169.482 171.896 166.116 173.741 161.732 173.741C158.939 173.741 156.65 172.732 155.284 170.901C153.826 168.945 153.522 166.191 154.429 163.146L155.673 159.156C156.289 157.319 156.118 155.833 155.193 154.968C154.244 154.083 152.569 153.95 150.925 154.629C148.924 155.456 147.016 157.567 146.49 159.539L142.521 172.573L135.86 172.579L140.072 158.735C140.598 157.032 140.385 155.635 139.47 154.802C138.559 153.972 137.102 153.854 135.571 154.487C133.479 155.351 131.526 157.411 131.028 159.278L130.938 159.618L130.923 159.58L126.966 172.573L120.304 172.58L120.609 171.58C117.185 173.235 114.003 173.915 111.392 173.548C108.968 173.207 107.07 171.99 105.897 170.027C102.98 172.621 99.5899 174.001 96.5195 174.001C94.9074 174.001 93.3837 173.621 92.0618 172.837C90.7688 172.071 89.7668 170.981 89.083 169.596C86.2831 171.878 82.7935 173.179 79.4745 173.18H79.3939C76.3276 173.16 73.7153 171.989 72.228 169.966C70.8536 168.096 70.5244 165.668 71.3007 163.128L74.8938 151.369C75.2196 150.293 76.3633 149.415 77.4425 149.414H82.1445L77.7903 163.756C77.4348 164.92 77.5604 165.995 78.1433 166.783C78.7406 167.59 79.7808 168.034 81.0729 168.034C83.5648 168.034 86.4639 166.473 88.1344 164.234C88.3143 161.669 89.2493 159.033 90.8384 156.609C92.8186 153.589 95.6125 151.21 98.7067 149.91C101.827 148.599 104.901 148.538 107.362 149.74C108.097 150.097 108.771 150.57 109.358 151.14C109.767 150.16 110.817 149.414 111.823 149.412L116.528 149.407ZM76.2649 141.09C76.266 141.952 76.4806 142.801 76.8895 143.56C77.2984 144.319 77.889 144.965 78.6085 145.441C79.3279 145.917 80.154 146.207 81.0129 146.286C81.8718 146.364 82.7368 146.229 83.5308 145.893C83.5656 145.878 83.5953 145.857 83.6301 145.842C84.5461 145.43 85.3238 144.763 85.8696 143.92C86.4153 143.077 86.706 142.095 86.7065 141.091C86.7049 139.707 86.1544 138.38 85.1758 137.402C84.1971 136.423 82.8702 135.873 81.4861 135.871C80.2632 135.872 79.0795 136.302 78.1407 137.086C77.7946 137.378 77.4874 137.714 77.2278 138.084C76.6029 138.962 76.2664 140.012 76.2649 141.09ZM81.4853 137.477C82.4433 137.478 83.3617 137.859 84.0391 138.536C84.7165 139.214 85.0976 140.132 85.0987 141.09C85.0987 143.082 83.4774 144.703 81.4853 144.703C79.4931 144.703 77.8709 143.082 77.8709 141.09C77.8723 140.132 78.2535 139.214 78.9311 138.536C79.6086 137.859 80.5272 137.478 81.4853 137.477Z" fill="#00A3E0"/>
<path d="M184.717 141.086C184.716 140.128 184.335 139.21 183.657 138.533C182.98 137.855 182.062 137.474 181.104 137.473C179.111 137.473 177.489 139.094 177.489 141.086C177.489 143.079 179.111 144.7 181.104 144.7C182.062 144.699 182.98 144.317 183.657 143.64C184.335 142.963 184.716 142.044 184.717 141.086ZM81.4849 144.704C82.443 144.703 83.3614 144.322 84.0388 143.644C84.7162 142.967 85.0972 142.048 85.0984 141.091C85.0984 139.099 83.477 137.478 81.4849 137.478C79.4928 137.478 77.8706 139.099 77.8706 141.091C77.8717 142.049 78.2529 142.967 78.9304 143.645C79.608 144.322 80.5267 144.703 81.4849 144.704ZM111.825 149.412C110.818 149.414 109.768 150.16 109.359 151.14C108.772 150.57 108.099 150.097 107.363 149.74C104.902 148.539 101.828 148.599 98.7081 149.91C95.6138 151.21 92.8199 153.589 90.8397 156.609C89.2506 159.033 88.3156 161.669 88.1358 164.234C86.4652 166.473 83.5661 168.034 81.0743 168.034C79.7821 168.034 78.7419 167.59 78.1446 166.783C77.5609 165.994 77.4353 164.919 77.7917 163.756L82.1458 149.414H77.4438C76.3646 149.416 75.2209 150.293 74.8951 151.369L71.302 163.128C70.5249 165.668 70.8549 168.096 72.2294 169.966C73.7167 171.989 76.3281 173.16 79.3952 173.18H79.4758C82.7949 173.18 86.2845 171.878 89.0843 169.596C89.7681 170.981 90.7693 172.071 92.0631 172.837C93.3859 173.621 94.9088 174.001 96.5208 174.001C99.5913 174.001 102.982 172.621 105.899 170.027C107.071 171.991 108.968 173.207 111.394 173.548C114.004 173.915 117.187 173.235 120.61 171.58L120.306 172.58L126.968 172.573L130.925 159.58L130.939 159.618L131.029 159.278C131.527 157.411 133.48 155.351 135.572 154.487C137.103 153.854 138.561 153.972 139.472 154.802C140.386 155.635 140.599 157.031 140.073 158.735L135.861 172.579L142.523 172.573L146.492 159.539C147.018 157.567 148.925 155.456 150.927 154.629C152.571 153.95 154.246 154.083 155.194 154.968C156.12 155.833 156.29 157.319 155.674 159.156L154.431 163.146C153.524 166.192 153.826 168.945 155.285 170.901C156.651 172.732 158.941 173.741 161.733 173.741C166.118 173.741 169.483 171.896 171.561 170.316C173.03 172.452 175.678 173.686 178.85 173.707H184.432L185.97 168.56H180.529C179.238 168.56 178.197 168.116 177.6 167.309C177.017 166.521 176.891 165.445 177.247 164.282L181.766 149.408H177.064C175.986 149.409 174.842 150.286 174.515 151.363L171.11 162.637C170.145 165.792 166.33 168.56 162.945 168.56C162.087 168.56 161.381 168.246 160.959 167.675C160.401 166.92 160.342 165.751 160.79 164.293L162.095 160.027C163.446 155.571 162.654 151.875 159.975 150.14C156.752 148.052 151.708 149.261 147.092 153.217C146.385 151.373 144.848 150.036 142.749 149.442C139.769 148.597 136.203 149.415 133.362 151.574L134.023 149.406L129.319 149.411C128.24 149.413 127.097 150.29 126.771 151.367L123.229 162.905C122.114 166.239 118.768 168.952 115.773 168.952C114.498 168.952 113.434 168.448 112.776 167.535C111.957 166.398 111.826 164.736 112.416 162.973L116.529 149.407L111.825 149.412ZM105.576 163.509C105.392 163.808 105.209 164.084 105.016 164.349C102.551 167.755 98.7132 169.558 96.2799 168.454C95.4671 168.085 94.8536 167.4 94.5058 166.471C93.9195 164.905 94.1291 162.81 95.0819 160.723C96.8398 156.872 100.442 154.101 103.424 154.101C103.805 154.101 104.177 154.146 104.533 154.241C106.182 154.677 107.169 156.062 107.242 158.042L105.576 163.509Z" fill="black"/>
<path d="M45.4818 150.59L45.6939 150.304C47.5757 147.762 50.1516 144.282 52.5917 141.109L52.6358 141.055C57.0273 135.833 59.8245 133.268 63.3506 131.25C65.186 130.226 67.1552 129.462 69.2014 128.98L68.6677 129.041C68.6516 129.042 68.2529 129.091 66.4796 129.565C64.6077 130.076 62.8042 130.811 61.1082 131.753L61.1065 131.754C60.6365 132.023 60.1783 132.301 59.7287 132.593C56.6387 134.594 53.9093 137.23 49.9352 141.951C49.9115 141.979 49.8886 142.009 49.8656 142.038L45.033 148.459L45.4818 150.59ZM25.4741 176.12C23.5609 177.722 20.4785 178.894 16.5774 179.449C14.6566 179.722 12.5949 179.923 11.1712 179.928C12.393 178.971 13.9006 177.655 15.2208 176.103C16.1829 175.05 17.3707 173.373 18.2225 170.906C18.8436 169.107 27.54 140.942 28.5293 137.736L28.5675 137.613C28.693 137.193 28.7982 136.807 28.889 136.435C28.9527 136.174 29.0036 135.939 29.0485 135.717C29.3387 134.264 29.3039 133.587 29.3039 133.54C29.3226 132.496 29.1715 131.578 28.9085 130.843C28.8474 130.674 28.7728 130.478 28.6761 130.325L28.6302 130.25L28.6294 130.251L28.6277 130.246L27.0827 131.795L27.126 131.871C27.2168 132.028 27.2795 132.229 27.3296 132.404C27.6571 133.541 27.5824 135.028 27.0861 136.893L16.5817 170.661C14.7804 176.272 7.48054 180.782 7.40672 180.827L6.84082 181.172L7.5009 181.235C7.52041 181.237 8.60641 181.337 10.2625 181.337C11.6998 181.337 13.5672 181.261 15.5406 180.981C21.1963 180.176 25.0236 178.13 26.986 174.859C27.249 174.434 27.7572 173.577 28.1076 172.955C27.6707 173.656 27.1743 174.318 26.6246 174.934C26.3929 175.192 26.0264 175.62 25.4741 176.12ZM48.3996 175.904L55.2498 153.803L52.4101 157.615L51.9706 159.031L51.9698 159.032L46.2955 177.317L46.2089 177.593H60.0952L61.7157 175.977L61.6495 175.935L61.6249 175.966L61.3466 175.931L61.3746 175.903L48.3996 175.904ZM35.2658 152.079L34.2952 155.248L38.5586 175.393L39.9661 174.323L35.2658 152.079Z" fill="#EF3340"/>
<path d="M76.4995 131.321C77.807 130.121 78.4942 129.593 79.8534 128.481C79.8534 128.481 78.3958 128.293 75.0165 128.287C73.5436 128.287 71.4921 128.43 69.2005 128.981C67.1542 129.462 65.185 130.226 63.3497 131.251C59.8236 133.268 57.0263 135.833 52.6348 141.055L52.5907 141.11C50.1506 144.281 47.5739 147.763 45.693 150.304L45.4809 150.591L45.032 148.461L41.1971 130.243L28.6259 130.247L28.6276 130.252L28.6285 130.251L28.6743 130.326C28.771 130.478 28.8457 130.674 28.9067 130.844C29.1706 131.578 29.3208 132.496 29.3021 133.54C29.3021 133.587 29.3369 134.265 29.0467 135.717C28.9984 135.958 28.9458 136.197 28.8872 136.436C28.7965 136.807 28.6912 137.193 28.5657 137.614L28.5275 137.737C27.5382 140.943 18.841 169.109 18.2208 170.907C17.3689 173.375 16.1811 175.052 15.219 176.104C13.8988 177.655 12.3912 178.972 11.1694 179.928C12.5931 179.923 14.6556 179.722 16.5756 179.449C20.4759 178.894 23.5591 177.722 25.4723 176.121C26.0246 175.62 26.3911 175.193 26.6228 174.935C27.1718 174.319 27.6679 173.657 28.1058 172.956C29.6975 170.44 30.4882 167.736 30.7894 166.7L34.2943 155.249L35.264 152.08L39.9644 174.324L52.4083 157.615L55.248 153.803L48.3978 175.904L61.3728 175.903H61.7139C61.4594 175.041 61.2922 174.435 61.1497 173.773C60.9817 172.8 60.9936 172.42 61.1158 171.504C61.193 170.925 61.3593 170.293 61.6002 169.465L70.3128 141.456C70.3509 141.334 70.3951 141.222 70.4341 141.1C71.8298 136.817 73.8618 133.607 76.4995 131.321ZM68.7746 140.975L60.0612 168.987C59.7939 169.905 59.609 170.612 59.519 171.29C59.3671 172.431 59.3934 173.341 59.6022 174.155L59.6378 174.292H50.5859L50.63 174.149L59.5716 145.301L40.8052 170.497L35.5517 145.635L29.2453 166.239C28.8864 167.473 27.7936 171.231 25.4256 173.856C24.6858 174.678 22.4349 177.177 16.0513 177.843L15.7391 177.875L15.9622 177.654C17.0966 176.53 18.6738 174.538 19.7462 171.428C20.3987 169.538 30.0106 138.398 30.1081 138.084C30.4738 136.855 30.6808 135.919 30.8234 134.855C30.9727 133.73 30.9455 132.793 30.7394 131.99L30.7037 131.852L39.8897 131.85L44.629 154.41C44.629 154.41 51.4504 145.222 53.8617 142.089C58.1174 137.029 60.8095 134.558 64.1532 132.646C68.2197 130.373 72.3057 129.896 75.0182 129.896C75.142 129.896 75.2651 129.898 75.3872 129.901L75.6757 129.908L75.456 130.095C72.45 132.652 70.2653 136.21 68.7746 140.975Z" fill="#00A3E0"/>
<path d="M75.3859 129.902C75.2629 129.898 75.1399 129.897 75.0169 129.897C72.3053 129.897 68.2192 130.374 64.1519 132.647C60.8082 134.56 58.1161 137.03 53.8604 142.09C51.4483 145.223 44.6277 154.411 44.6277 154.411L39.8884 131.851L30.7024 131.854L30.7381 131.991C30.9442 132.794 30.9714 133.732 30.8221 134.856C30.6795 135.92 30.4725 136.855 30.1068 138.085C30.0101 138.399 20.3974 169.538 19.7449 171.429C18.6717 174.54 17.0944 176.531 15.9609 177.655L15.7378 177.876L16.05 177.844C22.4336 177.177 24.6845 174.679 25.4243 173.858C27.7923 171.232 28.8851 167.475 29.244 166.24L35.5504 145.636L40.8039 170.498L59.5703 145.302L50.6287 174.15L50.5846 174.294H59.6365L59.6009 174.156C59.3913 173.342 59.365 172.432 59.5177 171.291C59.6077 170.613 59.7926 169.906 60.0599 168.988L68.7733 140.976C70.2631 136.211 72.4487 132.653 75.453 130.098L75.6727 129.911L75.3859 129.902Z" fill="black"/>
<path d="M56.5101 99.6548C56.6705 103.196 57.1964 106.711 58.0796 110.144C57.1336 97.8013 59.2836 87.4057 63.7251 78.8559C62.5458 78.8381 61.3834 78.8296 60.2448 78.8322C57.4425 85.3283 56.1851 92.3266 56.5101 99.6548ZM113.524 48.6709C113.19 48.6777 112.856 48.6819 112.525 48.6921C97.9169 49.1468 84.3861 53.0904 74.6869 60.4119C73.1397 61.5801 71.6628 62.8386 70.264 64.1808C68.5684 65.874 67.0007 67.6906 65.5738 69.6157C67.2987 69.3256 68.9922 69.0753 70.6526 68.859C80.8974 57.4421 96.355 50.8544 113.524 48.6709Z" fill="#EF3340"/>
<path d="M52.7181 78.9879C56.385 78.8453 60.0553 78.8012 63.7248 78.8564C68.5074 78.9285 73.6039 79.1728 78.9015 79.6767C81.3157 77.8381 83.845 76.1557 86.4738 74.6396C70.7659 73.9542 49.6484 74.7405 29.499 81.2952C30.0149 81.1959 38.1496 79.7021 50.3934 79.0905C51.168 79.0523 51.9426 79.0175 52.7181 78.9879Z" fill="#41748D"/>
<path d="M189.96 175.972H189.952L189.579 174.805H189.01V176.59H189.338V175.168H189.347L189.797 176.589H190.111L190.578 175.168H190.586V176.589H190.914V174.805H190.349L189.96 175.972ZM187.418 175.124H187.902V176.59H188.23V175.124H188.717V174.805H187.418V175.124Z" fill="black"/>
</svg>
