<svg width="200" height="200" viewBox="0 0 200 200" fill="none" xmlns="http://www.w3.org/2000/svg">
<path d="M136.083 1.03183C129.155 7.80806 122.367 9.3824 111.625 9.3824L39.8586 9.28154L30.0903 33.7421C35.9935 36.2918 39.8586 41.8989 39.8586 48.626V160.683C39.8586 167.41 35.9935 173.015 30.0903 175.56L39.8586 199.271H67.2636L77.038 175.56C71.1349 173.113 67.2636 167.304 67.2636 160.683V116.505L111.625 116.527C122.368 116.527 129.153 119.178 136.083 125.955C140.607 112.019 154.195 101.629 170.893 97.4849C164.563 86.5899 162.078 76.9194 162.078 66.8243C162.078 56.7301 163.489 45.7606 169.82 34.8709C153.122 30.7197 140.252 14.9614 136.083 1.02832V1.03183ZM67.4011 32.9028H124.2C133.198 32.9028 138.833 38.5809 138.833 46.1053V79.9777C138.833 87.8801 134.375 92.1909 124.2 92.1909H67.4011V32.9028Z" fill="#FDB827"/>
</svg>
