<svg width="200" height="200" viewBox="0 0 200 200" fill="none" xmlns="http://www.w3.org/2000/svg">
<g clip-path="url(#clip0_106_10754)">
<path d="M181.998 5.54427C163.426 -9.32724 146.586 9.26177 146.586 19.9001C165.138 23.8576 181.74 42.4471 174.322 90.7067C168.249 130.188 144.966 154.759 130.333 155.256C142.462 138.617 150.634 119.861 155.052 101.531C168.377 46.7174 147.064 29.0481 130.204 28.2375C109.719 27.1894 89.178 55.1103 83.454 88.0562C78.9274 114.156 79.5154 140.825 95.381 160.373C81.3181 178.079 47.5993 183.564 53.5077 140.844C58.4776 105.119 76.2203 65.6927 86.0669 46.3317L86.3619 45.8161C91.6263 34.9938 95.8227 27.3361 97.6076 24.2815L93.6318 24.227C55.2931 24.8894 24.7211 33.7602 10.5308 53.1955C-2.8131 71.3998 -3.19982 90.5778 7.80643 101.898L9.42621 103.535C12.6658 106.756 16.8806 108.432 21.0953 108.432H21.1137C24.9239 108.432 28.7525 107.033 31.6603 104.125C34.587 101.235 36.0224 97.3519 36.0224 93.5244C36.0224 89.3081 34.3292 85.0938 31.109 81.8721C29.3598 80.1794 27.4089 78.8913 25.3295 78.0629L25.3657 77.9508L26.3597 75.9096C28.9543 71.3998 33.4645 67.2777 39.3175 64.35C43.9363 62.05 49.3296 60.4486 55.2014 59.8591L54.2995 61.7912C46.1644 76.9032 34.2742 105.635 30.5012 120.579C18.8132 167.422 37.7349 194.829 58.202 198.674C82.8471 203.275 101.732 191.331 111.725 175.907C123.634 183.472 155.107 187.816 178.777 145.667C205.998 97.1487 206.993 25.587 181.998 5.54427ZM112.333 144.249C107.676 132.874 105.54 119.492 105.54 106.774C105.54 91.4246 108.614 77.16 113.915 68.7666C117.376 63.2449 121.554 60.5765 126.211 60.8894C127.885 60.9816 129.763 61.5517 131.124 64.773C132.21 67.3685 132.689 70.8277 132.689 74.8233C132.689 94.8298 120.726 128.971 112.332 144.249" fill="#11225B"/>
<path d="M179.218 9.02225C173.274 4.27398 167.144 3.18769 161.458 5.94929C156.671 8.2498 153.064 12.8151 151.666 16.7161C163.132 20.5813 180.562 32.4527 180.562 68.9694C180.562 75.6329 179.973 83.0501 178.666 91.4063C172.979 128.642 152.255 153.949 135.652 158.825C130.756 160.26 126.321 159.856 122.694 157.868C139.13 137.64 147.009 115.904 150.745 100.461C153.653 88.4602 154.83 78.6136 154.83 70.552C154.83 56.1589 151.167 47.416 147.284 42.2071C141.375 34.3487 133.922 32.8395 129.964 32.6367C112.552 31.7899 93.2634 57.5387 87.8523 88.8108C86.288 97.8482 85.459 106.203 85.459 113.842C85.459 133.461 90.6501 148.702 101.012 160.022C93.3373 172.058 77.7102 180.287 65.3236 177.471C59.8569 176.237 48.4084 171.139 48.4084 150.119C48.4084 147.138 48.6296 143.88 49.1259 140.255C53.6357 108.026 68.4149 72.3373 78.851 50.7844L79.1088 50.3243C83.6365 40.8456 87.5384 33.3541 90.1334 28.7898L89.4344 28.8081C52.1626 30.06 26.156 39.3543 14.1001 55.8094C14.1001 55.8094 4.03242 68.6744 4.38246 81.7431C4.58425 89.3254 7.25363 96.0246 13.0505 100.718L13.8051 101.308C18.3333 104.841 24.6096 104.768 28.4376 100.903C32.6341 96.687 32.3579 89.6199 27.8675 85.1106C25.5293 82.7734 22.548 81.5577 19.603 81.5215H19.5108C22.1613 66.5756 39.371 55.0181 60.1872 55.0181L62.9294 55.0904L62.5432 55.845L58.2178 63.9256C50.5057 78.2264 38.5971 106.552 34.824 121.646C28.9156 145.296 30.6276 166.057 39.6283 180.084C44.6161 187.869 51.5176 192.894 58.9903 194.312C75.4821 197.403 87.5186 192.157 94.7161 187.225C100.716 183.102 106.588 176.678 110.711 169.868C115.625 173.052 123.888 176.458 130.827 176.365C142.607 176.2 159.834 170.347 174.89 143.512C187.443 121.13 194.99 92.4549 195.505 64.8641C196.059 38.4901 189.949 17.6363 179.218 9.02225ZM126.486 56.4717C152.788 58.1094 123.136 140.18 111.689 153.303C92.8782 119.309 99.9086 54.7979 126.486 56.4717Z" fill="white"/>
</g>
<defs>
<clipPath id="clip0_106_10754">
<rect width="200" height="200" fill="white"/>
</clipPath>
</defs>
</svg>
