<svg width="200" height="200" viewBox="0 0 200 200" fill="none" xmlns="http://www.w3.org/2000/svg">
<g clip-path="url(#clip0_106_6027)">
<path d="M121.227 44C67.4115 44 24.5781 73.4747 24.5781 73.4747C24.5781 73.4747 77.3948 69.1961 77.3948 80.1303C77.3948 89.7333 35.5598 105.326 35.5598 105.326C35.5598 105.326 68.5524 106.23 68.5524 114.169C68.5524 127.623 0 145.735 0 145.735C0 145.735 24.0076 156.764 61.5165 156.764C128.738 156.764 200 118.638 200 88.9727C200 61.6373 159.924 44 121.227 44Z" fill="#A4A9AD"/>
<path d="M121.227 46.377C82.3868 46.377 49.0139 62.2077 34.1815 70.4796C34.1815 70.4796 79.7721 67.2469 79.7721 80.1302C79.7721 88.1645 60.1857 97.815 46.4943 103.567C57.7137 104.661 70.9773 107.371 70.9773 114.169C70.9773 126.719 28.9521 140.125 7.79688 146.068C17.3524 149.253 36.4158 154.34 61.5169 154.34C129.071 154.34 197.623 116.308 197.623 88.9726C197.623 62.6831 157.975 46.377 121.227 46.377Z" fill="#111111"/>
<path d="M48.9655 145.545L41.0264 147.636C47.0936 148.218 53.1867 148.488 59.2817 148.445C139.386 148.445 192.536 99.7162 192.536 91.9672C192.532 91.4356 192.452 90.9072 192.298 90.3984C163.917 124.152 107.535 147.446 48.9655 145.545Z" fill="#F95602"/>
<path d="M122.225 52.9849C92.2744 52.9849 59.7097 64.5846 59.7097 64.5846C59.7097 64.5846 93.2252 62.9207 93.2252 76.9449C93.2252 90.0184 69.5504 99.6214 69.5504 99.6214C69.5504 99.6214 83.9074 102.949 83.9074 111.269C83.9074 130.142 37.3184 141.884 37.3184 141.884C135.108 146.638 190.967 94.3445 190.967 84.6939C190.967 75.6614 163.774 52.9849 122.225 52.9849Z" fill="white"/>
<path d="M122.225 54.9341C103.447 54.9341 83.4803 59.593 71.4527 62.9683C71.4527 62.9683 95.1751 63.9191 95.1751 76.945C95.1751 87.4989 81.9115 95.6282 74.733 99.2887C79.4394 101.19 85.8573 104.946 85.8573 111.269C85.8573 125.341 63.466 135.324 49.2041 140.268C137.913 140.268 189.066 93.1086 189.066 84.694C189.066 77.0401 162.777 54.9341 122.225 54.9341Z" fill="#B5985A"/>
<path d="M105.823 69.0537C105.823 69.0537 132.018 74.9487 143.76 82.7927L92.6548 96.0088L141.098 94.44C130.306 102.332 90.9434 121.205 90.9434 121.205C90.9434 121.205 139.339 114.026 169.907 86.073C142.714 61.6375 105.823 69.0537 105.823 69.0537Z" fill="white"/>
<path d="M117.043 70.0041C117.043 70.0041 137.295 75.1859 148.371 83.6004L109.959 93.5363L147.278 92.3002C136.819 101.095 106.108 115.88 106.108 115.88C122.272 111.601 147.801 102.711 166.864 86.1201C149.893 71.9057 129.355 69.7188 117.043 70.0041Z" fill="#111111"/>
</g>
<defs>
<clipPath id="clip0_106_6027">
<rect width="200" height="200" fill="white"/>
</clipPath>
</defs>
</svg>
