<svg width="200" height="200" viewBox="0 0 200 200" fill="none" xmlns="http://www.w3.org/2000/svg">
<path d="M185.787 189.3L185.772 179.879L164.119 168.335L160.41 158.088L146.692 140.77L150.447 137.467L153.301 139.139L161.308 131.947L163.841 154.729L172.981 132.368L187.968 158.669L183.88 121.489L166.45 102.274L157.854 109.242L157.227 108.715L156.323 93.7928L116.213 76.5451L112.27 73.2957L129.333 74.9172L110.663 61.0211L111.651 60.0373L109.537 25.3294L89.1811 49.4929L87.4271 49.4837L88.2498 30.8391L70.7684 0L73.37 28.5458L71.0215 32.6106L48.3562 19.8695L65.3204 42.0645L57.5828 55.079L53.1913 92.2707L33.6982 105.389L46.6942 127.133L14.4204 150.331L28.4526 170.358L12.6912 179.784L12.6792 189.441L9 199.67L78.5658 199.712L98.0405 183.026L104.655 183.658L116.402 173.959L115.263 168.244L120.634 163.476L137.4 181.71L137.431 192.513L140.38 199.949L190.876 200L185.787 189.3ZM80.0861 178.007L63.8701 177.967L54.0361 159.423L64.4323 153.121L83.7791 165.403L81.4113 169.698L84.542 174.153L80.0861 178.007ZM117.576 117.438L112.759 108.969L120.265 110.414L117.576 117.438ZM124.519 111.136L135.076 112.822L125.121 117.197L124.519 111.136ZM132.628 133.454L126.407 131.608L137.766 115.672L138.809 128.316L132.628 133.454Z" fill="#EDE1C6"/>
<path d="M83.0348 48.3314L83.7917 31.8368L77.0283 19.9595L77.8838 28.9495L83.0348 48.3314Z" fill="#791026"/>
<path d="M80.239 127.326L110.175 127.328L110.197 102.982L110.218 78.2458L97.9634 77.354L105.208 87.6039L88.4331 83.7351L67.9636 106.235L54.3694 99.6355L54.6823 96.6262L39.6699 106.725L42.0792 110.641L75.4822 113.709L80.239 127.326ZM79.882 102.982C81.0315 100.989 82.6853 99.333 84.6772 98.1814C86.6691 97.0298 88.929 96.4227 91.2298 96.421C91.6172 96.421 91.9992 96.4413 92.3783 96.4744C92.4694 96.4726 92.5587 96.4689 92.6507 96.4689V96.4993C95.4628 96.8025 98.1016 98.0062 100.174 99.931C102.246 101.856 103.641 104.399 104.151 107.181C104.66 109.963 104.257 112.835 103.002 115.37C101.747 117.904 99.7058 119.965 97.1839 121.245C94.6619 122.526 91.7937 122.957 89.0068 122.475C86.2199 121.992 83.6633 120.623 81.7182 118.569C79.7731 116.516 78.5434 113.889 78.2125 111.08C77.8816 108.271 78.4672 105.431 79.882 102.982Z" fill="#791026"/>
<path d="M131.326 109.839L136.949 110.802L150.786 96.2325L137.909 90.6943L131.326 109.839Z" fill="#791026"/>
<path d="M117.958 107.537L122.704 84.1557L112.723 79.8594L112.716 106.61L117.958 107.537Z" fill="#791026"/>
<path d="M65.4821 149.971L82.1588 140.333L77.7773 127.788L52.2817 127.817L43.5621 113.176L43.5439 113.175L65.4821 149.971Z" fill="#791026"/>
<path d="M98.6602 145.492L110.133 145.467H110.146L110.152 143.293H110.134H98.6783L98.6602 145.492Z" fill="#791026"/>
<path d="M98.6602 149.841L110.131 149.817H110.146L110.152 147.646H110.132L98.6783 147.644L98.6602 149.841Z" fill="#791026"/>
<path d="M164.984 122.173L165.671 129.238L169.214 129.816L170.997 125.459L171.1 118.378L174.963 126.632L176.861 130.183L180.405 128.816L179.736 123.209L172.535 115.713L164.984 122.173Z" fill="#791026"/>
<path d="M86.6819 72.4798C87.2562 72.4801 87.8178 72.3101 88.2956 71.9913C88.7733 71.6724 89.1457 71.219 89.3657 70.6885C89.5857 70.1579 89.6434 69.574 89.5315 69.0107C89.4196 68.4473 89.1432 67.9298 88.7371 67.5236C88.331 67.1174 87.8136 66.8407 87.2503 66.7287C86.687 66.6166 86.103 66.6741 85.5724 66.894C85.0418 67.1138 84.5883 67.4861 84.2693 67.9637C83.9503 68.4413 83.7801 69.0029 83.7803 69.5772C83.7807 70.3467 84.0865 71.0847 84.6305 71.6289C85.1746 72.1731 85.9124 72.4791 86.6819 72.4798Z" fill="#791026"/>
<path d="M70.409 180.316L70.4138 180.3L60.8332 180.314L55.8809 195.292L65.5655 195.305L70.409 180.316Z" fill="#791026"/>
<path d="M155.992 159.745L141.996 142.089L122.599 159.081L128.954 166.012L155.992 159.745Z" fill="#035130"/>
<path d="M112.482 129.988L112.464 150.4L130.566 135.265L112.482 129.988Z" fill="#035130"/>
<path d="M51.4434 158.141L63.2955 150.879L50.6873 129.688L20.4521 151.432L26.4484 159.914L51.4434 158.141Z" fill="#035130"/>
<path d="M176.841 130.183L181.51 138.661L180.416 128.827L176.841 130.183Z" fill="#035130"/>
<path d="M165.65 129.228L166.433 136.537L169.229 129.818L169.215 129.816L165.65 129.228Z" fill="#035130"/>
<path d="M81.6968 28.1579L77.0283 19.9595L77.8838 28.9605L81.6968 28.1579Z" fill="#035130"/>
<path d="M70.3536 37.6128L63.6406 33.3496L69.0416 39.8174L70.3536 37.6128Z" fill="#035130"/>
<path d="M181.348 189.73V182.538L160.497 171.451L157.079 161.945L130.636 167.957L141.725 179.962V189.744L181.348 189.73Z" fill="#B95B27"/>
<path d="M139.488 111.494L141.071 127.349L152.719 133.733L162.606 124.899L162.005 118.724L153.025 110.937L152.093 98.3403L139.488 111.494Z" fill="#B95B27"/>
<path d="M123.8 130.845L135.063 115.33L123.235 120.439L122.16 112.248L117.769 122.442L112.537 113.249L112.566 127.513L123.8 130.845Z" fill="#B95B27"/>
<path d="M90.4125 168.733L101.447 159.545L82.7652 142.725L66.918 151.894L86.8526 164.586L84.0985 169.422L92.3466 182.047L95.2001 179.504L90.4125 168.733Z" fill="#B95B27"/>
<path d="M106.446 164.122L95.1162 173.196L97.4256 178.517L103.118 179.107L111.54 172.184L110.431 167.14L106.446 164.122Z" fill="#B95B27"/>
<path d="M61.1451 177.986L51.9004 160.45L27.9887 162.182L34.8191 171.711L17.2207 182.207L17.2246 189.846L38.1804 189.83L42.1991 177.941L61.1451 177.986Z" fill="#B95B27"/>
<path d="M77.4361 60.6295L78.9951 66.0673L66.3027 95.2996L67.616 102.98L87.5692 81.1008L87.5821 81.087L99.6929 83.8432L93.1599 74.5991L108.208 75.7495L98.1854 67.4956L113.936 69.0168L103.921 61.5295L107.103 58.2883L105.82 36.708L91.2467 54.009L84.5968 53.7762L77.4361 60.6295ZM86.6867 64.2157C87.7433 64.2154 88.7764 64.5284 89.6551 65.1152C90.5339 65.7019 91.2189 66.5362 91.6235 67.5123C92.0281 68.4884 92.1342 69.5626 91.9283 70.599C91.7223 71.6354 91.2137 72.5874 90.4667 73.3347C89.7196 74.082 88.7677 74.591 87.7314 74.7973C86.6951 75.0036 85.6208 74.8979 84.6446 74.4936C83.6683 74.0893 82.8339 73.4046 82.2468 72.526C81.6597 71.6475 81.3464 70.6146 81.3464 69.5579C81.3469 68.1416 81.9097 66.7834 82.911 65.7817C83.9124 64.78 85.2703 64.2168 86.6867 64.2157Z" fill="#B95B27"/>
<path d="M131.233 102.98L129.117 109.467L131.393 109.863L133.738 102.98L137.923 90.6642L135.57 89.6519L131.233 102.98Z" fill="#4A3291"/>
<path d="M117.958 107.537L120.234 107.942L125.049 85.1382L122.71 84.125L117.958 107.537Z" fill="#4A3291"/>
<path d="M77.0584 125.731L51.0234 125.706L52.2818 127.817L77.7775 127.789H77.8335L77.1183 125.703H77.1081L77.1183 125.731H77.0584Z" fill="#4A3291"/>
<path d="M109.976 129.674L100.313 129.672L105.114 136.231L109.976 129.674Z" fill="#4A3291"/>
<path d="M83.9084 85.1354L83.9147 85.1528L87.5976 81.0906L87.5724 81.0875L82.4971 80.3306L83.9084 85.1354Z" fill="#4A3291"/>
<path d="M78.166 84.3594L79.4583 90.056L79.4615 90.067L83.8713 85.203L83.8524 85.2007L78.166 84.3594Z" fill="#4A3291"/>
<path d="M72.6193 89.3887L73.7839 96.2144L66.303 95.2998H66.2998L66.3006 95.3061L66.6223 97.1834L67.6228 103.017L79.4214 90.1172L79.4095 90.1156L72.6193 89.3887Z" fill="#4A3291"/>
<path d="M94.6953 116.243C99.869 116.243 102.179 113.794 102.192 108.306C101.976 106.378 101.254 104.541 100.101 102.981C99.1854 101.735 98.0172 100.696 96.6728 99.9328C95.3283 99.1692 93.8379 98.698 92.2989 98.5498C88.7586 98.6455 86.3972 100.186 85.4033 102.981C85.0309 104.087 84.8504 105.249 84.8695 106.416C84.8719 109.022 85.9079 111.519 87.75 113.362C89.5922 115.204 92.09 116.24 94.6953 116.243Z" fill="#4A3291"/>
<path d="M90.667 129.682L95.4491 136.28L100.313 129.672L90.7759 129.638L90.667 129.682L90.5496 129.628L80.9658 129.671L85.8007 136.258L90.667 129.682Z" fill="#4A3291"/>
<path d="M146.218 173.557L139.111 166.022L136.424 166.635L143.479 174.204L146.218 173.557Z" fill="#4A3291"/>
<path d="M151.55 172.339L144.449 164.81L141.76 165.42L148.814 172.987L151.55 172.339Z" fill="#4A3291"/>
<path d="M156.935 171.113L149.81 163.589L147.159 164.192L154.196 171.76L156.935 171.113Z" fill="#4A3291"/>
<path d="M72.5673 180.245L70.3959 180.259L65.5508 195.334H67.671L72.5673 180.245Z" fill="#4A3291"/>
<path d="M55.8799 195.296L58.3675 187.788L50.833 190.498L55.8799 195.296Z" fill="#4A3291"/>
<path d="M53.2578 183L58.3678 187.787L60.8333 180.314L53.2578 183Z" fill="#4A3291"/>
<path d="M41.2863 170.032L35.2884 161.631L32.5596 161.829L38.4864 170.294L41.2863 170.032Z" fill="#4A3291"/>
<path d="M46.8211 169.62L40.8541 161.229L38.1016 161.428L44.019 169.884L46.8211 169.62Z" fill="#4A3291"/>
<path d="M52.4344 169.209L46.4705 160.823L43.7188 161.021L49.6354 169.472L52.4344 169.209Z" fill="#4A3291"/>
<path d="M103.949 45.0532L96.167 54.1615L104.455 54.3042L103.949 45.0532Z" fill="#4A3291"/>
<path d="M183.739 189.762L183.727 181.108L162.461 169.77L158.599 159.095L143.881 140.515L150.207 134.954L153.048 136.617L162.9 127.764L164.987 146.521L172.679 127.703L184.855 149.071L181.918 122.37L166.233 105.08L157.822 111.895L155.234 109.711L154.357 95.1732L115.136 78.3084L105.812 70.6223L122.236 72.1858L107.531 61.2393L109.549 59.2377L107.804 30.5575L90.1275 51.5442L85.2887 51.5185L86.1804 31.3352L73.6648 9.25977L75.4667 29.0069L71.781 35.3843L56.0177 26.524L67.7889 41.9238L59.5654 55.7508L55.114 93.4422L36.4501 106.003L49.4167 127.696L17.257 150.812L31.3914 170.985L14.7345 180.945L14.7226 189.8L11.9111 197.626L77.8097 197.666L97.3718 180.907L104.007 181.541L114.159 173.16L113.026 167.493L120.782 160.613L139.44 180.909L139.473 192.117L141.768 197.905L187.639 197.951L183.739 189.762ZM172.536 115.713L179.736 123.21L181.505 138.564L181.457 138.537L174.963 126.633L171.101 118.379L170.999 125.459L166.433 136.538L164.986 122.174L172.536 115.713ZM165.976 108.351L170.968 113.833L165.568 118.518L159.615 113.513L165.976 108.351ZM152.094 98.3399L153.025 110.936L162.006 118.723L162.607 124.898L152.72 133.732L141.072 127.348L139.489 111.493L152.094 98.3399ZM112.723 79.86L150.787 96.2325L136.95 110.801L112.717 106.611L112.723 79.86ZM138.81 128.316L132.628 133.454L126.407 131.608L137.766 115.672L138.81 128.316ZM135.076 112.822L125.122 117.197L124.52 111.136L135.076 112.822ZM120.265 110.414L117.576 117.438L112.76 108.969L120.265 110.414ZM117.769 122.442L122.159 112.248L123.234 120.438L135.062 115.329L123.799 130.844L112.566 127.511L112.536 113.249L117.769 122.442ZM112.483 129.989L130.567 135.266L112.464 150.4L112.483 129.989ZM91.2474 54.0096L105.821 36.7077L107.104 58.2879L103.922 61.5291L113.937 69.0164L98.1863 67.4953L108.209 75.7491L93.1607 74.5988L99.6937 83.8429L87.5829 81.0867L67.6168 102.98L66.299 95.3085L66.2999 95.3057L66.299 95.2993L66.3026 95.3002L78.995 66.0679L77.4361 60.6301L84.5967 53.7777L91.2474 54.0096ZM83.7924 31.8376L83.035 48.3316L77.8842 28.9489L77.0284 19.9588L83.7924 31.8376ZM63.6412 33.3487L70.3537 37.6123L69.0414 39.8173L63.6412 33.3487ZM61.8605 56.5312L76.3492 32.2112L81.9086 53.082L74.4148 59.9242L76.2167 65.9189L63.7342 94.3698L56.9224 98.1227L61.8605 56.5312ZM42.0784 110.639L39.6692 106.724L54.6815 96.6245L54.3686 99.6338L67.9628 106.233L88.4323 83.7334L105.207 87.6022L97.9626 77.3522L110.217 78.244L110.196 102.98L110.175 127.326L80.2383 127.325L75.4814 113.706L42.0784 110.639ZM110.13 152.366L103.319 158.035L84.9998 141.541L80.9745 129.696L80.9625 129.681H80.969L80.9662 129.671L110.14 129.673L110.13 152.366ZM43.5444 113.175V113.146L73.6225 115.893L82.1589 140.333L65.4827 149.971L43.5444 113.175ZM84.5415 174.154L80.0864 178.007L63.8704 177.967L54.0364 159.423L64.4327 153.121L83.7795 165.404L81.4116 169.698L84.5415 174.154ZM26.4486 159.913L20.454 151.432L50.6885 129.688L63.2971 150.878L51.4449 158.141L26.4486 159.913ZM36.4501 195.237L15.4339 195.217L16.53 192.176L37.3593 192.194L36.4501 195.237ZM17.2248 189.847L17.222 182.208L34.8203 171.712L27.9901 162.183L51.9014 160.452L61.1464 177.986L42.1999 177.941L38.1811 189.831L17.2248 189.847ZM76.9686 195.292H38.9256L43.9024 180.319L80.945 180.315L85.7092 176.263L90.6051 183.652L76.9686 195.292ZM92.3472 182.047L84.0988 169.422L86.8532 164.586L66.9183 151.895L82.7653 142.725L101.448 159.545L90.4128 168.734L95.2 179.504L92.3472 182.047ZM103.117 179.107L97.4252 178.517L95.1153 173.196L106.445 164.122L110.43 167.14L111.538 172.184L103.117 179.107ZM111.876 165.308L106.41 161.089L94.0764 170.996L93.3438 169.362L105.317 159.48L140.626 129.805L147.895 133.804L111.876 165.308ZM128.955 166.012L122.599 159.081L141.997 142.09L155.993 159.746L128.955 166.012ZM141.725 189.745V179.963L130.636 167.957L157.079 161.945L160.498 171.45L181.348 182.537V189.729L141.725 189.745ZM141.894 192.132L182.453 192.124L184.081 195.532H143.326L141.894 192.132Z" fill="#010101"/>
<path d="M91.2286 122.64C94.5807 122.638 97.8045 121.351 100.237 119.045C102.67 116.739 104.127 113.589 104.309 110.242C104.491 106.894 103.384 103.605 101.216 101.049C99.0469 98.4924 95.9815 96.864 92.6495 96.4981V96.4678C92.5574 96.4678 92.4682 96.4715 92.3771 96.4733C91.9979 96.4402 91.616 96.4199 91.2286 96.4199C87.754 96.4237 84.4231 97.8067 81.9676 100.265C79.5121 102.723 78.1328 106.056 78.1328 109.53C78.1328 113.005 79.5121 116.337 81.9676 118.795C84.4231 121.253 87.754 122.636 91.2286 122.64ZM85.4014 102.981C86.3953 100.187 88.7577 98.6451 92.297 98.5494C94.5817 98.775 96.7393 99.7066 98.4702 101.215C100.201 102.723 101.419 104.733 101.955 106.965C102.061 107.407 102.14 107.854 102.19 108.305C102.177 113.794 99.8671 116.242 94.6934 116.242C92.088 116.24 89.5901 115.203 87.7478 113.361C85.9054 111.519 84.869 109.021 84.8658 106.416C84.848 105.249 85.0292 104.087 85.4014 102.981ZM82.3554 102.981C82.7947 102.387 83.2919 101.839 83.8398 101.344C83.5889 101.87 83.3857 102.418 83.2324 102.981C82.9323 104.101 82.7849 105.256 82.7943 106.416C82.7974 109.571 84.0521 112.596 86.283 114.828C88.514 117.059 91.539 118.314 94.6943 118.318C95.9986 118.336 97.2979 118.154 98.5465 117.777C96.5088 119.589 93.8718 120.582 91.1449 120.563C88.4179 120.545 85.7946 119.516 83.7815 117.677C81.7685 115.837 80.5086 113.317 80.2452 110.603C79.9818 107.888 80.7336 105.173 82.3554 102.981Z" fill="#010101"/>
<path d="M72.7332 63.5337L65.3169 61.0532L64.2754 63.8097L71.5797 66.1924L72.7332 63.5337Z" fill="#010101"/>
<path d="M74.2711 40.1685L66.6719 52.9873H70.9855L74.2711 40.1685Z" fill="#010101"/>
<path d="M62.8033 90.4883C62.5938 90.488 62.389 90.5499 62.2147 90.6661C62.0404 90.7823 61.9044 90.9476 61.8241 91.141C61.7438 91.3345 61.7226 91.5474 61.7634 91.7529C61.8041 91.9584 61.9049 92.1472 62.0529 92.2954C62.201 92.4436 62.3897 92.5445 62.5952 92.5854C62.8006 92.6263 63.0136 92.6054 63.2071 92.5252C63.4006 92.4451 63.5661 92.3093 63.6824 92.1351C63.7987 91.9609 63.8608 91.7561 63.8607 91.5466C63.8609 91.4076 63.8337 91.27 63.7807 91.1415C63.7277 91.0131 63.6498 90.8964 63.5516 90.7981C63.4533 90.6997 63.3367 90.6218 63.2083 90.5686C63.0799 90.5155 62.9423 90.4882 62.8033 90.4883Z" fill="#010101"/>
<path d="M63.3012 89.1126C63.5106 89.1119 63.715 89.0491 63.8888 88.9322C64.0625 88.8154 64.1977 88.6496 64.2773 88.456C64.3568 88.2623 64.3772 88.0494 64.3359 87.8441C64.2945 87.6389 64.1933 87.4505 64.0449 87.3028C63.8965 87.155 63.7077 87.0546 63.5022 87.0141C63.2968 86.9736 63.084 86.995 62.8907 87.0754C62.6974 87.1558 62.5322 87.2917 62.4161 87.4659C62.3 87.6402 62.2381 87.8449 62.2383 88.0543C62.2384 88.1936 62.2659 88.3316 62.3194 88.4603C62.3729 88.5889 62.4513 88.7058 62.55 88.8041C62.6488 88.9024 62.766 88.9803 62.8949 89.0332C63.0238 89.0862 63.1618 89.1131 63.3012 89.1126Z" fill="#010101"/>
<path d="M63.8004 85.6175C64.0097 85.6173 64.2143 85.5549 64.3882 85.4385C64.5621 85.322 64.6976 85.1566 64.7775 84.9631C64.8575 84.7696 64.8783 84.5568 64.8373 84.3515C64.7963 84.1463 64.6954 83.9577 64.5473 83.8098C64.3993 83.6618 64.2106 83.5611 64.0053 83.5203C63.8 83.4795 63.5872 83.5005 63.3938 83.5806C63.2004 83.6607 63.0351 83.7963 62.9188 83.9704C62.8025 84.1444 62.7403 84.349 62.7402 84.5583C62.7401 84.6975 62.7674 84.8354 62.8206 84.9641C62.8738 85.0927 62.9519 85.2096 63.0504 85.308C63.1489 85.4064 63.2658 85.4844 63.3945 85.5375C63.5232 85.5907 63.6612 85.6178 63.8004 85.6175Z" fill="#010101"/>
<path d="M59.8327 92.0283C59.6232 92.0285 59.4185 92.0908 59.2444 92.2073C59.0703 92.3239 58.9347 92.4894 58.8547 92.6831C58.7747 92.8767 58.7539 93.0897 58.7949 93.2951C58.836 93.5005 58.937 93.6892 59.0853 93.8372C59.2336 93.9852 59.4224 94.0859 59.6279 94.1266C59.8334 94.1673 60.0464 94.1461 60.2399 94.0658C60.4333 93.9855 60.5986 93.8496 60.7149 93.6753C60.8311 93.501 60.8931 93.2961 60.8929 93.0866C60.8924 92.8058 60.7805 92.5366 60.5818 92.3381C60.383 92.1397 60.1136 92.0283 59.8327 92.0283Z" fill="#010101"/>
<path d="M60.3346 88.5342C60.1253 88.534 59.9206 88.5959 59.7465 88.712C59.5724 88.8282 59.4366 88.9933 59.3563 89.1866C59.276 89.3799 59.2549 89.5927 59.2955 89.7981C59.3362 90.0034 59.4368 90.192 59.5847 90.3402C59.7326 90.4883 59.9211 90.5893 60.1263 90.6303C60.3316 90.6713 60.5444 90.6505 60.7378 90.5706C60.9313 90.4907 61.0967 90.3552 61.2131 90.1812C61.3296 90.0073 61.3918 89.8027 61.392 89.5934C61.3916 89.3129 61.2801 89.044 61.082 88.8455C60.8838 88.647 60.6151 88.5351 60.3346 88.5342Z" fill="#010101"/>
<path d="M60.8297 85.04C60.6202 85.0401 60.4153 85.1024 60.2411 85.2189C60.0669 85.3354 59.9311 85.501 59.851 85.6946C59.7709 85.8883 59.75 86.1014 59.791 86.3069C59.8319 86.5125 59.9329 86.7012 60.0812 86.8494C60.2295 86.9975 60.4183 87.0983 60.6239 87.1391C60.8295 87.1799 61.0426 87.1589 61.2362 87.0786C61.4298 86.9983 61.5952 86.8624 61.7116 86.6881C61.8279 86.5138 61.89 86.3089 61.8899 86.0993C61.8901 85.96 61.8628 85.8221 61.8095 85.6935C61.7563 85.5648 61.6782 85.448 61.5797 85.3496C61.4812 85.2512 61.3643 85.1732 61.2356 85.12C61.1069 85.0669 60.969 85.0397 60.8297 85.04Z" fill="#010101"/>
<path d="M81.3467 69.557C81.3464 70.614 81.6596 71.6474 82.2468 72.5264C82.8339 73.4054 83.6685 74.0905 84.6451 74.4951C85.6217 74.8996 86.6963 75.0055 87.733 74.7992C88.7697 74.5929 89.722 74.0838 90.4693 73.3362C91.2166 72.5886 91.7254 71.6362 91.9314 70.5994C92.1373 69.5626 92.0311 68.488 91.6262 67.5116C91.2213 66.5352 90.5359 65.7008 89.6567 65.1139C88.7775 64.5271 87.744 64.2142 86.687 64.2148C85.2705 64.2152 83.9121 64.7782 82.9106 65.7801C81.9091 66.7819 81.3466 68.1404 81.3467 69.557ZM86.6815 66.6729C87.2558 66.6725 87.8172 66.8424 88.2949 67.1612C88.7726 67.48 89.1451 67.9333 89.3651 68.4637C89.5852 68.9942 89.643 69.578 89.5313 70.1413C89.4195 70.7046 89.1432 71.2221 88.7373 71.6284C88.3314 72.0347 87.8142 72.3114 87.251 72.4237C86.6878 72.536 86.1039 72.4787 85.5733 72.2592C85.0426 72.0396 84.589 71.6676 84.2698 71.1902C83.9505 70.7128 83.78 70.1515 83.7799 69.5772C83.7799 68.8074 84.0855 68.0691 84.6296 67.5245C85.1736 66.9799 85.9117 66.6736 86.6815 66.6729Z" fill="#010101"/>
</svg>
