<svg width="200" height="200" viewBox="0 0 200 200" fill="none" xmlns="http://www.w3.org/2000/svg">
<g clip-path="url(#clip0_106_6061)">
<path d="M100 200C119.778 200 139.112 194.135 155.557 183.147C172.002 172.159 184.819 156.541 192.388 138.268C199.957 119.996 201.937 99.8891 198.078 80.491C194.22 61.0929 184.696 43.2746 170.711 29.2894C156.725 15.3041 138.907 5.78004 119.509 1.92152C100.111 -1.937 80.0042 0.0433282 61.7316 7.61209C43.459 15.1809 27.8412 27.9981 16.853 44.443C5.8649 60.8879 0 80.2219 0 100C0.00156312 126.521 10.5377 151.956 29.291 170.709C48.0443 189.462 73.4788 199.998 100 200Z" fill="#FCB514"/>
<path d="M99.9997 196.289C119.044 196.289 137.66 190.641 153.495 180.061C169.33 169.481 181.671 154.442 188.959 136.848C196.247 119.253 198.154 99.893 194.438 81.2148C190.723 62.5366 181.552 45.3796 168.086 31.9133C154.62 18.4471 137.463 9.27647 118.785 5.56114C100.107 1.84582 80.7461 3.75266 63.1516 11.0405C45.5571 18.3284 30.5189 30.67 19.9385 46.5046C9.35818 62.3392 3.71094 80.9557 3.71094 99.9998C3.7151 125.536 13.8611 150.025 31.9179 168.082C49.9746 186.138 74.4636 196.284 99.9997 196.289Z" fill="#111111"/>
<path d="M94.5543 181.767C96.3696 181.888 98.1445 181.969 100 181.969C101.815 181.969 103.631 181.888 105.405 181.767V155.426H94.5543V181.767ZM137.314 145.018L153.973 161.678C156.707 159.294 159.268 156.72 161.638 153.973L145.099 137.434L137.314 145.018ZM140.339 100L145.946 105.405H181.767C181.888 103.631 182.009 101.815 182.009 100C182.009 98.1445 181.888 96.3292 181.807 94.5543H145.946L140.339 100ZM60.9118 94.5543H18.1929C18.0719 96.3292 17.9912 98.1445 17.9912 100C17.9912 101.815 18.0719 103.631 18.1929 105.405H60.9117L60.9118 94.5543ZM46.0267 161.678L54.0138 153.651V138.282L38.322 153.973C40.7055 156.72 43.2802 159.295 46.0267 161.678ZM54.0138 46.3091L45.9864 38.322C43.263 40.7025 40.7025 43.263 38.322 45.9864L54.0138 61.6782V46.3091ZM105.405 18.1929C103.631 18.0719 101.815 17.9912 100 17.9912C98.1445 17.9912 96.3696 18.0719 94.5543 18.1929V44.5342H105.405V18.1929ZM161.678 45.9864C159.284 43.2626 156.71 40.7021 153.973 38.322L137.314 54.9819L145.099 62.5656L161.678 45.9864Z" fill="#FCB514"/>
<path d="M65.1071 129.487L58.209 136.184V151.23H124.889L141.792 134.812V107.22L134.329 99.9994L141.792 92.7386V65.187L124.889 48.729H58.209V63.7752L65.1071 70.5115V129.487Z" fill="#FCB514"/>
<path d="M145.986 90.0773H181.363C179.583 75.2516 173.764 61.1999 164.542 49.4561L145.986 68.0119V90.0773ZM90.0761 44.5347V18.6372C75.2505 20.4174 61.1988 26.2362 49.4549 35.4585L58.5715 44.5751H90.0761V44.5347ZM145.986 109.884V131.989L164.542 150.505C173.777 138.769 179.598 124.713 181.363 109.884L145.986 109.884ZM134.086 51.8764L150.504 35.4585C138.76 26.2362 124.708 20.4174 109.882 18.6372V44.5751H126.583L134.086 51.8764ZM60.9112 74.9099L35.4574 49.4561C26.2337 61.2032 20.4024 75.2514 18.5957 90.0773H60.9112V74.9099ZM60.9112 125.051V109.884H18.5957C20.3931 124.712 26.2255 138.763 35.4574 150.505L60.9112 125.051ZM126.583 155.426H109.883V181.364C124.722 179.592 138.789 173.772 150.544 164.543L134.126 148.125L126.583 155.426ZM90.0761 155.426H58.5715L49.4549 164.543C61.1955 173.771 75.2488 179.59 90.0761 181.364V155.426Z" fill="white"/>
<path d="M61.6787 137.677V147.761H123.518L138.322 133.319V108.713L129.367 99.9997L138.322 91.2861V66.6391L123.477 52.2383H61.6787V62.2827L68.6168 69.019V130.939L61.6787 137.677Z" fill="#111111"/>
<path d="M122.428 86.1641V73.2557L115.651 66.6401H83.3799V92.7797H115.611L122.428 86.1641ZM122.428 126.745V113.796L115.651 107.181H83.3799V133.32H115.611L122.428 126.745Z" fill="#FCB514"/>
<path d="M118.959 115.289L114.239 110.691H86.8896V129.852H114.239L118.959 125.253V115.289ZM118.959 74.7085L114.239 70.1099H86.8896V89.3111H114.239L118.959 84.7125V74.7085Z" fill="#111111"/>
<path d="M114.764 123.478V117.024L112.505 114.886H91.085V125.656H112.505L114.764 123.478ZM114.764 82.9372V76.483L112.505 74.3047H91.085V85.1155H112.505L114.764 82.9372Z" fill="white"/>
</g>
<defs>
<clipPath id="clip0_106_6061">
<rect width="200" height="200" fill="white"/>
</clipPath>
</defs>
</svg>
