<svg width="200" height="200" viewBox="0 0 200 200" fill="none" xmlns="http://www.w3.org/2000/svg">
<g clip-path="url(#clip0_106_6127)">
<path d="M95.3688 0.042614C94.7486 0.0826259 93.6483 0.16265 92.9181 0.212665C92.1879 0.26268 90.8775 0.382715 90.0072 0.472742C89.137 0.562769 87.8466 0.712814 87.1464 0.802841C86.4361 0.892867 85.1458 1.07292 84.2755 1.21296C83.4052 1.353 81.6647 1.6731 80.4144 1.91317C79.154 2.16325 77.0233 2.64339 75.6729 2.98349C74.3325 3.32359 72.8121 3.72371 72.3119 3.86375C71.8118 4.0138 70.5214 4.41392 69.4511 4.75402C68.3708 5.09412 66.8403 5.61427 66.0401 5.90436C65.2398 6.18444 63.8194 6.73461 62.8791 7.10472C61.9488 7.48483 60.4484 8.10502 59.5581 8.50514C58.6679 8.89525 56.8373 9.76551 55.4869 10.4357C54.1365 11.1059 52.276 12.0862 51.3357 12.6064C50.3954 13.1365 49.2951 13.7667 48.885 14.0068C48.4748 14.2468 47.5746 14.807 46.8944 15.2371C46.2042 15.6673 45.0438 16.4275 44.3136 16.9076C43.5834 17.3978 42.7031 17.998 42.363 18.238C42.0229 18.4781 41.1827 19.0983 40.4925 19.5984C39.8023 20.1086 38.5319 21.0889 37.6716 21.7691C36.8014 22.4593 35.3409 23.6797 34.4306 24.4799C33.5104 25.2801 32.41 26.2704 31.9799 26.6706C31.5398 27.0707 30.4995 28.081 29.6592 28.9112C28.829 29.7315 27.5486 31.0519 26.8284 31.8221C26.1082 32.6023 24.9078 33.9427 24.1476 34.813C23.3974 35.6832 22.277 37.0336 21.6668 37.8039C21.0467 38.5841 20.1264 39.7745 19.6262 40.4647C19.1261 41.1549 18.3959 42.1552 18.0058 42.7053C17.6256 43.2555 16.8954 44.3358 16.3853 45.116C15.8851 45.8963 15.1849 46.9766 14.8448 47.5268C14.5047 48.0769 14.0846 48.7671 13.9145 49.0672C13.7345 49.3573 13.1643 50.3676 12.6342 51.3079C12.114 52.2482 11.1337 54.1087 10.4635 55.4591C9.79331 56.8095 8.92305 58.6401 8.53293 59.5303C8.13281 60.4206 7.51263 61.9211 7.13251 62.8513C6.7624 63.7916 6.21224 65.212 5.93215 66.0123C5.64207 66.8125 5.10191 68.423 4.7318 69.5833C4.36169 70.7537 3.87154 72.3742 3.64147 73.1944C3.42141 74.0247 3.03129 75.5351 2.78122 76.5654C2.53114 77.5957 2.15103 79.3162 1.94097 80.3866C1.7309 81.4569 1.46082 82.8973 1.35079 83.5875C1.24076 84.2677 1.07071 85.318 0.990682 85.9082C0.900655 86.5084 0.730604 87.8288 0.620572 88.8591C0.500536 89.8894 0.350491 91.4198 0.290473 92.2701C0.220452 93.1104 0.120423 94.6608 0.0704077 95.7111C0.00038683 96.9515 -0.0196191 98.8421 0.0203928 101.073C0.0403988 102.973 0.100417 105.114 0.150432 105.854C0.200446 106.584 0.320482 108.005 0.410509 109.005C0.500536 110.015 0.690593 111.716 0.830634 112.786C0.960673 113.857 1.19074 115.427 1.33078 116.277C1.47083 117.118 1.76091 118.728 1.99098 119.848C2.21105 120.969 2.62117 122.799 2.90125 123.92C3.18134 125.04 3.59146 126.61 3.82153 127.411C4.05159 128.211 4.48172 129.631 4.78181 130.562C5.0819 131.502 5.62206 133.092 5.98217 134.093C6.35228 135.103 7.04249 136.883 7.52263 138.044C8.01277 139.204 8.66297 140.745 8.99307 141.455C9.31316 142.155 10.0534 143.695 10.6336 144.856C11.2137 146.026 12.104 147.707 12.6041 148.597C13.0943 149.487 13.9445 150.948 14.4947 151.838C15.0349 152.728 15.9051 154.109 16.4253 154.909C16.9454 155.709 17.8257 156.999 18.3759 157.78C18.926 158.55 19.7363 159.65 20.1664 160.23C20.6065 160.801 21.3968 161.811 21.9169 162.471C22.4471 163.131 23.3073 164.182 23.8275 164.792C24.3576 165.412 25.2879 166.482 25.9081 167.162C26.5183 167.853 28.0187 169.403 29.2291 170.613C30.4395 171.824 32.14 173.454 33.0102 174.225C33.8705 175.005 35.1609 176.125 35.8711 176.715C36.5913 177.315 37.6716 178.196 38.2918 178.676C38.912 179.166 40.0823 180.056 40.9126 180.666C41.7328 181.267 43.4333 182.447 44.6837 183.277C45.9441 184.117 47.6246 185.188 48.4248 185.668C49.2251 186.148 50.6655 186.978 51.6258 187.508C52.5861 188.049 54.2866 188.939 55.4069 189.499C56.5272 190.059 58.1877 190.849 59.098 191.25C60.0183 191.65 61.3987 192.24 62.1789 192.56C62.9491 192.88 64.0395 193.31 64.5896 193.52C65.1298 193.72 66.3702 194.16 67.3305 194.501C68.2907 194.831 69.6912 195.291 70.4414 195.521C71.2016 195.751 72.3419 196.091 72.9821 196.271C73.6123 196.451 74.9627 196.811 75.973 197.061C76.9733 197.311 78.4138 197.652 79.164 197.812C79.9242 197.972 81.2646 198.232 82.1549 198.392C83.0451 198.562 84.5656 198.802 85.5259 198.942C86.4862 199.072 87.9366 199.262 88.7668 199.352C89.5871 199.442 90.9275 199.572 91.7577 199.642C92.578 199.712 94.0184 199.812 94.9487 199.872C95.889 199.932 98.1296 199.972 99.9402 199.972C101.741 199.972 104.081 199.932 105.132 199.872C106.182 199.812 107.803 199.692 108.743 199.602C109.683 199.512 110.933 199.382 111.524 199.312C112.124 199.242 113.284 199.092 114.104 198.982C114.925 198.862 116.155 198.682 116.845 198.562C117.525 198.452 118.936 198.182 119.956 197.982C120.986 197.772 122.917 197.331 124.237 196.991C125.568 196.661 127.488 196.131 128.519 195.831C129.549 195.521 130.949 195.091 131.63 194.861C132.32 194.621 133.57 194.18 134.42 193.87C135.261 193.57 136.641 193.03 137.491 192.69C138.332 192.35 139.772 191.74 140.692 191.33C141.603 190.93 143.383 190.089 144.634 189.469C145.894 188.839 147.574 187.969 148.375 187.518C149.175 187.068 150.575 186.258 151.486 185.708C152.406 185.158 153.726 184.338 154.436 183.877C155.147 183.417 156.287 182.657 156.977 182.177C157.657 181.697 158.878 180.817 159.668 180.226C160.468 179.626 161.649 178.726 162.289 178.226C162.929 177.726 163.829 176.985 164.279 176.605C164.739 176.215 165.68 175.405 166.36 174.805C167.05 174.205 168.301 173.034 169.141 172.214C169.991 171.394 171.351 170.033 172.172 169.193C172.992 168.353 174.072 167.192 174.582 166.622C175.093 166.052 175.913 165.102 176.423 164.502C176.923 163.911 177.743 162.901 178.254 162.261C178.754 161.621 179.654 160.44 180.254 159.64C180.844 158.85 181.725 157.63 182.205 156.949C182.685 156.259 183.445 155.119 183.905 154.409C184.365 153.698 185.186 152.378 185.736 151.458C186.286 150.547 187.096 149.147 187.546 148.347C187.996 147.547 188.867 145.866 189.497 144.606C190.117 143.355 190.957 141.575 191.357 140.665C191.768 139.744 192.378 138.304 192.718 137.464C193.058 136.613 193.598 135.233 193.898 134.393C194.208 133.542 194.648 132.292 194.888 131.602C195.119 130.922 195.549 129.521 195.859 128.491C196.159 127.461 196.679 125.54 197.019 124.21C197.359 122.889 197.799 120.959 198.009 119.928C198.209 118.908 198.48 117.498 198.59 116.817C198.71 116.127 198.89 114.897 199.01 114.077C199.12 113.256 199.27 112.096 199.34 111.496C199.41 110.906 199.54 109.655 199.63 108.715C199.72 107.775 199.84 106.154 199.9 105.104C199.96 104.054 200 101.713 200 99.9124C200 98.1018 199.96 95.8612 199.9 94.9209C199.84 93.9906 199.74 92.5502 199.67 91.7299C199.6 90.8997 199.47 89.5593 199.38 88.739C199.29 87.9088 199.1 86.4584 198.97 85.4981C198.83 84.5378 198.59 83.0173 198.42 82.1271C198.259 81.2368 197.999 79.8964 197.839 79.1362C197.679 78.386 197.339 76.9455 197.089 75.9452C196.839 74.9349 196.479 73.5845 196.299 72.9543C196.119 72.3142 195.779 71.1738 195.549 70.4136C195.319 69.6634 194.858 68.2629 194.528 67.3027C194.188 66.3424 193.748 65.102 193.548 64.5618C193.338 64.0117 192.908 62.9214 192.588 62.1511C192.268 61.3709 191.678 59.9905 191.277 59.0702C190.877 58.1599 190.087 56.4994 189.527 55.3791C188.967 54.2588 188.076 52.5583 187.536 51.598C187.006 50.6377 186.176 49.1973 185.696 48.397C185.216 47.5968 184.145 45.9163 183.305 44.6559C182.475 43.4055 181.294 41.705 180.694 40.8848C180.084 40.0545 179.194 38.8842 178.704 38.264C178.224 37.6438 177.343 36.5635 176.743 35.8433C176.153 35.1331 175.033 33.8427 174.252 32.9824C173.482 32.1122 171.852 30.4117 170.641 29.2013C169.431 27.9909 167.88 26.4905 167.19 25.8803C166.51 25.2601 165.44 24.3299 164.82 23.7997C164.209 23.2795 163.159 22.4193 162.499 21.8891C161.839 21.369 160.828 20.5787 160.258 20.1386C159.678 19.7085 158.578 18.8982 157.807 18.3481C157.027 17.7979 155.737 16.9176 154.937 16.3975C154.136 15.8773 152.756 15.0071 151.866 14.4669C150.975 13.9167 149.515 13.0665 148.625 12.5763C147.734 12.0762 146.054 11.1859 144.884 10.6058C143.723 10.0256 142.183 9.28537 141.483 8.96527C140.772 8.63518 139.232 7.98498 138.072 7.49484C136.911 7.01469 135.131 6.32449 134.12 5.95438C133.12 5.59427 131.53 5.05411 130.589 4.75402C129.659 4.45393 128.239 4.0238 127.438 3.79373C126.638 3.56366 125.068 3.15354 123.947 2.87346C122.827 2.59337 120.996 2.18325 119.876 1.96319C118.756 1.73312 117.145 1.44303 116.305 1.30299C115.455 1.16295 113.884 0.932879 112.814 0.802841C111.744 0.662799 110.043 0.472742 109.033 0.382715C108.033 0.292689 106.612 0.172653 105.882 0.122638C105.142 0.0726229 102.731 0.022608 100.52 0.00260207C98.2997 -0.00740091 95.989 0.0126051 95.3688 0.042614Z" fill="#FFB81C"/>
<path d="M96.5691 5.86491C95.7488 5.89492 94.4084 5.96494 93.5782 6.02495C92.758 6.07497 91.1875 6.21501 90.0872 6.32504C88.9968 6.44508 87.3463 6.64514 86.4361 6.78518C85.5258 6.91522 84.0454 7.16529 83.1551 7.32534C82.2648 7.48539 80.8444 7.76547 79.9942 7.94553C79.1539 8.12558 77.7135 8.46568 76.8032 8.69575C75.8829 8.93582 74.2724 9.37595 73.2221 9.68605C72.1718 10.0061 70.5513 10.5163 69.6111 10.8364C68.6708 11.1465 67.3104 11.6366 66.5802 11.9067C65.8499 12.1868 64.5395 12.7069 63.6693 13.0671C62.799 13.4372 61.3786 14.0573 60.5183 14.4575C59.6481 14.8576 58.2777 15.5178 57.4874 15.9179C56.6872 16.318 55.2268 17.0883 54.2465 17.6384C53.2562 18.1886 51.8558 18.9988 51.1255 19.449C50.3953 19.8891 49.165 20.6693 48.3847 21.1795C47.6045 21.6796 46.3341 22.5399 45.5639 23.09C44.7837 23.6402 43.5133 24.5805 42.733 25.1707C41.9628 25.7608 40.6524 26.8112 39.8322 27.5014C39.0019 28.1816 37.6815 29.3219 36.8813 30.0321C36.0811 30.7423 34.5306 32.2228 33.4303 33.3231C32.3299 34.4134 30.7795 36.0439 29.9792 36.9342C29.179 37.8244 27.9987 39.1948 27.3585 39.9651C26.7183 40.7453 25.708 42.0157 25.1178 42.7959C24.5176 43.5661 23.6073 44.8065 23.0872 45.5367C22.567 46.267 21.6868 47.5573 21.1366 48.3976C20.5864 49.2478 19.7162 50.6282 19.206 51.4785C18.7059 52.3188 17.9257 53.6592 17.4855 54.4394C17.0454 55.2296 16.3052 56.65 15.825 57.6003C15.3549 58.5506 14.6547 60.001 14.2846 60.8213C13.9045 61.6415 13.3043 63.0219 12.9542 63.8922C12.5941 64.7625 12.0639 66.0929 11.7838 66.8431C11.5037 67.5933 10.9936 69.0137 10.6635 70.004C10.3234 70.9843 9.84324 72.4748 9.59317 73.325C9.3431 74.1653 8.93297 75.6857 8.6829 76.686C8.43282 77.6963 8.07272 79.2068 7.88266 80.057C7.6926 80.8973 7.41252 82.2977 7.25247 83.1679C7.09242 84.0382 6.85235 85.5286 6.72231 86.4889C6.58227 87.4492 6.39222 88.9497 6.30219 89.8199C6.21216 90.6802 6.06212 92.3507 5.97209 93.511C5.88206 94.6814 5.79204 96.922 5.76203 98.4925C5.72202 100.283 5.74202 102.164 5.80204 103.484C5.85205 104.644 5.95208 106.315 6.02211 107.175C6.09213 108.045 6.22216 109.466 6.31219 110.336C6.40222 111.206 6.59227 112.697 6.73232 113.657C6.87236 114.617 7.13244 116.188 7.31249 117.148C7.49254 118.108 7.83264 119.739 8.06271 120.759C8.29278 121.789 8.7029 123.46 8.97298 124.46C9.24306 125.471 9.6932 127.021 9.97328 127.911C10.2534 128.802 10.7335 130.262 11.0436 131.152C11.3537 132.043 11.8839 133.483 12.224 134.343C12.5741 135.213 13.2042 136.744 13.6444 137.754C14.0745 138.755 14.7547 140.255 15.1648 141.075C15.5649 141.895 16.2752 143.306 16.7553 144.196C17.2354 145.086 17.9957 146.467 18.4558 147.267C18.9159 148.067 19.6662 149.318 20.1163 150.048C20.5764 150.778 21.4167 152.068 21.9969 152.919C22.567 153.759 23.5273 155.109 24.1175 155.91C24.7077 156.71 25.718 158.01 26.3582 158.81C26.9984 159.611 27.9887 160.811 28.5588 161.471C29.129 162.131 30.1993 163.332 30.9395 164.132C31.6798 164.932 33.1802 166.463 34.2705 167.533C35.3609 168.603 36.9313 170.054 37.7516 170.764C38.5718 171.474 39.8422 172.555 40.5724 173.155C41.3026 173.755 42.563 174.725 43.3632 175.325C44.1535 175.916 45.4339 176.826 46.1841 177.356C46.9343 177.886 48.2247 178.746 49.0449 179.267C49.8752 179.797 51.1656 180.587 51.9158 181.037C52.666 181.477 54.0864 182.287 55.0767 182.828C56.057 183.358 57.4174 184.078 58.1076 184.428C58.7878 184.768 60.0782 185.378 60.9685 185.779C61.8587 186.179 63.2692 186.779 64.0894 187.119C64.9097 187.459 66.4201 188.049 67.4504 188.429C68.4807 188.809 70.0112 189.34 70.8614 189.62C71.7017 189.9 73.0521 190.31 73.8523 190.54C74.6526 190.77 76.143 191.17 77.1733 191.42C78.2036 191.68 79.8441 192.06 80.8244 192.26C81.8147 192.461 83.3952 192.751 84.3554 192.911C85.3157 193.071 86.8362 193.301 87.7265 193.411C88.6167 193.531 90.1272 193.701 91.0875 193.791C92.0477 193.881 93.7583 194.011 94.8886 194.081C96.0189 194.151 98.2096 194.211 99.75 194.211C101.291 194.211 103.581 194.151 104.842 194.081C106.092 194.021 107.742 193.901 108.493 193.831C109.253 193.761 110.353 193.651 110.943 193.581C111.544 193.511 112.564 193.381 113.234 193.281C113.894 193.191 115.275 192.971 116.305 192.781C117.335 192.601 118.786 192.32 119.546 192.16C120.296 192 121.817 191.65 122.907 191.37C124.007 191.1 125.538 190.69 126.318 190.46C127.088 190.23 128.479 189.8 129.389 189.5C130.299 189.2 131.69 188.719 132.46 188.429C133.24 188.139 134.44 187.689 135.121 187.409C135.811 187.139 136.801 186.729 137.321 186.499C137.851 186.269 138.862 185.809 139.562 185.478C140.272 185.148 141.412 184.598 142.103 184.258C142.783 183.918 143.873 183.348 144.513 183.008C145.154 182.668 146.294 182.027 147.044 181.597C147.794 181.157 149.065 180.397 149.865 179.897C150.665 179.387 151.976 178.536 152.776 178.006C153.576 177.476 155.277 176.246 156.557 175.285C157.837 174.325 159.458 173.055 160.168 172.465C160.878 171.874 161.999 170.904 162.659 170.314C163.329 169.734 165.09 168.033 166.57 166.543C168.06 165.062 169.781 163.262 170.401 162.552C171.011 161.841 171.932 160.781 172.432 160.181C172.932 159.581 173.772 158.53 174.302 157.85C174.832 157.17 175.653 156.09 176.123 155.449C176.583 154.809 177.403 153.629 177.943 152.829C178.484 152.028 179.334 150.728 179.834 149.928C180.334 149.128 181.024 147.987 181.374 147.387C181.714 146.797 182.365 145.637 182.815 144.816C183.255 143.996 184.005 142.556 184.465 141.615C184.925 140.675 185.566 139.335 185.876 138.624C186.186 137.914 186.676 136.774 186.966 136.094C187.246 135.404 187.776 134.083 188.126 133.143C188.476 132.203 189.027 130.672 189.337 129.732C189.647 128.802 190.147 127.191 190.437 126.161C190.737 125.13 191.187 123.45 191.437 122.43C191.697 121.399 192.108 119.529 192.358 118.268C192.608 117.018 192.948 115.087 193.108 113.997C193.268 112.897 193.468 111.306 193.558 110.466C193.658 109.616 193.788 108.255 193.858 107.425C193.928 106.605 194.028 104.984 194.078 103.814C194.138 102.534 194.148 100.543 194.118 98.7926C194.098 97.1921 194.028 95.2115 193.988 94.3813C193.938 93.561 193.828 92.1006 193.728 91.1403C193.638 90.19 193.468 88.6696 193.358 87.7793C193.238 86.8891 193.018 85.3886 192.858 84.4583C192.688 83.518 192.378 81.8776 192.158 80.7972C191.938 79.7269 191.567 78.0864 191.327 77.1462C191.097 76.2059 190.697 74.7354 190.447 73.8652C190.187 72.9949 189.747 71.5545 189.457 70.6642C189.167 69.774 188.697 68.3935 188.396 67.5933C188.096 66.7931 187.556 65.3926 187.186 64.4724C186.826 63.5621 186.186 62.0817 185.776 61.1914C185.366 60.3011 184.635 58.7707 184.145 57.7904C183.645 56.8101 182.905 55.3797 182.495 54.6294C182.085 53.8792 181.334 52.5688 180.834 51.7186C180.334 50.8783 179.224 49.1378 178.373 47.8574C177.523 46.577 176.283 44.8065 175.623 43.9162C174.952 43.026 173.932 41.6956 173.342 40.9654C172.752 40.2352 171.782 39.0748 171.191 38.3846C170.591 37.7044 169.711 36.7141 169.231 36.1839C168.751 35.6638 167.81 34.6735 167.15 33.9933C166.49 33.3131 165.18 32.0427 164.239 31.1624C163.309 30.2922 161.999 29.1118 161.338 28.5417C160.668 27.9815 159.508 27.0212 158.758 26.421C158.007 25.8209 156.737 24.8406 155.937 24.2504C155.137 23.6602 153.826 22.7199 153.026 22.1798C152.226 21.6396 151.015 20.8394 150.325 20.4092C149.645 19.9891 148.335 19.1989 147.414 18.6587C146.504 18.1186 145.144 17.3483 144.383 16.9482C143.633 16.5481 142.193 15.8179 141.182 15.3277C140.182 14.8476 138.632 14.1274 137.741 13.7272C136.851 13.3371 135.391 12.737 134.5 12.3869C133.61 12.0267 132.06 11.4566 131.049 11.0965C130.049 10.7464 128.479 10.2262 127.558 9.94612C126.648 9.66604 125.138 9.23591 124.197 8.98584C123.257 8.74577 121.667 8.35565 120.666 8.12558C119.656 7.89551 118.126 7.56541 117.255 7.40537C116.395 7.24532 114.935 7.00525 114.024 6.8652C113.104 6.72516 111.534 6.5151 110.533 6.40507C109.523 6.29503 107.972 6.14499 107.082 6.07497C106.192 6.00495 104.491 5.90492 103.301 5.86491C102.111 5.81489 100.45 5.78488 99.6 5.79489C98.7597 5.79489 97.3993 5.8349 96.5691 5.86491Z" fill="#003087"/>
<path d="M108.562 15.0963C108.572 15.1363 108.662 15.2164 108.762 15.2764C108.862 15.3364 109.433 15.5965 110.033 15.8466C110.623 16.1066 111.783 16.5768 112.604 16.8969C113.434 17.217 114.704 17.7071 115.434 17.9772C116.165 18.2573 117.695 18.8174 118.835 19.2376C119.976 19.6577 122.397 20.518 124.197 21.1581C125.998 21.7983 129.649 23.0487 132.299 23.939C134.95 24.8292 138.331 25.9296 139.812 26.3897C141.302 26.8498 143.263 27.42 144.173 27.6701C145.093 27.9202 146.284 28.2303 146.834 28.3403C147.384 28.4603 148.134 28.5603 148.514 28.5704C148.884 28.5804 149.225 28.5503 149.255 28.5203C149.295 28.4803 149.255 28.3503 149.154 28.2302C149.054 28.1002 148.564 27.7901 147.994 27.5C147.444 27.23 146.234 26.6998 145.303 26.3297C144.363 25.9496 142.683 25.3194 141.562 24.9293C140.442 24.5291 138.081 23.7189 136.331 23.1387C134.57 22.5486 131.579 21.5883 129.679 20.9881C127.788 20.3979 124.907 19.5177 123.287 19.0275C121.656 18.5474 119.246 17.8372 117.925 17.447C116.595 17.0669 114.614 16.5168 113.524 16.2167C112.424 15.9166 111.043 15.5565 110.443 15.4064C109.853 15.2664 109.183 15.1163 108.953 15.0863C108.732 15.0563 108.552 15.0563 108.562 15.0963ZM83.0748 16.0366C82.5046 16.1066 81.6544 16.2167 81.2042 16.2867C80.7441 16.3567 79.7738 16.5468 79.0436 16.7168C78.3134 16.8769 77.193 17.177 76.5529 17.387C75.9127 17.5871 74.9224 17.9472 74.3522 18.1673C73.772 18.3873 72.6517 18.8975 71.8514 19.3076C71.0512 19.7077 69.8308 20.3879 69.1306 20.818C68.4304 21.2482 67.3001 22.0184 66.6299 22.5185C65.9597 23.0187 64.8994 23.869 64.2892 24.3991C63.679 24.9293 62.4987 26.0496 61.6784 26.8899C60.8482 27.7301 59.8579 28.7904 59.4678 29.2506C59.0776 29.7007 58.4174 30.5109 58.0073 31.0311C57.5972 31.5612 56.927 32.4615 56.5269 33.0317C56.1168 33.6019 55.5966 34.3321 55.3565 34.6522C55.1265 34.9723 54.8064 35.3524 54.6463 35.5024C54.4963 35.6525 54.1762 35.8725 53.9561 35.9726C53.716 36.0926 52.6857 36.3627 51.5854 36.5927C50.5051 36.8228 48.9346 37.2029 48.0944 37.423C47.2441 37.6531 46.0538 38.0132 45.4336 38.2232C44.8234 38.4333 43.7931 38.8534 43.1529 39.1435C42.5127 39.4336 41.5924 39.9037 41.1123 40.1738C40.6321 40.4539 39.9019 40.924 39.4918 41.2341C39.0817 41.5442 38.3915 42.1444 37.9513 42.5845C37.5212 43.0147 36.921 43.7049 36.6209 44.115C36.3309 44.5351 35.8807 45.2753 35.6307 45.7855C35.3706 46.2856 35.0305 47.1259 34.8604 47.646C34.6904 48.1762 34.4803 48.9764 34.3903 49.4366C34.3003 49.8967 34.1802 50.717 34.1302 51.2671C34.0702 51.9073 34.0502 52.8876 34.0802 54.0079C34.1102 54.9882 34.2002 56.3186 34.3003 57.0588C34.3903 57.7791 34.5603 58.8094 34.6704 59.3395C34.7904 59.8797 34.9805 60.6399 35.0905 61.03C35.2105 61.4101 35.4306 61.9903 35.5806 62.3104C35.7307 62.6305 36.0308 63.1207 36.2308 63.3907C36.4409 63.6708 36.851 64.1109 37.1411 64.381C37.4312 64.6511 37.9513 65.0812 38.2914 65.3413C38.6315 65.6014 39.4018 66.1415 39.992 66.5417C40.5921 66.9518 41.2423 67.4119 41.4424 67.582C41.7525 67.8321 41.9125 68.0921 42.4427 69.2125C42.7928 69.9427 43.343 70.933 43.663 71.4131C43.9931 71.9033 44.6433 72.6935 45.1535 73.2337C45.6536 73.7438 46.3238 74.364 46.6439 74.6041C46.964 74.8441 47.6142 75.2743 48.0944 75.5744C48.5745 75.8644 49.2047 76.3346 49.4948 76.6047C49.7849 76.8748 50.365 77.5349 50.7752 78.0551C51.1853 78.5853 51.6754 79.1754 51.8655 79.3755C52.0555 79.5756 52.3656 79.8456 52.5557 79.9757C52.7558 80.1057 53.1459 80.2758 53.436 80.3558C53.7761 80.4358 54.0762 80.4658 54.3262 80.4258C54.5263 80.3958 54.9064 80.2758 55.1565 80.1657C55.5266 79.9957 55.8967 79.6756 57.1871 78.3552C58.6875 76.8347 58.8076 76.7247 59.4778 76.4146C59.8679 76.2246 60.4681 76.0145 60.8282 75.9445C61.1783 75.8745 61.6884 75.8144 61.9485 75.8144C62.2086 75.8144 62.5087 75.8344 62.6087 75.8544C62.7887 75.8945 62.7687 75.9345 62.3286 76.4146C62.0685 76.7047 61.6584 77.1748 61.4283 77.4749C61.1883 77.775 60.8082 78.3152 60.5881 78.6853C60.358 79.0454 60.128 79.5355 60.0679 79.7656C59.9779 80.0757 59.9779 80.2257 60.0479 80.3658C60.118 80.5058 60.218 80.5458 60.428 80.5458C60.5881 80.5458 61.1383 80.4558 61.6584 80.3358C62.2486 80.1957 62.8588 80.1057 63.2989 80.1057C63.689 80.0957 64.5493 80.1857 65.2095 80.2858C65.8797 80.3958 66.7999 80.4858 67.2901 80.4858C67.7702 80.4958 68.3804 80.4458 68.6605 80.3958C68.9306 80.3358 69.4007 80.2157 69.6908 80.1157C69.9909 80.0257 70.5511 79.7856 70.9412 79.5956C71.3313 79.3955 71.9215 79.0454 72.2516 78.8153C72.5817 78.5853 73.1218 78.1351 73.4419 77.825C73.9421 77.3549 74.0121 77.2649 73.8821 77.2149C73.792 77.1848 73.4819 77.1248 73.1818 77.0648C72.8718 77.0148 72.3116 76.8047 71.8514 76.5847C71.2113 76.2646 70.9412 76.0745 70.391 75.5243C69.8709 75.0042 69.6508 74.7141 69.3807 74.1539C69.1907 73.7638 68.9706 73.2237 68.9006 72.9536C68.8305 72.6735 68.7705 72.1533 68.7705 71.7832C68.7705 71.4231 68.8105 70.933 68.8606 70.7029C68.9206 70.4728 69.0606 70.0827 69.1807 69.8326C69.3007 69.5826 69.6308 69.1524 69.9009 68.8724C70.271 68.4923 70.5311 68.3222 70.9012 68.1822C71.1712 68.0821 71.6214 67.9721 71.9015 67.9521C72.1715 67.9221 72.6017 67.9421 72.8517 67.9921C73.1018 68.0421 73.532 68.2022 73.812 68.3322C74.0821 68.4722 74.5222 68.7623 74.7823 68.9824C75.0424 69.1925 75.4225 69.6026 75.6426 69.8727C75.8526 70.1527 76.1927 70.7129 76.3928 71.123C76.5929 71.5332 76.8529 72.2434 76.973 72.7035C77.163 73.4137 77.193 73.7138 77.203 74.8141C77.213 75.7844 77.173 76.2846 77.063 76.8147C76.973 77.2049 76.8129 77.815 76.7029 78.1851C76.5829 78.5452 76.3228 79.2054 76.1227 79.6356C75.9127 80.0757 75.5526 80.7259 75.3025 81.086C75.0624 81.4561 74.5623 82.0963 74.2022 82.5064L73.5319 83.2466C73.782 83.7968 74.0121 84.1169 74.2022 84.317C74.3922 84.507 74.7623 84.7871 75.0124 84.9271C75.2625 85.0772 75.7726 85.2772 76.1327 85.3673C76.5028 85.4573 77.2631 85.5973 77.8332 85.6574C78.4034 85.7274 79.1736 85.8274 79.5437 85.8774C79.9038 85.9174 80.484 86.0375 80.8241 86.1175C81.1742 86.2075 81.7344 86.3876 82.0745 86.5376C82.4146 86.6777 82.9448 86.9277 83.2348 87.0878C83.5349 87.2578 84.0551 87.5779 84.4052 87.808C84.7453 88.0381 85.2655 88.4082 85.5655 88.6282L86.1057 89.0484C87.7762 88.7683 88.5964 88.6583 89.0166 88.6082C89.4267 88.5682 90.327 88.5282 91.0272 88.5282H92.2975C92.2975 88.1681 92.2375 87.738 92.1675 87.3179C92.0975 86.9077 91.9074 86.1975 91.7574 85.7474C91.6073 85.2873 91.3473 84.6271 91.1672 84.287C90.9972 83.9469 90.6671 83.3667 90.427 82.9966C90.1869 82.6365 89.7468 82.0463 89.4367 81.6962C89.1366 81.3361 88.7965 80.996 88.6765 80.926C88.4864 80.8159 88.4264 80.8159 88.0163 80.966C87.7662 81.056 87.266 81.2761 86.9159 81.4561C86.5558 81.6362 86.1557 81.8662 86.0157 81.9563C85.8856 82.0563 85.7056 82.1263 85.6256 82.1263C85.5455 82.1263 85.2154 81.9563 84.8953 81.7362C84.5852 81.5161 84.1651 81.156 83.9751 80.926C83.785 80.6959 83.5249 80.2858 83.3949 80.0057C83.2648 79.7356 83.1148 79.2655 83.0648 78.9754C82.9848 78.5352 82.9848 78.3252 83.0748 77.8951C83.1348 77.595 83.2949 77.1248 83.4249 76.8547C83.5649 76.5747 83.785 76.1845 83.9251 75.9845C84.0651 75.7744 84.4252 75.3543 84.7253 75.0342C85.0254 74.7241 85.4555 74.324 85.6856 74.1539C85.9156 73.9839 86.2858 73.7538 86.4958 73.6238L86.8959 73.4037C86.6058 72.9936 86.2958 72.6535 86.0157 72.3834C85.7456 72.1133 85.1854 71.6332 84.7753 71.3331C84.3652 71.023 83.765 70.6029 83.4449 70.4028C83.1248 70.1928 82.5746 69.8727 82.2245 69.6826C81.8644 69.4925 81.5844 69.3125 81.5944 69.2925C81.6044 69.2625 81.9945 69.2825 82.4446 69.3325C82.9047 69.3725 83.765 69.5126 84.3552 69.6226C84.9554 69.7426 85.8356 69.9527 86.3158 70.0927C86.7959 70.2328 87.6362 70.5329 88.1763 70.7529C88.7265 70.983 89.5667 71.3931 90.0469 71.6632C90.527 71.9333 91.2172 72.3834 91.5873 72.6635C91.9574 72.9336 92.5976 73.5037 93.0278 73.9239C93.4479 74.344 94.0281 75.0142 94.2981 75.4043C94.5782 75.7844 94.9783 76.4846 95.1984 76.9348C95.4185 77.3949 95.6785 78.0451 95.7886 78.3952C95.8886 78.7353 96.0187 79.3155 96.0887 79.6756C96.1487 80.0457 96.1987 80.8659 96.1987 81.5061C96.1987 82.1463 96.1587 83.0466 96.1187 83.4967C96.0687 83.9569 95.9486 84.7571 95.8586 85.2873C95.7686 85.8074 95.5785 86.6877 95.4385 87.2378L95.1784 88.2381C95.4885 88.7983 95.7786 89.1584 96.0287 89.3985C96.2787 89.6386 96.7089 89.9386 96.9889 90.0687C97.4291 90.2687 97.6091 90.2987 98.5194 90.3288C99.3797 90.3588 99.7798 90.3288 100.77 90.1487C101.43 90.0387 102.271 89.8786 102.641 89.8086C103.011 89.7386 104.001 89.6586 104.881 89.6386C106.132 89.5985 106.662 89.6185 107.412 89.7286C107.942 89.8086 108.852 89.9987 109.453 90.1487L110.533 90.4288C111.563 89.9186 112.274 89.6285 112.774 89.4485C113.274 89.2684 114.154 89.0284 114.724 88.9083C115.294 88.7883 115.875 88.6883 116.015 88.6783C116.225 88.6583 116.255 88.6182 116.235 88.4482C116.225 88.3282 116.135 87.9881 116.035 87.698C115.945 87.3979 115.695 86.8177 115.484 86.4076C115.274 85.9975 114.854 85.3473 114.554 84.9572C114.244 84.567 113.744 83.9969 113.424 83.6968C113.114 83.3967 112.534 82.9165 112.153 82.6265C111.763 82.3464 111.333 82.0563 111.193 81.9863C110.963 81.8762 110.903 81.8862 110.403 82.0863C110.113 82.2063 109.623 82.4664 109.323 82.6665C109.033 82.8665 108.582 83.2466 108.332 83.5167C108.002 83.8768 107.762 84.0569 107.472 84.1469C107.262 84.2269 106.752 84.347 106.352 84.417C105.952 84.487 105.351 84.537 105.001 84.537C104.661 84.537 104.141 84.497 103.841 84.447C103.541 84.407 103.241 84.347 103.161 84.327C103.081 84.307 103.011 84.2369 103.011 84.1669C103.011 84.0969 103.121 83.7468 103.271 83.3967C103.411 83.0466 103.651 82.5264 103.821 82.2563C103.981 81.9763 104.281 81.5461 104.481 81.2961C104.681 81.046 105.131 80.5859 105.491 80.2858C105.842 79.9757 106.432 79.5255 106.802 79.2855C107.182 79.0454 107.492 78.8153 107.492 78.7853C107.492 78.7553 107.372 78.6853 107.232 78.6453C107.082 78.5953 106.672 78.3752 106.332 78.1551C105.992 77.9351 105.461 77.4749 105.151 77.1348C104.841 76.7947 104.581 76.4846 104.581 76.4346C104.591 76.3846 105.211 76.3646 106.332 76.3746C107.292 76.3846 108.132 76.3646 108.202 76.3346C108.292 76.2846 108.202 76.0945 107.782 75.4443C107.482 74.9842 106.942 74.0139 106.582 73.2837C106.222 72.5535 105.802 71.5932 105.642 71.163C105.481 70.7329 105.251 70.0327 105.131 69.6226C105.011 69.2125 104.851 68.5123 104.771 68.0721C104.691 67.632 104.651 67.2519 104.671 67.2219C104.691 67.1919 105.141 67.0418 105.672 66.8918C106.192 66.7317 107.042 66.5517 107.562 66.4716C108.072 66.4016 109.023 66.3416 109.683 66.3416C110.333 66.3416 111.203 66.4016 111.613 66.4616C112.023 66.5217 112.654 66.6517 113.024 66.7417C113.384 66.8418 114.134 67.0818 114.684 67.2819C115.234 67.482 115.965 67.782 116.305 67.9421C116.645 68.1021 117.675 68.5823 118.585 69.0224C119.506 69.4625 120.626 69.9527 121.076 70.1027C121.536 70.2628 122.206 70.4428 122.577 70.4929C122.987 70.5629 123.467 70.5729 123.827 70.5429C124.147 70.5129 124.667 70.4328 124.987 70.3628C125.307 70.2928 126.388 70.0027 127.398 69.7126C128.398 69.4125 129.639 69.0824 130.139 68.9724C130.639 68.8624 131.349 68.7223 131.719 68.6623C132.079 68.6023 132.87 68.5623 133.46 68.5623C134.15 68.5623 134.78 68.6223 135.2 68.7123C135.57 68.7823 136.211 68.9624 136.621 69.0924C137.031 69.2225 137.781 69.5126 138.281 69.7326C138.781 69.9527 139.602 70.3728 140.102 70.6629C140.612 70.953 141.392 71.4331 141.852 71.7432C142.312 72.0533 143.073 72.6035 143.553 72.9836C144.033 73.3537 144.703 73.9139 145.053 74.224L145.673 74.7941C149.024 74.8742 150.215 74.9342 150.495 74.9742C150.765 75.0142 151.185 75.0842 151.425 75.1242L151.865 75.1942C151.865 74.8341 151.755 74.314 151.625 73.8038C151.485 73.2837 151.225 72.4734 151.035 71.9933C150.845 71.5132 150.515 70.8029 150.305 70.4128C150.105 70.0227 149.735 69.4325 149.505 69.0924C149.275 68.7523 148.784 68.1622 148.414 67.772C148.044 67.3919 147.694 67.0618 147.624 67.0418C147.554 67.0218 147.164 67.1018 146.754 67.2219C146.344 67.3319 145.683 67.582 145.303 67.762C144.913 67.9421 144.563 68.0621 144.523 68.0321C144.493 67.9921 144.443 67.722 144.413 67.4219C144.383 67.0218 144.403 66.7617 144.523 66.4216L144.673 65.9515C143.003 65.1012 141.972 64.5011 141.312 64.0709L140.102 63.2807C139.202 63.3907 138.101 63.4708 137.071 63.5208C135.6 63.6008 134.74 63.6008 133 63.5208C131.789 63.4708 130.729 63.3907 130.639 63.3607C130.539 63.3207 130.509 63.2807 130.549 63.2507C130.599 63.2307 131.159 63.0406 131.799 62.8306C132.44 62.6205 133.58 62.3004 134.33 62.1204C135.09 61.9403 136.151 61.6902 136.701 61.5802C137.251 61.4602 138.311 61.2801 139.071 61.1601C139.822 61.04 140.922 60.89 141.522 60.81C142.152 60.7299 143.573 60.6599 144.963 60.6299C146.534 60.5999 147.614 60.6199 148.164 60.6899C148.884 60.7699 149.084 60.83 149.615 61.1301C149.965 61.3101 150.575 61.6902 150.995 61.9703C151.405 62.2404 152.015 62.6805 152.365 62.9406C152.706 63.2007 153.356 63.7408 153.806 64.151C154.266 64.5611 154.966 65.2613 155.376 65.7214C155.786 66.1816 156.347 66.8518 156.627 67.2119C156.897 67.582 157.127 67.8821 157.127 67.8921C157.137 67.8921 157.757 67.9621 158.507 68.0421C159.268 68.1121 160.518 68.3022 161.288 68.4622C162.068 68.6223 162.989 68.8324 163.349 68.9424C163.829 69.0824 163.999 69.1024 164.029 69.0224C164.059 68.9624 164.079 68.4422 164.079 67.8621C164.069 67.2819 164.019 66.4116 163.949 65.9315C163.879 65.4513 163.719 64.6411 163.579 64.141C163.449 63.6408 163.209 62.9106 163.039 62.5205C162.879 62.1304 162.598 61.5702 162.418 61.2801C162.238 60.98 161.988 60.6099 161.858 60.4599L161.628 60.1798C160.148 60.3798 159.438 60.5399 159.087 60.6499C158.747 60.7599 158.447 60.84 158.427 60.81C158.407 60.78 158.387 60.4599 158.387 60.0797C158.397 59.5696 158.437 59.3095 158.577 59.0094L158.757 58.6193C158.087 58.3292 157.517 58.0691 157.057 57.8391C156.597 57.619 155.967 57.2689 155.646 57.0588C155.326 56.8588 154.746 56.4387 154.356 56.1386C153.966 55.8385 153.296 55.2383 152.856 54.8182L152.065 54.0379C151.105 54.198 150.315 54.248 149.705 54.248C148.944 54.238 148.404 54.198 148.024 54.098C147.714 54.0279 147.284 53.8779 147.064 53.7679C146.844 53.6578 146.544 53.4578 146.384 53.3277C146.234 53.1977 146.034 52.9476 145.944 52.7576C145.834 52.5375 145.783 52.2574 145.783 51.9273C145.783 51.6572 145.894 50.947 146.034 50.3468C146.174 49.7567 146.344 48.9164 146.414 48.4763C146.494 48.0462 146.574 47.1659 146.594 46.5257C146.624 45.8455 146.604 44.9152 146.554 44.285C146.494 43.6949 146.374 42.7546 146.284 42.2044C146.194 41.6643 145.974 40.6339 145.793 39.9237C145.613 39.2135 145.463 38.6033 145.463 38.5733C145.463 38.5433 145.603 38.5333 145.773 38.5633C145.944 38.5833 146.554 38.6834 147.124 38.7734C147.694 38.8734 148.744 39.0935 149.455 39.2635C150.165 39.4436 151.175 39.7337 151.695 39.9137C152.225 40.0938 152.856 40.3138 153.106 40.4139C153.356 40.5139 153.936 40.774 154.396 40.984C154.856 41.1941 155.506 41.5342 155.846 41.7343C156.197 41.9443 156.677 42.2644 156.917 42.4545C157.157 42.6345 157.467 42.9546 157.597 43.1647C157.737 43.3648 157.847 43.6348 157.847 43.7449C157.847 43.8549 157.777 44.065 157.697 44.205C157.607 44.335 157.257 44.7152 156.897 45.0353C156.487 45.4054 156.187 45.7655 156.057 46.0256C155.937 46.2556 155.846 46.5257 155.846 46.6357C155.846 46.7358 155.906 46.9258 155.967 47.0459C156.027 47.1759 156.237 47.416 156.427 47.586C156.607 47.7561 156.977 48.0061 157.247 48.1362C157.507 48.2662 158.087 48.4963 158.527 48.6363C158.977 48.7764 159.758 48.9664 160.278 49.0665C160.788 49.1565 161.748 49.2665 162.418 49.3065C163.139 49.3566 164.029 49.3565 164.659 49.3165C165.229 49.2765 166 49.1765 166.36 49.0965C166.73 49.0264 167.27 48.8764 167.56 48.7564C167.86 48.6463 168.26 48.4663 168.46 48.3563C168.65 48.2362 168.8 48.1362 168.79 48.1062C168.78 48.0862 168.36 48.0162 167.86 47.9461C167.35 47.8861 166.49 47.7261 165.949 47.606C165.399 47.496 164.609 47.2759 164.199 47.1359C163.789 46.9958 163.239 46.7758 162.979 46.6457C162.709 46.5157 162.408 46.3156 162.288 46.1956C162.158 46.0656 162.078 45.8955 162.078 45.7155C162.078 45.5554 162.158 45.3454 162.268 45.2053C162.368 45.0753 162.789 44.7452 163.199 44.4651C163.619 44.195 164.059 43.8749 164.189 43.7549C164.319 43.6348 164.479 43.4348 164.539 43.3047C164.609 43.1847 164.659 42.9646 164.659 42.8346C164.659 42.6946 164.619 42.4845 164.569 42.3545C164.519 42.2244 164.379 42.0144 164.259 41.8843C164.139 41.7543 163.809 41.4942 163.539 41.3141C163.259 41.1241 162.629 40.774 162.118 40.5439C161.618 40.3038 160.818 39.9537 160.338 39.7637C159.858 39.5636 159.167 39.3035 158.797 39.1635C158.437 39.0235 155.466 37.9832 152.195 36.8428C148.924 35.6925 145.994 34.6722 145.673 34.5521C145.353 34.4421 143.573 33.8119 141.722 33.1517C139.872 32.5015 136.791 31.3912 134.87 30.701C132.95 30.0108 129.629 28.8104 127.478 28.0302C125.327 27.25 123.017 26.4197 122.327 26.1696C121.646 25.9296 119.266 25.0893 117.055 24.2991C114.834 23.5188 111.213 22.2385 108.993 21.4682C106.772 20.698 103.771 19.6677 102.301 19.1876C100.84 18.7074 98.8195 18.0772 97.8192 17.7771C96.8089 17.487 95.4285 17.1169 94.7483 16.9469C94.0581 16.7868 93.0078 16.5568 92.4176 16.4467C91.8274 16.3367 90.8671 16.1867 90.2969 16.1166C89.6167 16.0266 88.3864 15.9766 86.6859 15.9566C84.8353 15.9266 83.815 15.9566 83.0748 16.0366Z" fill="white"/>
<path d="M44.5638 42.5851C44.1536 42.6651 43.4834 42.8552 43.0633 43.0052C42.6532 43.1453 42.093 43.3653 41.8229 43.5054C41.5429 43.6354 40.9727 43.9655 40.5326 44.2456C40.0524 44.5657 39.4122 45.0858 38.8921 45.606C38.4319 46.0661 38.0618 46.4762 38.0818 46.5063C38.1118 46.5463 38.2119 46.5363 38.3119 46.4963C38.4119 46.4562 38.9821 46.3162 39.5823 46.1962C40.4925 45.9961 40.8627 45.9661 42.033 45.9561C43.1233 45.9561 43.5134 45.9861 43.9436 46.1061C44.2337 46.1862 44.6238 46.3262 44.7938 46.4162C44.9639 46.4963 45.254 46.7063 45.444 46.8864C45.6341 47.0564 45.8641 47.3465 45.9542 47.5266C46.0442 47.7066 46.1442 48.0667 46.1642 48.3168C46.1942 48.5769 46.1642 48.947 46.1042 49.1871C46.0442 49.4171 45.8141 50.0073 45.5941 50.4974C45.364 50.9976 45.1439 51.6378 45.0939 51.9479C45.0139 52.428 45.0139 52.5881 45.1339 52.9882C45.224 53.3183 45.374 53.5684 45.5841 53.7784C45.7541 53.9585 46.1142 54.1885 46.3943 54.2986C46.8044 54.4686 47.0245 54.4986 47.6747 54.4886C48.1148 54.4886 48.715 54.4186 49.0051 54.3386C49.3052 54.2686 49.8053 54.0785 50.1254 53.9285C50.4455 53.7684 50.9557 53.4583 51.2558 53.2283C51.5458 53.0082 51.966 52.5981 52.166 52.328C52.3761 52.0679 52.6462 51.6778 52.7662 51.4777C52.8862 51.2677 53.1063 50.7475 53.2564 50.3074C53.5064 49.5672 53.5264 49.4471 53.5264 48.3968C53.5164 47.4165 53.4964 47.1965 53.3064 46.6163C53.1863 46.2462 52.9463 45.726 52.7862 45.4459C52.6162 45.1759 52.3461 44.7857 52.176 44.5857C52.016 44.3756 51.6659 44.0455 51.4158 43.8455C51.1657 43.6554 50.6656 43.3453 50.2955 43.1653C49.9354 42.9852 49.3352 42.7551 48.9651 42.6551C48.4149 42.5051 48.0348 42.4651 46.8044 42.445C45.5741 42.425 45.1839 42.445 44.5638 42.5851Z" fill="#003087"/>
<path d="M177.203 60.0511C176.223 61.2014 174.402 63.242 173.172 64.5924C171.941 65.9428 169.731 68.3035 168.26 69.834C166.8 71.3644 164.129 74.0753 162.329 75.8558C160.518 77.6263 157.687 80.3771 156.017 81.9576C154.346 83.5381 151.725 85.9688 150.195 87.3692C148.665 88.7596 146.294 90.8903 144.923 92.1006C143.553 93.321 141.312 95.2816 139.942 96.4719C138.572 97.6523 136.211 99.6729 134.71 100.953C133.2 102.234 130.789 104.254 129.349 105.435C127.908 106.625 125.648 108.476 124.317 109.556C122.997 110.626 120.506 112.627 118.796 113.997C117.085 115.368 114.524 117.388 113.104 118.488C111.694 119.589 109.463 121.299 108.162 122.3C106.862 123.31 104.481 125.11 102.891 126.311C101.11 127.641 99.95 128.461 99.9 128.421C99.85 128.381 98.6396 127.461 97.1992 126.371C95.7588 125.281 93.5481 123.6 92.2977 122.64C91.0373 121.679 88.7567 119.929 87.2262 118.739C85.6958 117.548 83.055 115.468 81.3645 114.127C79.674 112.777 77.2132 110.796 75.8828 109.726C74.5624 108.646 72.2818 106.775 70.8213 105.565C69.3509 104.354 66.8501 102.254 65.2497 100.903C63.6492 99.5529 61.1684 97.4222 59.728 96.1718C58.2876 94.9215 56.0769 92.9809 54.8266 91.8606C53.5662 90.7402 51.3055 88.6996 49.7951 87.3292C48.2846 85.9588 45.8439 83.6881 44.3534 82.2977C42.873 80.9073 39.7721 77.8964 37.4714 75.6057C35.1707 73.325 32.2498 70.3741 30.9895 69.0438C29.7191 67.7234 27.7685 65.6227 26.6482 64.3924C25.5278 63.162 23.8273 61.2214 22.857 60.0911C21.8867 58.9607 21.0665 58.0405 21.0265 58.0405C20.9965 58.0405 21.0165 58.3706 21.0765 58.7607C21.1365 59.1608 21.2866 59.921 21.4266 60.4512C21.5566 60.9713 21.8167 61.8516 22.0068 62.4018C22.1968 62.9519 22.5369 63.8422 22.767 64.3924C22.9971 64.9425 23.4472 65.9128 23.7573 66.553C24.0674 67.1932 24.6276 68.2435 25.0077 68.8837C25.3778 69.5139 26.018 70.5442 26.4381 71.1644C26.8482 71.7846 27.4684 72.6548 27.8085 73.115C28.1586 73.5751 28.7888 74.3753 29.2289 74.8955C29.6691 75.4257 31.0895 76.9961 32.3999 78.3865C33.7103 79.787 36.6611 82.7978 38.9618 85.0785C41.2625 87.3692 44.2934 90.3001 45.6838 91.6005C47.0742 92.9109 49.0048 94.6814 49.9651 95.5517C50.9254 96.4219 52.7759 98.0924 54.0763 99.2528C55.3767 100.413 57.3973 102.184 58.5577 103.194C59.728 104.204 61.5586 105.775 62.6289 106.685C63.7092 107.605 65.4097 109.046 66.41 109.886C67.4203 110.736 69.4009 112.377 70.8213 113.537C72.2317 114.707 75.0026 116.948 76.9632 118.529C78.9337 120.109 81.9847 122.54 83.7452 123.93C85.5057 125.321 88.6766 127.781 90.7773 129.402C92.8879 131.022 94.6184 132.373 94.6184 132.393C94.6284 132.413 93.0479 133.583 91.1174 134.973C89.1768 136.374 86.436 138.334 85.0256 139.335C83.6051 140.325 82.4348 141.145 82.4248 141.155C82.4148 141.155 82.4048 141.755 82.4048 142.486C82.4048 143.216 82.4448 144.096 82.5048 144.446C82.5548 144.786 82.6749 145.216 82.7649 145.397C82.8549 145.577 83.095 145.977 83.295 146.287C83.4951 146.597 83.8652 147.077 84.1353 147.357L84.6054 147.867C90.5272 143.516 93.9482 140.975 96.0288 139.415C98.1095 137.854 99.86 136.554 99.92 136.524C99.98 136.484 101.771 137.774 104.571 139.855C107.072 141.725 110.533 144.286 112.274 145.567L115.435 147.877C116.125 147.117 116.465 146.687 116.635 146.437C116.805 146.187 117.045 145.777 117.175 145.517C117.355 145.166 117.425 144.836 117.525 144.026C117.585 143.456 117.625 142.576 117.615 142.086L117.595 141.175C112.954 137.894 110.283 135.984 108.663 134.823C107.042 133.653 105.632 132.633 105.522 132.543L105.342 132.393C111.483 127.671 114.434 125.381 115.845 124.26C117.265 123.14 120.296 120.729 122.577 118.899C124.857 117.078 127.698 114.777 128.889 113.797C130.079 112.807 132.06 111.166 133.29 110.136C134.53 109.106 137.391 106.675 139.652 104.734C141.913 102.794 144.773 100.303 146.004 99.2027C147.244 98.1024 149.165 96.3619 150.285 95.3416C151.405 94.3113 153.146 92.7108 154.146 91.7705C155.146 90.8302 157.147 88.9197 158.587 87.5193C160.028 86.1188 162.279 83.8982 163.579 82.5778C164.879 81.2574 166.77 79.2968 167.77 78.2265C168.781 77.1462 169.861 75.9758 170.181 75.6057C170.501 75.2456 171.011 74.6454 171.311 74.2753C171.611 73.9152 172.071 73.315 172.352 72.9549C172.632 72.5848 173.122 71.8946 173.442 71.4145C173.762 70.9343 174.392 69.944 174.832 69.2138C175.272 68.4836 175.903 67.3232 176.243 66.633C176.583 65.9528 177.063 64.8825 177.313 64.2723C177.563 63.6521 177.913 62.7119 178.103 62.1917C178.283 61.6616 178.543 60.7313 178.683 60.1111C178.824 59.5009 178.964 58.7607 178.994 58.4706C179.024 58.1905 179.034 57.9604 179.014 57.9604C179.004 57.9604 178.183 58.9007 177.203 60.0511Z" fill="white"/>
<path d="M51.0359 60.2603C50.8059 60.3403 50.4958 60.5004 50.3357 60.6204C50.1757 60.7304 49.9556 61.0005 49.8356 61.2006C49.7156 61.4006 49.5255 61.8108 49.4055 62.1108C49.2954 62.4009 49.1554 62.8511 49.1054 63.1011C49.0554 63.3512 48.8953 64.2915 48.7553 65.1818C48.6052 66.072 48.4152 67.0423 48.3251 67.3424C48.2351 67.6425 48.0851 68.0326 47.985 68.2127C47.895 68.3927 47.705 68.6928 47.5649 68.8729C47.4249 69.0429 47.1948 69.243 47.0548 69.293L46.8047 69.403C47.2548 69.6231 47.5949 69.7031 47.845 69.7331C48.0951 69.7531 48.4752 69.7231 48.6752 69.6631C48.9453 69.5931 49.1754 69.433 49.5155 69.0929C49.8356 68.7628 50.0357 68.4727 50.1857 68.0926C50.3057 67.7925 50.4558 67.3124 50.5158 67.0323C50.5758 66.7422 50.6458 66.5021 50.6658 66.5021C50.6958 66.5021 50.8359 66.6322 50.9959 66.7822C51.146 66.9323 51.316 67.1423 51.376 67.2624C51.4361 67.3724 51.5061 67.5925 51.5361 67.7525C51.5661 67.9326 51.5361 68.2227 51.4561 68.4827C51.3761 68.7628 51.226 69.0329 51.0259 69.233C50.8559 69.403 50.6158 69.6131 50.5058 69.6931L50.2957 69.8431C50.8759 69.7931 51.246 69.6831 51.5061 69.5631C51.7562 69.443 52.1163 69.193 52.3063 69.0029C52.5064 68.8228 52.7865 68.4327 52.9265 68.1526C53.1366 67.7325 53.1966 67.5024 53.2266 66.9723C53.2566 66.4721 53.2266 66.1921 53.1166 65.842C53.0365 65.5919 52.8865 65.2518 52.7765 65.0817C52.6664 64.9017 52.4364 64.6116 52.2463 64.4315C52.0663 64.2515 51.7262 64.0214 51.4961 63.9114C51.206 63.7813 51.086 63.6813 51.086 63.5613C51.086 63.4713 51.156 63.0911 51.256 62.731C51.346 62.3609 51.5561 61.8208 51.7262 61.5207C51.8862 61.2306 52.1463 60.8305 52.2963 60.6304C52.4964 60.3803 52.5464 60.2603 52.4764 60.2203C52.4164 60.1903 52.1663 60.1603 51.9162 60.1403C51.6161 60.1202 51.316 60.1603 51.0359 60.2603Z" fill="#003087"/>
<path d="M50.4749 67.1524C50.3949 67.5125 50.2249 68.0227 50.0848 68.2927C49.9548 68.5728 49.7547 68.8929 49.6547 69.0029C49.5447 69.113 49.3146 69.323 49.1345 69.4531C48.8344 69.6732 48.8144 69.7032 48.9645 69.7532C49.0545 69.7832 49.3146 69.8432 49.5447 69.8732C49.8748 69.9232 50.0348 69.9032 50.2949 69.7832C50.4749 69.6932 50.785 69.4731 50.9851 69.273C51.2252 69.033 51.3752 68.7829 51.4552 68.4828C51.5352 68.2227 51.5653 67.9326 51.5352 67.7526C51.5052 67.5925 51.4352 67.3925 51.3952 67.3024C51.3452 67.2124 51.1751 66.9923 51.0051 66.8223C50.845 66.6522 50.685 66.5122 50.665 66.5122C50.635 66.5122 50.545 66.8023 50.4749 67.1524Z" fill="#C8102E"/>
<path d="M139.652 88.7484C139.212 88.8584 138.152 89.1385 137.281 89.3686C136.411 89.5986 134.711 90.0888 133.5 90.4489C132.29 90.819 129.809 91.5792 127.979 92.1494C126.148 92.7296 122.537 93.8999 119.956 94.7502C117.375 95.6104 113.584 96.9108 111.524 97.641C109.473 98.3813 106.982 99.2715 106.002 99.6416C105.022 100.002 103.341 100.662 102.261 101.092C101.191 101.522 99.7502 102.132 99.06 102.442C98.3798 102.743 97.4995 103.173 97.1094 103.383C96.7193 103.593 96.2292 103.893 96.0191 104.053C95.799 104.233 95.619 104.433 95.599 104.553C95.579 104.683 95.629 104.763 95.759 104.813C95.8691 104.863 96.1291 104.893 96.3392 104.893C96.5593 104.893 97.0894 104.833 97.5296 104.763C97.9597 104.683 98.9 104.483 99.6002 104.303C100.31 104.123 101.701 103.733 102.681 103.443C103.661 103.143 105.962 102.402 107.793 101.792C109.613 101.172 112.604 100.132 114.435 99.4716C116.265 98.8014 118.896 97.8311 120.296 97.3109C121.687 96.7808 123.877 95.9405 125.148 95.4404C126.428 94.9402 128.599 94.08 129.969 93.5298C131.34 92.9796 133.16 92.2494 134 91.8893C134.851 91.5392 136.251 90.939 137.111 90.5589C137.982 90.1788 139.162 89.6487 139.732 89.3686C140.302 89.0985 140.862 88.7984 140.983 88.6984L141.183 88.5283C140.612 88.5383 140.082 88.6284 139.652 88.7484Z" fill="white"/>
<path fill-rule="evenodd" clip-rule="evenodd" d="M81.0748 136.082C81.695 136.092 81.9451 136.142 82.2251 136.282C82.4152 136.382 82.6453 136.582 82.7453 136.732C82.8353 136.882 82.8953 137.053 82.8853 137.123C82.8753 137.193 82.5452 137.353 82.1151 137.493C81.605 137.663 81.2949 137.833 81.1248 138.003C80.9948 138.133 80.7847 138.453 80.6647 138.703C80.4646 139.143 80.4546 139.223 80.4646 140.574C80.4646 141.624 80.5146 142.244 80.6447 142.984C80.7447 143.534 81.1448 145.325 81.5349 146.975C81.9251 148.616 82.3552 150.527 82.4952 151.207C82.6253 151.897 82.8153 152.977 82.9053 153.617C83.0254 154.378 83.1054 155.428 83.1354 156.608C83.1654 157.859 83.1454 158.689 83.0754 159.229C83.0254 159.659 82.8953 160.369 82.8053 160.81C82.7153 161.24 82.4752 162.08 82.2652 162.68C82.0651 163.27 81.725 164.111 81.5249 164.541C81.3149 164.981 81.0148 165.561 80.8547 165.831C80.6847 166.111 80.3246 166.671 80.0545 167.081C79.7844 167.492 79.2142 168.242 78.7941 168.742C78.374 169.242 77.7538 169.912 77.4137 170.232C77.0736 170.553 76.4234 171.113 75.9733 171.473C75.5131 171.833 74.7429 172.393 74.2628 172.703C73.7826 173.023 72.8924 173.533 72.2722 173.844C71.652 174.154 70.7917 174.554 70.3616 174.724C69.9215 174.894 69.1412 175.154 68.6111 175.304C68.0909 175.454 67.3607 175.644 67.0006 175.714C66.6305 175.794 65.8303 175.904 65.2101 175.974C64.5899 176.034 63.6996 176.094 63.2195 176.094C62.7393 176.084 61.9691 176.054 61.509 176.014C61.0588 175.974 60.2886 175.864 59.8085 175.764C59.3283 175.664 58.4881 175.434 57.9379 175.254C57.3877 175.074 56.5475 174.734 56.0673 174.504C55.5872 174.274 54.977 173.954 54.6969 173.793C54.4269 173.623 53.7667 173.173 53.2465 172.783C52.7163 172.393 51.8561 171.643 51.3259 171.113C50.7958 170.583 50.1156 169.842 49.2553 168.782L48.9452 169.212C48.7752 169.452 48.4651 169.772 48.265 169.922C48.055 170.072 47.6848 170.282 47.4348 170.372C47.0647 170.513 46.8246 170.533 46.1744 170.513C45.4642 170.493 45.3241 170.452 44.764 170.182C44.3439 169.972 44.0138 169.742 43.7337 169.432C43.5036 169.182 43.2135 168.772 43.0935 168.532C42.9734 168.282 42.8334 167.912 42.7834 167.702C42.7334 167.502 42.6934 167.081 42.6934 166.791C42.6934 166.491 42.7534 166.021 42.8234 165.751C42.8934 165.481 43.0735 165.031 43.2235 164.761C43.3636 164.491 43.6737 164.101 43.9037 163.891C44.1338 163.68 44.5239 163.41 44.774 163.29C45.0241 163.16 45.4542 163.02 45.7243 162.96C46.1544 162.87 46.3144 162.88 46.8446 163C47.1947 163.07 47.6748 163.25 47.9249 163.4C48.185 163.55 48.5651 163.821 48.7852 164.011C48.9952 164.191 49.6654 164.921 50.2756 165.621C50.8758 166.331 51.8961 167.442 52.5363 168.072C53.1765 168.722 54.0567 169.492 54.4969 169.802C54.927 170.112 55.8073 170.623 56.4475 170.943C57.0876 171.263 57.9479 171.623 58.358 171.733C58.7682 171.853 59.5284 172.023 60.0585 172.123C60.8288 172.273 61.3189 172.303 62.5493 172.303C63.6096 172.303 64.3498 172.253 64.92 172.153C65.3801 172.083 66.1203 171.923 66.5805 171.803C67.0406 171.693 67.8409 171.433 68.371 171.223C68.8912 171.013 69.6814 170.653 70.1115 170.422C70.5417 170.192 71.2719 169.762 71.732 169.462C72.1922 169.162 72.7823 168.722 73.0624 168.492C73.3325 168.262 73.8727 167.782 74.2528 167.412C74.6429 167.051 75.163 166.481 75.4231 166.161C75.6932 165.841 76.1633 165.211 76.4734 164.751C76.7835 164.301 77.2537 163.47 77.5137 162.93C77.7738 162.38 78.1239 161.54 78.284 161.06C78.444 160.58 78.6641 159.789 78.7641 159.309C78.9342 158.539 78.9542 158.219 78.9542 156.568C78.9542 155.088 78.9142 154.438 78.7641 153.417C78.6641 152.707 78.394 151.227 78.1739 150.126C77.9439 149.036 77.6138 147.426 77.4337 146.555C77.2537 145.695 77.0136 144.455 76.9136 143.815C76.7935 143.014 76.7335 142.234 76.7235 141.324C76.7235 140.274 76.7535 139.883 76.8735 139.453C76.9536 139.153 77.1336 138.673 77.2837 138.373C77.4437 138.033 77.7438 137.633 78.0839 137.283C78.414 136.953 78.8341 136.632 79.1442 136.472C79.4343 136.332 79.8044 136.182 79.9745 136.132C80.1445 136.092 80.6447 136.062 81.0748 136.082ZM119.006 136.052C119.376 136.052 119.876 136.102 120.126 136.182C120.377 136.252 120.767 136.422 120.997 136.542C121.227 136.672 121.587 136.953 121.807 137.163C122.027 137.373 122.327 137.743 122.487 137.983C122.637 138.223 122.847 138.613 122.937 138.853C123.037 139.093 123.177 139.613 123.247 140.013C123.337 140.544 123.357 141.004 123.317 141.694C123.287 142.224 123.177 143.254 123.067 143.985C122.957 144.715 122.657 146.265 122.407 147.436C122.147 148.596 121.817 150.186 121.667 150.967C121.507 151.737 121.307 152.957 121.217 153.657C121.087 154.568 121.037 155.398 121.037 156.468C121.037 157.299 121.077 158.249 121.127 158.589C121.177 158.919 121.317 159.559 121.427 160.019C121.537 160.48 121.767 161.2 121.927 161.64C122.087 162.07 122.357 162.69 122.517 163.01C122.677 163.33 122.997 163.891 123.227 164.251C123.457 164.621 123.838 165.181 124.068 165.501C124.308 165.821 124.848 166.451 125.278 166.901C125.718 167.362 126.388 167.992 126.768 168.322C127.159 168.642 127.849 169.152 128.309 169.452C128.769 169.752 129.419 170.152 129.759 170.342C130.109 170.523 130.76 170.833 131.22 171.023C131.67 171.213 132.4 171.473 132.84 171.603C133.27 171.743 133.911 171.903 134.251 171.973C134.591 172.043 135.211 172.133 135.621 172.183C136.031 172.233 136.851 172.273 137.452 172.273C138.042 172.273 138.862 172.233 139.272 172.183C139.692 172.133 140.302 172.043 140.643 171.963C140.993 171.893 141.643 171.703 142.103 171.543C142.553 171.393 143.283 171.083 143.723 170.853C144.154 170.633 144.774 170.272 145.094 170.062C145.414 169.852 145.994 169.412 146.384 169.082C146.764 168.762 147.415 168.152 147.825 167.742C148.225 167.332 149.045 166.401 149.645 165.681C150.295 164.901 150.976 164.181 151.326 163.901C151.646 163.65 152.146 163.33 152.446 163.19C152.806 163.02 153.156 162.93 153.526 162.9C153.887 162.87 154.227 162.91 154.567 163C154.837 163.08 155.247 163.25 155.467 163.37C155.687 163.49 156.047 163.781 156.267 164.011C156.477 164.231 156.757 164.621 156.877 164.861C156.997 165.101 157.157 165.511 157.217 165.771C157.288 166.031 157.348 166.461 157.348 166.731C157.348 166.991 157.308 167.402 157.258 167.642C157.197 167.882 157.067 168.262 156.947 168.492C156.837 168.722 156.607 169.072 156.437 169.282C156.267 169.482 155.947 169.772 155.717 169.922C155.497 170.062 155.077 170.262 154.787 170.352C154.467 170.462 154.057 170.523 153.686 170.523C153.316 170.523 152.956 170.473 152.676 170.362C152.436 170.272 152.046 170.082 151.826 169.922C151.596 169.772 151.296 169.492 151.156 169.312C151.016 169.132 150.876 168.932 150.846 168.862C150.806 168.772 150.736 168.802 150.556 169.032C150.435 169.192 149.935 169.762 149.455 170.312C148.975 170.863 148.315 171.533 148.005 171.803C147.685 172.083 147.064 172.573 146.624 172.893C146.194 173.213 145.524 173.663 145.134 173.894C144.744 174.114 144.074 174.464 143.633 174.654C143.203 174.844 142.453 175.124 141.973 175.284C141.493 175.444 140.653 175.654 140.102 175.744C139.562 175.844 138.622 175.964 138.032 176.014C137.302 176.074 136.561 176.074 135.741 176.014C135.081 175.974 134.181 175.874 133.75 175.804C133.32 175.734 132.53 175.564 132.01 175.434C131.48 175.294 130.72 175.074 130.299 174.934C129.889 174.784 128.979 174.394 128.269 174.044C127.559 173.703 126.658 173.233 126.278 172.993C125.888 172.763 125.138 172.243 124.608 171.853C124.088 171.453 123.187 170.683 122.617 170.132C122.047 169.592 121.247 168.712 120.837 168.192C120.437 167.672 119.936 166.981 119.726 166.661C119.516 166.341 119.096 165.601 118.786 165.001C118.476 164.411 118.066 163.49 117.876 162.97C117.696 162.44 117.436 161.56 117.306 161.01C117.176 160.47 117.016 159.569 116.965 159.019C116.895 158.389 116.875 157.429 116.915 156.408C116.935 155.498 117.036 154.218 117.136 153.497C117.236 152.787 117.446 151.577 117.606 150.797C117.766 150.016 118.136 148.396 118.426 147.186C118.716 145.975 119.006 144.735 119.076 144.445C119.146 144.145 119.286 143.434 119.386 142.864C119.506 142.154 119.566 141.444 119.576 140.614C119.586 139.683 119.556 139.303 119.436 138.933C119.336 138.603 119.186 138.353 118.946 138.103C118.676 137.833 118.426 137.693 117.886 137.493C117.356 137.313 117.166 137.203 117.156 137.083C117.136 136.993 117.216 136.812 117.316 136.682C117.426 136.542 117.696 136.352 117.926 136.242C118.246 136.092 118.486 136.052 119.006 136.052ZM75.2231 145.565C75.2431 145.585 75.2331 145.685 75.2231 145.785C75.203 145.905 74.8429 146.275 74.2128 146.815C73.6726 147.276 72.7023 148.046 72.0621 148.526C71.4219 149.006 70.0015 150.026 68.9112 150.807C67.8108 151.587 66.0103 152.827 64.92 153.557C63.8197 154.288 62.2292 155.328 61.3889 155.868C60.5387 156.408 59.1383 157.279 58.268 157.799C57.4077 158.319 55.9473 159.169 55.027 159.679C54.1168 160.199 52.6363 160.99 51.7461 161.45C50.8558 161.91 50.0055 162.31 49.8555 162.34C49.7155 162.36 49.5754 162.35 49.5454 162.3C49.5254 162.26 49.6254 162.13 49.7755 162.02C49.9255 161.91 51.526 160.89 53.3265 159.749C55.1371 158.609 57.9179 156.838 59.5184 155.808C61.1189 154.778 63.5896 153.177 65 152.247C66.4204 151.317 69.2413 149.456 71.2719 148.096C73.3125 146.735 75.023 145.615 75.093 145.585C75.153 145.565 75.2131 145.555 75.2231 145.565ZM124.738 145.515C124.758 145.515 124.878 145.575 125.008 145.635C125.128 145.695 127.909 147.526 131.18 149.696C134.441 151.867 138.392 154.458 139.942 155.448C141.493 156.448 144.444 158.319 146.504 159.619C148.565 160.92 150.295 162.03 150.365 162.1C150.455 162.18 150.465 162.25 150.405 162.31C150.355 162.37 150.155 162.33 149.745 162.17C149.425 162.05 148.905 161.82 148.585 161.66C148.265 161.5 147.305 160.98 146.464 160.51C145.614 160.049 143.934 159.069 142.723 158.339C141.513 157.609 139.752 156.538 138.822 155.948C137.882 155.358 136.311 154.348 135.331 153.708C134.351 153.057 132.89 152.067 132.09 151.507C131.29 150.937 129.959 149.966 129.139 149.356C128.319 148.736 127.028 147.736 126.278 147.136C125.518 146.525 124.858 145.955 124.798 145.865C124.738 145.765 124.698 145.645 124.698 145.605C124.698 145.555 124.718 145.515 124.738 145.515ZM75.6132 148.436C76.0233 148.426 76.1233 148.456 76.3334 148.656C76.4634 148.786 76.6135 149.056 76.6735 149.256C76.7335 149.466 76.8235 149.876 76.8836 150.176C76.9536 150.467 77.0436 151.047 77.0836 151.457C77.1336 151.867 77.1736 152.507 77.1736 152.877C77.1736 153.387 77.1336 153.597 77.0036 153.808C76.9136 153.958 76.7535 154.138 76.6535 154.198C76.5535 154.268 76.3334 154.358 76.1733 154.408C75.9833 154.458 75.7832 154.468 75.5732 154.408C75.4031 154.368 75.143 154.228 74.7329 153.868L74.8029 154.408C74.8429 154.738 74.8329 155.058 74.7729 155.238C74.7329 155.398 74.5428 155.668 74.3528 155.838C74.0527 156.128 73.9727 156.158 73.5626 156.158C73.3125 156.158 73.0224 156.108 72.9124 156.058C72.8123 156.008 72.6423 155.888 72.5423 155.788C72.4422 155.698 72.3422 155.638 72.3222 155.658C72.3022 155.678 72.3222 155.888 72.3522 156.108C72.3922 156.348 72.3922 156.668 72.3522 156.838C72.3022 157.008 72.1521 157.279 72.0021 157.449C71.812 157.649 71.622 157.759 71.3619 157.819C71.1318 157.859 70.8718 157.859 70.6917 157.819C70.5317 157.769 70.2816 157.619 69.8515 157.189L69.9115 157.819C69.9615 158.359 69.9415 158.489 69.7914 158.789C69.6914 158.989 69.4913 159.219 69.3413 159.309C69.1913 159.399 68.9612 159.499 68.8211 159.529C68.6911 159.559 68.421 159.529 68.241 159.479C68.0609 159.419 67.7808 159.259 67.3607 158.859L67.4207 159.479C67.4707 160.039 67.4607 160.129 67.2807 160.45C67.1707 160.65 66.9506 160.88 66.7905 160.97C66.6105 161.07 66.3404 161.14 66.0803 161.14C65.7702 161.14 65.5902 161.09 65.3501 160.93C65.1801 160.82 65.04 160.69 65.04 160.64C65.04 160.6 65.02 160.57 64.98 160.59C64.95 160.61 64.93 160.9 64.95 161.24C64.97 161.69 64.95 161.92 64.85 162.12C64.7499 162.3 64.5699 162.45 64.2698 162.59C64.0397 162.71 63.7496 162.8 63.6296 162.8C63.5196 162.8 63.2695 162.73 63.0894 162.65C62.9094 162.57 62.6693 162.39 62.3692 162.01L62.4192 162.68C62.4693 163.24 62.4492 163.39 62.3092 163.67C62.2192 163.861 62.0591 164.071 61.9591 164.141C61.8491 164.211 61.589 164.321 61.3889 164.381C61.0988 164.461 60.9488 164.471 60.6987 164.391C60.5287 164.341 60.2786 164.201 60.1386 164.091C60.0085 163.971 59.8785 163.881 59.8685 163.881C59.8585 163.881 59.8585 164.171 59.8785 164.521C59.8985 165.141 59.8885 165.181 59.6484 165.481C59.4684 165.701 59.2683 165.831 58.9782 165.921C58.7381 165.991 58.4481 166.021 58.288 165.991C58.148 165.961 57.9479 165.901 57.8579 165.851C57.7679 165.811 57.5878 165.671 57.2277 165.331L57.2377 166.001C57.2377 166.571 57.2077 166.731 57.0076 167.112C56.8176 167.492 56.6975 167.612 56.3174 167.802C55.9973 167.972 55.7473 168.042 55.4672 168.042C55.2471 168.032 54.937 167.972 54.757 167.902C54.5869 167.832 54.1868 167.552 53.8667 167.292C53.5466 167.031 52.9364 166.431 52.4963 165.971C52.0662 165.511 51.646 164.991 51.566 164.811C51.486 164.641 51.426 164.411 51.416 164.301C51.416 164.181 51.496 163.971 51.586 163.821C51.676 163.67 51.8361 163.49 51.9361 163.42C52.0361 163.35 52.2762 163.26 52.4563 163.22C52.6563 163.17 52.9064 163.17 53.0765 163.21C53.2365 163.25 53.5866 163.46 53.8467 163.67C54.1068 163.881 54.3568 164.051 54.3868 164.051C54.4269 164.051 54.4269 163.73 54.3868 163.34C54.3368 162.75 54.3468 162.58 54.4769 162.28C54.5869 162.01 54.7169 161.88 54.997 161.74C55.1971 161.64 55.4572 161.56 55.5672 161.56C55.6872 161.56 55.9073 161.64 56.0673 161.73C56.2274 161.82 56.4775 162.05 56.8576 162.57L56.8976 161.66C56.9276 160.99 56.9776 160.7 57.0877 160.53C57.1677 160.41 57.3577 160.229 57.5078 160.139C57.7078 160.009 57.8679 159.979 58.188 160.009C58.5481 160.039 58.6481 160.089 58.9382 160.409C59.1183 160.61 59.3183 160.85 59.3683 160.94C59.4484 161.07 59.4584 160.93 59.4283 160.249C59.3983 159.509 59.4183 159.349 59.5584 159.059C59.6484 158.879 59.8485 158.659 59.9985 158.569C60.1486 158.469 60.4086 158.399 60.5987 158.399C60.7888 158.399 61.0488 158.469 61.1989 158.569C61.3489 158.659 61.569 158.889 61.9291 159.429L62.0091 157.389L62.3192 157.099C62.4893 156.948 62.7393 156.798 62.8594 156.768C62.9894 156.738 63.2095 156.738 63.3595 156.768C63.5096 156.798 63.7496 156.938 63.8997 157.089C64.0497 157.239 64.2398 157.449 64.3098 157.569C64.4498 157.769 64.4498 157.739 64.4598 156.858C64.4598 156.048 64.4799 155.918 64.6499 155.658C64.7499 155.498 64.97 155.298 65.1301 155.218C65.3301 155.118 65.5202 155.078 65.7502 155.108C65.9303 155.128 66.1704 155.218 66.2904 155.308C66.4004 155.398 66.5805 155.588 66.6905 155.748C66.7905 155.898 66.9106 156.038 66.9406 156.048C66.9706 156.058 66.9806 155.738 66.9506 155.328C66.9306 154.918 66.9406 154.458 66.9706 154.308C67.0006 154.158 67.1406 153.928 67.2607 153.808C67.3907 153.677 67.6208 153.537 67.7808 153.487C67.9409 153.437 68.201 153.417 68.341 153.447C68.4911 153.477 68.7411 153.617 68.8912 153.768C69.0412 153.918 69.2213 154.128 69.3013 154.248C69.4413 154.448 69.4413 154.428 69.4313 153.577C69.4213 152.897 69.4413 152.647 69.5514 152.437C69.6314 152.287 69.8014 152.087 69.9215 151.997C70.0515 151.897 70.2416 151.807 70.3616 151.777C70.4716 151.747 70.7117 151.777 70.8818 151.827C71.0818 151.887 71.3019 152.047 71.5019 152.297C71.672 152.497 71.832 152.667 71.852 152.667C71.8821 152.667 71.8821 152.337 71.8621 151.937C71.8521 151.537 71.8521 151.107 71.8821 150.987C71.9121 150.857 72.0321 150.647 72.1421 150.507C72.2722 150.357 72.4922 150.226 72.6823 150.176C72.9024 150.116 73.1324 150.116 73.3325 150.166C73.5125 150.216 73.7526 150.367 73.9127 150.537C74.0627 150.707 74.2128 150.837 74.2428 150.837C74.2828 150.837 74.2828 150.587 74.2428 150.276C74.2128 149.966 74.2128 149.566 74.2428 149.386C74.2828 149.206 74.4028 148.946 74.5228 148.816C74.6429 148.686 74.8329 148.546 74.943 148.506C75.053 148.466 75.3531 148.436 75.6132 148.436ZM124.608 148.486C124.768 148.506 125.028 148.586 125.188 148.666C125.338 148.736 125.548 148.916 125.638 149.046C125.798 149.266 125.818 149.406 125.778 151.047L126.048 150.727C126.198 150.547 126.418 150.347 126.548 150.286C126.668 150.226 126.888 150.176 127.018 150.176C127.159 150.176 127.379 150.226 127.499 150.286C127.629 150.347 127.839 150.527 127.969 150.677C128.199 150.957 128.209 150.967 128.179 151.857C128.159 152.347 128.159 152.747 128.189 152.747C128.209 152.757 128.339 152.597 128.479 152.417C128.609 152.227 128.849 152.017 128.999 151.957C129.139 151.887 129.359 151.837 129.469 151.837C129.589 151.837 129.769 151.867 129.869 151.907C129.969 151.947 130.139 152.057 130.239 152.137C130.329 152.217 130.47 152.427 130.55 152.607C130.65 152.847 130.67 153.097 130.63 153.728C130.59 154.518 130.59 154.528 130.73 154.328C130.82 154.208 131 153.998 131.13 153.858C131.27 153.718 131.51 153.567 131.67 153.537C131.83 153.507 132.08 153.507 132.21 153.537C132.35 153.567 132.6 153.728 133.08 154.198V156.198L133.33 155.838C133.47 155.648 133.71 155.418 133.851 155.328C134.001 155.228 134.251 155.158 134.391 155.158C134.541 155.158 134.771 155.208 134.891 155.278C135.021 155.338 135.211 155.488 135.331 155.608C135.521 155.818 135.541 155.908 135.621 157.829L135.891 157.449C136.041 157.229 136.281 157.018 136.451 156.948C136.611 156.878 136.831 156.818 136.951 156.818C137.061 156.818 137.282 156.868 137.432 156.928C137.572 156.988 137.772 157.149 137.862 157.279C138.002 157.479 138.042 157.709 138.112 159.489L138.382 159.109C138.532 158.899 138.752 158.669 138.882 158.589C139.022 158.489 139.232 158.449 139.482 158.459C139.752 158.469 139.942 158.549 140.142 158.709C140.302 158.839 140.483 159.069 140.553 159.229C140.633 159.439 140.653 159.699 140.613 160.209C140.583 160.58 140.593 160.91 140.623 160.93C140.663 160.95 140.803 160.82 140.943 160.64C141.073 160.47 141.293 160.259 141.413 160.189C141.543 160.119 141.803 160.059 141.993 160.059C142.193 160.059 142.433 160.109 142.533 160.169C142.633 160.219 142.813 160.4 142.933 160.56C143.123 160.83 143.143 160.92 143.143 161.76C143.153 162.5 143.163 162.65 143.253 162.52C143.303 162.43 143.463 162.23 143.593 162.07C143.733 161.91 143.974 161.72 144.134 161.66C144.314 161.59 144.524 161.57 144.674 161.6C144.814 161.63 145.034 161.72 145.164 161.79C145.294 161.87 145.474 162.07 145.554 162.24C145.694 162.51 145.704 162.66 145.604 164.171L145.974 163.871C146.174 163.71 146.464 163.49 146.624 163.39C146.804 163.29 147.054 163.22 147.255 163.22C147.435 163.22 147.745 163.29 147.935 163.38C148.135 163.47 148.365 163.67 148.465 163.821C148.575 164.011 148.625 164.191 148.605 164.421C148.585 164.661 148.475 164.891 148.205 165.241C148.005 165.511 147.385 166.171 146.834 166.701C146.234 167.282 145.674 167.742 145.424 167.872C145.134 168.012 144.874 168.072 144.544 168.072C144.174 168.072 144.004 168.022 143.683 167.832C143.463 167.692 143.213 167.482 143.123 167.372C143.033 167.252 142.913 166.971 142.863 166.751C142.803 166.511 142.773 166.141 142.803 165.891C142.823 165.651 142.843 165.431 142.823 165.411C142.813 165.391 142.713 165.471 142.603 165.581C142.483 165.701 142.263 165.851 142.103 165.921C141.943 165.981 141.723 166.041 141.623 166.041C141.523 166.041 141.283 166.001 141.103 165.951C140.913 165.891 140.633 165.711 140.102 165.191L140.232 163.71L140.002 163.961C139.882 164.091 139.672 164.241 139.542 164.291C139.422 164.341 139.142 164.381 138.922 164.381C138.652 164.381 138.442 164.331 138.242 164.191C138.092 164.091 137.882 163.901 137.792 163.77C137.642 163.56 137.622 163.44 137.662 162.01L137.472 162.26C137.372 162.39 137.132 162.57 136.951 162.65C136.771 162.73 136.521 162.8 136.411 162.8C136.291 162.8 136.001 162.71 135.771 162.59C135.471 162.45 135.291 162.3 135.191 162.12C135.091 161.9 135.071 161.71 135.111 161.14C135.171 160.45 135.171 160.44 135.021 160.62C134.941 160.72 134.761 160.88 134.621 160.97C134.461 161.08 134.231 161.14 133.961 161.14C133.66 161.14 133.46 161.09 133.26 160.96C133.1 160.85 132.88 160.64 132.77 160.48C132.59 160.209 132.58 160.119 132.62 159.599C132.64 159.279 132.64 158.989 132.61 158.959C132.57 158.929 132.51 158.959 132.46 159.039C132.41 159.119 132.23 159.249 132.06 159.329C131.89 159.409 131.58 159.479 131.36 159.479C131.13 159.479 130.88 159.419 130.75 159.329C130.63 159.249 130.44 159.079 130.329 158.939C130.159 158.729 130.139 158.599 130.139 158.009C130.139 157.629 130.119 157.319 130.099 157.319C130.069 157.309 129.999 157.369 129.929 157.449C129.859 157.529 129.699 157.639 129.579 157.699C129.449 157.769 129.169 157.819 128.949 157.819C128.679 157.819 128.469 157.759 128.279 157.629C128.119 157.529 127.919 157.339 127.819 157.209C127.669 156.998 127.649 156.868 127.689 155.528L127.479 155.758C127.369 155.888 127.179 156.028 127.059 156.068C126.948 156.118 126.708 156.158 126.528 156.158C126.338 156.158 126.038 156.078 125.858 155.988C125.628 155.878 125.468 155.708 125.348 155.468C125.228 155.228 125.178 154.978 125.178 154.678C125.188 154.438 125.208 154.208 125.238 154.158C125.258 154.118 125.238 154.058 125.198 154.038C125.148 154.018 125.068 154.058 125.008 154.128C124.948 154.208 124.778 154.318 124.638 154.378C124.488 154.438 124.238 154.488 124.098 154.488C123.948 154.488 123.678 154.408 123.487 154.298C123.307 154.198 123.077 153.968 122.967 153.788C122.787 153.467 122.787 153.427 122.877 152.287C122.917 151.647 123.047 150.677 123.167 150.126C123.307 149.416 123.427 149.056 123.567 148.866C123.688 148.716 123.898 148.566 124.048 148.516C124.198 148.476 124.448 148.456 124.608 148.486Z" fill="#FFB81C"/>
</g>
<defs>
<clipPath id="clip0_106_6127">
<rect width="200" height="200" fill="white"/>
</clipPath>
</defs>
</svg>
