<svg width="200" height="200" viewBox="0 0 200 200" fill="none" xmlns="http://www.w3.org/2000/svg">
<g clip-path="url(#clip0_106_6005)">
<path fill-rule="evenodd" clip-rule="evenodd" d="M143.409 15.0247C147.611 15.0747 150.503 15.2148 151.974 15.4449C153.194 15.625 155.195 15.9952 156.416 16.2554C157.647 16.5155 159.648 17.0158 160.868 17.376C162.089 17.7262 163.79 18.2765 164.651 18.5867C165.501 18.9068 167.202 19.5872 168.423 20.0975C169.653 20.6078 171.855 21.7184 173.315 22.5688C174.786 23.4093 176.887 24.73 177.988 25.5005C179.088 26.2709 180.94 27.6917 182.1 28.6722C183.261 29.6427 185.042 31.3337 186.062 32.4243C187.083 33.5149 188.744 35.506 189.744 36.8567C190.755 38.2074 191.986 39.9584 192.476 40.7589C192.976 41.5493 193.897 43.2302 194.517 44.4909C195.147 45.7416 195.968 47.5526 196.348 48.5031C196.728 49.4436 197.309 51.0745 197.659 52.1151C197.999 53.1557 198.529 55.1668 198.849 56.5776C199.16 57.9883 199.55 60.0395 199.71 61.1401C199.89 62.4008 200 65.3424 200 69.0544C200 73.5969 199.9 75.598 199.59 77.7392C199.37 79.27 199.019 81.3212 198.439 84.0827L176.317 84.1427C164.15 84.1727 154.095 84.1627 153.975 84.1127C153.835 84.0527 153.945 83.2922 154.265 82.1616C154.545 81.1411 154.925 79.4001 155.125 78.2995C155.325 77.1889 155.486 74.9877 155.496 73.3968C155.506 71.7259 155.395 69.9249 155.225 69.1645C155.055 68.4241 154.605 67.1234 154.205 66.2629C153.805 65.4124 153.084 64.2518 152.594 63.7015C152.104 63.1512 151.113 62.3807 150.393 62.0005C149.672 61.6103 148.532 61.1801 147.861 61.03C147.061 60.8499 145.63 60.7899 143.749 60.8699C141.628 60.95 140.257 61.1401 138.636 61.5703C137.406 61.8905 135.404 62.6409 134.184 63.2212C132.963 63.8115 131.412 64.652 130.742 65.0822C130.062 65.5125 128.761 66.473 127.85 67.2134C126.93 67.9438 125.159 69.6147 123.898 70.9154C122.647 72.2162 120.896 74.2573 120.006 75.4579C119.116 76.6486 117.815 78.5496 117.114 79.6903C116.414 80.8209 115.153 83.1222 114.313 84.8131C113.472 86.494 112.412 88.8253 111.952 89.9959C111.491 91.1566 110.731 93.3078 110.251 94.7786C109.78 96.2494 109.14 98.5606 108.84 99.9014C108.54 101.252 108.139 103.403 107.959 104.694C107.769 105.985 107.619 108.636 107.619 110.597C107.619 112.618 107.759 115.08 107.939 116.28C108.119 117.441 108.48 119.202 108.73 120.183C108.99 121.153 109.58 122.764 110.031 123.744C110.491 124.725 111.201 126.026 111.611 126.636C112.022 127.246 112.672 128.117 113.042 128.567C113.422 129.017 114.383 129.908 115.173 130.548C115.974 131.199 117.325 132.059 118.175 132.459C119.035 132.87 120.536 133.42 121.507 133.67C122.828 134.02 124.018 134.15 126.069 134.17C128.07 134.19 129.251 134.09 130.292 133.81C131.092 133.6 132.443 133.08 133.293 132.659C134.154 132.239 135.655 131.259 136.635 130.468C137.606 129.688 138.996 128.357 139.707 127.507C140.417 126.666 141.528 125.165 142.178 124.185C142.819 123.204 143.899 121.303 144.57 119.952C145.24 118.612 145.98 117.021 146.641 115.37L194.547 115.39L194.427 116.45C194.357 117.031 194.097 118.352 193.847 119.402C193.606 120.443 193.116 122.194 192.766 123.294C192.416 124.395 191.615 126.556 190.985 128.087C190.355 129.618 189.164 132.279 188.324 133.99C187.483 135.701 185.962 138.513 184.942 140.224C183.921 141.945 182.64 143.996 182.11 144.796C181.57 145.587 180.159 147.548 178.978 149.138C177.798 150.729 175.837 153.191 174.626 154.591C173.415 156.002 171.224 158.344 169.763 159.804C168.293 161.265 165.881 163.476 164.4 164.717C162.92 165.948 160.718 167.669 159.508 168.529C158.297 169.39 156.306 170.71 155.085 171.461C153.865 172.201 151.964 173.282 150.863 173.852C149.762 174.432 147.811 175.353 146.521 175.903C145.24 176.453 143.239 177.244 142.078 177.644C140.918 178.054 138.816 178.685 137.406 179.065C136.005 179.435 133.654 179.945 132.183 180.196C130.712 180.446 128.361 180.756 126.96 180.876C125.549 181.006 123.198 181.106 121.737 181.106C120.266 181.096 118.115 180.996 116.954 180.876C115.794 180.756 113.843 180.456 112.622 180.206C111.391 179.965 109.49 179.515 108.39 179.215C107.289 178.915 105.638 178.405 104.728 178.084C103.807 177.764 100.705 176.574 97.8338 175.433C94.9622 174.292 91.9606 173.152 91.1601 172.902C90.3697 172.641 89.069 172.281 88.2685 172.101C87.4781 171.921 86.4776 171.711 86.0473 171.631C85.6171 171.551 84.2663 171.481 83.0457 171.481C81.5348 171.481 80.1841 171.631 78.8233 171.951C77.7227 172.221 76.0218 172.832 75.0413 173.312C74.0607 173.802 72.4999 174.773 71.5594 175.483C70.6288 176.183 68.7378 177.764 67.3671 178.995C65.9963 180.216 64.2053 181.706 63.3949 182.297C62.5844 182.897 61.2237 183.738 60.3632 184.168C59.5127 184.598 58.0619 185.148 57.1414 185.388C55.9208 185.719 54.7701 185.829 52.809 185.829C50.6979 185.829 49.6973 185.709 48.0264 185.278C46.8658 184.978 45.1148 184.398 44.1343 183.988C43.1537 183.577 41.4628 182.637 40.3622 181.896C39.2716 181.156 38.3511 180.446 38.3211 180.326C38.2911 180.206 39.3316 179.585 40.6424 178.955C41.9531 178.315 43.8241 177.264 44.8046 176.624C45.7852 175.973 47.286 174.733 48.1365 173.862C48.9969 173.002 49.9675 171.761 50.3077 171.131C50.6378 170.49 50.868 169.97 50.8079 169.97C50.7479 169.97 50.3177 170.21 49.8574 170.51C49.4072 170.81 48.2465 171.361 47.306 171.741C46.3555 172.111 44.6546 172.571 43.5239 172.751C42.3933 172.932 40.8124 173.082 40.022 173.082C39.2316 173.082 37.6807 172.892 36.5801 172.671C35.4795 172.441 33.8786 171.931 33.0182 171.541C32.1577 171.151 30.857 170.4 30.1266 169.87C29.3962 169.34 28.1855 168.269 27.4451 167.489C26.7047 166.708 25.6941 165.467 25.2039 164.737C24.7136 163.997 24.0032 162.846 23.633 162.176C23.2628 161.495 22.5924 160.044 22.1622 158.944C21.732 157.843 21.1716 156.132 20.9315 155.152C20.6814 154.171 20.3312 152.37 20.1511 151.14C19.961 149.919 19.7509 148.068 19.6708 147.027C19.5808 145.977 19.3206 144.426 19.0805 143.565C18.8404 142.715 18.3801 141.354 18.0699 140.564C17.7498 139.763 17.0894 138.413 16.5991 137.552C16.1189 136.702 15.3284 135.471 14.8582 134.821C14.0877 133.77 14.0477 133.63 14.3779 133.38C14.628 133.19 15.6586 133.1 17.6597 133.11C19.971 133.12 20.9215 133.22 22.2923 133.61C23.2328 133.88 24.4334 134.32 24.9537 134.59C25.6341 134.931 25.8642 134.981 25.7642 134.751C25.6941 134.58 25.454 133.83 25.2439 133.1C25.0338 132.359 24.5735 130.358 24.2133 128.647C23.8631 126.926 23.4229 124.175 23.2428 122.514C23.0527 120.863 22.8826 119.122 22.7925 117.781L21.2317 117.391C20.3812 117.171 18.9804 116.711 18.12 116.36C17.2695 116.01 16.369 115.6 16.1189 115.46C15.8787 115.32 15.7286 115.16 15.7887 115.11C15.8487 115.07 16.6492 114.589 17.5697 114.059C18.5402 113.489 19.931 112.378 20.9115 111.398C22.1122 110.197 22.8526 109.196 23.5029 107.926C24.0332 106.905 24.8537 104.624 25.444 102.583C26.0143 100.622 26.8848 98.1604 27.3751 97.1199C27.8753 96.0793 28.7058 94.6785 29.2261 93.9981C29.7464 93.3278 30.7069 92.3272 31.3673 91.7869C32.0376 91.2466 32.678 90.7163 32.798 90.6063C32.9181 90.5062 32.3178 90.6663 31.4573 90.9565C30.6068 91.2466 28.6257 91.7569 27.0749 92.0771C25.3539 92.4373 23.0727 92.7174 21.2917 92.8075C19.5908 92.8875 17.4096 92.8375 16.1189 92.6974C14.8982 92.5673 13.0972 92.2472 12.1167 91.997C11.1361 91.7469 9.68533 91.2866 8.89489 90.9665C8.09445 90.6563 6.79374 90.0159 6.0033 89.5457C5.21287 89.0854 3.96218 88.2049 3.22177 87.5946C2.49137 86.9843 1.47081 85.9437 0.950523 85.2833C0.430237 84.623 0.0100055 83.9826 0 83.8626C0 83.7425 0.670369 83.5624 1.50083 83.4623C2.32128 83.3623 4.30237 82.9421 5.89324 82.5318C7.48412 82.1216 9.55526 81.4813 10.5058 81.101C11.4563 80.7208 13.0072 80.0204 13.9477 79.5502C14.8982 79.0699 16.4791 78.0894 17.4496 77.359C18.4301 76.6386 19.6408 75.548 20.1411 74.9377C20.6313 74.3373 21.2617 73.5169 21.5218 73.1166C21.792 72.7164 22.0121 72.3462 22.0121 72.2762C22.0121 72.2162 21.5318 72.1661 20.9515 72.1761C20.3712 72.1761 18.9504 71.936 17.7898 71.6458C16.6291 71.3557 14.9282 70.7353 14.0077 70.2551C12.8771 69.6648 11.7965 68.8543 10.6559 67.7137C9.53524 66.5931 8.71479 65.5325 8.1845 64.4819C7.74426 63.6214 7.22397 62.3707 7.02386 61.7004C6.82375 61.02 6.66366 60.2996 6.66366 60.0795C6.67367 59.7793 6.86377 59.6893 7.50413 59.6893C7.96438 59.6893 8.98494 59.5292 9.78538 59.3291C10.5758 59.129 11.7765 58.6887 12.4468 58.3485C13.1272 58.0083 14.0777 57.438 14.568 57.0678C15.0483 56.7076 16.6492 55.3369 18.12 54.0161C19.5908 52.6954 21.6919 51.0245 22.7925 50.3041C23.8931 49.5837 25.8442 48.5331 29.4562 46.9523L30.3467 45.3914C30.837 44.5209 31.8675 43.0601 32.648 42.1196C33.4184 41.1891 34.7191 39.8383 35.5295 39.1179C36.35 38.4076 37.8208 37.327 38.8013 36.7266C39.7819 36.1163 41.3327 35.3359 42.2432 34.9757C43.1637 34.6255 44.7646 34.1052 45.8052 33.815C47.4961 33.3548 48.1765 33.3048 52.4689 33.2947C56.351 33.2947 57.5917 33.3748 59.0325 33.705C60.013 33.9351 61.764 34.4254 62.9246 34.7956C64.0852 35.1658 65.8362 35.8361 66.8167 36.2864C67.7973 36.7466 69.2981 37.5471 70.1486 38.0774C71.2792 38.7678 71.6494 38.9178 71.5093 38.6177C71.3993 38.3875 71.0691 37.397 70.7789 36.4165C70.4087 35.1558 70.2586 34.0852 70.2586 32.7945C70.2586 31.6739 70.4187 30.4532 70.6589 29.6728C70.879 28.9724 71.3693 27.8918 71.7595 27.2814C72.1397 26.6711 72.77 25.8607 73.8406 24.8301L74.6511 25.8306C75.0913 26.3809 76.362 27.7417 77.4726 28.8623C78.5832 29.9829 80.1341 31.3137 80.9345 31.8139C81.765 32.3542 82.8956 32.8545 83.606 33.0046C84.5265 33.2047 85.2369 33.2047 86.4876 33.0146C87.4081 32.8845 89.009 32.5043 90.0495 32.1741C91.0901 31.8439 92.8911 31.1736 94.0517 30.6833C95.2124 30.193 98.9144 28.4621 102.276 26.8312C105.638 25.2103 110.091 23.1292 112.172 22.1986C114.253 21.2781 117.004 20.1275 118.285 19.6372C119.576 19.147 121.927 18.3365 123.508 17.8362C125.099 17.336 127.7 16.6256 129.291 16.2754C130.882 15.9152 132.983 15.515 133.964 15.3749C134.944 15.2448 136.045 15.0947 136.405 15.0447C136.775 14.9947 139.927 14.9847 143.409 15.0247ZM35.1293 113.719C34.0887 114.79 32.818 115.95 32.2978 116.3L31.3472 116.951C33.0182 119.102 34.1988 120.263 35.0393 120.903C35.9498 121.603 37.3005 122.354 38.3511 122.764C39.3316 123.144 40.6323 123.544 41.2427 123.654C41.853 123.765 43.2538 123.855 44.3544 123.855C45.455 123.845 47.0059 123.704 47.8063 123.544C48.5967 123.374 49.9975 122.924 50.918 122.544C51.8385 122.154 53.3093 121.413 54.1998 120.893L55.8207 119.952C53.1392 119.012 51.0581 118.081 49.4672 117.291C47.8063 116.46 45.7852 115.23 44.6946 114.389C43.654 113.579 42.2032 112.468 41.4628 111.918C40.3922 111.108 39.962 110.917 39.2416 110.927C38.7513 110.927 38.0509 111.128 37.6907 111.358C37.3205 111.588 36.1699 112.648 35.1293 113.719Z" fill="#FAAF19"/>
<path fill-rule="evenodd" clip-rule="evenodd" d="M143.189 19.7072C145.99 19.7573 149.172 19.9374 150.413 20.1275C151.643 20.3076 153.795 20.7178 155.195 21.038C156.606 21.3481 159.058 22.0485 160.648 22.5788C162.229 23.1191 164.481 23.9796 165.651 24.4999C166.812 25.0302 168.663 25.9507 169.763 26.561C170.864 27.1714 172.765 28.352 173.986 29.1825C175.206 30.0129 177.308 31.6338 178.658 32.7844C179.999 33.9351 181.85 35.7261 182.771 36.7566C183.691 37.7972 185.012 39.3881 185.702 40.3086C186.393 41.2291 187.523 42.88 188.214 43.9906C188.914 45.0912 190.015 47.0923 190.665 48.443C191.315 49.7938 192.216 51.945 192.656 53.2357C193.106 54.5164 193.717 56.5775 194.017 57.7982C194.307 59.0289 194.707 61.16 194.887 62.5308C195.067 63.9216 195.217 66.7431 195.217 68.8843C195.217 70.9955 195.117 73.5769 194.987 74.6174C194.867 75.658 194.637 77.0888 194.217 79.0799H177.157C161.009 79.0799 160.098 79.0499 160.198 78.6897C160.258 78.4696 160.458 77.5891 160.638 76.7386C160.819 75.8781 160.969 74.0271 160.969 72.6163C160.979 70.8154 160.839 69.5046 160.528 68.2139C160.288 67.2034 159.808 65.7526 159.468 64.9821C159.118 64.2217 158.437 62.9911 157.937 62.2506C157.447 61.5202 156.346 60.2696 155.486 59.4691C154.575 58.6186 153.254 57.6781 152.284 57.1879C151.383 56.7276 149.842 56.1473 148.862 55.8971C147.661 55.597 146.351 55.4569 144.86 55.4569C143.639 55.4569 141.708 55.617 140.577 55.7971C139.447 55.9772 137.546 56.4374 136.355 56.8177C135.164 57.1979 133.183 57.9883 131.963 58.5786C130.742 59.1689 128.841 60.2395 127.74 60.9699C126.64 61.6903 124.839 63.0411 123.738 63.9616C122.638 64.8921 120.837 66.593 119.736 67.7537C118.635 68.9143 116.934 70.9154 115.954 72.1861C114.983 73.4668 113.442 75.658 112.552 77.0688C111.651 78.4796 110.291 80.8809 109.51 82.4117C108.73 83.9526 107.649 86.3039 107.099 87.6546C106.549 88.9954 105.738 91.2066 105.308 92.5573C104.878 93.898 104.267 96.0092 103.957 97.2299C103.657 98.4606 103.177 100.762 102.907 102.353C102.496 104.774 102.406 106.105 102.406 110.377C102.396 114.419 102.486 115.97 102.807 117.731C103.037 118.952 103.457 120.803 103.757 121.853C104.057 122.894 104.648 124.545 105.068 125.525C105.498 126.506 106.309 128.087 106.889 129.047C107.469 130.008 108.6 131.499 109.39 132.369C110.191 133.24 111.491 134.45 112.282 135.051C113.082 135.651 114.633 136.592 115.734 137.122C116.834 137.662 118.735 138.373 119.956 138.703C121.947 139.233 122.587 139.303 126.069 139.323C129.191 139.333 130.272 139.253 131.512 138.923C132.373 138.693 133.974 138.092 135.074 137.572C136.175 137.062 137.726 136.191 138.516 135.651C139.317 135.111 140.707 133.97 141.608 133.11C142.508 132.239 143.909 130.688 144.72 129.648C145.53 128.617 146.791 126.756 147.531 125.525C148.272 124.305 149.172 122.614 150.193 120.273L169.033 120.283C186.833 120.293 187.883 120.313 187.883 120.683C187.883 120.893 187.623 122.024 187.303 123.184C186.983 124.345 186.323 126.306 185.842 127.527C185.352 128.757 184.421 130.858 183.771 132.209C183.121 133.56 181.8 135.961 180.84 137.552C179.879 139.153 178.398 141.454 177.548 142.685C176.697 143.906 174.996 146.157 173.766 147.688C172.545 149.218 170.084 151.97 168.313 153.791C166.542 155.612 164.04 158.013 162.76 159.124C161.469 160.235 159.318 161.965 157.977 162.966C156.626 163.967 154.375 165.507 152.974 166.388C151.563 167.268 149.262 168.569 147.861 169.29C146.451 170.01 144.399 170.97 143.299 171.431C142.198 171.881 140.447 172.551 139.407 172.901C138.366 173.262 136.365 173.842 134.964 174.202C133.554 174.552 131.452 175.003 130.292 175.193C129.131 175.383 126.68 175.643 124.849 175.773C122.417 175.953 120.726 175.943 118.625 175.763C117.034 175.623 114.683 175.313 113.392 175.063C112.112 174.813 109.911 174.262 108.5 173.832C107.099 173.402 103.197 171.971 99.835 170.64C96.4731 169.31 92.7211 167.919 91.4904 167.549C90.2697 167.178 88.6688 166.748 87.9384 166.588C87.158 166.418 85.1269 166.298 83.0457 166.308C80.1041 166.308 79.1436 166.398 77.4827 166.808C76.3821 167.088 74.5811 167.749 73.4805 168.279C72.3799 168.819 70.6789 169.85 69.7084 170.57C68.7279 171.301 66.6267 173.132 65.0358 174.642C63.4449 176.153 61.5439 177.834 60.8135 178.385C60.0731 178.925 58.9024 179.665 58.2021 180.015C57.4917 180.376 56.241 180.826 55.4205 181.016C54.3399 181.276 53.3794 181.336 52.0287 181.246C50.9881 181.176 49.5873 180.956 48.917 180.756C48.2466 180.566 47.6262 180.336 47.5362 180.256C47.4461 180.175 47.8964 179.835 48.5367 179.495C49.1771 179.165 50.2877 178.365 51.0081 177.714C51.7285 177.074 52.689 175.993 53.1493 175.313C53.5995 174.642 54.3199 173.392 54.7502 172.531C55.1704 171.671 56.1009 169.42 56.8013 167.519C57.5117 165.617 58.4822 163.266 58.9625 162.286C59.4528 161.305 60.2732 159.894 60.8035 159.164C61.3238 158.434 62.2943 157.313 62.9547 156.693C63.605 156.072 64.8457 155.112 65.7062 154.551C66.5567 154.001 68.1075 153.201 69.1481 152.77C70.1887 152.33 71.2092 151.92 71.4293 151.84C71.6395 151.76 71.8196 151.63 71.8196 151.53C71.8296 151.44 71.1492 151.13 70.3187 150.839C69.2581 150.469 68.1275 150.289 66.4766 150.209C64.7357 150.129 63.0247 150.249 59.7029 150.679C56.7913 151.059 54.2199 151.26 52.2488 151.26C49.9976 151.25 48.7769 151.14 47.3561 150.799C46.3155 150.549 44.6646 149.959 43.6941 149.499C42.7135 149.048 41.3128 148.258 40.5824 147.758C39.842 147.257 38.6013 146.257 37.8209 145.546C37.0304 144.826 35.7797 143.435 35.0293 142.455C34.2789 141.474 33.3484 140.174 32.9582 139.563C32.578 138.943 31.7675 137.392 31.1572 136.111C30.5469 134.821 29.7764 132.97 29.4463 131.989C29.1261 131.008 28.6158 129.147 28.3156 127.867C27.9354 126.236 27.7353 124.535 27.5152 119.062L28.5057 120.403C29.046 121.133 30.0866 122.284 30.817 122.964C31.5474 123.634 32.7381 124.585 33.4685 125.065C34.1989 125.545 35.3995 126.216 36.1299 126.546C36.8603 126.886 38.3111 127.376 39.3517 127.657C40.8325 128.047 41.8831 128.167 44.1343 128.177C45.7852 128.187 47.6963 128.067 48.5868 127.887C49.4372 127.717 50.838 127.326 51.6985 127.026C52.549 126.726 54.8002 125.746 56.7012 124.855C58.5923 123.965 60.9436 122.974 61.9241 122.644C62.9047 122.324 64.5055 121.903 65.4761 121.723C66.4566 121.533 67.4872 121.333 67.7573 121.283C68.0375 121.223 68.2676 121.053 68.2676 120.903C68.2776 120.753 67.7973 120.162 67.217 119.602C66.6267 119.042 65.426 118.211 64.5355 117.761C63.6451 117.311 62.1442 116.681 61.2037 116.36C60.2532 116.04 57.9719 115.44 56.1409 115.03C53.7696 114.499 52.2988 114.029 51.0281 113.399C50.0476 112.919 48.3967 111.838 47.3561 110.997C46.3155 110.157 44.8647 108.986 44.1343 108.386C43.4039 107.786 42.1532 106.985 41.3528 106.615C40.2422 106.095 39.6018 105.945 38.5813 105.945C37.6708 105.955 36.9604 106.105 36.35 106.415C35.8598 106.675 35.0593 107.265 34.5791 107.746C34.0888 108.226 32.8881 109.437 31.9076 110.457C30.6969 111.718 29.7064 112.508 28.7959 112.959C27.9254 113.399 26.9549 113.669 24.5736 113.899L25.6842 112.888C26.2945 112.328 27.115 111.338 27.5152 110.677C27.9054 110.017 28.4357 108.886 28.6958 108.146C28.956 107.415 29.4563 105.504 29.8165 103.914C30.2767 101.872 30.747 100.462 31.4073 99.1409C31.9876 97.9803 32.8681 96.6996 33.7086 95.7991C34.5891 94.8386 35.5796 94.0581 36.5902 93.5178C37.4406 93.0576 38.7814 92.5373 39.5818 92.3472C40.3723 92.1571 41.8431 91.997 42.8536 91.997C43.8642 91.997 45.4651 92.1571 46.4156 92.3472C47.3661 92.5373 49.037 92.9976 50.1376 93.3678C51.2382 93.728 53.1893 94.4884 54.47 95.0387C55.7607 95.599 57.5117 96.2994 58.3622 96.5895C59.2226 96.8797 60.0931 97.1198 60.3132 97.1198C60.5233 97.1198 60.7034 97.0498 60.7034 96.9497C60.7134 96.8597 60.2332 96.4395 59.6529 96.0092C59.0625 95.589 57.6518 94.3383 56.5011 93.2277C55.3605 92.1171 53.6195 90.216 52.649 88.9853C51.6685 87.7647 50.2577 86.1238 49.5073 85.3534C48.6568 84.4829 47.6262 83.6924 46.8058 83.2922C46.0654 82.932 44.8647 82.5318 44.1343 82.3917C43.3939 82.2516 41.8631 82.1916 40.6924 82.2616C39.5018 82.3317 37.9409 82.5818 37.1305 82.842C36.34 83.0921 34.389 84.0126 32.7981 84.8831C31.2072 85.7536 29.3062 86.7041 28.5758 86.9943C27.8354 87.2944 26.6347 87.6846 25.9043 87.8647C25.1739 88.0548 23.523 88.315 22.2323 88.4551C20.9516 88.5951 19.1006 88.6452 18.12 88.5651C17.1395 88.4851 15.7387 88.275 15.0083 88.0848C14.2779 87.8947 12.8971 87.3745 11.9466 86.9242C10.9961 86.464 10.2157 86.0137 10.2257 85.9237C10.2257 85.8336 10.6059 85.7035 11.0661 85.6335C11.5164 85.5635 12.7971 85.1432 13.8977 84.713C14.9983 84.2728 16.4991 83.5724 17.2295 83.1421C17.9699 82.7119 19.1206 81.9315 19.7909 81.4112C20.4613 80.8909 21.8621 79.5602 22.9027 78.4696C23.9432 77.379 25.8943 75.2978 27.235 73.847C28.5858 72.3962 30.2367 70.7953 30.9071 70.3051C31.5774 69.8148 32.8281 69.0344 33.6886 68.5841C34.539 68.1239 36.0399 67.5035 37.0204 67.1934C38.001 66.8832 39.952 66.463 41.3528 66.2528C43.3739 65.9627 44.8247 65.9027 48.2466 66.0027C51.5084 66.0928 53.0792 66.2328 54.5901 66.583C55.6907 66.8332 58.7924 67.7837 61.4739 68.6942C64.2754 69.6447 67.2771 70.5052 68.4777 70.7053C69.6484 70.8954 70.9191 71.0555 71.3193 71.0555C71.7095 71.0555 72.0397 70.9754 72.0497 70.8854C72.0497 70.7953 71.2292 70.0649 70.2087 69.2745C69.1981 68.4741 67.3071 66.7731 66.0164 65.4824C64.7257 64.2017 62.8746 62.1406 61.9041 60.9199C60.9336 59.6892 58.9925 57.0978 57.5917 55.1467C56.181 53.1957 54.3299 50.8544 53.4695 49.9439C52.619 49.0234 51.3183 47.8927 50.5879 47.4125C49.8475 46.9322 48.4767 46.2919 47.5262 45.9917C46.5457 45.6715 44.9648 45.3814 43.8542 45.3013C42.4734 45.2113 41.4328 45.2713 40.2422 45.5314C39.3317 45.7216 37.9809 46.1618 37.2405 46.512C36.5101 46.8522 35.4295 47.4525 34.8492 47.8427C34.2689 48.2329 33.7486 48.5331 33.6886 48.5031C33.6386 48.4631 34.2189 47.5926 34.9893 46.552C35.7697 45.5114 36.9904 44.1207 37.7108 43.4603C38.4312 42.81 39.5718 41.8995 40.2422 41.4392C40.9126 40.9689 42.0132 40.3186 42.6935 39.9784C43.3639 39.6382 44.6146 39.1179 45.4651 38.8278C46.3255 38.5276 47.8764 38.1474 48.917 37.9673C49.9575 37.7772 51.9086 37.6371 53.2493 37.6371C54.7402 37.6371 56.4811 37.8072 57.7018 38.0573C58.8024 38.2775 60.6534 38.8478 61.8141 39.308C62.9747 39.7683 64.4755 40.4587 65.1459 40.8289C65.8163 41.1991 67.9674 42.4598 69.9285 43.6204C71.8796 44.781 74.6811 46.3119 76.1519 47.0223C77.6228 47.7327 79.7739 48.6232 80.9346 49.0134C82.0952 49.4036 83.9963 49.9039 85.1569 50.124C86.3175 50.3441 87.7383 50.5542 88.3086 50.5942C88.8789 50.6343 89.4192 50.5942 89.5093 50.5042C89.6093 50.4141 89.5093 50.3341 89.3092 50.3341C89.1091 50.3341 88.909 50.2641 88.8789 50.174C88.8489 50.0739 88.2786 49.7137 87.6082 49.3535C86.9279 48.9934 85.6272 48.2029 84.7166 47.5926C83.7961 46.9822 82.1352 45.5715 81.0346 44.4509C79.7939 43.2102 78.5733 41.6993 77.8629 40.5387C77.2225 39.4881 76.4121 37.8372 76.0619 36.8567C75.7117 35.8761 75.3515 34.5754 75.0914 32.8445L75.9718 33.855C76.4621 34.4053 77.5527 35.3258 78.3932 35.9062C79.2436 36.4965 80.5344 37.1869 81.2648 37.457C82.3353 37.8472 83.0557 37.9373 84.9368 37.9273C86.2175 37.9173 88.0185 37.7572 88.939 37.5571C89.8595 37.367 91.7105 36.8367 93.0512 36.3864C94.392 35.9362 96.6932 35.0457 98.164 34.4053C99.6349 33.765 103.937 31.7339 107.729 29.8928C111.521 28.0518 115.774 26.0507 117.175 25.4404C118.585 24.8301 120.987 23.8695 122.507 23.3192C124.038 22.7689 126.39 22.0085 127.74 21.6283C129.081 21.2581 131.232 20.7378 132.513 20.4877C133.804 20.2375 135.605 19.9374 136.515 19.8273C137.436 19.7072 140.437 19.6572 143.189 19.7072ZM37.6908 50.8744C39.6419 50.9344 41.2928 51.1045 42.1332 51.3346C42.8636 51.5448 44.4145 52.1551 45.5851 52.7054C46.7458 53.2557 48.3466 54.1762 49.1371 54.7465C49.9375 55.3168 51.4083 56.5575 52.4189 57.518C53.4294 58.4686 54.2099 59.319 54.1598 59.4191C54.0998 59.5091 53.3294 59.3991 52.4289 59.189C51.5384 58.9688 49.9575 58.7287 48.917 58.6487C47.7263 58.5586 46.4856 58.6186 45.5851 58.7887C44.7847 58.9488 43.6341 59.259 43.0237 59.4891C42.4134 59.7092 40.1621 61.06 38.021 62.4808C35.5096 64.1517 33.4985 65.3023 32.3478 65.7426C31.3773 66.1228 29.6264 66.623 28.4557 66.8732C27.0149 67.1633 25.434 67.3134 23.453 67.3134C21.4619 67.3234 20.0811 67.2134 19.0105 66.9532C18.15 66.7431 16.7593 66.2028 15.9088 65.7526C15.0583 65.3023 13.8777 64.4519 13.2974 63.8715C12.707 63.2912 12.2268 62.7409 12.2268 62.6409C12.2268 62.5508 12.597 62.4107 13.0572 62.3207C13.5175 62.2306 14.6981 61.7604 15.6787 61.2701C16.6492 60.7798 18.2701 59.7493 19.2607 58.9788C20.2512 58.2084 21.9021 56.9277 22.9327 56.1373C23.9532 55.3368 25.444 54.2963 26.2345 53.816C27.0349 53.3357 28.3857 52.6454 29.2361 52.2752C30.0966 51.915 31.6475 51.4247 32.688 51.2046C34.1789 50.8744 35.2294 50.8043 37.6908 50.8744ZM22.6525 138.663C22.9727 138.753 23.7731 139.193 24.4435 139.633C25.1039 140.083 26.0844 140.954 26.6147 141.564C27.145 142.175 28.7459 144.436 30.1767 146.577C31.9676 149.279 33.3084 151.029 34.5591 152.28C35.8098 153.531 36.7903 154.291 37.8008 154.782C38.5913 155.172 39.9921 155.652 40.9126 155.842C42.0432 156.082 43.1238 156.152 44.2444 156.072C45.1649 156.002 46.8658 155.652 48.0265 155.292C49.1871 154.932 51.2883 154.231 52.699 153.731C54.0998 153.231 56.0009 152.72 56.9214 152.59C57.8419 152.46 59.0926 152.41 59.7029 152.48C60.3132 152.55 61.2838 152.73 61.8741 152.88C62.4544 153.031 62.9347 153.201 62.9347 153.261C62.9347 153.321 62.2543 153.771 61.4238 154.261C60.6034 154.752 59.1726 155.742 58.2521 156.472C57.3416 157.203 55.4906 158.954 54.1398 160.375C52.7991 161.795 50.9481 163.676 50.0276 164.577C49.067 165.507 47.7463 166.518 46.9159 166.958C46.1154 167.368 44.8147 167.889 44.0243 168.089C43.1638 168.319 41.723 168.469 40.4623 168.479C39.1716 168.479 37.7908 168.329 36.9104 168.099C36.1099 167.889 34.8592 167.388 34.1288 166.978C33.3984 166.568 32.2078 165.698 31.4874 165.037C30.767 164.377 29.6163 162.986 28.936 161.945C28.2456 160.905 27.3251 159.204 26.8748 158.163C26.4346 157.123 25.8543 155.562 25.6041 154.711C25.344 153.851 24.9338 152.15 24.6836 150.919C24.4335 149.699 24.1333 147.488 24.0233 146.017C23.8832 144.146 23.6431 142.815 23.2228 141.564C22.8926 140.584 22.5024 139.493 22.3524 139.143C22.0822 138.513 22.0922 138.503 22.6525 138.663Z" fill="#D2001C"/>
</g>
<defs>
<clipPath id="clip0_106_6005">
<rect width="200" height="200" fill="white"/>
</clipPath>
</defs>
</svg>
