<svg width="200" height="200" viewBox="0 0 200 200" fill="none" xmlns="http://www.w3.org/2000/svg">
<path d="M198.899 126.459C198.899 119.172 206.045 92.114 154.081 51.1907L162.815 49.2437L158.31 34.418L149.646 40.2V31.2221H132.63C121.52 23.2168 116.181 13 98.7128 13C91.4165 13 83.7465 14.4475 82.0788 14.4475C80.7926 14.4475 76.9005 13.6254 70.2866 13.6254C51.1854 13.6254 49.4252 27.8739 51.8098 32.8771C26.6876 50.0893 14.2465 62.4852 14.2465 66.9791C14.2465 68.7038 15.2672 70.9517 15.2672 74.1947C15.2672 81.261 0 96.8291 0 105.076C0 112.756 9.79989 113.289 9.79989 113.289C10.3555 115.547 6.55686 123.088 9.96214 126.933C5.23723 132.064 10.7508 134.624 10.7508 138.701C10.7508 141.459 8.82836 142.315 8.82836 147.412C8.82836 153.227 11.5502 160.213 25.8892 160.213C31.5532 160.213 36.5701 159.333 40.5546 159.333C41.6795 171.369 46.8106 176.094 47.6562 179.106C48.3514 181.527 49.9277 186.752 53.1118 186.752C57.2713 186.752 80.2163 179.246 97.6371 168.67C106.359 171.903 117.469 170.848 121.5 170.848C125.913 170.848 127.72 173.536 130.326 173.536C131.889 173.536 143.716 160.296 142.998 131.338C150.422 143.895 154.813 152.061 155.241 156.741C164.879 153.299 172.976 130.539 169.477 116.037C169.477 116.037 181.605 135.717 200 132.822C199.941 132.865 198.899 129.239 198.899 126.459Z" fill="black"/>
<path d="M83.3172 144.447C87.7658 137.613 85.2297 125.856 76.7623 129.111C71.8751 121.13 66.337 110.312 66.337 96.9562C66.337 82.7205 69.2447 78.9908 69.2447 66.411C69.2447 44.9822 59.3288 40.7421 52.9705 36.4331C37.8174 46.6843 17.721 60.7352 17.721 68.2065C17.721 70.4072 18.6945 72.4811 18.6945 74.6474C18.6945 82.3842 3.63477 97.4076 3.63477 104.682C3.63477 107.416 5.81285 109.697 9.31056 109.697C12.8083 109.697 21.7163 108.436 25.0635 108.042C28.4108 107.706 28.7805 106.073 28.7805 105.193C28.7805 103.015 25.3408 99.9908 22.735 99.9908C20.5569 99.9908 20.3603 101.266 20.3603 101.591C20.3603 103.017 22.4105 103.42 22.4105 103.42C25.0163 103.074 25.0281 105.355 22.5482 105.355C20.5107 105.355 18.2284 103.85 18.2284 101.254C18.2284 98.6486 20.3131 97.9996 21.8648 97.9996C28.3744 97.9996 32.116 103.884 31.0393 107.636C39.1124 111.645 38.8804 117.519 37.5489 117.519C34.7563 117.519 36.6905 110.093 26.1845 110.093C23.2444 110.093 17.0809 110.973 15.6216 111.135C14.1958 111.297 13.7562 111.506 13.5831 112.722C13.3983 113.904 11.88 118.248 11.88 120.911C11.88 124.849 14.5094 125.116 16.2008 125.116C20.6258 125.116 28.1188 124.05 28.1188 122.29C28.1188 121.131 26.2209 121.479 25.5247 121.479C24.1913 121.479 23.5895 120.667 23.5895 120.192C23.5895 119.009 25.5011 118.454 27.7707 118.454C31.5349 118.454 31.9302 120.922 31.7433 122.056C31.3264 124.593 35.4033 123.978 35.4033 129.365C35.4033 129.979 35.3571 131.518 34.0709 131.518C32.7748 131.518 32.763 129.91 32.763 129.006C32.763 128.126 31.292 126.701 30.0294 126.701C28.697 126.701 23.854 129.191 13.4307 128.241C9.31843 133.419 14.1722 133.789 14.1722 139.013C14.1722 144.829 12.3884 144.471 12.3884 148.015C12.3884 155.092 20.1489 156.934 27.8985 156.934C43.9298 156.934 62.0231 153.226 68.3941 141.748C66.216 151.884 58.0494 155.51 44.1618 158.671C45.7371 169.92 48.0657 172.515 49.757 175.549C51.4483 178.607 51.819 182.858 54.8074 182.858C58.3867 182.858 79.4792 175.26 93.6687 166.699L83.3172 144.448V144.447Z" fill="#D18A00"/>
<path d="M63.279 122.209C60.1982 118.861 55.5765 109.131 64.7618 100.802C57.7428 98.9141 48.0816 117.702 63.279 122.209ZM52.2853 57.3417C52.4875 57.5809 52.775 57.7317 53.0867 57.762C53.3984 57.7923 53.7096 57.6997 53.954 57.504C54.3238 57.1795 54.5785 56.4026 54.0917 55.8362C53.954 55.6622 50.8713 52.014 46.5623 48.4809C47.0717 48.0974 47.7443 47.6008 48.4621 47.0551C50.2911 48.5851 57.381 54.6661 61.8413 60.215C62.2711 60.7244 63.0017 60.7952 63.5101 60.3891C64.0194 59.9839 64.0774 59.2543 63.6949 58.744C59.3289 53.3219 52.7603 47.6225 50.4101 45.5968C51.185 45.0402 51.8556 44.5181 52.2047 44.2752C56.9886 47.7503 59.6977 51.0858 59.7341 51.1212C60.1392 51.6305 60.8806 51.7112 61.3792 51.306C61.8885 50.8891 61.9928 50.1595 61.5876 49.6501C61.4372 49.4652 58.379 45.7236 52.8655 41.8542C52.4486 41.5533 51.9038 41.5651 51.4751 41.8778L43.9693 47.4956C43.2741 48.0069 43.4137 48.9214 43.9457 49.3738C48.6391 53.0219 52.2529 57.2945 52.2873 57.3417H52.2853ZM50.0414 67.1868C42.8945 67.1868 40.5424 59.5188 31.5645 59.5188C26.7462 59.5188 24.2682 61.4068 24.2682 63.0057C24.2682 64.6046 26.1336 66.0049 26.1336 66.0049C27.0383 67.9755 20.7823 70.13 24.0715 71.4496L28.113 73.0249C26.8052 75.318 27.6509 79.5699 27.9065 80.6359C19.6347 80.7047 20.4332 83.2761 27.6047 83.3794C27.6292 84.5623 26.7836 87.7237 28.0688 87.7237C29.4238 87.7237 31.1614 86.1366 31.8222 83.1247C37.8441 82.3833 44.632 80.3104 44.632 80.3104C45.8366 79.9761 47.053 78.8747 44.7245 77.4981L33.6522 70.9756C33.6522 70.9756 32.7023 70.42 33.3277 68.9716L34.1733 67.0128C34.4162 66.4228 35.019 66.3412 35.3081 66.3412C38.4587 66.3412 43.1964 71.0553 49.4514 71.0553C52.1614 71.0553 55.1842 69.4672 55.1842 67.9381C55.1842 66.409 51.4672 67.1868 50.0414 67.1868Z" fill="black"/>
<path d="M32.9078 74.8906C32.2942 77.1818 32.7229 79.8122 32.8734 80.5074C39.975 80.0787 42.8837 78.7817 42.8837 78.7817L32.9078 74.8906ZM21.9731 133.906C21.1963 134.29 24.3597 140.857 23.7923 143.799C24.2663 145.131 26.2359 150.019 29.5596 148.328C32.8734 146.637 30.0709 142.202 29.2714 141.019C26.5378 139.731 22.75 133.488 21.9751 133.905L21.9731 133.906ZM51.244 87.3062C48.4985 88.0368 45.9851 90.7577 41.0173 92.0911C39.1746 92.566 35.9532 92.1029 34.9935 92.1029C35.7467 93.1226 37.7271 94.8955 37.7271 94.8955C37.7271 94.8955 36.9975 96.7019 36.847 97.9409C37.6691 97.4552 40.0792 95.9959 41.921 95.5219C46.9016 94.2121 50.4229 95.3587 53.1684 94.6409C54.4546 94.2819 56.8165 93.6329 55.8676 89.9848C54.9158 86.3563 52.5184 86.9453 51.244 87.3062Z" fill="white"/>
<path d="M80.4108 130.164C77.3762 129.285 73.7733 132.47 72.3721 137.266C70.9806 142.062 72.3131 146.66 75.3368 147.564C78.3714 148.444 81.9625 145.282 83.3637 140.464C84.766 135.668 83.4227 131.046 80.4098 130.165L80.4108 130.164ZM25.5064 132.274C24.0216 130.212 23.2231 132.065 21.6478 132.911C20.0725 133.698 18.0685 133.27 18.9142 135.668C19.8061 138.274 17.9181 143.568 18.7401 145.167C19.4108 146.452 20.8474 146.95 22.0176 146.371C23.0717 145.804 23.5811 144.876 23.7895 143.789C24.3569 140.846 22.6548 136.78 23.4306 136.364C24.1947 135.958 26.5232 139.734 29.2451 140.996C30.2412 141.448 31.2953 141.588 32.3622 141.067C33.5324 140.453 33.9601 138.958 33.3111 137.674C32.4773 136.074 27.0916 134.511 25.5035 132.276L25.5064 132.274ZM46.9696 97.1294C46.1584 97.3506 44.9194 98.0459 42.8809 98.5896C40.8533 99.1344 38.3045 99.1452 37.8994 97.5817C37.8551 97.4468 37.851 97.302 37.8876 97.1648C38.038 95.9032 39.8798 94.2246 39.8798 94.2246C39.8798 94.2246 37.447 93.6789 36.6938 92.6483C36.6093 92.5358 36.543 92.4107 36.4971 92.2776C36.0812 90.7259 38.3281 89.4751 40.3557 88.9412C42.3716 88.3964 43.8072 88.3964 44.6303 88.1997C46.2744 87.7592 47.6521 86.6707 47.3167 85.3736C46.6579 82.9517 43.5171 83.5427 41.7806 83.994C33.0919 86.2872 31.1704 89.8547 31.8066 92.3327C32.4556 94.8009 35.268 95.4381 35.268 95.4381C35.268 95.4381 33.1381 97.3851 33.7861 99.8512C34.4233 102.307 37.863 104.461 46.5497 102.18C48.3001 101.718 51.3346 100.685 50.7092 98.276C50.3484 96.9455 48.599 96.7026 46.9667 97.1314L46.9696 97.1294ZM135.942 49.1172C110.595 68.0896 96.9623 96.3771 92.8165 106.06C92.8165 106.06 92.2718 107.195 92.909 108.435L100.936 124.073C101.272 124.732 101.99 124.837 102.535 124.338L115.741 112.42C116.644 111.586 116.945 110.267 116.945 110.267C122.967 75.8048 131.088 58.9633 136.149 51.3297C135.978 50.7746 135.892 50.1966 135.895 49.6157C135.941 49.4407 135.941 49.2785 135.941 49.1162L135.942 49.1172Z" fill="#CF0A2C"/>
<path d="M156.977 39.0161L150.166 43.5218L151.753 48.7098L159.399 47.0185L156.978 39.0142L156.977 39.0161ZM138.293 54.8379C137.795 54.402 137.369 53.8903 137.03 53.3216C128.91 66.341 118.543 98.9139 118.543 126.794C118.543 155.324 127.277 170.474 130.416 170.474C132.837 170.474 141.385 155.208 141.385 135.516C141.385 130.13 136.879 108.573 136.879 68.0893C136.891 59.4262 137.54 57.1094 138.292 54.8389L138.293 54.8379ZM94.8203 106.905L102.013 122.452L115.102 110.323C115.102 110.323 121.415 73.5114 132.664 53.2174C102.974 82.0123 94.8203 106.905 94.8203 106.905ZM142.903 44.3458C142.208 44.3454 141.52 44.482 140.877 44.7478C140.235 45.0136 139.651 45.4034 139.16 45.8949C138.668 46.3864 138.278 46.97 138.012 47.6123C137.747 48.2546 137.61 48.9429 137.61 49.6381C137.61 52.5684 139.985 54.9304 142.903 54.9304C145.822 54.9304 148.197 52.5674 148.197 49.6371C148.197 46.7068 145.821 44.3428 142.902 44.3428L142.903 44.3458Z" fill="#00833E"/>
<path d="M122.228 54.0162C123.988 54.0162 123.768 51.6415 122.11 51.6415C96.7438 51.6415 82.2062 54.8619 79.9711 55.3949C78.558 42.9655 71.4112 38.9929 71.4112 30.9541C71.4112 27.8252 73.4732 27.1998 75.1646 27.1998C81.0941 27.1998 85.5427 34.15 93.7663 34.15C101.412 34.15 103.056 28.7288 107.423 28.7288C113.956 28.7288 111.083 46.1269 122.666 46.1269C126.326 46.1269 128.724 44.6677 128.724 44.6677C130.312 43.7994 128.817 41.934 127.485 42.6292C127.485 42.6292 125.157 43.822 122.876 43.822C113.076 43.822 117.35 26.3659 107.182 26.3659C102.305 26.3659 100.672 31.7408 93.6414 31.7408C85.7747 31.7408 82.6595 24.71 74.8637 24.71C70.4387 24.71 68.8516 27.6639 68.8516 30.6395C68.8516 39.5484 77.6426 46.3236 77.6426 58.5327C77.6426 70.962 73.4044 81.8848 73.4044 99.1443C73.4044 119.263 92.5164 125.195 92.5164 143.949C92.5164 154.559 96.5933 161.092 101.134 161.092C103.636 161.092 105.964 159.621 107.077 155.729C107.735 155.995 108.316 156.134 108.837 156.134C110.125 156.134 114.873 154.756 114.873 149.162C114.873 133.164 87.3982 124.906 87.3982 99.8513C87.3982 87.8055 89.3324 68.5302 92.2854 68.5302C93.839 68.5302 95.7732 75.2719 99.4676 75.2719C104.055 75.2719 102.457 61.9615 104.494 61.9615C106.14 61.9615 108.583 68.1821 111.491 68.1821C113.843 68.1821 114.62 63.352 115.627 59.5642C116.01 57.7922 113.518 57.3055 113.159 59.0892C112.522 61.9035 111.19 65.6343 111.19 65.6343C109.673 64.1396 107.274 59.575 104.356 59.575C99.6997 59.575 100.383 72.8598 99.329 72.8598C97.382 72.8598 96.1548 65.9568 91.9048 65.9568C86.4375 65.9568 84.8268 84.9764 84.8268 99.9428C84.8268 126.271 112.326 135.097 112.326 148.893C112.326 152.357 109.789 153.55 108.769 153.55C108.364 153.55 107.958 153.434 107.53 153.307C107.668 152.356 107.738 151.291 107.738 150.121C107.738 142.001 103.267 140.461 101.449 140.461C99.6397 140.461 98.6102 142.048 98.6102 144.666C98.6102 148.176 101.715 152.067 104.736 154.302C104.274 156.492 103.324 158.508 101.285 158.508C97.3358 158.508 95.0898 149.343 95.0898 143.866C95.0898 124.07 75.9876 118.347 75.9876 98.574C75.9876 81.7324 80.2386 70.9374 80.2386 59.7481C80.2386 59.0647 80.2268 58.393 80.1923 57.7224C82.808 57.1383 99.1756 53.4783 122.226 54.0113L122.228 54.0162Z" fill="#FFD100"/>
<path d="M101.898 142.954C101.54 142.954 101.181 143.475 101.181 144.83C101.181 146.371 102.906 149.556 105.061 151.664C105.13 150.575 105.12 149.672 105.12 149.196C105.118 147.413 104.111 142.954 101.898 142.954Z" fill="black"/>
<path d="M135.004 60.2847C135.004 60.2847 120.549 90.7139 120.549 126.171C120.549 149.65 127.833 167.593 129.849 167.593C131.436 167.593 138.85 156.415 138.85 133.086C138.85 123.68 133.765 87.8878 135.004 60.2847Z" fill="#FFD100"/>
<path d="M128.111 104.949L122.886 108.981C122.273 114.03 121.867 119.255 121.798 124.618L127.543 120.701C127.59 116.115 127.74 110.868 128.111 104.948V104.949ZM131.98 81.1329C131.063 88.8423 130.36 96.5756 129.872 104.324L135.71 108.634C134.923 100.049 134.101 90.4363 133.741 81.2509C133.695 79.9431 132.247 78.714 131.981 81.1349L131.98 81.1329ZM129.235 121.594L137.332 127.177C137.042 122.693 136.451 116.856 135.837 110.37L129.78 105.865C129.465 111.102 129.284 116.347 129.235 121.594ZM130.208 81.1919C130.415 79.6048 129.095 79.8595 128.829 80.7868C126.64 88.2011 124.463 97.2478 123.106 107.162L128.191 103.246C128.681 95.8792 129.353 88.5256 130.207 81.1919H130.208ZM123.059 143.221C123.466 145.931 123.941 148.445 124.485 150.726C125.319 151.631 127.648 153.286 129.616 147.379C132.964 152.927 135.072 152.197 135.721 151.722C136.173 149.684 136.578 147.448 136.903 144.957L128.876 139.618L123.061 143.221H123.059ZM129.732 138.587L137.088 143.499C137.454 140.051 137.636 136.587 137.632 133.12C137.632 131.961 137.564 130.537 137.47 128.891L129.236 123.239C129.212 130.236 129.512 135.367 129.732 138.587ZM127.52 122.325L121.797 126.24C121.797 131.845 122.203 137.082 122.864 141.784L128.018 138.575C127.739 135.124 127.497 129.69 127.519 122.324L127.52 122.325Z" fill="#00833E"/>
<path d="M104.575 90.1902C101.064 95.9702 98.2156 102.108 96.9638 104.947C96.4663 106.163 96.2578 106.847 96.2578 106.847L102.431 120.167L113.806 109.58C113.944 108.988 114.965 103.324 116.725 95.6673C119.285 84.8251 123.559 68.9443 128.262 59.3076C117.883 70.5196 109.508 82.3225 104.574 90.1882L104.575 90.1902Z" fill="#CF0A2C"/>
<path d="M142.904 53.0075C144.772 53.0075 146.287 51.493 146.287 49.6249C146.287 47.7567 144.772 46.2422 142.904 46.2422C141.036 46.2422 139.521 47.7567 139.521 49.6249C139.521 51.493 141.036 53.0075 142.904 53.0075Z" fill="#CF0A2C"/>
<path d="M119.969 71.6448C119.68 71.4943 119.285 71.6104 119.158 71.9103C116.97 76.2508 114.911 80.6548 112.982 85.1165L105.755 88.3123C105.35 88.9514 104.978 89.5513 104.608 90.1668L112.255 86.7842C110.262 91.4649 108.653 95.7148 107.297 99.4102L97.6599 103.314C97.4294 103.848 97.2052 104.385 96.9873 104.924L106.74 100.961C103.751 109.477 102.523 114.711 102.489 114.792C102.42 115.104 102.617 115.475 102.951 115.51C103.03 115.528 103.112 115.529 103.192 115.514C103.272 115.5 103.348 115.469 103.416 115.425C103.484 115.381 103.542 115.323 103.588 115.256C103.634 115.189 103.666 115.114 103.682 115.034C103.705 114.966 104.886 109.951 107.759 101.713L112.937 110.412L113.817 109.578L113.841 109.554L108.292 100.218C109.496 96.8358 110.957 92.9792 112.728 88.7509L116.736 95.644C116.873 95.0638 116.978 94.4837 117.141 93.8937L113.341 87.325C115.288 82.7388 117.546 77.7346 120.244 72.4531C120.397 72.1758 120.258 71.8287 119.969 71.6428V71.6448Z" fill="white"/>
<path d="M146.75 34.0361H135.595L142.718 41.7504H146.75V34.0361ZM188.102 89.5895C175.951 70.0605 154.73 53.6467 149.865 50.0104C149.796 51.1333 148.706 52.9859 148.174 53.9014C147.515 54.6094 146.748 55.4423 146.366 55.6616C147.2 59.0344 148.497 63.8527 150.211 69.4479C152.772 75.6557 155.621 83.3129 158.042 91.2926C160.8 97.8938 164.009 104.473 167.635 110.3C182.682 134.486 197.705 131.161 197.705 131.161C195.122 127.051 202.697 113.091 188.103 89.5885L188.102 89.5895Z" fill="#FF671B"/>
<path d="M183.608 90.9776C174.017 75.5393 153.584 57.1785 148.951 53.0898C148.685 53.5992 148.313 54.0732 147.908 54.5029C150.827 62.7963 162.202 93.9326 172.685 110.775C182.912 127.246 192.909 126.436 192.909 126.436C192.909 126.436 196.268 111.388 183.607 90.9767L183.608 90.9776Z" fill="white"/>
<path d="M149.447 55.2212C151.082 59.7622 154.29 68.506 158.275 78.1791L159.341 72.3184L154.141 63.9542C154.097 63.8846 154.067 63.8068 154.054 63.7256C154.04 63.6443 154.044 63.5612 154.063 63.4812C154.083 63.4012 154.118 63.3259 154.167 63.2599C154.216 63.1938 154.278 63.1383 154.349 63.0967C154.662 62.9227 155.033 63.0043 155.183 63.3052L160.188 71.2977L167.901 73.2093C160.534 65.323 153.087 58.4524 149.449 55.2212H149.447Z" fill="#FF671B"/>
<path d="M161.066 72.8042L170.275 87.6073L182.23 91.1404C178.86 85.8235 174.226 80.1595 169.408 74.8662L161.066 72.8042ZM159.119 80.2874C161.355 85.6623 163.823 91.2564 166.359 96.5045L169.347 88.4412L160.3 73.8819L159.12 80.2874H159.119ZM191.866 125.173C192.132 122.844 192.55 116.624 190.013 108.041L182.09 106.593L186.746 114.099C186.955 114.365 186.839 114.758 186.539 114.933C186.272 115.12 185.855 115.027 185.681 114.727L180.978 107.127L177.988 116.058C184.199 123.448 189.713 124.873 191.867 125.174L191.866 125.173ZM171.249 89.1826L181.2 105.181L189.598 106.71C188.265 102.517 186.25 97.7789 183.192 92.7167L171.25 89.1836L171.249 89.1826ZM177.064 114.946L180.145 105.781L170.193 89.7628L167.135 98.0444C169.314 102.469 171.526 106.604 173.716 110.126C174.851 111.933 175.963 113.544 177.063 114.944L177.064 114.946Z" fill="#FF671B"/>
<path d="M31.8895 65.5646L27.3829 66.7692C26.433 67.0131 26.3868 67.5579 27.2905 67.9984L30.7076 69.6435C30.7903 69.6834 30.8801 69.7064 30.9718 69.711C31.0635 69.7157 31.1553 69.7019 31.2416 69.6706C31.3279 69.6392 31.4071 69.5909 31.4744 69.5285C31.5418 69.4661 31.596 69.3909 31.6339 69.3072L32.804 66.6207C33.1403 65.8213 32.7234 65.3463 31.8895 65.5666V65.5646Z" fill="#D18A00"/>
<path d="M80.9482 139.766C81.8348 136.72 81.1843 133.851 79.4953 133.36C77.8063 132.868 75.7184 134.94 74.8318 137.987C73.9453 141.033 74.5957 143.902 76.2847 144.393C77.9737 144.885 80.0616 142.813 80.9482 139.766Z" fill="#D18A00"/>
<path d="M158.043 91.3024C155.622 83.3345 152.772 75.6773 150.212 69.4577C148.497 63.8527 147.199 59.0324 146.366 55.6733C144.876 56.5157 143.13 56.787 141.455 56.4364C140.796 56.2987 140.216 56.0657 139.626 55.7648C137.47 105.713 142.428 114.355 143.331 128.625C155.933 148.49 156.386 154.282 156.386 154.282C156.386 154.282 171.108 143.961 167.726 113.336C167.245 112.618 166.778 111.892 166.324 111.157C164.222 107.733 162.289 104.208 160.532 100.594" fill="#FFD100"/>
<path d="M162.201 108.991C161.757 106.17 161.197 103.369 160.522 100.594C159.804 97.4893 158.935 94.3731 158.031 91.3149C155.61 83.346 152.738 75.6898 150.201 69.4692C147.688 63.3765 145.52 58.685 144.478 56.4263C143.957 56.5423 143.436 56.6111 142.892 56.6111C142.393 56.6111 141.896 56.5521 141.444 56.4607C140.97 61.8356 139.256 84.817 142.533 105.504C147.212 135.181 158.483 145.929 158.483 145.929C158.483 145.929 166.279 134.719 162.201 108.991Z" fill="#001970"/>
<path d="M147.745 90.0974L143.853 65.4944C143.669 64.3832 142.198 64.5209 142.139 66.1316C141.825 73.603 141.687 84.1325 142.59 94.8813L147.744 90.0974H147.745ZM151.846 116.045L149.924 103.881L144.515 109.257C145.371 113.785 146.39 117.804 147.48 121.407L151.846 116.045ZM142.718 96.5156C142.983 99.4557 143.377 102.399 143.829 105.295C143.968 106.117 144.073 106.927 144.212 107.704L149.691 102.317L148 91.6481L142.718 96.5156ZM145.139 65.2977C145.139 65.2977 147.154 78.0397 149.076 90.237L157.764 95.1242C154.53 83.5071 149.979 72.1437 146.724 64.5917C146.365 63.63 144.916 63.8385 145.137 65.2977H145.139ZM155.216 130.119C155.123 129.713 152.887 120.574 152.181 117.678L147.93 122.88C149.47 127.651 151.114 131.589 152.68 134.705C153.488 133.22 155.053 130.418 155.215 130.117L155.216 130.119ZM149.331 91.8703C149.898 95.4034 150.465 98.9129 150.963 102.146L160.694 107.692C160.079 104.16 159.246 100.533 158.272 96.8971L149.33 91.8703H149.331ZM151.209 103.766C152.133 109.511 152.864 114.098 153.13 115.824L162.049 120.643C161.933 117.25 161.597 113.496 160.96 109.324L151.208 103.766H151.209ZM160.914 135.342L156.096 131.208L153.386 136.119C155.402 139.849 157.162 142.316 158.273 143.671C158.991 142.13 160.08 139.397 160.914 135.342ZM162.061 122.136L153.465 117.505C154.123 120.157 156.002 127.906 156.476 129.852L161.181 133.906C161.748 130.685 162.131 126.77 162.061 122.136Z" fill="#FFD100"/>
</svg>
