<svg width="200" height="200" viewBox="0 0 200 200" fill="none" xmlns="http://www.w3.org/2000/svg">
<path d="M161.073 138.365L200 48.8124C180.609 60.0115 160.458 69.838 139.693 78.2194L194.958 37.1545L160.145 43.1247C155.184 40.1396 137.878 31.1843 109.923 31.1843C109.923 31.1843 107.463 31.265 105.365 31.3053C104.357 28.28 99.4756 14 99.4756 14L90.5607 32.4752C39.6531 39.0101 0 69.1029 0 101.576C0 116.098 6.21218 135.178 34.8528 145.505L20.4115 181.245L58.6527 151.071C67.6668 152.249 76.7504 152.815 85.8411 152.766C97.1184 152.772 108.379 151.909 119.524 150.184L161.355 186.973L147.075 143.851C151.843 142.292 156.516 140.461 161.073 138.365Z" fill="#A4A9AD"/>
<path d="M192.819 56.9208C192.819 56.9208 160.024 76.0011 123.477 88.6272L122.186 85.0773L184.872 41.6324L115.207 59.4622L154.175 43.73C154.175 43.73 137.676 34.5328 109.923 34.5328C107.624 34.5328 105.284 34.5731 102.985 34.6941L98.9507 22.8345L77.2888 67.8123L44.1706 77.2113L74.9088 64.6256L84.9935 44.0931L87.0911 39.7769L88.9063 36.0657C42.678 42.6813 3.34766 70.2327 3.34766 101.576C3.34766 119.164 13.029 135.259 39.4913 143.528L25.8164 173.339L57.6841 147.522C67.0123 148.821 76.4226 149.441 85.8406 149.377C97.471 149.392 109.084 148.488 120.572 146.675L155.909 178.058L142.678 141.713C148.098 140.209 153.386 138.266 158.491 135.904L192.819 56.9208Z" fill="#002654"/>
<path d="M105.244 127.311C97.1678 125.861 89.181 123.949 81.3236 121.583C81.3236 121.583 88.2215 118.921 98.4272 114.242C107.544 110.046 119.282 104.278 131.102 97.3396C140.653 91.882 149.758 85.6774 158.33 78.7838C158.33 78.7838 110.448 104.923 70.7144 104.923C44.0101 104.923 31.6664 92.499 31.6664 84.2295C31.6664 59.4615 75.2324 46.6741 84.9944 44.0924L87.092 39.7761C45.2203 48.0456 29.6495 64.4635 29.6495 64.4635C29.6495 64.4635 15.6519 72.9346 10.3272 88.6668C9.02775 92.5835 8.36052 96.6822 8.35059 100.809C8.35059 119.728 20.7346 144.496 84.3086 144.496C129.448 144.496 153.449 132.515 153.449 132.515C146.108 132.313 138.766 131.829 131.465 131.103C122.671 130.216 113.917 128.925 105.244 127.311ZM142.76 43.4469C142.76 43.4469 129.649 37.0734 104.075 37.8802L105.244 41.3493C117.785 40.2103 130.424 40.9171 142.76 43.4469Z" fill="#CE1126"/>
<path d="M59.9427 98.954L62.6453 92.9839L46.6712 88.5869C46.6712 88.5869 42.1129 96.695 59.9427 98.954Z" fill="#A4A9AD"/>
<path d="M45.9864 145.545C45.6248 145.399 45.2447 145.304 44.8569 145.263C44.5342 145.222 44.2115 145.182 43.8485 145.142L37.4346 158.01L49.4959 149.014C48.7294 147.602 47.842 146.19 45.9864 145.545ZM137.596 144.859C136.386 145.264 135.243 145.848 134.207 146.594C133.245 147.408 132.543 148.489 132.191 149.7C132.029 150.224 131.908 150.829 131.747 151.434L143.566 160.793L137.596 144.859ZM157.644 54.5405L106.696 66.8842L97.7412 38.8486L83.5419 72.7736L44.8569 82.455L71.9243 89.0705L66.7206 99.4376L68.1728 99.478C68.8182 99.478 69.4636 99.5183 70.1897 99.5183C72.0453 99.5183 73.9412 99.4376 75.8372 99.3166C80.7351 99.0092 85.6109 98.4166 90.4398 97.5417C94.2317 96.8559 98.0639 96.0088 101.936 95.0407C107.019 93.7902 112.142 92.2976 117.225 90.6841L114.28 82.8987L157.685 54.5405L157.644 54.5405Z" fill="#A4A9AD"/>
<path d="M62.646 118.841C74.7176 118.801 86.7372 117.256 98.4266 114.242C107.543 110.047 119.282 104.278 131.101 97.3804C121.178 101.132 89.8344 112.306 67.6077 112.306C33.9247 112.306 23.356 92.7817 23.356 81.7692C23.356 71.9266 29.6892 64.4639 29.6892 64.4639C29.6892 64.4639 18.0312 72.572 18.0312 86.0855C18.0312 108.353 40.2176 118.841 62.646 118.841Z" fill="white"/>
<path d="M154.418 102.504C152.401 98.2278 146.471 97.4614 141.146 100.85C135.862 104.198 133.199 110.37 135.216 114.646C137.274 118.922 143.163 119.648 148.488 116.3C153.812 112.911 156.435 106.78 154.458 102.504H154.418ZM75.6358 129.248C12.9896 129.248 10.2062 95.8881 10.3272 88.6675C9.02775 92.5842 8.36052 96.6829 8.35059 100.809C8.35059 100.809 8.99601 137.72 80.5571 137.72C103.833 137.72 124.809 132.798 131.465 131.104C122.671 130.216 113.917 128.926 105.244 127.312C95.4378 128.702 85.54 129.35 75.6358 129.248Z" fill="white"/>
<path d="M149.374 58.8569L90.4395 76.7674C90.4395 76.7674 112.101 81.487 112.747 81.5677C113.433 81.6484 149.374 58.8569 149.374 58.8569ZM97.7408 43.6089L90.4395 76.7674L104.76 67.4491L97.7408 43.6089ZM138.806 122.189L137.354 123.964L135.095 124.206L136.466 125.013L135.014 126.788L137.434 125.577L139.088 126.788L138.846 124.851L141.065 123.641L138.806 123.802L138.806 122.189ZM165.51 95.5653L165.429 93.4274L163.533 95.8073L160.508 96.1704L162.364 97.2192L160.508 99.6395L163.695 97.9856L165.913 99.5589L165.51 96.9368L168.495 95.2426L165.51 95.5653ZM160.548 109.563L160.508 107.586L158.733 109.765L155.95 110.128L157.684 111.055L155.95 113.274L158.894 111.741L160.952 113.193L160.589 110.813L163.291 109.24L160.548 109.563ZM154.78 123.762V121.584L152.803 123.964L149.778 124.287L151.633 125.335L149.697 127.715L152.924 126.142L155.103 127.756L154.82 125.134L157.805 123.48L154.78 123.762ZM174.223 78.9054L170.552 79.3088L170.23 76.606L168.132 79.5911L164.421 80.0752L166.882 81.366L164.824 84.4318L168.616 82.3342L171.521 84.3108L170.754 81.0433L174.223 78.9054ZM149.415 91.6928L147.963 94.3148L150.948 92.2979L153.61 93.6694L152.642 91.128L155.385 89.1514L152.319 89.7565L151.754 87.6186L150.262 90.2002L147.237 90.8457L149.415 91.6928ZM133.804 100.93L133.763 99.1555L132.19 101.132L129.689 101.455L131.222 102.302L129.689 104.279L132.311 102.907L134.167 104.238L133.844 102.06L136.264 100.688L133.804 100.971L133.804 100.93ZM124.364 122.391V120.979L123.074 122.512L121.097 122.754L122.307 123.439L121.057 124.972L123.195 123.923L124.566 125.013L124.364 123.278L126.301 122.229L124.364 122.391ZM112.908 120.817V119.406L111.658 120.938L109.681 121.14L110.891 121.826L109.641 123.359L111.738 122.35L113.15 123.399L112.949 121.705L114.885 120.616L112.908 120.817ZM128.882 112.145L128.842 110.733L127.592 112.266L125.615 112.548L126.825 113.193L125.615 114.767L127.672 113.677L129.124 114.686L128.923 113.032L130.819 111.903L128.882 112.145ZM117.305 110.894L117.265 109.361L115.893 111.055L113.715 111.338L115.087 112.064L113.715 113.798L116.055 112.629L117.588 113.758L117.346 111.862L119.443 110.652L117.305 110.894ZM101.412 118.437L101.371 116.905L100.04 118.558L97.9829 118.841L99.2737 119.527L97.9829 121.221L100.202 120.051L101.694 121.14L101.412 119.365L103.469 118.195L101.412 118.437Z" fill="white"/>
<path d="M68.1729 99.4782C68.8183 99.4782 69.4637 99.5185 70.1495 99.5185C72.005 99.5185 73.9413 99.4378 75.8372 99.3168L90.4399 76.7271L73.3362 89.3531L68.1729 99.4782ZM101.936 95.0812L90.4399 76.7271L90.4399 97.5419C94.3124 96.8561 98.1447 96.009 101.936 95.0812Z" fill="white"/>
<path d="M39.9756 154.863L45.9861 145.545C45.6215 145.408 45.2426 145.314 44.8566 145.263L39.9756 154.863ZM132.19 149.7L140.056 155.912L134.207 146.594C133.253 147.416 132.553 148.494 132.19 149.7ZM84.2676 73.3787L52.4806 81.9305L90.4395 76.7268L84.2676 73.3384L84.2676 73.3787Z" fill="white"/>
<path d="M141.953 102.06C137.637 104.762 135.378 109.885 136.911 113.435C138.403 116.985 143.123 117.671 147.439 114.928C151.756 112.225 154.015 107.102 152.482 103.552C150.949 100.002 146.229 99.3571 141.953 102.06Z" fill="#CE1126"/>
</svg>
