<svg width="200" height="200" viewBox="0 0 200 200" fill="none" xmlns="http://www.w3.org/2000/svg">
<path d="M30.0121 145.874H13.6345L35.9419 108.48L0 79.5167H53.2876L58.9754 69.9161H75.8774L107.261 18L112.505 70.1985C121.339 71.0859 128.56 74.2727 133.562 79.5167H200L136.87 113.321C136.144 114.854 135.337 116.386 134.49 117.839C130.695 124.632 125.414 130.479 119.04 134.942L123.477 178.992L82.1702 145.672C80.1936 145.793 78.1363 145.874 76.1194 145.874L7.98709 182.34L30.0121 145.874Z" fill="#00843D"/>
<path d="M36.103 142.406H19.6851L40.4596 107.674L9.76172 82.9463H55.2236L60.9517 73.386H77.8134L104.84 28.6099L109.358 73.4263C119.322 73.8701 127.148 77.1375 132.029 82.9463H186.244L134.167 110.82C133.363 112.643 132.461 114.421 131.464 116.145C127.574 123.074 122.049 128.946 115.369 133.249L119.201 171.127L83.2591 142.164C80.6774 142.325 77.9747 142.406 75.1914 142.406L17.4261 173.346L36.103 142.406Z" fill="#010101"/>
<path d="M158.774 89.844H128.399C125.172 83.8738 117.749 80.2837 107.14 80.2837H103.147L100.081 49.8682L81.7266 80.2837H64.865L59.1369 89.844H29.2861L49.4556 106.06L31.8678 135.508H60.7101L45.9461 139.501L36.3051 155.435L73.4975 135.508H75.0304C78.7819 135.508 82.251 135.346 85.4782 135.104L110.69 155.435L108.471 134.257C101.654 134.983 95.0788 134.418 92.013 134.338C109.762 131.474 119.08 123.729 125.535 112.676C129.932 105.173 131.142 98.3958 129.69 93.0711C132.11 95.9531 133.613 99.4933 134.006 103.236L158.774 89.844Z" fill="white"/>
<path d="M131.989 96.5402C133.092 98.6193 133.777 100.894 134.006 103.236L158.774 89.844L131.989 96.5402ZM128.399 89.844L117.83 95.0073C118.516 96.8226 119.484 101.098 116.862 107.472C113.877 114.773 104.962 127.641 80.5972 127.641H47.963L31.8678 135.508H60.7101L56.9989 136.516L36.3051 155.395L73.4975 135.508H75.0304C78.7819 135.508 82.2511 135.346 85.4782 135.104L92.0131 134.297C109.762 131.474 119.08 123.729 125.535 112.676C129.932 105.132 131.142 98.3957 129.69 93.0307C129.34 91.9375 128.909 90.8722 128.399 89.844ZM69.867 95.088H94.8368C102.017 95.088 106.333 96.4192 107.423 100.09L117.83 95.0073C115.006 88.3918 106.898 87.6657 101.815 87.6657H71.8436L71.8033 87.6253L47.963 127.641L64.0986 119.735L76.1196 100.09L69.867 95.088ZM54.4576 97.6697L29.2861 89.844L49.4556 106.06L54.4576 97.6697ZM100.081 49.8682L92.8602 80.2433H103.147L100.081 49.8682ZM108.471 134.217L110.69 155.395L99.6774 134.58C102.614 134.653 105.551 134.532 108.471 134.217Z" fill="#8D9093"/>
<path d="M94.8368 95.0869H69.8671L76.1196 100.089L64.0986 119.734H80.6376C86.164 119.734 92.4972 119.532 97.8219 116.426C104.478 112.473 108.471 105.575 107.544 100.734C106.777 96.5391 102.421 95.0869 94.8368 95.0869Z" fill="#010101"/>
</svg>
