<svg width="200" height="200" viewBox="0 0 200 200" fill="none" xmlns="http://www.w3.org/2000/svg">
<path d="M183.421 71.1937C191.851 64.0134 200 52.4362 200 39.1648C200.006 38.7769 199.891 38.3968 199.67 38.0781C199.448 37.7595 199.133 37.5185 198.767 37.3891C198.401 37.2598 198.004 37.2487 197.632 37.3574C197.259 37.4661 196.931 37.6891 196.692 37.9949C188.019 49.8142 179.871 54.3321 174.909 56.0263C183.138 49.8142 191.166 39.6488 193.263 28.1523C193.325 27.765 193.262 27.3681 193.085 27.0184C192.907 26.6686 192.624 26.3839 192.275 26.205C191.926 26.026 191.529 25.9619 191.142 26.0219C190.754 26.0818 190.395 26.2627 190.117 26.5388C180.072 36.5831 166.236 47.3132 129.044 47.3132C120.089 47.3132 109.802 47.0308 103.147 47.0308C72.9732 47.0308 61.8801 65.7076 59.3791 70.9113C52.324 69.8816 45.1324 70.3169 38.2531 72.1902C31.3738 74.0634 24.9544 77.3344 19.3955 81.799C13.8365 86.2636 9.25741 91.826 5.94385 98.139C2.63028 104.452 0.653381 111.38 0.136519 118.491C-0.380343 125.602 0.573923 132.744 2.93977 139.469C5.30561 146.195 9.03226 152.361 13.8872 157.583C18.7421 162.804 24.621 166.969 31.1571 169.818C37.6933 172.666 44.7463 174.137 51.8761 174.138C62.0952 174.165 72.0925 171.159 80.6019 165.501C89.1114 159.842 95.7501 151.785 99.6774 142.351C100.238 142.443 100.804 142.497 101.372 142.512C107.947 142.512 109.318 140.617 109.318 138.963C109.318 138.116 108.471 137.067 108.028 136.462C117.669 136.381 120.533 135.937 124.687 134.485C125.008 134.391 125.289 134.194 125.486 133.924C125.683 133.654 125.785 133.327 125.777 132.993C125.777 131.581 122.832 129.201 120.734 127.385C134.207 127.143 144.171 124.723 144.171 121.577C144.171 120.972 144.09 120.205 140.5 117.381C148.124 115.284 161.517 110.161 161.517 106.813C161.517 105.522 160.387 104.755 159.056 103.828C170.916 99.35 180.879 91.484 180.879 88.6603C180.879 86.4013 177.531 86.1996 175.877 86.0786C181.767 82.2868 189.996 75.8326 189.996 73.0492C189.996 70.1852 185.478 71.3147 183.421 71.1937Z" fill="#CE1126"/>
<path d="M179.951 71.9198C189.431 64.8605 198.386 52.6379 198.386 39.1648C198.392 39.1159 198.382 39.0666 198.358 39.0234C198.335 38.9802 198.299 38.9453 198.255 38.9233C198.211 38.9014 198.161 38.8934 198.113 38.9005C198.064 38.9076 198.019 38.9294 197.983 38.9631C183.38 58.8904 170.109 58.6886 170.109 58.6886C169.544 58.6886 169.423 57.8819 169.867 57.5592C179.306 51.9924 189.391 40.5766 191.65 27.8699C191.69 27.7085 191.448 27.5069 191.287 27.6682C180.557 38.3983 165.833 48.9267 129.044 48.9267C117.305 48.9267 111.134 48.6847 103.147 48.6847C71.3194 48.6847 61.517 69.8625 60.3472 72.6459C50.9754 71.0432 41.3413 72.1295 32.5618 75.779C23.7823 79.4285 16.2169 85.4916 10.7427 93.2654C5.26856 101.039 2.10983 110.205 1.63272 119.701C1.15561 129.197 3.37967 138.634 8.04705 146.917C12.7144 155.2 19.634 161.991 28.0035 166.502C36.373 171.014 45.8497 173.06 55.3349 172.405C64.8202 171.75 73.9254 168.419 81.5952 162.8C89.2649 157.181 95.1849 149.503 98.669 140.657C99.5607 140.825 100.465 140.919 101.372 140.939C106.495 140.939 107.745 139.769 107.745 138.963C107.745 138.438 104.437 134.848 106.091 134.848C117.426 134.848 119.968 134.445 124.163 132.993C122.146 129.886 114.925 125.812 118.637 125.812C136.668 125.812 142.557 122.343 142.557 121.617C142.557 120.73 136.829 116.615 136.829 116.615C145.099 115.244 159.903 108.588 159.903 106.853C159.903 105.804 155.708 104.07 156.394 103.102C169.504 98.745 179.306 90.2335 179.306 88.7006C179.306 87.4501 171.601 87.5712 171.601 87.5712V86.7644C178.257 83.2953 188.423 74.9048 188.423 73.0896C188.423 71.8794 178.862 73.856 179.951 71.9198Z" fill="white"/>
<path d="M28.8432 107.337L36.1445 114.759C37.5177 111.875 39.6516 109.421 42.3163 107.66L34.0066 101.448C32.0244 103.181 30.2874 105.176 28.8432 107.377L28.8432 107.337ZM24.7287 118.47L35.2974 116.938C35.3377 116.776 35.4184 116.615 35.4587 116.413L27.9961 108.789C26.2884 111.788 25.1788 115.089 24.7287 118.511L24.7287 118.47ZM24.4463 122.222C24.4617 124.16 24.6643 126.092 25.0514 127.99L35.4587 128.071C34.8014 126.191 34.4606 124.214 34.4503 122.222C34.4492 121.029 34.5708 119.84 34.8133 118.672L24.527 120.165C24.4866 120.85 24.4463 121.536 24.4463 122.222ZM65.3094 98.3414C62.3146 96.6575 59.0309 95.5492 55.6281 95.074L57.161 105.643C57.3424 105.672 57.5189 105.726 57.6854 105.804L65.3094 98.3414ZM73.4578 139.124C70.4577 137.615 67.6194 135.803 64.9866 133.718C63.9347 134.899 62.7269 135.93 61.3965 136.784L69.7466 142.996C71.1044 141.827 72.3471 140.53 73.4578 139.124ZM55.4264 105.199L53.9339 94.9126C53.2503 94.8455 52.5633 94.8186 51.8766 94.832C49.9377 94.8273 48.0039 95.0301 46.1082 95.437L46.0275 105.804C47.9138 105.169 49.8866 104.829 51.8766 104.796C53.0707 104.806 54.2605 104.941 55.4264 105.199ZM43.8895 106.772C44.0424 106.676 44.2046 106.594 44.3736 106.53L44.4946 95.8404C41.1774 96.7562 38.0681 98.304 35.3378 100.399L43.8895 106.772ZM67.0843 101.569C67.0843 100.842 67.0843 100.157 67.0439 99.4306C66.9598 99.3503 66.8648 99.2824 66.7616 99.2289L59.3392 106.49C61.5019 107.538 63.4351 109.005 65.027 110.806C66.1565 107.781 67.0843 104.433 67.0843 101.569ZM48.3268 139.285L49.8193 149.572C50.5051 149.612 51.1908 149.652 51.8766 149.652C53.8021 149.657 55.7226 149.454 57.6047 149.047L57.7257 138.64C55.8469 139.304 53.8693 139.645 51.8766 139.648C50.684 139.649 49.4945 139.528 48.3268 139.285ZM36.7899 118.39C35.9699 121.603 36.196 124.995 37.4353 128.071L38.0001 128.111L41.4692 123.432C41.4289 123.109 41.4289 122.787 41.3885 122.464L37.3143 118.309L36.7899 118.39ZM39.3313 118.027L41.5902 120.286C41.7694 119.338 42.0676 118.416 42.4777 117.543L39.3313 118.027ZM44.3332 115.001L44.3736 109.193L43.8895 108.829C41.042 110.541 38.8105 113.111 37.516 116.171L37.9194 116.574L43.6475 115.727C43.8895 115.485 44.0912 115.203 44.3332 115.001ZM44.6156 129.806L38.8068 129.765L38.4841 130.209C40.1903 133.046 42.7442 135.275 45.7854 136.582L46.2292 136.179L45.3821 130.451C45.0997 130.249 44.8577 130.007 44.6156 129.806ZM43.2038 128.152C42.678 127.342 42.245 126.476 41.9129 125.57L40.017 128.111L43.2038 128.152ZM59.3796 137.954L59.2586 148.644C62.5661 147.703 65.6707 146.157 68.4154 144.085L59.8636 137.712C59.7023 137.793 59.5409 137.873 59.3796 137.954ZM47.6814 134.767L49.9403 132.508C48.9892 132.341 48.066 132.042 47.1973 131.621L47.6814 134.767ZM57.7257 136.098L53.0867 132.629C52.7527 132.678 52.4158 132.705 52.0783 132.71L47.9637 136.784L48.0444 137.349C49.2958 137.673 50.5837 137.836 51.8766 137.833C53.8811 137.84 55.8679 137.457 57.7257 136.704L57.7257 136.098ZM36.4269 130.249C36.3058 130.048 36.2252 129.886 36.1445 129.725L25.4951 129.644C26.4193 132.958 27.9663 136.066 30.0533 138.801L36.4269 130.249ZM45.9468 113.589C46.7379 113.032 47.6082 112.597 48.5285 112.299L45.9871 110.403L45.9468 113.589ZM60.4687 128.676L60.0653 128.716C59.8723 128.99 59.6564 129.246 59.4199 129.483L59.3796 135.292L59.8233 135.614C61.2395 134.797 62.5078 133.747 63.5748 132.508C62.0419 131.137 60.9124 129.806 60.4687 128.676ZM46.5922 138.841C46.4309 138.761 46.2292 138.72 46.0678 138.64L38.4438 146.143C41.4408 147.814 44.7247 148.909 48.1251 149.37L46.5922 138.841ZM60.5091 116.332C60.9295 116.923 61.2814 117.559 61.5579 118.228C61.7999 117.785 62.1226 117.139 62.526 116.332H60.5091ZM36.9916 145.255L44.4139 137.954C41.5217 136.594 39.0639 134.457 37.3143 131.782L31.1022 140.092C32.821 142.073 34.8025 143.81 36.9916 145.255ZM57.7661 130.895C56.9753 131.428 56.1217 131.862 55.2247 132.186L57.7661 134.081V130.895ZM56.0718 109.717L53.8129 111.936C54.7608 112.135 55.6816 112.446 56.5559 112.863L56.0718 109.717ZM46.0275 108.345L50.6664 111.815C51.0014 111.78 51.3382 111.767 51.6749 111.774L55.7895 107.7L55.7088 107.135C52.4952 106.315 49.1038 106.541 46.0275 107.781L46.0275 108.345ZM64.2202 112.742C62.5695 110.609 60.4043 108.93 57.9274 107.861L57.524 108.265L58.3711 114.033C58.6445 114.226 58.9009 114.442 59.1376 114.679L63.3328 114.719C63.6152 114.074 63.9378 113.428 64.2202 112.742Z" fill="#CE1126"/>
<path d="M57.5233 122.223C57.5233 123.34 57.1921 124.431 56.5716 125.36C55.951 126.289 55.069 127.013 54.0371 127.44C53.0052 127.868 51.8697 127.979 50.7742 127.761C49.6787 127.544 48.6724 127.006 47.8826 126.216C47.0928 125.426 46.5549 124.42 46.337 123.324C46.1191 122.229 46.231 121.093 46.6584 120.061C47.0858 119.03 47.8097 118.147 48.7384 117.527C49.6671 116.906 50.759 116.575 51.8759 116.575C53.3717 116.582 54.8042 117.179 55.8619 118.237C56.9195 119.294 57.5167 120.727 57.5233 122.223Z" fill="#CE1126"/>
<path d="M51.8764 88.3371C46.0572 88.3365 40.3358 89.8336 35.2627 92.6843C30.1897 95.5351 25.9357 99.6436 22.9103 104.615C19.8849 109.585 18.1898 115.251 17.9881 121.067C17.7865 126.883 19.0851 132.652 21.759 137.821C24.4329 142.989 28.392 147.383 33.2555 150.578C38.1189 153.773 43.7229 155.663 49.5281 156.065C55.3334 156.468 61.1445 155.369 66.4022 152.875C71.66 150.381 76.1874 146.576 79.5487 141.826C78.2579 141.342 76.967 140.818 75.6762 140.213C72.2079 144.79 67.4909 148.268 62.0926 150.228C56.6943 152.188 50.8446 152.547 45.2474 151.261C39.6501 149.975 34.5437 147.099 30.5424 142.979C26.541 138.859 23.8152 133.671 22.6929 128.039C21.5706 122.406 22.0996 116.569 24.2161 111.231C26.3327 105.892 29.9468 101.278 34.6236 97.9449C39.3004 94.6116 44.8406 92.7005 50.5779 92.4416C56.3152 92.1827 62.0051 93.587 66.963 96.4856C66.8901 94.9526 66.9171 93.4164 67.0437 91.8869C62.3352 89.5336 57.1402 88.3177 51.8764 88.3371Z" fill="#CE1126"/>
<path d="M108.713 56.5503H134.328C167.083 56.5503 181.404 44.8521 187.051 34.485C187.374 33.88 186.97 33.7186 186.365 34.2833C179.225 40.6972 168.616 51.871 125.171 51.871H106.858C78.0558 51.871 67.2047 64.86 64.381 73.4925C65.8166 73.8567 67.2307 74.3011 68.6166 74.8237C73.7396 65.5861 83.5015 56.5503 108.713 56.5503ZM9.92377 104.432C11.0129 105.32 10.1255 106.853 10.8919 107.942C12.7751 102.559 15.7 97.6 19.4997 93.3478C23.2995 89.0955 27.8995 85.6333 33.0372 83.1588C38.175 80.6843 43.7498 79.246 49.4434 78.9259C55.137 78.6059 60.8379 79.4105 66.2206 81.2937C67.249 81.6535 68.2628 82.0516 69.262 82.488C69.6654 81.5602 70.1091 80.5921 70.6335 79.5836C65.0198 77.1274 58.9773 75.8009 52.851 75.6798C46.7247 75.5588 40.6345 76.6456 34.9282 78.8783C29.2219 81.1109 24.0112 84.4456 19.5937 88.692C15.1761 92.9384 11.6382 98.0133 9.18199 103.627C9.00676 104.027 8.83718 104.43 8.67326 104.836C9.07665 105.078 9.48004 104.029 9.92377 104.432ZM89.5523 143.117C87.374 143.641 84.5503 143.319 81.5249 142.431C77.2124 148.772 70.981 153.563 63.7455 156.101C56.5099 158.64 48.6511 158.792 41.3226 156.535C33.9941 154.279 27.5819 149.733 23.027 143.565C18.4722 137.396 16.0145 129.93 16.0149 122.262C16.0149 121.617 16.0149 120.971 16.0553 120.366C14.9661 122.02 15.2888 124.803 13.3122 124.803C11.739 124.803 12.6265 122.665 11.4567 122.665C10.7709 122.665 10.6499 123.674 9.80278 123.674C9.68177 123.674 9.60109 123.634 9.52041 123.634C9.31872 123.634 9.23804 124.037 8.875 124.037C8.43127 124.037 8.10855 123.472 7.74552 123.472C7.34213 123.472 7.18078 124.279 6.65637 124.279C6.09163 124.279 5.56722 123.351 5.3252 122.907C5.47875 133.651 9.34251 144.011 16.2616 152.231C23.1806 160.452 32.7293 166.027 43.2891 168.011C53.8489 169.996 64.7701 168.268 74.2016 163.121C83.6331 157.974 90.9946 149.724 95.0384 139.769C91.5194 138.658 88.1045 137.24 84.8327 135.533C85.1151 138.639 89.5523 143.117 89.5523 143.117Z" fill="#CE1126"/>
<path d="M108.149 63.1658C82.4934 63.1658 67.7295 80.7938 69.4237 97.6151C70.6742 110.16 63.6553 120.326 63.6553 120.326C63.6553 120.326 73.4576 115.888 73.4576 98.0588C73.4576 81.1166 90.2788 68.8133 104.478 68.8133C118.193 68.8133 134.087 68.8939 141.993 68.8939C183.824 68.8939 193.949 49.5717 195.401 45.7799C195.643 45.2151 195.28 45.3361 195.159 45.6185C186.406 57.3974 174.183 64.134 140.985 64.134C119.645 64.134 112.909 63.1658 108.109 63.1658L108.149 63.1658Z" fill="#CE1126"/>
<path d="M73.0537 113.468C74.9496 114.476 84.2679 113.145 89.1085 110.12C84.1468 105.884 76.1598 104.392 76.1598 104.392C75.0706 107.377 73.9008 110.402 73.0537 113.468ZM111.174 76.5581C110.609 74.3395 107.906 73.8958 106.051 72.847C105.325 72.4032 104.478 72.6049 103.63 72.968C101.815 73.7747 99.4352 72.4436 97.5796 73.7747C97.0149 74.1781 96.7325 74.9042 96.0467 75.0656C95.1834 75.262 94.3072 75.3968 93.4247 75.469C93.102 75.5093 92.4969 75.711 92.5372 76.074C92.7389 77.6472 91.2867 77.9699 90.1169 78.3733C88.9874 78.7767 89.3908 80.2692 89.3505 81.3584C96.8535 81.4391 104.599 80.3903 111.174 76.5581ZM86.7285 83.1333C86.3655 83.1737 86.1235 83.7384 85.8411 84.1418C85.1956 85.0696 83.1384 84.8679 83.1384 85.9167C83.1787 87.8126 81.0408 88.1757 80.6777 89.5472C80.4357 90.6363 79.8306 91.4431 79.7499 92.6129C87.4143 92.6533 95.3206 92.1692 102.138 88.2564C103.913 87.4496 92.7793 82.2459 86.7285 83.1333ZM76.8455 100.761C76.9666 101.729 76.7245 103.303 76.9262 103.303C84.2031 104.068 91.5511 102.841 98.1847 99.7529C100.081 98.9461 90.9237 94.1861 83.3401 94.1861C81.8885 94.1774 80.4587 94.5384 79.1852 95.2349C78.7415 95.477 78.4187 96.4855 77.8943 97.2116C77.5313 97.7763 78.2574 98.6234 77.975 98.9865C77.4103 99.6722 76.7245 100.076 76.8455 100.761ZM117.668 77.8086C110.77 77.8086 110.085 79.7449 110.085 79.7449C109.843 80.0273 109.964 80.6727 109.48 80.834C107.906 81.4391 106.131 80.1483 104.8 81.9232C103.953 82.972 101.977 81.6812 100.686 82.4073C100.403 82.5686 100.686 83.335 100.887 83.4157C101.492 83.6981 102.501 83.6174 102.904 83.8998C103.308 84.2225 103.227 84.7066 103.63 84.9889C104.074 85.3116 104.921 85.473 105.325 85.9974C105.607 86.4008 105.728 87.2076 106.131 87.2076C116.539 87.8126 127.188 87.8126 137.071 83.9805C138.16 82.2459 127.39 77.8086 117.668 77.8086Z" fill="#CE1126"/>
<path d="M178.822 62.8029C178.539 62.9643 178.62 63.9727 178.015 64.2551C177.006 64.7392 175.796 64.7392 174.707 65.0619C174.304 65.1829 174.304 65.7476 173.941 65.9897C173.376 66.3527 172.569 66.03 172.166 66.3527C169.503 68.289 166.317 67.4418 163.372 67.9259C163.412 70.1445 159.903 68.773 158.451 69.7412C156.877 70.8303 157.119 70.5076 154.739 70.5479C154.054 70.5479 154.417 71.6371 153.852 71.6371C151.956 71.6774 149.576 71.0723 148.164 71.4757C147.922 71.5564 147.842 72.7262 147.358 72.8472C146.349 73.1296 145.26 73.2506 144.292 73.5733C143.525 73.8154 144.493 75.2272 143.525 75.5499C141.791 76.0743 139.895 75.6709 138.201 76.6794C137.515 77.0424 136.506 76.6794 135.659 76.8407C134.893 77.0021 134.61 77.7685 135.216 78.1316C135.78 78.414 136.708 78.3333 137.232 78.6157C138.523 79.2611 139.532 80.1485 140.903 80.2292C163.17 81.6007 191.932 65.788 196.45 46.6271C196.611 45.8606 196.248 46.022 196.087 46.4254C191.286 57.9219 178.822 62.8029 178.822 62.8029ZM184.025 75.1465C182.704 74.8386 181.337 74.7703 179.992 74.9448C179.709 75.0255 179.507 75.4692 179.225 75.5499C177.491 75.8323 176.24 76.6794 174.425 76.7197C173.854 76.8033 173.297 76.9662 172.771 77.2038C172.085 77.5265 171.198 76.7601 170.673 77.3248C170.351 77.6878 170.915 78.6156 170.351 78.898C168.777 79.6241 166.922 78.2929 165.389 79.3014C164.945 79.5838 165.873 80.5519 165.308 80.7536C163.09 81.4393 159.257 78.0106 157.846 81.5603C157.604 82.1251 156.918 81.8831 156.474 81.762C156.071 81.641 155.466 81.4393 155.224 81.6814C153.852 82.7705 153.086 83.2143 151.19 82.6495C150.706 82.5285 150.665 83.9807 149.738 83.7386C148.689 83.4966 147.64 82.6898 146.672 83.1336C146.228 83.3353 146.551 84.5454 145.905 84.5858C143.243 84.8681 140.5 84.4648 138.039 85.5539C137.475 85.8363 137.394 86.9254 136.547 87.0464C134.691 87.3692 132.836 87.1675 131.101 87.7322C130.819 87.8129 130.859 88.6196 131.303 88.7003C132.392 88.8617 133.683 88.7003 134.53 89.1844C135.579 89.8298 136.264 91.6047 137.273 91.6451C158.33 92.0484 173.537 84.5051 183.985 75.7919C184.429 75.4289 184.227 75.3079 184.025 75.1465ZM167.002 90.5962C166.155 90.8786 164.986 90.0718 164.259 90.5962C163.17 91.403 161.88 91.2417 160.79 91.1206C160.266 91.0803 159.419 90.8786 158.935 91.2416C158.652 91.4837 159.096 91.8871 159.378 92.1291C156.555 93.0972 153.449 92.2098 150.786 93.2586C150.585 93.3796 150.464 94.3477 149.98 94.4284C147.519 94.9125 145.26 93.9847 142.84 94.4284C142.235 94.5091 142.477 95.8403 141.872 95.8403C139.705 95.9074 137.537 95.8536 135.377 95.6789C132.795 95.5579 130.415 96.526 127.995 97.2521C127.269 97.4941 127.027 98.6236 126.26 98.7446C124.163 99.0674 122.025 98.7043 120.089 99.6724C119.968 99.7128 119.968 100.358 120.089 100.439C122.428 101.77 125.131 102.698 126.744 104.836C143.162 104.674 160.79 102.536 174.425 91.3223C174.707 91.1206 173.094 90.7979 172.206 90.5559C171.344 90.4625 170.493 90.2869 169.665 90.0315C168.737 89.7491 167.89 90.2735 167.002 90.5962ZM151.795 105.764C150.423 106.409 148.85 105.683 147.358 106.046C146.994 106.127 147.277 106.691 146.873 106.772C145.421 106.974 143.888 106.57 142.517 107.135C141.468 107.538 140.137 107.054 138.967 107.095C138.523 107.095 138.523 107.7 138.443 108.184C138.38 108.367 138.259 108.524 138.099 108.633C137.939 108.742 137.749 108.797 137.555 108.789C136.136 108.423 134.694 108.153 133.239 107.982C129.488 107.458 125.776 106.248 122.267 107.296C121.137 107.659 119.605 107.942 118.757 108.829C118.394 109.192 118.072 109.878 117.588 110.039C115.45 110.806 113.11 110.967 110.972 111.734C110.327 111.935 109.116 112.863 109.56 112.984C114.063 114.181 118.697 114.818 123.356 114.88C137.233 114.88 147.801 111.492 155.546 107.256C155.062 106.691 152.803 105.28 151.795 105.764ZM133.521 119.156C132.473 119.438 131.706 118.712 130.819 119.035C130.657 119.116 130.496 119.438 130.335 119.438C128.721 119.438 127.672 117.744 126.018 117.865C125.615 117.906 125.615 118.591 125.292 118.672C124.284 118.914 123.396 117.704 122.469 118.148C121.941 118.406 121.333 118.449 120.774 118.269C119.968 118.027 119.362 117.3 118.596 117.179C117.91 117.058 117.225 117.744 116.458 117.542C114.522 116.937 113.029 115.122 110.972 115.566C109.923 115.768 109.076 115.082 108.35 115.526C107.584 115.969 107.342 116.534 106.575 116.978C106.051 117.3 104.8 117.26 104.235 117.583C103.832 117.865 103.711 118.511 103.227 118.712C102.34 119.075 101.291 118.833 100.403 119.277C100.323 119.358 100.242 119.842 100.605 119.922C108.511 122.585 121.299 125.53 136.587 121.576C137.031 121.415 137.152 121.173 136.748 120.729C135.901 119.761 134.772 118.793 133.521 119.156ZM113.997 128.071C113.634 128.031 113.029 128.555 112.666 128.474C111.617 128.313 110.811 127.345 109.52 126.699C108.995 126.417 108.753 127.667 108.35 127.627C106.252 127.506 103.227 125.288 101.331 124.158C101.008 123.956 99.0318 124.36 98.6688 124.44C97.499 124.682 95.9661 122.585 94.9979 122.141C94.3122 121.778 93.3037 121.455 92.618 121.939C91.6902 122.625 90.601 122.262 89.5926 122.262C89.1892 122.222 88.8261 123.069 88.3824 123.23C86.9705 123.674 85.4377 122.706 84.1065 123.392C83.9996 123.502 83.9292 123.643 83.9048 123.795C83.9855 124.642 84.9133 124.763 85.5587 125.166C95.24 131.298 110.206 133.275 118.515 131.419C118.717 131.379 118.435 130.653 117.87 130.209C117.3 129.883 116.707 129.6 116.095 129.362C115.208 128.757 114.764 128.192 113.997 128.071ZM101.533 135.695C100.722 135.387 99.9275 135.037 99.1528 134.646C98.6688 134.444 98.225 135.211 97.7006 134.888C96.7224 134.211 95.7799 133.484 94.8769 132.71C94.2315 132.145 92.9003 130.814 92.3356 131.096C92.0936 131.217 91.7709 132.427 91.2465 132.024C90.0601 131.053 88.9288 130.016 87.858 128.918C87.2933 128.434 86.7689 130.047 86.0428 129.684C84.4292 128.918 83.7435 127.143 82.493 125.893C81.0408 124.44 79.6289 122.706 77.612 122.181C77.249 122.101 77.4507 122.585 77.1279 122.827C75.5951 124.037 73.9009 121.98 72.4083 121.294C71.0368 120.649 69.8267 119.64 68.2534 119.519C67.9307 119.519 67.9711 120.003 68.0921 120.165C76.8859 130.572 89.1085 138.398 102.541 138.075C102.864 138.075 103.509 138.115 102.985 137.47C102.541 136.945 102.057 135.816 101.533 135.695ZM82.977 137.792C82.6947 137.228 81.9282 137.55 81.3635 137.187C80.9601 136.986 80.7987 136.179 80.3953 135.856C80.113 135.614 79.4272 136.139 79.0238 135.937C78.4994 135.655 78.1364 134.969 77.733 134.525C77.2489 134.041 76.8455 133.476 76.4018 132.992C76.0253 132.506 75.5599 132.095 75.0303 131.782C74.7479 131.621 74.1832 131.984 73.8605 131.903C73.2151 131.701 72.852 130.653 72.368 130.209C72.0856 129.967 71.6419 129.926 71.3998 129.684C71.1175 129.442 71.0771 128.999 70.7948 128.676C70.4317 128.273 69.9073 128.152 69.5039 127.829C68.9795 127.385 68.6165 126.296 68.1728 125.691C67.7694 125.086 67.2046 125.005 66.8013 124.481C66.3172 123.835 66.0348 122.706 65.4297 122.02C64.8247 121.375 63.3321 122.423 62.8884 123.351C62.4838 124.083 62.306 124.919 62.3779 125.752C62.4497 126.585 62.7679 127.379 63.2918 128.03C68.9392 134.323 76.2808 139.567 84.6713 140.939C84.0259 140.051 83.3804 138.478 82.977 137.792ZM140.097 72.3631C140.379 72.1614 140.137 71.2336 139.895 71.1933C138.765 71.032 137.475 70.5479 136.224 71.6774C135.821 72.0404 135.014 71.2336 134.449 71.5967C133.965 71.8791 133.521 72.6455 133.078 72.8472C131.868 73.3716 130.698 72.1211 129.367 72.2824C129.003 72.3228 129.084 73.1699 128.721 73.2506C127.551 73.533 126.583 72.2825 125.938 72.7262C124.929 73.3312 124.122 74.138 122.953 73.6136C121.783 73.0892 120.29 72.0404 119.484 72.6858C118.152 73.896 116.498 72.1614 115.288 72.6052C114.28 73.0086 111.577 73.654 113.433 74.7431C119.201 78.2123 131.222 77.5265 140.097 72.3631ZM127.874 94.1864C128.721 93.6216 129.77 93.5813 130.254 92.8148C131.383 91.3627 120.734 89.023 116.377 89.023C112.102 89.023 104.155 90.0718 102.824 90.5559C102.259 90.7979 102.219 91.9274 101.573 92.0484C100.282 92.1695 99.0318 92.3308 97.741 92.4518C97.3376 92.4922 97.4183 93.1376 97.5796 93.2586C98.2875 93.7825 98.7876 94.5397 98.9915 95.3965C99.0318 95.4772 99.9193 95.3965 100.081 95.5579C100.928 96.284 101.533 97.2924 102.541 97.5345C107.584 98.7446 112.465 99.1077 117.628 97.8975C118.193 97.7765 118.596 97.3328 119.08 97.2521C120.895 97.0101 122.791 96.9294 124.163 95.5982C125.171 94.6301 126.744 94.9124 127.874 94.1864ZM116.216 107.296C118.273 106.248 120.694 106.167 122.186 104.15C113.07 99.3497 102.461 99.8741 101.17 100.6C100.807 100.802 100.444 101.447 100.04 101.73C99.4352 102.133 98.8301 101.931 98.4267 102.335C98.1847 102.577 98.4671 103.263 98.2654 103.505C98.0637 103.827 97.5393 103.868 97.2166 104.029C96.8939 104.231 96.2485 103.948 95.724 104.15C95.24 104.352 95.1996 104.836 94.8769 104.997C93.6264 105.602 91.8919 104.916 91.0448 104.916C90.601 104.916 90.7221 105.602 90.8431 105.723C91.4078 106.288 92.981 106.449 92.9004 107.256C92.9004 107.417 92.5373 107.942 92.2953 107.982C93.1424 109.757 100.887 112.137 111.133 108.749C112.828 108.224 114.603 108.144 116.216 107.296ZM71.6419 115.243C70.7544 115.727 69.7056 117.099 70.5124 117.664C72.0049 118.632 74.4656 120.891 85.7201 120.891C96.7325 120.891 100.928 117.502 102.985 115.405C102.985 114.033 93.3441 111.25 92.0129 112.016C91.8705 112.088 91.7503 112.197 91.665 112.332C91.5798 112.467 91.5327 112.623 91.5289 112.783C91.0851 112.944 89.754 112.984 89.4312 113.186C88.6648 113.751 88.8262 114.638 88.6245 114.678C86.8899 115.122 84.7923 114.033 83.1384 114.799C82.735 115.001 82.735 116.211 82.1703 116.252C81.0005 116.332 79.7096 115.606 78.5801 115.969C78.1787 116.068 77.7871 116.203 77.4103 116.373C76.8462 116.107 76.2494 115.917 75.6354 115.808C75.0707 115.647 74.4656 116.05 73.7395 115.929C73.0538 115.808 72.2873 114.88 71.6419 115.243Z" fill="#CE1126"/>
</svg>
