<svg width="200" height="200" viewBox="0 0 200 200" fill="none" xmlns="http://www.w3.org/2000/svg">
<g clip-path="url(#clip0_106_6038)">
<path d="M99.9807 200C155.209 200 199.961 155.247 199.961 100.019C200 44.7911 155.209 0 99.9807 0C44.7526 0 0 44.7911 0 99.9807C0 155.209 44.7526 200 99.9807 200ZM99.9807 6.50876C106.297 22.2992 116.118 28.3073 116.118 39.5918C116.118 47.2944 109.763 54.8431 99.9807 54.8431C90.2369 54.8431 83.8436 47.3329 83.8436 39.5918C83.8821 28.3073 93.6646 22.2992 99.9807 6.50876ZM94.4348 4.81417C83.0349 22.7229 77.8741 29.3087 77.8741 39.3222C77.8741 51.3383 87.9646 61.0822 100.019 61.0822C112.035 61.0822 122.164 51.3383 122.164 39.3222C122.164 29.3087 117.004 22.7229 105.604 4.81417C155.671 7.70268 195.417 49.2201 195.417 100.019C195.417 152.706 152.706 195.378 100.058 195.378C47.3329 195.378 4.62161 152.667 4.62161 99.9807C4.62161 49.1816 44.3674 7.66416 94.4348 4.81417Z" fill="white"/>
<path d="M40.0539 87.3877C38.0512 87.3877 36.4336 89.0053 36.4336 91.008V120.317C36.4336 122.319 38.0512 123.937 40.0539 123.937C42.0565 123.937 43.6741 122.319 43.6741 120.317V91.008C43.6741 89.0053 42.0565 87.3877 40.0539 87.3877Z" fill="white"/>
<path d="M134.027 98.287C135.76 98.287 137.146 96.9005 137.146 95.1674V90.5073C137.146 88.7742 135.76 87.3877 134.027 87.3877C132.294 87.3877 130.907 88.7742 130.907 90.5073V95.1674C130.907 96.9005 132.294 98.287 134.027 98.287Z" fill="white"/>
<path d="M99.9813 186.675C147.853 186.675 186.675 147.853 186.675 99.9809C186.675 59.8114 159.369 26.0352 122.281 16.1758C124.245 18.6406 130.792 27.6528 130.792 39.2838C130.792 56.0756 116.966 69.7479 99.9813 69.7479C82.9969 69.7479 69.1706 56.0756 69.1706 39.2838C69.1706 27.6528 75.7179 18.6406 77.682 16.1758C40.6322 26.0352 13.3262 59.85 13.3262 99.9809C13.3262 147.853 52.1091 186.675 99.9813 186.675ZM150.01 110.38H156.249V120.239C156.249 122.28 157.905 123.898 159.908 123.898C161.949 123.898 163.567 122.242 163.567 120.239V116.041C163.567 115.04 162.951 113.653 162.219 112.998L151.358 103.332C150.588 102.677 150.01 101.29 150.01 100.289V81.3789C150.01 77.6046 153.091 74.5236 156.866 74.5236H164.953C168.728 74.5236 171.809 77.6046 171.809 81.3789V95.5134H163.567V90.0059C163.567 88.5424 162.373 87.3485 160.909 87.3485C159.446 87.3485 158.252 88.5424 158.252 90.0059V96.4377C158.252 97.439 158.868 98.8255 159.639 99.4802L170.499 109.186C171.231 109.84 171.847 111.227 171.847 112.228V115.001C171.847 134.373 163.49 151.82 150.01 164.337V110.38ZM120.008 123.936C121.472 123.936 122.666 122.742 122.666 121.317V90.0445C122.666 88.5809 121.472 87.387 120.008 87.387V74.5236H138.533C142.307 74.5236 145.389 77.6046 145.389 81.3789V98.2863C145.389 100.905 142.423 102.099 142.423 102.099C142.423 102.099 145.389 103.293 145.389 105.912V121.279C145.389 122.742 146.582 123.898 148.046 123.898V159.407C148.046 166.108 146.351 167.533 146.351 167.533C143.116 170.152 139.65 172.502 135.991 174.543C136.338 173.31 136.608 171.885 136.608 170.114V108.762C136.608 107.183 135.337 105.912 133.758 105.912C132.178 105.912 130.908 107.183 130.908 108.762V120.2C130.908 122.242 132.564 123.898 134.605 123.898V169.498C134.605 175.275 131.447 176.815 131.447 176.815C127.018 178.856 122.358 180.474 117.505 181.668C118.968 180.204 120.047 178.163 120.047 175.506V123.936H120.008ZM91.7394 74.485H118.044V95.5134H111.805V90.9688C111.805 88.9661 110.187 87.3485 108.185 87.3485C106.182 87.3485 104.564 88.9661 104.564 90.9688V98.2863H111.766V107.684H104.564V120.354C104.564 122.357 106.182 123.975 108.185 123.975C110.187 123.975 111.805 122.357 111.805 120.354V110.418H118.044V175.544C118.044 181.591 111.189 182.939 111.189 182.939C107.53 183.478 103.794 183.786 99.9813 183.786C96.8617 183.786 93.7806 183.593 90.7766 183.208C91.7394 182.592 93.7036 180.859 93.7036 177.085V123.936C95.1671 123.936 96.3225 122.742 96.3225 121.317V92.0086C96.3225 89.4667 94.2428 87.387 91.7009 87.387V74.485H91.7394ZM69.3631 170.191V123.936C70.8267 123.936 71.982 122.742 71.982 121.317V90.0445C71.982 88.5809 70.7881 87.387 69.3631 87.387V74.5236H82.8813V87.387C81.4178 87.387 80.2624 88.5809 80.2624 90.0445V121.317C80.2624 122.781 81.4563 123.936 82.8813 123.936C84.3449 123.936 85.5002 122.742 85.5002 121.317V110.418H91.7394V177.085C91.7394 183.324 85.5002 182.4 85.5002 182.4C78.6834 181.052 72.2131 178.818 66.2436 175.775C67.2834 175.352 69.3631 174.081 69.3631 170.191ZM53.8808 155.44V123.936C55.3443 123.936 56.4997 122.742 56.4997 121.317V90.0445C56.4997 88.5809 55.3058 87.387 53.8808 87.387V74.5236H67.399V87.387C65.9355 87.387 64.7801 88.5809 64.7801 90.0445V121.317C64.7801 122.781 65.974 123.936 67.399 123.936V170.191C67.399 175.544 62.7003 173.773 62.7003 173.773C57.5781 170.807 52.8794 167.225 48.72 163.143C50.4916 163.066 53.8808 162.026 53.8808 155.44ZM28.1538 81.3404C28.1538 77.5661 31.2349 74.485 35.0092 74.485H45.0227C48.797 74.485 51.8781 77.5661 51.8781 81.3404V155.44C51.8781 162.758 47.1024 161.987 45.0227 159.292C34.47 147.352 28.1153 131.909 28.1153 115.04V81.3404H28.1538Z" fill="white"/>
<path d="M181.976 176.854C181.976 174.004 179.665 171.731 176.854 171.731C174.004 171.731 171.731 174.042 171.731 176.854C171.731 179.704 174.042 182.015 176.854 182.015C179.665 181.976 181.976 179.665 181.976 176.854ZM172.81 176.854C172.81 174.62 174.62 172.81 176.854 172.81C179.088 172.81 180.898 174.62 180.898 176.854C180.898 179.088 179.088 180.898 176.854 180.898C174.62 180.898 172.81 179.088 172.81 176.854Z" fill="#00205B"/>
<path d="M178.971 179.781L177.816 177.277C178.509 177.046 178.971 176.392 178.971 175.621C178.971 174.658 178.201 173.888 177.238 173.888H174.773V179.781H175.89V177.393H176.699L177.816 179.781H178.971ZM177.2 176.276H175.813V175.005H177.2C177.546 175.005 177.855 175.275 177.855 175.66C177.855 176.006 177.546 176.276 177.2 176.276Z" fill="#00205B"/>
<path d="M116.118 39.6299C116.118 28.3454 106.336 22.2988 99.9809 6.54688C93.6647 22.3374 83.8438 28.3454 83.8438 39.6299C83.8438 47.3325 90.237 54.8812 99.9809 54.8812C109.763 54.8427 116.118 47.3325 116.118 39.6299Z" fill="#D14520"/>
<path d="M105.566 4.81543C116.966 22.7242 122.126 29.3099 122.126 39.3234C122.126 51.3396 112.036 61.0835 99.9812 61.0835C87.965 61.0835 77.836 51.3396 77.836 39.3234C77.836 29.3099 82.9968 22.7242 94.3968 4.81543C44.3679 7.66542 4.62207 49.1829 4.62207 99.982C4.62207 152.668 47.3334 195.341 99.9812 195.341C152.668 195.341 195.34 152.63 195.34 99.982C195.379 49.1829 155.633 7.66542 105.566 4.81543ZM99.9812 186.676C52.1091 186.676 13.2876 147.854 13.2876 99.982C13.2876 59.8125 40.5936 26.0363 77.682 16.1769C75.7178 18.6417 69.1705 27.6539 69.1705 39.2849C69.1705 56.0767 82.9968 69.749 99.9812 69.749C116.966 69.749 130.792 56.0767 130.792 39.2849C130.792 27.6539 124.245 18.6417 122.28 16.1769C159.369 26.0363 186.675 59.8125 186.675 99.982C186.675 147.854 147.853 186.676 99.9812 186.676Z" fill="#00205B"/>
<path d="M118.044 110.38H111.844V120.316C111.844 122.319 110.226 123.937 108.223 123.937C106.221 123.937 104.603 122.319 104.603 120.316V107.645H111.805V98.2481H104.603V90.9306C104.603 88.9279 106.221 87.3103 108.223 87.3103C110.226 87.3103 111.844 88.9279 111.844 90.9306V95.5137H118.044V74.4854H91.7397V87.3488C94.2816 87.3488 96.3614 89.39 96.3614 91.9704V121.279C96.3614 122.743 95.1674 123.898 93.7424 123.898V177.008C93.7424 180.821 91.7398 182.515 90.8154 183.132C93.8195 183.517 96.9005 183.709 100.02 183.709C103.833 183.709 107.569 183.401 111.228 182.862C111.228 182.862 118.083 181.514 118.083 175.467V110.38H118.044Z" fill="#00205B"/>
<path d="M91.739 110.38H85.4999V121.318C85.4999 122.781 84.3059 123.937 82.8809 123.937C81.4174 123.937 80.262 122.743 80.262 121.318V90.0062C80.262 88.5427 81.4559 87.3488 82.8809 87.3488V74.4854H69.3628V87.3488C70.8263 87.3488 71.9817 88.5427 71.9817 90.0062V121.279C71.9817 122.743 70.7877 123.898 69.3628 123.898V170.153C69.3628 174.004 67.2445 175.275 66.2432 175.66C72.2127 178.703 78.683 180.975 85.4999 182.284C85.4999 182.284 91.739 183.247 91.739 176.969V110.38Z" fill="#00205B"/>
<path d="M67.3993 170.192V123.938C65.9358 123.938 64.7804 122.744 64.7804 121.319V90.0459C64.7804 88.5823 65.9743 87.4269 67.3993 87.4269V74.5635H53.8811V87.4269C55.3446 87.4269 56.5 88.6209 56.5 90.0459V121.319C56.5 122.782 55.3061 123.938 53.8811 123.938V155.442C53.8811 162.027 50.4919 163.067 48.7588 163.144C52.9182 167.227 57.6169 170.808 62.7391 173.774C62.7391 173.812 67.3993 175.584 67.3993 170.192Z" fill="#00205B"/>
<path d="M171.809 95.5137V81.3407C171.809 77.5664 168.728 74.4854 164.953 74.4854H156.866C153.091 74.4854 150.01 77.5664 150.01 81.3407V100.251C150.01 101.252 150.626 102.639 151.358 103.293L162.18 112.999C162.912 113.653 163.528 115.04 163.528 116.041V120.239C163.528 122.28 161.872 123.898 159.87 123.898C157.828 123.898 156.211 122.242 156.211 120.239V110.38H149.972V164.337C163.413 151.859 171.809 134.374 171.809 115.001V112.228C171.809 111.227 171.193 109.841 170.461 109.186L159.639 99.4805C158.868 98.7873 158.252 97.4393 158.252 96.438V90.0062C158.252 88.5427 159.446 87.3488 160.909 87.3488C162.373 87.3488 163.567 88.5427 163.567 90.0062V95.5137H171.809Z" fill="#00205B"/>
<path d="M51.9166 155.44V81.3407C51.9166 77.5664 48.8356 74.4854 45.0612 74.4854H35.0478C31.2735 74.4854 28.1924 77.5664 28.1924 81.3407V115.04C28.1924 131.909 34.5471 147.353 45.0998 159.292C47.1025 161.988 51.9166 162.758 51.9166 155.44ZM43.6748 120.316C43.6748 122.319 42.0572 123.937 40.0545 123.937C38.0518 123.937 36.4342 122.319 36.4342 120.316V91.0076C36.4342 89.0049 38.0518 87.3873 40.0545 87.3873C42.0572 87.3873 43.6748 89.0049 43.6748 91.0076V120.316Z" fill="#00205B"/>
<path d="M145.388 121.28V105.952C145.388 103.333 142.422 102.1 142.422 102.1C142.422 102.1 145.388 100.907 145.388 98.2877V81.3803C145.388 77.606 142.307 74.5249 138.533 74.5249H120.008V87.3884C121.471 87.3884 122.665 88.5823 122.665 90.0073V121.28C122.665 122.744 121.471 123.899 120.008 123.899V175.507C120.008 178.164 118.929 180.206 117.466 181.669C122.319 180.514 127.017 178.896 131.408 176.816C131.408 176.816 134.566 175.276 134.566 169.499V123.938C132.525 123.938 130.868 122.282 130.868 120.24V108.802C130.868 107.223 132.139 105.952 133.718 105.952C135.298 105.952 136.568 107.223 136.568 108.802V170.154C136.568 171.887 136.337 173.35 135.952 174.544C139.611 172.503 143.077 170.154 146.312 167.535C146.312 167.535 148.007 166.11 148.007 159.408V123.899C146.582 123.938 145.388 122.744 145.388 121.28ZM137.146 95.1681C137.146 96.9012 135.76 98.2877 134.027 98.2877C132.293 98.2877 130.907 96.9012 130.907 95.1681V90.508C130.907 88.7749 132.293 87.3884 134.027 87.3884C135.76 87.3884 137.146 88.7749 137.146 90.508V95.1681Z" fill="#00205B"/>
</g>
<defs>
<clipPath id="clip0_106_6038">
<rect width="200" height="200" fill="white"/>
</clipPath>
</defs>
</svg>
