<svg width="200" height="200" viewBox="0 0 200 200" fill="none" xmlns="http://www.w3.org/2000/svg">
<path d="M11 20.333V58.2386C11.2959 81.4594 16.4592 104.36 26.1566 125.461C42.8417 161.613 67.3877 182.904 100.309 200C132.96 183.041 157.671 161.844 174.462 125.461C184.16 104.36 189.323 81.4594 189.619 58.2386V20.3323C162.007 5.95763 130.435 0 100.309 0C70.4633 0 38.7915 5.86194 11 20.333Z" fill="#041E42"/>
<path d="M15.8477 23.2736V58.2385C16.1375 80.7585 21.1488 102.967 30.5579 123.43C46.0716 157.044 69.6 178.589 100.31 194.539C131.143 178.524 154.602 156.927 170.062 123.43C179.471 102.967 184.482 80.7585 184.772 58.2385V23.2736C160.317 10.5421 128.311 4.84619 100.31 4.84619C72.2122 4.84619 40.2543 10.5652 15.8477 23.2736Z" fill="#B9975B"/>
<path d="M136.711 94.1424C140.7 91.8984 146.06 86.9115 146.06 86.9115C148.928 78.4347 151.405 67.0699 151.405 67.0699C151.405 65.9479 150.05 64.1243 150.05 64.1243C148.604 63.5634 147.098 63.1714 145.562 62.9561C140.933 63.7039 134.903 68.2384 130.102 72.0044C132.404 71.8919 134.695 71.6227 136.96 71.1987C136.087 73.4427 132.97 79.3024 132.97 79.3024C134.944 79.2524 136.907 79.0017 138.83 78.5542C137.6 82.0549 136.143 85.4714 134.467 88.7817L136.711 94.1424ZM103.363 78.3673C102.738 78.1023 102.11 77.8446 101.478 77.594C99.6288 76.8577 98.0335 76.2791 98.0335 76.2791C98.0335 76.2791 97.6536 76.2816 96.9051 76.3667C96.7179 76.3882 96.5075 76.4152 96.2738 76.4477C95.7123 76.528 95.1533 76.6232 94.5967 76.7334C89.676 77.7997 84.892 79.4198 80.336 81.5627L79.773 80.406L79.0226 78.8644L71.5107 89.2027C74.0267 89.647 76.5793 89.8549 79.134 89.8237C82.3667 89.8066 85.5924 89.5187 88.777 88.9631C91.2409 86.8565 93.5685 84.5956 95.7459 82.194C96.2249 81.6696 96.6974 81.1394 97.1633 80.6032C97.6623 80.0294 97.976 79.6521 98.064 79.5513C99.8099 79.0526 101.182 78.803 103.363 78.3673ZM114.836 85.19C110.598 81.8241 107.851 80.9109 107.851 80.9109C107.851 80.9109 108.105 85.7295 107.731 87.2567C104.91 91.059 101.895 94.7145 98.6995 98.2086L113.434 91.4543C114.287 88.31 114.836 85.19 114.836 85.19Z" fill="#041E42"/>
<path d="M100.309 48.4194C54.6641 48.4194 24.3715 63.2061 21.9355 64.4334C23.3812 92.9195 35.1806 144.368 83.8355 177.968C90.3464 174.482 94.6863 168.62 97.2661 164.051C102.396 170.253 102.926 178.907 102.927 178.912C102.508 182.01 101.626 185.028 100.309 187.864C104.547 185.665 108.676 183.275 112.698 180.692C118.937 176.688 124.858 172.21 130.409 167.295C130.562 167.16 130.715 167.024 130.867 166.888C148.026 149.136 148.517 122.53 148.517 122.53C144.777 107.009 138.207 101.622 138.207 101.622C139.516 108.722 140.326 116.514 140.326 116.514C137.526 122.384 133.56 127.622 128.67 131.91C121.938 132.658 116.601 131.987 107.259 128.824C102.268 127.11 97.5223 124.753 93.141 121.812C90.9266 121.711 88.7078 121.773 86.5026 121.999C83.4957 122.315 79.8642 123.121 79.8642 123.121C83.8846 116.015 86.2692 108.796 86.7033 105.512C84.0456 102.638 81.1258 100.017 77.9819 97.6845C71.3239 97.9947 66.0268 98.38 66.0268 98.38L68.2707 89.2799C68.2707 89.2799 66.7394 90.5551 65.0281 92.2666C63.191 94.1037 61.1648 96.3859 61.1648 96.3859C58.0515 97.5202 54.837 98.3549 51.5651 98.8787C49.5763 98.2876 47.6859 97.4054 45.9552 96.261C52.6874 86.2881 63.6579 82.2983 63.6579 82.2983C61.6629 79.9304 61.7878 78.0602 61.7878 78.0602C64.5846 76.2112 67.1397 74.6885 69.3978 73.4429C69.0802 74.243 68.8687 75.0811 68.7684 75.936C70.7491 74.3322 72.8106 72.8309 74.9448 71.4379C77.5628 69.867 80.1134 68.5234 80.1134 68.5234C81.8067 63.0677 84.7095 58.6437 85.4577 58.0153C86.225 57.8878 87.0031 57.8375 87.7803 57.865C87.929 59.6498 89.9671 62.4942 90.7959 63.5847C87.9773 64.5781 85.3162 65.9719 82.8946 67.7232C82.8946 67.7232 92.1979 65.2413 100.433 64.9655C111.59 64.5914 118.466 67.1077 118.466 67.1077C117.237 68.8307 115.92 70.4892 114.521 72.0766C132.976 65.8203 134.903 61.0386 144.907 58.8884C147.268 59.2921 149.592 59.8861 151.857 60.6645C153.24 62.0762 154.247 63.812 154.787 65.7134C153.415 76.3721 149.114 88.3452 149.114 88.3452C145.749 92.4587 139.952 96.1987 139.952 96.1987C145.749 95.4511 154.351 92.8276 154.351 92.8276C159.698 96.7304 166.72 105.213 169.633 108.865C174.79 94.5723 177.839 79.6047 178.684 64.4334C176.248 63.2061 145.956 48.4194 100.309 48.4194Z" fill="#041E42"/>
<path d="M49.0719 120.072C50.3237 118.076 51.7558 116.2 53.3501 114.466L50.7539 107.164C49.8047 106.292 48.9293 105.344 48.1369 104.328C47.4761 103.466 46.8567 102.575 46.2789 101.654L43.7109 108.353C45.189 112.393 46.9815 116.312 49.0719 120.072ZM52.5625 123.931C53.6989 127.344 55.7725 130.368 58.5464 132.658C63.8373 130.674 69.373 129.417 75.0019 128.922C75.0019 128.922 62.5353 123.812 54.4326 118.077C53.2544 119.805 52.6046 121.84 52.5625 123.931ZM88.7774 88.9627C85.5925 89.5185 82.3667 89.8064 79.1337 89.8233C76.579 89.8543 74.027 89.6464 71.5111 89.2022L76.9964 91.7679C81.4778 92.0596 85.978 91.724 90.3666 90.7709C93.318 88.039 95.9054 84.9385 98.065 81.5459C98.1026 80.8814 98.1023 80.2153 98.064 79.5508C97.9757 79.652 97.662 80.029 97.163 80.6028C96.6969 81.1388 96.2243 81.669 95.7453 82.1936C93.5683 84.5954 91.2413 86.8563 88.7774 88.9627ZM73.0072 121.568C73.0072 121.568 73.4551 120.862 74.0611 119.688C72.5115 118.275 70.8453 116.996 69.0803 115.864C71.2444 115.813 73.4074 116.007 75.5279 116.442C75.7077 115.983 75.8831 115.501 76.0529 115.001C74.1081 113.506 72.0153 112.213 69.8073 111.143C72.221 110.824 74.6634 110.783 77.0866 111.02C77.1637 110.579 77.2247 110.133 77.2751 109.683C74.6951 108.084 71.9058 106.849 68.9868 106.016C70.7946 105.437 72.6555 105.038 74.5421 104.826L72.0714 101.928C70.149 101.86 68.2243 101.896 66.3058 102.037C62.4479 102.296 58.9099 102.801 58.9099 102.801C58.3219 103.243 57.4273 103.954 56.769 104.468C55.8796 105.26 55.0754 106.143 54.3697 107.102L54.4901 114.225C56.7835 115.294 65.7792 119.41 73.0072 121.568ZM111.154 142.008C112.108 144.426 112.828 146.931 113.304 149.487C113.74 151.482 113.866 153.532 113.679 155.565C101.711 141.852 84.3518 133.411 84.3518 133.411C84.3518 133.411 108.412 153.232 102.926 178.912C102.508 182.01 101.625 185.028 100.309 187.864C104.546 185.665 108.676 183.275 112.697 180.692C118.937 176.688 124.858 172.21 130.409 167.295C123.661 152.169 111.154 142.008 111.154 142.008ZM80.3353 81.5619C84.8915 79.4192 89.6756 77.7992 94.5964 76.733C95.1528 76.6228 95.7118 76.5276 96.2735 76.4472C96.4835 76.4174 96.694 76.3906 96.9048 76.3666C97.6539 76.2809 98.0322 76.2787 98.0322 76.2787H98.0335C89.3339 74.7437 79.0219 78.8636 79.0219 78.8636L79.7727 80.4059L80.3353 81.5619Z" fill="white"/>
<path d="M83.6666 85.7897C83.0448 85.9774 82.3849 86.0009 81.7513 85.858C81.1177 85.7151 80.5319 85.4106 80.0509 84.9741C79.5833 85.7685 79.0535 86.6625 79.0535 86.6625C80.3163 87.1514 81.6675 87.3707 83.0201 87.3063C84.3728 87.2419 85.697 86.8951 86.9076 86.2884C87.6574 85.9421 88.3304 85.4494 88.8871 84.8392C89.4438 84.2291 89.8729 83.5139 90.1493 82.7356C88.6185 82.8488 87.095 83.046 85.5859 83.3264C85.4719 83.855 85.2401 84.3509 84.9077 84.7774C84.5753 85.2038 84.1513 85.5501 83.6666 85.7897ZM21.7718 58.0686C45.286 47.369 74.4249 42.4955 100.31 42.4955C126.109 42.4955 155.287 47.3539 178.848 58.0731V26.8691C178.848 26.8691 147.931 10.771 100.31 10.771C52.6881 10.771 21.7715 26.8691 21.7715 26.8691L21.7718 58.0686Z" fill="#C8102E"/>
<path d="M63.9836 36.0542C61.7467 36.4714 59.5175 36.9266 57.2958 37.42V21.1536C55.9301 21.4574 54.5665 21.7756 53.2051 22.1082V42.4862C56.7758 41.613 60.3686 40.8395 63.9836 40.1658V36.0542ZM100.457 28.6766C100.787 28.6766 101.115 28.6776 101.444 28.6799C102.548 31.3974 103.652 34.124 104.755 36.8596C106.233 36.8933 107.71 36.943 109.187 37.0086C108.084 34.2486 106.981 31.4973 105.877 28.7547C106.333 28.7675 106.789 28.782 107.245 28.798C107.891 27.6492 108.538 26.5011 109.186 25.3538V20.1478C108.542 18.9494 107.896 17.7519 107.248 16.5552C103.595 16.4272 99.9399 16.4003 96.2836 16.4743C96.2836 23.2668 96.2833 30.059 96.2829 36.8509C97.6742 36.8228 99.0657 36.8093 100.457 36.8105L100.457 28.6766ZM100.457 20.5441C101.976 20.5457 103.495 20.5643 105.015 20.6V24.6219C103.496 24.5858 101.977 24.5671 100.457 24.5657V20.5441ZM37.1394 39.0095C38.6914 38.4878 40.2497 37.9855 41.8142 37.5025V33.3906C40.2498 33.8736 38.6915 34.376 37.1394 34.8976V30.8759C39.3107 30.1463 41.4941 29.4542 43.6895 28.7996V24.6887C40.1421 25.7457 36.6263 26.9013 33.1422 28.1555C33.1422 34.948 33.142 41.7405 33.1416 48.5331C34.4691 48.0547 35.8017 47.5909 37.1395 47.1417L37.1394 39.0095ZM159.089 37.5911C160.558 38.0471 162.021 38.5198 163.479 39.0095V47.1417C164.815 47.5912 166.147 48.055 167.476 48.5331V31.6762C166.859 30.2823 166.24 28.8893 165.619 27.4972C162.745 26.4946 159.849 25.5587 156.93 24.6894C156.304 25.6752 155.677 26.6642 155.049 27.6565V44.5162C156.4 44.904 157.747 45.3061 159.089 45.7223L159.089 37.5911ZM159.089 29.4586C160.558 29.9142 162.021 30.3872 163.479 30.8776V34.8986C162.02 34.4085 160.557 33.9359 159.089 33.4805V29.4586ZM84.578 37.435C85.2223 36.2128 85.8683 34.9913 86.5159 33.7708V20.4343C85.871 19.3084 85.2249 18.1833 84.5777 17.0587C81.576 17.2971 78.5809 17.6043 75.5926 17.9803C74.9479 19.2357 74.3051 20.492 73.6639 21.7492V35.0909C74.3061 36.1763 74.949 37.2648 75.5926 38.3566C78.5802 37.9812 81.5756 37.674 84.578 37.435ZM77.8131 21.826C79.3249 21.6535 80.8381 21.4983 82.3526 21.3604V33.5126C80.8376 33.6501 79.3244 33.8052 77.8131 33.9779V21.826ZM123.1 17.7469C121.716 17.5867 120.331 17.4411 118.944 17.3098V37.6878C120.331 37.8188 121.716 37.9641 123.1 38.1238V17.7469ZM145.515 38.5114V25.1749C144.882 23.8553 144.247 22.5366 143.61 21.2188C140.028 20.4173 136.425 19.7155 132.803 19.1132V39.4905C136.424 40.0919 140.026 40.7935 143.61 41.5954C144.246 40.5646 144.881 39.5369 145.515 38.5114ZM141.417 37.0054C139.924 36.6886 138.428 36.3896 136.927 36.1082V23.9556C138.426 24.2375 139.923 24.5367 141.417 24.8531V37.0054Z" fill="white"/>
</svg>
