<svg width="200" height="200" viewBox="0 0 200 200" fill="none" xmlns="http://www.w3.org/2000/svg">
<path d="M16 0V139.322L100.071 200L183.918 139.322V0.000314239L16 0Z" fill="black"/>
<path d="M20.1562 4.15625V137.198L100.07 194.872L179.761 137.198V4.15625H20.1562Z" fill="#A2AAAD"/>
<path d="M100.07 190.065L175.865 135.206V8.05273H24.0518V135.207L90.7997 183.375L100.07 190.065ZM28.9001 12.5083H171.252V96.5159H28.9001V12.5083ZM28.9001 100.908H171.252V132.252L100.076 183.697L100.075 183.698L71.3365 162.925L28.8998 132.252L28.9001 100.908Z" fill="white"/>
<path d="M33.3828 17.0061L33.3834 17.0049H166.765V89.9019H166.764V89.9028H33.3831L33.3828 17.0061Z" fill="#A2AAAD"/>
<path d="M33.386 108.712H33.3847V129.951L100.075 178.149L100.075 178.148L166.769 129.952V108.713L33.386 108.712ZM166.765 89.9019V17.0049H33.3838V89.9019H166.765Z" fill="black"/>
<path d="M100.07 190.065L175.865 135.206V8.05273H24.0518V135.207L90.7997 183.375L100.07 190.065ZM28.9001 12.5083H171.252V96.5159H28.9001V12.5083ZM28.9001 100.908H171.252V132.252L100.076 183.697L100.075 183.698L71.3365 162.925L28.8998 132.252L28.9001 100.908Z" fill="white"/>
<path d="M166.765 89.9019V17.0049H33.3838V89.9019H166.765ZM33.386 108.712H33.3847V129.951L100.075 178.149L100.075 178.148L166.769 129.952V108.713L33.386 108.712Z" fill="black"/>
<path d="M151.586 36.4697H112.109V51.873H151.586V36.4697ZM150.43 50.7192H113.266V37.6201H150.429L150.43 50.7192Z" fill="#A2AAAD"/>
<path d="M75.4513 69.2886H49.7268V53.4537C49.7268 36.8137 53.2308 29.8646 53.8855 28.7114C53.9521 28.5939 53.9886 28.5374 53.9902 28.5352H37.3893C37.4059 28.5602 41.6551 35.133 41.6551 53.4527C41.6551 71.8075 37.3887 78.3684 37.3887 78.3684H91.641L91.6441 78.3638C94.6342 73.7404 96.2048 68.3425 96.1618 62.8367C96.1071 62.8936 89.9133 69.2886 75.4513 69.2886ZM158.492 53.4527C158.492 51.3917 158.549 49.4872 158.644 47.7159C159.4 33.7151 162.765 28.5352 162.765 28.5352H100.921C100.938 28.5602 105.2 35.133 105.2 53.4527C105.2 67.2203 102.792 74.3526 101.589 77.0571C101.398 77.5093 101.175 77.9474 100.921 78.3681H113.263V59.8071H150.43V78.3681H162.765C162.752 78.3487 158.895 72.3881 158.524 56.0069C158.505 55.1797 158.492 54.334 158.492 53.4527ZM150.429 50.7192H113.265V37.62H150.429L150.429 50.7192Z" fill="#A2AAAD"/>
<path d="M86.6632 69.0025C83.0061 69.991 79.2308 70.4743 75.4426 70.4388H48.5712V53.4526C48.5275 48.5029 48.9026 43.5585 49.6925 38.6721C50.076 36.3174 50.6392 33.9955 51.3773 31.7267C51.6054 31.0398 51.86 30.3626 52.141 29.6951H39.2363C39.5177 30.362 39.7726 31.0393 40.0011 31.7267C40.7396 33.9953 41.303 36.3173 41.6861 38.6721C42.4752 43.5586 42.8499 48.503 42.8062 53.4526V53.4535C42.8485 58.3603 42.4812 63.2621 41.708 68.1077C41.3065 70.6311 40.6941 73.1164 39.8773 75.5375C39.6822 76.1024 39.4685 76.6603 39.2363 77.2113H91.0197C91.723 76.0724 92.3276 74.8753 92.827 73.6333C93.9135 70.9731 94.6008 68.1669 94.8668 65.3057C94.2577 65.7192 93.63 66.1033 92.9839 66.458C90.9825 67.5478 88.8614 68.4017 86.6632 69.0025ZM157.643 61.5496C157.453 59.1416 157.335 56.4621 157.335 53.4548C157.335 50.9265 157.415 48.6186 157.554 46.5169C157.784 41.6396 158.609 36.8087 160.012 32.1318C160.333 31.1348 160.642 30.3207 160.908 29.6938H102.781C103.567 31.607 104.184 33.5855 104.624 35.6067C105.869 41.4723 106.45 47.4593 106.357 53.4548C106.453 59.4867 105.863 65.51 104.599 71.4089C104.163 73.3922 103.554 75.3337 102.781 77.2114H112.109V58.646L112.11 58.6438H151.587V77.2113H160.908C160.637 76.5738 160.322 75.7416 159.995 74.7209C158.71 70.4349 157.921 66.0155 157.643 61.5496ZM151.587 51.8728H112.109V36.4695H151.586L151.587 51.8728Z" fill="white"/>
<path d="M124.049 126.234C124.042 126.243 120.008 131.628 119.258 132.632L119.257 132.632L119.255 132.634C118.44 131.664 117.518 130.789 116.506 130.026C114.596 128.565 112.454 127.433 110.171 126.677L110.171 126.676C110.406 126.108 111.223 124.118 111.702 122.95L112.059 122.078L111.087 122.472C110.276 122.803 109.466 123.133 108.657 123.465L108.658 123.462L108.653 123.464C108.755 123.25 108.863 123.051 108.865 123.046L106.938 123.145C105.961 123.197 104.922 123.253 104.639 123.27C104.598 123.196 104.52 123.058 104.421 122.881C104.098 122.308 103.523 121.29 103.018 120.396C102.577 119.614 102.19 118.931 102.083 118.739C102.17 118.586 102.329 118.307 102.499 118.011C102.786 117.509 103.103 116.954 103.156 116.875C103.213 116.818 103.45 116.614 103.686 116.413C103.951 116.183 104.213 115.958 104.213 115.958L103.001 113.658L101.792 113.741L100.424 113.836L100.412 114.154C100.4 114.527 100.379 115.112 100.375 115.264L100.193 115.559L100.079 115.752L100.076 115.748L100.075 115.75L99.9132 115.485L99.7757 115.262C99.7695 115.037 99.7245 113.844 99.7242 113.836L98.6019 113.758L97.145 113.658L96.6056 114.681L95.9346 115.958C95.9346 115.958 96.8659 116.754 96.9981 116.874C97.0787 117.003 97.8325 118.324 98.0744 118.739C97.8034 119.216 95.8086 122.745 95.5189 123.27C95.2039 123.251 94.0076 123.188 92.9654 123.133C92.0678 123.086 91.2843 123.046 91.2843 123.046C91.2843 123.046 91.3459 123.162 91.4219 123.313C91.4471 123.363 91.472 123.413 91.4966 123.463L91.4972 123.465C91.255 123.365 90.9347 123.234 90.5884 123.093C89.4905 122.646 88.1304 122.093 88.0957 122.079C88.1029 122.098 88.5014 123.074 88.937 124.139C89.3589 125.167 89.8143 126.276 89.9796 126.676L89.9793 126.677C86.8204 127.702 83.9521 129.466 81.6135 131.824C81.6041 131.833 81.5926 131.843 81.5835 131.853C81.5607 131.877 81.5435 131.899 81.521 131.923C81.3034 132.153 81.0939 132.39 80.8925 132.634L80.7194 132.402C79.6631 130.991 76.1035 126.233 76.1035 126.233L75.0791 126.677L80.0222 155.044C80.0222 155.044 87.0663 156.845 100.075 156.845C113.081 156.845 120.125 155.044 120.125 155.044L125.071 126.677L124.454 126.409L124.049 126.234Z" fill="white"/>
<path d="M91.4857 136.489C91.0697 136.489 90.6708 136.654 90.3761 136.948C90.0814 137.241 89.9149 137.64 89.9131 138.056C89.9126 138.262 89.953 138.468 90.0318 138.659C90.1106 138.85 90.2264 139.024 90.3724 139.17C90.5185 139.317 90.692 139.433 90.883 139.512C91.074 139.591 91.2787 139.632 91.4855 139.632C91.6923 139.632 91.897 139.591 92.088 139.512C92.279 139.433 92.4525 139.317 92.5986 139.17C92.7446 139.024 92.8604 138.85 92.9392 138.659C93.018 138.468 93.0584 138.263 93.0579 138.056C93.0579 137.85 93.0173 137.646 92.9384 137.456C92.8596 137.266 92.7441 137.093 92.5986 136.948C92.453 136.802 92.2802 136.687 92.0901 136.608C91.8999 136.53 91.6961 136.489 91.4904 136.489L91.4857 136.489ZM108.341 136.489C107.925 136.49 107.526 136.654 107.231 136.948C106.937 137.241 106.77 137.64 106.768 138.056C106.768 138.473 106.934 138.874 107.229 139.169C107.525 139.465 107.925 139.63 108.343 139.63C108.76 139.63 109.16 139.465 109.456 139.169C109.751 138.874 109.917 138.474 109.917 138.056C109.915 137.64 109.748 137.24 109.453 136.946C109.157 136.653 108.758 136.488 108.341 136.489Z" fill="black"/>
<path d="M119.228 134.479L119.219 134.466C118.972 134.066 118.702 133.682 118.41 133.316C118.112 132.942 117.793 132.585 117.456 132.245L117.43 132.219C117.084 131.873 116.722 131.543 116.343 131.232L116.29 131.188C115.904 130.874 115.505 130.576 115.093 130.296C115.062 130.275 115.031 130.254 114.999 130.232C114.537 129.923 114.062 129.633 113.575 129.364C113.071 129.086 112.557 128.828 112.032 128.591C111.49 128.345 110.94 128.12 110.38 127.916C109.857 127.724 109.327 127.55 108.792 127.392C108.765 127.384 108.74 127.375 108.713 127.368L108.714 127.366L109.546 125.338L110.043 124.128L110.044 124.126L103.222 127.187V125.508L100.077 120.085L100.076 120.087L96.9225 125.508V127.187L96.9203 127.186L90.1037 124.126L90.735 125.659L91.4378 127.368C88.1644 128.234 85.1602 129.906 82.6998 132.233C82.0205 132.91 81.4222 133.664 80.9169 134.479L76.513 128.578L76.5117 128.576L78.0274 137.392L80.8619 153.875C80.8619 153.875 86.4829 155.278 95.9612 155.544L95.9749 155.544C95.9749 155.544 89.5321 154.942 85.7035 153.48L85.6988 153.478C86.1383 153.54 86.5781 153.6 87.0182 153.657C88.2908 153.823 89.7865 153.994 91.3716 154.127C93.0123 154.266 94.738 154.364 96.4 154.364L96.4131 154.365C94.5811 154.156 92.7614 153.849 90.9619 153.447C89.859 153.205 88.7735 152.889 87.7127 152.502L87.7242 152.504C88.6055 152.622 89.6171 152.746 90.6944 152.859C92.9524 153.107 95.2216 153.241 97.4932 153.259H97.5025C94.5913 152.948 91.7189 152.345 88.9287 151.459L88.9277 151.458C89.8957 151.254 90.8687 151.075 91.8466 150.923C96.819 150.126 101.881 150.057 106.873 150.719C108.433 150.922 109.894 151.176 111.214 151.458L111.211 151.459C108.426 152.346 105.558 152.949 102.652 153.259H102.66C104.957 153.24 107.252 153.104 109.534 152.85C110.504 152.748 111.472 152.632 112.438 152.502C111.351 152.898 110.239 153.219 109.109 153.465C107.334 153.858 105.54 154.159 103.734 154.365L103.743 154.365C105.415 154.364 107.152 154.265 108.803 154.125C110.449 153.985 112.006 153.806 113.308 153.634C113.713 153.581 114.098 153.528 114.449 153.479L114.445 153.48C110.619 154.942 104.173 155.544 104.173 155.544L104.19 155.544C113.669 155.278 119.283 153.875 119.283 153.875L123.639 128.579L123.639 128.576L119.228 134.479ZM103.225 139.224V127.803L105.199 126.917L108.981 125.218L108.98 125.221L105.142 134.563L103.225 139.229V139.224ZM108.252 128.484L108.252 128.483C111.182 129.276 113.894 130.723 116.184 132.716C117.081 133.523 117.844 134.468 118.444 135.515L118.444 135.516L117.34 136.992L117.243 137.121C116.52 135.701 115.515 134.443 114.288 133.426C114.119 133.285 113.946 133.15 113.769 133.018C113.649 132.93 113.529 132.848 113.41 132.766C113.356 132.729 113.302 132.689 113.248 132.653C113.134 132.577 113.02 132.508 112.906 132.438C112.848 132.402 112.789 132.362 112.73 132.328C112.618 132.262 112.508 132.202 112.398 132.141C112.339 132.108 112.28 132.073 112.222 132.042C112.111 131.983 112.003 131.93 111.894 131.876C111.839 131.848 111.782 131.818 111.726 131.792C111.618 131.74 111.513 131.694 111.407 131.647C111.355 131.624 111.301 131.598 111.25 131.576C111.138 131.528 111.03 131.485 110.922 131.443C110.881 131.427 110.838 131.408 110.797 131.392C110.682 131.348 110.571 131.308 110.461 131.27C110.432 131.26 110.401 131.248 110.372 131.238C110.251 131.196 110.135 131.159 110.023 131.124C110.009 131.12 109.995 131.115 109.982 131.111C109.492 130.954 108.99 130.839 108.482 130.765L108.472 130.764C109.741 131.22 110.949 131.832 112.068 132.586C113.617 133.6 114.857 135.021 115.653 136.692C115.912 137.253 116.114 137.838 116.257 138.439L115.135 139.948C115.135 139.949 115.28 143.976 114.475 145.674C114.304 145.61 114.133 145.549 113.961 145.489C113.844 145.448 113.727 145.407 113.598 145.365V145.364C114.495 141.665 114.083 139.006 113.156 137.109C113.049 136.889 112.932 136.675 112.806 136.465C112.718 136.32 112.625 136.187 112.532 136.052C112.494 135.997 112.458 135.937 112.42 135.883C112.323 135.75 112.221 135.627 112.12 135.504C112.082 135.457 112.045 135.405 112.006 135.36C111.904 135.24 111.798 135.131 111.693 135.022C111.653 134.979 111.614 134.933 111.573 134.892C111.463 134.783 111.352 134.683 111.241 134.584C111.204 134.549 111.166 134.511 111.128 134.478C111.012 134.379 110.894 134.282 110.773 134.189C110.742 134.165 110.711 134.138 110.681 134.115C110.559 134.024 110.435 133.935 110.309 133.85C110.285 133.834 110.261 133.815 110.238 133.799C110.11 133.714 109.984 133.637 109.861 133.563C109.843 133.552 109.824 133.539 109.807 133.529C109.671 133.449 109.54 133.375 109.411 133.308L109.398 133.301C108.873 133.018 108.318 132.796 107.744 132.64L107.74 132.639C113.723 135.723 113.167 141.228 111.949 144.856L111.949 144.858C111.662 144.783 111.355 144.702 111.035 144.621C110.792 144.559 110.549 144.499 110.305 144.443L109.67 141.306L109.473 140.334C109.839 140.234 110.167 140.03 110.419 139.746C110.67 139.462 110.832 139.111 110.887 138.735C110.942 138.36 110.886 137.977 110.727 137.634C110.567 137.29 110.311 137 109.989 136.799C109.906 136.696 109.814 136.602 109.714 136.516C109.417 136.249 109.048 136.074 108.654 136.012C108.259 135.95 107.855 136.004 107.491 136.167C107.126 136.33 106.816 136.595 106.599 136.931C106.382 137.266 106.267 137.657 106.267 138.056C106.281 138.413 106.381 138.761 106.559 139.07C106.737 139.38 106.987 139.641 107.289 139.832L105.201 143.637C104.871 143.603 104.532 143.577 104.194 143.55C103.828 143.519 103.459 143.493 103.087 143.472C102.764 143.453 102.442 143.431 102.117 143.418L108.252 128.484ZM108.342 139.832C108.024 139.834 107.71 139.749 107.435 139.588C107.16 139.427 106.934 139.194 106.78 138.915C106.626 138.636 106.55 138.321 106.56 138.002C106.571 137.683 106.667 137.374 106.838 137.105C107.01 136.836 107.251 136.619 107.536 136.476C107.821 136.333 108.139 136.269 108.457 136.291C108.775 136.314 109.081 136.422 109.343 136.604C109.605 136.785 109.813 137.035 109.945 137.325C110.05 137.55 110.106 137.795 110.108 138.044C110.111 138.293 110.059 138.539 109.958 138.766C109.821 139.081 109.595 139.35 109.308 139.539C109.022 139.728 108.686 139.83 108.342 139.832ZM100.073 124.205L100.077 124.2L102.652 127.561L100.077 130.612L100.073 130.608L97.5025 127.561L100.073 124.205ZM91.1678 125.22L91.1671 125.218L96.3468 127.544L96.9224 127.803V139.229L96.5037 138.209L91.1678 125.22ZM81.7032 135.517C82.3635 134.368 83.2169 133.341 84.2258 132.482C86.4659 130.614 89.0815 129.25 91.8953 128.483L91.8962 128.485L98.0309 143.418C97.6284 143.434 97.2302 143.459 96.833 143.485C96.1936 143.525 95.5599 143.574 94.9439 143.637L94.9076 143.571L93.04 140.168L93.0394 140.167C93.2649 140.042 93.4635 139.873 93.6238 139.671C93.7841 139.469 93.9029 139.237 93.9733 138.989C94.0438 138.741 94.0646 138.481 94.0345 138.225C94.0044 137.969 93.924 137.721 93.7979 137.496C93.7947 137.491 93.7894 137.486 93.7863 137.481C93.6266 137.204 93.4024 136.97 93.1328 136.799C92.8207 136.39 92.3672 136.112 91.8609 136.019C91.3545 135.926 90.8318 136.025 90.3946 136.297C89.9574 136.568 89.6371 136.993 89.4963 137.488C89.3554 137.983 89.4042 138.513 89.633 138.974C89.8639 139.439 90.2591 139.801 90.7418 139.99L89.8361 144.443C89.7967 144.453 89.762 144.462 89.7233 144.471C89.1733 144.601 88.6654 144.735 88.196 144.858L88.1957 144.858C88.136 144.677 88.0793 144.496 88.0254 144.314C87.3666 142.124 87.0213 139.381 88.1198 136.904C89.0052 135.025 90.5213 133.516 92.4044 132.639L92.4 132.641C92.0466 132.734 91.7014 132.856 91.3677 133.005L91.3602 133.009C91.2434 133.06 91.1197 133.117 90.9893 133.18C90.9712 133.189 90.9512 133.2 90.9324 133.209C90.8158 133.268 90.6965 133.329 90.5721 133.398C90.5436 133.413 90.5133 133.433 90.4846 133.449C90.3671 133.516 90.2483 133.584 90.1261 133.661C90.0911 133.683 90.0552 133.709 90.0199 133.732C89.9011 133.809 89.782 133.887 89.6605 133.974C89.6236 134.001 89.5861 134.032 89.5489 134.06C89.4286 134.149 89.3076 134.239 89.1864 134.339C89.1482 134.371 89.1104 134.408 89.0726 134.44C88.9523 134.543 88.832 134.647 88.7132 134.76C88.6757 134.796 88.6392 134.838 88.602 134.875C88.4835 134.993 88.3651 135.111 88.2497 135.24C88.2135 135.281 88.1791 135.328 88.1435 135.369C88.0294 135.503 87.9153 135.636 87.806 135.782C87.7725 135.827 87.7422 135.878 87.7091 135.924C87.6009 136.075 87.4934 136.226 87.3922 136.389C87.3578 136.445 87.3281 136.507 87.295 136.564C87.1997 136.726 87.1037 136.889 87.0166 137.065C86.8957 137.309 86.7866 137.558 86.6894 137.812C85.9868 139.648 85.7549 142.1 86.5459 145.364C86.2531 145.462 85.962 145.566 85.6727 145.674C85.3936 144.982 85.2191 144.253 85.1549 143.509C85.0284 142.327 84.9808 141.137 85.0124 139.948L84.333 139.034L83.8908 138.44C83.8939 138.428 83.8977 138.416 83.9002 138.404C84.493 135.932 86.1362 133.409 89.7973 131.576C90.4072 131.271 91.0334 131 91.6731 130.764L91.6668 130.765C90.9971 130.863 90.3389 131.028 89.7023 131.259C89.6867 131.264 89.6689 131.272 89.653 131.277C89.2464 131.42 88.8474 131.583 88.4576 131.766C88.4323 131.778 88.4088 131.787 88.3832 131.8C88.3751 131.803 88.3663 131.809 88.3579 131.813C86.002 132.929 84.0838 134.797 82.9048 137.122L81.8225 135.677L81.7032 135.517ZM92.6316 139.4C92.3141 139.677 91.9075 139.83 91.4862 139.832C91.064 139.837 90.6535 139.693 90.3267 139.426C89.9999 139.159 89.7779 138.785 89.6995 138.37C89.6212 137.955 89.6916 137.526 89.8984 137.158C90.1051 136.789 90.435 136.506 90.8301 136.357C91.2252 136.208 91.6601 136.203 92.0584 136.343C92.4568 136.483 92.793 136.759 93.0081 137.122C93.2232 137.485 93.3034 137.913 93.2345 138.33C93.1657 138.746 92.9522 139.125 92.6316 139.4ZM79.6215 143.328L79.3637 141.82C79.3869 141.814 79.4107 141.811 79.4346 141.81C79.4771 141.8 79.5204 141.793 79.564 141.791H79.5665C79.6689 141.792 79.7697 141.816 79.8619 141.861C79.954 141.905 80.0351 141.97 80.0993 142.05C80.2209 142.192 80.2879 142.373 80.2884 142.561C80.2939 142.749 80.2286 142.932 80.1054 143.074C79.9823 143.216 79.8102 143.306 79.6234 143.327L79.6215 143.328ZM79.8693 144.755L79.8212 144.472C80.2768 144.393 80.6835 144.139 80.9544 143.765C81.2152 143.413 81.3546 142.986 81.3516 142.548C81.3486 142.11 81.2034 141.684 80.9378 141.336C80.7799 141.12 80.5738 140.943 80.3358 140.82C80.0978 140.697 79.8344 140.631 79.5665 140.628H79.565C79.4306 140.627 79.2968 140.644 79.1671 140.679L79.1121 140.396C79.2606 140.362 79.4123 140.343 79.5646 140.341H79.5665C79.8483 140.351 80.1255 140.416 80.3821 140.533C80.6388 140.649 80.8699 140.816 81.0623 141.022C81.2547 141.228 81.4046 141.47 81.5035 141.734C81.6023 141.998 81.6482 142.279 81.6385 142.561C81.651 143.077 81.4801 143.58 81.1562 143.982C80.8324 144.384 80.3762 144.658 79.8693 144.755ZM120.597 142.897L120.523 143.328H120.522C120.335 143.307 120.163 143.216 120.04 143.074C119.917 142.932 119.851 142.749 119.856 142.561C119.856 142.426 119.891 142.294 119.958 142.177C120.025 142.06 120.121 141.963 120.237 141.895C120.339 141.83 120.457 141.794 120.578 141.791L120.581 141.791C120.649 141.787 120.717 141.797 120.781 141.82L120.597 142.897ZM121.029 140.397L120.981 140.678V140.679C120.849 140.644 120.714 140.626 120.578 140.628C120.339 140.628 120.103 140.679 119.886 140.778C119.552 140.94 119.272 141.194 119.078 141.51C118.885 141.825 118.786 142.19 118.793 142.561C118.781 143.009 118.928 143.447 119.208 143.796C119.489 144.146 119.884 144.385 120.323 144.472L120.305 144.609L120.285 144.756L120.278 144.754C120.032 144.715 119.796 144.629 119.581 144.502C119.25 144.299 118.977 144.014 118.789 143.673C118.601 143.333 118.504 142.95 118.509 142.561C118.499 142.279 118.545 141.998 118.643 141.734C118.742 141.47 118.892 141.228 119.084 141.022C119.276 140.816 119.507 140.65 119.763 140.533C120.02 140.416 120.296 140.351 120.578 140.341C120.636 140.345 120.694 140.352 120.751 140.362C120.844 140.368 120.937 140.379 121.029 140.396L121.029 140.397ZM122.675 130.808L121.081 140.113L121.081 140.115C121.03 140.104 120.978 140.096 120.927 140.087C120.814 140.065 120.699 140.053 120.584 140.051C119.939 140.072 119.327 140.347 118.885 140.818C118.442 141.288 118.204 141.915 118.222 142.561C118.222 143.189 118.452 143.795 118.87 144.264C119.127 144.559 119.453 144.787 119.82 144.926C119.952 144.975 120.089 145.012 120.228 145.035L120.23 145.036L119.292 150.476L118.841 153.087L118.841 153.089C118.267 152.868 117.328 152.53 116.1 152.151C114.264 151.588 112.399 151.12 110.514 150.749C107.077 150.061 103.582 149.709 100.077 149.699C94.5452 149.727 89.0488 150.583 83.7698 152.236C82.9383 152.496 82.1151 152.78 81.3003 153.089L80.279 147.154L79.9146 145.036C80.2735 144.971 80.6128 144.824 80.9067 144.608C81.2005 144.392 81.4412 144.112 81.6104 143.789C81.8667 143.313 81.9686 142.77 81.9022 142.234C81.8357 141.699 81.6041 141.197 81.2394 140.799C81.0275 140.565 80.7694 140.378 80.4814 140.249C80.1934 140.121 79.8819 140.053 79.5665 140.051C79.4471 140.053 79.3282 140.066 79.2112 140.089C79.1649 140.098 79.1174 140.105 79.0737 140.115L79.073 140.113L77.4626 130.804L77.4623 130.803L84.4421 140.122C84.389 141.362 84.4541 142.604 84.6365 143.832C84.7373 144.723 84.9897 145.59 85.3828 146.396C85.3828 146.396 86.4044 145.984 87.8438 145.552C88.5854 145.329 89.4361 145.101 90.3196 144.92L90.9712 141.716L91.2734 140.231C91.3518 140.262 91.4318 140.288 91.5131 140.309C91.7031 140.372 91.9015 140.405 92.1016 140.408C92.2359 140.409 92.37 140.395 92.5013 140.367L92.5022 140.368L93.1966 141.632L94.6267 144.235L94.6279 144.237C94.6279 144.237 95.433 144.16 96.4043 144.087C97.2753 144.021 98.2794 143.96 98.9619 143.96L97.6665 139.948L98.5463 137.686L100.073 133.761L100.077 133.751L102.281 139.448L102.474 139.948L101.179 143.96H101.181C101.931 143.96 103.06 144.033 103.98 144.105C104.844 144.172 105.523 144.237 105.523 144.237L105.524 144.235L107.811 140.051L107.813 140.053C107.822 140.058 107.829 140.065 107.833 140.073C107.992 140.176 108.163 140.257 108.343 140.315C108.526 140.374 108.717 140.405 108.91 140.408L109.828 144.92C110.596 145.08 111.356 145.272 112.109 145.495L112.119 145.497L112.13 145.501C113.658 145.952 114.758 146.396 114.758 146.396L114.759 146.394C114.768 146.378 115.607 144.968 115.711 141.605C115.725 141.147 115.726 140.654 115.709 140.122L119.041 135.664L122.676 130.803L122.675 130.808Z" fill="black"/>
<path d="M96.6798 125.311L96.8154 125.077L100.07 119.462L100.073 119.467L101.315 121.6L103.476 125.311H106.17L106.502 124.673H103.817L100.434 118.831L102.103 115.992L102.496 115.586L102.495 115.584L102.466 115.54L102.219 115.176H102.216L101.825 115.205L101.604 115.222L101.603 115.223L101.58 115.342L101.504 115.721L100.072 118.205L100.07 118.209L99.3724 116.99L98.6455 115.721L98.5424 115.222L98.2955 115.203L97.9308 115.176L97.8536 115.288L97.6505 115.585L97.6498 115.586L97.7073 115.643L98.0558 115.992L98.7621 117.202L99.7121 118.831L96.3266 124.671L96.3254 124.673H93.6477L93.9696 125.311L96.6798 125.311ZM96.0604 146.227C96.0354 146.211 96.0138 146.19 95.9873 146.177L95.9879 146.178C96.0144 146.219 96.0382 146.262 96.0591 146.306C96.1554 146.459 96.2086 146.635 96.2129 146.815C96.2136 147.09 96.1048 147.355 95.9106 147.55C95.7163 147.745 95.4526 147.855 95.1772 147.856H95.156L95.1585 147.856C95.195 147.875 95.2341 147.887 95.2722 147.901C95.3266 147.922 95.3826 147.936 95.4397 147.946C95.4852 147.957 95.5316 147.963 95.5782 147.965C95.7821 147.964 95.98 147.896 96.1419 147.772C96.3038 147.648 96.4209 147.475 96.4754 147.278C96.53 147.082 96.5189 146.873 96.444 146.683C96.3691 146.493 96.2344 146.333 96.0604 146.227ZM87.9615 147.606L87.9584 147.604C88.0284 147.689 88.0831 147.786 88.1203 147.89C88.1269 147.908 88.1269 147.928 88.1328 147.947C88.1644 148.044 88.1816 148.146 88.1837 148.248C88.1805 148.523 88.0702 148.785 87.8764 148.979C87.6826 149.174 87.4206 149.285 87.1461 149.289H87.1299C87.2004 149.324 87.2752 149.351 87.3524 149.368C87.4146 149.383 87.4783 149.391 87.5424 149.392C87.6663 149.392 87.7891 149.368 87.9036 149.32C88.0181 149.273 88.1222 149.204 88.2099 149.116C88.2975 149.028 88.3671 148.924 88.4145 148.81C88.462 148.695 88.4865 148.573 88.4865 148.449V148.448C88.4847 148.273 88.4348 148.102 88.3422 147.953C88.2496 147.805 88.1179 147.684 87.9615 147.606ZM105.202 146.177C105.238 146.23 105.269 146.286 105.296 146.343C105.38 146.486 105.426 146.647 105.431 146.813L105.431 146.815C105.431 146.952 105.404 147.087 105.352 147.214C105.3 147.341 105.223 147.455 105.126 147.552C105.029 147.649 104.913 147.725 104.787 147.777C104.66 147.83 104.524 147.856 104.387 147.856H104.371L104.374 147.856C104.414 147.875 104.454 147.891 104.496 147.905C104.546 147.924 104.598 147.937 104.651 147.946C104.695 147.957 104.741 147.963 104.787 147.965C104.903 147.964 105.017 147.94 105.125 147.897C105.297 147.833 105.446 147.72 105.554 147.571C105.663 147.423 105.725 147.246 105.733 147.063C105.741 146.879 105.696 146.698 105.601 146.54C105.507 146.383 105.368 146.256 105.202 146.177ZM113.252 147.609L113.245 147.604C113.285 147.658 113.318 147.717 113.346 147.779C113.427 147.922 113.471 148.083 113.474 148.248C113.473 148.523 113.364 148.787 113.169 148.982C112.975 149.177 112.711 149.287 112.436 149.289H112.42C112.476 149.318 112.534 149.341 112.595 149.357C112.672 149.379 112.752 149.391 112.833 149.392C112.992 149.389 113.148 149.346 113.285 149.267C113.423 149.187 113.538 149.073 113.619 148.936C113.72 148.791 113.775 148.62 113.777 148.443C113.778 148.267 113.727 148.094 113.629 147.948C113.535 147.804 113.405 147.687 113.252 147.609ZM100.836 138.991L100.837 138.993C100.85 139.009 100.857 139.03 100.869 139.048C100.991 139.211 101.059 139.409 101.062 139.613C101.064 139.888 100.959 140.153 100.768 140.351C100.577 140.549 100.316 140.664 100.041 140.671C100.158 140.728 100.287 140.759 100.417 140.76C100.545 140.76 100.671 140.734 100.789 140.684C100.809 140.675 100.823 140.658 100.843 140.648C100.998 140.573 101.13 140.455 101.223 140.31C101.315 140.164 101.366 139.995 101.368 139.822C101.367 139.648 101.317 139.477 101.223 139.329C101.129 139.182 100.994 139.064 100.836 138.991ZM100.021 140.673C100.028 140.673 100.034 140.671 100.041 140.671C100.029 140.665 100.016 140.663 100.005 140.657L100.021 140.673Z" fill="black"/>
<path d="M96.0091 146.813C96.0082 146.592 95.9195 146.38 95.7625 146.223C95.6055 146.067 95.393 145.979 95.1714 145.979C94.9499 145.979 94.7373 146.067 94.5803 146.223C94.4233 146.38 94.3346 146.592 94.3337 146.813C94.3316 147.034 94.4172 147.247 94.5719 147.405C94.7265 147.562 94.9375 147.652 95.1584 147.654C95.1627 147.654 95.167 147.654 95.1713 147.654C95.3926 147.655 95.6052 147.568 95.7623 147.412C95.9194 147.257 96.0082 147.045 96.0091 146.823C96.0091 146.82 96.0091 146.817 96.0091 146.813ZM87.1461 149.093C87.2794 149.091 87.4099 149.055 87.5258 148.989C87.6627 148.918 87.7779 148.812 87.8591 148.681C87.9402 148.55 87.9843 148.4 87.9865 148.246C87.986 148.042 87.9097 147.846 87.7726 147.696C87.6355 147.545 87.4473 147.451 87.2446 147.431C87.2131 147.423 87.1812 147.416 87.1489 147.412L87.1455 147.412C87.0353 147.411 86.9261 147.432 86.8241 147.473C86.722 147.515 86.6292 147.576 86.551 147.653C86.4728 147.731 86.4108 147.823 86.3685 147.925C86.3261 148.027 86.3044 148.136 86.3045 148.246C86.306 148.469 86.3949 148.683 86.5521 148.841C86.7093 149 86.923 149.09 87.1461 149.093ZM104.714 147.589C104.857 147.531 104.981 147.434 105.071 147.309C105.162 147.185 105.216 147.037 105.226 146.883C105.236 146.729 105.203 146.575 105.13 146.439C105.057 146.303 104.947 146.19 104.813 146.113C104.686 146.03 104.539 145.983 104.387 145.979C104.166 145.98 103.954 146.068 103.797 146.224C103.641 146.38 103.553 146.592 103.552 146.813C103.552 146.927 103.574 147.039 103.617 147.144C103.68 147.296 103.787 147.426 103.924 147.517C104.061 147.608 104.222 147.656 104.387 147.654C104.499 147.655 104.61 147.633 104.714 147.589ZM112.436 149.093C112.658 149.089 112.869 148.998 113.025 148.839C113.181 148.681 113.269 148.468 113.27 148.246C113.271 148.026 113.183 147.814 113.028 147.657C112.872 147.501 112.661 147.413 112.44 147.412H112.439L112.436 147.411C112.325 147.41 112.216 147.431 112.113 147.472C112.011 147.513 111.918 147.575 111.839 147.652C111.761 147.73 111.698 147.822 111.656 147.924C111.613 148.026 111.591 148.136 111.591 148.246C111.593 148.47 111.682 148.684 111.84 148.842C111.998 149.001 112.212 149.091 112.436 149.093ZM100.347 140.398C100.5 140.332 100.63 140.223 100.721 140.084C100.813 139.945 100.861 139.782 100.861 139.615C100.858 139.394 100.769 139.184 100.611 139.029C100.454 138.873 100.243 138.787 100.022 138.787C99.8011 138.787 99.5892 138.873 99.4321 139.029C99.275 139.184 99.1853 139.394 99.1824 139.615C99.1819 139.781 99.2301 139.944 99.321 140.083C99.4119 140.222 99.5416 140.332 99.694 140.398C99.797 140.443 99.9081 140.466 100.02 140.466C100.133 140.466 100.244 140.443 100.347 140.398ZM79.751 138.487L79.7491 138.481L79.496 139.048L79.1891 139.733L79.1885 139.735L79.6544 139.752L80.1982 139.773H80.2001L80.0888 139.454L79.751 138.487ZM80.6776 139.947L80.6801 139.948L81.0395 140.18L81.5252 140.494L81.5255 140.493L81.809 139.154L81.7758 139.177L80.6776 139.947ZM82.3031 141.795L83.2369 140.777L83.2375 140.777L81.8615 140.887L82.3031 141.795ZM82.3921 142.296L82.3327 142.969L82.3018 143.315L83.6262 142.912L83.6234 142.911L82.3921 142.296ZM82.1752 143.66L82.1746 143.661L81.6243 144.518L82.9712 144.782L82.5831 144.235L82.1752 143.66ZM81.1302 144.922L80.6614 145.125L80.2039 145.324L80.3636 145.483L81.1783 146.295L81.1864 146.303L81.1318 144.921L81.1302 144.922ZM120.956 139.733L120.486 138.683L120.396 138.48L120.339 138.642L119.944 139.775L120.956 139.733ZM118.34 139.156L118.338 139.155L118.619 140.496L118.623 140.493L118.963 140.272L119.463 139.948L118.837 139.507L118.34 139.156ZM117.845 141.795L117.847 141.79L118.225 141.018L118.289 140.886L116.907 140.777L117.845 141.795ZM117.759 142.296L116.52 142.911L116.519 142.912L117.843 143.315L117.759 142.296ZM117.17 144.782L118.523 144.518L117.972 143.661L117.17 144.782ZM119.939 145.324L119.73 145.232L119.014 144.921V144.922L118.966 146.302V146.303L119.35 145.917L119.939 145.324ZM101.149 127.464C101.149 127.322 101.122 127.181 101.068 127.05C101.014 126.919 100.935 126.8 100.834 126.699C100.734 126.599 100.615 126.519 100.484 126.464C100.354 126.409 100.213 126.381 100.071 126.381H100.069C99.9282 126.38 99.7883 126.407 99.6578 126.461C99.5272 126.515 99.4085 126.593 99.3084 126.693C99.2084 126.793 99.1291 126.911 99.0749 127.041C99.0207 127.172 98.9929 127.311 98.9929 127.452C98.9929 127.594 99.0207 127.733 99.0749 127.864C99.1291 127.994 99.2084 128.112 99.3084 128.212C99.4085 128.312 99.5272 128.39 99.6578 128.444C99.7883 128.497 99.9282 128.525 100.069 128.524C100.353 128.526 100.626 128.415 100.828 128.216C101.03 128.018 101.146 127.747 101.149 127.464ZM100.07 128.386C99.8271 128.381 99.5956 128.283 99.4242 128.111C99.2528 127.939 99.155 127.707 99.1515 127.464C99.1504 127.342 99.1735 127.221 99.2194 127.108C99.2653 126.995 99.3331 126.892 99.419 126.806C99.5048 126.719 99.607 126.65 99.7196 126.603C99.8321 126.556 99.9529 126.532 100.075 126.532C100.197 126.532 100.318 126.556 100.43 126.603C100.543 126.65 100.645 126.719 100.731 126.806C100.816 126.892 100.884 126.995 100.93 127.108C100.976 127.221 100.999 127.342 100.998 127.464C100.99 127.707 100.89 127.937 100.717 128.109C100.544 128.28 100.313 128.379 100.07 128.386ZM105.367 130.45C105.492 130.448 105.616 130.423 105.732 130.377C105.748 130.37 105.762 130.363 105.778 130.356C105.998 130.255 106.175 130.079 106.278 129.859C106.337 129.732 106.369 129.594 106.372 129.455C106.372 129.447 106.376 129.441 106.376 129.434C106.376 129.262 106.331 129.092 106.247 128.942C106.164 128.791 106.043 128.664 105.896 128.573C105.801 128.453 105.682 128.354 105.546 128.282C105.392 128.199 105.22 128.155 105.045 128.154C104.901 128.154 104.759 128.182 104.626 128.238C104.446 128.314 104.291 128.437 104.176 128.594C104.061 128.752 103.991 128.937 103.973 129.132C103.956 129.326 103.992 129.521 104.077 129.696C104.162 129.872 104.293 130.021 104.456 130.127C104.556 130.191 104.666 130.238 104.781 130.265C104.82 130.289 104.862 130.311 104.904 130.329C105.042 130.407 105.197 130.449 105.355 130.452C105.359 130.452 105.363 130.45 105.367 130.45ZM104.124 129.225C104.123 129.104 104.147 128.984 104.192 128.872C104.238 128.761 104.306 128.659 104.391 128.574C104.476 128.488 104.577 128.421 104.689 128.374C104.8 128.328 104.92 128.304 105.041 128.304C105.161 128.304 105.281 128.328 105.392 128.374C105.504 128.421 105.605 128.489 105.69 128.574C105.775 128.66 105.843 128.761 105.888 128.873C105.934 128.984 105.958 129.104 105.957 129.225C105.958 129.345 105.934 129.465 105.888 129.577C105.843 129.689 105.775 129.79 105.69 129.876C105.605 129.961 105.504 130.029 105.392 130.075C105.281 130.122 105.161 130.146 105.04 130.146C104.92 130.146 104.8 130.122 104.689 130.075C104.577 130.029 104.476 129.961 104.391 129.876C104.306 129.79 104.238 129.689 104.192 129.577C104.146 129.465 104.123 129.346 104.124 129.225ZM95.4872 128.573C95.4719 128.554 95.4519 128.539 95.4357 128.52C95.3337 128.401 95.2067 128.306 95.0638 128.241C94.9209 128.176 94.7655 128.144 94.6086 128.146C94.4517 128.148 94.2972 128.185 94.1561 128.253C94.0149 128.322 93.8906 128.42 93.7918 128.542C93.6931 128.664 93.6225 128.807 93.5848 128.959C93.5472 129.111 93.5436 129.27 93.5742 129.424C93.6048 129.578 93.6689 129.723 93.7619 129.849C93.8549 129.976 93.9746 130.08 94.1125 130.155C94.1936 130.204 94.2811 130.241 94.3725 130.265L94.3747 130.267C94.5404 130.388 94.7406 130.453 94.946 130.452C94.9503 130.452 94.9541 130.45 94.9588 130.45C95.0846 130.448 95.2091 130.423 95.326 130.376C95.3394 130.371 95.3516 130.365 95.365 130.359C95.5391 130.28 95.6875 130.153 95.7932 129.994C95.8988 129.835 95.9575 129.649 95.9626 129.458C95.9626 129.449 95.9676 129.443 95.9676 129.434C95.9671 129.262 95.9228 129.092 95.8388 128.942C95.7547 128.791 95.6338 128.664 95.4872 128.573ZM95.5547 129.225C95.5547 129.47 95.4576 129.704 95.2848 129.877C95.112 130.05 94.8775 130.147 94.6331 130.147C94.3887 130.147 94.1543 130.05 93.9814 129.877C93.8086 129.704 93.7115 129.47 93.7115 129.225C93.7122 128.981 93.8097 128.747 93.9825 128.574C94.1553 128.402 94.3894 128.305 94.6334 128.305C94.8774 128.305 95.1115 128.402 95.2843 128.575C95.457 128.747 95.5541 128.981 95.5547 129.225Z" fill="black"/>
<path d="M100.068 126.642C99.9611 126.643 99.855 126.664 99.7562 126.706C99.6573 126.748 99.5676 126.808 99.4923 126.885C99.4169 126.961 99.3572 127.051 99.3168 127.151C99.2763 127.25 99.2558 127.356 99.2565 127.464C99.2569 127.678 99.3423 127.883 99.494 128.034C99.6457 128.185 99.8512 128.27 100.065 128.269H100.068C100.175 128.271 100.281 128.251 100.38 128.211C100.479 128.171 100.57 128.112 100.646 128.037C100.722 127.962 100.782 127.873 100.824 127.775C100.865 127.676 100.887 127.571 100.887 127.464C100.888 127.247 100.803 127.038 100.65 126.884C100.497 126.73 100.289 126.643 100.072 126.642L100.068 126.642ZM105.046 128.414C104.884 128.414 104.726 128.462 104.592 128.551C104.458 128.641 104.354 128.769 104.292 128.918C104.231 129.067 104.215 129.231 104.246 129.389C104.278 129.548 104.356 129.693 104.47 129.807C104.585 129.92 104.73 129.998 104.889 130.029C105.047 130.06 105.211 130.043 105.36 129.981C105.509 129.919 105.636 129.814 105.725 129.679C105.814 129.545 105.862 129.387 105.861 129.226C105.861 129.01 105.776 128.804 105.624 128.652C105.472 128.499 105.265 128.414 105.05 128.413L105.046 128.414ZM94.6337 128.414C94.5274 128.413 94.422 128.433 94.3235 128.473C94.225 128.513 94.1353 128.572 94.0596 128.647C93.9839 128.721 93.9236 128.81 93.8823 128.908C93.8409 129.006 93.8191 129.111 93.8184 129.217V129.226C93.8179 129.333 93.8385 129.439 93.8789 129.538C93.9194 129.637 93.979 129.727 94.0543 129.803C94.1296 129.879 94.2192 129.939 94.3178 129.981C94.4165 130.022 94.5223 130.044 94.6293 130.044H94.6337C94.8506 130.044 95.0586 129.959 95.2121 129.805C95.3656 129.652 95.452 129.444 95.4522 129.228V129.225C95.4522 129.119 95.4311 129.013 95.3903 128.915C95.3494 128.816 95.2896 128.726 95.2141 128.651C95.1387 128.576 95.0491 128.516 94.9505 128.475C94.852 128.434 94.7463 128.413 94.6397 128.413L94.6337 128.414Z" fill="black"/>
<path d="M96.9227 139.228V127.802L96.347 127.544L91.168 125.219L96.5036 138.209L96.9227 139.228ZM95.9632 129.458C95.9602 129.592 95.9304 129.724 95.8757 129.847C95.821 129.97 95.7423 130.08 95.6445 130.172C95.5623 130.249 95.4682 130.312 95.3657 130.359C95.238 130.417 95.0997 130.448 94.9594 130.449C94.9547 130.449 94.951 130.452 94.9466 130.452C94.7413 130.453 94.5411 130.388 94.3753 130.267C94.2831 130.242 94.1947 130.204 94.1128 130.155C93.9765 130.079 93.8585 129.975 93.7669 129.848C93.6753 129.722 93.6125 129.578 93.5828 129.425C93.5531 129.272 93.5572 129.114 93.5949 128.963C93.6326 128.812 93.7029 128.671 93.801 128.549C93.899 128.428 94.0224 128.33 94.1624 128.262C94.3025 128.193 94.4558 128.156 94.6116 128.154C94.7674 128.151 94.922 128.182 95.0644 128.245C95.2068 128.309 95.3337 128.402 95.436 128.52C95.4526 128.539 95.4726 128.554 95.4879 128.573C95.6344 128.664 95.7553 128.791 95.8393 128.942C95.9233 129.092 95.9675 129.262 95.9679 129.434C95.9679 129.442 95.9635 129.45 95.9632 129.458ZM108.98 125.22L105.199 126.916L103.225 127.802V139.223L105.142 134.562L108.98 125.22ZM104.783 130.267C104.667 130.24 104.556 130.193 104.456 130.127C104.262 130.001 104.114 129.815 104.035 129.597C103.955 129.379 103.948 129.142 104.014 128.92C104.081 128.698 104.217 128.503 104.403 128.365C104.59 128.227 104.815 128.153 105.047 128.154C105.222 128.154 105.394 128.198 105.547 128.282C105.682 128.354 105.801 128.453 105.897 128.573C106.043 128.664 106.164 128.791 106.248 128.942C106.332 129.092 106.376 129.262 106.377 129.434C106.377 129.441 106.373 129.447 106.373 129.455C106.367 129.703 106.27 129.94 106.101 130.122C106.01 130.22 105.9 130.3 105.778 130.356C105.763 130.363 105.748 130.37 105.733 130.377C105.617 130.423 105.493 130.448 105.368 130.45C105.363 130.45 105.36 130.452 105.355 130.452C105.197 130.45 105.042 130.407 104.905 130.329C104.863 130.312 104.822 130.291 104.783 130.267ZM102.648 127.561L100.073 124.204L97.5027 127.561L100.073 130.608L102.648 127.561ZM100.07 128.524C99.9292 128.525 99.7887 128.497 99.6581 128.444C99.5275 128.39 99.4088 128.311 99.3088 128.212C99.2088 128.112 99.1294 127.994 99.0753 127.864C99.0211 127.733 98.9932 127.594 98.9932 127.452C98.9932 127.311 99.0211 127.172 99.0753 127.041C99.1294 126.911 99.2088 126.792 99.3088 126.693C99.4088 126.593 99.5275 126.515 99.6581 126.461C99.7887 126.407 99.9286 126.38 100.07 126.381C100.212 126.381 100.353 126.409 100.484 126.463C100.615 126.518 100.734 126.597 100.834 126.698C100.934 126.798 101.014 126.917 101.068 127.048C101.122 127.179 101.15 127.32 101.15 127.462V127.464C101.147 127.747 101.031 128.018 100.829 128.216C100.627 128.415 100.354 128.526 100.07 128.524Z" fill="#A2AAAD"/>
<path d="M119.041 135.665L115.709 140.122C115.727 140.655 115.725 141.147 115.711 141.605C115.611 144.988 114.76 146.394 114.76 146.394L114.759 146.396C114.759 146.396 113.658 145.952 112.131 145.501L112.119 145.498L112.109 145.495C111.355 145.272 110.591 145.081 109.82 144.922L108.908 140.41C108.716 140.407 108.526 140.375 108.343 140.315C108.164 140.257 107.992 140.176 107.834 140.074C107.83 140.065 107.822 140.058 107.814 140.053L107.813 140.053L105.524 144.235L105.523 144.237C105.523 144.237 104.844 144.172 103.98 144.105C103.059 144.034 101.929 143.961 101.181 143.961L101.181 143.96H101.179L102.475 139.948L102.281 139.448L100.073 133.761L98.5465 137.686L97.6715 139.95L98.9637 143.961C98.2821 143.961 97.2774 144.023 96.4048 144.087C95.4335 144.16 94.6282 144.237 94.6282 144.237L94.6269 144.235L94.6201 144.235L93.1972 141.633L92.5028 140.369C92.3704 140.397 92.2353 140.411 92.0999 140.41C91.9004 140.407 91.7026 140.373 91.5133 140.31C91.4321 140.288 91.3521 140.262 91.2736 140.231L90.9717 141.717L90.3245 144.922C89.4392 145.102 88.5869 145.33 87.8441 145.552C86.4046 145.985 85.3833 146.396 85.3833 146.396C84.9898 145.59 84.7374 144.723 84.637 143.832C84.4523 142.604 84.3843 141.361 84.4339 140.121L77.4629 130.804L79.0736 140.114C79.1189 140.104 79.1652 140.097 79.2111 140.09C79.3282 140.066 79.4473 140.053 79.5668 140.051C79.8821 140.053 80.1937 140.121 80.4816 140.249C80.7696 140.378 81.0277 140.565 81.2397 140.798C81.6053 141.196 81.8375 141.698 81.904 142.234C81.9705 142.77 81.8679 143.314 81.6106 143.789C81.4415 144.112 81.2009 144.392 80.907 144.609C80.6131 144.825 80.2738 144.971 79.9149 145.036L80.2793 147.153L81.305 153.087C82.118 152.779 82.9397 152.495 83.7701 152.236C89.0462 150.582 94.5399 149.727 100.069 149.697C103.577 149.708 107.075 150.06 110.514 150.749C112.399 151.12 114.264 151.588 116.101 152.152C117.327 152.53 118.267 152.867 118.842 153.087L119.292 150.476L120.228 145.036C120.089 145.012 119.952 144.975 119.82 144.926C119.453 144.788 119.127 144.561 118.87 144.264C118.452 143.795 118.222 143.189 118.223 142.561C118.204 141.915 118.442 141.289 118.885 140.818C119.328 140.348 119.939 140.072 120.585 140.051C120.7 140.053 120.814 140.065 120.927 140.087C120.979 140.096 121.031 140.104 121.081 140.114L122.675 130.809L119.041 135.665ZM81.1794 146.304L80.3643 145.484L80.2046 145.325L80.6618 145.126L81.1309 144.922H81.1325L81.1872 146.304L81.1791 146.296L81.1794 146.304ZM80.1996 139.776L79.6552 139.753L79.1892 139.735L79.1898 139.734L79.1845 139.734L79.4964 139.048L79.7496 138.482L79.7518 138.487L79.7549 138.48L80.0893 139.455L80.2008 139.774H80.199L80.1996 139.776ZM81.5272 140.494L81.5262 140.493V140.495L81.04 140.181L80.6796 139.95L80.6809 139.949L80.6784 139.947L81.7766 139.178L81.8109 139.154L81.5272 140.494ZM81.8622 140.887L83.2382 140.777L82.3038 141.796L81.8622 140.887ZM81.6237 144.519L82.175 143.662L82.176 143.661L82.5838 144.235L82.9741 144.783L81.6237 144.519ZM82.3025 143.315L82.3335 142.97L82.391 142.295L83.6251 142.911H83.6242L83.6273 142.913L82.3025 143.315ZM86.3052 148.247C86.3051 148.137 86.3268 148.028 86.3691 147.926C86.4114 147.824 86.4734 147.732 86.5517 147.654C86.6299 147.577 86.7227 147.515 86.8247 147.474C86.9268 147.432 87.0361 147.411 87.1462 147.412L87.1497 147.413C87.1817 147.417 87.214 147.423 87.2453 147.432C87.448 147.451 87.6362 147.545 87.7734 147.696C87.9105 147.847 87.9867 148.043 87.9872 148.247C87.985 148.401 87.9409 148.551 87.8598 148.682C87.7786 148.813 87.6635 148.919 87.5266 148.989C87.412 149.055 87.2826 149.092 87.1503 149.095L87.1468 149.094H87.1459C86.9228 149.091 86.7099 149 86.5527 148.842C86.3955 148.684 86.3068 148.47 86.3052 148.247ZM87.5466 149.395C87.4811 149.394 87.4159 149.385 87.3525 149.368C87.2753 149.351 87.2006 149.325 87.13 149.289H87.1318L87.1278 149.288H87.1503C87.4239 149.283 87.6851 149.172 87.8781 148.978C88.0711 148.784 88.1808 148.522 88.1838 148.249C88.1816 148.146 88.1644 148.045 88.1325 147.947C88.1269 147.929 88.1269 147.909 88.1203 147.891C88.0831 147.787 88.0282 147.69 87.9581 147.604L87.9612 147.607L87.959 147.603C88.1168 147.681 88.2496 147.802 88.3429 147.952C88.4361 148.101 88.4862 148.274 88.4875 148.45C88.4874 148.7 88.3884 148.939 88.2121 149.116C88.0358 149.293 87.7963 149.393 87.5466 149.395ZM94.3344 146.814C94.3351 146.649 94.3845 146.488 94.4765 146.351C94.5685 146.214 94.699 146.107 94.8516 146.043C95.0041 145.98 95.1719 145.964 95.3339 145.995C95.496 146.027 95.6449 146.106 95.7621 146.223C95.8794 146.339 95.9596 146.487 95.9927 146.649C96.0259 146.811 96.0105 146.979 95.9485 147.132C95.8866 147.285 95.7807 147.416 95.6443 147.509C95.508 147.602 95.3471 147.653 95.182 147.655C95.1788 147.655 95.1755 147.655 95.1723 147.655C95.0629 147.656 94.9545 147.635 94.8532 147.594C94.7519 147.552 94.6597 147.492 94.5819 147.415C94.5041 147.338 94.4422 147.246 94.3997 147.146C94.3573 147.045 94.3351 146.937 94.3344 146.827C94.3344 146.823 94.3344 146.818 94.3344 146.814ZM95.5801 147.967C95.5328 147.965 95.4858 147.958 95.4398 147.947C95.3827 147.937 95.3266 147.922 95.2723 147.902C95.2338 147.888 95.1942 147.875 95.1579 147.857L95.156 147.856H95.1723C95.4476 147.857 95.7119 147.748 95.9071 147.554C96.1023 147.36 96.2123 147.096 96.2129 146.821V146.816C96.2086 146.635 96.1555 146.46 96.0592 146.307C96.0367 146.262 96.0112 146.218 95.9829 146.175L95.9879 146.178L95.9873 146.178C96.0139 146.191 96.0351 146.212 96.0604 146.228C96.1969 146.309 96.31 146.425 96.389 146.563C96.4679 146.701 96.5101 146.857 96.5114 147.016C96.5131 147.266 96.4161 147.505 96.2417 147.684C96.0672 147.862 95.8294 147.964 95.5801 147.967ZM99.1797 139.615C99.1835 139.394 99.274 139.183 99.4316 139.028C99.5892 138.873 99.8013 138.787 100.022 138.787C100.243 138.787 100.455 138.873 100.613 139.028C100.77 139.183 100.861 139.394 100.865 139.615C100.865 139.839 100.777 140.055 100.619 140.215C100.461 140.374 100.246 140.465 100.021 140.466C99.9087 140.466 99.7977 140.443 99.6947 140.399C99.5414 140.333 99.4108 140.223 99.3192 140.084C99.2276 139.945 99.1791 139.781 99.1797 139.615ZM100.843 140.649C100.823 140.659 100.809 140.676 100.789 140.685C100.671 140.735 100.545 140.761 100.417 140.761C100.287 140.76 100.158 140.729 100.041 140.672C100.034 140.672 100.027 140.674 100.021 140.674L100.005 140.658C100.016 140.664 100.029 140.666 100.041 140.672C100.316 140.665 100.577 140.55 100.768 140.352C100.959 140.154 101.064 139.889 101.062 139.614C101.059 139.41 100.991 139.212 100.869 139.048C100.856 139.031 100.85 139.009 100.836 138.992L100.837 138.993L100.836 138.991C100.995 139.065 101.129 139.183 101.223 139.33C101.317 139.477 101.367 139.648 101.368 139.823C101.366 139.996 101.315 140.164 101.223 140.31C101.13 140.456 100.998 140.574 100.843 140.649ZM103.618 147.145C103.574 147.04 103.552 146.927 103.552 146.813C103.554 146.592 103.642 146.381 103.798 146.225C103.955 146.069 104.167 145.98 104.387 145.98C104.606 145.991 104.812 146.082 104.968 146.236C105.124 146.389 105.217 146.595 105.231 146.813C105.232 146.979 105.183 147.142 105.091 147.28C104.999 147.419 104.868 147.526 104.714 147.59C104.611 147.633 104.5 147.655 104.387 147.655C104.223 147.657 104.062 147.609 103.925 147.518C103.788 147.427 103.681 147.297 103.618 147.145ZM105.125 147.898C105.017 147.942 104.903 147.965 104.787 147.967C104.741 147.964 104.695 147.958 104.651 147.947C104.598 147.938 104.546 147.924 104.496 147.906C104.454 147.89 104.41 147.876 104.371 147.857H104.374L104.371 147.856H104.387C104.523 147.857 104.658 147.831 104.785 147.78C104.911 147.728 105.026 147.653 105.123 147.557C105.22 147.461 105.297 147.347 105.35 147.222C105.402 147.096 105.43 146.961 105.431 146.825C105.431 146.821 105.431 146.817 105.431 146.813C105.426 146.648 105.379 146.487 105.296 146.344C105.268 146.285 105.236 146.229 105.199 146.175L105.202 146.178C105.368 146.257 105.507 146.383 105.601 146.541C105.696 146.698 105.741 146.88 105.733 147.063C105.725 147.247 105.663 147.424 105.555 147.572C105.446 147.72 105.297 147.834 105.125 147.898ZM111.592 148.247C111.592 148.136 111.614 148.027 111.656 147.925C111.699 147.823 111.761 147.731 111.84 147.653C111.918 147.576 112.012 147.514 112.114 147.473C112.216 147.432 112.326 147.411 112.436 147.412L112.439 147.413C112.548 147.412 112.656 147.433 112.757 147.474C112.857 147.516 112.949 147.576 113.026 147.653C113.103 147.729 113.165 147.82 113.207 147.92C113.249 148.021 113.271 148.128 113.271 148.237C113.271 148.24 113.271 148.244 113.271 148.247C113.271 148.469 113.183 148.682 113.028 148.84C112.873 148.999 112.662 149.09 112.44 149.095L112.437 149.094C112.213 149.091 111.999 149.001 111.841 148.843C111.683 148.685 111.594 148.47 111.592 148.247ZM113.619 148.937C113.539 149.075 113.425 149.189 113.288 149.269C113.151 149.349 112.995 149.392 112.836 149.395C112.754 149.394 112.673 149.381 112.595 149.357C112.534 149.341 112.476 149.318 112.42 149.29H112.424L112.42 149.288H112.44C112.714 149.286 112.977 149.176 113.17 148.981C113.364 148.786 113.472 148.522 113.471 148.247C113.468 148.084 113.425 147.923 113.346 147.779C113.318 147.718 113.285 147.659 113.245 147.604L113.252 147.609L113.249 147.603C113.404 147.682 113.535 147.802 113.629 147.949C113.727 148.095 113.778 148.268 113.777 148.444C113.775 148.621 113.72 148.793 113.619 148.937ZM119.014 144.921L119.015 144.922V144.921L119.731 145.233L119.941 145.325L119.351 145.917L118.966 146.304L118.967 146.303L118.965 146.304L119.014 144.921ZM116.519 142.911L117.76 142.295V142.297L117.844 143.315L116.52 142.912L116.521 142.911L116.519 142.911ZM118.524 144.519L117.17 144.783L117.973 143.662L118.524 144.519ZM118.225 141.019L117.853 141.796L117.848 141.79L117.845 141.795L116.908 140.777L118.29 140.887L118.225 141.019ZM118.964 140.273L118.623 140.494L118.619 140.496L118.339 139.156L118.34 139.157L118.34 139.154L118.838 139.507L119.464 139.948L118.964 140.273ZM120.957 139.734L119.945 139.776L120.34 138.642L120.396 138.48L120.396 138.481L120.487 138.684L120.96 139.734L120.957 139.734Z" fill="#A2AAAD"/>
</svg>
