<svg width="200" height="200" viewBox="0 0 200 200" fill="none" xmlns="http://www.w3.org/2000/svg">
<path d="M186.729 61.6241C186.809 61.6241 193.667 56.2187 193.667 56.2187C174.017 51.4907 153.784 49.6427 133.602 50.7326C133.602 50.7326 128.963 35.1618 106.979 35.0005C90.6414 34.9198 81.2424 45.0852 78.2977 53.0319C47.4385 59.7282 23.8806 75.299 23.8806 75.299L29.528 79.6152C14.9657 87.2393 0 99.4216 0 99.4216C0 99.4216 1.37152 106.763 10.2057 118.542C10.2057 118.542 16.1355 123.141 31.787 129.151C33.3291 128.788 34.8399 128.302 36.305 127.699C38.4562 128.432 40.6525 129.025 42.8802 129.474C42.7592 131.451 42.1541 134.274 45.7846 137.623L43.1222 139.034C43.1222 139.034 46.3493 147.183 64.3808 151.58C71.3191 149.966 102.703 144.238 113.393 164.044L168.374 110.757L156.716 110.676L200 65.2949C195.657 63.7965 191.224 62.5705 186.729 61.6241Z" fill="#E2D6B5"/>
<path d="M189.512 67.473C184.461 65.6591 179.301 64.1636 174.062 62.9954L179.589 58.8001C149.819 52.588 129.367 54.3629 129.367 54.3629C129.367 54.3629 125.373 38.7921 105.527 38.671C86.3254 38.55 80.4359 55.6537 80.4359 55.6537C54.0947 60.6557 29.246 75.5811 29.246 75.5811L35.2564 80.1797C19.6857 87.7231 3.50977 100.591 3.50977 100.591C5.7284 107.691 12.344 116.364 12.344 116.364C18.4755 120.68 31.989 126.045 31.989 126.045C33.4048 125.666 34.772 125.125 36.0632 124.431C40.5122 126.137 45.2174 127.078 49.9801 127.215C52.6021 127.255 55.5065 126.932 55.5469 125.924C55.5469 124.149 50.1818 123.584 50.1818 121.608C50.1818 120.115 53.4493 118.139 65.7526 118.219C73.0943 118.26 81.4444 118.824 81.4444 118.824C75.3936 118.784 63.4533 120.277 63.4533 123.06C63.413 125.279 71.5211 125.44 71.5211 128.385C71.4807 132.661 65.1475 134.072 57.7655 134.032C51.15 133.992 48.0035 132.096 46.511 132.055C45.9462 132.055 45.5832 132.338 45.5832 132.741C45.5832 134.274 48.4876 137.38 50.8676 138.268L47.6404 140.083C51.1903 144.843 64.4618 148.473 64.4618 148.473C102.501 140.446 114.079 159.486 114.079 159.486L158.895 113.701L148.447 113.621L189.512 67.473Z" fill="#024930"/>
<path d="M86.688 63.6409C86.6815 62.8849 86.7355 62.1295 86.8494 61.382C69.665 63.883 53.6102 68.6833 40.5404 75.662C55.6066 70.8981 71.1257 67.7078 86.8494 66.142C86.7341 65.3134 86.6802 64.4775 86.688 63.6409ZM123.154 59.5264C123.501 60.9656 123.664 62.4431 123.638 63.9233C123.645 64.6526 123.591 65.3812 123.477 66.1016C131.535 66.987 139.483 68.69 147.196 71.1843C138.523 71.4263 129.649 72.1928 121.057 73.2012C119.416 75.9812 117.072 78.28 114.261 79.8662C111.45 81.4525 108.27 82.2702 105.042 82.2371C100.58 82.2425 96.2728 80.6056 92.9405 77.6385C75.0704 81.1077 62.525 84.5768 62.525 84.5768C71.3592 85.0609 76.3209 87.1181 76.3209 87.1181C53.4891 91.5958 32.1902 100.228 25.252 103.213C26.9058 105.835 29.0035 108.901 29.0035 108.901L25.5747 113.096C31.6658 114.266 39.2092 113.661 39.2092 113.661L50.5847 106.803L59.4593 109.547L62.162 105.876H59.2576L65.1874 96.4767L70.0281 105.956H67.8094L69.302 109.183L75.4335 108.135L78.0555 104.827H75.7159L79.2657 99.4618H76.6436L82.2104 90.1435L86.8897 99.8249H84.792L87.8981 105.472L85.3971 105.432L90.4798 114.791L95.6432 107.651H92.1337L97.4585 99.7442L94.07 99.7039L101.775 86.7148L108.269 99.9863H105.526L110.004 107.772L106.817 107.731L111.093 117.453L118.596 105.392L114.522 105.351L120.613 95.5893L116.902 95.549L125.091 79.1714L133.441 96.4364H130.456L135.901 105.513L132.15 105.472L136.264 114.468L143.162 104.101L139.492 104.06L147.519 92.6849H143.243L156.071 75.2182L162.686 87.3199L177.047 69.8935C160.669 63.6813 141.993 60.2525 123.154 59.5264Z" fill="#AF1E24"/>
<path d="M105.285 45.2878C100.779 45.2644 96.419 46.8868 93.0246 49.8504C89.6302 52.8141 87.4345 56.915 86.8499 61.3831C86.8499 61.3831 96.1681 57.2685 121.38 54.9288C119.794 52.0379 117.468 49.6212 114.639 47.9269C111.81 46.2325 108.582 45.3217 105.285 45.2878ZM105.043 82.2382C108.271 82.2762 111.453 81.4606 114.265 79.8739C117.077 78.2871 119.42 75.9856 121.057 73.2023C111.013 74.4528 101.412 76.0261 92.9814 77.6396C96.305 80.5945 100.595 82.2303 105.043 82.2382ZM123.155 59.5275C111.022 59.046 98.8704 59.6671 86.8499 61.3831C86.7546 62.1325 86.7006 62.8866 86.6885 63.642C86.6885 64.4891 86.7692 65.3363 86.8498 66.143C99.0245 64.8577 111.3 64.8441 123.478 66.1027C123.591 65.3823 123.645 64.6537 123.639 63.9244C123.644 62.4452 123.482 60.9701 123.155 59.5275Z" fill="#EDAA00"/>
<path d="M107.261 70.4585C91.7885 71.0192 76.4166 73.1959 61.3962 76.953C61.2349 75.8639 61.0735 74.8151 60.9121 73.7663C60.1457 75.0168 59.4599 76.2269 58.6935 77.4371C58.6935 77.4371 47.7617 81.3903 40.541 85.1015C49.7786 81.9954 57.2816 80.0995 57.2816 80.0995C56.5152 81.6727 55.7891 83.2056 55.0227 84.8191C56.3942 83.5686 57.7254 82.3988 59.1372 81.1886L62.0416 82.7618C61.9206 81.592 61.7996 80.4625 61.6786 79.2524C61.6786 79.2524 86.0432 72.6368 107.261 70.4585Z" fill="white"/>
</svg>
