<svg width="200" height="200" viewBox="0 0 200 200" fill="none" xmlns="http://www.w3.org/2000/svg">
<path d="M177.894 99.5679L192.215 84.5215L184.066 47.0467L147.923 36.2763L144.655 39.3017C132.553 35.7115 110.77 31.96 96.2485 32.0003C42.4365 32.081 0.161353 62.0124 0 100.133C0 132.726 28.1162 168.991 96.7326 168.991C151.109 168.991 200 132.767 200 132.767L177.894 99.5679Z" fill="white"/>
<path d="M173.094 99.1246L188.141 83.3521L180.88 49.9919L148.891 40.4719L145.624 43.5376C134.813 39.9878 111.739 35.7119 96.2891 35.7119C43.768 35.8329 3.87283 64.6349 3.71148 100.133C3.55012 137.406 39.6938 165.24 96.7329 165.24C136.668 165.24 177.572 143.941 194.837 131.799L173.094 99.1246Z" fill="#192168"/>
<path d="M76.1997 77.4222V123.489C68.616 123.489 44.4934 114.615 44.4934 100.617C44.4934 83.352 69.1808 78.5517 76.1997 77.4222ZM107.382 106.224V124.336C101.351 124.962 95.2796 125.084 89.2292 124.699V106.224H107.382ZM89.2292 94.3242V76.3734C95.2855 76.0961 101.354 76.2849 107.382 76.9382V94.3242L89.2292 94.3242ZM167.487 102.594C167.487 102.594 144.856 118.084 119.846 122.723V78.8341C146.994 82.2629 163.049 99.9716 163.049 99.9716L181.121 81.2948L175.312 55.1148L150.625 47.8942L147.478 51.2827C137.474 47.3698 116.781 42.2871 93.8682 42.2871C48.0029 42.2871 10.4878 68.3057 10.4474 100.375C10.3667 131.638 42.1941 158.665 93.5454 158.665C140.944 158.665 175.191 136.075 185.921 130.024L167.487 102.594Z" fill="white"/>
<path d="M93.9093 111.791H102.622V119.173H93.9093V111.791ZM94.111 89.0798H102.582V82.0205L94.111 81.6978V89.0798ZM155.708 101.948C147.357 94.5905 137.351 89.3595 126.543 86.6998V114.372C135.983 111.75 146.309 107.313 155.708 101.948ZM69.5446 115.421V85.4493C60.9121 87.9503 51.1904 92.8716 51.1904 100.617C51.1904 105.941 59.3792 112.355 69.5446 115.421Z" fill="white"/>
<path d="M166.196 109.128C136.547 126.514 116.781 129.903 92.7393 129.661C58.895 129.379 39.6131 115.825 39.6131 99.6891C39.6131 85.1672 57.2815 71.2906 93.4251 71.2906C117.709 71.2906 146.995 77.8255 162.647 93.2349L175.676 79.9634L171.239 58.9066L152.037 53.2995L148.528 57.2123C138 53.0171 120.21 47.168 92.8604 47.168C51.5534 47.168 15.3291 71.0486 15.3291 99.8908C15.3291 130.064 46.8741 153.703 91.6099 153.703C137.031 153.703 163.655 136.599 179.024 128.531L166.196 109.128Z" fill="#AF1E2D"/>
</svg>
