<svg width="200" height="200" viewBox="0 0 200 200" fill="none" xmlns="http://www.w3.org/2000/svg">
<path d="M2.22689 75.4467L8.38093 67.3745C8.70062 66.8949 9.26008 66.5753 9.81954 66.4953L67.7635 54.9065C66.9643 54.1073 66.9643 51.5498 69.3619 51.1502C69.7616 51.0703 78.9527 49.7915 89.5824 50.5907L128.345 42.8382C128.824 42.7583 129.304 42.8382 129.783 42.9981L158.236 55.3861C158.556 55.5459 158.795 55.7058 158.955 55.8656L163.511 60.4212L170.784 64.5772C171.343 64.8969 171.823 65.4563 171.983 66.1756L173.421 72.9691L178.057 78.7235L181.254 81.2011L191.564 86.1563C192.123 86.3961 192.523 86.8756 192.763 87.4351L198.117 100.542C198.597 101.661 198.117 102.7 197.558 103.18C197.558 103.18 193.802 106.936 190.285 113.969C189.885 114.849 188.926 115.328 187.967 115.328C187.887 115.328 183.252 115.168 176.219 119.084C175.899 119.244 175.419 119.404 175.02 119.404H167.907C150.164 141.383 124.589 153.531 89.9021 156.488C87.2646 156.728 86.1457 152.972 88.7032 151.853L92.2997 150.254C91.5005 149.775 91.1808 147.297 93.099 146.418C93.4187 146.258 126.347 131.632 135.938 103.659C129.624 104.938 116.996 107.656 107.325 110.852C101.011 112.93 97.0951 116.207 94.7773 118.925C95.7364 118.525 97.0152 117.966 98.1341 117.966C100.772 117.966 101.89 120.044 101.89 120.044C102.13 119.964 102.37 119.884 102.61 119.884C104.768 119.884 107.165 121.642 107.165 124.279C107.165 128.435 100.692 133.63 95.5766 135.868C94.9372 139.065 91.9801 142.981 81.5901 142.981C72.7986 142.981 66.8044 138.745 64.9662 137.307L41.3091 133.071C39.3909 132.751 38.8315 130.593 39.7905 129.315C39.8705 129.235 46.2643 120.044 46.2643 110.613C46.2643 85.1972 4.30488 79.4428 3.90526 79.3629C1.98712 79.0432 1.10797 76.8853 2.22689 75.4467ZM3.58557 80.9613C3.98518 81.0413 44.4261 86.7158 44.4261 110.533C44.4261 119.244 38.272 128.116 38.272 128.196C36.6736 130.433 37.6326 134.11 40.9095 134.669L64.167 138.905C66.6446 140.823 72.7187 144.66 81.4303 144.66C92.06 144.66 95.7364 140.664 96.8553 136.987C102.05 134.589 108.764 129.315 108.764 124.2C108.764 120.603 105.567 118.125 102.53 118.125C101.811 117.406 100.931 116.847 99.9723 116.527C102.37 114.769 105.007 113.41 107.805 112.531C115.957 109.813 126.267 107.496 133.14 106.057C122.59 131.393 92.6194 144.74 92.3797 144.899C89.3426 146.258 89.982 149.455 89.982 149.455L87.9839 150.334C83.748 152.252 85.3465 158.646 89.982 158.247C124.828 155.289 150.563 143.141 168.706 121.162H175.1C175.819 121.162 176.458 121.003 177.098 120.683C183.571 117.086 187.887 117.166 187.967 117.166C189.646 117.246 191.164 116.367 191.883 114.849C195.16 108.135 198.757 104.539 198.757 104.459C200.036 103.18 200.275 101.422 199.716 99.903L194.361 86.7957C193.961 85.8366 193.242 85.0374 192.363 84.6378L182.213 79.7625L179.336 77.5247L175.02 72.1698L173.581 65.6961C173.341 64.5772 172.622 63.5382 171.583 62.9787L164.55 58.9826L160.154 54.5869C159.754 54.1872 159.355 53.9475 158.875 53.7077L130.423 41.3197C129.624 41 128.824 40.9201 127.945 41.0799L89.4225 48.7525C79.1924 47.9533 70.1612 49.232 69.1222 49.312C65.9253 49.8714 65.4457 52.6687 65.6056 53.4679C62.089 54.1872 9.49985 64.6571 9.49985 64.6571C8.54078 64.817 7.58171 65.3764 7.02225 66.1756L0.8682 74.4077C-1.12987 76.9652 0.548509 80.5617 3.58557 80.9613Z" fill="white"/>
<path d="M180.375 90.7923C180.375 90.7923 186.768 94.8684 189.646 89.6734L179.815 85.0379C177.098 86.6363 174.38 87.4356 171.903 87.8352C176.698 89.1139 180.375 90.7923 180.375 90.7923ZM64.0072 71.3711C64.0072 71.3711 56.4145 74.4881 51.1396 82.3205C53.7771 81.6012 56.3346 80.9618 58.9721 80.3224C61.3698 74.9676 64.0072 71.3711 64.0072 71.3711Z" fill="white"/>
<path d="M166.388 70.5716L165.029 75.7666C165.029 71.8504 162.712 69.5327 155.838 65.5365L166.388 70.5716ZM112.121 69.6126C106.446 69.8523 101.97 71.9303 98.5338 74.4879C103.169 74.1682 107.725 74.0882 112.36 74.0882C114.678 71.0512 116.037 67.6944 116.037 64.1778C116.037 58.1037 112.92 54.5871 112.92 54.5871L127.945 51.2304L132.581 53.5481C132.581 53.5481 121.552 57.784 121.552 69.7724C121.552 71.4508 121.791 73.0492 122.191 74.4079C130.103 74.8075 138.335 75.6867 146.647 77.2052C146.647 77.2052 149.365 83.7589 156.797 83.7589C160.394 83.7589 163.111 81.7608 163.111 81.7608C171.184 87.8349 178.536 84.4782 178.536 84.4782L175.739 82.1604L173.102 83.599L174.7 81.1214L173.661 80.0025L170.145 81.8407L172.382 78.484L171.583 77.6048L168.546 78.8836L170.304 75.9265L169.106 74.0882C167.987 79.0435 163.591 79.6029 159.755 79.3631L159.595 77.2052C157.916 78.2442 155.838 78.3241 154.16 77.3651C152.482 76.406 151.363 74.6477 151.363 72.6496C151.363 70.9713 142.971 63.4585 142.971 63.4585L153.76 66.8153C162.792 69.6126 162.392 74.0882 162.552 76.5658C164.07 77.2052 167.507 77.7647 169.026 74.1682L167.907 68.2539L160.714 64.7373L155.758 60.1018L128.105 48.9126L100.852 54.9867C107.245 56.5053 112.6 59.862 112.6 59.862C112.6 59.862 114.838 64.4176 112.121 69.6126ZM145.129 88.5542C142.252 89.9929 139.694 91.9909 136.817 94.4685L140.094 88.3145C140.094 88.3145 131.382 87.9948 123.07 88.1546L117.635 94.1488C115.557 93.5095 113.399 93.1898 111.242 93.1098C111.082 90.0728 112.281 86.6361 114.918 83.3593C111.401 85.9967 109.243 89.4334 108.844 93.1898C107.325 93.2697 105.807 93.5894 104.368 93.989C103.649 91.5114 103.729 88.3944 104.848 85.0376C102.77 88.1546 101.97 91.5114 102.37 94.6284C100.931 95.1878 99.4929 95.8272 98.2141 96.7064C96.9354 94.7882 96.1361 92.1508 96.0562 89.0338C95.3369 92.2307 95.4967 95.1878 96.6157 97.7454C91.9801 101.182 89.9022 105.418 89.9022 105.418C75.1964 102.78 66.245 115.089 65.9253 123.72C64.9663 117.726 66.8844 107.096 78.7929 102.061L82.7091 92.8701C82.9489 92.3106 83.2686 91.7512 83.6682 91.2716C70.5609 93.5894 62.3288 98.7844 62.3288 98.7844C62.3288 98.7844 58.7323 105.178 60.2508 111.652C60.2508 111.652 57.9331 108.455 56.5744 103.1C56.0949 103.58 55.5354 104.059 55.0559 104.619C55.5354 106.537 55.7752 108.455 55.7752 110.533C55.7752 120.204 51.779 126.278 51.779 126.278L65.286 128.995C65.286 128.995 70.401 136.428 81.3504 136.428C84.7871 136.428 89.3427 136.028 89.3427 133.87C89.3427 132.192 85.2666 129.954 85.2666 125.079C85.2666 117.246 95.0971 109.094 105.727 105.578C118.115 101.502 136.977 96.7863 146.487 96.7863C173.421 96.7863 172.542 114.609 172.542 114.609L173.821 114.529C179.815 111.172 185.17 110.533 186.689 110.373C189.406 100.702 184.451 91.9909 145.129 88.5542ZM38.9115 71.1311L73.7578 63.3786C73.7578 63.3786 75.1165 67.8543 81.1107 71.4508L81.0307 72.5697C78.2334 73.1292 73.9176 74.8875 69.8416 78.1643C76.635 76.8855 83.5083 75.9265 90.3817 75.2871L92.14 71.1311C81.1906 72.7296 76.3153 63.4585 76.3153 63.4585L75.4361 60.6612L11.9775 74.7276C18.8509 75.2072 26.3636 77.3651 33.237 80.8817C34.9153 75.367 38.9115 71.1311 38.9115 71.1311Z" fill="white"/>
<path d="M157.996 102.221C145.608 102.221 145.848 128.515 102.21 150.734C139.294 145.379 167.347 120.123 167.347 109.733C167.347 105.897 161.033 102.221 157.996 102.221ZM87.5041 126.038C88.3833 129.954 91.0207 131.073 91.2605 132.511C91.2605 132.511 98.0539 131.073 102.61 124.359C93.818 128.835 87.5041 126.038 87.5041 126.038ZM78.2331 62.4191C78.2331 62.4191 82.2293 69.2125 89.3424 69.2125L96.6953 68.733L102.769 62.4191L111.001 61.1403C107.964 59.3021 104.448 57.9434 100.931 56.9843L94.0578 66.655L98.4536 56.4249C97.1748 56.1851 95.896 55.9453 94.6173 55.7056L88.703 64.0175L92.3794 55.3859C90.8609 55.226 89.3424 55.0662 87.9038 54.9863L83.3482 61.3002L86.0655 54.8264C79.6717 54.5866 74.9563 55.0662 74.9563 55.0662L76.5547 56.4249L78.2331 62.4191ZM36.9131 82.8793C38.2718 83.6785 39.5505 84.5577 40.7494 85.4368C41.8683 85.0372 43.227 84.6376 44.7455 84.158C47.1432 75.2067 51.9386 69.2924 51.9386 69.2924C41.9482 72.9689 37.7922 81.121 36.9131 82.8793Z" fill="white"/>
<path d="M188.127 112.93C188.127 112.93 182.932 112.61 175.1 117.006H168.546L167.347 116.367C149.605 139.225 124.429 151.133 89.7425 154.09C89.7425 154.09 101.491 148.895 107.885 145.538L94.1382 148.655C94.1382 148.655 131.462 132.511 139.614 100.542C139.614 100.542 120.353 104.059 106.686 108.614C93.0992 113.09 89.4228 122.92 89.4228 122.92C94.2181 122.441 96.7757 120.363 98.2143 120.363C99.9726 120.363 100.612 122.201 100.132 123.24C100.932 122.92 101.971 122.281 102.69 122.281C103.569 122.281 104.768 123 104.768 124.199C104.768 127.156 98.2143 132.511 93.339 134.03C93.339 135.868 92.6197 140.503 81.5904 140.503C72.0796 140.503 66.0854 134.989 66.0854 134.989L41.7889 130.593C41.7889 130.593 48.7421 120.842 48.7421 110.532C48.7421 82.6393 4.30512 76.8849 4.30512 76.8849L10.4592 68.8127L73.1185 56.2648L69.8417 53.4676C69.8417 53.4676 79.2726 52.1089 89.8224 52.988L128.825 45.1556L157.277 57.5436L162.072 62.339L169.585 66.6548L171.264 74.0876L176.459 80.4814L180.055 83.2787L190.605 88.3938L195.96 101.501C195.88 101.421 191.884 105.337 188.127 112.93ZM198.118 100.542L192.763 87.4347C192.523 86.8752 192.123 86.3957 191.564 86.1559L181.254 81.2007L178.057 78.7231L173.422 72.9687L171.903 66.0953C171.743 65.456 171.344 64.8965 170.704 64.4969L163.431 60.3409L158.876 55.7853C158.636 55.5455 158.396 55.3857 158.156 55.3058L129.704 42.9178C129.224 42.7579 128.745 42.678 128.265 42.7579L89.5027 50.5104C78.9529 49.7112 69.6819 50.99 69.2823 51.0699C66.8846 51.4695 66.8846 54.027 67.7637 54.8262L9.81978 66.415C9.26032 66.495 8.70087 66.8946 8.38117 67.2942L2.22713 75.4463C1.10821 76.8849 1.98736 79.0428 3.82558 79.2826C4.2252 79.3625 46.1846 85.037 46.1846 110.532C46.1846 119.883 39.7908 129.074 39.7109 129.234C38.7518 130.513 39.3113 132.671 41.2294 132.991L64.8865 137.227C66.6448 138.665 72.7189 142.901 81.5104 142.901C91.9004 142.901 94.8575 138.985 95.4969 135.788C100.612 133.63 107.086 128.435 107.086 124.199C107.086 121.562 104.768 119.803 102.53 119.803C102.29 119.803 102.051 119.883 101.811 119.963C101.811 119.963 100.692 117.885 98.0544 117.885C96.9355 117.885 95.6567 118.445 94.6977 118.844C97.0954 116.127 101.012 112.85 107.246 110.772C116.916 107.575 129.544 104.858 135.858 103.579C126.267 131.472 93.339 146.178 93.0193 146.338C91.1012 147.217 91.4208 149.694 92.2201 150.174L88.6236 151.772C86.066 152.891 87.1849 156.648 89.8224 156.408C124.589 153.451 150.084 141.303 167.827 119.324H174.94C175.34 119.324 175.739 119.244 176.139 119.004C183.172 115.088 187.808 115.248 187.888 115.248C188.847 115.328 189.726 114.768 190.205 113.889C193.642 106.856 197.398 103.1 197.478 103.1C198.038 102.62 198.517 101.661 198.118 100.542Z" fill="#FFB81C"/>
<path d="M157.597 76.2463C158.716 76.2463 159.515 75.6868 159.515 75.6868C159.435 75.2872 159.355 74.8876 159.275 74.5679C159.036 74.7278 158.636 74.8876 158.156 74.8876C156.958 74.8876 156.158 73.9285 156.158 72.8895C156.158 72.0104 156.718 71.2112 157.597 70.9714C156.558 69.4529 155.439 68.8135 155.439 68.8135C155.439 68.8135 153.601 69.8525 153.601 72.1702C153.601 74.5679 155.599 76.2463 157.597 76.2463ZM43.9469 87.9949C44.1867 86.7162 44.4264 85.4374 44.7461 84.2386C43.2276 84.7181 41.8689 85.1177 40.75 85.5173C41.8689 86.2366 42.9878 87.1158 43.9469 87.9949ZM89.6627 85.5972L85.4268 86.5563L90.3021 75.1274C82.8693 75.8467 75.9959 76.8857 69.7619 78.0845C63.9276 82.72 58.4129 90.2328 58.4129 101.502C58.4129 107.096 60.2511 111.732 60.2511 111.732C58.8125 105.178 62.3291 98.7845 62.3291 98.7845C62.3291 98.7845 70.5612 93.5096 83.7484 91.1119C84.7075 89.993 86.0662 89.1938 87.9843 88.7142C97.4951 86.2366 107.166 80.8818 112.361 74.0884C107.645 74.0884 103.01 74.2482 98.5341 74.488C92.3001 79.2034 89.6627 85.5972 89.6627 85.5972ZM146.727 77.1254C138.416 75.6069 130.183 74.7278 122.271 74.3281C123.87 79.9227 127.706 82.9598 127.706 82.9598L123.07 87.9949C131.382 87.8351 140.094 88.1548 140.094 88.1548L136.817 94.3088L145.449 84.9579L146.727 77.1254ZM59.0523 80.3223C56.1751 80.9617 53.6176 81.681 51.2199 82.3204C49.4616 85.0378 48.1029 87.9949 47.3037 91.1119C51.06 95.108 53.8573 99.6636 55.1361 104.619C55.6156 104.059 56.0952 103.58 56.6546 103.1C56.0152 100.543 55.6955 97.9053 55.6955 95.2679C55.6156 89.7532 57.2141 84.5582 59.0523 80.3223ZM180.375 90.7922C180.375 90.7922 176.698 89.1138 171.903 87.8351C164.55 88.8741 158.956 85.837 158.956 85.837C152.882 85.837 148.726 86.7961 145.129 88.6343C184.451 92.071 189.406 100.783 186.849 110.453C187.168 110.453 187.328 110.453 187.328 110.453C187.328 110.453 189.966 105.498 193.083 101.901C193.083 101.901 189.086 93.5096 175.02 92.7903L180.375 90.7922Z" fill="#FFB81C"/>
<path d="M36.9128 82.8793C37.7121 81.121 41.948 72.9689 51.9383 69.2924C51.9383 69.2924 47.1429 75.2067 44.8252 84.158C44.5055 85.4368 44.2657 86.6356 44.0259 87.9144C42.987 87.0353 41.948 86.1561 40.829 85.4368C39.5503 84.5576 38.2715 83.6785 36.9128 82.8793ZM11.977 74.7272L75.3556 60.5009L76.1549 63.2982C76.1549 63.2982 81.1101 72.5692 91.9796 70.9708L90.2213 75.1268L85.4259 86.5557L89.6618 85.5966C89.6618 85.5966 92.2993 79.2028 98.5332 74.4874C101.97 71.9299 106.446 69.8519 112.12 69.6121C114.758 64.4171 112.759 59.7017 112.759 59.7017C112.759 59.7017 107.485 56.3449 101.011 54.8264L128.264 48.7523L155.918 59.9415L160.873 64.577L168.066 68.0936L169.185 74.0079L170.384 75.8461L168.625 78.8032L171.662 77.5245L172.462 78.4036L170.224 81.7604L173.82 79.9221L174.859 81.041L173.261 83.5187L175.898 82.08L178.696 84.3978C178.696 84.3978 171.343 87.7546 163.271 81.6804C163.271 81.6804 160.553 83.6785 156.957 83.6785C149.524 83.6785 146.807 77.1248 146.807 77.1248L145.448 84.9573L136.896 94.3881C139.773 91.9905 142.251 89.9924 145.208 88.4739C148.805 86.7156 152.961 85.6766 159.035 85.6766C159.035 85.6766 164.629 88.7935 171.982 87.6746C174.46 87.3549 177.177 86.4758 179.895 84.8773L189.725 89.5129C186.848 94.7078 180.454 90.6318 180.454 90.6318L175.019 92.5499C189.086 93.2692 193.082 101.661 193.082 101.661C189.965 105.258 187.327 110.213 187.327 110.213C187.327 110.213 187.167 110.213 186.848 110.213C185.329 110.293 179.974 111.012 173.98 114.369L172.701 114.449C172.701 114.449 173.581 96.626 146.647 96.626C137.136 96.626 118.274 101.341 105.886 105.417C95.3363 108.934 85.4259 117.086 85.4259 124.919C85.4259 129.714 89.502 132.032 89.502 133.71C89.502 135.948 84.9464 136.268 81.5097 136.268C70.5603 136.268 65.4452 128.835 65.4452 128.835L51.9383 126.117C51.9383 126.117 55.9344 120.043 55.9344 110.373C55.9344 108.375 55.6947 106.377 55.2151 104.458C53.9364 99.5032 51.1391 94.8677 47.3827 90.9515C48.1819 87.8345 49.4607 84.8773 51.2989 82.16C56.414 74.4874 64.0066 71.3704 64.0066 71.3704C64.0066 71.3704 61.3692 74.9669 59.0514 80.3217C57.2132 84.5576 55.6147 89.7526 55.6147 95.3472C55.6147 98.3043 56.0144 100.942 56.5738 103.18C57.9325 108.534 60.2503 111.731 60.2503 111.731C60.2503 111.731 58.412 107.096 58.412 101.501C58.412 90.3121 63.8468 82.7194 69.7611 78.0839C73.917 74.887 78.2329 73.0488 80.9502 72.4893L81.0302 71.3704C75.1958 67.8538 73.7572 63.3781 73.7572 63.3781L38.9109 71.2106C38.9109 71.2106 34.8348 75.4465 33.2364 80.9611C26.363 77.3646 18.8503 75.2067 11.977 74.7272ZM85.9854 54.8264L83.268 61.3001L87.8236 54.9863C89.3421 55.0662 90.8606 55.226 92.2993 55.3859L88.6228 64.0175L94.5371 55.7056C95.8159 55.8654 97.0946 56.1052 98.3734 56.4249L93.9776 66.655L100.851 56.9843C104.368 57.9434 107.804 59.3021 110.921 61.1403L102.689 62.4191L96.6151 68.733L89.2622 69.2125C82.1491 69.2125 78.1529 62.4191 78.1529 62.4191L76.3946 56.4249L74.7962 55.0662C74.8761 55.0662 79.5915 54.5866 85.9854 54.8264ZM102.21 150.654C145.768 128.435 145.608 102.141 157.996 102.141C161.033 102.141 167.347 105.817 167.347 109.653C167.347 120.043 139.374 145.299 102.21 150.654ZM102.609 124.359C98.0537 131.073 91.2603 132.511 91.2603 132.511C91.0205 131.073 88.383 129.954 87.5039 126.038C87.5039 126.038 93.8178 128.835 102.609 124.359ZM48.5815 110.533C48.5815 120.843 41.6283 130.593 41.6283 130.593L65.9248 134.989C65.9248 134.989 71.9989 140.504 81.4298 140.504C92.4591 140.504 93.1784 135.868 93.1784 134.03C98.0537 132.431 104.607 127.156 104.607 124.199C104.607 123 103.409 122.281 102.529 122.281C101.81 122.281 100.771 122.841 99.9718 123.24C100.451 122.201 99.812 120.363 97.9738 120.363C96.5352 120.363 93.9776 122.441 89.1823 122.921C89.1823 122.921 92.8587 113.09 106.446 108.614C120.112 104.059 139.374 100.542 139.374 100.542C131.222 132.511 93.8977 148.656 93.8977 148.656L107.644 145.539C101.251 148.895 89.502 154.09 89.502 154.09C124.188 151.133 149.444 139.225 167.107 116.367L168.306 117.006H174.859C182.692 112.611 187.887 112.93 187.887 112.93C191.643 105.338 195.559 101.421 195.559 101.421L190.205 88.314L179.655 83.199L176.058 80.4017L170.863 74.0079L169.185 66.575L161.672 62.2592L156.877 57.4639L128.744 45.1558L89.6618 52.9882C79.112 52.109 69.6811 53.4677 69.6811 53.4677L72.958 56.265L10.2986 68.8129L4.14453 76.8851C4.14453 76.8851 48.5815 82.6395 48.5815 110.533Z" fill="#041E42"/>
<path d="M157.597 76.2455C155.599 76.2455 153.601 74.5671 153.601 72.2493C153.601 69.9316 155.519 68.8926 155.519 68.8926C155.519 68.8926 156.558 69.532 157.677 71.0505C156.798 71.2903 156.238 72.0895 156.238 72.9687C156.238 74.0076 156.957 74.9667 158.236 74.9667C158.716 74.9667 159.115 74.8069 159.355 74.647C159.435 75.0466 159.515 75.3663 159.595 75.7659C159.515 75.686 158.716 76.2455 157.597 76.2455ZM162.712 76.4853C162.632 74.0076 163.032 69.532 153.92 66.7347L143.131 63.3779C143.131 63.3779 151.523 70.8107 151.523 72.569C151.523 75.5262 153.92 77.9239 156.878 77.9239C157.917 77.9239 158.876 77.6042 159.755 77.1246L159.915 79.2825C163.671 79.6022 168.147 78.9629 169.266 74.0076C167.667 77.6042 164.23 77.1246 162.712 76.4853Z" fill="#041E42"/>
<path d="M66.0852 123.56C66.4049 114.928 75.3563 102.54 90.062 105.258C91.7404 102.221 94.0582 99.663 96.7756 97.585C95.6566 94.8676 95.4169 91.7506 96.2161 88.8734C96.2161 91.5908 96.9354 94.2282 98.374 96.546C99.7327 95.7468 101.091 95.0275 102.53 94.468C102.13 91.1112 103.01 87.6746 105.008 84.8773C103.889 87.7545 103.729 90.8715 104.528 93.8286C105.967 93.429 107.485 93.1892 109.004 93.0294C109.483 89.273 111.561 85.8363 115.078 83.1989C112.44 86.4757 111.242 89.9124 111.401 92.9495C113.559 93.0294 115.717 93.3491 117.795 93.9885L123.23 87.9943L127.865 82.9591C125.228 80.7213 123.31 77.6842 122.431 74.3275C122.031 72.809 121.791 71.2904 121.791 69.692C121.791 57.7036 132.821 53.4677 132.821 53.4677L128.185 51.1499L113 54.5866C115.078 57.3839 116.197 60.7406 116.117 64.1773C116.037 67.7738 114.678 71.2904 112.44 74.0877C107.325 80.8811 97.5748 86.236 88.064 88.7136C86.4655 89.0333 84.947 89.9124 83.8281 91.1112C83.4285 91.5908 83.1088 92.0703 82.869 92.6298L78.9528 101.821C67.0443 106.936 65.1262 117.566 66.0852 123.56ZM165.03 75.7661L166.388 70.5711L155.838 65.536C162.712 69.5321 165.03 71.8499 165.03 75.7661Z" fill="#041E42"/>
</svg>
