<svg width="200" height="200" viewBox="0 0 200 200" fill="none" xmlns="http://www.w3.org/2000/svg">
<path d="M197.584 27.6844C197.584 0.000935959 166.419 0.000936226 162.223 0.000936226L154.671 0C154.671 0 165.333 10.7187 165.333 14.59C165.333 15.0104 165.165 15.4134 164.868 15.7103C164.57 16.0073 164.167 16.1739 163.747 16.1734H136.591C136.171 16.1737 135.768 16.0071 135.47 15.7101C135.173 15.4132 135.005 15.0103 135.004 14.59C135.004 10.7191 145.667 0 145.667 0C135.318 0 120.479 2.31312 110.17 9.63969C107.259 9.34731 104.338 9.20096 101.408 9.20063C87.7025 9.20822 74.1934 12.4628 61.9878 18.6977C49.7821 24.9326 39.2272 33.9705 31.1878 45.0709C23.1484 56.1713 17.8531 69.0185 15.7358 82.5599C13.6186 96.1013 14.7395 109.952 19.0069 122.976C12.5953 130.812 2 146.856 2 167.307C2 184.982 10.7341 200 10.7341 200C10.7341 200 26.2859 177.23 61.1391 177.23C61.9485 177.237 62.7355 176.965 63.3671 176.458C63.9986 175.952 64.4358 175.243 64.6047 174.452C81.2287 182.237 99.8942 184.548 117.915 181.05C135.935 177.553 152.382 168.428 164.887 154.99C177.392 141.551 185.311 124.491 187.503 106.266C189.696 88.0406 186.05 69.5894 177.089 53.5681C186.69 50.6181 197.584 42.98 197.584 27.6844Z" fill="white"/>
<path d="M194.011 27.6838C194.011 10.4925 178.234 2.97532 162.356 3.5697C162.356 3.5697 168.911 9.89095 168.911 14.5859C168.911 17.0797 167.05 19.7431 161.836 19.7431H138.342C133.059 19.7431 129.907 17.9275 129.907 14.8838C129.907 9.89564 137.751 4.07095 137.751 4.07095C137.751 4.07095 121.849 5.02845 111.204 13.3675C107.953 12.9791 104.682 12.7809 101.409 12.7738C86.6539 12.7766 72.1657 16.705 59.4306 24.1559C46.6955 31.6068 36.1721 42.312 28.9403 55.1728C21.7085 68.0336 18.0287 82.5869 18.2786 97.3395C18.5284 112.092 22.6988 126.512 30.362 139.121C29.0656 139.852 27.6001 140.231 26.1116 140.219C20.2898 140.219 20.2554 127.313 20.2554 127.313C20.2554 127.313 5.57227 144.433 5.57227 167.307C5.57227 181.39 11.5223 193.505 11.5223 193.505C11.5223 193.505 27.9985 173.654 61.1391 173.654C61.1391 173.654 45.4216 167.34 45.4216 159.716C45.5097 159.082 45.7136 158.47 46.0232 157.91C60.9994 171.299 80.3173 178.811 100.404 179.059C120.491 179.306 139.988 172.271 155.289 159.254C170.59 146.238 180.66 128.121 183.637 108.255C186.613 88.3881 182.295 68.1156 171.48 51.1866C179.499 49.9069 194.011 44.4263 194.011 27.6838ZM27.011 95.9181C27.011 76.1866 34.8491 57.2631 48.8012 43.3105C62.7534 29.358 81.6766 21.5192 101.408 21.5188C102.374 21.5188 103.327 21.5556 104.281 21.591C102.62 24.931 101.779 28.6188 101.827 32.3488C101.827 51.4613 123.013 51.6472 123.013 51.6472L112.676 78.955L94.7173 56.21C88.3401 48.1366 81.7342 46.4394 77.3148 46.4394C68.2939 46.4394 61.3023 52.8278 56.537 65.4244L33.5017 126.298C29.216 116.744 27.0041 106.39 27.0117 95.9179L27.011 95.9181ZM36.301 131.918C42.8612 129.753 49.7156 128.61 56.6235 128.529C63.3383 128.602 70.0212 129.464 76.5345 131.099L85.6838 106.931L94.357 122.673L86.4929 130.898C81.7126 135.902 69.7895 132.774 56.6236 132.774C47.4845 132.774 41.9289 133.807 38.1751 135.107C37.5237 134.06 36.899 132.997 36.301 131.918ZM175.807 95.9181C175.811 109.9 171.874 123.6 164.447 135.447C157.02 147.293 146.404 156.806 133.817 162.894C121.23 168.982 107.182 171.399 93.2841 169.867C79.3862 168.336 66.2015 162.917 55.2426 154.234C67.4973 154.767 74.197 162.688 91.457 162.688C116.808 162.688 131.658 147.323 137.102 132.936L165.441 58.0463C172.243 69.5066 175.825 82.5911 175.807 95.9181Z" fill="black"/>
<path d="M169.42 7.24365C171.333 9.21579 172.427 11.8397 172.481 14.5865C172.481 19.0518 169.004 23.3183 161.836 23.3183H138.342C129.212 23.3183 126.335 18.6543 126.335 14.8843C126.275 12.7514 127.041 10.6776 128.473 9.09581C128.473 9.09581 105.398 13.5927 105.398 32.3492C105.398 48.1252 123.038 48.0774 123.038 48.0774H128.183L113.784 86.1233L91.9142 58.4233C90.5557 56.7046 85.2379 50.0121 77.3151 50.0121C66.2998 50.0121 61.511 62.3705 59.8773 66.6868L36.6382 128.095C43.0928 126.001 49.8381 124.942 56.6239 124.958C62.5708 124.982 68.4986 125.632 74.3092 126.899L85.0798 98.4374L98.7476 123.247L89.0726 133.368C82.7082 140.026 69.4195 136.344 56.6239 136.344C32.7345 136.344 35.0414 143.788 26.1114 143.788C19.7857 143.788 18.1457 136.108 18.1457 136.108C18.1457 136.108 9.14355 151.031 9.14355 167.307C9.25241 174.09 10.5069 180.806 12.8539 187.171C12.8539 187.171 31.4704 171.325 50.2242 171.325C50.2242 171.325 41.8514 167.307 41.8514 159.717C41.8514 157.558 44.7164 150.637 53.9451 150.637C68.2373 150.637 74.1901 159.119 91.4573 159.119C115.62 159.119 129.042 144.149 133.765 131.675L165.396 48.0777C165.396 48.0777 190.441 48.1252 190.441 27.6843C190.441 8.93053 169.42 7.24365 169.42 7.24365Z" fill="#CC0000"/>
</svg>
