<svg width="200" height="200" viewBox="0 0 200 200" fill="none" xmlns="http://www.w3.org/2000/svg">
<path d="M134.698 4L142.456 11.2335L149.529 4.35521H200L184.915 31.1323V161.791C184.915 164.698 184.343 167.576 183.231 170.262C182.119 172.947 180.489 175.388 178.434 177.443C176.378 179.499 173.938 181.129 171.253 182.242C168.568 183.355 165.69 183.928 162.783 183.928H121.381C116.992 183.979 112.696 185.201 108.937 187.468C105.179 189.735 102.093 192.964 100 196.822C97.9064 192.964 94.821 189.735 91.0624 187.469C87.3037 185.202 83.0082 183.979 78.6192 183.928H37.2203C34.3134 183.928 31.435 183.355 28.7494 182.243C26.0638 181.13 23.6236 179.5 21.5681 177.444C19.5127 175.389 17.8822 172.948 16.7699 170.263C15.6575 167.577 15.085 164.699 15.085 161.792V31.1323L0 4.35521H50.4724L57.5425 11.2335L65.3017 4H134.698Z" fill="#0033A0"/>
<path d="M183.654 30.8007L197.842 5.6164H150.041L142.475 12.9749L134.2 5.25977H65.7994L57.5258 12.9749L49.9599 5.6164H2.15723L16.3457 30.8007V161.791C16.3455 167.327 18.5445 172.636 22.4589 176.551C26.3734 180.466 31.6827 182.665 37.2188 182.666H78.6196C82.8712 182.707 87.0468 183.798 90.7762 185.84C94.5055 187.882 97.6734 190.812 99.999 194.372C102.325 190.813 105.493 187.882 109.223 185.84C112.952 183.798 117.128 182.708 121.38 182.666H162.78C168.314 182.659 173.62 180.458 177.533 176.544C181.447 172.631 183.648 167.325 183.654 161.791V30.8007Z" fill="white"/>
<path d="M178.106 30.8027V29.3477L178.82 28.0789L188.348 11.1653H152.294L146.344 16.9538L142.556 20.6366L138.691 17.0348L132.014 10.8101H67.9843L61.3092 17.0348L57.4445 20.6366L53.6566 16.9538L47.7061 11.1653H11.6523L21.1791 28.0789L21.8952 29.3477V161.793C21.8947 163.805 22.2906 165.798 23.0603 167.657C23.83 169.517 24.9584 171.206 26.3811 172.63C27.8038 174.053 29.4929 175.182 31.352 175.953C33.2111 176.723 35.2037 177.12 37.2161 177.121H78.6179C86.5461 177.121 94.5867 179.662 100 187.052C105.411 179.874 113.454 177.121 121.381 177.121H162.781C166.845 177.115 170.74 175.499 173.613 172.625C176.486 169.752 178.102 165.856 178.106 161.793V30.8027Z" fill="#0033A0"/>
<path d="M173.842 59.9346H26.1455V63.4938H173.842V59.9346Z" fill="white"/>
<path d="M75.3751 68.8311H70.2529L173.848 143.006V139.34L75.3751 68.8311Z" fill="white"/>
<path d="M173.849 132.065V68.8311H85.5352L173.849 132.065Z" fill="#C8102E"/>
<path d="M26.1836 86.177L145.729 172.753H150.812L26.1836 82.4956V86.177Z" fill="white"/>
<path d="M124.847 172.767C124.792 172.761 124.704 172.758 124.64 172.752H124.502L124.847 172.767Z" fill="white"/>
<path d="M144.792 28.7925H135.05V55.4843H139.321V42.38H141.925L146.527 55.4843H150.797L146.107 42.2024C147.246 41.9506 148.266 41.3179 148.997 40.4086C149.729 39.4994 150.129 38.368 150.131 37.201V34.0652C150.049 32.6822 149.459 31.3784 148.473 30.4048C147.487 29.4313 146.176 28.8569 144.792 28.7925ZM143.978 38.322H139.321V33.0635H143.91C143.91 33.0635 145.86 33.0237 145.86 34.7984V36.5872C145.858 37.0504 145.672 37.4939 145.344 37.8202C145.015 38.1465 144.57 38.3289 144.107 38.3272C144.064 38.3271 144.021 38.3254 143.978 38.322Z" fill="white"/>
<path d="M150.919 133.392L146.5 130.164L145.423 129.377L143.053 127.644L127.308 149.198L130.755 151.718L137.793 142.082L139.898 143.621L136.574 155.969L140.023 158.489L143.382 145.943C144.45 146.411 145.646 146.502 146.773 146.199C147.899 145.897 148.889 145.219 149.579 144.279L152.121 140.799C152.871 139.634 153.163 138.233 152.941 136.865C152.719 135.498 151.999 134.261 150.919 133.392ZM143.948 141.555L140.189 138.806L143.983 133.613L147.69 136.322C148.098 136.577 148.389 136.983 148.497 137.452C148.606 137.921 148.524 138.413 148.27 138.822L148.238 138.871L146.492 141.265C146.355 141.45 146.184 141.606 145.987 141.724C145.791 141.843 145.573 141.921 145.346 141.956C145.119 141.99 144.887 141.979 144.665 141.924C144.442 141.868 144.232 141.77 144.047 141.634C144.013 141.609 143.98 141.582 143.948 141.555Z" fill="white"/>
<path d="M122.973 55.4858H124.573C124.573 55.4858 130.445 54.683 130.512 49.612V34.8651C130.559 33.3204 129.999 31.8187 128.95 30.683C127.902 29.5474 126.45 28.8685 124.907 28.7925H122.973C117.299 28.7925 117.032 34.5327 117.032 34.5327V49.146C117.032 55.0183 122.973 55.4858 122.973 55.4858ZM124.105 51.2147H123.572C122.962 51.2064 122.38 50.9561 121.955 50.5189C121.529 50.0816 121.295 49.4932 121.303 48.8831L121.303 48.8789V35.3994C121.31 34.7933 121.549 34.2128 121.971 33.7781C122.393 33.3433 122.967 33.0875 123.572 33.0635H124.173C124.746 33.1569 125.266 33.449 125.645 33.8884C126.023 34.3278 126.234 34.8865 126.241 35.4662V48.8789C126.232 49.462 126.01 50.0217 125.616 50.4521C125.223 50.8825 124.685 51.1538 124.105 51.2147Z" fill="white"/>
<path d="M59.9106 33.0635V28.7925H53.504H51.1014H49.2344V55.4843H51.1014H53.504H59.9106V51.2147H53.504V44.1404H59.9106V39.8708H53.504V33.0635H59.9106Z" fill="white"/>
<path d="M135.414 127.445L137.963 124.019L132.823 120.194L130.896 118.759L129.399 117.645L113.464 139.058L114.961 140.174L116.89 141.607L122.029 145.434L124.579 142.007L119.44 138.183L123.663 132.507L128.8 136.33L131.351 132.905L126.212 129.08L130.275 123.62L135.414 127.445Z" fill="white"/>
<path d="M39.225 28.7925V45.5527L32.0171 28.7925H27.7461V55.4843H32.0171V38.7256L39.225 55.4843H43.4961V28.7925H39.225Z" fill="white"/>
<path d="M110.226 28.7925L106.624 38.5977L103.018 28.7925H98.748L104.485 44.4075V55.4843H108.758V44.4075L114.497 28.7925H110.226Z" fill="white"/>
<path d="M172.551 55.4843L164.489 37.2479L169.747 28.7925H165.478L159.871 37.7779V28.7925H155.602V55.4843H159.871V44.6746L161.973 41.2944L168.28 55.4843H172.551Z" fill="white"/>
<path d="M83.5342 28.7925L80.8389 45.1264L78.0626 28.7925H73.7915L71.0138 45.1264L68.3199 28.7925H64.0488L68.4534 55.4843H69.2534H72.7245H73.5244L75.927 41.3541L78.3297 55.4843H79.1296H82.5993H83.4006L87.8052 28.7925H83.5342Z" fill="white"/>
<path d="M104.261 99.7077L94.508 113.339L98.3997 95.5148L94.9257 93.0298L79.3945 114.739L82.8685 117.224L92.6211 103.591L88.7309 121.418L92.2034 123.902L107.735 102.194L104.261 99.7077Z" fill="white"/>
<path d="M119.869 110.991L117.859 109.51L117.697 109.394C113.09 106.087 109.526 110.593 109.526 110.593L101.004 122.465C97.5784 127.235 102.132 131.079 102.132 131.079L104.032 132.478C104.958 132.929 105.952 133.223 106.974 133.348L106.889 134.426L108.758 135.76L111.65 131.894C111.881 131.672 112.092 131.43 112.281 131.172L115.076 127.281L117.02 124.571L113.542 122.095L110.068 119.628L108.125 122.342L111.596 124.804L109.241 128.085C108.893 128.553 108.386 128.878 107.816 128.998C107.245 129.119 106.65 129.026 106.143 128.737L105.109 127.96C104.866 127.78 104.66 127.554 104.505 127.295C104.349 127.035 104.246 126.748 104.201 126.449C104.156 126.15 104.171 125.845 104.244 125.551C104.318 125.258 104.448 124.982 104.628 124.739L104.629 124.737L112.49 113.788C112.848 113.3 113.381 112.968 113.978 112.861C114.574 112.755 115.189 112.882 115.694 113.216L116.782 114.033C117.193 114.442 117.446 114.983 117.498 115.56C117.549 116.138 117.395 116.715 117.062 117.19L115.328 119.605L118.786 122.113L120.883 119.192C121.822 117.964 122.241 116.418 122.052 114.884C121.862 113.35 121.078 111.953 119.869 110.991Z" fill="white"/>
<path d="M86.1281 86.5757L82.7863 84.0054L61.1455 101.395L64.5896 103.921L69.2045 100.41L74.9759 104.689L73.0678 110.122L76.5104 112.648L86.1281 86.5757ZM80.3964 91.0499L76.3257 101.06L72.1215 98.0575L80.3964 91.0499Z" fill="white"/>
<path d="M165.585 142.289C168.535 144.758 169.549 147.32 167.932 150.511C167.309 151.617 166.61 152.679 165.838 153.687L162.475 151.179C162.475 151.179 165.851 147.988 163.169 145.639C162.684 145.177 162.085 144.853 161.433 144.698C160.782 144.543 160.101 144.564 159.46 144.758C157.216 146.04 157.203 148.347 157.949 150.912C159.433 154.887 161.527 160.426 158.297 164.27C156.482 166.083 153.413 167.271 151.277 166.206C148.437 165.195 146.082 163.15 144.684 160.48C143.202 156.555 147.647 152.111 147.647 152.111L150.531 154.14C150.531 154.14 147.421 157.864 148.647 159.492C149.089 160.747 152.371 163.095 154.508 162.027C159.498 158.25 149.463 149.869 154.373 143.572C155.539 142.103 157.151 141.054 158.965 140.581C161.635 139.941 163.556 141.061 165.585 142.289Z" fill="white"/>
<path d="M100 181.027C92.4641 171.971 78.8397 172.683 75.3927 172.752H39.5521C24.6049 172.752 26.1848 158.788 26.1848 158.788V93.4766L135.646 172.752H121.591C118.078 172.751 108.126 172.188 100 181.027Z" fill="white"/>
<path d="M69.9625 74.9919L65.5437 71.7638L64.4667 70.9781L62.0968 69.2446L46.3496 90.7987L49.798 93.3179L56.8368 83.6832L58.9411 85.2205L55.6177 97.569L59.0661 100.088L62.4236 87.5436C63.4919 88.0122 64.688 88.1027 65.8146 87.8003C66.9413 87.4978 67.9313 86.8204 68.6212 85.8798L71.1645 82.3987C71.9141 81.2336 72.2061 79.8323 71.9842 78.4648C71.7622 77.0972 71.0421 75.8602 69.9625 74.9919ZM62.9919 83.1546L59.2309 80.4067L63.026 75.2136L66.7315 77.9217C66.9338 78.0476 67.1094 78.2121 67.2481 78.4058C67.3869 78.5996 67.4861 78.8187 67.5401 79.0508C67.5942 79.2829 67.6019 79.5234 67.5631 79.7585C67.5242 79.9936 67.4393 80.2187 67.3134 80.421L67.2814 80.4707L65.5352 82.8648C65.3989 83.0495 65.2276 83.2055 65.031 83.324C64.8344 83.4425 64.6164 83.5211 64.3894 83.5553C64.1625 83.5896 63.931 83.5788 63.7082 83.5235C63.4854 83.4683 63.2757 83.3697 63.091 83.2335C63.057 83.2084 63.024 83.1821 62.9919 83.1546Z" fill="white"/>
<path d="M116.049 117.372C115.636 117.919 114.515 117.768 113.535 117.035C112.557 116.3 112.099 115.265 112.511 114.719L113.683 113.149C114.093 112.605 115.214 112.754 116.193 113.489C117.172 114.217 117.634 115.256 117.222 115.804L116.049 117.372Z" fill="#0033A0"/>
<path d="M108.016 128.681C107.604 129.228 106.485 129.079 105.506 128.348C104.531 127.613 104.072 126.579 104.484 126.032L105.658 124.463C106.067 123.919 107.188 124.068 108.164 124.801C109.142 125.529 109.602 126.566 109.19 127.114L108.016 128.681Z" fill="#0033A0"/>
<path d="M106.038 132.849C105.704 133.291 104.297 132.792 102.883 131.735C101.474 130.675 100.599 129.462 100.934 129.023L101.877 127.757C102.21 127.316 103.619 127.813 105.03 128.875C106.44 129.928 107.321 131.142 106.984 131.584L106.038 132.849Z" fill="white"/>
<path d="M120.176 114.338C119.842 114.779 118.26 114.15 116.628 112.93C114.999 111.703 113.949 110.359 114.281 109.917L115.226 108.651C115.557 108.214 117.146 108.842 118.774 110.067C120.402 111.284 121.459 112.633 121.123 113.073L120.176 114.338Z" fill="white"/>
</svg>
