<svg width="200" height="200" viewBox="0 0 200 200" fill="none" xmlns="http://www.w3.org/2000/svg">
<path d="M181.356 61.9322C169.573 50.0852 153.58 43.3838 136.871 43.2926C138.234 37.2645 140.115 31.3654 142.493 25.661L142.538 25.5443C142.781 24.9444 142.876 24.2944 142.813 23.65C142.751 23.0057 142.533 22.3861 142.178 21.8444C141.823 21.3027 141.343 20.855 140.777 20.5397C140.212 20.2244 139.578 20.0509 138.931 20.0341L138.814 20.032C138.066 20.0114 137.299 20 136.532 20C125.526 20.0294 114.611 21.988 104.282 25.787C90.1441 31.1061 78.8355 39.6849 70.6689 51.2878C65.8727 58.0905 62.3518 65.7077 60.2775 73.7686C59.9305 75.1453 59.6144 76.5386 59.3314 77.9278C58.8666 77.9361 58.4001 77.9406 57.9319 77.9412C51.2305 77.8435 44.5465 77.2299 37.9392 76.1059C31.1194 75.0214 19.7603 71.2226 17.3207 70.2993C15.6155 69.6548 13.839 68.9339 12.0295 68.1489L9.96791 67.239L0 62.8132L5.99047 74.4822C7.76992 78.4099 9.78095 82.2285 12.0129 85.9178C15.8007 91.9684 20.6252 97.3041 26.2651 101.68L31.7154 111.773C34.4277 117 37.7617 121.881 41.6451 126.308C43.3624 128.17 45.2096 129.908 47.1729 131.508C49.2456 133.203 51.4733 134.7 53.8264 135.977L56.6647 142.134C58.753 145.912 61.3515 149.384 64.3872 152.452C67.5381 155.394 71.1353 157.818 75.0451 159.634L75.3818 159.775C80.5722 161.997 86.1733 163.097 91.8184 163.004C93.4482 163.004 95.1617 162.915 96.9113 162.742L97.1334 162.72C98.4533 164.398 99.1412 165.652 99.2362 166.547C99.3064 167.192 99.0617 167.789 98.5856 168.865C98.1317 169.555 97.5858 170.18 96.963 170.722L96.9341 170.751C96.4951 171.185 95.9962 171.676 95.5098 172.222L95.3683 172.381C94.8364 172.972 94.4935 173.709 94.3834 174.497C94.2734 175.285 94.4013 176.088 94.7506 176.802C95.0818 177.477 95.5946 178.045 96.2313 178.443C96.8679 178.841 97.6032 179.054 98.3542 179.057C98.4368 179.057 98.5205 179.055 98.6072 179.051L98.818 179.036C104.35 178.499 109.451 175.814 113.027 171.559C114.119 170.219 115.069 168.77 115.863 167.235C129.472 171.856 144.244 171.736 157.777 166.895C171.309 162.055 182.806 152.777 190.396 140.573C197.987 128.369 201.225 113.955 199.583 99.6769C197.942 85.3987 191.518 72.0958 181.356 61.9322Z" fill="white"/>
<path d="M179.779 63.5119C174.089 57.791 167.321 53.2555 159.866 50.1678C152.412 47.0802 144.419 45.5018 136.351 45.5239C135.63 45.5239 134.887 45.5405 134.139 45.5663C135.528 38.4568 137.634 31.5065 140.424 24.8217L140.47 24.7061C140.578 24.4406 140.619 24.153 140.592 23.8679C140.564 23.5827 140.467 23.3085 140.311 23.0688C140.154 22.8291 139.941 22.631 139.691 22.4914C139.441 22.3519 139.16 22.275 138.874 22.2675L138.752 22.2654C138.023 22.2448 137.277 22.2334 136.533 22.2334C125.796 22.2621 115.147 24.1725 105.069 27.8779C91.3572 33.0369 80.3977 41.3461 72.4955 52.5751C67.8554 59.1529 64.4489 66.5189 62.4419 74.3144C61.942 76.3047 61.5288 78.2361 61.1849 80.1024L60.9711 80.1096C59.9806 80.153 58.9581 80.1757 57.9335 80.1757C51.1145 80.0773 44.3131 79.454 37.5897 78.3115C30.6026 77.2011 19.0193 73.328 16.5312 72.3871C14.5688 71.6444 12.5227 70.8068 10.4405 69.8897L9.49546 69.4714L4.97266 67.4625L7.59195 72.8725C9.43352 76.9516 11.5388 80.9064 13.8943 84.7119C19.9932 94.2357 27.5546 101.089 37.0072 105.661C42.5917 108.362 49.0645 109.552 52.4244 110.019C55.3515 110.401 58.2968 110.629 61.2479 110.7H61.25L61.6394 110.696C61.8149 111.378 62.0064 112.069 62.2136 112.77C62.0938 112.77 61.973 112.771 61.8542 112.771C57.9697 112.768 54.0914 112.46 50.2554 111.848C46.8318 111.339 43.4511 110.574 40.1419 109.559C38.7572 109.155 37.3956 108.676 36.0632 108.123L31.1118 105.954L33.6784 110.711C36.3068 115.779 39.5371 120.511 43.2992 124.806C44.9438 126.587 46.7119 128.25 48.5905 129.782C50.5995 131.424 52.7611 132.869 55.0457 134.099C60.9482 137.419 67.6192 139.13 74.3908 139.06C74.4817 139.06 74.5715 139.059 74.6645 139.058L75.8522 139.046C76.38 139.724 76.9171 140.397 77.4635 141.061C76.8128 141.103 76.1993 141.121 75.5352 141.121C74.619 141.121 73.5728 141.084 72.2445 141.006C68.675 140.795 62.7982 139.507 61.1828 138.737L56.532 136.511L58.6927 141.195C60.6715 144.729 63.1164 147.982 65.9618 150.865C68.9097 153.605 72.2664 155.868 75.9111 157.574L76.2571 157.718C81.1725 159.819 86.4761 160.859 91.821 160.769H91.822C93.3785 160.769 95.0166 160.684 96.6918 160.517L98.0294 160.383C98.3142 160.658 98.5819 160.95 98.8309 161.258C102.389 165.758 101.69 167.373 100.616 169.8C100.066 170.746 99.3622 171.594 98.5334 172.309L98.5076 172.335C98.0696 172.768 97.6173 173.214 97.1762 173.706L97.0347 173.863C96.8068 174.118 96.6575 174.434 96.6048 174.772C96.5522 175.11 96.5985 175.456 96.7382 175.768C96.8778 176.081 97.1049 176.346 97.3919 176.532C97.6789 176.718 98.0137 176.817 98.3557 176.817C98.3929 176.817 98.4301 176.817 98.4684 176.815L98.679 176.801C103.593 176.319 108.121 173.93 111.293 170.146C112.702 168.42 113.85 166.497 114.699 164.438C127.839 169.383 142.275 169.678 155.606 165.275C168.937 160.871 180.357 152.035 187.965 140.236C195.573 128.437 198.91 114.388 197.421 100.428C195.931 86.4683 189.705 73.4398 179.779 63.5119Z" fill="black"/>
<path d="M195.994 106.939C195.983 116.585 193.635 126.085 189.152 134.626C184.668 143.166 178.182 150.494 170.249 155.981C162.316 161.468 153.171 164.951 143.598 166.133C134.025 167.315 124.308 166.16 115.278 162.766C115.565 161.915 115.797 161.093 115.995 160.314C116.317 158.952 116.538 157.567 116.656 156.172C117.719 155.827 118.757 155.413 119.766 154.932C121.735 154.046 123.025 153.434 123.231 153.336C133.706 156.296 144.875 155.625 154.921 151.431C164.966 147.237 173.296 139.767 178.556 130.236C183.815 120.706 185.695 109.676 183.889 98.9408C182.082 88.2061 176.696 78.3986 168.607 71.1143C168.602 70.4651 168.701 69.8194 168.9 69.2015C168.975 68.9577 169.05 68.6933 169.123 68.4331C169.198 68.1707 169.268 67.9208 169.339 67.6904C172.98 71.3312 175.099 70.6578 175.174 70.6227C175.311 70.5413 175.468 70.4988 175.628 70.4998C176.256 70.6153 176.823 70.9462 177.233 71.4355L177.245 71.4489L177.258 71.4345L177.245 71.4469L177.305 71.3839L177.367 71.3198V71.3188C177.262 71.199 176.399 70.1651 176.801 69.3543C176.84 69.2634 177.699 67.0976 173.851 63.0117L173.756 62.9105L173.702 63.0406C173.474 63.831 173.468 64.6688 173.683 65.4626L173.697 65.5628C173.752 66.0655 173.619 66.5709 173.323 66.9809C173.175 67.1348 172.995 67.2545 172.796 67.3314C172.597 67.4083 172.383 67.4406 172.17 67.426L171.755 67.3971C171.16 67.1998 170.539 67.0949 169.912 67.0862L169.542 67.1027C169.61 66.9282 169.688 66.7485 169.778 66.5553C169.947 66.2169 170.081 65.8618 170.177 65.4956L170.419 65.4574C171 65.5355 171.546 65.7838 171.987 66.1711L172.001 66.1835L172.012 66.167L172 66.1814L172.054 66.1081L172.105 66.0348C171.989 65.9346 170.985 65.0267 171.275 64.1684C171.3 64.0734 171.851 61.8084 167.476 58.2926L167.365 58.2038L167.332 58.3401C167.216 59.1548 167.326 59.9856 167.648 60.7425L167.673 60.8396C167.74 61.0955 167.755 61.3622 167.717 61.6239C167.678 61.8855 167.588 62.1369 167.451 62.3631C167.271 62.5629 167.046 62.7179 166.795 62.8157C166.545 62.9134 166.274 62.9512 166.006 62.926C165.628 62.8591 165.246 62.8246 164.862 62.8227C164.318 62.7998 163.775 62.8946 163.271 63.1005L163.147 63.1625L163.258 63.2492C164.012 63.8569 164.818 64.3964 165.667 64.8615L165.436 64.9483C165.231 65.0268 165.019 65.1083 164.792 65.1889C164.235 65.3893 163.687 65.6206 163.323 65.7787C162.971 65.9361 162.627 66.1115 162.293 66.3044C154.549 61.351 145.546 58.7238 136.352 58.7347C135.291 58.7347 134.219 58.7709 133.153 58.84C132.984 54.9965 133.211 51.1459 133.829 47.3487C134.67 47.3125 135.514 47.2939 136.351 47.2939C144.184 47.2937 151.94 48.8364 159.176 51.8338C166.413 54.8313 172.988 59.2248 178.526 64.7634C184.065 70.3021 188.458 76.8775 191.455 84.114C194.452 91.3506 195.994 99.1067 195.994 106.939Z" fill="#B79257"/>
<path d="M123.253 123.887C126.055 126.872 128.527 129.504 129.476 131.601C129.527 131.713 129.573 131.822 129.615 131.93C129.662 132.055 129.703 132.178 129.738 132.299C129.765 132.393 129.792 132.485 129.812 132.577C129.891 132.929 129.952 133.269 130 133.596C130.047 133.922 130.08 134.236 130.101 134.536C130.121 134.838 130.13 135.128 130.13 135.405C130.129 135.696 130.117 135.974 130.097 136.24C130.082 136.454 130.06 136.657 130.036 136.855C130.029 136.917 130.019 136.977 130.012 137.037C129.919 137.699 129.789 138.28 129.67 138.793C130.606 138.026 131.913 136.858 132.936 135.926C133.029 135.841 133.118 135.759 133.208 135.678C133.559 135.356 133.864 135.076 134.092 134.866C134.216 134.75 134.342 134.636 134.47 134.52C134.6 134.404 134.73 134.286 134.864 134.169C135.132 133.932 135.41 133.692 135.694 133.444C136.737 132.568 137.735 131.64 138.685 130.663C139.145 130.188 139.544 129.657 139.873 129.083L139.953 128.934C140.273 128.457 140.446 127.896 140.448 127.322C140.444 127.149 140.429 126.977 140.404 126.807C140.357 126.474 140.268 126.15 140.139 125.84C139.884 125.285 139.56 124.765 139.175 124.293C138.717 123.692 138.266 123.128 137.823 122.594C137.489 122.193 137.161 121.807 136.838 121.437C136.635 121.203 136.431 120.977 136.233 120.754C136.002 120.498 135.774 120.248 135.549 120.003C135.409 119.85 135.27 119.702 135.133 119.555C135.022 119.436 134.912 119.319 134.803 119.201C134.671 119.06 134.541 118.922 134.411 118.785L134.344 118.711C134.258 118.619 134.171 118.531 134.088 118.44C133.995 118.341 133.904 118.243 133.813 118.148C131.999 116.221 130.728 114.803 130.187 113.231C130.091 112.968 130.02 112.696 129.975 112.419C129.964 112.363 129.958 112.307 129.951 112.25C129.949 112.231 129.946 112.214 129.945 112.196C129.888 111.773 129.878 111.345 129.916 110.92C130.492 106.925 135.487 104.248 139.018 108.691L140.398 110.406C140.398 110.406 146.898 118.61 150.372 122.819L152.161 124.928C152.225 124.996 152.281 125.058 152.33 125.106C155.26 128.548 160.603 131.272 161.884 131.86C161.792 131.75 161.685 131.624 161.568 131.482C160.692 130.42 159.906 129.286 159.218 128.093C159.007 127.719 158.809 127.335 158.634 126.947C158.599 126.872 158.566 126.794 158.531 126.718C158.412 126.453 158.293 126.186 158.176 125.908C158.099 125.729 158.023 125.549 157.947 125.363C157.533 124.349 157.196 123.306 156.939 122.242C156.841 121.828 156.758 121.423 156.687 121.027C156.65 120.817 156.617 120.612 156.587 120.408C156.582 120.372 156.576 120.338 156.571 120.303C156.542 120.091 156.515 119.883 156.491 119.679C156.474 119.538 156.46 119.398 156.448 119.26C156.428 119.049 156.41 118.843 156.399 118.641C156.398 118.627 156.397 118.614 156.397 118.599C156.383 118.39 156.373 118.189 156.366 117.99C156.354 117.674 156.349 117.372 156.352 117.083C156.353 116.794 156.36 116.521 156.372 116.264C156.399 115.607 156.455 115.058 156.51 114.648C156.511 114.63 156.514 114.616 156.516 114.601C156.554 114.301 156.594 114.078 156.619 113.945C156.363 113.885 156.111 113.808 155.864 113.716C154.951 113.385 154.115 112.87 153.408 112.203C152.945 111.764 152.552 111.257 152.241 110.7C151.107 108.743 150.481 106.534 150.419 104.274C150.223 104.418 150.028 104.567 149.831 104.715C148.916 105.458 147.925 106.1 146.874 106.632C145.885 107.101 144.827 107.408 143.74 107.542C143.431 107.579 143.119 107.597 142.807 107.598C142.544 107.598 142.282 107.584 142.021 107.556C141.769 107.527 141.519 107.484 141.272 107.426C138.022 106.672 136.017 105.165 134.959 102.683C134.719 102.12 134.549 101.529 134.455 100.925C134.433 100.775 134.414 100.625 134.4 100.473C134.386 100.321 134.378 100.17 134.374 100.017C134.366 99.7084 134.377 99.3996 134.407 99.0925C134.472 98.3681 134.601 97.6509 134.793 96.9494C134.837 96.7872 134.887 96.6219 134.942 96.4608C134.996 96.2997 135.054 96.1386 135.117 95.9774C135.308 95.4942 135.547 95.0312 135.83 94.5955C135.927 94.4509 136.028 94.3063 136.138 94.1689C136.412 93.8163 136.727 93.4965 137.075 93.2156C137.291 93.0398 137.521 92.881 137.762 92.7405C137.844 92.692 137.929 92.6455 138.015 92.6001C138.188 92.5112 138.368 92.4276 138.555 92.3522C138.687 92.2985 138.821 92.2541 138.957 92.2138C139.906 91.9507 140.912 91.9786 141.844 92.2939C142.777 92.6092 143.593 93.1973 144.188 93.982C144.212 93.9138 144.238 93.8384 144.266 93.7589C144.456 93.196 144.692 92.3563 144.967 91.3617C145.709 88.5414 146.604 85.764 147.651 83.0422C147.825 82.6084 148.001 82.1677 148.176 81.7201C148.311 81.3783 148.445 81.0333 148.583 80.6904C149.43 78.2769 150.638 76.0054 152.164 73.9532C150.32 72.6123 148.289 71.5495 146.137 70.7989C145.988 70.7473 145.84 70.6997 145.693 70.6543C143.811 70.0529 141.845 69.7582 139.87 69.7816L139.53 69.7826C136.243 69.7786 132.978 70.3052 129.859 71.3422C129.662 71.4093 129.465 71.4795 129.268 71.5529C128.4 71.8731 127.539 72.2401 126.685 72.6539C126.413 72.7861 126.14 72.9228 125.867 73.0639C125.737 73.1321 125.607 73.1982 125.476 73.2674C123.078 74.5679 120.883 76.2127 118.962 78.1496C118.956 78.1548 118.953 78.161 118.947 78.1641C116.286 80.8412 114.148 83.9912 112.642 87.4524C112.036 88.8446 111.541 90.2818 111.159 91.7511C110.701 93.4217 110.377 95.1261 110.19 96.8481C110.114 97.608 110.077 98.3712 110.078 99.1348C110.081 100.173 110.158 101.209 110.307 102.236C110.369 102.669 110.447 103.11 110.539 103.558C110.665 104.184 110.828 104.827 111.017 105.487C111.053 105.612 111.091 105.74 111.131 105.866C111.776 107.932 112.627 109.929 113.671 111.825C114.216 112.82 114.814 113.784 115.463 114.714C117.831 117.959 120.435 121.025 123.253 123.887Z" fill="#B79257"/>
<path d="M172.575 119.73L171.927 122.523L173.732 130.13C173.732 130.13 168.448 130.958 166.096 131.312C165.372 133.739 161.749 143.264 161.749 143.264L161.024 142.906C160.497 137.702 157.789 135.041 154.694 133.048C152.939 131.98 151.052 131.145 149.08 130.564C146.499 129.787 143.859 129.219 141.186 128.868C141.587 127.83 141.587 126.68 141.185 125.642C140.639 124.467 139.92 123.38 139.054 122.416C142.357 121.854 142.74 119.518 142.606 118.093C142.19 118.82 140.424 121.809 137.817 121.22C132.459 114.907 131.546 114.565 131.027 112.527C130.867 111.7 130.957 110.844 131.285 110.068C131.614 109.292 132.165 108.631 132.87 108.169C135.666 106.432 137.411 108.195 140.239 111.752C141.743 113.642 147.175 120.85 150.747 124.901C153.225 127.742 156.231 130.075 159.598 131.771C160.895 132.429 162.234 133.001 163.607 133.482L164.052 132.772C162.331 130.988 160.871 128.969 159.715 126.776C158.899 125.156 158.278 123.444 157.864 121.678C157.291 118.826 157.278 115.891 157.825 113.034C157.825 113.034 155.317 113.448 152.98 110.006C152.269 108.651 151.806 107.179 151.613 105.661C151.486 104.835 151.408 104.002 151.379 103.167C155.673 99.2509 161.518 92.2441 163.755 91.7246C164.43 93.1272 174.202 113.849 174.202 113.849L172.012 114.9L172.021 117.284L166.301 121.479L172.575 119.73Z" fill="white"/>
<path d="M106.313 168.207C106.339 168.016 106.355 167.88 106.358 167.84C106.572 165.664 106.126 163.473 105.08 161.553C104.39 160.211 103.517 158.97 102.488 157.866C101.014 156.255 99.3695 154.809 97.5828 153.554C97.3886 153.415 78.0776 139.444 69.753 119.19C64.7131 107.099 63.3766 93.7836 65.9129 80.9319C66.4981 78.002 67.2614 75.1105 68.1985 72.2736L68.2295 72.1754C70.8327 64.0056 75.0702 56.4504 80.6845 49.9694C92.8834 36.1438 112.471 27.8243 134.542 27.0693C132.714 31.8105 131.249 36.6837 130.16 41.6468C129.916 42.7127 127.817 52.1074 128.348 59.7577C121.691 61.7037 115.526 65.047 110.264 69.5645C106.555 72.7877 103.479 76.6742 101.194 81.0248C99.1108 85.0867 97.8355 89.5139 97.4382 94.0613C97.3907 94.4497 97.3435 94.8218 97.2967 95.1778C96.6759 99.7977 98.1891 111.524 104.627 118.991C106.392 121.04 108.841 124.078 111.943 127.924L111.983 127.975C114.045 130.532 116.371 133.416 118.989 136.62C116.878 138.786 115.219 141.351 114.111 144.165C113.241 146.163 112.657 148.273 112.377 150.434C112.285 151.212 112.222 152.027 112.154 152.889C112.041 155.467 111.632 158.025 110.935 160.51C110.465 162.084 109.794 163.591 108.94 164.994C108.21 166.176 107.327 167.256 106.313 168.207Z" fill="#DA1A32"/>
<path d="M138.827 24.0394L138.702 24.0373C137.995 24.0167 137.265 24.0063 136.533 24.0063C126.009 24.0337 115.571 25.9057 105.694 29.5372C92.3227 34.5682 81.64 42.6625 73.9454 53.5951C69.4312 59.9955 66.1165 67.1622 64.1623 74.7466C60.2912 90.1576 61.5895 101.846 62.707 107.439C64.0325 113.551 66.1382 119.466 68.9722 125.041C69.53 126.131 72.3806 131.149 74.2738 133.895C76.213 136.706 78.3114 139.403 80.5586 141.974C82.5884 144.319 84.7396 146.556 87.0035 148.676C87.5292 149.173 87.9827 149.604 88.4154 150.037C90.5179 152.07 92.7538 153.961 95.1082 155.695C97.2668 157.354 99.1301 158.787 100.22 160.162C104.452 165.515 103.421 167.845 102.226 170.542C101.594 171.689 100.765 172.715 99.7777 173.574C99.3501 173.995 98.9091 174.431 98.4959 174.892L98.3555 175.051L98.5672 175.036C102.99 174.598 107.064 172.443 109.916 169.034C112.035 166.391 113.527 163.302 114.279 159.999C114.681 158.15 114.941 156.273 115.058 154.384C115.164 153.183 115.276 151.946 115.443 150.728C115.713 148.763 116.265 146.848 117.083 145.041C118.067 142.757 119.452 140.668 121.172 138.871C120.712 138.4 120.265 137.913 119.82 137.423C118 139.419 116.503 141.687 115.386 144.146C114.251 146.621 113.569 149.279 113.373 151.995C113.335 152.441 113.3 152.825 113.243 153.195C113.182 153.591 113.146 154.105 113.102 154.699C112.99 158.259 112.07 161.748 110.413 164.902C108.932 167.664 106.683 169.938 103.938 171.449C104.917 169.856 105.336 167.98 105.127 166.122C104.707 161.473 101.104 157.873 98.1541 155.67C89.5499 149.349 82.0413 141.659 75.9274 132.906C70.2519 124.65 66.4841 116.074 64.7293 107.417C62.5963 96.8434 62.9549 85.9181 65.7766 75.5068C68.4292 65.6514 73.3406 56.5492 80.1217 48.9215C93.2346 34.344 112.622 26.4056 136.194 25.9553L135.921 26.7248C134.652 30.3129 133.342 34.0249 132.259 38.1139C131.421 41.2847 130.737 44.4855 130.169 47.9021C129.504 51.7343 129.292 55.6316 129.538 59.5133L131.377 59.0929C130.685 46.7763 135.031 33.3298 138.783 24.1541L138.827 24.0394Z" fill="#B79257"/>
<path d="M160.3 154.979L160.271 154.93L160.307 155.008L160.3 154.979Z" fill="#B79257"/>
<path d="M170.431 113.027L166.051 115.679L166.16 115.944L173.462 114.184L170.431 113.027Z" fill="black"/>
<path d="M165.592 103.108C165.568 102.57 165.445 102.041 165.229 101.547C164.936 101.107 166.544 100.42 166.544 100.42L165.712 99.9658L165.512 100.326L161.756 101.641L158.627 104.207L161.31 103.343L166.825 104.048L165.592 103.108Z" fill="black"/>
<path d="M150.479 55.7319C150.603 55.5398 150.778 55.3869 150.986 55.2912C151.193 55.1956 151.423 55.161 151.649 55.1917C151.991 55.1965 152.33 55.2468 152.657 55.3415L152.675 55.3456L152.699 55.2609L152.71 55.17C152.563 55.1246 151.279 54.7001 151.196 53.7963C151.179 53.6982 150.77 51.4053 145.349 49.9531L145.214 49.917L145.237 50.0544C145.459 50.85 145.897 51.5687 146.502 52.1314L146.56 52.2037C146.723 52.4114 146.844 52.6498 146.914 52.9049C146.985 53.1599 147.004 53.4265 146.97 53.6889C146.885 53.9445 146.741 54.1768 146.551 54.3672C146.361 54.5576 146.128 54.7009 145.873 54.7858C144.954 54.9544 144.107 55.3944 143.441 56.0489L143.353 56.1584L143.488 56.1935C144.693 56.5298 145.936 56.7127 147.186 56.7378C149.66 56.7347 150.438 55.7866 150.479 55.7319Z" fill="black"/>
<path d="M158.284 57.733C158.733 57.7527 159.173 57.8579 159.582 58.0429L159.598 58.0501L159.635 57.9685L159.658 57.8817C159.52 57.8156 158.305 57.2187 158.345 56.3129C158.344 56.2147 158.256 53.8857 153.087 51.7012L152.957 51.6465L152.962 51.7849C153.072 52.6023 153.405 53.3736 153.925 54.0137L153.973 54.0953C154.108 54.3236 154.195 54.5765 154.23 54.8391C154.264 55.1017 154.246 55.3686 154.176 55.624C154.056 55.8652 153.882 56.0752 153.667 56.2373C153.452 56.3994 153.202 56.5091 152.937 56.5577C152.004 56.5987 151.105 56.9182 150.355 57.4748L150.252 57.5688L150.382 57.6235C151.861 58.2981 153.456 58.6814 155.079 58.7525C156.705 58.7525 157.331 58.1689 157.368 58.1317C157.476 57.9949 157.616 57.8869 157.776 57.8173C157.936 57.7478 158.111 57.7188 158.284 57.733Z" fill="black"/>
<path d="M165.082 59.79C165.094 59.6929 165.329 57.3742 160.51 54.4967L160.39 54.4233L160.375 54.5638C160.372 55.387 160.595 56.1952 161.021 56.9001L161.059 56.992C161.161 57.2364 161.212 57.4989 161.21 57.7637C161.208 58.0285 161.153 58.2901 161.048 58.533C160.896 58.7556 160.695 58.9397 160.459 59.0707C160.224 59.2016 159.962 59.2756 159.693 59.287L159.455 59.2828C158.604 59.2333 157.756 59.4259 157.009 59.8385L156.894 59.917L157.013 59.9893C159.571 61.4993 161.305 61.8164 162.309 61.8164C162.851 61.8552 163.393 61.7307 163.864 61.459C163.958 61.3628 164.071 61.2876 164.197 61.2383C164.322 61.189 164.456 61.1667 164.59 61.1729C165.115 61.2194 165.621 61.3924 166.065 61.677L166.082 61.6852L166.129 61.6098L166.164 61.5272C166.035 61.4425 164.915 60.6834 165.082 59.79Z" fill="black"/>
<path d="M179.77 76.2879L180.106 76.2197C180.898 76.2197 181.617 77.2598 181.697 77.3786L181.705 77.392L181.78 77.3414L181.844 77.2794C181.761 77.1503 181.04 76.0038 181.553 75.255C181.604 75.1703 182.754 73.1439 179.508 68.5643L179.427 68.4507L179.357 68.5725C179.02 69.3267 178.898 70.1591 179.004 70.978L179.002 71.0689C179.002 71.1361 178.966 72.7256 177.541 72.7256C177.299 72.7215 177.059 72.6857 176.827 72.6192C176.106 72.2478 175.31 72.0417 174.499 72.0161C174.382 72.0141 174.266 72.022 174.15 72.0398L174.013 72.0656L174.094 72.1793C176.769 75.9068 178.784 76.3106 179.528 76.3106L179.77 76.2879Z" fill="black"/>
<path d="M183.542 82.5339L183.766 82.505C184.609 82.505 185.23 83.7392 185.3 83.8797L185.308 83.8942L185.387 83.8559L185.461 83.8012C185.395 83.6638 184.843 82.4265 185.454 81.7572C185.516 81.6808 186.934 79.831 184.351 74.8486L184.287 74.7246L184.202 74.8362C183.766 75.5334 183.53 76.3375 183.521 77.16L183.506 77.2602C183.495 77.3201 183.27 78.7165 182.068 78.7165C181.746 78.7058 181.43 78.6303 181.138 78.4945C180.397 77.9464 179.517 77.6191 178.598 77.5505L178.426 77.5577L178.49 77.6806C180.97 82.4017 183.241 82.537 183.492 82.537L183.542 82.5339Z" fill="black"/>
<path d="M186.417 89.24L186.527 89.2338C187.434 89.2338 187.919 90.6457 187.975 90.8131L187.98 90.8316L188.065 90.8027L188.145 90.7614C188.101 90.6147 187.722 89.3134 188.42 88.735C188.492 88.6678 190.151 87.0308 188.282 81.7406L188.236 81.6084L188.136 81.7065C187.606 82.3381 187.261 83.1036 187.138 83.9189L187.112 84.0118C187.108 84.0242 186.727 85.2688 185.685 85.2688C185.296 85.2503 184.919 85.1253 184.596 84.9073C183.937 84.2457 183.095 83.7971 182.179 83.6194L182.038 83.6059L182.087 83.7381C183.982 89.018 186.304 89.2328 186.417 89.24Z" fill="black"/>
<path d="M187.128 91.7342C186.565 90.9889 185.793 90.428 184.911 90.123L184.775 90.092L184.802 90.2283C185.955 95.722 188.223 96.256 188.335 96.2777C189.318 96.2962 189.625 97.8651 189.657 98.05L189.661 98.0686L189.747 98.0521L189.832 98.0201C189.808 97.8693 189.613 96.5286 190.385 96.0515C190.464 95.9957 192.335 94.6034 191.213 89.1046L191.184 88.9683L191.072 89.0509C190.46 89.6035 190.013 90.3139 189.778 91.1042L189.74 91.1899C189.735 91.2023 189.246 92.2517 188.327 92.2517C187.879 92.2247 187.455 92.0416 187.128 91.7342Z" fill="black"/>
<path d="M144.061 53.4463C144.259 50.51 135.251 52.8525 135.251 52.8525C135.251 52.8525 143.87 56.2846 144.061 53.4463Z" fill="black"/>
<path d="M138.788 160.433L138.805 160.518V160.507L138.807 160.518L138.802 160.34L138.723 160.341C138.433 160.341 136.984 160.295 136.778 159.378C136.74 159.287 135.768 157.171 130.156 157.126H130.016L130.073 157.252C130.542 158.054 131.239 158.697 132.076 159.098C132.304 159.246 132.494 159.446 132.631 159.681C132.767 159.916 132.846 160.18 132.862 160.451C132.827 160.714 132.739 160.966 132.605 161.194C132.47 161.422 132.29 161.62 132.077 161.777L132.029 161.816C131.288 162.202 130.669 162.787 130.242 163.505L130.182 163.631L130.374 163.632C135.942 163.632 136.929 161.538 136.971 161.444C137.286 160.597 138.637 160.522 138.789 160.518L138.788 160.433Z" fill="black"/>
<path d="M146.204 159.714L146.19 159.629L146.219 159.711L146.218 159.703L146.222 159.711L146.191 159.535L146.173 159.537L146.188 159.594V159.621L146.173 159.536C145.972 159.567 145.769 159.582 145.566 159.582C144.998 159.582 144.279 159.46 144.054 158.859C144.017 158.798 143.118 157.382 139.474 157.382C138.708 157.386 137.942 157.44 137.182 157.543L137.045 157.562L137.119 157.679C137.695 158.407 138.474 158.947 139.358 159.23C139.605 159.345 139.82 159.517 139.988 159.731C140.155 159.945 140.27 160.195 140.323 160.462C140.325 160.726 140.273 160.988 140.171 161.233C140.069 161.477 139.919 161.698 139.73 161.883L139.655 161.955C138.988 162.436 138.467 163.092 138.151 163.851L138.109 163.985L138.247 163.966C143.809 163.204 144.501 160.979 144.529 160.879C144.723 160 146.045 159.74 146.202 159.713L146.204 159.714Z" fill="black"/>
<path d="M153.398 157.717L153.38 157.723C153.042 157.824 152.693 157.878 152.341 157.885C152.117 157.913 151.89 157.877 151.686 157.781C151.482 157.686 151.309 157.534 151.188 157.345C151.157 157.306 150.393 156.397 148.015 156.397C146.723 156.426 145.44 156.625 144.201 156.99L144.065 157.027L144.156 157.134C144.827 157.776 145.675 158.203 146.591 158.36C146.85 158.44 147.087 158.58 147.282 158.769C147.477 158.958 147.625 159.19 147.714 159.446C147.752 159.709 147.737 159.976 147.67 160.232C147.603 160.488 147.485 160.728 147.323 160.938L147.268 161.008C146.67 161.578 146.241 162.303 146.029 163.102L146.006 163.24L146.141 163.202C151.543 161.681 151.923 159.38 151.937 159.279C152.007 158.379 153.288 157.939 153.432 157.892L153.406 157.81L153.448 157.889L153.446 157.881L153.451 157.888L153.398 157.717Z" fill="black"/>
<path d="M160.286 154.922L160.27 154.93L160.301 154.98L160.308 155.006L160.27 154.93C159.856 155.124 159.408 155.235 158.951 155.257C158.779 155.27 158.607 155.24 158.449 155.171C158.291 155.101 158.153 154.994 158.046 154.859C157.404 154.413 156.625 154.208 155.846 154.282C154.193 154.358 152.572 154.763 151.077 155.474L150.948 155.53L151.053 155.623C151.805 156.166 152.703 156.473 153.631 156.503C153.899 156.546 154.153 156.653 154.372 156.813C154.592 156.973 154.771 157.182 154.895 157.424C154.968 157.678 154.99 157.944 154.959 158.207C154.928 158.47 154.844 158.724 154.713 158.953L154.684 159.011C154.162 159.664 153.833 160.448 153.732 161.277L153.728 161.418L153.857 161.361C158.997 159.109 159.056 156.777 159.055 156.675C159.001 155.775 160.209 155.162 160.348 155.095L160.311 155.016L160.362 155.089L160.357 155.081L160.363 155.089L160.286 154.922Z" fill="black"/>
<path d="M166.721 151.203L166.707 151.211L166.744 151.257L166.755 151.283L166.709 151.209C166.264 151.505 165.752 151.686 165.22 151.734C165.086 151.739 164.953 151.716 164.828 151.667C164.703 151.617 164.59 151.543 164.495 151.448C164.043 151.199 163.528 151.085 163.013 151.121C162.003 151.121 160.255 151.449 157.678 153.016L157.56 153.089L157.676 153.166C158.399 153.554 159.214 153.736 160.033 153.69L160.35 153.683C160.622 153.689 160.888 153.759 161.128 153.887C161.368 154.015 161.575 154.197 161.731 154.419C161.839 154.661 161.898 154.922 161.903 155.187C161.909 155.452 161.861 155.715 161.762 155.96L161.742 156.018C161.315 156.737 161.096 157.561 161.11 158.397L161.127 158.535L161.246 158.462C166.027 155.52 165.762 153.206 165.749 153.103C165.571 152.218 166.683 151.444 166.81 151.359L166.762 151.286L166.822 151.35L166.817 151.342L166.824 151.349L166.721 151.203Z" fill="black"/>
<path d="M172.581 146.633L172.567 146.644V146.645C172.128 147.043 171.579 147.299 170.992 147.381C170.781 147.384 170.575 147.314 170.409 147.183C170.113 147.064 169.796 147.009 169.477 147.023C168.406 147.023 166.563 147.484 163.874 149.68L163.768 149.769L163.893 149.829C164.375 150.02 164.892 150.108 165.411 150.086C165.814 150.085 166.217 150.046 166.613 149.969H166.664C166.927 149.943 167.192 149.979 167.439 150.074C167.686 150.169 167.907 150.321 168.085 150.516C168.223 150.74 168.316 150.989 168.357 151.249C168.398 151.509 168.387 151.775 168.324 152.03L168.311 152.091C167.988 152.862 167.885 153.708 168.015 154.534L168.05 154.669L168.159 154.581C172.488 151.007 171.906 148.75 171.878 148.651C171.58 147.8 172.573 146.88 172.686 146.777L172.629 146.714L172.697 146.769L172.691 146.762L172.699 146.768L172.581 146.633Z" fill="black"/>
<path d="M177.754 141.295L177.742 141.309C177.338 141.808 176.769 142.147 176.137 142.265C175.977 142.265 175.819 142.223 175.68 142.141C175.514 142.095 175.342 142.074 175.17 142.079C174.261 142.079 172.323 142.527 169.551 145.516L169.457 145.619L169.588 145.662C169.86 145.732 170.139 145.764 170.42 145.757C171.061 145.748 171.696 145.637 172.302 145.427C172.58 145.352 172.872 145.349 173.15 145.418C173.429 145.487 173.686 145.627 173.895 145.823C174.193 146.228 174.332 146.729 174.283 147.23L174.271 147.331C174.066 148.128 174.083 148.965 174.322 149.752L174.376 149.882L174.47 149.779C178.266 145.643 177.379 143.486 177.338 143.391C176.924 142.59 177.783 141.542 177.881 141.426L177.817 141.369L177.892 141.413L177.885 141.407L177.893 141.412L177.754 141.295Z" fill="black"/>
<path d="M182.141 135.293L182.133 135.307C182.051 135.431 181.341 136.486 180.547 136.486L180.204 136.418L180.005 136.403C179.424 136.403 177.321 136.706 174.6 140.606L174.521 140.722L174.658 140.745C174.76 140.76 174.863 140.767 174.967 140.765C175.787 140.737 176.59 140.523 177.314 140.137C177.557 140.06 177.81 140.019 178.064 140.014C179.465 140.014 179.521 141.584 179.523 141.651L179.525 141.731C179.428 142.555 179.561 143.39 179.91 144.143L179.982 144.265L180.061 144.149C183.247 139.528 182.071 137.517 182.017 137.43C181.498 136.694 182.198 135.542 182.283 135.406H182.284L182.211 135.36L182.292 135.393L182.283 135.388L182.295 135.392L182.141 135.293Z" fill="black"/>
<path d="M185.813 128.836L185.734 128.8L185.819 128.823L185.811 128.817L185.819 128.82L185.658 128.745L185.651 128.762C185.584 128.905 184.973 130.155 184.124 130.155L183.894 130.126H183.87C183.62 130.126 181.355 130.263 178.922 135.046L178.871 135.178H179.016C179.934 135.106 180.811 134.77 181.542 134.21C181.842 134.061 182.169 133.979 182.504 133.967C183.688 133.967 183.931 135.345 183.94 135.404L183.958 135.505C183.978 136.327 184.224 137.128 184.668 137.821L184.755 137.931L184.817 137.806C187.335 132.789 185.894 130.96 185.827 130.879C185.212 130.219 185.749 128.974 185.813 128.836Z" fill="black"/>
<path d="M188.339 122.15V122.149L188.257 122.123L188.344 122.135L188.336 122.133H188.344L188.175 122.082L188.169 122.098C188.116 122.264 187.638 123.69 186.725 123.69L186.609 123.683C186.511 123.691 184.192 123.923 182.329 129.217L182.283 129.35L182.422 129.336C183.332 129.153 184.167 128.701 184.819 128.04C185.145 127.812 185.529 127.681 185.926 127.661C186.961 127.661 187.349 128.896 187.353 128.908L187.374 128.964C187.5 129.791 187.852 130.567 188.392 131.206L188.493 131.304L188.538 131.172C190.371 125.866 188.7 124.243 188.625 124.171C187.93 123.6 188.292 122.306 188.339 122.15Z" fill="black"/>
<path d="M190.512 117.151C189.745 116.678 189.94 115.336 189.963 115.185L189.878 115.171L189.946 115.169L189.965 115.171L189.957 115.169H189.965L189.79 115.14L189.788 115.157H189.787C189.755 115.338 189.451 116.911 188.449 116.934C188.354 116.953 186.087 117.49 184.938 122.985L184.909 123.121L185.046 123.089C185.924 122.788 186.691 122.23 187.25 121.488C187.58 121.174 188.01 120.986 188.465 120.956C189.382 120.956 189.872 122.004 189.878 122.015L189.905 122.071C190.137 122.874 190.589 123.596 191.211 124.155L191.323 124.238L191.35 124.101C192.469 118.599 190.597 117.209 190.512 117.151Z" fill="black"/>
<path d="M121.334 158.202C121.334 158.202 129.419 162.813 129.994 159.926C130.549 157.137 121.334 158.202 121.334 158.202Z" fill="black"/>
<path d="M190.486 103.813C189.945 103.813 189.417 103.974 188.968 104.274C188.518 104.574 188.168 105.001 187.961 105.501C187.754 106 187.7 106.549 187.805 107.08C187.911 107.61 188.171 108.097 188.553 108.479C188.936 108.861 189.423 109.121 189.953 109.227C190.483 109.332 191.032 109.278 191.532 109.071C192.031 108.864 192.458 108.514 192.758 108.065C193.058 107.615 193.219 107.087 193.219 106.546C193.219 106.187 193.148 105.832 193.011 105.5C192.874 105.169 192.672 104.867 192.419 104.614C192.165 104.36 191.863 104.159 191.532 104.021C191.2 103.884 190.845 103.813 190.486 103.813Z" fill="black"/>
<path d="M167.805 68.8896C168.074 67.936 168.433 67.0105 168.879 66.1257C169.056 65.8397 169.175 65.5218 169.231 65.19L169.226 65.1476L169.19 65.1249L168.956 65.0825C167.558 65.0825 161.633 66.733 155.897 71.7877C153.112 74.2949 151.012 77.4702 149.794 81.014L149.64 81.3993C147.489 86.9027 145.804 92.5767 144.602 98.3616C144.343 97.1066 143.873 95.9045 143.212 94.8066C142.881 94.3536 142.449 93.9837 141.95 93.726C141.451 93.4683 140.899 93.3298 140.338 93.3214C140.1 93.3217 139.862 93.3421 139.626 93.3823C138.879 93.5458 138.187 93.9002 137.617 94.4108C137.048 94.9214 136.62 95.5709 136.376 96.2959L136.36 96.3403C135.86 97.5125 135.626 98.7802 135.672 100.053C135.69 100.97 135.926 101.869 136.36 102.677C137 103.819 137.945 104.76 139.089 105.396C140.234 106.031 141.533 106.336 142.841 106.275C143.227 106.275 143.614 106.255 143.998 106.215C145.242 106.057 146.429 105.599 147.456 104.881C150.083 103.126 152.207 100.871 154.458 98.4856C155.734 97.1346 157.052 95.7362 158.473 94.4389C160.011 92.981 161.691 91.6797 163.487 90.5544C164.933 89.6926 166.499 89.0511 168.134 88.6509L168.374 88.5187L168.324 88.2098L168.268 88.0694C167.657 86.3493 167.218 84.5727 166.958 82.7658C166.602 80.607 166.478 78.4162 166.589 76.231C166.764 73.7512 167.171 71.2934 167.805 68.8896Z" fill="#B79257"/>
<path d="M124.308 148.627C126.007 147.853 127.766 147.053 129.611 146.267C133.091 144.748 136.681 143.495 140.35 142.521C144.338 141.333 148.469 140.691 152.629 140.613H152.711C154.179 140.624 155.642 140.795 157.074 141.123C155.393 136.13 149.519 134.411 147.295 133.76C144.461 133.052 141.586 132.524 138.686 132.179L138.457 132.158L138.643 132.023C139.098 131.679 139.5 131.269 139.834 130.806L140.13 130.44L140.161 130.404L140.208 130.41C143.047 130.743 145.851 131.326 148.587 132.153C150.993 132.859 153.26 133.973 155.291 135.445C156.354 136.266 157.262 137.271 157.973 138.412C159.019 140.011 159.382 142.508 159.373 144.161V144.321L159.238 144.232C158.094 143.45 156.79 142.934 155.421 142.721C154.45 142.591 153.471 142.527 152.491 142.53C149.542 142.58 146.61 142.976 143.753 143.707C140.602 144.462 137.498 145.402 134.457 146.522C130.91 147.817 128.118 149.045 124.264 150.773C123.661 151.043 123.079 151.31 122.505 151.573C120.624 152.435 118.837 153.253 116.867 153.933C116.931 153.219 117.001 152.494 117.084 151.773C119.654 150.745 122.017 149.67 124.308 148.627Z" fill="#B79257"/>
<path d="M91.8216 159C86.7135 159.086 81.6447 158.094 76.9466 156.087L76.5944 155.94C73.1606 154.321 69.995 152.185 67.208 149.607C64.5146 146.871 62.1922 143.793 60.3004 140.452L60.2002 140.234L60.4171 140.338C62.4084 141.288 68.5445 142.567 72.1398 142.779C73.5073 142.859 74.5856 142.897 75.5358 142.897C76.7417 142.896 77.9467 142.83 79.1456 142.699C79.2261 142.792 79.3056 142.885 79.3872 142.979C79.8871 143.55 80.354 144.075 80.7991 144.565C79.5608 144.683 78.121 144.758 76.2381 144.802L75.9159 144.806C73.5713 144.806 66.9209 144.313 64.9595 143.821C68.716 148.69 72.0902 152.002 78.0012 154.459C80.1682 155.359 82.4285 156.016 84.7404 156.416C87.4225 156.842 90.1359 157.039 92.8513 157.004C93.3016 157.004 93.7705 156.999 94.2632 156.992C95.0698 157.612 95.8321 158.198 96.5179 158.756C94.9273 158.914 93.3523 159 91.8216 159Z" fill="#B79257"/>
<path d="M63.6471 116.513C63.2246 116.529 62.7616 116.538 62.2579 116.538C57.5837 116.473 52.9213 116.048 48.3125 115.266C44.0056 114.548 40.904 113.786 39.2979 113.056C39.4022 113.222 39.5282 113.426 39.6708 113.658C41.1333 116.034 44.5613 121.593 48.9973 125.259C52.888 128.474 57.7176 132.006 64.0602 133.821C67.1202 134.694 70.2675 135.226 73.4446 135.406C73.8887 136.036 74.338 136.662 74.8007 137.283C74.6644 137.284 74.527 137.288 74.3917 137.288C67.9152 137.354 61.5351 135.718 55.8905 132.541C53.706 131.365 51.6388 129.983 49.7172 128.414C47.9053 126.937 46.2 125.334 44.6139 123.617C40.9491 119.427 37.8018 114.811 35.2399 109.87L35.1211 109.647L35.3514 109.749C36.7456 110.329 38.1711 110.832 39.6212 111.254C43.0146 112.294 46.4812 113.079 49.9919 113.601C53.916 114.228 57.8834 114.543 61.8572 114.545C62.2248 114.545 62.6018 114.541 62.9799 114.537C63.1906 115.194 63.4147 115.853 63.6471 116.513Z" fill="#B79257"/>
<path d="M46.466 83.335L46.3255 83.3205C38.6822 82.4201 31.1296 80.8697 23.7497 78.6861C19.8693 77.5211 16.1852 76.2424 12.8027 74.8884L12.6725 74.8316C13.8701 77.4156 15.2375 79.9174 16.7657 82.3207C20.5635 88.4935 25.5418 93.8565 31.4154 98.1025C36.7874 101.764 42.8055 104.373 49.1503 105.791L49.1524 105.758H49.232L49.2712 105.763L49.5676 105.824C53.0001 106.508 56.4842 106.901 59.9827 106.999C60.3422 106.999 60.6851 106.992 61.0135 106.977C61.0579 107.214 61.1023 107.449 61.1457 107.669C61.2283 108.082 61.3203 108.504 61.4173 108.931C61.3626 108.932 61.3068 108.932 61.248 108.932C58.3776 108.862 55.513 108.64 52.6661 108.268C49.4075 107.813 43.1423 106.665 37.7777 104.069C28.6257 99.6435 21.3019 92.9992 15.3816 83.7584C12.9422 79.9105 10.8516 75.8521 9.13503 71.6318L9.04208 71.4036L9.02865 71.3984L9.02039 71.3592L8.91504 71.1567L9.11541 71.2476H9.15671L9.17014 71.2714C11.4744 72.298 13.7384 73.2317 15.9011 74.0487C18.4233 75.002 30.1874 78.9319 37.3088 80.065C44.1236 81.2232 51.0176 81.8544 57.9294 81.953C59.0077 81.953 60.0529 81.9292 61.0465 81.8848C60.9463 82.5035 60.8534 83.116 60.7687 83.7181C59.1762 83.8971 57.5747 83.984 55.9722 83.9784C52.7944 83.9293 49.6214 83.7146 46.466 83.335Z" fill="#B79257"/>
</svg>
