<svg width="200" height="200" viewBox="0 0 200 200" fill="none" xmlns="http://www.w3.org/2000/svg">
<path d="M137.099 31H0V35.3356C0 47.379 5.76698 58.0033 14.5029 64.2496H0V68.5878C0 80.6274 5.76698 91.2499 14.5029 97.498H0V101.837C0 113.876 5.76698 124.498 14.5029 130.746H0V135.087C0 154.265 14.6241 169.87 32.5997 169.87H63.6357L86.5319 131.162C92.9037 139.807 101.384 146.675 111.164 151.112C120.944 155.549 131.698 157.407 142.399 156.508C153.101 155.608 163.394 151.983 172.296 145.976C181.199 139.969 188.414 131.782 193.254 122.195C198.094 112.608 200.397 101.941 199.944 91.2115C199.491 80.4817 196.296 70.0469 190.665 60.9022C185.034 51.7575 177.154 44.2079 167.777 38.9733C158.4 33.7387 147.838 30.9937 137.099 31Z" fill="white"/>
<path d="M137.099 35.3364H5.58984C5.58984 52.1545 18.2435 65.7865 33.8528 65.7865H83.3919C83.7635 65.7865 84.1199 65.9341 84.3826 66.1968C84.6454 66.4596 84.793 66.816 84.793 67.1876C84.793 67.5592 84.6454 67.9156 84.3826 68.1783C84.1199 68.4411 83.7635 68.5887 83.3919 68.5887H5.58984C5.58984 85.4041 18.2435 99.0361 33.8528 99.0361H63.7244C64.0959 99.0361 64.4521 99.1836 64.7148 99.4463C64.9775 99.709 65.1251 100.065 65.1251 100.437C65.1251 100.808 64.9775 101.164 64.7148 101.427C64.4521 101.69 64.0959 101.837 63.7244 101.837H5.59014C5.59014 118.652 18.2435 132.284 33.8528 132.284H44.0572C44.4289 132.284 44.7854 132.432 45.0483 132.695C45.3111 132.958 45.4588 133.314 45.4588 133.686C45.4588 134.058 45.3111 134.414 45.0483 134.677C44.7854 134.94 44.4289 135.088 44.0572 135.088H5.59014C5.59014 151.9 18.2435 165.533 33.8528 165.533H61.1643L112.218 79.2165C115.76 73.211 121.355 68.689 127.971 66.4848C134.586 64.2805 141.775 64.5427 148.212 67.2228C154.649 69.903 159.9 74.8204 162.996 81.0681C166.092 87.3158 166.824 94.4722 165.058 101.218C163.292 107.963 159.146 113.842 153.386 117.771C147.625 121.699 140.638 123.413 133.714 122.594C126.789 121.776 120.394 118.481 115.708 113.318C111.022 108.154 108.361 101.471 108.216 94.4995L88.8969 127.165C94.6226 135.462 102.393 142.14 111.456 146.554C120.519 150.968 130.567 152.967 140.63 152.359C150.692 151.751 160.427 148.557 168.892 143.084C177.358 137.611 184.268 130.046 188.953 121.12C193.638 112.195 195.94 102.211 195.636 92.1348C195.332 82.0589 192.432 72.232 187.217 63.605C182.003 54.9781 174.649 47.8433 165.869 42.891C157.089 37.9387 147.179 35.3365 137.099 35.3364Z" fill="black"/>
<path d="M137.099 77.2822C133.812 77.2824 130.599 78.2573 127.866 80.0835C125.133 81.9098 123.003 84.5054 121.745 87.5421C120.488 90.5789 120.159 93.9204 120.8 97.1441C121.441 100.368 123.024 103.329 125.348 105.653C127.672 107.978 130.633 109.561 133.857 110.202C137.081 110.843 140.422 110.514 143.459 109.257C146.496 107.999 149.092 105.869 150.918 103.136C152.744 100.403 153.719 97.1904 153.72 93.9035C153.72 91.7207 153.29 89.5592 152.455 87.5425C151.62 85.5258 150.396 83.6934 148.852 82.1499C147.309 80.6064 145.477 79.3821 143.46 78.5469C141.443 77.7117 139.282 77.2819 137.099 77.2822Z" fill="#D24303"/>
</svg>
