<svg width="200" height="200" viewBox="0 0 200 200" fill="none" xmlns="http://www.w3.org/2000/svg">
<path d="M186.285 33.3582H173.417C172.834 31.7553 171.912 30.2968 170.714 29.0823C166.963 25.3308 161.92 24.7257 158.975 27.6704C158.368 28.2902 157.9 29.033 157.604 29.8488C156.608 29.1329 155.523 28.5497 154.377 28.1141C152.562 24.3223 150.02 18.9572 144.252 18.9572C142.397 18.9755 140.572 19.4316 138.927 20.2884C134.651 16.9403 125.494 10.6474 116.136 10.6474C105.849 10.6474 91.5693 20.0868 87.4143 20.0868C84.3486 20.0868 77.5313 5 66.9222 5C61.2344 5 55.4659 8.87254 48.568 13.0274C42.0331 16.9806 40.2985 21.7003 38.4026 26.7426C36.8646 29.185 35.0059 31.4101 32.8762 33.3582H0L56.0307 130.817H17.6684L5.44574 152.802H61.7185C63.8236 152.727 65.8821 152.161 67.729 151.148L93.1425 195.359L117.87 152.318H138.483V140.256H137.071C137.071 136.061 133.885 131.503 132.311 129.486L132.029 127.751L136.749 119.522L164.3 109.357C166.147 108.573 167.786 107.37 169.088 105.844C170.39 104.318 171.32 102.51 171.803 100.563C172.938 100.441 174.037 100.093 175.035 99.5389C176.033 98.9845 176.909 98.2353 177.612 97.3356C179.675 97.9232 181.801 98.2618 183.945 98.3441C188.1 98.3441 192.497 96.0045 193.626 91.5268C193.626 91.5268 198.023 88.8241 200 80.474L165.712 69.1388L186.285 33.3582Z" fill="white"/>
<path d="M159.58 75.5512L163.896 77.0034L163.856 79.7464C161.557 79.6658 159.701 79.222 159.701 85.9586C159.701 90.9606 160.669 92.5742 160.669 93.9861C160.669 96.366 160.468 96.9308 152.924 96.9308C151.409 95.5426 149.604 94.5091 147.64 93.9053C147.64 93.9053 147.559 93.5423 147.398 92.8566L179.266 37.4309H169.584C170.31 36.0594 169.625 33.7601 167.85 31.9852C165.792 29.9279 163.13 29.2825 161.879 30.533C161.591 30.8494 161.389 31.2338 161.29 31.6501C161.191 32.0664 161.2 32.5009 161.315 32.913L157.361 37.0679C157.442 36.4628 157.644 33.155 151.432 31.3802C149.576 27.6689 148.003 23.03 144.251 23.03C142.162 23.1837 140.173 23.9877 138.564 25.3293C138.564 25.3293 127.188 14.7202 116.135 14.7202C106.494 14.7202 93.263 24.1595 87.4139 24.1595C81.2017 24.1595 75.6753 9.07275 66.9621 9.07275C62.2425 9.07275 56.6757 12.8646 50.7056 16.5354C44.7354 20.1256 43.6059 24.6032 42.1537 28.2337C41.1856 30.6541 38.1198 33.8812 34.57 37.3906H7.01855L63.0089 134.728C62.5953 134.804 62.1778 134.858 61.7584 134.89H20.048L12.3433 148.726H61.7584C64.1493 148.598 66.4131 147.609 68.1319 145.942L68.9388 145.095L93.142 187.209L115.53 148.282H134.409V144.329H129.891L129.084 141.828H129.77L133.037 140.295C133.037 136.544 128.479 131.219 128.479 131.219L127.753 126.983L133.965 116.213L162.888 105.523C168.011 103.667 168.576 96.1643 168.576 96.1643C168.576 96.1643 173.295 98.383 175.877 92.6548C178.497 93.501 181.203 94.0556 183.945 94.3087C186.405 94.3087 189.875 92.9775 189.875 89.3067C192.152 87.8292 193.903 85.6687 194.877 83.1349L160.831 71.84L159.58 75.5512Z" fill="black"/>
<path d="M74.7884 115.326C73.0135 111.01 73.7799 110.042 73.7799 110.042C73.7799 110.042 68.0518 105.322 69.746 99.4728C69.746 99.4728 54.982 78.0529 54.982 65.3462C54.982 58.771 58.1284 59.4164 58.1284 54.011C58.1284 49.614 55.1434 46.3063 52.9651 46.3063C50.4641 46.3063 42.719 51.4293 31.4241 58.1255L35.7 48.2829L25.3732 58.8516C25.3732 58.8516 23.3563 48.5249 28.9231 42.9581C29.8105 42.0707 30.7383 41.1429 31.6661 40.2554H11.9404L65.7525 133.842C66.6832 133.435 67.5311 132.861 68.2535 132.147L76.765 123.595C75.6033 120.984 74.9332 118.181 74.7884 115.326ZM162.485 40.2554L161.719 41.1428C162.627 42.1493 163.271 43.3649 163.595 44.6812C163.919 45.9974 163.912 47.3734 163.574 48.6862C163.574 51.5906 162.041 51.5503 162.041 51.5503C162.041 58.2868 158.492 57.0767 158.492 57.0767C158.492 65.9512 148.73 62.3611 148.73 62.3611C147.343 62.1945 145.993 61.7992 144.736 61.1912L138.12 68.5733C141.47 75.1027 144.224 81.9206 146.35 88.9444L174.345 40.2554H162.485ZM114.764 143.846L115.934 141.829H114.038L114.764 143.846ZM139.573 49.7753L138.564 47.5163C133.36 48.4038 128.681 45.7414 127.35 45.0557C126.019 44.3699 127.471 41.4655 127.471 41.4655C127.168 40.9865 126.77 40.5747 126.301 40.2554H120.855C120.607 40.4279 120.398 40.6499 120.239 40.9074C120.081 41.1649 119.978 41.4524 119.936 41.7517C119.895 42.051 119.916 42.3557 119.997 42.6466C120.079 42.9375 120.22 43.2084 120.412 43.4421C125.819 49.1053 130.556 55.3722 134.53 62.119L140.581 55.7858L139.573 49.7753ZM125.172 125.774L129.488 118.271L124.688 120.61L125.172 125.774ZM116.378 111.817C116.378 111.211 107.503 108.872 104.034 107.541C100.847 108.791 104.962 109.396 104.962 113.551C104.864 115.378 104.469 117.176 103.792 118.876L102.017 119.36C102.017 119.36 98.4673 125.895 96.2084 124.927C92.9813 130.614 91.6501 131.905 86.5271 131.905C84.9719 131.918 83.4458 131.484 82.1302 130.655L70.9158 142.877L93.1425 181.482L112.223 148.283H98.5076C98.6015 145.961 99.3728 143.718 100.726 141.829C100.726 136.181 104.236 135.011 106.817 134.769C112.263 134.285 114.522 134.729 114.522 132.067C114.522 130.171 114.361 127.912 114.361 127.912H116.378C116.378 120.57 114.32 118.755 114.32 115.003C114.32 113.551 116.378 112.946 116.378 111.817Z" fill="#FCB514"/>
<path d="M106.536 144.331H108.391L109.198 141.83H105.124L106.536 144.331Z" fill="#FCB514"/>
<path d="M169.706 78.9019L168.335 80.9591L178.097 84.2266L178.056 81.6852L169.706 78.9019ZM184.268 83.7425L182.776 85.7595L186.568 87.01L186.043 84.3476L184.268 83.7425ZM119.242 141.831L117.79 144.331H123.72L124.446 141.83L119.242 141.831Z" fill="white"/>
<path d="M186.164 90.3178C186.325 91.0035 185.478 91.8103 184.268 92.0927C183.017 92.3751 181.928 92.0523 181.767 91.3666C181.605 90.7212 182.453 89.9144 183.663 89.632C184.873 89.3496 186.002 89.632 186.164 90.3178Z" fill="white"/>
<path d="M106.616 136.627C107.019 137.191 106.575 138.24 105.607 139.007C104.599 139.773 103.469 139.975 103.025 139.41C102.582 138.886 103.025 137.797 104.034 137.03C105.002 136.264 106.172 136.062 106.616 136.627Z" fill="white"/>
<path d="M147.923 28.8415L146.108 24.9689C145.947 24.6058 144.696 24.6462 144.696 25.4126C144.656 25.937 145.987 28.8415 147.923 28.8415ZM147.843 32.956L142.114 25.1706C141.726 25.1491 141.342 25.2616 141.026 25.4891C140.71 25.7167 140.482 26.0457 140.38 26.4211L146.592 33.0367C147.399 33.8838 147.843 32.956 147.843 32.956ZM146.027 35.8604L139.21 28.075C138.323 27.0665 136.749 29.0028 136.749 29.0028L144.414 36.5462C145.14 37.2319 146.39 36.2234 146.027 35.8604ZM143.607 38.0387C143.607 36.3445 136.306 30.7374 135.176 30.7374C134.006 30.7374 133.482 32.1492 133.482 32.1492L142.8 38.7648C143.083 38.9665 143.607 38.2404 143.607 38.0387ZM141.106 41.9112C141.63 42.1936 142.477 40.5397 141.953 40.1766C138.793 37.954 135.446 36.0105 131.949 34.3678C131.693 34.6794 131.506 35.0422 131.402 35.4318C131.298 35.8215 131.278 36.2289 131.344 36.6268L141.106 41.9112ZM139.533 44.8963C139.896 45.0577 140.904 43.9685 140.219 43.4844C137.21 41.7009 134.083 40.124 130.86 38.7648C129.73 39.8943 130.376 40.58 130.376 40.58L139.533 44.8963ZM137.395 45.9854C134.73 44.5815 131.95 43.4074 129.085 42.4759L128.843 43.2424C128.843 43.2424 130.86 46.3081 137.395 45.9854ZM159.016 41.5885L162.728 48.1234C162.521 45.5125 161.506 43.0308 159.823 41.0238C159.823 41.0238 159.016 40.9027 159.016 41.5885ZM162.203 50.342C162.203 47.7603 158.089 43.2424 158.089 43.2424L157.12 45.219L161.074 51.1891C161.074 51.1891 162.203 51.7539 162.203 50.342ZM154.983 48.9705C154.983 48.9705 156.798 54.2549 158.774 54.2549C158.939 53.0595 158.788 51.8418 158.335 50.7234C157.882 49.605 157.143 48.625 156.193 47.8814C155.895 47.891 155.61 48.0056 155.389 48.2049C155.167 48.4042 155.023 48.6754 154.983 48.9705ZM152.118 51.4312C152.118 51.4312 153.248 58.5712 156.435 58.5712C156.757 57.4821 155.467 51.4312 152.118 51.4312ZM153.288 62.2823C154.377 57.6837 149.658 52.9237 149.658 52.9237C146.35 52.6817 146.269 53.8515 146.269 53.8515C146.269 53.8515 148.609 62.2823 153.288 62.2823ZM141.751 54.6986C142.451 54.2654 143.271 54.0675 144.091 54.1339C143.163 51.2295 141.509 51.9153 141.509 51.9153C140.864 52.8834 141.751 54.6986 141.751 54.6986ZM158.815 39.4102C159.984 39.3238 161.108 38.9218 162.067 38.2469C163.026 37.5721 163.784 36.6497 164.26 35.578C164.26 34.9326 163.615 34.4888 162.405 34.4888C161.235 34.4888 158.048 37.8773 158.048 38.8454C158.048 39.0472 158.21 39.4102 158.815 39.4102ZM147.601 49.5352C147.685 49.8475 147.877 50.12 148.143 50.3045C148.408 50.489 148.731 50.5737 149.053 50.5437C151.473 50.5437 156.394 45.34 156.394 41.0641C156.394 40.217 155.104 40.1766 155.104 40.1766C150.626 43.0811 147.601 49.5352 147.601 49.5352ZM154.216 38.6034C157.12 37.1512 154.095 33.3997 152.038 34.5695C149.578 36.1137 147.47 38.1578 145.85 40.5692C144.231 42.9806 143.137 45.7055 142.639 48.5671C142.967 48.9689 143.405 49.2667 143.899 49.4243C144.393 49.5818 144.922 49.5924 145.422 49.4546C145.422 49.4546 149.98 40.6607 154.216 38.6034ZM93.1834 98.789C92.7102 100.869 92.9665 103.048 93.9095 104.961C94.4339 104.679 94.797 104.84 94.797 101.451C94.797 98.0628 93.1834 98.789 93.1834 98.789ZM88.5444 96.409C88.3849 98.8234 88.5203 101.248 88.9478 103.63C88.9478 103.63 90.642 104.315 91.2068 103.468C91.0858 102.541 91.0858 100.483 91.0858 99.2328C91.0858 96.1267 88.5444 96.409 88.5444 96.409ZM85.3173 95.3199C84.3895 97.3368 85.0349 100.282 85.0349 102.339C85.0349 104.477 86.4468 104.396 87.1325 104.033C86.3258 102.42 88.5041 96.8528 85.3173 95.3199ZM82.8969 100.645C82.8969 93.3433 80.3959 94.5938 80.3959 97.2158C80.396 100.161 82.0499 101.492 82.8969 100.645ZM79.6698 103.025C79.6698 102.42 78.7824 102.46 78.7824 97.9016C78.7824 94.2711 74.7082 95.6426 74.7082 97.5789C74.7082 99.4748 78.016 101.855 78.016 103.267C78.016 103.267 79.6698 103.912 79.6698 103.025ZM72.2072 99.0311C69.1011 103.347 74.1837 107.825 74.1837 107.825C75.23 107.915 76.2705 107.597 77.0881 106.937C77.0881 106.937 75.5149 101.048 72.2072 99.0311ZM91.5295 116.094C92.0135 127.107 90.2386 126.905 90.2386 128.599C90.2386 131.342 94.9179 127.833 94.9179 120.895C94.918 112.706 91.5295 116.094 91.5295 116.094ZM81.0817 112.06C83.7038 122.791 86.9309 129.083 88.2621 129.447C88.2621 129.447 89.1899 127.873 89.1899 118.595C89.1899 118.595 86.8906 108.833 81.0817 112.06ZM76.9268 116.094C77.8143 126.098 83.8248 130.374 83.8248 130.374L84.9946 129.729C82.4358 124.467 80.3175 119.003 78.6614 113.392L76.9268 116.094ZM101.776 112.464L101.534 114.804L103.107 115.046L103.55 113.714C103.107 113.472 102.703 112.222 101.776 112.464ZM98.7502 111.455C96.9753 111.455 97.6207 115.368 97.6207 116.659C97.6571 117.338 97.4884 118.013 97.1366 118.595C97.4997 119.281 97.4593 121.096 98.6292 121.096C99.3149 121.096 100.283 120.088 100.283 117.547C100.283 113.714 100.364 111.455 98.7502 111.455ZM95.039 109.398C93.9902 109.398 93.4254 110.649 93.4254 112.746C93.4254 113.432 94.2725 113.956 94.7969 113.956C95.1196 113.956 95.9264 113.19 95.9264 110.81C95.9265 110.084 95.644 109.398 95.039 109.398ZM92.4977 108.793C92.4977 107.059 90.9648 106.736 89.3109 106.736C88.7321 106.672 88.1504 106.827 87.6802 107.17C87.2099 107.514 86.8851 108.021 86.7696 108.591C86.8192 109.408 87.0943 110.195 87.5644 110.864C88.0344 111.533 88.6809 112.059 89.4319 112.383C90.2348 112.144 90.9515 111.678 91.4954 111.041C92.0394 110.404 92.3875 109.623 92.4977 108.793ZM84.5509 108.914C84.5509 108.914 85.2367 106.373 83.2601 106.373C79.2262 106.373 75.3537 109.721 75.3537 111.455C75.3647 112.025 75.4881 112.587 75.7167 113.109C75.7167 113.109 81.0011 108.067 84.5509 108.914ZM142.397 56.2719L96.0475 105.001C94.3532 106.736 98.7905 109.842 100.364 108.027L144.736 58.5309C144.914 58.3841 145.058 58.2015 145.16 57.995C145.263 57.7886 145.32 57.5629 145.329 57.3328C145.337 57.1026 145.298 56.8732 145.212 56.6596C145.126 56.4459 144.996 56.2527 144.83 56.0928C144.664 55.9328 144.467 55.8096 144.25 55.7313C144.034 55.6529 143.803 55.6211 143.573 55.6381C143.344 55.655 143.12 55.7202 142.917 55.8294C142.715 55.9386 142.537 56.0894 142.397 56.2719ZM51.473 26.3404C51.473 24.5655 53.974 22.7503 54.2967 21.9032C53.8584 21.301 53.2286 20.8654 52.5106 20.6675C51.7925 20.4697 51.0285 20.5213 50.3435 20.814C50.0208 25.816 48.73 28.196 48.1652 31.2617C50.0208 32.835 49.4158 28.9221 52.1185 28.9221C52.7051 29.0043 53.2456 29.2856 53.6496 29.7189C54.0535 30.1522 54.2962 30.7111 54.3371 31.3021C54.3544 31.7223 54.2885 32.1417 54.1431 32.5363C53.9977 32.9309 53.7758 33.2929 53.49 33.6014L55.3859 33.44C55.9469 32.7619 56.2346 31.8988 56.1928 31.0197C56.2331 27.3892 51.4328 27.3085 51.4328 26.3404L51.473 26.3404ZM28.8833 45.2594C26.9067 47.5183 26.6243 54.0532 26.6243 54.0532L43.0422 39.975L36.467 52.0363C36.467 52.0363 47.5601 46.9939 48.5686 44.4929C46.7697 40.5493 44.2838 36.9569 41.2269 33.8838C41.2269 33.8838 30.9405 43.0004 28.8833 45.2594ZM106.899 103.468C116.58 107.623 125.576 109.842 130.255 109.842C134.611 109.842 140.541 108.632 140.541 99.2328C140.541 93.0609 137.193 84.3477 131.828 75.5942L106.899 103.468ZM98.8712 99.6362L127.673 69.3417C117.145 54.7391 101.776 41.5482 87.899 41.5482C75.5553 41.5482 67.2052 50.6648 67.2052 60.3058C67.2052 77.6515 82.776 91.1247 98.8712 99.6362ZM165.148 79.9508L167.004 80.5559L169.182 77.3288L179.347 80.7172L179.468 84.6704L181.485 85.3159L183.744 82.1694L187.173 83.2989L188.02 87.4942L189.432 87.9782C190.957 86.9133 192.225 85.5214 193.143 83.904L161.638 73.4966L161.235 74.7068L165.229 76.0379L165.188 79.9508L165.148 79.9508ZM125.818 141.831L124.728 145.663H114.039L112.627 141.831H110.61L109.359 145.663H105.769L103.591 141.831H102.421C101.177 143.305 100.317 145.066 99.92 146.954H133.079V145.663H128.883L127.673 141.831H125.818ZM15.2891 147.034H21.9853L27.794 136.627H21.0575L15.2891 147.034ZM69.5045 133.4C67.3674 135.329 64.634 136.468 61.7594 136.627H61.5173L56.7978 147.034H61.7191C63.6415 146.916 65.4584 146.115 66.8421 144.775L80.5977 129.81L77.4513 125.372L69.5045 133.4Z" fill="white"/>
</svg>
