<svg width="200" height="200" viewBox="0 0 200 200" fill="none" xmlns="http://www.w3.org/2000/svg">
<g clip-path="url(#clip0_106_6049)">
<path d="M187.697 81.2279L184.994 86.0685L185.438 88.8519C178.217 102.93 170.391 116 167.568 120.599C166.478 118.138 165.067 116.686 162.283 115.193C162.283 115.193 175.03 92.0387 178.499 73.6845C168.818 78.4848 158.733 83.2045 158.733 83.2045L175.998 55.2093C175.998 55.2093 142.759 62.5107 116.458 65.1327C88.1404 23.3417 62.3638 16 62.3638 16C62.3638 16 80.2339 45.2053 83.5418 65.6571C61.4661 63.5626 39.5452 60.073 17.9104 55.2093L49.3747 106.157C30.9802 107.246 0 108.215 0 108.215C7.86608 116.121 33.2795 126.125 66.8818 134.435L72.8923 144.156C53.1262 159.041 41.1859 179.574 41.1859 179.574L43.2029 183.245C43.2029 183.245 53.0052 182.64 65.0262 182.196C65.0262 182.196 68.2936 171.627 81.7668 158.557L96.9745 183.124L116.014 152.305L118.072 152.063L119.242 152.749C118.874 153.28 118.537 153.832 118.233 154.403C119.806 155.492 119.887 155.653 119.968 157.589C121.504 158.02 123.135 157.978 124.647 157.468L125.373 156.177L126.261 156.581C126.382 157.468 126.624 158.517 126.624 158.517C127.342 158.838 128.131 158.969 128.915 158.898C129.699 158.828 130.451 158.558 131.101 158.114C137.556 159.445 141.952 158.719 143.405 158.356C149.778 160.09 153.933 158.92 155.627 158.154C158.572 159.364 161.638 160.171 170.069 160.171C173.981 160.171 178.136 159.929 178.136 157.025C178.136 152.91 174.223 137.944 170.27 129.675C171.955 130.829 173.824 131.688 175.797 132.216L179.427 129.594C177.773 127.658 178.096 127.133 178.298 125.601C177.403 124.908 176.349 124.451 175.232 124.269C178.741 120.195 186.123 110.756 194.958 93.8136C196.813 93.5313 199.193 92.4421 199.476 89.4974C199.805 86.9826 199.98 84.4499 200 81.9137C194.393 79.3723 187.697 81.2279 187.697 81.2279Z" fill="white"/>
<path d="M165.833 62.3895L149.859 87.8837C151.593 87.0769 153.449 86.2298 155.264 85.423L172.287 57.8716C172.287 57.8716 143.364 64.2048 116.982 66.8671C117.587 67.8353 118.193 68.8437 118.838 69.8119C136.95 67.9159 155.829 64.4064 165.833 62.3895Z" fill="black"/>
<path d="M168.375 129.755C166.156 120.598 165.833 118.944 160.912 116.484L160.146 115.435C169.101 99.3801 175.595 80.1788 175.595 77.9198C175.595 77.3551 175.353 77.1937 174.99 77.355C160.71 84.5757 145.059 91.0299 141.59 93.4502L140.662 94.7411C135.315 89.9472 129.699 85.4623 123.841 81.3083C107.907 50.0053 83.4616 27.9803 67.6891 20.1143C67.6891 23.3817 83.2599 47.4236 85.6802 67.5931C57.443 65.6568 21.6221 57.8714 21.6221 57.8714L52.4814 107.73C27.1486 109.303 4.92188 109.828 4.92188 109.828C4.92188 111.562 33.1994 125.076 74.9501 134.556C84.0667 136.613 90.8839 136.29 95.3212 136.29C94.4741 135.362 93.6673 134.475 92.8202 133.587C98.871 137.299 104.397 140.969 109.359 144.277C108.109 144.277 106.737 144.318 105.245 144.318C95.2405 144.318 87.6568 143.793 82.8565 143.43L78.4596 136.492C77.3704 136.29 76.2813 136.088 75.1921 135.846C74.7484 135.766 74.345 135.685 73.9013 135.604C72.0054 135.161 70.1901 134.717 68.9396 134.435L75.2728 144.64C69.343 148.876 54.216 161.704 43.2438 179.614L44.2119 181.389C44.2119 181.389 54.8211 180.743 63.7359 180.461C63.7359 180.461 67.7698 169.005 82.1304 155.774L96.9348 179.735L114.926 150.651C116.096 150.53 117.266 150.409 118.476 150.247C119.726 151.014 120.896 151.78 122.066 152.426C121.423 152.786 120.893 153.316 120.533 153.959C120.857 154.207 121.122 154.524 121.31 154.886C121.498 155.249 121.605 155.648 121.622 156.056C122.229 156.145 122.848 156.104 123.437 155.935C123.874 155.263 124.265 154.562 124.607 153.837C125.696 154.406 126.814 154.917 127.955 155.37C127.952 155.952 128.006 156.533 128.117 157.105C128.117 157.105 129.246 157.468 130.658 156.258C138.605 158.073 143.365 156.5 143.365 156.5C151.473 158.92 155.587 156.218 155.587 156.218C158.734 157.629 161.396 158.396 170.069 158.396C174.789 158.396 176.322 157.831 176.322 157.024C176.362 153.232 172.368 137.742 168.375 129.755Z" fill="black"/>
<path d="M188.867 82.7604L186.85 86.3909L187.293 89.1339C178.177 107.044 168.052 123.261 168.052 123.261L169.302 126.326L170.754 125.277L171.803 125.358C171.803 125.358 181.485 116.08 193.869 92.119C193.869 92.119 197.459 92.24 197.741 89.3356C198.024 86.3909 198.225 84.3739 198.225 83.1637C193.748 81.5502 188.867 82.7604 188.867 82.7604ZM170.714 126.931L170.996 128.021C172.393 128.961 173.896 129.733 175.474 130.32L176.967 129.231C176.411 128.432 176.194 127.446 176.362 126.488C174.385 125.237 170.714 126.931 170.714 126.931Z" fill="black"/>
<path d="M134.449 153.677C135.762 152.905 137.028 152.056 138.241 151.135C130.98 151.458 128.277 150.571 128.277 150.571C129.568 149.28 131.182 148.15 132.19 147.142C131.424 147.263 130.617 147.343 129.85 147.424C129.85 147.747 129.447 148.15 128.358 148.836C126.179 149.159 124.042 149.481 121.944 149.764C122.539 150.433 123.186 151.053 123.88 151.619C124.364 151.458 124.889 151.297 125.453 151.135C125.427 151.63 125.332 152.119 125.171 152.587C126.084 153.208 127.057 153.735 128.075 154.161C128.172 153.401 128.434 152.671 128.842 152.023C129.205 152.144 129.407 153.192 129.608 153.515C130.133 154.282 130.859 154.403 130.98 155.048C134.046 155.774 137.878 155.936 142.96 155.29L144.372 154.161C136.95 154.322 134.449 153.677 134.449 153.677ZM122.388 142.785C119.161 143.834 117.749 143.108 117.749 143.108C118.217 142.549 118.573 141.905 118.798 141.212C115.933 142.019 115.046 141.212 115.046 141.212C115.443 140.821 115.759 140.355 115.974 139.84C114.02 139.791 112.067 139.994 110.165 140.445C112.796 140.761 115.228 142.006 117.023 143.955C118.7 143.867 120.37 143.679 122.025 143.39L122.388 142.785Z" fill="white"/>
<path d="M51.9971 169.53L48.4473 174.088C48.4473 174.088 58.9354 172.474 65.2686 173.402L67.0032 170.417C63.5743 168.642 51.9971 169.53 51.9971 169.53ZM116.095 140.889C117.248 140.93 118.398 140.752 119.484 140.365C119.521 141.193 119.264 142.007 118.758 142.664C120.351 142.581 121.933 142.338 123.477 141.938C123.477 141.938 123.195 142.583 122.832 143.269C123.309 143.162 123.796 143.108 124.284 143.108C125.293 143.108 125.414 143.309 126.301 143.309C127.995 143.309 128.197 143.673 128.439 145.649C128.759 146.052 129.11 146.43 129.488 146.779C130.738 146.658 132.15 146.537 133.603 146.335C132.462 147.823 131.102 149.129 129.569 150.207C129.569 150.207 136.305 150.853 139.815 150.409C138.812 151.596 137.594 152.581 136.225 153.313C136.225 153.313 140.864 153.596 145.906 153.515C145.282 154.183 144.622 154.816 143.929 155.411C143.929 155.411 150.101 156.783 154.498 155.734C138.605 149.441 129.891 139.84 116.58 139.84C116.46 140.208 116.297 140.56 116.095 140.889Z" fill="white"/>
<path d="M65.551 154.443L60.5489 159.405C60.5489 159.405 69.7462 158.155 75.8374 158.961L78.2174 156.299C75.9584 154.363 65.551 154.443 65.551 154.443ZM59.9035 160.131L56.1116 164.447C56.1116 164.447 66.6401 163.358 70.9563 164.568L75.3129 159.526C70.916 158.8 59.9035 160.131 59.9035 160.131ZM55.5066 165.173L54.2561 166.706C54.2561 166.706 67.2452 164.689 70.3109 165.416L70.553 165.093C67.3258 164.044 55.5066 165.173 55.5066 165.173ZM53.651 167.473L52.5215 168.844C52.5215 168.844 63.3726 168.038 67.3258 169.853L69.9075 165.98C66.398 165.415 53.651 167.473 53.651 167.473Z" fill="white"/>
<path d="M66.4784 153.597L66.2363 153.798C66.2363 153.798 75.2319 153.677 78.6607 155.815L79.1851 155.291C76.4017 153.718 66.4784 153.597 66.4784 153.597Z" fill="white"/>
<path d="M79.9112 155.451L80.0725 156.863L83.34 153.676L83.2996 152.022L79.9112 155.451ZM78.7414 156.702L79.0641 157.912L79.5481 157.428L79.3464 156.016L78.7414 156.702ZM75.9176 159.808L76.079 161.099L78.5397 158.436L78.2573 157.226L75.9176 159.808ZM71.2383 165.253L71.44 166.302L75.5143 161.663L75.3529 160.413L71.198 165.253L71.2383 165.253ZM70.5122 166.181L70.6736 167.23L70.9157 166.907L70.714 165.899L70.5122 166.181ZM67.6482 170.538L67.7692 171.385L70.1895 167.875L70.0282 166.907L67.6482 170.538ZM65.7119 173.805L65.8329 174.733L67.2851 172.192L67.1238 171.345L65.7119 173.805ZM71.4804 149.279L67.1641 152.99C67.1641 152.99 77.1681 153.152 79.6288 154.806L83.2996 151.175C80.0725 149.32 71.4804 149.279 71.4804 149.279Z" fill="white"/>
<path d="M189.472 84.2942L188.221 86.3112C190.554 85.9249 192.927 85.8435 195.281 86.0691L196.733 84.0118C194.33 83.4652 191.825 83.5626 189.472 84.2942ZM188.826 88.4895C182.816 99.3406 176.241 113.661 169.101 122.535L171.158 121.245L171.602 120.761L171.239 122.011L172.086 121.567L170.795 123.907L172.005 122.898C172.005 122.898 178.137 116.041 193.667 88.0054C190.198 87.481 188.826 88.4895 188.826 88.4895ZM64.9458 173.967C59.3387 172.919 47.8421 174.815 47.8421 174.815L44.7764 179.292L62.7675 178.445L64.9458 173.967ZM83.8243 150.732L85.3169 149.885C85.3169 149.885 91.5291 150.894 128.6 147.061C127.713 146.416 127.269 146.537 127.269 145.085C127.269 144.601 127.35 144.52 126.543 144.52C125.736 144.52 125.414 144.278 124.446 144.278C123.235 144.278 121.501 145.488 103.308 145.488C88.8667 145.488 78.7417 144.278 78.0559 144.278C77.4105 144.278 76.0793 145.529 72.2068 148.635C72.2068 148.635 79.8308 148.554 83.8243 150.732ZM124.809 127.457C125.454 132.66 126.705 134.879 126.705 134.879C128.469 136.151 130.395 137.182 132.433 137.945C128.641 130.966 124.809 127.457 124.809 127.457ZM128.6 156.46C129.184 156.362 129.722 156.079 130.133 155.654C129.669 154.935 129.264 154.179 128.923 153.395C128.581 154.378 128.471 155.427 128.6 156.46ZM122.267 155.331C123.518 153.677 124.325 152.628 124.526 151.983C123.437 152.427 122.066 152.709 121.299 153.838C121.716 154.268 122.045 154.775 122.267 155.331Z" fill="#EA7200"/>
<path d="M78.4593 136.493C77.3702 136.291 76.281 136.089 75.1919 135.847C74.7885 135.766 74.3448 135.645 73.9414 135.565L78.6611 143.108C78.9838 143.148 79.3468 143.148 79.7502 143.189C80.5973 143.229 81.6461 143.35 82.816 143.431L78.4593 136.493ZM148.286 88.6104C148.81 88.4087 149.335 88.1263 149.859 87.8843L165.833 62.3901C155.829 64.4071 136.951 67.9166 118.839 69.8125C118.989 70.1219 119.165 70.4187 119.363 70.6999L120.573 72.7572C134.571 71.184 148.931 68.7637 159.419 66.7871L144.494 90.466C145.624 89.9012 146.914 89.2558 148.286 88.6104ZM109.117 151.216C108.028 151.337 107.019 151.418 106.011 151.499C100.162 151.983 94.3125 152.265 88.5037 152.386C86.8498 152.426 85.9624 152.426 85.9624 152.426C85.8414 152.467 85.801 152.547 85.68 152.628C85.438 152.83 85.2363 153.031 84.9943 153.274L96.9749 172.394L110.287 151.136C109.896 151.142 109.505 151.169 109.117 151.216ZM175.716 126.892C174.466 126.206 172.005 127.174 172.005 127.174C173.324 127.497 174.619 127.915 175.878 128.425C175.71 127.932 175.655 127.409 175.716 126.892ZM170.351 122.737C169.895 123.047 169.391 123.278 168.859 123.423L169.625 125.036L170.109 124.673L169.907 124.109L170.674 122.616L170.351 122.737Z" fill="#EA7200"/>
<path d="M91.2066 99.9855C91.2066 99.9855 76.0391 87.3998 57.2009 84.2534C56.5152 84.2534 55.1436 87.1174 55.1436 87.1174C55.1436 87.1174 57.1606 85.3022 57.7657 85.3022C73.8609 88.4083 91.2066 99.9855 91.2066 99.9855ZM100.081 113.58C99.3296 118.527 99.5765 123.574 100.807 128.424C100.404 124.673 101.695 115.919 101.695 115.919L100.081 113.58ZM103.994 117.049C103.239 121.676 103.417 126.408 104.518 130.966C104.155 128.102 105.608 119.752 105.608 119.752L103.994 117.049ZM107.947 120.921C107.192 124.935 107.206 129.055 107.988 133.063C107.786 130.804 109.561 123.261 109.561 123.261L107.947 120.921ZM61.6382 107.125C61.6382 107.125 64.7443 108.981 69.7867 112.773C68.5362 110.595 65.2687 108.255 61.6786 106.117L53.8125 106.682L54.4176 107.61C56.7975 107.448 59.2179 107.327 61.6382 107.125ZM159.702 117.251C159.702 117.251 147.883 100.712 125.212 84.0113C127.148 87.9645 128.923 92.1194 130.537 96.355C130.779 96.9601 130.739 97.4845 130.255 97.4845C125.253 97.4845 107.705 87.8032 90.4804 89.5377C99.4357 98.0896 108.351 110.03 99.718 105.673C99.718 105.673 108.714 111.2 119.282 122.374C127.189 122.374 128.762 123.705 129.206 124.794C130.093 126.932 131.424 130.724 136.588 136.815C138.968 136.815 139.371 136.654 140.259 134.516C140.259 134.516 140.904 137.218 139.694 139.235C150.464 147.747 171.36 156.258 174.547 156.258C175.837 156.258 173.175 144.6 167.124 130.522C165.148 121.647 164.058 119.146 159.702 117.251ZM86.0028 72.5551C86.0095 71.437 85.9556 70.3193 85.8415 69.207C76.1198 70.2154 70.3514 72.5148 68.1328 73.5636C71.5212 72.5954 77.572 72.3131 86.0028 72.5551ZM159.42 66.7866L144.494 90.4655C145.624 89.9008 146.914 89.2554 148.286 88.61L163.857 63.7612C154.014 65.6975 136.386 68.8843 119.363 70.6995L120.573 72.7568C134.571 71.2239 148.931 68.7633 159.42 66.7866ZM79.7907 143.188C80.6378 143.229 81.6463 143.35 82.8564 143.43L78.4595 136.492C77.3703 136.331 76.2812 136.089 75.192 135.847L79.7907 143.188ZM106.011 151.498C98.0641 152.144 91.7713 152.305 88.5038 152.386C86.8499 152.426 85.9222 152.426 85.9222 152.426C85.8415 152.466 85.8011 152.547 85.6801 152.628L96.975 170.659L109.117 151.216C108.068 151.337 107.019 151.418 106.011 151.498Z" fill="#006D75"/>
<path d="M96.9751 165.818L106.011 151.498C98.0642 152.143 91.7713 152.305 88.5039 152.386L96.9751 165.818Z" fill="white"/>
</g>
<defs>
<clipPath id="clip0_106_6049">
<rect width="200" height="200" fill="white"/>
</clipPath>
</defs>
</svg>
