<svg width="200" height="200" viewBox="0 0 200 200" fill="none" xmlns="http://www.w3.org/2000/svg">
<path d="M20 162.834C58.9363 166.24 83.714 177.222 95.7135 200C136.906 193.328 175.002 166.913 175.002 132.853C175.002 87.4917 120.031 80.3593 118.571 67.1386C141.685 75.5188 167.135 66.705 179.285 37.8567C143.375 35.202 117.084 22.1052 105.713 0C61.6707 7.81381 26.4333 36.3701 26.4333 67.1209C26.4333 112.101 84.2449 124.012 90.7137 133.552C59.1664 121.588 31.9552 135.215 20 162.834Z" fill="#001425"/>
<path d="M88.3601 64.7951C83.4311 59.7865 81.3781 55.8397 81.3781 50.6895C81.3781 44.7606 84.2276 41.8403 84.2276 38.5485C84.2276 35.699 82.4577 33.4602 79.0066 32.7788C79.9382 31.7347 81.0698 30.8882 82.3344 30.2893C83.5991 29.6904 84.971 29.3514 86.3691 29.2922C101.068 29.2922 105.412 61.7864 136.084 60.6183C147.012 59.5741 157.322 54.2646 163.844 44.9376C137.057 41.4333 112.607 30.0533 100.652 10.709C88.2628 12.9655 36.2828 30.9028 37.6013 68.3878C38.9641 107.475 96.7757 118.341 112.952 135.128C125.704 148.402 116.722 161.676 108.527 166.552C95.8288 133.535 54.105 131.155 37.4951 155.048C64.2461 158.49 88.7052 169.879 100.652 189.223C130.199 183.029 144.455 157.118 139.03 138.429C130.049 107.457 71.7768 102.059 56.2819 73.0867C48.0168 56.7866 54.8129 39.3891 69.9273 29.2922C64.335 36.3067 61.2872 45.0105 61.2817 53.9814C62.6267 55.4415 63.1931 58.875 63.2108 58.9369C63.4055 60.1316 63.7594 62.6624 63.1312 64.2464C63.7966 65.9874 64.6418 67.6541 65.6532 69.2197C67.6708 69.7241 69.9539 72.3611 69.9893 72.4231C72.2192 74.9805 72.5644 76.591 72.644 77.2016C74.0156 78.4316 75.4934 79.6174 77.0686 80.7413C78.3694 80.5908 80.3605 81.2191 82.3781 82.5111C84.6966 84.0243 85.8558 85.5375 86.1832 86.6614C87.8026 87.6082 89.4574 88.5285 91.1565 89.44C92.4573 89.086 94.5988 89.4931 96.7403 90.5992C98.8818 91.7054 100.475 93.254 100.944 94.4752L106.085 97.0326C107.377 96.6521 109.536 97.0326 111.704 98.1299C113.872 99.2272 115.377 100.705 115.872 101.962C117.642 102.846 119.412 103.793 121.084 104.731C122.677 104.404 125.217 105.377 126.606 106.2C128.317 107.096 129.678 108.538 130.473 110.297C132.243 111.421 133.88 112.581 135.491 113.775C136.845 113.713 138.845 114.492 140.703 116.076C142.712 117.846 143.747 119.748 143.791 121.085C145.165 122.544 146.436 124.096 147.596 125.73C149.242 126.137 150.897 128.04 151.817 129.951C153.092 132.739 152.932 134.695 152.552 135.712C154.773 142.623 155.366 151.34 151.8 161.375C151.8 161.472 151.72 161.596 151.667 161.729C159.127 153.596 164.171 143.597 163.746 131.589C162.339 92.4487 104.536 81.582 88.3601 64.7951Z" fill="#96D8D8"/>
<path d="M110.545 68.8922C103.944 61.2996 99.7225 47.8223 92.4396 42.5659C89.1743 54.1672 95.9704 66.848 110.545 68.8922Z" fill="#C8102E"/>
<path d="M105.315 177.905C104.023 181.781 102.465 185.562 100.652 189.223C88.7054 169.87 64.2463 158.49 37.4688 155.012C65.1312 141.137 93.8025 155.738 105.315 177.905ZM163.844 44.9022C136.163 58.7777 107.51 44.1765 95.9971 22.0005C97.2835 18.1328 98.8389 14.3597 100.652 10.709C88.9532 12.8151 36.2741 30.5577 37.6015 68.3701C38.9643 107.457 96.7759 118.324 112.952 135.111C125.704 148.384 116.722 161.658 108.528 166.534C107.674 170.377 106.611 174.17 105.342 177.896C111.359 176.843 129.615 167.18 129.739 148.579C129.898 122.916 96.767 116.156 71.6619 100.599C50.9726 87.7941 46.9551 75.0955 45.9109 67.0516C43.4419 48.141 56.7953 30.8585 76.2015 22.7173C73.864 24.6601 71.7587 26.8664 69.9275 29.2922C64.3364 36.3108 61.2888 45.0169 61.2819 53.9903C62.6269 55.4504 63.1933 58.875 63.211 58.9458C63.4057 60.1404 63.7596 62.6713 63.1313 64.2553C63.8052 65.9559 64.6503 67.5837 65.6533 69.1135C67.671 69.6267 69.954 72.2638 69.9894 72.3169C72.2194 74.8743 72.5645 76.4937 72.6442 77.1043C74.0158 78.3343 75.4936 79.5112 77.0688 80.6439C78.3696 80.4935 80.3607 81.1306 82.3783 82.4138C84.6967 83.9358 85.856 85.4402 86.1834 86.564C87.7999 87.5079 89.4576 88.4342 91.1566 89.3427C92.4575 88.9887 94.599 89.3958 96.7405 90.5019C98.882 91.6081 100.475 93.1567 100.944 94.3867L106.085 96.9353C107.377 96.5636 109.536 96.9353 111.704 98.0414C113.872 99.1475 115.377 100.608 115.872 101.864C117.642 102.779 119.38 103.702 121.085 104.634C122.677 104.307 125.217 105.28 126.606 106.112C128.318 107.005 129.68 108.448 130.473 110.209C132.243 111.333 133.88 112.492 135.491 113.687C136.845 113.625 138.845 114.404 140.703 115.988C142.712 117.757 143.747 119.66 143.791 120.987C145.163 122.448 146.434 124 147.597 125.633C149.243 126.049 150.897 127.952 151.818 129.854C153.092 132.642 152.933 134.597 152.552 135.615C154.773 142.535 155.366 151.251 151.8 161.278C161.339 145.119 160.419 129.067 149.765 115.51C127.482 87.1923 71.4318 83.7765 71.6442 51.2824C71.7363 44.3996 74.375 37.7949 79.051 32.7434C79.9792 31.7094 81.1048 30.8715 82.3616 30.2788C83.6184 29.6861 84.981 29.3507 86.3692 29.2922C101.068 29.2922 105.413 61.7864 136.084 60.6183C147.03 59.5652 157.366 54.2557 163.853 44.9376L163.844 44.9022Z" fill="#639FB6"/>
</svg>
