<svg width="200" height="200" viewBox="0 0 200 200" fill="none" xmlns="http://www.w3.org/2000/svg">
<path d="M200 20H34.7317C45.6636 37.0633 49.3344 42.7108 40.0161 42.4284L26.2606 20H0L59.7015 117.58C58.8947 117.539 58.0879 117.499 57.2812 117.499C32.7955 117.499 13.6345 131.174 13.6345 148.681C13.6345 166.188 32.7955 179.863 57.2812 179.863C81.7668 179.863 100.928 166.188 100.928 148.681C100.919 144.191 99.6617 139.791 97.2973 135.974L83.9048 114.111C83.9048 114.111 94.6753 116.289 102.743 112.537L98.8705 107.535C98.8705 107.535 115.288 109.068 130.415 104.55L125.292 99.1045C132.89 98.4767 140.275 96.2815 146.982 92.6574C153.688 89.0332 159.571 84.0587 164.26 78.0476H162.687C162.687 78.0476 174.587 72.3195 179.589 59.6127H178.015C178.015 59.6127 185.639 53.9653 188.221 42.3074H186.002C186.002 42.3074 198.104 33.7555 200 20Z" fill="#002654"/>
<path d="M195.926 22.8638H40.0968C52.8439 42.2264 49.0924 45.3325 38.4026 45.3325L24.6471 22.8638H5.12305L65.1069 120.887C62.512 120.548 59.8982 120.373 57.2812 120.363C34.409 120.363 16.4986 132.787 16.4986 148.681C16.4986 164.534 34.409 176.998 57.2812 176.998C80.1533 176.998 98.0638 164.534 98.0638 148.681C98.0492 144.71 96.9168 140.824 94.7963 137.466L77.8137 109.754C77.8137 109.754 89.6329 113.626 97.9024 111.044L92.6987 104.308C92.6987 104.308 112.223 105.921 125.252 103.299L119.04 96.6839C119.04 96.6839 148.124 96.4015 158.935 78.4507H153.973C153.973 78.4507 167.689 76.5548 174.587 61.7504H169.544C169.544 61.7504 181.323 56.3047 184.51 43.961H179.024C179.024 43.961 191.287 35.8529 195.926 22.8638Z" fill="white"/>
<path d="M192.658 24.9219H43.6867C52.5209 38.3547 54.1748 48.2377 37.2325 47.3099L23.5173 24.9219H8.71289L69.1808 123.671C65.2713 122.819 61.2821 122.387 57.2809 122.381C35.9013 122.381 18.5152 134.2 18.5152 148.681C18.5152 163.163 35.9013 174.982 57.2809 174.982C78.6604 174.982 96.0465 163.163 96.0465 148.681C96.0199 145.099 95.0006 141.594 93.1018 138.556L73.3761 106.366C73.3761 106.366 85.8004 110.723 94.3926 109.795C92.3528 107.303 90.4668 104.69 88.7452 101.969C99.5817 103.035 110.495 103.076 121.339 102.09L114.401 94.7484H116.216C146.147 94.7484 155.143 79.4197 155.143 79.4197H146.994C146.994 79.4197 167.204 74.2966 171.52 62.7194H164.017C164.017 62.7194 180.032 54.8533 181.605 45.9787H172.448C172.489 45.9788 188.422 36.9832 192.658 24.9219Z" fill="#FCB514"/>
<path d="M189.189 27.0586H47.5187C59.2573 46.2195 47.4784 50.5762 35.9819 49.366L22.3069 27.0586H12.5449L73.8196 127.139C68.4826 125.385 62.8985 124.5 57.2807 124.517C37.0709 124.517 20.6934 135.328 20.6934 148.68C20.6934 162.032 37.0709 172.843 57.2807 172.843C77.5308 172.843 93.9084 162.032 93.9084 148.68C93.8912 145.49 92.9679 142.37 91.246 139.685L68.5352 102.573C68.5352 102.573 83.2186 107.656 89.9955 107.656C88.0436 105.133 86.3794 102.399 85.0338 99.5072C85.0338 99.5072 102.622 101.403 116.7 100.274L109.035 92.2058C111.415 92.5269 113.815 92.6618 116.216 92.6092C140.984 92.6092 150.463 81.5967 150.463 81.5967H76.8451L75.7559 79.8218H136.869C136.869 79.8218 161.758 75.0618 167.769 64.8561H66.5989L65.5501 63.1215H158.652C158.652 63.1215 175.998 54.7714 178.459 48.1558H56.3529L55.3041 46.4212H167.527C167.527 46.3809 183.864 37.8694 189.189 27.0586Z" fill="#002F87"/>
</svg>
