<svg width="200" height="200" viewBox="0 0 200 200" fill="none" xmlns="http://www.w3.org/2000/svg">
<g clip-path="url(#clip0_106_5983)">
<path d="M99.3507 123.432L141.899 102.203C171.04 110.387 179.677 121.439 179.677 121.439L196.346 102.596C197.252 101.63 200 98.2172 200 92.0266C200 85.3529 193.024 80.1589 188.132 76.6559C179.828 54.8833 133.927 48.572 130.545 40.9923C129.367 38.3651 122.694 15.7168 122.694 15.7168C118.708 4 106.9 4 102.461 4C97.9919 4 88.4192 5.50989 88.4192 5.50989C88.4192 21.8469 86.2147 41.7473 83.8895 45.4012C78.0441 48.3798 72.0237 51.0017 65.8614 53.2526L42.6091 37.58L48.709 58.658C9.54251 80.1891 0 117.725 0 117.725C0 117.725 10.0559 196.783 109.165 196.783C161.558 196.783 191.816 171.447 191.816 171.447L174.936 133.7C174.936 133.7 149.147 147.107 116.201 147.107C85.8221 147.107 73.9544 132.945 69.6059 124.701C95.3345 125.456 99.3507 123.432 99.3507 123.432Z" fill="#A7A9AC"/>
<path d="M184.327 79.4342C176.234 57.5709 131.571 53.5848 126.649 43.2572C124.656 39.1201 122.12 29.2454 118.435 17.1965C115.476 8.49951 106.749 8.49951 102.4 8.49951C99.1947 8.57706 95.9973 8.85948 92.8277 9.34505C92.8277 18.2534 91.1366 44.1329 86.9995 48.6022C85.9728 49.8705 78.3629 52.9507 70.0887 56.1516L72.565 57.8125L70.0284 60.3491L65.2571 65.1204L60.0329 81.4876L53.2081 77.9243L55.624 83.994L43.4543 86.0173L50.3394 88.4029L30.5296 103.623L35.8746 104.045L28.8083 116.819C38.985 112.199 42.0954 111.323 42.0954 111.323L39.1662 108.303L59.7006 100.029C59.7006 100.029 58.1606 104.136 58.1606 112.108C58.2033 113.723 58.3954 115.33 58.7343 116.91C61.2709 129.321 73.3803 154.929 116.171 154.929C147.123 154.929 171.01 144.118 171.01 144.118L182.092 168.94C182.092 168.94 153.042 189.052 109.104 189.052C19.296 189.052 7.91147 118.45 7.91147 118.45C20.2926 85.3227 41.1291 70.8278 54.3859 64.6674L50.2488 64.2144L49.8864 62.9763C14.8872 82.2728 4.5293 118.057 4.5293 118.057C4.5293 118.057 15.1891 192.344 109.165 192.344C157.24 192.344 186.32 170.058 186.32 170.058L172.731 139.649C172.731 139.649 147.335 151.547 116.201 151.547C69.8472 151.547 62.9923 119.929 62.9923 119.929C62.9923 119.929 89.3851 121.5 97.8405 119.235L141.476 97.432C171.04 105.767 179.556 114.796 179.556 114.796L193.084 99.5761C193.084 99.5761 195.561 97.2508 195.561 92.0266C195.53 87.1346 188.223 82.2123 184.327 79.4342ZM89.2945 87.5272L67.1595 84.5376L78.3025 78.3169L89.2945 87.5272ZM85.6104 57.6917L71.8704 79.6455L67.0387 68.11L85.6104 57.6917ZM40.1627 99.3043L65.861 82.0009L63.9284 95.741L40.1627 99.3043Z" fill="#003D7D"/>
<path d="M62.1773 94.4117L63.808 85.0805L46.4141 96.8879L62.1773 94.4117ZM70.9347 83.933L85.3692 85.6845L76.8836 80.732L70.9347 83.933ZM69.8174 68.7133L71.4179 75.84L81.5945 62.0698L69.8174 68.7133Z" fill="#003D7D"/>
<path d="M31.2547 105.163L26.1211 105.284L47.5615 89.3092L38.2606 85.6251L53.4803 82.6959L48.1957 72.0059L57.5872 77.3509L61.3318 65.6945C50.0378 69.6203 25.7889 82.0617 11.7168 118.752C13.4079 127.177 28.1142 185.399 109.165 185.399C144.164 185.399 169.712 172.142 177.563 167.491L169.198 148.738C152.26 155.102 134.325 158.404 116.231 158.492C66.9486 158.523 54.5675 124.761 54.5675 112.078C54.5608 109.696 54.702 107.316 54.9902 104.952L43.666 108.696L45.1457 111.897L36.2978 115.098L28.688 120.111L44.1492 122.98L40.9483 134.032L47.5918 132.069L53.9635 148.286L61.5734 147.319L64.11 158.704C64.11 158.704 78.4539 168.639 102.763 170.813C134.863 173.682 163.582 162.72 163.582 162.72C163.582 162.72 129.337 176.158 98.1731 172.866C74.3772 170.36 58.8857 160.667 58.8857 160.667L58.7046 150.399L49.313 150.52L44.9042 134.787L36.5394 138.713L40.2235 124.641L24.1885 122.678L27.4499 112.864L31.2547 105.163ZM64.2307 65.0302L68.8812 58.7793L46.263 43.167L52.7253 62.2218L64.2307 65.0302Z" fill="#003D7D"/>
<path d="M173.335 80.9134C154.824 79.4035 147.637 73.3337 147.637 68.5624C147.637 66.2674 149.751 65.8446 151.17 65.8446C158.72 65.8446 170.406 71.8238 172.309 76.9272C168.987 73.3639 163.189 70.2535 158.78 70.2535C157.844 70.2535 156.847 70.5253 156.847 71.703C156.847 74.6926 162.162 79.3733 181.579 81.5475C174.151 60.1071 133.142 58.5972 123.932 45.129C121.365 41.3844 117.137 17.4678 112.879 14.1762C108.199 10.5827 96.18 12.2134 96.18 12.2134C96.18 15.5351 95.3646 44.8874 89.2949 51.0175C85.188 54.4601 78.3029 55.97 70.0589 60.3184L65.2876 65.0897L60.0634 81.4569L53.2387 77.8936L55.6545 83.9633L43.4848 85.9866L50.3699 88.3722L30.5601 103.592L35.9052 104.015L28.8389 116.788C39.0155 112.168 42.1259 111.292 42.1259 111.292L39.1967 108.273L59.7312 99.9983C59.7312 99.9983 58.1911 104.105 58.1911 112.077C58.2339 113.692 58.4259 115.3 58.7649 116.879C59.6406 115.188 75.7964 85.3827 110.403 83.3594L95.9082 94.5628L67.1598 116.758C67.1598 116.758 90.8349 117.755 96.6329 116.094C114.933 107.578 129.579 99.636 141.054 93.8682C152.076 88.342 160.199 84.8693 165.816 84.8693C172.762 84.8693 182.395 91.5732 190.639 97.2504C191.038 96.8759 191.356 96.4237 191.575 95.9217C193.568 88.8252 183.27 83.2688 173.335 80.9134ZM63.9287 95.7405L40.163 99.3038L65.8613 82.0004L63.9287 95.7405ZM85.6107 57.6912L71.8707 79.645L67.039 68.1095L85.6107 57.6912ZM67.1598 84.5371L78.3028 78.3164L89.2948 87.5267L67.1598 84.5371ZM107.323 47.8468C103.911 48.0582 96.9953 50.2928 96.9953 50.2928C96.9953 50.2928 103.216 46.6993 104.484 44.7666C105.753 42.834 106.085 21.0613 106.085 21.0613C106.085 21.0613 108.078 42.381 109.769 44.525C111.46 46.6691 117.741 49.3265 117.741 49.3265C117.741 49.3265 109.829 47.6958 107.323 47.8468Z" fill="#002D56"/>
<path d="M109.799 44.5257C108.108 42.3817 106.115 21.062 106.115 21.062C106.115 21.062 105.783 42.8346 104.514 44.7673C103.246 46.7 97.0252 50.2935 97.0252 50.2935C97.0252 50.2935 103.94 48.0287 107.353 47.8475C109.859 47.6965 117.801 49.3272 117.801 49.3272C117.801 49.3272 111.49 46.6697 109.799 44.5257ZM58.7344 116.88C59.6101 116.004 77.306 98.3684 95.9079 94.5635L110.403 83.3601C75.7961 85.4135 59.6403 115.219 58.7344 116.88ZM192.299 92.8724C192.299 88.4635 186.501 85.4739 181.579 81.5482C162.162 79.374 156.847 74.6933 156.847 71.7037C156.847 70.526 157.844 70.2542 158.78 70.2542C163.189 70.2542 168.987 73.3646 172.308 76.9279C170.376 71.8547 158.719 65.8453 151.17 65.8453C149.751 65.8453 147.637 66.2983 147.637 68.5631C147.637 73.3344 154.824 79.4041 173.335 80.9141C183.27 83.2695 193.568 88.7957 191.574 95.9525C192.073 95.0037 192.322 93.9439 192.299 92.8724ZM155.881 92.8422L163.098 95.409C164.108 95.0193 165.079 94.5339 165.997 93.9595C166.088 93.7481 166.088 93.5971 165.786 93.3253C165.574 93.114 162.343 91.9362 160.35 91.1813L155.881 92.8422ZM161.95 90.5471C163.883 91.3021 166.541 92.3892 166.752 92.4194C167.121 92.4949 167.501 92.4949 167.869 92.4194C168.111 92.359 169.681 91.5739 170.829 90.9699C169.711 90.4264 167.446 89.3694 165.937 89.3694C164.557 89.5645 163.214 89.9613 161.95 90.5471ZM169.077 93.0536C169.017 93.2046 169.077 93.3254 169.319 93.5065C170.718 94.3091 172.159 95.0349 173.637 95.6808C173.919 95.716 174.204 95.7058 174.483 95.6506C175.308 95.2079 176.105 94.7137 176.868 94.1709L171.886 91.4833C170.904 91.9201 169.963 92.4457 169.077 93.0536ZM172.61 97.0095C172.656 96.9388 172.686 96.8586 172.696 96.7749C172.707 96.6911 172.698 96.6061 172.671 96.5263C171.283 95.6585 169.829 94.9012 168.322 94.2615C167.976 94.1777 167.612 94.2206 167.295 94.3823C166.963 94.5332 165.091 95.5902 164.396 95.9525L170.194 98.5798C171.037 98.1164 171.845 97.5915 172.61 97.0095ZM179.737 99.0629C180.05 99.0555 180.359 98.9835 180.643 98.8515C181.214 98.465 181.758 98.0414 182.274 97.5832L177.804 94.7447C176.999 95.2326 176.222 95.767 175.479 96.3451C175.526 96.5208 175.609 96.6851 175.721 96.8283L179.737 99.0629ZM181.579 99.5159C181.458 99.7877 181.428 99.8783 181.488 99.9387C181.639 100.09 183.965 101.63 185.535 102.687L187.347 100.875L183.21 98.2174C182.618 98.5856 182.07 99.0213 181.579 99.5159ZM179.012 100.271C179.103 100.12 179.042 99.9387 178.891 99.7575C178.65 99.5461 175.086 97.6134 174.815 97.553C174.438 97.5167 174.058 97.5578 173.697 97.6739C173.546 97.7343 172.489 98.459 171.523 99.1536L176.989 101.69C177.691 101.258 178.367 100.784 179.012 100.271ZM179.979 100.996C179.828 101.056 178.801 101.841 178.016 102.445L182.968 105.495L184.81 103.472C183.3 102.445 181.126 100.935 180.945 100.875C180.618 100.844 180.288 100.885 179.979 100.996Z" fill="white"/>
<path d="M141.084 93.8993C167.779 100.996 179.163 110.236 179.163 110.236L182.002 107.035C180.673 106.039 170.829 99.2745 151.563 92.9632C157.3 90.6984 164.246 88.0108 166.118 88.0108C170.376 88.0108 179.133 93.537 188.525 99.6973L190.669 97.2815C182.455 91.6043 172.822 84.9004 165.846 84.9004C160.199 84.9004 152.076 88.3731 141.084 93.8993Z" fill="white"/>
</g>
<defs>
<clipPath id="clip0_106_5983">
<rect width="200" height="200" fill="white"/>
</clipPath>
</defs>
</svg>
