<svg width="200" height="200" viewBox="0 0 200 200" fill="none" xmlns="http://www.w3.org/2000/svg">
<path d="M111.551 10.9457C109.536 9.06801 99.918 0 99.918 0C99.918 0 90.2546 9.06801 88.2395 10.9457H26V147.607C49.2654 173.346 68.7296 185.665 99.918 200C130.969 185.665 150.525 173.391 173.79 147.607V10.9457H111.551Z" fill="white"/>
<path d="M110.543 13.5103C110.451 13.4187 99.9178 3.52637 99.9178 3.52637C99.9178 3.52637 89.3842 13.3729 89.2468 13.5103H28.5645V146.599C50.3643 170.735 69.7369 183.284 99.9178 197.16C129.961 183.284 149.38 170.827 171.225 146.599V13.5103H110.543Z" fill="#B4975A"/>
<path d="M166.051 18.6397V144.63C146.174 166.659 125.382 179.757 99.9184 191.481C74.4547 179.757 53.6166 166.659 33.7402 144.63V18.6397H78.2559C60.7153 28.8526 49.1742 46.6222 49.1742 70.6204V138.402C61.1275 150.813 77.2942 163.27 92.6365 170.506L58.9291 73.3683L90.6672 88.6191L86.8202 92.4203L98.2238 129.242H101.613L112.971 92.4203L109.124 88.619L140.862 73.3683L107.2 170.506C122.405 163.316 138.572 150.904 150.617 138.402V70.5746C150.617 46.6223 139.121 28.8526 121.581 18.6396L166.051 18.6397Z" fill="black"/>
<path d="M108.711 18.3191C109.627 14.4263 110.543 13.5103 110.543 13.5103C110.543 13.5103 101.155 4.71711 100.01 3.61798L99.918 3.52637V100.664L106.971 77.9482L144.571 59.8579C141.228 40.3938 128.542 25.5552 108.711 18.3191Z" fill="#333F42"/>
<path d="M148.052 80.3301L120.069 161.347L124.924 155.072C124.924 155.072 137.656 145.272 145.487 136.295V94.8939L148.052 80.3301Z" fill="#333F42"/>
<path d="M89.7505 93.1541L90.667 88.6201L86.8193 92.4211L98.223 129.243L99.9175 125.991L89.7505 93.1541Z" fill="white"/>
<path d="M90.3002 73.6892L60.3025 62.3313L92.8649 77.9484V30.3643L90.3002 73.6892ZM51.7383 80.3299L75.0494 147.745L62.0886 117.197L54.303 94.8937L51.7383 80.3299Z" fill="#333F42"/>
<path d="M140.862 73.3679L107.2 170.506L111.688 165.285L144.159 71.811L140.862 73.3679Z" fill="white"/>
<path d="M91.079 18.319C90.8433 17.2917 90.5373 16.2817 90.1631 15.2964C89.9793 14.6461 89.6679 14.0389 89.2471 13.5103C65.6611 22.1203 49.1738 41.905 49.1738 70.6204V138.401C49.9982 139.272 50.8683 140.142 51.7385 141.012V70.5746C51.7385 46.5306 63.3254 27.158 88.5143 16.6245C89.4212 17.1065 90.28 17.6739 91.079 18.319Z" fill="white"/>
</svg>
