<svg width="200" height="200" viewBox="0 0 200 200" fill="none" xmlns="http://www.w3.org/2000/svg">
<path d="M104.107 123.917C101.639 129.822 101.991 137.49 104.503 141.544L118.87 164.548L130.019 148.419H148.219L158.179 136.168H135.087L128.124 144.717L114.286 133.215C113.978 132.951 113.625 131.409 114.198 130.043L120.5 114.795C120.5 114.795 121.822 121.273 130.239 121.273H180.301C182.681 121.273 189.908 121.273 192.685 114.574C195.241 108.405 191.451 105.056 191.451 105.056H195.417L200 94.0825H175.498C172.62 94.0459 169.787 94.7923 167.301 96.2418L178.847 68.3464H166.243L153.552 98.9741C153.552 98.9741 151.26 94.0825 143.857 94.0825H129.049L153.111 36H140.507L116.446 94.0825H85.5977C81.6981 94.0769 77.8398 94.8809 74.267 96.4436C70.6941 98.0062 67.4846 100.293 64.8414 103.161C64.8414 103.161 64.7973 94.0825 54.0005 94.0825H26.5457C15.5285 94.0825 4.24696 100.649 0.765533 109.022C-1.65824 114.927 1.77912 121.317 9.57927 121.317H20.288C24.7389 121.317 29.4983 118.32 31.5255 116.91C31.5255 116.91 33.817 121.317 40.3833 121.317H55.4548L50.2987 133.7H62.9464L68.0584 121.317H105.164L104.107 123.917Z" fill="white"/>
<path d="M113.185 88.7059L111.598 83.8142H109.571L106.971 90.2042H108.249L110.32 85.2244L111.951 90.2042H113.89L116.534 83.8142H115.256L113.185 88.7059ZM100.713 86.9872C100.945 86.3182 101.379 85.738 101.955 85.3272C102.532 84.9165 103.222 84.6957 103.93 84.6956C105.296 84.6956 105.825 85.4888 105.208 86.9872C104.986 87.6658 104.556 88.2569 103.978 88.6764C103.401 89.0958 102.705 89.3221 101.991 89.3229C100.625 89.3229 100.096 88.5296 100.713 86.9872ZM101.551 90.3805C102.653 90.4317 103.742 90.1303 104.662 89.5201C105.581 88.91 106.282 88.0227 106.662 86.9872C107.632 84.7837 106.707 83.638 104.327 83.638C103.232 83.5928 102.15 83.8914 101.233 84.492C100.316 85.0927 99.6107 85.9652 99.2149 86.9872C98.2894 89.2347 99.2149 90.3805 101.551 90.3805ZM93.2215 90.2042H94.6317L96.8352 84.8719H99.303L99.7437 83.8142H93.4419L93.0012 84.8719H95.425L93.2215 90.2042ZM91.4588 85.8855C92.0758 84.3871 90.9299 83.638 88.9909 83.638C87.883 83.6122 86.7925 83.917 85.8586 84.5135C84.9246 85.11 84.1894 85.9712 83.7468 86.9872C82.7773 89.3228 83.9671 90.3805 86.3468 90.3805C87.5302 90.3735 88.7051 90.1801 89.8283 89.8076L91.0622 86.855H87.6248L87.2282 87.8245H89.2554L88.7706 89.0584C88.1505 89.2155 87.5151 89.3042 86.8756 89.3228C84.8926 89.3228 84.7603 88.177 85.2451 86.9872C85.5287 86.2787 86.0232 85.6746 86.6618 85.2568C87.3003 84.8389 88.0519 84.6276 88.8147 84.6515C89.5198 84.6515 90.313 85.004 89.9604 85.8854L91.4588 85.8855ZM75.1534 90.2042L77.2246 85.2244H77.2687L78.8992 90.2042H80.8382L83.4824 83.8142H82.1603L80.1331 88.7059L78.5467 83.8142H76.5195L73.8754 90.2042L75.1534 90.2042ZM71.9364 90.2042L74.5805 83.8142H73.1262L70.4821 90.2042H71.9364ZM63.6514 90.2042L64.7532 87.4719H68.2346L67.0888 90.2042H68.5431L71.1872 83.8142H69.777L68.6753 86.4143H65.1939L66.2515 83.8142H64.8413L62.1972 90.2042H63.6514ZM62.2853 85.7092C62.7701 84.4312 62.065 83.6379 60.2141 83.6379C58.7157 83.6379 57.1293 84.2549 56.5123 85.7092C55.4106 88.3092 60.5666 87.0312 59.9497 88.4414C59.7734 88.9262 59.1123 89.411 57.9225 89.411C56.8208 89.411 56.4242 88.9703 56.6886 88.2211H55.2343C54.6615 89.5872 55.4988 90.3805 57.3496 90.3805C59.509 90.3805 60.9633 89.5872 61.5362 88.2652C62.6819 85.4888 57.3937 87.1194 58.0988 85.4888C58.2582 85.2116 58.4901 84.9831 58.7696 84.8278C59.0492 84.6725 59.3657 84.5964 59.6853 84.6075C60.6989 84.6075 61.1395 84.916 60.8311 85.7092H62.2853ZM51.6648 87.7364H49.0207L51.4885 84.96L51.6648 87.7364ZM45.2748 90.2042H46.8172L48.0952 88.794H51.7529L51.8851 90.2042H53.6038L52.9868 83.8142H51.18L45.2748 90.2042ZM41.6171 85.0922H41.6612L41.3087 90.2042H43.0714L47.963 83.8142H46.5528L42.807 88.794L43.1595 83.8142H41.3527L37.6069 88.794L37.9594 83.8142H36.417L36.0645 90.2042H37.7831L41.6171 85.0922ZM108.998 78.3057L113.361 75.1327L117.724 78.3057L116.049 73.1937L120.412 70.0208H115.036L113.361 64.8647L111.686 70.0208H106.266L110.673 73.1937L108.998 78.3057ZM80.662 78.3057L85.0248 75.1327L89.4317 78.3057L87.7571 73.1937L92.1199 70.0208H86.6994L85.0248 64.8647L83.3943 70.0208H77.9738L82.3366 73.1937L80.662 78.3057ZM52.3699 78.3057L56.7327 75.1327L61.0955 78.3057L59.4209 73.1937L63.8277 70.0208H58.4073L56.7327 64.8648L55.0581 70.0208H49.6817L54.0445 73.1937L52.3699 78.3057Z" fill="#CF0A2C"/>
<path d="M151.789 139.209H136.541L131.562 145.379H146.765L151.789 139.209Z" fill="#CF0A2C"/>
<path d="M93.3539 112.767L99.832 97.1228H85.5978C80.5999 97.1041 75.7103 98.5792 71.5566 101.359C67.4029 104.138 64.1744 108.096 62.2855 112.723L54.882 130.615H60.9194L67.9263 113.737C70.6145 107.259 76.4756 102.014 85.8182 102.014H91.8115L88.0216 111.181C87.7418 111.792 87.3047 112.318 86.755 112.705C86.2053 113.093 85.5626 113.327 84.8927 113.384H70.967L68.9399 118.232H85.6419C88.6386 118.232 91.6793 116.866 93.3539 112.767ZM165.935 102.014C164.084 106.509 166.508 110.123 171.355 110.123H183.607C184.488 110.123 184.929 110.872 184.532 111.754C184.336 112.209 184.019 112.602 183.615 112.89C183.21 113.177 182.735 113.348 182.24 113.384H159.854L157.826 118.232H180.301C184.488 118.232 188.278 117.306 189.908 113.384C191.759 108.933 189.335 105.276 184.488 105.276H172.237C171.355 105.276 170.915 104.526 171.267 103.645C171.474 103.197 171.794 102.81 172.196 102.524C172.598 102.238 173.068 102.062 173.559 102.014H193.39L195.417 97.1228H175.498C171.355 97.1228 167.213 98.9296 165.935 102.014ZM100.317 118.232L105.913 104.703H99.9201L94.2794 118.232L100.317 118.232ZM109.042 97.1228H103.049L101.022 102.014H107.015L109.042 97.1228ZM154.874 118.232L174.308 71.3867H168.271L148.88 118.232L154.874 118.232ZM126.141 97.1228L124.114 102.014H143.152C146.765 102.014 145.663 104.703 145.663 104.703H133.412C128.565 104.703 124.995 106.906 123.849 109.682C121.866 114.442 124.731 118.232 130.239 118.232H136.453C137.921 118.17 139.348 117.73 140.596 116.954L140.067 118.232H146.06L151.04 106.333C153.111 101.265 149.938 97.1228 143.857 97.1228H126.141ZM56.204 118.232L61.1397 106.333C63.255 101.265 60.038 97.1228 54.0006 97.1228H38.3122L36.285 102.014H53.2955C56.9091 102.014 55.8074 104.703 55.8074 104.703H43.5563C38.7088 104.703 35.1392 106.906 33.9934 109.682C32.0103 114.442 34.8748 118.232 40.3834 118.232H46.597C48.0649 118.17 49.4919 117.73 50.7395 116.954L50.1666 118.232L56.204 118.232ZM24.739 102.014H32.7595L34.7426 97.1228H26.5458C16.8507 97.1228 6.58271 102.984 3.58604 110.167C1.77923 114.53 4.42335 118.232 9.57938 118.232H20.2881C24.9593 118.232 30.6001 113.781 30.6001 113.781L25.6204 111.665C24.2263 112.673 22.5772 113.269 20.861 113.384H10.637C9.35904 113.384 8.78614 112.106 9.49124 110.476C11.4303 105.804 18.2609 102.014 24.739 102.014Z" fill="#041E41"/>
<path d="M106.927 125.063C104.944 129.91 104.988 136.565 107.104 139.914L119.002 158.996L126.846 147.626L112.348 135.551C110.805 134.317 110.365 131.277 111.378 128.897L148.572 39.085H142.535L118.473 97.1675H111.334L109.307 102.059H116.49L106.927 125.063Z" fill="#041E41"/>
<path d="M41.9698 109.594C41.3974 109.635 40.8464 109.828 40.3737 110.153C39.9011 110.479 39.524 110.925 39.2816 111.445C38.841 112.502 39.3257 113.384 40.3834 113.384H49.5937C50.3119 113.358 51.0109 113.146 51.6216 112.767C52.2322 112.388 52.7333 111.857 53.0751 111.224L54.0887 108.845C52.9253 109.315 51.6857 109.569 50.431 109.594H41.9698ZM131.826 109.594C131.253 109.635 130.702 109.828 130.23 110.153C129.757 110.479 129.38 110.925 129.138 111.445C128.697 112.502 129.226 113.384 130.239 113.384H139.45C140.174 113.359 140.879 113.147 141.497 112.769C142.115 112.39 142.624 111.858 142.975 111.224L143.945 108.845C142.781 109.315 141.542 109.569 140.287 109.594H131.826Z" fill="white"/>
</svg>
