<svg width="200" height="200" viewBox="0 0 200 200" fill="none" xmlns="http://www.w3.org/2000/svg">
<g clip-path="url(#clip0_106_5905)">
<path d="M200 100C200 119.778 194.135 139.112 183.147 155.557C172.159 172.002 156.541 184.819 138.268 192.388C119.996 199.957 99.8891 201.937 80.491 198.078C61.0929 194.22 43.2746 184.696 29.2894 170.711C15.3041 156.725 5.78004 138.907 1.92152 119.509C-1.937 100.111 0.0433284 80.0042 7.61209 61.7316C15.1809 43.459 27.9981 27.8412 44.443 16.853C60.8879 5.8649 80.2219 0 100 0C126.521 0.00157081 151.956 10.5378 170.709 29.2911C189.462 48.0443 199.998 73.4788 200 100Z" fill="#8E9090"/>
<path d="M193.263 100.001C193.259 118.45 187.785 136.484 177.531 151.823C167.278 167.161 152.706 179.114 135.659 186.171C118.612 193.228 99.8558 195.071 81.7614 191.468C63.6669 187.864 47.0473 178.976 34.0042 165.927C20.9611 152.879 12.0803 136.255 8.48481 118.159C4.88936 100.063 6.74075 81.3074 13.8048 64.2636C20.8689 47.2198 32.8285 32.6535 48.1711 22.4067C63.5137 12.1599 81.5503 6.69279 100 6.69678C112.251 6.69598 124.382 9.10911 135.701 13.7983C147.019 18.4874 157.302 25.3607 165.963 34.0255C174.624 42.6902 181.493 52.9766 186.177 64.2968C190.862 75.6171 193.27 87.7494 193.263 100.001Z" fill="#041E41"/>
<path d="M109.037 31.7879L100.001 9.07715L90.4404 31.7879C73.9218 34.0393 58.7776 42.1971 47.8094 54.7523C36.8413 67.3075 30.7915 83.4102 30.7793 100.082C30.7793 138.161 61.9209 169.021 100.001 169.021C117.451 168.951 134.226 162.265 146.94 150.313C159.654 138.36 167.362 122.03 168.509 104.618C169.655 87.2048 164.155 70.0052 153.118 56.4888C142.08 42.9724 126.327 34.1451 109.037 31.7879Z" fill="white"/>
<path d="M76.442 138.685V149.092L92.8599 140.984L94.1104 137.878L99.9999 166.357L105.93 137.636L107.261 140.984L123.719 149.092V138.685L117.588 129.891L117.709 130.012L127.35 128.439L122.953 122.953L130.456 116.418L138.08 115.893L142.194 117.951V106.131L153.449 96.3291L142.436 96.2484L149.899 75.5546L129.447 83.2996L129.084 72.2871L115.087 86.2443C115.45 84.066 120.411 54.9414 120.411 54.9414L107.14 63.6143L76.442 138.685ZM107.14 63.6143L99.9999 66.801L92.9809 63.5336L79.8708 54.9414C79.8708 54.9414 85.1552 86.204 85.1552 86.2443L71.198 72.2871L70.7946 83.2996L50.3428 75.5545L57.8055 96.2484L46.793 96.329L57.9668 106.051V117.951L62.0814 115.893L69.8265 116.377L77.3295 122.912L72.8922 128.398L80.2742 129.609L107.14 63.6143Z" fill="#7B303E"/>
<path d="M148.326 77.2087L128.802 84.5907L123.074 94.4737L126.987 96.3293L148.326 77.2087ZM119.04 56.9183L107.342 64.623L108.633 70.6738L119.04 56.9183ZM49.2539 97.2168L57.9268 104.8V97.1764L49.2539 97.2168ZM95.7646 141.025L100 162.485V150.706L95.7646 141.025ZM85.1555 87.5354L85.1151 87.4951L72.0454 74.4657L71.642 84.5907L52.0776 77.2087L71.1982 97.2571L87.2531 89.5927L85.1555 87.5354ZM92.7795 64.502L81.162 56.8779V56.9989L90.4399 79.629L91.045 72.4891L92.7795 64.502ZM88.3422 117.628L71.3193 116.499L78.5399 122.792C78.4189 123.074 74.6271 127.753 74.6271 127.753L83.0176 129.125L88.3423 121.501L88.3422 117.628Z" fill="#AC162C"/>
<path d="M142.113 86.9307L136.546 100.888L110.488 88.4637L109.076 72.4899L100 30.981L91.085 72.4899L89.6733 88.4637L63.6144 100.888L57.8857 87.1328L57.9261 93.9095V117.951L62.0814 115.894L88.3415 117.629V121.542L76.4422 138.686V149.093L92.9 140.985L94.231 137.556L100 150.707L105.93 137.556L107.261 140.985L123.719 149.093V138.686L111.819 121.542V117.629L138.079 115.894L142.235 117.951V93.9095L142.113 86.9307Z" fill="#55565A"/>
<path d="M92.8598 72.7302L91.3673 89.6324L90.5608 99.1923L88.8662 90.8422L62.6869 103.348L59.7422 96.288V115.046L61.7188 114.037L90.1575 115.933V122.105L78.217 139.249V146.187L91.4481 139.693L93.5055 134.529L92.3758 128.801L94.312 133.279L100 146.228V38.2808L92.8598 72.7302Z" fill="#8E9090"/>
</g>
<defs>
<clipPath id="clip0_106_5905">
<rect width="200" height="200" fill="white"/>
</clipPath>
</defs>
</svg>
