<svg width="200" height="200" viewBox="0 0 200 200" fill="none" xmlns="http://www.w3.org/2000/svg">
<g clip-path="url(#clip0_106_4644)">
<path d="M183.402 149.281C170.923 146.652 146.164 149.213 132.042 179.098C132.042 179.098 107.894 150.262 74.3416 145.195C75.6584 129.151 54.4088 124.886 50.3432 97.2826C50.3432 97.2826 33.8352 83.761 25.5812 62.467L29.9764 63.8794C29.9764 63.8794 23.5584 56.769 18.6236 44.5138L23.27 46.0486C23.27 46.0486 18.5692 39.675 16 21.3926C72.9504 60.5786 102.953 46.9042 137.591 66.5106C161.101 79.8318 166.701 95.299 168.67 110.739C168.67 110.739 186.074 126.512 183.403 149.28" fill="#FFFFFE"/>
<path d="M181.026 145.943C181.4 126.564 166.185 112.798 166.185 112.798C164.542 100.546 160.093 82.8277 136.383 69.7441C100.38 49.8929 80.4609 66.1073 23.7041 31.3257C24.8853 37.8285 28.6253 46.8269 33.3905 52.4161L27.5225 50.4909C31.7885 59.4861 38.6205 67.6457 42.1977 70.2945L35.6201 68.2265C42.5877 85.3337 56.2009 95.4665 56.2009 95.4665C59.3029 121.657 78.5057 126.119 80.0569 142.228C105.074 146.109 131.516 172.911 131.516 172.911C145.36 149.101 164.664 144.486 181.026 145.943Z" fill="black"/>
<path d="M148.988 112.234C143.548 120.995 134.35 118.554 131.071 107.63L137.703 108.034C131.889 104.554 126.608 99.4327 122.525 94.3867C121.324 118.52 144.023 129.352 151.53 112.404C150.68 112.397 149.832 112.34 148.988 112.234Z" fill="#FFFFFE"/>
<path d="M133.372 73.0281C107.29 58.7257 75.414 68.0129 34.6836 42.7661C38.7188 54.8309 63.9292 68.9601 63.9292 68.9601L41.6208 61.7037C47.3024 71.5681 70.5576 83.9281 70.5576 83.9281L49.7528 77.2013C58.37 91.5209 77.9192 101.185 77.9192 101.185L65.9048 100.316C67.4592 113.779 86.0512 125.372 87.0388 135.763C95.4488 138.979 106.286 144.585 114.733 151.852C130.882 143.909 126.429 117.036 95.6388 78.9165C137.988 81.4769 136.821 112.89 161.128 108.374C159.346 99.9353 158.196 86.6517 133.373 73.0281" fill="#97233F"/>
<path d="M177.986 140.944C172.057 135.039 159.602 129.012 144.454 127.195C150.906 125.402 158.251 121.443 161.261 115.283C167.682 119.348 176.626 130.974 177.986 140.944V140.944ZM145.568 149.179C148.062 140.676 143.524 132.958 143.524 132.958C156.798 131.657 171.446 137.82 177.376 142.839C168.107 140.968 155.417 143.647 145.568 149.179Z" fill="#FFB612"/>
<path d="M148.988 112.234C143.548 120.995 134.35 118.554 131.071 107.63L137.703 108.034C131.889 104.554 126.608 99.4327 122.525 94.3867C121.324 118.52 144.023 129.352 151.53 112.404C150.68 112.397 149.832 112.34 148.988 112.234Z" fill="#FFFFFE"/>
</g>
<defs>
<clipPath id="clip0_106_4644">
<rect width="200" height="200" fill="white"/>
</clipPath>
</defs>
</svg>
