<svg width="200" height="200" viewBox="0 0 200 200" fill="none" xmlns="http://www.w3.org/2000/svg">
<g clip-path="url(#clip0_106_4532)">
<path d="M170 56.8686C148.459 43.2638 99.1188 32.8578 62.3156 24.2974L20 69.8046L56.3224 69.0282C38.2364 98.263 41.922 167.009 87.6572 176.147C85.3024 171.632 81.2144 163.336 86.514 153.065C90.2884 145.76 111.272 105.601 111.272 105.601H116.294C123.096 105.601 125.335 108.159 122.318 111.766C140.45 111.535 151.583 104.676 156.579 97.3462C152.776 90.3838 140.677 82.187 135.771 78.8646H161.14C168.414 78.8646 170.055 81.9142 168.342 85.2342C180.214 82.899 186.284 67.1534 169.999 56.8686" fill="#A5ACAF"/>
<path d="M167.102 58.2563C137.762 41.7919 65.1151 30.8179 65.1151 30.8179L33.9951 64.1699H66.2603C42.4375 95.6635 47.7163 159.237 82.7491 172.453C80.2643 166.542 79.0055 159.681 83.4839 150.951C88.5379 141.106 96.5819 124.557 108.106 102.465H117.51C125.314 102.465 127.809 105.766 126.751 108.314C133.169 108.314 144.903 107.685 153.418 97.3463C146.325 87.4315 122.871 75.8707 122.871 75.8707H163.106C169.019 75.8707 171.974 77.9747 171.157 81.5383C181.436 76.5167 178.764 64.7995 167.102 58.2563Z" fill="#FFFFFE"/>
<path d="M119.48 76.9523C119.48 76.9523 145.412 89.6463 150.454 97.3459C147.798 100.881 143.737 103.356 138.299 104.599C141.774 101.93 142.433 99.3631 140.297 99.3631H132.61C131.297 100.655 130.598 102.991 132.358 105.345C129.386 104.694 126.524 102.247 126.303 99.3631H110.027C112.2 95.0127 118.472 82.5787 120.222 79.1535L119.481 76.9523H119.48ZM165.882 60.4675C177.236 66.7011 176.487 75.2883 173.13 78.1231C173.19 75.0571 170.178 72.7755 164.747 72.7755H111.696L117.398 75.8315C117.398 75.8315 83.2547 143.853 80.6339 149.221C77.6087 155.423 76.7791 162.387 79.3855 168.189C72.6311 163.905 67.3275 157.011 63.5943 148.607L60.5627 148.401L92.7683 101.12C92.7003 100.817 92.6403 100.509 92.5867 100.203L60.0715 138.554C58.4063 132.368 57.4467 125.701 57.2403 118.863L53.5567 117.94L93.5011 86.4051C93.6003 86.0707 93.7055 85.7383 93.8127 85.4059L57.5911 107.401C58.1379 101.335 59.2791 95.2711 61.0395 89.4175L57.2919 87.2951L99.9231 73.0795C100.113 72.7883 100.307 72.4995 100.501 72.2143L64.7171 79.5299C66.6487 75.2227 68.9539 71.1079 71.6591 67.2983L68.3447 64.1703H111.139C111.257 63.9345 111.375 63.6991 111.494 63.4643L47.7783 58.5895L65.8951 39.0755L63.0615 35.4683C63.0615 35.4683 141.208 46.9255 165.882 60.4683L165.882 60.4675Z" fill="black"/>
<path d="M168.687 65.3611L169.368 68.3755C164.725 69.2487 156.509 69.9447 154.188 70.1327C154.074 70.3639 153.957 70.5951 153.837 70.8327H166.066C170.918 70.8327 172.961 73.1347 173.392 74.4583C174.028 72.6475 173.442 67.7911 168.687 65.3611ZM155.087 59.4023C157.799 60.3067 163.901 63.7135 166.213 66.3791H161.827C160.098 63.5339 155.087 59.4023 155.087 59.4023Z" fill="#FFFFFE"/>
<path d="M63.3614 97.0777L89.4234 82.8393C89.5638 82.4861 89.7102 82.1309 89.863 81.7781L64.7814 90.7949C64.224 92.8694 63.7503 94.9655 63.3614 97.0781V97.0777ZM75.015 68.8381C73.8641 70.4195 72.7931 72.0575 71.8062 73.7461L97.2986 69.1893C97.5214 68.8961 97.7486 68.6029 97.9754 68.3161L75.015 68.8381ZM91.1878 115.743C91.0186 115.439 90.8534 115.132 90.6926 114.826L69.5298 146.753C70.6402 148.857 71.8678 150.825 73.203 152.632L91.1878 115.743ZM62.9198 125.874L86.4454 99.6173C86.427 99.2417 86.4146 98.8677 86.4062 98.4941L62.1582 119.117C62.3203 121.379 62.5743 123.633 62.9198 125.875V125.874ZM136.178 95.8157L117.708 93.0573L115.834 96.6873H135.742L136.178 95.8157ZM148.935 62.7757L64.3746 51.0685L69.5482 45.4629C98.031 49.8669 132.096 56.8293 149.391 61.8693C149.245 62.1645 149.09 62.4681 148.935 62.7757Z" fill="#A71930"/>
</g>
<defs>
<clipPath id="clip0_106_4532">
<rect width="200" height="200" fill="white"/>
</clipPath>
</defs>
</svg>
