<svg width="200" height="200" viewBox="0 0 200 200" fill="none" xmlns="http://www.w3.org/2000/svg">
<path d="M198.607 110.89C197.805 106.003 194.589 98.8253 183.8 92.3674C183.071 91.931 182.305 91.5062 181.517 91.0881C183.535 90.4085 185.622 89.7073 185.622 89.7073L173.664 85.0401C172.641 84.6404 171.568 84.2806 170.481 83.9308C171.272 83.1279 172.105 82.2801 172.105 82.2801L162.937 80.9942C158.975 80.4379 155.85 80.3096 153.455 80.3446C153.432 79.9581 153.402 79.6017 153.362 79.2819C153.362 79.2786 151.831 67.7871 151.831 67.7871C151.831 67.7871 148.284 72.6358 147.931 73.1173C147.177 71.8597 146.322 70.677 145.34 69.5661C145.34 69.5645 135.452 58.3711 135.452 58.3711C135.452 58.3711 135.846 61.6643 136.162 64.2924C132.956 62.0538 129.429 60.0531 125.529 58.3793C109.619 51.5484 89.4963 50.1293 70.3248 54.48C54.2875 58.1213 31.1303 67.614 11.9001 92.1536L0.799805 106.318L17.5076 99.6557C17.6408 99.6024 30.5381 94.5689 40.9395 93.1014C44.8182 92.5534 47.7885 92.5101 45.3774 97.8287C43.4772 102.026 39.1607 108.153 39.116 108.214L30.7495 120.395L44.7053 115.545C51.4176 113.208 57.4428 112.057 60.4898 111.948C61.578 111.968 61.7777 112.688 61.4349 113.471C61.3368 113.742 61.2802 113.884 60.5264 115.043L51.7756 127.546L66.1291 122.399C76.5455 118.658 90.2399 116.194 95.1385 118.068C95.5379 118.22 96.8324 118.908 95.5495 120.792L89.9119 129.77C89.9119 129.77 98.235 128.505 99.4181 128.322C100.072 136.521 104.18 140.991 104.686 141.508L110.733 147.716L112.856 139.309C114.38 133.259 117.252 129.963 119.815 128.167C119.815 128.171 120.307 131.622 120.307 131.622L125.913 129.598C130.626 127.892 134.356 125.844 137.042 123.507C140.594 123.225 149.274 122.707 157.61 123.533C171.978 124.956 181.616 123.043 184.229 122.422C187.723 121.594 190.668 123.088 190.7 123.105L194.971 125.43L197.276 121.1C197.549 120.58 198.852 117.877 198.852 113.869C198.852 112.876 198.772 111.873 198.609 110.889" fill="white"/>
<path d="M196.604 111.722C195.894 107.393 192.967 100.994 183.043 95.0506C180.389 93.4682 177.507 92.114 174.59 90.9632L178.104 89.7805L173.277 87.895C170.886 86.9605 168.373 86.191 165.783 85.5664C166.28 85.0617 166.819 84.5103 166.819 84.5103L163.12 83.989C157.423 83.1911 153.489 83.2827 151.175 83.4993C151.196 82.9996 151.213 82.4715 151.213 81.9385C151.213 81.1923 151.185 80.4577 151.106 79.8631L150.486 75.2207C150.486 75.2207 148.236 78.2973 147.912 78.7419C147.168 76.6731 145.948 74.1096 143.722 71.5843L139.725 67.0586L140.178 70.8364C136.585 67.495 131.613 63.9823 124.798 61.0557C109.336 54.4178 89.7304 53.047 71.0222 57.2929C55.3411 60.8525 32.6955 70.1417 13.8699 94.1631L9.12598 100.221L16.2693 97.3696C16.4024 97.318 29.6893 92.0496 40.4901 90.6037C44.725 90.0407 47.6484 90.5421 48.7185 92.0212C49.7169 93.407 49.3958 96.1488 47.845 99.3619C45.7217 103.771 41.3823 110.101 41.3389 110.167L37.7613 115.373L43.7284 113.301C51.5908 110.564 61.5028 108.54 63.8008 110.044C64.3316 110.392 64.6178 110.802 64.7292 111.375C65.097 113.287 63.453 116.186 62.8473 117.055L59.1017 122.397L65.2418 120.198C75.0507 116.677 92.6372 112.639 98.0741 116.81C100.588 118.741 98.2388 122.555 98.134 122.715L95.7212 126.561L100.201 125.877C100.201 125.877 101.304 125.705 102.392 125.537C102.379 125.888 102.355 126.245 102.355 126.58C102.355 135.26 106.742 139.875 106.953 140.095L109.54 142.75L110.449 139.151C112.995 129.046 119.02 125.548 122.378 124.363C122.471 125.032 122.939 128.305 122.939 128.305L125.335 127.439C131.212 125.315 134.503 122.985 136.31 121.236C139.014 121 148.92 120.25 158.431 121.19C172.438 122.579 181.748 120.735 184.269 120.135C188.913 119.036 192.687 121.046 192.727 121.066L194.571 122.074L195.561 120.217C195.624 120.1 196.817 117.777 196.817 114.264C196.817 113.474 196.755 112.625 196.607 111.722" fill="#9A7611"/>
<path d="M181.811 97.1465C177.667 94.2132 172.087 92.0795 166.672 90.5536C168.926 89.8241 171.184 89.8724 171.184 89.8724C167.715 88.5448 164.093 87.7153 160.723 87.1923L161.984 86.0596C155.813 85.0069 151.505 85.0869 148.949 85.3534C149.27 84.0875 149.531 82.1536 149.202 79.5719C149.202 79.5719 148.453 81.7972 146.638 83.1799C146.398 80.2916 145.476 76.1141 142.345 73.2792L142.925 78.3778C140.166 74.2185 134.917 68.9001 124.991 64.2529C98.01 51.6287 50.4683 56.4141 24.3701 90.1558C24.3701 90.1558 34.5187 85.0787 48.5792 84.7423C55.9456 84.5691 57.7359 88.6981 55.052 95.6574C52.353 102.652 47.6222 108.788 47.6222 108.788C47.6222 108.788 79.4405 97.5011 69.3954 113.18C69.3954 113.18 93.4145 105.98 100.62 114.426C103.969 118.345 100.069 123.827 100.069 123.827L106.883 122.351C104.673 131.015 108.542 136.548 108.542 136.548C111.354 125.223 121.16 122.206 124.631 121.635L125.381 124.703C131.199 122.598 133.934 120.358 135.498 118.512C147.816 116.573 156.181 118.23 165.677 118.748C179.51 119.505 186.66 117.093 188.945 117.108C190.622 117.123 192.61 118.587 192.61 118.587C192.61 118.587 198.359 108.873 181.811 97.1464" fill="black"/>
<path d="M117.501 65.335C86.8803 56.1888 54.9289 65.0369 37.1963 82.0368C37.1963 82.0368 55.0474 76.4134 60.4021 81.9386C66.6302 88.3632 57.1939 103.469 57.1939 103.469L63.3656 102.501C62.9213 102.555 62.6668 102.586 62.6668 102.586C67.4874 85.6981 71.8385 79.7784 74.752 76.8834C76.4842 74.768 79.5475 73.3339 82.0037 72.4978C65.502 73.2856 49.4598 76.6852 49.4598 76.6852C59.8344 68.6249 83.8908 62.9933 97.7572 64.4091C111.623 65.8266 110.68 71.4566 109.254 74.6681C108.099 77.2632 102.435 80.7811 97.1082 81.917C102.622 82.6366 105.746 86.8974 103.771 91.1514C103.601 91.5162 103.405 91.8693 103.195 92.2091C97.3093 93.6083 92.0861 95.8269 87.7999 98.2506C87.6502 98.3389 87.5021 98.4255 87.3523 98.5104C87.1527 98.627 86.9513 98.7436 86.7533 98.8619C86.6019 98.9518 86.4505 99.0401 86.2974 99.1334C86.111 99.2467 85.928 99.3616 85.7466 99.4749C85.5952 99.5715 85.4404 99.6647 85.2907 99.763C85.116 99.8713 84.9446 99.9846 84.7732 100.098C84.6268 100.191 84.4753 100.289 84.3289 100.388C84.1675 100.503 84.0044 100.613 83.843 100.722C80.3203 103.146 77.763 105.573 76.4367 107.455C76.4367 107.455 112.499 100.143 106.252 118.324L115.567 115.769C114.909 116.918 113.869 118.23 112.455 119.81C108.052 124.705 108.355 129.359 108.355 129.359C108.355 129.359 109.648 124.267 117.979 120.776C125.577 117.598 127.329 112.194 127.329 112.194C127.329 112.194 129.86 115.939 127.789 121.182C127.789 121.182 131.288 120.308 134.42 116.007C135.696 113.722 134.39 111.003 133.849 109.673C129.083 107.136 121.284 102.282 127.908 100.698C123.782 100.082 111.211 98.8389 95.4595 103.341C95.4595 103.341 110.021 93.6052 138.024 98.1809C130.458 93.6604 113.88 93.8469 113.88 93.8469C119.649 92.4028 125.871 92.3844 131.736 93.0324C129.378 92.3761 126.174 91.6116 122.405 91.0386C116.646 90.3557 111.148 90.6605 106.078 91.5982C111.775 85.6786 122.155 86.4562 122.155 86.4562C115.233 81.7874 106.208 83.2814 106.208 83.2814C116.326 78.0394 127.576 79.8136 127.576 79.8136C124.039 75.1379 115.686 74.1085 115.686 74.1085C132.245 73.4372 138.046 82.1488 138.046 82.1488C133.918 80.3482 130.977 80.6197 130.977 80.6197C130.977 80.6197 134.957 81.266 137.651 86.3062C140.505 91.6465 142.925 91.4929 142.925 91.4929C142.925 91.4929 147.462 74.2865 117.499 65.3353" fill="#24135F"/>
<path d="M93.6098 64.193C79.5014 64.0706 58.8623 69.3806 49.4609 76.6851C49.4609 76.6851 65.5035 73.2854 82.0061 72.4974C79.5501 73.3335 76.4867 74.7677 74.7544 76.883C71.8408 79.7778 67.4895 85.6978 62.6689 102.586C62.6689 102.586 62.9234 102.554 63.3676 102.501C65.436 102.237 71.6544 101.49 75.3384 101.302L81.5433 100.943C82.2172 100.943 82.9091 100.92 83.6113 100.882C83.6895 100.83 83.7677 100.774 83.846 100.722C84.0074 100.612 84.1706 100.502 84.332 100.387C84.4784 100.289 84.6296 100.19 84.776 100.097C84.9474 99.9838 85.5981 99.5708 85.7495 99.4742C85.9309 99.3609 86.1142 99.2458 86.3006 99.1326C86.4537 99.0393 86.6046 98.9513 86.7561 98.8613C86.9541 98.7431 87.1557 98.6263 87.3554 98.5097C87.5051 98.4247 87.653 98.3382 87.8027 98.2499C92.0891 95.8263 97.3123 93.6075 103.198 92.2084C103.407 91.8686 103.604 91.5158 103.774 91.1511C105.749 86.897 102.625 82.636 97.1108 81.9166C102.437 80.7806 108.102 77.2628 109.256 74.6675C110.683 71.4562 111.626 65.8262 97.7599 64.4086C96.4599 64.2759 95.0704 64.205 93.6111 64.1924L93.6098 64.193ZM94.213 72.018C96.892 72.3028 98.1649 74.3845 96.5042 77.2879C95.7487 78.5988 94.2128 79.6982 92.2275 80.2895C92.4638 79.9481 92.6935 79.5498 92.9081 79.0834C94.622 75.4006 93.3058 73.7837 90.0679 73.7552C90.9481 72.4227 91.429 72.0262 91.429 72.0262L94.213 72.018ZM84.5172 84.8569H88.6203C91.9199 84.8569 93.7554 86.7158 91.6952 91.1515C90.4456 93.8432 88.1762 95.1021 86.0762 95.6218C86.8716 94.9489 87.5754 94.078 88.1012 92.947C90.1578 88.5128 88.3258 86.6539 85.0228 86.6539H83.6335C83.9147 86.0592 84.211 85.4582 84.5172 84.8569Z" fill="white"/>
<path d="M90.0669 73.7549C89.2133 75.0441 87.9839 77.2092 86.4446 80.7571H88.9303C90.115 80.7571 91.2265 80.5857 92.2266 80.2892C92.4629 79.9477 92.6926 79.5495 92.9072 79.0831C94.6211 75.4002 93.3049 73.7833 90.0669 73.7549ZM83.6325 86.6536C81.3446 91.5024 79.9219 95.9432 79.9219 95.9432H83.4661C84.2299 95.9432 85.1367 95.8598 86.0751 95.6217C86.8705 94.9487 87.5743 94.0778 88.1001 92.9468C90.1568 88.5126 88.3247 86.6537 85.0218 86.6537L83.6325 86.6536Z" fill="#24135F"/>
<path d="M92.2644 66.2532C90.2099 66.2586 87.7227 66.3761 85.0232 66.7378C82.1744 67.1192 68.327 68.53 56.5352 74.2916C66.8468 71.7782 79.0337 70.8569 86.7483 70.5772C89.9931 70.4622 93.5574 70.5638 93.5574 70.5638C95.8653 70.5638 98.0048 71.2467 98.8251 72.5942C99.6754 73.9884 99.9104 75.6608 98.3113 77.7027C97.4311 78.8287 96.3978 80.0147 93.3977 81.2374L96.8551 80.4996C102.023 79.3936 106.714 76.4868 107.792 74.2333C108.58 72.5876 108.625 71.2684 107.989 70.2241C106.693 68.0937 103.528 66.8325 97.9084 66.5459C97.9084 66.5459 95.6863 66.2441 92.2622 66.2531L92.2644 66.2532ZM87.6095 73.3769C86.0342 73.3984 80.7627 74.1767 76.6552 78.0993C72.8398 81.4757 68.7181 90.2453 65.4401 100.689C71.0792 100.096 76.1912 99.8279 76.1912 99.8279L81.5526 99.5963C82.962 99.5963 84.4445 99.5201 85.9406 99.3519C90.0506 96.8134 95.1935 94.396 101.066 92.7587C101.437 92.264 101.757 91.7411 102.011 91.1881C102.602 89.9205 102.67 88.3449 102.249 87.0991C101.615 85.2085 100.352 83.9495 96.3719 83.0167C91.1339 81.7924 83.4826 82.3321 83.4826 82.3321C85.243 78.053 86.5577 75.5508 87.8737 73.3823C87.803 73.3777 87.7145 73.3754 87.6095 73.3769ZM82.9782 83.416H88.6724C91.611 83.416 92.9623 84.6222 93.5814 85.6383C94.5515 87.229 94.3784 89.3726 93.177 92.0577C90.8591 97.2363 85.2433 97.7027 83.5576 97.7027L77.0965 97.9491C79.8969 89.0543 82.9782 83.416 82.9782 83.416Z" fill="#9A7611"/>
<path d="M129.694 82.5114C129.113 82.4882 128.517 82.5643 127.938 82.753C125.62 83.5042 124.436 85.7681 125.294 87.8051C126.153 89.8406 128.73 90.8832 131.048 90.1269C133.368 89.3723 134.551 87.112 133.692 85.0767C133.048 83.5476 131.437 82.5809 129.694 82.5114ZM131.277 84.7954C132.244 84.8282 133.131 85.402 133.481 86.3177C133.95 87.537 133.28 88.9009 131.987 89.3656C130.694 89.827 129.271 89.2161 128.804 87.9935C128.336 86.7742 129.01 85.4117 130.299 84.9502C130.622 84.8336 130.954 84.7844 131.277 84.7954Z" fill="#C8102E"/>
<path d="M129.919 83.5669C129.492 83.5604 129.055 83.6228 128.629 83.7621C126.832 84.3451 125.9 86.0604 126.549 87.5995C126.945 88.5423 127.85 89.1972 128.905 89.4237C128.386 89.0956 127.968 88.6359 127.729 88.0712C127.083 86.5421 128.016 84.8231 129.809 84.2387C130.501 84.0138 131.218 83.9885 131.874 84.1334C131.314 83.7795 130.63 83.5777 129.919 83.5669ZM151.367 90.9311L155.65 94.3871L147.681 93.6958L153.989 98.2615C147.221 96.0461 128.988 90.0664 113.881 93.8474C113.881 93.8474 130.459 93.6608 138.025 98.1814C110.021 93.6057 95.459 103.342 95.459 103.342C111.21 98.8393 123.781 100.082 127.909 100.698C121.284 102.282 129.083 107.136 133.849 109.673C134.39 111.004 135.696 113.722 134.418 116.011C134.418 116.011 135.854 114.182 136.901 111.492L140.776 114.607C152.344 113.178 160.877 115.618 170.456 115.571C177.345 115.533 182.499 114.911 186.554 113.964C171.587 107.542 142.283 104.796 137.744 105.167C137.744 105.167 135.263 105.867 138.119 108.612C134.125 107.038 130.138 104.038 129.862 102.519C129.571 100.905 132.488 100.453 139.395 101.266C165.26 104.324 187.645 108.658 190.669 115.001C190.669 115.001 192.249 107.061 179.353 99.4989C168.319 92.1349 151.367 90.9307 151.367 90.9307L151.367 90.9311Z" fill="white"/>
</svg>
