<svg width="200" height="200" viewBox="0 0 200 200" fill="none" xmlns="http://www.w3.org/2000/svg">
<g clip-path="url(#clip0_106_4315)">
<path d="M25.83 126.538C38.8996 118.191 43.0108 108.789 43.0108 108.789L6 114.102L21.7284 86.1605L53.33 83.4993C53.33 83.4993 65.6244 72.5249 84.6596 64.6561C84.6596 64.6561 86.6448 61.1937 97.516 54.9349C97.516 54.9349 107.487 49.0617 118.842 45.3037C118.842 45.3037 126.538 42.6561 128.808 42.5229L128.141 40.0749L142.652 38.8313L143.026 37.4409C143.026 37.4409 150.6 37.9521 154.944 39.8753L155.8 38.7357C155.8 38.7357 165.937 43.3965 173.482 54.8489C173.482 54.8489 180.8 54.4417 187.35 57.5769C187.35 57.5769 194.292 60.3381 193.979 68.3989C193.979 68.3989 193.932 78.6841 190.858 88.8773C190.858 88.8773 190.386 90.4733 189.948 91.4253C189.948 91.4253 189.31 92.7237 188.078 94.3629C188.078 94.3629 184.641 97.9037 183.308 101.021C183.308 101.021 182.585 103.095 181.15 106.863C181.15 106.863 180.046 112.045 172.52 112.333C172.52 112.333 165.196 121.603 162.142 124.265L161.884 122.013C161.884 122.013 156.774 126.748 152.34 129.544L153.838 116.419C153.838 116.419 154.206 114.075 152.718 113.907L148.89 113.815C148.89 113.815 150.143 121.715 148.63 125.367C148.63 125.367 147.667 131.101 138.773 133.831C138.773 133.831 131.901 136.019 124.039 136.634L122.349 136.365L109.972 141.439L113.59 128.457C113.59 128.457 108.952 128.927 108.553 128.346L94.7708 134.256L100.188 118.729L103.9 116.672L102.716 115.063L95.096 115.131L92.2924 117.313C85.82 115.627 79.528 116.081 79.528 116.081L47.5016 142.082L39.4768 159.826L29.8936 147.009L32.8928 143.085L31.7536 142.227L27.4096 145.646L20.9784 162.974L11.5068 149.602L13.9424 144.168L13.404 140.839C16.2232 138.976 18.0476 137.729 19.4728 136.127C20.25 135.124 20.6788 134.776 21.5812 133.09C22.4328 131.03 22.464 128.799 23.4136 128.092C24.602 127.285 25.5104 126.743 25.8296 126.539" fill="#FFFFFE"/>
<path d="M23.5259 88.9608L11.2803 110.548L169.29 86.9908C169.29 86.9908 163.798 82.8136 171.759 76.208L23.5259 88.9608Z" fill="#C60C30"/>
<path d="M183.918 73.2019L57.727 83.5715C71.2782 72.4795 89.9002 65.7527 89.9002 65.7527L88.2458 64.8439L91.345 63.3851L91.7894 62.0495C116.165 45.7247 133.348 44.9279 133.348 44.9279L132.573 42.6211C140.905 41.7515 144.724 41.7791 144.724 41.7791L145.043 40.9055C151.33 40.8351 155.77 43.8919 155.77 43.8919L156.713 42.4859C169.707 51.4827 171.586 58.0451 171.586 58.0451C181.013 57.2735 186.048 60.0523 186.048 60.0523C192.823 62.9663 190.801 72.8579 190.801 72.8579C190.817 74.7635 188.935 84.7627 188.935 84.7627C187.377 91.6619 184.572 94.2899 184.572 94.2899C180.948 97.8579 180.069 101.485 180.069 101.485C178.193 106.647 177.53 107.313 177.53 107.313C176.083 109.684 170.218 109.567 170.218 109.567C168.847 112.878 163.505 118.665 163.505 118.665L163.015 117.016L155.963 123.301L157.067 114.557C157.471 111.574 154.258 110.889 154.258 110.889L138.841 111.562C136.586 122.057 128.485 123.661 128.485 123.661C116.805 126.025 109.043 125.543 109.043 125.543L108.543 125.167L99.6242 129.05L102.768 120.334L107.521 118.446C107.887 118.328 107.754 117.839 107.754 117.839L107.3 116.442C112.197 116 116.666 112.561 116.666 112.561C117.235 112.099 116.382 111.903 116.382 111.903L93.6898 112.404L91.9006 114.121C72.2998 110.877 58.8758 116.607 58.8758 116.607C43.6602 122.276 34.4082 136.76 34.4082 136.76L24.9542 144.023L20.1794 156.917L14.9014 149.336L17.057 144.387L16.7282 142.081C21.331 139.135 23.3178 135.671 23.3178 135.671C24.921 133.537 24.7958 131.772 24.7958 131.772C24.9114 130.358 26.2034 129.6 26.2034 129.6C43.821 118.945 46.4774 107.692 46.4774 107.692L170.703 88.8879C168.68 98.3351 176.327 94.8923 176.327 94.8923C171.38 91.4007 175.857 88.9195 175.857 88.9195C171.579 81.6403 183.917 73.2019 183.917 73.2019H183.918ZM140.39 113.501L145.721 113.44C145.721 113.44 146.787 120.478 146.155 123.618C146.155 123.618 145.104 128.284 140.341 130.109C140.341 130.109 133.325 133.08 122.804 133.754L122.295 133.317L114.319 136.684L116.939 127.405C116.939 127.405 127.63 126.578 130.86 125.611C130.86 125.611 139.149 123.981 140.39 113.5V113.501ZM74.7218 116.256L45.1974 140.183L38.819 154.32L33.1594 146.733L36.3486 142.337L36.0998 140.588C42.813 136.832 42.8482 131.294 42.8482 131.294C55.8046 116.029 74.7218 116.256 74.7218 116.256Z" fill="#00338D"/>
</g>
<defs>
<clipPath id="clip0_106_4315">
<rect width="200" height="200" fill="white"/>
</clipPath>
</defs>
</svg>
