<svg width="200" height="200" viewBox="0 0 200 200" fill="none" xmlns="http://www.w3.org/2000/svg">
<path d="M176.14 56.8885C176.14 56.8885 176.121 56.9109 176.112 56.9205C176.08 56.9589 176.051 57.0005 176.016 57.0357C176.057 56.9877 176.099 56.9397 176.137 56.8853L176.14 56.8885Z" fill="white"/>
<path d="M179.712 44.6159C179.717 44.2716 179.66 43.9292 179.545 43.6047C176.038 33.7935 166.521 35.0223 160.835 35.7583C159.491 35.9311 157.526 36.1839 156.71 36.0719C154.855 34.0018 152.825 32.096 150.643 30.3759C150.689 29.9297 150.631 29.4789 150.474 29.0589C150.316 28.639 150.063 28.2615 149.734 27.9563C149.434 27.6785 149.078 27.4675 148.69 27.3373C148.302 27.2072 147.891 27.1607 147.484 27.2011C147.103 27.2267 145.99 27.2555 144.931 27.2555C144.721 26.7776 144.39 26.3628 143.971 26.0523C143.075 25.3739 142.035 25.2779 141.331 25.2651C140.989 24.7517 140.499 24.3544 139.926 24.1259C134.732 22.0331 129.129 20.9835 123.279 21.0123C115.74 21.0507 107.673 22.8811 99.2978 26.4491C94.9682 25.8091 91.3042 24.6923 87.7618 23.6011C83.157 22.1867 78.8082 20.8491 73.707 20.8011C69.6238 20.7627 65.4734 21.5787 61.0222 23.2971C60.3043 23.5751 59.7195 24.1164 59.387 24.8107C58.4238 24.6059 57.6078 24.4139 57.291 24.3211C56.8986 24.1898 56.4825 24.1448 56.071 24.1889C55.6596 24.2331 55.2626 24.3655 54.907 24.5771C54.4168 24.8717 54.0249 25.3049 53.7806 25.8219C53.3614 25.8763 52.9934 25.9787 52.6606 26.1579C52.3096 26.3455 52 26.6017 51.7498 26.9113C51.4997 27.2208 51.3143 27.5774 51.2046 27.9599C51.1472 28.1612 51.1118 28.3682 51.099 28.5771C51.099 28.5967 51.099 28.6159 51.0958 28.6383C49.8126 28.9423 48.8202 29.5211 48.0202 30.0591C47.8314 30.0079 47.649 29.9567 47.4506 29.9087C47.3194 29.8767 47.201 29.8539 47.1018 29.8351L46.9994 29.8159C46.7658 29.7679 46.5674 29.7259 46.3466 29.6879C46.2188 29.6672 46.0908 29.648 45.9626 29.6303L45.857 29.6143C45.633 29.5823 45.4346 29.5531 45.217 29.5307C45.0634 29.5147 44.9162 29.5019 44.7882 29.4923L44.6922 29.4863C44.497 29.4703 44.2826 29.4511 44.049 29.4415C43.8794 29.4315 43.7162 29.4287 43.569 29.4255H43.505C43.2896 29.4187 43.0741 29.4155 42.8586 29.4159C42.6506 29.4159 42.4586 29.4219 42.2922 29.4283C42.0554 29.4383 41.841 29.4479 41.6426 29.4603C41.4602 29.4731 41.2682 29.4863 41.0602 29.5051C40.849 29.5243 40.6282 29.5471 40.4074 29.5755C40.2058 29.6015 40.0042 29.6271 39.8122 29.6555C39.6234 29.6847 39.4122 29.7195 39.1594 29.7647C38.9194 29.8095 38.737 29.8447 38.561 29.8799C38.321 29.9311 38.1002 29.9823 37.8954 30.0303C37.713 30.0751 37.5082 30.1231 37.2938 30.1807C37.057 30.2447 36.8426 30.3119 36.6346 30.3727C36.6282 30.3727 36.545 30.4015 36.545 30.4015C36.3882 30.4495 36.209 30.5039 36.0202 30.5679C35.8058 30.6415 35.601 30.7183 35.4186 30.7855L35.3578 30.8079L35.249 30.8495C35.1018 30.9039 34.9354 30.9647 34.7594 31.0383C34.5514 31.1215 34.3562 31.2111 34.1866 31.2879L34.0906 31.3327L33.9594 31.3903C33.8083 31.4547 33.6589 31.523 33.5114 31.5951C33.3066 31.6943 33.1146 31.7967 32.945 31.8863L32.8202 31.9535L32.6826 32.0271C32.5642 32.0879 32.4266 32.1583 32.2762 32.2447L32.0682 32.3663C32.001 32.3631 31.9338 32.3439 31.8634 32.3439C31.3431 32.3444 30.8325 32.4848 30.385 32.7503C30.024 32.965 29.6707 33.1923 29.3258 33.4319C29.2138 33.5087 29.089 33.5919 28.9578 33.6879C28.7109 33.8675 28.4676 34.0521 28.2282 34.2415C28.1802 34.2799 28.1226 34.3343 28.0714 34.3759C27.745 34.4975 27.425 34.6287 27.1082 34.7887C26.9514 34.8687 26.8554 34.9199 26.7786 34.9615C26.7338 34.9871 26.6954 35.0063 26.6474 35.0351L26.4394 35.1567C26.433 35.1599 26.385 35.1887 26.3786 35.1919L26.3658 35.2015C26.353 35.2079 26.2858 35.2495 26.273 35.2559C26.1802 35.3135 26.1066 35.3615 26.049 35.3999C26.0298 35.4127 26.0074 35.4287 26.0074 35.4287C25.9754 35.4511 25.9274 35.4799 25.8762 35.5151C25.7866 35.5759 25.713 35.6303 25.6458 35.6751C25.6138 35.6975 25.5082 35.7743 25.5082 35.7743C25.425 35.8351 25.3642 35.8831 25.3098 35.9247C25.233 35.9823 25.185 36.0207 25.1338 36.0623C25.0602 36.1231 24.9866 36.1807 24.929 36.2287C24.8714 36.2767 24.8266 36.3151 24.7754 36.3567C24.7114 36.4111 24.6538 36.4623 24.6058 36.5071L24.4266 36.6703C24.3594 36.7343 24.2954 36.7919 24.241 36.8463C24.1994 36.8879 24.145 36.9391 24.0842 36.9967L23.9178 37.1663C23.889 37.1951 23.7578 37.3327 23.7578 37.3327C23.7482 37.3423 23.5882 37.5183 23.5882 37.5183L23.4378 37.6879C23.3834 37.7487 23.3322 37.8095 23.2746 37.8767C23.1844 37.9831 23.0958 38.0908 23.009 38.1999C22.9162 38.3183 22.865 38.3823 22.8202 38.4431C22.7818 38.4943 22.7306 38.5615 22.689 38.6223C22.6346 38.6959 22.5866 38.7631 22.5382 38.8271L22.4074 39.0159C22.3594 39.0863 22.3114 39.1567 22.2634 39.2303L22.1322 39.4319C22.1354 39.4255 22.0006 39.6431 22.0006 39.6431C21.9942 39.6527 21.8854 39.8319 21.8854 39.8319C21.831 39.9215 21.7866 40.0015 21.7446 40.0783C21.7126 40.1327 21.6746 40.1999 21.6358 40.2735C21.5974 40.3439 21.5558 40.4207 21.5078 40.5167L21.4118 40.7055C21.3638 40.7983 21.3258 40.8847 21.287 40.9647L21.1942 41.1663C21.153 41.2591 21.1142 41.3487 21.0794 41.4287C21.0666 41.4607 20.9994 41.6175 20.9994 41.6175C20.9542 41.7263 20.9194 41.8191 20.8874 41.9023C20.8906 41.8959 20.8166 42.0911 20.8166 42.0911L20.7078 42.3951C20.6822 42.4719 20.663 42.5231 20.6438 42.5807C20.6054 42.6927 20.5738 42.8015 20.5446 42.8943C20.526 42.9525 20.509 43.0112 20.4934 43.0703C20.4586 43.1919 20.4294 43.3007 20.4038 43.4031C20.385 43.4735 20.3718 43.5183 20.3594 43.5727C20.3274 43.7007 20.3014 43.8191 20.2794 43.9247C20.2675 43.9767 20.2568 44.029 20.2474 44.0815C20.2186 44.2255 20.1958 44.3567 20.177 44.4655C20.1702 44.5071 20.161 44.5487 20.1546 44.5999C20.1286 44.7695 20.1066 44.9263 20.0934 45.0447C20.0934 45.0447 20.087 45.0799 20.0842 45.1279C19.9985 45.8585 19.9782 46.5953 20.0234 47.3295C20.0234 47.3615 20.0298 47.4255 20.033 47.4575C20.0394 47.5823 20.0554 47.7391 20.0714 47.8927C20.0714 47.9151 20.0842 47.9983 20.0874 48.0207V48.0303C20.1034 48.1519 20.1194 48.2959 20.1446 48.4495C20.1542 48.5039 20.1606 48.5551 20.167 48.5903C20.193 48.7343 20.215 48.8655 20.2442 49.0127C20.257 49.0767 20.2698 49.1279 20.2762 49.1631C20.3082 49.3103 20.3366 49.4351 20.3722 49.5759C20.3882 49.6399 20.401 49.6911 20.4138 49.7263C20.4522 49.8703 20.4874 49.9983 20.529 50.1359C20.5841 50.3233 20.6449 50.509 20.7114 50.6927C20.7402 50.7695 20.7626 50.8335 20.7818 50.8847C20.8298 51.0095 20.8746 51.1311 20.9286 51.2623C20.9542 51.3199 20.9766 51.3775 20.999 51.4255C21.063 51.5727 21.1142 51.6911 21.1722 51.8159C21.2042 51.8863 21.2362 51.9503 21.2618 52.0015C21.3499 52.1846 21.4437 52.365 21.543 52.5423C21.6362 52.7087 21.6938 52.8111 21.751 52.9071L21.8858 53.1311C21.9526 53.2399 22.0198 53.3455 22.0838 53.4447C22.1318 53.5151 22.1798 53.5855 22.2278 53.6591C22.3498 53.8396 22.4768 54.0168 22.6086 54.1903C22.6858 54.2927 22.7658 54.3983 22.8458 54.4975C22.9002 54.5647 22.9578 54.6383 23.0154 54.7087L23.2682 55.0095L23.4506 55.2175C23.5338 55.3103 23.6202 55.4031 23.7194 55.5087C23.7962 55.5919 23.8602 55.6591 23.921 55.7199C24.017 55.8191 24.113 55.9119 24.1994 55.9983L24.4138 56.2031C24.5066 56.2895 24.6026 56.3791 24.721 56.4847C24.7434 56.5039 24.945 56.6831 24.945 56.6831C25.057 56.7823 25.169 56.8751 25.265 56.9551C25.2586 56.9487 25.4954 57.1475 25.4954 57.1475C25.6106 57.2403 25.7162 57.3203 25.8378 57.4163C25.921 57.4803 26.001 57.5411 26.0874 57.6051C26.209 57.6979 26.3274 57.7811 26.4394 57.8611L26.7018 58.0467C26.8362 58.1395 26.961 58.2227 27.0794 58.3027L27.1402 58.3411L27.3482 58.4787C27.4762 58.5587 27.5946 58.6323 27.7098 58.7027C27.7514 58.7283 27.8218 58.7699 27.8218 58.7699L28.0266 58.8947C28.1706 58.9811 28.3082 59.0579 28.4394 59.1347C28.4522 59.1411 28.5194 59.1795 28.5194 59.1795C28.5834 59.2179 28.6602 59.2595 28.7434 59.3075C28.8682 59.3747 28.9898 59.4419 29.1082 59.5027L29.1882 59.5443L29.2778 59.5923L29.4826 59.7011C29.6458 59.7843 29.8026 59.8611 29.953 59.9347C29.969 59.9443 30.049 59.9827 30.049 59.9827C30.1098 60.0147 30.1802 60.0467 30.257 60.0851C30.4298 60.1683 30.6058 60.2483 30.7722 60.3251C30.8042 60.3379 30.8746 60.3731 30.8746 60.3731C30.897 60.3859 30.9322 60.3987 30.961 60.4115C30.9162 63.2115 30.1898 64.5267 29.0954 66.4851C28.1386 68.2003 26.945 70.3315 26.081 73.7843C25.9876 74.1562 25.9691 74.543 26.0268 74.9221C26.0845 75.3012 26.2172 75.665 26.417 75.9923C26.6171 76.3199 26.8802 76.6046 27.1911 76.8298C27.502 77.055 27.8545 77.2163 28.2282 77.3043C28.3274 77.3267 28.3754 77.3523 28.3914 77.3587C29.0026 78.0435 28.5546 81.8419 28.3114 83.8835C27.7642 88.5047 27.0954 94.1879 30.0522 98.2103L30.2794 100.898C30.2474 100.965 30.2218 101.017 30.2218 101.017C30.2218 101.02 30.1866 101.09 30.1866 101.09C30.1162 101.231 30.0586 101.356 30.0042 101.474C29.9818 101.522 29.9722 101.545 29.9722 101.545C29.9018 101.701 29.8474 101.82 29.7994 101.935C29.8058 101.919 29.761 102.025 29.761 102.025L29.6106 102.383L29.5786 102.47L29.569 102.492C29.5146 102.63 29.4698 102.745 29.4314 102.853C29.4314 102.86 29.4058 102.921 29.4058 102.927L29.3994 102.946C29.3482 103.097 29.3066 103.209 29.2746 103.318C29.2714 103.33 29.249 103.394 29.2458 103.407L29.2394 103.426C29.2042 103.538 29.1658 103.663 29.1306 103.794C29.1178 103.839 29.1082 103.881 29.0986 103.913C29.0602 104.057 29.0346 104.169 29.009 104.274C28.9962 104.329 28.9866 104.374 28.9802 104.406C28.9482 104.559 28.929 104.671 28.9098 104.78C28.9098 104.799 28.8938 104.879 28.8906 104.901V104.914C28.8711 105.036 28.854 105.157 28.8394 105.279C28.833 105.34 28.8266 105.397 28.8266 105.429C28.817 105.545 28.8074 105.666 28.801 105.804C28.801 105.83 28.7978 105.919 28.7978 105.945V105.958C28.7978 106.05 28.7914 106.178 28.7978 106.322C28.7978 106.351 28.801 106.444 28.8042 106.473V106.485C28.8106 106.594 28.817 106.725 28.8298 106.866C28.8362 106.927 28.8426 106.985 28.849 107.02C28.8618 107.129 28.8778 107.253 28.9034 107.397C28.913 107.452 28.9258 107.513 28.9322 107.551C28.9546 107.663 28.977 107.782 29.009 107.916C29.0314 108.006 29.0474 108.057 29.057 108.092C29.0858 108.194 29.1178 108.306 29.1562 108.434C29.185 108.524 29.2042 108.575 29.217 108.61C29.2522 108.706 29.2938 108.825 29.345 108.953C29.377 109.033 29.4058 109.094 29.425 109.135C29.4634 109.218 29.5114 109.33 29.5722 109.455C29.6074 109.525 29.6362 109.58 29.6554 109.618C29.7118 109.728 29.7705 109.837 29.8314 109.945C29.8666 110.005 29.8986 110.053 29.9178 110.085C29.937 110.117 29.9466 110.13 29.9466 110.13C29.9914 110.204 30.049 110.3 30.1194 110.402C30.1642 110.47 30.1994 110.521 30.225 110.556C30.2939 110.659 30.3654 110.76 30.4394 110.86C30.4906 110.927 30.529 110.978 30.5578 111.013C30.6346 111.112 30.7125 111.211 30.7914 111.308C30.8362 111.362 30.8842 111.417 30.9194 111.455C30.9514 111.49 30.9834 111.529 30.9834 111.529L31.1626 111.734C31.217 111.794 31.2714 111.849 31.3162 111.897C31.345 111.929 31.3834 111.967 31.3834 111.967C31.4314 112.018 31.489 112.079 31.5562 112.146C31.6234 112.217 31.6874 112.277 31.7418 112.325L31.8058 112.389C31.8538 112.437 31.9114 112.495 31.9786 112.556C32.065 112.636 32.1354 112.697 32.1962 112.754L32.2794 112.828C32.321 112.866 32.369 112.911 32.4266 112.962C32.5226 113.045 32.6026 113.113 32.6762 113.173L32.7242 113.212C32.7946 113.273 32.849 113.317 32.9066 113.365C33.0058 113.445 33.1018 113.522 33.1914 113.593L33.2458 113.637L33.297 113.679L33.4026 113.762C33.553 113.877 33.7034 113.993 33.8794 114.121L33.9466 114.172C33.9786 114.194 34.017 114.22 34.049 114.246C35.3034 121.926 37.6746 127.862 41.1082 131.891C41.4699 132.315 41.9465 132.626 42.4807 132.786C43.0148 132.946 43.5839 132.949 44.1194 132.793C45.3226 132.441 46.401 132.252 47.3226 132.224C48.6794 132.182 49.5914 132.48 50.0302 133.11C50.5102 133.795 50.4814 134.867 50.2734 135.379C50.0524 135.928 50.0051 136.531 50.1378 137.108C50.2706 137.685 50.577 138.207 51.0158 138.604C60.779 147.453 66.4526 148.749 70.2062 149.606C73.0766 150.262 74.1582 150.509 76.219 154.019C78.3502 157.923 79.685 161.369 80.8626 164.409C83.8354 172.086 86.1842 178.151 98.0114 179.232C100.178 179.431 102.635 179.472 105.522 179.36C105.95 179.35 106.378 179.326 106.805 179.287C107.176 179.255 107.522 179.204 107.819 179.159C107.874 179.152 107.96 179.143 108.063 179.127C108.802 179.004 109.531 178.83 110.245 178.605C110.386 178.576 110.517 178.544 110.636 178.509C110.658 178.503 110.681 178.5 110.7 178.493C110.703 178.493 110.706 178.493 110.713 178.49C110.969 178.416 111.183 178.336 111.385 178.24C111.522 178.176 111.634 178.119 111.724 178.071L111.829 178.02C111.769 178.052 111.727 178.068 111.666 178.096C111.957 177.972 112.249 177.84 112.524 177.7C112.45 177.737 112.374 177.771 112.297 177.802C112.408 177.754 112.517 177.701 112.623 177.642C113.46 177.215 114.253 176.707 114.991 176.125C115.633 175.616 116.233 175.055 116.783 174.448C116.86 174.362 116.956 174.26 117.055 174.144C117.215 173.959 117.356 173.786 117.493 173.616C117.602 173.479 117.698 173.348 117.785 173.232C117.785 173.232 117.826 173.175 117.829 173.171C118.004 172.935 118.173 172.694 118.335 172.448C118.501 172.199 118.633 171.994 118.754 171.795C118.981 171.416 119.197 171.029 119.401 170.637L119.452 170.541C119.5 170.454 119.551 170.355 119.605 170.24C119.781 169.882 119.954 169.507 120.114 169.13C120.153 169.037 120.185 168.963 120.21 168.896L120.245 168.806C120.374 168.489 120.497 168.17 120.617 167.85C120.617 167.843 120.639 167.782 120.639 167.782L120.745 167.485C120.825 167.251 120.901 167.03 120.969 166.816C121.112 166.61 121.226 166.385 121.308 166.147L121.634 165.19C122.879 161.453 123.231 159.091 123.378 156.992C127.109 155.107 130.249 150.688 133.541 146.045C135.983 142.598 139.023 138.307 141.052 137.58C141.148 137.548 141.238 137.51 141.331 137.465C142.87 136.726 144.799 136.313 146.841 135.871C148.732 135.465 150.876 135.001 153.023 134.211C152.917 134.249 152.809 134.282 152.7 134.31C153.145 134.201 153.551 134.032 153.932 133.83C153.951 133.836 153.971 133.849 153.993 133.859C154.125 133.914 154.261 133.96 154.399 133.996C154.419 134.003 154.441 134.003 154.463 134.009C154.579 134.035 154.697 134.057 154.819 134.067C154.863 134.073 154.908 134.073 154.953 134.076C155.007 134.076 155.059 134.086 155.113 134.086C155.145 134.086 155.174 134.076 155.203 134.076C155.323 134.072 155.442 134.061 155.561 134.041C155.615 134.032 155.673 134.028 155.727 134.016C155.878 133.983 156.026 133.938 156.169 133.881C156.188 133.875 156.207 133.872 156.227 133.862C156.377 133.798 156.524 133.724 156.665 133.635C156.678 133.625 156.691 133.616 156.707 133.606C156.711 133.605 156.716 133.603 156.719 133.6C156.715 133.6 156.71 133.603 156.707 133.606L156.735 133.587C158.614 132.371 159.66 130.742 160.268 129.244C160.46 129.148 160.646 129.04 160.812 128.905C161.036 128.75 161.248 128.577 161.446 128.39C161.468 128.368 161.526 128.313 161.593 128.243C161.843 127.977 162.057 127.699 162.239 127.401C162.265 127.36 162.313 127.273 162.339 127.232C162.339 127.232 162.329 127.251 162.316 127.273C162.403 127.123 162.479 126.972 162.553 126.822C163.009 126.59 163.399 126.248 163.689 125.827C164.007 125.358 164.311 124.88 164.601 124.393L164.681 124.313C165.6 123.401 167.305 121.702 167.792 118.441C167.811 118.316 167.83 118.176 167.853 118.012C167.894 117.683 167.936 117.318 167.974 116.905C168.605 115.276 169.328 113.957 170.032 112.684C170.819 111.257 171.561 109.909 172.102 108.287C172.189 108.025 172.259 107.797 172.323 107.567C172.336 107.519 172.349 107.471 172.355 107.439C172.419 107.202 172.467 107.004 172.509 106.815C172.525 106.741 172.537 106.678 172.547 106.626C172.598 106.383 172.63 106.204 172.659 106.031C172.675 105.938 172.685 105.855 172.697 105.785C172.733 105.554 172.755 105.378 172.771 105.206C172.781 105.113 172.79 105.02 172.797 104.94C172.819 104.69 172.829 104.514 172.838 104.351C172.845 104.233 172.848 104.111 172.851 104.002C172.857 103.814 172.861 103.631 172.861 103.458C172.861 103.33 172.861 103.202 172.857 103.074C172.854 102.889 172.845 102.706 172.835 102.524C172.829 102.383 172.819 102.242 172.809 102.111C172.786 101.781 172.754 101.451 172.713 101.122C172.69 100.93 172.664 100.738 172.637 100.546C172.617 100.402 172.595 100.249 172.566 100.082C172.534 99.8775 172.496 99.6759 172.461 99.4839C172.425 99.2983 172.4 99.1575 172.368 99.0007C172.325 98.79 172.279 98.5798 172.23 98.3703L172.214 98.2903L172.118 97.8711C172.055 97.6043 171.987 97.3386 171.913 97.0743L171.808 96.6775C171.747 96.4503 171.68 96.2263 171.619 96.0119L171.561 95.8135L171.446 95.4199C171.446 95.4199 171.427 95.3591 171.398 95.2727C171.703 95.0063 171.948 94.679 172.118 94.3119C172.289 93.9448 172.38 93.5461 172.387 93.1415C172.63 78.6547 171.273 69.1635 167.917 62.5363C168.016 62.4947 168.118 62.4563 168.214 62.4147L168.342 62.3603L168.48 62.3059C168.579 62.2675 168.691 62.2227 168.813 62.1715C169.158 62.0243 169.469 61.8739 169.769 61.7331C169.785 61.7235 169.821 61.7107 169.853 61.6947C169.926 61.6627 170.019 61.6211 170.118 61.5699C170.447 61.4074 170.772 61.2355 171.091 61.0547L171.126 61.0355C171.181 61.0067 171.254 60.9683 171.337 60.9235C171.721 60.7059 172.057 60.4915 172.307 60.3315C172.281 60.3475 172.297 60.3379 172.297 60.3379C172.339 60.3123 172.409 60.2707 172.486 60.2195C172.806 60.0081 173.119 59.7861 173.424 59.5539C173.411 59.5635 173.465 59.5283 173.529 59.4771C173.833 59.2435 174.131 58.9971 174.441 58.7219C174.409 58.7507 174.397 58.7603 174.365 58.7891C174.403 58.7571 174.454 58.7155 174.515 58.6611C174.807 58.3971 175.088 58.1206 175.357 57.8323C175.328 57.8643 175.309 57.8835 175.28 57.9123C175.312 57.8835 175.35 57.8387 175.382 57.8067C175.648 57.5188 175.9 57.2186 176.137 56.9071C176.153 56.8879 176.169 56.8719 176.182 56.8527C177.465 55.1695 178.201 53.2655 178.381 51.1919C178.601 50.876 178.804 50.5481 178.989 50.2095C179.001 50.1839 179.014 50.1615 179.027 50.1359C180.016 48.2735 180.249 46.3343 179.734 44.6063L179.712 44.6159ZM110.345 178.586C110.345 178.586 110.325 178.589 110.316 178.592C110.357 178.579 110.402 178.57 110.441 178.557L110.345 178.586ZM155.097 134.096C155.046 134.096 154.998 134.089 154.95 134.086C155.027 134.089 155.107 134.086 155.183 134.086C155.155 134.086 155.126 134.096 155.097 134.096ZM175.513 49.9791C175.641 54.9679 171.657 58.6291 163.561 60.9619C167.453 66.3763 169.769 75.1123 169.469 93.1063L167.27 92.2807C173.357 108.245 167.571 108.137 164.662 117.551C164.662 117.561 164.662 117.571 164.659 117.58C164.463 118.895 164.038 119.657 163.567 120.198C162.844 121.715 162.079 123.04 161.283 124.195C160.892 124.761 161.094 121.872 160.691 122.361C160.31 122.825 160.598 125.737 159.027 126.62C158.559 127.097 158.953 124.323 158.47 124.72C158.089 125.033 158.377 129.113 155.094 131.2C156.479 128.377 155.884 128.182 155.369 128.47C154.892 128.735 153.654 131.107 152.003 131.507C147.753 133.075 143.481 133.225 140.06 134.867C133.909 137.065 127.417 153.549 120.565 154.966C120.45 157.846 120.329 160.157 118.559 165.203C118.498 165.261 118.434 165.315 118.373 165.373C116.239 172.631 111.916 176.333 105.394 176.477C83.269 177.325 87.5538 168.758 78.7218 152.598C72.8718 142.617 70.0782 152.003 52.9422 136.467C54.0558 133.702 52.9422 127.219 43.2906 130.022C40.017 126.179 37.8186 120.367 36.6986 112.588C30.6314 108.524 30.7754 106.009 33.3098 101.305L32.7434 96.9783C27.1946 90.7255 35.4602 76.0371 28.8682 74.4883C30.7818 66.8435 34.3274 66.7539 33.7802 58.4563C16.0294 51.6911 23.8314 37.7839 30.1162 36.7951V36.7983C30.5674 36.5487 31.073 36.3183 31.6362 36.1007C37.1882 31.9087 44.1002 31.5695 48.4842 33.2463C49.9342 32.3023 50.9774 31.2591 53.099 31.3167C53.5502 31.0511 55.3806 31.2847 55.819 31.0383C56.331 30.7503 53.5406 28.9743 54.0366 28.7115C54.4974 28.4655 59.6302 29.6975 60.075 29.4703C60.4526 29.2783 56.3918 27.0703 56.3918 27.0703C56.3918 27.1403 63.6942 28.7947 64.3758 28.4971C65.0606 28.1967 61.419 26.2539 62.0718 26.0011C77.8478 19.9147 84.901 27.6043 100.095 29.4891L100.242 29.1983C116.594 22.1771 129.321 22.9743 138.851 26.8143C139.513 27.0795 136.05 27.1919 137.494 27.9755C138.249 28.7055 141.478 27.7871 142.236 28.3695C142.662 28.5899 141.26 29.7707 142.102 29.9791C142.643 30.2831 147.798 30.1167 147.769 30.0879C147.558 30.5743 144.713 31.3071 145.254 31.6815C145.811 32.0655 147.843 31.8639 148.364 32.2639C150.979 34.2607 153.19 36.4207 155.014 38.5103C158.55 40.8815 172.771 33.2527 176.822 44.5871H176.813C177.869 46.2415 176.992 48.2351 175.517 49.9823L175.513 49.9791Z" fill="white"/>
<path d="M178.992 50.1746C179.005 50.1522 179.018 50.1266 179.03 50.1042C179.024 50.1202 179.014 50.133 179.008 50.1458C179.002 50.1554 179.002 50.165 178.995 50.1746H178.992ZM172.105 108.224C172.096 108.253 172.089 108.272 172.08 108.297L172.102 108.224H172.105ZM51.0923 28.5778C51.0923 28.5426 51.0923 28.5074 51.0987 28.4722L51.0891 28.5714C51.0891 28.597 51.0859 28.6162 51.0859 28.6386C51.0859 28.6194 51.0923 28.6002 51.0923 28.5778ZM178.989 50.1814C178.989 50.1814 178.973 50.207 178.967 50.2198C178.951 50.2486 178.938 50.2774 178.922 50.303C178.944 50.2646 178.97 50.223 178.992 50.1814H178.989ZM112.658 177.629C112.658 177.629 112.626 177.642 112.613 177.651C112.581 177.667 112.552 177.687 112.524 177.703C112.568 177.68 112.616 177.655 112.661 177.629H112.658Z" fill="white"/>
<path d="M147.386 42.2095C145.744 39.0319 143.373 37.7967 140.275 38.5039C140.275 28.2031 115.28 26.9967 109.376 31.0479C114.003 32.2671 118.675 32.6927 123.395 32.3215C118.441 35.7135 111.273 37.0383 105.283 34.7951C101.913 39.9919 106.889 46.5839 116.141 40.8655C118.256 40.2031 129.802 35.6175 137.603 45.7839C120.95 41.5247 116.057 55.7523 110.621 50.4815C109.168 48.4495 111.283 40.6959 99.5486 52.6803C101.229 42.3791 100.518 36.6511 99.0302 31.5631L99.1294 31.3679C90.2522 28.6063 81.5994 27.2623 73.1739 27.3391L77.225 31.0447C73.4362 31.3871 70.6107 31.7039 66.6395 31.8159C65.5227 31.8703 62.5334 31.7199 61.9958 31.8159C61.3334 31.9311 63.4198 32.7471 62.7766 32.8815C62.2454 32.9935 57.8006 31.7583 55.503 32.5391C57.9126 33.0511 59.3974 33.6751 59.0294 33.7775C56.7958 34.3919 55.7782 34.9295 53.9094 35.9567L54.7286 41.0415C49.231 37.8287 41.5158 36.1903 31.5858 36.1295C31.6018 36.1167 31.6178 36.1071 31.6306 36.0975C31.0706 36.3151 30.5618 36.5455 30.1106 36.7951C21.7234 48.7695 29.6626 51.7263 34.9078 53.7459C30.7826 49.5311 30.693 45.2239 35.9798 42.7247C40.6614 41.4575 44.6102 43.5407 47.8294 48.9743C38.7286 56.8819 38.6934 66.9043 40.031 83.1479L32.7474 96.9815L32.741 96.9751L33.3074 101.301C33.621 103.436 35.0354 104.169 37.5542 103.5C36.469 105.797 37.1794 108.991 37.5542 110.835C38.1302 109.519 39.0006 107.996 40.975 106.885C41.727 116.121 44.2934 125.036 51.0358 123.731C52.2326 125.247 54.015 127.129 56.0982 129.068C56.7094 129.638 57.7718 133.855 58.4246 134.428C59.0294 134.956 59.2246 131.839 59.855 132.358C60.5558 132.934 60.9782 138.061 61.695 138.608C61.7974 138.809 62.5014 134.127 64.0822 135.59C70.969 140.435 77.497 142.838 76.5786 135.484C39.3238 119.772 48.8406 84.0215 48.8406 84.0215L45.3366 87.4103C44.7446 81.6759 44.5814 76.5043 44.7926 71.9379C44.8374 70.9619 46.4086 68.2642 46.4886 67.3426C47.6118 65.1186 48.2294 63.1315 44.511 66.6003C44.3894 62.6355 48.2902 60.9907 48.6006 59.7843C48.8086 58.9747 46.7606 59.1635 47.0038 58.4275C51.2054 56.0659 50.1526 55.3747 50.5846 54.4595C51.0294 53.5187 49.119 53.6371 49.6374 52.8755C51.6278 49.9535 54.143 48.3727 57.0358 48.2543C53.7974 52.9555 50.031 62.1875 51.3334 70.6803C64.2358 67.5155 56.1302 55.1539 65.9706 48.6511C70.553 46.3599 73.289 45.8671 82.8474 50.7503C80.169 51.1695 75.9386 51.787 75.9578 54.997C77.6986 59.413 88.4122 53.7811 91.641 65.8387C88.137 63.9475 86.6266 63.397 84.0058 64.8306C90.473 66.9682 94.4574 68.8915 91.5738 76.1715C88.6874 70.6771 86.0922 69.6627 83.001 71.8707C82.5626 70.2707 81.9258 69.1123 81.1706 68.2131C80.7354 74.3635 77.081 76.581 71.161 72.565C71.6826 73.5346 72.505 74.597 73.6122 75.8194C71.5866 75.1218 70.2202 74.2418 69.513 73.1762C68.825 74.437 69.4106 75.7011 71.2634 76.9779C68.0826 82.9047 72.7514 83.3175 76.0474 80.9811C80.169 75.7619 82.7802 74.2514 85.4586 74.6322C82.3674 81.5318 73.7146 87.5767 78.7962 88.6743C75.8234 92.1495 75.7978 93.6791 78.7162 93.2567C76.8698 96.1367 76.7354 98.0151 78.7962 97.4647C77.0106 108.041 79.2538 111.411 82.9178 113.811C79.7594 118.479 81.1258 124.742 85.4778 132.166V132.182C85.5226 131.961 85.577 131.747 85.6346 131.542C85.1386 122.214 85.8138 121.676 88.0122 116.067C89.6218 117.011 90.3898 120.959 92.4954 121.766C93.3338 118.873 94.1566 117.078 94.963 116.387L97.4302 118.585L99.4494 117.731L100.841 118.358L102.185 117.462L104.563 118.268L106.851 116.566C107.443 116.185 107.936 117.859 108.333 121.587L111.337 117.727C112.739 120.121 113.113 125.715 112.461 134.505C115.533 130.671 117.581 127.007 118.249 123.337C119.225 119.983 118.493 117.023 116.051 114.457L120.765 116.991V116.953C123.418 117.612 125.299 116.719 125.917 114.127C133.504 125.027 121.501 137.676 118.685 145.853L120.278 148.688C128.144 140.477 132.637 133.987 133.751 129.225L136.586 132.028C137.671 130.684 138.407 128.38 138.784 125.116C151.907 130.55 153.13 116.771 161.079 116.041L163.597 120.118C163.585 120.143 163.572 120.169 163.559 120.198C164.029 119.66 164.455 118.895 164.65 117.58C164.65 117.571 164.65 117.561 164.653 117.551V117.558L163.69 113.987C165.703 104.338 165.565 97.1959 163.277 92.5559C167.46 83.6631 167.095 73.3619 162.177 61.6467C152.669 59.1667 149.235 53.9475 151.876 45.9855C156.82 51.3423 173.306 47.4959 175.501 49.9695V49.9759C176.977 48.2287 177.853 46.2319 176.797 44.5807C169.693 45.4319 165.981 37.6431 147.373 42.2095H147.386ZM37.6758 103.378C37.935 98.6423 37.4518 91.4999 38.9014 89.3079C42.4054 95.0327 42.7382 97.4263 37.6758 103.378ZM85.8138 53.2691C91.7018 47.8863 94.3582 41.2911 93.7818 33.4863C96.2782 36.5167 96.7358 41.3263 95.155 47.9087C93.369 65.3555 98.3134 54.9139 99.827 58.0723C100.63 59.3971 99.7566 62.6995 98.5918 66.7283L93.3722 64.6675C92.585 60.1875 90.0666 56.3858 85.817 53.2658L85.8138 53.2691ZM112.813 114.038C112.813 114.038 94.2942 112.726 85.4426 114.038L87.8138 112.233L83.977 111.155C77.801 100.162 84.5274 87.1479 87.9994 83.4743C87.5258 85.9863 86.5018 88.2551 90.2906 88.7095C94.3838 87.3815 96.3966 89.0935 96.3262 93.8519C94.1918 92.9975 93.0042 93.6695 92.7706 95.8647L88.1882 93.2023C86.5818 95.4295 87.2826 97.2535 90.2938 98.6775C91.9386 99.4263 95.5294 97.0391 97.3534 99.0487L95.9934 102.271C98.3774 102.457 104.505 99.7015 103.385 105.455L106.518 98.9559C111.446 97.1351 113.677 94.2967 113.206 90.4439C118.067 96.1463 111.901 99.5159 110.822 102.645L113.673 101.154C116.573 104.063 115.405 107.666 110.169 111.958L112.816 114.041L112.813 114.038ZM103.257 90.3959C105.113 87.1959 106.739 86.6935 108.621 89.1735C109.757 91.1799 109.725 93.0679 108.528 94.8343C107.36 96.0439 101.99 94.7799 103.257 90.3959ZM147.584 100.652C151.975 100.018 155.012 96.2487 156.695 89.3431L161.777 96.9495C159.361 98.3351 157.988 102.287 157.652 108.805C156.893 111.465 152.615 113.948 150.077 115.315C149.338 115.711 153.834 111.414 150.797 108.949C148.925 110.838 144.592 118.207 144.448 118.063C142.963 118.643 145.424 113.779 143.856 114.451C142.947 114.838 139.13 120.502 138.227 120.959C137.36 121.398 138.928 117.398 138.083 117.919C136.567 118.867 134.615 123.286 133.274 124.63C133.735 118.857 132.547 114.511 129.712 111.593C127.315 110.684 125.789 110.902 121.68 111.817C122.413 106.917 122.211 102.041 121.072 97.1895C128.355 112.486 145.018 87.3271 143.05 82.5623C138.602 88.4151 132.259 87.5319 124.029 79.9091C139.043 77.7619 139.799 75.781 133.322 69.797C133.418 71.125 130.784 73.0418 125.648 75.653C128.323 73.1698 129.651 71.1091 129.632 69.4707C129.197 65.7843 124.058 62.7027 119.683 66.7667C120.31 66.2195 121.181 65.9155 122.214 66.0371L123.175 68.0978L125.786 66.7251C129.767 69.0611 126.746 75.9283 120.701 72.7699C118.214 71.0195 118.144 68.4147 119.437 67.0067C118.358 68.0819 117.331 69.5987 116.445 71.6723C115.28 69.6531 110.704 70.9235 110.857 82.7511C107.833 74.0979 105.824 64.8498 100.237 70.5746L106.557 53.9667C108.342 56.9075 108.589 58.197 115.072 53.541C118.505 59.5218 124.855 54.4563 126.611 62.1939C120.016 61.2339 116.72 63.4291 116.31 68.2387C119.033 63.6243 122.224 62.8339 126.423 63.6947C127.952 60.8339 130.429 60.0371 135.171 66.2707C140.903 68.1171 141.319 60.6099 133.661 56.9715C133.667 56.9331 133.68 56.8979 133.687 56.8595C130.291 55.1507 128 55.1058 125.472 55.4322C128.035 50.347 131.965 49.7742 137.255 53.685C139.546 53.1218 141.696 53.2883 139.575 50.8687C163.978 57.8707 152.465 92.0183 147.587 100.649L147.584 100.652Z" fill="#E64100"/>
<path d="M93.1647 161.453L93.3247 161.562C99.6991 165.892 105.683 162.624 108.035 161.476C115.687 163.216 116.842 152.41 114.893 142.899C113.194 148.637 111.03 155.36 108.723 156.41C110.563 145.011 110.346 134.365 107.981 126.97C104.211 124.323 101.923 130.112 98.0671 128.899C96.4575 129.168 94.5407 124.035 92.0607 125.267C87.1263 134.278 89.8399 145.859 94.4383 156.394C96.8831 156.858 98.7647 156.602 100.086 155.629L102.464 157.021L104.752 156.484L108.163 156.752L103.946 159.13L101.299 157.917C99.0879 159.812 98.6303 159.735 95.8687 157.917L93.2223 159.757L92.6847 157.469C88.0191 155.45 89.1839 152.983 86.9855 147.334C86.9503 147.155 86.9183 146.982 86.8831 146.806C84.6687 156.272 86.4799 163.12 93.1615 161.45L93.1647 161.453ZM78.6043 66.1397C78.265 65.9425 77.9203 65.7547 77.5707 65.5765C76.9915 65.4997 76.4315 65.4517 75.8939 65.4517L76.8283 68.0405L78.6043 66.1429V66.1397ZM71.5707 93.9993C63.0971 91.3401 58.1143 86.1109 56.6327 78.3157C54.6263 82.3029 54.0375 85.6853 54.5015 88.6229C54.5719 89.0773 54.0663 92.5625 54.1879 92.9977C54.3575 93.5993 55.1735 91.1417 55.4327 91.7049C55.6215 92.1209 54.1879 95.9705 55.8391 97.3721C56.1751 97.9449 56.7863 94.0505 57.2087 94.5881C57.6375 95.1321 58.6359 98.8473 59.1447 99.3593C59.6375 99.8585 59.6375 97.1577 60.1979 97.6281C60.6555 98.0153 60.7931 104.559 63.4395 106.3C63.8555 106.61 62.8635 100.102 64.6843 100.681C69.6635 105.254 66.3355 117.977 74.9307 119.651C71.7851 109.631 70.0667 98.4793 71.5771 93.9993H71.5707ZM112.712 169.034C104.504 172.698 93.9859 172.119 91.2723 168.423C91.3747 172 93.9859 175.408 104.242 174.429C110.565 173.716 113.384 171.917 112.712 169.034Z" fill="#E64100"/>
<path d="M113.666 101.151L110.815 102.643C111.897 99.513 118.063 96.1434 113.199 90.441C113.669 94.2938 111.439 97.1322 106.511 98.953L103.378 105.453C104.498 99.6986 98.3698 102.454 95.9858 102.268L97.3458 99.0458C95.5218 97.0362 91.9314 99.4234 90.2866 98.6746C87.2786 97.2506 86.5746 95.4266 88.181 93.1994L92.7634 95.8618C93.0002 93.6666 94.1842 92.9978 96.3186 93.849C96.389 89.0938 94.3794 87.3786 90.2834 88.7066C86.4946 88.2522 87.5186 85.9834 87.9922 83.4714C84.5202 87.145 77.7902 100.159 83.9698 111.152L87.8066 112.23L85.4354 114.035C94.2866 112.723 112.805 114.035 112.805 114.035L110.159 111.952C115.394 107.661 116.559 104.057 113.663 101.148L113.666 101.151ZM98.587 66.7322C99.7518 62.7066 100.629 59.4042 99.8222 58.0758C98.3118 54.9174 93.3646 65.3562 95.1502 47.9126C96.731 41.3302 96.2702 36.5206 93.7774 33.4902C94.3566 41.295 91.7006 47.887 85.809 53.2726C90.0558 56.3926 92.5742 60.1946 93.3646 64.6746L98.5838 66.7354L98.587 66.7322Z" fill="#0B162A"/>
<path d="M139.57 50.875C141.692 53.2942 139.542 53.1246 137.25 53.691C131.961 49.7802 128.031 50.353 125.468 55.4382C127.996 55.1118 130.287 55.1566 133.682 56.8654C133.676 56.9038 133.663 56.9358 133.657 56.9774C141.314 60.6158 140.898 68.123 135.167 66.2766C130.425 60.043 127.948 60.8398 126.418 63.7006C122.22 62.8366 119.03 63.6302 116.306 68.2446C116.716 63.4382 120.015 61.2398 126.607 62.1998C124.85 54.459 118.502 59.5246 115.068 53.547C108.584 58.203 108.338 56.9166 106.552 53.9726L100.232 70.5806C105.82 64.8558 107.832 74.1038 110.853 82.757C110.7 70.9294 115.276 69.659 116.441 71.6782C117.33 69.6046 118.354 68.0878 119.433 67.0126C118.14 68.4206 118.214 71.0286 120.697 72.7758C126.738 75.9342 129.762 69.067 125.782 66.731L123.17 68.1038L122.21 66.043C121.174 65.9246 120.306 66.2286 119.679 66.7726C124.057 62.7086 129.196 65.7902 129.628 69.4766C129.647 71.115 128.319 73.1758 125.644 75.659C130.783 73.0478 133.414 71.131 133.318 69.803C139.791 75.7902 139.039 77.7678 124.025 79.915C132.255 87.5378 138.598 88.421 143.046 82.5682C145.014 87.3298 128.351 112.489 121.068 97.1954C122.207 102.047 122.409 106.923 121.676 111.823C125.785 110.908 127.311 110.69 129.708 111.599C132.543 114.517 133.73 118.863 133.27 124.636C134.61 123.295 136.562 118.873 138.079 117.925C138.921 117.401 137.356 121.401 138.223 120.965C139.126 120.511 142.943 114.844 143.852 114.457C145.42 113.788 142.959 118.649 144.444 118.069C144.588 118.213 148.921 110.841 150.793 108.956C153.83 111.42 149.337 115.717 150.073 115.321C152.608 113.954 156.886 111.471 157.648 108.811C157.98 102.293 159.356 98.341 161.772 96.9554L156.691 89.349C155.008 96.2514 151.971 100.024 147.58 100.658C152.457 92.0274 163.968 57.8798 139.567 50.8778L139.57 50.875ZM108.526 94.837C109.726 93.0706 109.755 91.1826 108.619 89.1762C106.738 86.693 105.112 87.1954 103.256 90.3986C101.989 94.7858 107.358 96.0466 108.526 94.837Z" fill="#0B162A"/>
<path d="M151.884 45.9893C149.248 53.9509 152.681 59.1701 162.185 61.6501C167.101 73.3625 167.469 83.6665 163.286 92.5593C165.571 97.1993 165.712 104.342 163.699 113.99L164.662 117.561V117.555C167.571 108.14 173.354 108.249 167.27 92.2841L169.469 93.1097C169.77 75.1161 167.453 66.3797 163.561 60.9653C171.658 58.6325 175.642 54.9717 175.514 49.9829V49.9765C173.315 47.5029 156.832 51.3493 151.888 45.9925L151.884 45.9893Z" fill="#0B162A"/>
<path d="M54.7284 41.0452L53.9092 35.96C55.778 34.9296 56.796 34.3952 59.0296 33.7808C59.4008 33.6784 57.9128 33.0544 55.5028 32.5424C57.8008 31.7616 62.2456 32.9968 62.7768 32.8848C63.42 32.7504 61.3336 31.9344 61.996 31.8192C62.5336 31.7232 65.5224 31.8736 66.6392 31.8192C70.6104 31.7072 73.4328 31.3936 77.2248 31.048L73.1736 27.3424C81.6024 27.2656 90.2556 28.6096 99.1292 31.3712L99.03 31.5664C100.518 36.6544 101.228 42.3828 99.5484 52.6836C111.283 40.7028 109.168 48.4532 110.62 50.4852C116.058 55.7556 120.947 41.5284 137.603 45.7876C129.802 35.6176 118.256 40.2068 116.141 40.8692C106.889 46.5876 101.913 39.9956 105.283 34.7984C111.273 37.0416 118.442 35.7168 123.395 32.3248C118.675 32.6928 114.003 32.2704 109.376 31.0512C115.28 27 140.275 28.2064 140.275 38.5072C143.373 37.8004 145.744 39.0352 147.386 42.2132C165.991 37.6468 169.706 45.4356 176.81 44.5844H176.82C172.769 33.2496 158.548 40.8788 155.012 38.5076C153.188 36.4176 150.976 34.2576 148.362 32.2608C147.84 31.8608 145.805 32.0624 145.252 31.6784C144.711 31.304 147.556 30.5744 147.767 30.0848C147.799 30.1136 142.64 30.2832 142.099 29.976C141.254 29.768 142.659 28.5872 142.234 28.3664C141.475 27.784 138.246 28.7024 137.491 27.9728C136.048 27.1888 139.51 27.08 138.848 26.8112C129.318 22.9712 116.592 22.1744 100.24 29.1952L100.092 29.4864C84.8988 27.6016 77.8424 19.912 62.0696 25.9984C61.4168 26.2512 65.0584 28.1936 64.3736 28.4944C63.692 28.792 56.3896 27.1376 56.3896 27.0672C56.3896 27.0672 60.4504 29.2752 60.0728 29.4672C59.628 29.6944 54.4948 28.4624 54.034 28.7088C53.5412 28.9744 56.3288 30.7472 55.8164 31.0352C55.378 31.2848 53.5476 31.048 53.0964 31.3136C50.9748 31.256 49.9316 32.2992 48.482 33.2432C44.098 31.5664 37.186 31.9056 31.634 36.0976C31.618 36.1104 31.602 36.12 31.5892 36.1296C41.5188 36.1904 49.234 37.8292 54.7316 41.042L54.7284 41.0452ZM40.0328 83.1512C38.6952 66.9044 38.7304 56.8852 47.8312 48.978C44.612 43.5444 40.66 41.4608 35.9816 42.728C30.6952 45.2276 30.7848 49.5348 34.9096 53.7492C29.6648 51.73 21.7256 48.7732 30.1128 36.7984V36.7952C23.828 37.784 16.026 51.692 33.78 58.4564C34.3272 66.754 30.7816 66.8436 28.868 74.4888C35.46 76.0376 27.1944 90.7256 32.7432 96.9784L32.7496 96.9848L40.0328 83.1512Z" fill="#0B162A"/>
<path d="M161.087 116.041C153.138 116.774 151.912 130.55 138.792 125.116C138.415 128.38 137.679 130.684 136.594 132.028L133.759 129.225C132.645 133.986 128.152 140.473 120.286 148.688L118.693 145.852C121.509 137.676 133.512 125.026 125.925 114.127C125.307 116.719 123.425 117.612 120.773 116.953V116.991L116.059 114.457C118.501 117.023 119.233 119.983 118.257 123.337C117.589 127.007 115.541 130.671 112.469 134.505C113.121 125.714 112.747 120.121 111.345 117.727L108.341 121.586C107.944 117.858 107.451 116.185 106.859 116.566L104.571 118.268L102.193 117.462L100.849 118.358L99.457 117.73L97.4378 118.585L94.9706 116.386C94.1674 117.081 93.345 118.873 92.5034 121.766C90.3946 120.959 89.6298 117.014 88.0202 116.066C85.8218 121.676 85.1466 122.21 85.6426 131.542C85.5818 131.746 85.5306 131.961 85.4858 132.182V132.166C81.1338 124.738 79.7674 118.479 82.9258 113.81C79.265 111.41 77.0186 108.041 78.8042 97.4643C76.7434 98.0147 76.8778 96.1331 78.7242 93.2563C75.8058 93.6755 75.8314 92.1491 78.8042 88.6739C73.7226 87.5763 82.3754 81.5315 85.4666 74.6319C82.7882 74.2511 80.177 75.7615 76.0554 80.9811C72.7594 83.3171 68.087 82.9043 71.271 76.9775C69.4182 75.7039 68.8326 74.4367 69.5206 73.1759C70.2278 74.2415 71.5942 75.1247 73.6202 75.8191C72.513 74.5935 71.6902 73.5343 71.1686 72.5647C77.089 76.5839 80.7402 74.3663 81.1786 68.2127C81.9338 69.1087 82.5674 70.2671 83.009 71.8703C86.1002 69.6591 88.6986 70.6767 91.5818 76.1711C94.465 68.8911 90.481 66.9679 84.0138 64.8303C86.6346 63.3935 88.145 63.9439 91.649 65.8383C88.4202 53.7807 77.7066 59.4127 75.9658 54.9967C75.9466 51.7871 80.177 51.1695 82.8554 50.7503C73.297 45.8667 70.5606 46.3595 65.9782 48.6507C56.1382 55.1535 64.2438 67.5151 51.3414 70.6799C50.0358 62.1871 53.8022 52.9551 57.0438 48.2539C54.151 48.3723 51.6358 49.9535 49.6454 52.8751C49.127 53.6367 51.0406 53.5183 50.5926 54.4591C50.1606 55.3743 51.2102 56.0655 47.0118 58.4271C46.7686 59.1599 48.8134 58.9743 48.6086 59.7839C48.3014 60.9903 44.3974 62.6351 44.519 66.5999C48.2374 63.1311 47.6198 65.1183 46.4966 67.3423C46.4166 68.2639 44.8454 70.9583 44.8006 71.9375C44.5894 76.5007 44.7526 81.6723 45.3446 87.4099L48.8486 84.0211C48.8486 84.0211 39.3314 119.772 76.5866 135.484C77.505 142.838 70.9766 140.432 64.0902 135.59C62.5094 134.127 61.8022 138.809 61.703 138.608C60.9894 138.06 60.5638 132.934 59.863 132.358C59.2326 131.839 59.0406 134.959 58.4326 134.428C57.7798 133.858 56.7174 129.638 56.1062 129.068C54.0262 127.129 52.2406 125.247 51.0438 123.73C44.3014 125.036 41.7346 116.121 40.9826 106.885C39.0082 107.999 38.1378 109.519 37.5618 110.834C37.1842 108.991 36.477 105.797 37.5618 103.5C35.0434 104.172 33.629 103.436 33.3154 101.301C30.781 106.005 30.6402 108.521 36.7042 112.585C37.8242 120.364 40.0226 126.175 43.2966 130.018C52.9478 127.215 54.0614 133.698 52.9478 136.464C70.0838 151.996 72.8778 142.611 78.7274 152.595C87.5594 168.755 83.2746 177.322 105.4 176.474C111.921 176.333 116.245 172.627 118.379 165.37C118.443 165.312 118.504 165.258 118.565 165.2C120.334 160.153 120.456 157.84 120.571 154.963C127.422 153.545 133.915 137.062 140.066 134.863C143.487 133.225 147.759 133.071 152.008 131.503C153.659 131.103 154.898 128.732 155.375 128.466C155.89 128.178 156.482 128.374 155.099 131.196C158.383 129.113 158.098 125.033 158.476 124.716C158.956 124.319 158.562 127.094 159.033 126.617C160.604 125.734 160.313 122.822 160.697 122.358C161.1 121.868 160.898 124.758 161.289 124.191C162.085 123.033 162.847 121.711 163.573 120.194C163.586 120.169 163.599 120.143 163.612 120.114L161.093 116.038L161.087 116.041ZM77.569 65.5759C77.9186 65.7542 78.2633 65.942 78.6026 66.1391L76.8266 68.0367L75.8922 65.4479C76.4298 65.4479 76.9898 65.4959 77.569 65.5727V65.5759ZM64.679 100.68C62.8582 100.104 63.8534 106.61 63.4342 106.3C60.791 104.562 60.6534 98.0147 60.1926 97.6275C59.6326 97.1571 59.6326 99.8579 59.1398 99.3587C58.6342 98.8467 57.6326 95.1315 57.2038 94.5875C56.7814 94.0499 56.1702 97.9443 55.8342 97.3715C54.1862 95.9699 55.6166 92.1171 55.4278 91.7043C55.1718 91.1379 54.3526 93.5987 54.183 92.9971C54.0614 92.5619 54.5702 89.0771 54.4966 88.6227C54.0326 85.6851 54.6214 82.3027 56.6278 78.3151C58.1126 86.1107 63.0918 91.3363 71.5654 93.9987C70.055 98.4787 71.7738 109.631 74.9194 119.65C66.3238 117.977 69.6518 105.25 64.6726 100.68H64.679ZM86.8842 146.809C86.9194 146.985 86.9514 147.158 86.9866 147.337C89.185 152.985 88.0202 155.452 92.6858 157.472L93.2234 159.76L95.8698 157.92C98.6314 159.737 99.089 159.814 101.301 157.92L103.947 159.132L108.165 156.755L104.753 156.486L102.465 157.024L100.087 155.632C98.7658 156.604 96.8842 156.86 94.4394 156.396C89.841 145.859 87.1274 134.278 92.0618 125.27C94.5418 124.034 96.4586 129.167 98.0682 128.902C101.928 130.114 104.216 124.326 107.982 126.972C110.347 134.37 110.565 145.017 108.725 156.412C111.032 155.363 113.195 148.636 114.894 142.902C116.843 152.409 115.688 163.216 108.037 161.478C105.685 162.627 99.7034 165.898 93.3258 161.564L93.1658 161.456C86.4842 163.129 84.6762 156.278 86.8874 146.812L86.8842 146.809ZM91.2714 168.422C93.985 172.122 104.504 172.701 112.712 169.034C113.384 171.917 110.565 173.715 104.241 174.429C93.985 175.408 91.3738 172 91.2714 168.422Z" fill="#0B162A"/>
<path d="M37.6752 103.379C42.7376 97.4265 42.4048 95.0329 38.9004 89.3081C37.4508 91.5001 37.9308 98.6425 37.6748 103.379H37.6752Z" fill="#0B162A"/>
</svg>
