<svg width="200" height="200" viewBox="0 0 200 200" fill="none" xmlns="http://www.w3.org/2000/svg">
<g clip-path="url(#clip0_106_4383)">
<path d="M165.174 97.9067C164.308 97.4683 164.416 96.6859 165.04 96.2219C172.414 90.7663 177.391 83.7655 177.391 72.9599C177.391 60.1651 168.227 42.2075 132.395 42.2075H40.0308L19.1116 78.5947H34.4724C36.1884 78.5947 37.5736 79.9779 37.5736 81.6855V118.01C37.5736 119.718 36.1884 121.104 34.4724 121.104H18L39.1412 157.36L136.773 157.349C168.281 157.349 181.903 140.937 181.903 123.321C181.903 111.653 173.606 102.199 165.174 97.9071" fill="#FFFFFE"/>
<path d="M110.467 91.7457H95.2944V77.1637C95.3008 76.4289 95.5975 75.7264 96.1196 75.2093C96.6418 74.6922 97.3471 74.4025 98.082 74.4033H110.467C117.735 74.4033 120.435 78.1029 120.435 82.9325C120.435 88.0549 117.736 91.7461 110.467 91.7461L110.467 91.7457ZM110.467 125.292H98.0824C96.5432 125.292 95.2948 124.049 95.2948 122.512V107.952H110.468C117.736 107.952 120.436 111.51 120.436 116.484C120.436 121.598 117.736 125.292 110.468 125.292H110.467ZM153.773 98.7293C152.662 98.4673 152.844 97.1073 153.656 96.8025C163.673 93.0177 169.519 86.2785 169.519 74.4029C169.658 58.4805 155.566 47.5381 132.646 47.5381H45.7832L30.542 74.4201H41.0316C43.1068 74.4201 44.7828 76.0933 44.7828 78.1625V121.539C44.7828 123.608 43.1068 125.281 41.0316 125.281H30.6592L46.0144 152.03L136.774 152.018C162.686 152.018 173.364 134.821 173.364 122.168C173.364 111.049 165.155 101.45 153.773 98.7297V98.7293Z" fill="#FB4F14"/>
<path d="M75.3332 144.437C59.2284 114.211 54.9956 79.4601 60.9956 47.5381H45.7832L30.542 74.4201H41.0316C43.1068 74.4201 44.7828 76.0933 44.7828 78.1625V111.445C52.5984 124.109 63.9176 136.238 75.3332 144.437ZM151.288 50.5293C132.854 77.8241 122.866 112.612 127.35 144.298C132.843 117.643 147.172 93.0265 169.49 75.1945C169.496 74.9297 169.518 74.6737 169.518 74.4033C169.612 63.4297 162.949 54.8181 151.288 50.5293ZM120.386 47.5385C117.496 55.0973 114.46 64.2181 111.906 74.4573C111.427 74.4214 110.947 74.4034 110.467 74.4033H98.082C97.3471 74.4025 96.6418 74.6922 96.1196 75.2093C95.5975 75.7264 95.3008 76.4289 95.2944 77.1637V91.7457H108.321C107.46 96.9737 106.764 102.389 106.303 107.953H95.2944V122.512C95.2944 124.049 96.5428 125.293 98.082 125.293H105.687C105.801 134.021 106.579 142.977 108.215 152.018H96.8936C87.9604 130.481 75.6668 94.0425 87.8948 47.5385H120.386Z" fill="black"/>
</g>
<defs>
<clipPath id="clip0_106_4383">
<rect width="200" height="200" fill="white"/>
</clipPath>
</defs>
</svg>
