<svg width="200" height="200" viewBox="0 0 200 200" fill="none" xmlns="http://www.w3.org/2000/svg">
<mask id="mask0_106_4394" style="mask-type:luminance" maskUnits="userSpaceOnUse" x="18" y="36" width="164" height="128">
<path d="M18 36.3999H182V163.175H18V36.3999Z" fill="white"/>
</mask>
<g mask="url(#mask0_106_4394)">
<path d="M182 147.231V147.094C181.262 137.116 179.032 127.023 175.178 116.235L175.132 116.127L175.089 116.019L174.64 114.946L174.692 115.064C173.085 110.892 169.733 109.091 164.797 109.705L162.576 109.948L161.671 110.026C157.863 110.377 152.395 110.866 147.567 110.416L141.577 96.2404C142.787 95.5113 143.8 94.498 144.529 93.2884C145.037 92.3533 145.398 91.3454 145.599 90.3004C147.43 90.0752 149.128 89.2261 150.407 87.896C152.227 85.9084 153.261 82.32 150.686 78.2528L150.817 78.466L142.794 63.9848L138.048 66.002C119.024 35.334 82.8258 30.6372 56.1102 42.1628C31.8778 52.6228 8.40622 80.2108 21.9982 123.586C23.4577 128.194 25.2863 132.677 27.4662 136.991C27.3285 138.349 27.4161 139.72 27.7254 141.048V141.12L27.7482 141.193C28.4434 143.817 29.0766 145.548 30.7002 149.16C30.6254 151.616 31.5291 154.002 33.2126 155.792C35.8826 158.665 40.1202 159.79 44.8402 158.878L44.6138 158.911C50.8458 158.036 54.913 156.205 57.0386 154.975C66.393 161.535 78.621 164.448 89.4778 162.644C96.5526 161.47 102.27 158.41 106.206 153.755C108.297 153.881 110.394 153.819 112.474 153.572C115.594 153.375 118.661 152.668 121.553 151.479C125.564 156.159 130.989 159.515 137.5 161.237C145.1 163.241 153.72 163.106 161.92 160.909C163.387 161.013 164.856 160.736 166.184 160.105C174.797 158.137 176.719 157.314 177.992 156.225C178.011 156.212 178.027 156.197 178.041 156.179C181.111 154.086 182.111 150.144 182 147.231ZM160.395 155.792C153.123 157.662 145.33 157.76 138.77 156.038C132.81 154.464 125.768 151.013 121.855 142.35C121.614 141.904 121.41 141.439 121.245 140.96C121.245 140.96 123.242 140.999 124.554 140.888C130.625 153.893 146.271 156.304 159.68 152.883C159.68 152.883 160.906 152.673 161.251 152.302C161.529 151.646 161.5 150.006 161.5 150.006C161.484 149.629 161.172 141.622 159.696 136.296C159.638 135.916 159.482 135.558 159.243 135.256C159.023 135.163 158.79 135.103 158.551 135.079C157.994 135.08 157.438 135.138 156.892 135.249C148.623 137.217 135.831 138.857 125.732 139.874C125.712 139.874 124.938 139.992 123.573 140.051L122.481 140.081C119.784 140.09 117.092 139.87 114.432 139.425C114.432 139.425 76.7646 133.298 76.9218 133.291L78.9358 130.533L115.203 136.489C120.733 137.319 123.301 136.922 123.37 136.906C133.141 136.361 151.207 133.685 155.576 132.52C155.576 132.52 157.938 131.96 158.237 131.658C158.43 131.464 157.941 129.69 157.941 129.69C157.921 129.631 156.154 123.842 155.268 121.611V121.657C155.245 121.565 154.861 120.329 154.455 120.142H154.159C154.159 120.142 153.638 120.24 153.001 120.384C144.473 121.932 128.933 124.107 119.791 124.648C120.582 124.599 116.092 124.809 112.602 124.566C107.636 124.288 102.106 123.054 96.6382 117.101C96.579 117.042 90.511 111.26 88.0674 108.573C87.8072 108.218 87.6983 107.774 87.7648 107.339C87.8312 106.903 88.0675 106.512 88.4218 106.251C88.8742 105.89 89.7698 105.726 90.2714 106.313C91.3442 107.746 97.4874 114.087 100.509 116.921C103.874 119.545 106.288 120.912 110.981 121.444C112.872 121.634 114.772 121.721 116.672 121.706C122.855 121.864 145.392 119.108 152.017 117.8C152.476 117.746 152.926 117.643 153.362 117.492V117.364L153.402 117.085C153.592 116.852 153.84 116.672 154.12 116.563C154.459 116.404 154.837 116.344 155.209 116.392C155.581 116.439 155.931 116.592 156.219 116.832C160.946 125.544 165.613 141.724 164.534 153.945C164.533 154.234 164.456 154.518 164.313 154.768C164.169 155.019 163.963 155.228 163.714 155.376C163.367 155.515 162.994 155.581 162.619 155.568C162.245 155.556 161.877 155.465 161.539 155.303C161.539 155.303 161.572 155.392 160.395 155.792ZM150.164 137.618C150.784 137.503 153.329 136.938 153.329 136.938C156.023 140.986 160.349 143.905 160.349 143.905C160.46 144.922 160.552 147.513 160.552 147.513C153.759 144.181 150.164 137.611 150.164 137.611V137.618ZM126.269 142.652C126.032 142.271 125.813 141.878 125.613 141.475L125.285 140.838C125.81 140.78 126.105 140.73 126.105 140.73L127.801 140.553C127.345 141.289 126.833 141.988 126.269 142.646V142.652ZM74.6422 133.393C74.2877 133.372 73.944 133.263 73.6418 133.076C73.3396 132.89 73.0884 132.631 72.9106 132.324C72.8289 132.16 72.7962 131.975 72.8166 131.793C72.837 131.611 72.9095 131.439 73.0254 131.297L77.7418 124.081C78.0406 124.648 80.4086 126.072 80.4086 126.072C78.8967 128.324 77.3814 130.574 75.8626 132.822C75.731 133.019 75.5474 133.177 75.332 133.276C75.1166 133.376 74.8779 133.414 74.6422 133.386V133.393ZM87.2474 109.091C87.9504 110.003 88.7318 110.851 89.5826 111.627L85.9746 117.357C85.4894 117.744 84.4658 117.357 83.8298 116.734C83.6822 116.593 82.9834 115.871 83.4034 115.366L83.4262 115.34L83.4426 115.307C83.4886 115.212 84.2726 113.91 87.2474 109.085V109.091ZM93.0334 122.211C90.919 120.798 88.8034 119.387 86.6866 117.977L87.221 117.459C89.517 118.928 92.4954 120.893 93.781 121.877C96.1002 123.635 94.847 125.754 94.847 125.754C95.0802 124.478 94.5126 123.208 93.0334 122.208V122.211ZM86.0142 118.37L92.6266 122.798C93.6106 123.51 94.5946 124.73 94.0142 126.384C93.9286 124.835 92.0098 123.615 92.0098 123.615C92.0098 123.615 84.9122 119.427 82.7242 118.072C81.4778 117.288 81.6058 116.206 82.2586 115.638C82.1634 117.334 84.7774 118.705 86.0142 118.367V118.37ZM82.3306 118.652C84.5282 120.034 89.153 122.831 90.4882 123.572C91.9182 124.37 92.2066 124.75 92.2066 124.75C93.8666 126.328 93.5482 127.896 92.7414 128.991C91.8198 130.221 90.0582 131.008 88.589 130.034L86.5946 128.801L85.8698 128.368L79.6642 124.553H79.6442C79.6442 124.553 78.611 124.074 78.3522 123.123C78.1782 122.467 78.3814 121.746 78.9554 120.939C80.2674 119.095 80.9038 118.039 81.1826 117.55C81.4646 118.144 82.3306 118.649 82.3306 118.649V118.652ZM81.2186 126.488C84.1346 128.23 88.2742 130.802 88.2742 130.802C91.1242 132.616 93.3218 130.008 94.0174 129.083C94.5554 128.361 96.215 126.131 96.159 124.219C96.1002 122.362 94.6766 121.365 93.4038 120.529L87.4802 116.639L90.255 112.145C92.9186 114.805 95.9786 117.721 96.005 117.75C97.6094 119.517 99.4689 121.034 101.522 122.251C101.951 122.5 102.388 122.735 102.834 122.953C104.015 126.561 105.301 129.746 105.858 132.097C105.409 129.358 104.592 126.426 103.792 123.396C106.947 124.757 110.024 125.176 112.858 125.334L113.255 125.357L113.441 125.77C112.323 128.752 110.237 131.95 107.537 133.898C107.537 134.052 107.557 134.21 107.564 134.367L105.11 133.977L103.205 133.672L102.283 133.527L78.9754 129.814L81.2186 126.488ZM151.099 132.478C150.594 132.701 148.124 133.058 148.124 133.058C147.534 131.936 143.798 122.789 143.798 122.789C144.244 122.733 146.75 122.323 146.75 122.323C148.018 125.782 149.47 129.17 151.099 132.474V132.478ZM151.834 132.252L150.709 129.664C154.471 129.726 157.187 129.686 157.187 129.686C157.636 131.353 156.081 131.412 156.081 131.412L151.834 132.252ZM130.737 126.187L130.757 126.652L145.477 129.178C145.756 129.985 146.809 132.37 146.809 132.37L130.786 129.644V130.142C130.697 131.927 130.421 133.697 129.963 135.423C129.254 135.499 128.543 135.568 127.821 135.636C128.864 132.176 128.992 128.309 128.536 124.589C129.209 124.517 129.891 124.445 130.579 124.366C130.639 124.976 130.694 125.58 130.737 126.184V126.187ZM122.379 136.112C121.256 136.277 120.117 136.302 118.988 136.188C117.978 134.278 116.863 131.678 114.012 125.436C115.145 125.564 116.288 125.564 117.42 125.436L122.379 136.112ZM98.4354 91.832C98.4151 92.3641 98.5278 92.8929 98.7634 93.3704C99.0914 94.0068 99.7246 95.604 99.7246 95.604C99.8326 95.4992 98.2846 97.4244 97.4286 98.7824L92.2198 107.33L90.8194 105.788C90.8194 105.788 90.219 105.073 89.6582 105.073C92.3838 100.649 94.8702 96.716 95.713 95.4532C96.5569 94.2042 97.468 93.0019 98.4422 91.8516L98.4354 91.832ZM130.107 81.2376C130.51 81.1685 130.925 81.255 131.267 81.4797C131.609 81.7043 131.854 82.0504 131.951 82.448C132.039 83.0548 131.727 83.76 130.563 83.9536L130.019 84.0616C122.875 85.4884 114.783 87.1088 108.016 89.8576C105.888 90.6284 104.753 91.2744 103.559 92.1796C103.559 92.1796 102.903 90.7528 102.663 90.3364C102.286 89.6804 102.234 89.6016 101.919 89.4244C103.181 88.6387 104.515 87.9765 105.904 87.4468C110.867 85.364 121.189 82.6972 130.114 81.2572L130.107 81.2376ZM126.87 71.6468C126.453 72.9916 127.244 75.0648 127.244 75.0648L129.192 80.4604L128.182 80.6504C128.182 80.6504 126.932 77.1968 126.142 74.8056C125.545 72.9852 125.974 72.1028 125.974 72.1028L126.87 71.6468ZM127.663 71.2696L128.671 70.748C128.671 70.748 128.756 70.6924 128.753 70.7088C128.715 70.8309 128.7 70.9586 128.707 71.086C128.687 71.4436 128.707 71.6208 129.077 72.6472C129.674 74.2544 132.78 80.7028 133.141 81.6412C134.939 86.3084 130.294 87.1712 129.812 85.108C134.752 84.734 132.744 79.5648 129.943 80.2928C128.874 77.6688 128.031 75.0088 128.031 75.0088C128.031 75.0088 126.942 72.152 127.67 71.2892L127.663 71.2696ZM144.693 81.4212H144.765C145.356 81.5064 145.707 82.2676 145.648 82.8972C145.615 83.2252 145.412 84.006 144.251 84.006C143.198 83.7764 140.446 83.514 139.035 83.3796C139.035 82.202 138.311 80.5128 138.311 80.5128C139.878 80.7028 143.87 81.1656 144.7 81.4408L144.693 81.4212ZM133.102 86.082C133.102 86.082 134.115 85.39 134.171 84.6588C134.171 84.6588 136.533 84.6588 137.73 84.6784C137.737 84.698 136.854 86.3644 133.108 86.102L133.102 86.082ZM101.066 90.3132C101.31 90.3096 101.552 90.3588 101.775 90.4576L115.465 120.775C114.337 120.818 113.207 120.744 112.093 120.552C106.258 107.789 99.4262 92.8356 99.4194 92.8192C99.2796 92.5942 99.2056 92.3347 99.2056 92.0698C99.2056 91.805 99.2796 91.5454 99.4194 91.3204C99.5968 91.0365 99.8393 90.7988 100.127 90.6271C100.414 90.4555 100.738 90.3547 101.073 90.3332L101.066 90.3132ZM101.965 100.481L102.509 101.685C100.056 106.277 100.089 111.417 101.037 116.291L100.797 116.104C100.505 115.832 100.181 115.524 99.849 115.205C97.655 113.096 94.7258 110.118 92.7578 108.019C94.5599 105.105 96.3694 102.196 98.1862 99.2908C98.8146 98.3104 99.4509 97.335 100.095 96.3648L101.965 100.481ZM102.981 102.722L111.077 120.565C107.913 120.282 104.888 119.135 102.332 117.249C101.401 112.384 101.128 107.428 102.988 102.728L102.981 102.722ZM172.124 153.063C170.537 153.512 165.383 154.867 165.383 154.867C165.565 153.808 165.641 152.733 165.61 151.659C175.551 149.524 166.115 148.625 166.115 148.625C168.309 149.301 168.247 150.085 168.247 150.085C167.293 150.14 165.623 149.636 165.623 149.636C165.679 149.016 165.511 146.487 165.511 146.487C168.096 147.612 168.506 147.29 171.186 147.89C173.931 148.51 172.587 149.636 172.587 149.636C171.186 151.38 166.027 152.108 166.027 152.108C174.673 150.984 173.899 148.625 173.899 148.625C177.408 150.931 173.918 152.558 172.124 153.063ZM170.74 132.288C170.74 132.288 169.451 132.944 163.491 134.01C163.491 134.01 163.009 132.153 162.786 131.202C162.786 131.202 167.821 130.152 169.782 129.418C169.782 129.418 169.746 128.762 168.775 128.781C168.775 128.781 163.665 130.093 162.484 130.188L162.205 129.401C162.205 129.401 166.581 128.558 168.044 128.22C168.044 128.22 171.133 127.154 171.806 129.516C171.806 129.516 172.488 131.556 170.74 132.288ZM176.168 149.822C176.168 149.147 175.122 147.89 173.321 147.526C173.342 147.015 173.337 146.502 173.305 145.991C172.855 141.399 171.209 133.101 171.209 133.101C173.754 132.274 173.528 127.069 169.185 127.098C168.54 124.212 167.683 121.377 166.62 118.616C168.982 117.324 167.876 115.15 166.581 114.753C166.581 114.753 168.942 114.248 170.028 118.331C173.981 129.401 177.047 144.574 176.168 149.822ZM166.869 116.508C166.888 116.833 166.786 117.153 166.581 117.406C166.377 117.66 166.086 117.828 165.764 117.878L165.393 117.957C164.472 118.246 162.628 118.679 160.782 119.026C160.087 119.181 159.386 119.3 158.679 119.384C158.437 118.849 158.269 118.298 157.567 116.937C159.735 116.582 161.883 116.114 164.003 115.536C164.535 115.404 165.075 115.303 165.62 115.235C165.945 115.264 166.25 115.409 166.478 115.642C166.707 115.875 166.846 116.182 166.869 116.508ZM156.885 116.104C156.545 115.821 156.128 115.647 155.688 115.606C157.19 115.71 161.661 115.278 161.661 115.278C160.818 115.596 156.885 116.104 156.885 116.104ZM152.506 116.727C150.483 117.232 145.805 117.744 145.805 117.744L144.847 115.55C147.68 115.959 150.549 116.053 153.402 115.832C153.174 115.855 152.961 115.956 152.798 116.117C152.635 116.278 152.532 116.49 152.506 116.717V116.727ZM141.256 86.5216C141.381 87.988 141.279 89.8016 140.528 91.1696C139.649 92.7668 138.442 93.7936 136.139 94.2068C136.083 94.2068 135.959 94.2264 135.811 94.2364L135.585 94.2656C135.414 94.2656 135.257 94.292 135.089 94.3148C137.409 99.8156 145.031 117.869 145.031 117.869C143.565 118.134 141.958 118.242 141.958 118.242L132.328 95.6596C132.147 95.8392 131.984 96.0348 131.839 96.2436C131.747 96.3552 131.652 96.46 131.554 96.5716C130.058 98.4444 129.146 100.855 128.635 103.417C128.575 103.673 128.523 103.932 128.477 104.191C133.026 111.184 139.14 113.808 139.14 113.808L140.672 117.504C134.601 115.74 129.52 110.233 128.11 108.583V109.039C128.084 111.745 128.37 114.445 128.963 117.085C129.25 117.986 129.505 118.898 129.73 119.817L127.654 120.027C127.212 118.293 126.643 116.593 125.951 114.943C122.521 106.822 113.159 110.538 113.815 115.425L105.881 97.9164C107.437 96.2297 109.206 94.7542 111.145 93.5276C109.913 94.0969 108.762 94.8294 107.725 95.7056C107.008 96.2552 106.328 96.8501 105.687 97.4868L105.186 96.424C104.631 95.1972 104.136 94.1116 103.726 93.1996C105.123 92.3012 106.547 91.3792 108.344 90.73C113.55 88.6144 119.562 87.1712 125.315 85.9672L126.276 85.7704C126.45 88.6404 124.997 89.736 122.494 90.2576C120.854 90.5856 119.542 90.648 118.867 90.8744L120.418 90.9268C121.843 90.8708 123.25 90.5944 124.59 90.1068C126.151 89.526 127.329 88.4668 126.827 85.6556L127.631 85.4916C128.054 88.1716 127.66 90.766 122.458 91.268C123.347 91.8812 131.445 90.3788 136.319 91.4976C136.437 91.55 138.481 92.2552 136.146 93.2752C140.669 92.2684 140.918 87.7616 140.059 84.4192L140.242 84.442C140.961 84.4936 141.676 84.5844 142.384 84.7144C142.821 84.7604 143.345 84.8192 143.89 84.8916C147.258 85.2196 146.947 81.244 145.179 80.7324C144.516 80.5182 143.835 80.3634 143.145 80.27L142.673 80.2176L138.471 70.85L140.797 69.7708L146.809 80.6176C149.6 85.0488 144.972 86.876 142.42 85.5376C141.955 85.7571 141.554 86.0926 141.256 86.512V86.5216ZM111.89 149.137C111.89 149.137 107.626 149.711 104.185 149.009C95.5886 162.155 72.3102 161.273 58.075 150.167C57.8091 149.967 57.5402 149.771 57.2682 149.58C56.2842 150.324 52.1022 153.237 44.0726 154.477C37.3258 155.789 34.541 151.397 35.3478 148.425C33.357 144.03 32.8058 142.505 32.1466 140.028C31.8447 138.794 31.8447 137.504 32.1466 136.27C29.8005 131.776 27.8546 127.085 26.3314 122.251C2.07222 44.8068 102.952 12.3772 135.687 70.8924C136.326 70.9484 136.71 71.0992 136.91 71.5124L137.809 71.1516L141.745 80.07C141.256 79.9716 139.908 79.8568 139.577 79.8304C139.578 79.8457 139.578 79.8611 139.577 79.8764L138.904 79.814L138.576 79.7976C137.72 77.154 136.608 73.792 135.831 71.824C135.364 71.7501 134.893 71.7128 134.42 71.7124C134.42 71.7356 134.443 71.7484 134.453 71.7684C135.053 72.89 136.877 78.5316 137.484 80.07C138.323 82.2052 138.265 83.4056 138.265 83.4056L134.345 83.3304C134.283 82.1856 133.197 80.034 133.197 80.034L131.737 77.082L131.341 76.2388L129.848 73.054C129.601 72.4932 129.429 71.902 129.336 71.296C129.074 69.236 131.101 69.236 131.153 69.236C132.206 69.2556 133.066 69.6428 133.915 70.8368H134.457C133.236 68.4028 132.547 67.652 131.737 66.3072C116.492 44.6 91.1638 38.1712 68.8402 43.5964C97.1138 39.4568 118.696 51.6224 129.441 69.8068C128.539 70.2528 127.05 70.9976 126.358 71.3712C126.047 71.3712 124.892 71.342 124.505 71.3712C123.833 71.4272 123.193 71.46 123.662 73.0604C123.869 73.8026 124.113 74.5339 124.393 75.2516C124.721 76.1272 125.738 78.7712 126.486 81.0212L125.695 81.172C125.558 80.772 125.407 80.3552 125.236 79.9156C124.357 77.6788 123.298 74.776 122.989 73.7888C122.829 73.2804 122.593 72.306 122.878 71.4664C122.878 71.4664 121.809 72.306 122.763 74.576L125.177 81.2704L124.193 81.464C116.869 82.9332 109.699 84.8752 105.671 86.5612C105.671 86.5612 102.653 87.6532 100.515 89.3984C100.455 89.4377 100.411 89.4969 100.39 89.5656C99.7537 89.7617 99.1964 90.1557 98.7994 90.6904C98.3364 91.0403 97.898 91.4218 97.4874 91.832C96.6414 92.816 95.9002 93.672 94.9554 94.9708C94.129 96.2044 91.157 100.904 88.507 105.198C88.2699 105.284 88.0483 105.408 87.851 105.565C87.4806 105.855 87.1941 106.238 87.0211 106.675C86.8481 107.112 86.7949 107.587 86.867 108.052C84.7186 111.532 83.4558 113.552 82.931 114.395C82.5566 114.427 82.1949 114.547 81.8753 114.745C81.5557 114.942 81.287 115.213 81.091 115.533C80.5726 116.573 78.3158 120.273 77.9094 120.683C77.656 121.015 77.4763 121.396 77.3824 121.803C77.2884 122.21 77.2824 122.632 77.3646 123.041L77.1614 123.441L72.2054 130.834C71.999 131.105 71.8719 131.428 71.8383 131.767C71.8046 132.106 71.8658 132.447 72.015 132.753C72.2609 133.206 72.6178 133.589 73.0521 133.866C73.4864 134.143 73.984 134.305 74.4982 134.338C75.0291 134.382 75.559 134.241 75.997 133.937L102.362 138.329L103.651 138.542L105.714 138.887L107.383 139.166C107.189 141.941 106.464 144.653 105.248 147.156L105.711 147.218C112.985 147.808 118.175 146.516 121.763 144.082C122.067 144.664 122.396 145.233 122.747 145.788C119.929 147.641 116.347 148.832 111.89 149.127V149.137ZM177.444 156.609L177.375 156.648C177.447 156.609 177.51 156.55 177.582 156.504L177.444 156.609Z" fill="white"/>
<path d="M96.3164 154.677C99.0358 153.291 101.361 151.241 103.076 148.717H103.06C103.815 147.649 104.419 146.483 104.854 145.25C103.217 149.305 100.19 152.647 96.3164 154.677Z" fill="white"/>
<path d="M92.7651 108.025C94.7331 110.124 97.6623 113.102 99.8567 115.212C99.3579 112.056 99.2399 108.809 99.8927 105.808C100.297 103.935 100.998 102.139 101.969 100.488L100.099 96.3712C99.4548 97.3412 98.8186 98.3164 98.1903 99.2968C98.1935 99.2936 95.5303 103.554 92.7651 108.025ZM99.8267 123.536C101.353 126.766 102.486 130.168 103.202 133.668L105.107 133.973C104.907 132.989 104.697 132.107 104.53 131.349C104.186 129.758 102.772 126.376 101.523 122.25C99.4692 121.032 97.6095 119.513 96.0055 117.744C95.9795 117.714 92.9191 114.792 90.2559 112.138L87.4807 116.632L93.4047 120.522C94.6771 121.358 96.1007 122.355 96.1599 124.212C96.2155 126.124 94.5559 128.354 94.0179 129.076C93.3227 130.001 91.1251 132.608 88.2747 130.795C88.2747 130.795 84.1351 128.223 81.2195 126.482L78.9727 129.808L102.297 133.524C101.778 129.837 100.561 126.472 99.8267 123.536ZM109.545 93.1436C112.95 91.3036 115.046 90.3064 120.438 89.6144L121.783 89.4272C122.701 89.2928 124.453 88.9256 124.955 88.0136C125.259 87.3768 125.384 86.6692 125.316 85.9668C119.563 87.1708 113.55 88.614 108.345 90.7296C106.547 91.3856 105.124 92.3008 103.727 93.1992C104.137 94.1112 104.632 95.1968 105.186 96.4236C106.322 95.3288 107.579 94.367 108.932 93.5568C109.126 93.416 109.545 93.1436 109.545 93.1436Z" fill="#FF3C00"/>
<path d="M121.754 71.3974C121.922 71.1525 122.147 70.9522 122.41 70.8138C113.494 55.7258 92.1316 40.1294 64.3928 44.8526C37.5132 53.4722 16.544 79.663 25.8728 116.996C29.766 131.162 34.3152 138.673 39.2548 145.716C39.2548 145.716 39.032 149.133 44.9292 147.356C50.2692 145.739 53.526 145.617 59.102 149.773C68.8208 157.015 85.5456 160.302 96.3236 154.693C100.195 152.66 103.218 149.316 104.852 145.26C105.544 143.217 105.845 141.061 105.737 138.907L103.674 138.562C103.215 147.375 94.49 155.864 78.8476 154.887C72.3336 154.644 65.38 151.475 61.2308 149.215C59.322 147.936 53.9428 144.919 51.3612 144.348C53.6048 144.469 59.2332 147.405 61.5688 148.766C66.3936 151.249 73.124 153.637 78.8512 153.876C89.2848 154.86 101.122 149.507 102.385 138.349L76.0236 133.941C75.5856 134.244 75.0557 134.385 74.5248 134.341C74.0107 134.308 73.5132 134.146 73.0789 133.869C72.6446 133.592 72.2877 133.209 72.0416 132.757C71.8925 132.451 71.8314 132.109 71.865 131.77C71.8986 131.431 72.0257 131.109 72.232 130.838L77.188 123.445L77.3916 123.044C77.3093 122.635 77.3152 122.213 77.4091 121.806C77.503 121.4 77.6826 121.018 77.936 120.686C78.3428 120.276 80.5992 116.576 81.1176 115.537C81.3121 115.217 81.5786 114.948 81.8958 114.75C82.213 114.553 82.5722 114.432 82.9444 114.398C83.4692 113.555 84.732 111.535 86.8804 108.055C86.8084 107.59 86.8616 107.115 87.0346 106.678C87.2076 106.241 87.494 105.858 87.8644 105.569C88.0616 105.411 88.2832 105.287 88.5204 105.201C91.1708 100.908 94.1424 96.2074 94.9688 94.9742C95.9136 93.6622 96.6548 92.8094 97.5012 91.835C97.9117 91.4248 98.3501 91.0435 98.8132 90.6938C99.21 90.1587 99.7674 89.7645 100.404 89.5686C100.425 89.5 100.469 89.4407 100.528 89.4014C102.667 87.6566 105.685 86.5642 105.685 86.5642C109.712 84.8782 116.883 82.9366 124.207 81.467C123.695 79.9846 122.065 75.2974 122.065 75.2974C121.993 75.1038 120.861 72.785 121.754 71.3974ZM88.7992 136.669C89.5127 136.673 90.2029 136.923 90.7542 137.376C91.3054 137.829 91.684 138.458 91.8263 139.157C91.9687 139.856 91.8661 140.582 91.5359 141.215C91.2057 141.847 90.6679 142.347 90.0128 142.629C89.7872 142.869 89.5059 143.049 89.194 143.154C88.882 143.259 88.549 143.285 88.2244 143.231C87.8998 143.176 87.5936 143.042 87.3334 142.84C87.0731 142.639 86.8668 142.376 86.7328 142.075C86.2644 141.656 85.9344 141.105 85.7867 140.494C85.639 139.883 85.6805 139.242 85.9058 138.656C86.1311 138.069 86.5295 137.565 87.0481 137.21C87.5667 136.855 88.1809 136.667 88.8092 136.669H88.7992ZM64.3764 146.477C63.9007 146.846 63.2979 147.011 62.7004 146.936C62.0048 147.372 60.9224 147.129 60.1484 146.316C59.4336 145.558 59.2204 144.558 59.5712 143.882C59.4204 142.783 59.758 141.691 60.5356 141.143C61.7132 140.317 63.4876 140.815 64.5176 142.275C65.5472 143.735 65.4916 145.549 64.3764 146.477ZM79.6644 138.132C74.4624 143.639 64.1468 143.603 58.2856 136.092C68.204 145.296 77.4536 139.215 79.6644 138.132ZM70.2576 131.572C69.6156 131.785 68.9427 131.889 68.2664 131.881C67.287 131.858 66.3219 131.641 65.4276 131.241C64.5333 130.841 63.7277 130.267 63.058 129.552C60.296 126.662 60.106 122.201 62.6576 119.617C63.228 119.038 63.9098 118.581 64.6619 118.273C65.414 117.965 66.2207 117.813 67.0332 117.826C68.0137 117.85 68.9795 118.069 69.874 118.471C70.7685 118.873 71.5736 119.45 72.242 120.168C73.6008 121.583 74.3821 123.455 74.4328 125.416L70.2576 131.572Z" fill="#FF3C00"/>
<path d="M102.296 133.524L103.218 133.668C102.502 130.168 101.369 126.766 99.8427 123.536C100.561 126.472 101.778 129.837 102.296 133.524ZM78.8539 153.86C73.1271 153.621 66.3899 151.236 61.5719 148.75C59.2199 147.389 53.6079 144.453 51.3643 144.331C53.9459 144.902 59.3283 147.92 61.2339 149.199C65.3831 151.459 72.3367 154.627 78.8507 154.87C94.4767 155.854 103.218 147.359 103.677 138.546L102.388 138.333C101.125 149.491 89.2879 154.841 78.8539 153.86ZM67.0331 117.823C66.2205 117.81 65.4138 117.962 64.6616 118.269C63.9095 118.577 63.2277 119.034 62.6575 119.613C60.1155 122.198 60.2959 126.659 63.0579 129.549C63.7261 130.267 64.531 130.844 65.4254 131.247C66.3198 131.649 67.2857 131.869 68.2663 131.894C68.9427 131.902 69.6155 131.797 70.2575 131.585L74.4327 125.409C74.3819 123.448 73.6006 121.576 72.2419 120.161C71.5729 119.444 70.7677 118.868 69.8732 118.467C68.9788 118.065 68.0132 117.846 67.0331 117.823Z" fill="#311D00"/>
<path d="M58.2852 136.092C64.1464 143.603 74.462 143.636 79.6644 138.132C77.4536 139.215 68.204 145.296 58.2852 136.092ZM86.7228 142.071C86.8568 142.372 87.0632 142.635 87.3236 142.837C87.7161 143.142 88.2084 143.289 88.704 143.25C89.1996 143.211 89.6627 142.989 90.0028 142.626C90.4683 142.431 90.8797 142.127 91.2016 141.738C91.5234 141.349 91.746 140.888 91.8503 140.395C91.9546 139.901 91.9375 139.389 91.8004 138.904C91.6633 138.418 91.4103 137.973 91.0632 137.607C90.7743 137.302 90.4268 137.059 90.0415 136.892C89.6563 136.725 89.2413 136.637 88.8214 136.635C88.4016 136.632 87.9855 136.714 87.5982 136.877C87.211 137.039 86.8605 137.278 86.5678 137.579C86.2751 137.88 86.0463 138.237 85.8951 138.629C85.7439 139.02 85.6734 139.438 85.6879 139.858C85.7024 140.278 85.8015 140.69 85.9793 141.07C86.1572 141.451 86.41 141.791 86.7228 142.071ZM88.5368 142.905C88.1979 142.909 87.8653 142.813 87.5813 142.628C87.2973 142.444 87.0748 142.178 86.942 141.867C86.8086 141.555 86.7711 141.211 86.8342 140.878C86.8972 140.545 87.058 140.238 87.296 139.997C87.5335 139.755 87.8377 139.589 88.1698 139.521C88.5018 139.452 88.8468 139.484 89.1607 139.613C89.4745 139.741 89.7432 139.959 89.9323 140.241C90.1215 140.522 90.2226 140.854 90.2228 141.193C90.2256 141.643 90.05 142.076 89.7344 142.398C89.4178 142.718 88.9872 142.901 88.5368 142.905ZM89.8784 139.477C89.442 138.988 88.3432 138.762 87.7136 139.182C87.428 139.359 87.136 139.129 87.4968 138.762C87.687 138.605 87.9073 138.487 88.1444 138.417C88.3814 138.347 88.6302 138.326 88.8756 138.355C89.121 138.384 89.358 138.463 89.572 138.587C89.7861 138.71 89.9728 138.876 90.1208 139.074C90.436 139.529 90.1144 139.838 89.8784 139.477ZM88.8744 137.224C89.3704 137.236 89.8521 137.394 90.2597 137.677C90.6673 137.96 90.9831 138.356 91.168 138.816C91.3531 139.277 91.3995 139.781 91.3015 140.267C91.2035 140.754 90.9653 141.201 90.6164 141.553C91.3476 139.982 90.7476 137.981 88.8188 137.896C86.8148 137.817 86.1488 139.828 86.4964 140.881C85.8208 140.245 86.0536 137.237 88.8744 137.224Z" fill="#311D00"/>
<path d="M87.4967 138.762C87.1359 139.129 87.4279 139.359 87.7135 139.182C88.3431 138.762 89.4419 138.989 89.8783 139.477C90.1143 139.838 90.4359 139.53 90.1307 139.074C89.9827 138.874 89.7954 138.707 89.5805 138.583C89.3656 138.458 89.1275 138.379 88.8809 138.35C88.6343 138.321 88.3843 138.342 88.1463 138.413C87.9083 138.484 87.6872 138.603 87.4967 138.762Z" fill="white"/>
<path d="M88.8188 137.896C90.7476 137.981 91.3476 139.982 90.6164 141.553C90.9651 141.2 91.203 140.753 91.3009 140.267C91.3987 139.781 91.3522 139.277 91.167 138.816C90.9819 138.356 90.6662 137.96 90.2588 137.677C89.8515 137.394 89.3702 137.237 88.8744 137.224C86.0536 137.224 85.8208 140.244 86.4964 140.881C86.1488 139.828 86.8148 137.817 88.8188 137.896Z" fill="white"/>
<path d="M90.2221 141.193C90.2188 140.944 90.1605 140.698 90.0511 140.474C89.9418 140.25 89.7843 140.053 89.5899 139.898C89.3955 139.742 89.169 139.631 88.9266 139.573C88.6843 139.515 88.4321 139.511 88.1881 139.562C87.862 139.63 87.5632 139.793 87.3293 140.03C87.0955 140.268 86.9372 140.569 86.8742 140.896C86.8112 141.224 86.8464 141.562 86.9755 141.87C87.1045 142.177 87.3215 142.439 87.5992 142.623C87.8769 142.808 88.2029 142.905 88.5361 142.905C88.8724 142.903 89.2006 142.801 89.4788 142.613C89.7571 142.424 89.9728 142.156 90.0985 141.844C90.1825 141.638 90.2241 141.416 90.2221 141.193ZM88.5197 142.531C88.2536 142.53 87.994 142.449 87.7733 142.301C87.5526 142.152 87.3808 141.941 87.2793 141.695C87.1498 141.386 87.1403 141.039 87.2528 140.723C87.3654 140.407 87.5918 140.144 87.8878 139.986C88.1838 139.828 88.5281 139.787 88.8533 139.869C89.1785 139.952 89.4612 140.152 89.6461 140.432C89.7825 140.636 89.8609 140.873 89.873 141.117C89.885 141.362 89.8302 141.605 89.7143 141.821C89.5985 142.036 89.4261 142.217 89.2157 142.342C89.0052 142.467 88.7646 142.533 88.5197 142.531Z" fill="white"/>
<path d="M88.5199 139.835C88.2535 139.836 87.9934 139.916 87.7725 140.065C87.5517 140.214 87.38 140.425 87.2791 140.672C87.1782 140.919 87.1526 141.19 87.2057 141.451C87.2587 141.712 87.388 141.951 87.5771 142.139C87.7662 142.327 88.0067 142.454 88.2682 142.505C88.5297 142.557 88.8005 142.529 89.0463 142.426C89.2922 142.324 89.5021 142.15 89.6495 141.928C89.797 141.706 89.8753 141.446 89.8747 141.179C89.8747 141.002 89.8395 140.826 89.7711 140.663C89.7032 140.499 89.6034 140.35 89.4775 140.225C89.3515 140.1 89.202 140.001 89.0375 139.934C88.8732 139.867 88.6973 139.833 88.5199 139.835ZM87.5359 141.225C87.5751 141.055 87.6539 141.14 87.6935 141.271C88.0607 141.852 89.0839 141.898 89.3923 141.448C89.5531 141.222 89.5499 141.534 89.5499 141.534C88.8939 142.803 87.4243 142.016 87.5359 141.225Z" fill="#311D00"/>
<path d="M89.3797 141.449C89.0713 141.898 88.0481 141.852 87.6805 141.272C87.6413 141.14 87.5625 141.055 87.5233 141.226C87.4249 142 88.8941 142.803 89.5369 141.534C89.5369 141.534 89.5405 141.222 89.3797 141.449Z" fill="white"/>
<path d="M60.5355 141.144C59.7579 141.691 59.4203 142.784 59.5711 143.882C59.2199 144.558 59.4331 145.558 60.1483 146.316C60.9223 147.13 62.0047 147.372 62.7003 146.936C63.2975 147.011 63.9003 146.846 64.3763 146.477C65.4915 145.548 65.5407 143.732 64.5171 142.275C63.4939 140.819 61.7127 140.317 60.5355 141.144ZM60.3483 146.064C59.6235 145.302 59.4987 144.246 60.0695 143.702C60.6403 143.158 61.6867 143.341 62.4115 144.105C63.1363 144.87 63.2611 145.929 62.6903 146.467C62.1195 147.005 61.0731 146.831 60.3483 146.067V146.064ZM63.1299 144.217C62.8578 143.721 62.4183 143.339 61.8899 143.138C61.5127 143.066 61.6571 142.456 62.1063 142.61C62.5878 142.826 63.0097 143.156 63.3363 143.571C63.7499 144.256 63.3103 144.601 63.1299 144.22V144.217ZM63.6415 146.342C65.7143 143.646 61.6735 140.507 60.0927 143C61.4175 138.933 66.7639 144.046 63.6415 146.346V146.342Z" fill="#311D00"/>
<path d="M62.1064 142.613C61.6572 142.459 61.5128 143.069 61.89 143.141C62.4184 143.342 62.8581 143.724 63.13 144.22C63.3104 144.601 63.75 144.256 63.3364 143.564C63.0086 143.153 62.5867 142.827 62.1064 142.613Z" fill="white"/>
<path d="M60.0918 143C61.6826 140.507 65.7138 143.656 63.641 146.342C66.7634 144.046 61.417 138.933 60.0918 143Z" fill="white"/>
<path d="M62.4111 144.109C61.6859 143.344 60.6399 143.167 60.0691 143.705C59.4983 144.243 59.6231 145.306 60.3479 146.067C61.0727 146.828 62.1223 147.015 62.6899 146.47C63.2571 145.926 63.1359 144.873 62.4111 144.109ZM62.3911 146.306C61.9155 146.657 61.1155 146.368 60.5283 145.831C59.9411 145.293 59.8459 144.355 60.2791 143.932C60.7675 143.462 61.6335 143.758 62.1519 144.348C62.5715 144.834 62.9359 145.896 62.3911 146.306Z" fill="white"/>
<path d="M60.2793 143.932C59.8461 144.354 59.8953 145.244 60.5285 145.83C61.1613 146.418 61.9157 146.657 62.3913 146.306C62.9325 145.896 62.5717 144.834 62.1521 144.338C61.6241 143.758 60.7677 143.462 60.2793 143.932ZM61.9913 146.073C61.0073 146.165 60.1481 144.988 60.5053 144.466C60.5053 144.466 60.7745 144.099 60.8333 144.436C60.9108 144.751 61.0689 145.04 61.2921 145.274C61.5153 145.509 61.7959 145.682 62.1061 145.775C62.2373 145.811 62.2801 146.021 61.9913 146.073Z" fill="#311D00"/>
<path d="M60.8245 144.436C60.7753 144.108 60.4965 144.466 60.4965 144.466C60.1389 144.987 61.0113 146.165 61.9821 146.073C62.2709 146.021 62.2281 145.811 62.0873 145.775C61.779 145.68 61.5006 145.507 61.2793 145.272C61.0579 145.037 60.9012 144.749 60.8245 144.436ZM55.9629 149.451C56.1533 149.32 56.3533 149.173 56.5077 149.061C53.8509 147.365 50.5545 146.257 45.1949 148.025L44.9553 148.1C46.2413 147.841 48.0221 147.543 49.1341 147.618C50.5509 147.723 52.6337 147.926 54.6053 149.176L53.6213 149.714C50.2313 151.409 46.5505 152.445 42.7741 152.767C40.5833 152.925 41.0061 151.646 42.4461 150.918C43.2401 150.514 43.9089 149.747 44.2041 148.339C43.9649 148.464 43.9649 148.412 43.6137 148.477H43.5745C43.0957 151.921 36.3585 151.564 37.1065 146.88C37.1065 146.88 36.1225 144.889 35.5813 143.735C35.5813 143.78 35.4433 143.009 35.5189 142.99C35.5189 142.99 37.1589 145.66 37.8445 146.506C36.9357 149.704 41.6097 151.039 42.8629 148.631C38.7429 149.399 38.5989 147.29 38.6481 146.585C38.6153 146.483 38.5921 146.368 38.5661 146.257C37.8477 145.525 35.5121 142.426 32.8553 137.558C32.5013 140.395 35.7153 146.959 35.9813 147.605L36.2569 148.284C35.2729 150.973 38.0805 154.496 43.1021 153.686C48.0453 153.223 53.5949 151.154 55.9629 149.451Z" fill="white"/>
<path d="M125.276 140.832L125.604 141.468C125.817 141.871 126.043 142.265 126.26 142.645C126.82 141.986 127.329 141.284 127.782 140.546L126.086 140.723C126.086 140.723 125.801 140.773 125.276 140.832ZM127.818 135.633C128.539 135.564 129.251 135.495 129.96 135.42C130.418 133.693 130.694 131.923 130.783 130.139V129.641L146.806 132.366C146.806 132.366 145.753 129.981 145.474 129.175L130.753 126.649L130.734 126.183C130.692 125.576 130.634 124.97 130.56 124.366C129.871 124.445 129.189 124.517 128.517 124.589C128.992 128.309 128.864 132.176 127.818 135.633ZM99.8558 115.212C100.184 115.54 100.512 115.838 100.804 116.11L101.043 116.297C100.095 111.423 100.059 106.29 102.516 101.691L101.968 100.488C100.996 102.139 100.294 103.935 99.8886 105.808C99.2394 108.809 99.3442 112.056 99.8558 115.212ZM105.107 133.973L107.561 134.363C107.561 134.206 107.544 134.035 107.535 133.895C110.234 131.946 112.32 128.748 113.439 125.767L113.251 125.353L112.855 125.331C110.031 125.173 106.951 124.753 103.789 123.392C104.589 126.423 105.406 129.355 105.855 132.094C105.297 129.742 104.012 126.551 102.831 122.949C102.386 122.73 101.948 122.496 101.519 122.247C102.769 126.373 104.182 129.755 104.527 131.346C104.697 132.107 104.92 132.993 105.107 133.973Z" fill="#311D00"/>
<path d="M126.857 111.564C125.873 107.048 126.916 98.6512 130.209 96.2568C125.502 96.8272 124.194 108.622 126.857 111.564Z" fill="white"/>
<path d="M111.083 120.571L102.988 102.728C101.128 107.428 101.401 112.384 102.332 117.255C104.89 119.142 107.917 120.289 111.083 120.571ZM142.427 85.5568C144.979 86.8884 149.607 85.0616 146.815 80.6368L140.803 69.7832L138.478 70.8624L142.679 80.23L143.152 80.2828C143.842 80.376 144.523 80.5308 145.185 80.7452C146.953 81.2568 147.265 85.2388 143.896 84.904C143.352 84.832 142.827 84.7728 142.391 84.7272C141.682 84.5971 140.967 84.5061 140.249 84.4548L140.065 84.432C140.925 87.7808 140.675 92.2876 136.152 93.288C138.487 92.2676 136.444 91.5624 136.326 91.51C131.452 90.3916 123.354 91.894 122.465 91.2804C127.667 90.7788 128.061 88.184 127.637 85.5044L126.834 85.6684C127.335 88.4892 126.158 89.5388 124.597 90.1192C123.257 90.6069 121.849 90.8835 120.425 90.9392L118.873 90.8868C119.545 90.6604 120.874 90.6048 122.501 90.2704C125.003 89.7488 126.457 88.6532 126.283 85.7832L125.322 85.98C125.39 86.6824 125.265 87.3899 124.961 88.0268C124.459 88.9384 122.707 89.306 121.789 89.4404L120.444 89.6272C115.052 90.3196 112.956 91.3164 109.551 93.1568C109.551 93.1568 109.131 93.4224 108.938 93.57C107.583 94.3755 106.324 95.3329 105.186 96.4236L105.665 97.4796C106.305 96.843 106.985 96.2481 107.701 95.6988C108.739 94.8225 109.89 94.0899 111.123 93.5208C109.184 94.7472 107.414 96.2226 105.858 97.9092L113.793 115.418C113.137 110.531 122.507 106.814 125.929 114.936C126.62 116.587 127.189 118.286 127.631 120.02L129.707 119.81C129.486 118.89 129.23 117.978 128.939 117.078C128.347 114.437 128.061 111.738 128.087 109.032V108.576C129.5 110.216 134.578 115.733 140.649 117.498L139.14 113.808C139.14 113.808 133.026 111.184 128.483 104.21C128.546 103.862 128.602 103.604 128.641 103.436C129.153 100.874 130.065 98.4636 131.56 96.5908C131.659 96.466 131.754 96.3612 131.845 96.2628C131.991 96.0539 132.154 95.8585 132.334 95.6788L141.964 118.262C141.964 118.262 143.571 118.154 145.038 117.888C145.038 117.888 137.415 99.848 135.096 94.334C135.253 94.3112 135.424 94.298 135.591 94.2848L135.818 94.2556C135.959 94.2556 136.083 94.2356 136.146 94.226C138.442 93.8128 139.655 92.786 140.534 91.1888C141.285 89.8176 141.387 88.0072 141.263 86.5408C141.559 86.1178 141.961 85.7788 142.427 85.5568ZM126.857 111.564C124.193 108.612 125.502 96.8268 130.209 96.2564C126.916 98.6508 125.886 107.048 126.857 111.564Z" fill="#311D00"/>
<path d="M86.6735 127.341C86.7667 127.577 86.8763 127.806 87.0015 128.027C87.2106 128.385 87.5075 128.684 87.8643 128.896C90.4683 130.444 91.9051 128.473 91.9183 128.456C91.9315 128.44 93.1155 126.892 91.3835 125.176C91.0352 124.879 90.6307 124.655 90.1941 124.517C89.7574 124.379 89.2975 124.33 88.8415 124.373C88.6667 123.707 88.2648 123.124 87.7055 122.723C87.1461 122.322 86.4643 122.13 85.7779 122.178H85.7487C84.0199 122.296 83.6167 123.231 83.4199 123.769C83.2965 124.131 83.2513 124.516 83.2875 124.897C83.3236 125.278 83.4402 125.647 83.6295 125.98C83.6231 126.026 84.4627 127.682 86.6735 127.341ZM88.9531 124.842C90.8983 124.783 92.4167 126.728 91.4395 128.155L91.0851 128.213C89.3895 128.437 88.4347 127.764 88.1495 126.245C88.5814 125.893 88.8676 125.393 88.9531 124.842ZM86.6799 122.762C87.6443 123.071 88.3463 123.917 88.3003 124.786H88.4087C88.3299 125.419 87.6639 126.278 86.3063 126.072C86.2455 125.792 86.2136 125.506 86.2111 125.219C86.4485 125.3 86.6986 125.336 86.9491 125.327C86.95 125.194 86.9587 125.062 86.9751 124.93C86.707 124.9 86.4462 124.824 86.2043 124.704C86.215 124.029 86.3776 123.366 86.6799 122.762ZM84.4299 123.182C84.6179 122.999 84.8437 122.86 85.0914 122.773C85.3391 122.687 85.6027 122.657 85.8635 122.683C85.5864 123.216 85.4423 123.808 85.4435 124.409C85.3091 124.297 85.2039 124.294 85.0695 124.153V124.632C85.1547 124.783 85.2895 124.829 85.4599 124.96C85.4535 125.291 85.4876 125.621 85.5615 125.944C85.4731 125.914 85.4239 125.842 85.3287 125.796C83.9807 125.029 84.4299 123.182 84.4299 123.182ZM83.9283 123.776C83.7019 126.583 86.2635 126.993 87.7035 126.462C88.0151 128.735 89.9995 128.794 90.9507 128.643C90.3855 128.949 89.7296 129.043 89.1013 128.908C88.473 128.773 87.9134 128.418 87.5235 127.907C87.2651 127.568 87.0908 127.173 87.0147 126.754C85.2139 127.305 83.1639 125.849 83.9283 123.776Z" fill="white"/>
<path d="M132.367 73.9948C131.797 73.6276 130.927 72.3744 131.055 71.3544C132.397 71.374 132.801 73.3224 132.367 73.9948ZM133.755 77.6356C133.08 76.984 132.688 76.0937 132.663 75.156C133.729 75.3724 134.371 76.6944 133.755 77.6356ZM128.038 75.028C128.038 75.028 128.881 77.672 129.95 80.3124C132.751 79.584 134.759 84.7532 129.819 85.1272C130.301 87.1904 134.946 86.3276 133.148 81.6604C132.787 80.7224 129.681 74.2736 129.084 72.6664C128.707 71.64 128.694 71.4628 128.714 71.1052C128.707 70.9778 128.723 70.8501 128.76 70.728L128.678 70.7676L127.671 71.2888C126.943 72.1516 128.038 75.028 128.038 75.028Z" fill="#311D00"/>
<path d="M126.125 74.8053C126.916 77.1965 128.165 80.6501 128.165 80.6501L129.176 80.4601L127.25 75.0841C127.25 75.0841 126.46 73.0113 126.876 71.6665L125.958 72.1025C125.958 72.1025 125.528 72.9849 126.125 74.8053ZM133.108 86.1017C136.854 86.3641 137.736 84.6977 137.736 84.6977C136.539 84.6781 134.178 84.6781 134.178 84.6781C134.112 85.4093 133.108 86.1017 133.108 86.1017ZM89.6611 105.093C90.2223 105.093 90.8223 105.808 90.8223 105.808L92.2231 107.349L97.4315 98.8017C98.2975 97.4437 99.8455 95.5217 99.7275 95.6233C99.7275 95.6233 99.0715 94.0261 98.7667 93.3897C98.5307 92.9123 98.4179 92.3834 98.4387 91.8513C97.4654 93.0037 96.5554 94.2082 95.7127 95.4593C94.8731 96.7517 92.3871 100.668 89.6611 105.093ZM155.688 115.595C156.128 115.637 156.545 115.811 156.885 116.094C156.885 116.094 160.821 115.595 161.661 115.254C161.664 115.254 157.19 115.7 155.688 115.595ZM157.187 129.683C157.187 129.683 154.471 129.722 150.709 129.66L151.834 132.248L156.098 131.408C156.098 131.408 157.636 131.349 157.187 129.683ZM146.753 122.336C146.753 122.336 144.244 122.746 143.801 122.801C143.801 122.801 147.537 131.949 148.128 133.071C148.128 133.071 150.597 132.714 151.102 132.491C149.473 129.185 148.021 125.796 146.753 122.336ZM153.33 136.932C153.33 136.932 150.784 137.496 150.164 137.611C150.164 137.611 153.772 144.171 160.552 147.5C160.552 147.5 160.46 144.915 160.349 143.892C160.352 143.899 156.022 140.979 153.33 136.932ZM173.866 148.625C173.866 148.625 174.653 150.983 165.994 152.109C165.994 152.109 171.16 151.38 172.554 149.635C172.554 149.635 173.898 148.51 171.153 147.89C168.473 147.29 168.063 147.611 165.479 146.487C165.479 146.487 165.646 149.015 165.59 149.635C165.59 149.635 167.273 150.141 168.214 150.085C168.214 150.085 168.276 149.301 166.082 148.625C166.082 148.625 175.519 149.524 165.577 151.659C165.608 152.733 165.532 153.808 165.351 154.867C165.351 154.867 170.504 153.512 172.091 153.063C173.918 152.558 177.408 150.931 173.866 148.625ZM114.012 125.445C116.862 131.677 117.978 134.301 118.988 136.197C120.117 136.312 121.256 136.287 122.38 136.122L117.42 125.462C116.287 125.585 115.144 125.579 114.012 125.445ZM99.4327 91.3397C99.2927 91.5646 99.2185 91.8242 99.2185 92.0891C99.2185 92.354 99.2927 92.6136 99.4327 92.8385C99.4327 92.8549 106.272 107.809 112.106 120.571C113.22 120.763 114.35 120.838 115.478 120.794L101.788 90.4769C101.565 90.378 101.323 90.3289 101.079 90.3329C100.744 90.3572 100.42 90.4613 100.134 90.6365C99.8473 90.8116 99.607 91.0527 99.4327 91.3397Z" fill="#311D00"/>
<path d="M163.704 155.375C163.953 155.228 164.159 155.019 164.302 154.768C164.446 154.517 164.522 154.234 164.524 153.945C165.603 141.724 160.936 125.544 156.209 116.832C155.921 116.592 155.571 116.439 155.199 116.391C154.827 116.344 154.449 116.403 154.11 116.563C153.829 116.68 153.583 116.869 153.398 117.111L153.359 117.389V117.517C152.923 117.668 152.472 117.772 152.014 117.826C145.388 119.138 122.852 121.89 116.669 121.732C114.768 121.747 112.869 121.66 110.978 121.47C106.284 120.939 103.87 119.571 100.505 116.947C97.4777 114.113 91.3409 107.763 90.2681 106.339C89.7665 105.752 88.8709 105.916 88.4181 106.277C88.0636 106.538 87.8273 106.929 87.7609 107.365C87.6946 107.8 87.8036 108.244 88.0641 108.599C90.5077 111.276 96.5757 117.058 96.6345 117.127C102.116 123.08 107.632 124.314 112.598 124.593C116.088 124.835 120.578 124.625 119.788 124.675C128.93 124.123 144.483 121.949 152.998 120.411C153.634 120.266 154.156 120.168 154.156 120.168H154.451C154.858 120.355 155.242 121.591 155.264 121.683V121.637C156.15 123.867 157.918 129.657 157.938 129.716C157.938 129.716 158.426 131.49 158.233 131.684C157.934 131.985 155.573 132.547 155.573 132.547C151.204 133.711 133.138 136.387 123.366 136.932C123.298 136.948 120.742 137.345 115.199 136.515L78.9325 130.536L76.9185 133.294C76.7613 133.294 114.428 139.428 114.428 139.428C117.09 139.868 119.783 140.082 122.481 140.067L123.573 140.038C124.938 139.979 125.712 139.861 125.732 139.861C135.83 138.837 148.622 137.204 156.892 135.236C157.438 135.124 157.994 135.067 158.551 135.065C158.789 135.089 159.023 135.149 159.243 135.243C159.482 135.544 159.638 135.902 159.696 136.282C161.172 141.609 161.484 149.615 161.5 149.993C161.5 149.993 161.529 151.653 161.25 152.289C160.906 152.659 159.68 152.869 159.68 152.869C146.271 156.3 130.625 153.879 124.554 140.874C123.242 140.986 121.244 140.947 121.244 140.947C121.41 141.426 121.614 141.891 121.854 142.337C125.768 151 132.81 154.45 138.77 156.025C145.33 157.76 153.123 157.648 160.394 155.779C161.572 155.385 161.529 155.297 161.529 155.297C161.867 155.46 162.234 155.551 162.608 155.564C162.983 155.578 163.356 155.514 163.704 155.375Z" fill="#311D00"/>
<path d="M81.1799 117.524C80.9011 118.013 80.2647 119.069 78.9527 120.912C78.3787 121.719 78.1755 122.454 78.3491 123.097C78.6083 124.048 79.6315 124.523 79.6415 124.527H79.6611L85.8571 128.328L86.5819 128.761L88.5763 129.995C90.0455 130.979 91.8071 130.181 92.7287 128.951C93.5355 127.856 93.8535 126.288 92.1939 124.711C92.1939 124.711 91.9055 124.33 90.4751 123.533C89.1403 122.795 84.5155 119.997 82.3179 118.613C82.3311 118.649 81.4651 118.144 81.1799 117.524ZM83.4035 123.799C83.6003 123.261 84.0039 122.326 85.7323 122.208H85.7619C86.4482 122.16 87.1299 122.352 87.6892 122.753C88.2486 123.154 88.6505 123.737 88.8255 124.402C89.2814 124.36 89.7413 124.409 90.1779 124.547C90.6145 124.685 91.019 124.909 91.3675 125.206C93.0991 126.908 91.9119 128.453 91.9019 128.486C91.8923 128.519 90.4523 130.457 87.8643 128.896C87.5068 128.679 87.211 128.374 87.0051 128.01C86.8799 127.79 86.7703 127.561 86.6771 127.325C84.4663 127.653 83.6267 126.013 83.6167 125.993C83.4296 125.663 83.3139 125.297 83.2772 124.919C83.2405 124.54 83.2835 124.159 83.4035 123.799ZM93.7911 121.873C92.4955 120.889 89.5007 118.921 87.2311 117.455L86.6963 117.973C86.6963 117.973 91.7475 121.339 93.0431 122.208C94.5223 123.208 95.0999 124.477 94.8667 125.75C94.8571 125.75 96.1099 123.648 93.7911 121.873Z" fill="#311D00"/>
<path d="M82.7241 118.072C84.9053 119.436 92.0101 123.622 92.0101 123.622C92.0101 123.622 93.9289 124.842 94.0141 126.39C94.5945 124.75 93.6173 123.517 92.6265 122.805L86.0141 118.377C84.7777 118.705 82.1633 117.344 82.2585 115.638C81.6057 116.196 81.4777 117.278 82.7241 118.072ZM88.1493 126.249C88.4345 127.764 89.3893 128.437 91.0849 128.217L91.4393 128.158C92.4233 126.731 90.8981 124.786 88.9529 124.845C88.8675 125.396 88.5813 125.896 88.1493 126.249Z" fill="#311D00"/>
<path d="M87.0249 126.754C87.1396 127.386 87.4766 127.957 87.9751 128.363C88.4736 128.769 89.1007 128.983 89.7433 128.967C90.1691 128.957 90.5864 128.846 90.9609 128.643C90.0033 128.794 88.0089 128.735 87.7137 126.462C86.2737 126.993 83.7121 126.583 83.9385 123.776C83.1645 125.848 85.2145 127.305 87.0249 126.754ZM164.003 115.543C161.884 116.121 159.736 116.588 157.568 116.943C158.27 118.304 158.437 118.856 158.68 119.39C159.386 119.304 160.088 119.182 160.782 119.026C162.629 118.678 164.472 118.246 165.394 117.957L165.765 117.878C166.086 117.827 166.377 117.659 166.581 117.406C166.785 117.152 166.888 116.832 166.87 116.507C166.845 116.183 166.706 115.877 166.477 115.645C166.248 115.414 165.944 115.27 165.62 115.241C165.075 115.309 164.535 115.41 164.003 115.543ZM168.044 128.22C166.581 128.548 162.206 129.401 162.206 129.401L162.485 130.188C163.665 130.076 168.775 128.781 168.775 128.781C169.759 128.781 169.783 129.417 169.783 129.417C167.815 130.152 162.786 131.201 162.786 131.201C163.009 132.152 163.491 134.009 163.491 134.009C169.451 132.943 170.74 132.287 170.74 132.287C172.479 131.556 171.806 129.516 171.806 129.516C171.134 127.154 168.044 128.22 168.044 128.22Z" fill="#311D00"/>
<path d="M170.028 118.324C168.943 114.241 166.584 114.746 166.584 114.746C167.88 115.143 168.985 117.317 166.624 118.61C167.686 121.37 168.544 124.205 169.189 127.092C173.532 127.062 173.758 132.267 171.212 133.094C171.212 133.094 172.852 141.409 173.308 145.985C173.34 146.496 173.346 147.008 173.325 147.52C175.126 147.89 176.172 149.16 176.172 149.816C177.048 144.574 173.981 129.401 170.028 118.324ZM144.848 115.54L145.806 117.734C145.806 117.734 150.483 117.222 152.506 116.717C152.53 116.488 152.632 116.273 152.795 116.11C152.958 115.947 153.173 115.845 153.402 115.822C150.549 116.043 147.68 115.948 144.848 115.54ZM80.4088 126.078C80.4088 126.078 78.0408 124.655 77.742 124.087L73.0256 131.303C72.9101 131.445 72.8378 131.618 72.8174 131.8C72.7971 131.982 72.8295 132.166 72.9108 132.33C73.0886 132.637 73.3398 132.896 73.642 133.083C73.9441 133.269 74.2879 133.378 74.6424 133.399C74.8774 133.427 75.1156 133.39 75.3308 133.292C75.5461 133.193 75.7301 133.038 75.8628 132.842C75.8628 132.842 79.4148 127.548 80.4088 126.078ZM101.926 89.4438C102.254 89.621 102.293 89.6898 102.67 90.3558C102.906 90.7722 103.566 92.199 103.566 92.199C104.76 91.2938 105.894 90.6478 108.023 89.877C114.79 87.1282 122.882 85.5078 130.026 84.081L130.57 83.973C131.734 83.7858 132.046 83.0742 131.958 82.4674C131.861 82.0698 131.616 81.7238 131.274 81.4991C130.932 81.2745 130.517 81.188 130.114 81.257C121.189 82.697 110.867 85.3638 105.891 87.4466C104.508 87.9837 103.18 88.6525 101.926 89.4438ZM83.42 115.333L83.3972 115.359C82.9772 115.864 83.6756 116.586 83.8232 116.727C84.4596 117.343 85.4832 117.737 85.9684 117.35L89.5764 111.62C88.7257 110.845 87.9443 109.996 87.2412 109.085C84.2664 113.909 83.4824 115.212 83.43 115.317L83.42 115.333ZM138.317 80.5518C138.317 80.5518 139.042 82.241 139.042 83.4186C140.452 83.553 143.204 83.8154 144.257 84.045C145.418 84.045 145.622 83.2742 145.654 82.9366C145.714 82.3066 145.363 81.5458 144.772 81.4606H144.7C143.87 81.1654 139.878 80.703 138.317 80.5518ZM86.9492 125.34C86.6987 125.349 86.4486 125.313 86.2112 125.232C86.214 125.519 86.2456 125.805 86.3064 126.085C87.6644 126.291 88.33 125.429 88.4088 124.799H88.3008C88.3464 123.93 87.6448 123.084 86.6804 122.775C86.374 123.387 86.2113 124.06 86.2048 124.743C86.4464 124.863 86.7072 124.939 86.9756 124.97C86.96 125.093 86.9512 125.216 86.9492 125.34ZM85.3288 125.787C85.424 125.832 85.4732 125.905 85.5616 125.934C85.4877 125.612 85.4536 125.281 85.46 124.95C85.2896 124.832 85.1548 124.786 85.0696 124.622V124.153C85.204 124.294 85.3092 124.297 85.4436 124.409C85.4423 123.808 85.5864 123.216 85.8636 122.683C85.6027 122.657 85.3391 122.687 85.0914 122.774C84.8438 122.86 84.618 122.999 84.43 123.182C84.43 123.182 83.9808 125.029 85.3288 125.787Z" fill="#311D00"/>
<path d="M141.755 80.0697L137.819 71.1481L136.923 71.5089C136.717 71.1053 136.333 70.9513 135.696 70.8889C102.952 12.3801 2.0724 44.8097 26.3444 122.244C27.8663 127.079 29.8125 131.77 32.1604 136.263C31.8552 137.496 31.8552 138.785 32.1604 140.018C32.8164 142.498 33.3672 144.02 35.3644 148.412C34.548 151.39 37.3324 155.765 44.086 154.467C52.1124 153.223 56.3076 150.317 57.2816 149.576C57.5504 149.763 57.8196 149.96 58.0884 150.157C72.3204 161.259 95.5984 162.145 104.199 149.002C107.623 149.701 111.9 149.127 111.9 149.127C116.354 148.831 119.943 147.641 122.744 145.791C122.416 145.237 122.072 144.673 121.76 144.082C118.152 146.516 112.982 147.811 105.708 147.221L105.245 147.159C106.468 144.657 107.202 141.945 107.41 139.169C106.872 139.08 106.318 138.982 105.744 138.893C105.849 141.048 105.545 143.202 104.848 145.243C104.417 146.476 103.816 147.642 103.06 148.707H103.077C101.362 151.232 99.0349 153.281 96.3136 154.663C85.542 160.282 68.814 156.999 59.0956 149.763C53.5196 145.601 50.2592 145.725 44.926 147.336C39.022 149.127 39.2548 145.696 39.2548 145.696C34.3052 138.677 29.7624 131.162 25.8724 116.993C16.5472 79.6565 37.5196 53.4721 64.3828 44.8557C92.1284 40.1325 113.491 55.7253 122.403 70.8101C122.14 70.9512 121.915 71.1538 121.747 71.4005C120.861 72.7849 121.99 75.0937 122.075 75.3005C122.075 75.3005 123.715 79.9877 124.213 81.4637L125.197 81.2765L122.783 74.5757C121.826 72.3125 122.898 71.4729 122.898 71.4729C122.613 72.3125 122.846 73.2801 123.006 73.7885C123.318 74.7725 124.374 77.6817 125.25 79.9153C125.42 80.3549 125.578 80.7749 125.716 81.1781C125.975 81.1257 126.234 81.0701 126.503 81.0273C125.752 78.7709 124.722 76.1337 124.41 75.2545C124.141 74.5233 124.016 74.2445 123.675 73.0637C123.22 71.4629 123.846 71.4237 124.525 71.3745C124.912 71.3449 126.066 71.3745 126.368 71.3745C127.067 70.9973 128.562 70.2557 129.455 69.8065C118.696 51.6189 97.1304 39.4597 68.8568 43.5929C91.1608 38.1709 116.489 44.5965 131.734 66.3165C132.538 67.6681 133.227 68.4125 134.44 70.8397H133.896C133.046 69.6393 132.187 69.2553 131.141 69.2357C131.085 69.2357 129.054 69.2357 129.314 71.2957C129.407 71.9033 129.581 72.4957 129.832 73.0569L131.344 76.2417L131.748 77.0913L133.204 80.0433C133.204 80.0433 134.286 82.1981 134.348 83.3429L138.268 83.4153C138.268 83.4153 138.33 82.2181 137.491 80.0793C136.881 78.5413 135.057 72.9029 134.457 71.7777C134.449 71.7586 134.44 71.7401 134.43 71.7221C134.901 71.7217 135.37 71.7613 135.834 71.8401C136.605 73.8081 137.724 77.1637 138.583 79.8105L138.911 79.8269L139.59 79.8825C139.59 79.8825 139.59 79.8565 139.574 79.8369C139.921 79.8533 141.269 79.9713 141.755 80.0697ZM32.8588 137.558C35.5156 142.436 37.8476 145.532 38.566 146.263C38.592 146.381 38.618 146.496 38.6448 146.591C38.592 147.3 38.7428 149.409 42.8692 148.641C41.6064 151.046 36.9356 149.714 37.8412 146.513C37.1688 145.673 35.522 143 35.522 143C35.4432 143.016 35.594 143.797 35.5844 143.741L37.1064 146.89C36.3684 151.577 43.0924 151.928 43.5844 148.494C43.604 148.494 43.6104 148.494 43.6204 148.474C43.968 148.412 43.978 148.474 44.2108 148.34C43.9156 149.743 43.2532 150.514 42.456 150.918C41.0096 151.643 40.5864 152.928 42.784 152.768C44.9816 152.607 48.9568 151.981 53.6344 149.707L54.6184 149.173C52.6504 147.926 50.5676 147.723 49.144 147.615C48.0352 147.543 46.2544 147.838 44.9652 148.097L45.208 148.028C50.5676 146.257 53.8672 147.372 56.524 149.065C56.3632 149.173 56.1664 149.314 55.9796 149.448C53.608 151.157 48.0516 153.223 43.1152 153.689C38.0936 154.503 35.2956 150.98 36.27 148.294L35.9912 147.615C35.7124 146.962 32.498 140.405 32.8588 137.558ZM135.044 76.7141C135.401 78.2721 134.273 79.1117 133.154 77.8229C132.739 77.3383 132.438 76.7667 132.272 76.1501L132.236 76.0517C132.122 75.5652 132.088 75.0631 132.138 74.5657C131.624 74.1079 131.21 73.5498 130.921 72.9257C130.265 70.9577 130.921 70.5181 131.216 70.4133C132.298 70.1445 133.81 71.7549 133.702 74.1689C134.302 74.7757 134.739 75.3365 135.044 76.7141Z" fill="#311D00"/>
<path d="M135.043 76.714C134.738 75.3364 134.302 74.7724 133.702 74.172C133.81 71.758 132.298 70.1476 131.215 70.4164C130.92 70.5216 130.258 70.9708 130.92 72.9292C131.21 73.5533 131.624 74.1115 132.137 74.5692C132.088 75.0665 132.121 75.5685 132.235 76.0548L132.272 76.1532C132.437 76.7699 132.738 77.3415 133.154 77.826C134.273 79.112 135.401 78.272 135.043 76.714ZM132.367 73.9952C131.796 73.6276 130.927 72.3748 131.055 71.3548C132.396 71.3744 132.8 73.3228 132.367 73.9952ZM133.754 77.636C133.08 76.9842 132.687 76.0938 132.662 75.156C133.728 75.3728 134.371 76.6944 133.754 77.636Z" fill="white"/>
</g>
</svg>
