<svg width="200" height="200" viewBox="0 0 200 200" fill="none" xmlns="http://www.w3.org/2000/svg">
<g clip-path="url(#clip0_106_4487)">
<path d="M195.622 78.6759H122.958L99.8108 9.45508L76.662 78.6759H4L63.5336 121.297L40.6796 190.558L99.8108 148.319L158.946 190.477L136.086 121.299L195.622 78.6759Z" fill="#FFFFFE"/>
<path d="M99.8111 17.6929L78.5207 81.2601H12.0391L66.5803 120.304L45.6043 183.869L99.8223 145.148L154.022 183.869L133.037 120.304L187.581 81.2601H121.099L99.8111 17.6929Z" fill="#002244"/>
<path d="M99.8106 35.2124L82.6907 86.7004H28.8398L73.0194 118.327L56.029 169.812L99.9426 138.452L143.59 169.812L126.599 118.329L170.781 86.7004H116.929L99.8106 35.2124Z" fill="#FFFFFE"/>
<path d="M99.8112 50.355L86.3552 91.0302H43.8184L78.7168 116.016L65.2916 156.691L99.9872 131.915L134.329 156.691L120.902 116.018L155.802 91.0302H113.265L99.8112 50.355Z" fill="#002244"/>
</g>
<defs>
<clipPath id="clip0_106_4487">
<rect width="200" height="200" fill="white"/>
</clipPath>
</defs>
</svg>
