<svg width="200" height="200" viewBox="0 0 200 200" fill="none" xmlns="http://www.w3.org/2000/svg">
<g clip-path="url(#clip0_106_4417)">
<path d="M101.262 154.906C101.268 154.979 101.181 155.47 100.987 155.684C100.791 155.9 100.505 155.979 100.228 156.04C99.7756 156.14 99.3288 156.044 98.9688 155.771C98.6732 155.548 98.4888 155.234 98.4668 154.93L98.4648 154.913L98.4628 154.915L95.1008 143.979C93.2176 138.371 90.3708 132.356 84.8484 127.032C78.1776 120.603 68.3444 116.156 54.7856 113.444C42.9676 111.079 35.1892 109.045 29.5636 106.851C24.1632 104.747 20.9784 102.555 17.858 99.9154C9.9044 93.1842 4.36 84.6026 4 73.7926C4 73.7926 11.9132 84.9658 20.6108 79.6294C24.7224 77.1078 27.6784 77.4674 27.6784 77.4674C25.0032 74.5178 23.0296 70.6658 22.5016 66.4766C22.0808 63.1266 22.3556 59.4078 23.3176 55.425C24.9552 48.6458 29.724 43.6778 29.7704 43.6006C29.7704 43.6006 27.8944 59.8858 35.6876 65.6634C40.4936 68.3658 45.4248 67.2758 45.4248 67.2758C45.4248 67.2758 38.9536 64.2818 38.0472 54.671C37.6504 50.4466 38.2744 47.1242 38.4404 46.2758C38.4404 46.2758 46.9832 58.3254 55.5424 53.3762C57.4568 52.2694 67.558 47.0526 71.9132 45.8958C78.3068 44.2006 84.634 44.0806 90.7192 45.5418C95.7708 46.7538 100.702 49.0634 105.379 52.4042C113.715 58.3606 119.113 66.0938 121.046 69.143C121.046 69.143 137.824 68.405 147.005 80.1302L147.018 80.1486L168.254 89.5142L165.846 91.0526L165.741 91.121L165.85 91.1894C172.722 95.5538 184.745 103.289 188.018 106.078L188.026 106.085L188.037 106.091L194.12 108.982L193.011 111.924V111.926C192.937 112.123 191.286 116.841 194.401 119.174L195.967 120.347L196 120.373L195.985 120.41L191.203 133.067L189.992 131.441C183.321 122.255 177.016 120.558 173.848 120.493C170.262 120.417 170.01 122.327 170.454 123.149C171.896 125.811 179.933 127.191 182.911 127.494L184.938 127.757L177.197 134.688L163.161 133.806L163.104 133.803L163.11 133.745L163.346 130.991V130.975C163.274 130.453 162.325 125.75 150.848 121.03L150.815 121.019L150.782 121.033C148.83 121.934 144.826 123.487 139.918 123.751C134.001 124.07 128.51 122.474 123.597 119.011L123.564 118.991L123.523 119C121.553 119.672 117.667 121.188 113.782 123.854C106.573 128.807 102.638 135.284 102.09 143.107C102.09 143.107 101.458 149.554 101.263 154.907" fill="#002244"/>
<path d="M55.497 67.9669C71.1266 63.1709 81.705 63.9181 85.3162 70.0585C72.0462 71.5749 58.7758 75.3377 45.875 81.2477C39.4118 80.8085 33.4742 78.1729 29.989 74.1905C25.595 69.1697 24.1442 61.6861 27.1738 52.2473C27.3898 60.3893 29.7602 65.1685 33.6926 67.8597C38.3062 71.0177 45.4378 71.0509 55.4974 67.9665L55.497 67.9669ZM104.077 55.1893C109.432 59.1937 114.459 64.7093 118.624 71.1505C110.499 69.6509 102.166 69.0589 93.8542 69.3925C91.397 64.4805 87.2374 60.8797 82.7146 59.7565C77.695 58.5113 71.261 59.4725 63.5902 62.6137C56.7022 65.4341 51.2082 65.7457 47.259 63.5417C45.051 62.3097 43.3302 60.2953 42.1398 57.5577C41.1854 55.3645 40.7922 53.2193 40.5926 52.0349L40.6886 52.1325C42.7822 54.3017 48.3446 60.0641 56.9458 55.6097C60.217 53.9145 68.953 49.6297 72.817 48.5909C78.7818 46.9881 84.697 46.9509 90.385 48.4229C95.0946 49.6421 99.7006 51.9185 104.076 55.1889L104.077 55.1893ZM9.19336 81.7181C9.19336 81.7181 13.9158 86.2133 21.8618 82.1461C30.7954 77.5733 32.3186 82.6221 39.7806 84.9777C12.825 100.454 9.19336 81.7185 9.19336 81.7185V81.7181Z" fill="#FB4F14"/>
<path d="M188.988 114.111C189.009 112.036 189.564 110.346 189.681 110.022L186.06 108.332L186.046 108.328L186.038 108.317C183.803 105.901 159.594 90.6884 159.35 90.5336L159.258 90.4764L159.348 90.4192L161.137 89.2276L144.73 82.2844L144.712 82.2752L144.699 82.2584C138.04 72.3068 124.916 71.9104 122.396 71.9288C127.395 73.4728 128.922 74.9928 129.308 76.0052C129.565 76.682 129.308 77.1044 129.297 77.1212L129.269 77.1656L129.221 77.1528C72.6125 61.7356 26.3037 97.2072 24.3633 98.7232C26.5861 100.964 31.5817 103.984 49.5393 107.968C53.5473 104.84 72.6493 91.2692 101.481 92.068L96.8029 85.0068C96.8029 85.0068 114.661 89.644 124.855 95.3032C124.069 102.844 128.743 110.112 136.283 112.336C141.688 113.93 147.262 112.554 151.253 109.16L164.064 117.328L151.774 112.563C146.547 116.341 139.648 117.656 133.044 115.511C124.873 112.86 119.455 105.655 118.685 97.62C91.0205 90.6788 70.6225 108.158 66.5461 112.006C69.8413 113.048 72.8821 114.232 75.6401 115.551C79.0001 117.16 82.0261 119.006 84.6789 121.068C86.7281 118.571 94.8973 109.992 110.564 109.862C110.564 109.862 95.1817 113.839 90.2781 126.358C94.6349 131.4 96.8781 136.727 98.6025 141.814C98.9937 136.979 100.541 132.541 103.22 128.622C105.411 125.42 108.352 122.553 111.963 120.103C118.11 115.932 124.151 114.398 124.212 114.383L124.245 114.374L124.271 114.396C136.736 124.434 150.457 116.53 150.594 116.447L150.621 116.432L150.654 116.444C154.491 117.908 157.732 119.55 160.282 121.326C162.326 122.745 163.936 124.256 165.067 125.81C166.823 128.225 166.873 129.961 166.862 130.322L176.157 130.931L178.884 128.605C170.436 127.511 167.875 124.888 167.352 122.642C166.444 117.22 171.982 116.553 174.506 116.881C180.39 117.648 187.544 122.914 190.238 126.578L192.232 121.228C189.518 119.168 188.968 116.22 188.988 114.11" fill="#FFFFFE"/>
<path d="M156.213 92.3431C156.135 92.8698 155.859 93.3472 155.443 93.679C155.026 94.0107 154.499 94.1721 153.968 94.1307C153.693 94.1098 153.424 94.0348 153.177 93.91C152.93 93.7851 152.71 93.6128 152.53 93.403C152.35 93.1931 152.213 92.9498 152.127 92.687C152.04 92.4241 152.007 92.1469 152.028 91.8711C152.07 91.3474 152.306 90.8582 152.689 90.4987C146.475 87.4515 143.224 86.9883 143.224 86.9883C150.75 91.9799 153.963 96.1431 153.963 96.1431L155.997 94.7559L175.029 105.369C167.458 99.1995 161.157 95.0839 156.213 92.3431Z" fill="#002244"/>
<path d="M152.029 91.8708C152.007 92.1467 152.041 92.424 152.127 92.6869C152.213 92.9498 152.35 93.1931 152.53 93.403C152.711 93.6128 152.93 93.7851 153.177 93.9099C153.424 94.0348 153.693 94.1097 153.969 94.1305C154.5 94.1719 155.027 94.0105 155.443 93.6787C155.86 93.347 156.135 92.8696 156.214 92.3428C155.915 92.1768 155.619 92.0144 155.328 91.8596L153.251 93.3832L153.829 91.0701C153.439 90.8689 153.059 90.6788 152.69 90.498C152.307 90.8575 152.071 91.3467 152.029 91.8704" fill="#FB4F14"/>
<path d="M153.25 93.3838L155.327 91.8602C154.831 91.5904 154.331 91.3272 153.828 91.0706L153.25 93.3838M186.311 110.465C181.83 112.256 187.605 117.389 187.605 117.389C175.047 107.485 186.311 110.465 186.311 110.465ZM131.685 78.1218C139.804 78.2858 131.745 74.8438 131.745 74.8438C131.745 74.8438 137.59 75.7402 140.991 81.1578C137.782 79.9218 134.273 78.7578 131.685 78.1218Z" fill="#002244"/>
</g>
<defs>
<clipPath id="clip0_106_4417">
<rect width="200" height="200" fill="white"/>
</clipPath>
</defs>
</svg>
