<svg width="200" height="200" viewBox="0 0 200 200" fill="none" xmlns="http://www.w3.org/2000/svg">
<g clip-path="url(#clip0_106_4577)">
<path d="M173.989 73.3111C173.989 73.3111 176.387 71.2531 178.895 71.2983C181.408 71.3375 183.143 72.1803 184.087 73.1859C184.087 73.1859 186.086 72.9127 188.256 73.5083C190.424 74.1075 193.486 75.8971 194.679 77.9807C195.87 80.0679 196.008 82.4667 194.77 84.7363C194.77 84.7363 195.181 86.2795 194.168 88.1939C193.146 90.1127 191.479 91.1091 191.479 91.1091C191.479 91.1091 190.339 93.9451 187.364 95.2635C184.383 96.5839 180.47 95.0927 180.47 95.0927C180.47 95.0927 178.253 95.5247 176.582 95.5247C174.897 95.5215 172.547 94.7983 171.825 94.4583C171.825 94.4583 169.829 97.3887 169.272 98.0875C169.272 98.0875 171.999 100.46 174.981 101.395C177.958 102.329 180.299 102.757 181.664 103.732C183.017 104.717 183.538 105.673 183.538 105.673C183.538 105.673 185.619 105.349 187.617 105.821C189.618 106.29 191.953 107.863 193.487 109.953C195.02 112.04 195.955 114.718 195.317 117.267C194.679 119.825 193.221 120.755 193.221 120.755C193.221 120.755 192.51 123.104 191.061 124.547C189.619 126.003 187.557 126.097 187.557 126.097C187.557 126.097 186.426 127.616 183.49 128.082C180.556 128.551 178.455 126.927 178.455 126.927C178.455 126.927 176.135 127.19 172.979 126.21C169.833 125.235 167.677 122.007 167.677 122.007C167.677 122.007 165.627 121.021 161.837 120.847C158.049 120.674 149.589 118.972 145.823 116.781C145.823 116.781 143.608 117.851 136.895 118.198C136.895 118.198 135.901 115.166 133.955 113.645C133.955 113.645 128.185 116.848 126.361 117.694C124.529 118.549 121.142 120.024 118.195 120.203C118.195 120.203 117.422 125.016 116.015 127.615C114.614 130.216 111.916 132.147 109.631 132.905C109.631 132.905 112.956 134.085 114.706 136.681C116.445 139.282 117.043 142.132 115.853 144.429C114.659 146.729 113.314 147.353 113.314 147.353C113.314 147.353 112.631 149.675 109.945 150.88C107.255 152.087 103.875 151.448 103.875 151.448C103.875 151.448 102.004 152.435 99.441 152.415C96.8742 152.392 93.6582 150.208 93.6582 150.208C93.6582 150.208 85.2446 150.978 82.7406 150.768C80.2382 150.566 77.2742 149.527 75.8614 145.829C75.8614 145.829 74.3242 147.113 72.0306 148.221C69.7334 149.328 65.3818 151.462 62.2554 153.69L62.3594 155.352C62.3594 155.352 66.9294 157.074 67.2222 161.755C67.5226 166.439 64.9654 168.176 64.2398 168.673C64.2398 168.673 63.2674 170.785 61.1814 171.847C59.0982 172.907 56.795 172.419 56.795 172.419C56.795 172.419 51.6566 174.7 47.7402 170.952C43.8218 167.209 44.9306 163.165 44.9762 162.181C45.0146 161.206 45.2998 152.624 45.2594 152.225C45.2594 152.225 43.3146 149.625 43.7394 146.686C44.165 143.751 46.4194 141.916 47.4806 141.025C48.5482 140.129 49.8246 138.645 50.4574 136.387C51.0942 134.133 51.1386 129.528 51.3522 127.827C51.5678 126.124 51.6566 123.271 51.6566 123.271C51.6566 123.271 43.9558 121.147 39.9534 116.676C35.953 112.204 34.8442 108.968 33.8186 104.546C32.8046 100.119 32.0838 95.6459 28.0186 93.1363C28.0186 93.1363 25.3566 93.8987 22.2982 92.6647C19.2362 91.4319 17.361 88.9623 15.4066 86.5359C13.4482 84.1091 6.47778 83.0023 4.00098 82.8763C4.00098 82.8763 9.23378 77.0835 16.299 74.6147C23.3598 72.1495 26.7202 73.1239 29.0614 74.4455C31.4034 75.7659 33.2426 77.9883 34.109 81.0075C34.109 81.0075 38.7138 82.9999 41.867 86.7071C45.0146 90.4071 46.503 93.6863 47.5282 97.7295C48.5482 101.778 49.8322 106.681 57.9486 108.463C57.9486 108.463 62.7578 103.651 64.5806 102.453C66.4154 101.266 68.7082 100.591 69.3698 100.396C70.027 100.202 73.1194 99.1951 73.1194 99.1951C73.1194 99.1951 77.9782 95.2303 78.7698 94.4387C78.7698 94.4387 80.5814 91.2183 81.7294 89.3455C82.8786 87.4727 84.6766 85.6155 84.6766 85.6155C84.6766 85.6155 82.3178 81.2299 82.4482 76.4303C82.4482 76.4303 83.6094 76.9579 84.649 77.1087C84.649 77.1087 84.5778 73.5543 86.879 70.2755C89.175 66.9915 91.4934 64.9367 91.4934 64.9367C91.4934 64.9367 91.3182 60.6183 93.9338 56.5263C93.9338 56.5263 91.941 53.3311 91.7698 51.2883C91.7698 51.2883 95.0874 50.9903 97.5978 50.2663C100.111 49.5431 101.341 49.0351 102.619 47.4955C103.894 45.9651 106.955 42.2191 110.829 40.3863C114.705 38.5571 118.999 37.8919 122.082 38.1355C122.082 38.1355 120.191 36.5119 118.099 35.8335C118.099 35.8335 121.667 33.2051 128.689 32.4547C128.689 32.4547 128.742 28.8951 129.501 27.0215C129.501 27.0215 138.826 33.4063 143.501 35.2399C148.183 37.0735 151.583 37.6663 154.009 38.8615C156.426 40.0471 158.145 42.2447 158.54 43.5979C158.54 43.5979 161.153 44.6027 163.153 46.0095C165.15 47.4131 166.309 50.8019 166.309 50.8019C166.309 50.8019 170.089 52.3103 174.005 54.6923C177.915 57.0755 182.719 62.1007 182.719 62.1007C182.719 62.1007 179.692 63.4343 177.122 67.1515C177.122 67.1515 175.94 71.2771 173.991 73.3095" fill="#B0B7BC"/>
<path d="M168.52 75.0322C168.52 75.0322 170.282 74.9974 171.825 75.4278C173.374 75.861 174.352 76.369 174.352 76.369C174.352 76.369 175.491 75.6458 176.071 75.1438C176.645 74.6334 178.375 73.739 179.917 73.989C181.466 74.241 182.56 75.3454 182.846 75.8162C182.846 75.8162 184.166 75.8962 185.389 75.8278C186.613 75.7518 188.88 76.1834 190.676 77.625C192.484 79.0646 194.13 81.1922 191.937 84.0322C191.937 84.0322 192.407 85.8338 191.758 87.1282C191.111 88.429 189.437 89.1366 189.437 89.1366C189.437 89.1366 188.406 92.209 185.999 92.999C183.588 93.795 180.563 92.3102 180.563 92.3102C180.563 92.3102 177.726 92.999 175.672 92.8574C173.622 92.7106 171.38 90.9778 171.38 90.9778C171.38 90.9778 170.887 91.2718 170.424 91.9518C169.951 92.639 166.42 97.591 165.598 98.4634C165.598 98.4634 169.052 101.822 172.47 103.222C175.89 104.624 177.615 104.847 178.52 105.093C179.414 105.349 181.394 106.464 182.118 108.628C182.118 108.628 184.315 108.081 185.75 108.193C187.19 108.3 188.593 108.586 191.112 111.178C193.63 113.771 193.056 116.115 192.66 117.191C192.265 118.265 190.767 119.197 190.767 119.197C190.767 119.197 190.642 121.368 189.346 122.522C188.048 123.669 186.292 123.472 186.292 123.472C186.292 123.472 185.604 124.784 183.808 125.331C182.004 125.872 180.063 124.929 179.157 124.211C179.157 124.211 175.454 124.537 173.047 123.347C170.641 122.16 169.508 119.829 169.508 119.829C169.508 119.829 165.424 118.159 161.176 118.124C156.932 118.089 148.71 115.792 146.016 113.826C146.016 113.826 141.928 115.689 138.634 115.739C138.634 115.739 137.617 112.653 134.054 110.511C134.054 110.511 126.418 114.744 123.684 116.004C120.951 117.264 116.139 117.721 115.435 117.797C115.435 117.797 115.734 118.953 115.379 120.827C115.006 122.698 113.862 126.375 112.892 127.598C111.915 128.822 109.217 130.331 107.637 130.909C106.056 131.485 104.078 131.991 102.415 132.815C100.765 133.645 98.7491 135.33 97.8671 136.125C97.8671 136.125 100.415 136.77 101.183 136.737C101.949 136.707 103.318 135.945 104.329 135.554C105.339 135.154 108.177 134.614 110.445 136.308C112.712 138 113.898 140.193 113.82 141.855C113.756 143.509 112.682 144.712 111.098 145.531C111.098 145.531 110.626 147.869 108.65 148.587C106.662 149.305 103.37 148.653 103.37 148.653C103.37 148.653 101.808 149.668 99.9363 149.772C98.0663 149.883 95.5495 148.263 95.1535 148.048C94.7527 147.828 94.3611 147.617 93.6747 147.617C92.9867 147.617 85.5831 148.229 83.2791 148.229C80.9787 148.229 79.3959 147.109 78.4231 145.311C77.4511 143.509 78.8139 140.629 79.6835 139.483C80.5415 138.324 81.9155 136.74 82.0875 136.414C82.2691 136.09 82.3103 135.554 81.8407 135.229C81.3723 134.905 79.8703 134.163 79.8703 134.163C79.8703 134.163 77.5943 138.724 76.7327 140.268C75.8667 141.816 74.7507 143.544 72.5951 144.877C70.4331 146.21 65.8611 148.229 63.4563 149.703C61.0415 151.176 59.6127 152.537 59.6127 152.537C59.6127 152.537 59.6375 156.876 59.7683 157.411C59.7683 157.411 61.9407 157.839 62.8095 158.593C63.6743 159.353 64.5327 160.577 64.4963 162.268C64.4663 163.96 64.2399 165.95 62.1331 166.737C62.1331 166.737 61.5447 168.928 59.8931 169.575C58.2363 170.224 56.5427 169.649 56.5427 169.649C56.5427 169.649 54.2807 170.797 51.9047 170.296C49.5315 169.793 47.5515 167.348 47.5151 164.858C47.4807 162.371 47.9075 153.375 47.9075 152.792C47.9075 152.217 47.9075 151.607 47.4807 150.818C47.0467 150.025 46.0363 148.047 46.2947 146.784C46.5455 145.524 47.8379 144.046 49.0259 143.036C50.2123 142.03 51.6567 141.025 52.3735 139.005C53.0899 136.995 53.7019 134.221 53.7775 132.093C53.8499 129.973 54.1075 123.061 54.5735 121.189C54.5735 121.189 45.6423 119.206 41.6143 114.598C37.5871 109.988 36.9011 106.314 35.7503 101.384C34.5983 96.449 33.1283 92.6766 28.4375 90.2218C28.4375 90.2218 25.9239 91.4466 22.6927 90.0434C19.4515 88.6382 17.6863 84.9658 15.9635 83.6646C14.2359 82.3722 9.53473 81.6282 8.59473 81.655C8.59473 81.655 14.1959 77.7658 18.0495 76.6134C21.8979 75.4626 26.0767 75.103 28.6995 77.1938C31.3235 79.2738 31.7191 82.8802 31.7191 82.8802C31.7191 82.8802 37.1195 85.1122 40.2515 88.9622C43.3827 92.8174 44.3091 96.4126 44.9235 98.8266C45.5379 101.239 47.4363 106.062 50.4815 108.19C53.5279 110.319 57.0991 111.214 58.9603 111.34C58.9603 111.34 64.2135 105.849 66.0139 104.659C67.8071 103.471 69.8247 103 70.6831 102.75C71.5503 102.502 74.5423 101.509 74.5423 101.509C74.5423 101.509 79.8371 96.947 80.8543 96.1598C80.8543 96.1598 83.9251 90.8358 84.7879 89.5722C85.6559 88.3146 87.9727 85.3534 87.9727 85.3534C87.9727 85.3534 85.8499 82.929 85.8767 79.7906C85.8767 79.7906 87.1275 80.0394 87.9191 79.9618C87.9191 79.9618 86.8791 78.199 87.3843 75.713C87.8891 73.229 90.5803 69.1946 94.1815 66.0954C94.1815 66.0954 94.0391 63.4714 94.7915 60.9934C95.5503 58.5042 97.0847 56.5178 97.0847 56.5178C97.0847 56.5178 95.4427 54.485 95.1835 52.891C95.1835 52.891 98.2855 52.5998 100.445 51.8842C102.602 51.1578 104.33 49.6282 104.33 49.6282C104.33 49.6282 108.462 43.921 113.498 42.1202C118.544 40.3194 123.68 40.8758 123.68 40.8758C123.68 40.8758 126.228 39.217 127.278 38.8518C127.278 38.8518 125.279 36.5994 123.62 35.9062C123.62 35.9062 127.505 34.7322 131.083 35.007C131.083 35.007 131.149 32.5162 131.556 31.0698C131.556 31.0698 137.792 35.5722 140.637 36.8278C143.477 38.0878 148.907 39.8894 150.747 40.4678C152.58 41.0422 155.692 42.2386 156.35 45.563C156.35 45.563 159.375 46.837 160.567 47.487C161.755 48.1374 162.98 49.6858 163.229 50.3342C163.474 50.9778 163.726 51.7782 164.035 52.277C164.346 52.7806 164.879 53.137 165.384 53.3138C165.89 53.4986 170.888 55.7298 173.196 57.4578C175.493 59.1926 178.631 62.1766 178.631 62.1766C178.631 62.1766 175.509 64.6678 174.741 65.817C174.741 65.817 173.807 68.9502 172.297 71.1778C170.78 73.4098 168.521 74.281 168.521 74.281V75.0322" fill="#FFFFFE"/>
<path d="M161.823 98.5679C161.823 98.5679 153.636 106.821 146.248 110.806C146.248 110.806 142.805 112.433 140.131 112.817C140.131 112.817 138.028 108.801 133.823 107.556C133.823 107.556 124.916 104.145 112.039 106.828C112.039 106.828 124.29 105.931 130.428 109.473C127.631 111.021 123.808 113.073 121.781 113.865C118.34 115.206 113.854 115.113 112.126 115.399C112.126 115.399 112.989 118.458 112.891 119.414C112.798 120.367 111.843 125.155 110.221 126.493C108.593 127.827 104.388 129.166 102.192 129.938C99.9944 130.697 95.1176 133.759 93.588 137.965C93.588 137.965 99.324 139.214 100.852 139.397C102.382 139.587 103.814 138.729 104.869 138.255C105.918 137.772 107.254 137.485 108.69 138.348C110.122 139.214 110.794 140.454 111.079 141.41C111.366 142.365 110.319 143.222 108.593 143.514C108.593 143.514 108.786 145.523 107.737 145.997C106.682 146.475 104.103 146.192 102.665 145.709C102.665 145.709 101.717 147.054 99.7068 147.054C97.702 147.054 96.36 144.947 94.2604 144.852C92.1584 144.757 85.5636 145.617 83.1728 145.428C80.782 145.234 80.594 143.802 81.0716 142.459C81.5512 141.125 84.5108 138.159 84.9896 136.817C85.4032 135.651 85.7696 133.614 80.9968 131.714C81.2024 131.461 84.6416 127.213 90.0452 123.953C95.336 120.767 100.589 117.791 106.742 115.831C104.261 116.071 100.458 116.996 95.4944 119.092C88.034 122.252 83.7404 126.333 83.7404 126.333C83.7404 126.333 84.2924 124.177 90.7412 118.443L90.6744 118.489C81.8592 122.507 78.1756 131.579 78.1096 131.719C76.998 133.986 73.9224 140.165 72.754 141.41C71.324 142.939 67.312 144.374 64.3512 146.093C61.3828 147.815 57.5604 150.018 57.0824 151.449C56.6036 152.886 57.1864 159.383 57.3696 159.771C57.3696 159.771 60.718 160.056 61.3828 160.916C62.0508 161.776 61.9636 163.496 61.5708 163.977C61.194 164.46 59.7584 164.46 59.7584 164.46C59.7584 164.46 59.854 166.363 58.8976 166.939C57.9432 167.519 55.8416 166.657 55.8416 166.657C55.8416 166.657 55.2656 167.519 53.8356 167.704C52.404 167.898 51.3504 167.329 50.6808 166.273C50.0116 165.22 50.302 163.786 50.302 162.635C50.302 161.489 50.7748 153.455 50.584 151.543C50.3988 149.635 48.7692 148.295 49.0564 147.048C49.3436 145.809 52.8768 143.795 54.022 141.693C55.1728 139.587 56.224 136.815 56.506 131.944C56.7932 127.065 56.7932 122.566 57.56 120.083C57.658 119.77 57.752 119.474 57.8372 119.185C54.732 118.6 48.0848 116.77 44.9768 114.049C41.478 110.997 39.9168 107.942 39.17 103.998C38.426 100.046 36.8312 95.5919 35.23 92.7499C33.5588 89.8075 28.4544 87.1663 28.4544 87.1663C28.4544 87.1663 26.1764 89.0027 23.1816 87.3391C19.8332 85.4867 19.4884 84.3451 18.316 82.7963C17.2732 81.4299 15.2296 81.0215 14.6748 80.9291C21.6908 78.1923 25.164 81.9643 25.164 81.9643C25.164 81.9643 24.9872 80.0675 22.2856 79.3703C21.4728 79.1539 20.4648 78.9099 19.3572 78.8079C19.8864 78.6047 20.3708 78.4415 20.7276 78.3499C21.9092 78.0543 24.6928 77.7635 26.8124 79.1951C28.784 80.5279 29.49 84.5595 29.49 84.5595C30.4568 85.1547 36.1872 88.0079 38.0508 90.3911C39.9168 92.7775 41.2556 95.2099 42.0728 98.4115C42.8928 101.616 44.0064 106.309 48.7688 110.257C52.4252 113.279 57.8224 113.986 60.1424 114.15C60.2364 114.024 60.3264 113.899 60.4272 113.771C62.05 111.665 66.9272 107.079 68.3552 106.413C69.7888 105.742 75.5272 104.3 76.1972 103.637C76.8688 102.973 82.5072 98.4691 82.9816 97.8015C83.462 97.1375 86.0412 92.5423 87.5684 90.2435C89.096 87.9503 92.9236 83.7483 92.9236 83.7483C92.9236 83.7483 89.6784 83.6467 88.822 82.2123C88.822 82.2123 92.3628 80.6539 92.6792 78.6463C92.8612 77.4599 92.0444 76.6067 89.6448 77.5935C89.6448 77.5935 89.9544 75.3287 91.9624 72.4611C93.9764 69.5927 97.7732 66.4079 99.3236 65.2891C101.241 63.9047 101.905 62.1359 101.425 61.1791C100.946 60.2179 98.842 60.1227 97.406 61.7535C97.406 61.7535 98.7504 57.7351 101.233 56.0183C101.233 56.0183 99.4128 55.6323 98.7504 54.1935C98.7504 54.1935 101.52 54.2915 103.433 53.2359C105.346 52.1895 110.318 49.0367 112.224 48.9395C112.224 48.9395 110.694 48.1695 108.308 49.0367C108.308 49.0367 111.968 44.6355 117.577 43.7739C123.192 42.9127 128.182 44.4419 130.476 43.3907C130.476 43.3907 129.425 42.0559 126.939 42.0559C126.939 42.0559 130.001 40.2339 131.912 40.2339C131.912 40.2339 130.289 38.3211 127.99 37.4591C127.99 37.4591 132.959 37.6527 134.779 38.5139C134.779 38.5139 133.53 37.0807 133.729 35.4507C133.729 35.4507 137.552 38.8927 143.186 40.8083C148.824 42.7207 152.268 43.3903 153.224 44.9175C154.18 46.4487 153.607 47.3095 153.607 47.3095C153.607 47.3095 157.714 49.0367 159.149 49.7919C160.582 50.5615 161.154 52.2827 161.344 52.8611C161.536 53.4275 162.496 55.0579 163.255 55.3459C164.022 55.6323 168.228 57.4495 170.516 58.8835C172.813 60.3191 175.009 62.3267 175.009 62.3267C175.009 62.3267 172.814 63.5663 172.341 64.6211C171.859 65.6707 170.9 70.7375 166.791 72.0767C166.791 72.0767 168.032 69.9731 167.088 67.8711C167.088 67.8711 162.207 67.5827 158.763 69.6907C158.763 69.6907 158.144 73.8035 160.342 74.9551C162.539 76.0999 165.068 72.6491 165.36 71.8847C165.36 71.8847 165.287 73.8227 165.36 75.1295L165.946 75.2243C166.085 76.6035 165.837 78.5819 165.837 78.5819C165.837 78.5819 167.46 77.3375 170.141 77.8159C172.814 78.2907 173.482 79.1539 174.346 79.1539C175.207 79.1539 176.921 78.0083 177.491 77.4331C178.071 76.8607 179.03 76.4739 179.886 76.7635C180.746 77.0503 181.224 78.3911 181.224 78.3911C181.224 78.3911 184.479 78.6779 185.528 78.4831C186.575 78.2903 188.677 79.4427 189.251 79.9179C189.824 80.3975 190.496 81.1647 190.298 81.7411C190.112 82.3087 188.77 83.1719 188.77 83.1719C188.77 83.1719 189.538 84.7023 189.439 85.6555C189.345 86.6139 187.338 86.9935 187.338 86.9935C187.338 86.9935 186.67 89.5771 185.428 90.2423C184.191 90.9143 180.648 89.4815 180.648 89.4815C180.648 89.4815 178.544 90.2423 176.16 90.1531C173.771 90.0571 172.428 88.2379 172.428 88.2379C172.428 88.2379 170.615 87.9491 169.176 89.1947C167.752 90.4411 164.788 95.8903 161.823 98.5667V98.5679ZM141.802 82.4851C145.194 86.1403 142.759 89.4719 142.759 89.4719C146.289 88.7351 156.279 85.0859 161.727 80.6847C161.727 80.6847 157.787 78.5819 154.942 78.4215C152.406 78.2771 150.846 81.0555 150.671 83.7955C148.628 85.0463 145.708 85.6271 145.708 85.6271L145.716 85.5747C145.787 85.1323 146.144 81.8499 142.153 79.8015C137.983 77.6595 129.856 76.2851 121.08 81.0359C129.856 77.7359 139.073 79.5527 141.802 82.4855V82.4851ZM106.91 81.4043C112.579 80.0619 116.146 76.8323 119.162 75.3587C122.622 73.6651 127.228 72.1103 133.284 73.0067C133.284 73.0067 124.665 69.3851 116.51 73.7183C108.357 78.0467 104.459 80.3731 96.2316 80.6631C96.2316 80.6631 100.929 82.8183 106.91 81.4039V81.4043ZM127.491 64.0207C118.989 62.4703 113.347 67.9331 113.347 67.9331C113.347 67.9331 119.746 65.3715 126.565 66.0879C133.376 66.8043 139.769 71.9563 139.769 71.9563C139.769 71.9563 135.99 65.5739 127.491 64.0207ZM156.237 54.9787C155.395 54.9787 152.379 55.6703 152.379 55.6703C152.379 55.6703 155.314 56.2903 156.091 56.8319C156.862 57.3719 159.328 59.2275 159.328 59.2275C159.328 59.2275 158.716 58.4543 158.861 58.0683C159.019 57.6847 160.098 56.2083 160.098 56.2083C158.861 56.1319 157.088 54.9783 156.237 54.9783L156.237 54.9787ZM190.298 115.206C190.588 116.449 189.251 117.215 188.104 117.215C188.104 117.215 188.394 119.892 187.432 120.562C186.477 121.229 184.664 120.271 184.664 120.271C184.664 120.271 184.567 122.187 183.134 122.663C181.703 123.14 179.981 121.42 179.981 121.42C179.981 121.42 176.632 121.999 174.346 120.943C172.052 119.891 171.57 117.79 171.57 117.79C171.57 117.79 167.84 116.071 164.212 115.689C161.1 115.356 154.384 115.016 148.7 112.303C151.055 110.907 154.529 108.725 157.253 106.479C159.87 104.318 162.233 102.004 163.765 100.417C165.484 101.979 168.032 104.097 170.141 105.073C173.673 106.696 176.258 107.37 177.4 107.556C178.544 107.744 179.41 108.993 179.69 109.66C179.981 110.329 181.13 111.379 182.468 111.287C183.807 111.189 185.528 110.425 187.054 111.287C188.578 112.147 190.016 113.96 190.298 115.206Z" fill="#0076B6"/>
</g>
<defs>
<clipPath id="clip0_106_4577">
<rect width="200" height="200" fill="white"/>
</clipPath>
</defs>
</svg>
