<svg width="200" height="200" viewBox="0 0 200 200" fill="none" xmlns="http://www.w3.org/2000/svg">
<g clip-path="url(#clip0_106_4566)">
<path d="M99.4756 40.9033C50.976 40.9077 10 68.0801 10 100.244C10 133.725 48.4684 158.972 99.4756 158.972C129.245 158.972 157.47 148.512 174.978 130.995C184.616 121.354 189.916 110.43 189.905 100.244C189.892 84.3849 180.56 69.4905 163.629 58.2985C146.653 47.0793 123.872 40.9033 99.4756 40.9033Z" fill="#FFB612"/>
<path d="M36.9043 139.571C21.3435 129.195 12.7715 115.225 12.7715 100.244C12.7715 70.1113 53.2887 43.6773 99.4763 43.6733C147.786 43.6713 187.107 69.0485 187.137 100.244C187.145 109.695 182.132 119.919 173.019 129.037C156.02 146.045 128.528 156.202 99.4767 156.202C75.2047 156.202 52.9815 150.293 36.9051 139.571" fill="#203731"/>
<path d="M138.291 84.703C131.325 74.3318 116.074 67.1394 98.1147 67.1394C73.4659 67.1394 53.4791 80.693 53.4791 97.4106C53.4791 114.126 67.5871 128.804 98.1147 128.787C116.447 128.779 131.186 120.864 138.072 110.468L86.0007 110.558L85.8407 97.0362L176.228 97.0046C176.35 98.0886 176.477 99.1454 176.477 100.244C176.477 126.272 142.001 147.37 99.4751 147.37C56.9515 147.37 22.4775 126.272 22.4775 100.244C22.4775 74.2166 58.9979 52.321 99.4751 52.163C133.166 52.0346 161.805 65.9502 172.249 84.6822L138.291 84.703Z" fill="#FFFFFE"/>
</g>
<defs>
<clipPath id="clip0_106_4566">
<rect width="200" height="200" fill="white"/>
</clipPath>
</defs>
</svg>
