<svg width="200" height="200" viewBox="0 0 200 200" fill="none" xmlns="http://www.w3.org/2000/svg">
<g clip-path="url(#clip0_106_4360)">
<path d="M138.847 50.8582C173.895 77.549 147.223 81.5446 119.852 85.4426C119.852 85.4426 108.302 82.2542 88.2874 72.3054C42.8958 49.7454 57.1866 39.115 92.8614 32.683C35.7646 7.79184 -11.8238 51.1294 40.6742 93.271L26.2686 103.576C38.1018 110.835 62.6198 126.063 59.0578 149.382L46.889 158.085L84.0518 174.937L113.377 161.64C113.589 148.725 136.655 142.018 146.579 115.748C201.211 103.205 187.296 55.115 138.846 50.8586" fill="#FFFFFE"/>
<path d="M96.5907 130.586L86.0551 118.594L73.9591 120.399L79.5499 111.182L69.0167 99.1832L83.0091 105.485L88.5875 96.2656L91.6383 109.373L105.628 115.664L93.5267 117.474L96.5903 130.586H96.5907ZM113.874 87.9032C45.2955 61.398 40.7543 39.6532 83.5603 32.1384C30.0259 17.5824 -1.20011 56.4076 51.7683 93.4328L37.5555 103.6C52.6475 113.689 68.6411 128.633 63.2155 152.15L56.0539 157.266L83.5599 169.744C109.157 141.688 122.546 114.428 113.874 87.9032H113.874Z" fill="#03202F"/>
<path d="M148.688 55.0342C172.224 73.473 155.882 85.2542 127.188 88.455C134.447 119.076 112.189 147.123 88.623 168.84L110.23 159.044C111.828 146.599 133.751 140.126 144.139 112.511C192.932 101.617 184.969 66.577 148.688 55.0342Z" fill="#A71930"/>
</g>
<defs>
<clipPath id="clip0_106_4360">
<rect width="200" height="200" fill="white"/>
</clipPath>
</defs>
</svg>
