<svg width="200" height="200" viewBox="0 0 200 200" fill="none" xmlns="http://www.w3.org/2000/svg">
<g clip-path="url(#clip0_106_4327)">
<path d="M99.8639 175.739C85.2899 175.805 74.1143 171.643 68.7655 168.82C58.2859 163.319 49.6515 156.036 42.2175 145.928C31.5339 131.438 29.4659 119.77 28.6147 113.416C28.1143 110.108 27.5195 102.156 28.6359 95.0225C29.8991 84.7297 32.2383 79.6029 33.9115 74.5857C35.2127 71.0189 39.4099 62.4345 41.9007 58.4977C44.0171 55.4121 47.8823 49.7265 49.4587 47.7193C49.8895 47.0889 49.3303 47.3873 49.0931 47.3937C48.5151 47.5345 48.2167 47.5701 47.7711 47.5345C47.4371 47.5345 46.7687 47.4229 46.3967 47.3117C44.3159 46.8681 41.3419 44.5625 41.7139 40.5477C41.6403 39.6565 42.6051 32.0037 43.3491 29.6241C44.3159 26.2821 46.3211 24.7205 49.8899 24.4221C51.6723 24.4221 59.1779 24.2729 62.5871 24.8045C69.4139 25.4833 74.4119 27.4697 77.3839 33.4897C79.7631 38.7653 78.9475 47.0153 75.6771 53.3317C74.5611 55.4861 72.3331 59.5009 70.3995 62.1009C68.6171 64.7009 67.8731 66.0421 66.3115 68.9385C64.7519 71.9841 59.5499 83.3553 57.7675 90.7857C54.3751 104.654 56.2795 112.635 62.8183 123.487C67.6503 130.694 73.2979 135.899 77.6823 138.276C84.8915 142.807 94.7363 144.073 99.8651 144.073C104.993 144.073 114.838 142.808 122.05 138.276C126.432 135.899 132.08 130.694 136.91 123.487C143.451 112.635 145.355 104.654 141.965 90.7857C140.182 83.3557 134.978 71.9841 133.419 68.9385C131.859 66.0421 131.115 64.7009 129.331 62.1009C127.401 59.5009 125.169 55.4861 124.053 53.3317C120.785 47.0157 119.969 38.7657 122.346 33.4897C125.316 27.4697 130.319 25.4837 137.143 24.8045C140.55 24.2729 148.058 24.4221 149.84 24.4221C153.409 24.7205 155.416 26.2821 156.381 29.6241C157.123 32.0033 158.092 39.6565 158.016 40.5477C158.388 44.5625 155.416 46.8681 153.333 47.3117C152.965 47.4233 152.293 47.5345 151.959 47.5345C151.513 47.5701 151.217 47.5345 150.637 47.3937C150.399 47.3873 149.841 47.0889 150.271 47.7193C151.848 49.7265 155.711 55.4121 157.832 58.4977C160.32 62.4345 164.52 71.0185 165.819 74.5857C167.492 79.6029 169.831 84.7293 171.094 95.0225C172.21 102.157 171.615 110.108 171.117 113.416C170.264 119.77 168.2 131.438 157.512 145.928C150.078 156.036 141.444 163.319 130.966 168.82C125.617 171.643 114.442 175.672 99.8655 175.739" fill="#FFFFFE"/>
<path d="M99.7836 161.415C100.247 161.415 100.692 161.23 101.02 160.903C101.348 160.575 101.532 160.13 101.532 159.666C101.532 159.202 101.348 158.757 101.02 158.429C100.692 158.101 100.247 157.917 99.7836 157.917C99.3263 157.927 98.8909 158.115 98.571 158.442C98.251 158.769 98.0718 159.208 98.0718 159.666C98.0718 160.123 98.251 160.563 98.571 160.89C98.8909 161.216 99.3263 161.405 99.7836 161.415ZM53.2324 139.269C54.1992 139.269 54.9812 138.487 54.9812 137.52C54.9812 136.554 54.1992 135.77 53.2324 135.77C52.2676 135.77 51.4836 136.554 51.4836 137.52C51.4836 138.487 52.2676 139.269 53.2324 139.269ZM42.8304 98.8435C43.2899 98.8366 43.7282 98.6492 44.0507 98.3218C44.3732 97.9944 44.5539 97.5533 44.5539 97.0937C44.5539 96.6342 44.3732 96.1931 44.0507 95.8657C43.7282 95.5383 43.2899 95.3509 42.8304 95.3439C42.6005 95.3438 42.3729 95.3891 42.1606 95.477C41.9482 95.565 41.7553 95.694 41.5929 95.8566C41.4304 96.0192 41.3017 96.2123 41.2139 96.4248C41.1262 96.6372 41.0812 96.8649 41.0816 97.0947C41.0816 97.5585 41.2658 98.0034 41.5938 98.3313C41.9218 98.6593 42.3666 98.8435 42.8304 98.8435ZM63.34 51.2799C64.3068 51.2799 65.0888 50.4979 65.0888 49.5311C65.0888 48.5643 64.3068 47.7823 63.34 47.7823C63.1072 47.7774 62.8757 47.8189 62.6592 47.9046C62.4427 47.9902 62.2454 48.1182 62.079 48.2811C61.9126 48.444 61.7804 48.6385 61.6901 48.8531C61.5999 49.0678 61.5534 49.2983 61.5534 49.5311C61.5534 49.764 61.5999 49.9945 61.6901 50.2092C61.7804 50.4238 61.9126 50.6183 62.079 50.7812C62.2454 50.9441 62.4427 51.0721 62.6592 51.1577C62.8757 51.2434 63.1072 51.2849 63.34 51.2799ZM148.258 137.521C148.258 136.554 147.474 135.77 146.509 135.77C145.544 135.77 144.758 136.554 144.758 137.521C144.758 138.488 145.544 139.27 146.509 139.27C147.474 139.27 148.258 138.488 148.258 137.521ZM158.662 97.0951C158.662 96.8654 158.617 96.6378 158.529 96.4255C158.441 96.2132 158.313 96.0202 158.15 95.8576C157.988 95.6951 157.795 95.566 157.583 95.478C157.371 95.3899 157.143 95.3445 156.914 95.3443C156.684 95.3442 156.456 95.3893 156.244 95.4771C156.032 95.5648 155.839 95.6936 155.676 95.8559C155.514 96.0183 155.384 96.2111 155.296 96.4233C155.208 96.6355 155.163 96.863 155.163 97.0927C155.162 97.5568 155.347 98.0019 155.674 98.3302C156.002 98.6586 156.447 98.8432 156.911 98.8435C157.375 98.8439 157.82 98.6598 158.149 98.3319C158.477 98.004 158.662 97.5592 158.662 97.0951ZM138.152 49.5315C138.152 48.5647 137.368 47.7827 136.402 47.7827C135.435 47.7827 134.653 48.5647 134.653 49.5315C134.653 50.4983 135.435 51.2803 136.402 51.2803C137.368 51.2803 138.152 50.4983 138.152 49.5315ZM67.2768 163.912C57.766 158.267 49.1444 151.133 40.8212 137.401C37.1052 130.62 28.4856 116.204 32.7356 91.0859C37.6392 68.1207 47.5116 56.5267 53.1592 48.5751C55.8328 44.7119 53.0836 42.4819 50.9272 43.2995C49.1216 43.9847 47.8816 44.0287 47.8816 44.0287C44.6868 43.5959 45.1324 41.5171 45.7272 36.0899L46.4712 31.6319C47.1376 27.6931 48.922 27.7667 53.6028 27.8571C61.0348 28.0043 62.3716 28.0651 66.386 28.8071C71.7372 29.9967 78.7216 35.3483 73.2232 50.0615C69.8036 57.9395 66.2368 60.6131 62.3716 68.7895C58.21 77.8571 48.1044 98.2183 54.9416 115.609C64.3052 138.944 82.4376 147.268 99.6788 147.566C116.92 147.342 136.835 137.16 144.801 115.609C151.638 98.2179 141.532 77.8571 137.369 68.7895C133.506 60.6131 129.939 57.9395 126.519 50.0615C121.021 35.3483 128.007 29.9967 133.356 28.8071C137.369 28.0651 138.708 28.0043 146.14 27.8571C150.82 27.7667 152.607 27.6931 153.275 31.6319L154.017 36.0899C154.61 41.5171 155.058 43.5959 151.863 44.0287C151.863 44.0287 150.623 43.9847 148.815 43.2995C146.659 42.4819 143.908 44.7119 146.583 48.5751C152.233 56.5267 162.101 68.1207 167.007 91.0859C171.257 116.204 162.637 130.62 158.921 137.401C150.6 151.133 141.978 158.267 132.466 163.912C119.445 172.982 95.072 172.459 99.7528 172.164C104.658 172.536 81.8432 173.129 67.2776 163.912H67.2768Z" fill="#002C5F"/>
</g>
<defs>
<clipPath id="clip0_106_4327">
<rect width="200" height="200" fill="white"/>
</clipPath>
</defs>
</svg>
