<svg width="200" height="200" viewBox="0 0 200 200" fill="none" xmlns="http://www.w3.org/2000/svg">
<g clip-path="url(#clip0_106_4450)">
<path d="M17.2428 136.192C16.1592 135.698 14.7352 135.332 13.4772 133.354C12.064 131.123 12.5628 129.494 13.0164 126.412C13.4968 123.145 13.4428 121.822 12.5252 118.19C11.7728 115.206 11.348 114.18 10.8816 110.719C10.5936 108.584 10.3828 106.788 10.3632 105.58C10.3344 103.786 10.4712 102.105 10.6672 99.6071C10.7752 98.2195 11.1136 96.2503 12.3104 92.6447C12.7048 91.4627 13.7704 88.6679 14.422 87.3399C15.5148 85.1235 16.6864 84.0263 16.1408 80.1163C15.932 78.6135 15.3596 77.8063 15.124 75.7899C14.8576 73.5035 15.0104 72.4295 15.4388 71.0151C15.8672 69.6079 16.3784 68.7287 17.2516 67.6475C17.7592 67.0203 18.7184 65.8023 20.9252 65.4115C20.9252 65.4115 22.374 64.9971 23.5604 65.3231C26.5412 65.5827 26.102 68.2167 30.5516 65.4563C32.6828 64.2651 36.3388 63.3139 40.0268 65.9015C41.602 66.8275 42.9192 69.9735 41.2256 64.7863C40.4336 61.7035 39.6288 60.1663 38.5508 55.3139C37.2892 50.7247 38.3112 46.0415 42.05 43.5083C44.7484 41.1371 50.2236 42.1931 56.5744 43.3839C62.1472 44.4307 63.4648 42.6739 67.2592 42.8363C69.3924 42.9283 71.2028 42.9355 72.96 43.3479C75.3828 43.9191 76.7488 44.6271 78.088 45.3571C81.8896 47.4311 81.67 45.3823 86.98 46.0815C88.6792 46.3051 89.3468 46.0543 91.0676 46.5519C93.0584 47.1247 94.2916 47.7827 96.05 48.8079C100.973 51.6763 100.978 52.3215 109.179 51.9631C110.697 51.8963 113.402 53.0675 114.866 54.0243C116.493 55.0891 120.447 57.3903 123.941 57.6135C128.391 57.8983 132.203 57.3307 137.69 61.2335C141.696 64.7995 146.675 64.6319 151.121 67.0463C152.55 67.8211 155.965 70.4339 157.642 73.1295C158 73.7079 159.464 74.6575 163.118 75.2627C166.403 75.8051 169.846 79.7079 171.68 82.4323C174.042 84.6107 172.658 83.1315 175.894 85.3891C177.458 86.4811 178.243 87.0271 179.773 88.1711C181.765 89.6611 180.495 88.5747 182.874 90.4539C183.31 90.7963 183.89 91.4503 185.479 92.8811C187.544 94.4703 188.447 95.8847 189.142 97.2703C190.314 99.6019 189.376 101.245 188.294 103.179C187.495 104.6 186.215 106.889 184.176 108.815C181.911 110.954 182.091 111.015 180.025 112.253C175.329 115.059 171.82 114.109 169.833 117.459C166.898 122.407 164.536 124.005 162.32 125.043C157.854 127.136 154.857 127.063 152.024 129.288C149.715 131.101 146.064 133.434 143.596 134.535C138.846 136.652 138.261 135.407 135.01 137.438C133.907 138.128 134.607 137.73 131.832 140.018C130.233 141.336 127.684 142.453 126.417 142.629C124.76 142.862 122.929 143.044 121.382 143.458C117.482 144.503 117.057 145.874 112.759 146.7C107.742 147.664 105.668 147.186 100.88 149.471C99.6312 150.067 98.2668 150.664 96.438 151.656C94.9332 152.476 90.3072 153.595 86.734 153.774C85.1772 153.853 83.7156 152.826 79.948 154.622C75.0844 156.941 75.016 156.705 71.1604 157.487C69.7584 157.772 68.1816 157.615 66.7144 157.61C63.9116 157.602 60.992 156.633 57.9968 156.725C54.926 156.822 55.6388 156.633 53.0828 156.923L51.272 157.219L48.6024 157.814L47.6324 158.071C45.1844 158.608 43.7212 158.388 42.288 158.107C39.8816 157.63 37.214 156.192 36.2456 154.873C34.6544 152.972 34.4364 151.143 34.622 148.649C35.52 144.303 37.3616 138.116 38.2164 135.908C38.2164 135.908 39.6276 132.699 36.2132 134.498C32.7536 135.773 30.05 133.541 27.9512 134.256C25.8812 135.298 24.6012 136.249 22.0128 136.627C19.3252 137.018 17.2408 136.193 17.2408 136.193" fill="#FFFFFE"/>
<path d="M55.7872 153.191C58.8904 152.841 59.632 153.054 62.4132 153.418C64.998 153.757 67.4712 154.256 70.0328 153.964C71.3164 153.818 72.5836 153.573 73.84 153.171C77.4312 152.021 79.098 150.461 83.4252 149.872C87.0092 149.385 87.0108 149.983 90.152 149.834C93.4444 149.677 95.2748 148.273 96.6608 147.52C98.342 146.605 98.7812 146.531 99.9064 145.929C103.974 143.751 108.752 144.021 113.322 142.904C116.535 142.118 117.793 140.603 121.382 139.641C122.808 139.259 124.372 139.286 125.899 139.071C127.067 138.909 129.132 137.869 130.287 136.803C132.269 134.967 132.05 134.893 133.59 134.025C136.159 132.571 139.068 132.615 141.651 131.415C144.054 130.3 146.525 129.351 148.428 127.43C151.2 124.628 155.576 123.844 159.174 122.538C161.293 121.765 164.076 120.403 166.41 116.363C168.702 112.406 170.728 111.839 174.802 110.611C177.511 109.793 178.681 109.215 180.767 107.245C182.646 105.472 183.321 104.332 184.165 103.09C185.132 101.665 187.031 99.3242 185.013 97.5334C184.128 96.7458 183.231 95.2846 181.328 93.8198C179.867 92.5026 178.659 91.7674 178.258 91.4502C176.065 89.7206 177.912 91.0862 175.806 89.753C174.319 88.8126 173.9 88.0558 172.368 87.1906C169.625 85.641 169.338 85.1834 167.146 82.5474C165.243 79.0354 162.259 78.5474 159.267 77.8786C156.376 77.2334 154.326 74.9254 153.838 74.1306C152.301 71.6422 149.817 70.4078 148.5 69.6926C144.406 67.471 139.687 67.8258 135.998 64.543C130.44 60.5914 128.976 61.323 123.134 61.143C119.912 61.0458 115.683 58.9842 114.306 57.8382C113.149 56.8742 111.813 56.2398 110.62 55.8722C106.502 54.6018 103.681 56.7838 97.9228 53.9786C96.2396 53.157 94.7204 52.0306 93.0664 51.0778C92.0368 50.485 91.252 50.1986 89.6392 49.8506C86.5916 49.191 83.9384 49.6126 80.2468 49.9262C78.5152 50.0758 77.4872 49.155 75.896 48.2954C74.4344 47.5042 72.8736 46.9222 70.9404 46.5638C68.4384 46.099 65.598 46.427 62.6892 47.0106C56.9308 48.1674 51.646 45.2502 46.0932 45.769C45.1516 45.8574 43.2868 47.0394 42.6624 48.3638C41.8236 50.1386 41.8236 51.1638 41.9476 52.919C42.1168 55.301 42.3976 55.4706 42.864 57.0202C43.872 60.3842 44.3832 62.215 45.188 64.4834C46.1224 67.1194 46.0916 70.3286 43.872 71.3522C42.8028 71.8458 41.0244 71.8586 40.02 71.091C38.4576 69.8998 37.6024 68.2226 35.8404 67.8766C33.4896 67.4118 30.6688 69.8262 28.1704 70.4838C25.6648 71.145 25.346 69.781 23.6056 68.9738C22.448 68.437 21.3356 69.219 20.686 69.5794C19.514 70.2334 19.2316 71.583 18.958 73.021C18.74 74.1722 18.6464 75.2446 18.9308 76.4986C19.3432 78.3222 19.9496 79.4158 19.9964 80.6862C20.108 83.879 19.5968 86.2214 18.2792 87.9062C17.442 88.9782 16.346 91.937 16.0004 93.0306C14.8448 96.6882 14.9832 96.0506 14.4252 99.449C14.1388 101.182 14.1856 103.128 14.0328 104.752C14.004 105.051 14.2256 108.741 14.4036 109.842C14.8448 112.57 15.356 114.327 15.93 116.626C16.7564 119.949 17.1108 122.014 17.028 124.583C16.9452 127.214 15.2872 129.688 16.8624 131.546C17.8416 132.699 20.3924 133.741 22.4676 132.825C24.57 131.893 26.1036 130.796 27.756 130.569C30.8 130.149 32.7564 131.454 34.0776 131.299C35.2424 131.162 37.2908 129.991 38.2556 129.909C39.0244 129.845 40.6912 129.771 41.276 130.209C42.2032 130.904 42.7756 131.673 42.6208 134.077C42.6172 134.113 42.0572 136.637 42.052 136.659C41.0924 139.819 40.0576 142.753 39.5624 144.924C39.0456 147.189 36.5616 152.094 41.602 154.103C43.7244 154.948 45.9688 154.784 48.75 154.069C50.1596 153.705 50.7444 153.645 52.0604 153.425C52.0604 153.326 54.0352 153.362 54.0352 153.265L55.7884 153.191" fill="black"/>
<path d="M151.196 77.0999C152.56 77.9919 154.128 80.2927 155.446 82.1955C157.054 83.6603 157.199 84.5091 161.186 85.2207C160.416 85.0819 164.774 86.5867 165.431 86.9539C167.144 87.9051 167.582 88.4907 169.101 90.2243C170.672 92.0171 171.297 92.4963 174.467 94.6171C175.698 95.4423 175.918 95.7379 178.263 97.4063C179.229 98.0947 180.453 99.2083 180.889 100.123C181.998 102.448 180.45 103.275 178.04 104.552C174.078 106.655 170.798 106.055 167.23 109.702C164.253 112.741 161 116.45 158.799 117.117C157.84 117.409 155.298 118.205 153.563 119.284C151.844 120.355 151.358 120.32 149.817 121.695C147.986 123.327 146.964 124.499 143.598 125.663C141.522 126.378 139.073 126.711 136.898 127.363C135.289 127.848 134.002 128.518 132.571 129.331C130.386 130.571 127.756 133.472 124.142 134.144C116.985 135.477 118.886 135.331 113.783 137.643C112.516 138.218 109.9 138.843 108.064 138.843C104.995 138.843 102.601 139.351 99.8993 140.789C97.9321 141.838 95.9285 143.764 92.0677 144.277C87.2977 144.912 87.0329 144.313 81.1109 145.58C79.3145 145.967 77.0465 147.277 75.3329 147.897C73.4089 148.595 68.8761 148.681 65.6741 148.387C62.5457 148.101 60.2489 148.095 55.7293 148.915C52.2301 149.55 50.3437 149.622 46.9453 149.535C46.1805 149.514 45.6045 148.977 45.1093 148.169C44.5189 147.211 44.4489 146.369 44.5781 145.312C44.8501 143.09 44.8033 142.982 45.3269 140.924C45.4873 140.299 46.2721 136.221 46.4105 135.598C47.2873 131.675 47.5573 127.72 44.4701 125.935C43.5053 125.378 41.1077 125.019 39.3725 125.327C34.1453 126.255 35.2413 127.135 31.9009 125.953C31.3393 125.754 29.9189 125.497 29.0929 125.531C27.4209 125.598 25.0377 126.771 22.9297 127.102C21.4501 127.337 21.0629 125.686 21.1025 124.506C21.1637 122.677 21.3545 120.92 21.2733 118.875C21.0573 113.522 20.1233 113.233 19.4789 110.006C18.8941 107.078 19.0629 102.109 18.9229 102.249C19.0685 98.1503 20.9245 93.7339 21.9813 92.2079C23.0865 90.6079 23.3241 89.9555 24.1645 87.9987C25.0537 85.9283 24.9349 84.0995 24.4833 81.7751C24.4725 81.7191 23.9341 80.0003 24.1289 80.0003C23.9741 78.9047 24.2385 77.7047 24.5881 76.9607C25.1533 75.7551 25.5925 75.1715 26.4925 74.7823C27.0489 74.5391 27.6373 74.2471 28.2297 74.2059C30.1717 74.0691 30.5645 75.3159 34.1949 73.7915C36.0741 73.0003 37.9425 74.0599 38.8661 74.3987C41.3841 75.3159 40.9469 75.3159 42.5509 75.3679C44.0753 75.4167 45.5425 75.0311 46.9573 74.1715C47.7709 73.6743 48.3865 73.4023 48.8689 72.6995C49.2829 72.0939 49.8317 70.4239 49.9793 69.5607C50.1593 68.5103 50.4529 67.8507 50.1593 65.3623C49.3549 62.2883 49.0633 61.6287 48.5125 59.6827C48.0661 58.0971 47.5261 56.5799 47.2993 55.1239C47.2957 55.0967 47.2345 53.3579 47.2345 53.3579C47.0385 51.9039 48.0265 50.8607 49.2829 50.8499C53.7829 50.8139 58.0037 52.0967 62.7597 52.0663C66.6837 52.0411 68.3521 51.2375 72.9709 52.9203C74.5801 53.5059 75.5305 54.8231 78.0489 55.5331C82.8389 56.8843 86.6441 53.6519 90.7409 55.5819C94.1465 57.1875 93.4301 56.2179 96.6321 58.2611C98.1245 59.2143 100.902 60.8251 104.885 61.4107C107.642 61.8179 112.016 60.6791 116.524 63.9495C119.058 65.7891 121.374 66.5335 124.616 66.8687C128.434 67.2635 128.805 66.7247 131.814 68.9067C134.028 70.5139 133.418 70.1555 135.652 71.8203C136.664 72.5735 137.457 73.3411 138.921 73.9987C139.758 74.3751 142.967 74.8239 142.868 74.8187C145.721 74.9647 146.524 74.7303 148.79 75.5375C148.742 75.4851 151.716 77.4383 151.197 77.0999" fill="#FFFFFE"/>
<path d="M52.6145 104.242V110.303H75.3829L77.6493 108.179V100.905H74.2869L74.2993 99.0598L86.8473 91.8578L87.9001 92.9406C85.0921 94.9174 82.9141 96.7622 81.2309 99.6902C78.7685 103.797 77.8685 109.496 79.3301 114.035C80.2821 117.109 81.4505 118.939 83.4989 121.076C85.4717 123.111 87.1529 124.282 90.3713 125.819C93.0029 127.136 99.2185 129.024 104.044 129.536C108.722 129.901 114.573 129.829 118.448 129.316C122.687 128.878 127.075 127.341 129.709 126.256C131.827 125.233 134.167 124.281 135.965 122.876C140.5 119.613 145.281 114.692 145.354 108.544H136.901C134.239 117.985 108.649 122.305 98.4137 115C90.9545 109.129 93.0749 103.933 96.2193 101.518L97.1713 102.543L95.5765 104.226L95.6933 110.302H117.248L120.026 107.668V101.079H118.373L110.916 93.0278C125.246 89.9558 132.34 96.2478 136.521 103.127H142.136L144.973 100.347V84.3914L138.993 84.377L135.411 86.6006C122.687 80.9662 113.257 81.6114 103.385 84.889L101.776 83.251L110.888 77.8038L116.385 77.775L119.076 75.2126L119.09 69.7818H97.0961L94.7577 72.155V75.8562L74.1405 87.6566V78.5662L77.4721 75.1986V69.7246H55.8593L52.9073 73.1786V77.5102H56.4461V100.904H55.3625C55.3625 100.904 52.4681 104.183 52.6137 104.241" fill="black"/>
<path d="M56.4473 71.0713H76.1861V74.6137L72.8237 74.6445V89.9837L99.7301 74.6137H97.3613V71.0713L117.718 71.0425V74.5849L113.184 74.6445L99.4029 82.7817L117.95 102.836L118.594 102.851V106.936H98.1229V102.808L100.974 102.836L88.2661 89.2829L72.9697 98.0653V102.836H76.1865V106.907H56.4477V102.836H59.8101V74.6141H56.4477V71.0717L56.4473 71.0713ZM143.805 109.863C143.014 114.034 141.114 115.718 138.76 118.426C135.615 121.354 134.972 121.721 131.828 123.402C126.419 126.11 120.788 127.28 114.354 127.43C105.359 127.795 97.3925 125.891 92.4929 123.842C89.4941 122.745 85.0337 119.963 82.2565 115.206C79.9901 110.595 81.1009 105.69 81.9057 103.276C82.9153 100.348 84.5229 97.3457 89.2173 94.1421L95.1249 100.524C92.1277 103.128 89.9337 107.886 94.6281 113.303C100.244 120.328 113.038 122.305 126.346 118.352C133.218 116.305 136.215 113.449 138.395 109.863H143.806H143.805ZM104.41 86.0033C108.429 84.7581 119.764 80.8789 135.703 87.9061L139.067 85.7097H143.774L143.716 99.8797L138.482 99.9393C133.143 91.9029 121.008 89.0761 109.675 91.7857L104.41 86.0037V86.0033Z" fill="#E31837"/>
</g>
<defs>
<clipPath id="clip0_106_4450">
<rect width="200" height="200" fill="white"/>
</clipPath>
</defs>
</svg>
