<svg width="200" height="200" viewBox="0 0 200 200" fill="none" xmlns="http://www.w3.org/2000/svg">
<g clip-path="url(#clip0_106_4428)">
<path fill-rule="evenodd" clip-rule="evenodd" d="M195.486 142.21C184.847 127.881 166.278 110.378 144.154 100.553L148.673 110.963C129.861 101.489 108.95 94.6873 85.2448 94.7953L90.2968 100.265C46.5092 101.98 20.8208 123.693 4 142.21C4.3936 117.138 22.3576 94.4965 46.0244 80.6737L41.1532 76.1521C58.7668 63.9617 83.4704 60.5409 104.321 62.9493L101.356 57.6001C170.426 62.7329 199.682 114.28 195.486 142.21Z" fill="white"/>
<path fill-rule="evenodd" clip-rule="evenodd" d="M84.9216 98.1475L79.6152 92.4011C99.7264 91.7327 120.058 94.7607 143.709 105.877L139.352 95.8371C157.158 102.736 176.887 115.613 193.43 135.586C191.973 105.343 161.43 66.1543 105.877 60.5503L108.966 66.1227C86.5132 62.3083 61.2848 66.2779 45.23 76.5151L50.2504 81.1751C26.084 94.1359 10.2084 114.753 6.80078 135.586C26.7472 114.753 52.6796 100.363 84.9216 98.1475Z" fill="#0080C6"/>
<path fill-rule="evenodd" clip-rule="evenodd" d="M184.76 119.35C175.347 94.0115 147.034 72.1655 115.25 66.9355L118.983 73.5887C99.84 67.6671 72.0212 68.0259 53.7352 77.5675L58.9804 82.4363C42.22 89.6187 24.5352 105 17.5352 119.133C29.0152 108.778 53.9908 96.7923 74.48 94.2451L69.3888 88.7331C89.0808 84.8295 115.325 88.6931 134.035 96.2903L130.406 87.9263C144.186 90.7511 169.795 103.064 184.76 119.35" fill="#FFC20E"/>
</g>
<defs>
<clipPath id="clip0_106_4428">
<rect width="200" height="200" fill="white"/>
</clipPath>
</defs>
</svg>
