<svg width="200" height="200" viewBox="0 0 200 200" fill="none" xmlns="http://www.w3.org/2000/svg">
<g clip-path="url(#clip0_106_4622)">
<path d="M169.541 56.4305C144.353 31.2345 105.113 26.7449 74.8852 45.6013C66.5518 51.1297 59.3347 58.1788 53.6116 66.3797C53.5916 66.4037 53.5708 66.4273 53.55 66.4517H37.766L8 133.798H46.6168C52.2013 144.208 60.6629 152.792 70.992 158.524C90.6948 169.368 114.772 168.461 133.604 156.168C134.665 155.473 135.475 154.456 135.915 153.265C136.354 152.075 136.4 150.775 136.045 149.557C135.69 148.339 134.953 147.268 133.943 146.5C132.933 145.732 131.703 145.31 130.434 145.294C129.845 145.294 129.26 145.382 128.696 145.552C124.847 146.708 120.849 147.293 116.83 147.289C111.113 147.303 105.457 146.108 100.234 143.783C95.0105 141.458 90.3375 138.056 86.5212 133.798H122.582L128.776 125.169L152.813 125.172C152.813 125.172 152.081 127.032 151.68 127.942L149.099 133.801H188.44L189.278 130.722C196.504 104.21 188.972 75.8597 169.541 56.4301V56.4305ZM185.249 129.626H155.499C156.732 126.83 157.75 123.945 158.545 120.995H126.6L120.44 129.626H91.804L134.618 69.6489L134.612 69.6469C128.969 67.3411 122.927 66.1716 116.831 66.2053C116.053 66.2053 115.28 66.2253 114.513 66.2645C91.2864 67.4349 72.7636 86.0813 72.7636 108.833C72.7636 110.311 72.842 111.788 72.9988 113.258H98.2904L90.7592 123.855C88.3828 127.051 85.2324 129.623 80.4304 129.623H78.3688C85.9196 142.644 100.332 151.46 116.833 151.46C121.259 151.465 125.663 150.82 129.902 149.546C130.075 149.493 130.254 149.466 130.435 149.464C130.805 149.48 131.16 149.612 131.45 149.843C131.739 150.073 131.948 150.389 132.047 150.746C132.145 151.102 132.128 151.481 131.997 151.827C131.867 152.173 131.63 152.469 131.32 152.672C124.556 157.088 116.925 160.007 108.94 161.234C100.955 162.46 92.8007 161.966 85.0225 159.784C77.2443 157.601 70.0224 153.781 63.841 148.58C57.6595 143.379 52.6613 136.917 49.1812 129.626H14.4088L40.4848 70.6281H55.5512C60.7056 63.9308 67.293 58.4716 74.8309 54.6504C82.3688 50.8293 90.6661 48.743 99.1148 48.5445C99.5244 48.5361 99.9388 48.5317 100.348 48.5317C124.462 48.5317 144.688 62.9605 152.876 84.1869L138.05 104.959H160.625C160.579 95.0407 158.1 85.2853 153.405 76.5488C148.71 67.8123 141.942 60.3617 133.695 54.8511C125.449 49.3404 115.976 45.9381 106.108 44.9427C96.2394 43.9473 86.2777 45.3893 77.0968 49.1421C102.375 33.3857 134.724 34.7185 158.62 52.5013C182.516 70.2841 193.083 100.888 185.249 129.626ZM101.336 109.084H76.942C76.942 109.002 76.936 108.918 76.936 108.834C76.936 88.3685 93.5328 71.5005 114.724 70.4333C119.174 70.2114 123.631 70.6786 127.938 71.8185L101.336 109.084ZM154.23 89.5381C155.292 93.2059 155.977 96.9727 156.274 100.78H146.208L154.23 89.5381Z" fill="#003594"/>
<path d="M77.0967 49.1419C99.9567 39.7971 126.201 45.2595 143.434 62.9499C160.667 80.6403 165.44 107.018 155.499 129.626H185.249C193.09 100.886 182.526 70.2767 158.627 52.4919C134.728 34.7071 102.374 33.3771 77.0967 49.1419Z" fill="url(#paint0_linear_106_4622)"/>
<path d="M152.87 84.1949L147.144 92.2197C144.426 89.4258 141.176 87.2058 137.584 85.6913C133.993 84.1767 130.135 83.3984 126.237 83.4025C125.746 83.4025 125.258 83.4149 124.774 83.4397L134.617 69.6489C141.958 72.6684 148.288 77.7134 152.87 84.1949ZM158.545 120.995C159.93 115.849 160.629 110.542 160.625 105.213V104.956H154.434C155.861 110.217 155.79 115.772 154.23 120.995L158.546 120.995H158.545Z" fill="#D7D2CB"/>
<path d="M131.318 152.676C113.779 164.122 91.3576 164.966 73.0076 154.87C68.4791 149.162 65.1361 142.607 63.1748 135.59C69.5116 135.295 78.6888 135.843 85.472 138.758C93.8553 146.94 105.117 151.503 116.831 151.464C121.258 151.468 125.661 150.824 129.901 149.55C130.073 149.497 130.253 149.469 130.434 149.468C130.803 149.484 131.159 149.616 131.448 149.846C131.738 150.077 131.947 150.393 132.045 150.75C132.144 151.106 132.126 151.485 131.995 151.831C131.865 152.178 131.628 152.473 131.318 152.676ZM72.996 113.262C72.8388 111.792 72.76 110.315 72.76 108.837C72.76 86.0829 91.2848 67.4365 114.512 66.2681C87.5836 67.3641 65.5308 87.4341 61.7676 113.264L72.996 113.262Z" fill="#FFD100"/>
<path d="M78.3653 129.626H61.8721C62.1925 131.637 62.6268 133.629 63.1729 135.591C69.5101 135.296 78.6869 135.844 85.4705 138.759C82.7018 136.048 80.3118 132.976 78.3653 129.626Z" fill="#FFA300"/>
<path d="M49.1816 129.626C51.2381 133.925 53.828 137.947 56.89 141.599C58.4896 139.135 60.6411 137.078 63.174 135.591C62.6278 133.629 62.1934 131.637 61.8728 129.626H49.1816Z" fill="#FF8200"/>
<path d="M134.613 69.6465C128.97 67.3409 122.927 66.1715 116.831 66.2053C116.053 66.2053 115.281 66.2253 114.513 66.2645C87.5849 67.3605 65.5329 87.4305 61.7689 113.261H46.4365L65.3225 70.6281H55.5513C60.7057 63.9309 67.2931 58.4716 74.831 54.6505C82.3689 50.8293 90.6662 48.7431 99.1149 48.5445C99.5245 48.5361 99.9389 48.5317 100.348 48.5317C124.462 48.5317 144.688 62.9605 152.877 84.1869L152.871 84.1961C148.288 77.7125 141.956 72.666 134.613 69.6465ZM63.1733 135.59C60.6405 137.078 58.4891 139.135 56.8897 141.598C61.3985 146.978 66.8628 151.477 73.0073 154.87C68.4789 149.162 65.1358 142.607 63.1741 135.59H63.1733Z" fill="url(#paint1_linear_106_4622)"/>
<path d="M155.454 112.617C155.454 115.454 155.042 118.277 154.23 120.995H126.6L120.44 129.626H91.8038L124.774 83.4387C125.259 83.4147 125.746 83.4027 126.237 83.4015C130.134 83.3974 133.993 84.1757 137.584 85.6903C141.175 87.2048 144.426 89.4248 147.143 92.2187L138.05 104.957H154.433C155.111 107.454 155.454 110.03 155.454 112.617ZM40.4842 70.6279L14.4082 129.626H80.4278C85.2298 129.626 88.3818 127.055 90.7562 123.857L98.2878 113.261H46.4358L65.3218 70.6279H40.4838H40.4842Z" fill="white"/>
</g>
<defs>
<linearGradient id="paint0_linear_106_4622" x1="5612.22" y1="38.0834" x2="5612.22" y2="9183.28" gradientUnits="userSpaceOnUse">
<stop offset="0.217" stop-color="#FFD100"/>
<stop offset="0.296" stop-color="#FFD724"/>
<stop offset="0.474" stop-color="#FFE87F"/>
<stop offset="0.707" stop-color="white"/>
</linearGradient>
<linearGradient id="paint1_linear_106_4622" x1="46.4365" y1="5365.45" x2="10690.5" y2="5365.45" gradientUnits="userSpaceOnUse">
<stop stop-color="#FFA300"/>
<stop offset="0.134" stop-color="#FFA800"/>
<stop offset="0.289" stop-color="#FFB600"/>
<stop offset="0.453" stop-color="#FFCD00"/>
<stop offset="0.478" stop-color="#FFD100"/>
</linearGradient>
<clipPath id="clip0_106_4622">
<rect width="200" height="200" fill="white"/>
</clipPath>
</defs>
</svg>
