<svg width="200" height="200" viewBox="0 0 200 200" fill="none" xmlns="http://www.w3.org/2000/svg">
<path fill-rule="evenodd" clip-rule="evenodd" d="M177.705 97.0726C171.835 97.869 161.576 102.117 163.526 104.399C165.474 106.677 171.157 109.81 171.964 110.205C169.256 110.205 160.353 111.126 159.359 113.65C158.362 116.173 172.241 124.633 177.323 126.622C171.002 124.842 155.925 121.872 154.923 123.905C153.921 125.939 156.526 132.223 158.908 134.093C157.164 133.571 148.058 130.981 146.598 134.349C144.992 138.054 153.892 151.645 154.902 154.185C150.799 150.113 139.559 140.986 137.966 142.031C136.374 143.075 136.766 148.162 137.18 150.749C135.638 148.869 132.988 145.855 130.698 146.756C128.409 147.658 128.692 156.393 128.544 160.113C126.656 155.736 123.573 146.923 120.719 147.244C117.866 147.566 114.664 153.563 114.056 155.855C113.62 153.56 111.753 148.515 108.929 148.515C106.104 148.515 99.5379 161.867 97.5523 166.205C97.5439 162.848 98.3483 146.469 96.5683 145.657C94.7883 144.844 88.7811 148.579 87.4911 150.277C87.9687 148.125 88.3751 140.852 86.7739 139.974C85.1707 139.093 80.6031 138.816 72.3439 146.453C73.7147 143.523 75.9727 140.335 76.5211 137.244C79.9411 137.067 83.3271 136.68 86.7423 136.013C94.1947 141.405 103.356 144.589 113.259 144.589C138.27 144.589 158.544 124.314 158.544 99.3038C158.544 97.3442 158.417 95.4138 158.177 93.523C159.776 92.0157 161.371 90.5037 162.961 88.987C162.618 89.8074 162.428 90.7962 162.46 92.0146C162.558 95.833 172.45 96.6482 177.705 97.0726ZM65.0771 113.349C63.6507 112.576 57.0159 112.27 57.0159 112.27C57.0159 112.27 64.4867 107.249 64.3127 103.618C64.1383 99.989 52.2239 98.1298 47.5139 97.0854C51.6699 96.2098 65.1299 93.1694 65.7079 90.461C66.2879 87.7554 61.5011 85.8326 59.4895 84.8886C61.7439 84.9178 67.4587 85.875 68.2287 83.085C69.1095 79.8862 55.0375 71.5554 51.8307 70.4002C52.5483 70.569 65.9503 73.6966 70.8503 72.6366C74.4975 71.8454 70.2463 66.9378 69.5447 66.3574C70.6207 66.8822 76.7651 68.1482 78.5239 65.2314C80.2831 62.3146 74.3151 50.6982 70.9739 45.7746C73.9407 48.7334 87.4903 58.3722 89.5103 56.7318C91.5331 55.0918 89.9875 49.7938 88.9039 48.0454C91.0875 50.089 93.2367 52.821 96.0111 52.763C97.4007 52.7342 99.1491 48.1402 99.4367 37.7578C101.317 43.5754 105.805 51.4814 109.102 51.0014C112.401 50.5242 113.527 45.627 113.983 43.541C114.363 45.7798 116.095 51.5342 118.295 51.745C120.995 52.167 126.162 40.1498 128.042 34.7198C128.327 37.4018 126.36 51.1754 129.27 52.3202C132.179 53.467 136.99 47.6682 139.719 44.419C138.063 47.5626 134.827 55.1654 136.755 56.985C138.682 58.8046 145.347 56.8982 147.944 54.7566C147.216 56.3494 147.061 57.6234 147.259 58.8206C144.297 59.4006 141.241 60.2526 138.084 61.4286C130.953 56.7478 122.424 54.021 113.258 54.021C88.2499 54.021 67.9755 74.2954 67.9755 99.3034C67.9755 105.324 69.1515 111.067 71.2851 116.321C68.7087 118.23 66.2403 119.744 63.7111 120.912C65.5599 118.71 67.1659 114.477 65.0771 113.349ZM191.994 62.7966C191.964 62.1094 191.832 61.701 191.832 61.701L191.83 61.6974C190.994 58.7766 188.012 56.9726 183.95 56.9726C183.514 56.9728 183.079 56.9947 182.645 57.0382C179.533 57.347 173.999 59.221 172.357 59.7954C167.198 58.4918 162.363 57.857 157.591 57.857C155.124 57.857 152.67 58.0318 150.223 58.3734L150.227 58.3718L149.218 58.5082C149.218 58.5082 148.824 57.2306 149.852 54.2474C150.384 52.7006 151.115 51.2778 151.115 51.2778C151.115 51.2778 139.882 57.1166 138.479 55.2526C137.076 53.389 143.358 38.5726 143.358 38.5726C143.358 38.5726 132.529 50.6046 130.402 50.071C129.568 49.8618 129.488 45.5042 129.447 40.8146C129.391 34.4642 129.612 27.2002 129.612 27.2002C129.612 27.2002 120.695 49.3686 118.519 49.2534C116.633 49.1534 113.888 37.3202 113.888 37.3202C113.888 37.3202 112.166 47.517 109.071 48.7642C105.976 50.0114 98.0155 30.9418 98.0155 30.9418C98.0155 30.9418 97.6479 50.0286 95.4335 50.457C93.2191 50.885 86.1699 43.7518 86.1699 43.7518C86.1699 43.7518 89.4747 53.259 88.3555 54.511C87.6875 55.2586 80.9071 51.0662 73.8527 46.0066C69.7775 43.083 66.3699 40.6334 66.3699 40.6334C66.3699 40.6334 70.3459 47.237 73.5071 54.1394C75.6831 58.8914 77.0035 63.4518 76.4343 64.3394C75.0383 66.5166 64.5683 63.4138 64.5683 63.4138C64.5683 63.4138 70.5195 69.147 70.1355 70.6234C69.9495 71.3402 64.0311 70.8226 58.0167 70.0006C51.6371 69.1282 45.1451 67.925 45.1451 67.925C45.1451 67.925 66.3919 80.2778 65.7251 82.5014C65.1975 84.2602 51.9743 82.8194 51.9743 82.8194C51.9743 82.8194 63.4711 88.0722 63.4243 89.8078C63.3779 91.5438 40.9207 97.2258 40.9207 97.2258C40.9207 97.2258 61.2595 101.481 61.6487 103.749C62.0375 106.017 53.6271 113.295 53.6271 113.295C53.6271 113.295 63.4187 114.18 63.9047 115.462C64.3911 116.744 61.5251 121.809 59.0379 122.611C55.9643 123.604 53.1655 124.235 49.7575 124.235C49.2671 124.235 48.7879 124.221 48.3195 124.196C48.4879 123.978 48.6547 123.753 48.7995 123.539C49.6379 122.311 50.2623 120.999 50.6023 119.748L50.6059 119.735L50.6091 119.721C50.7835 119.034 50.8735 118.349 50.8767 117.687V117.658L50.8759 117.629C50.8523 116.876 50.6075 116.234 50.1631 115.797C49.3303 115.071 48.5535 115.157 47.9967 115.405L46.0647 116.352C45.9211 116.415 45.7587 116.476 45.5623 116.535C45.1923 116.646 44.4127 116.779 42.7971 116.779C41.2651 116.779 39.4419 116.665 37.6787 116.554C37.6787 116.554 36.5959 116.494 36.3867 116.494C34.2831 116.494 32.8791 117.163 32.0331 117.776L31.5731 117.534C27.2715 115.249 22.2651 114.325 19.1383 113.748C18.8951 113.703 18.6631 113.662 18.4447 113.619C14.9915 112.941 13.1015 110.892 12.9479 110.726C12.6551 110.409 12.2743 109.999 11.7771 109.713C11.7771 109.713 10.8783 109.152 9.54673 109.562C8.67793 109.867 8.31073 110.545 8.31073 110.545C7.56593 111.782 8.27673 113.598 9.21353 115.647C10.2795 117.975 13.6211 123.787 21.6191 127.498C24.2375 128.714 27.6823 129.579 31.8575 130.07C35.0003 130.439 37.6539 130.486 38.7115 130.488C39.7299 130.983 42.8635 132.432 47.5231 133.889C52.6387 135.487 60.6327 137.388 69.7919 137.431C69.7919 137.431 73.0419 137.472 74.7967 137.36C74.9735 138.092 73.7039 140.708 72.1783 143.774C70.3707 147.408 68.0511 151.706 68.0511 151.706C68.0511 151.706 72.2415 148.003 76.1471 145.257C80.0779 142.494 84.4811 140.273 85.5219 141.553C87.4891 143.971 85.3903 153.948 85.3903 153.948C85.3903 153.948 93.3315 146.921 95.1727 147.873C96.0159 148.308 96.1003 153.559 96.1035 159.09C96.1079 165.644 95.9387 172.605 95.9387 172.605C95.9387 172.605 106.877 150.472 109.153 151.105C111.428 151.737 113.919 161.829 113.919 161.829C113.919 161.829 118.075 149.534 120.614 149.832C121.63 149.708 123.811 153.695 125.749 157.771C127.874 162.239 129.694 166.606 129.694 166.606C129.694 166.606 129.738 162.041 130.057 157.376C130.344 153.161 130.88 149.047 131.806 148.819C133.758 148.339 139.419 155.925 139.419 155.925C139.419 155.925 137.417 145.351 138.985 144.455C140.554 143.559 159.395 159.848 159.395 159.848C159.395 159.848 147.03 136.938 148.534 135.189C150.038 133.439 163.244 137.008 163.244 137.008C163.244 137.008 161.276 134.685 159.593 132.059C157.833 129.315 156.367 126.247 157.056 125.51C157.681 124.84 164.566 125.537 171.68 126.917C179.881 128.508 185.217 129.642 185.217 129.642C185.217 129.642 180.386 127.028 173.262 122.741C167.094 119.031 161.668 114.853 161.899 114.176C162.398 112.715 177.13 111.314 177.13 111.314C177.13 111.314 174.657 109.859 172.001 108.235C169.117 106.471 166.037 104.276 166.037 103.472C166.037 102.769 169.731 101.028 174.603 99.5294C180.444 97.7334 185.847 96.5294 185.847 96.5294C185.847 96.5294 165.764 94.917 164.51 92.0538C163.653 90.0982 165.226 87.5482 166.379 85.9006C167.533 84.2538 169.183 82.759 169.183 82.759C174.67 77.6926 181.653 73.0278 183.884 71.6562C184.042 71.559 184.192 71.4634 184.346 71.3674C184.346 71.3674 189.498 67.5642 190.027 67.1198C190.489 66.7326 191.667 65.4966 191.932 63.9238C191.932 63.9238 192.024 63.4898 191.994 62.7966Z" fill="white"/>
<path fill-rule="evenodd" clip-rule="evenodd" d="M138.084 61.4285C141.24 60.2525 144.297 59.4005 147.258 58.8205C147.06 57.6233 147.216 56.3493 147.944 54.7565C145.346 56.8981 138.682 58.8045 136.755 56.9849C134.827 55.1653 138.063 47.5625 139.718 44.4189L139.592 44.5693C136.843 47.8433 132.134 53.4497 129.27 52.3197C127.17 51.4941 127.609 44.0945 127.91 39.0293C128.026 37.0741 128.121 35.4665 128.042 34.7197C126.161 40.1493 120.995 52.1669 118.295 51.7449C116.095 51.5341 114.363 45.7797 113.983 43.5409C113.527 45.6269 112.4 50.5241 109.101 51.0013C105.805 51.4813 101.316 43.5753 99.4365 37.7573C99.1489 48.1401 97.4005 52.7341 96.0109 52.7629C93.7213 52.8109 91.8577 50.9585 90.0493 49.1613C89.6729 48.7836 89.291 48.4114 88.9037 48.0449C89.9873 49.7937 91.5329 55.0917 89.5101 56.7317C87.4901 58.3721 73.9405 48.7333 70.9737 45.7745C74.3149 50.6981 80.2829 62.3145 78.5237 65.2313C76.7649 68.1481 70.6205 66.8821 69.5445 66.3573C70.2461 66.9377 74.4973 71.8453 70.8501 72.6365C65.9501 73.6965 52.5481 70.5689 51.8309 70.4001C55.0377 71.5553 69.1093 79.8857 68.2285 83.0849C67.5893 85.4005 63.5437 85.1349 60.8977 84.9609C60.3557 84.9253 59.8725 84.8933 59.4893 84.8885C59.6549 84.9665 59.8397 85.0509 60.0385 85.1417C62.2533 86.1549 66.2401 87.9781 65.7077 90.4609C65.1297 93.1693 51.6697 96.2097 47.5137 97.0853C48.1497 97.2265 48.9173 97.3821 49.7693 97.5553C55.2277 98.6641 64.1617 100.479 64.3125 103.617C64.4865 107.249 57.0157 112.27 57.0157 112.27C57.0157 112.27 63.6505 112.576 65.0769 113.349C67.1657 114.477 65.5597 118.71 63.7109 120.912C66.2401 119.744 68.7085 118.23 71.2849 116.321C69.1513 111.067 67.9753 105.324 67.9753 99.3033C67.9753 74.2953 88.2497 54.0209 113.258 54.0209C122.424 54.0209 130.953 56.7477 138.084 61.4285ZM158.906 134.092C156.524 132.222 153.919 125.938 154.921 123.905C155.923 121.871 171 124.841 177.321 126.621C172.239 124.633 158.36 116.173 159.357 113.649C160.351 111.125 169.254 110.205 171.963 110.205C171.155 109.809 165.472 106.676 163.524 104.398C161.575 102.117 171.833 97.8681 177.703 97.0717C172.448 96.6473 162.556 95.8325 162.458 92.0137C162.426 90.7953 162.616 89.8065 162.959 88.9865C161.461 90.4129 159.853 91.9425 158.175 93.5221C158.415 95.4129 158.542 97.3433 158.542 99.3029C158.542 124.313 138.268 144.588 113.257 144.588C103.354 144.588 94.1933 141.405 86.7409 136.012C83.3257 136.679 79.9397 137.067 76.5193 137.243C76.1413 139.375 74.9501 141.553 73.7977 143.66C73.2789 144.609 72.7677 145.543 72.3421 146.452C80.6013 138.815 85.1689 139.092 86.7725 139.973C88.3733 140.851 87.9673 148.124 87.4897 150.276C88.7793 148.578 94.7865 144.844 96.5665 145.656C98.0209 146.319 97.7501 157.373 97.6069 163.227C97.5749 164.539 97.5493 165.59 97.5505 166.205C99.5361 161.866 106.102 148.515 108.927 148.515C111.751 148.515 113.618 153.559 114.054 155.854C114.663 153.562 117.864 147.565 120.718 147.243C123.141 146.97 125.73 153.287 127.612 157.878C127.915 158.626 128.225 159.371 128.542 160.113C128.566 159.515 128.578 158.789 128.592 157.987C128.665 153.79 128.775 147.513 130.696 146.755C132.986 145.854 135.636 148.868 137.178 150.748C136.765 148.161 136.372 143.074 137.965 142.03C139.558 140.985 150.797 150.113 154.9 154.185C154.645 153.544 153.888 152.2 152.925 150.489C150.068 145.417 145.395 137.119 146.596 134.348C148.057 130.98 157.163 133.57 158.906 134.092Z" fill="#FC4C02"/>
<path fill-rule="evenodd" clip-rule="evenodd" d="M172.43 61.4471C172.43 61.4471 179.349 58.9551 182.801 58.6123C186.206 58.2719 189.695 59.4295 190.37 62.3411H190.367C188.756 59.8147 173.453 64.8963 169.101 66.6475C167.92 67.1247 160.639 70.4079 153.202 74.6539L153.199 74.6567L153.198 74.6555C153.197 74.6551 153.197 74.6555 153.196 74.6559C153.196 74.6563 153.195 74.6567 153.194 74.6567C153.161 74.6709 153.128 74.6867 153.097 74.7039C148.695 76.2387 140.098 80.9647 136.828 84.0235C132.88 87.7135 130.493 91.9415 127.636 97.0039C124.904 101.844 121.742 107.447 116.372 114.071C111.483 120.102 107.258 124.332 103.925 127.112C101.796 128.908 99.9242 130.174 98.5474 130.904C98.4946 130.735 98.4814 130.604 98.4814 130.604C98.4738 130.551 98.4703 130.498 98.471 130.445C98.471 129.452 99.5086 127.319 100.482 125.318L100.482 125.316C100.689 124.89 100.894 124.47 101.085 124.069C101.526 123.143 101.94 122.205 102.326 121.255C104.017 117.059 104.916 113.051 105.167 111.854C105.549 110.34 106.53 106.062 106.53 106.062C106.53 106.062 88.8662 121.93 70.5566 127.244C64.3198 129.053 57.6006 130.524 52.595 130.63C52.595 130.63 48.3046 130.445 48.0198 130.356C43.6714 129.63 38.4946 127.624 33.9398 122.761C33.3463 122.29 32.7635 121.807 32.1918 121.31C32.2238 121.344 32.319 121.473 32.4682 121.676C33.1478 122.599 34.9482 125.047 37.0522 126.896L36.927 126.906L36.855 126.911C36.0094 126.981 34.5186 127.104 30.4882 126.532C15.227 124.361 10.4222 112.415 10.2982 110.983C10.0926 111.041 9.91298 111.104 9.78418 111.223C9.91298 111.102 10.0926 111.038 10.2982 110.98C10.8766 110.817 11.3194 111.296 11.7854 111.8C11.9654 111.995 12.1486 112.193 12.345 112.36L12.401 112.408C13.1418 113.039 14.937 114.57 18.1518 115.174L18.849 115.303C22.265 115.934 27.9102 116.976 32.2366 119.752L32.2394 119.746C32.5702 119.945 32.9438 120.185 33.3614 120.454C37.7678 123.284 47.0674 129.257 62.5374 123.201C70.343 120.147 77.3182 114.034 87.6822 103.781C89.3674 102.117 91.0366 100.369 92.7378 98.5647C92.495 97.3491 91.8306 95.1499 90.367 94.2399C88.0966 92.8211 84.655 92.7659 82.3842 92.9319C81.8902 92.9687 81.4474 93.0119 81.0482 93.0511H81.0478C79.6106 93.1919 78.7454 93.2767 78.1386 92.7895C77.801 92.5203 77.7826 92.0799 77.967 91.5791C79.3966 89.8387 81.9174 87.6235 88.4102 86.7687C92.037 86.2919 94.5786 86.3899 96.8014 86.4755C99.6066 86.5835 101.904 86.6719 105.235 85.5611C106.417 84.3663 107.796 83.1219 108.872 82.1511C111.359 79.8991 114.025 77.6551 116.925 75.4503C119.971 73.1368 123.134 70.9812 126.401 68.9919C144.797 57.7971 159.792 58.1663 172.43 61.4471ZM48.5098 116.83H48.507C48.2178 116.868 47.999 117.019 47.7146 117.215C47.3506 117.466 46.8794 117.792 46.015 118.05C44.333 118.555 40.8598 118.338 37.5758 118.133L36.9274 118.093C34.4034 117.937 33.0722 118.886 32.5314 119.414L32.633 119.472L32.7066 119.514C34.4578 120.512 39.3426 123.296 43.5358 124.103C43.7706 124.148 44.3378 124.243 44.8702 124.296C45.4006 124.348 46.0306 124.322 46.1654 124.314C46.1758 124.303 46.9934 123.38 47.4894 122.65C48.3066 121.453 48.813 120.292 49.0738 119.332C49.2162 118.771 49.2906 118.22 49.293 117.679C49.2622 116.706 48.6626 116.805 48.5234 116.828L48.5098 116.83ZM149.966 98.5811C148.667 102.59 146.67 108.07 144.225 112.706C141.319 118.215 137.49 122.02 135.473 123.481C135.138 123.278 135.011 122.851 135.001 122.41C134.996 122.197 135.121 121.742 135.318 121.022C135.845 119.092 136.894 115.256 137.387 109.048C139.38 107.551 141.335 106.006 143.252 104.414C145.451 102.584 147.717 100.604 149.966 98.5811Z" fill="#008E97"/>
<path fill-rule="evenodd" clip-rule="evenodd" d="M189.466 65.3874C189.466 65.3874 189.466 65.3846 189.468 65.3846C189.611 65.1238 189.996 64.409 189.92 63.929C189.748 62.8266 187.38 63.1354 181.523 65.1158C181.512 65.1202 181.501 65.1238 181.49 65.1274L181.462 65.137C180.964 65.3058 180.444 65.485 179.896 65.6774C168.502 69.6798 157.356 79.325 144.872 90.1278C138.502 95.6402 131.784 101.454 124.508 106.972L124.669 106.722C126.986 103.233 128.753 100.084 130.372 97.199C133.22 92.125 135.608 87.869 139.722 84.0242C143.052 80.8462 148.158 77.5314 153.195 74.657C153.162 74.6712 153.129 74.687 153.097 74.7042C148.696 76.239 140.099 80.965 136.828 84.0242C132.88 87.7138 130.494 91.9418 127.636 97.0042C124.905 101.845 121.742 107.447 116.372 114.071C111.483 120.103 107.258 124.333 103.925 127.112C101.797 128.908 99.9249 130.174 98.5481 130.905L98.5505 130.911C98.5745 130.984 98.7497 131.516 99.2177 131.632C100.017 131.833 103.005 130.329 106.818 127.109H106.82L106.864 127.089C107.474 126.799 114.318 123.545 117.662 121.719C121.781 119.473 128.572 115.24 130.054 114.256C130.054 114.253 130.056 114.253 130.056 114.253C132.704 112.492 137.388 109.056 137.388 109.048C139.38 107.551 141.336 106.006 143.253 104.414C145.452 102.584 147.717 100.604 149.967 98.581C148.667 102.589 146.67 108.069 144.226 112.705C141.32 118.215 137.491 122.02 135.473 123.481C136.073 123.863 136.947 123.363 137.154 123.245L137.174 123.234L137.19 123.225C138.851 122.315 143.535 118.339 146.673 111.975C150.956 103.288 152.858 96.521 153.05 95.8382L153.05 95.8354C153.059 95.8058 153.064 95.7882 153.066 95.783C153.256 95.6066 157.361 91.7334 161.231 88.0822L161.252 88.0622L161.259 88.0562C164.721 84.7898 167.987 81.7086 168.082 81.6214C173.488 76.6242 180.528 71.8614 183.055 70.3082C185.695 68.6838 187.298 67.455 188.24 66.6294C189.184 65.8042 189.466 65.3874 189.466 65.3874ZM160.771 64.4138C162.23 64.413 165.648 64.3082 167.037 63.9726C167.543 63.849 168.041 63.6917 168.526 63.5018C168.878 63.3686 169.055 63.3018 169.095 63.3974C169.174 63.5826 168.411 64.0166 166.02 64.9966C164.271 65.713 162.663 66.1506 160.071 66.7954C159.107 67.0894 158.145 67.3906 157.185 67.699C157.182 67.6954 157.18 67.6916 157.177 67.6878L157.171 67.679L157.162 67.6658V67.6654C157.132 67.624 157.106 67.58 157.084 67.5338L157.08 67.5262L157.078 67.5222L157.076 67.519C156.926 67.1882 157.059 66.851 157.216 66.611C152.501 66.2642 150.193 68.9262 150.193 68.9262C150.022 69.0554 149.819 69.299 149.602 69.6042C150.286 68.5582 151.814 66.5714 154.084 65.5802C156.892 64.3538 158.83 64.385 160.25 64.4078C160.432 64.411 160.605 64.4138 160.771 64.4138ZM105.167 111.853C105.549 110.34 106.53 106.063 106.53 106.063C106.53 106.063 88.8665 121.93 70.5569 127.244C64.3205 129.053 57.6005 130.525 52.5953 130.63L52.6445 130.631L52.7017 130.633C54.1741 130.671 65.4973 130.964 77.8937 126.313C88.3337 122.5 98.6001 116.273 105.167 111.853ZM49.2941 117.679C49.2887 118.237 49.2151 118.792 49.0749 119.333C48.8141 120.293 48.3077 121.453 47.4905 122.65C46.9945 123.381 46.1773 124.303 46.1665 124.314C46.0317 124.322 45.4017 124.348 44.8713 124.295C44.4241 124.249 43.9789 124.185 43.5369 124.103V124.101C43.5049 124.057 43.8265 123.787 44.3257 123.369C46.0721 121.908 49.9897 118.631 48.5109 116.83L48.5241 116.828C48.6633 116.805 49.2633 116.707 49.2941 117.679ZM88.4109 86.7682C92.0361 86.2918 94.5773 86.3894 96.7997 86.475C99.6057 86.583 101.904 86.6714 105.236 85.5598C106.401 84.3814 107.76 83.155 108.829 82.1894L108.87 82.1518C107.181 82.6946 105.875 83.0174 104.644 83.2354C103.208 83.519 101.975 83.6186 100.329 83.7518C98.7701 83.8782 96.8413 84.0342 94.0201 84.405C84.9081 85.6038 80.6469 88.4594 79.4521 89.563C79.0917 89.8962 78.8157 90.1846 78.4369 90.7122C78.1761 91.0746 77.9929 91.5042 77.9645 91.5822C79.3953 89.8402 81.9149 87.6226 88.4109 86.7682ZM100.482 125.318C100.689 124.892 100.894 124.471 101.085 124.069C101.526 123.143 101.94 122.205 102.327 121.255C96.3437 124.43 86.7785 128.499 78.1261 130.527C61.0873 134.523 50.1749 131.057 48.3053 130.445L48.0601 130.366L48.0417 130.361H48.0393L48.0285 130.358C48.0257 130.358 48.023 130.357 48.0205 130.356C43.6721 129.631 38.4949 127.624 33.9405 122.761C33.3468 122.291 32.7639 121.807 32.1925 121.31C32.2245 121.344 32.3197 121.473 32.4689 121.676C33.1485 122.599 34.9489 125.047 37.0529 126.896C36.9873 126.901 36.9216 126.906 36.8561 126.911C36.0101 126.981 34.5193 127.105 30.4889 126.532C15.2277 124.361 10.4229 112.415 10.2989 110.983C10.1457 111.025 10.0061 111.073 9.89286 111.141C9.89286 111.144 9.89006 111.144 9.89006 111.144C9.85272 111.167 9.81751 111.194 9.78486 111.223C9.40726 111.566 9.46566 112.394 10.6525 114.989C12.2477 118.473 15.9133 123.106 22.2845 126.063C28.1101 128.768 36.9813 128.905 38.7745 128.905C38.8825 128.905 38.9649 128.904 39.0201 128.903L39.0805 128.903C39.0833 128.903 39.0833 128.905 39.0833 128.905C39.0833 128.905 54.1149 136.682 73.2181 135.778H73.2389C73.7837 135.784 84.9093 135.906 98.4821 130.604C98.4745 130.551 98.471 130.498 98.4717 130.445C98.4717 129.452 99.5089 127.319 100.482 125.318Z" fill="#005778"/>
<path fill-rule="evenodd" clip-rule="evenodd" d="M149.602 69.6044C149.819 69.2996 150.023 69.0556 150.193 68.9268C150.193 68.9268 152.501 66.2648 157.215 66.6112C157.059 66.8512 156.926 67.1884 157.076 67.5196L157.08 67.5264L157.084 67.534C157.105 67.5784 157.131 67.6224 157.162 67.666C154.233 68.6636 149.279 70.6288 147.707 72.9576C147.707 72.9576 148.752 70.802 149.602 69.6044ZM102.327 121.255C104.017 117.06 104.916 113.051 105.167 111.854C98.6007 116.274 88.3343 122.5 77.8939 126.313C65.4975 130.964 54.1747 130.671 52.7019 130.633L52.5955 130.63C52.5955 130.63 48.4555 130.451 48.0391 130.361L48.3051 130.446C50.1747 131.058 61.0871 134.523 78.1259 130.527C86.7783 128.499 96.3435 124.43 102.327 121.255Z" fill="white"/>
</svg>
