<svg width="200" height="200" viewBox="0 0 200 200" fill="none" xmlns="http://www.w3.org/2000/svg">
<g clip-path="url(#clip0_106_4588)">
<path d="M100.935 135.554C99.8225 139.922 100.012 141.161 100.088 142.404C97.0481 140.283 89.1953 136.292 88.8297 126.184C88.6597 121.506 89.0357 117.311 89.9113 114.318C89.7673 114.493 89.5985 114.692 89.4333 114.887C79.3733 126.993 67.8953 126.176 57.3933 127.256C55.8381 127.416 50.0033 128.593 48.4665 128.926C52.2085 124.924 58.6837 119.043 62.9105 116.157C71.0817 110.58 85.2837 104.762 85.2837 104.762C78.8613 108.297 73.6685 114.028 73.6685 114.028C77.6645 111.323 91.6185 103.264 91.6185 103.264C87.8945 106.811 77.2829 116.162 70.9897 120.324C78.9973 116.549 85.7717 111.654 89.4225 108.202C93.9893 103.888 100.847 99.726 103.95 98.124C105.471 99.6228 107.672 100.996 109.641 101.806C104.374 105.514 100.861 107.627 99.3597 112.64C99.3597 112.64 103.213 107.695 108.768 104.666C109.811 104.097 110.942 103.395 112.102 102.597C113.351 102.892 116.061 103.14 117.388 103.14L117.716 103.002C117.502 103.166 116.968 103.471 116.746 103.632C106.133 111.417 96.4209 113.462 95.5229 129.298C95.5229 129.298 96.8649 118.978 105.03 113.746C109.655 110.784 117.95 106.842 123.506 101.176C127.762 99.2292 130.44 95.8992 131.826 91.2688L131.857 91.1248C133.232 90.9892 134.6 90.8132 136.037 90.686C135.872 92.3588 135.508 94.63 134.694 96.954C133.698 100.062 132.025 103.522 129.074 107.128C123.766 113.612 117.358 117.674 110.687 126.355C104.016 135.038 102.597 143.885 102.597 143.885C101.11 133.087 106.258 126.22 106.258 126.22C105.474 126.84 102.158 130.743 100.934 135.555L100.935 135.554ZM77.4949 126.478C82.6837 125.179 87.3717 119.57 87.3717 119.57C86.8229 121.466 87.2321 127.258 87.2321 127.258C87.2321 127.258 85.2069 128.057 82.7381 128.057C80.2693 128.057 77.2909 126.498 77.2909 126.498L77.4949 126.478V126.478ZM111.237 152.275C110.067 155.415 109.259 158.325 108.958 159.458C105.477 157.372 100.136 154.588 98.1781 151.537C95.5517 147.444 95.5781 142.083 95.5781 142.083C96.8781 143.232 100.212 145.098 103.266 146.791C105.759 148.175 109.828 151.206 111.236 152.275H111.237ZM104.72 145.542C104.834 143.486 105.573 139.616 107.686 134.81C110.056 129.423 116.102 122.814 116.102 122.814C118.115 124.899 120.753 129.158 119.703 134.71C118.653 140.258 116.002 142.156 113.3 147.482C112.828 148.424 112.39 149.383 111.988 150.357C110.302 149.021 107.247 147.114 104.72 145.542H104.72ZM93.0453 82.9132L93.1797 82.9476L92.9881 82.9796C90.2481 83.4632 87.4041 84.1312 84.9977 84.7556C85.1049 83.8012 85.2333 82.8432 85.3865 81.904C85.4345 81.6432 85.4877 81.38 85.5449 81.116C86.5973 81.3724 87.6669 81.6176 88.7377 81.8664C89.7033 82.0904 90.6713 82.3164 91.6257 82.5564L93.0453 82.9132ZM146.81 89.7552C148.218 88.8192 153.139 89.1936 154.78 89.3808C156.422 89.5684 161.906 90.4116 164.626 89.8028C167.342 89.194 168.563 88.6316 168.563 88.6316C168.563 88.6316 167.906 93.598 162.656 93.9732C157.406 94.3484 156.703 93.0824 152.766 92.5672C152.766 92.5672 153.937 91.8636 156.047 91.4436C156.047 91.4436 152.389 90.9276 149.624 91.63C146.859 92.3336 145.734 93.5048 145.734 93.5048C145.734 93.5048 145.406 90.6916 146.811 89.7552H146.81ZM94.6785 59.2808C94.6785 59.2808 95.1013 58.7412 95.1765 58.626C97.4349 55.212 99.8905 51.8224 101.116 50.1744C101.893 49.1259 102.565 48.0032 103.122 46.8228C104.532 43.8348 104.731 41.498 104.731 41.498C117.764 42.096 133.379 47.814 146.012 59.7788C151.602 65.0724 155.3 71.3236 157.69 76.6524C155.362 76.274 150.524 75.7032 145.07 75.6672C138.954 75.6252 131.62 76.454 130.226 76.6188L130.225 76.6124C130.203 76.3974 130.175 76.1829 130.142 75.9692L130.115 75.7828C130.089 75.6152 130.056 75.4492 130.024 75.2836L130.034 75.2816C129.25 69.2952 124.82 63.5724 119.198 61.196C117.178 60.2556 112.924 58.8428 108.486 58.4436C106.242 58.1872 103.831 58.2124 100.906 58.522C99.6517 58.6544 98.4329 58.8116 97.2369 58.964C96.3681 59.0756 95.5169 59.1836 94.6781 59.2808H94.6785ZM111.191 170.373C111.191 170.373 108.231 168.836 106.163 165.853C104.542 163.513 104.398 160.64 104.411 159.503C106.497 160.704 108.887 161.892 110.283 162.759C111.818 163.71 113.063 164.65 113.988 165.437C112.516 168.045 111.191 170.373 111.191 170.373ZM102.653 96.3296C92.8325 99.0068 71.9113 107.863 59.6793 116.427C54.4005 120.124 48.6397 125.961 45.1305 129.563C41.6941 130.624 37.3537 132.443 35.3389 133.324C40.0413 128.155 49.5681 118.894 57.3349 113.675C80.7833 97.9204 100.169 95.3744 101.614 95.0828L102.042 95.4536C102.237 95.7519 102.441 96.0441 102.653 96.33L102.653 96.3296ZM159.576 121.686C153.529 125.67 149.686 135.169 149.686 135.169C151.239 124.628 158.015 117.265 158.015 117.265C152.952 120.218 149.266 125.866 147.308 138.452C145.072 152.848 140.944 158.372 140.944 158.372L141.374 156.913C143.108 149.134 142.827 145.478 144.233 136.104C145.64 126.731 149.765 121.013 149.765 121.013C144.608 124.622 141.833 132.339 140.859 143.556C139.784 155.926 136.821 160.304 136.821 160.304C138.624 154.123 137.859 147.259 138.138 142.666C138.42 138.072 138.623 131.826 141.2 125.921C143.779 120.016 149.765 114.312 156.047 111.454C162.327 108.594 167.34 110.002 167.34 110.002C170.65 113.106 170.854 116.375 170.854 116.375C170.854 116.375 165.624 117.704 159.576 121.685V121.686ZM106.785 173.266C106.164 171.176 107.099 170.381 107.629 169.694C107.629 169.694 109.016 170.917 110.452 171.648C110.452 171.648 109.666 173.777 109.06 175.7C108.12 175.208 107.166 174.547 106.786 173.266L106.785 173.266ZM105.961 185.353C105.961 185.353 106.441 186.222 106.957 186.922C107.596 187.786 107.459 188.606 107 189.125C106.541 189.646 105.804 189.721 105.276 189.098C104.745 188.476 105.126 186.388 105.961 185.353ZM118.387 143.757C118.816 144.566 119.968 146.609 120.294 149.175C120.77 152.912 119.302 157.015 117.389 160.49C116.868 161.434 115.562 162.637 114.895 163.821C114.381 163.248 113.474 162.391 111.945 161.32C111.58 161.071 111.21 160.83 110.833 160.598C112.224 155.036 115.486 147.937 116.807 146.151C117.225 145.587 117.938 144.476 118.387 143.757ZM108.15 182.107C109.26 182.858 110.436 184.536 110.52 185.352C110.648 186.584 108.731 187.556 108.731 187.556C108.731 187.556 108.998 186.205 107.6 185.171C105.558 183.658 104.841 183.066 106.322 180.519C106.322 180.519 107.038 181.356 108.15 182.107H108.15ZM113.13 169.927C114.826 166.874 117.246 163.615 117.246 163.615C117.246 163.615 118.728 168.214 117.49 172.057C116.253 175.9 113.207 179.292 113.207 179.292C113.207 179.292 111.785 177.298 110.673 176.548C110.57 176.479 110.463 176.413 110.354 176.352C110.886 174.856 111.948 172.057 113.131 169.927L113.13 169.927ZM109.173 177.459C110.694 178.184 111.779 179.198 112.345 180.392C112.909 181.586 112.404 182.682 111.383 183.399C111.383 183.399 110.841 181.94 109.404 181.21C107.968 180.48 106.614 179.852 106.279 178.398C105.944 176.946 106.854 175.72 106.854 175.72C106.854 175.72 107.654 176.733 109.173 177.459V177.459Z" fill="#FFC62F"/>
<path d="M101.971 83.1025C97.4028 81.7217 90.8376 80.4873 85.006 78.8313C73.2324 75.5337 65.1476 68.4361 60.9784 57.7349C58.2356 50.6997 58.1748 44.3233 58.2056 42.7905C58.208 42.5709 58.1952 42.1597 58.1964 42.0185C58.2608 37.0869 58.9236 32.5197 59.4828 29.2345L59.5484 28.8341L59.5576 29.5365C59.5396 32.9505 59.7744 35.9553 59.8568 36.8893L59.8632 36.9813C59.876 37.1177 59.9696 36.2801 60.032 35.8601C60.2604 34.3385 60.5216 32.8305 60.6724 31.2985C60.8244 29.7737 61.1692 27.9521 61.2348 26.4217C61.2616 25.8337 61.2872 25.2421 61.2704 24.6533C61.44 24.7541 61.5088 25.3253 61.5436 25.4873C61.6792 26.1233 61.9696 31.1265 62.056 32.8393C62.0912 33.5233 62.1036 34.2077 62.112 34.8913C62.116 35.2329 62.1264 35.5685 62.1808 35.9065C62.1924 35.9961 62.2216 36.0933 62.2424 36.1897C62.2588 36.2689 62.5112 33.9605 62.6996 32.7441C62.8588 31.7209 63.1144 30.6829 63.1068 29.6393C63.1068 29.5485 63.0788 29.4353 63.0944 29.3457C63.1212 29.1917 63.3436 29.8565 63.4572 31.0777C63.5352 32.4577 63.5944 33.8893 63.754 35.2385L63.8768 36.3057C64.9924 46.1025 70.8636 55.0285 78.7976 59.0261C85.2004 62.6157 91.1764 61.8497 97.504 61.0389C98.6844 60.8869 99.8884 60.7325 101.125 60.6021C103.895 60.3093 106.161 60.2841 108.274 60.5237C112.936 60.9445 117.247 62.5321 118.664 63.2677C123.395 65.3925 127.105 70.2097 127.879 75.2753L127.882 75.4109C128.083 76.3313 128.186 77.2849 128.186 78.2657L128.185 78.3013C128.153 78.1149 128.136 77.9333 128.095 77.7425C128.072 79.3356 127.755 80.9109 127.16 82.3889C127.632 80.9297 127.788 79.2213 127.358 77.2289C127.334 79.0342 126.926 80.8136 126.163 82.4497C126.606 81.0217 126.787 79.4897 126.642 77.9109C126.352 74.7145 124.799 71.9349 122.518 69.9929C124.345 71.9461 125.23 75.0433 125.494 77.9397C126.105 84.7269 120.677 89.1757 114.854 90.1797L114.732 90.2097C115.232 90.2985 117.173 90.5653 119.108 89.9493C119.966 89.8889 121.107 89.6961 122.264 89.1365C122.692 88.9293 123.233 88.6197 123.814 88.2141C121.397 90.4473 118.174 91.8221 114.624 91.8221C109.936 91.8221 105.813 89.4393 103.382 85.8209C106.763 86.2441 110.075 86.9161 110.075 86.9161C107.026 84.5657 101.974 83.0857 101.974 83.0857L101.969 83.1021L101.971 83.1025ZM99.9124 47.9141C98.326 50.3517 95.9832 53.6661 94.1536 56.2437C91.946 54.5857 88.2608 51.2997 86.5648 46.8177C83.944 39.8893 84.8252 33.2801 84.3688 29.5817C84.2364 28.5185 84.0688 27.2181 83.8596 25.8341C84.4388 27.7457 85.2004 30.4825 85.4036 32.2353C85.4036 32.2353 85.234 27.2569 84.5464 24.1665C84.5464 24.1665 86.262 28.9741 86.6068 31.7197C86.6068 31.7197 86.8316 29.0601 86.58 26.2189C86.9213 27.3508 87.1982 28.5012 87.4092 29.6645C88.7604 37.1645 90.9816 42.3997 99.912 47.9137L99.9124 47.9141Z" fill="#FFFFFE"/>
<path d="M154.432 97.1692C154.904 97.7328 155.745 98.9496 155.792 99.3724C155.798 99.4248 155.792 99.5391 155.782 99.6943V99.6952L155.773 99.8064L155.771 99.8244C155.712 100.472 155.4 103.488 154.705 104.329C154.603 104.501 154.481 104.661 154.341 104.804C153.543 105.55 152.147 106.26 149.511 108.088C146.604 110.105 144.308 114.228 144.308 114.228C144.308 114.228 145.134 110.332 146.93 108.105C149.157 105.347 152.058 103.524 153.848 102.572L154.653 98.9784C154.036 98.5668 153.261 98.1456 152.511 98.0112C150.955 97.7372 148.332 97.7728 146.726 97.2492L146.746 97.2168C148.668 96.9824 149.793 96.4204 152.652 95.9504C155.51 95.4824 157.714 96.3263 157.714 96.3263C155.792 96.4203 154.432 97.1692 154.432 97.1692ZM163.731 95.6216C163.731 95.6216 164.926 98.3524 164.868 100.344C164.812 102.335 165.436 103.7 166.176 104.269C166.917 104.837 167.656 104.951 168.112 105.294C168.569 105.634 168.569 106.659 168.341 107.511C168.112 108.364 167.486 108.478 166.804 108.308C166.168 108.15 162.838 107.699 159.224 108.363C159.032 107.694 158.701 106.165 159.421 105.407C160.36 104.426 162.187 104.518 162.889 104.659C162.889 104.659 161.392 103.956 160.078 103.956C158.766 103.956 157.686 104.847 157.312 105.831C157.034 106.562 157.273 108.068 157.414 108.795C153.485 109.952 147.858 113.02 143.242 118.947C138.234 125.374 137.1 133.398 137.1 133.398C137.1 133.398 131.818 134.438 129.084 130.378C125.417 124.934 126.795 118.549 126.795 118.549C126.795 118.549 124.624 119.573 122.906 119.125C122.303 118.968 121.876 118.572 121.572 118.102C124.431 115.562 127.472 113.176 130.489 109.724C132.051 110.072 133.456 110.448 134.222 110.682C135.91 111.197 137.67 112.625 138.138 114.17C138.607 115.718 138.84 120.967 138.84 120.967C139.789 117.316 139.941 115.474 140.033 114.44C140.129 113.41 140.021 110.804 138.042 109C136.975 108.026 133.951 107.122 132.752 106.457C137.33 100.155 138.587 90.4987 138.587 90.4987L138.583 90.2244C139.05 90.1736 139.354 90.1251 139.367 90.0771C140.211 90.0283 143.207 89.6631 144.038 89.6479C144.038 89.6479 142.786 93.344 143.867 96.0752C143.867 96.0752 146.656 94.1984 150.64 94.4828C154.623 94.7684 160.998 96.7015 163.73 95.6211L163.731 95.6216ZM125.975 130.782C127.868 133.56 130.408 135.923 134.486 135.923C135.076 135.923 135.777 135.913 136.539 135.893C136.204 138.006 136.039 140.283 135.958 141.936C135.072 142.231 134.286 142.516 133.66 142.778C129.698 144.432 122.325 148.339 122.325 148.339L122.074 148.49C121.467 144.288 120.096 140.836 120.096 140.836C120.096 140.836 122.741 133.958 121.752 129.729C120.451 124.174 118.323 121.22 118.323 121.22C118.557 120.971 118.791 120.737 119.026 120.499C120.42 122.397 122.782 122.451 122.782 122.451C122.782 122.451 124.084 128.007 125.975 130.782ZM166.446 135.835C167.732 135.868 169.02 135.838 170.304 135.746C169.714 136.218 168.118 136.16 167.231 136.278C166.344 136.396 160.849 136.574 154.168 137.579C152.959 137.76 151.639 137.996 150.27 138.265C150.695 137.117 151.09 136.296 151.58 135.526L151.64 135.525C156.545 135.525 164.434 135.777 166.446 135.835ZM168.799 127.715C170.204 128.278 171.001 128.792 171.517 131.698C172.032 134.604 170.392 134.51 169.595 134.465C168.799 134.418 166.482 134.402 162.918 133.98C159.356 133.559 152.992 133.394 152.992 133.394C156.034 124.978 166.642 120.406 166.642 120.406C166.83 122.841 165.001 127.294 165.001 127.294C165.001 127.294 167.392 127.153 168.799 127.716V127.715Z" fill="#E9BF9B"/>
<path d="M158.749 78.7433C157.069 78.4305 151.715 77.6221 145.07 77.5773C139.031 77.5365 131.748 78.2913 130.311 78.4509L130.31 78.4761C130.302 87.4577 122.569 93.8685 115.367 93.9753C104.491 94.1377 100.487 85.3741 100.405 84.8569C99.5865 84.6208 98.7659 84.3936 97.943 84.1753C96.4982 84.3517 94.9534 84.5733 93.3322 84.8593C90.3354 85.3869 87.2398 86.1257 84.7202 86.7813C84.6002 88.1113 84.4078 90.2509 84.4002 90.4333C84.0418 97.9957 84.5182 97.4681 84.5182 97.4681C86.7118 96.6105 94.8022 94.5361 94.8022 94.5361C97.1714 93.9849 99.985 93.3929 103.279 92.7849C105.595 97.4517 110.405 100.66 115.968 100.66C122.915 100.66 128.689 95.6593 129.897 89.0653C145.081 87.4173 152.258 87.3705 161.635 88.6173C160.651 83.3929 158.749 78.7425 158.749 78.7425" fill="#4F2683"/>
<path d="M157.712 96.3272C157.712 96.3272 155.511 95.4832 152.654 95.9508C149.79 96.418 148.667 96.9828 146.745 97.2168L146.725 97.2492C148.329 97.7748 150.953 97.736 152.511 98.0088C153.263 98.1452 154.037 98.5672 154.654 98.976L153.849 102.572C152.057 103.527 149.154 105.345 146.933 108.104C146.759 108.318 146.598 108.543 146.453 108.778C146.38 108.877 146.315 108.981 146.258 109.09C146.173 109.226 146.095 109.362 146.024 109.498C145.933 109.661 145.848 109.83 145.765 110.005C145.68 110.174 145.602 110.342 145.531 110.511C145.239 111.173 144.985 111.852 144.771 112.544L144.707 112.751C144.593 113.125 144.489 113.501 144.395 113.88L144.369 113.984L144.349 114.062L144.323 114.185L144.317 114.218C144.356 114.153 144.557 113.789 144.895 113.264L145.141 112.887C145.79 111.914 146.778 110.563 147.953 109.408C148.115 109.245 148.282 109.087 148.453 108.934C148.789 108.632 149.143 108.35 149.512 108.09C152.148 106.26 153.544 105.552 154.342 104.806C154.486 104.656 154.603 104.494 154.707 104.332C155.401 103.487 155.713 100.469 155.772 99.8268V99.8072L155.785 99.6968C155.791 99.5864 155.791 99.4956 155.791 99.4372V99.3724C155.745 98.9504 154.901 97.73 154.434 97.172C154.434 97.172 155.791 96.4192 157.713 96.328L157.712 96.3272ZM157.712 96.3272C157.712 96.3272 155.511 95.4832 152.654 95.9508C149.79 96.418 148.667 96.9828 146.745 97.2168L146.725 97.2492C148.329 97.7748 150.953 97.736 152.511 98.0088C153.263 98.1452 154.037 98.5672 154.654 98.976L153.849 102.572C152.057 103.527 149.154 105.345 146.933 108.104C146.759 108.318 146.598 108.543 146.453 108.778C146.38 108.877 146.315 108.981 146.258 109.09C146.173 109.226 146.095 109.362 146.024 109.498C145.933 109.661 145.848 109.83 145.765 110.005C145.68 110.174 145.602 110.342 145.531 110.511C145.239 111.173 144.985 111.852 144.771 112.544L144.707 112.751C144.593 113.125 144.489 113.501 144.395 113.88L144.369 113.984L144.349 114.062L144.323 114.185L144.317 114.218C144.356 114.153 144.557 113.789 144.895 113.264L145.141 112.887C145.79 111.914 146.778 110.563 147.953 109.408C148.115 109.245 148.282 109.087 148.453 108.934C148.789 108.632 149.143 108.35 149.512 108.09C152.148 106.26 153.544 105.552 154.342 104.806C154.486 104.656 154.603 104.494 154.707 104.332C155.401 103.487 155.713 100.469 155.772 99.8268V99.8072L155.785 99.6968C155.791 99.5864 155.791 99.4956 155.791 99.4372V99.3724C155.745 98.9504 154.901 97.73 154.434 97.172C154.434 97.172 155.791 96.4192 157.713 96.328L157.712 96.3272ZM157.712 96.3272C157.712 96.3272 155.511 95.4832 152.654 95.9508C149.79 96.418 148.667 96.9828 146.745 97.2168L146.725 97.2492C148.329 97.7748 150.953 97.736 152.511 98.0088C153.263 98.1452 154.037 98.5672 154.654 98.976L153.849 102.572C152.057 103.527 149.154 105.345 146.933 108.104C146.759 108.318 146.598 108.543 146.453 108.778C146.38 108.877 146.315 108.981 146.258 109.09C146.173 109.226 146.095 109.362 146.024 109.498C145.933 109.661 145.848 109.83 145.765 110.005C145.68 110.174 145.602 110.342 145.531 110.511C145.239 111.173 144.985 111.852 144.771 112.544L144.707 112.751C144.593 113.125 144.489 113.501 144.395 113.88L144.369 113.984L144.349 114.062L144.323 114.185L144.317 114.218C144.356 114.153 144.557 113.789 144.895 113.264L145.141 112.887C145.79 111.914 146.778 110.563 147.953 109.408C148.115 109.245 148.282 109.087 148.453 108.934C148.789 108.632 149.143 108.35 149.512 108.09C152.148 106.26 153.544 105.552 154.342 104.806C154.486 104.656 154.603 104.494 154.707 104.332C155.401 103.487 155.713 100.469 155.772 99.8268V99.8072L155.785 99.6968C155.791 99.5864 155.791 99.4956 155.791 99.4372V99.3724C155.745 98.9504 154.901 97.73 154.434 97.172C154.434 97.172 155.791 96.4192 157.713 96.328L157.712 96.3272ZM157.712 96.3272C157.712 96.3272 155.511 95.4832 152.654 95.9508C149.79 96.418 148.667 96.9828 146.745 97.2168L146.725 97.2492C148.329 97.7748 150.953 97.736 152.511 98.0088C153.263 98.1452 154.037 98.5672 154.654 98.976L153.849 102.572C152.057 103.527 149.154 105.345 146.933 108.104C146.759 108.318 146.598 108.543 146.453 108.778C146.38 108.877 146.315 108.981 146.258 109.09C146.173 109.226 146.095 109.362 146.024 109.498C145.933 109.661 145.848 109.83 145.765 110.005C145.68 110.174 145.602 110.342 145.531 110.511C145.239 111.173 144.985 111.852 144.771 112.544L144.707 112.751C144.593 113.125 144.489 113.501 144.395 113.88L144.369 113.984L144.349 114.062L144.323 114.185L144.317 114.218C144.356 114.153 144.557 113.789 144.895 113.264L145.141 112.887C145.79 111.914 146.778 110.563 147.953 109.408C148.115 109.245 148.282 109.087 148.453 108.934C148.789 108.632 149.143 108.35 149.512 108.09C152.148 106.26 153.544 105.552 154.342 104.806C154.486 104.656 154.603 104.494 154.707 104.332C155.401 103.487 155.713 100.469 155.772 99.8268V99.8072L155.785 99.6968C155.791 99.5864 155.791 99.4956 155.791 99.4372V99.3724C155.745 98.9504 154.901 97.73 154.434 97.172C154.434 97.172 155.791 96.4192 157.713 96.328L157.712 96.3272ZM152.654 95.9508C149.79 96.418 148.667 96.9828 146.745 97.2168L146.725 97.2492C148.329 97.7748 150.953 97.736 152.511 98.0088C153.263 98.1452 154.037 98.5672 154.654 98.976L153.849 102.572C152.057 103.527 149.154 105.345 146.933 108.104C146.759 108.318 146.598 108.543 146.453 108.778C146.38 108.877 146.315 108.981 146.258 109.09C146.173 109.226 146.095 109.362 146.024 109.498C145.933 109.661 145.848 109.83 145.765 110.005C145.68 110.174 145.602 110.342 145.531 110.511C145.239 111.173 144.985 111.852 144.771 112.544L144.707 112.751C144.593 113.125 144.489 113.501 144.395 113.88L144.369 113.984L144.349 114.062L144.323 114.185L144.317 114.218C144.356 114.153 144.557 113.789 144.895 113.264L145.141 112.887C145.79 111.914 146.778 110.563 147.953 109.408C148.115 109.245 148.282 109.087 148.453 108.934C148.789 108.632 149.143 108.35 149.512 108.09C152.148 106.26 153.544 105.552 154.342 104.806C154.486 104.656 154.603 104.494 154.707 104.332C155.401 103.487 155.713 100.469 155.772 99.8268V99.8072L155.785 99.6968C155.791 99.5864 155.791 99.4956 155.791 99.4372V99.3724C155.745 98.9504 154.901 97.73 154.434 97.172C154.434 97.172 155.791 96.4192 157.713 96.328C157.713 96.328 155.512 95.484 152.655 95.9516L152.654 95.9508ZM169.595 134.464C168.796 134.418 166.485 134.406 162.919 133.977C159.355 133.561 152.991 133.393 152.991 133.393C156.03 124.981 166.64 120.404 166.64 120.404C166.829 122.838 165.003 127.29 165.003 127.29C165.003 127.29 167.393 127.155 168.796 127.713C170.205 128.278 171.004 128.79 171.517 131.698C172.03 134.606 170.393 134.509 169.595 134.464V134.464ZM167.231 136.275C166.341 136.399 160.848 136.574 154.167 137.58C152.863 137.78 151.564 138.007 150.271 138.262C150.693 137.119 151.089 136.295 151.581 135.529L151.64 135.522C156.543 135.522 164.432 135.775 166.445 135.833C167.731 135.865 169.018 135.835 170.301 135.742C169.711 136.216 168.12 136.157 167.231 136.275L167.231 136.275ZM147.309 138.45C145.069 152.848 140.946 158.372 140.946 158.372L141.375 156.911C143.109 149.134 142.829 145.48 144.232 136.106C145.641 126.733 149.765 121.013 149.765 121.013C144.608 124.623 141.829 132.342 140.855 143.558C139.817 155.535 137.005 160.027 136.83 160.293C138.622 154.119 137.855 147.258 138.141 142.67C138.42 138.074 138.621 131.829 141.199 125.922C143.777 120.014 149.765 114.315 156.049 111.452C162.328 108.596 167.341 110.005 167.341 110.005C170.646 113.108 170.854 116.373 170.854 116.373C170.854 116.373 165.627 117.704 159.575 121.689C153.529 125.668 149.685 135.172 149.685 135.172C151.237 124.63 158.017 117.262 158.017 117.262C152.952 120.216 149.264 125.863 147.309 138.45H147.309ZM135.959 141.936C135.07 142.228 134.284 142.513 133.661 142.78C129.7 144.434 122.323 148.342 122.323 148.342L122.07 148.491C121.466 144.286 120.096 140.838 120.096 140.838C120.096 140.838 122.738 133.958 121.752 129.732C120.453 124.175 118.324 121.222 118.324 121.222C118.553 120.976 118.786 120.736 119.025 120.501C120.421 122.397 122.778 122.455 122.778 122.455C122.778 122.455 124.083 128.005 125.973 130.784C127.869 133.561 130.408 135.925 134.485 135.925C135.076 135.925 135.778 135.912 136.537 135.892C136.207 138.008 136.037 140.28 135.959 141.936ZM117.388 160.488C116.869 161.436 115.558 162.637 114.895 163.818C114.382 163.247 113.473 162.39 111.947 161.319C111.629 161.098 111.246 160.858 110.831 160.598C112.227 155.035 115.486 147.94 116.804 146.149C117.226 145.584 117.941 144.474 118.389 143.76C118.817 144.566 119.967 146.61 120.291 149.174C120.771 152.913 119.304 157.015 117.388 160.488H117.388ZM117.486 172.056C116.252 175.898 113.207 179.294 113.207 179.294C113.207 179.294 111.785 177.3 110.674 176.548C110.57 176.48 110.464 176.415 110.356 176.352C110.882 174.854 111.947 172.056 113.129 169.927C114.823 166.876 117.245 163.617 117.245 163.617C117.245 163.617 118.726 168.213 117.486 172.056L117.486 172.056ZM111.382 183.396C111.382 183.396 110.843 181.942 109.402 181.208C107.967 180.482 106.616 179.852 106.279 178.398C105.941 176.944 106.851 175.717 106.851 175.717C106.851 175.717 107.656 176.736 109.175 177.457C110.695 178.184 111.779 179.196 112.344 180.391C112.909 181.585 112.402 182.682 111.382 183.396L111.382 183.396ZM108.733 187.557C108.733 187.557 108.999 186.206 107.597 185.174C105.558 183.655 104.837 183.065 106.324 180.52C106.324 180.52 107.039 181.358 108.149 182.105C109.259 182.857 110.434 184.539 110.519 185.35C110.649 186.583 108.733 187.557 108.733 187.557H108.733ZM106.999 189.128C106.539 189.647 105.804 189.725 105.273 189.102C104.747 188.478 105.124 186.388 105.961 185.356C105.961 185.356 106.441 186.226 106.955 186.921C107.597 187.784 107.461 188.608 106.999 189.128ZM110.447 171.646C110.447 171.646 109.669 173.776 109.058 175.697C108.116 175.21 107.168 174.548 106.785 173.268C106.162 171.18 107.097 170.38 107.629 169.692C107.629 169.692 109.012 170.919 110.447 171.646H110.447ZM104.409 159.501C106.493 160.702 108.888 161.89 110.285 162.76C111.817 163.707 113.064 164.648 113.986 165.434C112.518 168.044 111.188 170.374 111.188 170.374C111.188 170.374 108.233 168.835 106.162 165.85C104.539 163.513 104.395 160.637 104.409 159.501L104.409 159.501ZM98.175 151.536C95.5518 147.446 95.5778 142.084 95.5778 142.084C96.8766 143.233 100.214 145.096 103.265 146.791C105.759 148.174 109.824 151.205 111.233 152.276C110.064 155.417 109.259 158.326 108.954 159.456C105.479 157.372 100.136 154.587 98.175 151.536ZM119.7 134.71C118.655 140.26 116 142.156 113.298 147.479C112.828 148.422 112.39 149.382 111.986 150.355C110.305 149.017 107.246 147.115 104.72 145.544C104.83 143.487 105.571 139.618 107.688 134.807C110.058 129.426 116.103 122.812 116.103 122.812C118.116 124.896 120.752 129.16 119.7 134.711V134.71ZM88.8314 126.181C88.6562 121.507 89.0326 117.314 89.9094 114.315C89.7666 114.491 89.5979 114.691 89.4355 114.886C79.3711 126.992 67.8974 126.175 57.3914 127.258C55.8394 127.415 50.0022 128.596 48.4634 128.927C52.2098 124.922 58.6838 119.04 62.911 116.158C70.8262 110.758 84.397 105.123 85.2414 104.779C78.839 108.324 73.6706 114.029 73.6706 114.029C77.5406 111.407 90.7607 103.766 91.5791 103.293C87.8259 106.869 77.2614 116.171 70.989 120.326C78.995 116.548 85.7743 111.653 89.4235 108.2C93.9883 103.89 100.845 99.7288 103.949 98.1256C105.468 99.6252 107.676 100.995 109.643 101.806C104.377 105.512 100.864 107.629 99.3579 112.64C99.3579 112.64 103.215 107.694 108.767 104.662C109.811 104.097 110.942 103.397 112.105 102.598C113.351 102.889 116.065 103.143 117.389 103.143L117.713 102.999C117.5 103.162 116.967 103.467 116.747 103.63C106.15 111.407 96.4486 113.451 95.5266 129.232C95.663 128.342 97.2474 118.728 105.033 113.743C109.656 110.783 117.948 106.842 123.506 101.176C127.759 99.2284 130.441 95.8984 131.824 91.2704L131.856 91.1276C133.233 90.9912 134.603 90.816 136.038 90.686C135.875 92.3608 135.505 94.6328 134.694 96.95C133.7 100.059 132.025 103.519 129.077 107.129C123.766 113.614 117.357 117.67 110.689 126.356C104.013 135.035 102.598 143.883 102.598 143.883C101.149 133.38 105.981 126.596 106.247 126.233C105.442 126.876 102.15 130.771 100.935 135.554C99.8259 139.923 100.013 141.163 100.085 142.404C97.0467 140.28 89.1962 136.294 88.8326 126.181L88.8314 126.181ZM87.2343 127.258C87.2343 127.258 85.2083 128.057 82.7411 128.057C80.2671 128.057 77.293 126.5 77.293 126.5L77.4942 126.479C82.6822 125.18 87.3706 119.573 87.3706 119.573C86.825 121.469 87.2343 127.258 87.2343 127.258ZM45.1322 129.562C41.6974 130.621 37.3534 132.446 35.3406 133.321C40.0418 128.154 49.5674 118.891 57.333 113.672C80.7802 97.9176 100.169 95.3728 101.617 95.0808L102.04 95.4508C102.233 95.756 102.442 96.0416 102.649 96.3272C92.8318 99.008 71.9106 107.862 59.6774 116.424C54.3986 120.124 48.639 125.96 45.1326 129.562L45.1322 129.562ZM60.9758 57.736C58.2358 50.6992 58.1774 44.3248 58.203 42.7928C58.2094 42.572 58.1966 42.1568 58.1966 42.0204C58.2614 37.0868 58.9238 32.5172 59.4822 29.2324C59.5082 29.1024 59.5278 28.9664 59.547 28.8364L59.5598 29.5376C59.5402 32.952 59.7742 35.9576 59.8586 36.8924L59.865 36.9832C59.8778 37.1196 59.969 36.282 60.0338 35.86C60.261 34.3412 60.5206 32.8284 60.6702 31.2964C60.8262 29.7708 61.1702 27.9532 61.235 26.4212C61.261 25.8304 61.287 25.2396 61.2674 24.6556C61.4426 24.7528 61.5078 25.3244 61.5466 25.4864C61.6766 26.1224 61.9686 31.1272 62.053 32.8412C62.0918 33.5228 62.105 34.2044 62.1114 34.8924C62.1178 35.23 62.1242 35.5676 62.183 35.9052C62.1894 35.996 62.2218 36.0936 62.2414 36.1908C62.2674 36.1908 62.5078 33.9384 62.6958 32.744C62.8582 31.7184 63.1114 30.6796 63.105 29.6412C63.105 29.5504 63.079 29.4336 63.0922 29.3492C63.1182 29.1936 63.3455 29.8556 63.4559 31.076C63.5339 32.4588 63.5922 33.8868 63.7546 35.2368L63.8778 36.308C64.9946 46.1036 70.8647 55.0292 78.7995 59.0276C85.2019 62.6172 91.1755 61.8512 97.5063 61.04C98.6815 60.8908 99.8894 60.7348 101.123 60.6052C103.896 60.3132 106.162 60.2872 108.272 60.5208C112.934 60.9428 117.246 62.5332 118.661 63.2668C123.394 65.3896 127.103 70.2124 127.881 75.2756V75.412C128.083 76.3336 128.187 77.288 128.187 78.268V78.3004C128.154 78.112 128.135 77.9368 128.095 77.742C128.072 79.3356 127.755 80.9112 127.161 82.39C127.629 80.9296 127.784 79.2224 127.356 77.2292C127.336 79.0988 126.901 80.858 126.161 82.4484C126.617 80.9819 126.78 79.4402 126.641 77.9108C126.349 74.7172 124.797 71.9388 122.519 69.9912C124.343 71.9452 125.232 75.0416 125.493 77.9432C126.103 84.7268 120.675 89.1732 114.857 90.1792L114.733 90.2116C115.233 90.296 117.175 90.5688 119.11 89.952C119.967 89.8872 121.11 89.6988 122.265 89.134C122.694 88.9328 123.232 88.6212 123.817 88.2124C121.402 90.4456 118.175 91.8216 114.622 91.8216C109.935 91.8216 105.811 89.4392 103.383 85.8236C106.766 86.2456 110.077 86.914 110.077 86.914C107.026 84.564 101.974 83.084 101.974 83.084V83.1036C97.403 81.7208 90.8382 80.4876 85.0074 78.8324C73.235 75.5348 65.151 68.4336 60.9758 57.736ZM86.5658 46.8176C83.9426 39.8912 84.8258 33.2832 84.371 29.5832C84.2133 28.3308 84.0424 27.08 83.8583 25.8312C84.4427 27.746 85.2022 30.4856 85.4034 32.238C85.4034 32.238 85.2346 27.272 84.5526 24.1824C84.6498 24.468 86.2735 29.0576 86.6047 31.7188C86.6047 31.7188 86.8319 29.0572 86.5787 26.2208C86.9035 27.3112 87.1955 28.4604 87.4099 29.6676C88.7603 37.1652 90.981 42.4036 99.9158 47.9148C98.325 50.3492 95.9811 53.666 94.1563 56.2432C91.9487 54.588 88.2602 51.3032 86.5658 46.8176ZM103.123 46.824C104.533 43.838 104.734 41.4948 104.734 41.4948C117.765 42.0984 133.382 47.8108 146.011 59.7808C151.603 65.0712 155.303 71.3224 157.693 76.652C155.361 76.2756 150.524 75.7044 145.07 75.6652C138.953 75.6264 131.622 76.4508 130.226 76.6196V76.6132C130.2 76.3988 130.175 76.1848 130.142 75.9704L130.116 75.782C130.09 75.6132 130.057 75.4508 130.025 75.282H130.031C129.252 69.2968 124.818 63.5716 119.201 61.1956C117.181 60.2544 112.928 58.8392 108.487 58.4432C106.239 58.1836 103.831 58.2096 100.909 58.5212C99.6494 58.6512 98.435 58.8132 97.2402 58.9628C96.3702 59.0732 95.5195 59.1836 94.6755 59.2808C94.6755 59.2808 95.1039 58.742 95.1755 58.6252C97.4351 55.2108 99.8894 51.8224 101.117 50.1736C101.893 49.1249 102.565 48.003 103.123 46.824H103.123ZM85.0006 84.7528C85.1046 83.7984 85.2343 82.8444 85.3839 81.9032C85.4359 81.6436 85.4879 81.3776 85.5463 81.1176C86.5983 81.3708 87.6695 81.6176 88.7411 81.864C89.7019 82.0912 90.6695 82.3184 91.6239 82.5584C92.1043 82.6752 92.5783 82.792 93.0459 82.9156L93.1823 82.948L92.9875 82.9804C90.2475 83.4608 87.4034 84.1292 85.0006 84.7524V84.7528ZM161.634 88.6152C152.257 87.3688 145.083 87.4144 129.895 89.0632C128.687 95.6584 122.915 100.663 115.967 100.663C110.402 100.663 105.597 97.45 103.279 92.7828C99.9874 93.3928 97.1695 93.9836 94.7995 94.5356C94.7995 94.5356 86.709 96.6128 84.5206 97.4696C84.5206 97.4696 84.0402 97.9952 84.3974 90.4328C84.4102 90.2512 84.5986 88.1088 84.7222 86.7848C87.2414 86.1292 90.3391 85.3892 93.3323 84.8568C94.8626 84.5888 96.3998 84.3615 97.9422 84.1752C98.7994 84.4024 99.6307 84.6296 100.403 84.8568C100.487 85.376 104.494 94.1396 115.37 93.9772C122.571 93.8668 130.304 87.46 130.311 78.476V78.45C131.746 78.2944 139.03 77.5348 145.07 77.58C151.719 77.6256 157.07 78.4304 158.751 78.742C158.751 78.742 160.653 83.3964 161.634 88.6152ZM164.627 89.8032C167.341 89.1932 168.562 88.6348 168.562 88.6348C168.562 88.6348 167.906 93.6008 162.653 93.9708C157.407 94.3472 156.706 93.0816 152.764 92.5688C152.764 92.5688 153.939 91.8612 156.05 91.4456C156.05 91.4456 152.388 90.9264 149.621 91.6272C146.862 92.3348 145.732 93.5032 145.732 93.5032C145.732 93.5032 145.407 90.6924 146.81 89.7576C148.219 88.8164 153.141 89.1928 154.776 89.3812C156.42 89.5696 161.907 90.4132 164.627 89.8032ZM166.179 104.266C166.919 104.836 167.659 104.954 168.114 105.292C168.568 105.635 168.568 106.661 168.341 107.512C168.114 108.362 167.484 108.478 166.802 108.31C166.166 108.147 162.841 107.7 159.225 108.362C159.03 107.693 158.699 106.168 159.419 105.408C160.355 104.434 162.154 104.519 162.867 104.655C162.699 104.577 161.309 103.954 160.075 103.954C158.764 103.954 157.686 104.85 157.309 105.831C157.03 106.564 157.27 108.07 157.413 108.797C153.485 109.952 147.855 113.023 143.238 118.949C138.232 125.376 137.103 133.398 137.103 133.398C137.103 133.398 131.817 134.438 129.083 130.38C125.415 124.934 126.797 118.547 126.797 118.547C126.797 118.547 124.622 119.573 122.907 119.124C122.304 118.969 121.875 118.573 121.571 118.099C124.433 115.561 127.472 113.178 130.492 109.726C132.049 110.069 133.452 110.446 134.219 110.686C135.907 111.198 137.667 112.626 138.141 114.172C138.609 115.716 138.842 120.968 138.842 120.968C139.789 117.313 139.939 115.476 140.031 114.438C140.128 113.412 140.018 110.802 138.044 108.998C136.972 108.024 133.953 107.122 132.751 106.459C137.329 100.157 138.589 90.4976 138.589 90.4976C138.583 90.4068 138.583 90.316 138.583 90.2248C139.051 90.1728 139.355 90.1276 139.368 90.0756C140.212 90.03 143.206 89.66 144.037 89.6472C144.037 89.6472 142.785 93.3408 143.868 96.0736C143.868 96.0736 146.654 94.1976 150.641 94.4832C154.621 94.7688 160.997 96.7032 163.731 95.6192C163.731 95.6192 164.926 98.352 164.867 100.345C164.815 102.331 165.438 103.7 166.179 104.266ZM173.171 129.881C172.912 128.29 171.315 126.869 170.516 126.693C169.717 126.518 167.679 125.986 167.679 125.986C169.185 121.735 169.185 119.073 169.185 119.073C170.516 118.364 173.171 117.301 173.171 117.301C172.289 112.601 169.094 108.966 169.094 108.966C169.36 107.992 169.983 106.311 169.983 105.688C169.983 105.064 168.827 104.006 167.587 103.208C166.347 102.41 166.172 100.994 166.172 99.3068C166.172 97.6256 165.464 95.4964 165.198 95.4056C164.931 95.3212 168.359 94.2372 169.425 91.2188C170.49 88.2068 170.516 85.7596 170.516 85.7596C169.1 87.824 163.555 88.6744 163.555 88.6744C163.113 83.9748 159.341 68.8172 144.095 55.0816C128.849 41.346 102.869 38.8596 102.869 38.8596C102.908 39.6256 102.811 40.5344 102.583 41.534C102.369 42.8256 101.993 44.3512 101.337 45.5848C101.298 45.6564 101.246 45.7472 101.194 45.8316C97.6094 43.8908 93.8434 41.2812 92.1162 38.2304C88.7722 32.3232 89.1879 27.2404 87.4151 23.0732C84.5127 16.2508 80.3242 12.5444 79.0778 11.46C78.3634 10.8368 78.1235 10.6292 77.7531 10.9276C77.3895 11.2196 77.6298 11.6416 77.9282 12.0832C78.2074 12.4988 80.8178 17.5296 81.7918 24.3584C82.7658 31.1808 81.4739 41.95 84.6683 48.8632C86.6551 53.1668 89.9406 56.5748 92.1418 58.5352C92.2198 58.6 92.2978 58.6716 92.369 58.7364L93.0834 59.444C88.525 59.8724 84.2851 59.71 79.7787 57.1784C72.5323 53.5304 66.9738 45.046 65.9546 36.0684L65.8314 34.9908C65.5458 32.5304 65.6626 30.0704 65.5522 27.6036C65.4542 25.3634 65.2091 23.1321 64.8186 20.924C64.6499 19.9524 64.4484 18.9868 64.2146 18.0288L64.2082 17.9964C64.111 17.412 63.9419 16.8344 63.7731 16.2632C63.6627 15.8868 63.5394 15.5104 63.4158 15.1272C63.1313 14.2843 62.7522 13.4764 62.2858 12.7188C61.7142 11.7972 61.0846 10.9012 60.351 10.1028C59.9158 9.6288 59.4486 9.1812 58.9226 8.8112C58.9226 8.8112 58.4358 8.506 58.1046 8.6812C58.1046 8.6812 57.6694 8.9864 58.1306 9.934C58.1306 9.934 58.2474 10.1224 58.3838 10.4468C58.5782 10.9049 58.7177 11.3844 58.7994 11.8752C59.163 13.8228 59.4226 18.016 57.8838 26.02L57.871 26.046C57.7346 27.208 57.5855 28.37 57.3843 29.5252C56.7479 33.2708 56.131 37.5224 56.027 41.9368C56.027 42.1316 56.053 42.7028 56.0466 42.8196C56.001 46.7468 56.7542 72.4916 83.383 80.5992C83.2598 81.1508 83.1427 81.6832 83.0583 82.196C81.2595 93.5492 81.9219 98.3336 81.9219 98.3336L81.9346 98.4504C76.4866 100.502 70.3246 103.267 63.8314 106.98C56.5654 110.959 48.6826 116.373 40.9686 123.76C39.5724 125.103 38.2084 126.48 36.8778 127.888C36.5662 128.213 36.2546 128.544 35.9426 128.876L35.8842 128.94C31.813 133.322 28.7418 137.359 26.5146 140.644C38.5466 131.959 57.3446 129.356 63.091 129.017C69.1166 128.667 75.2202 127.636 75.2202 127.636C75.2202 127.636 77.6034 128.908 80.4474 129.531C83.6746 130.245 87.0511 129.219 87.0511 129.219C88.2655 135.464 92.6546 139.476 93.8038 140.377C93.505 142.254 93.8102 148.446 95.9206 151.887C98.1934 155.594 101.946 158.093 101.946 158.093C101.946 158.093 101.687 161.449 102.569 163.851C103.453 166.252 105.504 168.44 105.504 168.44C105.504 168.44 104.569 170.011 104.446 171.984C104.323 173.958 105.504 175.054 105.504 175.054C105.504 175.054 104.433 176.431 104.251 177.502C104.075 178.58 104.738 180.195 104.738 180.195C104.738 180.195 104.089 181.377 103.9 182.286C103.705 183.201 104.251 184.325 104.251 184.325C103.816 185.174 102.525 189.167 104.426 190.77C106.322 192.373 108.686 189.381 108.686 189.381C109.413 189.166 110.783 188.264 111.432 187.252C112.231 186.012 112.231 184.856 112.231 184.856C112.231 184.856 113.251 184.194 114.133 182.506C114.861 181.137 114.757 180.234 114.757 180.234C114.757 180.234 118.88 175.905 119.737 170.497C120.471 165.888 119.386 161.636 119.386 161.636C119.386 161.636 122.484 156.924 122.341 151.536C124.452 150.062 129.542 146.758 135.88 144.292C136.062 147.927 136.633 151.075 135.497 156.918C134.075 164.188 127.601 169.505 127.601 169.505C136.645 168.531 142.678 160.552 145.068 154.789C147.022 150.088 148.801 143.441 149.626 140.429C158.45 138.716 166.509 138.261 169.184 137.859C172.729 137.326 173.619 136.534 173.703 135.204C173.794 133.873 173.437 131.478 173.17 129.881H173.171ZM157.712 96.3272C157.712 96.3272 155.511 95.4832 152.653 95.9508C149.79 96.418 148.667 96.9828 146.745 97.2168L146.725 97.2492C148.329 97.7748 150.953 97.736 152.511 98.0088C153.263 98.1452 154.037 98.5672 154.653 98.976L153.848 102.572C152.056 103.527 149.153 105.345 146.932 108.104C146.758 108.318 146.598 108.543 146.452 108.778C146.38 108.877 146.315 108.981 146.257 109.09C146.172 109.226 146.095 109.362 146.024 109.498C145.933 109.661 145.848 109.83 145.764 110.005C145.68 110.174 145.602 110.342 145.531 110.511C145.238 111.173 144.985 111.852 144.771 112.544L144.707 112.751C144.593 113.125 144.489 113.501 144.395 113.88L144.369 113.984L144.349 114.062L144.323 114.185L144.317 114.218C144.355 114.153 144.557 113.789 144.895 113.264L145.141 112.887C145.79 111.914 146.777 110.563 147.953 109.408C148.115 109.245 148.282 109.087 148.453 108.934C148.789 108.632 149.143 108.35 149.512 108.09C152.148 106.26 153.544 105.552 154.342 104.806C154.485 104.656 154.603 104.494 154.707 104.332C155.401 103.487 155.713 100.469 155.772 99.8268V99.8072L155.784 99.6968C155.791 99.5864 155.791 99.4956 155.791 99.4372V99.3724C155.745 98.9504 154.901 97.73 154.433 97.172C154.433 97.172 155.791 96.4192 157.713 96.328L157.712 96.3272ZM157.712 96.3272C157.712 96.3272 155.511 95.4832 152.653 95.9508C149.79 96.418 148.667 96.9828 146.745 97.2168L146.725 97.2492C148.329 97.7748 150.953 97.736 152.511 98.0088C153.263 98.1452 154.037 98.5672 154.653 98.976L153.848 102.572C152.056 103.527 149.153 105.345 146.932 108.104C146.758 108.318 146.598 108.543 146.452 108.778C146.38 108.877 146.315 108.981 146.257 109.09C146.172 109.226 146.095 109.362 146.024 109.498C145.933 109.661 145.848 109.83 145.764 110.005C145.68 110.174 145.602 110.342 145.531 110.511C145.238 111.173 144.985 111.852 144.771 112.544L144.707 112.751C144.593 113.125 144.489 113.501 144.395 113.88L144.369 113.984L144.349 114.062L144.323 114.185L144.317 114.218C144.355 114.153 144.557 113.789 144.895 113.264L145.141 112.887C145.79 111.914 146.777 110.563 147.953 109.408C148.115 109.245 148.282 109.087 148.453 108.934C148.789 108.632 149.143 108.35 149.512 108.09C152.148 106.26 153.544 105.552 154.342 104.806C154.485 104.656 154.603 104.494 154.707 104.332C155.401 103.487 155.713 100.469 155.772 99.8268V99.8072L155.784 99.6968C155.791 99.5864 155.791 99.4956 155.791 99.4372V99.3724C155.745 98.9504 154.901 97.73 154.433 97.172C154.433 97.172 155.791 96.4192 157.713 96.328L157.712 96.3272ZM157.712 96.3272C157.712 96.3272 155.511 95.4832 152.653 95.9508C149.79 96.418 148.667 96.9828 146.745 97.2168L146.725 97.2492C148.329 97.7748 150.953 97.736 152.511 98.0088C153.263 98.1452 154.037 98.5672 154.653 98.976L153.848 102.572C152.056 103.527 149.153 105.345 146.932 108.104C146.758 108.318 146.598 108.543 146.452 108.778C146.38 108.877 146.315 108.981 146.257 109.09C146.172 109.226 146.095 109.362 146.024 109.498C145.933 109.661 145.848 109.83 145.764 110.005C145.68 110.174 145.602 110.342 145.531 110.511C145.238 111.173 144.985 111.852 144.771 112.544L144.707 112.751C144.593 113.125 144.489 113.501 144.395 113.88L144.369 113.984L144.349 114.062L144.323 114.185L144.317 114.218C144.355 114.153 144.557 113.789 144.895 113.264L145.141 112.887C145.79 111.914 146.777 110.563 147.953 109.408C148.115 109.245 148.282 109.087 148.453 108.934C148.789 108.632 149.143 108.35 149.512 108.09C152.148 106.26 153.544 105.552 154.342 104.806C154.485 104.656 154.603 104.494 154.707 104.332C155.401 103.487 155.713 100.469 155.772 99.8268V99.8072L155.784 99.6968C155.791 99.5864 155.791 99.4956 155.791 99.4372V99.3724C155.745 98.9504 154.901 97.73 154.433 97.172C154.433 97.172 155.791 96.4192 157.713 96.328L157.712 96.3272ZM157.712 96.3272C157.712 96.3272 155.511 95.4832 152.653 95.9508C149.79 96.418 148.667 96.9828 146.745 97.2168L146.725 97.2492C148.329 97.7748 150.953 97.736 152.511 98.0088C153.263 98.1452 154.037 98.5672 154.653 98.976L153.848 102.572C152.056 103.527 149.153 105.345 146.932 108.104C146.758 108.318 146.598 108.543 146.452 108.778C146.38 108.877 146.315 108.981 146.257 109.09C146.172 109.226 146.095 109.362 146.024 109.498C145.933 109.661 145.848 109.83 145.764 110.005C145.68 110.174 145.602 110.342 145.531 110.511C145.238 111.173 144.985 111.852 144.771 112.544L144.707 112.751C144.593 113.125 144.489 113.501 144.395 113.88L144.369 113.984L144.349 114.062L144.323 114.185L144.317 114.218C144.355 114.153 144.557 113.789 144.895 113.264L145.141 112.887C145.79 111.914 146.777 110.563 147.953 109.408C148.115 109.245 148.282 109.087 148.453 108.934C148.789 108.632 149.143 108.35 149.512 108.09C152.148 106.26 153.544 105.552 154.342 104.806C154.485 104.656 154.603 104.494 154.707 104.332C155.401 103.487 155.713 100.469 155.772 99.8268V99.8072L155.784 99.6968C155.791 99.5864 155.791 99.4956 155.791 99.4372V99.3724C155.745 98.9504 154.901 97.73 154.433 97.172C154.433 97.172 155.791 96.4192 157.713 96.328L157.712 96.3272ZM157.712 96.3272C157.712 96.3272 155.511 95.4832 152.653 95.9508C149.79 96.418 148.667 96.9828 146.745 97.2168L146.725 97.2492C148.329 97.7748 150.953 97.736 152.511 98.0088C153.263 98.1452 154.037 98.5672 154.653 98.976L153.848 102.572C152.056 103.527 149.153 105.345 146.932 108.104C146.758 108.318 146.598 108.543 146.452 108.778C146.38 108.877 146.315 108.981 146.257 109.09C146.172 109.226 146.095 109.362 146.024 109.498C145.933 109.661 145.848 109.83 145.764 110.005C145.68 110.174 145.602 110.342 145.531 110.511C145.238 111.173 144.985 111.852 144.771 112.544L144.707 112.751C144.593 113.125 144.489 113.501 144.395 113.88L144.369 113.984L144.349 114.062L144.323 114.185L144.317 114.218C144.355 114.153 144.557 113.789 144.895 113.264L145.141 112.887C145.79 111.914 146.777 110.563 147.953 109.408C148.115 109.245 148.282 109.087 148.453 108.934C148.789 108.632 149.143 108.35 149.512 108.09C152.148 106.26 153.544 105.552 154.342 104.806C154.485 104.656 154.603 104.494 154.707 104.332C155.401 103.487 155.713 100.469 155.772 99.8268V99.8072L155.784 99.6968C155.791 99.5864 155.791 99.4956 155.791 99.4372V99.3724C155.745 98.9504 154.901 97.73 154.433 97.172C154.433 97.172 155.791 96.4192 157.713 96.328L157.712 96.3272ZM157.712 96.3272C157.712 96.3272 155.511 95.4832 152.653 95.9508C149.79 96.418 148.667 96.9828 146.745 97.2168L146.725 97.2492C148.329 97.7748 150.953 97.736 152.511 98.0088C153.263 98.1452 154.037 98.5672 154.653 98.976L153.848 102.572C152.056 103.527 149.153 105.345 146.932 108.104C146.758 108.318 146.598 108.543 146.452 108.778C146.38 108.877 146.315 108.981 146.257 109.09C146.172 109.226 146.095 109.362 146.024 109.498C145.933 109.661 145.848 109.83 145.764 110.005C145.68 110.174 145.602 110.342 145.531 110.511C145.238 111.173 144.985 111.852 144.771 112.544L144.707 112.751C144.593 113.125 144.489 113.501 144.395 113.88L144.369 113.984L144.349 114.062L144.323 114.185L144.317 114.218C144.355 114.153 144.557 113.789 144.895 113.264L145.141 112.887C145.79 111.914 146.777 110.563 147.953 109.408C148.115 109.245 148.282 109.087 148.453 108.934C148.789 108.632 149.143 108.35 149.512 108.09C152.148 106.26 153.544 105.552 154.342 104.806C154.485 104.656 154.603 104.494 154.707 104.332C155.401 103.487 155.713 100.469 155.772 99.8268V99.8072L155.784 99.6968C155.791 99.5864 155.791 99.4956 155.791 99.4372V99.3724C155.745 98.9504 154.901 97.73 154.433 97.172C154.433 97.172 155.791 96.4192 157.713 96.328L157.712 96.3272Z" fill="black"/>
<path d="M173.705 135.204C173.621 136.534 172.731 137.326 169.186 137.859C166.511 138.261 158.452 138.716 149.628 140.429C148.804 143.441 147.025 150.088 145.07 154.789C142.68 160.552 136.648 168.531 127.603 169.505C127.603 169.505 134.077 164.188 135.499 156.918C136.635 151.075 136.064 147.927 135.882 144.292C129.545 146.758 124.454 150.062 122.344 151.536C122.486 156.924 119.388 161.636 119.388 161.636C119.388 161.636 120.473 165.888 119.74 170.497C118.882 175.904 114.759 180.234 114.759 180.234C114.759 180.234 114.864 181.137 114.135 182.506C113.253 184.194 112.233 184.856 112.233 184.856C112.233 184.856 112.233 186.012 111.434 187.252C110.785 188.264 109.415 189.166 108.688 189.381C108.688 189.381 106.324 192.373 104.428 190.77C102.526 189.167 103.818 185.174 104.253 184.325C104.253 184.325 103.708 183.201 103.902 182.286C104.091 181.377 104.74 180.195 104.74 180.195C104.74 180.195 104.077 178.58 104.253 177.502C104.435 176.431 105.506 175.054 105.506 175.054C105.506 175.054 104.325 173.958 104.448 171.984C104.571 170.011 105.506 168.44 105.506 168.44C105.506 168.44 103.454 166.252 102.572 163.851C101.688 161.449 101.948 158.093 101.948 158.093C101.948 158.093 98.1952 155.594 95.9228 151.887C93.8124 148.447 93.5072 142.254 93.806 140.377C92.6568 139.476 88.2672 135.464 87.0532 129.219C87.0532 129.219 83.6768 130.245 80.4496 129.531C77.6056 128.908 75.2224 127.636 75.2224 127.636C75.2224 127.636 69.1188 128.668 63.0932 129.017C57.3468 129.355 38.5488 131.959 26.5168 140.644C28.744 137.359 31.8152 133.322 35.8864 128.94L35.9448 128.876C36.2564 128.544 36.568 128.213 36.88 127.888C38.2105 126.48 39.5745 125.103 40.9708 123.76C48.6848 116.373 56.5676 110.959 63.8336 106.98C70.3268 103.267 76.4888 100.502 81.9368 98.4504L81.924 98.3336C81.924 98.3336 81.2616 93.5496 83.0604 82.196C83.1448 81.6832 83.2616 81.1508 83.3852 80.5992C56.7564 72.4916 56.0032 46.7468 56.0488 42.8196C56.0552 42.7028 56.0292 42.1316 56.0292 41.9368C56.1332 37.5228 56.75 33.2708 57.3864 29.5252C57.5876 28.3696 57.7372 27.2076 57.8732 26.046L57.886 26.02C59.4248 18.016 59.1652 13.8228 58.8016 11.8752C58.7597 11.6185 58.7012 11.3648 58.6264 11.1156C58.5588 10.8884 58.4785 10.6651 58.386 10.4468C58.3138 10.2701 58.2292 10.0988 58.1328 9.93403C57.6716 8.98643 58.1068 8.68123 58.1068 8.68123C58.438 8.50603 58.9248 8.81123 58.9248 8.81123C59.4508 9.18123 59.9184 9.62923 60.3532 10.1028C61.0868 10.9012 61.7168 11.7972 62.288 12.7188C62.7543 13.4765 63.1334 14.2844 63.418 15.1272C63.5412 15.51 63.6648 15.8868 63.7752 16.2632C63.944 16.8344 64.1128 17.412 64.2104 17.9964L64.2168 18.0288C64.4504 18.9869 64.6519 19.9525 64.8208 20.924C65.2104 23.1312 65.4572 25.364 65.5544 27.6036C65.6648 30.0704 65.548 32.5304 65.8336 34.9908L65.9568 36.0684C66.9764 45.046 72.5344 53.53 79.7808 57.1784C84.2872 59.71 88.5272 59.8724 93.0856 59.444L92.3712 58.7364C92.2996 58.6716 92.222 58.6 92.144 58.5352C89.9428 56.5748 86.6572 53.1668 84.6704 48.8632C81.4756 41.95 82.768 31.1808 81.794 24.3584C80.82 17.5296 78.2096 12.4988 77.9304 12.0832C77.6316 11.6416 77.3916 11.22 77.7552 10.9276C78.1252 10.6288 78.3656 10.8368 79.08 11.46C80.3268 12.544 84.5148 16.2508 87.4172 23.0732C89.19 27.2408 88.7744 32.3232 92.1184 38.2304C93.8456 41.2812 97.6116 43.8908 101.196 45.8316C101.248 45.7472 101.3 45.6564 101.339 45.5848C101.995 44.3516 102.371 42.826 102.586 41.534C102.813 40.5344 102.91 39.6256 102.871 38.8596C102.871 38.8596 128.851 41.3456 144.097 55.0816C159.344 68.8172 163.116 83.9744 163.557 88.6744C163.557 88.6744 169.102 87.824 170.518 85.7596C170.518 85.7596 170.492 88.2068 169.427 91.2188C168.362 94.2372 164.934 95.3212 165.2 95.4056C165.466 95.4964 166.174 97.6256 166.174 99.3068C166.174 100.994 166.349 102.41 167.59 103.208C168.83 104.006 169.985 105.064 169.985 105.688C169.985 106.311 169.362 107.992 169.096 108.966C169.096 108.966 172.291 112.601 173.173 117.301C173.173 117.301 170.518 118.364 169.187 119.073C169.187 119.073 169.187 121.735 167.681 125.986C167.681 125.986 169.72 126.518 170.518 126.693C171.317 126.869 172.914 128.29 173.174 129.881C173.44 131.478 173.798 133.873 173.707 135.204H173.705ZM175.406 129.569C174.997 127.096 172.757 124.934 171.01 124.545C170.887 124.519 170.725 124.486 170.55 124.442C171.004 122.805 171.224 121.5 171.335 120.585C172.342 120.124 173.518 119.644 174.024 119.442L175.744 118.748L175.4 116.93C174.692 113.178 172.725 110.076 171.601 108.544C172.005 107.265 172.245 106.434 172.245 105.727C172.245 104.286 171.089 102.812 168.816 101.351C168.634 101.235 168.427 100.903 168.427 99.3388C168.427 99.3128 168.401 97.8456 168.018 96.3528C169.251 95.5156 170.796 94.1392 171.556 91.9972C172.144 90.3242 172.532 88.5876 172.712 86.8236C172.77 86.22 172.685 84.7724 172.685 84.7724L172.452 81.9812C172.452 81.9812 171.05 83.0976 170.271 83.6948C170.062 83.8504 169.906 83.9676 169.822 84.0192C169.709 84.1031 169.592 84.1811 169.472 84.2528C168.9 84.5968 168.264 84.8696 167.991 85.0124C167.38 85.3436 166.452 85.694 165.432 85.9796C163.966 78.3912 158.589 65.1164 145.59 53.406C129.954 39.3196 104.13 36.7104 103.04 36.6L100.618 36.3728C100.618 36.3728 100.566 40.0016 100.338 41.0336L100.312 41.1504C100.234 41.6265 100.135 42.0987 100.013 42.5656C97.0724 40.7284 95.0204 38.8656 94.0272 37.1064C92.1896 33.8608 91.5924 30.8812 91.0208 28.0056C90.6184 25.9672 90.2288 24.0328 89.4364 22.1632C87.3456 17.2556 84.3392 13.0688 80.5016 9.72563C79.8068 9.12843 79.0992 8.50523 78.0084 8.50523C77.5732 8.50523 76.924 8.61563 76.2684 9.14123C75.8008 9.52403 74.3984 10.9392 75.9632 13.2568C75.9892 13.2956 78.5412 17.9632 79.4956 24.6492C79.8136 26.8496 79.8788 29.5632 79.95 32.4324C80.0928 38.242 80.2616 44.818 82.5604 49.8032C83.5732 51.9908 84.8784 53.9576 86.242 55.6648C86.3784 55.8336 86.898 56.3788 86.9888 56.4892C87.2224 56.762 87.4628 57.0344 87.6964 57.294C85.1836 57.0796 83.0276 56.4176 80.8852 55.2168L80.7944 55.1648C74.1972 51.8412 69.1324 44.0644 68.1976 35.8076L68.0744 34.73C67.8992 33.2696 67.886 31.7896 67.8668 30.2252C67.8632 29.3162 67.8437 28.4072 67.8084 27.4988C67.704 25.163 67.448 22.8363 67.042 20.5336C66.87 19.5562 66.6686 18.5841 66.438 17.6188L66.4184 17.5472C66.2952 16.8396 66.1004 16.1712 65.938 15.6324C65.8201 15.2247 65.6924 14.8199 65.5548 14.4184C65.2202 13.4088 64.7692 12.4417 64.2108 11.5364C63.4704 10.3356 62.7692 9.39443 62.0096 8.57003C61.4124 7.92083 60.828 7.39523 60.2304 6.97323L60.1396 6.91483C59.8864 6.74603 59.198 6.36963 58.3408 6.36963C57.8864 6.36963 57.4512 6.47363 57.0552 6.68123L56.802 6.83683C55.8084 7.53803 55.2112 9.07643 56.1072 10.92L56.1916 11.0756C56.2112 11.108 56.2564 11.1988 56.3148 11.3288C56.3668 11.452 56.4188 11.6016 56.4708 11.7636C56.5164 11.9064 56.5488 12.0688 56.5876 12.2892C56.8864 13.8924 57.1656 17.716 55.7112 25.3888L55.6332 25.7848C55.4708 27.148 55.328 28.18 55.1656 29.1408C54.5424 32.8148 53.8864 37.1964 53.776 41.8832C53.776 42.026 53.7824 42.3248 53.7888 42.5712L53.7952 42.792C53.7628 45.8948 54.2368 72.7884 80.7876 82.1164L80.8072 82.1228L80.7228 82.1552C79.5152 89.8864 79.4308 94.6512 79.5084 96.9748C73.7076 99.2519 68.0804 101.949 62.6716 105.044C54.2044 109.678 46.3476 115.449 39.3156 122.187C37.8959 123.553 36.5082 124.951 35.1536 126.381C34.8288 126.718 34.5108 127.056 34.2316 127.362L34.1408 127.458C30.6604 131.204 27.5176 135.112 24.7972 139.072C24.7128 139.195 24.466 139.591 24.3688 139.824C24.0572 140.538 23.726 141.908 24.3752 142.629C24.7648 143.064 25.5308 143.434 26.9788 142.817C27.1346 142.765 27.2865 142.702 27.4332 142.629C27.7124 142.473 28.128 142.213 28.2644 142.109C37.0564 135.384 57.25 131.671 63.146 131.327C68.0872 131.035 72.9896 130.314 74.808 130.029C75.7948 130.497 77.7236 131.308 79.8988 131.788C80.8208 131.989 81.8144 132.093 82.8596 132.093C83.7688 132.093 84.6192 132.016 85.3464 131.912C86.8528 136.67 89.8528 139.935 91.4112 141.396C91.314 144.265 91.8008 149.647 93.95 153.138C95.7032 156.001 98.2096 158.189 99.6056 159.28C99.6056 160.649 99.7224 162.85 100.411 164.713C101.021 166.381 102.054 167.894 102.82 168.886C102.521 169.685 102.222 170.744 102.151 171.931C102.066 173.268 102.378 174.346 102.768 175.151C102.43 175.761 102.112 176.494 101.988 177.228C101.82 178.234 102.027 179.331 102.261 180.136C102.028 180.649 101.781 181.305 101.644 181.928C101.462 182.824 101.612 183.72 101.8 184.388C101.106 186.407 100.345 190.425 102.924 192.601C103.703 193.256 104.638 193.6 105.625 193.6C107.605 193.6 109.215 192.191 109.988 191.374C111.138 190.835 112.514 189.783 113.294 188.575C113.78 187.822 114.125 186.986 114.313 186.11C114.832 185.59 115.494 184.798 116.091 183.662C116.598 182.702 116.826 181.876 116.923 181.253C118.046 179.91 120.533 176.612 121.61 172.503L121.864 171.367C121.89 171.231 121.916 171.088 121.935 170.938C122.526 167.212 122.046 163.733 121.741 162.11C122.618 160.539 124.338 156.962 124.546 152.814C126.449 151.548 129.767 149.504 133.819 147.667C133.975 150.146 134.021 152.698 133.267 156.566C132.338 161.292 128.89 165.2 127.157 166.914C126.554 167.504 125.066 169.192 125.066 169.192C125.066 169.192 124.495 169.672 124.606 170.652C124.612 170.711 124.658 170.88 124.702 171.003C124.722 171.048 124.826 171.198 124.871 171.236C125.696 172.035 127.962 171.743 127.962 171.743C137.721 170.698 144.331 162.499 147.143 155.729C148.896 151.51 150.48 145.882 151.421 142.448C157.078 141.422 162.311 140.909 165.863 140.559C167.447 140.403 168.7 140.28 169.525 140.15C171.687 139.832 175.713 139.228 175.966 135.411C176.05 134.197 175.869 132.341 175.408 129.568L175.406 129.569Z" fill="#FFFFFE"/>
</g>
<defs>
<clipPath id="clip0_106_4588">
<rect width="200" height="200" fill="white"/>
</clipPath>
</defs>
</svg>
