<svg width="200" height="200" viewBox="0 0 200 200" fill="none" xmlns="http://www.w3.org/2000/svg">
<g clip-path="url(#clip0_106_4521)">
<path d="M158.863 80.9122C145.382 73.0746 132.112 74.8882 122.049 79.3738C121.605 76.0634 120.742 72.4298 119.3 68.1778C117.166 61.8538 114.827 55.8098 112.766 50.4758C110.056 43.4706 107.993 37.4682 106.861 33.4534L99.5267 8.30176L91.9123 33.4702C90.7491 37.4686 88.7412 43.5022 86.0456 50.5142C83.996 55.8518 81.6731 61.9022 79.5527 68.2262C78.1279 72.4846 77.2664 76.1218 76.8324 79.437C66.7576 74.9714 53.4815 73.1842 40.0187 81.0514C29.0127 87.4914 23.1196 98.6806 24.6356 110.258C26.0192 120.791 33.2176 129.066 43.4167 131.871L51.0131 133.957L52.8719 126.301C53.1387 125.261 55.8792 115.675 64.5076 115.849C70.4936 115.973 75.4623 121.266 77.9475 124.689C77.1439 127.109 76.7167 130.011 77.1259 133.135L73.7459 128.626L67.6339 133.185C62.1299 137.286 54.1379 147.422 59.0767 159.386C61.2307 164.603 65.8611 168.157 72.1139 169.403C75.9379 170.164 80.2819 169.987 84.3079 169.101C85.8919 174.189 88.7796 180.344 94.0316 185.841L99.5719 191.633L105.094 185.827C110.336 180.317 113.206 174.153 114.784 169.063C118.812 169.934 123.153 170.103 126.977 169.332C133.226 168.075 137.847 164.508 139.991 159.286C144.903 147.309 136.881 137.191 131.372 133.103L125.249 128.563L121.88 133.077C122.285 129.952 121.847 127.055 121.039 124.629C123.517 121.205 128.473 115.899 134.457 115.763C143.087 115.569 145.846 125.148 146.134 126.242L148.008 133.896C147.997 133.838 155.586 131.734 155.586 131.734C165.784 128.909 172.958 120.613 174.316 110.073C175.806 98.4994 169.884 87.3218 158.864 80.9118" fill="black"/>
<path d="M96.999 34.5459C96.0694 38.9255 93.6738 45.1583 90.8986 52.3807C88.8658 57.6687 86.5646 63.6611 84.4818 69.8775C82.4838 75.8499 81.6686 80.3007 81.6686 84.4515C81.6686 85.7791 81.821 87.0771 81.9766 88.3819C74.2942 83.1039 59.1562 75.8879 42.6462 85.5423C33.4758 90.9083 28.5502 100.115 29.7894 109.578C30.893 117.996 36.6418 124.62 44.795 126.861L47.2138 127.524L47.8154 125.081C47.9662 124.483 51.5978 110.393 64.6118 110.654C75.0858 110.865 81.9318 121.053 83.781 124.184C82.9014 125.812 82.1706 128.057 82.1706 130.633C82.1706 133.394 83.1098 136.536 85.5074 139.685C84.5514 140.982 82.9858 142.571 81.1582 142.722C78.5522 142.936 75.9146 140.191 74.1614 137.847L72.6986 135.894L70.7418 137.354C66.739 140.34 60.1482 148.37 63.8778 157.402C65.3706 161.012 68.5682 163.398 73.1258 164.304C77.8378 165.239 83.7854 164.389 88.0102 162.463C88.8286 167.232 91.1466 175.303 97.7886 182.247L99.5614 184.102L101.329 182.244C107.955 175.28 110.254 167.202 111.061 162.43C115.293 164.346 121.249 165.185 125.961 164.233C130.51 163.316 133.701 160.921 135.182 157.311C138.885 148.272 132.285 140.255 128.275 137.28L126.317 135.826L124.857 137.785C123.107 140.129 120.475 142.884 117.867 142.674C116.041 142.524 114.472 140.941 113.513 139.65C115.894 136.506 116.827 133.376 116.827 130.621C116.827 128.03 116.089 125.777 115.201 124.144C117.044 121.012 123.87 110.8 134.339 110.566C147.351 110.275 151.019 124.358 151.169 124.958L151.777 127.392L154.195 126.729C162.34 124.47 168.074 117.836 169.158 109.414C170.377 99.9475 165.432 90.7491 156.25 85.4063C139.707 75.7819 124.575 83.0491 116.911 88.3471C117.053 87.0775 117.201 85.8175 117.201 84.5227C117.201 80.3271 116.391 75.8035 114.376 69.8375C112.28 63.6327 109.966 57.6503 107.923 52.3707C105.13 45.1531 102.721 38.9203 101.781 34.5407L99.3758 23.3115L96.9982 34.5455" fill="#FFFFFE"/>
<path d="M99.5718 180.554C108.941 170.708 109.053 158.289 109.053 158.289C113.199 162.423 129.308 165.188 132.919 156.382C136.881 146.715 126.819 139.245 126.819 139.245C117.067 152.324 110.525 139.524 110.525 139.524C117.95 131.494 112.379 124.255 112.379 124.255C112.864 122.801 121.1 108.416 134.286 108.121C149.484 107.778 153.545 124.371 153.545 124.371C169.481 119.952 172.559 97.7222 155.023 87.5226C132.769 74.5762 113.379 94.299 113.379 94.299C115.184 86.9174 115.697 81.4006 112.059 70.621C107.127 56.0054 101.081 42.9462 99.3914 35.0542C97.7162 42.9478 91.6974 56.0286 86.8014 70.6542C83.1914 81.4438 83.7214 86.9606 85.5358 94.3354C85.5358 94.3354 66.1018 74.6606 43.8794 87.6566C26.3638 97.8994 29.495 120.117 45.4418 124.5C45.4418 124.5 49.463 107.898 64.6622 108.208C77.8518 108.47 86.1174 122.835 86.6062 124.286C86.6062 124.286 81.051 131.541 88.4966 139.551C88.4966 139.551 81.9806 152.373 72.2038 139.316C72.2038 139.316 62.1522 146.807 66.1398 156.465C69.7746 165.262 85.8738 162.459 90.009 158.315C90.009 158.315 90.1514 170.734 99.539 180.557" fill="black"/>
<path d="M139.435 86.8285C121.325 86.8469 106.475 107.425 106.475 107.425C107.12 104.058 114.862 88.9089 107.855 70.8021C100.849 52.6969 99.4191 45.4033 99.4191 45.4033L99.3859 45.6105V45.4081C99.3859 45.4081 97.9695 52.7033 91.0059 70.8285C84.0407 88.9517 91.8211 104.085 92.4703 107.445C92.4703 107.445 77.5723 86.9045 59.4623 86.9277C41.3551 86.9477 26.2787 107.567 43.0119 119.745C43.0119 119.745 47.9095 104.531 64.7871 104.499C77.1999 104.473 89.6355 117.795 90.1623 124.398C90.1623 124.398 84.4795 132.426 92.3807 139.144C92.3807 139.144 83.8451 157.11 72.0107 144.169C72.0107 144.169 62.9099 155.56 74.8107 158.319C84.2527 160.503 93.5523 150.921 93.5523 150.921C93.5523 150.921 92.5383 166.058 99.5315 174.332V174.257L99.5663 174.329C106.541 166.04 105.491 150.901 105.491 150.901C105.491 150.901 114.814 160.464 124.256 158.254C136.148 155.469 127.019 144.098 127.019 144.098C115.218 157.066 106.644 139.123 106.644 139.123C114.524 132.385 108.821 124.371 108.821 124.371C109.332 117.774 121.733 104.418 134.15 104.415C151.031 104.415 155.963 119.612 155.963 119.612C172.669 107.397 157.542 86.8053 139.435 86.8285Z" fill="#D3BC8D"/>
</g>
<defs>
<clipPath id="clip0_106_4521">
<rect width="200" height="200" fill="white"/>
</clipPath>
</defs>
</svg>
