<svg width="200" height="200" viewBox="0 0 200 200" fill="none" xmlns="http://www.w3.org/2000/svg">
<path d="M190.367 94.8522C187.105 84.035 172.988 71.1854 152.559 60.4498C134.478 50.9486 113.167 47.5874 100.292 47.5874H99.676C86.7964 47.5874 65.4792 50.9486 47.3996 60.4498C26.968 71.1858 12.8504 84.035 9.58961 94.8526C9.30691 96.4248 9.17311 98.0201 9.19001 99.6174V99.6714C9.17241 101.269 9.30601 102.864 9.58801 104.437C12.8492 115.254 26.9676 128.103 47.396 138.839C65.5816 148.395 87.0336 151.744 99.892 151.701H100.278C113.158 151.701 134.477 148.34 152.557 138.839C172.985 128.104 187.104 115.254 190.365 104.437C190.647 102.864 190.78 101.268 190.763 99.6702V99.6178C190.781 98.0203 190.648 96.4247 190.366 94.8522H190.367Z" fill="#115740"/>
<path d="M128.311 81.5163L129.882 78.5379H130.668C131.171 78.5379 131.423 78.7307 131.423 79.1159C131.411 79.336 131.344 79.5497 131.23 79.7383L130.284 81.5163H135.796L136.552 80.1367C136.755 79.8051 136.872 79.4283 136.894 79.0399C136.894 78.4771 136.459 78.0575 135.59 77.7807C136.061 77.7144 136.523 77.5951 136.968 77.4251C137.36 77.2376 137.717 76.9818 138.02 76.6695C138.325 76.3738 138.566 76.0189 138.729 75.6264C138.892 75.2339 138.972 74.8123 138.966 74.3875C138.982 74.1423 138.947 73.8965 138.866 73.6648C138.784 73.4331 138.656 73.2203 138.49 73.0391C138.056 72.6047 137.27 72.3871 136.134 72.3871H127.69L122.828 81.5163H128.311ZM131.868 74.7003H132.683C133.058 74.7003 133.245 74.8483 133.245 75.1447C133.237 75.3223 133.186 75.4951 133.096 75.6487L132.874 76.0635C132.781 76.2865 132.625 76.4779 132.426 76.6146C132.226 76.7512 131.992 76.8274 131.75 76.8339H130.698L131.868 74.7003H131.868ZM79.8524 81.5163L82.846 77.9747L82.0016 81.5163H87.484L95.6348 72.3891H90.6708L87.3808 76.6711L88.596 72.3891H83.408L80.2664 76.6419L81.3472 72.3891H76.0884L74.3696 81.5163H79.8528H79.8524ZM110.572 76.8479C110.186 77.5503 109.964 78.3306 109.921 79.1307C109.919 79.5536 110.048 79.9667 110.289 80.314C110.53 80.6613 110.873 80.9259 111.27 81.0719C112.218 81.5263 113.73 81.7535 115.804 81.7531C118.719 81.7531 120.764 81.1655 121.94 79.9899C122.738 79.121 123.393 78.1308 123.881 77.0563C124.267 76.3546 124.49 75.5747 124.533 74.7747C124.536 74.3536 124.41 73.9418 124.171 73.5947C123.933 73.2476 123.594 72.982 123.2 72.8335C122.241 72.3791 120.725 72.1519 118.65 72.1519C115.736 72.1519 113.691 72.7395 112.515 73.9151C111.715 74.7836 111.059 75.7738 110.57 76.8487L110.572 76.8479ZM115.61 77.9683L116.855 75.6411C117.017 75.3029 117.24 74.998 117.514 74.7423C117.755 74.5495 118.058 74.4503 118.366 74.4627C118.861 74.4627 119.108 74.6687 119.108 75.0811C119.088 75.383 118.996 75.6758 118.841 75.9351L117.596 78.2623C117.439 78.5931 117.223 78.8926 116.959 79.1463C116.712 79.3459 116.402 79.4503 116.084 79.4407C115.591 79.4407 115.344 79.2347 115.343 78.8223C115.363 78.5207 115.454 78.2283 115.61 77.9691V77.9683ZM103.96 81.5163L105.473 78.6863L112.779 72.3891H107.664L104.863 75.2191L104.938 72.3891H99.3804L99.7808 78.5235L98.1812 81.5167H103.96V81.5163ZM70.3952 81.5163L71.6252 79.2051H65.8752L66.5128 78.0491H71.6696L72.8552 75.8115H67.6832L68.3056 74.7003H73.8628L75.0932 72.3891H64.2304L59.3692 81.5163H70.3948H70.3952ZM143.133 81.5163L145.282 77.4711L145.549 81.5163H150.973L150.395 76.8479L155.448 72.3883H150.336L145.786 76.5231L147.994 72.3895H142.363L137.504 81.5167H143.134L143.133 81.5163ZM138.652 89.2447H106.919L103.534 95.5683H111.953L105.346 107.945C108.329 108.468 111.216 109.437 113.91 110.818C115.377 111.581 116.791 112.443 118.142 113.396L127.658 95.5683H135.27L138.652 89.2447ZM51.5484 77.2787L52.4672 81.5147H57.2388L62.1 72.3875H57.6536L55.638 76.2991L54.7784 72.3875H49.77L44.9092 81.5159H49.3552L51.5484 77.2783V77.2787ZM195.444 93.7723L195.382 93.5131C191.75 81.1695 177.022 67.4439 154.972 55.8563C136.053 45.9163 113.756 42.3999 100.294 42.3999H99.6712C86.2036 42.3999 63.8988 45.9183 44.982 55.8575C22.9336 67.4451 8.20317 81.1707 4.57237 93.5143L4.51117 93.7715C4.15228 95.7081 3.98162 97.6748 4.00157 99.6443C3.98204 101.614 4.1527 103.58 4.51117 105.517L4.57237 105.774C8.20397 118.118 22.932 131.843 44.982 143.431C63.9004 153.373 86.2032 156.888 99.666 156.888H100.28C113.748 156.888 136.054 153.371 154.969 143.431C177.018 131.844 191.748 118.118 195.379 105.774L195.442 105.515C195.8 103.579 195.972 101.613 195.954 99.6447C195.973 97.6755 195.802 95.7091 195.444 93.7727L195.444 93.7723ZM190.766 99.6703C190.784 101.268 190.651 102.864 190.369 104.437C187.107 115.254 172.989 128.103 152.56 138.839C134.48 148.34 113.161 151.701 100.282 151.701H99.892C87.0336 151.744 65.5816 148.395 47.396 138.839C26.9664 128.104 12.8488 115.254 9.58797 104.437C9.30572 102.864 9.1726 101.269 9.19037 99.6711V99.6171C9.17273 98.0198 9.30599 96.4245 9.58837 94.8523C12.8488 84.0347 26.968 71.1859 47.3964 60.4495C65.4788 50.9483 86.7948 47.5871 99.6756 47.5871H100.294C113.168 47.5871 134.48 50.9483 152.562 60.4495C172.991 71.1847 187.109 84.0347 190.37 94.8519C190.652 96.4245 190.786 98.0203 190.768 99.6179L190.766 99.6703ZM107.506 119.468L107.873 119.776C108.002 120.35 108.09 120.933 108.137 121.519C109.249 121.537 110.36 121.557 111.472 121.594C115.06 121.688 118.651 121.828 122.24 122.078L122.889 121.297L122.846 121.028C122.032 118.273 118.6 114.982 113.205 112.154C109.117 110.107 104.623 109.005 100.052 108.929H99.9088C95.3261 109.009 90.8205 110.121 86.7268 112.182C81.3384 115.021 77.9128 118.32 77.1048 121.076L77.0712 121.292L77.7248 122.078C81.3132 121.828 84.898 121.688 88.4848 121.594C89.726 121.552 90.9676 121.533 92.2092 121.513C92.2568 120.929 92.3447 120.348 92.4724 119.776L92.8392 119.468C93.1944 119.454 93.5492 119.442 93.904 119.43L94.1452 119.723C93.8204 121.587 93.8204 123.493 94.1452 125.358L93.904 125.65C93.5492 125.638 93.1944 125.626 92.8392 125.612L92.4724 125.304C92.3445 124.732 92.2566 124.152 92.2092 123.567C90.9676 123.548 89.726 123.528 88.4848 123.487C84.8964 123.393 81.3112 123.252 77.7248 123.003L77.1196 123.728C77.9512 126.476 81.3664 129.754 86.726 132.577C90.8197 134.638 95.3253 135.75 99.908 135.83H100.051C104.622 135.754 109.117 134.652 113.204 132.605C118.598 129.778 122.03 126.486 122.845 123.731L122.24 123.002C118.651 123.252 115.06 123.391 111.471 123.486C110.359 123.523 109.248 123.542 108.136 123.56C108.089 124.147 108 124.729 107.872 125.304L107.506 125.612C107.15 125.626 106.796 125.638 106.441 125.65L106.2 125.357C106.524 123.493 106.524 121.587 106.2 119.723L106.441 119.43L107.505 119.469L107.506 119.468V119.468ZM97.5796 125.426L97.3068 125.731C96.9516 125.726 96.5968 125.72 96.242 125.712L95.9064 125.399C95.6764 123.5 95.6764 121.58 95.9064 119.68L96.242 119.368C96.5972 119.36 96.952 119.354 97.3068 119.348L97.5796 119.654C97.4388 121.576 97.4383 123.505 97.578 125.428L97.5796 125.426ZM101.01 125.44L100.708 125.752H99.6428L99.34 125.44C99.2952 123.507 99.2952 121.573 99.34 119.64L99.6428 119.328H100.708L101.01 119.64C101.054 121.575 101.054 123.509 101.009 125.442L101.01 125.44ZM104.442 125.399L104.106 125.712C103.751 125.719 103.396 125.726 103.041 125.731L102.768 125.426C102.908 123.504 102.908 121.575 102.768 119.654L103.041 119.348C103.396 119.354 103.751 119.36 104.106 119.368L104.442 119.68C104.671 121.58 104.67 123.501 104.44 125.401L104.442 125.399ZM155.25 88.6003C146.066 88.6003 142.28 90.0507 139.542 92.7887C137.609 94.7199 136.562 97.0563 136.562 98.9491C136.562 101.769 138.051 102.776 143.288 104.104C148.884 105.514 149.972 105.794 149.972 107.004C149.972 108.331 148.724 109.096 146.588 109.096C144.657 109.096 143.731 108.491 143.731 107.526C143.733 106.809 143.912 106.104 144.252 105.473H131.811C131.234 106.579 130.929 107.808 130.924 109.056C130.924 112.883 134.146 114.695 145.26 114.695C154.642 114.695 158.43 113.122 160.967 110.589C162.98 108.574 164.026 106.2 164.026 103.865C164.026 101.004 162.136 99.8367 156.858 98.5883C151.58 97.3399 150.576 97.0175 150.576 96.1315C150.576 95.1255 151.705 94.1983 153.92 94.1983C155.692 94.1983 156.698 94.8435 156.698 95.7295C156.691 96.3828 156.51 97.0224 156.173 97.5819H168.378C168.882 96.485 169.129 95.2876 169.102 94.0807C169.102 90.2131 165.397 88.6007 155.249 88.6007L155.25 88.6003ZM72.3084 89.2447H57.004L48.7032 105.07C47.5752 107.162 46.7288 108.29 45.038 108.29C43.9112 108.29 43.4676 107.646 43.4676 106.761C43.5464 105.967 43.793 105.199 44.1912 104.508L47.4336 98.3087H34.382L32.7952 101.325C31.426 103.822 30.8604 105.473 30.8604 107.766C30.8604 112.276 35.0484 114.694 45.1176 114.694C52.3668 114.694 57.24 113.202 60.1784 110.262C62.1516 108.289 63.4008 106.196 65.374 102.492L72.3072 89.2451L72.3084 89.2447ZM77.1072 123.685L77.114 123.704L77.1024 123.652L77.1072 123.685ZM86.0236 110.846C88.797 109.419 91.7738 108.427 94.8492 107.907L94.9228 107.769H79.2956L81.0284 104.629H96.244L99.4656 98.5475H84.2092L85.8992 95.5287H101.003L104.347 89.2467H74.8272L61.618 114.052H80.962C82.5548 112.842 84.2476 111.769 86.022 110.846L86.0236 110.846Z" fill="white"/>
</svg>
