<svg width="200" height="200" viewBox="0 0 200 200" fill="none" xmlns="http://www.w3.org/2000/svg">
<path d="M72.8367 34.0839C66.5595 34.2131 60.521 36.1574 55.9611 39.6442V35.2026H15.1649L15.1562 58.5344H24.6482C26.6032 58.5344 28.1835 60.1219 28.1835 62.0714V128.256H55.9745V66.4139L55.9763 65.7632H55.9798C55.9825 62.0599 59.1195 59.0546 62.9928 59.0546C66.8077 59.0546 69.9064 61.9815 69.9902 65.6206V116.062C69.9902 117.537 70.2708 118.938 70.7539 120.239C72.4547 124.814 76.839 128.077 81.9999 128.077H108.073V105.698L107.526 105.695H101.486H101.484C99.5354 105.694 97.9522 104.116 97.9522 102.165V101.676C97.9495 101.626 97.947 101.581 97.947 101.528C97.9497 100.707 97.9494 99.8629 97.9522 99.0139V82.0457C97.9495 79.993 97.947 78.7227 97.947 78.7227L97.9522 73.3851V53.219C97.913 52.6329 97.8168 51.7386 97.5817 50.6607C97.1773 48.8231 96.3747 46.451 94.7686 44.1056C91.4176 39.2181 87.1588 36.5542 81.4285 35.0599C78.5923 34.3437 75.6902 34.0272 72.8371 34.086L72.8367 34.0839ZM102.884 35.2043V58.4684H110.135C112.085 58.4684 113.662 60.0514 113.662 62.0037V107.493C114.128 114.983 118.578 121.835 124.233 125.046C129.924 129.548 143.731 131.608 151.187 128.978C151.187 128.978 154.63 127.894 156.568 126.601V132.374C156.568 133.751 156.462 134.61 156.088 135.683C155.141 137.724 153.064 138.796 149.766 138.877L28.1673 138.872V165.923H159.965C163.975 165.717 167.75 165.263 170.926 164.366C175.266 163.04 185.2 158.385 185.2 143.67C185.2 143.455 185.197 138.043 185.191 137.825H185.19L185.12 35.2084H156.663V94.944C156.663 95.6646 156.65 96.3819 156.614 97.0857C156.603 97.365 156.586 97.6384 156.564 97.9121C156.287 100.085 154.971 101.94 153.1 103.015C152.008 103.64 150.743 104.007 149.385 104.007C145.467 104.007 142.146 101.015 142.16 97.3032L142.197 35.207H102.886L102.884 35.2043Z" fill="#A71930"/>
<path d="M72.9986 37.9981C67.5438 38.0874 62.3032 39.7412 58.3482 42.7633L52.0415 47.593V39.1307H19.0867C19.0867 43.4651 19.085 50.2795 19.085 54.6113H24.6505C28.7641 54.6113 32.1072 57.9559 32.1072 62.0697V124.328H52.0505V66.3899C52.0505 66.3899 52.0536 65.7367 52.0592 65.7618C52.0648 59.8999 56.9662 55.1296 62.9952 55.1296C68.8878 55.1296 73.7877 59.796 73.9195 65.6184V116.06C73.9195 117.004 74.0927 117.953 74.4362 118.87C75.6092 122.028 78.6513 124.148 82.0025 124.148H104.148V109.622H101.486C97.3751 109.622 94.0292 106.275 94.0292 102.164H94.031V101.772C94.0282 101.689 94.0258 101.605 94.0258 101.605L94.031 99.0132V82.0539C94.031 82.0539 94.0258 78.7358 94.0258 78.7135L94.031 73.3846V53.4261C94.0031 53.2502 93.7527 51.5019 93.7527 51.5019C93.3322 49.6072 92.5849 47.8658 91.5293 46.3274C88.8517 42.4202 85.5318 40.1865 80.4678 38.8654C78.0012 38.2413 75.4768 37.9583 72.9978 37.9989L72.9986 37.9981ZM160.582 39.1289V94.9407L160.532 97.2807L160.466 98.2863L160.448 98.3977C160.035 101.713 158.01 104.709 155.05 106.418C153.327 107.407 151.367 107.93 149.382 107.93C146.349 107.93 143.397 106.721 141.288 104.598C139.316 102.618 138.228 100.036 138.228 97.333C138.228 97.3219 138.263 46.0214 138.266 39.1322H106.81V54.5451H110.133C114.244 54.5451 117.586 57.8924 117.586 62.0035V91.9083V107.319C117.969 113.184 121.409 118.931 126.168 121.634V121.632L126.428 121.784L126.666 121.965C131.366 125.682 143.732 127.451 149.877 125.275L150.002 125.239C151.133 124.879 153.324 124.049 154.383 123.334L160.491 119.247V132.373C160.491 133.979 160.374 135.318 159.79 136.982L159.731 137.159L159.645 137.335C158.528 139.745 155.924 142.652 149.763 142.803H32.0931V161.998C39.4633 162.012 159.571 161.998 159.829 161.998C163.515 161.806 166.977 161.401 169.77 160.619C174.062 159.301 181.268 155.346 181.268 143.67C181.268 143.67 181.2 46.3896 181.195 39.1299H160.582L160.582 39.1289Z" fill="#0B2265"/>
</svg>
