<svg width="200" height="200" viewBox="0 0 200 200" fill="none" xmlns="http://www.w3.org/2000/svg">
<g clip-path="url(#clip0_106_4293)">
<path d="M193.388 64.8742C169.296 70.555 168.244 56.6242 132.012 54.0698C83.2419 50.631 42.2594 71.8458 9.50825 74.5642C2.39305 75.155 3.31585 81.0674 8.42905 82.071C20.7731 84.9474 33.5106 84.5818 45.169 83.021C44.7774 83.959 44.3843 85.4042 45.6867 86.5118C50.3039 90.4306 68.8654 90.7662 77.0142 90.2978C79.781 90.1402 85.6874 89.583 85.6874 89.583C84.003 89.7426 81.371 94.8678 86.9363 96.311C121.33 105.925 137.511 121.451 156.088 145.903C163.637 144.939 170.745 135.87 167.715 128.947L169.221 125.232L174.781 122.661L173.187 110.26L181.664 106.274C181.664 106.274 194.865 70.8502 195.638 68.2706C196.411 65.691 194.811 64.5382 193.387 64.8738" fill="#FFFFFE"/>
<path d="M97.9548 69.7498C74.1084 71.1562 45.4972 84.6122 9.06641 78.6142C41.3556 74.2626 65.9716 63.599 95.9964 59.353L97.9544 69.7498H97.9548ZM100.525 83.6622C87.3352 85.2146 72.0328 88.8966 49.9564 84.743C68.9852 84.2262 83.2272 77.8674 98.9044 74.7426L100.525 83.6626V83.6622Z" fill="#C60C30"/>
<path d="M101.933 83.5146C111.599 82.4774 120.125 82.8062 129.418 88.4638C110.036 86.3642 100.546 91.7698 88.4658 92.9714C131.144 104.153 146.769 128.048 157.352 141.289C164.75 138.151 165.15 131.733 163.265 129.443L165.17 125.366L165.257 122.748L170.357 120.367L168.743 107.681L178.292 103.776L190.944 69.1974C169.508 73.6382 162.563 59.7978 132.065 57.9098C119.642 57.1394 108.455 57.7102 97.951 59.0862L99.6638 69.671C106.683 69.4294 113.291 70.3206 119.56 73.1686C112.667 72.7422 106.465 73.313 100.414 74.4338L101.933 83.5146Z" fill="#002244"/>
<path d="M134.857 112.693C146.393 120.758 152.318 129.695 158.331 137.517C161.388 136.248 162.348 132.705 161.341 131.453L158.43 127.875L161.741 128.07L163.261 125.434L159.144 125.191L154.507 126.026L159.21 122.811L162.79 123.02L162.923 120.985L159.265 119.236L160.523 117.863L167.288 118.284L165.343 103.241C162.669 102.915 160.42 104.315 159.449 108.176L147.456 107.471C149.143 103.652 151.772 101.933 156.761 102.568C153.962 98.6541 140.324 98.2917 138.398 104.432L148.985 113.095L150.355 121.013L146.005 114.71C142.094 111.328 137.986 108.959 134.858 112.693" fill="#B0B7BC"/>
<path d="M170.344 73.8965L171.196 81.4521L179.714 84.6441L171.724 86.6429L172.512 96.8297L165.602 88.2221L155.27 90.6521L161.654 83.2277L156.389 76.2629L165.208 79.2853L170.344 73.8965Z" fill="#FFFFFE"/>
</g>
<defs>
<clipPath id="clip0_106_4293">
<rect width="200" height="200" fill="white"/>
</clipPath>
</defs>
</svg>
