<svg width="200" height="200" viewBox="0 0 200 200" fill="none" xmlns="http://www.w3.org/2000/svg">
<g clip-path="url(#clip0_106_4509)">
<path fill-rule="evenodd" clip-rule="evenodd" d="M115.678 43.5653L106.334 53.3593C121.641 46.9993 155.019 36.0801 155.019 36.0801L144.324 46.5417C173.515 37.8989 195.698 33.8037 195.698 33.8037C195.698 33.8037 189.27 48.7629 179.667 63.7429C181.524 63.5429 193.649 62.1297 193.649 62.1297C193.649 62.1297 182.73 80.2169 170.122 93.2537L177.179 95.0097C177.179 95.0097 166.184 110.855 151.672 123.788C130.804 142.385 120.066 139.528 120.066 139.528C104.575 150.748 92.1592 145.062 92.1592 145.062C92.1592 145.062 97.5232 131.524 91.9812 130.087C86.9856 128.789 79.3856 132.695 78.4368 134.261C77.4504 137.677 73.2972 146.352 69.0068 151.603C60.7792 161.669 51.6564 165.783 51.6564 165.783C51.6564 165.783 44.4704 159.651 44.4236 149.212C44.4236 149.212 39.4876 154.44 31.4528 156.149C25.8284 157.345 18.1524 156.374 10.2888 149.809C5.0088 145.402 4 130.591 4 130.591C4 130.591 8.9616 121.113 18.5308 112.806C16.4128 110.989 15.1148 108.703 14.7072 107.292C40.1424 96.1897 40.1604 85.5925 60.3816 72.7093C80.304 60.0165 92.8236 54.1805 115.678 43.5653Z" fill="white"/>
<path fill-rule="evenodd" clip-rule="evenodd" d="M103.288 52.5556L95.2969 60.9316C111.079 53.946 144.406 42.6 144.406 42.6L134.734 52.0624C168.906 41.4828 190.579 37.8984 190.579 37.8984C190.579 37.8984 183.496 53.684 174.071 67.0928C178.635 66.6548 188.154 65.5488 188.154 65.5488C188.154 65.5488 178.635 81.4972 164.566 95.0064C166.13 95.236 172.514 96.6924 172.514 96.6924C172.514 96.6924 164.03 109.282 149.284 122.194C130.461 138.674 122.111 136.723 122.111 136.723C122.111 136.723 122.292 136.08 122.274 135.079C122.261 134.526 122.143 134.025 122.138 133.984C107.648 147.621 95.5765 143.02 95.5765 143.02C95.5765 143.02 100.936 130.044 92.7149 127.426C86.3469 125.398 76.5917 130.61 75.8141 133.402C74.9685 136.438 70.9237 144.865 66.9129 149.802C59.9545 158.369 52.2529 162.278 52.2529 162.278C52.2529 162.278 45.2509 156.891 47.6793 141.125C48.2093 137.69 47.5289 136.348 47.1537 135.771C46.0041 134.012 37.0461 135.931 34.8605 140.928C33.3181 144.457 42.2197 147.44 42.2197 147.44C42.2197 147.44 38.1117 151.972 30.9317 153.44C26.4165 154.363 19.4245 154.069 12.0829 147.712C7.73887 143.952 6.83887 131.227 6.83887 131.227C6.83887 131.227 12.2045 121.397 22.6561 112.908C20.5933 111.558 19.0269 109.271 18.6305 108.372C39.6913 99.3008 42.5785 86.474 66.3533 72.1404C77.4341 65.4604 89.1049 58.8868 103.288 52.556" fill="#004C54"/>
<path fill-rule="evenodd" clip-rule="evenodd" d="M182.896 43.5122C182.896 43.5122 178.438 56.6202 168.966 69.927C174.687 69.5246 180.854 69.1882 180.854 69.1882C180.854 69.1882 174.223 82.5274 159.249 96.8138C160.093 96.9886 163.553 97.6142 165.48 98.413C158.245 110.147 136.622 133.188 124.538 134.135C124.402 132.114 123.618 130.391 122.67 129.203C118.136 137.491 104.289 142.579 98.5396 141.248C105.52 115.676 75.9048 125.419 73.6332 132.439C67.7372 150.667 52.77 159.244 52.77 159.244C52.77 159.244 47.986 153.794 50.038 141.52C51.5508 132.472 45.826 132.753 45.826 132.753C43.5436 132.648 34.8812 133.692 32.1492 139.737C29.9456 144.605 37.6588 148.022 37.6588 148.022C37.6588 148.022 26.5216 156.914 13.6368 145.893C10.476 143.19 9.30078 131.776 9.30078 131.776C15.4976 121.504 23.6648 114.971 27.0488 112.543C23.4608 111.167 22.344 109.305 22.344 109.305C39.644 101.371 46.4292 88.1858 61.1572 78.387C77.3872 67.5894 89.8112 62.2866 89.8112 62.2866L85.1232 68.1874C85.1232 68.1874 89.0484 66.5094 90.7604 65.6702C106.216 58.0846 132.403 49.8186 132.403 49.8186L124.237 57.729C124.237 57.729 137.775 53.0926 154.833 49.4486C163.917 47.507 182.896 43.5122 182.896 43.5122ZM58.5688 103.195C58.3008 103.53 58 103.911 57.6716 104.315C58.6416 104.327 59.4984 104.707 59.9432 105.449C60.7304 106.761 59.948 108.673 58.194 109.72C56.44 110.766 54.38 110.551 53.5912 109.237C53.47 109.036 53.3972 108.818 53.3488 108.593C53.0163 108.829 52.6714 109.047 52.3156 109.246C52.39 109.502 52.4952 109.752 52.634 109.985C53.75 111.839 56.5932 112.187 58.9892 110.756C61.3852 109.329 62.4232 106.668 61.3092 104.81C60.7452 103.872 59.736 103.326 58.5688 103.195Z" fill="black"/>
<path fill-rule="evenodd" clip-rule="evenodd" d="M122.355 55.9912C122.355 55.9912 118.414 58.812 115.69 60.6192C113.338 62.1846 111.015 63.7924 108.722 65.442C108.722 65.442 108.866 65.3776 109.133 65.2644C140.16 55.54 165.789 58.5808 165.789 58.5808C149.016 60.1976 135.452 63.3856 128.255 66.674C128.255 66.674 138.192 64.9668 143.244 64.9668C148.187 64.9668 152.228 65.4468 152.228 65.4468C120.614 70.3796 103.61 79.5168 99.4645 81.9776C97.7397 82.7116 96.8357 83.1688 96.8357 83.1688C96.8357 83.1688 101.992 81.554 108.526 79.934C120.025 78.17 136.854 79.1192 153.09 83.9384C153.09 83.9384 141.833 83.342 136.913 83.452C122.223 83.7784 107.083 89.686 107.083 89.686C116.645 87.2752 127.128 89.0504 127.128 89.0504C123.052 89.2848 113.03 91.9624 108.001 94.0332C100.755 97.0172 93.4313 101.268 88.0945 105.193C85.9361 106.473 84.7821 107.317 84.7821 107.317L84.7877 107.314C84.9293 107.238 87.6437 105.798 92.1297 104.068C99.9869 101.424 113.294 99.0656 128.075 104.031C105.294 99.4924 87.2973 110.163 87.2973 110.163C100.344 105.9 108.618 109.919 108.618 109.919C92.8037 107.996 81.0117 116.319 76.9525 121.51C79.2401 116.891 82.6157 113.913 82.6157 113.913C81.7869 114.325 80.9816 114.783 80.2037 115.284C76.9457 117.16 63.6049 123.935 52.0197 116.738C51.3858 116.346 50.7692 115.928 50.1717 115.483C54.0245 117.501 60.3813 117.672 63.0197 115.076C53.7821 117.459 52.1413 113.241 51.9437 110.617C51.3477 110.73 50.3885 110.657 49.6725 110.491C49.6725 110.491 51.1841 109.849 51.9341 109.461C52.0637 109.395 52.1881 109.319 52.3157 109.246C52.3901 109.502 52.4953 109.752 52.6341 109.985C53.7501 111.839 56.5933 112.187 58.9893 110.756C61.3853 109.328 62.4233 106.668 61.3093 104.81C60.7453 103.872 59.7365 103.326 58.5693 103.195C59.4001 102.23 60.9989 100.096 63.4677 98.3204C61.6505 100.5 61.0701 101.974 61.0005 102.16C62.1145 102.335 63.0909 102.812 63.5613 103.696C64.4877 105.429 63.8573 106.79 63.5213 107.487C63.5193 107.486 63.5177 107.486 63.5161 107.486C62.8985 108.792 61.7505 110.08 60.2053 111.055C58.1133 112.376 55.8209 112.79 54.1345 112.314C54.1345 112.314 54.4369 112.866 54.9265 113.19C55.7417 113.736 58.1489 114.529 61.6293 112.956C62.9197 112.372 63.8881 111.71 64.6269 111.037C67.2441 109.073 67.5289 106.561 68.4629 104.356C70.6669 99.1484 75.2177 94.6396 80.5205 92.7672C75.4797 93.3816 69.3153 97.926 69.4945 95.8972C69.5785 94.9532 72.2817 85.956 88.8397 79.0724C89.1421 78.9624 89.4413 78.8524 89.7517 78.7444C89.7517 78.7444 81.7117 79.9888 69.5965 87.2124C64.8321 90.0544 60.5513 93.9828 58.3845 96.9672C58.4805 95.0064 59.5389 93.1052 60.1825 91.6064C55.6737 94.51 56.7973 98.5516 53.4005 102.492C51.9133 104.078 50.3465 105.596 48.6845 106.676C39.0833 112.929 29.6045 109.038 29.6045 109.038C42.4717 102.082 42.0869 100.516 50.5649 91.5256C60.0693 81.4504 65.9089 76.2608 81.9041 68.4168C80.8581 69.7648 76.5353 73.558 75.6025 74.636C75.6025 74.636 78.8117 72.9192 84.8885 70.0352C106.442 59.8016 122.355 55.9912 122.355 55.9912ZM55.2741 106.973C55.2289 107.715 55.3989 108.658 56.3121 109.348C56.3121 109.348 55.2709 109.434 54.5937 108.934C54.2089 108.65 54.0441 108.313 53.9761 108.119C54.4272 107.759 54.8604 107.376 55.2741 106.973Z" fill="white"/>
<path fill-rule="evenodd" clip-rule="evenodd" d="M43.6624 113.747C43.6624 113.747 55.3816 128.552 74.056 121.193C73.1976 122.71 72.8192 124.384 72.26 126.36C67.9464 146.423 53.4124 155.116 53.4124 155.116C50.766 149.108 52.2468 143.303 52.698 141.128C53.7228 136.175 51.3448 132.487 51.3448 132.487C60.906 132.942 51.5324 144.852 55.0844 150.038C61.5088 146.297 65.3844 133.137 66.3412 128.438C66.4076 128.262 65.434 127.57 64.6468 127.28C55.4156 124.312 39.9376 126.853 34.3424 130.238C16.8176 140.844 33.212 148.119 33.212 148.119C33.212 148.119 22.4208 151.726 16.2436 141.969C14.7288 139.382 14.3472 134.665 14.0156 130.979C20.4404 120.104 30.5396 115.781 33.3448 113.847C35.778 114.507 40.1864 114.811 43.6624 113.747V113.747ZM80.652 123.588C80.652 123.588 88.7628 115.676 106.784 118.859C113.695 120.079 117.517 123.727 117.517 123.727C114.436 129.086 108.342 131.707 108.342 131.707C108.342 131.707 108.73 123.179 95.194 121.003C86.318 119.576 80.9788 123.349 80.6664 123.577L80.652 123.588ZM92.1304 104.068C103.96 99.4993 128.11 92.8965 149.993 103.866C148.692 106.658 145.398 110.806 140.144 115.978C135.14 120.901 131.817 122.318 130.95 122.789C130.813 122.863 130.74 122.899 130.74 122.899C128.954 116.14 114.086 109.705 92.6932 115.013C83.8584 117.203 79.9192 119.929 76.324 123.276L76.0848 123.5C76.3426 122.823 76.6322 122.159 76.9528 121.51C81.0128 116.319 92.8048 107.996 108.619 109.918C108.619 109.918 100.345 105.9 87.298 110.162C87.298 110.162 105.295 99.4925 128.076 104.03C113.294 99.0657 99.9876 101.424 92.1304 104.068ZM39.2552 116.74C36.9288 117.946 35.1892 118.884 35.1892 118.884C33.8152 120.943 36.7076 120.532 38.046 120.135C39.1308 119.812 44.0164 118.392 44.0164 118.392C41.2956 118.132 40.2564 117.559 39.2552 116.74ZM88.8404 79.0721C72.2824 85.9561 69.5792 94.9525 69.4952 95.8969C69.316 97.9257 75.4804 93.3809 80.5212 92.7669C75.2184 94.6389 70.6672 99.1481 68.464 104.355C67.5296 106.56 67.2448 109.073 64.6276 111.037C66.834 109.031 66.9168 106.958 66.9196 106.766V106.751C66.9196 106.751 65.7024 107.485 64.6632 107.598C64.3204 107.636 63.9128 107.577 63.5216 107.486C64.0504 106.452 64.0408 105.716 64.0504 105.514C65.6588 101.844 69.6744 98.4445 69.6744 98.4445C69.6744 98.4445 66.7048 100.212 66.2604 98.5013C65.0804 93.9469 73.0584 84.9517 88.2324 79.2901C88.2648 79.2773 88.6708 79.1317 88.8404 79.0721ZM120.917 77.3713C139.866 74.4565 166.037 77.2661 166.037 77.2661C166.037 77.2661 164.826 81.1157 159.137 87.3541C153.773 93.2405 151.758 94.7909 151.758 94.7909C120.93 88.2225 96.6376 100.128 88.0952 105.193C93.432 101.267 100.755 97.0169 108.001 94.0329C113.031 91.9617 123.053 89.2849 127.128 89.0501C127.128 89.0501 116.646 87.2749 107.083 89.6857C107.083 89.6857 122.223 83.7781 136.914 83.4517C141.834 83.3417 153.09 83.9381 153.09 83.9381C136.854 79.1189 120.026 78.1701 108.526 79.9337C112.433 78.9685 116.83 77.9985 120.917 77.3713ZM169.497 52.6685C169.497 52.6685 166.279 62.6597 158.086 70.5749C152.339 71.1469 138.067 71.7517 125.783 74.1849C112.761 76.7649 103.666 80.1969 99.4652 81.9769C103.61 79.5169 120.615 70.3793 152.229 65.4465C152.229 65.4465 148.187 64.9665 143.245 64.9665C138.193 64.9665 128.255 66.6737 128.255 66.6737C135.452 63.3857 149.016 60.1973 165.79 58.5805C165.79 58.5805 140.16 55.5397 109.133 65.2641C111.304 64.3441 122.189 59.9517 139.032 56.8249C155.228 53.8197 169.496 52.6685 169.496 52.6685H169.497Z" fill="#A5ACAF"/>
</g>
<defs>
<clipPath id="clip0_106_4509">
<rect width="200" height="200" fill="white"/>
</clipPath>
</defs>
</svg>
