<svg width="200" height="200" viewBox="0 0 200 200" fill="none" xmlns="http://www.w3.org/2000/svg">
<g clip-path="url(#clip0_106_4405)">
<path d="M24 100.074C24 141.941 58.06 176 99.9264 176C141.791 176 175.853 141.94 175.853 100.074C175.853 58.2089 141.791 24.1489 99.9264 24.1489C58.0596 24.1489 24 58.2089 24 100.074Z" fill="black"/>
<path d="M99.9262 174.335C140.937 174.335 174.186 141.086 174.186 100.074C174.186 59.0628 140.937 25.814 99.9262 25.814C58.9134 25.814 25.665 59.0628 25.665 100.074C25.665 141.086 58.9138 174.335 99.9262 174.335Z" fill="#A5ACAF"/>
<path d="M99.9267 162.204C134.139 162.204 161.874 134.468 161.874 100.256C161.874 66.0443 134.139 38.3071 99.9267 38.3071C65.7131 38.3071 37.9775 66.0447 37.9775 100.256C37.9775 134.468 65.7131 162.204 99.9267 162.204Z" fill="#FFFFFE"/>
<path d="M100.247 100.34C100.963 74.9664 124.931 69.0092 130.953 69.5556C116.108 68.7496 101.458 62.4764 100.326 39.002C98.5376 60.832 89.778 67.0384 69.5908 69.6292C84.0104 70.36 98.6056 76.066 100.247 100.34" fill="#FFB612"/>
<path d="M131.039 131.746C131.754 106.372 155.301 100.111 161.324 100.657C146.43 100.107 132.084 93.028 130.954 69.5552C129.166 91.3868 120.435 97.7488 100.248 100.34C114.668 101.07 129.396 107.472 131.039 131.746" fill="#C60C30"/>
<path d="M100.62 161.946C101.334 136.569 125.016 131.199 131.039 131.746C116.194 130.938 101.38 123.816 100.248 100.34C98.46 122.171 89.96 128.73 69.7744 131.319C84.192 132.053 98.9772 137.673 100.62 161.946" fill="#00539B"/>
<path d="M82.9882 94.9155L85.4066 94.8899L85.417 96.0563C85.7806 95.4159 85.9994 95.0331 86.8226 94.8487H87.4238V97.6787C85.3418 97.5319 85.4802 98.2611 85.453 98.8211V104.206H82.9886V94.9151L82.9882 94.9155ZM93.8842 97.9451L91.7254 97.9347C91.7254 97.7111 91.7306 97.5147 91.6894 97.3439C91.6298 97.1047 91.3102 96.8775 90.9858 96.8743C90.6034 96.8743 90.3078 96.9971 90.1798 97.3679C90.0262 97.8155 90.0978 98.4747 91.2626 98.6063L91.8554 98.7531C92.5162 98.9751 93.155 99.1595 93.6522 100.108C93.7358 100.27 93.7494 100.323 93.8826 100.787C94.1642 101.75 93.9782 102.485 93.6638 103.059C93.4726 103.402 93.003 103.829 92.8354 103.933C91.9218 104.497 90.6886 104.556 89.5682 104.217C89.0182 104.05 88.419 103.629 88.1218 103.052C87.8142 102.456 87.8074 101.968 87.7682 101.161L89.8554 101.148C89.8126 101.474 90.0142 101.851 90.337 101.974C90.6634 102.102 91.4778 102.108 91.6214 101.742C91.7222 101.484 91.787 101.344 91.5634 101.008C91.1554 100.391 90.2826 100.29 89.5158 100.097C88.1442 99.7503 87.8114 98.4215 87.871 97.4139C87.9002 96.9375 87.9854 96.3875 88.2862 96.0167C88.9198 95.2327 89.1966 95.2719 89.5758 95.0895C90.8378 94.4763 92.4074 94.9119 93.2442 95.7607C93.7138 96.2339 93.867 97.1047 93.8842 97.9451ZM53.8518 94.9699H52.1406L51.2098 94.9767C51.1874 94.5687 51.1262 94.0391 50.8562 93.7915C50.4566 93.4279 49.5514 93.6291 49.3122 94.1347C48.8786 95.0431 49.4334 95.8971 50.8306 96.3431L51.215 96.5343C52.535 97.1783 52.9006 97.4943 53.3942 98.1911C53.5426 98.4011 53.833 98.9495 53.951 99.6187C54.2022 101.05 53.8418 101.938 53.519 102.722C53.519 102.722 53.3962 103.093 53.0562 103.408C51.6694 104.703 49.7482 104.759 48.3238 104.083C47.6678 103.769 47.1626 103.465 46.8022 102.656C46.447 101.862 46.3666 101.141 46.469 99.9691L49.1282 99.9539C49.0786 100.326 49.1878 101.267 49.4374 101.529C49.685 101.788 50.6926 102.041 51.0802 101.354C51.217 101.114 51.251 100.067 50.8274 99.6635C50.0298 98.8967 49.3414 98.8199 48.4022 98.2323C47.0614 97.3955 46.3494 95.8943 46.4346 94.4699C46.4754 93.7951 46.6602 93.3255 46.9878 92.7347C47.3158 92.1507 47.7802 91.6179 48.4514 91.3239C50.2378 90.5399 52.4206 90.9875 53.3822 92.6851C53.635 93.1291 53.8878 93.7915 53.8518 94.9699ZM55.2094 94.9219V94.0647L57.6994 92.6983L57.7098 94.9527L58.6578 94.9323L58.6682 97.1303L57.7102 97.1151V100.774C57.7102 101.274 57.6198 101.474 58.6238 101.458L58.6222 104.242C57.437 104.213 55.193 104.616 55.1826 101.998L55.1638 97.0675L54.2346 97.0983L54.2242 94.9531L55.2098 94.9223L55.2094 94.9219ZM72.8038 91.1935L75.3126 91.2003V104.286H72.8038V91.1935ZM78.1066 101.578C78.1102 102.411 79.9306 102.582 79.975 101.532V101.267L82.0246 101.256L82.0282 102.351C82.0486 103.079 81.7466 103.87 80.5166 104.293C79.2118 104.7 78.397 104.456 77.6338 104.293C76.6314 103.926 76.1446 103.128 76.0986 102.005V97.4719C76.0526 96.6215 76.5254 95.8803 77.347 95.3403C78.7474 94.7287 79.5126 94.8927 80.5646 95.2567C81.567 95.8031 82.0198 96.4795 82.0298 97.4239V100.3H78.0982L78.1066 101.578ZM78.1954 98.3583L80.0502 98.3651C80.4326 96.7411 77.8846 96.5307 78.1954 98.3583ZM68.1242 101.578C68.1294 102.411 69.9498 102.582 69.9962 101.532V101.267L72.0438 101.256L72.049 102.351C72.0662 103.079 71.7654 103.87 70.5358 104.293C69.231 104.7 68.4162 104.456 67.653 104.293C66.6506 103.926 66.1638 103.128 66.1178 102.005V97.4719C66.0718 96.6215 66.5466 95.8803 67.3662 95.3403C68.7666 94.7287 69.5334 94.8927 70.5822 95.2567C71.5866 95.8031 72.0374 96.4795 72.0494 97.4239V100.3H68.1282L68.1246 101.578H68.1242ZM68.2146 98.3583L70.0694 98.3651C70.4518 96.7411 67.9038 96.5307 68.2146 98.3583ZM61.3266 101.578C61.3318 102.411 63.1522 102.582 63.1986 101.532V101.267L65.2462 101.256L65.2514 102.351C65.2702 103.079 64.9678 103.87 63.7382 104.293C62.4334 104.7 61.617 104.456 60.8554 104.293C59.853 103.926 59.3662 103.128 59.3202 102.005V97.4719C59.2742 96.6215 59.749 95.8803 60.5686 95.3403C61.9674 94.7287 62.7358 94.8927 63.7846 95.2567C64.789 95.8031 65.2398 96.4795 65.2518 97.4239V100.3H61.3306L61.327 101.578H61.3266ZM61.417 98.3583L63.2718 98.3651C63.6542 96.7411 61.1062 96.5307 61.417 98.3583Z" fill="black"/>
</g>
<defs>
<clipPath id="clip0_106_4405">
<rect width="200" height="200" fill="white"/>
</clipPath>
</defs>
</svg>
