<svg width="200" height="200" viewBox="0 0 200 200" fill="none" xmlns="http://www.w3.org/2000/svg">
<g clip-path="url(#clip0_106_4611)">
<path d="M100.41 156.931C133.105 156.931 165.319 145.847 182.477 128.687C191.192 119.974 195.797 109.912 195.797 99.5827C195.797 89.3295 191.252 79.3671 182.656 70.7707C165.63 53.7471 133.346 42.7471 100.41 42.7471C77.3464 42.7471 53.8112 48.1751 35.8384 57.6399C15.3064 68.4507 4 83.3471 4 99.5823C4 109.763 8.5612 119.705 17.1928 128.334C25.8192 136.957 38.3528 144.215 53.4424 149.317C68.1688 154.299 84.4116 156.93 100.41 156.93" fill="#FFFFFE"/>
<path d="M37.2621 60.3441C17.7837 70.6009 7.05566 84.5369 7.05566 99.5829C7.05566 108.936 11.3089 118.129 19.3553 126.177C27.6497 134.468 39.7753 141.471 54.4209 146.423C68.8373 151.299 84.7409 153.877 100.41 153.877C132.335 153.877 163.701 143.14 180.318 126.526C188.445 118.401 192.741 109.084 192.741 99.5829C192.741 90.1573 188.507 80.9417 180.495 72.9309C164.015 56.4513 132.578 45.8037 100.411 45.8037C77.8293 45.8037 54.8121 51.1025 37.2629 60.3437" fill="black"/>
<path d="M100.353 148.461C128.536 148.461 155.243 139.264 170.048 124.462C177.516 116.994 181.463 108.47 181.463 99.8084C181.463 91.1488 177.516 82.6248 170.048 75.1576C155.241 60.354 128.536 51.1592 100.353 51.1592C79.6596 51.1592 59.0588 56.2668 43.8352 65.1744C27.9764 74.4536 19.2412 86.7532 19.2412 99.808C19.2412 108.47 23.1896 116.993 30.6596 124.462C45.4632 139.264 72.1692 148.46 100.353 148.46" fill="#B3995D"/>
<path d="M100.5 146.733C141.81 146.733 175.3 125.334 175.3 99.549C175.3 73.7642 141.81 52.8618 100.5 52.8618C59.188 52.8618 25.6992 73.7642 25.6992 99.549C25.6992 125.334 59.188 146.733 100.5 146.733Z" fill="#AA0000"/>
<path d="M159.007 93.6835H158.801V91.9799H129.123C128.486 88.6431 126.567 85.5455 123.825 83.1275C121.125 80.0247 117.204 77.6911 112.737 76.8047L110.889 76.4227C106.605 75.5227 103.221 74.8103 89.6102 74.8807C89.6102 74.8791 86.9922 74.7911 84.4502 74.4539C83.8726 74.31 83.3074 74.1201 82.7602 73.8859C82.9478 72.7535 85.0182 71.1927 87.3574 70.8915C87.5982 70.8467 102.33 68.1363 117.492 77.9559L117.863 78.1951H127.829V62.9475H126.125V61.2439H112.45L110.145 63.0043C106.207 62.0183 86.925 57.7983 70.271 65.0883C63.2726 67.9795 58.9302 73.4367 59.2402 78.9795C59.397 81.7743 60.7342 84.2111 63.0474 86.1007C64.7478 88.2243 67.4226 89.8799 70.9062 90.8847C75.8358 92.3043 80.011 92.8895 84.0594 93.1219V100.073H85.7618V101.776H90.963C93.1162 101.776 93.6706 102.969 93.803 103.413C87.1662 102.98 77.075 101.092 69.6462 94.2183L69.3674 93.9171H69.3142C68.9004 93.5215 68.4981 93.114 68.1078 92.6951L67.6622 92.2151H60.1854V113.918H61.8894V115.618H67.9894C68.8826 115.682 71.7158 115.367 73.6726 109.652C76.8446 110.758 84.6622 113.111 94.2886 113.373V126.875C93.9546 131.41 83.965 132.828 80.4866 132.966L79.0478 133.022V139.736H80.7502V141.436H124.607V135.014L123.49 134.718C123.294 134.667 123.098 134.614 122.903 134.559V133.09L121.535 132.972C119.069 132.754 117.172 132.327 115.702 131.802C112.943 130.257 112.471 129.004 112.411 128.801V121.602H125.265C126.623 121.807 127.786 122.402 128.772 123.175C130.623 125.453 131.467 128.059 131.48 128.102L131.809 129.157L132.912 129.16H132.948C133.101 129.548 133.18 129.792 133.185 129.806L133.513 130.862L134.617 130.864H140.419V104.749H138.715V103.045H131.838L131.592 104.238C129.791 112.917 119.753 112.789 110.829 111.488C112.614 111.005 114.37 110.421 116.089 109.74C120.867 107.842 124.453 105.26 126.688 102.235H145.953C147.296 102.278 148.437 102.616 149.397 103.244C151.416 106.204 151.215 110.568 151.211 110.618L151.127 112.198H152.919L152.917 112.318L152.831 113.898L154.413 113.902H160.507V93.6839H159.008" fill="black"/>
<path d="M128.281 99.0308C129.684 97.334 129.749 93.4792 129.749 93.4792H157.301V110.699H152.707C152.707 110.699 153.363 99.3236 144.246 99.0308H128.281ZM95.7868 113.736C101.986 113.868 107.245 112.554 107.245 112.554C108.823 112.204 130.169 118.468 133.057 104.544H137.214V127.662H132.911C132.911 127.662 130.359 119.346 123.724 118.398H109.207V127.225C109.207 127.225 109.262 133.413 121.404 134.465V138.237H80.5448V134.465C80.5448 134.465 95.316 133.89 95.7876 126.96V113.736L95.7868 113.736ZM108.534 90.9904C106.558 90.3896 103.699 90.2608 100.41 90.1352C88.6404 89.686 81.234 91.0884 69.616 87.7396C56.43 83.9396 58.7968 71.4528 70.8724 66.462C88.838 58.5972 110.475 64.6396 110.475 64.6396L112.957 62.7432H124.626V74.9944H116.602C100.704 64.6964 85.4596 67.7012 85.4596 67.7012C80.4992 68.3432 75.6852 73.8124 84.1448 75.9272C86.8452 76.292 89.6164 76.38 89.6164 76.38C104.968 76.2992 107.095 77.2148 112.446 78.2748C126.353 81.0316 134.047 98.616 113.832 106.644C92.9624 114.931 71.0176 106.001 71.0176 106.001C69.1948 112.857 66.3516 112.42 66.3516 112.42H61.6836V93.7152H67.0056C79.4808 107.202 100.849 104.894 100.849 104.894C100.849 104.894 107.195 104.733 111.351 100.811C114.597 96.8492 114.083 92.6156 108.534 90.9912V90.9904ZM91.1 98.5764H85.558V93.6096C89.854 93.6096 98.6184 93.6476 104.82 93.6096C111.057 93.6096 111.892 97.2168 109.262 99.6568C106.784 101.956 101.592 103.592 95.446 102.474C95.446 102.474 94.9384 98.5764 91.1 98.5764Z" fill="#FFFFFE"/>
</g>
<defs>
<clipPath id="clip0_106_4611">
<rect width="200" height="200" fill="white"/>
</clipPath>
</defs>
</svg>
