<svg width="200" height="200" viewBox="0 0 200 200" fill="none" xmlns="http://www.w3.org/2000/svg">
<g clip-path="url(#clip0_106_4633)">
<path d="M164.911 126.958C156.16 125.21 144.673 124.746 139.821 124.746L24.3596 124.771C17.176 124.771 9.74757 124.771 5.93557 118.902C2.06837 112.947 4.16957 107.089 10.6912 95.3664C11.178 94.4952 30.9528 57.3364 30.9528 57.3364C30.9528 57.3364 32.9732 59.8436 35.01 61.4408C37.0212 63.016 39.0876 63.856 44.5972 63.856C54.3832 63.856 117.513 63.718 118.157 63.714C130.972 63.714 143.915 65.0404 152.302 74.2336C156.656 74.698 170.712 76.5548 182.295 82.0908C189.073 85.326 193.545 90.162 195.235 96.068C195.746 97.8532 196 99.7304 196 101.676C196 107.282 193.9 113.49 189.782 119.942C181.084 133.579 173.062 138.345 172.702 138.601C167.759 142.078 162.972 142.24 162.972 142.24C162.972 142.24 167.283 137.339 168.738 132.439C170.194 127.538 164.911 126.958 164.911 126.958Z" fill="#FFFFFE"/>
<path d="M180.866 85.0793C194.066 91.3893 196.382 103.445 186.992 118.165C178.57 131.357 170.066 136.954 170.066 136.954C170.066 136.954 178.26 126.247 165.558 123.706C155.991 121.798 143.738 121.433 139.821 121.433C135.314 121.433 95.0433 121.525 90.0185 121.525C84.9937 121.525 83.6057 120.84 82.5033 119.324C81.4029 117.813 81.2113 115.746 83.2721 112.649C85.3405 109.554 88.4813 104.705 88.4813 104.705L74.9053 93.7881C86.2969 82.4269 95.3957 78.6169 103.338 78.6169C111.392 78.6169 114.942 79.7997 128.199 85.3597C141.458 90.9233 145.84 85.0077 145.84 85.0077C140.273 87.3733 135.301 85.3597 125.946 81.2217C116.595 77.0785 111.032 75.1881 102.63 75.1881C94.2233 75.1881 87.1225 77.5517 78.2269 84.0917C69.8509 90.2485 69.2169 91.5141 56.5881 91.5141H16.4629L31.9153 62.5977C31.9153 62.5977 33.0709 67.1665 44.5973 67.1665C54.4997 67.1665 118.157 67.0265 118.157 67.0265C130.796 67.0265 143.302 68.3657 150.702 77.4061C150.702 77.4061 167.663 78.7693 180.866 85.0793ZM157.539 87.4505C151.534 86.0137 156.667 82.5389 156.667 82.5389C148.026 84.2837 144.811 91.3285 144.068 93.2997C143.93 93.5669 143.788 93.8413 143.642 94.1305C138.86 103.744 134.554 103.23 126.39 103.23H112.409C101.084 103.23 95.8097 108.839 90.3813 118.394H96.7777C102.623 109.694 107.036 107.349 118.597 106.697C145.017 106.712 166.079 114.287 177.209 120.077C193.039 93.5097 169.546 89.1121 157.539 87.4505H157.539ZM108.365 118.29C111.32 113.826 117.328 112.31 127.014 112.868C150.918 114.252 164.662 118.903 175.34 122.879C162.174 115.176 138.708 109.624 122.398 109.675C114.428 109.699 107.468 111.092 103.379 118.29H108.365V118.29ZM134.02 91.9345C130.905 96.2785 126.802 97.7617 115.165 96.9677C101.624 96.0485 105.119 90.3465 106.695 87.5409L106.649 87.5353C107.08 86.7413 107.818 85.3929 108.566 84.0349C98.1925 83.3957 90.6145 91.3765 90.6145 91.3765C98.3489 99.0221 103.506 99.8217 110.504 99.8217H123.584C135.746 99.8217 138.684 94.3521 139.8 91.9201C137.7 92.1817 135.811 92.1597 134.021 91.9349L134.02 91.9345Z" fill="#002244"/>
<path d="M128.116 90.6414C127.869 90.5418 127.613 90.437 127.356 90.3318C126.164 91.5882 124.107 92.3158 122.114 92.0598C119.491 91.7246 117.98 89.8194 118.724 87.8098C118.831 87.515 118.988 87.2386 119.174 86.9734C117.846 86.4505 116.509 85.953 115.162 85.481C112.468 89.8378 110.888 92.725 120.239 93.5134C126.063 94.009 127.644 93.0122 128.867 90.923C128.616 90.8274 128.373 90.7442 128.115 90.641" fill="#69BE28"/>
<path d="M81.1517 107.194C76.3277 115.561 74.4145 117.483 77.8025 121.455H24.3593C16.4773 121.455 11.3529 121.158 8.71687 117.096C6.15287 113.152 6.68007 109.39 13.5889 96.9751H59.0285C66.8517 96.9751 68.8625 97.4211 73.1077 100.713C75.8248 102.829 78.5066 104.99 81.1521 107.194" fill="#A5ACAF"/>
</g>
<defs>
<clipPath id="clip0_106_4633">
<rect width="200" height="200" fill="white"/>
</clipPath>
</defs>
</svg>
