<svg width="200" height="200" viewBox="0 0 200 200" fill="none" xmlns="http://www.w3.org/2000/svg">
<g clip-path="url(#clip0_106_4554)">
<path fill-rule="evenodd" clip-rule="evenodd" d="M146.574 135.553C143.086 140.824 139.544 146.058 135.946 151.256C139.44 154.144 139.231 157.782 139.231 158.472C139.164 162.341 137.104 165.228 135.218 166.916C132.871 168.916 129.665 169.885 126.282 169.91C126.182 169.91 123.762 169.836 122.93 169.645C122.572 170.169 121.882 170.806 120.76 171.262C120.637 171.616 120.466 171.97 120.244 172.306C119.803 172.969 119.206 173.512 118.506 173.889C117.805 174.266 117.022 174.463 116.227 174.465C116.227 174.465 114.645 174.419 113.551 173.665C112.884 173.227 112.337 172.63 111.957 171.927C111.578 171.225 111.379 170.44 111.378 169.641V169.599C111.382 168.835 111.569 168.084 111.923 167.408C111.76 167.022 111.191 164.718 111.191 164.718L112.68 163.405C112.801 163.335 113.169 162.779 113.583 161.36C114.022 159.976 114.546 157.92 115.643 155.524C117.041 152.48 118.98 149.33 120.396 147.15C120.258 146.453 119.525 146.131 118.998 146.004C118.407 145.844 117.678 145.501 117.098 144.825C116.489 144.117 116.022 143.119 116.283 141.831C116.542 140.561 117.338 139.644 118.269 139.216V139.212C119.324 138.664 120.626 138.925 120.626 138.925C123.73 139.212 126.023 142.093 126.023 142.093C129.112 137.782 136.3 127.091 136.453 126.857C127.032 128.659 117.299 128.903 109.216 127.561C94.518 125.123 83.2104 117.298 75.906 113.731C68.6012 110.167 54.6856 106.515 40.3308 110.167C25.98 113.819 16.502 127.041 16.502 127.041C20.788 96.8458 39.492 91.7562 41.2864 91.2466C44.0116 88.695 47.586 80.909 39.1204 75.657C36.2292 73.8626 33.8012 71.5906 33.8012 71.5906C35.5744 71.7994 39.7328 71.2506 42.0404 70.3378C44.8112 69.2442 47.3596 68.8798 47.3596 68.8798C45.1724 66.795 41.8316 65.751 41.8316 65.751C45.1688 65.5422 50.3856 64.3958 53.6168 62.9342C56.848 61.4758 58.6208 58.8674 58.0968 57.721C57.5768 56.5706 54.6568 57.201 54.6568 57.201C55.7008 55.6362 58.2032 55.0098 58.2032 55.0098C51.0084 54.5922 45.7672 58.5098 45.7672 58.5098C46.5668 56.7938 49.1964 53.7074 49.1964 53.7074C48.1984 54.0366 45.4344 54.9002 45.2608 54.9534C56.5256 46.2542 69.1 38.6062 86.7176 38.493C104.332 38.3762 121.493 46.2718 132.928 49.9314C144.37 53.5906 150.44 55.4382 162.794 53.6122C168.708 52.7342 173.886 50.3102 177.68 48.0378C177.68 48.0378 180.334 41.289 180.536 31.599C180.536 31.599 183.717 37.3038 183.732 46.187C183.764 76.6726 168.991 98.9374 164.27 107.042C159.758 115.015 153.826 124.564 146.574 135.553ZM179.06 23.6006C179.06 23.6006 179.46 30.9298 178.076 37.6402C176.738 44.1238 176.002 46.5942 176.002 46.5942C173.171 48.2542 168.588 50.2958 161.888 51.4106C149.384 53.4954 138.038 50.1366 125.651 45.2738C113.261 40.4114 96.684 35.1734 81.3032 36.9394C66.3892 38.6522 55.7192 44.6934 50.0456 48.6326C44.3724 52.5678 43.3284 53.6086 38.4656 54.9994C38.4656 54.9994 42.288 56.5034 44.2556 56.5034C44.2556 56.5034 43.3284 60.3294 43.6756 61.5994C43.6756 61.5994 51.7796 57.8942 52.7072 59.6322C53.6344 61.3698 49.812 62.5306 47.1508 63.2206C44.4892 63.9178 37.5388 63.7974 37.5388 63.7974C37.5388 63.7974 40.798 66.321 41.9484 68.0726C41.9484 68.0726 35.8044 70.7486 28.9704 69.821C28.9704 69.821 28.744 72.3514 34.3604 76.4958C33.1644 76.9238 31.6496 77.6178 30.7116 78.6194C30.7116 78.6194 36.5972 77.4054 40.2956 81.525C41.2688 82.7458 41.5876 83.8394 41.4776 85.2198C41.276 87.7218 40.3168 88.6774 37.9596 90.2346C36.6116 90.783 35.178 91.4698 33.794 92.3154C27.286 96.3146 22.526 102.402 19.1848 109.356C17.7372 112.368 16.58 115.868 15.7624 119.043C14.9448 122.235 14.644 125.07 14.4532 126.839C14.262 128.605 14 134.173 14 134.173C14 134.173 16.92 130.081 18.2892 128.121C19.652 126.167 28.2872 115.309 40.8652 112.163C44.8892 111.14 48.8956 110.712 52.7248 110.712C61.93 110.705 70.1512 113.203 75.0176 115.585C82.0816 119.004 93.6864 127.073 108.901 129.596C112.483 130.187 116.344 130.481 120.346 130.481C124.186 130.481 128.16 130.201 132.132 129.66C130.022 132.811 127.875 135.936 125.69 139.035C123.616 137.06 120.803 136.855 120.803 136.855C117.391 136.533 115.682 138.611 115.682 138.611C114.947 139.408 114.458 140.401 114.273 141.47C114.032 142.528 114.319 143.76 114.518 144.386C115.168 146.453 116.934 147.394 117.621 147.695C112.634 154.338 111.187 161.987 111.187 161.99L108.911 163.996L109.732 167.323C108.466 171.404 110.454 174.465 113.034 175.732C115.654 177.02 118.099 176.273 118.099 176.273C119.011 176.018 119.861 175.577 120.595 174.978C121.329 174.38 121.932 173.636 122.367 172.795C122.861 172.531 123.323 172.21 123.744 171.839C124.462 171.921 126.302 171.977 126.302 171.977C130.075 171.945 133.763 170.876 136.576 168.487C138.792 166.506 141.23 163.126 141.315 158.507C141.315 157.64 141.475 154.143 138.587 151.096C156.81 124.341 168.641 107.116 176.193 89.5906C196.203 43.1362 179.134 23.7666 179.06 23.6006Z" fill="#B1BABF"/>
<path fill-rule="evenodd" clip-rule="evenodd" d="M118.994 159.555C118.99 159.562 118.987 159.573 118.983 159.58C118.98 159.583 118.98 159.587 118.98 159.59L118.99 159.569C118.99 159.562 118.994 159.558 118.994 159.555ZM155.39 117.673C147.37 121.411 128.865 127.608 110.436 124.168C104.024 122.972 95.5828 120.968 84.4204 114.202C77.098 109.767 69.1916 105.527 50.7604 105.609C35.4924 105.683 25.6856 112.602 22.5644 115.175C30.8492 88.1427 55.3396 92.0963 55.3396 92.0963C50.87 89.9515 45.5048 90.7723 45.5048 90.7723C53.1772 78.7007 40.8152 73.0487 40.8152 73.0487C41.856 73.0487 46.5488 71.6935 48.9448 70.8583C51.344 70.0263 55.7468 69.4495 55.7468 69.4495C54.2108 68.0375 49.4648 66.8979 49.4648 66.8979C53.9488 66.8979 58.0084 64.7247 60.8328 61.7839C61.8164 60.7611 64.5096 55.6399 61.4552 53.6547C58.6452 51.8283 53.0712 53.8563 53.0676 53.8599C53.0748 53.8527 69.7544 35.8811 104.176 43.5611C120.505 47.2063 138.912 56.7691 155.907 56.8715C161.619 56.9071 174.222 55.0527 181.742 47.4823C181.346 61.8651 178.666 82.0099 155.39 117.673ZM133.724 149.32C133.702 149.302 133.67 149.281 133.653 149.267C133.218 148.871 132.655 148.393 132.032 147.872C133.048 146.425 144.684 129.122 148.096 123.757C149.289 123.336 150.449 122.876 151.596 122.394C149.289 126.043 136.7 145.013 133.724 149.32H133.724ZM133.115 164.467C131.536 165.844 128.854 166.722 126.051 166.669C123.552 166.619 121.797 166.216 120.208 165.352C120.201 165.369 120.196 165.387 120.194 165.405C120.07 165.511 119.818 166.088 117.982 166.361C116.75 166.562 116.036 166.315 115.961 166.29C118.127 168.481 120.088 167.1 120.088 167.1C120.18 167.483 120.314 167.755 120.314 167.755C120.314 167.755 119.663 168.711 117.681 168.382C117.44 168.343 117.235 168.275 117.033 168.201C117.072 168.222 117.108 168.236 117.146 168.261C117.908 168.76 118.113 169.783 117.614 170.54C117.373 170.905 116.996 171.159 116.567 171.246C116.139 171.334 115.693 171.248 115.328 171.008C114.963 170.766 114.71 170.39 114.623 169.962C114.536 169.534 114.623 169.089 114.864 168.725C115.057 168.431 115.34 168.207 115.671 168.087C116.002 167.967 116.363 167.957 116.7 168.06C115.214 167.344 114.832 165.851 114.832 165.851C116.732 164.166 116.672 161.116 118.612 156.876C118.7 156.681 118.799 156.483 118.895 156.285C118.895 156.292 118.891 156.299 118.888 156.306C118.466 157.361 118.063 159.173 118.23 160.493C118.265 160.78 118.322 161.042 118.389 161.296V161.3C118.417 161.416 119.068 164.053 120.848 163.625L120.569 164.252C121.348 164.736 123.131 165.582 126.168 165.621C130.432 165.678 132.764 162.872 133.405 160.783C133.908 159.159 133.129 157.354 131.522 155.772C131.993 155.227 132.28 154.466 131.965 153.418C132.11 153.903 131.2 154.766 130.241 154.682C130.152 154.675 130.065 154.659 129.979 154.636C128.532 154.232 126.882 152.47 125.485 151.426C124.094 150.382 123.687 148.764 123.715 147.618C123.736 146.471 123.347 145.112 122.254 144.082C121.16 143.052 120.18 142.953 119.868 142.872C119.553 142.787 119.465 142.592 119.496 142.384C119.56 142.04 120.003 142.104 120.003 142.104C122.657 142.635 124.596 145.264 125.024 146.036C125.421 146.744 129.611 150.017 131.232 151.45C131.99 152.002 135.27 154.519 135.858 157.099C136.555 160.178 134.69 163.094 133.115 164.467ZM128.387 157.467C128.907 157.725 129.654 158.231 130.004 158.964C130.096 159.159 130.138 159.346 130.138 159.555C130.192 160.411 129.19 161.664 128.302 161.994C127.658 162.259 126.805 162.39 125.98 162.386C125.718 162.386 125.46 162.376 125.208 162.351C125.442 161.958 125.725 161.48 126.04 160.967C126.748 159.81 127.626 158.462 128.387 157.467ZM120.997 152.374C121.698 151.185 122.434 150.017 123.181 148.856L123.287 148.697C123.255 148.941 123.17 150.268 123.616 151.585C123.874 152.215 124.285 152.852 124.932 153.446C125.411 153.891 125.901 154.324 126.401 154.745C124.441 157.279 121.662 162.018 121.662 162.018C120.473 162.089 119.878 161.696 119.206 160.263C119.108 160.048 119.033 159.824 118.98 159.594V159.59C118.626 158.114 118.948 156.214 118.956 156.161C119.004 156.062 120.325 153.514 120.997 152.374ZM140.586 125.969C142.214 125.573 143.824 125.141 145.406 124.645C145.452 124.631 145.498 124.617 145.544 124.599C143.927 127.052 131.193 145.271 130.316 146.453C130.245 146.397 128.058 144.524 127.98 144.457C131.225 139.948 140.402 126.249 140.586 125.969ZM180.536 31.5991C180.334 41.2891 177.679 48.0379 177.679 48.0379C173.886 50.3099 168.708 52.7343 162.794 53.6123C150.439 55.4383 144.37 53.5907 132.927 49.9315C121.492 46.2719 104.331 38.3763 86.7172 38.4931C69.0996 38.6063 56.5252 46.2543 45.2604 54.9531C45.434 54.9003 48.198 54.0371 49.196 53.7075C49.196 53.7075 46.5664 56.7939 45.7664 58.5103C45.7664 58.5103 51.008 54.5923 58.2028 55.0103C58.2028 55.0103 55.7008 55.6363 54.6568 57.2007C54.6568 57.2007 57.5768 56.5707 58.0968 57.7207C58.6208 58.8675 56.8476 61.4759 53.6164 62.9343C50.3852 64.3959 45.1684 65.5423 41.8312 65.7511C41.8312 65.7511 45.172 66.7951 47.3592 68.8799C47.3592 68.8799 44.8112 69.2443 42.04 70.3379C39.732 71.2511 35.574 71.7995 33.8008 71.5907C33.8008 71.5907 36.2288 73.8627 39.12 75.6571C47.5856 80.9091 44.0112 88.6951 41.286 91.2467C39.4916 91.7563 20.7876 96.8459 16.502 127.041C16.502 127.041 25.9796 113.819 40.3304 110.167C54.6852 106.515 68.6008 110.167 75.9056 113.731C83.21 117.298 94.5176 125.123 109.216 127.562C117.299 128.903 127.031 128.659 136.452 126.858C136.3 127.091 129.112 137.782 126.022 142.093C126.022 142.093 123.729 139.212 120.626 138.926C120.626 138.926 119.323 138.664 118.268 139.212V139.216C117.338 139.644 116.541 140.561 116.283 141.831C116.022 143.119 116.488 144.118 117.097 144.825C117.677 145.501 118.406 145.844 118.997 146.004C119.525 146.131 120.257 146.453 120.396 147.15C118.98 149.33 117.04 152.48 115.642 155.524C114.545 157.92 114.022 159.976 113.582 161.36C113.168 162.779 112.8 163.335 112.68 163.406L111.19 164.718C111.19 164.718 111.76 167.022 111.923 167.408C111.568 168.084 111.381 168.835 111.378 169.599V169.642C111.378 171.206 112.15 172.742 113.551 173.666C114.644 174.419 116.226 174.466 116.226 174.466C117.787 174.466 119.32 173.694 120.243 172.306C120.466 171.97 120.636 171.616 120.76 171.262C121.882 170.806 122.572 170.169 122.929 169.645C123.761 169.836 126.182 169.91 126.281 169.91C129.664 169.886 132.871 168.916 135.217 166.916C137.104 165.228 139.163 162.34 139.23 158.472C139.23 157.782 139.439 154.144 135.946 151.256C139.543 146.059 143.086 140.824 146.574 135.553C153.826 124.564 159.757 115.016 164.27 107.042C168.991 98.9375 183.763 76.6727 183.731 46.1871C183.717 37.3039 180.536 31.5991 180.536 31.5991ZM118.983 159.58C118.979 159.583 118.98 159.587 118.98 159.59L118.99 159.569C118.99 159.562 118.994 159.558 118.994 159.555C118.99 159.562 118.987 159.573 118.983 159.58Z" fill="black"/>
<path fill-rule="evenodd" clip-rule="evenodd" d="M143.272 98.067C135.033 103.896 122.133 105.676 122.133 105.676C121.988 106.235 121.135 106.823 121.135 106.823C121.135 106.823 122.455 107.311 125.697 109.749C128.935 112.188 128.058 112.068 129.091 112.765C130.124 113.459 130.712 113.264 130.712 113.264C131.023 113.89 131.062 114.821 131.062 114.821C131.494 115.228 133.607 117.245 131.642 119.333C129.675 121.421 127.403 119.482 127.403 119.482C126.6 119.652 125.817 119.386 125.817 119.386C125.817 119.386 121.613 122.034 117.437 119.149C114.039 116.807 114.244 114.028 114.443 113.069C113.296 113.727 112.064 114.241 110.801 114.637C107.393 115.706 103.043 116.148 98.7221 114.711C95.8837 113.756 93.5341 112.099 91.6793 110.263C89.8213 108.423 88.4481 106.391 87.5529 104.561C87.421 104.29 87.2959 104.015 87.1777 103.737C86.8801 104.445 85.4577 107.131 81.0513 106.939C75.9797 106.72 74.2209 102.073 74.2209 102.073C74.2209 102.073 73.4389 101.811 72.9009 101.195C72.9009 101.195 69.9209 101.373 69.6093 98.5202C69.3013 95.6674 72.2073 95.335 72.7981 95.271C72.7981 95.271 73.3857 94.549 74.0121 94.2378C74.0121 94.2378 74.3661 94.751 75.6081 94.8178C76.8505 94.8854 76.0789 94.4498 80.1349 94.4606C84.1909 94.4678 85.5353 94.8782 85.5353 94.8782C85.5353 94.8782 85.2097 93.8942 85.4329 93.3602C85.4329 93.3602 76.2209 84.1582 73.1661 74.539C70.1121 64.9198 71.0461 61.3526 74.7553 51.2094C74.7553 51.2094 77.5053 68.4906 85.9461 79.3486C90.7625 85.5458 96.1809 90.3766 99.9501 93.3846C100.035 93.3846 100.124 93.3886 100.208 93.3886C99.4053 92.4926 98.7925 91.4418 98.4885 90.2386C97.7345 87.2658 96.4997 84.5018 95.9333 82.3002C95.3669 80.0954 96.6269 75.6894 96.6269 75.6894C94.9349 72.9782 95.7597 68.5154 95.7597 68.5154C95.7597 68.5154 96.6765 68.0802 97.3737 67.2346C98.0673 66.385 97.8265 63.8794 98.3929 60.1918C98.9593 56.5038 101.359 52.6886 106.674 50.5194C111.962 48.3606 119.904 51.1914 119.974 51.2166C120.045 51.2378 128.089 53.7682 131.006 58.6806C133.936 63.6174 133.547 68.1122 131.774 71.3926C130.001 74.677 128.295 76.5282 128.341 77.625C128.383 78.7186 128.854 79.6178 128.854 79.6178C128.854 79.6178 126.822 83.677 123.832 84.8238C123.832 84.8238 122.179 89.0954 120.396 90.511C118.619 91.927 115.964 93.3846 113.568 95.303C112.624 96.0602 111.537 96.5274 110.38 96.7646C110.458 96.8214 110.532 96.8778 110.61 96.9346C115.426 96.807 122.632 96.223 130.174 94.1954C143.456 90.6206 156.073 78.4958 156.073 78.4958C152.916 88.823 151.508 92.2346 143.272 98.067ZM155.907 56.8718C138.912 56.7694 120.505 47.2066 104.176 43.5614C69.7545 35.8814 53.0749 53.8534 53.0677 53.8602C53.0713 53.8566 58.6453 51.8286 61.4557 53.655C64.5097 55.6402 61.8165 60.7614 60.8325 61.7842C58.0085 64.725 53.9489 66.8982 49.4649 66.8982C49.4649 66.8982 54.2109 68.0378 55.7469 69.4502C55.7469 69.4502 51.3441 70.0266 48.9449 70.8582C46.5489 71.6938 41.8561 73.049 40.8153 73.049C40.8153 73.049 53.1773 78.701 45.5049 90.773C45.5049 90.773 50.8701 89.9518 55.3397 92.0966C55.3397 92.0966 30.8493 88.1434 22.5645 115.175C25.6857 112.602 35.4925 105.683 50.7605 105.609C69.1917 105.527 77.0981 109.767 84.4205 114.202C95.5829 120.969 104.024 122.972 110.436 124.168C128.865 127.608 147.37 121.411 155.39 117.673C178.666 82.0102 181.346 61.8654 181.742 47.4826C174.222 55.053 161.619 56.9074 155.907 56.8718Z" fill="#A71930"/>
<path fill-rule="evenodd" clip-rule="evenodd" d="M118.895 156.284C118.895 156.291 118.892 156.299 118.888 156.305C118.467 157.36 118.064 159.172 118.23 160.493C118.265 160.779 118.321 161.041 118.389 161.296V161.3C117.394 165.869 115.469 165.943 114.96 165.876C114.878 165.865 114.832 165.851 114.832 165.851C116.732 164.167 116.672 161.115 118.612 156.875C118.7 156.681 118.8 156.483 118.895 156.284ZM123.287 148.696C123.258 148.941 123.17 150.267 123.616 151.584C123.613 151.587 121.16 154.795 118.98 159.593C119.015 159.503 118.996 159.547 118.983 159.581C118.982 159.584 118.98 159.587 118.979 159.59C118.627 158.115 118.948 156.214 118.955 156.161C119.005 156.061 120.325 153.513 120.998 152.373C121.698 151.184 122.434 150.017 123.182 148.855L123.287 148.696ZM145.545 124.601C143.927 127.053 131.193 145.27 130.316 146.452C130.244 146.395 128.057 144.523 127.98 144.456C131.226 139.947 140.402 126.25 140.586 125.97C142.214 125.574 143.825 125.142 145.407 124.647C145.453 124.633 145.499 124.619 145.545 124.601ZM124.457 111.334C124.457 111.334 125.17 111.906 125.229 111.951C125.501 112.156 126.082 112.693 126.349 112.956C126.57 113.174 126.79 113.391 127.008 113.612C127.168 113.774 127.832 114.4 128.056 114.567C128.227 114.694 128.4 114.806 128.578 114.893C128.742 114.974 128.912 115.037 129.092 115.081L129.076 115.093C128.706 115.369 128.272 115.551 127.806 115.551C127.646 115.551 127.472 115.527 127.316 115.49C127.099 115.437 126.889 115.358 126.691 115.255C126.484 115.149 126.287 115.024 126.103 114.883C126.102 114.881 126.099 114.875 126.098 114.873C126.118 114.777 126.135 114.675 126.142 114.561C126.167 114.145 126.081 113.668 125.926 113.283C125.666 112.603 124.483 111.355 124.458 111.334H124.457ZM120.176 108.672C120.235 108.705 120.291 108.735 120.351 108.769C120.639 108.931 120.929 109.091 121.215 109.256C121.818 109.604 122.413 109.965 122.999 110.341C123.418 110.608 123.83 110.886 124.236 111.175L124.389 111.289C124.784 111.728 125.187 112.293 125.374 112.817C125.593 113.421 125.608 113.979 125.53 114.389C124.247 113.154 121.55 111.171 120.79 110.778C120.864 109.872 120.489 109.127 120.176 108.672ZM98.6315 98.0959C99.0407 98.1483 99.4407 98.2087 99.8323 98.2743C99.6088 98.5807 99.3961 98.8949 99.1947 99.2163C99.6287 99.2951 100.068 99.3851 100.513 99.4851C100.694 99.1535 100.883 98.8283 101.077 98.5115C101.451 98.5919 101.818 98.6783 102.18 98.7707C102.012 99.1031 101.849 99.4382 101.692 99.7759C102.106 99.8863 102.522 100.006 102.941 100.137C103.073 99.7863 103.205 99.4403 103.337 99.1003C103.688 99.2095 104.036 99.3259 104.382 99.4503C104.282 99.8011 104.179 100.157 104.072 100.516C104.485 100.663 104.889 100.817 105.286 100.977C105.365 100.61 105.438 100.246 105.502 99.8867C105.849 100.03 106.192 100.183 106.539 100.345C106.503 100.715 106.458 101.083 106.404 101.451C106.818 101.636 107.222 101.827 107.616 102.022C107.647 101.649 107.667 101.277 107.673 100.906C108.026 101.089 108.381 101.283 108.739 101.488C108.756 101.862 108.757 102.236 108.742 102.608C108.958 102.727 109.17 102.845 109.379 102.965C109.381 103.024 109.382 103.082 109.383 103.141C109.39 103.472 109.386 103.803 109.371 104.133C109.367 104.229 109.362 104.325 109.357 104.421C109.106 104.294 108.853 104.167 108.595 104.042C108.5 104.621 108.357 105.191 108.167 105.746C107.785 105.524 107.397 105.312 107.005 105.108C107.177 104.573 107.313 104.032 107.416 103.488C106.996 103.297 106.568 103.111 106.131 102.928C106.014 103.45 105.876 103.966 105.715 104.476C105.314 104.291 104.909 104.114 104.501 103.946C104.66 103.445 104.804 102.945 104.936 102.448C104.503 102.281 104.068 102.121 103.631 101.967C103.478 102.456 103.322 102.943 103.162 103.429C102.748 103.28 102.33 103.14 101.909 103.009C102.076 102.52 102.245 102.037 102.416 101.561C101.975 101.421 101.531 101.287 101.086 101.16C100.888 101.64 100.703 102.125 100.53 102.614C100.103 102.501 99.6736 102.397 99.2423 102.303C99.4208 101.802 99.6204 101.309 99.8407 100.825C99.3807 100.709 98.9251 100.601 98.4751 100.501C98.2289 100.997 98.0138 101.508 97.8311 102.031C97.3952 101.956 96.9576 101.891 96.5187 101.837C96.7 101.286 96.9269 100.751 97.1971 100.237C96.9171 100.184 96.6367 100.133 96.3559 100.084C96.6009 99.7148 96.8614 99.3558 97.1367 99.0083C97.1607 98.9779 97.1843 98.9467 97.2087 98.9171C97.4495 98.9451 97.6927 98.9771 97.9379 99.0123C98.1557 98.6969 98.3872 98.3911 98.6315 98.0959ZM151.99 84.7035C151.924 84.8579 149.3 90.8847 138.386 95.6195C137.89 95.8361 137.39 96.0443 136.887 96.2439C134.668 97.0787 129.996 98.6575 123.818 99.7727C121.321 100.224 118.794 100.531 116.266 100.743C116.063 100.76 114.598 100.868 114.598 100.868C114.124 100.261 113.618 99.6804 113.083 99.1275C116.432 98.9795 119.872 98.6471 123.247 98.0407C137.175 95.5375 145.728 89.7127 149.829 86.4743C150.204 86.1779 150.534 85.9091 150.836 85.6607C151.539 85.0907 151.977 84.7295 151.99 84.7035ZM79.8447 96.4875C79.9687 96.4863 80.2167 96.4915 80.1979 96.4935C79.5491 96.5295 78.5219 96.7675 77.8679 97.1603C77.8643 97.1619 77.8607 97.1651 77.8567 97.1679C77.4827 97.3859 77.0835 97.7519 76.8803 98.1367C76.8667 98.1619 76.7923 98.3019 76.7723 98.3247C74.6431 98.3247 74.2623 96.7127 74.2543 96.6835C74.4303 96.7587 74.6091 96.8103 74.7931 96.8451L74.9395 96.8687C75.0875 96.8887 75.2391 96.8971 75.3951 96.8979C76.0491 96.9039 76.7279 96.7803 77.4351 96.6819C78.2331 96.5703 79.0387 96.4915 79.8447 96.4875ZM80.2955 96.4927C80.5743 96.4983 80.8527 96.5067 81.1315 96.5207C81.5707 96.5419 82.0099 96.5731 82.4487 96.6127C83.3311 96.6915 84.3587 96.8087 85.2343 96.9471C84.7087 97.1219 83.9843 97.4659 83.4959 98.2375C83.4894 98.2439 83.4831 98.2505 83.4771 98.2575C82.6307 98.1115 79.2835 98.0679 77.5171 98.2767C77.7003 97.9035 78.0491 97.4671 78.5879 97.1171C79.0527 96.8119 79.7167 96.6043 80.2955 96.4927ZM74.3159 58.6367C75.0779 61.8435 77.3419 73.7815 89.1935 86.6203C91.5383 89.1603 94.1027 91.5159 96.7055 93.6683C95.9414 93.7911 95.1844 93.9543 94.4375 94.1571C92.6163 92.5519 88.4039 88.4019 88.1839 88.1859L88.1751 88.1771C84.6491 84.6275 82.0167 81.2167 80.0363 78.0455C79.6235 77.3703 79.3031 76.8139 79.0471 76.3979L78.6551 75.6927C73.1883 65.6807 74.3159 58.6367 74.3159 58.6367ZM98.0779 80.3791C98.6319 79.9151 99.8799 80.1311 99.8799 80.1311C99.8799 80.1311 100.44 80.7199 100.572 81.1599C100.7 81.6031 100.568 84.0175 101.522 85.6787V85.6395C101.522 85.6395 101.568 85.4639 101.771 85.1623C101.975 84.8607 102.372 84.4331 102.61 84.6019C102.848 84.7703 102.815 85.2451 102.81 85.7535C102.806 86.2615 102.634 86.8051 102.506 86.9587C102.506 86.9587 102.704 87.3643 103.242 87.6207C103.242 87.6207 103.22 87.4271 103.259 87.1511C103.344 86.6639 103.589 86.2615 103.746 85.8187C103.794 85.6635 103.945 85.5039 104.17 85.6251C104.174 85.6251 104.62 85.8571 105.014 86.0543C105.06 86.0875 105.334 86.2967 105.188 86.6903C105.181 86.7047 105.18 86.7131 105.175 86.7239C105.17 86.7419 105.162 86.7571 105.156 86.7751C105.008 87.1463 104.882 87.4859 104.693 87.8775C104.693 87.8775 104.596 88.2395 104.426 88.2547C104.426 88.2547 104.758 88.4723 104.907 88.5351C105.136 88.6319 105.42 88.7543 105.56 88.7891C105.56 88.7891 105.408 88.5547 105.447 88.2199C105.538 87.7427 105.679 87.0863 105.799 86.5367C105.841 86.4075 105.957 86.1891 106.222 86.2727C106.521 86.3959 106.825 86.5127 107.129 86.6239C107.385 86.7311 107.382 86.9835 107.372 87.0679C107.233 87.6751 107.076 88.4023 106.91 88.9831C106.873 89.0719 106.82 89.1959 106.775 89.2415C106.775 89.2415 107.049 89.4335 107.233 89.4823C107.415 89.5303 107.762 89.6003 107.762 89.6003C107.762 89.6003 107.696 89.3655 107.78 89.1151C107.782 89.1103 107.782 89.1059 107.782 89.0999L108.191 87.9315C108.224 87.8315 108.321 87.6099 108.376 87.4663C108.406 87.3939 108.524 87.1711 108.795 87.2287C109.151 87.3359 109.511 87.4347 109.871 87.5247C110.138 87.6035 109.985 88.0127 109.985 88.0127C109.985 88.0127 109.598 88.9631 109.348 89.5755C109.345 89.5743 109.261 89.7899 109.123 89.9031C109.123 89.9031 109.371 90.0131 109.558 90.0503C109.95 90.1279 110.184 90.1203 110.282 90.1271C110.282 90.1271 110.162 89.8339 110.304 89.4835C110.312 89.4691 110.316 89.4515 110.322 89.4355C110.441 89.1579 110.566 88.8811 110.681 88.6027C110.714 88.5243 110.744 88.4455 110.775 88.3655C110.815 88.2455 111.006 88.0487 111.32 88.1047C111.331 88.1051 111.338 88.1039 111.348 88.1051C111.598 88.1523 111.849 88.1943 112.099 88.2331C112.102 88.2359 112.551 88.3279 112.387 88.7483C112.158 89.2618 111.912 89.7678 111.65 90.2655C111.93 90.2875 112.213 90.3035 112.496 90.3111C112.496 90.3111 112.46 90.2859 112.576 89.9719C112.692 89.6579 113.032 88.9887 113.067 88.8891C113.101 88.7911 113.231 88.4023 113.394 88.3831C113.558 88.3655 114.199 88.8791 114.032 89.8687C115.793 89.1167 117.138 87.1159 117.507 86.8435C117.831 86.6051 118.477 86.4755 118.639 86.4459C118.911 86.6027 119.7 87.0971 119.834 87.6803C119.834 87.6803 118.508 88.9007 116.875 89.6203C115.239 90.3403 112.766 91.8995 111.791 92.5491C111.422 92.7947 110.92 93.0067 110.286 93.1235C109.89 92.4179 108.514 91.5471 106.751 90.9547C104.907 90.3351 103.215 90.2155 102.524 90.5991C102.021 90.0835 101.714 89.5687 101.556 89.1147C101.172 88.0091 100.138 85.2719 99.2695 83.7127C98.3999 82.1527 98.0775 80.3791 98.0775 80.3791H98.0779ZM103.419 60.0815C103.454 58.2447 105.398 50.6855 115.473 52.4015C117.331 52.7875 118.821 53.2371 119.211 53.3607C119.25 53.3751 119.285 53.3855 119.324 53.3999C119.515 53.4599 119.777 53.5447 120.092 53.6615C120.184 53.6971 120.28 53.7323 120.378 53.7715C120.51 53.8211 120.648 53.8739 120.792 53.9343C120.984 54.0119 121.186 54.0971 121.398 54.1891C121.606 54.2847 121.826 54.3835 122.053 54.4931C122.58 54.7474 123.095 55.0263 123.596 55.3287C123.649 55.3567 123.701 55.3887 123.751 55.4207C123.769 55.4275 123.783 55.4383 123.797 55.4487C127.899 57.9439 129.024 60.9911 129.024 63.5111C129.024 65.7263 128.154 67.5383 127.676 68.2071C127.004 69.1415 126.398 69.7823 126.087 70.2531C125.715 69.5875 125.429 68.8799 125.319 68.1719V68.1743L125.32 68.1827C125.334 68.3915 125.573 71.6059 127.21 73.2563L127.294 73.3391C127.294 73.3391 126.342 75.4659 126.144 76.7579C125.949 78.0531 126.452 79.4155 126.452 79.4155C126.452 79.4155 126.324 79.6211 126.14 79.9039C125.136 81.0895 123.376 82.1159 122.431 81.9427C121.359 81.7443 118.775 80.8667 117.278 81.1747C116.05 81.4295 115.31 82.1227 114.904 82.8239C114.904 82.8239 114.907 82.8199 114.911 82.8199C114.801 82.9511 114.698 83.0963 114.627 83.2663C114.627 83.2663 114.309 83.8219 114.22 84.5651C114.001 84.4695 113.813 84.3951 113.813 84.3951C113.817 84.4343 113.817 84.4871 113.806 84.5439C113.792 84.6535 113.742 84.8303 113.736 84.8551C113.735 84.8816 113.731 84.908 113.722 84.9331C113.697 85.0323 113.668 85.1315 113.644 85.2303C113.551 85.5688 113.451 85.9052 113.343 86.2391C113.337 86.2464 113.332 86.2548 113.329 86.2639C113.215 86.5999 112.875 86.4903 112.875 86.4903C112.862 86.4862 112.85 86.4815 112.837 86.4763C112.589 86.3523 112.316 86.2215 112.033 86.0867C112.033 86.0867 111.715 85.9207 111.764 85.5915C111.761 85.5843 111.764 85.5771 111.768 85.5667C111.772 85.5523 111.768 85.5419 111.775 85.5311C111.786 85.5031 111.793 85.4675 111.803 85.4431C111.891 85.1243 112.079 84.4411 112.104 84.2819C112.136 84.0943 112.26 83.7511 112.337 83.6167C112.284 83.5635 112.15 83.4183 112.034 83.3619C111.934 83.3123 111.828 83.2911 111.683 83.3019C111.63 83.3475 111.541 83.4859 111.538 83.5599C111.534 83.6023 111.422 83.9563 111.297 84.3455C111.17 84.7383 111.025 85.1703 110.961 85.3647C110.89 85.5771 110.738 85.6231 110.614 85.6231C110.537 85.6231 110.472 85.6055 110.444 85.5963L110.43 85.5915C110.183 85.4923 109.846 85.3719 109.581 85.2727C109.563 85.2695 109.549 85.2587 109.531 85.2551C109.213 85.1351 109.234 84.8623 109.255 84.7527C109.393 84.3419 109.57 83.8219 109.704 83.4147C109.733 83.3191 109.768 83.2239 109.796 83.1247C109.796 83.1211 109.8 83.1175 109.804 83.1103C109.814 83.0679 109.935 82.7635 110.119 82.6715C109.998 82.5795 109.757 82.4839 109.577 82.4203C109.361 82.3495 108.976 82.2823 108.954 82.2787C109.018 82.4167 109.032 82.6575 109 82.7779C108.954 82.9371 108.529 84.4199 108.512 84.4767C108.491 84.5331 108.416 84.7103 108.299 84.7527C108.186 84.7951 107.868 84.6927 107.868 84.6927L107.815 84.6819C107.546 84.6003 107.164 84.5403 106.909 84.4695C106.909 84.4695 106.491 84.3495 106.622 83.9671C106.622 83.9671 106.894 82.9691 107.029 82.4947C107.03 82.4803 107.032 82.4661 107.036 82.4523C107.047 82.4167 107.107 82.2187 107.128 81.9179C107.149 81.6171 106.948 81.5459 106.799 81.5459C106.658 81.5459 106.501 81.8011 106.467 81.9499C106.427 82.1091 106.339 82.3743 106.339 82.3743L106.328 82.3991C106.318 82.4239 106.307 82.4487 106.3 82.4699C106.164 82.8309 106.034 83.1943 105.911 83.5599C105.788 83.8863 105.448 83.8611 105.378 83.8519L105.366 83.8503C105.076 83.7886 104.786 83.7308 104.495 83.6767C104.491 83.6767 104.456 83.6663 104.456 83.6627C104.456 83.6627 104.116 83.5459 104.23 83.2095C104.23 83.1991 104.23 83.1883 104.237 83.1775C104.357 82.8275 104.46 82.5443 104.601 82.1935C104.64 82.1015 104.782 81.7655 104.863 81.6347C104.948 81.5039 105.061 81.4331 105.061 81.4331C105.065 81.3551 104.948 81.2099 104.736 81.1355C104.707 81.1275 104.679 81.1204 104.651 81.1143C104.775 80.8063 104.93 80.3819 105.005 80.0243C105.238 79.1575 105.21 77.9363 104.205 76.7863C103.196 75.6359 100.602 74.7795 99.6323 74.2911C98.6591 73.8027 97.7847 71.4563 97.9015 69.8351C97.9015 69.8351 99.1227 69.0495 99.7455 67.8991C100.376 66.7527 100.892 64.4843 100.892 64.4843C103.246 64.2187 105.447 61.7131 105.582 61.5575C104.998 62.1203 104.233 62.5415 103.44 62.8667C103.483 62.3291 103.394 61.4227 103.419 60.0815Z" fill="white"/>
<path fill-rule="evenodd" clip-rule="evenodd" d="M119.496 142.383C119.561 142.039 120.003 142.103 120.003 142.103C122.657 142.634 124.597 145.263 125.025 146.035C125.421 146.743 129.612 150.017 131.233 151.45C131.991 152.002 135.271 154.519 135.858 157.099C136.556 160.178 134.691 163.094 133.115 164.467C131.537 165.844 128.854 166.721 126.051 166.669C123.553 166.619 121.797 166.216 120.209 165.352C120.201 165.369 120.196 165.387 120.194 165.405C120.07 165.511 119.819 166.088 117.982 166.361C116.75 166.563 116.035 166.315 115.961 166.29C118.127 168.481 120.087 167.101 120.087 167.101C120.18 167.483 120.314 167.755 120.314 167.755C120.314 167.755 119.663 168.711 117.681 168.382C117.46 168.343 117.243 168.283 117.033 168.201C117.072 168.223 117.107 168.237 117.147 168.261C117.908 168.761 118.113 169.783 117.614 170.541C117.372 170.905 116.996 171.159 116.567 171.247C116.139 171.334 115.693 171.249 115.328 171.008C114.964 170.767 114.71 170.391 114.623 169.963C114.536 169.535 114.623 169.09 114.864 168.725C115.057 168.431 115.34 168.207 115.672 168.087C116.003 167.967 116.364 167.958 116.701 168.06C115.214 167.345 114.832 165.851 114.832 165.851C114.832 165.851 114.878 165.865 114.959 165.876C115.469 165.943 117.394 165.869 118.389 161.3C118.417 161.417 119.069 164.053 120.849 163.625C120.831 163.664 120.573 164.244 120.569 164.252C121.347 164.737 123.131 165.582 126.168 165.621C130.433 165.678 132.765 162.871 133.406 160.783C133.909 159.159 133.13 157.353 131.523 155.771C131.994 155.227 132.281 154.466 131.965 153.418C132.111 153.903 131.201 154.767 130.241 154.682C130.153 154.675 130.066 154.659 129.98 154.635C128.532 154.231 126.883 152.469 125.485 151.425C124.094 150.381 123.687 148.764 123.716 147.617C123.736 146.47 123.347 145.111 122.254 144.081C121.16 143.051 120.18 142.952 119.868 142.871C119.553 142.786 119.464 142.591 119.496 142.383ZM128.386 157.467C128.906 157.725 129.653 158.231 130.003 158.964C130.095 159.159 130.139 159.346 130.139 159.555C130.192 160.411 129.19 161.664 128.301 161.994C127.657 162.259 126.804 162.39 125.979 162.386C125.717 162.386 125.459 162.376 125.208 162.351C125.442 161.958 125.725 161.481 126.039 160.967C126.747 159.81 127.626 158.461 128.386 157.467V157.467ZM123.616 151.585C123.875 152.215 124.285 152.851 124.933 153.446C125.412 153.891 125.902 154.324 126.402 154.745C124.441 157.279 121.663 162.018 121.663 162.018C120.474 162.089 119.879 161.696 119.207 160.263C119.109 160.048 119.033 159.824 118.98 159.594C121.159 154.795 123.613 151.588 123.616 151.585ZM151.597 122.396C149.289 126.045 136.7 145.012 133.723 149.319C133.703 149.302 133.67 149.281 133.653 149.266C133.217 148.87 132.655 148.392 132.032 147.872C133.047 146.424 144.685 129.121 148.097 123.759C149.276 123.338 150.444 122.884 151.597 122.396ZM120.059 104.445C120.059 104.445 120.266 104.292 120.389 104.448C120.462 104.544 120.47 104.669 120.333 104.795C120.199 104.922 119.73 105.235 119.452 106.051C119.173 106.872 119.346 107.666 119.667 108.241C119.965 108.775 120.092 109.419 119.989 110.024C119.953 110.241 119.889 110.452 119.797 110.651C119.569 111.137 119.391 111.645 119.185 112.141C118.959 112.681 118.709 113.185 118.387 113.491C118.029 113.831 117.453 113.726 117.099 113.44C117.085 113.428 117.067 113.421 117.053 113.408C117.202 114.047 117.602 114.303 118.017 114.395C117.823 115.669 118.275 116.597 119.809 117.349C121.379 118.119 124.103 118.116 126.137 116.175C125.933 115.946 125.689 115.778 125.452 115.588C125.449 115.585 125.445 115.582 125.442 115.581C125.6 115.535 125.804 115.448 125.934 115.287C126.006 115.196 126.058 115.047 126.095 114.877L126.103 114.883C126.287 115.024 126.484 115.149 126.691 115.255C126.89 115.358 127.099 115.437 127.316 115.49C127.471 115.528 127.645 115.551 127.805 115.551C128.272 115.551 128.706 115.37 129.075 115.093C129.079 115.09 129.085 115.088 129.088 115.085C129.092 115.086 129.123 115.311 129.125 115.361C129.14 115.651 129.109 116.113 128.836 116.564C128.978 116.455 129.149 116.39 129.328 116.376C129.506 116.362 129.685 116.4 129.843 116.486C129.95 116.544 130.045 116.623 130.122 116.718C130.199 116.812 130.257 116.922 130.292 117.039C130.326 117.156 130.338 117.279 130.325 117.4C130.312 117.522 130.276 117.64 130.217 117.747C130.159 117.855 130.08 117.95 129.985 118.027C129.89 118.104 129.781 118.162 129.664 118.197C129.547 118.232 129.424 118.243 129.302 118.23C129.18 118.217 129.062 118.181 128.955 118.123C128.747 118.009 128.591 117.82 128.518 117.594C128.446 117.369 128.463 117.124 128.566 116.911C128.493 116.985 128.424 117.062 128.333 117.133C127.797 117.544 127.379 117.608 127.119 117.592C126.933 117.58 126.826 117.529 126.826 117.529C126.826 117.529 126.837 117.411 126.785 117.216C126.778 117.189 126.773 117.166 126.764 117.136C126.828 117.142 126.946 117.144 127.093 117.123C127.546 117.059 128.287 116.771 128.643 115.605C128.643 115.605 128.556 115.718 128.406 115.865C128.08 116.187 127.408 116.669 126.483 116.6C126.039 116.98 123.292 119.164 120 117.999C116.406 116.726 116.378 114.507 116.468 113.782C116.527 113.309 116.78 112.529 116.792 112.491C117.084 111.582 118.567 108.301 118.575 107.793C118.583 107.284 118.855 105.429 120.059 104.445V104.445ZM120.79 110.779C121.549 111.172 124.247 113.155 125.53 114.389C125.489 114.595 125.433 114.773 125.351 114.877C125.224 115.037 125.039 115.125 124.88 115.178C123.751 114.405 122.037 113.392 120.23 112.579C120.341 112.299 120.47 111.953 120.622 111.523C120.719 111.247 120.79 110.779 120.79 110.779ZM87.6114 93.4493C87.805 93.3985 87.879 93.6461 87.879 93.6461C88.2438 95.1569 87.3422 96.8005 87.0434 97.2113C86.7434 97.6201 85.9446 101.133 85.6294 102.035C85.6294 102.035 85.2574 102.962 85.1094 103.261C84.783 103.913 83.3826 105.646 79.7482 104.491C76.419 103.435 75.5282 100.04 75.4042 99.4717C74.269 98.7409 74.3006 97.3685 74.3006 97.3685C73.7422 98.8889 74.6606 99.5853 74.8758 99.7245C74.851 99.7085 74.6602 99.9077 74.6378 99.9337C74.6346 99.9377 74.5918 99.9985 74.5886 99.9977C74.5886 99.9977 74.2622 99.9361 73.9622 99.5121C73.837 99.3353 73.7154 99.1025 73.6262 98.7749C73.5952 98.6627 73.5733 98.5482 73.5606 98.4325C73.5594 98.4453 73.559 98.4573 73.557 98.4697C73.5193 98.7164 73.3853 98.9381 73.1844 99.0861C72.9835 99.2341 72.7321 99.2964 72.4854 99.2593C72.2385 99.2214 72.0167 99.0873 71.8686 98.8862C71.7204 98.6851 71.658 98.4335 71.695 98.1865C71.7289 97.9673 71.8391 97.7671 72.0061 97.6212C72.1732 97.4752 72.3865 97.393 72.6083 97.3889C72.8301 97.3849 73.0462 97.4592 73.2185 97.5989C73.3908 97.7386 73.5083 97.9347 73.5502 98.1525C73.5786 97.2265 74.2542 96.6837 74.2542 96.6837C74.2622 96.7129 74.643 98.3249 76.7722 98.3249C76.6982 98.4845 76.6498 98.6337 76.6522 98.7489C76.6594 98.9569 76.7682 99.1485 76.8698 99.2805H76.765C76.5298 99.2805 75.9562 99.2861 75.9554 99.3353C76.4062 102.112 78.5778 103.756 80.2926 104.089C81.9682 104.414 82.889 103.949 83.5006 102.82C83.8886 102.997 84.3654 103.028 84.8706 102.609C84.1314 102.641 83.8106 102.193 83.7546 101.869C83.6078 101.019 84.1378 99.7301 84.3434 98.7521C84.5526 97.7737 85.2954 97.1745 85.8994 96.9101C86.5046 96.6453 87.1182 96.1153 87.3922 95.2937C87.665 94.4753 87.4778 93.9421 87.4474 93.7593C87.4154 93.5757 87.4954 93.4817 87.6114 93.4493ZM151.989 84.7037C151.991 84.7029 151.925 84.8965 151.925 84.8965C151.112 87.2405 149.606 89.4209 147.958 91.2521C146.76 92.5833 145.454 93.7961 144.061 94.9205C141.923 96.6453 139.493 98.0437 137.015 99.2141C134.553 100.376 131.972 101.299 129.351 102.026C125.249 103.164 120.911 103.76 116.623 104.001C116.275 103.332 115.888 102.685 115.464 102.061C129.245 101.075 138.316 95.6749 138.316 95.6749L138.385 95.6197C149.299 90.8849 151.923 84.8581 151.989 84.7037ZM77.5166 98.2769C79.2834 98.0681 82.6306 98.1117 83.4766 98.2581C83.4826 98.2511 83.489 98.2444 83.4958 98.2381C83.3531 98.4606 83.24 98.7008 83.1594 98.9525C83.0437 99.3094 82.9352 99.6686 82.8338 100.03C80.7978 99.4709 77.5578 99.2981 77.5578 99.2981C77.4654 99.1621 77.3698 98.9785 77.3646 98.7749C77.3618 98.6421 77.4246 98.4653 77.5166 98.2769ZM74.3158 58.6369C74.3158 58.6369 73.1882 65.6809 78.655 75.6929L78.6382 75.6629L78.6238 75.6369C78.6238 75.6369 82.5198 85.2737 92.7378 94.3121L93.0494 94.5857C92.3372 94.8308 91.639 95.1145 90.9578 95.4357C90.855 95.4845 89.8246 94.4581 89.6982 94.3457C88.6678 93.4348 87.6653 92.4928 86.6922 91.5209C84.4266 89.2549 82.337 86.8073 80.5054 84.1769C79.0178 82.0417 77.6822 79.7929 76.6022 77.4245C75.5462 75.1101 74.6858 72.7121 74.1474 70.2229C73.6406 67.8801 73.4158 65.4709 73.5426 63.0757C73.6174 61.6597 73.7898 60.1877 74.2478 58.8393L74.3158 58.6373V58.6369ZM98.9142 76.0065C98.9142 76.0065 99.875 76.4729 100.174 76.6477C100.174 76.6477 100.172 76.6577 100.169 76.6789C100.133 76.9477 99.8798 78.8645 99.8666 79.7869C99.8654 79.9285 99.8678 80.0469 99.8798 80.1313C99.8798 80.1313 98.6318 79.9153 98.0778 80.3793C98.0778 80.3793 98.3998 82.1529 99.2694 83.7129C100.137 85.2721 101.172 88.0089 101.556 89.1149C101.713 89.5689 102.021 90.0837 102.524 90.5993C103.215 90.2157 104.907 90.3353 106.751 90.9549C108.514 91.5469 109.89 92.4181 110.286 93.1237C110.92 93.0069 111.422 92.7949 111.791 92.5493C112.766 91.8997 115.239 90.3405 116.875 89.6205C118.508 88.9009 119.835 87.6805 119.835 87.6805C119.7 87.0973 118.911 86.6029 118.639 86.4461L118.677 86.4401C119.131 85.9813 120.376 83.7841 120.53 83.5121L120.546 83.4837C120.891 83.5257 121.936 83.7317 121.936 83.7317C121.936 83.7317 120.848 86.2617 120.204 87.3513C119.561 88.4365 119.038 88.8057 118.412 89.2481C117.786 89.6893 115.025 91.5141 114.293 92.0293C113.565 92.5449 111.625 94.2845 109.932 94.5853C109.092 94.7337 108.364 94.7517 107.672 94.6745C106.981 94.5965 106.326 94.4233 105.635 94.1921C105.63 94.1911 105.626 94.1893 105.622 94.1869C105.616 94.1857 105.611 94.1849 105.608 94.1837C104.225 93.7185 103.104 93.1549 101.943 91.9037C100.919 90.8013 100.411 88.7049 100.119 87.6277C100.084 87.4956 100.046 87.3642 100.005 87.2337C99.7342 86.3829 98.6334 83.2617 98.3998 82.5325C98.165 81.8021 97.9714 81.1925 98.115 79.9381C98.249 78.7601 98.8342 76.3357 98.907 76.0369C98.911 76.0169 98.9142 76.0065 98.9142 76.0065ZM114.629 83.2677C114.629 83.2677 115.255 82.8253 116.377 82.8789C116.377 82.8789 116.37 82.8857 116.37 82.8893L116.377 82.8853C116.345 82.9705 116.091 83.6677 116.023 84.2801C115.984 84.6585 115.8 85.6145 115.8 85.6217C115.471 86.7685 114.367 87.4017 114.267 87.3381C114.151 87.2637 113.999 86.9841 114.494 85.3981C114.494 85.3209 114.749 85.2289 114.806 85.2325C114.908 85.2145 115.011 85.2005 115.113 85.1829C115.113 85.1829 115.085 85.1229 114.979 84.9705C114.933 84.8957 114.813 84.8497 114.739 84.8073C114.653 84.7613 114.222 84.5701 114.222 84.5665C114.278 84.1171 114.413 83.6812 114.622 83.2793L114.629 83.2677ZM97.9018 69.8361C97.785 71.4573 98.6594 73.8041 99.6326 74.2921C100.602 74.7801 103.197 75.6369 104.206 76.7873C105.211 77.9377 105.239 79.1593 105.006 80.0261C104.931 80.3833 104.775 80.8081 104.652 81.1161C104.583 81.0989 104.513 81.087 104.443 81.0805C104.237 81.0557 103.912 81.0341 103.844 81.2893C103.841 81.2997 103.837 81.3073 103.837 81.3073C103.869 81.4165 103.894 81.5513 103.88 81.6257C103.862 81.7069 103.834 81.7817 103.82 81.8173C103.264 83.3777 102.97 83.5121 102.832 83.5013C102.715 83.4945 102.216 82.3197 102.645 81.2077C102.648 81.2009 102.651 81.1941 102.651 81.1869C102.871 80.6909 103.079 80.3301 103.275 80.0045C103.618 79.4381 103.837 78.6705 103.837 78.6705L103.844 78.6845V78.6737C104.131 78.8689 104.375 79.1057 104.602 79.3637C104.609 79.3713 104.612 79.3749 104.612 79.3785C104.715 79.5481 104.874 79.6785 104.966 79.8597C104.99 79.9034 105.004 79.9514 105.009 80.0009C105.086 79.7037 105.076 79.3429 104.962 79.0529C104.956 79.0421 104.956 79.0313 104.952 79.0209C104.531 77.8705 103.441 77.1945 102.428 76.6209C101.752 76.2389 101.048 75.9057 100.337 75.5949C98.2526 74.6781 98.2206 74.0693 97.9406 73.1069C97.9051 72.9694 97.878 72.8298 97.8594 72.6889C97.8206 72.3809 97.8098 72.0129 97.8098 71.6481C97.8098 70.7389 97.9018 69.8361 97.9018 69.8361ZM126.138 79.9057C126.131 79.9194 126.123 79.9322 126.113 79.9441C125.696 80.6881 125.133 81.4841 124.446 82.0009C123.646 82.6025 123.254 83.0661 121.035 82.5421C120.164 82.3333 119.283 82.1461 118.395 82.0361C117.258 81.8913 115.754 81.8521 114.926 82.8073C114.922 82.8149 114.919 82.8149 114.912 82.8217C114.904 82.8217 114.901 82.8289 114.898 82.8325C115.308 82.1285 116.048 81.4309 117.279 81.1765C118.777 80.8681 121.36 81.7457 122.433 81.9445C123.378 82.1177 125.133 81.0909 126.138 79.9057ZM112.435 74.1821C113.235 74.5025 113.68 75.3061 113.439 76.0261C113.287 76.4865 113.323 76.8545 113.357 77.3429L113.361 77.3573V77.3645C113.379 77.7569 113.467 77.9661 113.563 78.2349C113.659 78.4865 113.776 78.8865 113.627 79.2965L113.439 79.8557C113.188 80.6101 112.282 80.9817 111.419 80.6949C111.419 80.6909 111.999 80.5429 112.187 79.9869C112.19 79.9801 112.193 79.9725 112.193 79.9657C112.551 79.9125 112.863 79.7005 112.975 79.3605L113.174 78.7765C113.372 78.1785 112.93 77.9093 112.905 76.9433C112.869 76.4441 112.834 75.9589 113.029 75.3825C113.185 74.9145 112.923 74.3965 112.435 74.1821ZM110.317 74.9753C110.562 74.2605 111.401 73.8817 112.243 74.1189C111.723 73.9877 111.195 74.2465 111.039 74.7133C110.845 75.2937 110.516 75.6549 110.19 76.0301C109.585 76.7873 109.068 76.7341 108.87 77.3329L108.672 77.9165C108.559 78.2529 108.679 78.6069 108.927 78.8653C108.923 78.873 108.92 78.8814 108.919 78.8901C108.732 79.4493 109.107 79.9161 109.107 79.9161C108.247 79.6261 107.751 78.7841 108.003 78.0333L108.191 77.4741C108.321 77.0561 108.65 76.8049 108.884 76.6637C109.125 76.5077 109.32 76.3945 109.571 76.0937L109.581 76.0793C109.911 75.7113 110.165 75.4353 110.317 74.9753ZM125.459 73.1845L125.491 73.1877C125.491 73.1877 125.048 76.1753 124.319 77.3465C123.59 78.5217 122.893 79.6049 121.081 79.5057C121.081 79.5057 122.131 79.2017 121.796 78.3765C121.771 78.3165 121.753 78.2565 121.739 78.1925C122.224 77.9205 122.659 77.7149 123.056 77.3009C123.583 76.7521 124 76.0757 124.301 75.3825C124.432 75.0741 124.543 74.7593 124.631 74.4373C124.631 74.4373 124.865 73.3649 125.317 73.2057C125.367 73.1989 125.413 73.1913 125.459 73.1845ZM111.255 70.2645C111.641 71.1033 114.681 72.1225 115.513 71.6941C115.509 71.7121 115.432 72.8057 115.435 73.4569C115.439 74.1117 115.662 76.6421 116.77 77.3045C116.774 77.3045 116.497 77.6333 116.851 78.6633C116.766 78.6353 115.379 78.1221 114.88 76.9997C114.363 75.8457 114.866 72.7453 113.011 72.0977C111.142 71.4929 109.674 74.2709 108.562 74.8797C107.455 75.4881 105.982 75.0173 105.982 75.0173C106.836 74.4485 106.87 74.0369 106.87 73.9861V73.9809C108.151 74.1225 109.851 72.2393 110.25 71.7157C110.647 71.1957 111.255 70.2645 111.255 70.2645ZM102.397 65.4365L102.418 65.4509L102.425 65.4545C102.457 65.4865 102.493 65.5217 102.524 65.5573C102.79 65.9573 102.33 66.9517 102.33 66.9517C102.215 67.2414 102.119 67.5381 102.043 67.8401C101.777 68.8701 101.678 70.1477 102.103 71.1741C102.121 71.2093 102.39 71.6765 102.376 71.6909C102.351 71.7129 102.325 71.7329 102.297 71.7509C102.27 71.7712 102.242 71.7902 102.213 71.8077C101.476 72.2393 102.053 73.0677 102.099 73.1313C100.599 72.1225 100.691 70.8377 100.822 69.4613C100.949 68.0877 102.397 65.4365 102.397 65.4365ZM122.053 54.4937L122.463 54.6669C133.013 59.7421 130.688 67.7581 130.083 69.2905C129.534 70.6673 128.444 72.0265 127.967 72.8013C127.407 72.1893 126.653 71.2761 126.087 70.2533C126.399 69.7825 127.003 69.1417 127.676 68.2077C128.154 67.5385 129.024 65.7265 129.024 63.5113C129.024 60.9913 127.899 57.9441 123.797 55.4493C123.783 55.4378 123.768 55.4283 123.751 55.4209C123.7 55.3882 123.648 55.3575 123.595 55.3289C123.094 55.0267 122.579 54.748 122.053 54.4937ZM105.689 63.5789C107.451 63.1401 110.314 65.8085 111.999 67.2137C113.432 68.4809 114.059 68.6013 114.187 68.6365C114.317 68.6861 114.887 68.9685 116.787 68.8205C118.982 68.7177 122.875 68.3145 124.018 69.7301C124.018 69.7689 121.251 69.4577 119.385 69.7581C117.53 70.1513 114.898 70.4029 113.729 69.9957C112.555 69.6165 110.604 67.8261 109.365 66.3961C108.067 65.0401 105.688 63.6249 105.688 63.5789H105.689ZM111.679 51.9985C112.525 51.9985 113.431 52.0585 114.404 52.1965C114.755 52.2565 115.095 52.3241 115.423 52.3913L115.473 52.4021C105.397 50.6853 103.454 58.2449 103.419 60.0821C103.394 61.4233 103.483 62.3293 103.44 62.8669C101.975 63.4793 100.407 63.7021 100.407 63.7021C100.492 62.8529 100.489 60.9773 100.853 59.4981C101.197 58.1069 103.518 52.0341 111.679 51.9985Z" fill="#B1BABF"/>
<path fill-rule="evenodd" clip-rule="evenodd" d="M106.675 50.5191C111.962 48.3603 119.904 51.1911 119.975 51.2163C120.046 51.2375 128.09 53.7679 131.006 58.6803C133.937 63.6171 133.547 68.1119 131.774 71.3923C130.001 74.6767 128.295 76.5279 128.341 77.6247C128.384 78.7183 128.854 79.6175 128.854 79.6175C128.854 79.6175 126.823 83.6767 123.832 84.8235C123.832 84.8235 122.18 89.0951 120.396 90.5107C118.619 91.9267 115.965 93.3843 113.569 95.3027C112.624 96.0599 111.538 96.5271 110.38 96.7643C110.458 96.8211 110.532 96.8775 110.611 96.9343C115.427 96.8067 122.633 96.2227 130.175 94.1951C143.457 90.6203 156.074 78.4955 156.074 78.4955C152.917 88.8227 151.508 92.2343 143.273 98.0667C135.034 103.896 122.134 105.676 122.134 105.676C121.989 106.235 121.136 106.822 121.136 106.822C121.136 106.822 122.456 107.311 125.697 109.749C128.936 112.188 128.058 112.068 129.091 112.765C130.062 113.416 130.639 113.284 130.706 113.266L130.713 113.264C131.024 113.89 131.063 114.821 131.063 114.821C131.495 115.228 133.607 117.245 131.643 119.333C129.675 121.421 127.403 119.482 127.403 119.482C126.6 119.652 125.818 119.386 125.818 119.386C125.818 119.386 121.614 122.034 117.438 119.149C114.04 116.806 114.245 114.028 114.443 113.069C113.297 113.727 112.065 114.24 110.802 114.637C107.393 115.706 103.044 116.148 98.7225 114.711C95.8841 113.756 93.5345 112.099 91.6797 110.262C89.8217 108.422 88.4485 106.39 87.5533 104.561C87.4214 104.289 87.2963 104.014 87.1781 103.736C86.8805 104.444 85.4581 107.131 81.0517 106.939C75.9801 106.72 74.2213 102.073 74.2213 102.073C74.2213 102.073 73.4393 101.811 72.9013 101.195C72.9013 101.195 69.9213 101.372 69.6097 98.5199C69.3017 95.6671 72.2077 95.3347 72.7985 95.2707C72.7985 95.2707 73.3861 94.5487 74.0125 94.2375C74.0125 94.2375 74.3665 94.7507 75.6085 94.8175C76.8509 94.8851 76.0793 94.4495 80.1353 94.4603C84.1913 94.4675 85.5357 94.8779 85.5357 94.8779C85.5357 94.8779 85.2101 93.8939 85.4333 93.3599C85.4333 93.3599 76.2213 84.1579 73.1665 74.5387C70.1125 64.9195 71.0465 61.3523 74.7557 51.2091C74.7557 51.2091 77.5057 68.4903 85.9465 79.3483C90.7629 85.5455 96.1813 90.3763 99.9505 93.3843C100.035 93.3843 100.124 93.3883 100.209 93.3883C99.4057 92.4923 98.7929 91.4415 98.4889 90.2383C97.7349 87.2655 96.5001 84.5015 95.9337 82.2999C95.3673 80.0951 96.6273 75.6891 96.6273 75.6891C94.9353 72.9779 95.7601 68.5151 95.7601 68.5151C95.7601 68.5151 96.6769 68.0799 97.3741 67.2343C98.0677 66.3847 97.8269 63.8791 98.3933 60.1915C98.9597 56.5035 101.359 52.6883 106.675 50.5191ZM120.389 104.448C120.265 104.292 120.06 104.444 120.06 104.444C118.856 105.428 118.584 107.283 118.573 107.792C118.566 108.302 117.084 111.583 116.793 112.492C116.779 112.528 116.528 113.31 116.468 113.78C116.379 114.506 116.408 116.725 120 117.999C123.291 119.164 126.041 116.98 126.483 116.601C127.407 116.668 128.079 116.187 128.405 115.865C128.539 115.734 128.621 115.631 128.639 115.606C128.288 116.771 127.545 117.058 127.092 117.121C126.983 117.139 126.873 117.144 126.763 117.136C126.773 117.168 126.777 117.188 126.784 117.217C126.837 117.412 126.827 117.528 126.827 117.528C126.827 117.528 126.932 117.581 127.116 117.592C127.378 117.606 127.796 117.542 128.334 117.132C128.423 117.061 128.493 116.987 128.564 116.912C128.462 117.126 128.445 117.37 128.518 117.595C128.59 117.82 128.746 118.009 128.954 118.123C129.061 118.181 129.179 118.218 129.301 118.23C129.423 118.243 129.546 118.232 129.663 118.197C129.78 118.162 129.89 118.105 129.985 118.028C130.08 117.951 130.159 117.855 130.217 117.748C130.319 117.561 130.354 117.345 130.315 117.135C130.277 116.926 130.168 116.736 130.006 116.597C129.845 116.458 129.641 116.379 129.428 116.373C129.215 116.366 129.006 116.433 128.837 116.562C129.109 116.113 129.141 115.649 129.123 115.359C129.123 115.309 129.091 115.086 129.088 115.086L129.091 115.082C128.914 115.037 128.743 114.974 128.578 114.895C128.395 114.802 128.221 114.692 128.058 114.566C127.832 114.4 127.17 113.773 127.007 113.61C126.791 113.391 126.568 113.175 126.348 112.956C126.083 112.694 125.499 112.156 125.23 111.951L124.477 111.352C124.629 111.508 125.683 112.644 125.924 113.285C126.08 113.667 126.168 114.145 126.143 114.559C126.136 114.665 126.121 114.77 126.097 114.874C126.097 114.874 126.101 114.881 126.104 114.881C126.101 114.881 126.097 114.877 126.094 114.877C126.059 115.047 126.006 115.196 125.934 115.288C125.804 115.448 125.598 115.536 125.442 115.582C125.446 115.582 125.45 115.586 125.453 115.589C125.69 115.777 125.934 115.946 126.136 116.176C124.101 118.116 121.38 118.119 119.808 117.348C118.276 116.598 117.823 115.67 118.018 114.393C117.604 114.304 117.204 114.046 117.051 113.409C117.066 113.419 117.083 113.426 117.098 113.441C117.452 113.727 118.028 113.83 118.386 113.49C118.708 113.186 118.959 112.683 119.186 112.142C119.391 111.646 119.568 111.137 119.798 110.652C119.889 110.452 119.953 110.242 119.989 110.025C120.092 109.42 119.964 108.776 119.667 108.242C119.345 107.665 119.175 106.872 119.451 106.051C119.731 105.234 120.198 104.922 120.332 104.795C120.47 104.671 120.463 104.543 120.389 104.448ZM120.177 108.674C120.488 109.126 120.863 109.874 120.789 110.779C120.789 110.779 120.718 111.246 120.623 111.522C120.497 111.876 120.366 112.228 120.23 112.577C122.039 113.391 123.751 114.407 124.88 115.178C125.039 115.125 125.224 115.037 125.351 114.878C125.432 114.771 125.489 114.594 125.528 114.389C125.609 113.978 125.592 113.419 125.372 112.818C125.188 112.294 124.784 111.728 124.388 111.289C124.339 111.25 124.285 111.214 124.236 111.176C123.831 110.886 123.418 110.607 122.997 110.34C122.412 109.964 121.817 109.603 121.213 109.258C120.927 109.091 120.64 108.932 120.35 108.769C120.29 108.734 120.233 108.706 120.177 108.674ZM104.941 96.1239C97.9261 93.7703 90.3173 97.2491 88.6465 99.3619C88.5758 99.4456 88.5131 99.5357 88.4593 99.6311C88.4521 99.6415 88.4485 99.6631 88.4377 99.6699C88.4377 99.6699 88.3953 99.7339 88.3497 99.8647C87.6841 101.854 91.7149 110.305 99.3241 112.86C106.94 115.416 115.172 111.331 115.915 109.116C115.968 108.956 115.979 108.826 115.979 108.826C116.053 108.302 115.937 107.555 115.647 106.681C114.514 103.319 110.749 98.0739 104.941 96.1239ZM109.383 103.141C112.056 104.708 114.045 106.395 115.059 107.602C113.573 106.506 111.641 105.289 109.371 104.134C109.386 103.803 109.39 103.472 109.383 103.141ZM87.6097 93.4483C87.4965 93.4803 87.4149 93.5755 87.4469 93.7595C87.4789 93.9403 87.6665 94.4747 87.3905 95.2919C87.1177 96.1167 86.5057 96.6439 85.9005 96.9095C85.2953 97.1747 84.5521 97.7731 84.3433 98.7535C84.1377 99.7299 83.6073 101.018 83.7553 101.868C83.8089 102.193 84.1309 102.64 84.8705 102.611C84.3645 103.029 83.8905 102.997 83.5009 102.82C82.8889 103.949 81.9685 104.412 80.2909 104.087C78.5781 103.758 76.4049 102.112 75.9553 99.3335C75.9553 99.2867 76.5305 99.2811 76.7653 99.2807H76.8685C76.7693 99.1495 76.6597 98.9551 76.6525 98.7499C76.6493 98.6331 76.6989 98.4843 76.7729 98.3251C76.7909 98.3003 76.8649 98.1623 76.8793 98.1375C77.0845 97.7519 77.4809 97.3871 77.8561 97.1679C77.8597 97.1639 77.8629 97.1607 77.8665 97.1607C78.5213 96.7679 79.5477 96.5307 80.1985 96.4955C80.2165 96.4915 79.9689 96.4847 79.8449 96.4883C79.0381 96.4919 78.2345 96.5695 77.4349 96.6831C76.7269 96.7819 76.0477 96.9023 75.3965 96.8991C75.1937 96.8978 74.9913 96.8801 74.7913 96.8459C74.6069 96.8101 74.4266 96.7556 74.2533 96.6831C74.2533 96.6831 73.5773 97.2243 73.5489 98.1515C73.513 97.9602 73.4184 97.7849 73.2782 97.6498C73.1381 97.5148 72.9594 97.4267 72.7669 97.3979C72.6446 97.3791 72.5199 97.3846 72.3997 97.4142C72.2796 97.4437 72.1665 97.4966 72.0669 97.5699C71.9673 97.6432 71.8831 97.7355 71.8192 97.8414C71.7553 97.9473 71.7129 98.0648 71.6945 98.1871C71.6581 98.4343 71.7211 98.6858 71.8697 98.8867C72.0182 99.0876 72.2403 99.2215 72.4873 99.2591C72.7336 99.2957 72.9843 99.2333 73.1846 99.0854C73.3849 98.9376 73.5185 98.7164 73.5561 98.4703C73.5597 98.4559 73.5597 98.4455 73.5597 98.4311C73.5737 98.5411 73.5949 98.6579 73.6269 98.7747C73.7149 99.1035 73.8357 99.3335 73.9629 99.5107C74.2601 99.9355 74.5893 99.9987 74.5893 99.9987C74.5933 99.9987 74.6353 99.9387 74.6389 99.9319C74.6601 99.9071 74.8373 99.7231 74.8725 99.7231C74.6533 99.5779 73.7469 98.8807 74.2993 97.3695C74.2993 97.3695 74.2673 98.7427 75.4033 99.4719C75.5273 100.038 76.4193 103.436 79.7493 104.49C83.3841 105.648 84.7821 103.913 85.1113 103.258C85.2561 102.961 85.6277 102.034 85.6277 102.034C85.9429 101.132 86.7425 97.6207 87.0437 97.2103C87.3409 96.7999 88.2433 95.1575 87.8789 93.6463C87.8789 93.6463 87.8045 93.3983 87.6097 93.4483ZM151.989 84.7031C151.975 84.7311 151.54 85.0923 150.836 85.6623C150.535 85.9099 150.202 86.1787 149.827 86.4763C145.729 89.7143 137.175 95.5363 123.248 98.0419C119.872 98.6471 116.432 98.9799 113.08 99.1283C113.618 99.6808 114.125 100.262 114.599 100.87C114.599 100.87 116.064 100.76 116.266 100.742C118.793 100.53 121.32 100.226 123.818 99.7727C129.997 98.6579 134.669 97.0791 136.884 96.2439C137.404 96.0387 137.901 95.8299 138.385 95.6175L138.318 95.6743C138.318 95.6743 129.244 101.075 115.466 102.062C115.888 102.687 116.274 103.334 116.623 104.002C120.909 103.761 125.248 103.163 129.35 102.027C131.972 101.298 134.552 100.378 137.015 99.2135C139.493 98.0455 141.924 96.6439 144.062 94.9203C145.452 93.7951 146.758 92.5843 147.958 91.2503C149.608 89.4207 151.112 87.2407 151.926 84.8979L151.986 84.7139L151.989 84.7031ZM80.2945 96.4919C79.7177 96.6051 79.0521 96.8103 78.5885 97.1183C78.0469 97.4687 77.7005 97.9039 77.5165 98.2755C77.4245 98.4667 77.3605 98.6435 77.3641 98.7747C77.3713 98.9799 77.4665 99.1603 77.5589 99.2983C77.5589 99.2983 80.7969 99.4719 82.8353 100.031C82.9133 99.7407 83.0193 99.3831 83.1577 98.9515C83.2457 98.6755 83.3665 98.4455 83.4973 98.2367C83.9857 97.4647 84.7077 97.1219 85.2349 96.9487C84.3573 96.8067 83.3309 96.6899 82.4497 96.6123C82.0104 96.5727 81.5703 96.5421 81.1297 96.5203C80.8537 96.5059 80.5737 96.4987 80.2945 96.4919ZM89.7113 99.1447C91.2833 98.7959 93.9705 98.6315 97.1365 99.0087C96.9282 99.2701 96.7291 99.5385 96.5393 99.8135C93.9553 99.3523 91.6081 99.1615 89.7113 99.1447ZM74.3169 58.6375L74.2461 58.8395C73.7897 60.1875 73.6161 61.6599 73.5421 63.0755C73.4141 65.4715 73.6409 67.8819 74.1469 70.2211C74.6849 72.7127 75.5449 75.1087 76.6029 77.4231C77.6829 79.7943 79.0169 82.0415 80.5069 84.1759C82.3365 86.8051 84.4281 89.2543 86.6933 91.5195C87.6654 92.4928 88.6673 93.4358 89.6977 94.3471C89.8253 94.4567 90.8549 95.4831 90.9577 95.4371C91.639 95.1154 92.3372 94.8307 93.0493 94.5843C82.7613 85.6123 78.7513 75.9439 78.6277 75.6431L78.6557 75.6927C78.7833 75.9263 78.9105 76.1599 79.0485 76.3967C79.3033 76.8143 79.6221 77.3699 80.0361 78.0459C82.0181 81.2171 84.6477 84.6287 88.1761 88.1783C88.1865 88.1891 92.5681 92.5103 94.4365 94.1559C95.1836 93.9533 95.941 93.7904 96.7053 93.6679C94.1041 91.5159 91.5381 89.1587 89.1917 86.6211C77.3429 73.7811 75.0777 61.8439 74.3169 58.6375ZM98.9137 76.0075C98.9137 76.0075 98.9097 76.0183 98.9065 76.0355C98.8321 76.3367 98.2481 78.7611 98.1137 79.9395C98.0961 80.0955 98.0857 80.2403 98.0785 80.3783C98.0217 81.3443 98.1917 81.8931 98.4005 82.5335C98.6341 83.2627 99.7345 86.3843 100.004 87.2335C100.039 87.3399 100.078 87.4743 100.12 87.6263C100.41 88.7059 100.92 90.8011 101.943 91.9051C103.104 93.1543 104.226 93.7171 105.61 94.1843C105.61 94.1843 105.616 94.1843 105.62 94.1879C105.627 94.1879 105.631 94.1915 105.635 94.1915C106.325 94.4251 106.979 94.5947 107.673 94.6727C108.363 94.7507 109.092 94.7327 109.931 94.5843C111.626 94.2835 113.565 92.5459 114.294 92.0291C115.024 91.5123 117.788 89.6895 118.411 89.2471C119.037 88.8047 119.561 88.4367 120.205 87.3503C120.849 86.2603 121.935 83.7299 121.935 83.7299C121.935 83.7299 120.891 83.5247 120.544 83.4819C120.544 83.4819 120.541 83.4927 120.53 83.5103C120.374 83.7831 119.129 85.9807 118.676 86.4407C118.676 86.4407 118.662 86.4407 118.641 86.4479C118.478 86.4759 117.83 86.6039 117.508 86.8439C117.136 87.1167 115.792 89.1163 114.032 89.8703C114.199 88.8791 113.559 88.3663 113.392 88.3839C113.229 88.4015 113.102 88.7907 113.066 88.8899C113.031 88.9891 112.691 89.6579 112.578 89.9727C112.461 90.2879 112.497 90.3127 112.497 90.3127C112.215 90.3028 111.933 90.2875 111.651 90.2667C111.912 89.7684 112.157 89.262 112.387 88.7483C112.534 88.3671 112.183 88.2555 112.115 88.2379L112.104 88.2351L112.1 88.2315C111.848 88.1943 111.597 88.1519 111.347 88.1043H111.322C111.006 88.0475 110.816 88.2459 110.777 88.3659C110.745 88.4439 110.713 88.5251 110.681 88.6031C110.564 88.8791 110.44 89.1591 110.32 89.4351C110.316 89.4527 110.313 89.4703 110.303 89.4843C110.161 89.8347 110.281 90.1283 110.281 90.1283C110.185 90.1215 109.952 90.1283 109.556 90.0507C109.372 90.0119 109.124 89.9019 109.124 89.9019C109.262 89.7887 109.347 89.5727 109.347 89.5727C109.598 88.9607 109.984 88.0123 109.984 88.0123C109.984 88.0123 110.136 87.6015 109.87 87.5239C109.51 87.4346 109.151 87.3366 108.794 87.2299C108.522 87.1699 108.405 87.3927 108.377 87.4671C108.32 87.6087 108.225 87.8315 108.189 87.9311C108.052 88.3235 107.917 88.7127 107.782 89.0987C107.782 89.1059 107.782 89.1091 107.779 89.1163C107.694 89.3643 107.761 89.6011 107.761 89.6011C107.761 89.6011 107.414 89.5303 107.234 89.4811C107.05 89.4347 106.774 89.2403 106.774 89.2403C106.82 89.1979 106.873 89.0703 106.912 88.9819C107.075 88.4015 107.234 87.6759 107.372 87.0671C107.382 86.9823 107.386 86.7311 107.128 86.6247C106.824 86.5125 106.522 86.3945 106.222 86.2707C105.956 86.1895 105.84 86.4091 105.797 86.5363C105.674 87.0966 105.557 87.6582 105.447 88.2211C105.423 88.4171 105.462 88.6155 105.56 88.7871C105.419 88.7551 105.135 88.6311 104.909 88.5359C104.757 88.4719 104.428 88.2527 104.428 88.2527C104.597 88.2387 104.693 87.8775 104.693 87.8775C104.88 87.4847 105.008 87.1451 105.157 86.7735C105.16 86.7559 105.171 86.7415 105.174 86.7239L105.189 86.6887C105.334 86.2955 105.061 86.0867 105.015 86.0551C104.619 85.8567 104.173 85.6231 104.169 85.6231C103.943 85.5031 103.794 85.6623 103.744 85.8179C103.588 86.2603 103.344 86.6639 103.26 87.1523C103.22 87.4283 103.242 87.6191 103.242 87.6191C102.704 87.3643 102.506 86.9575 102.506 86.9575C102.633 86.8055 102.806 86.2603 102.81 85.7543C102.814 85.2447 102.846 84.7703 102.608 84.6003C102.371 84.4343 101.975 84.8587 101.77 85.1631C101.568 85.4639 101.522 85.6411 101.522 85.6411V85.6799C100.567 84.0163 100.701 81.6027 100.57 81.1603C100.439 80.7179 99.8797 80.1307 99.8797 80.1307C99.8685 80.0166 99.8638 79.9018 99.8657 79.7871C99.8797 78.8635 100.134 76.9491 100.17 76.6799C100.172 76.6694 100.173 76.6587 100.174 76.6479C99.8761 76.4711 98.9137 76.0079 98.9137 76.0079V76.0075ZM111.679 51.9983C103.518 52.0335 101.197 58.1067 100.853 59.4975C100.489 60.9771 100.492 62.8527 100.407 63.7019C100.407 63.7019 101.975 63.4791 103.44 62.8667C104.233 62.5411 104.997 62.1203 105.582 61.5575C105.447 61.7131 103.246 64.2187 100.892 64.4843C100.892 64.4843 100.375 66.7527 99.7453 67.8995C99.1225 69.0495 97.9013 69.8355 97.9013 69.8355C97.9013 69.8355 97.8093 70.7379 97.8093 71.6475C97.8093 72.0119 97.8201 72.3799 97.8589 72.6875C97.8801 72.8435 97.9085 72.9851 97.9405 73.1055C98.2201 74.0679 98.2517 74.6767 100.337 75.5935C101.048 75.9047 101.752 76.2375 102.428 76.6199C103.44 77.1931 104.53 77.8691 104.951 79.0191C104.955 79.0299 104.955 79.0407 104.962 79.0511C105.075 79.3415 105.086 79.7023 105.008 79.9995C105.004 79.9499 104.989 79.9018 104.965 79.8579C104.874 79.6779 104.714 79.5467 104.612 79.3767C104.612 79.3731 104.609 79.3695 104.601 79.3627C104.375 79.1043 104.13 78.8671 103.844 78.6723V78.6831L103.837 78.6691C103.837 78.6691 103.617 79.4371 103.274 80.0031C103.079 80.3287 102.871 80.6899 102.651 81.1851C102.651 81.1923 102.647 81.1995 102.644 81.2063C102.216 82.3179 102.715 83.4927 102.832 83.4999C102.969 83.5103 103.263 83.3759 103.819 81.8151C103.833 81.7799 103.861 81.7055 103.879 81.6239C103.893 81.5499 103.869 81.4151 103.837 81.3055C103.837 81.3055 103.84 81.2983 103.844 81.2879C103.911 81.0331 104.237 81.0543 104.442 81.0791C104.513 81.0863 104.583 81.0967 104.651 81.1143C104.683 81.1215 104.711 81.1287 104.735 81.1355C104.948 81.2099 105.065 81.3551 105.061 81.4331C105.061 81.4331 104.948 81.5039 104.863 81.6347C104.781 81.7655 104.64 82.1019 104.601 82.1939C104.459 82.5443 104.357 82.8275 104.237 83.1779C104.229 83.1883 104.229 83.1991 104.229 83.2099C104.129 83.5059 104.382 83.6319 104.443 83.6579L104.456 83.6627C104.456 83.6663 104.491 83.6767 104.495 83.6767C104.786 83.7308 105.076 83.7887 105.365 83.8503C105.365 83.8503 105.773 83.9243 105.911 83.5599C106.041 83.1743 106.154 82.8559 106.3 82.4699C106.307 82.4487 106.317 82.4239 106.328 82.4027V82.3991L106.339 82.3743C106.339 82.3743 106.427 82.1091 106.466 81.9495C106.501 81.8011 106.657 81.5463 106.799 81.5463C106.947 81.5463 107.149 81.6171 107.128 81.9179C107.107 82.2187 107.046 82.4167 107.036 82.4523C107.032 82.4662 107.03 82.4804 107.029 82.4947C106.894 82.9691 106.622 83.9667 106.622 83.9667C106.491 84.3491 106.909 84.4695 106.909 84.4695C107.163 84.5403 107.545 84.6003 107.815 84.6815C107.832 84.6855 107.847 84.6891 107.868 84.6923C107.868 84.6923 108.186 84.7951 108.299 84.7523C108.416 84.7103 108.491 84.5331 108.511 84.4763C108.529 84.4203 108.954 82.9371 109 82.7779C109.032 82.6575 109.018 82.4167 108.954 82.2787C108.975 82.2827 109.361 82.3495 109.577 82.4203C109.757 82.4843 109.998 82.5795 110.118 82.6715C109.934 82.7635 109.814 83.0679 109.803 83.1103C109.8 83.1175 109.797 83.1211 109.797 83.1247C109.768 83.2239 109.732 83.3191 109.704 83.4147C109.57 83.8219 109.392 84.3419 109.255 84.7527C109.234 84.8623 109.212 85.1347 109.531 85.2551L109.58 85.2727C109.846 85.3719 110.183 85.4923 110.43 85.5915C110.43 85.5915 110.511 85.6235 110.614 85.6235C110.738 85.6235 110.89 85.5771 110.961 85.3647C111.025 85.1703 111.17 84.7383 111.297 84.3455C111.421 83.9563 111.534 83.6023 111.538 83.5599C111.541 83.4855 111.63 83.3479 111.682 83.3015C111.828 83.2911 111.934 83.3123 112.033 83.3615C112.15 83.4183 112.284 83.5635 112.337 83.6167C112.26 83.7511 112.136 84.0943 112.104 84.2819C112.079 84.4411 111.892 85.1243 111.803 85.4427C111.792 85.4675 111.785 85.5027 111.775 85.5311C111.768 85.5419 111.771 85.5523 111.768 85.5667C111.764 85.5771 111.76 85.5843 111.764 85.5915C111.714 85.9207 112.033 86.0867 112.033 86.0867C112.316 86.2215 112.589 86.3523 112.837 86.4763C112.837 86.4763 112.872 86.4903 112.875 86.4903C112.875 86.4903 113.215 86.5999 113.329 86.2639C113.332 86.2549 113.336 86.2464 113.342 86.2391C113.456 85.8851 113.545 85.5911 113.643 85.2303C113.668 85.1315 113.696 85.0323 113.722 84.9331C113.73 84.908 113.735 84.8817 113.736 84.8551C113.742 84.8303 113.792 84.6535 113.806 84.5439C113.817 84.4871 113.817 84.4343 113.813 84.3951C113.813 84.3951 114.001 84.4695 114.22 84.5651C114.22 84.5687 114.652 84.7599 114.737 84.8059C114.811 84.8483 114.932 84.8939 114.978 84.9719C115.084 85.1207 115.112 85.1807 115.112 85.1807L114.804 85.2303C114.748 85.2267 114.492 85.3187 114.492 85.3967C113.997 86.9823 114.149 87.2619 114.266 87.3363C114.365 87.3999 115.469 86.7699 115.799 85.6231C115.799 85.6127 115.982 84.6571 116.022 84.2783C116.089 83.6663 116.344 82.9691 116.376 82.8839L116.368 82.8879C116.368 82.8839 116.376 82.8771 116.376 82.8771C115.254 82.8239 114.627 83.2663 114.627 83.2663C114.698 83.0963 114.801 82.9511 114.911 82.8203C114.917 82.8131 114.921 82.8131 114.925 82.8063C115.753 81.8503 117.256 81.8895 118.392 82.0343C119.281 82.1443 120.162 82.3319 121.033 82.5407C123.255 83.0647 123.645 82.6007 124.445 81.9991C125.135 81.4827 125.697 80.6863 126.115 79.9431C126.122 79.9287 126.133 79.9183 126.14 79.9039C126.324 79.6211 126.451 79.4159 126.451 79.4159C126.451 79.4159 125.949 78.0531 126.143 76.7579C126.342 75.4659 127.294 73.3391 127.294 73.3391C125.524 71.6615 125.319 68.1719 125.319 68.1719C125.428 68.8799 125.715 69.5879 126.087 70.2531C126.653 71.2759 127.407 72.1891 127.966 72.8011C128.444 72.0259 129.534 70.6671 130.082 69.2903C130.688 67.7579 133.013 59.7419 122.463 54.6667L122.053 54.4935C121.826 54.3835 121.606 54.2847 121.397 54.1891C121.198 54.099 120.996 54.014 120.792 53.9343C120.647 53.8743 120.509 53.8211 120.378 53.7715C120.276 53.7323 120.181 53.6971 120.092 53.6615C119.838 53.5678 119.582 53.4806 119.324 53.3999C119.284 53.3855 119.249 53.3751 119.211 53.3607C118.821 53.2367 117.331 52.7875 115.473 52.4019L115.423 52.3911C115.085 52.3208 114.745 52.2559 114.404 52.1963C113.502 52.0663 112.591 52.0001 111.679 51.9983ZM111.039 74.7131C111.195 74.2463 111.723 73.9875 112.243 74.1187C112.275 74.1259 112.307 74.1327 112.335 74.1435C112.37 74.1547 112.402 74.1687 112.435 74.1819C112.923 74.3967 113.185 74.9147 113.029 75.3819C112.834 75.9587 112.869 76.4439 112.904 76.9431C112.929 77.9091 113.372 78.1783 113.174 78.7767L112.975 79.3607C112.862 79.7003 112.551 79.9123 112.193 79.9655C112.027 79.9867 111.85 79.9867 111.673 79.9303C111.125 79.7463 110.817 79.1867 110.987 78.6879C111.015 78.6031 110.965 78.5111 110.877 78.4787C110.836 78.4649 110.791 78.4676 110.752 78.4862C110.713 78.5048 110.683 78.5378 110.668 78.5783C110.502 79.0807 109.918 79.3391 109.366 79.1551C109.189 79.0951 109.047 78.9887 108.927 78.8651C108.679 78.6067 108.558 78.2531 108.672 77.9163L108.87 77.3323C109.068 76.7339 109.585 76.7871 110.19 76.0299C110.516 75.6547 110.845 75.2939 111.04 74.7131H111.039ZM115.513 71.6939C115.513 71.6939 115.527 71.7119 115.535 71.7223C115.736 72.005 115.963 72.2681 116.214 72.5079C116.281 72.5755 116.352 72.6391 116.426 72.7031C116.43 72.7063 116.437 72.7099 116.44 72.7167C116.717 72.9471 117.042 73.1591 117.418 73.2835C118.56 73.6691 120.227 73.3963 122.015 73.0707C122.171 73.0467 122.322 73.0251 122.475 73.0067C124.078 72.8235 125.487 73.1775 125.487 73.1775L125.491 73.1875L125.459 73.1843C125.412 73.1911 125.367 73.1987 125.317 73.2055C124.864 73.3647 124.631 74.4375 124.631 74.4375C124.542 74.7595 124.432 75.0752 124.301 75.3823C124 76.0755 123.583 76.7519 123.056 77.3007C122.659 77.7147 122.224 77.9199 121.739 78.1927L121.735 78.1887C121.729 78.1887 121.456 78.2739 121.311 78.2911C120.213 78.4263 117.906 78.0723 116.799 77.3147C116.787 77.3107 116.78 77.3075 116.774 77.3043C115.662 76.6419 115.439 74.1115 115.435 73.4563C115.432 72.8055 115.509 71.7119 115.513 71.6939ZM102.407 65.4367C102.489 65.4687 103.773 66.0311 104.906 67.1107C105.019 67.2171 105.129 67.3267 105.235 67.4399C106.467 68.7779 107.631 70.0023 108.775 70.3847C109.147 70.5087 109.539 70.5367 109.897 70.5195C109.9 70.5195 109.907 70.5195 109.915 70.5155C110.013 70.5119 110.109 70.5051 110.201 70.4943C110.558 70.4486 110.911 70.3717 111.255 70.2643C111.255 70.2643 110.647 71.1955 110.251 71.7155C109.851 72.2391 108.151 74.1223 106.87 73.9807C106.86 73.9807 106.849 73.9735 106.839 73.9735C105.497 73.9063 103.441 72.7983 102.648 72.0303C102.542 71.9243 102.379 71.6943 102.376 71.6943C102.351 71.7151 102.325 71.734 102.297 71.7507C102.325 71.7331 102.351 71.7119 102.376 71.6907C102.39 71.6763 102.12 71.2091 102.102 71.1739C101.678 70.1475 101.777 68.8699 102.043 67.8399C102.121 67.5391 102.213 67.2419 102.33 66.9519C102.33 66.9519 102.79 65.9567 102.524 65.5571C102.492 65.5215 102.457 65.4863 102.425 65.4543L102.418 65.4507C102.418 65.4475 102.414 65.4439 102.407 65.4367Z" fill="#0A0B09"/>
<path fill-rule="evenodd" clip-rule="evenodd" d="M115.136 109.564C112.316 111.341 106.024 112.985 99.9645 110.953C94.0173 108.956 90.0653 103.872 88.7997 100.776C88.6517 100.455 88.6129 99.5875 89.4817 99.1855C89.4817 99.1855 88.9329 99.2635 88.4385 99.6695C88.4385 99.6695 88.3949 99.7335 88.3505 99.8659C87.6849 101.852 91.7149 110.305 99.3249 112.86C106.939 115.415 115.174 111.331 115.917 109.117C115.968 108.956 115.978 108.827 115.978 108.827C115.805 108.285 115.475 107.947 115.475 107.947C115.898 108.746 115.464 109.332 115.136 109.564" fill="#C2242B"/>
<path fill-rule="evenodd" clip-rule="evenodd" d="M109.371 104.134C109.367 104.229 109.362 104.326 109.357 104.422C109.106 104.294 108.853 104.168 108.595 104.043C108.5 104.621 108.357 105.191 108.167 105.746C107.785 105.525 107.397 105.312 107.005 105.109C107.177 104.574 107.313 104.033 107.416 103.488C106.996 103.298 106.568 103.111 106.131 102.928C106.014 103.45 105.875 103.967 105.715 104.477C105.314 104.291 104.909 104.114 104.501 103.946C104.66 103.446 104.804 102.946 104.935 102.448C104.503 102.281 104.068 102.121 103.631 101.968C103.478 102.456 103.322 102.944 103.162 103.43C102.748 103.28 102.33 103.14 101.909 103.009C102.075 102.52 102.245 102.037 102.416 101.561C101.975 101.421 101.531 101.287 101.085 101.16C100.888 101.64 100.702 102.125 100.529 102.614C100.103 102.501 99.6736 102.397 99.2422 102.303C99.4207 101.803 99.6204 101.31 99.8406 100.826C99.3806 100.709 98.925 100.601 98.475 100.502C98.2288 100.998 98.0137 101.508 97.831 102.031C97.3952 101.956 96.9576 101.891 96.5187 101.837C96.7 101.286 96.9269 100.751 97.1971 100.238C96.9171 100.184 96.6367 100.133 96.3559 100.085C96.4159 99.9938 96.4775 99.9034 96.5395 99.8138C93.9555 99.3526 91.6083 99.1618 89.7115 99.145C91.2835 98.7962 93.9707 98.6318 97.1367 99.009C97.1607 98.9782 97.1842 98.947 97.2086 98.9174C97.4494 98.9454 97.6926 98.9774 97.9378 99.0126C98.1557 98.6972 98.3871 98.3915 98.6315 98.0962C99.0407 98.1486 99.4407 98.209 99.8323 98.2746C99.6087 98.581 99.396 98.8952 99.1946 99.2166C99.6286 99.2954 100.068 99.3854 100.513 99.4854C100.694 99.1538 100.883 98.8286 101.077 98.5118C101.451 98.5922 101.818 98.6786 102.179 98.771C102.012 99.1034 101.849 99.4385 101.692 99.7762C102.106 99.8866 102.522 100.007 102.941 100.137C103.073 99.7866 103.205 99.4406 103.337 99.1006C103.688 99.2098 104.036 99.3262 104.382 99.4506C104.282 99.8014 104.179 100.157 104.072 100.516C104.485 100.663 104.889 100.817 105.286 100.977C105.365 100.611 105.437 100.247 105.502 99.887C105.849 100.031 106.192 100.183 106.539 100.345C106.503 100.715 106.458 101.084 106.404 101.451C106.818 101.637 107.222 101.827 107.616 102.023C107.647 101.65 107.667 101.277 107.673 100.907C108.026 101.09 108.381 101.284 108.739 101.488C108.756 101.862 108.757 102.236 108.741 102.609C108.958 102.727 109.17 102.846 109.379 102.966C109.381 103.024 109.382 103.083 109.383 103.141C112.056 104.708 114.045 106.395 115.059 107.603C113.573 106.507 111.641 105.289 109.371 104.134H109.371ZM104.941 96.1242C97.9282 93.7714 90.3183 97.2482 88.6455 99.361C88.5775 99.447 88.5134 99.537 88.4594 99.6322C88.4538 99.6422 88.4475 99.6622 88.4395 99.6694C88.9335 99.2638 89.4823 99.1854 89.4823 99.1854C88.6135 99.5878 88.6523 100.455 88.8003 100.777C90.0659 103.872 94.0179 108.956 99.9651 110.953C106.025 112.985 112.317 111.341 115.136 109.565C115.464 109.332 115.899 108.746 115.475 107.947C115.475 107.947 115.806 108.285 115.979 108.827C116.052 108.301 115.937 107.555 115.645 106.683C114.515 103.321 110.749 98.073 104.941 96.1242Z" fill="#DC4405"/>
</g>
<defs>
<clipPath id="clip0_106_4554">
<rect width="200" height="200" fill="white"/>
</clipPath>
</defs>
</svg>
