<svg width="200" height="200" viewBox="0 0 200 200" fill="none" xmlns="http://www.w3.org/2000/svg">
<g clip-path="url(#clip0_106_4349)">
<path d="M65.9816 111.558C66.1696 113.813 66.9708 118.3 69.5636 123.306C72.7676 129.488 79.4796 137.732 93.3232 142.401C95.5336 145.872 98.1189 149.089 101.032 151.995C111.556 162.493 125.535 168.264 140.394 168.241C155.256 168.22 169.218 162.41 179.71 151.878C190.202 141.351 195.972 127.364 195.948 112.495C195.925 97.6228 190.118 83.6532 179.597 73.1548C171.259 64.8356 160.8 59.4836 149.294 57.6268C133.716 43.5132 115.531 48.5704 114.751 48.7972C114.489 48.8708 114.1 48.9836 113.615 49.1308C108.018 50.9936 105.124 48.8592 103.249 47.3884C101.172 45.7584 98.9044 44.1032 96.7168 42.8728C89.2868 38.6908 78.7268 38.5416 69.8328 42.1296C63.974 44.1264 61.02 41.5436 59.2728 40.3364C47.6696 32.326 33.4032 30.4144 18.268 33.7484C8.0764 35.9956 4 38.07 4 38.07C4 38.07 10.982 39.0828 18.276 42.1336C24.2648 44.6368 29.026 47.8504 32.6312 53.6216C32.6312 53.6216 34.9004 56.9556 33.4264 57.9392C31.776 59.0396 30.0576 56.346 30.0576 56.346C30.0012 58.2844 30.0012 60.2136 30.1292 61.6784C30.9672 77.0728 34.1048 86.3192 41.5252 93.3848C44.9016 96.5984 50.5976 99.7244 59.3988 103.184C63.4132 104.791 65.5856 106.85 65.9812 111.558" fill="#FFFFFE"/>
<path d="M177.087 75.6696C169.016 67.6164 158.77 62.536 147.68 60.976C133.222 47.134 115.738 52.2068 115.738 52.2068C119.443 52.758 121.903 54.968 120.955 57.4172C120.325 59.0356 117.635 59.1208 116.405 59.1328C112.499 59.1756 109.127 56.7788 106.435 54.59C103.636 52.312 99.0686 48.2696 94.9766 45.9684C87.3586 41.6816 75.2626 42.2156 66.5082 47.808C71.7426 48.1632 78.0417 49.6708 81.7981 52.7836C83.8945 54.5224 86.5689 58.0172 84.3813 59.6492C82.4593 61.0852 77.7369 60.344 75.3361 58.9524C71.5193 56.742 68.0809 53.3908 66.0213 50.9612C52.1645 34.6276 32.5337 33.7156 16.3438 37.7172C26.9698 40.7016 34.0601 46.758 38.4393 57.1984C42.8205 67.6384 46.2221 72.0824 53.4385 74.9116C57.9573 76.6812 59.1794 77.0092 58.8262 79.014C58.3066 81.948 52.9538 80.5392 48.8714 78.944C43.897 77.0016 37.3437 71.636 33.4413 61.5724C34.1513 74.5932 36.6337 83.8264 43.9685 90.8124C47.0853 93.7776 52.8081 96.8456 61.7645 100.294C67.4817 102.496 72.0085 103.83 76.2673 107.647C81.2341 112.098 79.1182 115.038 75.8234 114.481C72.0958 113.852 69.4349 110.043 69.4349 110.043C69.4349 110.043 69.441 131.257 95.6478 139.423C97.8565 143.085 100.506 146.463 103.537 149.48C113.389 159.311 126.477 164.712 140.388 164.69C154.301 164.669 167.373 159.232 177.197 149.372C187.021 139.514 192.422 126.419 192.398 112.498C192.379 98.5784 186.941 85.4992 177.087 75.6704" fill="#002244"/>
<path d="M174.319 78.3088C166.502 70.4884 156.467 65.6936 145.638 64.5076C136.319 55.2144 127.021 55.6512 127.021 55.6512C131.102 58.2108 128.998 63.908 119.921 65.1636C110.932 66.4056 99.5148 63.3568 93.9548 56.8756C88.224 50.1964 83.8972 49.8916 83.8972 49.8916C88.868 52.9984 89.2208 56.728 92.2384 62.41C95.256 68.094 101.468 70.1332 106.879 70.4884C112.579 70.8628 112.718 73.444 108.122 76.1724C103.109 79.1452 98.6712 76.3356 95.446 73.1568C90.3532 68.1308 85.2816 67.1684 78.2728 67.2576C71.264 67.3468 61.9992 68.2688 54.1776 65.3404C46.356 62.41 41.1992 52.1116 41.1992 52.1116C45.0664 65.7844 53.66 72.266 61.6364 73.832C72.1732 75.8988 79.4576 78.4076 83.9144 82.0192C88.2664 85.5508 90.584 89.0732 92.2188 93.934C93.4812 97.6812 93.7064 102.657 92.4612 102.956C91.0084 103.301 90.71 101.298 88.9976 97.8056C87.1068 93.948 84.8492 90.9204 80.2956 88.4912C74.1244 85.198 68.0852 85.3884 61.9276 85.4736C57.05 85.5416 54.1896 84.9828 54.1896 84.9828C54.1896 84.9828 54.3932 85.6424 62.3408 87.428C71.196 89.4152 79.7624 94.41 85.464 106.587C90.3144 116.944 87.7836 124.232 77.0372 120.933C77.0372 120.933 82.0564 132.097 98.45 136.073C100.566 139.795 103.196 143.255 106.303 146.366C115.387 155.453 127.464 160.458 140.31 160.458C153.156 160.458 165.231 155.453 174.319 146.366C183.401 137.274 188.403 125.19 188.403 112.334C188.403 99.4824 183.402 87.398 174.319 78.3088Z" fill="#4B92DB"/>
<path d="M140.311 66.5669C152.529 66.5669 164.016 71.3269 172.656 79.9721C181.298 88.6173 186.055 100.111 186.055 112.334C186.055 137.573 165.534 158.108 140.311 158.108C128.093 158.108 116.606 153.346 107.964 144.7C99.3236 136.055 94.5664 124.562 94.5664 112.334C94.5664 100.111 99.3236 88.6173 107.964 79.9721C116.606 71.3269 128.092 66.5669 140.311 66.5669Z" fill="#FFFFFE"/>
<path d="M140.369 154.158C117.288 154.193 98.5456 135.496 98.5108 112.4C98.478 89.302 117.166 70.5504 140.248 70.5176C163.331 70.4828 182.073 89.1816 182.106 112.278C182.141 135.376 163.455 154.128 140.369 154.158Z" fill="#002244"/>
<path d="M130.089 103.875H117.703L113.62 111.158L108.13 95.5835H172.372L166.891 111.158L162.842 103.875H150.665L140.351 149.022L130.089 103.875Z" fill="#FFFFFE"/>
<path d="M172.372 95.5835H108.13L109.171 98.5351H139.804L130.089 103.875L140.351 149.016V98.5351H171.335L172.372 95.5835Z" fill="#A5ACAF"/>
<path d="M108.772 59.4606C99.4573 59.1946 95.6597 55.4982 89.8729 50.8486C82.7921 45.157 74.9377 46.7426 74.9377 46.7426C79.6409 44.049 88.8897 43.9386 95.5517 49.7834C101.504 55.0054 104.424 57.8386 108.772 59.461L108.772 59.4606ZM29.2549 38.9298C39.6405 37.0086 48.3481 40.257 54.9325 51.9334C61.3753 63.3574 73.1493 63.6618 73.1493 63.6618C64.2105 66.1962 51.9945 63.8946 45.5905 52.397C37.9725 38.7182 29.2549 38.9298 29.2549 38.9298ZM78.6009 105.158C73.4829 98.077 65.4461 96.391 54.4921 93.453C38.8081 89.2458 38.6861 75.5594 38.6861 75.5594C38.6861 75.5594 41.0349 85.0506 59.2613 88.761C77.3673 92.4482 78.6009 105.159 78.6009 105.159V105.158ZM146.588 91.561L140.31 87.0514L134.1 91.6582L136.449 84.2898L130.152 79.807L137.88 79.7138L140.198 72.3846L142.626 79.7138H150.356L144.125 84.2294L146.588 91.561ZM119.01 117.483L118.244 125.181L125.336 128.256L117.784 129.904L117.053 137.604L113.149 130.928L105.607 132.611L110.746 126.834L106.817 120.174L113.894 123.281L119.01 117.482L119.01 117.483ZM155.232 128.423L162.278 125.237L161.396 117.553L166.599 123.271L173.625 120.058L169.801 126.776L175.028 132.471L167.46 130.907L163.661 137.643L162.811 129.957L155.232 128.423Z" fill="#C60C30"/>
</g>
<defs>
<clipPath id="clip0_106_4349">
<rect width="200" height="200" fill="white"/>
</clipPath>
</defs>
</svg>
