<svg width="200" height="200" viewBox="0 0 200 200" fill="none" xmlns="http://www.w3.org/2000/svg">
<mask id="mask0_106_4498" style="mask-type:luminance" maskUnits="userSpaceOnUse" x="8" y="49" width="184" height="101">
<path d="M8 49.6001H192V149.888H8V49.6001Z" fill="white"/>
</mask>
<g mask="url(#mask0_106_4498)">
<path d="M133.642 49.6001L139.523 67.6329L135.147 81.0333L124.932 49.6001H79.1384L70.9244 74.7961L62.7432 49.6001H8L25.1972 77.5261L48.7556 149.888H93.0848L101.994 122.533L110.878 149.888H159.376L192 49.6001H133.642ZM31.3184 74.6889L19.986 56.2921H57.8796L67.4004 85.6161L51.138 135.57L31.3184 74.6889ZM88.196 143.345H55.6544L82.232 61.7017L98.478 111.714L88.196 143.345ZM87.5096 56.2921H120.068L131.648 91.8613L115.353 141.931L87.5096 56.2921ZM154.454 143.304H121.92L146.538 67.6741L142.832 56.2921H182.76L154.454 143.304Z" fill="#FFB612"/>
<path d="M131.624 91.8697L115.328 141.94L87.5095 56.2925H120.068L131.624 91.8697ZM142.832 56.2925L146.521 67.6745L121.904 143.304H154.438L182.777 56.2925H142.832ZM57.8795 56.2925H19.9863L31.3183 74.6889L51.1711 135.57L67.4007 85.6161L57.8795 56.2925ZM55.6547 143.304H88.2375L98.5195 111.714L82.2323 61.7021L55.6547 143.304Z" fill="#5A1414"/>
</g>
</svg>
