<svg width="142" height="142" viewBox="0 0 142 142" fill="none" xmlns="http://www.w3.org/2000/svg">
<g clip-path="url(#clip0_101_600)">
<path d="M52.5235 2.76758C73.4699 -3.2541 97.059 1.89728 114.074 15.2969V15.2979C125.795 24.8232 133.973 36.8436 138.368 51.3271V51.3281C138.477 51.6829 138.586 52.0378 138.698 52.4033C143.832 70.2544 140.623 89.055 132.028 105.205C123.831 119.931 110.633 130.562 95.0167 136.467L94.2706 136.744L94.2598 136.749C93.7617 136.957 93.2633 137.164 92.7501 137.378C77.0341 143.759 57.7472 141.54 42.4014 135.106C26.3965 127.974 12.671 114.478 6.1944 98.1211H6.19537C5.69514 96.8016 5.2093 95.4773 4.72272 94.1504V94.1494L4.71881 94.1387L4.08893 92.6289C-2.29241 76.9127 -0.0735138 57.6251 6.36041 42.2793C13.7936 25.5993 27.8744 12.0874 44.8135 5.30078C47.0118 4.515 49.2162 3.7795 51.4483 3.09961V3.09863C51.8033 2.98958 52.1587 2.88091 52.5245 2.76855L52.5235 2.76758Z" fill="#AFFF25" stroke="#07033A" stroke-width="0.54817"/>
<path d="M52.5235 2.76758C73.4699 -3.2541 97.059 1.89728 114.074 15.2969V15.2979C125.795 24.8232 133.973 36.8436 138.368 51.3271V51.3281C138.477 51.6829 138.586 52.0378 138.698 52.4033C143.832 70.2544 140.623 89.055 132.028 105.205C123.831 119.931 110.633 130.562 95.0167 136.467L94.2706 136.744L94.2598 136.749C93.7617 136.957 93.2633 137.164 92.7501 137.378C77.0341 143.759 57.7472 141.54 42.4014 135.106C26.3965 127.974 12.671 114.478 6.1944 98.1211H6.19537C5.69514 96.8016 5.2093 95.4773 4.72272 94.1504V94.1494L4.71881 94.1387L4.08893 92.6289C-2.29241 76.9127 -0.0735138 57.6251 6.36041 42.2793C13.7936 25.5993 27.8744 12.0874 44.8135 5.30078C47.0118 4.515 49.2162 3.7795 51.4483 3.09961V3.09863C51.8033 2.98958 52.1587 2.88091 52.5245 2.76855L52.5235 2.76758ZM106.933 20.6523C83.9332 3.626 52.1865 5.93802 30.6094 23.8623C30.2408 24.1476 29.872 24.4326 29.4922 24.7266L29.4893 24.7295C17.9768 33.8765 11.588 48.7942 9.47076 62.9238H9.46979L9.46881 62.9355C7.78648 78.9437 11.8496 95.7995 22.0294 108.499L22.0313 108.502C22.6779 109.29 23.3305 110.074 23.9825 110.856V110.857C24.2687 111.227 24.5548 111.597 24.8497 111.978L24.8526 111.979C33.9944 123.492 48.9198 129.88 63.045 131.996V131.997L63.0567 131.998C79.0649 133.68 95.9206 129.617 108.62 119.438L108.622 119.436C109.411 118.789 110.196 118.137 110.979 117.484C111.348 117.198 111.717 116.912 112.098 116.617L112.101 116.615C115.145 114.198 117.463 111.142 119.798 108.116L119.797 108.115C120.131 107.687 120.466 107.259 120.811 106.817L120.815 106.812C129.972 94.4411 133.624 78.8345 132.191 63.6582L132.119 62.9355L132.117 62.9238L131.934 61.7637C130.016 50.2283 125.646 40.4611 118.34 31.3867L117.6 30.4814L116.74 29.3711L116.738 29.3682L116.277 28.8057C114.249 26.403 111.829 24.4498 109.372 22.5459L108.237 21.6689C107.809 21.335 107.38 21.0013 106.939 20.6572L106.933 20.6523Z" fill="#07033A" stroke="#07033A" stroke-width="0.54817"/>
<path d="M106.616 64.4434C96.0417 61.0907 77.9244 60.2526 70.1875 60.2526C63.4174 60.099 44.0754 62.1868 32.1476 64.4434C22.6054 66.2487 23.4436 58.7482 25.0554 54.7722C29.5686 44.2414 45.2359 23.3732 71.7993 24.1469C98.3628 24.9206 112.741 45.7458 116.609 56.0617C117.684 60.2526 117.189 67.7961 106.616 64.4434Z" fill="#07033A"/>
<path d="M85.6619 110.22L90.8198 91.8449C93.9148 85.1396 100.706 83.8931 103.714 84.108C105.434 84.3229 109.582 85.0752 112.418 86.3646C115.255 87.6541 114.89 91.8449 114.353 93.7792C106.938 108.608 99.2015 111.187 92.1093 116.023C86.4356 119.891 85.447 113.766 85.6619 110.22Z" fill="#07033A"/>
<path d="M54.7648 109.92L49.6068 91.5449C46.5119 84.8395 39.7209 83.593 36.7122 83.808C34.9929 84.0229 30.8451 84.7751 28.0082 86.0646C25.1713 87.3541 25.5367 91.5449 26.0739 93.4791C33.4885 108.308 41.2252 110.887 48.3174 115.723C53.9911 119.591 54.9797 113.466 54.7648 109.92Z" fill="#07033A"/>
<circle cx="70.8325" cy="79.9172" r="11.6054" fill="#07033A"/>
</g>
<defs>
<clipPath id="clip0_101_600">
<rect width="141.436" height="141.467" fill="white"/>
</clipPath>
</defs>
</svg>
