<svg width="200" height="200" viewBox="0 0 200 200" fill="none" xmlns="http://www.w3.org/2000/svg">
<g clip-path="url(#clip0_106_6574)">
<path d="M100 200C155.229 200 200 155.229 200 100C200 44.7707 155.229 0 100 0C44.7707 0 0 44.7707 0 100C0 155.229 44.7707 200 100 200Z" fill="#003DA6"/>
<path d="M99.9996 151.482C128.432 151.482 151.482 128.432 151.482 99.9996C151.482 71.5676 128.432 48.5176 99.9996 48.5176C71.5676 48.5176 48.5176 71.5676 48.5176 99.9996C48.5176 128.432 71.5676 151.482 99.9996 151.482Z" fill="black"/>
<path d="M193.982 99.9996C193.982 48.1009 151.906 6.01758 99.9996 6.01758C48.0929 6.01758 6.01758 48.1009 6.01758 99.9996C6.01758 109.213 7.35091 118.112 9.82224 126.518L6.95291 127.51C18.8149 167.684 55.9816 197 99.9996 197C144.018 197 181.184 167.684 193.046 127.51L190.177 126.518C192.706 117.902 193.987 108.968 193.982 99.9889V99.9996ZM10.2782 99.9996C10.2782 50.4449 50.4449 10.2782 99.9996 10.2782C149.554 10.2782 189.721 50.4449 189.721 99.9996C189.726 108.506 188.523 116.97 186.148 125.138L99.9889 95.4269L13.8509 125.13C11.4754 116.965 10.2724 108.503 10.2782 99.9996Z" fill="black"/>
<path d="M100 0C44.768 0 0 44.768 0 100C0 155.232 44.768 200 100 200C155.232 200 200 155.232 200 100C200 44.768 155.232 0 100 0ZM100 193.982C48.0933 193.982 6.018 151.906 6.018 100C6.018 48.0933 48.094 6.018 100 6.018C151.907 6.018 193.982 48.094 193.982 100C193.982 151.907 151.906 193.982 100 193.982Z" fill="#C1C5C8"/>
<path d="M49.4266 118.389L41.1953 121.233V167.779C51.5106 176.733 63.888 183.371 77.518 186.889V148.889C64.5366 142.907 54.3433 131.917 49.4266 118.389ZM158.787 121.222L150.565 118.389C145.649 131.917 135.453 142.907 122.471 148.889V186.881C136.101 183.363 148.482 176.722 158.797 167.769V121.222H158.787Z" fill="#003DA6"/>
<path d="M99.9998 153.796C91.9711 153.796 84.3618 152.036 77.5178 148.887V186.887C84.862 188.779 92.4159 189.734 99.9998 189.731C107.76 189.731 115.296 188.739 122.482 186.887V148.898C115.638 152.046 108.028 153.804 99.9998 153.804V153.796ZM15.4531 130.101C20.6845 144.804 29.6485 157.739 41.2031 167.767V121.221L15.4531 130.101ZM184.546 130.111L158.786 121.231V167.778C170.344 157.749 179.304 144.815 184.546 130.111Z" fill="black"/>
<path d="M79.7968 167.601C80.1488 167.565 80.6381 167.489 80.9535 167.583L82.1121 167.917C82.4821 168.029 82.5548 168.138 82.4715 168.445L79.7395 177.888C79.6488 178.195 79.5181 178.25 79.1561 178.148L77.2395 177.594C76.8701 177.489 76.7968 177.37 76.8801 177.065L78.8621 170.203L76.6848 169.583C76.3155 169.471 76.2395 169.362 76.3228 169.055L76.5288 168.344C76.5728 168.167 76.6301 168.055 76.8988 167.989C76.8988 167.989 79.4455 167.638 79.7968 167.601ZM88.0835 173C88.2868 170.927 90.1954 169.37 92.7394 169.63C96.5001 170.01 97.2321 172.482 96.9348 175.445C96.6301 178.489 95.0548 180.963 91.4061 180.594C89.9274 180.445 88.7968 179.823 87.8228 178.768C87.5941 178.518 87.6774 178.417 87.9348 178.195L89.0001 177.333C89.2601 177.13 89.3988 177.083 89.6381 177.351C90.2135 177.989 90.8154 178.37 91.8514 178.471C93.0548 178.594 94.0181 177.62 94.1848 175.971C93.8154 176.351 93.1381 176.844 91.3621 176.667C89.3801 176.471 87.8801 175.185 88.0941 172.989L88.0835 173ZM90.7788 173.101C90.6955 173.981 91.4061 174.739 92.3701 174.833C93.4534 174.945 94.1848 174.323 94.2788 173.445C94.3701 172.519 93.7681 171.805 92.6855 171.695C91.6381 171.594 90.8701 172.167 90.7788 173.094V173.101ZM102.5 173.917C102.305 171.843 103.88 169.953 106.427 169.713C110.195 169.362 111.38 171.649 111.656 174.62C111.945 177.667 110.869 180.399 107.221 180.74C105.739 180.88 104.511 180.489 103.351 179.638C103.083 179.435 103.138 179.323 103.351 179.055L104.231 178.011C104.445 177.761 104.573 177.685 104.862 177.906C105.547 178.427 106.213 178.685 107.239 178.583C108.445 178.471 109.203 177.333 109.055 175.677C108.761 176.12 108.195 176.732 106.417 176.899C104.435 177.083 102.713 176.112 102.51 173.917H102.5ZM105.167 173.5C105.25 174.38 106.093 174.989 107.065 174.899C108.149 174.797 108.75 174.055 108.667 173.177C108.583 172.25 107.851 171.667 106.768 171.768C105.721 171.87 105.083 172.583 105.167 173.511V173.5ZM119.047 174.093C118.703 174.185 118.583 174.13 118.5 173.815L118.185 172.703C118.101 172.399 118.167 172.279 118.511 172.185L119.851 171.815C120.982 171.5 121.287 170.862 121.138 170.315C120.927 169.555 120.351 169.239 119.221 169.555C118.221 169.833 117.927 170.279 117.481 171.055C117.315 171.344 117.148 171.344 116.862 171.185L115.721 170.537C115.435 170.362 115.333 170.279 115.518 169.99C116.297 168.779 117.073 167.927 118.638 167.49C120.471 166.971 123.065 167.213 123.667 169.37C123.953 170.406 123.518 171.343 122.917 171.963V171.982C123.833 172.138 124.823 172.463 125.185 173.75C125.787 175.906 124.065 177.445 121.612 178.13C120.047 178.565 118.721 178.305 117.435 177.677C117.13 177.529 117.167 177.406 117.323 177.101L117.963 175.971C118.13 175.685 118.279 175.612 118.565 175.761C119.388 176.149 120.037 176.344 121.029 176.065C122.482 175.656 122.732 175.019 122.518 174.261C122.37 173.714 121.721 173.344 120.594 173.656L119.029 174.094L119.047 174.093ZM32.3048 81.12C32.1015 80.7786 32.1955 80.612 32.5181 80.3986L33.9635 79.4633C34.2968 79.25 34.4348 79.2033 34.6381 79.5466C35.4715 81.0106 35.7608 83.1013 35.3621 84.9633C34.5468 88.75 31.0108 91.268 27.5368 90.518C24.0655 89.768 21.8701 86.0286 22.6768 82.2393C23.0728 80.38 24.1955 78.5833 25.5548 77.594C25.8801 77.362 25.9815 77.4633 26.2035 77.7966L27.1381 79.2393C27.3441 79.5653 27.3621 79.75 27.0368 79.982C26.0368 80.6486 25.3988 81.5833 25.1381 82.7686C24.6301 85.1486 26.2788 86.9353 28.2135 87.3513C30.1201 87.7606 32.3801 86.8226 32.8988 84.4346C33.1561 83.2393 32.9535 82.138 32.3155 81.112L32.3048 81.12ZM39.9348 70.0466C40.2681 70.2213 40.3048 70.38 40.1121 70.74L39.1121 72.638C38.9168 73 38.7681 73.0546 38.4348 72.888L28.2135 67.5286C27.8801 67.3513 27.8441 67.1953 28.0368 66.8333L32.1848 58.9266C32.3801 58.5653 32.5288 58.5106 32.8621 58.6773L34.1955 59.37C34.5288 59.5466 34.5655 59.7033 34.3701 60.0653L31.4635 65.6013L33.6955 66.768L36.5108 61.406C36.7035 61.0466 36.8515 60.9893 37.1848 61.1666L38.5181 61.862C38.8515 62.0366 38.8881 62.1846 38.6955 62.5546L35.8801 67.9166L39.9348 70.0466ZM61.6381 45.1846C61.6381 45.5546 61.6381 45.7866 61.4895 45.888L61.2868 46.0366C61.1381 46.138 60.9268 46.0726 60.5735 45.9533L54.1201 43.9453L56.5548 48.5546C56.7395 48.906 56.7395 49.018 56.4061 49.2606L54.6668 50.5106C54.3335 50.75 54.1121 50.75 53.9535 50.4273L48.2681 39.612C48.2135 39.5 48.2035 39.4533 48.3148 39.38L48.4455 39.2866C48.5108 39.24 48.5728 39.232 48.7321 39.2866L58.8701 42.4533L59.1121 31.8333C59.1121 31.6773 59.1488 31.612 59.2135 31.5653L59.3441 31.4713C59.4535 31.388 59.4895 31.406 59.5835 31.5L68.0001 40.3513C68.2401 40.62 68.1848 40.8153 67.8515 41.0546L66.1121 42.3046C65.7788 42.5466 65.6561 42.518 65.3988 42.2213L61.8521 38.3226L61.6561 45.1953L61.6381 45.1846ZM77.2135 23.9166C80.9268 22.8046 84.8334 24.6953 85.8514 28.1013C86.8701 31.5106 84.6488 35.2393 80.9348 36.3513C77.2215 37.4633 73.3148 35.5726 72.2968 32.1666C71.2788 28.76 73.5001 25.0286 77.2135 23.9166ZM80.2135 33.9346C82.6201 33.2133 83.3048 30.8986 82.7501 29.0366C82.1848 27.138 80.3515 25.612 77.9348 26.3333C75.6015 27.0286 74.8335 29.3333 75.3988 31.232C75.9535 33.1013 77.8701 34.63 80.2135 33.9346ZM126.417 25.138C126.815 25.25 126.899 25.38 126.797 25.75L126.362 27.3153C126.261 27.6773 126.12 27.75 125.721 27.638L121.989 26.6013L119.471 35.6953C119.37 36.0546 119.231 36.13 118.833 36.018L116.768 35.4453C116.37 35.3333 116.287 35.2033 116.388 34.844L118.906 25.75L115.177 24.7133C114.779 24.6013 114.695 24.4713 114.797 24.1013L115.232 22.5366C115.333 22.1766 115.471 22.1013 115.87 22.2133L126.417 25.13V25.138ZM97.0655 32.9533C97.0655 33.3333 96.9454 33.4346 96.5368 33.4346H94.3988C93.9821 33.4346 93.8701 33.3226 93.8701 32.9533V20.8513C93.8701 20.7313 93.9061 20.6953 94.0468 20.6953H94.2401C94.3801 20.6953 94.4715 20.75 94.6121 20.8513L102.945 27.6953V21.406C102.945 21.0286 103.065 20.9273 103.471 20.9273H105.612C106.029 20.9273 106.138 21.0366 106.138 21.406V33.5106C106.138 33.6306 106.101 33.6666 105.963 33.6666H105.768C105.63 33.6666 105.537 33.612 105.399 33.5106L97.0655 26.5726V32.9533ZM139.018 39.518L139.482 45.2133C139.511 45.75 139.13 45.732 138.769 45.518L137.065 44.5C136.713 44.2866 136.583 44.0466 136.537 43.62L136.094 38.0833L135.149 37.518L132.823 41.398C132.63 41.7213 132.471 41.75 132.12 41.5366L130.279 40.4346C129.927 40.2213 129.88 40.0726 130.073 39.75L136 29.8433C136.195 29.518 136.351 29.49 136.703 29.7033L140.906 32.2133C142.833 33.362 144.768 35.518 143.279 38.0106C142.25 39.732 140.594 39.9453 139.011 39.518H139.018ZM138.213 36.5366C139.399 37.2393 140.149 37.2133 140.62 36.4166C141.101 35.62 140.768 34.9453 139.583 34.2393L137.761 33.1486L136.381 35.4453L138.203 36.5366H138.213ZM145.138 50.7866C144.851 50.4893 144.851 50.3333 145.12 50.0733L153.463 42.0933C153.732 41.8333 153.888 41.844 154.177 42.138L160.343 48.5833C160.63 48.88 160.63 49.0366 160.362 49.2966L159.279 50.3333C159.011 50.5933 158.852 50.5833 158.565 50.2866L154.239 45.768L152.417 47.5106L156.565 51.844C156.852 52.138 156.852 52.2973 156.583 52.5546L155.5 53.594C155.232 53.8513 155.073 53.844 154.787 53.5473L150.638 49.214L148.768 51L153.094 55.518C153.381 55.8153 153.381 55.9713 153.112 56.2313L152.029 57.268C151.761 57.5286 151.602 57.518 151.315 57.2213L145.149 50.7786L145.138 50.7866ZM159.917 44.156C159.621 44.1128 159.348 43.974 159.138 43.7606L158 42.5653C157.76 42.3046 157.815 42.138 158.399 42.156L161.88 42.232C162.26 42.2213 162.362 42.482 162.279 42.88L162.011 44.1486C161.927 44.4713 161.833 44.5546 161.399 44.4893L159.927 44.1666L159.917 44.156ZM162.844 75.362C162.703 75.594 162.399 75.5466 162.261 75.2866L161.094 73.0546C160.927 72.7393 160.971 72.594 161.203 72.2213L162.351 70.4453L159.787 65.5466L157.677 65.4713C157.239 65.4533 157.094 65.398 156.927 65.0833L155.761 62.8513C155.62 62.594 155.768 62.3333 156.029 62.3333L169.656 62.9713C170.018 63.0106 170.203 62.9713 170.287 63.13L170.315 63.1846C170.399 63.344 170.269 63.4713 170.083 63.7966L162.833 75.3513L162.844 75.362ZM166.399 65.094L162.203 65.0286L164.083 68.62L166.417 65.138L166.399 65.1013V65.094ZM168.463 89.9633C168.547 90.37 168.463 90.5 168.101 90.5833L166.63 90.888C166.261 90.9633 166.13 90.87 166.047 90.4713L164.37 82.5466C164.287 82.138 164.37 82.0106 164.732 81.9266L176.029 79.5466C176.399 79.4713 176.529 79.5653 176.612 79.9633L177.055 82.0546C177.138 82.4633 177.055 82.594 176.695 82.6773L167.333 84.6486L168.453 89.9533L168.463 89.9633Z" fill="white"/>
<path d="M122.483 136.083C124.73 133.087 126.768 129.941 128.585 126.666C136.881 111.739 141.353 93.796 141.53 74.778C141.548 72.296 141.473 69.3873 141.317 66.554C137.574 65.398 130.845 63.5173 122.473 62.1113L122.483 136.101V136.083ZM122.483 144.509C121.66 145.426 120.814 146.321 119.947 147.195L119.929 147.213C118.246 148.907 116.478 150.514 114.631 152.028C114.603 152.046 114.574 152.072 114.548 152.093C113.204 153.182 111.816 154.217 110.389 155.195C110.381 155.195 110.371 155.213 110.353 155.213C109.907 155.517 109.465 155.804 109.019 156.093C108.965 156.129 108.918 156.155 108.863 156.195C108.418 156.471 107.983 156.749 107.538 157.017C107.514 157.03 107.492 157.046 107.473 157.064C106.525 157.634 105.558 158.172 104.574 158.677C104.538 158.695 104.491 158.713 104.454 158.739C104.03 158.963 103.595 159.177 103.157 159.379C103.074 159.416 103.001 159.453 102.918 159.489C102.496 159.692 102.069 159.886 101.639 160.072C101.585 160.101 101.538 160.119 101.483 160.148C100.991 160.361 100.501 160.565 100.012 160.768C99.8346 160.695 99.6572 160.619 99.4832 160.546C99.2226 160.434 98.9546 160.333 98.6966 160.221C98.4646 160.119 98.2226 160.017 97.9906 159.905C97.7692 159.804 97.5559 159.713 97.3346 159.601C97.0946 159.489 96.8526 159.369 96.6132 159.26C96.4022 159.157 96.1922 159.052 95.9832 158.945C95.7406 158.822 95.4906 158.703 95.2512 158.572C95.0504 158.47 94.8526 158.363 94.6579 158.249C94.2046 157.999 93.7406 157.749 93.2879 157.489C93.1026 157.387 92.9279 157.286 92.7412 157.176C92.4832 157.028 92.2332 156.869 91.9832 156.713C91.8059 156.601 91.6212 156.489 91.4466 156.379C91.1866 156.221 90.9359 156.054 90.6866 155.887C90.5117 155.777 90.3388 155.663 90.1679 155.546C89.9079 155.369 89.6499 155.203 89.3892 155.028C89.2619 154.935 89.1212 154.843 88.9906 154.749C88.4467 154.371 87.9102 153.982 87.3812 153.583C87.2692 153.499 87.1572 153.416 87.0379 153.333C86.7701 153.129 86.5043 152.922 86.2406 152.713C86.0952 152.601 85.9466 152.481 85.8059 152.369C85.5479 152.156 85.2879 151.945 85.0299 151.731C84.8892 151.619 84.7512 151.499 84.6132 151.379C84.3452 151.155 84.0739 150.926 83.8059 150.695C83.7226 150.629 83.6499 150.554 83.5659 150.481C82.9588 149.947 82.3598 149.403 81.7692 148.851C81.7148 148.804 81.6627 148.755 81.6132 148.703C81.3452 148.445 81.0666 148.184 80.7979 147.916C80.6859 147.804 80.5666 147.695 80.4546 147.583C80.1966 147.323 79.9279 147.054 79.6679 146.796C79.5559 146.684 79.4546 146.572 79.3452 146.463C79.0735 146.181 78.8044 145.898 78.5379 145.611C78.5012 145.572 78.4726 145.536 78.4359 145.499C78.1312 145.166 77.8239 144.843 77.5192 144.499C77.0739 143.999 76.6312 143.489 76.1966 142.981C76.0952 142.861 75.9906 142.739 75.8892 142.611C75.0108 141.564 74.159 140.495 73.3346 139.405C73.2332 139.278 73.1392 139.148 73.0379 139.01C72.2055 137.895 71.4029 136.758 70.6312 135.601C70.5379 135.463 70.4359 135.314 70.3446 135.177C69.9532 134.589 69.5705 133.997 69.1966 133.398C68.8166 132.796 68.4466 132.185 68.0846 131.572C67.9891 131.422 67.8997 131.268 67.8166 131.111C67.4533 130.49 67.0946 129.866 66.7406 129.239C58.0119 113.536 53.3059 94.7027 53.1206 74.796C53.1026 72.6373 53.1572 70.26 53.2619 67.916C53.3452 66.0827 53.4546 64.26 53.5952 62.5647C53.5952 62.5647 53.6132 62.5647 53.6499 62.546C53.6679 62.546 53.6859 62.528 53.7146 62.5173C53.7332 62.5173 53.7612 62.4993 53.7879 62.4887C53.8228 62.4801 53.8567 62.468 53.8892 62.4527C53.9242 62.4438 53.9581 62.4316 53.9906 62.416C54.0192 62.4053 54.0479 62.398 54.0739 62.3873C54.1206 62.3693 54.1679 62.3507 54.2226 62.3433C54.2512 62.3433 54.2692 62.322 54.2979 62.3147C54.3812 62.286 54.4646 62.26 54.5559 62.2207C54.5846 62.2207 54.6026 62.2027 54.6312 62.1947C54.7046 62.166 54.7879 62.1373 54.8812 62.1113C54.9079 62.1007 54.9466 62.0933 54.9726 62.0827C55.2046 62.0093 55.4646 61.916 55.7512 61.8227L55.8446 61.796C55.9726 61.76 56.1026 61.7127 56.2406 61.666C56.2692 61.666 56.2872 61.648 56.3166 61.6373C56.4832 61.5827 56.6572 61.528 56.8346 61.4707H56.8452L57.3812 61.304C57.4079 61.296 57.4466 61.286 57.4832 61.278C57.6679 61.2207 57.8526 61.166 58.0479 61.1007H58.0746C58.2879 61.036 58.5119 60.9707 58.7332 60.9053C58.7527 60.9041 58.7715 60.8979 58.7879 60.8873C58.9906 60.822 59.2046 60.7673 59.4279 60.7027C59.4546 60.7027 59.4906 60.684 59.5192 60.676C59.9906 60.536 60.5012 60.398 61.0299 60.2493C61.0559 60.2493 61.0952 60.2313 61.1212 60.2207C61.3632 60.1553 61.6026 60.0933 61.8526 60.0173C61.8812 60.0173 61.9072 59.9993 61.9466 59.9887C62.5012 59.8433 63.0739 59.684 63.6786 59.5353C63.7146 59.528 63.7512 59.5173 63.7986 59.51C64.0846 59.434 64.3712 59.3613 64.6679 59.286C64.6859 59.286 64.6966 59.286 64.7146 59.278C65.0379 59.1947 65.3632 59.1193 65.6966 59.036H65.7146C66.0299 58.9627 66.3452 58.8873 66.6679 58.804C66.7146 58.796 66.7512 58.786 66.7979 58.778C67.4914 58.6158 68.1858 58.4578 68.8812 58.304C68.9179 58.304 68.9546 58.286 68.9906 58.278C69.3166 58.2027 69.6499 58.1373 69.9726 58.0647L70.1026 58.036C70.8346 57.8793 71.5739 57.7313 72.3452 57.572C72.4042 57.565 72.4624 57.5529 72.5192 57.536C72.8712 57.4707 73.2226 57.398 73.5846 57.3327C73.6132 57.3327 73.6499 57.322 73.6779 57.3147C74.0739 57.2387 74.4832 57.166 74.8892 57.0933H74.9359C75.3159 57.028 75.6966 56.9627 76.0739 56.8873C76.1392 56.8793 76.2146 56.8613 76.2799 56.8507C76.6786 56.786 77.0846 56.7127 77.4832 56.648C77.4832 56.648 77.5299 56.648 77.5479 56.6373C78.2879 56.5173 79.0379 56.4053 79.8059 56.296C79.9016 56.2789 79.9982 56.2669 80.0952 56.26C80.8452 56.148 81.6026 56.0467 82.3712 55.9447C82.4286 55.9447 82.4832 55.9267 82.5379 55.9267C83.3346 55.822 84.1499 55.7313 84.9646 55.6373L85.2406 55.6113C86.0479 55.528 86.8712 55.4447 87.6966 55.3693C87.7332 55.3693 87.7799 55.3693 87.8166 55.3613C88.6679 55.286 89.5192 55.2207 90.3892 55.1553C90.4726 55.1553 90.5666 55.148 90.6572 55.1373C91.5274 55.0795 92.3981 55.0299 93.2692 54.9887H93.3346C94.2226 54.9447 95.1312 54.916 96.0299 54.898H96.2699C97.1859 54.8793 98.1032 54.8613 99.0299 54.8613H100.918C101.853 54.8613 102.78 54.8693 103.697 54.898H103.889C105.741 54.9447 107.556 55.028 109.353 55.148H109.491C111.306 55.268 113.085 55.4347 114.817 55.6193H114.863C117.501 55.906 120.038 56.2593 122.455 56.648C122.863 56.7127 123.269 56.786 123.679 56.8507C123.741 56.8613 123.806 56.8693 123.871 56.8873C124.255 56.95 124.638 57.0187 125.019 57.0933H125.066C125.473 57.166 125.889 57.2387 126.288 57.3147C126.317 57.3147 126.345 57.322 126.371 57.3327C126.733 57.398 127.095 57.4707 127.447 57.536C127.501 57.546 127.556 57.554 127.621 57.572C128.389 57.7207 129.139 57.8793 129.863 58.036C129.907 58.036 129.947 58.054 129.991 58.0647C130.324 58.1373 130.65 58.2027 130.973 58.278C131.012 58.278 131.048 58.296 131.095 58.304C131.806 58.4627 132.501 58.6193 133.168 58.778C133.215 58.786 133.251 58.796 133.298 58.804C133.621 58.8793 133.936 58.9527 134.241 59.036H134.269C134.603 59.1193 134.936 59.2027 135.262 59.278H135.288C135.585 59.3513 135.881 59.4267 136.168 59.4993C136.205 59.51 136.251 59.5173 136.288 59.528C136.889 59.684 137.473 59.8327 138.03 59.9887C138.056 59.9887 138.085 60.01 138.113 60.01C138.363 60.072 138.613 60.148 138.853 60.2127C138.889 60.2127 138.918 60.2313 138.955 60.2393C139.483 60.3873 139.983 60.528 140.455 60.666L140.556 60.6947C140.78 60.76 140.991 60.822 141.197 60.8793C141.205 60.8793 141.223 60.8793 141.233 60.8873C141.465 60.9527 141.687 61.0173 141.9 61.0827H141.929C142.121 61.1373 142.317 61.2027 142.501 61.26L142.595 61.286C142.78 61.3433 142.965 61.398 143.139 61.4527C143.324 61.51 143.491 61.5647 143.657 61.6193C143.686 61.6193 143.715 61.6373 143.741 61.648C143.871 61.6947 144.001 61.7313 144.121 61.768C144.157 61.778 144.197 61.786 144.223 61.804C144.512 61.8973 144.769 61.9813 145.001 62.064C145.03 62.072 145.067 62.0827 145.095 62.0933C145.179 62.1193 145.261 62.148 145.335 62.1767C145.363 62.1767 145.389 62.1947 145.418 62.2027C145.511 62.2313 145.595 62.2673 145.678 62.296C145.705 62.304 145.733 62.3147 145.751 62.3227C145.806 62.3427 145.853 62.3613 145.9 62.3793C145.929 62.3873 145.955 62.398 145.983 62.406C146.019 62.416 146.048 62.434 146.074 62.4447C146.121 62.4627 146.168 62.4813 146.205 62.4887C146.223 62.4887 146.241 62.4993 146.251 62.51C146.335 62.536 146.381 62.554 146.381 62.554C146.575 64.9527 146.723 67.6293 146.806 70.2387C146.853 71.804 146.871 73.3433 146.853 74.7853C146.686 93.036 142.715 110.379 135.335 125.239C134.665 126.584 133.967 127.916 133.241 129.231C132.889 129.861 132.538 130.481 132.179 131.093C132.085 131.249 131.991 131.398 131.907 131.554C131.547 132.168 131.178 132.777 130.798 133.379C130.418 133.981 130.038 134.565 129.65 135.148C129.556 135.296 129.455 135.435 129.363 135.583C128.591 136.737 127.788 137.871 126.955 138.981C126.853 139.119 126.751 139.249 126.65 139.387C125.829 140.474 124.979 141.54 124.103 142.583C124.001 142.713 123.889 142.833 123.788 142.963C123.353 143.471 122.918 143.981 122.465 144.481L122.483 144.509ZM77.5299 136.083V62.1007H77.5119C69.1572 63.51 62.4286 65.3793 58.6859 66.546C58.5299 69.3793 58.4546 72.286 58.4726 74.7673C58.6499 93.786 63.1212 111.731 71.4179 126.655C73.2367 129.932 75.2751 133.081 77.5192 136.083H77.5299Z" fill="black"/>
<path d="M58.6847 66.5469C58.5287 69.3802 58.4534 72.2869 58.4714 74.7682C58.6487 93.7869 63.12 111.732 71.4167 126.656C73.2355 129.933 75.2739 133.082 77.518 136.084V62.1016C69.156 63.5109 62.4274 65.3802 58.6847 66.5469ZM128.583 126.667C136.88 111.74 141.351 93.7969 141.529 74.7789C141.547 72.2969 141.471 69.3882 141.315 66.5549C137.573 65.3989 130.844 63.5182 122.471 62.1122V136.094C124.724 133.1 126.766 129.954 128.583 126.678V126.667Z" fill="#003DA6"/>
<path d="M140.344 97.196C131.156 95.714 122.434 103.823 115.916 119.279C112.37 127.696 111.01 133.131 109.778 139.899C107.554 139.917 104.112 139.899 104.112 139.899C104.112 139.899 104.75 135.407 106.25 129.019C107.739 122.639 113.75 106.649 115.916 99.0373C116.211 98.0146 116.449 96.9767 116.63 95.928C119.296 80.4173 107.906 70.048 99.9998 64.834C92.0831 70.0473 80.6844 80.4173 83.3618 95.9273C83.5363 96.9766 83.7711 98.015 84.0651 99.0373C86.2318 106.657 92.2391 122.639 93.7391 129.019C95.2318 135.407 95.8798 139.899 95.8798 139.899C95.8798 139.899 92.4264 139.917 90.2131 139.899C88.9711 133.131 87.6118 127.704 84.0651 119.279C77.5544 103.823 68.8331 95.722 59.6378 97.196C58.7864 97.334 57.9531 97.5553 57.1484 97.852C59.0938 107.565 62.2131 116.761 66.4451 125.131C66.4711 125.131 66.4891 125.121 66.5184 125.121C71.0724 124.399 75.5284 125.613 78.6851 128.511C83.5724 133.001 83.5938 139.889 83.5938 139.889H75.8151C78.1558 142.845 80.6558 145.555 83.2784 147.99H94.5938C94.2211 150.167 92.6484 152.149 90.4058 153.714C93.4998 155.834 96.7131 157.602 99.9998 158.972C103.286 157.613 106.5 155.845 109.583 153.722C107.343 152.157 105.76 150.167 105.388 147.99H116.721C119.413 145.485 121.908 142.777 124.184 139.889H116.38C116.38 139.889 116.398 133.001 121.296 128.511C124.453 125.613 128.888 124.399 133.453 125.121C133.489 125.121 133.518 125.131 133.554 125.139C137.786 116.769 140.916 107.573 142.862 97.8627C142.047 97.5577 141.203 97.3344 140.344 97.196Z" fill="white"/>
<path d="M83.351 95.9163C83.5265 96.966 83.7614 98.005 84.0544 99.0283C86.221 106.648 92.2317 122.63 93.7317 129.01C95.221 135.398 95.8697 139.888 95.8697 139.888H99.9897V64.8223C92.0724 70.0356 80.6764 80.4056 83.351 95.9163Z" fill="#C1C5C8"/>
<path d="M186.631 123.463L153.501 112.036C154.389 108.085 154.836 104.048 154.834 99.9993C154.834 90.804 152.566 82.1293 148.566 74.5173C148.584 70.8327 148.407 66.3613 148.084 62.4527L148.001 61.3873L147.001 61.0173C146.9 60.9813 142.131 59.2307 134.53 57.3973C125.103 49.7493 113.095 45.166 100.012 45.166C86.9284 45.166 74.9071 49.7493 65.4831 57.398C57.8891 59.2313 53.1131 60.9813 53.0118 61.018L52.0118 61.3873L51.9284 62.4527C51.6024 66.3613 51.4284 70.8327 51.4464 74.5173C47.3146 82.3752 45.1595 91.1214 45.1678 99.9993C45.1678 104.137 45.6391 108.155 46.5011 112.028L13.3711 123.453C13.6678 124.546 13.9831 125.619 14.3164 126.695L47.3344 115.304C52.3711 132.648 65.7411 146.445 82.8164 152.072C87.9724 156.536 93.5558 160.01 99.3811 162.333L100.001 162.583L100.621 162.333C106.446 160.01 112.03 156.528 117.186 152.073C134.262 146.445 147.631 132.648 152.668 115.315L185.686 126.703C186.019 125.629 186.334 124.546 186.631 123.463ZM100.001 48.5173C109.334 48.5173 118.288 50.9887 126.121 55.6113C118.806 54.26 110.113 53.1767 100.946 53.1767H99.0664C89.8998 53.1767 81.2044 54.2493 73.8811 55.6113C81.7144 50.9813 90.6678 48.5173 100.001 48.5173ZM63.5944 136.406C53.8718 126.684 48.5124 113.76 48.5124 99.9993C48.5124 93.786 49.6138 87.7393 51.7051 82.0827C52.8351 99.5827 57.4731 116.054 65.2698 130.083C68.5198 135.927 72.2698 141.203 76.4078 145.786C71.6796 143.338 67.358 140.174 63.5958 136.406H63.5944ZM62.8711 117.232C63.2215 118.111 63.586 118.985 63.9644 119.852C63.589 118.983 63.2245 118.11 62.8711 117.232ZM90.5664 153.833C90.8998 154.065 91.2331 154.287 91.5664 154.511C91.3531 154.37 91.1311 154.232 90.9178 154.083C90.7978 154 90.6858 153.917 90.5664 153.833ZM100.001 158.981V147.945L94.5944 147.999C94.2224 150.177 92.6391 152.155 90.4078 153.731C88.351 152.318 86.3821 150.781 84.5118 149.129C78.2984 143.648 72.7404 136.648 68.1964 128.463C67.5902 127.368 67.0034 126.263 66.4364 125.148C66.4644 125.148 66.4904 125.137 66.5191 125.129C71.0738 124.405 75.5298 125.619 78.6858 128.517C82.3238 131.861 83.2691 136.528 83.5118 138.703C81.9831 119.528 69.8891 111.536 61.7798 114.387C57.3631 102.369 54.9831 89.1193 54.8058 75.322V74.822C54.7878 72.9887 54.8238 70.934 54.9071 68.8433C54.9724 67.1553 55.0664 65.4633 55.1858 63.8327C56.1964 63.4887 57.9358 62.926 60.2618 62.2593C62.1498 61.7207 64.4284 61.1113 67.0191 60.4993C75.2798 58.546 86.7324 56.546 99.0738 56.546H100.954C113.298 56.546 124.751 58.546 133.012 60.4993C135.602 61.1113 137.881 61.7207 139.769 62.2593C142.095 62.926 143.834 63.4887 144.845 63.8327C144.965 65.4627 145.056 67.166 145.121 68.8507C145.204 70.9447 145.241 72.9993 145.222 74.8327V75.3433C145.048 89.1373 142.657 102.387 138.251 114.398C130.139 111.565 118.056 119.554 116.538 138.721C116.78 136.546 117.722 131.879 121.363 128.536C124.519 125.637 128.964 124.427 133.53 125.148C133.552 125.147 133.574 125.149 133.595 125.155C133.033 126.277 132.445 127.386 131.834 128.481C127.288 136.666 121.733 143.666 115.519 149.148C113.497 150.941 111.357 152.596 109.113 154.101C106.178 156.072 103.139 157.713 100.03 159.01L100.001 158.981ZM91.5744 154.51C91.9544 154.76 92.3344 154.999 92.7224 155.231C92.3451 154.989 91.9544 154.749 91.5738 154.51H91.5744ZM92.7611 155.26C93.1311 155.481 93.5011 155.703 93.8631 155.927C93.4908 155.713 93.1236 155.491 92.7618 155.26H92.7611ZM95.1571 156.666L96.1498 157.195C95.8164 157.017 95.4904 156.851 95.1571 156.666ZM96.3704 157.304C96.6858 157.463 97.0011 157.619 97.3058 157.778C96.9904 157.619 96.6778 157.471 96.3704 157.304ZM97.5844 157.905C97.8904 158.054 98.1993 158.197 98.5111 158.333C98.2044 158.195 97.8891 158.054 97.5844 157.906V157.905ZM138.204 114.427C137.882 115.308 137.546 116.184 137.196 117.054C137.542 116.182 137.878 115.306 138.204 114.427ZM137.131 117.221C136.054 119.906 134.865 122.544 133.566 125.129C134.871 122.547 136.06 119.908 137.131 117.221ZM136.4 136.405C132.638 140.175 128.315 143.339 123.584 145.785C127.722 141.203 131.472 135.927 134.722 130.083C142.519 116.054 147.157 99.5827 148.288 82.0933C150.407 87.8287 151.489 93.8955 151.483 100.01C151.483 113.76 146.131 126.684 136.4 136.416V136.405Z" fill="#C1C5C8"/>
</g>
<defs>
<clipPath id="clip0_106_6574">
<rect width="200" height="200" fill="white"/>
</clipPath>
</defs>
</svg>
