<svg width="200" height="200" viewBox="0 0 200 200" fill="none" xmlns="http://www.w3.org/2000/svg">
<g clip-path="url(#clip0_106_6596)">
<path fill-rule="evenodd" clip-rule="evenodd" d="M100 0C44.7679 0 0 44.7679 0 100C0 155.232 44.7679 200 100 200C155.232 200 200 155.232 200 100C200 44.7679 155.232 0 100 0Z" fill="#1E1C50"/>
<path fill-rule="evenodd" clip-rule="evenodd" d="M100.001 7.59473C124.684 7.59473 147.891 17.215 165.359 34.6411C182.828 52.1095 192.406 75.3162 192.406 99.9998C192.406 124.683 182.786 147.89 165.359 165.358C147.891 182.827 124.684 192.405 100.001 192.405C75.3172 192.405 52.1105 182.785 34.6843 165.358C17.216 147.89 7.5957 124.683 7.5957 99.9998C7.5957 75.3162 17.216 52.1095 34.6843 34.6411C52.1105 17.215 75.3172 7.59473 100.001 7.59473Z" fill="white"/>
<path fill-rule="evenodd" clip-rule="evenodd" d="M163.08 44.7258L147.426 56.3291L143.882 52.7848L155.527 37.1308C140.211 23.5443 120.675 16.1182 100.042 16.1182C79.4935 16.1182 60.0842 23.4599 44.8099 36.8777L56.6243 52.7848L53.0378 56.3291L37.1306 44.5148C23.5441 59.8734 16.1602 79.3671 16.1602 100C16.1602 120.633 23.5863 140.127 37.1306 155.485L53.0378 143.671L56.5821 147.215L44.7678 163.122C60.042 176.54 79.4513 183.882 99.9998 183.882C120.675 183.882 140.169 176.456 155.485 162.869L143.839 147.173L147.384 143.629L163.038 155.232C176.498 139.916 183.839 120.506 183.839 99.9578C183.882 79.4515 176.54 60.0422 163.08 44.7258ZM99.9998 158.861C67.5526 158.861 41.1391 132.447 41.1391 100C41.1391 67.5528 67.5526 41.1393 99.9998 41.1393C132.447 41.1393 158.861 67.5528 158.861 100C158.861 132.447 132.489 158.861 99.9998 158.861Z" fill="#7DCDEF"/>
<path fill-rule="evenodd" clip-rule="evenodd" d="M125.106 89.156V79.3248L120.675 74.8944H79.325L74.8947 79.3248V120.675L79.325 125.105H120.675L125.106 120.675V110.844H140.591V125.443L125.485 140.591H74.5571L59.4516 125.443V107.848L51.6035 99.9999L59.4516 92.1518V74.5569L74.5571 59.4092H125.485L140.591 74.5569V89.156H125.106Z" fill="#ED1E24"/>
<path fill-rule="evenodd" clip-rule="evenodd" d="M107.258 100L118.397 110.633L103.629 106.287L100 121.224L96.3714 106.287L81.6035 110.633L92.7428 100L81.6035 89.3671L96.3714 93.7131L100 78.7764L103.629 93.7131L118.397 89.3671L107.258 100Z" fill="#ED1E24"/>
</g>
<defs>
<clipPath id="clip0_106_6596">
<rect width="200" height="200" fill="white"/>
</clipPath>
</defs>
</svg>
