<svg width="200" height="200" viewBox="0 0 200 200" fill="none" xmlns="http://www.w3.org/2000/svg">
<g clip-path="url(#clip0_106_6585)">
<path d="M100 200C155.228 200 200 155.228 200 100C200 44.7715 155.228 0 100 0C44.7715 0 0 44.7715 0 100C0 155.228 44.7715 200 100 200Z" fill="black"/>
<path d="M100 155.994C130.925 155.994 155.994 130.925 155.994 100C155.994 69.0753 130.925 44.0059 100 44.0059C69.0753 44.0059 44.0059 69.0753 44.0059 100C44.0059 130.925 69.0753 155.994 100 155.994Z" fill="#0085CA"/>
<path d="M99.9999 194.006C48.1555 194.006 5.99414 151.844 5.99414 99.9999C5.99414 48.1555 48.1555 5.99414 99.9999 5.99414C151.844 5.99414 194.006 48.1555 194.006 99.9999C194.006 151.844 151.844 194.006 99.9999 194.006ZM191.988 99.9999C191.988 49.2794 150.72 8.01143 99.9999 8.01143C49.2794 8.01143 8.01143 49.2794 8.01143 99.9999C8.01143 150.72 49.2794 191.988 99.9999 191.988C150.72 191.988 191.988 150.72 191.988 99.9999Z" fill="white"/>
<path d="M99.9999 164.006C64.6973 164.006 35.9941 135.302 35.9941 99.9999C35.9941 64.6973 64.6973 35.9941 99.9999 35.9941C135.302 35.9941 164.006 64.6973 164.006 99.9999C164.006 135.302 135.302 164.006 99.9999 164.006ZM161.988 99.9999C161.988 65.8212 134.179 38.0114 99.9999 38.0114C65.8212 38.0114 38.0114 65.8212 38.0114 99.9999C38.0114 134.179 65.8212 161.988 99.9999 161.988C134.179 161.988 161.988 134.179 161.988 99.9999Z" fill="white"/>
<path d="M125.706 128.357L124.495 131.787C124.351 132.219 124.034 132.565 123.602 132.738C121.498 133.602 114.322 136.081 100.72 136.081C86.9448 136.081 78.6451 133.372 76.3108 132.478C75.8786 132.305 75.5327 131.959 75.3886 131.527L74.2359 128.155C74.1494 127.896 74.2935 127.579 74.5529 127.493C74.6394 127.464 74.7546 127.464 74.8699 127.493C83.0544 129.712 91.527 130.807 99.9996 130.778C108.443 130.807 116.887 129.769 125.072 127.694C125.36 127.608 125.619 127.781 125.706 128.069C125.734 128.127 125.734 128.242 125.706 128.357ZM99.9996 126.743C113.602 126.743 124.034 123.833 126.858 122.968C127.348 122.824 127.723 122.449 127.896 121.959L142.075 80.8644C141.959 80.4609 141.671 80.1439 141.296 79.971C140.605 79.6252 139.798 79.8845 139.394 80.5474C136.253 85.8788 133.083 87.5214 132.046 88.0402L132.017 88.069C131.354 88.4148 131.008 89.1641 131.181 89.8846V89.971C131.239 90.2304 131.325 90.605 131.383 91.0661C131.441 91.4696 131.469 91.9883 131.527 92.5647C131.613 93.775 131.585 94.9854 131.412 96.167C128.443 98.0114 124.438 99.7693 121.268 98.6165C118.76 97.6943 116.83 93.7462 116.138 85.5041C116.945 83.9479 118.011 82.5358 119.308 81.3255L119.337 81.2966C119.884 80.7779 120.028 79.9998 119.683 79.337C119.683 79.337 119.683 79.3082 119.654 79.3082L119.625 79.2794C119.51 79.0488 119.337 78.703 119.135 78.2707C118.991 77.8961 118.818 77.4062 118.616 76.8586C118.069 75.1295 117.608 72.5647 117.867 68.9335C117.953 68.1843 117.464 67.4638 116.714 67.2621C115.936 67.0892 115.158 67.5214 114.956 68.2995C113.285 74.2938 110.662 76.7145 109.798 77.5214L109.769 77.5502C109.222 78.0402 109.077 78.8471 109.423 79.5099L109.452 79.5387L109.481 79.5675C109.596 79.7981 109.769 80.1439 109.971 80.5762C110.115 80.9508 110.288 81.4407 110.49 81.9883C110.778 82.9681 111.008 83.9768 111.124 84.9854C106.916 92.824 103.832 95.5618 99.9996 95.5906C96.1667 95.5618 93.0832 92.824 88.8757 84.9854C88.991 83.9768 89.2215 82.9681 89.5097 81.9883C89.6826 81.4407 89.8843 80.9796 90.0284 80.5762C90.2301 80.1439 90.4031 79.7981 90.5183 79.5675L90.5471 79.5387L90.576 79.5099C90.9218 78.8471 90.7777 78.0402 90.2301 77.5502L90.2013 77.5214C89.3368 76.7145 86.7143 74.2938 85.0428 68.2995C84.8411 67.5503 84.063 67.0892 83.2849 67.2621C82.5356 67.4638 82.0745 68.1554 82.1322 68.9335C82.3915 72.5358 81.9304 75.1295 81.3829 76.8586C81.21 77.4062 81.0082 77.8673 80.8641 78.2707C80.6624 78.703 80.4895 79.0488 80.3742 79.2794L80.3454 79.3082C80.3454 79.337 80.3454 79.337 80.3166 79.337C79.9708 79.9998 80.1149 80.8067 80.6624 81.2966L80.6912 81.3255C81.9881 82.507 83.0543 83.9191 83.8613 85.5041C83.1696 93.7462 81.2388 97.7232 78.7316 98.6165C75.5616 99.7693 71.5558 97.9825 68.5875 96.167C68.4146 94.9854 68.3569 93.7462 68.4722 92.5647C68.501 91.9883 68.5587 91.4984 68.6163 91.0661C68.6739 90.605 68.7604 90.2304 68.818 89.971V89.8846C68.9621 89.1641 68.6163 88.4148 67.9823 88.069L67.9535 88.0402C66.916 87.4926 63.746 85.85 60.6048 80.5474C60.2301 79.8845 59.3944 79.6252 58.7028 79.971C58.3281 80.1439 58.0399 80.4897 57.9247 80.8644L72.0169 121.7C72.1898 122.161 72.5356 122.536 73.0255 122.68C75.8209 123.602 86.4261 126.743 99.9996 126.743ZM79.8555 112.622C81.7575 112.622 83.2849 114.15 83.2849 116.052C83.2849 117.954 81.7575 119.481 79.8555 119.481C77.9535 119.481 76.4261 117.954 76.4261 116.052C76.4261 114.15 77.9535 112.622 79.8555 112.622ZM120.144 112.622C122.046 112.622 123.573 114.179 123.544 116.052C123.544 117.954 121.988 119.481 120.115 119.452C118.242 119.423 116.685 117.896 116.714 116.023C116.714 114.15 118.242 112.622 120.144 112.622ZM93.2849 114.236C95.1869 114.236 96.7143 115.764 96.7143 117.666C96.7143 119.568 95.1869 121.095 93.2849 121.095C91.3829 121.095 89.8555 119.568 89.8555 117.666C89.8555 115.764 91.3829 114.207 93.2849 114.236C93.2849 114.207 93.2849 114.207 93.2849 114.236ZM106.714 114.236C108.616 114.236 110.144 115.764 110.144 117.666C110.144 119.568 108.616 121.095 106.714 121.095C104.812 121.095 103.285 119.568 103.285 117.666C103.285 115.764 104.812 114.207 106.714 114.236C106.714 114.207 106.714 114.207 106.714 114.236ZM44.38 51.7001C44.4953 53.2851 43.8901 55.216 42.478 56.8298C40.4031 59.2505 36.8584 59.2505 34.1495 56.9162C31.3541 54.5243 30.9506 50.922 33.0544 48.4436C34.0918 47.2332 35.4751 46.3687 36.9737 45.9076L37.0025 45.85L34.6394 43.8039C33.5154 44.4955 32.478 45.3889 31.6134 46.3975C28.1552 50.4321 27.9247 55.9652 32.1898 59.6252C35.8497 62.7664 40.8353 62.6223 44.1783 58.7318C45.4175 57.3485 46.282 55.6482 46.6855 53.8327L44.4088 51.6425L44.38 51.7001ZM57.4636 38.9624L52.6797 33.2563C51.3252 31.6425 50.6624 30.5185 50.0861 29.02L46.6567 31.873C48.0111 32.7087 49.0198 33.5733 50.3742 35.1871L51.9016 37.0315L46.6567 41.4119L45.1293 39.5964C43.7748 37.9825 43.0832 36.8586 42.5356 35.36L39.1062 38.2131C40.4607 39.0488 41.4693 39.9134 42.8238 41.5272L47.5212 47.118C48.8757 48.7318 49.5385 49.8557 50.1149 51.3543L53.429 48.386C52.0745 47.5502 51.0659 46.6857 49.7114 45.0719L48.2705 43.3428L53.5154 38.9624L54.9852 40.7203C56.3397 42.3341 57.0025 43.458 57.5788 44.9566L61.1812 42.3053C59.7979 41.4407 58.7892 40.5762 57.4636 38.9624ZM88.3569 23.9191C90.1437 22.5647 90.9794 20.8644 90.6048 18.8471C90.1149 16.1958 87.4924 14.3514 83.0543 15.1583L78.9045 15.9076C79.6826 17.2909 80.1149 18.5589 80.4895 20.605L81.7863 27.7808C82.161 29.8269 82.1898 31.1814 81.9304 32.7376L86.3685 31.7001C85.5904 30.3168 85.1581 29.0488 84.7835 27.0027L84.2935 24.3226C86.1667 26.2822 87.867 27.9249 89.3944 29.2217C90.4895 30.1439 91.4405 30.6915 92.0745 30.8067L94.9276 30.5185V30.4321C92.1898 28.0113 90.259 26.1958 88.3569 23.9191ZM84.2647 24.0344L82.9967 17.0315C85.1869 16.6281 87.1754 17.6367 87.5788 19.7404C87.867 21.3543 86.8008 22.9393 84.2647 24.0344ZM102.247 28.3572L102.651 18.4436C102.737 16.3687 102.997 15.043 103.573 13.5733L99.0486 13.4004C99.5097 14.9278 99.6538 16.2534 99.5961 18.3572L99.3079 25.5618C99.2215 27.6367 98.9621 28.9624 98.3858 30.4609L107.233 30.7779L108.905 27.118L108.876 27.0892C107.377 27.6943 104.38 28.2707 102.247 28.3572ZM124.236 16.7145C119.308 15.2736 114.38 17.9825 113.026 22.6799C111.758 26.9739 113.89 32.0171 119.25 33.5733C124.236 35.0142 129.164 32.5647 130.634 27.5502C132.103 22.5358 129.049 18.1266 124.236 16.7145ZM127.147 27.3773C126.253 30.4609 123.487 32.3629 120.49 31.4696C116.858 30.4321 115.417 26.4551 116.484 22.8817C117.464 19.4811 120.374 18.0402 123.026 18.8183C126.426 19.7981 128.213 23.7174 127.147 27.3773ZM146.08 30.5762L148.991 28.3572L137.348 21.7001L134.668 24.2649L134.697 24.3226C136.599 24.3802 138.472 24.9278 140.115 25.8788L135.302 34.3226C134.265 36.1381 133.458 37.2044 132.219 38.2419L136.167 40.4897C136.455 38.9335 136.945 37.6655 137.953 35.85L142.766 27.4062C144.409 28.4148 145.389 29.3658 146.08 30.5762ZM159.74 41.9307L163.054 40.3745L153.054 31.4407L149.913 33.4004V33.458C151.758 33.9191 153.458 34.8413 154.87 36.1381L148.415 43.3428C147.031 44.899 145.994 45.7635 144.582 46.5128L147.953 49.5387C148.559 48.069 149.308 46.9451 150.691 45.3889L157.175 38.1843C158.559 39.4523 159.308 40.605 159.74 41.9307ZM75.8786 30.7491L68.5875 23.9768C67.4636 22.9969 66.4261 21.9018 65.4463 20.7491L63.0255 21.8442C63.2561 23.3428 63.3425 24.8413 63.3137 26.3687V36.4551C63.3137 38.5877 63.1696 39.8269 62.8238 41.0373L62.8526 41.0949L67.0313 38.703C66.916 38.5301 66.8296 38.386 66.7431 38.2131C66.4837 37.6079 66.3397 36.8298 66.282 35.6482L73.1696 32.507C74.0918 33.4004 74.5529 33.9479 74.8123 34.5531C74.8987 34.726 74.9564 34.899 74.9852 35.1007L79.4809 33.4292L79.452 33.3716C78.184 32.6799 76.9448 31.8154 75.8786 30.7491ZM71.2964 30.605L66.282 32.8817L66.1667 25.7059L71.2964 30.605ZM166.167 44.1209C165.273 45.4465 164.351 46.3975 162.68 47.6655L156.945 52.0171C155.273 53.2851 154.092 53.9191 152.564 54.409L159.51 63.8327L163.256 62.8528V62.7952C161.296 61.6713 159.51 60.0286 157.579 57.3773L156.628 56.0805L160.835 52.9105L161.786 54.1785C162.881 55.7059 163.717 57.2332 163.948 58.2419L167.348 57.8384L162.622 51.5848L166.743 48.4724L167.723 49.7405C168.876 51.239 169.625 53.0258 169.884 54.899L173.371 54.1209L166.167 44.1209ZM36.0803 143.4L39.308 141.181C40.0284 142.219 40.576 143.429 40.6624 144.236L43.0255 143.948L39.0198 138.127C38.3281 139.078 37.4348 139.885 36.4549 140.547L32.1898 143.487C31.2388 144.207 30.1725 144.726 29.0198 145.043L30.8353 147.694C31.527 146.743 32.4203 145.936 33.429 145.274L34.8411 144.294C35.5904 145.389 35.9938 146.253 36.0515 147.032L38.3858 146.715L36.0803 143.4ZM48.6163 150C46.0803 147.406 42.0745 147.349 39.5961 149.769C37.3195 151.988 36.8872 155.85 39.625 158.674C42.1898 161.325 46.1091 161.498 48.7604 158.934C51.4117 156.369 51.0947 152.536 48.6163 150ZM46.7143 157.579C45.0716 159.164 42.7085 159.366 41.1812 157.781C39.308 155.879 39.7979 152.91 41.6999 151.066C43.4866 149.308 45.7921 149.423 47.1466 150.836C48.9045 152.651 48.6451 155.706 46.7143 157.579ZM60.1725 159.625C57.1466 157.608 53.2273 158.386 51.2964 161.239C49.5385 163.89 49.8843 167.723 53.1696 169.942C56.2244 171.988 60.0861 171.383 62.161 168.3C64.2359 165.216 63.112 161.585 60.1725 159.625ZM59.8555 167.435C58.5875 169.308 56.3108 170.029 54.4953 168.789C52.2763 167.291 52.161 164.323 53.6307 162.132C55.0428 160.057 57.2907 159.683 58.9333 160.778C60.9794 162.161 61.3541 165.187 59.8555 167.435ZM67.5212 164.265L65.8209 166.282V166.311C67.1754 166.225 68.5299 166.455 69.769 167.003L66.9737 173.487C66.5414 174.582 65.9074 175.619 65.1005 176.484L68.0688 177.781C68.1552 176.599 68.4722 175.447 68.9909 174.351L71.7863 167.867C72.795 168.271 73.6884 168.934 74.3512 169.827L76.2532 168.04L67.5212 164.265ZM106.426 182.161L105.85 175.158C105.706 173.977 105.792 172.795 106.08 171.642L102.881 171.902C103.371 172.997 103.631 174.15 103.688 175.331L104.121 180.49C104.265 181.671 104.178 182.853 103.89 184.006L110.115 183.487L111.008 180.663L110.979 180.634C110 181.239 107.925 181.902 106.426 182.161ZM117.752 180.49L116.196 173.631C115.907 172.478 115.792 171.297 115.936 170.115L112.795 170.836C113.429 171.844 113.861 172.968 114.063 174.121L115.216 179.164C115.504 180.317 115.619 181.498 115.475 182.68L121.585 181.297L122.075 178.357L122.046 178.328C121.152 179.078 119.221 180.029 117.752 180.49ZM140.144 170.547C139.625 171.815 138.645 172.824 137.406 173.4C135.331 174.409 132.997 173.458 131.873 171.153C130.72 168.789 131.469 166.34 133.602 165.302C134.639 164.813 135.792 164.611 136.945 164.726L136.974 164.697L135.994 162.709C135.043 162.853 134.121 163.141 133.256 163.602C129.798 165.302 128.069 168.876 129.827 172.449C131.325 175.533 134.668 176.801 138.011 175.158C139.25 174.582 140.288 173.717 141.095 172.622L140.201 170.547H140.144ZM150.259 163.948C149.711 164.957 148.299 166.599 147.118 167.579L143.054 161.844C142.334 160.893 141.786 159.827 141.469 158.703L138.847 160.547C139.798 161.239 140.634 162.104 141.296 163.083L144.294 167.32C145.014 168.271 145.562 169.337 145.879 170.461L150.979 166.859L150.317 163.977L150.259 163.948ZM155.763 150.864C154.899 150.057 154.207 149.078 153.717 148.011L151.412 150.259C152.478 150.807 153.429 151.527 154.207 152.392L157.204 155.475C158.213 156.484 158.213 158.098 157.233 159.106C157.204 159.135 157.175 159.164 157.147 159.164C156.167 160.115 154.841 160.115 153.458 158.674L150.662 155.792C149.798 154.985 149.106 154.006 148.616 152.939L146.311 155.187C147.377 155.735 148.328 156.455 149.106 157.32L151.873 160.173C154.063 162.449 156.167 162.709 157.867 161.037C158.645 160.259 159.193 159.164 159.481 157.637C159.769 157.925 160.028 158.242 160.259 158.588L162.219 156.686C161.152 156.138 160.201 155.418 159.423 154.553L155.763 150.864ZM82.9967 169.885L78.9045 168.761C78.991 169.942 78.8469 171.124 78.501 172.276L77.1466 177.291C76.8872 178.444 76.3973 179.539 75.7345 180.519L79.8555 181.642C82.2186 182.276 84.5817 181.47 85.1005 179.481C85.4463 178.213 84.9852 177.147 83.8325 175.965C84.9276 175.619 85.7345 174.928 85.9938 173.977C86.4549 172.219 85.3022 170.519 82.9967 169.885ZM82.9103 178.905C82.5933 180.057 81.2964 180.749 79.5673 180.288L78.6739 180.029L79.9131 175.504C82.4492 176.225 83.2561 177.637 82.9103 178.905ZM83.8036 173.487C83.5443 174.467 82.0745 174.928 80.1725 174.409L81.1812 170.663L82.0745 170.922C83.3425 171.239 84.1206 172.392 83.8036 173.487ZM168.357 143.227C167.291 142.421 166.167 142.478 164.611 143.112C164.697 141.959 164.351 140.951 163.544 140.374C162.103 139.279 160.086 139.74 158.645 141.642L156.109 145.043C157.233 145.418 158.299 145.965 159.221 146.715L163.371 149.827C164.351 150.519 165.187 151.354 165.85 152.334L168.415 148.934C169.884 146.945 170 144.467 168.357 143.227ZM158.732 143.573L159.308 142.824C160.057 141.815 161.412 141.527 162.334 142.19C163.141 142.795 163.026 144.323 161.844 145.908L158.732 143.573ZM167.06 148.674L166.484 149.423L162.737 146.599C164.322 144.467 165.965 144.265 167.002 145.043C167.953 145.764 168.126 147.233 167.06 148.674ZM96.3397 174.813C95.965 173.804 95.6768 172.795 95.4751 171.729L93.5731 171.585C93.1984 172.593 92.7085 173.573 92.161 174.496L88.7604 180.547C88.2705 181.527 87.6077 182.421 86.8584 183.227V183.285L90.1725 183.545V183.141C90.2013 182.622 90.4319 182.017 90.9218 181.124L90.9794 181.008L96.1956 181.412L96.2244 181.498C96.5702 182.565 96.6855 183.141 96.6567 183.66C96.6567 183.804 96.6278 183.919 96.5702 184.063L99.942 184.323V184.265C99.308 183.4 98.8469 182.421 98.5299 181.383L96.3397 174.813ZM91.9016 179.251L94.1494 175.014H94.2359L95.648 179.51L91.9016 179.251Z" fill="white"/>
<path d="M173.775 75.1872C174.553 74.9278 175.418 75.3889 175.648 76.167C175.908 76.9451 175.475 77.7809 174.697 78.0402H174.668C174.294 78.1555 173.89 78.1267 173.516 77.9538C173.141 77.7809 172.882 77.4639 172.766 77.0604C172.565 76.2823 172.997 75.4466 173.775 75.1872ZM173.487 82.2765L176.887 84.899C177.608 85.4466 177.982 85.5907 178.472 85.4754C179.02 85.3601 179.308 84.899 179.164 84.2362C179.049 83.6598 178.616 83.2852 178.069 83.4005C177.896 83.4293 177.752 83.5157 177.608 83.6022L176.916 81.7866C177.176 81.6137 177.464 81.4984 177.752 81.4408C178.386 81.3255 179.049 81.4984 179.567 81.9307C180.173 82.4494 180.576 83.1699 180.691 83.948C181.066 85.7924 180.374 87.0604 179.049 87.3198C178.098 87.5215 177.32 87.2045 176.196 86.3688L174.38 85.0143L175.014 88.1555L173.458 88.4725L172.276 82.5359L173.487 82.2765ZM178.386 99.0489C177.291 99.1641 176.225 98.8183 175.389 98.0979C173.833 96.5417 173.689 94.0633 175.072 92.363C175.763 91.5849 176.743 91.1814 177.954 91.095C179.164 91.0085 180.173 91.3543 180.951 92.046C182.507 93.6022 182.622 96.0806 181.239 97.7809C180.518 98.5878 179.481 99.0201 178.386 99.0489ZM175.792 95.1872C175.792 95.7348 176.052 96.2535 176.513 96.5993C177.031 96.9451 177.665 97.118 178.271 97.0604C178.905 97.0604 179.51 96.8298 180 96.4264C180.403 96.0518 180.605 95.5042 180.547 94.9566C180.547 94.4091 180.288 93.8904 179.827 93.5445C179.308 93.1987 178.703 93.0258 178.069 93.0834C177.435 93.0834 176.83 93.314 176.369 93.7175C175.965 94.0921 175.763 94.6397 175.792 95.1872ZM175.504 102.478L178.098 105.908C178.645 106.628 178.962 106.859 179.452 106.887C180 106.916 180.403 106.542 180.461 105.879C180.518 105.302 180.173 104.813 179.625 104.784C179.452 104.784 179.279 104.813 179.135 104.87L178.962 102.911C179.25 102.824 179.539 102.795 179.856 102.795C180.518 102.853 181.095 103.199 181.469 103.717C181.931 104.38 182.104 105.187 182.017 105.965C181.873 107.838 180.893 108.876 179.567 108.79C178.588 108.732 177.925 108.213 177.06 107.118L175.677 105.302L175.446 108.501L173.861 108.386L174.294 102.363L175.504 102.478ZM174.553 112.219L176.686 115.965C177.118 116.743 177.435 117.003 177.896 117.118C178.415 117.233 178.876 116.916 179.02 116.253C179.135 115.677 178.876 115.158 178.357 115.043C178.184 115.014 178.011 115.014 177.838 115.043L177.896 113.083C178.184 113.026 178.501 113.026 178.789 113.083C179.423 113.228 179.971 113.66 180.288 114.236C180.634 114.957 180.749 115.764 180.547 116.542C180.173 118.386 179.049 119.279 177.752 119.02C176.801 118.818 176.196 118.242 175.504 117.06L174.351 115.072L173.717 118.213L172.161 117.896L173.343 111.96L174.553 112.219ZM174.582 122.334C175.36 122.594 175.821 123.429 175.562 124.236C175.331 125.014 174.495 125.475 173.717 125.216H173.689C172.91 124.957 172.478 124.121 172.709 123.314C172.824 122.939 173.083 122.622 173.458 122.449C173.775 122.248 174.207 122.19 174.582 122.334ZM29.4234 123.573L21.9018 125.619L21.383 123.746L26.2822 120.029L20.1727 119.308L19.6539 117.435L27.1755 115.389L27.6366 117.089L23.5156 118.213L24.7548 118.271L28.0977 118.703L28.53 120.288L25.8787 122.363L24.8412 123.026L28.9623 121.902L29.4234 123.573ZM26.8009 112.622L19.1064 113.862L18.8182 112.075L26.5127 110.836L26.8009 112.622ZM26.0804 108.04L18.2995 108.53L18.1842 106.743L22.4205 103.631C22.5934 103.487 22.7951 103.372 22.9969 103.256L17.9825 103.573L17.8672 101.815L25.6482 101.326L25.7634 103.112L21.4983 106.225C21.2966 106.369 21.1237 106.484 20.8931 106.599L25.9652 106.282L26.0804 108.04ZM19.4522 98.8471L17.8672 98.7607L18.213 92.363L19.798 92.4494L19.6828 94.7549L25.8787 95.0719L25.7923 96.8587L19.5963 96.5129L19.4522 98.8471ZM26.2534 90.6339L18.5588 89.3659L19.481 83.7463L21.0372 84.0056L20.4032 87.8385L21.7865 88.069L22.3629 84.5532L23.8902 84.8126L23.3139 88.3284L24.9853 88.6166L25.6193 84.7261L27.1755 84.9855L26.2534 90.6339ZM27.6943 82.68L20.2015 80.5186L20.8931 78.0979C21.2389 76.8587 21.873 75.9365 22.7087 75.3313C23.5444 74.7261 24.6107 74.6396 25.8211 74.9855C27.0315 75.3313 27.8672 75.9941 28.2706 76.9451C28.6741 77.8961 28.7317 78.9912 28.3571 80.2592L27.6943 82.68ZM26.8585 79.6541C27.262 78.242 26.7145 77.1469 25.3312 76.7434C23.9479 76.3399 22.9104 76.9739 22.4781 78.386L22.2476 79.2218L26.628 80.4898L26.8585 79.6541Z" fill="#0085CA"/>
</g>
<defs>
<clipPath id="clip0_106_6585">
<rect width="200" height="200" fill="white"/>
</clipPath>
</defs>
</svg>
