<svg width="200" height="200" viewBox="0 0 200 200" fill="none" xmlns="http://www.w3.org/2000/svg">
<g clip-path="url(#clip0_106_6436)">
<path d="M131.528 41.7895L99.9457 16.9603L68.3632 41.7895L99.9457 20.3482L131.528 41.7895ZM82.9631 159.744L99.9457 180.132L116.928 159.744L99.9457 175.572L82.9631 159.744ZM115.81 106.676L99.9447 90.3396L84.0792 106.676L81.1863 104.122L67.1016 118.655C67.7687 119.768 68.4515 120.872 69.15 121.967L82.4964 106.192L85.1933 108.923L99.9447 91.4547L114.697 108.923L117.394 106.192L130.738 121.968C131.438 120.874 132.122 119.77 132.789 118.656L118.702 104.122L115.81 106.676Z" fill="white"/>
<path d="M99.9454 116.371L104.078 119.375L102.497 124.233H97.3919L95.8131 119.375L99.9454 116.371ZM99.9454 127.494C105.425 127.494 109.909 123.26 110.325 117.886L109.698 117.535L110.173 115.156C109.86 113.479 109.141 111.904 108.079 110.569C107.016 109.235 105.642 108.181 104.078 107.501L99.9454 110.501L95.8131 107.501C94.2479 108.181 92.8736 109.235 91.8109 110.57C90.7482 111.905 90.0296 113.481 89.7182 115.159L90.19 117.535L89.5647 117.885C89.9808 123.26 94.4626 127.494 99.9454 127.494ZM70.5618 59.6977C70.5618 59.1603 71.0022 58.5927 71.5386 58.4351L73.3184 57.9118C73.8557 57.7563 74.2941 58.0684 74.2941 58.6048V72.2653C74.2941 72.8036 73.8557 73.3723 73.3184 73.5289L71.5386 74.0501C71.0022 74.2077 70.5618 73.8966 70.5618 73.3592V59.6977ZM70.8598 76.7582L73.9971 75.839C75.6759 75.3481 77.0496 73.5713 77.0496 71.8935V57.3644C77.0496 55.6846 75.6759 54.7139 73.9971 55.2068L70.8598 56.124C69.18 56.6159 67.8073 58.3927 67.8073 60.0714V74.5996C67.8073 76.2794 69.18 77.2501 70.8598 76.7582ZM91.5667 70.2087C91.4417 70.22 91.3158 70.205 91.197 70.1646C91.0783 70.1241 90.9693 70.0592 90.8772 69.974C90.7852 69.8887 90.712 69.7851 90.6625 69.6698C90.613 69.5545 90.5883 69.4301 90.5899 69.3047V55.6432C90.5899 55.1068 91.0303 54.6341 91.5667 54.5927L93.3465 54.4573C93.4713 54.4458 93.5971 54.4607 93.7158 54.501C93.8345 54.5413 93.9435 54.606 94.0355 54.691C94.1276 54.7761 94.2008 54.8795 94.2504 54.9946C94.2999 55.1098 94.3248 55.234 94.3232 55.3593V69.0208C94.3232 69.5582 93.8839 70.032 93.3465 70.0724L91.5667 70.2087ZM97.0778 69.2461V54.7169C97.0778 53.0382 95.7051 51.7684 94.0263 51.8967L90.8879 52.1351C89.2091 52.2624 87.8364 53.7401 87.8364 55.4189V69.9471C87.8364 71.6259 89.2091 72.8955 90.8879 72.7683L94.0263 72.5299C95.7051 72.4026 97.0778 70.9249 97.0778 69.2461ZM140.145 77.4915C140.145 78.0289 139.705 78.2804 139.168 78.0511L137.388 77.2915C136.85 77.0602 136.411 76.4329 136.411 75.8976V62.235C136.411 61.6987 136.85 61.4461 137.388 61.6754L139.168 62.4361C139.705 62.6654 140.145 63.2926 140.145 63.83V77.4915ZM139.845 60.2169L136.709 58.8775C135.03 58.1583 133.656 58.9472 133.656 60.625V75.1541C133.656 76.8319 135.03 78.7925 136.709 79.5097L139.845 80.85C141.524 81.5672 142.897 80.7804 142.897 79.1026V64.5724C142.897 62.8946 141.524 60.933 139.845 60.2169ZM65.3669 60.9644C65.3669 59.2866 63.9942 58.5068 62.3154 59.2341L60.0427 60.2179C58.3639 60.9431 56.9912 62.9128 56.9912 64.5906V79.1198C56.9912 80.7985 58.3639 81.5773 60.0427 80.85L62.3154 79.8662C63.9942 79.14 65.3669 77.1723 65.3669 75.4955V74.1087L65.78 73.6663V73.3824L62.1993 74.9329V75.2148L62.6124 75.2986V76.2541C62.6124 76.7885 62.174 77.4198 61.6376 77.6521L60.7215 78.0491C60.1841 78.2814 59.7457 78.0309 59.7457 77.4935V63.831C59.7457 63.2956 60.1841 62.6663 60.7215 62.433L61.6376 62.0371C62.174 61.8047 62.6124 62.0542 62.6124 62.5896V64.3673L62.1993 64.8088V65.0916L65.78 63.5431V63.2583L65.3669 63.1734V60.9644ZM85.8082 70.4481L85.5274 70.4986L85.2627 70.9592L82.2435 71.5067V53.9291L82.6557 53.5917V53.3068L79.0749 53.9563V54.2391L79.489 54.429V73.9673L79.0749 74.3047V74.5895L85.8082 73.3693V70.4481ZM127.9 73.9279L125.142 73.1895V57.5745L127.9 58.3118C128.436 58.4563 128.877 59.0118 128.877 59.5512V73.2107C128.877 73.7501 128.436 74.0723 127.9 73.9279ZM131.63 74.3844V59.8543C131.63 58.1775 130.257 56.4371 128.579 55.9846L121.978 54.2149V54.4997L122.39 54.8735V74.4127L121.978 74.5642V74.8481L128.579 76.6177C130.257 77.0672 131.63 76.0622 131.63 74.3844ZM105.139 60.933C105.14 61.0596 105.115 61.185 105.065 61.3016C105.016 61.4182 104.943 61.5235 104.852 61.6112C104.761 61.6988 104.652 61.767 104.534 61.8116C104.415 61.8561 104.289 61.8762 104.163 61.8704L102.271 61.7957V54.3603L104.163 54.4351C104.424 54.4487 104.671 54.5614 104.852 54.7504C105.034 54.9393 105.136 55.1903 105.139 55.4523V60.933ZM108.72 72.4592L108.108 72.0451L105.835 64.2784C106.434 64.0941 106.957 63.722 107.328 63.2171C107.698 62.7123 107.896 62.1017 107.893 61.4754V55.128C107.893 53.4492 106.52 52.021 104.841 51.9543L99.104 51.724V52.0079L99.5171 52.2877V71.8269L99.104 72.0744V72.3572L102.685 72.3915V72.1077L102.271 71.8279V64.3027L103.132 64.3381L105.522 72.5107L108.72 72.743V72.4592ZM113.914 63.3744V56.2987C113.914 55.7613 114.354 55.3927 114.891 55.4775L115.806 55.621C116.342 55.7068 116.781 56.2169 116.781 56.7533V63.828L113.914 63.3744ZM116.369 73.444V73.7269L119.951 74.4047V74.1208L119.537 73.7915V56.7573C119.537 55.0785 118.163 53.4876 116.485 53.221L114.212 52.8604C112.533 52.5947 111.16 53.7503 111.16 55.429V72.4633L110.745 72.6602V72.9451L114.326 73.4037V73.1198L113.914 72.7915V65.8815L116.781 66.338V73.2461L116.369 73.444ZM105.831 79.4511V79.3066H103.385V79.4511C103.569 79.4511 103.718 79.547 103.718 79.6632V85.1904C103.718 85.3066 103.569 85.4026 103.385 85.4026V85.545H105.831V85.4026C105.646 85.4026 105.498 85.3066 105.498 85.1904V79.6632C105.498 79.547 105.646 79.4511 105.831 79.4511ZM111.174 80.7056H112.691C113.642 80.7056 114.411 81.1692 114.411 82.4268C114.411 83.6823 113.642 84.147 112.691 84.147H111.174V80.7056ZM109.06 85.4015V85.545H113.072C114.794 85.545 116.191 84.4965 116.191 82.4268C116.191 80.3561 114.794 79.3077 113.072 79.3077H109.06V79.4511C109.246 79.4511 109.394 79.547 109.394 79.6632V85.1894C109.394 85.3076 109.246 85.4015 109.06 85.4015ZM96.2849 80.7056H98.2545C98.4208 80.7149 98.5772 80.7875 98.6916 80.9084C98.806 81.0294 98.8698 81.1896 98.8698 81.3561C98.8698 81.5226 98.806 81.6828 98.6916 81.8038C98.5772 81.9248 98.4208 81.9973 98.2545 82.0066H96.2849V80.7056ZM98.6343 83.4076C99.1701 83.3957 99.68 83.1745 100.055 82.7913C100.429 82.4082 100.639 81.8936 100.639 81.3576C100.639 80.8217 100.429 80.307 100.055 79.9239C99.68 79.5407 99.1701 79.3195 98.6343 79.3077H94.1727V79.4511C94.3566 79.4511 94.5051 79.547 94.5051 79.6632V85.1894C94.5051 85.3076 94.3566 85.4015 94.1727 85.4015V85.545H96.6182V85.4015C96.4333 85.4015 96.2849 85.3076 96.2849 85.1894V83.4076H98.6343ZM79.087 82.0066H76.8001V80.7056H79.087C79.2595 80.7056 79.425 80.7741 79.547 80.8961C79.669 81.0181 79.7375 81.1836 79.7375 81.3561C79.7375 81.5286 79.669 81.6941 79.547 81.8161C79.425 81.9381 79.2595 82.0066 79.087 82.0066ZM81.5163 81.3561C81.5163 81.087 81.4632 80.8206 81.3602 80.572C81.2572 80.3234 81.1062 80.0975 80.9159 79.9073C80.7256 79.717 80.4997 79.5662 80.251 79.4633C80.0024 79.3604 79.7359 79.3075 79.4668 79.3077H74.688V79.4521C74.8719 79.4521 75.0204 79.546 75.0204 79.6642V85.1894C75.0204 85.3076 74.8719 85.4015 74.688 85.4015V85.545H77.1325V85.4015C76.9486 85.4015 76.8001 85.3076 76.8001 85.1894V83.4086H77.9961L79.2547 85.1894C79.3365 85.3076 79.2557 85.4015 79.0718 85.4015V85.545H81.5163V85.4015C81.3334 85.4015 81.1173 85.3076 81.0345 85.1894L79.7617 83.3874C80.2493 83.3158 80.6949 83.0713 81.0171 82.6983C81.3392 82.3254 81.5164 81.8489 81.5163 81.3561ZM86.599 83.244L87.7415 80.248L88.8849 83.244H86.599ZM89.3758 85.4026V85.545H91.5354V85.3874C91.4021 85.3541 91.2879 85.2793 91.2536 85.1904L89.1465 79.6632C89.1011 79.547 89.2132 79.4511 89.398 79.4511V79.3077H86.0859V79.4511C86.2698 79.4511 86.3829 79.547 86.3384 79.6632L84.2294 85.1904C84.1971 85.2793 84.0819 85.3541 83.9506 85.3874V85.545H86.1102V85.4026C85.9253 85.4026 85.8132 85.3066 85.8577 85.1904L86.2556 84.147H89.2293L89.6263 85.1904C89.6718 85.3066 89.5586 85.4026 89.3758 85.4026ZM119.221 83.1026L118.345 85.2137L118.489 85.249C118.489 85.249 118.6 85.0965 118.724 85.0965C119.089 85.0965 119.637 85.6056 121.922 85.6056C123.489 85.6056 125.203 85.1975 125.203 83.4955C125.203 80.8511 120.424 82.0177 120.424 81.0803C120.424 80.6511 121.173 80.4632 121.659 80.4632C123.336 80.4632 124.288 80.8864 124.137 81.2066L124.28 81.2753L125.096 79.6187L124.967 79.5692C124.967 79.5692 124.874 79.7531 124.646 79.7531C124.421 79.7531 123.1 79.2491 121.659 79.2491C120.111 79.2491 118.643 79.949 118.643 81.0803C118.643 83.7258 123.423 82.4278 123.423 83.4955C123.423 83.9904 122.92 84.2046 121.922 84.2046C119.641 84.2046 119.209 83.4803 119.343 83.1642L119.221 83.1026Z" fill="white"/>
<path d="M99.9459 193.932C63.7715 157.43 37.6868 101.594 36.9999 58.2097L99.9459 5.14441C104.533 9.01205 160.197 55.938 162.89 58.2097C162.204 101.594 136.12 157.43 99.9459 193.932ZM99.9459 -0.00100238L33.001 56.436C33.001 103.196 62.2149 163.505 99.9459 200C137.674 163.505 166.891 103.196 166.891 56.436L99.9459 -0.00100238Z" fill="#D3D5D7"/>
<path d="M99.9461 166.849C84.4886 151.322 56.0282 117.374 49.5485 74.6569C48.9156 70.504 48.505 66.3203 48.3182 62.1237L99.9461 28.2855L151.572 62.1237C151.387 66.3782 150.963 70.558 150.342 74.6589C143.861 117.374 115.401 151.324 99.9461 166.849ZM99.9461 25.4007L45.2051 61.2307C47.4535 112.653 81.9543 153.615 99.9461 171.629C117.936 153.615 152.439 112.653 154.687 61.2307L99.9461 25.4007Z" fill="#D3D5D7"/>
<path d="M96.4058 141.924C95.7795 141.924 95.2734 142.265 95.2734 142.685C95.2734 143.107 95.7795 143.448 96.4058 143.448C97.03 143.448 97.536 143.107 97.536 142.685C97.536 142.265 97.03 141.924 96.4058 141.924Z" fill="#D3D5D7"/>
<path d="M96.1148 145.39C97.8077 145.39 97.8825 143.96 97.8825 143.96C97.8825 143.96 96.9976 144.491 95.9512 144.491C94.8179 144.491 93.9491 143.739 93.9491 142.685C93.9491 141.462 95.1976 140.879 96.4067 140.879C98.3259 140.879 99.2602 141.89 99.2602 143.623C99.2602 145.413 97.7107 146.369 96.1148 146.369C94.9168 146.369 94.3441 146.051 94.234 146.051C94.0976 146.051 93.9987 146.163 93.9987 146.163L93.8734 146.112L94.6865 144.733L94.7906 144.783C94.7401 145.051 95.0178 145.39 96.1148 145.39ZM82.4977 106.191L69.1514 121.967C78.5432 136.632 89.4936 147.469 99.9461 155.055V136.987C91.234 136.987 84.1704 129.926 84.1704 121.215C84.1704 112.501 91.234 105.439 99.9461 105.439V91.4552L85.1937 108.924L82.4977 106.191Z" fill="#D3D5D7"/>
<path d="M99.9459 180.132L82.9632 159.744L99.9459 175.573L116.928 159.744L99.9459 180.132ZM99.9459 25.401L154.687 61.2301C152.438 112.653 117.936 153.615 99.9459 171.629C81.9541 153.615 47.4534 112.653 45.2049 61.2301L99.9459 25.401ZM99.9459 16.9607L131.529 41.7898L99.9459 20.3485L68.3633 41.7898L99.9459 16.9607ZM99.9459 14.0718L40.8262 59.5311C43.2403 110.763 79.5633 163.259 99.9459 183.608C120.327 163.259 156.649 110.763 159.065 59.5311L99.9459 14.0718Z" fill="#9CC2EA"/>
<path d="M103.484 145.325C104.109 145.325 104.616 144.984 104.616 144.563C104.616 144.142 104.109 143.802 103.484 143.802C102.861 143.802 102.354 144.142 102.354 144.563C102.354 144.984 102.861 145.325 103.484 145.325Z" fill="#9CC2EA"/>
<path d="M103.776 141.858C102.083 141.858 102.008 143.289 102.008 143.289C102.008 143.289 102.892 142.757 103.937 142.757C105.072 142.757 105.94 143.511 105.94 144.563C105.94 145.786 104.691 146.369 103.484 146.369C101.564 146.369 100.629 145.358 100.629 143.623C100.629 141.837 102.18 140.879 103.776 140.879C104.972 140.879 105.547 141.199 105.655 141.199C105.792 141.199 105.891 141.085 105.891 141.085L106.015 141.139L105.204 142.515L105.1 142.465C105.15 142.199 104.873 141.858 103.776 141.858ZM115.719 121.214C115.719 129.926 108.656 136.987 99.9453 136.987V155.054C110.397 147.469 121.347 136.633 130.738 121.968L117.394 106.19L114.698 108.924L99.9453 91.4552V105.439C108.656 105.439 115.719 112.502 115.719 121.214Z" fill="#9CC2EA"/>
<path d="M89.5636 117.885L87.5738 119C87.5073 116.733 88.068 114.492 89.194 112.523L89.7172 115.159C90.0286 113.481 90.7473 111.905 91.8102 110.57C92.8731 109.234 94.2477 108.181 95.8131 107.501L95.999 106.926C97.2383 106.51 98.5646 106.282 99.9444 106.282C101.325 106.282 102.652 106.51 103.89 106.926L104.078 107.501C105.642 108.181 107.016 109.234 108.078 110.569C109.141 111.904 109.86 113.478 110.172 115.156L110.695 112.523C111.821 114.492 112.382 116.733 112.316 119L110.325 117.886C109.909 123.26 105.425 127.494 99.9444 127.494C94.4636 127.494 89.9798 123.26 89.5636 117.885ZM113.626 119.599C113.626 112.043 107.5 105.917 99.9444 105.917C92.3889 105.917 86.2637 112.043 86.2637 119.599C86.2637 127.158 92.3889 133.283 99.9444 133.283C107.5 133.283 113.626 127.158 113.626 119.599Z" fill="#9CC2EA"/>
<path d="M99.9456 105.917C107.5 105.917 113.626 112.044 113.626 119.599C113.626 127.158 107.5 133.283 99.9456 133.283C92.3901 133.283 86.2649 127.158 86.2649 119.599C86.2649 112.044 92.3901 105.917 99.9456 105.917ZM99.9456 136.987C108.658 136.987 115.719 129.925 115.719 121.215C115.719 112.501 108.658 105.439 99.9456 105.439C91.2335 105.439 84.1699 112.501 84.1699 121.215C84.1699 129.925 91.2335 136.987 99.9456 136.987Z" fill="#424A52"/>
<path d="M132.789 118.656C132.122 119.77 131.438 120.874 130.738 121.968C121.347 136.632 110.397 147.468 99.9455 155.054C89.493 147.468 78.5426 136.631 69.1507 121.967C68.4512 120.873 67.7677 119.768 67.1003 118.655C59.8205 106.536 53.6216 91.9739 49.5479 74.6569C56.0276 117.374 84.489 151.322 99.9455 166.849C115.4 151.324 143.86 117.374 150.341 74.6589C146.268 91.9759 140.068 106.537 132.789 118.656Z" fill="#424A52"/>
<path d="M40.8253 59.5311L99.945 14.0719L159.065 59.5311C156.649 110.763 120.327 163.259 99.945 183.608C79.5643 163.259 43.2414 110.763 40.8253 59.5311ZM99.945 5.14369L36.999 58.2089C37.6879 101.594 63.7705 157.43 99.945 193.932C136.12 157.43 162.204 101.594 162.89 58.2089C160.197 55.9372 104.534 9.01134 99.945 5.14369Z" fill="#960A2C"/>
<path d="M79.0868 80.7053H76.7999V82.0063H79.0868C79.2593 82.0063 79.4247 81.9378 79.5467 81.8158C79.6687 81.6938 79.7372 81.5284 79.7372 81.3558C79.7372 81.1833 79.6687 81.0178 79.5467 80.8959C79.4247 80.7739 79.2593 80.7053 79.0868 80.7053ZM139.168 62.4358L137.386 61.6752C136.85 61.4469 136.412 61.6994 136.412 62.2338V75.8973C136.412 76.4316 136.85 77.0609 137.386 77.2912L139.168 78.0508C139.704 78.2811 140.145 78.0296 140.145 77.4902V63.8287C140.145 63.2934 139.704 62.6661 139.168 62.4358ZM73.3171 57.9126L71.5373 58.4348C71.001 58.5924 70.5605 59.1601 70.5605 59.6974V73.36C70.5605 73.8953 71.001 74.2074 71.5373 74.0498L73.3171 73.5296C73.8545 73.3721 74.2949 72.8024 74.2949 72.266V58.6045C74.2949 58.0671 73.8545 57.756 73.3171 57.9126ZM127.899 58.3116L125.142 57.5742V73.1892L127.899 73.9276C128.436 74.072 128.876 73.7498 128.876 73.2104V59.5509C128.876 59.0116 128.436 58.456 127.899 58.3116ZM98.2543 80.7053H96.2856V82.0063H98.2543C98.4268 82.0063 98.5923 81.9378 98.7142 81.8158C98.8362 81.6938 98.9048 81.5284 98.9048 81.3558C98.9048 81.1833 98.8362 81.0178 98.7142 80.8959C98.5923 80.7739 98.4268 80.7053 98.2543 80.7053Z" fill="#960A2C"/>
<path d="M142.896 79.1025C142.896 80.7803 141.524 81.5661 139.846 80.85L136.709 79.5086C135.029 78.7914 133.656 76.8308 133.656 75.1531V60.6249C133.656 58.9461 135.029 58.1593 136.709 58.8784L139.846 60.2168C141.524 60.934 142.896 62.8946 142.896 64.5713V79.1025ZM131.63 74.3844C131.63 76.0611 130.257 77.0672 128.578 76.6177L121.977 74.848V74.5642L122.39 74.4127V54.8734L121.977 54.4997V54.2148L128.578 55.9845C130.257 56.437 131.63 58.1774 131.63 59.8542V74.3844ZM121.922 85.6055C119.637 85.6055 119.089 85.0964 118.724 85.0964C118.6 85.0964 118.489 85.2489 118.489 85.2489L118.345 85.2136L119.222 83.1025L119.343 83.1641C119.209 83.4803 119.641 84.2045 121.922 84.2045C122.92 84.2045 123.423 83.9904 123.423 83.4954C123.423 82.4278 118.643 83.7257 118.643 81.0803C118.643 79.949 120.111 79.249 121.659 79.249C123.1 79.249 124.421 79.753 124.646 79.753C124.873 79.753 124.967 79.5692 124.967 79.5692L125.096 79.6187L124.279 81.2752L124.137 81.2065C124.288 80.8863 123.336 80.4631 121.659 80.4631C121.172 80.4631 120.424 80.651 120.424 81.0803C120.424 82.0176 125.203 80.851 125.203 83.4954C125.203 85.1974 123.489 85.6055 121.922 85.6055ZM113.914 65.8824V72.7915L114.326 73.1208V73.4026L110.745 72.944V72.6612L111.16 72.4632V55.429C111.16 53.7492 112.533 52.5947 114.212 52.8613L116.485 53.2209C118.163 53.4886 119.537 55.0785 119.537 56.7572V73.7925L119.951 74.1197V74.4056L116.368 73.7268V73.443L116.782 73.247V66.337L113.914 65.8824ZM113.071 85.5449H109.06V85.4015C109.247 85.4015 109.394 85.3075 109.394 85.1894V79.6641C109.394 79.546 109.247 79.452 109.06 79.452V79.3076H113.071C114.794 79.3076 116.192 80.3571 116.192 82.4267C116.192 84.4964 114.794 85.5449 113.071 85.5449ZM108.72 72.744L105.522 72.5117L103.132 64.338L102.271 64.3037V71.8278L102.685 72.1076V72.3904L99.1039 72.3561V72.0743L99.517 71.8268V52.2886L99.1039 52.0078V51.725L104.841 51.9553C106.52 52.0199 107.893 53.4502 107.893 55.129V61.4754C107.896 62.1016 107.698 62.7124 107.328 63.2172C106.957 63.7221 106.434 64.0942 105.835 64.2784L108.108 72.046L108.72 72.4591V72.744ZM105.831 79.452C105.646 79.452 105.498 79.546 105.498 79.6641V85.1894C105.498 85.3075 105.646 85.4015 105.831 85.4015V85.5449H103.385V85.4015C103.568 85.4015 103.718 85.3075 103.718 85.1894V79.6641C103.718 79.546 103.568 79.452 103.385 79.452V79.3076H105.831V79.452ZM98.6342 83.4086H96.2847V85.1894C96.2847 85.3075 96.4332 85.4015 96.618 85.4015V85.5449H94.1726V85.4015C94.3564 85.4015 94.5049 85.3075 94.5049 85.1894V79.6641C94.5049 79.546 94.3564 79.452 94.1726 79.452V79.3076H98.6342C99.1669 79.3243 99.6721 79.5476 100.043 79.9304C100.414 80.3131 100.621 80.8251 100.621 81.3581C100.621 81.891 100.414 82.403 100.043 82.7858C99.6721 83.1685 99.1669 83.3918 98.6342 83.4086ZM90.8878 72.7682C89.209 72.8955 87.8363 71.6268 87.8363 69.948V55.4189C87.8363 53.7411 89.209 52.2623 90.8878 52.1351L94.0261 51.8957C95.7039 51.7674 97.0776 53.0371 97.0776 54.7158V69.246C97.0776 70.9238 95.7039 72.4026 94.0261 72.5298L90.8878 72.7682ZM91.5342 85.5449H89.3757V85.4015C89.5575 85.4015 89.6716 85.3075 89.6262 85.1894L89.2292 84.1469H86.2545L85.8575 85.1894C85.8121 85.3075 85.9252 85.4015 86.11 85.4015V85.5449H83.9505V85.3883C84.0818 85.353 84.1969 85.2782 84.2292 85.1894L86.3373 79.6641C86.3818 79.546 86.2696 79.452 86.0848 79.452V79.3076H89.3979V79.452C89.213 79.452 89.1009 79.546 89.1474 79.6641L91.2544 85.1894C91.2878 85.2782 91.4019 85.353 91.5342 85.3883V85.5449ZM81.0333 85.1894C81.1161 85.3075 81.3323 85.4015 81.5161 85.4015V85.5449H79.0717V85.4015C79.2565 85.4015 79.3373 85.3075 79.2555 85.1894L77.997 83.4086H76.8V85.1894C76.8 85.3075 76.9475 85.4015 77.1333 85.4015V85.5449H74.6879V85.4015C74.8727 85.4015 75.0192 85.3075 75.0192 85.1894V79.6641C75.0192 79.546 74.8727 79.452 74.6879 79.452V79.3076H79.4676C79.7367 79.3075 80.0031 79.3603 80.2517 79.4632C80.5003 79.5661 80.7262 79.717 80.9164 79.9073C81.1067 80.0975 81.2576 80.3234 81.3605 80.572C81.4634 80.8206 81.5163 81.087 81.5161 81.356C81.5163 81.8487 81.3392 82.325 81.0173 82.6979C80.6954 83.0709 80.25 83.3156 79.7626 83.3873L81.0333 85.1894ZM70.8596 76.7571C69.1798 77.25 67.8081 76.2793 67.8081 74.5995V60.0714C67.8081 58.3926 69.1798 56.6148 70.8596 56.1239L73.998 55.2057C75.6768 54.7138 77.0495 55.6845 77.0495 57.3643V71.8925C77.0495 73.5713 75.6768 75.348 73.998 75.8399L70.8596 76.7571ZM79.0747 74.3046L79.4888 73.9682V54.428L79.0747 54.2391V53.9562L82.6555 53.3067V53.5916L82.2434 53.929V71.5066L85.2625 70.9592L85.5272 70.4975L85.808 70.4491V73.3692L79.0747 74.5894V74.3046ZM65.7799 63.543L62.1991 65.0915V64.8087L62.6132 64.3673V62.5895C62.6132 62.0542 62.1728 61.8047 61.6375 62.036L60.7213 62.4329C60.185 62.6663 59.7456 63.2956 59.7456 63.8309V77.4934C59.7456 78.0308 60.185 78.2813 60.7213 78.049L61.6375 77.651C62.1728 77.4197 62.6132 76.7884 62.6132 76.2541V75.2985L62.1991 75.2147V74.9329L65.7799 73.3824V73.6662L65.3678 74.1086V75.4945C65.3678 77.1722 63.994 79.1399 62.3153 79.8661L60.0436 80.85C58.3638 81.5772 56.9921 80.7975 56.9921 79.1197V64.5905C56.9921 62.9128 58.3638 60.9431 60.0436 60.2168L62.3153 59.234C63.994 58.5067 65.3678 59.2865 65.3678 60.9643V63.1733L65.7799 63.2572V63.543ZM99.9453 28.2857L48.3174 62.1239C48.5022 66.3764 48.9275 70.5561 49.5477 74.6581C53.6214 91.9741 59.8203 106.537 67.1001 118.655L81.1868 104.123L84.0787 106.676L99.9453 90.3398L115.81 106.676L118.702 104.123L132.788 118.656C140.068 106.538 146.268 91.9762 150.341 74.6601C150.962 70.5581 151.386 66.3774 151.571 62.1239L99.9453 28.2857Z" fill="#960A2C"/>
<path d="M86.5996 83.2441H88.8855L87.742 80.2482L86.5996 83.2441ZM104.163 54.4362L102.271 54.3605V61.7958L104.163 61.8695C104.289 61.8755 104.416 61.8558 104.534 61.8114C104.653 61.7671 104.761 61.6991 104.852 61.6116C104.944 61.5241 105.016 61.4189 105.066 61.3024C105.115 61.186 105.14 61.0607 105.14 60.9342V55.4524C105.14 54.915 104.701 54.4585 104.163 54.4362ZM93.346 54.4574L91.5663 54.5928C91.3028 54.6173 91.0576 54.738 90.8775 54.9317C90.6973 55.1255 90.5948 55.3788 90.5895 55.6433V69.3048C90.5895 69.8422 91.0299 70.2492 91.5663 70.2088L93.346 70.0725C93.8844 70.0321 94.3238 69.5583 94.3238 69.021V55.3595C94.3253 55.234 94.3005 55.1097 94.2509 54.9945C94.2012 54.8793 94.128 54.7758 94.0358 54.6908C93.9436 54.6057 93.8345 54.541 93.7157 54.5008C93.5969 54.4606 93.4709 54.4458 93.346 54.4574ZM112.691 80.7057H111.174V84.1471H112.691C113.643 84.1471 114.412 83.6825 114.412 82.4269C114.412 81.1694 113.643 80.7057 112.691 80.7057ZM116.781 56.7544C116.781 56.217 116.343 55.7069 115.806 55.6211L114.891 55.4766C114.355 55.3918 113.915 55.7625 113.915 56.2988V63.3756L116.781 63.8281V56.7544ZM104.078 119.375L99.946 116.371L95.8137 119.375L97.3915 124.233H102.497L104.078 119.375ZM104.078 107.501L103.889 106.927C101.33 106.066 98.5591 106.066 95.9995 106.927L95.8137 107.501L99.946 110.501L104.078 107.501ZM89.1945 112.524C88.0691 114.492 87.5085 116.734 87.5744 119L89.5642 117.885L90.1905 117.535L89.7188 115.159L89.1945 112.524ZM110.172 115.156L109.698 117.535L110.326 117.886L112.317 119C112.382 116.734 111.821 114.493 110.695 112.525L110.172 115.156ZM96.4066 143.449C95.7804 143.449 95.2743 143.107 95.2743 142.685C95.2743 142.266 95.7804 141.924 96.4066 141.924C97.0309 141.924 97.5369 142.266 97.5369 142.685C97.5369 143.107 97.0309 143.449 96.4066 143.449ZM96.4066 140.879C95.1985 140.879 93.949 141.462 93.949 142.685C93.949 143.739 94.8188 144.491 95.9511 144.491C96.9975 144.491 97.8824 143.96 97.8824 143.96C97.8824 143.96 97.8086 145.39 96.1147 145.39C95.0177 145.39 94.74 145.051 94.7905 144.783L94.6864 144.732L93.8743 146.112L93.9996 146.163C93.9996 146.163 94.0975 146.051 94.2339 146.051C94.344 146.051 94.9167 146.369 96.1147 146.369C97.7106 146.369 99.2611 145.413 99.2611 143.623C99.2611 141.89 98.3258 140.879 96.4066 140.879ZM103.484 143.802C104.11 143.802 104.617 144.143 104.617 144.563C104.617 144.984 104.11 145.325 103.484 145.325C102.861 145.325 102.354 144.984 102.354 144.563C102.354 144.143 102.861 143.802 103.484 143.802ZM105.205 142.515L106.016 141.139L105.891 141.085C105.891 141.085 105.792 141.199 105.656 141.199C105.548 141.199 104.972 140.879 103.776 140.879C102.18 140.879 100.63 141.838 100.63 143.623C100.63 145.358 101.565 146.369 103.484 146.369C104.691 146.369 105.941 145.786 105.941 144.563C105.941 143.511 105.072 142.757 103.938 142.757C102.892 142.757 102.009 143.289 102.009 143.289C102.009 143.289 102.083 141.858 103.776 141.858C104.873 141.858 105.151 142.199 105.1 142.465L105.205 142.515ZM113.652 189.573H115.096V193.932H115.622V189.573H117.14V189.049H113.652V189.573ZM119.932 193.023L118.679 189.049H117.839V193.932H118.363V189.785L119.671 193.932H120.196L121.502 189.785V193.932H122.027V189.049H121.184L119.932 193.023Z" fill="#960A2C"/>
</g>
<defs>
<clipPath id="clip0_106_6436">
<rect width="200" height="200" fill="white"/>
</clipPath>
</defs>
</svg>
