<svg width="200" height="200" viewBox="0 0 200 200" fill="none" xmlns="http://www.w3.org/2000/svg">
<path d="M100.071 158.726L62.0535 180.655L45.7129 25.3267H154.429L138.086 180.655L100.071 158.726Z" fill="#FEDD00"/>
<path d="M50.5723 29.6987L65.7012 173.502L100.071 153.678L134.439 173.502L149.568 29.6987H50.5723Z" fill="black"/>
<path d="M137.892 67.8435L140.056 47.213L122.899 37.313H77.2408L60.0859 47.213L72.0621 161.045L131.708 126.636L134.374 101.284L117.212 91.3842L114.994 112.465L86.8542 128.687L79.4097 57.9338H120.73L118.513 79.0146L137.892 67.8435ZM115.714 155.765L113.799 154.673V153.014L115.711 151.905L115.745 153.842L119.545 153.82L119.523 149.835L117.035 151.324L113.812 149.496V143.741L115.724 142.63H119.557L121.496 143.724V154.656L119.557 155.767L115.714 155.765ZM115.736 148.349L117.023 149.075L119.526 147.608V144.56L115.748 144.581L115.736 148.349ZM125.308 155.765L123.396 154.673L123.384 143.741L125.296 142.63H129.13L131.068 143.724V145.38L129.13 146.489L129.096 144.572L125.296 144.593L125.318 148.559L127.826 147.092L131.051 148.915V154.656L129.113 155.767L125.308 155.765ZM125.308 150.777L125.32 153.845L129.12 153.823L129.098 150.043L127.84 149.334L125.308 150.777Z" fill="white"/>
<path d="M122.303 196.096L118.004 193.636L113.758 196.096H111.264L111.243 180.061L113.736 178.608L113.77 193.191L116.792 191.438V180.058L119.295 180.037L119.317 191.455L122.313 193.191L122.281 178.647L124.821 180.051V196.106L122.303 196.096ZM100.204 196.096L100.182 178.981L107.874 178.957L109.328 181.475L102.696 181.506L102.717 186.3L106.457 186.278L107.911 188.794L102.688 188.833L102.71 193.6L109.302 193.578L109.323 196.103L100.204 196.096ZM95.2413 196.096L95.2243 189.983L93.2444 188.847L90.2686 190.566V196.074L87.7653 196.096L87.7435 178.981L95.2364 178.957L97.7567 180.385V186.225L95.7308 187.399L97.747 188.515V196.096H95.2413ZM90.2734 187.675L95.2243 184.758V181.484L90.2783 181.506L90.2734 187.675ZM77.815 196.096L75.3214 194.667L75.3093 180.405L77.8029 178.952H82.8047L85.3225 180.38L85.3346 182.538L82.8168 183.99L82.7829 181.489L77.815 181.511L77.8368 193.597L82.8047 193.576L82.7829 191.094L85.3225 192.498L85.3346 194.655L82.8095 196.108L77.815 196.096ZM142.072 19.8809L139.572 18.4525V16.2977L142.065 14.845L142.099 17.3702L147.067 17.3484L147.045 13.8329L139.572 9.54028V4.19199L142.065 2.73931H147.067L149.58 4.17262V6.32743L147.062 7.78011L147.031 5.27908L142.063 5.30087L142.085 8.10454L149.58 12.3754V18.4283L147.057 19.8809H142.072ZM129.633 19.8809L127.14 18.4525V3.84819L129.631 2.39551L129.665 17.3702L134.633 17.3484L134.601 2.42456L137.148 3.82882V18.4355L134.626 19.8882L129.633 19.8809ZM114.713 19.8809L114.691 2.76836L122.184 2.74657L124.702 4.17262L124.714 9.39743L122.688 10.5717L124.702 11.6878L124.714 18.4355L122.191 19.8882L114.713 19.8809ZM117.207 13.7385V17.3702L122.174 17.3484L122.153 13.1453L120.185 12.0268L117.207 13.7385ZM117.207 10.8477L122.165 7.95443V5.27182L117.219 5.29361L117.207 10.8477ZM109.745 19.8809L109.723 5.66646L106.614 7.50168V19.8495L104.111 19.8713L104.096 7.48957L100.946 5.69067L100.977 19.8664L98.474 19.8882L98.4425 2.76836L100.946 2.74657L105.356 5.31055L109.735 2.74899H112.253L112.275 19.8834L109.745 19.8809ZM88.5092 19.8809L86.0156 18.4525V3.85787L88.5092 2.40519L88.5432 17.3799L93.511 17.3581L93.4771 2.42456L96.0168 3.82882V18.4355L93.4941 19.8882L88.5092 19.8809ZM75.4571 19.8809L75.4353 2.76836L77.9386 2.74657L77.9604 17.3799L84.5616 17.3581L83.1488 19.8809H75.4571ZM65.4995 19.8809L63.0059 18.4525V4.19199L65.4995 2.73931H70.4989L73.0192 4.16536V18.4283L70.4965 19.8809H65.4995ZM65.5214 17.3799L70.4892 17.3581L70.4674 5.27182L65.5214 5.29361V17.3799ZM53.0581 19.8809L50.5645 18.4525V4.19199L53.0581 2.73931H58.0599L60.5705 4.17262V6.32743L58.0526 7.78011L58.0211 5.27908L53.0532 5.30087L53.075 17.3872L58.0429 17.3654L58.0211 14.8813L60.5705 16.2783V18.4355L58.0477 19.8882L53.0581 19.8809Z" fill="black"/>
</svg>
