<svg width="200" height="200" viewBox="0 0 200 200" fill="none" xmlns="http://www.w3.org/2000/svg">
<g clip-path="url(#clip0_106_6629)">
<path fill-rule="evenodd" clip-rule="evenodd" d="M175.465 14.1625C181.07 30.0201 193.289 72.9987 192.633 111.14C171.745 145.739 136.047 176.198 99.7759 195.623C63.505 176.198 27.8044 145.74 6.916 111.14C6.26047 72.9981 18.476 30.0201 24.0809 14.1625C72.1848 0.57866 127.753 0.57866 175.465 14.1625Z" fill="white"/>
<path fill-rule="evenodd" clip-rule="evenodd" d="M175.466 14.1629C181.071 30.0206 193.291 72.9991 192.635 111.141C171.747 145.74 136.049 176.198 99.7773 195.623C63.5064 176.198 27.8059 145.74 6.9174 111.14C6.26188 72.9986 18.4774 30.0206 24.0823 14.1629C72.1862 0.579087 127.755 0.579087 175.466 14.1629ZM21.1032 10.9652C73.1514 -3.65649 124.093 -3.65224 178.441 10.961C184.729 27.9134 197.403 73.3522 196.503 112.223C174.249 150.746 131.44 183.731 99.7746 200C68.1083 183.731 25.2997 150.746 3.04545 112.223C2.14623 73.3522 14.8156 27.9176 21.1032 10.9652Z" fill="#0B1F41"/>
<path d="M60.1457 95.6508L56.3653 84.5256L51.7968 87.1366V111.923L56.3184 109.339V97.1511L59.952 107.261L64.6061 104.601V79.8159L60.1457 82.3648V95.6508ZM163.869 23.0858V47.8702L168.9 44.9953V20.2109L163.869 23.0858ZM75.7304 72.8462C72.0558 74.9464 69.5918 78.9734 69.6035 81.4336V95.2993C69.6035 97.8264 72.0351 100.3 75.8538 98.4747C81.9621 95.5557 81.8291 92.4409 81.8174 89.9801V86.5271L76.8126 89.3871V92.8773L74.6119 94.1345V78.8231L76.8126 77.5654V82.42L81.8174 79.5818V74.4957C81.8051 72.0355 79.3501 70.7772 75.7304 72.8462ZM30.5737 98.6552C26.8997 100.755 24.4351 104.782 24.4473 107.243V121.108C24.4473 123.635 26.8789 126.109 30.6977 124.284C36.806 121.365 36.6729 118.249 36.6607 115.789V112.336L31.6559 115.196V118.686L29.4558 119.943V104.632L31.6559 103.374V108.229L36.6612 105.39V100.304C36.649 97.8439 34.194 96.5862 30.5742 98.6552H30.5737ZM86.5071 92.0979L91.5385 89.2231V64.4387L86.5071 67.3136V92.0979ZM41.3505 117.893L46.3818 115.018V90.2328L41.3505 93.1082V117.893ZM147.154 37.3815L150.601 35.4124V55.4595L155.632 52.5846V32.537L159.078 30.5679V25.8242L147.154 32.6384V37.3815ZM105.302 69.8614L101.522 58.7362L96.9535 61.3472V86.1236L101.475 83.5397V71.3617L105.108 81.4633L109.763 78.8035V54.026L105.302 56.5754V69.8614ZM123.429 59.4864L119.649 48.3607L115.08 50.9717V75.7481L119.602 73.1642V60.9862L123.235 71.0883L127.89 68.4285V43.651L123.429 46.2004V59.4864ZM135.789 39.1866L132.546 65.7548L137.471 62.94L137.822 58.535L140.697 56.8308L141.186 60.8169L146.026 58.0508L142.21 35.4554L135.789 39.1866ZM137.902 54.0356L139.253 44.4092L140.181 52.6335L137.902 54.0356Z" fill="#0B1F41"/>
<path fill-rule="evenodd" clip-rule="evenodd" d="M152.276 17.1789L15.6797 95.2387C17.6271 66.6918 25.312 37.0327 30.554 21.021C72.5719 9.94896 115.669 10.3349 152.276 17.1789H152.276ZM46.9538 32.9372V38.4661H50.3166V42.9624H46.9538V53.8757L41.351 57.0951V28.6231H52.3731V32.9372H46.9538ZM68.8405 42.6061V48.8023C68.8405 51.2631 66.1912 53.8757 62.1421 53.8757C58.0323 53.8757 55.2617 51.2636 55.2617 48.8023V33.2409C55.2617 30.7802 58.0323 28.1681 62.1421 28.1681C66.1912 28.1681 68.8405 30.7802 68.8405 33.2409V35.244L63.2994 38.4104L63.2978 32.2041L60.9247 33.5605V49.8509L63.2978 48.4944L63.2994 45.7725L68.8405 42.6061Z" fill="#263B80"/>
<path fill-rule="evenodd" clip-rule="evenodd" d="M33.75 133.268L177.178 51.3047C181.126 68.9202 184.396 89.4971 184.324 108.758C163.129 142.789 130.457 168.458 99.7781 186.138C69.3569 168.458 50.5765 152.286 33.75 133.269V133.268ZM133.399 111.522C134.787 111.145 136.081 110.482 137.197 109.576C137.272 111.24 136.894 112.893 136.104 114.359C135.351 113.283 134.439 112.327 133.399 111.522ZM104.908 113.788L109.266 111.299C107.889 110.928 106.624 110.224 105.584 109.248L117.243 102.557L115.888 100.692H133.856L134.968 102.572C134.968 102.572 137.946 103.268 139.645 104.945L136.888 105.372L138.25 106.907C137.219 108.183 134.528 109.864 131.96 110.384C130.734 109.557 129.44 108.834 128.092 108.223L132.404 105.76C132.404 105.76 129.906 104.217 124.083 102.59C125.664 103.578 127.165 104.687 128.572 105.909L124.824 108.051C124.824 108.051 131.416 111.067 135.031 117.548L130.665 117.645C130.665 117.645 125.608 126.98 117.579 132.268V126.972C117.579 126.972 112.327 126.409 109.339 124.117L112.267 122.374C109.83 121.825 107.617 120.554 105.917 118.728L109.753 116.559C109.753 116.559 107.441 116.253 104.908 113.788ZM129.709 101.971C130.228 102.585 130.881 103.071 131.617 103.395C132.353 103.718 133.154 103.87 133.957 103.838L132.776 102.091L129.709 101.971ZM85.2805 147.033L85.7131 150.841C83.1341 152.542 76.3974 156.382 71.0207 153.759C66.9875 151.79 66.1005 146.114 69.1265 141.302C72.6398 135.715 78.2996 135.601 81.4218 137.652C81.1267 138.917 80.5757 140.108 79.8028 141.153C79.0299 142.198 78.0512 143.074 76.9268 143.728L77.7574 140.413C75.8541 139.454 73.389 140.32 71.9811 142.624C70.0869 145.723 70.6296 149.293 73.1911 150.582C77.4339 152.72 85.2805 147.033 85.2805 147.033ZM153.117 131.434C153.117 131.434 155.836 131.427 156.038 133.801C155.675 133.612 155.278 133.497 154.869 133.462C154.461 133.428 154.05 133.474 153.66 133.598C151.444 134.377 149.079 134.64 146.747 134.364L140.976 140.523C141.061 141.462 141.203 142.395 141.399 143.318C137.916 142.044 134.616 140.32 131.583 138.188L133.632 141.834C133.632 141.834 132.062 145.84 123.625 151.212L123.287 147.595C123.287 147.595 114.853 142.316 109.734 143.358C104.9 152.159 96.3259 151.054 96.3259 151.054L93.9539 159.511C93.9539 159.511 101.951 160.593 100.367 167.001L98.1733 165.696C98.2223 166.187 98.1301 166.682 97.9076 167.123C97.6851 167.564 97.3413 167.933 96.9166 168.186L95.1357 165.732C95.8146 167.761 92.5008 168.59 92.5008 168.59C92.5008 168.59 92.3364 166.383 91.6601 165.503L89.0902 162.334L86.6745 142.353L89.7143 143.63C94.1221 139.935 97.5818 135.243 99.8052 129.945C99.8052 129.945 110.155 135.186 117.526 134.364C119.076 134.144 127.169 128.5 131.872 119.458L135.575 119.376C137.389 122.265 138.641 125.47 139.265 128.822L136.619 128.327C137.273 129.723 137.777 131.185 138.121 132.687L144.97 128.723C149.057 126.329 154.899 125.872 155.76 128.296C155.76 128.296 153.848 128.146 153.387 129.016C153.387 129.016 155.988 128.826 156.241 130.995C156.241 130.995 154.039 130.366 153.117 131.434ZM116.031 163.509L114.372 162.294C114.458 162.678 114.436 163.078 114.308 163.45C114.18 163.823 113.952 164.152 113.647 164.403C113.211 163.703 112.666 163.077 112.034 162.547C112.084 163.781 110.271 164.803 110.271 164.803C110.102 164.03 109.722 163.318 109.173 162.745L106.887 160.566L100.592 152.153C107.45 151.759 111.067 145.039 111.067 145.039C120.004 153.518 108.907 155.442 108.907 155.442L109.592 158.46C109.592 158.46 117.108 157.897 116.031 163.509V163.509ZM137.698 118.784C138.918 120.424 140.441 124.158 141.296 128.195L144.571 123.076L145.659 125.559C147.812 121.633 149.847 117.986 150.921 116.068C151.372 116.295 151.866 116.425 152.371 116.448V117.865C152.217 118.225 152.138 118.612 152.139 119.003C152.466 119.501 152.914 119.91 153.441 120.192C153.967 119.91 154.414 119.501 154.742 119.003C154.74 118.611 154.659 118.224 154.503 117.865V116.448C154.92 116.382 155.376 116.243 155.877 116.108C156.544 114.459 156.249 112.021 156.249 112.021C156.674 111.525 156.998 110.951 157.203 110.331C156.459 109.647 155.507 109.229 154.498 109.144V109.004L157.565 107.14V105.095L155.631 106.269L155.616 80.9336L153.415 78.5933L151.215 80.8014L151.231 106.28L149.113 104.994V107.14L152.239 108.871L152.227 109.042C151.28 108.972 150.335 109.208 149.532 109.714C149.607 110.398 149.841 111.055 150.215 111.633L137.698 118.784ZM94.9537 124.073L85.9344 129.151C87.935 130.54 94.1141 129.586 98.5969 127.153C98.5969 127.153 108.361 132.452 115.657 132.494C115.655 132.493 115.636 128.474 115.634 128.474C102.162 125.279 98.2186 115.813 95.6454 109.14L68.7322 124.49C72.2083 127.305 82.5238 122.171 90.6981 117.724C90.8994 118.125 91.1087 118.522 91.326 118.915L77.0784 127.063C80.6253 129.803 87.8238 125.883 94.0433 123.032C94.3363 123.388 94.6397 123.735 94.9532 124.073H94.9537ZM132.81 95.4613C132.395 94.8306 131.828 94.3137 131.161 93.9578C130.494 94.3151 129.928 94.8333 129.514 95.465C129.533 96.0472 129.635 96.6238 129.815 97.1777L127.929 97.1788C128.182 96.3486 128.32 95.4882 128.342 94.6209C127.664 93.5922 126.739 92.7494 125.651 92.1697C124.564 92.7519 123.64 93.5967 122.965 94.6267C122.989 95.4945 123.13 96.3551 123.384 97.1852L121.503 97.1857C121.683 96.6318 121.783 96.0554 121.801 95.4735C121.386 94.843 120.819 94.3265 120.151 93.9711C119.485 94.3278 118.919 94.8454 118.505 95.4767C118.524 96.0589 118.626 96.6355 118.806 97.1894L118.808 99.2908L132.515 99.2748L132.513 97.1746C132.692 96.6203 132.792 96.0435 132.81 95.4613Z" fill="#F05323"/>
</g>
<defs>
<clipPath id="clip0_106_6629">
<rect width="200" height="200" fill="white"/>
</clipPath>
</defs>
</svg>
