<svg width="200" height="200" viewBox="0 0 200 200" fill="none" xmlns="http://www.w3.org/2000/svg">
<g clip-path="url(#clip0_106_6640)">
<path d="M97.272 0.0648976C96.68 0.0809039 95.168 0.160935 93.912 0.232963C92.656 0.304991 90.8 0.449048 89.792 0.553088C88.776 0.657129 86.928 0.881216 85.672 1.06529C84.416 1.24136 82.104 1.64151 80.536 1.95364C78.96 2.26576 76.48 2.82598 75.016 3.20212C73.552 3.57827 71.24 4.24253 69.88 4.6747C68.52 5.09886 66.52 5.77913 65.44 6.18729C64.36 6.58744 62.648 7.25971 61.64 7.68387C60.624 8.10003 58.856 8.88434 57.704 9.42055C56.552 9.95676 54.896 10.7651 54.024 11.2213C53.152 11.6854 51.584 12.5418 50.536 13.142C49.496 13.7342 47.896 14.6946 46.984 15.2628C46.08 15.8311 44.68 16.7434 43.88 17.2876C43.08 17.8238 41.336 19.0883 40.016 20.0807C38.688 21.0731 36.976 22.4096 36.208 23.0499C35.44 23.6901 34.384 24.5945 33.864 25.0587C33.344 25.5228 32.112 26.6513 31.136 27.5716C30.16 28.484 28.616 30.0206 27.704 30.989C26.792 31.9574 25.792 33.0378 25.48 33.3899C25.176 33.734 24.888 34.0462 24.856 34.0862C24.816 34.1182 24.184 34.8625 23.448 35.7348C22.712 36.6072 21.544 38.0557 20.84 38.9681C20.144 39.8724 19.176 41.1529 18.704 41.8172C18.224 42.4815 17.136 44.0821 16.288 45.3706C15.44 46.6591 14.168 48.7159 13.456 49.9324C12.744 51.1568 11.544 53.3817 10.784 54.8783C10.024 56.3749 9.024 58.4637 8.56 59.5041C8.096 60.5525 7.36 62.3212 6.912 63.4336C6.472 64.5541 5.76 66.4908 5.336 67.7473C4.904 69.0038 4.272 70.9966 3.928 72.1811C3.592 73.3735 3.112 75.1422 2.864 76.1186C2.624 77.095 2.192 79.0317 1.912 80.4243C1.632 81.8248 1.232 84.1617 1.024 85.6263C0.816 87.0909 0.552 89.1717 0.448 90.2521C0.344 91.3325 0.2 93.1893 0.128 94.3737C0.056 95.5582 0 98.0952 0 100.016C0 101.937 0.056 104.474 0.128 105.658C0.2 106.843 0.344 108.699 0.448 109.78C0.552 110.86 0.816 112.941 1.024 114.406C1.232 115.87 1.632 118.207 1.912 119.608C2.192 121 2.624 122.937 2.864 123.913C3.112 124.89 3.592 126.658 3.928 127.851C4.272 129.035 4.904 131.028 5.336 132.285C5.76 133.541 6.472 135.478 6.912 136.598C7.36 137.711 8.096 139.479 8.56 140.528C9.024 141.568 10.024 143.657 10.784 145.154C11.544 146.65 12.744 148.875 13.456 150.099C14.168 151.316 15.44 153.373 16.288 154.661C17.136 155.95 18.224 157.55 18.704 158.215C19.176 158.879 20.144 160.159 20.84 161.064C21.544 161.976 22.72 163.425 23.448 164.297C24.184 165.169 25.016 166.138 25.296 166.45C25.576 166.762 26.208 167.442 26.688 167.97C27.176 168.499 27.92 169.291 28.344 169.731C28.76 170.179 29.96 171.348 31.008 172.332C31.9519 173.221 32.9039 174.102 33.864 174.973C34.384 175.437 35.44 176.342 36.208 176.982C36.976 177.622 38.688 178.959 40.016 179.951C41.336 180.952 43.08 182.208 43.88 182.752C44.68 183.288 46.08 184.201 46.984 184.769C47.896 185.337 49.496 186.298 50.536 186.89C51.584 187.49 53.208 188.378 54.152 188.875C55.096 189.363 56.976 190.275 58.336 190.899C59.696 191.524 61.752 192.404 62.904 192.868C64.056 193.324 65.656 193.933 66.456 194.221C67.256 194.509 68.912 195.061 70.136 195.445C71.352 195.829 73.552 196.454 75.016 196.83C76.48 197.206 78.824 197.742 80.216 198.022C81.608 198.302 83.664 198.67 84.784 198.838C85.896 199.007 87.608 199.239 88.584 199.343C89.56 199.455 91.016 199.599 91.816 199.671C92.624 199.743 94.76 199.855 96.576 199.927C98.864 200.023 100.92 200.023 103.296 199.935C105.184 199.863 107.664 199.711 108.816 199.607C109.968 199.503 111.624 199.327 112.496 199.223C113.36 199.111 115.216 198.83 116.616 198.598C118.008 198.366 120.32 197.918 121.752 197.598C123.184 197.278 125.464 196.71 126.824 196.334C128.184 195.949 130.352 195.285 131.64 194.861C132.936 194.429 135.048 193.652 136.336 193.148C137.624 192.636 139.448 191.876 140.392 191.46C141.336 191.043 143.216 190.147 144.576 189.467C145.936 188.787 147.568 187.946 148.192 187.594C148.824 187.242 150.104 186.498 151.048 185.945C151.984 185.385 153.816 184.233 155.104 183.376C156.392 182.528 158.28 181.216 159.288 180.463C160.304 179.711 161.84 178.519 162.712 177.814C163.584 177.11 164.984 175.942 165.824 175.205C166.656 174.469 167.912 173.333 168.6 172.668C169.296 172.004 170.184 171.148 170.568 170.764C170.96 170.379 171.792 169.523 172.416 168.859C173.048 168.203 174.048 167.114 174.648 166.458C175.24 165.794 176.272 164.593 176.928 163.793C177.592 162.993 178.536 161.824 179.032 161.192C179.52 160.568 180.384 159.423 180.936 158.655C181.496 157.887 182.52 156.406 183.216 155.358C183.92 154.317 185.088 152.46 185.824 151.244C186.552 150.019 187.632 148.139 188.208 147.058C188.792 145.978 189.656 144.265 190.144 143.249C190.624 142.24 191.376 140.584 191.816 139.575C192.248 138.567 192.928 136.91 193.312 135.902C193.704 134.886 194.288 133.293 194.608 132.349C194.928 131.404 195.44 129.812 195.752 128.795C196.056 127.787 196.568 125.962 196.88 124.738C197.192 123.521 197.672 121.408 197.952 120.048C198.232 118.687 198.632 116.438 198.84 115.038C199.056 113.645 199.344 111.332 199.488 109.908C199.624 108.475 199.8 106.194 199.872 104.834C199.944 103.473 200 101.304 200 100.016C200 98.7274 199.944 96.5586 199.872 95.198C199.8 93.8375 199.624 91.5566 199.48 90.1241C199.344 88.6995 199.08 86.5547 198.912 85.3702C198.736 84.1857 198.392 82.185 198.144 80.9365C197.904 79.68 197.448 77.6232 197.144 76.3667C196.84 75.1102 196.384 73.3735 196.128 72.5012C195.872 71.6288 195.408 70.1162 195.096 69.1399C194.776 68.1635 194.144 66.3708 193.696 65.1463C193.24 63.9298 192.456 61.9611 191.944 60.7766C191.44 59.5921 190.624 57.7914 190.144 56.783C189.664 55.7666 188.792 54.054 188.208 52.9736C187.632 51.8931 186.552 50.0124 185.824 48.7879C185.088 47.5714 183.92 45.7147 183.216 44.6743C182.52 43.6259 181.496 42.1453 180.936 41.377C180.384 40.6087 179.52 39.4643 179.032 38.84C178.536 38.2078 177.592 37.0393 176.928 36.239C176.272 35.4387 175.24 34.2382 174.648 33.574C174.048 32.9177 173.048 31.8293 172.416 31.165C171.792 30.5088 170.936 29.6284 170.512 29.2203C170.096 28.8121 169.208 27.9558 168.544 27.3155C167.88 26.6833 166.656 25.5629 165.824 24.8266C164.984 24.0903 163.584 22.9218 162.712 22.2175C161.84 21.5133 160.304 20.3208 159.288 19.5685C158.28 18.8162 156.392 17.5037 155.104 16.6554C153.816 15.799 151.984 14.6466 151.048 14.0864C150.104 13.5342 148.824 12.7899 148.192 12.4377C147.568 12.0856 145.992 11.2773 144.704 10.629C143.416 9.98077 141.56 9.10043 140.584 8.66025C139.608 8.22008 137.72 7.43578 136.4 6.91557C135.072 6.38737 132.936 5.60306 131.64 5.17089C130.043 4.6517 128.438 4.16077 126.824 3.69832C125.464 3.32217 123.208 2.76195 121.816 2.44983C120.416 2.13771 118.28 1.71354 117.056 1.50546C115.84 1.29738 113.952 1.00927 112.872 0.86521C111.792 0.729157 109.968 0.529079 108.816 0.425038C107.664 0.320998 105.264 0.176941 103.488 0.104913C101.712 0.0408883 99.824 -0.00713048 99.304 0.000872649C98.776 0.0168789 97.864 0.0408883 97.272 0.0648976Z" fill="#F6B4CD"/>
<path d="M95.624 3.78645C94.4 3.84247 92.408 3.98653 91.184 4.09857C89.968 4.21061 87.784 4.46671 86.336 4.6748C84.888 4.88288 82.544 5.27503 81.136 5.56314C79.72 5.84325 77.536 6.33144 76.288 6.65157C75.032 6.97169 72.92 7.56392 71.592 7.97208C70.264 8.38024 68.1839 9.07651 66.9599 9.52469C65.7439 9.97286 63.688 10.7892 62.4 11.3334C61.104 11.8776 58.968 12.862 57.64 13.5182C56.312 14.1745 54.6 15.0548 53.84 15.471C53.072 15.8952 51.672 16.6955 50.728 17.2637C49.784 17.8239 47.904 19.0244 46.544 19.9288C45.184 20.8411 43.184 22.2497 42.104 23.066C41.024 23.8823 39.368 25.1948 38.424 25.9791C37.488 26.7634 35.92 28.132 34.936 29.0203C33.96 29.9086 32.336 31.4853 31.32 32.5177C30.312 33.5501 28.992 34.9426 28.392 35.6069C27.792 36.2711 26.664 37.5836 25.88 38.52C25.088 39.4644 23.808 41.089 23.024 42.1374C22.24 43.1778 20.936 45.0105 20.136 46.195C19.328 47.3795 18.104 49.2922 17.416 50.4367C16.72 51.5891 15.752 53.2778 15.256 54.1821C14.768 55.0865 14.08 56.399 13.728 57.0953C13.376 57.7915 12.68 59.2801 12.176 60.3925C11.664 61.513 10.864 63.3937 10.4 64.5782C9.92795 65.7626 9.21595 67.6754 8.82395 68.8278C8.42395 69.9723 7.85595 71.773 7.54395 72.8214C7.23995 73.8618 6.75995 75.6305 6.47995 76.7509C6.20795 77.8634 5.83195 79.464 5.65595 80.2963C5.48795 81.1367 5.19195 82.7053 5.00795 83.7857C4.82395 84.8661 4.56795 86.5788 4.43995 87.5872C4.30395 88.6036 4.09595 90.4523 3.97595 91.7088C3.79195 93.5415 3.75195 95.1981 3.75195 100.016C3.75195 104.834 3.79195 106.491 3.97595 108.323C4.09595 109.58 4.30395 111.428 4.43995 112.445C4.56795 113.453 4.82395 115.166 5.00795 116.246C5.19195 117.327 5.48795 118.895 5.65595 119.736C5.83195 120.568 6.20795 122.169 6.47995 123.281C6.75995 124.402 7.23995 126.17 7.54395 127.211C7.85595 128.259 8.42395 130.06 8.82395 131.204C9.21595 132.357 9.91195 134.237 10.368 135.39C10.824 136.542 11.624 138.423 12.144 139.575C12.664 140.728 13.376 142.241 13.728 142.937C14.08 143.633 14.768 144.946 15.256 145.85C15.752 146.754 16.72 148.443 17.416 149.595C18.104 150.74 19.328 152.653 20.136 153.837C20.936 155.022 22.24 156.854 23.024 157.895C23.808 158.943 25.088 160.568 25.88 161.512C26.664 162.448 27.792 163.761 28.392 164.425C28.992 165.089 30.312 166.482 31.32 167.514C32.336 168.547 33.96 170.123 34.936 171.012C35.92 171.9 37.488 173.269 38.424 174.061C39.368 174.845 41.024 176.15 42.104 176.966C43.184 177.782 45.184 179.191 46.544 180.095C47.904 181.008 49.784 182.208 50.728 182.768C51.672 183.337 53.072 184.137 53.84 184.561C54.6 184.977 56.312 185.858 57.64 186.514C58.968 187.17 61.104 188.154 62.4 188.699C63.688 189.243 65.7439 190.059 66.9599 190.507C68.1839 190.956 70.264 191.652 71.592 192.06C72.92 192.468 75.144 193.092 76.536 193.436C77.936 193.789 80.1039 194.277 81.3599 194.525C82.6159 194.773 84.84 195.141 86.304 195.357C87.768 195.565 89.912 195.821 91.056 195.925C92.208 196.03 94.552 196.182 96.256 196.262C97.968 196.342 100.536 196.366 101.968 196.318C103.392 196.278 105.424 196.182 106.464 196.118C107.512 196.046 109.168 195.901 110.144 195.797C111.12 195.693 112.752 195.493 113.76 195.349C114.768 195.205 116.512 194.917 117.632 194.709C118.744 194.501 120.512 194.133 121.56 193.893C122.608 193.653 124.32 193.228 125.368 192.94C126.408 192.66 128.408 192.052 129.8 191.596C131.2 191.14 133.312 190.395 134.496 189.939C135.68 189.491 137.704 188.643 139 188.074C140.288 187.498 142 186.698 142.8 186.298C143.608 185.898 144.944 185.193 145.784 184.745C146.624 184.289 148.192 183.385 149.272 182.744C150.352 182.104 152.232 180.904 153.456 180.087C154.68 179.271 156.648 177.87 157.832 176.982C159.016 176.086 160.728 174.733 161.632 173.981C162.536 173.221 163.936 172.012 164.744 171.284C165.544 170.556 167.168 168.987 168.36 167.794C169.544 166.594 171.168 164.881 171.96 163.977C172.752 163.073 173.92 161.704 174.552 160.936C175.176 160.176 176.416 158.575 177.296 157.39C178.184 156.206 179.36 154.549 179.92 153.709C180.48 152.877 181.456 151.364 182.08 150.356C182.704 149.339 183.648 147.747 184.176 146.802C184.696 145.858 185.6 144.145 186.176 143.001C186.752 141.848 187.584 140.112 188.016 139.135C188.456 138.159 189.192 136.39 189.664 135.198C190.136 134.013 190.936 131.788 191.448 130.26C191.96 128.723 192.664 126.386 193.024 125.058C193.376 123.729 193.864 121.704 194.112 120.56C194.36 119.408 194.76 117.327 194.992 115.926C195.224 114.534 195.536 112.397 195.672 111.172C195.808 109.956 196 108.099 196.088 107.051C196.184 105.906 196.248 103.121 196.248 100.016C196.248 96.9108 196.184 94.1257 196.088 92.9813C196 91.9329 195.808 90.0761 195.672 88.8597C195.528 87.6352 195.248 85.6424 195.048 84.4179C194.848 83.2015 194.512 81.3447 194.296 80.2963C194.08 79.2559 193.616 77.3032 193.272 75.9586C192.928 74.6141 192.328 72.5013 191.936 71.2688C191.544 70.0283 190.88 68.0756 190.464 66.9231C190.04 65.7707 189.232 63.7459 188.672 62.4253C188.104 61.0968 187.096 58.904 186.424 57.5434C185.752 56.1829 184.752 54.2702 184.208 53.2938C183.664 52.3174 182.704 50.6928 182.08 49.6764C181.456 48.668 180.48 47.1554 179.92 46.3231C179.36 45.4827 178.184 43.8261 177.296 42.6416C176.416 41.4572 175.176 39.8565 174.552 39.0962C173.92 38.3279 172.752 36.9594 171.96 36.0551C171.168 35.1507 169.544 33.438 168.36 32.2376C167.168 31.0451 165.544 29.4765 164.744 28.7482C163.936 28.0199 162.536 26.8114 161.632 26.0511C160.728 25.2989 159.104 24.0103 158.024 23.194C156.944 22.3777 155.344 21.2253 154.472 20.625C153.6 20.0248 152.256 19.1364 151.488 18.6483C150.72 18.1601 149.24 17.2637 148.192 16.6555C147.144 16.0392 145.32 15.0388 144.136 14.4226C142.952 13.8064 140.976 12.854 139.76 12.3018C138.536 11.7416 136.6 10.9172 135.448 10.4611C134.296 10.0049 132.328 9.27659 131.072 8.85243C129.816 8.42826 127.904 7.82002 126.824 7.5079C125.744 7.19578 124.088 6.7396 123.144 6.50751C122.2 6.26742 120.288 5.85125 118.896 5.57114C117.504 5.29104 115.592 4.9469 114.648 4.81085C113.704 4.66679 112.168 4.45871 111.224 4.34667C110.28 4.23462 108.456 4.06656 107.168 3.97052C105.872 3.87448 103.248 3.76244 101.328 3.73043C99.416 3.69841 96.848 3.72242 95.624 3.78645Z" fill="#000100"/>
<path d="M98.8638 10.836C98.7998 10.884 98.7598 13.309 98.7758 16.2301L98.7918 21.5282C100.744 21.5842 101.256 21.5442 101.288 21.4642C101.312 21.4001 101.32 18.9752 101.304 16.0781L101.272 10.82C99.4878 10.764 98.9198 10.788 98.8638 10.836ZM86.2718 11.7164C85.9038 11.8124 85.3598 12.0205 85.0638 12.1645C84.7678 12.3166 84.2158 12.7408 83.8318 13.1009C83.4078 13.5011 82.9678 14.0853 82.7278 14.5735C82.5038 15.0136 82.2558 15.7499 82.1758 16.2061C82.0638 16.8384 82.0638 17.2385 82.1758 17.9188C82.2558 18.407 82.5038 19.1673 82.7278 19.6154C82.9678 20.0876 83.4158 20.6959 83.8318 21.088C84.2158 21.4562 84.8718 21.9123 85.2878 22.1044C85.7038 22.3045 86.3918 22.5206 86.8078 22.5926C87.3358 22.6806 87.8478 22.6806 88.4558 22.5926C88.9438 22.5206 89.6878 22.3045 90.1038 22.1124C90.5278 21.9203 91.1198 21.5602 91.4318 21.2961C91.7358 21.04 92.1598 20.5758 92.3678 20.2637C92.5838 19.9516 92.8318 19.5034 92.9198 19.2793L93.0878 18.8712C90.9998 18.1669 90.7278 18.1189 90.6878 18.2549C90.6558 18.3509 90.4558 18.6791 90.2398 18.9912C89.9918 19.3593 89.6318 19.6635 89.2238 19.8715C88.8478 20.0636 88.2958 20.2077 87.8878 20.2397C87.4158 20.2717 87.0078 20.2157 86.6238 20.0556C86.3038 19.9276 85.8878 19.6795 85.6798 19.5034C85.4798 19.3273 85.1838 18.9592 85.0158 18.6791C84.8398 18.375 84.6798 17.8628 84.6318 17.4066C84.5678 16.8224 84.5998 16.5022 84.7838 16.014C84.9118 15.6699 85.2238 15.1577 85.4718 14.8856C85.7198 14.6135 86.1518 14.2854 86.4318 14.1573C86.7438 14.0213 87.2318 13.9252 87.6958 13.9252C88.1678 13.9252 88.6558 14.0213 88.9678 14.1573C89.2478 14.2854 89.6718 14.5735 89.9198 14.7976L90.3598 15.2057C90.9518 14.7655 91.3598 14.4614 91.6558 14.2453C91.9518 14.0373 92.1918 13.8052 92.1998 13.7331C92.2078 13.6611 91.9358 13.341 91.5998 13.0209C91.2718 12.7087 90.7518 12.3166 90.4558 12.1725C90.1598 12.0205 89.5918 11.8044 89.1918 11.7003C88.7838 11.5963 88.1198 11.5163 87.6958 11.5243C87.2798 11.5243 86.6398 11.6123 86.2718 11.7164ZM111.416 11.6923C110.992 11.7804 110.344 12.0205 109.96 12.2206C109.584 12.4286 109.016 12.8528 108.696 13.1649C108.376 13.485 107.968 13.9972 107.784 14.3094C107.6 14.6215 107.344 15.2137 107.224 15.6379C107.072 16.1741 107.024 16.7023 107.056 17.4706C107.096 18.399 107.168 18.6871 107.568 19.5034C107.888 20.1597 108.256 20.6639 108.744 21.12C109.128 21.4882 109.832 21.9684 110.304 22.1924C111.008 22.5206 111.36 22.6086 112.24 22.6486C113.016 22.6886 113.528 22.6406 114.08 22.4806C114.496 22.3605 115.096 22.1124 115.408 21.9283C115.72 21.7443 116.232 21.3361 116.552 21.024C116.864 20.7119 117.312 20.0796 117.528 19.6314C117.752 19.1753 118 18.431 118.072 17.9828C118.176 17.3906 118.176 16.9184 118.08 16.3342C118.008 15.878 117.776 15.1497 117.568 14.7175C117.352 14.2774 116.888 13.6211 116.52 13.245C116.152 12.8768 115.536 12.4126 115.152 12.2126C114.768 12.0205 114.088 11.7884 113.632 11.6923C113.184 11.5963 112.664 11.5243 112.496 11.5243C112.32 11.5323 111.832 11.6043 111.416 11.6923Z" fill="white"/>
<path d="M111.832 14.0379C111.648 14.0939 111.328 14.23 111.136 14.334C110.944 14.4381 110.568 14.7662 110.304 15.0463C109.992 15.3904 109.76 15.8226 109.624 16.3028C109.488 16.791 109.448 17.2152 109.512 17.5993C109.56 17.9114 109.704 18.3676 109.832 18.6157C109.96 18.8558 110.248 19.2399 110.48 19.464C110.72 19.6881 111.12 19.9602 111.384 20.0643C111.64 20.1763 112.168 20.2643 112.552 20.2643C112.936 20.2643 113.44 20.1843 113.664 20.0963C113.888 20.0002 114.296 19.7281 114.568 19.496C114.84 19.256 115.176 18.8318 115.312 18.5517C115.456 18.2716 115.6 17.7594 115.632 17.4072C115.676 16.9803 115.626 16.549 115.488 16.1427C115.368 15.7906 115.128 15.3264 114.96 15.0943C114.792 14.8702 114.408 14.5421 114.112 14.374C113.792 14.19 113.28 14.0379 112.872 13.9979C112.488 13.9579 112.024 13.9819 111.832 14.0379Z" fill="#000100"/>
<path d="M123.496 19.3917C122.496 22.1687 121.712 24.4656 121.752 24.4897C121.784 24.5137 122.312 24.7057 122.92 24.9298L124.032 25.338C124.4 24.3056 124.872 22.9611 125.32 21.6886C125.76 20.4161 126.176 19.3917 126.232 19.4077C126.296 19.4237 126.928 21.1523 127.632 23.2412L128.912 27.0426C130.44 27.5869 130.904 27.6989 130.936 27.6509C130.96 27.5949 131.768 25.354 132.72 22.6729C133.672 19.9839 134.464 17.743 134.472 17.679C134.488 17.623 133.992 17.3989 133.376 17.1748C132.6 16.8947 132.232 16.8227 132.176 16.9187C132.128 16.9987 131.632 18.3513 131.072 19.9279C130.512 21.5045 130.032 22.801 129.992 22.801C129.96 22.801 129.368 21.1043 128.68 19.0235C127.992 16.9507 127.36 15.182 127.28 15.094C127.208 14.9979 126.728 14.7899 126.216 14.6298L125.296 14.3257M69.7204 16.0303C69.0164 16.2784 68.8644 16.3825 68.8564 16.6146C68.8564 16.7746 68.6964 19.3997 68.5124 22.4489C68.3204 25.498 68.2084 27.995 68.2644 27.995C68.3124 27.995 68.8724 27.8109 69.5044 27.5869L70.6484 27.1707C70.6484 25.506 70.6884 24.9538 70.7364 24.8658C70.7924 24.7858 71.7444 24.3936 72.8564 23.9935L74.8884 23.2652L76.5364 25.0819C78.3524 24.4416 78.8724 24.2175 78.8484 24.1695C78.8324 24.1295 77.0644 22.2008 74.9204 19.8959C72.4804 17.2708 70.9364 15.7022 70.8004 15.7102C70.6804 15.7182 70.1924 15.8623 69.7204 16.0303Z" fill="white"/>
<path d="M70.9765 19.8805C70.9285 20.3367 70.8965 21.0889 70.8965 21.5611V22.4175C72.6165 21.8012 73.1445 21.6011 73.1765 21.5771C73.2085 21.5531 73.0885 21.353 72.8965 21.121C72.7045 20.8969 72.2085 20.3367 71.8005 19.8805L71.0565 19.0562" fill="#000100"/>
<path d="M57.0956 21.6659L56.0556 22.2901C58.6156 26.5638 59.3436 27.8203 59.3276 27.8283C59.3036 27.8363 57.5596 27.196 55.4556 26.4037L51.6156 24.9551C50.2396 25.7875 49.8556 26.0676 49.8716 26.1156C49.8876 26.1636 51.1276 28.2284 52.6316 30.7094C54.1276 33.1904 55.3996 35.2232 55.4556 35.2232C55.5036 35.2232 55.9756 34.9671 56.4956 34.6549C57.0236 34.3428 57.4476 34.0547 57.4476 34.0227C57.4476 33.9827 56.7356 32.7582 55.8636 31.2936C54.9916 29.829 54.2956 28.6046 54.3116 28.5646C54.3276 28.5245 56.0236 29.1248 58.0876 29.8931C60.1436 30.6694 61.8716 31.2936 61.9196 31.2936C61.9756 31.2936 62.4156 31.0695 62.9036 30.7894L63.7916 30.2772C59.5516 23.2585 58.2796 21.1777 58.2236 21.1296C58.1756 21.0816 57.6716 21.3217 57.0956 21.6659ZM139.824 26.1716C137.312 28.0123 135.24 29.5569 135.224 29.613C135.208 29.669 135.632 29.9651 136.168 30.2772C136.704 30.5973 137.192 30.8695 137.248 30.8855C137.304 30.9015 137.776 30.5973 138.304 30.2212C139.208 29.5489 139.264 29.5249 139.6 29.693C139.792 29.789 140.632 30.2852 141.472 30.7894C142.312 31.2936 143.008 31.7098 143.032 31.7178C143.048 31.7338 142.992 32.294 142.904 32.9663L142.736 34.1907C144.408 35.1751 144.904 35.4472 144.92 35.4392C144.936 35.4232 145.288 32.8302 145.712 29.677C146.136 26.5238 146.48 23.9147 146.48 23.8747C146.48 23.8427 146.08 23.5866 145.592 23.3065C145.104 23.0264 144.632 22.8023 144.544 22.8103C144.456 22.8183 142.336 24.3309 139.824 26.1716Z" fill="white"/>
<path d="M142.489 27.1154C141.857 27.5956 141.329 28.0358 141.313 28.0838C141.297 28.1398 141.721 28.4439 142.257 28.756C142.793 29.0762 143.265 29.3483 143.305 29.3643C143.345 29.3803 143.449 28.9001 143.537 28.2839C143.633 27.6756 143.729 26.9633 143.761 26.6992C143.785 26.4351 143.769 26.2271 143.721 26.2271C143.673 26.2351 143.113 26.6352 142.489 27.1154Z" fill="#000100"/>
<path d="M95.5611 28.6439C94.6571 28.6999 93.1131 28.8359 92.1371 28.948C91.1611 29.06 89.4811 29.2921 88.3931 29.4602C87.3131 29.6363 85.5451 29.9804 84.4651 30.2205C83.3851 30.4606 81.6971 30.8767 80.7211 31.1568C79.7451 31.437 78.1211 31.9412 77.1131 32.2773C76.0971 32.6214 74.3611 33.2697 73.2411 33.7098C72.1291 34.158 70.0411 35.1024 68.6091 35.8067C67.1851 36.5109 65.2411 37.5353 64.2971 38.0715C63.3611 38.6158 61.8491 39.5521 60.9371 40.1524L59.2891 41.2488L62.4651 41.3208C65.3131 39.6001 67.2251 38.5597 68.5451 37.8875C69.8731 37.2152 71.7851 36.3109 72.8011 35.8867C73.8091 35.4545 75.2891 34.8703 76.0971 34.5822C76.8971 34.2941 78.2651 33.8299 79.1371 33.5578C80.0091 33.2777 81.5771 32.8295 82.6251 32.5574C83.6731 32.2853 85.3851 31.8931 86.4331 31.6851C87.4811 31.477 89.1611 31.1969 90.1691 31.0528C91.1851 30.9168 92.7211 30.7247 93.5931 30.6366C94.6091 30.5326 96.9211 30.4686 100.001 30.4686C103.057 30.4686 105.377 30.5326 106.345 30.6366C107.177 30.7247 108.689 30.9088 109.705 31.0528C110.713 31.1889 112.401 31.477 113.441 31.6771C114.489 31.8851 116.233 32.2773 117.313 32.5494C118.393 32.8295 120.193 33.3497 121.305 33.7098C122.425 34.07 124.281 34.7342 125.433 35.1904C126.577 35.6466 128.353 36.3989 129.361 36.8711C130.369 37.3353 131.913 38.1116 132.785 38.5837C133.657 39.0559 135.073 39.8642 135.921 40.3764L137.481 41.3128L140.705 41.2488C137.961 39.4561 136.449 38.5197 135.577 38.0155C134.705 37.5113 132.793 36.5109 131.329 35.7987C129.865 35.0784 127.809 34.15 126.761 33.7258C125.713 33.3097 124.001 32.6694 122.953 32.3173C121.913 31.9572 120.137 31.4129 119.025 31.1008C117.905 30.7967 116.193 30.3725 115.217 30.1645C114.241 29.9564 112.785 29.6683 111.985 29.5242C111.185 29.3882 109.561 29.1561 108.369 29.02C107.185 28.876 105.249 28.7079 104.057 28.6359C102.873 28.5638 100.849 28.5158 99.5611 28.5238C98.2651 28.5318 96.4651 28.5878 95.5611 28.6439Z" fill="#F6B4CD"/>
<path d="M152.087 34.333C150.191 36.5658 148.647 38.4146 148.671 38.4306C148.687 38.4546 149.727 39.3509 150.983 40.4234C152.239 41.4878 153.399 42.4882 153.559 42.6322L153.855 42.8963C154.631 42.008 154.967 41.5998 155.103 41.4077L155.359 41.0556C152.799 38.8948 152.063 38.2385 152.063 38.2065C152.063 38.1665 153.255 36.7419 154.727 35.0373C156.191 33.3246 157.391 31.884 157.391 31.836C157.399 31.78 157.023 31.4118 156.567 31.0117C156.111 30.6035 155.695 30.2754 155.639 30.2754C155.591 30.2754 153.991 32.1081 152.087 34.333ZM41.6232 32.7243C41.3192 32.8764 40.2792 33.7007 39.3032 34.5571L37.5352 36.1097C40.9192 39.8951 42.5272 41.6958 43.3032 42.5522C44.0712 43.4085 44.7352 44.1048 44.7672 44.1048C44.7992 44.1128 45.2232 43.7527 45.6952 43.3125L46.5592 42.5122C44.2872 39.9592 43.6712 39.1749 43.7192 39.1108C43.7752 39.0548 45.0872 39.2149 46.6392 39.463L49.4632 39.9112C50.1992 39.2949 50.6792 38.8627 51.0152 38.5666C51.3432 38.2625 51.5752 37.9904 51.5192 37.9584C51.4712 37.9344 50.1672 37.6943 48.6392 37.4382C47.1032 37.1821 45.8312 36.966 45.8232 36.95C45.8072 36.942 45.8792 36.6539 45.9832 36.3017C46.0792 35.9496 46.1672 35.4694 46.1592 35.2213C46.1592 34.9812 46.0552 34.5491 45.9272 34.2689C45.7992 33.9968 45.4472 33.5407 45.1352 33.2686C44.8312 32.9965 44.3912 32.6923 44.1672 32.6043C43.9352 32.5083 43.3992 32.4362 42.9592 32.4362C42.3992 32.4442 42.0072 32.5243 41.6232 32.7243Z" fill="white"/>
<path d="M42.0323 35.2058C41.7603 35.4059 41.3923 35.718 41.2163 35.9021L40.9043 36.2302C41.7683 37.1746 42.0643 37.5027 42.1203 37.5668C42.1763 37.6468 42.4963 37.4467 42.9283 37.0626C43.3203 36.7104 43.6963 36.2703 43.7603 36.0782C43.8403 35.8541 43.8403 35.622 43.7523 35.4139C43.6883 35.2379 43.5123 35.0378 43.3763 34.9738C43.2323 34.9017 42.9843 34.8457 42.8243 34.8457C42.6643 34.8457 42.3043 35.0058 42.0323 35.2058Z" fill="#000100"/>
<path d="M29.8646 44.8094C28.7526 46.2419 27.8246 47.4504 27.8086 47.4984C27.8006 47.5464 29.6486 49.043 31.9206 50.8197C34.2006 52.5964 36.1206 54.061 36.2006 54.077C36.2726 54.093 37.0326 53.2127 37.8726 52.1162C38.7206 51.0198 39.6486 49.8193 39.9366 49.4592L40.4566 48.7869C39.1286 47.7145 38.7046 47.4024 38.6486 47.4024C38.6006 47.3944 37.9686 48.1387 37.2566 49.051C36.5366 49.9554 35.9126 50.6997 35.8566 50.6997C35.8086 50.6917 35.4806 50.4756 35.1366 50.2195C34.7926 49.9554 34.5046 49.7153 34.4966 49.6753C34.4886 49.6433 34.9446 49.019 35.5126 48.2827C36.0726 47.5544 36.5286 46.9222 36.5206 46.8902C36.5206 46.8502 36.1446 46.538 35.6966 46.1939C35.2406 45.8418 34.8246 45.5617 34.7606 45.5617C34.6966 45.5617 34.2646 46.0419 33.7926 46.6341C33.3286 47.2263 32.8726 47.8266 32.7766 47.9706C32.6086 48.2107 32.5846 48.2027 31.8966 47.6505C31.5046 47.3384 31.1926 47.0502 31.1926 47.0182C31.1926 46.9782 31.7686 46.2259 32.4646 45.3376C33.1606 44.4492 33.7366 43.6729 33.7446 43.6249C33.7446 43.5689 33.3606 43.2248 32.8886 42.8566C32.4086 42.4885 31.9926 42.1924 31.9606 42.2004C31.9286 42.2004 30.9846 43.3768 29.8646 44.8094Z" fill="white"/>
<path d="M52.5675 44.4428C52.5115 44.4828 52.4715 57.2958 52.4795 72.9019C52.4955 90.8049 52.5515 102.089 52.6395 103.474C52.7115 104.674 52.8795 106.683 53.0235 107.94C53.1595 109.196 53.4475 111.221 53.6555 112.445C53.8635 113.662 54.2315 115.535 54.4715 116.591C54.7195 117.655 55.0875 119.168 55.3035 119.952C55.5115 120.737 55.9755 122.297 56.3275 123.41C56.6795 124.522 57.3435 126.411 57.7995 127.595C58.2555 128.78 58.9835 130.548 59.4155 131.525C59.8555 132.501 60.5675 134.014 60.9995 134.886C61.4395 135.758 62.2235 137.239 62.7515 138.183C63.2795 139.12 64.1355 140.576 64.6555 141.417C65.1755 142.249 66.0315 143.561 66.5595 144.33C67.0795 145.098 68.0955 146.499 68.8075 147.435C69.5275 148.379 70.7035 149.86 71.4395 150.732C72.1675 151.605 73.5275 153.125 74.4635 154.11C75.3915 155.094 76.8155 156.519 77.6155 157.279C78.4235 158.039 79.6795 159.176 80.4075 159.808C81.1355 160.432 82.1675 161.296 82.6875 161.721C83.2075 162.137 84.2955 162.969 85.0955 163.561C87.1852 165.098 89.3448 166.538 91.5675 167.875C92.4395 168.403 94.0635 169.316 95.1835 169.908C96.2955 170.5 97.8475 171.292 98.6395 171.668L100.064 172.349C102.272 171.292 103.776 170.524 104.816 169.972C105.864 169.412 107.56 168.451 108.592 167.835C109.624 167.211 111.192 166.218 112.08 165.618C112.968 165.018 114.44 163.969 115.344 163.281C116.256 162.601 117.704 161.448 118.576 160.72C119.448 159.992 121.048 158.575 122.12 157.567C123.2 156.567 124.824 154.942 125.728 153.966C126.632 152.989 127.968 151.477 128.696 150.604C129.424 149.732 130.664 148.163 131.448 147.123C132.232 146.074 133.272 144.618 133.76 143.89C134.248 143.153 135.024 141.953 135.472 141.225C135.928 140.488 136.712 139.152 137.224 138.247C137.736 137.335 138.624 135.622 139.208 134.438C139.792 133.253 140.608 131.485 141.024 130.508C141.44 129.532 142.144 127.739 142.584 126.515C143.032 125.298 143.64 123.498 143.936 122.521C144.232 121.545 144.696 119.888 144.96 118.848C145.232 117.799 145.616 116.087 145.832 115.038C146.04 113.998 146.36 112.197 146.536 111.045C146.712 109.9 146.944 108.068 147.048 106.987C147.152 105.907 147.304 103.658 147.376 101.985C147.464 100.032 147.496 89.1722 147.472 71.6774L147.432 44.4188C73.9915 44.3707 52.6235 44.3947 52.5675 44.4428Z" fill="#F6B4CD"/>
<path d="M165.952 48.0435C163.576 49.7242 161.616 51.1327 161.6 51.1807C161.576 51.2288 162.112 52.0371 162.776 52.9734C163.448 53.9178 164.176 54.8462 164.4 55.0463C164.624 55.2463 165.024 55.5424 165.28 55.7105C165.544 55.8786 166.104 56.1347 166.52 56.2707C166.952 56.4148 167.624 56.5268 168.072 56.5268C168.512 56.5268 169.232 56.4148 169.688 56.2787C170.144 56.1427 170.792 55.8386 171.136 55.6145C171.48 55.3824 171.952 54.9662 172.192 54.6861C172.424 54.406 172.76 53.8938 172.936 53.5497C173.104 53.1975 173.312 52.5093 173.392 52.0211C173.504 51.3808 173.512 50.9246 173.416 50.3804C173.344 49.9563 173.136 49.3 172.96 48.9159C172.784 48.5317 172.16 47.4913 171.568 46.603C170.968 45.7146 170.432 44.9863 170.376 44.9863C170.312 44.9863 168.32 46.3629 165.952 48.0435Z" fill="white"/>
<path d="M54.4082 74.3413C54.4082 92.5724 54.4562 103.08 54.5362 104.297C54.6162 105.321 54.7842 107.106 54.9202 108.259C55.0642 109.411 55.3202 111.204 55.4962 112.252C55.6802 113.3 56.0162 115.005 56.2482 116.054C56.4802 117.102 56.8802 118.727 57.1362 119.671C57.3922 120.607 57.9282 122.376 58.3362 123.601C58.7362 124.817 59.4402 126.762 59.8962 127.906C60.3522 129.059 61.1362 130.883 61.6402 131.964C62.1442 133.044 63.0082 134.789 63.5762 135.837C64.1362 136.878 65.0242 138.446 65.5442 139.319C66.0642 140.191 66.9522 141.592 67.5122 142.424C68.0722 143.264 68.9042 144.465 69.3522 145.089C69.8082 145.721 70.8162 147.034 71.6002 148.01C72.3762 148.986 73.5442 150.379 74.1922 151.115C74.8402 151.844 75.9442 153.036 76.6482 153.756C77.3522 154.477 78.6482 155.733 79.5202 156.541C80.3922 157.35 81.7922 158.582 82.6242 159.278C83.4642 159.975 84.9442 161.143 85.9202 161.871C86.8962 162.6 88.5282 163.744 89.5362 164.408C90.5522 165.081 92.2322 166.129 93.2802 166.745C94.3282 167.354 96.2802 168.41 97.6242 169.09L100.064 170.323C103.648 168.514 105.488 167.522 106.464 166.953C107.448 166.385 109.216 165.273 110.4 164.488C111.584 163.704 113.24 162.552 114.08 161.927C114.912 161.311 116.48 160.063 117.568 159.158C118.648 158.254 120.552 156.517 121.8 155.301C123.048 154.076 124.736 152.34 125.544 151.427C126.352 150.523 127.48 149.211 128.04 148.514C128.6 147.818 129.552 146.585 130.144 145.785C130.736 144.985 131.792 143.472 132.488 142.424C133.184 141.383 134.128 139.895 134.584 139.135C135.032 138.366 135.864 136.878 136.424 135.837C136.984 134.789 137.784 133.188 138.208 132.284C138.632 131.38 139.32 129.811 139.736 128.795C140.152 127.786 140.72 126.306 141.008 125.497C141.288 124.697 141.752 123.304 142.04 122.392C142.32 121.488 142.784 119.887 143.056 118.847C143.336 117.798 143.784 115.797 144.064 114.405C144.336 113.012 144.656 111.268 144.76 110.539C144.864 109.803 145.032 108.411 145.144 107.434C145.248 106.458 145.392 104.745 145.464 103.633C145.544 102.368 145.592 91.1638 145.592 73.9251V46.2583H54.4082M167.352 50.0598C165.968 51.0442 164.848 51.8685 164.856 51.9005C164.864 51.9325 165.032 52.2046 165.24 52.5007C165.44 52.7969 165.768 53.189 165.968 53.3811C166.168 53.5652 166.544 53.8133 166.808 53.9173C167.064 54.0293 167.576 54.1174 167.944 54.1174C168.392 54.1174 168.816 54.0213 169.248 53.8132C169.592 53.6372 170.096 53.269 170.352 52.9889C170.64 52.6688 170.912 52.2046 171.024 51.8045C171.152 51.3803 171.192 50.9561 171.136 50.628C171.088 50.3479 170.912 49.8677 170.744 49.5556C170.576 49.2355 170.312 48.8273 170.152 48.6352L169.872 48.2831" fill="#000100"/>
<path d="M48.0788 50.8922C47.3508 51.6525 46.1748 52.965 45.4628 53.7973C44.7508 54.6376 43.5428 56.1502 42.7828 57.1586C42.0148 58.167 40.9028 59.7436 40.3028 60.648C39.7108 61.5523 38.7508 63.0969 38.1748 64.0733C37.5988 65.0497 36.5188 67.0985 35.7668 68.6351C35.0068 70.1717 34.1108 72.1405 33.7588 73.0048C33.4068 73.8771 32.8628 75.3177 32.5428 76.2141C32.2228 77.1024 31.6468 78.8951 31.2708 80.2076C30.8948 81.5121 30.4068 83.3768 30.1988 84.3532C29.9828 85.3296 29.6628 86.9622 29.4868 87.9706C29.3108 88.979 29.0548 90.8037 28.9188 92.0282C28.7748 93.2447 28.6068 95.5336 28.5347 97.1022C28.4467 99.087 28.4467 100.856 28.5347 102.928C28.6148 104.569 28.7828 106.85 28.9108 108.002C29.0468 109.155 29.2708 110.836 29.4228 111.74C29.5748 112.652 29.8948 114.301 30.1428 115.421C30.3828 116.534 30.8948 118.519 31.2708 119.823C31.6468 121.136 32.2228 122.928 32.5428 123.817C32.8628 124.713 33.4068 126.154 33.7588 127.026C34.1108 127.89 35.0068 129.859 35.7668 131.396C36.5188 132.932 37.5988 134.981 38.1748 135.957C38.7508 136.934 39.7108 138.478 40.3028 139.383C40.9028 140.287 42.0148 141.864 42.7828 142.872C43.5428 143.88 44.7748 145.425 45.5188 146.297C46.2548 147.17 47.7428 148.786 48.8228 149.891C49.9108 150.995 51.4228 152.46 52.1828 153.148C52.9508 153.828 54.0388 154.765 54.5988 155.237C55.1508 155.701 56.2948 156.597 57.1348 157.222C57.9668 157.854 59.5428 158.958 60.6228 159.671C61.7028 160.391 63.4148 161.447 64.4228 162.024C65.4388 162.608 67.4628 163.664 68.9268 164.376C70.3908 165.089 72.5348 166.041 73.6868 166.497C74.8308 166.945 76.4868 167.554 77.3588 167.842C78.2308 168.138 79.7428 168.602 80.7188 168.874C81.6948 169.154 83.3828 169.571 84.4628 169.811C85.5428 170.051 87.1427 170.363 88.0147 170.507L89.9508 170.827C90.1428 170.867 90.2868 170.835 90.2628 170.763C90.2468 170.699 89.4628 170.147 88.5188 169.547L86.8068 168.458C83.8628 167.786 82.2947 167.394 81.4227 167.154C80.5507 166.913 79.0388 166.449 78.0548 166.129C77.0788 165.801 75.6548 165.297 74.8868 165.001C74.1188 164.705 72.6948 164.104 71.7188 163.672C70.7428 163.24 69.0868 162.44 68.0388 161.904C66.9908 161.359 65.4788 160.519 64.6788 160.047C63.8788 159.575 62.4468 158.67 61.5108 158.046C60.5668 157.414 59.1428 156.413 58.3348 155.813C57.5348 155.213 56.3347 154.277 55.6707 153.732C55.0147 153.188 53.7028 152.044 52.7668 151.195C51.6091 150.127 50.4885 149.019 49.4068 147.874C48.4948 146.898 47.1988 145.441 46.5348 144.641C45.8628 143.84 44.7828 142.472 44.1348 141.6C43.4213 140.645 42.7304 139.674 42.0628 138.686C41.5748 137.958 40.7908 136.726 40.3268 135.957C39.8628 135.197 39.0548 133.765 38.5188 132.788C37.9908 131.812 37.1028 130.019 36.5508 128.795C35.9908 127.578 35.1668 125.577 34.7108 124.361C34.2548 123.136 33.6708 121.456 33.4148 120.615C33.1668 119.783 32.7348 118.238 32.4628 117.198C32.1374 115.915 31.8466 114.623 31.5908 113.325C31.3828 112.244 31.1268 110.74 31.0228 109.971C30.9108 109.203 30.7668 108.034 30.6948 107.37C30.6228 106.706 30.5108 105.305 30.4388 104.265C30.3668 103.217 30.3108 101.336 30.3108 100.079C30.3108 98.8229 30.3668 96.8861 30.4388 95.7657C30.5108 94.6533 30.6548 92.9966 30.7588 92.0922C30.8628 91.1879 31.0628 89.7553 31.1908 88.923C31.3268 88.0827 31.6148 86.5701 31.8228 85.5617C32.0308 84.5533 32.4388 82.8646 32.7188 81.8242C33.0068 80.7758 33.5588 78.9751 33.9428 77.8307C34.3268 76.6782 34.9428 74.9896 35.3188 74.0852C35.6868 73.1809 36.3428 71.6683 36.7748 70.7239C37.2068 69.7875 37.9908 68.2189 38.5268 67.2425C39.0548 66.2662 39.8628 64.8336 40.3268 64.0733C40.7908 63.305 41.5748 62.0725 42.0628 61.3442C42.5508 60.608 43.4868 59.2954 44.1348 58.4311C44.7828 57.5588 45.8628 56.1902 46.5348 55.3899C47.1988 54.5896 48.1348 53.5332 48.5988 53.037L49.4548 52.1487L49.3988 49.5156M150.543 50.8521L150.551 52.1487C152.079 53.8213 152.991 54.8617 153.559 55.542C154.127 56.2222 155.119 57.4787 155.759 58.3351C156.391 59.1834 157.351 60.5439 157.887 61.3442C158.423 62.1446 159.207 63.369 159.631 64.0733C160.055 64.7696 160.863 66.1941 161.423 67.2425C161.991 68.283 162.831 69.9716 163.295 70.98C163.759 71.9884 164.423 73.533 164.767 74.4053C165.111 75.2777 165.703 76.9023 166.079 78.0148C166.455 79.1352 166.943 80.7038 167.159 81.5041C167.375 82.3044 167.711 83.673 167.911 84.5453C168.111 85.4176 168.423 86.9622 168.599 87.9706C168.783 88.979 169.039 90.8037 169.183 92.0282C169.319 93.2447 169.495 95.5336 169.575 97.1022C169.687 99.231 169.687 100.688 169.575 102.864C169.495 104.473 169.319 106.786 169.183 108.002C169.039 109.227 168.783 111.052 168.599 112.06C168.423 113.068 168.111 114.613 167.911 115.485C167.711 116.358 167.375 117.726 167.159 118.527C166.943 119.327 166.455 120.896 166.079 122.016C165.703 123.128 165.111 124.753 164.767 125.625C164.423 126.498 163.759 128.042 163.295 129.051C162.831 130.059 161.959 131.804 161.359 132.916C160.759 134.037 159.895 135.549 159.439 136.278C158.983 137.014 158.231 138.182 157.767 138.879C157.295 139.575 156.407 140.831 155.783 141.664C155.159 142.504 154.055 143.904 153.327 144.777C152.607 145.641 150.727 147.642 149.151 149.219C147.575 150.787 145.631 152.62 144.831 153.284C144.031 153.956 142.663 155.037 141.791 155.693C140.919 156.349 139.375 157.43 138.359 158.102C137.351 158.774 135.607 159.847 134.495 160.487C133.375 161.127 131.607 162.072 130.567 162.584C129.519 163.096 127.751 163.896 126.631 164.36C125.519 164.833 123.431 165.601 121.999 166.081C120.575 166.561 118.375 167.202 117.119 167.514C115.863 167.826 114.527 168.146 114.143 168.226C113.631 168.322 113.015 168.626 111.855 169.362C110.983 169.915 110.159 170.451 110.015 170.555C109.879 170.659 109.791 170.763 109.831 170.803C109.863 170.835 110.807 170.699 111.919 170.507C113.039 170.315 114.631 170.003 115.471 169.819C116.311 169.643 117.903 169.234 119.023 168.93C120.135 168.618 121.911 168.074 122.951 167.714C123.999 167.362 125.711 166.721 126.759 166.305C127.807 165.881 129.863 164.953 131.327 164.232C132.791 163.52 134.703 162.52 135.575 162.016C136.447 161.511 138.071 160.503 139.191 159.767C140.303 159.03 141.903 157.918 142.735 157.286C143.575 156.661 144.911 155.597 145.711 154.925C146.511 154.261 147.935 152.996 148.879 152.124C149.815 151.251 151.303 149.771 152.175 148.826C153.047 147.89 154.327 146.433 155.023 145.601C155.727 144.761 156.799 143.392 157.423 142.552C158.901 140.55 160.281 138.477 161.559 136.342C162.055 135.501 163.063 133.652 163.783 132.22C164.511 130.787 165.479 128.707 165.943 127.594C166.407 126.474 167.071 124.777 167.415 123.817C167.759 122.864 168.295 121.208 168.599 120.143C168.903 119.079 169.327 117.494 169.543 116.622C169.751 115.749 170.071 114.269 170.247 113.325C170.423 112.388 170.679 110.788 170.815 109.779C170.959 108.771 171.143 107.194 171.231 106.29C171.335 105.273 171.399 102.872 171.399 100.015C171.399 97.1582 171.335 94.7573 171.231 93.7409C171.143 92.8365 170.959 91.2599 170.815 90.2515C170.671 89.2431 170.415 87.6425 170.247 86.7061C170.071 85.7618 169.679 83.9931 169.375 82.7686C169.071 81.5521 168.583 79.7834 168.287 78.8391C167.928 77.6881 167.541 76.546 167.127 75.4137C166.775 74.4774 166.143 72.9088 165.727 71.9324C165.311 70.956 164.407 69.0432 163.719 67.6827C163.031 66.3222 162.055 64.5295 161.559 63.6892C160.281 61.5533 158.901 59.4808 157.423 57.4787C156.799 56.6384 155.727 55.2699 155.023 54.4295C154.327 53.5972 153.063 52.1567 152.207 51.2283C151.359 50.3079 150.639 49.5556 150.599 49.5556C150.567 49.5556 150.543 50.1399 150.543 50.8521Z" fill="#F6B4CD"/>
<path d="M22.1764 56.2941L20.2324 59.7354C20.7044 60.0475 21.1604 60.3196 21.5524 60.5437L22.2564 60.9439L23.5924 58.551C24.4244 59.0231 26.0484 59.9355 27.7444 60.8799C29.4324 61.8322 30.8644 62.6085 30.9124 62.6085C30.9684 62.6085 31.2484 62.1844 31.5444 61.6562C31.8404 61.136 32.0884 60.6558 32.0884 60.5838C32.0884 60.5117 30.5284 59.5914 28.6324 58.5349C26.7284 57.4785 25.1044 56.5502 25.0244 56.4701C24.9044 56.3661 25.0164 56.07 25.5044 55.1976C25.8484 54.5654 26.1284 54.0212 26.1284 53.9892C26.1284 53.9572 25.6724 53.6851 25.1284 53.3889L24.1284 52.8447" fill="white"/>
<path d="M64.5508 62.5445V68.8269H68.2308C68.2308 63.0247 68.2708 61.344 68.3268 61.344C68.3748 61.344 69.5028 62.4244 70.8308 63.7529L73.2388 66.1619L78.2468 61.1519V68.8269H81.9268V56.27H78.1908L73.2388 61.216L68.2948 56.27H64.5508M85.1268 62.5125L85.1588 68.7629L88.7748 68.8269V56.27H85.0948M94.3268 62.4244C92.6708 65.8017 91.3108 68.6268 91.3108 68.6989C91.3108 68.7789 92.0308 68.8269 93.2148 68.8269H95.1188C96.3108 66.3219 96.6788 65.5617 96.7108 65.5296C96.7428 65.4896 97.4868 66.1779 98.3508 67.0502L99.9348 68.6349C102.375 66.2259 103.119 65.5296 103.159 65.5296C103.199 65.5296 103.607 66.2659 104.055 67.1783L104.879 68.8269C107.831 68.8269 108.687 68.7789 108.687 68.7309C108.687 68.6749 107.319 65.8498 105.647 62.4564L102.599 56.27L97.3348 56.278M111.127 62.5125L111.159 68.7629L114.775 68.8269C114.775 63.1287 114.815 61.448 114.871 61.416C114.919 61.384 116.047 62.4404 117.375 63.7609L119.783 66.1619L124.791 61.1519V68.8269H128.471V56.27H124.735L119.783 61.216L114.839 56.27H111.095M131.671 62.5125L131.703 68.7629H135.383L135.447 56.27H131.639" fill="#F6B4CD"/>
<path d="M173.856 60.4326L169.08 62.8015L172.16 68.9399C173.688 68.1636 174.128 67.8835 174.128 67.8115C174.128 67.7394 173.712 66.8511 173.208 65.8427C172.616 64.6502 172.336 63.954 172.416 63.8819C172.488 63.8179 172.856 63.6258 173.24 63.4578L173.936 63.1376C175.12 65.4826 175.504 66.1628 175.552 66.1628C175.608 66.1628 176.08 65.9628 176.6 65.7227C177.128 65.4746 177.552 65.2185 177.552 65.1464C177.552 65.0824 177.24 64.3941 176.856 63.6258C176.472 62.8575 176.16 62.1853 176.152 62.1373C176.152 62.0812 176.472 61.8812 176.856 61.6971C177.24 61.505 177.608 61.3449 177.68 61.3449C177.752 61.3449 178.208 62.1853 178.704 63.2177C179.2 64.2421 179.632 65.1144 179.656 65.1464C179.688 65.1864 180.176 64.9864 180.728 64.7063C181.288 64.4261 181.744 64.1701 181.744 64.13C181.744 64.098 181.088 62.7135 180.28 61.0568C179.48 59.4002 178.776 58.0557 178.728 58.0557C178.672 58.0637 176.48 59.1281 173.856 60.4326Z" fill="white"/>
<path d="M99.0163 60.8727L98.1523 62.6734L99.9363 64.4501L101.824 62.5453C100.456 59.8483 100.024 59.064 99.9683 59.064C99.9123 59.064 99.4883 59.8803 99.0163 60.8727Z" fill="#000100"/>
<path d="M16.9045 67.2117C16.6725 67.8519 16.5045 68.3881 16.5205 68.3961C16.5365 68.4042 17.8565 68.8603 19.4485 69.4125C21.0405 69.9568 22.3285 70.469 22.3205 70.541C22.3045 70.605 21.7125 70.8691 21.0085 71.1172C20.3045 71.3653 18.6085 71.9575 17.2485 72.4217L14.7765 73.2701L14.1445 75.2708C21.8085 77.9439 24.1045 78.7202 24.1925 78.7202C24.2805 78.7202 24.5045 78.232 24.6965 77.6478C24.8885 77.0555 25.0165 76.5433 24.9845 76.5033C24.9525 76.4713 23.6405 75.9911 22.0645 75.4389C20.4965 74.8867 19.2005 74.3825 19.1845 74.3265C19.1685 74.2624 20.8165 73.6462 22.8485 72.9499C24.8885 72.2457 26.6165 71.6214 26.7045 71.5494C26.7845 71.4854 27.0005 71.0132 27.1845 70.509L27.5205 69.5886C26.8805 69.3805 24.6725 68.6122 22.1925 67.7479C19.7205 66.8836 17.6085 66.1473 17.5045 66.1073C17.3605 66.0512 17.2165 66.3153 16.9045 67.2117Z" fill="white"/>
<path d="M99.9127 75.7346C99.8727 75.8067 99.5207 77.0312 99.1207 78.4637C98.7207 79.8883 98.3527 81.0967 98.3047 81.1528C98.2647 81.2008 97.2567 80.3364 96.0727 79.232C94.8807 78.1276 93.8967 77.2872 93.8727 77.3673C93.8567 77.4473 94.1527 78.7118 94.5367 80.1764C94.9287 81.641 95.2087 82.8654 95.1767 82.8974C95.1367 82.9375 93.8807 82.6333 92.3847 82.2332C90.8887 81.833 89.6407 81.5449 89.6087 81.6009C89.5767 81.649 90.4647 82.4973 91.5687 83.4737C92.6807 84.442 93.5927 85.2744 93.5927 85.3064C93.6007 85.3464 92.3767 85.8826 90.8727 86.5149C89.3687 87.1391 88.1127 87.7233 88.0807 87.8114C88.0327 87.9394 88.6487 87.9714 90.9367 87.9714H93.8487C93.8487 87.2351 93.9367 86.7069 94.0487 86.3228C94.1607 85.9386 94.4327 85.2904 94.6567 84.8742C94.8887 84.45 95.3767 83.8338 95.8167 83.4336C96.2327 83.0495 96.8487 82.6013 97.1767 82.4413C97.6069 82.2376 98.0539 82.0716 98.5127 81.9451C98.9127 81.841 99.5287 81.753 99.8727 81.753C100.225 81.753 100.825 81.817 101.209 81.881C101.593 81.9531 102.273 82.1932 102.729 82.4173C103.225 82.6654 103.857 83.1295 104.321 83.5937C104.801 84.0739 105.233 84.6661 105.481 85.1783C105.697 85.6345 105.945 86.3788 106.025 86.827C106.105 87.2832 106.145 87.7713 106.105 87.9074C106.073 88.0435 105.697 88.4916 105.273 88.8918C104.841 89.2999 104.161 89.7801 103.713 89.9882C103.273 90.1963 102.545 90.4604 102.097 90.5724C101.617 90.7005 100.761 90.7965 100.065 90.7965C99.4007 90.8045 98.5207 90.7325 98.0967 90.6445C97.6807 90.5564 96.8807 90.2683 96.3207 90.0042C95.6487 89.6841 95.0647 89.2839 94.5767 88.8118C94.1767 88.4196 93.8247 88.1395 93.7927 88.1955C93.7607 88.2435 93.8167 88.6597 93.9047 89.1159C94.0007 89.564 94.2567 90.3083 94.4887 90.7565C94.7207 91.2127 95.2247 91.909 95.6167 92.3011C96.0807 92.7733 96.6407 93.1655 97.2727 93.4696C97.8647 93.7497 98.5687 93.9738 99.1127 94.0458C99.6487 94.1258 100.305 94.1258 100.761 94.0618C101.177 94.0058 101.833 93.8377 102.217 93.6937C102.601 93.5576 103.257 93.1815 103.681 92.8773C104.097 92.5652 104.689 91.973 104.985 91.5648C105.289 91.1567 105.649 90.5084 105.793 90.1243C105.937 89.7401 106.089 89.0999 106.129 88.6997L106.217 87.9714C111.361 87.9714 111.969 87.9394 111.921 87.8114C111.881 87.7233 110.625 87.1551 109.129 86.5469C107.633 85.9306 106.401 85.3944 106.401 85.3384C106.401 85.2904 107.313 84.434 108.433 83.4417C109.553 82.4413 110.425 81.6089 110.369 81.5769C110.313 81.5449 109.065 81.849 107.585 82.2412C106.105 82.6413 104.857 82.9375 104.817 82.8974C104.769 82.8654 105.057 81.6089 105.449 80.1124C105.841 78.6078 106.145 77.3433 106.129 77.2873C106.105 77.2312 105.105 78.1036 103.897 79.224C102.697 80.3364 101.689 81.2328 101.665 81.2168C101.633 81.2008 101.289 80.0163 100.889 78.5918C100.489 77.1592 100.121 75.9027 100.065 75.7987C100.017 75.6946 99.9447 75.6626 99.9127 75.7346Z" fill="#F6B4CD"/>
<path d="M77.7995 77.3116C77.5195 77.4476 77.1755 77.7117 77.0475 77.9118C76.9115 78.1119 76.7995 78.288 76.7995 78.296C76.7915 78.312 74.2475 78.7841 71.1435 79.3444C68.0395 79.9046 65.3755 80.3928 65.2155 80.4248C65.0635 80.4648 64.9355 80.5448 64.9355 80.6169C64.9355 80.6969 67.6475 80.7449 72.8315 80.7449C80.0875 80.7449 80.7595 80.7609 81.1595 80.969C81.4075 81.089 81.7115 81.3852 81.8475 81.6333C81.9915 81.8734 82.1035 82.2735 82.1035 82.5216C82.1035 82.7617 81.9915 83.1539 81.8555 83.394C81.7195 83.626 81.4075 83.9302 81.1675 84.0582C80.7915 84.2583 80.4315 84.2983 78.7595 84.2903C77.4075 84.2903 76.5595 84.3543 76.0635 84.4824C75.6635 84.5864 75.0315 84.8265 74.6635 85.0106C74.3035 85.1947 73.6556 85.6748 73.2396 86.075C72.8236 86.4752 72.2955 87.1314 72.0715 87.5476C71.8475 87.9557 71.5755 88.684 71.4555 89.1722C71.3195 89.7644 71.2715 90.3567 71.3115 90.9489C71.3515 91.4371 71.4955 92.1814 71.6475 92.5975C71.7915 93.0137 72.0955 93.646 72.3195 93.9901C72.5515 94.3582 78.3195 100.233 85.7915 107.715C92.9755 114.91 98.9036 120.777 98.9516 120.745C99.0076 120.713 99.0475 119.64 99.0475 118.368V116.055L79.8315 96.8472H82.6235C95.2075 109.428 98.9036 113.078 98.9516 113.078C99.0076 113.078 99.0475 112.149 99.0475 111.013V108.956L86.9355 96.8472H89.7276C96.8076 103.922 98.9036 105.979 98.9516 105.979C99.0076 105.979 99.0155 105.563 98.9755 105.058C98.9355 104.554 98.7996 103.682 98.6636 103.122C98.5356 102.561 98.2475 101.681 98.0315 101.161C97.8155 100.633 97.3196 99.7203 96.9276 99.1281C96.5356 98.5359 95.7835 97.6155 95.2555 97.0873C94.7275 96.5591 93.8395 95.8308 93.2795 95.4627C92.7195 95.1025 91.9515 94.6543 91.5675 94.4783C91.1835 94.2942 90.5515 94.0381 90.1675 93.9021C89.7835 93.774 89.1035 93.5739 88.6475 93.4619C87.9915 93.3018 86.6955 93.2458 82.2235 93.1818L76.6235 93.1097C75.7835 92.5175 75.4075 92.0933 75.2475 91.7732C75.0555 91.4051 74.9436 90.9889 74.9516 90.6048C74.9516 90.2686 75.0396 89.7884 75.1516 89.5243C75.2556 89.2602 75.4715 88.9161 75.6235 88.748C75.7755 88.588 76.1195 88.3479 76.3755 88.2118C76.7755 88.0118 77.1355 87.9717 78.5995 87.9717C79.5595 87.9717 80.6875 87.9157 81.1035 87.8437C81.5195 87.7797 82.2636 87.5236 82.7516 87.2835C83.3116 87.0114 83.8636 86.6192 84.2396 86.211C84.5756 85.8509 85.0315 85.1786 85.2555 84.7065C85.6395 83.9062 85.6715 83.7621 85.6715 82.5216C85.6715 81.2731 85.6395 81.1291 85.2475 80.2967C85.0155 79.8085 84.6715 79.2563 84.4875 79.0643C84.3035 78.8722 84.1756 78.6961 84.2076 78.6641C84.2476 78.6321 85.2716 78.32 86.4956 77.9758C87.7116 77.6317 88.7275 77.2796 88.7435 77.2075C88.7675 77.1035 87.2715 77.0715 83.5435 77.0715C78.6795 77.0715 78.2795 77.0875 77.7995 77.3116ZM111.224 77.2395C111.328 77.3356 112.4 77.6957 113.6 78.0319L115.784 78.6481C115.288 79.2403 114.976 79.7525 114.776 80.1767C114.568 80.5929 114.352 81.2731 114.28 81.6973C114.2 82.2015 114.2 82.7377 114.28 83.2819C114.352 83.7301 114.544 84.4023 114.72 84.7705C114.888 85.1386 115.296 85.7309 115.632 86.083C115.96 86.4431 116.464 86.8833 116.744 87.0594C117.016 87.2354 117.56 87.4915 117.944 87.6276C118.504 87.8277 119.12 87.8917 121 87.9557C123.248 88.0278 123.376 88.0518 123.856 88.3559C124.176 88.572 124.472 88.9241 124.704 89.3723C124.896 89.7644 125.048 90.2686 125.048 90.5407C125.048 90.7968 124.96 91.229 124.848 91.4931C124.744 91.7492 124.496 92.1254 124.312 92.3254C124.12 92.5255 123.8 92.7816 123.592 92.8937C123.256 93.0777 122.504 93.1177 117.632 93.1818C112.336 93.2458 111.992 93.2698 110.968 93.5419C110.376 93.702 109.408 94.0461 108.816 94.3022C108.224 94.5583 107.336 95.0225 106.848 95.3346C106.36 95.6547 105.592 96.255 105.144 96.6631C104.696 97.0793 103.992 97.8476 103.576 98.3678C103.16 98.888 102.544 99.8884 102.208 100.585C101.872 101.281 101.48 102.337 101.328 102.93C101.184 103.522 101.032 104.498 100.992 105.09L100.92 106.163L110.28 96.8472H113.056L100.952 108.956V113.27L117.376 96.8472H120.16L100.944 116.055L101.016 120.817C127.184 94.6223 127.568 94.2222 128.008 93.2938C128.28 92.7336 128.52 91.9893 128.6 91.4611C128.696 90.8289 128.696 90.3086 128.6 89.6844C128.52 89.1242 128.288 88.4199 127.968 87.7797C127.664 87.1474 127.24 86.5392 126.864 86.171C126.528 85.8429 125.912 85.3707 125.488 85.1226C125.072 84.8745 124.344 84.5864 123.872 84.4824C123.328 84.3623 122.344 84.2903 121.144 84.2903C119.616 84.2903 119.2 84.2503 118.832 84.0742C118.592 83.9542 118.264 83.65 118.104 83.41C117.944 83.1619 117.816 82.7937 117.816 82.5856C117.816 82.3695 117.92 82.0014 118.04 81.7613C118.16 81.5212 118.464 81.1851 118.704 81.025L119.152 80.7369C133.592 80.7449 135.096 80.7209 134.96 80.5849C134.872 80.4968 132.192 79.9526 129 79.3764C125.816 78.8002 123.208 78.32 123.2 78.304C123.192 78.288 123.072 78.1039 122.936 77.8878C122.792 77.6797 122.44 77.4076 122.152 77.2876C121.68 77.0875 121.08 77.0635 116.328 77.0635C111.824 77.0635 111.064 77.0875 111.224 77.2395ZM181.104 78.8722C178.28 79.5044 175.96 80.0246 175.944 80.0326C175.928 80.0406 176.032 80.5608 176.176 81.1851C176.312 81.8173 176.44 82.3455 176.448 82.3695C176.464 82.3936 177.328 82.2255 178.376 82.0014C179.424 81.7773 180.336 81.5772 180.408 81.5452C180.472 81.5212 180.688 82.2015 180.888 83.0578C181.08 83.9142 181.264 84.6424 181.304 84.6745C181.336 84.7065 181.848 84.6264 182.44 84.4824C183.032 84.3463 183.52 84.1703 183.52 84.1062C183.52 84.0342 183.368 83.3219 183.192 82.5216C183.016 81.7133 182.888 81.049 182.912 81.033C182.928 81.025 183.312 80.929 183.768 80.8169C184.224 80.7129 184.624 80.6649 184.664 80.7209C184.704 80.7689 184.936 81.6813 185.176 82.7457C185.408 83.8101 185.632 84.6825 185.672 84.6745C185.704 84.6745 186.2 84.5784 186.776 84.4504C187.536 84.2903 187.824 84.1783 187.824 84.0422C187.816 83.9382 187.52 82.4896 187.152 80.8169C186.792 79.1523 186.44 77.7758 186.368 77.7517C186.296 77.7357 183.928 78.2399 181.104 78.8722Z" fill="white"/>
<path d="M78.6328 78.9034V79.4714H80.7848V78.3354H78.6328M119.217 78.9034V79.4714H121.369V78.3354H119.217" fill="#000100"/>
<path d="M12.1439 84.1369C12.0399 84.7451 11.9839 85.2813 12.0319 85.3293C12.0719 85.3693 14.4319 85.8255 17.2719 86.3377C20.1119 86.8499 22.4639 87.2421 22.4959 87.2101C22.5359 87.178 22.6559 86.6338 22.7679 86.0016C22.8799 85.3773 22.9519 84.8571 22.9359 84.8491C22.9119 84.8331 20.6239 84.425 17.8479 83.9288C15.0799 83.4326 12.7039 83.0244 12.5759 83.0244C12.3759 83.0244 12.3039 83.2085 12.1439 84.1369ZM184.784 90.2512C182.296 90.4193 181.272 90.5394 180.848 90.6994C180.536 90.8275 180.072 91.0756 179.824 91.2516C179.568 91.4357 179.224 91.7558 179.048 91.9639C178.872 92.172 178.64 92.5161 178.536 92.7242C178.424 92.9323 178.264 93.4765 178.176 93.9327C178.048 94.5889 178.048 94.9331 178.176 95.6373C178.264 96.1255 178.488 96.8058 178.672 97.1499C178.856 97.4941 179.264 97.9903 179.584 98.2624C179.896 98.5345 180.448 98.8706 180.816 99.0067C181.28 99.1747 181.808 99.2548 182.528 99.2548C183.104 99.2548 184.864 99.1667 186.432 99.0627C188 98.9586 189.288 98.8546 189.304 98.8386C189.312 98.8226 189.288 98.2864 189.24 97.6381L189.16 96.4617C188.472 96.4617 186.96 96.5497 185.352 96.6617C183.744 96.7658 182.232 96.8218 181.992 96.7738C181.744 96.7338 181.392 96.5817 181.2 96.4537C181.008 96.3176 180.76 95.9655 180.648 95.6694C180.512 95.3172 180.464 94.9411 180.512 94.5649C180.552 94.2528 180.688 93.8526 180.824 93.6766C180.952 93.5005 181.256 93.2604 181.496 93.1404C181.832 92.9643 182.664 92.8763 185.352 92.7082C187.232 92.5962 188.808 92.4601 188.848 92.4201C188.896 92.3801 188.896 91.8279 188.848 91.2036C188.776 90.0992 188.768 90.0592 188.456 90.0432C188.288 90.0352 186.632 90.1232 184.784 90.2512ZM189.88 94.2048C189.88 94.5089 189.92 94.9091 189.968 95.0931C190.024 95.3412 190.352 95.6533 191.152 96.2056C191.768 96.6297 192.336 96.9739 192.424 96.9739C192.536 96.9739 192.552 96.8458 192.488 96.5017C192.432 96.2376 192.392 95.6934 192.392 95.2932V94.5649C190.864 93.9967 190.304 93.7966 190.152 93.7486C189.896 93.6686 189.88 93.7006 189.88 94.2048ZM17.6879 100.535C17.4159 100.599 16.9679 100.815 16.7039 100.999C16.4399 101.192 16.2239 101.376 16.2239 101.408C16.2239 101.448 16.1119 101.6 15.9759 101.76L15.7279 102.04C14.8879 101.544 14.5919 101.472 13.9839 101.48C13.4479 101.488 13.0479 101.576 12.7199 101.752C12.4559 101.896 12.0399 102.2 11.8079 102.44C11.5679 102.672 11.2559 103.128 11.1199 103.44C10.8879 103.969 10.8799 104.185 10.9599 106.354C11.0079 107.642 11.0879 108.746 11.1359 108.794C11.1839 108.851 13.5759 108.762 16.4399 108.61C19.3119 108.45 21.7119 108.274 21.7679 108.218C21.8319 108.154 21.8079 106.962 21.7279 105.553C21.6399 104.001 21.5119 102.824 21.4079 102.552C21.3039 102.304 21.0799 101.904 20.8959 101.664C20.7199 101.416 20.2959 101.071 19.9519 100.879C19.6159 100.695 19.0799 100.511 18.7679 100.479C18.4559 100.439 17.9679 100.463 17.6879 100.535Z" fill="white"/>
<path d="M17.9196 102.97C17.7676 103.058 17.5516 103.274 17.4476 103.442C17.2876 103.698 17.2716 103.986 17.3436 104.946L17.4396 106.131C18.3196 106.011 18.7756 105.971 19.0236 105.979H19.4636C19.3596 104.154 19.2716 103.522 19.2076 103.394C19.1436 103.258 18.9276 103.074 18.7356 102.978C18.5436 102.882 18.3436 102.81 18.2956 102.81C18.2396 102.81 18.0716 102.882 17.9196 102.97ZM13.7596 103.97C13.6236 104.042 13.4316 104.202 13.3436 104.314C13.2476 104.434 13.1836 104.898 13.1836 105.467V106.419C13.8236 106.267 14.2956 106.227 14.6476 106.227H15.2796C15.2156 105.098 15.1516 104.626 15.0876 104.45C15.0236 104.282 14.8236 104.066 14.6476 103.978C14.4716 103.89 14.2556 103.826 14.1756 103.826C14.0876 103.826 13.8956 103.89 13.7596 103.97Z" fill="#000100"/>
<path d="M186.76 105.274C186.712 105.763 186.648 106.379 186.616 106.643C186.56 107.107 186.552 107.115 186.08 107.059C185.816 107.027 183.968 106.835 181.968 106.643C179.968 106.451 178.296 106.323 178.256 106.355C178.216 106.387 178.136 106.931 178.064 107.563C178 108.188 177.96 108.716 177.968 108.732C177.984 108.748 179.848 108.94 182.12 109.164C184.384 109.38 186.272 109.58 186.304 109.612C186.336 109.644 186.304 110.252 186.224 110.957C186.144 111.669 186.088 112.261 186.096 112.277C186.104 112.293 186.624 112.357 187.256 112.429C187.88 112.501 188.408 112.549 188.416 112.533C188.424 112.517 188.6 110.765 188.808 108.636C189.008 106.515 189.144 104.73 189.104 104.682C189.064 104.634 188.536 104.546 187.936 104.49L186.848 104.394" fill="white"/>
<path d="M117 107.434L116.112 108.33L116.168 113.9C113.464 116.605 112.64 117.35 112.584 117.294C112.528 117.238 112.488 116.029 112.488 114.597L112.496 111.996L110.712 113.772L110.72 119.35L100 130.067L89.2802 119.35L89.2882 113.9L87.5042 112.124C87.5122 116.053 87.4722 117.238 87.4162 117.294C87.3602 117.35 86.5362 116.605 85.5762 115.645L83.8322 113.9V108.45L82.0562 106.673V114.661L87.5042 120.111V148.45L81.9922 148.514V150.29L89.2802 150.355V121.887L98.7282 131.331L93.9762 136.085C98.5442 140.655 99.9282 141.983 100 141.983C100.072 141.983 101.456 140.655 103.072 139.038L106.024 136.085L101.272 131.331C108.336 124.256 110.464 122.2 110.552 122.2C110.688 122.2 110.72 124.937 110.72 136.277V150.355H117.944V148.45H112.496V120.111L117.944 114.661L117.88 106.545" fill="#F6B4CD"/>
<path d="M18.8948 114.805C18.7188 114.845 17.1508 115.214 15.4068 115.63C13.6628 116.046 12.2228 116.398 12.1988 116.414C12.1748 116.422 12.2788 116.95 12.4228 117.574C12.5668 118.207 12.6948 118.735 12.7108 118.751C12.7348 118.775 14.1988 118.439 15.9748 118.023C17.7588 117.598 19.4388 117.254 19.7188 117.254C20.0388 117.254 20.3908 117.358 20.6708 117.542C20.9188 117.702 21.2148 118.031 21.3348 118.279C21.4548 118.519 21.5588 118.975 21.5588 119.287C21.5588 119.639 21.4628 120.023 21.3028 120.271C21.1588 120.512 20.8228 120.784 20.5108 120.92C20.2148 121.056 18.5748 121.488 16.8628 121.888C15.1588 122.288 13.7268 122.64 13.6948 122.672C13.6628 122.696 13.7428 123.217 13.8868 123.817C14.0228 124.417 14.1988 124.929 14.2628 124.953C14.3348 124.985 15.8788 124.657 17.6868 124.225C19.5028 123.793 21.2708 123.313 21.6228 123.153C21.9748 122.993 22.5188 122.584 22.8388 122.248C23.1828 121.88 23.5268 121.344 23.6948 120.904C23.8628 120.464 23.9668 119.887 23.9668 119.447C23.9668 119.047 23.8788 118.407 23.7748 118.023C23.6547 117.604 23.4912 117.199 23.2868 116.814C23.1188 116.534 22.7508 116.094 22.4628 115.83C22.1748 115.574 21.6708 115.238 21.3348 115.093C21.0068 114.949 20.3908 114.813 19.9748 114.789C19.5588 114.765 19.0708 114.773 18.8948 114.805ZM176.871 116.086C176.847 116.142 176.559 117.206 176.239 118.463C175.919 119.719 175.655 121.032 175.655 121.384C175.655 121.728 175.727 122.232 175.807 122.504C175.895 122.776 176.167 123.233 176.407 123.505C176.655 123.785 177.079 124.129 177.359 124.265C177.639 124.401 178.127 124.545 178.439 124.577C178.751 124.617 179.239 124.577 179.519 124.489C179.799 124.401 180.199 124.193 180.407 124.033L180.783 123.737C181.519 124.473 181.919 124.697 182.367 124.825C182.807 124.953 183.271 124.993 183.607 124.945C183.903 124.905 184.359 124.761 184.623 124.625C184.887 124.497 185.311 124.153 185.575 123.865C185.831 123.577 186.111 123.185 186.183 123.001C186.255 122.808 186.543 121.736 186.823 120.616C187.095 119.503 187.303 118.583 187.287 118.583C187.271 118.575 184.959 117.991 182.151 117.278C179.343 116.574 177.015 115.99 176.983 115.99C176.959 115.99 176.903 116.038 176.871 116.086Z" fill="white"/>
<path d="M178.2 119.984C178.056 120.576 177.928 121.161 177.928 121.289C177.928 121.409 178.04 121.665 178.184 121.857C178.384 122.129 178.544 122.209 178.912 122.209C179.248 122.209 179.472 122.129 179.656 121.921C179.808 121.761 180.048 121.16 180.208 120.56C180.36 119.96 180.44 119.448 180.384 119.4C180.328 119.36 179.896 119.232 179.424 119.12C178.952 119 178.544 118.912 178.52 118.912C178.488 118.912 178.344 119.392 178.2 119.984ZM182.32 120.744C182.176 121.345 182.152 121.657 182.248 121.889C182.312 122.065 182.504 122.297 182.656 122.401C182.832 122.529 183.088 122.577 183.32 122.529C183.536 122.497 183.8 122.361 183.928 122.241C184.048 122.113 184.232 121.673 184.344 121.257C184.448 120.832 184.52 120.48 184.504 120.464C184.48 120.448 184.04 120.32 183.512 120.176C182.992 120.04 182.552 119.928 182.544 119.928C182.536 119.92 182.432 120.296 182.32 120.744Z" fill="#000100"/>
<path d="M24.5997 126.289C24.0797 126.505 23.6397 126.689 23.6237 126.697C23.6077 126.697 23.9597 127.618 24.4157 128.73C24.8717 129.851 25.1997 130.803 25.1437 130.843C25.0877 130.891 23.3917 131.595 21.3677 132.412C19.3437 133.228 17.6477 133.932 17.5917 133.98C17.5357 134.02 17.6877 134.541 17.9197 135.133C18.2077 135.845 18.4157 136.205 18.5277 136.173C18.6237 136.157 20.8557 135.269 23.4877 134.212C26.1197 133.148 28.2797 132.228 28.2797 132.156C28.2797 132.084 27.7277 130.643 27.0477 128.954C26.3677 127.266 25.7517 125.889 25.6797 125.889C25.6077 125.897 25.1277 126.081 24.5997 126.289ZM174.568 129.739C174.296 129.827 173.808 130.027 173.496 130.195C173.184 130.355 172.648 130.747 172.304 131.067C171.968 131.387 171.544 131.908 171.36 132.22C171.176 132.532 170.928 133.116 170.808 133.516C170.68 133.924 170.576 134.605 170.576 135.045C170.576 135.477 170.664 136.149 170.784 136.533C170.896 136.917 171.096 137.446 171.224 137.702C171.36 137.966 171.704 138.446 172 138.766C172.304 139.086 172.768 139.51 173.048 139.695C173.328 139.887 173.816 140.143 174.128 140.263C174.44 140.383 175.04 140.535 175.456 140.591C175.896 140.655 176.544 140.647 176.984 140.575C177.4 140.511 178.144 140.263 178.632 140.031C179.256 139.727 179.72 139.382 180.192 138.862C180.568 138.454 181.016 137.806 181.192 137.422C181.376 137.038 181.576 136.349 181.656 135.901C181.752 135.285 181.752 134.853 181.64 134.22C181.552 133.748 181.328 133.036 181.136 132.636C180.944 132.228 180.472 131.587 180.088 131.195C179.704 130.803 179.136 130.355 178.824 130.195C178.504 130.035 177.992 129.827 177.68 129.731C177.368 129.635 176.648 129.563 176.096 129.571C175.536 129.571 174.848 129.651 174.568 129.739Z" fill="white"/>
<path d="M175.064 132.124C174.848 132.213 174.48 132.421 174.24 132.581C174.008 132.741 173.68 133.053 173.528 133.277C173.376 133.501 173.184 133.877 173.112 134.125C173.048 134.365 172.984 134.766 172.984 135.014C172.984 135.254 173.064 135.71 173.168 136.022C173.272 136.342 173.576 136.822 173.84 137.102C174.104 137.383 174.544 137.719 174.824 137.855C175.104 137.983 175.56 138.119 175.84 138.151C176.12 138.183 176.664 138.143 177.048 138.047C177.608 137.919 177.864 137.759 178.384 137.238C178.856 136.766 179.072 136.43 179.192 135.958C179.296 135.582 179.336 135.11 179.28 134.79C179.24 134.493 179.096 134.037 178.96 133.773C178.832 133.509 178.56 133.133 178.36 132.933C178.095 132.693 177.802 132.486 177.488 132.317C177.2 132.173 176.656 132.036 176.224 132.012C175.8 131.988 175.28 132.044 175.064 132.124ZM98.2242 134.373L96.5762 136.03L100 139.447L103.424 136.022C100.872 133.469 100.072 132.725 100 132.725C99.9282 132.725 99.1282 133.469 98.2242 134.373Z" fill="#000100"/>
<path d="M28.1209 138.279C28.0889 138.327 28.1049 138.887 28.1449 139.511L28.2169 140.656C29.5209 140.8 29.8889 140.936 30.2489 141.184C30.5289 141.384 30.9449 141.832 31.1689 142.176C31.4009 142.528 31.6169 143.033 31.6649 143.313C31.7049 143.593 31.6649 144.137 31.5689 144.521C31.4809 144.905 31.2329 145.441 31.0169 145.714C30.8009 145.994 30.3129 146.378 29.9289 146.578C29.3769 146.858 29.0649 146.938 28.4409 146.93C28.0089 146.93 27.4649 146.85 27.2329 146.754C27.0089 146.666 26.6249 146.418 26.3929 146.218C26.1529 146.018 25.8249 145.569 25.6649 145.217C25.4649 144.785 25.3689 144.345 25.3689 143.857C25.3689 143.457 25.4489 142.912 25.5609 142.648C25.6649 142.384 25.7529 142.16 25.7529 142.144C25.7449 142.128 25.3049 141.872 24.7689 141.568C24.2249 141.272 23.7449 141.016 23.6889 141C23.6329 140.984 23.4729 141.24 23.3289 141.568C23.1849 141.904 23.0169 142.52 22.9449 142.936C22.8569 143.457 22.8569 143.953 22.9449 144.521C23.0249 144.969 23.2729 145.746 23.5049 146.234C23.7689 146.786 24.1849 147.378 24.6169 147.81C25.0089 148.203 25.6329 148.651 26.0649 148.859C26.4809 149.051 27.2249 149.283 27.7129 149.363C28.3929 149.475 28.7929 149.475 29.4249 149.363C29.8809 149.275 30.5609 149.059 30.9449 148.883C31.3289 148.699 31.9769 148.227 32.3849 147.834C32.8169 147.418 33.2729 146.802 33.4969 146.362C33.7049 145.938 33.9369 145.201 34.0169 144.713C34.1369 144.025 34.1289 143.633 34.0169 143.001C33.9369 142.544 33.6889 141.8 33.4729 141.352C33.2249 140.832 32.8089 140.263 32.3609 139.823C31.9689 139.439 31.3289 138.975 30.9449 138.791C30.5609 138.607 29.9929 138.391 29.6809 138.319C29.3609 138.247 28.8969 138.183 28.6409 138.183C28.3769 138.183 28.1449 138.223 28.1209 138.279ZM165.601 143.033C165.153 143.673 164.281 144.921 163.665 145.81C163.049 146.69 162.553 147.442 162.569 147.49C162.577 147.53 163.017 147.85 163.537 148.195L164.489 148.827C166.361 146.082 166.961 145.281 167.025 145.281C167.097 145.281 168.625 146.29 170.417 147.522C172.217 148.755 173.769 149.763 173.873 149.771C173.969 149.779 174.329 149.379 174.665 148.891C175.001 148.403 175.273 147.978 175.281 147.946C175.281 147.906 173.313 146.522 170.897 144.865C168.489 143.209 166.497 141.856 166.465 141.856C166.433 141.856 166.041 142.384 165.601 143.033Z" fill="white"/>
<path d="M48.3931 162.743C48.1291 163.984 47.8811 165.064 47.8331 165.144C47.7851 165.232 46.8091 165.504 45.6571 165.752C44.5051 166 43.4651 166.232 43.3451 166.264C43.2171 166.296 43.1211 166.368 43.1211 166.424C43.1131 166.472 44.1291 166.745 45.3691 167.017C46.6091 167.289 47.6891 167.577 47.7611 167.649C47.8411 167.721 48.1291 168.801 48.4011 170.034C48.6731 171.29 48.9451 172.267 49.0171 172.243C49.0891 172.219 49.3611 171.178 49.6331 169.93C49.9051 168.681 50.1691 167.633 50.2171 167.593C50.2731 167.561 51.3531 167.305 52.6171 167.025C53.8811 166.745 54.9211 166.472 54.9211 166.424C54.9131 166.368 54.8171 166.304 54.6971 166.272C54.5691 166.24 53.4971 166 52.2971 165.736L50.1291 165.248C49.4011 161.911 49.1691 160.838 49.1371 160.718C49.1051 160.598 49.0331 160.494 48.9691 160.494C48.9131 160.494 48.6491 161.511 48.3931 162.743ZM150.361 162.807C150.089 164.08 149.833 165.16 149.793 165.208C149.753 165.264 148.777 165.504 147.625 165.752C146.473 166 145.433 166.232 145.305 166.264C145.185 166.296 145.089 166.368 145.081 166.424C145.081 166.472 146.097 166.737 147.337 167.009C148.577 167.281 149.649 167.553 149.713 167.601C149.785 167.657 150.073 168.729 150.353 169.994C150.633 171.258 150.913 172.267 150.985 172.243C151.057 172.219 151.329 171.178 151.601 169.93C151.873 168.681 152.137 167.633 152.193 167.593C152.249 167.561 153.329 167.305 154.585 167.025C155.849 166.745 156.881 166.472 156.881 166.424C156.881 166.368 156.753 166.296 156.593 166.264C156.441 166.224 155.401 165.992 154.281 165.744C153.169 165.496 152.217 165.256 152.169 165.208C152.121 165.16 151.905 164.296 151.681 163.287C151.465 162.271 151.225 161.23 151.161 160.966C151.097 160.71 151.001 160.494 150.945 160.494C150.889 160.494 150.625 161.535 150.361 162.807Z" fill="#F6B4CD"/>
<path d="M125.216 174.101C124.576 174.325 124 174.565 123.936 174.637C123.864 174.701 123.544 175.574 123.224 176.566C122.904 177.558 122.592 178.375 122.544 178.375C122.488 178.375 121.76 177.831 120.928 177.174C120.088 176.51 119.32 175.966 119.216 175.966C119.112 175.966 118.48 176.11 117.816 176.286C117.152 176.454 116.6 176.614 116.584 176.63C116.56 176.646 117.688 177.558 119.088 178.663C120.48 179.759 121.624 180.728 121.624 180.816C121.616 180.904 121.112 182.344 120.488 184.017C119.872 185.69 119.4 187.074 119.448 187.098C119.496 187.114 120.104 186.986 120.8 186.81C121.496 186.634 122.072 186.474 122.08 186.458C122.088 186.442 122.424 185.514 122.832 184.393C123.24 183.281 123.6 182.328 123.64 182.28C123.68 182.232 124.544 182.808 125.552 183.561L127.392 184.937C129.456 184.257 130 184.017 129.928 183.961C129.864 183.905 128.616 182.977 127.168 181.88C125.112 180.328 124.56 179.847 124.616 179.671C124.656 179.551 125.144 178.151 125.696 176.566C126.328 174.741 126.64 173.685 126.536 173.693C126.448 173.693 125.856 173.877 125.216 174.101ZM72.8722 174.085C72.8322 174.173 72.1682 176.494 71.4002 179.231C70.6322 181.968 70.0322 184.265 70.0722 184.329C70.1042 184.401 70.6002 184.609 71.1762 184.785C71.7522 184.969 72.2642 185.065 72.3042 185.009C72.3522 184.953 72.7442 183.617 73.1762 182.048C73.6082 180.48 74.0082 179.111 74.0642 179.007C74.1202 178.887 74.4562 179.639 75.0322 181.2C75.5122 182.504 75.9442 183.577 76.0002 183.577C76.0482 183.569 76.9202 182.913 77.9362 182.112C78.9442 181.312 79.8242 180.672 79.8882 180.688C79.9442 180.704 79.6402 182 79.1922 183.569C78.7522 185.137 78.3842 186.522 78.3842 186.65C78.3762 186.786 78.5042 186.898 78.7282 186.946C78.9202 186.986 79.4162 187.106 79.8322 187.202C80.2562 187.306 80.6322 187.338 80.6802 187.29C80.7282 187.234 81.3922 184.929 82.1682 182.176C82.9442 179.423 83.5762 177.11 83.5762 177.046C83.5762 176.974 83.1362 176.814 82.5922 176.694C82.0562 176.574 81.5522 176.47 81.4802 176.47C81.4162 176.462 80.3842 177.23 79.2002 178.175C77.1282 179.823 77.0402 179.879 76.9042 179.607C76.8322 179.455 76.3842 178.271 75.9202 176.982L75.0722 174.637C73.6562 174.165 73.1762 174.005 73.0962 173.973C73.0162 173.933 72.9202 173.989 72.8722 174.085ZM111.936 177.47L110.808 177.678C109.368 180.328 108.888 181.096 108.824 181.096C108.752 181.096 108.112 180.448 107.4 179.639L106.104 178.183C104.912 178.247 104.264 178.303 103.888 178.351L103.216 178.439C106.576 182.168 107.544 183.297 107.544 183.353C107.544 183.401 106.808 184.729 105.896 186.298C104.992 187.866 104.264 189.179 104.28 189.203C104.296 189.235 104.912 189.219 105.64 189.171L106.96 189.091C108.744 186.002 109.288 185.113 109.328 185.129C109.368 185.145 110.096 185.898 110.944 186.802L112.496 188.451C114.512 188.107 115.104 187.995 115.12 187.979C115.136 187.962 114.12 186.834 112.864 185.474C111.608 184.113 110.584 182.977 110.592 182.937C110.592 182.905 111.28 181.648 112.112 180.151C112.944 178.647 113.624 177.382 113.632 177.326C113.632 177.278 113.504 177.238 113.352 177.246C113.192 177.254 112.552 177.35 111.936 177.47ZM87.9522 183.041C87.7442 185.986 87.6162 188.419 87.6802 188.475C87.7362 188.531 88.2802 188.651 88.8882 188.731C89.4882 188.819 89.9922 188.875 90.0002 188.859C90.0082 188.843 90.1042 187.554 90.2162 185.978C90.3362 184.409 90.4242 182.969 90.4242 182.776C90.4242 182.584 90.4642 182.432 90.5202 182.424C90.5762 182.424 91.2002 183.369 91.9122 184.521C92.6322 185.674 93.2402 186.618 93.2802 186.618C93.3122 186.618 94.0802 185.73 94.9922 184.649C96.5282 182.816 96.6402 182.712 96.6322 183.097C96.6322 183.321 96.5522 184.561 96.4482 185.858C96.3522 187.146 96.2642 188.443 96.2642 188.739L96.2562 189.275H98.6722C98.7682 188.443 98.9362 186.034 99.1122 183.385C99.2962 180.736 99.4242 178.559 99.4002 178.551C99.3842 178.543 98.8802 178.503 98.2882 178.471L97.2082 178.399C94.4562 181.712 93.6322 182.68 93.5922 182.688C93.5602 182.688 92.8722 181.64 92.0722 180.352C90.6242 178.031 90.6082 178.015 90.1042 177.943C89.8322 177.903 89.3122 177.839 88.9682 177.791L88.3362 177.718" fill="white"/>
</g>
<defs>
<clipPath id="clip0_106_6640">
<rect width="200" height="200" fill="white"/>
</clipPath>
</defs>
</svg>
