<svg width="200" height="200" viewBox="0 0 200 200" fill="none" xmlns="http://www.w3.org/2000/svg">
<g clip-path="url(#clip0_106_6686)">
<path d="M199.913 119.03C199.836 118.741 199.744 118.457 199.637 118.178L199.55 117.95C199.479 117.764 199.412 117.584 199.343 117.384C199.315 117.294 199.286 117.206 199.271 117.132C199.26 117.078 199.256 117.022 199.26 116.968C199.355 115.901 199.088 115.347 198.671 114.622C198.348 114.056 197.893 113.835 197.59 113.82C197.552 113.928 197.481 114.02 197.388 114.085C197.294 114.15 197.183 114.184 197.069 114.181C197.037 114.181 197.006 114.179 196.973 114.174C196.673 114.128 196.466 113.831 196.5 113.53C196.509 113.458 196.517 113.382 196.522 113.296C196.529 113.012 196.467 112.758 196.326 112.494C195.969 111.824 193.392 109.698 192.412 109.698C191.619 109.698 190.787 110.133 190.183 110.864C190.125 110.937 190.049 110.993 189.964 111.029C189.878 111.064 189.785 111.078 189.693 111.068C189.6 111.06 189.512 111.028 189.434 110.977C189.357 110.926 189.294 110.856 189.25 110.775C189.162 110.61 189.086 110.439 189.022 110.264C188.846 109.796 188.743 109.322 188.643 108.862L188.567 108.509C188.292 107.314 187.892 106.11 186.298 105.645C186.134 105.601 185.966 105.573 185.797 105.561C185.624 105.543 185.436 105.536 185.244 105.531L185.099 105.527C184.778 105.52 184.447 105.511 184.12 105.465C183.466 105.369 183.029 105.156 183.029 104.422C183.029 104.358 183.04 104.296 183.06 104.235L183.237 103.731C183.366 103.363 183.552 102.796 183.698 102.119C183.973 100.865 183.994 99.7152 183.762 98.7022C183.741 98.6123 183.743 98.5186 183.767 98.4296C183.791 98.3405 183.837 98.2588 183.9 98.1919C183.962 98.1245 184.04 98.0733 184.126 98.0428C184.212 98.0123 184.305 98.0035 184.395 98.017C185.051 98.1161 185.584 98.1246 185.732 98.1246C189.131 98.1246 194.527 95.9027 194.527 89.9348C194.527 86.5081 191.753 83.2485 189.429 81.1172C189.354 81.0482 189.3 80.9604 189.27 80.863C189.241 80.7655 189.239 80.662 189.263 80.5632C189.287 80.4644 189.338 80.374 189.409 80.3014C189.48 80.2287 189.569 80.1765 189.667 80.1503C192.975 79.2867 194.796 77.0824 194.796 73.946V73.7364C194.797 73.2466 194.799 72.6917 194.701 72.0949C194.565 71.2618 194.256 70.4917 193.766 69.7406C193.733 69.6864 193.686 69.6423 193.63 69.6129C193.573 69.5834 193.51 69.5699 193.447 69.5736C193.376 69.5736 193.327 69.5877 193.309 69.592C193.178 69.6274 193.036 69.7152 192.94 69.7789C192.633 69.982 192.187 70.3614 191.832 70.6693C191.429 71.0155 190.944 71.2717 190.263 71.5004C189.848 71.6384 189.419 71.7531 188.96 71.8741C188.72 71.9357 188.475 72.0008 188.218 72.0737C186.643 72.5161 184.922 73.1567 183.006 74.8442C182.132 75.6172 181.525 76.9019 181.466 78.1194C181.413 79.1423 181.792 80.1977 182.631 81.3501C183.354 82.3531 184.315 83.2966 185.32 84.2558L185.677 84.5969C186.043 84.9466 186.405 85.2942 186.75 85.6389C187.186 86.0654 187.6 86.5143 187.99 86.9838C188.787 87.9656 189.161 88.7725 189.161 89.5229C189.161 91.124 188.016 92.2014 186.281 92.2014C184.364 92.1872 182.889 91.4496 180.839 90.092C180.526 89.8832 180.206 89.6673 179.876 89.4443C179.194 88.9842 178.491 88.5085 177.708 88.0187C176.286 87.131 174.975 86.4246 173.576 85.7996C173.192 85.6277 172.8 85.4723 172.403 85.3338V19H28.8631V85.4669C28.1277 85.6514 27.412 85.9069 26.726 86.23C25.7613 86.6844 24.7889 87.2662 23.5669 88.1157C23.0435 88.4804 22.5255 88.8528 22.0129 89.2326C21.5578 89.5632 21.109 89.8909 20.6624 90.2038C18.6482 91.6174 16.9224 92.5567 15.0496 92.5567C13.2009 92.5567 11.8878 91.4737 11.7069 89.7968C11.5507 88.3174 12.3048 86.8238 13.8327 85.5858L14.6758 84.9098C15.3005 84.4072 15.8892 83.9351 16.4214 83.4793C17.309 82.7162 17.9132 82.1004 18.379 81.4888C19.5281 79.9754 19.8192 78.4181 19.326 76.4404C18.8807 74.6616 17.5161 73.4512 15.1507 72.7405C14.3062 72.4843 13.4475 72.3299 12.644 72.1997L12.3648 72.1551C12.1175 72.1162 11.8927 72.0787 11.7005 72.0433C11.4412 71.9958 11.2609 71.9498 11.1549 71.9059C9.87225 71.334 7.08355 69.4653 6.52454 69.0887L6.29698 68.9351L6.14151 69.1616C5.63196 69.8942 5.22984 70.4747 4.92525 73.0208C4.58956 75.8317 6.90193 79.2619 10.8836 79.8905C10.9924 79.9075 11.0939 79.956 11.1756 80.0301C11.2572 80.1041 11.3156 80.2004 11.3433 80.3072C11.3711 80.4139 11.3671 80.5265 11.3319 80.631C11.2967 80.7356 11.2317 80.8275 11.145 80.8956C6.93302 84.2133 6.0355 85.6368 5.81359 89.365C5.67719 91.6761 6.48285 93.942 8.03055 95.5856C9.7196 97.38 12.1662 98.3278 15.1111 98.3278C15.8956 98.3278 16.7224 98.2605 17.5719 98.1282C17.6488 98.1155 17.7275 98.1193 17.8029 98.1392C17.8783 98.159 17.9486 98.1946 18.0093 98.2435C18.0709 98.2915 18.1217 98.3519 18.1585 98.4208C18.1952 98.4897 18.2171 98.5656 18.2228 98.6435C18.4192 101.237 18.8885 103.346 19.4751 104.288C19.5447 104.4 19.5733 104.532 19.556 104.663C19.5387 104.794 19.4766 104.914 19.3804 105.004C19.198 105.171 18.9118 105.335 18.55 105.474C17.651 105.827 16.2885 106.045 14.9309 106.045C14.0828 106.045 13.4525 106.627 12.945 107.879C12.7804 108.286 12.6468 108.719 12.5139 109.139L12.4765 109.257C12.4093 109.471 12.3465 109.667 12.2828 109.841C12.2242 110.003 12.1627 110.152 12.097 110.274C11.9274 110.576 11.6765 110.874 11.3288 111.182C11.2253 111.273 11.0921 111.323 10.9542 111.323C10.9224 111.323 10.8885 111.323 10.8588 111.316C10.7755 111.301 10.6965 111.268 10.6275 111.219C10.5584 111.17 10.5011 111.107 10.4595 111.033C10.0447 110.283 9.38885 109.805 8.51465 109.613L8.49557 109.612H8.40723C7.11394 109.612 4.87931 110.705 4.05599 112.761C4.01784 112.855 3.95486 112.938 3.87374 112.999C3.79262 113.061 3.69637 113.099 3.59522 113.11L3.49274 113.124C2.46094 113.231 1.81218 113.711 1.44469 114.631C1.29133 115.021 1.20016 115.457 1.12737 115.836L1.07225 116.117C1.0143 116.435 0.952107 116.754 0.871542 117.067C0.806458 117.316 0.709549 117.557 0.583202 117.782C0.517478 117.903 0.45034 118.012 0.388856 118.117C0.3408 118.197 0.29345 118.273 0.253167 118.346C0.0234852 118.767 -0.0931226 119.199 0.090623 119.935C0.174015 120.272 0.43974 120.562 0.880022 120.801C1.20511 120.979 1.62702 121.13 2.13232 121.254C3.02985 121.473 3.91889 121.542 4.08992 121.542C4.21359 121.542 4.33515 121.507 4.45529 121.438C4.54221 121.392 4.62348 121.326 4.71818 121.254C4.82066 121.177 4.95847 121.127 5.09274 121.127C5.12101 121.127 5.1514 121.13 5.17967 121.134L5.59804 121.213C5.94292 121.279 6.37189 121.365 6.79804 121.452L6.86659 121.467C7.27507 121.549 7.6779 121.628 8.0044 121.69C8.15384 121.72 8.30394 121.746 8.45458 121.768C8.58673 121.787 8.68921 121.798 8.7514 121.798H8.75493C10.533 121.711 11.285 121.02 11.7825 120.355C11.9224 120.166 12.0475 119.97 12.1712 119.762L12.3719 119.418L12.5238 119.163C12.6687 118.912 12.8136 118.684 12.9733 118.466C13.026 118.394 13.0949 118.336 13.1743 118.296C13.2538 118.255 13.3415 118.234 13.4305 118.235C13.4779 118.235 13.5281 118.242 13.5775 118.252C13.7811 118.307 13.9853 118.346 14.1585 118.377C14.5719 118.448 14.9479 118.483 15.109 118.494C15.227 118.503 15.3401 118.506 15.4532 118.506C17.1366 118.506 18.391 117.566 19.432 116.685L19.7712 116.395C19.9337 116.258 20.0885 116.12 20.244 115.991C20.4525 115.819 20.726 115.594 21.0108 115.407C21.5161 115.07 21.9429 114.914 22.3585 114.914L22.4602 114.918C22.8652 114.942 24.386 115.052 26.9669 115.463C27.0765 115.479 27.1896 115.487 27.304 115.487C27.7366 115.487 28.2595 115.376 28.8638 115.155V127.358C28.8638 135.921 29.9627 139.216 32.5917 143.796L32.7401 144.052L32.904 144.299C48.1479 167.092 73.4687 180.702 100.635 180.702C127.801 180.702 153.119 167.094 168.367 144.301L168.531 144.055L168.679 143.796C171.305 139.219 172.404 135.924 172.404 127.358V115.597C172.594 115.62 172.789 115.633 172.989 115.633C173.416 115.633 173.858 115.576 174.301 115.463C174.778 115.34 175.268 115.279 175.761 115.281C176.011 115.281 176.257 115.298 176.494 115.322C177.127 115.391 177.689 115.532 178.145 115.647L178.264 115.678C179.004 115.862 179.704 116.154 180.404 116.573C180.98 116.918 181.467 117.287 181.937 117.646L182.062 117.741C182.994 118.449 183.96 119.182 185.309 119.182C185.358 119.182 185.414 119.18 185.472 119.178C185.552 119.172 185.632 119.157 185.709 119.134C185.783 119.112 185.872 119.085 185.969 119.051C186.153 118.985 186.372 118.896 186.589 118.809C186.801 118.727 187.039 118.632 187.312 118.579C187.421 118.557 187.534 118.568 187.636 118.611C187.739 118.653 187.827 118.725 187.889 118.817C187.958 118.919 188.029 119.033 188.105 119.154C188.239 119.375 188.378 119.601 188.556 119.829C189.074 120.5 190.021 121.399 192.233 121.454C192.435 121.46 192.628 121.461 192.814 121.461C193.965 121.461 194.674 121.372 194.991 121.319C195.024 121.312 195.053 121.312 195.086 121.312C195.199 121.312 195.313 121.345 195.409 121.414C195.643 121.576 195.893 121.656 196.17 121.656C196.765 121.656 197.648 121.476 198.368 121.21C198.792 121.055 199.142 120.873 199.402 120.682C199.741 120.429 199.937 120.149 199.984 119.852C200.02 119.628 199.996 119.361 199.913 119.031" fill="white"/>
<path d="M166.99 112.571C166.02 111.254 165.372 109.513 165.12 107.539C165.109 107.457 165.08 107.378 165.036 107.309C164.992 107.239 164.933 107.18 164.863 107.135C164.793 107.09 164.715 107.062 164.633 107.051C164.551 107.04 164.467 107.047 164.389 107.071C164.182 107.136 163.972 107.189 163.76 107.231V127.358C163.76 134.744 162.903 136.484 161.184 139.483C148.04 159.132 125.825 172.044 100.632 172.044C75.4395 172.044 53.2225 159.132 40.0805 139.483C38.3624 136.484 37.5031 134.744 37.5031 127.358V107.308C37.4536 107.309 37.3999 107.313 37.3511 107.313H37.1928C37.0878 107.312 36.9847 107.341 36.8949 107.396C36.8051 107.45 36.7321 107.529 36.684 107.622C36.4345 108.127 36.1879 108.631 35.9561 109.111L35.5356 109.973C35.1483 110.759 34.7511 111.537 34.4571 111.907C34.2166 112.205 33.9351 112.468 33.6211 112.688V127.358C33.6211 135.208 34.5638 137.672 36.7137 141.418L36.7808 141.536L36.855 141.646C51.2147 163.117 75.0564 175.934 100.633 175.934C126.209 175.934 150.051 163.117 164.41 141.646L164.485 141.536L164.55 141.422C166.702 137.674 167.644 135.212 167.644 127.357V113.247C167.398 113.05 167.178 112.823 166.99 112.571ZM36.696 82.8771L36.9045 82.6846C37.0995 82.5055 37.3002 82.3236 37.5031 82.1424V27.6558H163.76V81.8493C164.149 82.1063 164.534 82.3653 164.908 82.6195C165.242 82.8488 165.574 83.0718 165.89 83.2841C166.48 83.6734 167.051 83.9276 167.643 84.1215V23.7676H33.6218V84.7274C34.2417 84.5693 34.8319 84.3116 35.3695 83.9644C35.7469 83.7194 36.1412 83.3818 36.696 82.8771Z" fill="#23326A"/>
<path d="M32.7002 84.9133V22.8429H168.566V84.3775C168.808 84.4356 169.054 84.4901 169.31 84.5431L169.575 84.5991C169.945 84.6755 170.329 84.7597 170.721 84.8518V20.6875H30.5469V85.1583C30.8755 85.1172 31.1985 85.0854 31.5158 85.0542C31.9117 85.0172 32.3066 84.9697 32.7002 84.9133ZM168.68 113.939C168.642 113.915 168.605 113.891 168.567 113.868V127.357C168.567 135.437 167.586 137.987 165.351 141.881L165.27 142.025L165.177 142.161C150.646 163.886 126.518 176.856 100.634 176.856C74.7504 176.856 50.6204 163.886 36.0903 142.161L35.9978 142.022L35.9165 141.881C33.6797 137.983 32.7002 135.433 32.7002 127.357V113.217C32.5448 113.291 32.3921 113.361 32.2493 113.428L32.1829 113.459C31.985 113.543 31.793 113.642 31.6084 113.752C31.2479 113.976 30.8918 114.184 30.5469 114.373V127.357C30.5469 135.915 31.6684 138.806 34.0493 142.956L34.1681 143.164L34.3002 143.362C49.2324 165.687 74.0296 179.016 100.634 179.016C127.239 179.016 152.035 165.687 166.967 143.362L167.098 143.164L167.218 142.956C169.598 138.809 170.721 135.917 170.721 127.357V115.104C170.116 114.831 169.573 114.494 169.089 114.191C168.955 114.103 168.816 114.022 168.68 113.939Z" fill="#23326A"/>
<path d="M131.529 104.514C131.36 105.535 132.671 107.142 133.047 107.866C133.23 107.497 134.329 104.982 134.495 104.676C133.958 104.644 132.498 104.634 131.529 104.514ZM68.3364 107.117C68.8573 106.187 69.4354 106.041 69.8205 105.565C70.041 104.929 70.3506 104.561 70.7838 104.016C69.7357 104.175 67.7428 104.554 66.9004 104.709C67.0926 105.311 67.2764 106.704 68.3364 107.117Z" fill="#FABB23"/>
<path d="M133.156 113.986C133.095 113.778 133.039 113.568 132.989 113.356C132.961 113.235 132.893 113.127 132.797 113.048C132.701 112.969 132.582 112.924 132.457 112.92H132.437C132.316 112.92 132.199 112.959 132.102 113.03C132.005 113.102 131.934 113.204 131.899 113.32C131.623 114.22 130.857 115.749 128.807 115.874C128.758 115.877 128.709 115.879 128.657 115.879C127.743 115.879 126.544 115.421 125.751 115.118L125.387 114.977C124.995 114.824 124.601 114.677 124.205 114.536C123.661 114.353 123.267 114.257 122.961 114.231C122.881 114.224 122.801 114.221 122.721 114.222C122.604 114.222 122.48 114.229 122.351 114.238C122.118 114.255 121.874 114.281 121.617 114.308C121.115 114.364 120.562 114.426 120.008 114.426H119.882C118.695 114.402 117.766 114.066 117.045 113.403C116.941 113.306 116.804 113.251 116.662 113.251C116.586 113.252 116.511 113.268 116.441 113.298C116.371 113.329 116.308 113.373 116.256 113.428C114.441 115.311 112.207 116.268 109.604 116.268H109.37C108.83 116.254 107.869 115.957 107.467 115.439C107.389 115.346 107.336 115.236 107.31 115.117C107.284 114.999 107.287 114.876 107.318 114.759C107.337 114.677 107.338 114.592 107.32 114.509C107.302 114.427 107.266 114.35 107.214 114.283C107.163 114.216 107.097 114.162 107.022 114.124C106.947 114.086 106.864 114.065 106.78 114.063C105.307 114.039 104.433 113.334 104.221 112.65C104.057 112.114 104.281 111.594 104.855 111.181L104.997 111.083C105.202 110.939 105.443 110.773 105.764 110.507C106.244 110.112 106.797 109.58 107.458 108.886C108.822 107.459 109.847 105.718 110.681 103.418C111.393 101.455 111.877 99.3099 112.342 97.2387L112.412 96.928C113.38 92.6618 114.472 87.8215 117.957 84.0112C120.532 81.1933 122.503 79.6409 127.942 75.7662C128.868 75.1065 129.804 74.3186 130.722 73.5372C126.607 67.8995 121.01 63.5178 114.554 60.8809C117.502 64.2922 119.122 68.6541 119.116 73.1656C119.116 83.5568 110.706 91.9816 100.33 91.9816C89.9557 91.9816 81.5458 83.5568 81.5458 73.1656C81.5401 68.7153 83.1158 64.4082 85.9911 61.0153C80.0293 63.5147 74.8109 67.5103 70.8391 72.617C71.8123 73.3064 72.7501 74.0305 73.8943 74.972C74.6674 75.609 75.5105 76.3261 76.502 77.1691C77.1988 77.7616 77.9713 78.4185 78.8455 79.1561C79.3614 79.6608 80.0165 80.409 80.813 81.4212C81.0766 81.7539 81.3345 82.0866 81.5833 82.4079C81.9458 82.8751 82.2829 83.3161 82.5868 83.6856C85.0243 86.6755 86.5275 88.666 86.8766 91.1251C87.548 95.9101 87.9882 98.6325 89.8624 103.435C89.8978 103.524 89.9706 103.641 90.0766 103.774C90.1769 103.907 90.3041 104.047 90.4405 104.186L90.866 104.634C91.0123 104.788 91.1543 104.946 91.2723 105.092C91.5741 105.489 91.8328 105.942 92.0441 106.338L92.2405 106.71C92.4101 107.029 92.5847 107.356 92.772 107.679C93.2052 108.42 93.837 109.35 94.9006 109.952C96.0208 110.58 96.2448 110.711 96.6285 111.071C96.8073 111.24 96.8935 111.437 96.8914 111.672C96.8858 112.021 96.6829 112.425 96.3706 112.7C96.0285 113.006 95.5579 113.213 94.9784 113.317C94.9015 113.33 94.8283 113.36 94.7634 113.403C94.6984 113.447 94.6432 113.503 94.6012 113.569C94.5592 113.635 94.5314 113.709 94.5194 113.786C94.5074 113.863 94.5116 113.942 94.5317 114.018C94.6306 114.397 94.5564 114.782 94.3176 115.101C93.9607 115.58 93.2999 115.86 92.4617 115.888C92.3395 115.891 92.2193 115.891 92.1013 115.891C88.5699 115.891 86.1748 114.228 85.0596 113.238C84.9568 113.145 84.8235 113.093 84.6851 113.092C84.5659 113.092 84.4499 113.13 84.3543 113.201L84.2045 113.31C83.7946 113.604 83.1819 114.049 82.3875 114.376C81.8413 114.637 81.2356 114.753 80.4526 114.753C80.172 114.753 79.8978 114.737 79.6398 114.72C79.4561 114.71 79.2723 114.694 79.0907 114.68C78.8212 114.657 78.5515 114.638 78.2815 114.621C78.1389 114.615 77.9961 114.612 77.8533 114.611C77.5522 114.611 77.2957 114.631 77.0716 114.672C76.4356 114.786 75.7564 115.014 75.0349 115.253L74.5564 115.413C73.7169 115.684 72.7458 115.981 71.8695 116.018C71.7974 116.019 71.7282 116.021 71.6589 116.021C70.3784 116.021 69.4723 115.536 68.9656 114.579C68.8571 114.369 68.769 114.15 68.7027 113.923C68.6708 113.815 68.607 113.72 68.5197 113.648C68.4325 113.577 68.3258 113.534 68.2137 113.525C68.1953 113.521 68.1766 113.519 68.1579 113.519C68.0549 113.519 67.9539 113.547 67.866 113.601C67.7782 113.655 67.707 113.732 67.6603 113.824C67.649 113.847 67.637 113.867 67.625 113.889C74.0229 125.436 86.3162 133.251 100.435 133.251C114.498 133.251 126.749 125.495 133.168 114.023L133.156 113.986Z" fill="#FABB23"/>
<path d="M59.3086 40.3406C59.3086 35.85 55.7793 32.2109 51.4252 32.2109C51.2924 32.2109 50.6832 32.2124 50.5524 32.2201H41.3828V59.7434H46.9489V36.9684L50.2676 36.9379C52.3242 36.9379 53.8853 38.5511 53.8853 40.5409C53.8853 42.5299 52.2174 44.141 50.1637 44.141L48.8704 44.1707V50.7261L54.4316 59.7434H60.992L53.3022 48.2409C56.751 47.3716 59.3086 44.1637 59.3086 40.3406Z" fill="#ED1E36"/>
<path d="M65.4137 49.1492C65.4137 47.2954 66.8823 45.7912 68.6943 45.7912C70.5049 45.7912 71.9734 47.2954 71.9734 49.1492H65.4137ZM68.6462 41.9433C63.7466 41.9433 59.7734 46.0602 59.7734 51.1397C59.7734 56.2199 63.748 60.3438 68.6491 60.3438C72.3876 60.3438 75.3063 58.6096 76.8109 55.8957L72.4519 53.8359C71.8971 55.0647 70.6003 55.9276 69.0879 55.9276C67.0695 55.9276 65.4349 54.3916 65.4349 52.4988C65.4349 52.377 65.3854 52.4266 65.3996 52.3077L77.2604 52.3133C77.2967 51.9294 77.3137 51.5438 77.3112 51.1581C77.3925 45.2072 73.5473 41.9433 68.6462 41.9433ZM84.4427 51.3188C84.4427 48.939 86.2264 47.0101 88.4243 47.0101C90.6236 47.0101 92.4052 48.9383 92.4052 51.3188C92.4052 53.6986 90.6236 55.6275 88.4243 55.6275C86.2264 55.6275 84.4427 53.6986 84.4427 51.3188ZM97.7473 54.5289L97.7416 31.3242H92.3134L92.3346 44.6466C90.8971 43.2366 88.9784 42.3843 86.8858 42.3843C82.4066 42.3843 78.7756 46.3115 78.7756 51.1581C78.7756 56.0019 82.4066 59.9305 86.8851 59.9305C86.9183 59.9305 86.9501 59.9276 86.9826 59.9269C89.8801 56.9902 93.6638 55.0928 97.7473 54.5289ZM154.648 59.7832H159.88V31.5359H154.648V59.7832ZM137.012 52.7961C137.012 54.4482 135.64 55.7874 133.945 55.7874C132.252 55.7874 130.878 54.4489 130.878 52.7961V42.8735H125.549V53.8508C125.549 57.5684 129.3 60.581 133.927 60.581C138.553 60.581 142.303 57.5684 142.303 53.8508V42.8742H137.012V52.7961ZM114.773 54.9401H109.767V37.0104H113.26C114.794 37.0104 116.038 38.3213 116.038 39.9401C116.038 41.5569 114.794 42.8692 113.26 42.8692H111.444V47.8404H114.773C116.633 47.8404 118.038 49.4225 118.038 51.3825C117.971 53.4098 116.795 54.8085 114.773 54.9401ZM119.155 44.6905C120.585 43.2826 121.459 41.3948 121.459 39.3194C121.459 37.4379 120.775 35.7122 119.578 34.3545C118.33 32.9041 116.12 32.2614 113.135 32.2614H104.191V54.7469C107.715 55.4869 110.951 57.2278 113.513 59.7613H115.742C120.168 59.6855 123.73 56.1378 123.73 51.8122C123.73 48.6629 122.682 46.4191 119.154 44.6912M145.805 59.7832H151.035V31.5359H145.805V59.7832Z" fill="#ED1E36"/>
<path d="M86.2129 83.3141C91.6885 87.2781 99.4108 87.9059 105.446 84.6569C108.684 82.9813 111.354 80.383 113.119 77.1897C114.885 73.9963 115.667 70.3509 115.367 66.713C115.253 65.6172 115.079 64.5519 114.792 63.5156C116.697 66.3721 117.712 69.7308 117.708 73.1657C117.708 82.7755 109.928 90.5696 100.329 90.5696C94.5147 90.5696 89.367 87.7084 86.2129 83.3141Z" fill="#C6CCD2"/>
<path d="M95.2073 77.5126C91.1465 76.5301 88.3705 75.5462 88.3705 75.5462C87.933 71.3445 88.3041 67.6856 88.3041 67.6856C90.061 66.7689 94.8327 64.6334 94.8327 64.6334C97.1012 67.2113 99.2673 70.6656 99.2673 70.6656C98.2171 72.7 95.2073 77.5126 95.2073 77.5126ZM88.5104 60.4075C87.5154 62.0424 86.6209 63.7366 85.832 65.4806C85.0315 66.4951 84.2707 67.5405 83.5514 68.6143C84.4043 65.4675 86.1226 62.6239 88.5104 60.4075ZM106.744 70.5311C106.744 70.5311 108.265 67.3479 110.093 64.77C110.093 64.77 113.613 66.4299 115.27 67.7875C115.27 67.7875 115.878 69.6831 115.472 75.2412C115.472 75.2412 113.373 76.4615 110.33 77.2076C110.33 77.2076 108.265 73.7179 106.743 70.5311M98.861 83.5775L106.372 83.3743L107.826 87.4749C104.985 89.1688 101.567 90.0515 101.567 90.0515C97.9818 89.2693 95.9175 87.712 95.9175 87.712L98.861 83.5775ZM100.331 55.7598C102.623 55.7598 104.811 56.2057 106.813 57.0127C106.744 57.3333 106.501 58.2521 105.797 59.4165C102.176 58.9423 98.1507 59.3153 98.1507 59.3153L94.8044 56.658C96.5855 56.0614 98.4514 55.7581 100.33 55.7598M89.1959 86.5285C86.2637 84.0797 84.2188 80.7314 83.3776 77.0016C84.3062 77.9657 86.1048 79.816 86.1048 79.816C87.1875 82.0549 89.8942 85.9502 89.8942 85.9502C89.6998 86.1661 89.3938 86.3933 89.1959 86.5285ZM44.8242 138.242L46.5013 140.274L52.1677 135.578C53.8935 134.147 57.2348 131.103 58.7889 129.631L58.8341 129.687C54.9783 133.896 51.7839 138.298 48.2673 142.414L49.8539 144.335L69.4065 128.135L67.7302 126.103L62.061 130.802C60.3366 132.229 56.9938 135.277 55.4412 136.746L55.3945 136.691C59.2511 132.482 62.4433 128.081 65.9613 123.964L64.3769 122.044L44.8242 138.242ZM78.338 135.498L74.1599 132.299C73.8856 132.088 73.5726 131.934 73.2387 131.845C72.9048 131.756 72.5566 131.733 72.214 131.779C71.8715 131.825 71.5414 131.938 71.2427 132.112C70.9439 132.286 70.6823 132.517 70.473 132.793L58.2546 148.799C58.0441 149.074 57.8898 149.387 57.8005 149.721C57.7113 150.056 57.6888 150.404 57.7345 150.748C57.7801 151.091 57.8929 151.421 58.0665 151.72C58.24 152.02 58.4709 152.282 58.7458 152.491L62.9253 155.69L64.5224 153.599L60.3444 150.4L65.6546 143.439L68.7882 145.841L70.3853 143.75L67.2518 141.348L72.5613 134.392L76.7408 137.593L78.338 135.498ZM72.3846 161.202L74.6673 162.098C76.75 158.826 79.0511 155.675 81.3988 150.747L81.4659 150.773C79.8461 155.987 79.3981 159.864 78.7055 163.682L80.9882 164.579L91.0419 141.227L88.5606 140.252C86.8666 144.481 85.0942 148.716 83.4334 152.96C82.8383 154.484 82.3069 156.036 81.709 157.56L81.6447 157.535C82.7451 153.454 83.1401 150.589 83.7938 147.749L81.7429 146.943C80.2949 149.473 78.6412 151.844 76.6807 155.586L76.6157 155.559C77.2108 154.037 77.8744 152.538 78.4716 151.013C80.1309 146.771 81.7041 142.457 83.3309 138.201L80.8497 137.226L72.3846 161.202ZM105.775 167.052L108.392 166.762L107.152 155.476C107.929 155.066 108.51 154.501 108.901 153.814C109.287 153.098 109.446 152.281 109.358 151.472L108.232 141.211L105.617 141.497L106.864 152.856L104.249 153.145L103.002 141.784L100.388 142.075L101.515 152.336C101.606 153.145 101.938 153.907 102.47 154.522C102.999 155.109 103.69 155.534 104.537 155.762L105.775 167.053V167.052ZM125.067 159.536L122.615 160.494L115.317 141.719L117.766 140.762L125.067 159.536H125.067ZM119.764 160.421C120.552 162.442 122.852 163.455 124.874 162.667C126.892 161.879 127.905 159.576 127.116 157.553L120.618 140.834C119.829 138.809 117.53 137.796 115.51 138.588C113.49 139.373 112.477 141.677 113.266 143.702L119.764 160.421ZM126.24 136.017L128.36 134.457L133.533 141.516L131.413 143.076L126.24 136.016V136.017ZM137.579 155.942L139.699 154.383L132.969 145.198L135.088 143.64L140.705 151.303C141.084 151.818 141.732 152.224 142.278 152.486L144.455 150.887C143.789 150.579 143.244 150.316 142.826 149.743L137.82 142.914C136.894 141.651 136.149 141.535 135.486 141.715C135.792 141.048 135.949 140.36 135.232 139.383L130.48 132.896C130.276 132.617 130.019 132.381 129.724 132.201C129.428 132.022 129.1 131.903 128.759 131.85C128.418 131.798 128.069 131.814 127.734 131.896C127.398 131.979 127.083 132.127 126.804 132.333L122.564 135.45L137.579 155.942ZM137.156 121.827L135.395 123.879C135.395 123.879 135.78 124.995 136.63 125.73L141.464 129.89C141.464 129.89 143.373 131.362 141.586 133.446L133.299 126.312L131.591 128.302L150.833 144.87L152.532 142.887L143.63 135.222C143.63 135.222 145.337 133.224 146.996 134.654C148.416 135.875 152.71 139.576 152.71 139.576C152.71 139.576 153.62 140.447 154.622 140.461L156.382 138.409C156.382 138.409 155.274 138.315 154.077 137.288L149.319 133.19C149.319 133.19 146.161 130.168 143.333 133.462C143.333 133.462 145.785 130.147 142.219 127.077C140.813 125.866 139.407 124.655 137.999 123.446C137.999 123.446 137.328 122.765 137.156 121.826" fill="#23326A"/>
<path d="M53.3558 111.159C54.013 111.881 53.9791 112.996 54.7331 113.554C55.7155 113.72 56.5989 113.326 57.3536 112.735C57.7805 112.376 57.1565 111.916 57.0914 111.488C56.666 110.864 56.9593 109.618 55.9112 109.586C54.8639 109.749 53.8158 109.784 52.7671 109.784L52.4724 109.98C52.2766 110.603 53.1932 110.603 53.3558 111.159ZM3.66743 114.639C3.14305 114.9 2.58616 115.393 2.45542 115.984C2.28863 117.034 2.52114 118.019 1.70065 118.773C1.66884 118.969 1.47096 119.198 1.66884 119.396C2.38969 119.625 3.07732 119.92 3.96213 120.02C4.35365 118.738 4.64906 117.33 5.10842 116.214V115.884C4.71407 115.393 4.32185 114.769 3.66743 114.639Z" fill="#ED1E36"/>
<path d="M84.8577 100.485L84.7588 100.765C84.7538 100.784 84.6726 101.05 84.6726 101.05C84.5765 101.308 84.4266 101.452 84.2026 101.505C84.1429 101.525 84.0793 101.531 84.0171 101.521C83.955 101.512 83.8959 101.487 83.845 101.45C83.7946 101.411 83.754 101.36 83.7265 101.303C83.699 101.245 83.6854 101.182 83.6867 101.118L83.6676 100.824L83.5666 99.8137C83.4853 99.343 83.3475 98.982 83.1305 98.6776L82.6888 98.1623C82.6733 98.1425 82.1885 97.5939 82.1885 97.5939C81.804 97.2088 81.4577 97.0248 81.0973 97.0128C80.816 97.1005 80.5616 97.2867 80.2902 97.5854L79.9397 98.0137L79.6344 98.4256C79.5235 98.6189 79.2726 98.5106 79.2705 98.5091L79.2266 98.4865L79.2083 98.4405C79.1358 98.2605 79.0988 98.0682 79.0994 97.8742C79.0994 97.5592 79.1948 97.2782 79.2902 97.0481L79.5567 96.5017L79.862 95.8554L79.903 95.796C79.9948 95.7068 80.0832 95.5496 80.1842 95.2842L80.2648 95.0612L80.4436 94.6025C80.715 94.0193 81.1178 93.8628 81.71 94.1141C82.1694 94.3612 82.4521 94.7498 82.6655 95.098L82.8104 95.3408L82.9977 95.6487L83.3849 96.1421C84.4415 97.3292 84.9538 98.4497 84.9538 99.6084C84.9538 99.8965 84.922 100.19 84.8577 100.486M80.8443 109.425C80.8443 109.425 80.8302 109.435 80.8372 109.442C80.8281 109.437 80.8054 109.443 80.8054 109.443C80.1977 109.635 79.5107 109.715 78.763 109.678L78.7206 109.67C78.722 109.671 78.5856 109.61 78.5856 109.61L78.4408 109.52C78.368 109.461 78.2584 109.335 78.3213 109.15C78.604 108.294 79.4485 107.316 80.5122 107.097C80.539 107.094 80.604 107.094 80.604 107.094H80.7524L80.9906 107.126C81.0845 107.151 81.1691 107.203 81.2336 107.276C81.2981 107.348 81.3397 107.439 81.3531 107.535C81.3687 107.692 81.3835 107.866 81.3835 108.046C81.3835 108.551 81.2775 109.1 80.8443 109.425ZM68.2796 87.7661L68.2705 87.7987L68.2478 87.8228C68.1538 87.9134 67.9885 87.9827 67.8238 87.8709L67.7793 87.8412C67.7736 87.8157 67.7694 87.7874 67.7694 87.7874C67.515 86.48 67.2231 85.0947 66.6945 83.8079C66.6945 83.8093 66.3906 83.2883 66.3906 83.2883L66.2726 83.1241L66.0132 82.7475C65.8061 82.4162 65.6054 81.9689 65.8818 81.4373L65.9122 81.3969C66.151 81.1584 66.5715 81.1386 66.8592 81.2469L66.8966 81.2667C67.4549 81.6518 67.8153 82.2902 68.0782 82.756C68.4083 83.5276 68.5779 84.4952 68.5779 85.4947C68.5779 86.2577 68.4811 87.0385 68.2796 87.7661ZM94.0697 110.897C92.1051 109.748 91.3213 107.584 90.1079 105.876C89.6839 105.252 88.9298 104.858 88.5355 104.235C87.1277 100.395 85.9157 96.5576 85.5553 92.1612C85.2606 91.0789 85.0323 89.9647 84.4408 88.9468C82.6726 86.0588 80.3814 83.4327 78.1524 80.7762C77.9553 80.5801 77.9546 80.5617 77.5305 80.1525L69.7666 73.6899C68.816 72.9679 67.7355 72.5078 66.6542 72.0165C65.0167 71.3922 62.7885 71.5246 61.1857 72.2147C59.5143 73.0988 58.0069 74.38 56.2372 74.9697C53.6853 76.1178 50.8026 76.3471 48.6062 78.3171C47.3291 79.4334 46.2486 81.1704 44.3475 80.8752C42.2189 80.7761 40.3199 81.564 38.7143 82.8756C37.2712 84.1894 35.8987 85.7304 34.0295 86.0921C32.392 86.7808 30.3941 86.4517 28.7235 87.076C26.0698 87.7315 23.9736 89.8316 21.7157 91.4399C19.4542 92.7508 17.2924 94.1623 14.4726 94.0971C12.6422 93.9662 10.8719 92.6864 10.2818 90.9154C9.72489 88.8796 10.3468 86.7808 11.9524 85.4026C13.6231 83.4023 16.2747 82.2194 17.5878 79.9232C18.2747 78.7092 18.1758 76.7421 17.2585 75.594C15.5228 73.789 13.033 73.7217 10.7744 73.1647C9.33266 72.7697 8.21818 71.6555 6.94114 70.9668C6.44998 71.7199 6.28602 72.5418 6.35316 73.4605C6.61464 75.5282 8.18496 77.3962 10.151 78.1182C11.2973 78.6123 12.6083 78.2513 13.7864 78.5132C14.115 78.6434 14.4436 78.9711 14.4726 79.3321C14.4118 79.6613 14.3779 79.989 14.0832 80.2184C12.2479 81.7615 10.3164 83.2373 8.77507 85.1393C7.1369 86.9125 6.94114 90.0277 7.79415 92.2603C8.74326 94.8184 11.3963 96.4932 13.9496 96.8202C15.8175 97.1161 17.4903 96.6234 19.192 96.2624C19.421 96.2624 19.5206 96.4932 19.6168 96.6234C19.7814 98.1326 19.5517 99.4775 19.8797 100.856C20.1751 102.135 20.6005 103.022 21.0585 104.267C21.1256 104.693 21.0585 105.154 20.763 105.482C19.8153 106.206 18.8309 106.698 17.7835 107.158L15.2295 107.32L14.7369 107.552C13.7864 108.668 13.7546 109.816 13.1659 111.061C12.3779 112.376 10.9383 112.996 9.72418 113.751C9.33337 114.375 8.9051 115.032 8.35104 115.524C7.92277 115.918 7.40051 116.016 6.84362 116.082C5.95881 117.1 5.76305 118.509 5.53125 119.888C6.97295 120.02 8.48178 120.806 9.88955 120.02C11.1016 119.46 11.3645 117.984 12.2811 117.1C13.0019 116.312 14.0832 116.903 14.9341 117.065C16.2097 117.131 17.1284 116.213 18.2111 115.786C18.9616 115.296 19.585 114.442 20.3701 113.948C21.8782 113.23 23.9737 113.62 25.5468 113.917C26.7906 114.244 28.1016 114.049 29.1821 113.554C30.1984 112.932 31.1482 112.144 32.2938 111.882C33.3086 111.358 33.8019 110.209 34.2274 109.259C34.5524 108.371 35.4054 107.684 35.3397 106.667C35.0768 106.436 34.7835 105.942 34.3906 105.974C33.8987 106.667 33.539 107.386 32.9821 108.045C30.6132 111.281 28.751 111.587 23.9418 111.587C20.3701 111.455 17.1595 112.54 14.7051 115.327C14.5404 115.426 14.3108 115.358 14.18 115.231C14.0832 114.834 14.4118 114.182 14.5737 113.886C16.7701 110.77 20.1751 110.048 23.7772 109.985C25.7418 109.85 27.6097 109.523 29.2818 108.672C31.1475 107.721 32.4238 106.239 33.2118 104.399C33.6358 102.332 33.8019 100.102 34.3263 98.1326C34.3899 97.9365 34.8811 97.7893 35.0436 97.8551C35.2401 97.8884 35.6302 98.0667 35.6302 98.2975C35.2719 100.33 34.6196 102.724 35.4054 104.693C36.9779 106.764 39.8945 105.648 42.0245 105.547C44.2507 105.35 46.0415 105.525 48.1701 105.655C49.2182 105.624 49.9934 105.879 50.8111 105.224C51.0376 104.852 51.128 104.413 51.0669 103.981C50.9998 103.39 50.5086 103.034 51.0669 102.54C51.2295 102.409 51.7192 102.496 51.85 102.66C52.1447 103.481 52.2754 104.366 52.8005 105.088C53.8485 106.436 55.3871 107.486 56.8274 108.239C58.2019 109.193 59.3503 110.538 59.4493 112.21C59.4493 113.064 58.6627 113.653 58.0076 114.049C56.8945 114.605 55.6811 115.064 54.3722 114.933C52.6337 114.081 52.1765 112.243 51.0295 110.897C50.4422 110.242 49.5567 110.111 48.6719 110.177C47.7213 110.273 46.7729 110.306 45.9213 110.603C45.6917 110.8 45.6266 111.094 45.6585 111.391C46.2486 112.473 46.9037 113.523 47.5567 114.605C48.3129 115.064 49.3602 114.342 50.0139 115.161C50.5701 116.016 50.9312 117.034 51.7842 117.69C52.604 118.41 53.8485 118.738 54.9291 118.28C57.3531 117.525 59.7772 116.739 62.0372 115.524H62.7892C63.7058 115.426 64.7235 115.491 65.3772 114.802C66.0736 113.798 66.6976 112.745 67.2443 111.652C67.8005 110.897 67.539 109.748 67.3114 108.929C66.197 107.552 65.5729 106.007 64.9835 104.431C64.4288 104.267 63.9355 103.94 63.3143 103.972C63.021 104.102 62.5934 104.037 62.4288 104.366L65.0167 109.487C65.1793 109.881 65.3772 110.437 65.2782 110.962C64.9178 112.047 64.3616 113.095 63.4782 113.882C63.3143 113.983 63.1178 114.081 62.9871 113.851C63.2803 112.735 63.8054 111.522 63.7397 110.242L61.2189 105.679C60.922 105.055 60.3991 104.497 60.4309 103.775C60.4309 103.446 60.7242 103.218 60.9892 103.087C62.1023 102.724 63.4443 102.792 64.2959 101.907C65.4111 100.166 65.6422 98.4596 65.9369 96.3934C66.0026 96.2624 66.2676 96.0097 66.4634 96.0097C66.6599 95.9446 66.8839 96.2313 66.9807 96.3283C67.3114 98.5913 66.8507 100.888 65.5411 102.66C65.4761 102.89 65.3772 103.186 65.6387 103.349C66.8839 103.743 68.1941 103.349 69.2429 102.792C70.5857 102.824 71.8295 102.496 73.0436 102.3C73.1736 102.363 73.3051 102.496 73.3051 102.627C72.4874 103.545 72.0273 104.563 71.7984 105.746C70.8139 106.764 69.4061 107.649 69.3072 109.128C69.4719 109.847 70.0952 109.159 70.5206 109.225C70.6133 109.24 70.6975 109.288 70.7576 109.36C70.8177 109.432 70.8497 109.524 70.8478 109.618L69.8655 111.061C69.3411 111.916 69.9623 112.9 69.9623 113.72C70.1927 114.375 70.9786 114.705 71.6655 114.705C73.1411 114.64 74.4514 114.081 75.7623 113.62C77.204 112.996 79.0033 113.029 80.5779 113.292C82.1164 113.195 83.2634 112.177 84.409 111.16C85.033 111.16 85.5892 111.587 86.0139 112.047C87.7807 113.948 90.0761 114.769 92.6641 114.705L92.8931 114.574C93.0577 114.408 92.9906 114.114 92.7927 113.983L91.2556 113.195C90.1743 112.504 88.8302 111.587 88.4712 110.371C88.1432 109.29 87.5524 108.108 86.8973 107.058C86.6697 106.533 86.1454 106.107 85.9157 105.581C85.9793 105.514 86.0457 105.415 86.1454 105.449C87.8485 106.042 88.8641 107.714 89.6478 109.225C90.8952 110.962 92.6952 112.438 95.0542 112.047L95.2507 111.882C95.3496 111.751 95.3164 111.587 95.2507 111.488L94.0697 110.897Z" fill="#ED1E36"/>
<path d="M7.10469 114.54C8.12094 113.949 8.77606 112.835 9.30115 111.882C9.20363 111.524 8.84108 111.261 8.54638 110.996C8.35204 110.834 8.05734 110.964 7.82553 111.03C7.10469 111.653 6.35416 112.146 5.56617 112.64C5.23896 112.868 5.37041 113.36 5.30469 113.721C5.30469 114.05 5.69691 114.278 5.89479 114.475C6.25522 114.641 6.71246 114.672 7.10469 114.54ZM146.15 110.178C145.265 110.342 144.249 110.145 143.364 110.274C142.973 110.865 142.612 111.588 142.709 112.377C142.807 113.196 143.724 113.261 144.315 113.492C144.872 113.556 145.689 113.752 145.988 113.165C146.314 112.309 146.609 111.392 146.74 110.473C146.674 110.211 146.411 110.112 146.15 110.178Z" fill="#ED1E36"/>
<path d="M137.873 80.022L137.734 80.2995L137.58 80.5451C137.235 80.8648 136.89 81.1852 136.546 81.5064L135.441 82.5413C134.611 83.3482 134.028 84.0306 133.609 84.6889C133.257 85.1723 132.992 85.7351 132.734 86.2787C132.655 86.4408 132.459 86.4443 132.351 86.4089L132.289 86.3891L132.271 86.3297C132.199 86.114 132.164 85.888 132.167 85.6608C132.167 85.4781 132.186 85.2821 132.226 85.0711L132.429 84.2521L132.532 83.8819C133.161 82.2086 134.565 80.4609 136.382 79.0948C136.617 78.9461 137.05 78.8399 137.383 78.944C137.479 78.9724 137.567 79.0224 137.641 79.0901C137.715 79.1578 137.773 79.2415 137.809 79.3347C137.891 79.4699 137.929 79.6023 137.929 79.7389C137.929 79.8309 137.911 79.9244 137.875 80.022L137.953 80.0496L137.874 80.022M124.511 98.6774L124.421 98.9938C124.346 99.0985 124.249 99.2245 124.128 99.3003C124.025 99.3611 123.866 99.4114 123.693 99.3017C123.522 99.2344 123.374 99.1182 123.267 98.9676C123.265 98.9676 123.127 98.7552 123.127 98.7552L123.007 98.5457C122.86 98.2937 122.72 98.1019 122.378 98.1281C122.074 98.1132 121.851 98.2364 121.656 98.373L121.442 98.5323L121.322 98.6236C121.32 98.6236 120.977 98.8557 120.977 98.8557C120.961 98.8664 120.507 99.2564 120.507 99.2564L120.303 99.4284L119.645 100.041C119.167 100.54 118.908 100.993 118.825 101.468L118.736 101.812L118.71 101.961L118.668 102.169C118.622 102.4 118.541 102.654 118.308 102.799C118.223 102.822 118.134 102.825 118.048 102.809C117.962 102.793 117.88 102.757 117.809 102.706C117.753 102.667 117.707 102.616 117.674 102.557C117.642 102.497 117.623 102.43 117.621 102.362C117.488 100.779 118.044 99.3003 119.143 98.2972C119.7 97.8386 120.17 97.2864 120.557 96.8051L120.987 96.2579L121.847 95.1933L121.944 95.1417C122.568 95.0213 122.958 95.5791 123.096 95.8247C123.638 96.5241 124.079 97.3133 124.485 98.3164C124.51 98.3871 124.522 98.4615 124.522 98.5386C124.522 98.5846 124.518 98.6306 124.511 98.6774ZM123.759 110.035L123.738 110.077C123.524 110.229 123.26 110.292 122.891 110.274L122.265 110.202L122.056 110.171L122.011 110.157C121.384 109.806 121.23 109.092 121.159 108.373C121.159 108.13 121.239 107.942 121.406 107.812L121.438 107.783H121.485C122.346 107.783 122.997 108.042 123.417 108.551L123.438 108.587L123.568 108.842L123.762 109.248C123.819 109.4 123.849 109.538 123.849 109.667C123.849 109.797 123.819 109.918 123.759 110.035ZM193.547 116.311C191.876 116.408 191.057 114.604 190.077 113.553C189.256 112.603 187.652 112.046 187.684 110.633C187.389 110.077 187.322 109.192 187.062 108.468C186.832 107.879 186.602 107.024 185.816 106.894C184.408 106.666 182.704 107.057 181.819 105.745C180.905 104.76 181.919 103.612 182.083 102.659C182.474 101.446 182.509 99.8375 182.312 98.5903C182.279 97.8683 181.788 97.2794 181.919 96.5567C182.247 95.933 183.033 96.3924 183.522 96.4583C185.357 96.9835 187.52 96.7216 189.189 95.9996C191.483 94.8833 193.318 92.5538 193.22 89.8958C192.891 86.4507 190.434 83.6314 187.782 81.3995C187.291 80.972 186.668 80.5133 186.504 79.8904C186.438 78.5441 187.944 79.2009 188.7 78.8732C189.616 78.6424 190.534 78.4131 191.288 77.8893C193.285 76.5423 193.712 74.1809 193.318 71.8846C193.253 71.6878 193.253 71.3912 192.958 71.3912C192.597 71.6885 192.237 72.114 191.78 72.3759C190.5 73.1318 188.795 73.0002 187.454 73.6571C185.783 74.3791 183.72 75.3941 182.999 77.2968C182.802 78.2503 183.034 79.2335 183.459 80.022C185.488 83.2364 189.78 85.3366 190.469 89.2071C190.729 90.7827 189.944 91.9309 188.732 92.8171C186.895 93.9312 184.146 93.5384 182.312 92.5538C178.774 90.7827 175.695 87.8296 171.895 86.6156C169.504 85.534 166.556 85.7945 164.427 84.1205C162.823 83.0714 161.348 81.6933 159.547 81.2353C158.301 80.8085 156.893 80.8743 155.749 80.2514C154.566 79.2009 153.323 78.217 151.946 77.5283C150.049 76.5762 147.951 76.085 145.855 75.6242C144.609 75.329 144.152 73.9522 143.136 73.2621C141.399 71.8846 139.467 70.9 137.109 71.0975C136.128 71.1633 135.372 71.8188 134.618 72.4757C129.609 76.8714 123.874 79.8904 119.291 84.9097C116.21 88.0929 115.39 92.1284 114.245 96.0314C112.608 101.937 111.92 108.436 105.991 112.078C105.892 112.242 105.892 112.539 106.088 112.669C107.661 113.063 109.199 112.437 110.248 111.357C111.264 109.747 112.344 108.206 113.721 106.73L114.05 106.566C114.213 106.601 114.407 106.697 114.344 106.927C113.951 108.238 112.77 109.192 112.379 110.502C111.855 112.078 110.347 113.291 109.068 114.407L109.035 114.604C109.035 114.768 109.199 114.932 109.365 114.965C112.248 115.094 114.31 113.028 116.243 111.093C116.441 110.896 116.702 110.93 116.963 110.995C117.816 111.651 118.601 112.638 119.717 112.865C120.896 112.7 122.137 112.539 123.385 112.638C125.12 113.163 126.792 113.881 128.527 114.472C129.411 114.441 130.066 113.586 130.524 112.865C130.885 112.014 130.361 111.159 130.426 110.339C130.854 110.077 131.344 110.404 131.803 110.272C131.996 110.142 132.163 109.911 132.163 109.683C131.835 108.175 130.492 107.057 130.066 105.647C129.41 103.84 127.281 102.759 126.888 100.821C126.986 100.69 127.15 100.494 127.316 100.625C128.724 101.642 129.969 102.987 131.705 103.249C133.014 103.382 134.358 103.512 135.667 103.413C135.864 103.348 136.028 103.117 135.962 102.889C135.406 101.708 134.882 100.528 134.553 99.2465C134.096 97.6404 133.766 95.4085 134.291 93.6361C134.389 93.5051 134.814 93.2538 135.011 93.319C135.274 93.3848 135.597 93.7019 135.63 93.9312C135.828 96.7216 135.538 99.2797 137.207 101.478C137.927 102.626 139.172 102.856 140.057 103.742C140.382 104.203 140.45 104.955 140.221 105.481L138.223 108.436C137.763 109.092 137.306 109.815 137.14 110.537C136.977 111.358 137.074 112.143 137.14 112.931C137.011 112.995 136.947 112.8 136.814 112.735C136.29 111.652 135.701 110.272 136.257 108.994L138.779 105.087L138.878 104.792C138.32 104.496 137.698 104.203 137.109 104.07C136.814 104.203 136.617 104.496 136.421 104.76L133.964 109.224C133.799 109.747 133.637 110.142 133.766 110.701C133.899 111.357 134.061 112.014 134.358 112.568C134.553 113.49 134.716 114.113 135.142 114.932C135.765 115.621 136.617 114.998 137.404 115.195C138.19 115.392 138.485 116.342 139.269 116.574C141.039 117.161 142.94 117.491 144.706 118.181C145.625 118.474 146.935 118.837 147.754 118.08C148.9 117.46 149.196 116.245 149.394 115.094C149.752 114.604 150.471 114.801 150.998 114.639C151.98 113.982 152.307 112.8 153.028 111.916L153.159 111.454C153.06 111.159 152.799 110.995 152.536 110.896H149.197C147.655 111.093 147.523 112.8 146.871 113.85C146.509 114.507 145.79 114.768 145.035 114.704C143.462 114.275 141.53 114.048 140.809 112.34C140.71 111.916 140.71 111.39 141.039 111.093C141.856 110.142 142.841 109.061 143.856 108.273C145.298 107.976 146.708 106.894 147.457 105.612C147.853 105.054 147.787 104.234 148.443 103.807C148.64 103.774 149.076 103.762 149.209 103.958C149.503 104.909 148.97 105.592 148.676 106.412C152.247 106.773 155.015 105.74 158.486 105.871C159.961 105.871 161.282 106.041 162.722 105.941C164.166 105.875 165.736 105.283 166.195 103.775C166.851 101.839 165.94 99.6407 165.609 97.8025L166.005 97.4917C166.237 97.3601 166.621 97.5413 166.785 97.6722C167.408 99.4107 167.832 101.512 168.096 103.413C168.357 105.087 169.079 106.176 169.995 107.589C171.665 110.081 174.614 111.063 177.53 110.44C181.067 110.178 184.111 112.046 186.276 114.801V114.965C186.209 115.094 186.079 115.261 185.915 115.23C184.047 113.783 182.18 112.242 179.789 111.948C177.372 111.506 175.202 112.767 172.681 111.75C169.642 110.748 168.367 108.872 167.08 105.875H166.816C166.621 105.908 166.491 106.106 166.457 106.303L166.785 108.339C167.179 109.978 167.704 111.916 169.473 112.669C170.847 113.49 172.188 114.67 173.894 114.21C176.875 113.553 179.887 114.407 182.18 116.081C182.935 116.508 183.522 117.296 184.342 117.59C185.226 117.949 186.307 117.752 187.028 117.161C188.7 116.606 189.092 118.706 190.239 119.459C191.255 120.444 193.282 120.036 194.626 120.036L194.594 119.887C194.432 118.54 194.07 117.491 193.548 116.311M198.001 118.019C197.838 117.262 198.035 116.213 197.542 115.523C197.117 115.195 196.724 114.704 196.168 114.834C195.708 115.23 195.021 115.686 195.119 116.377C195.51 117.557 195.775 118.409 196.004 119.624C196.135 119.853 196.004 120.313 196.365 120.313L198.461 119.623C198.821 119.034 198.133 118.575 198.001 118.019Z" fill="#ED1E36"/>
<path d="M192.695 111.194C192.039 110.634 191.353 111.455 191.023 111.949C191.255 112.735 191.907 113.392 192.399 114.115C192.662 114.508 193.086 114.769 193.547 114.802C194.004 114.802 194.367 114.573 194.692 114.311C194.922 114.013 195.184 113.652 195.088 113.229C194.463 112.375 193.481 111.847 192.695 111.194Z" fill="#ED1E36"/>
</g>
<defs>
<clipPath id="clip0_106_6686">
<rect width="200" height="200" fill="white"/>
</clipPath>
</defs>
</svg>
