<svg width="200" height="200" viewBox="0 0 200 200" fill="none" xmlns="http://www.w3.org/2000/svg">
<g clip-path="url(#clip0_106_6675)">
<path fill-rule="evenodd" clip-rule="evenodd" d="M200 100C200 155.229 155.229 200 100 200C44.7714 200 0 155.229 0 100C0 44.7714 44.7714 0 100 0C155.229 0 200 44.7714 200 100Z" fill="#28295C"/>
<path d="M99.9999 34.5254C63.855 34.5254 34.5254 63.855 34.5254 99.9997C34.5254 136.145 63.855 165.469 99.9997 165.469C136.145 165.469 165.474 136.145 165.474 99.9997C165.474 63.855 136.145 34.5254 99.9999 34.5254ZM99.9999 36.9296C134.845 36.9296 163.064 65.1546 163.064 99.9997C163.064 134.845 134.845 163.064 99.9999 163.064C65.1546 163.064 36.9354 134.845 36.9354 99.9997C36.9354 65.1546 65.1546 36.9296 99.9999 36.9296Z" fill="white"/>
<path d="M99.9999 4.18896C47.0973 4.18896 4.1875 47.099 4.1875 100.001C4.1875 152.904 47.0973 195.805 99.9999 195.805C152.902 195.805 195.812 152.904 195.812 100.001C195.812 47.0988 152.902 4.18896 99.9999 4.18896ZM99.9999 6.22863C151.798 6.22863 193.764 48.2036 193.764 100.001C193.764 151.799 151.798 193.766 99.9999 193.766C48.2019 193.766 6.23558 151.799 6.23558 100.001C6.23558 48.2036 48.2019 6.22863 99.9999 6.22863Z" fill="#E76B31"/>
<path d="M99.9985 10.3352C50.5933 10.3352 10.3262 50.5959 10.3262 100.001C10.3262 149.406 50.5933 189.661 99.9985 189.661C149.404 189.661 189.671 149.406 189.671 100.001C189.671 50.5957 149.404 10.3352 99.9985 10.3352ZM99.9985 30.0805C138.767 30.0805 169.838 61.2323 169.838 100.001C169.838 138.77 138.767 169.746 99.9985 169.746C61.2297 169.746 30.1595 138.77 30.1595 100.001C30.1595 61.2323 61.2297 30.0805 99.9985 30.0805ZM20.5277 94.9348L25.6505 98.6672L23.6653 104.804H17.265L15.261 98.6422L20.5277 94.9348ZM179.551 94.9348L184.673 98.6672L182.694 104.804H176.294L174.29 98.6422L179.551 94.9348Z" fill="#78A5DB"/>
<path d="M65.7703 58.5159H61.3223V52.7043H76.753V58.5159H74.1478L99.6949 83.1064L116.529 66.8675C118.278 67.7072 120 68.7953 121.716 69.9356L102.7 88.0533V97.4227L96.9933 91.7807V88.3753L65.7703 58.5159ZM125.25 58.5159H122.444V52.5039H137.875V58.5159H133.466L128.026 63.8301C126.38 62.4299 124.734 61.5728 123.088 60.5736L125.25 58.5159Z" fill="white"/>
<path d="M78.8574 61.111L83.4023 65.3695C83.4023 65.3695 90.3148 61.5046 100.078 61.5046C117.309 61.5046 131.04 72.8077 136.687 87.825H142.806V70.5226H137.081V75.5145C130.079 64.74 116.508 55.7251 100.114 55.7251C87.5529 55.7251 78.8574 61.111 78.8574 61.111Z" fill="white"/>
<path d="M86.3729 117.433V122.844H72.1445V117.433H76.4331V86.3712H72.3449V80.9604H83.3669L118.637 114.427V86.3712H114.429V80.9604H128.657V86.3712H124.248V122.844H119.582L82.1645 87.4764V117.433H86.3729Z" fill="white"/>
<path d="M95.2856 138.674V144.481C72.7618 142.365 55.5156 122.864 55.5156 100.286C55.5156 85.3748 62.2256 74.1721 71.4313 66.0303L75.695 70.1487C66.9157 77.4121 61.3039 88.1489 61.3039 100.313C61.3039 119.842 76.2711 136.323 95.2852 138.674H95.2856ZM104.306 144.494V138.674C119.531 137.021 132.948 126.077 137.012 111.624H143.072C138.652 128.891 123.18 142.55 104.306 144.494V144.494Z" fill="white"/>
<path d="M107.213 155.508H92.584V149.696H96.7924V103.404L102.699 108.815V149.696H107.213V155.508Z" fill="white"/>
<path d="M50.3554 44.7389L42.5986 37.1544L40.9515 38.8387L45.7274 43.5086L37.398 42.473L35.8594 44.0465L43.6162 51.631L45.2629 49.947L40.3319 45.1254L48.9362 46.1904L50.3554 44.7389ZM58.6465 38.2487L57.3389 36.5764L52.6997 40.2042L51.2963 38.4097L55.3247 35.2594L54.0169 33.5869L49.9883 36.7371L48.6328 35.0037L53.2107 31.4236L51.9025 29.7508L45.4569 34.7915L52.14 43.3373L58.6465 38.2487ZM68.7032 20.5333L66.4852 21.6765L67.8531 29.2356L62.3106 23.7934L60.4924 24.7304L61.7088 32.4023L56.3462 26.9017L54.073 28.0733L62.371 36.0886L64.217 35.1373L63.1419 27.7062L68.5699 32.8941L70.416 31.9426L68.7032 20.5333ZM86.2611 15.993L83.6147 16.5876L81.9994 21.4144L78.5189 17.7331L75.7975 18.3447L81.3059 23.8417L82.2437 28.0152L84.5724 27.4917L83.6243 23.2733L86.2611 15.993ZM97.632 16.5724L97.6099 16.5507C97.0558 16.0091 96.4376 15.6031 95.755 15.3329C95.0725 15.063 94.3733 14.9355 93.6574 14.951C92.9418 14.9664 92.233 15.1223 91.5312 15.4189C90.8294 15.7155 90.1859 16.1628 89.6008 16.7612C89.0158 17.3594 88.5811 18.0145 88.297 18.7265C88.0128 19.4383 87.8747 20.1559 87.8828 20.8792C87.8908 21.6022 88.0359 22.304 88.3176 22.9839C88.5992 23.6639 89.017 24.2747 89.5709 24.8164L89.593 24.8382C90.1471 25.3797 90.7653 25.7857 91.4479 26.0557C92.1304 26.3258 92.8294 26.4531 93.5452 26.4376C94.261 26.4222 94.9697 26.2665 95.6715 25.9699C96.3731 25.6737 97.0165 25.2262 97.6019 24.6276C98.1871 24.0292 98.6215 23.3741 98.9057 22.6623C99.1901 21.9503 99.3281 21.2329 99.3199 20.5096C99.3119 19.7864 99.167 19.0848 98.8855 18.4048C98.6039 17.7251 98.1861 17.1143 97.632 16.5724ZM95.9097 18.3782C96.242 18.7032 96.4981 19.0655 96.6781 19.4653C96.858 19.8651 96.9594 20.275 96.9823 20.6948C97.0053 21.1148 96.9386 21.5303 96.7825 21.9413C96.6262 22.3521 96.3821 22.7272 96.05 23.0671C95.7105 23.4142 95.337 23.6669 94.9298 23.8246C94.531 23.9811 94.1056 24.0585 93.6773 24.0525C93.2498 24.0465 92.8324 23.9563 92.4248 23.7819C92.0176 23.6076 91.6477 23.3577 91.315 23.0324L91.2929 23.011C90.9605 22.686 90.7044 22.3234 90.5244 21.9234C90.3447 21.5236 90.2433 21.1138 90.2202 20.694C90.1972 20.2742 90.2621 19.8605 90.4146 19.4533C90.5673 19.0461 90.8134 18.6688 91.1529 18.3217C91.4849 17.9818 91.8567 17.7311 92.2677 17.5694C92.6785 17.4078 93.0979 17.3301 93.5254 17.3361C93.9528 17.3421 94.3703 17.4327 94.7779 17.6072C95.1853 17.7816 95.555 18.0315 95.8873 18.3565L95.9097 18.3782ZM110.881 26.3929L108.486 22.3557C109.194 22.1427 109.779 21.7741 110.243 21.2503C110.706 20.7265 110.966 20.0263 111.023 19.1495L111.025 19.1189C111.098 17.995 110.796 17.0954 110.12 16.4201C109.444 15.7447 108.462 15.3654 107.173 15.2818L102.225 14.9618L101.524 25.7879L103.906 25.9418L104.13 22.4777L106.001 22.5988L108.097 26.213L110.881 26.3929ZM108.602 19.1171C108.572 19.5812 108.391 19.9423 108.059 20.2004C107.726 20.4585 107.266 20.5687 106.679 20.5307L104.266 20.3746L104.467 17.2658L106.833 17.4187C107.421 17.4567 107.871 17.6155 108.185 17.8946C108.498 18.1738 108.638 18.5712 108.604 19.0864L108.602 19.1171ZM121.864 28.921L118.71 21.822L124.02 18.2868L121.206 17.6616L115.881 21.3365L116.909 16.7071L114.58 16.1894L112.227 26.7797L114.556 27.2971L115.276 24.0599L116.783 23.0609L119.065 28.2989L121.864 28.921ZM136.663 33.2742L135.907 31.2522C135.359 31.4366 134.843 31.5448 134.359 31.5765C133.875 31.6079 133.35 31.4969 132.785 31.2428C132.361 31.0524 132.009 30.7953 131.729 30.4715C131.45 30.1478 131.249 29.7883 131.126 29.3933C131.004 28.9985 130.956 28.5809 130.984 28.1404C131.012 27.6999 131.121 27.2677 131.312 26.8434L131.325 26.8154C131.515 26.3911 131.765 26.0246 132.073 25.7158C132.382 25.4072 132.727 25.1685 133.109 25C133.49 24.8317 133.902 24.745 134.319 24.7455C134.744 24.7439 135.164 24.8362 135.579 25.0226C136.079 25.2471 136.484 25.5483 136.796 25.926C137.107 26.3038 137.378 26.7541 137.608 27.2767L139.711 26.3014C139.586 25.972 139.433 25.6535 139.255 25.3493C139.072 25.037 138.856 24.7458 138.609 24.4809C138.357 24.2092 138.057 23.9499 137.71 23.7032C137.362 23.4563 136.957 23.2292 136.495 23.0216C135.732 22.6787 134.974 22.4998 134.222 22.4846C133.47 22.4695 132.763 22.5936 132.101 22.8569C131.439 23.1202 130.842 23.5034 130.31 24.0064C129.778 24.5094 129.354 25.1144 129.036 25.821L129.023 25.8495C128.706 26.5561 128.534 27.2777 128.51 28.014C128.484 28.7504 128.595 29.4488 128.843 30.1091C129.09 30.7692 129.465 31.371 129.968 31.9143C130.472 32.4578 131.086 32.8923 131.812 33.2183C132.293 33.4344 132.744 33.5891 133.167 33.6826C133.589 33.7762 133.998 33.8183 134.393 33.8089C134.78 33.8005 135.165 33.7484 135.541 33.6536C135.912 33.5594 136.286 33.4332 136.663 33.2742ZM139.294 37.2047L144.931 27.9352L142.892 26.6953L137.255 35.9648L139.294 37.2047ZM153.216 36.5225L154.538 34.763L147.352 29.3631L146.03 31.1224L148.669 33.1055L143.474 40.0193L145.382 41.4527L150.577 34.5392L153.216 36.5225ZM163.629 43.5214L161.708 41.607L156.768 42.8331L158.008 37.9209L156.031 35.9522L154.347 43.5499L151.328 46.5803L153.019 48.2647L156.071 45.2014L163.629 43.5214Z" fill="#28295C"/>
<path d="M48.7341 154.055L43.8944 148.687L36.6426 155.666L37.336 156.446L40.4957 153.405L44.1762 157.502L44.9223 156.784L41.2417 152.687L43.8317 150.195L47.9779 154.783L48.7341 154.055ZM74.6857 171.04L78.0282 172.282L78.3689 171.289L70.8637 168.494L70.523 169.486L73.7002 170.657L70.7727 179.184L71.7581 179.567L74.6857 171.04ZM85.2369 172.892L80.7801 171.865L78.7258 181.718L83.349 182.787C83.8383 182.9 84.2932 182.959 84.7201 182.938C85.1471 182.916 85.5277 182.826 85.8618 182.668C86.1933 182.512 86.4811 182.276 86.6994 181.981C86.9239 181.682 87.0798 181.321 87.168 180.899C87.2383 180.562 87.2497 180.248 87.202 179.96C87.1543 179.671 87.0646 179.412 86.9329 179.182C86.7962 178.945 86.6252 178.73 86.4253 178.544C86.2171 178.347 85.9889 178.174 85.7445 178.025C85.9458 177.984 86.142 177.922 86.3297 177.838C86.5225 177.753 86.7071 177.634 86.8828 177.481C87.0586 177.327 87.2125 177.139 87.3445 176.915C87.4766 176.691 87.577 176.416 87.6453 176.087C87.7235 175.712 87.7263 175.354 87.6529 175.015C87.5815 174.679 87.4351 174.364 87.2249 174.094C87.0125 173.818 86.7391 173.577 86.4049 173.37C86.0706 173.163 85.6812 173.003 85.2369 172.892ZM84.1546 177.242L80.864 176.507L81.5714 173.115L84.9389 173.869C85.5796 174.03 86.0405 174.298 86.3217 174.675C86.6028 175.051 86.6916 175.488 86.588 175.985C86.4666 176.567 86.1824 176.96 85.7351 177.164C85.2878 177.368 84.7648 177.378 84.1546 177.242ZM83.5828 181.794L79.934 180.969L80.6588 177.493L84.1285 178.272C84.9191 178.45 85.4776 178.766 85.8175 179.162C86.1576 179.558 86.271 180.028 86.1574 180.572C86.0399 181.136 85.7526 181.522 85.2948 181.734C84.8373 181.945 84.2704 181.949 83.5828 181.794ZM96.1208 174.055L95.1457 173.983L90.0116 184.019L91.0788 184.098L92.5306 181.471L98.0015 181.759L98.9905 184.497L100.111 184.58L96.1208 174.055ZM97.6278 180.708L92.9741 180.48L95.5749 175.34L97.6278 180.708ZM114.561 183.138L121.241 181.902L121.024 180.875L115.374 181.936L113.512 173.115L112.483 173.29L114.561 183.138ZM150.045 155.195L149.236 155.854L153.055 160.461C153.758 161.31 153.931 161.935 153.931 162.769C153.931 163.62 153.351 164.321 152.703 164.879C152.013 165.473 151.516 165.767 150.476 165.767C149.693 165.767 148.788 165.187 148.066 164.367L144.311 159.796L143.502 160.455L147.304 165.079C147.712 165.576 148.207 165.996 148.764 166.317C149.269 166.611 149.838 166.851 150.449 166.851C151.6 166.851 152.338 166.551 153.327 165.766C154.257 165.061 155.087 163.907 155.087 162.662C155.098 161.452 154.42 160.337 153.741 159.555L150.045 155.195ZM103.994 184.231L110.781 183.94L110.71 182.893L104.966 183.155L104.354 174.16L103.311 174.189L103.994 184.231ZM141.345 173.727L147.174 170.238L146.612 169.351L141.687 172.318L136.863 164.701L135.96 165.224L141.345 173.727Z" fill="#28295C" stroke="#28295C" stroke-width="0.796801"/>
<path d="M55.9573 162.611C55.9573 165.219 53.8437 167.332 51.2366 167.332C48.6292 167.332 46.5156 165.219 46.5156 162.611C46.5156 160.004 48.6292 157.891 51.2366 157.891C53.8439 157.891 55.9573 160.004 55.9573 162.611Z" stroke="#28295C" stroke-width="1.91234" stroke-linecap="square" stroke-linejoin="round"/>
<path d="M67.2854 170.023C67.2854 172.631 65.1718 174.744 62.5647 174.744C59.9573 174.744 57.8438 172.631 57.8438 170.023C57.8438 167.416 59.9573 165.303 62.5647 165.303C65.172 165.303 67.2854 167.416 67.2854 170.023Z" stroke="#28295C" stroke-width="1.91234" stroke-linecap="square" stroke-linejoin="round"/>
<path d="M155.346 149.689L152.217 153.024L159.699 159.757L162.948 156.298C163.292 155.932 163.572 155.569 163.768 155.189C163.965 154.809 164.078 154.435 164.109 154.067C164.141 153.701 164.082 153.334 163.938 152.997C163.792 152.653 163.559 152.337 163.238 152.048C162.981 151.817 162.716 151.65 162.443 151.546C162.17 151.442 161.901 151.389 161.635 151.387C161.362 151.386 161.09 151.426 160.828 151.505C160.554 151.586 160.289 151.696 160.038 151.833C160.103 151.642 160.147 151.443 160.171 151.233C160.194 151.023 160.184 150.804 160.14 150.575C160.096 150.346 160.01 150.118 159.883 149.891C159.757 149.665 159.568 149.439 159.319 149.215C159.034 148.958 158.726 148.776 158.396 148.669C158.07 148.562 157.724 148.53 157.384 148.575C157.04 148.62 156.694 148.735 156.347 148.92C155.999 149.105 155.666 149.361 155.346 149.689H155.346ZM158.561 152.813L156.271 155.287L153.695 152.969L156.041 150.438C156.502 149.965 156.966 149.702 157.432 149.648C157.899 149.595 158.322 149.738 158.699 150.077C159.141 150.475 159.337 150.918 159.289 151.407C159.24 151.896 158.986 152.354 158.561 152.813ZM162.207 155.596L159.659 158.335L157.019 155.96L159.439 153.354C159.99 152.76 160.544 152.436 161.057 152.341C161.57 152.246 162.034 152.385 162.447 152.757C162.875 153.142 163.064 153.585 163.017 154.087C162.969 154.588 162.688 155.081 162.207 155.596Z" fill="#28295C" stroke="#28295C" stroke-width="0.796801"/>
<path d="M136.085 173.543C135.418 175.097 134.499 176.266 132.411 176.266C131.917 176.268 131.428 176.172 130.971 175.984C130.514 175.796 130.099 175.519 129.75 175.17C129.401 174.821 129.124 174.406 128.936 173.949C128.748 173.492 128.652 173.003 128.654 172.509C128.652 172.015 128.748 171.525 128.936 171.068C129.124 170.611 129.401 170.196 129.75 169.847C130.099 169.498 130.514 169.221 130.971 169.033C131.428 168.845 131.917 168.749 132.411 168.751C132.993 168.751 133.541 168.881 134.031 169.112L134.649 167.287C133.943 166.982 133.181 166.825 132.411 166.826C129.284 166.826 126.729 169.382 126.729 172.509C126.729 175.636 129.284 178.192 132.411 178.192C134.981 178.192 137.165 176.465 137.862 174.114" fill="#28295C"/>
</g>
<defs>
<clipPath id="clip0_106_6675">
<rect width="200" height="200" fill="white"/>
</clipPath>
</defs>
</svg>
