<svg width="200" height="200" viewBox="0 0 200 200" fill="none" xmlns="http://www.w3.org/2000/svg">
<g clip-path="url(#clip0_106_6708)">
<path d="M200 100.4V99.5C199.8 44.6 155 0 100 0C44.9 0 0 44.9 0 100C0 155.1 44.9 200 100 200C155 200 199.8 155.4 200 100.4Z" fill="url(#paint0_linear_106_6708)"/>
<path d="M100 3.8999C47.0004 3.8999 3.90039 46.9999 3.90039 99.9999C3.90039 153 47.0004 196.1 100 196.1C153 196.1 196.1 153 196.1 99.9999C196.1 46.9999 153 3.8999 100 3.8999Z" fill="#071B2C"/>
<path d="M165.799 100C165.799 63.7002 136.299 34.2002 99.9992 34.2002C63.6992 34.2002 34.1992 63.7002 34.1992 100C34.1992 136.3 63.6992 165.8 99.9992 165.8C136.299 165.8 165.799 136.3 165.799 100Z" fill="url(#paint1_linear_106_6708)"/>
<path d="M100 165.9C107.7 165.9 115.1 164.5 122 162.1V142.1C113.7 143.5 106.2 147.3 99.9 152.7C93.6 147.3 86.2 143.6 78 142.1V162.1C84.9 164.5 92.3 165.9 100 165.9Z" fill="#3E8EDE"/>
<path d="M156.199 95.3999C154.799 94.8999 153.499 94.4999 153.499 94.4999C136.799 89.4999 118.799 86.8999 99.8992 86.8999C81.2992 86.8999 62.7992 89.4999 46.2992 94.4999C46.2992 94.4999 45.0992 94.8999 43.6992 95.3999L46.7992 98.1999C49.3992 97.3999 52.0992 96.6999 54.7992 95.9999C59.7992 125 76.7992 149.3 100.099 162.1C123.299 149.3 140.399 125 145.399 95.9999C147.999 96.6999 150.599 97.2999 153.099 98.0999L156.199 95.3999Z" fill="#071B2C"/>
<path d="M99.9992 83.5999C116.099 83.5999 131.599 85.4999 146.299 89.0999C146.699 85.6999 146.799 82.1999 146.799 78.6999C146.799 70.8999 145.899 63.3999 144.299 56.1999C139.699 57.7999 134.799 58.6999 129.699 58.6999C118.499 58.6999 108.199 54.4999 99.9992 47.3999C91.7992 54.4999 81.4992 58.6999 70.2992 58.6999C65.1992 58.6999 60.2992 57.7999 55.6992 56.1999C54.0992 63.3999 53.1992 70.8999 53.1992 78.6999C53.1992 82.1999 53.3992 85.6999 53.6992 89.0999C68.3992 85.4999 84.1992 83.5999 99.9992 83.5999Z" fill="#071B2C"/>
<path d="M100.1 34.2002C92.3996 34.2002 84.9996 35.6002 78.0996 38.0002V58.0002C86.3996 56.6002 93.8996 52.8002 100.2 47.4002C106.5 52.8002 113.9 56.5002 122.1 58.0002V38.0002C115.2 35.5002 107.8 34.2002 100.1 34.2002Z" fill="#3E8EDE"/>
<path d="M22.6996 89.2998C22.8996 89.2998 22.9996 89.3998 23.1996 89.3998C23.2996 89.3998 23.3996 89.4998 23.4996 89.4998L23.6996 89.6998C23.8996 89.8998 24.0996 90.0998 24.1996 90.3998C24.2996 90.6998 24.1996 91.0998 24.1996 91.5998L25.6996 91.8998L27.3996 83.7998L25.8996 83.4998C25.7996 83.9998 25.5996 84.3998 25.4996 84.6998C25.3996 84.8998 25.1996 85.0998 24.9996 85.1998C24.8996 85.2998 24.7996 85.2998 24.6996 85.2998H24.2996C24.1996 85.2998 23.9996 85.2998 23.7996 85.1998C23.5996 85.1998 23.2996 85.0998 22.9996 84.9998L16.0996 83.5998C15.6996 83.4998 15.3996 83.3998 15.1996 83.2998C14.9996 83.1998 14.8996 83.0998 14.7996 82.8998C14.5996 82.5998 14.5996 82.0998 14.6996 81.4998C14.7996 80.6998 15.0996 80.2998 15.5996 80.1998C16.1996 79.9998 17.0996 79.9998 18.4996 80.2998C19.4996 80.4998 20.1996 80.7998 20.4996 81.0998C20.7996 81.3998 20.8996 81.8998 20.7996 82.4998C20.6996 82.7998 20.5996 83.1998 20.3996 83.5998L21.8996 84.4998C22.5996 83.7998 22.9996 82.8998 23.2996 81.6998C23.5996 80.0998 23.3996 78.8998 22.7996 77.9998C22.0996 77.0998 20.8996 76.4998 19.0996 76.0998C18.2996 75.8998 17.5996 75.7998 16.8996 75.7998C16.0996 75.7998 15.3996 75.8998 14.7996 76.1998C13.7996 76.6998 13.1996 77.6998 12.8996 79.1998C12.8996 79.3998 12.7996 79.5998 12.7996 79.8998C12.7996 80.1998 12.6996 80.4998 12.6996 80.7998L12.3996 82.2998C12.2996 82.7998 12.1996 83.2998 12.0996 83.9998L11.0996 88.7998L12.5996 89.0998C12.6996 88.5998 12.7996 88.2998 12.9996 88.0998C13.0996 87.8998 13.2996 87.6998 13.4996 87.5998C13.5996 87.5998 13.6996 87.4998 13.7996 87.4998H14.1996C14.3996 87.4998 14.4996 87.4998 14.6996 87.5998C14.8996 87.5998 15.1996 87.6998 15.4996 87.7998L22.2996 89.1998C22.2996 89.1998 22.4996 89.1998 22.6996 89.2998Z" fill="url(#paint2_linear_106_6708)"/>
<path d="M27.9996 69.7999C28.1996 69.8999 28.2996 69.9999 28.3996 69.9999C28.4996 70.0999 28.5996 70.0999 28.5996 70.1999L28.7996 70.3999C28.9996 70.6999 29.0996 70.8999 29.0996 71.1999C29.0996 71.4999 28.9996 71.8999 28.6996 72.2999L29.9996 72.9999L32.7996 67.5999L26.6996 64.4999L28.6996 60.4999L34.7996 63.5999L37.5996 58.1999L36.2996 57.4999C35.9996 57.8999 35.7996 58.1999 35.5996 58.3999C35.3996 58.5999 35.1996 58.6999 34.9996 58.6999H34.6996C34.5996 58.6999 34.4996 58.6999 34.3996 58.5999C34.2996 58.5999 34.0996 58.4999 33.8996 58.3999C33.6996 58.2999 33.4996 58.1999 33.1996 57.9999L27.0996 54.9999C26.7996 54.8999 26.5996 54.6999 26.4996 54.6999C26.2996 54.5999 26.1996 54.4999 26.0996 54.4999C25.9996 54.3999 25.8996 54.3999 25.7996 54.2999C25.7996 54.1999 25.6996 54.1999 25.5996 54.0999C25.3996 53.7999 25.2996 53.5999 25.2996 53.2999C25.2996 52.9999 25.4996 52.5999 25.6996 52.0999L24.3996 51.3999L21.4996 56.8999L26.4996 59.3999L24.3996 63.3999L19.3996 60.7999L16.5996 66.1999L17.8996 66.8999C18.1996 66.4999 18.3996 66.1999 18.4996 65.9999C18.6996 65.7999 18.8996 65.6999 19.0996 65.6999H19.3996C19.4996 65.6999 19.5996 65.6999 19.7996 65.7999C19.8996 65.7999 20.0996 65.8999 20.2996 65.9999C20.4996 66.0999 20.6996 66.1999 20.9996 66.3999L27.0996 69.5999C27.5996 69.5999 27.7996 69.6999 27.9996 69.7999Z" fill="url(#paint3_linear_106_6708)"/>
<path d="M39.8008 50.5999C39.9008 50.6999 40.1008 50.7999 40.1008 50.8999C40.1008 50.9999 40.3008 51.0999 40.3008 51.0999C40.3008 51.1999 40.4008 51.2999 40.4008 51.3999C40.5008 51.6999 40.6008 51.9999 40.5008 52.1999C40.4008 52.4999 40.2008 52.7999 39.9008 53.1999L41.0008 54.1999L46.3008 48.0999L45.2008 47.0999C44.9008 47.3999 44.6008 47.6999 44.4008 47.7999C44.2008 47.9999 44.0008 48.0999 43.7008 47.9999H43.4008C43.3008 47.9999 43.2008 47.8999 43.1008 47.7999C43.0008 47.6999 42.8008 47.5999 42.7008 47.4999C42.5008 47.3999 42.3008 47.1999 42.1008 46.9999L36.9008 42.4999L36.4008 41.9999C36.3008 41.8999 36.1008 41.7999 36.1008 41.6999L35.9008 41.4999C35.9008 41.3999 35.8008 41.2999 35.8008 41.1999C35.7008 40.8999 35.6008 40.5999 35.7008 40.3999C35.8008 40.0999 36.0008 39.7999 36.3008 39.3999L35.1008 38.3999L29.8008 44.4999L30.9008 45.4999C31.2008 45.1999 31.5008 44.8999 31.7008 44.7999C31.9008 44.6999 32.1008 44.5999 32.4008 44.5999C32.5008 44.5999 32.6008 44.5999 32.7008 44.6999C32.8008 44.6999 32.9008 44.7999 33.0008 44.7999C33.1008 44.8999 33.3008 44.9999 33.4008 45.0999C33.6008 45.1999 33.8008 45.3999 34.0008 45.5999L39.2008 50.0999C39.5008 50.2999 39.6008 50.4999 39.8008 50.5999Z" fill="url(#paint4_linear_106_6708)"/>
<path d="M57.3 32.8L55.8 33.9C56.1 34.4 56.3 34.8 56.5 35.1C56.7 35.4 56.6 35.7 56.6 36.1C56.6 36.2 56.6 36.3 56.5 36.4C56.4 36.5 56.4 36.6 56.3 36.7L55.9 37.1C55.7 37.3 55.5 37.4 55.3 37.6L55 37.8C54.8 38 54.6 38.1 54.5 38.2C54.4 38.3 54.2 38.4 54.1 38.4C54 38.4 53.9 38.5 53.8 38.5H53.3C53.2 38.5 53.2 38.4 53.1 38.4C53 38.4 52.9 38.2 52.8 38.1C52.7 38 52.6 37.8 52.4 37.6L48.3 32C48.1 31.8 48 31.6 47.9 31.4C47.8 31.3 47.7 31.1 47.6 31C47.5 30.9 47.5 30.8 47.5 30.7C47.5 30.6 47.5 30.5 47.4 30.4C47.3 30.1 47.4 29.8 47.5 29.6C47.6 29.4 47.9 29.1 48.3 28.7L47.4 27.5L41 32.5L41.9 33.7C42.3 33.4 42.6 33.3 42.8 33.2C43 33.1 43.3 33.1 43.5 33.2C43.6 33.2 43.7 33.3 43.8 33.3C43.9 33.3 44 33.4 44.1 33.5L44.5 33.9C44.6 34.1 44.8 34.3 45 34.6L49.2 40.1C49.4 40.3 49.5 40.5 49.6 40.7C49.7 40.9 49.8 41 49.9 41.1C50 41.2 50 41.3 50 41.4C50 41.5 50 41.6 50.1 41.7C50.2 42 50.1 42.3 50 42.5C49.9 42.7 49.6 43 49.2 43.4L50.1 44.6L60.3 36.9L57.3 32.8Z" fill="url(#paint5_linear_106_6708)"/>
<path d="M71.3 29.5998L71.9 30.9998L79 28.0998L78.4 26.6998C78.1 26.7998 77.8 26.7998 77.6 26.7998C77.4 26.7998 77.1 26.6998 76.9 26.5998C76.7 26.4998 76.4 26.2998 76.2 26.0998C75.9 25.8998 75.6 25.4998 75.3 25.0998L68.8 17.7998L68.4 17.3998L68.1 17.0998C68 16.9998 67.9 16.8998 67.8 16.6998C67.7 16.5998 67.6 16.3998 67.5 16.2998L64.3 17.5998C64.3 17.7998 64.4 17.9998 64.4 18.3998C64.4 18.6998 64.5 19.1998 64.5 19.6998L65 29.3998V30.6998C65 30.9998 64.9 31.2998 64.9 31.4998L64.6 32.0998C64.4 32.2998 64.3 32.3998 64 32.5998L64.6 33.9998L70.3 31.5998L69.7 30.1998C69.1 30.3998 68.7 30.3998 68.5 30.3998C68.3 30.3998 68.1 30.1998 67.9 29.8998C67.8 29.7998 67.8 29.5998 67.7 29.3998C67.7 29.1998 67.6 28.8998 67.6 28.6998V28.2998L71.2 26.7998L71.5 27.0998C72 27.6998 72.2 28.0998 72.3 28.1998C72.4 28.4998 72.4 28.6998 72.2 28.8998C72.1 29.0998 71.8 29.3998 71.3 29.5998ZM67.3 25.8998L67.2 23.2998L67.1 21.3998L67.3 21.5998L67.5 21.7998L67.8 22.1998C67.9 22.2998 68 22.4998 68.1 22.5998L68.4 22.8998L68.6 23.0998C68.6 23.1998 68.7 23.1998 68.8 23.2998L70 24.7998L67.3 25.8998Z" fill="url(#paint6_linear_106_6708)"/>
<path d="M92.2004 26.0002C92.4004 26.0002 92.6004 26.0002 92.8004 25.9002C94.9004 25.7002 96.4004 24.9002 97.2004 23.5002C98.1004 22.1002 98.4004 20.2002 98.1004 17.8002C98.0004 16.7002 97.8004 15.7002 97.5004 14.8002C97.2004 13.9002 96.8004 13.1002 96.4004 12.5002C95.9004 11.8002 95.2004 11.3002 94.4004 11.0002C93.9004 10.8002 93.2004 10.7002 92.5004 10.7002C92.1004 10.7002 91.7004 10.7002 91.3004 10.8002C91.1004 10.8002 90.9004 10.9002 90.5004 10.9002C90.1004 10.9002 89.8004 11.0002 89.5004 11.1002C89.1004 11.2002 88.6004 11.2002 88.0004 11.3002C87.4004 11.4002 86.6004 11.5002 85.7004 11.6002L81.4004 12.0002L81.6004 13.5002H82.7004C82.9004 13.6002 83.1004 13.7002 83.3004 13.9002C83.4004 14.0002 83.4004 14.1002 83.5004 14.2002C83.6004 14.3002 83.6004 14.4002 83.6004 14.5002C83.6004 14.6002 83.7004 14.8002 83.7004 15.0002C83.7004 15.2002 83.8004 15.5002 83.8004 15.8002L84.6004 22.7002C84.6004 23.0002 84.7004 23.2002 84.7004 23.4002V24.2002C84.7004 24.3002 84.6004 24.4002 84.6004 24.5002C84.5004 24.8002 84.3004 25.0002 84.1004 25.1002C83.9004 25.2002 83.5004 25.4002 82.9004 25.4002L83.1004 26.9002L88.4004 26.3002C88.9004 26.2002 89.3004 26.2002 89.8004 26.1002C90.3004 26.0002 90.8004 26.0002 91.3004 26.0002H92.2004ZM90.1004 23.9002H89.8004C89.6004 23.9002 89.4004 23.8002 89.2004 23.6002C89.1004 23.5002 89.0004 23.5002 89.0004 23.4002C88.9004 23.3002 88.9004 23.3002 88.9004 23.2002C88.9004 23.1002 88.8004 23.0002 88.8004 22.8002C88.8004 22.7002 88.7004 22.4002 88.7004 22.2002L87.9004 15.1002C87.9004 14.8002 87.8004 14.5002 87.9004 14.3002C87.9004 14.1002 88.0004 13.9002 88.1004 13.8002C88.2004 13.7002 88.4004 13.6002 88.7004 13.5002C88.9004 13.4002 89.3004 13.4002 89.7004 13.3002C90.4004 13.2002 90.9004 13.2002 91.4004 13.4002C91.9004 13.5002 92.2004 13.8002 92.6004 14.1002C92.9004 14.5002 93.2004 15.0002 93.4004 15.6002C93.6004 16.2002 93.7004 17.1002 93.9004 18.0002C94.0004 19.0002 94.1004 19.9002 94.0004 20.6002C94.0004 21.3002 93.8004 21.9002 93.6004 22.3002C93.4004 22.8002 93.1004 23.1002 92.6004 23.3002C92.2004 23.5002 91.6004 23.7002 91.0004 23.8002C90.5004 23.8002 90.3004 23.9002 90.1004 23.9002Z" fill="url(#paint7_linear_106_6708)"/>
<path d="M118.2 22.5001L116.4 22.2001C116.3 22.7001 116.1 23.2001 116 23.5001C115.9 23.8001 115.7 24.0001 115.5 24.2001C115.3 24.4001 115 24.4001 114.7 24.5001C114.4 24.5001 114 24.5001 113.5 24.4001L112.9 24.3001C112.5 24.2001 112.1 24.2001 111.9 24.1001C111.6 24.0001 111.5 24.0001 111.4 23.8001C111.3 23.7001 111.2 23.5001 111.2 23.3001C111.2 23.1001 111.2 22.8001 111.3 22.5001L111.7 19.8001L114.7 20.3001C115.1 20.4001 115.5 20.4001 115.6 20.5001C115.8 20.5001 116 20.6001 116.2 20.6001L116.6 18.0001H115.9C115.7 18.0001 115.4 18.0001 115.1 17.9001L111.9 17.4001L112.3 14.9001C112.3 14.6001 112.4 14.4001 112.5 14.2001C112.6 14.0001 112.7 13.9001 112.8 13.8001C112.9 13.7001 113.1 13.7001 113.3 13.7001C113.5 13.7001 113.8 13.7001 114.2 13.8001L114.5 13.9001C115 14.0001 115.4 14.1001 115.7 14.2001C116 14.3001 116.2 14.5001 116.4 14.7001C116.6 14.9001 116.7 15.2001 116.7 15.5001C116.7 15.8001 116.8 16.2001 116.8 16.7001L118.6 17.0001L119.3 12.1001C119 12.1001 118.8 12.2001 118.7 12.2001H118.1C117.9 12.2001 117.7 12.2001 117.4 12.1001C117.1 12.1001 116.8 12.0001 116.5 12.0001L106.8 10.6001L106.6 12.1001C107.1 12.2001 107.4 12.3001 107.6 12.4001C107.8 12.5001 108 12.7001 108.1 12.9001C108.1 13.0001 108.2 13.1001 108.2 13.2001C108.2 13.3001 108.3 13.4001 108.3 13.6001V14.1001C108.3 14.3001 108.2 14.6001 108.2 14.9001L107.2 21.7001C107.1 22.0001 107.1 22.2001 107.1 22.4001C107.1 22.6001 107 22.7001 107 22.9001C107 23.0001 106.9 23.1001 106.9 23.2001C106.9 23.3001 106.8 23.3001 106.7 23.4001C106.5 23.7001 106.3 23.8001 106 23.9001C105.7 24.0001 105.3 24.0001 104.8 23.9001L104.6 25.4001L117.5 27.3001L118.2 22.5001Z" fill="url(#paint8_linear_106_6708)"/>
<path d="M136.4 29.1999L134.7 28.4999C134.4 28.9999 134.2 29.3999 134 29.6999C133.8 29.9999 133.5 30.1999 133.2 30.1999C133.1 30.1999 133 30.2999 132.9 30.2999H132.5C132.4 30.2999 132.2 30.1999 132 30.1999C131.8 30.0999 131.6 29.9999 131.3 29.8999L131 29.7999C130.7 29.6999 130.6 29.5999 130.4 29.4999C130.2 29.3999 130.1 29.3999 130 29.2999C129.9 29.1999 129.8 29.1999 129.8 29.0999C129.7 29.0999 129.7 28.9999 129.7 28.8999C129.7 28.7999 129.6 28.7999 129.6 28.6999V28.4999C129.6 28.3999 129.7 28.2999 129.7 28.0999C129.8 27.9999 129.8 27.7999 129.9 27.4999L132.6 20.9999C132.7 20.6999 132.8 20.4999 132.9 20.2999C133 20.0999 133 19.9999 133.1 19.8999C133.2 19.7999 133.2 19.6999 133.3 19.5999L133.5 19.3999C133.7 19.1999 134 19.0999 134.3 19.0999C134.6 19.0999 135 19.1999 135.5 19.3999L136 17.9999L128.5 14.8999L127.9 16.2999C128.3 16.4999 128.6 16.6999 128.8 16.7999C129 16.9999 129.1 17.1999 129.2 17.3999V18.0999C129.2 18.1999 129.1 18.3999 129 18.5999C128.9 18.7999 128.8 19.0999 128.7 19.3999L126.1 25.7999C126 26.0999 125.9 26.2999 125.8 26.4999C125.7 26.6999 125.6 26.7999 125.6 26.8999C125.5 26.9999 125.5 27.0999 125.4 27.1999C125.3 27.1999 125.3 27.2999 125.2 27.3999C125 27.5999 124.7 27.6999 124.4 27.6999C124.1 27.6999 123.7 27.5999 123.2 27.3999L122.6 28.7999L134.4 33.6999L136.4 29.1999Z" fill="url(#paint9_linear_106_6708)"/>
<path d="M152.8 39.2C153.9 39 155 38.1 156.1 36.7C157.2 35.2 157.8 33.9 157.7 32.8C157.6 31.7 157 30.7 155.8 29.8C155.7 29.7 155.4 29.5 155.2 29.4C155 29.2 154.7 29.1 154.5 28.9C154.1 28.6 153.6 28.3 153.2 28C152.8 27.7 152.3 27.4 151.8 27L147.9 24L147 25.2C147.4 25.5 147.6 25.8 147.8 26C147.9 26.2 148 26.4 148 26.7V27C148 27.1 147.9 27.2 147.9 27.3C147.9 27.4 147.7 27.6 147.6 27.8C147.5 28 147.3 28.2 147.1 28.5L143 34C142.8 34.2 142.7 34.4 142.6 34.6C142.5 34.7 142.4 34.9 142.3 35L142.1 35.2C142 35.2 142 35.3 141.9 35.3C141.6 35.4 141.4 35.5 141.1 35.4C140.8 35.3 140.5 35.2 140 34.9L139.1 36.1L145.7 41L146.6 39.8C146.2 39.5 145.9 39.2 145.7 39C145.6 38.8 145.5 38.5 145.5 38.3V38C145.5 37.9 145.6 37.8 145.6 37.7C145.6 37.6 145.8 37.4 145.9 37.3C146 37.1 146.2 36.9 146.4 36.6L147 35.8C147.5 36.6 148.6 37.6 149.4 38.2C150.5 39.1 151.7 39.5 152.8 39.2ZM147.8 34.4L150.5 30.8C150.8 30.5 150.9 30.2 151.1 30.1C151.2 30 151.4 29.9 151.6 29.9C152 29.9 152.4 30.1 152.9 30.5C153.5 31 153.8 31.4 153.7 31.9C153.6 32.5 153.2 33.4 152.4 34.5C151.8 35.3 151.3 35.8 150.8 36C150.4 36.2 149.9 36.1 149.4 35.7C149.4 35.5 148.4 34.9 147.8 34.4Z" fill="url(#paint10_linear_106_6708)"/>
<path d="M164.8 59.3C164.7 59.1 164.7 58.8 164.8 58.6C164.8 58.5 164.9 58.4 164.9 58.3C164.9 58.2 165 58.1 165.1 58C165.2 57.9 165.3 57.8 165.5 57.7C165.7 57.6 165.9 57.4 166.1 57.2L171.6 53C171.8 52.8 172 52.7 172.2 52.6C172.4 52.5 172.5 52.4 172.6 52.3C172.7 52.2 172.8 52.2 172.9 52.2C173 52.2 173.1 52.2 173.2 52.1C173.5 52 173.8 52.1 174 52.2C174.2 52.3 174.5 52.6 174.9 53L176.1 52.1L172.4 47.3L167.9 50.7L165.2 47.2L169.7 43.8L166 39L164.8 39.9C165.1 40.3 165.2 40.6 165.3 40.8C165.4 41 165.4 41.3 165.3 41.5C165.3 41.6 165.2 41.7 165.2 41.8C165.2 41.9 165.1 42 165 42.1C164.9 42.2 164.8 42.3 164.6 42.4C164.4 42.5 164.2 42.7 164 42.9L158.5 47.1C158.3 47.3 158.1 47.4 157.9 47.5C157.8 47.6 157.6 47.7 157.5 47.8C157.4 47.9 157.3 47.9 157.2 47.9C157.1 47.9 157 47.9 156.9 48C156.6 48.1 156.3 48 156.1 47.9C155.9 47.8 155.6 47.5 155.2 47.1L154 48L157.7 52.8L163.1 48.6L165.8 52.1L160.4 56.3L164.1 61.2L165.3 60.3C165.1 59.9 164.9 59.6 164.8 59.3Z" fill="url(#paint11_linear_106_6708)"/>
<path d="M179.601 66.7998C179.801 66.6998 179.901 66.6998 180.001 66.5998C180.101 66.4998 180.201 66.4998 180.301 66.4998H180.601C180.901 66.4998 181.201 66.5998 181.401 66.7998C181.601 66.9998 181.801 67.2998 182.101 67.7998L183.501 67.1998L180.201 59.7998L178.801 60.3998C179.001 60.8998 179.101 61.1998 179.101 61.3998C179.101 61.5998 179.101 61.8998 179.001 62.0998C178.901 62.1998 178.901 62.2998 178.801 62.3998C178.701 62.4998 178.701 62.5998 178.501 62.5998C178.401 62.6998 178.201 62.7998 178.001 62.8998C177.801 62.9998 177.601 63.0998 177.201 63.1998L170.901 65.9998C170.601 66.0998 170.401 66.1998 170.201 66.2998C170.001 66.3998 169.901 66.3998 169.801 66.4998C169.701 66.5998 169.601 66.5998 169.501 66.5998H169.201C168.901 66.5998 168.601 66.4998 168.401 66.2998C168.201 66.0998 168.001 65.7998 167.701 65.2998L166.301 65.8998L169.601 73.2998L171.001 72.6998C170.801 72.2998 170.701 71.8998 170.701 71.6998C170.701 71.4998 170.701 71.1998 170.801 70.9998C170.901 70.8998 170.901 70.7998 171.001 70.6998C171.101 70.5998 171.101 70.5998 171.301 70.4998C171.401 70.3998 171.601 70.2998 171.701 70.1998C171.801 70.0998 172.101 69.9998 172.501 69.8998L178.801 67.0998C179.201 66.8998 179.401 66.7998 179.601 66.7998Z" fill="url(#paint12_linear_106_6708)"/>
<path d="M187 84.2C187.1 84.1 187.3 84.1 187.4 84C187.5 83.9 187.7 83.9 187.8 83.8C187.9 83.7 188.1 83.7 188.2 83.6L187.5 80.2H186.7C186.4 80.2 185.9 80.1 185.4 80L175.8 78.6C175.3 78.5 174.9 78.4 174.6 78.4C174.3 78.4 174 78.2 173.8 78.1C173.6 78 173.4 77.8 173.3 77.7C173.2 77.5 173 77.3 172.9 77L171.4 77.3L172.6 83.4L174.1 83.1C174 82.5 174 82.1 174.1 81.9C174.2 81.7 174.4 81.5 174.7 81.5C174.9 81.5 175.1 81.4 175.3 81.4C175.5 81.4 175.8 81.4 176 81.5L176.4 81.6L177.2 85.4L176.8 85.6C176.2 85.9 175.7 86.1 175.5 86.2C175.2 86.3 175 86.2 174.8 86C174.6 85.8 174.5 85.5 174.3 84.9L172.8 85.2L174.3 92.7L175.8 92.4C175.8 92.1 175.8 91.8 175.9 91.6C176 91.4 176.1 91.2 176.2 90.9C176.3 90.7 176.6 90.5 176.9 90.3C177.2 90.1 177.5 89.8 178 89.6L186.4 84.6C186.7 84.4 186.9 84.3 187 84.2ZM183.1 82.3C183 82.3 182.9 82.4 182.8 82.4L182.4 82.6C182.3 82.7 182.1 82.8 181.9 82.9L181.5 83.1C181.4 83.2 181.4 83.2 181.3 83.2C181.2 83.2 181.2 83.3 181.1 83.3L179.4 84.2L178.8 81.5L181.4 81.9L183.3 82.2C183.3 82.3 183.2 82.3 183.1 82.3Z" fill="url(#paint13_linear_106_6708)"/>
<path d="M20.3992 110.7L24.8992 108.7L20.0992 107.7L19.4992 102.8L17.0992 107.1L12.1992 106.1L15.5992 109.8L13.0992 114.1L17.5992 112L20.9992 115.7L20.3992 110.7Z" fill="url(#paint14_linear_106_6708)"/>
<path d="M22.8992 131.5L27.0992 134.2L25.2992 129.6L29.1992 126.5L24.1992 126.7L22.4992 122.1L21.0992 126.8L16.1992 127.1L20.3992 129.8L18.9992 134.6L22.8992 131.5Z" fill="url(#paint15_linear_106_6708)"/>
<path d="M32.6996 149.1L37.3996 150.8L34.4996 146.7L37.5996 142.7L32.7996 144.1L29.9996 140.1L29.8996 145L25.0996 146.4L29.7996 148.1L29.6996 153.1L32.6996 149.1Z" fill="url(#paint16_linear_106_6708)"/>
<path d="M51.4004 164.3L47.6004 161L49.6004 156.5L45.3004 159L41.6004 155.7L42.7004 160.6L38.4004 163.1L43.4004 163.6L44.5004 168.4L46.4004 163.9L51.4004 164.3Z" fill="url(#paint17_linear_106_6708)"/>
<path d="M63.3004 174.9L68.2004 174.1L63.8004 171.8L64.6004 166.9L61.1004 170.4L56.7004 168.1L58.9004 172.6L55.4004 176.1L60.3004 175.3L62.5004 179.8L63.3004 174.9Z" fill="url(#paint18_linear_106_6708)"/>
<path d="M82.3008 181.5L86.9008 179.6L82.1008 178.4L81.7008 173.5L79.1008 177.7L74.3008 176.6L77.5008 180.3L74.9008 184.6L79.5008 182.7L82.7008 186.4L82.3008 181.5Z" fill="url(#paint19_linear_106_6708)"/>
<path d="M99.9004 185.2L104 188.1L102.4 183.4L106.4 180.4H101.4L99.9004 175.8L98.4004 180.5H93.4004L97.4004 183.4L95.9004 188.1L99.9004 185.2Z" fill="url(#paint20_linear_106_6708)"/>
<path d="M120.4 182.7L125 184.6L122.3 180.4L125.5 176.5L120.7 177.8L118 173.6L117.7 178.5L112.9 179.7L117.5 181.6L117.2 186.5L120.4 182.7Z" fill="url(#paint21_linear_106_6708)"/>
<path d="M144.5 176.1L140.9 172.6L143.1 168.2L138.7 170.5L135.2 167.1L136 171.9L131.6 174.3L136.6 175L137.4 179.9L139.6 175.4L144.5 176.1Z" fill="url(#paint22_linear_106_6708)"/>
<path d="M156.5 163.7L161.5 163.1L157.2 160.7L158.2 155.8L154.5 159.1L150.2 156.7L152.2 161.2L148.5 164.5L153.5 164L155.5 168.5L156.5 163.7Z" fill="url(#paint23_linear_106_6708)"/>
<path d="M170.101 148.2L174.801 146.5L170.001 145.1L169.901 140.2L167.101 144.3L162.301 142.9L165.401 146.8L162.601 151L167.201 149.3L170.301 153.2L170.101 148.2Z" fill="url(#paint24_linear_106_6708)"/>
<path d="M179.601 129.9L183.701 127.2L178.801 127L177.401 122.2L175.701 126.9L170.801 126.7L174.601 129.8L172.901 134.4L177.101 131.6L181.001 134.7L179.601 129.9Z" fill="url(#paint25_linear_106_6708)"/>
<path d="M182.4 112.2L186.9 114.2L184.4 109.9L187.8 106.2L182.9 107.3L180.4 102.9L179.9 107.9L175 108.9L179.6 110.9L179 115.9L182.4 112.2Z" fill="url(#paint26_linear_106_6708)"/>
<path d="M75.1008 79.1002V62.7002L72.1008 63.1002V78.8002L69.3008 79.2002V63.5002L66.3008 63.9002V80.3002C66.3008 81.2002 66.9008 81.8002 67.8008 81.8002H68.1008L73.3008 81.0002C74.4008 80.9002 75.1008 80.1002 75.1008 79.1002Z" fill="url(#paint27_linear_106_6708)"/>
<path d="M91.0008 79.4998V61.2998L88.2008 61.4998V70.2998L84.0008 61.7998L82.3008 61.8998V79.9998L85.2008 79.8998V71.2998L89.3008 79.5998L91.0008 79.4998Z" fill="url(#paint28_linear_106_6708)"/>
<path d="M101.4 61.2002H98.4004V79.3002H101.4V61.2002Z" fill="url(#paint29_linear_106_6708)"/>
<path d="M116.3 79.7999C117.1 79.7999 118 79.1999 118 78.1999V63.4999C118 62.3999 117 61.7999 116.2 61.6999L110.6 61.3999C109.8 61.3999 108.9 61.9999 108.9 62.9999V77.7999C108.9 78.8999 109.9 79.4999 110.7 79.5999L116.3 79.7999ZM115.1 77.2999L112 77.0999V63.7999L115.1 63.9999V77.2999Z" fill="url(#paint30_linear_106_6708)"/>
<path d="M131.101 63.3V72.1L127.001 62.7L125.301 62.5V80.7L128.101 81V72.6L132.201 81.6L133.901 81.8V63.7L131.101 63.3Z" fill="url(#paint31_linear_106_6708)"/>
<path d="M72.6008 105.7C75.1008 105.4 79.6008 103.4 82.3008 101.8C82.0008 101.7 81.8008 101.5 81.5008 101.3C77.6008 102.8 73.4008 103.1 70.3008 102.7C70.6008 102.8 71.0008 103 71.4008 103.1C72.6008 103.4 74.0008 103.7 75.8008 103.4L76.5008 103.3L75.9008 103.8C75.4008 104.3 74.0008 105.2 72.6008 105.7Z" fill="url(#paint32_linear_106_6708)"/>
<path d="M117.999 132.2C117.999 131.1 117.699 129.9 116.999 128.8C114.399 133.2 106.999 136.3 98.7992 136.3C90.5992 136.3 83.1992 133.2 80.6992 128.8C79.9992 129.9 79.6992 131.1 79.6992 132.2C79.6992 134.1 80.4992 136 82.1992 137.6C85.5992 141 91.9992 143.1 98.7992 143.1C109.399 143.1 117.999 138.2 117.999 132.2Z" fill="url(#paint33_linear_106_6708)"/>
<path d="M119.199 125.1C119.799 126.1 120.399 127.5 120.799 129.1C121.099 129.1 121.599 129.2 122.299 129.2C124.099 129.2 126.799 128.8 129.499 127.3C127.499 127.3 123.499 127 119.199 125.1Z" fill="url(#paint34_linear_106_6708)"/>
<path d="M116.3 123.2C116.3 119.8 113 117.2 107.9 115.8C106.7 116.3 105.3 116.7 103.8 117.2C102.4 117.6 100.8 118.2 99.0996 118.8C95.2996 120.2 94.4996 121.4 94.3996 122C94.2996 122.4 94.4996 122.7 94.5996 122.8C96.0996 122 98.1996 121.3 100.5 121.1C101.2 121 101.8 121 102.5 121C106.1 121 108.4 122 108.4 123.6C108.4 124 108.2 124.5 107.8 124.9C106.6 126.1 103.5 126.9 99.9996 126.9C96.9996 126.9 94.1996 126 92.6996 124.5C91.8996 123.7 91.4996 122.8 91.4996 121.9C91.4996 118.6 96.2996 117 99.3996 115.9C99.7996 115.8 100.2 115.6 100.5 115.5C103.3 114.5 106.6 113.3 106.6 113.3C112 111.6 114.8 106.9 114.1 102.5C113.3 97.1998 108.1 93.4998 101.5 93.4998C100.9 93.4998 100.2 93.4998 99.5996 93.5998C99.5996 93.5998 98.9996 93.6998 98.2996 93.6998C97.4996 93.6998 96.9996 93.5998 96.4996 93.3998C95.4996 92.8998 94.5996 92.7998 94.5996 92.7998C86.8996 94.4998 82.3996 97.7998 81.5996 98.3998C81.8996 99.0998 83.0996 101.5 86.8996 101C88.2996 100.8 89.4996 100.8 90.4996 100.7C92.7996 100.6 93.9996 100.6 95.7996 98.5998C96.9996 97.1998 98.5996 97.0998 98.9996 97.0998H99.0996C104.1 97.0998 108.5 99.8998 108.6 103.3C108.6 104.8 107.9 106.3 106.5 107.4C105.4 108.3 103.7 108.9 102.3 109.5C102.3 109.5 98.7996 110.7 95.9996 111.8C95.7996 111.8 82.3996 116.1 82.3996 124.2C82.3996 125.8 83.0996 127.4 84.4996 128.7C87.4996 131.7 93.1996 133.5 99.3996 133.3C108.7 132.9 116.3 128.4 116.3 123.2ZM91.3996 96.6998C91.0996 96.8998 90.2996 96.8998 89.3996 96.8998C88.1996 96.8998 86.9996 96.7998 86.9996 96.7998C86.9996 96.7998 89.7996 95.3998 92.3996 94.6998C92.3996 94.6998 91.9996 96.2998 91.3996 96.6998Z" fill="url(#paint35_linear_106_6708)"/>
</g>
<defs>
<linearGradient id="paint0_linear_106_6708" x1="0.415896" y1="0.472104" x2="192.36" y2="192.416" gradientUnits="userSpaceOnUse">
<stop stop-color="#BDA267"/>
<stop offset="0.0739" stop-color="#BDA267"/>
<stop offset="0.1379" stop-color="#CBB580"/>
<stop offset="0.2729" stop-color="#F0E4BE"/>
<stop offset="0.2746" stop-color="#F0E5BF"/>
<stop offset="0.3925" stop-color="#CDB782"/>
<stop offset="0.4557" stop-color="#BDA267"/>
<stop offset="0.6613" stop-color="#F0E5BF"/>
<stop offset="0.853" stop-color="#CDB782"/>
<stop offset="0.9557" stop-color="#BDA267"/>
<stop offset="1" stop-color="#BDA267"/>
</linearGradient>
<linearGradient id="paint1_linear_106_6708" x1="0.415113" y1="0.472298" x2="192.359" y2="192.416" gradientUnits="userSpaceOnUse">
<stop stop-color="#BDA267"/>
<stop offset="0.0739" stop-color="#BDA267"/>
<stop offset="0.1379" stop-color="#CBB580"/>
<stop offset="0.2729" stop-color="#F0E4BE"/>
<stop offset="0.2746" stop-color="#F0E5BF"/>
<stop offset="0.3925" stop-color="#CDB782"/>
<stop offset="0.4557" stop-color="#BDA267"/>
<stop offset="0.6613" stop-color="#F0E5BF"/>
<stop offset="0.853" stop-color="#CDB782"/>
<stop offset="0.9557" stop-color="#BDA267"/>
<stop offset="1" stop-color="#BDA267"/>
</linearGradient>
<linearGradient id="paint2_linear_106_6708" x1="-32.7336" y1="33.7462" x2="159.21" y2="225.69" gradientUnits="userSpaceOnUse">
<stop stop-color="#BDA267"/>
<stop offset="0.0739" stop-color="#BDA267"/>
<stop offset="0.1379" stop-color="#CBB580"/>
<stop offset="0.2729" stop-color="#F0E4BE"/>
<stop offset="0.2746" stop-color="#F0E5BF"/>
<stop offset="0.3925" stop-color="#CDB782"/>
<stop offset="0.4557" stop-color="#BDA267"/>
<stop offset="0.6613" stop-color="#F0E5BF"/>
<stop offset="0.853" stop-color="#CDB782"/>
<stop offset="0.9557" stop-color="#BDA267"/>
<stop offset="1" stop-color="#BDA267"/>
</linearGradient>
<linearGradient id="paint3_linear_106_6708" x1="-16.9775" y1="17.9886" x2="174.967" y2="209.933" gradientUnits="userSpaceOnUse">
<stop stop-color="#BDA267"/>
<stop offset="0.0739" stop-color="#BDA267"/>
<stop offset="0.1379" stop-color="#CBB580"/>
<stop offset="0.2729" stop-color="#F0E4BE"/>
<stop offset="0.2746" stop-color="#F0E5BF"/>
<stop offset="0.3925" stop-color="#CDB782"/>
<stop offset="0.4557" stop-color="#BDA267"/>
<stop offset="0.6613" stop-color="#F0E5BF"/>
<stop offset="0.853" stop-color="#CDB782"/>
<stop offset="0.9557" stop-color="#BDA267"/>
<stop offset="1" stop-color="#BDA267"/>
</linearGradient>
<linearGradient id="paint4_linear_106_6708" x1="-3.59488" y1="4.65233" x2="188.349" y2="196.596" gradientUnits="userSpaceOnUse">
<stop stop-color="#BDA267"/>
<stop offset="0.0739" stop-color="#BDA267"/>
<stop offset="0.1379" stop-color="#CBB580"/>
<stop offset="0.2729" stop-color="#F0E4BE"/>
<stop offset="0.2746" stop-color="#F0E5BF"/>
<stop offset="0.3925" stop-color="#CDB782"/>
<stop offset="0.4557" stop-color="#BDA267"/>
<stop offset="0.6613" stop-color="#F0E5BF"/>
<stop offset="0.853" stop-color="#CDB782"/>
<stop offset="0.9557" stop-color="#BDA267"/>
<stop offset="1" stop-color="#BDA267"/>
</linearGradient>
<linearGradient id="paint5_linear_106_6708" x1="7.96279" y1="-6.95813" x2="199.907" y2="184.986" gradientUnits="userSpaceOnUse">
<stop stop-color="#BDA267"/>
<stop offset="0.0739" stop-color="#BDA267"/>
<stop offset="0.1379" stop-color="#CBB580"/>
<stop offset="0.2729" stop-color="#F0E4BE"/>
<stop offset="0.2746" stop-color="#F0E5BF"/>
<stop offset="0.3925" stop-color="#CDB782"/>
<stop offset="0.4557" stop-color="#BDA267"/>
<stop offset="0.6613" stop-color="#F0E5BF"/>
<stop offset="0.853" stop-color="#CDB782"/>
<stop offset="0.9557" stop-color="#BDA267"/>
<stop offset="1" stop-color="#BDA267"/>
</linearGradient>
<linearGradient id="paint6_linear_106_6708" x1="21.0142" y1="-20.0022" x2="212.958" y2="171.942" gradientUnits="userSpaceOnUse">
<stop stop-color="#BDA267"/>
<stop offset="0.0739" stop-color="#BDA267"/>
<stop offset="0.1379" stop-color="#CBB580"/>
<stop offset="0.2729" stop-color="#F0E4BE"/>
<stop offset="0.2746" stop-color="#F0E5BF"/>
<stop offset="0.3925" stop-color="#CDB782"/>
<stop offset="0.4557" stop-color="#BDA267"/>
<stop offset="0.6613" stop-color="#F0E5BF"/>
<stop offset="0.853" stop-color="#CDB782"/>
<stop offset="0.9557" stop-color="#BDA267"/>
<stop offset="1" stop-color="#BDA267"/>
</linearGradient>
<linearGradient id="paint7_linear_106_6708" x1="35.4542" y1="-34.527" x2="227.391" y2="157.41" gradientUnits="userSpaceOnUse">
<stop stop-color="#BDA267"/>
<stop offset="0.0739" stop-color="#BDA267"/>
<stop offset="0.1379" stop-color="#CBB580"/>
<stop offset="0.2729" stop-color="#F0E4BE"/>
<stop offset="0.2746" stop-color="#F0E5BF"/>
<stop offset="0.3925" stop-color="#CDB782"/>
<stop offset="0.4557" stop-color="#BDA267"/>
<stop offset="0.6613" stop-color="#F0E5BF"/>
<stop offset="0.853" stop-color="#CDB782"/>
<stop offset="0.9557" stop-color="#BDA267"/>
<stop offset="1" stop-color="#BDA267"/>
</linearGradient>
<linearGradient id="paint8_linear_106_6708" x1="47.1654" y1="-46.2292" x2="239.109" y2="145.715" gradientUnits="userSpaceOnUse">
<stop stop-color="#BDA267"/>
<stop offset="0.0739" stop-color="#BDA267"/>
<stop offset="0.1379" stop-color="#CBB580"/>
<stop offset="0.2729" stop-color="#F0E4BE"/>
<stop offset="0.2746" stop-color="#F0E5BF"/>
<stop offset="0.3925" stop-color="#CDB782"/>
<stop offset="0.4557" stop-color="#BDA267"/>
<stop offset="0.6613" stop-color="#F0E5BF"/>
<stop offset="0.853" stop-color="#CDB782"/>
<stop offset="0.9557" stop-color="#BDA267"/>
<stop offset="1" stop-color="#BDA267"/>
</linearGradient>
<linearGradient id="paint9_linear_106_6708" x1="53.5472" y1="-52.4257" x2="245.491" y2="139.518" gradientUnits="userSpaceOnUse">
<stop stop-color="#BDA267"/>
<stop offset="0.0739" stop-color="#BDA267"/>
<stop offset="0.1379" stop-color="#CBB580"/>
<stop offset="0.2729" stop-color="#F0E4BE"/>
<stop offset="0.2746" stop-color="#F0E5BF"/>
<stop offset="0.3925" stop-color="#CDB782"/>
<stop offset="0.4557" stop-color="#BDA267"/>
<stop offset="0.6613" stop-color="#F0E5BF"/>
<stop offset="0.853" stop-color="#CDB782"/>
<stop offset="0.9557" stop-color="#BDA267"/>
<stop offset="1" stop-color="#BDA267"/>
</linearGradient>
<linearGradient id="paint10_linear_106_6708" x1="57.8091" y1="-56.7278" x2="249.753" y2="135.216" gradientUnits="userSpaceOnUse">
<stop stop-color="#BDA267"/>
<stop offset="0.0739" stop-color="#BDA267"/>
<stop offset="0.1379" stop-color="#CBB580"/>
<stop offset="0.2729" stop-color="#F0E4BE"/>
<stop offset="0.2746" stop-color="#F0E5BF"/>
<stop offset="0.3925" stop-color="#CDB782"/>
<stop offset="0.4557" stop-color="#BDA267"/>
<stop offset="0.6613" stop-color="#F0E5BF"/>
<stop offset="0.853" stop-color="#CDB782"/>
<stop offset="0.9557" stop-color="#BDA267"/>
<stop offset="1" stop-color="#BDA267"/>
</linearGradient>
<linearGradient id="paint11_linear_106_6708" x1="57.9844" y1="-57.0845" x2="249.928" y2="134.86" gradientUnits="userSpaceOnUse">
<stop stop-color="#BDA267"/>
<stop offset="0.0739" stop-color="#BDA267"/>
<stop offset="0.1379" stop-color="#CBB580"/>
<stop offset="0.2729" stop-color="#F0E4BE"/>
<stop offset="0.2746" stop-color="#F0E5BF"/>
<stop offset="0.3925" stop-color="#CDB782"/>
<stop offset="0.4557" stop-color="#BDA267"/>
<stop offset="0.6613" stop-color="#F0E5BF"/>
<stop offset="0.853" stop-color="#CDB782"/>
<stop offset="0.9557" stop-color="#BDA267"/>
<stop offset="1" stop-color="#BDA267"/>
</linearGradient>
<linearGradient id="paint12_linear_106_6708" x1="54.7445" y1="-53.6908" x2="246.689" y2="138.253" gradientUnits="userSpaceOnUse">
<stop stop-color="#BDA267"/>
<stop offset="0.0739" stop-color="#BDA267"/>
<stop offset="0.1379" stop-color="#CBB580"/>
<stop offset="0.2729" stop-color="#F0E4BE"/>
<stop offset="0.2746" stop-color="#F0E5BF"/>
<stop offset="0.3925" stop-color="#CDB782"/>
<stop offset="0.4557" stop-color="#BDA267"/>
<stop offset="0.6613" stop-color="#F0E5BF"/>
<stop offset="0.853" stop-color="#CDB782"/>
<stop offset="0.9557" stop-color="#BDA267"/>
<stop offset="1" stop-color="#BDA267"/>
</linearGradient>
<linearGradient id="paint13_linear_106_6708" x1="47.8086" y1="-46.7056" x2="239.753" y2="145.239" gradientUnits="userSpaceOnUse">
<stop stop-color="#BDA267"/>
<stop offset="0.0739" stop-color="#BDA267"/>
<stop offset="0.1379" stop-color="#CBB580"/>
<stop offset="0.2729" stop-color="#F0E4BE"/>
<stop offset="0.2746" stop-color="#F0E5BF"/>
<stop offset="0.3925" stop-color="#CDB782"/>
<stop offset="0.4557" stop-color="#BDA267"/>
<stop offset="0.6613" stop-color="#F0E5BF"/>
<stop offset="0.853" stop-color="#CDB782"/>
<stop offset="0.9557" stop-color="#BDA267"/>
<stop offset="1" stop-color="#BDA267"/>
</linearGradient>
<linearGradient id="paint14_linear_106_6708" x1="-45.5196" y1="46.6527" x2="146.424" y2="238.597" gradientUnits="userSpaceOnUse">
<stop stop-color="#BDA267"/>
<stop offset="0.0739" stop-color="#BDA267"/>
<stop offset="0.1379" stop-color="#CBB580"/>
<stop offset="0.2729" stop-color="#F0E4BE"/>
<stop offset="0.2746" stop-color="#F0E5BF"/>
<stop offset="0.3925" stop-color="#CDB782"/>
<stop offset="0.4557" stop-color="#BDA267"/>
<stop offset="0.6613" stop-color="#F0E5BF"/>
<stop offset="0.853" stop-color="#CDB782"/>
<stop offset="0.9557" stop-color="#BDA267"/>
<stop offset="1" stop-color="#BDA267"/>
</linearGradient>
<linearGradient id="paint15_linear_106_6708" x1="-52.6723" y1="53.6357" x2="139.272" y2="245.58" gradientUnits="userSpaceOnUse">
<stop stop-color="#BDA267"/>
<stop offset="0.0739" stop-color="#BDA267"/>
<stop offset="0.1379" stop-color="#CBB580"/>
<stop offset="0.2729" stop-color="#F0E4BE"/>
<stop offset="0.2746" stop-color="#F0E5BF"/>
<stop offset="0.3925" stop-color="#CDB782"/>
<stop offset="0.4557" stop-color="#BDA267"/>
<stop offset="0.6613" stop-color="#F0E5BF"/>
<stop offset="0.853" stop-color="#CDB782"/>
<stop offset="0.9557" stop-color="#BDA267"/>
<stop offset="1" stop-color="#BDA267"/>
</linearGradient>
<linearGradient id="paint16_linear_106_6708" x1="-56.5882" y1="57.63" x2="135.356" y2="249.574" gradientUnits="userSpaceOnUse">
<stop stop-color="#BDA267"/>
<stop offset="0.0739" stop-color="#BDA267"/>
<stop offset="0.1379" stop-color="#CBB580"/>
<stop offset="0.2729" stop-color="#F0E4BE"/>
<stop offset="0.2746" stop-color="#F0E5BF"/>
<stop offset="0.3925" stop-color="#CDB782"/>
<stop offset="0.4557" stop-color="#BDA267"/>
<stop offset="0.6613" stop-color="#F0E5BF"/>
<stop offset="0.853" stop-color="#CDB782"/>
<stop offset="0.9557" stop-color="#BDA267"/>
<stop offset="1" stop-color="#BDA267"/>
</linearGradient>
<linearGradient id="paint17_linear_106_6708" x1="-57.294" y1="58.2615" x2="134.65" y2="250.206" gradientUnits="userSpaceOnUse">
<stop stop-color="#BDA267"/>
<stop offset="0.0739" stop-color="#BDA267"/>
<stop offset="0.1379" stop-color="#CBB580"/>
<stop offset="0.2729" stop-color="#F0E4BE"/>
<stop offset="0.2746" stop-color="#F0E5BF"/>
<stop offset="0.3925" stop-color="#CDB782"/>
<stop offset="0.4557" stop-color="#BDA267"/>
<stop offset="0.6613" stop-color="#F0E5BF"/>
<stop offset="0.853" stop-color="#CDB782"/>
<stop offset="0.9557" stop-color="#BDA267"/>
<stop offset="1" stop-color="#BDA267"/>
</linearGradient>
<linearGradient id="paint18_linear_106_6708" x1="-55.1741" y1="56.3669" x2="136.77" y2="248.311" gradientUnits="userSpaceOnUse">
<stop stop-color="#BDA267"/>
<stop offset="0.0739" stop-color="#BDA267"/>
<stop offset="0.1379" stop-color="#CBB580"/>
<stop offset="0.2729" stop-color="#F0E4BE"/>
<stop offset="0.2746" stop-color="#F0E5BF"/>
<stop offset="0.3925" stop-color="#CDB782"/>
<stop offset="0.4557" stop-color="#BDA267"/>
<stop offset="0.6613" stop-color="#F0E5BF"/>
<stop offset="0.853" stop-color="#CDB782"/>
<stop offset="0.9557" stop-color="#BDA267"/>
<stop offset="1" stop-color="#BDA267"/>
</linearGradient>
<linearGradient id="paint19_linear_106_6708" x1="-49.9505" y1="50.9064" x2="141.993" y2="242.85" gradientUnits="userSpaceOnUse">
<stop stop-color="#BDA267"/>
<stop offset="0.0739" stop-color="#BDA267"/>
<stop offset="0.1379" stop-color="#CBB580"/>
<stop offset="0.2729" stop-color="#F0E4BE"/>
<stop offset="0.2746" stop-color="#F0E5BF"/>
<stop offset="0.3925" stop-color="#CDB782"/>
<stop offset="0.4557" stop-color="#BDA267"/>
<stop offset="0.6613" stop-color="#F0E5BF"/>
<stop offset="0.853" stop-color="#CDB782"/>
<stop offset="0.9557" stop-color="#BDA267"/>
<stop offset="1" stop-color="#BDA267"/>
</linearGradient>
<linearGradient id="paint20_linear_106_6708" x1="-41.0816" y1="41.9938" x2="150.863" y2="233.938" gradientUnits="userSpaceOnUse">
<stop stop-color="#BDA267"/>
<stop offset="0.0739" stop-color="#BDA267"/>
<stop offset="0.1379" stop-color="#CBB580"/>
<stop offset="0.2729" stop-color="#F0E4BE"/>
<stop offset="0.2746" stop-color="#F0E5BF"/>
<stop offset="0.3925" stop-color="#CDB782"/>
<stop offset="0.4557" stop-color="#BDA267"/>
<stop offset="0.6613" stop-color="#F0E5BF"/>
<stop offset="0.853" stop-color="#CDB782"/>
<stop offset="0.9557" stop-color="#BDA267"/>
<stop offset="1" stop-color="#BDA267"/>
</linearGradient>
<linearGradient id="paint21_linear_106_6708" x1="-29.6029" y1="30.5543" x2="162.341" y2="222.498" gradientUnits="userSpaceOnUse">
<stop stop-color="#BDA267"/>
<stop offset="0.0739" stop-color="#BDA267"/>
<stop offset="0.1379" stop-color="#CBB580"/>
<stop offset="0.2729" stop-color="#F0E4BE"/>
<stop offset="0.2746" stop-color="#F0E5BF"/>
<stop offset="0.3925" stop-color="#CDB782"/>
<stop offset="0.4557" stop-color="#BDA267"/>
<stop offset="0.6613" stop-color="#F0E5BF"/>
<stop offset="0.853" stop-color="#CDB782"/>
<stop offset="0.9557" stop-color="#BDA267"/>
<stop offset="1" stop-color="#BDA267"/>
</linearGradient>
<linearGradient id="paint22_linear_106_6708" x1="-16.488" y1="17.3554" x2="175.456" y2="209.299" gradientUnits="userSpaceOnUse">
<stop stop-color="#BDA267"/>
<stop offset="0.0739" stop-color="#BDA267"/>
<stop offset="0.1379" stop-color="#CBB580"/>
<stop offset="0.2729" stop-color="#F0E4BE"/>
<stop offset="0.2746" stop-color="#F0E5BF"/>
<stop offset="0.3925" stop-color="#CDB782"/>
<stop offset="0.4557" stop-color="#BDA267"/>
<stop offset="0.6613" stop-color="#F0E5BF"/>
<stop offset="0.853" stop-color="#CDB782"/>
<stop offset="0.9557" stop-color="#BDA267"/>
<stop offset="1" stop-color="#BDA267"/>
</linearGradient>
<linearGradient id="paint23_linear_106_6708" x1="-2.84032" y1="3.88131" x2="189.104" y2="195.825" gradientUnits="userSpaceOnUse">
<stop stop-color="#BDA267"/>
<stop offset="0.0739" stop-color="#BDA267"/>
<stop offset="0.1379" stop-color="#CBB580"/>
<stop offset="0.2729" stop-color="#F0E4BE"/>
<stop offset="0.2746" stop-color="#F0E5BF"/>
<stop offset="0.3925" stop-color="#CDB782"/>
<stop offset="0.4557" stop-color="#BDA267"/>
<stop offset="0.6613" stop-color="#F0E5BF"/>
<stop offset="0.853" stop-color="#CDB782"/>
<stop offset="0.9557" stop-color="#BDA267"/>
<stop offset="1" stop-color="#BDA267"/>
</linearGradient>
<linearGradient id="paint24_linear_106_6708" x1="10.748" y1="-9.84229" x2="202.692" y2="182.102" gradientUnits="userSpaceOnUse">
<stop stop-color="#BDA267"/>
<stop offset="0.0739" stop-color="#BDA267"/>
<stop offset="0.1379" stop-color="#CBB580"/>
<stop offset="0.2729" stop-color="#F0E4BE"/>
<stop offset="0.2746" stop-color="#F0E5BF"/>
<stop offset="0.3925" stop-color="#CDB782"/>
<stop offset="0.4557" stop-color="#BDA267"/>
<stop offset="0.6613" stop-color="#F0E5BF"/>
<stop offset="0.853" stop-color="#CDB782"/>
<stop offset="0.9557" stop-color="#BDA267"/>
<stop offset="1" stop-color="#BDA267"/>
</linearGradient>
<linearGradient id="paint25_linear_106_6708" x1="24.3798" y1="-23.3005" x2="216.324" y2="168.644" gradientUnits="userSpaceOnUse">
<stop stop-color="#BDA267"/>
<stop offset="0.0739" stop-color="#BDA267"/>
<stop offset="0.1379" stop-color="#CBB580"/>
<stop offset="0.2729" stop-color="#F0E4BE"/>
<stop offset="0.2746" stop-color="#F0E5BF"/>
<stop offset="0.3925" stop-color="#CDB782"/>
<stop offset="0.4557" stop-color="#BDA267"/>
<stop offset="0.6613" stop-color="#F0E5BF"/>
<stop offset="0.853" stop-color="#CDB782"/>
<stop offset="0.9557" stop-color="#BDA267"/>
<stop offset="1" stop-color="#BDA267"/>
</linearGradient>
<linearGradient id="paint26_linear_106_6708" x1="36.675" y1="-35.5737" x2="228.619" y2="156.37" gradientUnits="userSpaceOnUse">
<stop stop-color="#BDA267"/>
<stop offset="0.0739" stop-color="#BDA267"/>
<stop offset="0.1379" stop-color="#CBB580"/>
<stop offset="0.2729" stop-color="#F0E4BE"/>
<stop offset="0.2746" stop-color="#F0E5BF"/>
<stop offset="0.3925" stop-color="#CDB782"/>
<stop offset="0.4557" stop-color="#BDA267"/>
<stop offset="0.6613" stop-color="#F0E5BF"/>
<stop offset="0.853" stop-color="#CDB782"/>
<stop offset="0.9557" stop-color="#BDA267"/>
<stop offset="1" stop-color="#BDA267"/>
</linearGradient>
<linearGradient id="paint27_linear_106_6708" x1="-0.0551123" y1="0.997317" x2="191.889" y2="192.941" gradientUnits="userSpaceOnUse">
<stop stop-color="#BDA267"/>
<stop offset="0.0739" stop-color="#BDA267"/>
<stop offset="0.1379" stop-color="#CBB580"/>
<stop offset="0.2729" stop-color="#F0E4BE"/>
<stop offset="0.2746" stop-color="#F0E5BF"/>
<stop offset="0.3925" stop-color="#CDB782"/>
<stop offset="0.4557" stop-color="#BDA267"/>
<stop offset="0.6613" stop-color="#F0E5BF"/>
<stop offset="0.853" stop-color="#CDB782"/>
<stop offset="0.9557" stop-color="#BDA267"/>
<stop offset="1" stop-color="#BDA267"/>
</linearGradient>
<linearGradient id="paint28_linear_106_6708" x1="8.41991" y1="-7.46785" x2="200.364" y2="184.476" gradientUnits="userSpaceOnUse">
<stop stop-color="#BDA267"/>
<stop offset="0.0739" stop-color="#BDA267"/>
<stop offset="0.1379" stop-color="#CBB580"/>
<stop offset="0.2729" stop-color="#F0E4BE"/>
<stop offset="0.2746" stop-color="#F0E5BF"/>
<stop offset="0.3925" stop-color="#CDB782"/>
<stop offset="0.4557" stop-color="#BDA267"/>
<stop offset="0.6613" stop-color="#F0E5BF"/>
<stop offset="0.853" stop-color="#CDB782"/>
<stop offset="0.9557" stop-color="#BDA267"/>
<stop offset="1" stop-color="#BDA267"/>
</linearGradient>
<linearGradient id="paint29_linear_106_6708" x1="15.2908" y1="-14.2973" x2="207.235" y2="177.647" gradientUnits="userSpaceOnUse">
<stop stop-color="#BDA267"/>
<stop offset="0.0739" stop-color="#BDA267"/>
<stop offset="0.1379" stop-color="#CBB580"/>
<stop offset="0.2729" stop-color="#F0E4BE"/>
<stop offset="0.2746" stop-color="#F0E5BF"/>
<stop offset="0.3925" stop-color="#CDB782"/>
<stop offset="0.4557" stop-color="#BDA267"/>
<stop offset="0.6613" stop-color="#F0E5BF"/>
<stop offset="0.853" stop-color="#CDB782"/>
<stop offset="0.9557" stop-color="#BDA267"/>
<stop offset="1" stop-color="#BDA267"/>
</linearGradient>
<linearGradient id="paint30_linear_106_6708" x1="21.8807" y1="-20.9746" x2="213.825" y2="170.969" gradientUnits="userSpaceOnUse">
<stop stop-color="#BDA267"/>
<stop offset="0.0739" stop-color="#BDA267"/>
<stop offset="0.1379" stop-color="#CBB580"/>
<stop offset="0.2729" stop-color="#F0E4BE"/>
<stop offset="0.2746" stop-color="#F0E5BF"/>
<stop offset="0.3925" stop-color="#CDB782"/>
<stop offset="0.4557" stop-color="#BDA267"/>
<stop offset="0.6613" stop-color="#F0E5BF"/>
<stop offset="0.853" stop-color="#CDB782"/>
<stop offset="0.9557" stop-color="#BDA267"/>
<stop offset="1" stop-color="#BDA267"/>
</linearGradient>
<linearGradient id="paint31_linear_106_6708" x1="29.3484" y1="-28.2342" x2="221.292" y2="163.71" gradientUnits="userSpaceOnUse">
<stop stop-color="#BDA267"/>
<stop offset="0.0739" stop-color="#BDA267"/>
<stop offset="0.1379" stop-color="#CBB580"/>
<stop offset="0.2729" stop-color="#F0E4BE"/>
<stop offset="0.2746" stop-color="#F0E5BF"/>
<stop offset="0.3925" stop-color="#CDB782"/>
<stop offset="0.4557" stop-color="#BDA267"/>
<stop offset="0.6613" stop-color="#F0E5BF"/>
<stop offset="0.853" stop-color="#CDB782"/>
<stop offset="0.9557" stop-color="#BDA267"/>
<stop offset="1" stop-color="#BDA267"/>
</linearGradient>
<linearGradient id="paint32_linear_106_6708" x1="-12.73" y1="13.702" x2="179.214" y2="205.646" gradientUnits="userSpaceOnUse">
<stop stop-color="#BDA267"/>
<stop offset="0.0739" stop-color="#BDA267"/>
<stop offset="0.1379" stop-color="#CBB580"/>
<stop offset="0.2729" stop-color="#F0E4BE"/>
<stop offset="0.2746" stop-color="#F0E5BF"/>
<stop offset="0.3925" stop-color="#CDB782"/>
<stop offset="0.4557" stop-color="#BDA267"/>
<stop offset="0.6613" stop-color="#F0E5BF"/>
<stop offset="0.853" stop-color="#CDB782"/>
<stop offset="0.9557" stop-color="#BDA267"/>
<stop offset="1" stop-color="#BDA267"/>
</linearGradient>
<linearGradient id="paint33_linear_106_6708" x1="-16.3777" y1="17.1533" x2="175.566" y2="209.097" gradientUnits="userSpaceOnUse">
<stop stop-color="#BDA267"/>
<stop offset="0.0739" stop-color="#BDA267"/>
<stop offset="0.1379" stop-color="#CBB580"/>
<stop offset="0.2729" stop-color="#F0E4BE"/>
<stop offset="0.2746" stop-color="#F0E5BF"/>
<stop offset="0.3925" stop-color="#CDB782"/>
<stop offset="0.4557" stop-color="#BDA267"/>
<stop offset="0.6613" stop-color="#F0E5BF"/>
<stop offset="0.853" stop-color="#CDB782"/>
<stop offset="0.9557" stop-color="#BDA267"/>
<stop offset="1" stop-color="#BDA267"/>
</linearGradient>
<linearGradient id="paint34_linear_106_6708" x1="-1.15766" y1="2.07614" x2="190.786" y2="194.02" gradientUnits="userSpaceOnUse">
<stop stop-color="#BDA267"/>
<stop offset="0.0739" stop-color="#BDA267"/>
<stop offset="0.1379" stop-color="#CBB580"/>
<stop offset="0.2729" stop-color="#F0E4BE"/>
<stop offset="0.2746" stop-color="#F0E5BF"/>
<stop offset="0.3925" stop-color="#CDB782"/>
<stop offset="0.4557" stop-color="#BDA267"/>
<stop offset="0.6613" stop-color="#F0E5BF"/>
<stop offset="0.853" stop-color="#CDB782"/>
<stop offset="0.9557" stop-color="#BDA267"/>
<stop offset="1" stop-color="#BDA267"/>
</linearGradient>
<linearGradient id="paint35_linear_106_6708" x1="-7.00734" y1="7.99738" x2="184.937" y2="199.941" gradientUnits="userSpaceOnUse">
<stop stop-color="#BDA267"/>
<stop offset="0.0739" stop-color="#BDA267"/>
<stop offset="0.1379" stop-color="#CBB580"/>
<stop offset="0.2729" stop-color="#F0E4BE"/>
<stop offset="0.2746" stop-color="#F0E5BF"/>
<stop offset="0.3925" stop-color="#CDB782"/>
<stop offset="0.4557" stop-color="#BDA267"/>
<stop offset="0.6613" stop-color="#F0E5BF"/>
<stop offset="0.853" stop-color="#CDB782"/>
<stop offset="0.9557" stop-color="#BDA267"/>
<stop offset="1" stop-color="#BDA267"/>
</linearGradient>
<clipPath id="clip0_106_6708">
<rect width="200" height="200" fill="white"/>
</clipPath>
</defs>
</svg>
