<svg width="200" height="200" viewBox="0 0 200 200" fill="none" xmlns="http://www.w3.org/2000/svg">
<g clip-path="url(#clip0_106_6480)">
<path d="M169.484 171.382H167.962V170.278H172.285V171.387H170.758V175.087H169.484V171.382ZM174.805 175.087L173.904 172.223V175.087H172.786V170.283H174.382L175.348 173.355L176.313 170.278H177.905V175.087H176.691V172.223L175.789 175.087H174.805Z" fill="#CB9700"/>
<path d="M195.909 95.8957C195.923 82.7527 193.24 69.7479 188.028 57.6931C182.815 45.6382 175.184 34.7922 165.611 25.8322C164.693 22.0137 163.356 18.3093 161.624 14.787L159.274 10.3523L154.528 11.946C152.831 12.5142 151.116 13.0455 149.396 13.5629C134.574 4.67338 117.63 -0.0137979 100.368 3.05097e-05C83.1048 0.0138589 66.1687 4.72817 51.3611 13.6414C49.7136 13.1575 48.0817 12.6213 46.4679 12.0338L41.3355 10.0613L38.9947 15.0411C37.3408 18.568 36.0287 22.2467 35.0764 26.0262C22.3084 38.0853 13.0913 53.442 8.43505 70.4136C3.77882 87.3851 3.86315 105.317 8.67879 122.243C13.4944 139.17 22.8556 154.438 35.7364 166.376C48.6173 178.313 64.5209 186.459 81.7046 189.92C81.4792 192.092 81.3413 193.621 81.3183 194.337C82.4723 195.238 83.693 196.051 84.9698 196.766C89.7432 199.051 94.9899 200.159 100.275 200H100.772C107.565 200.489 114.303 198.474 119.724 194.332C119.619 192.852 119.463 191.376 119.255 189.907C140.874 185.539 160.322 173.788 174.295 156.651C188.268 139.514 195.905 118.047 195.909 95.8957Z" fill="#0D421D"/>
<path d="M135.549 17.0551H135.567C137.039 16.7456 138.501 16.4177 139.964 16.0758L140.428 15.9696L141.302 15.7663L141.279 15.7525C145.593 14.6992 149.865 13.4889 154.068 12.0938L137.223 13.803C125.652 8.58302 113.112 5.88531 100.428 5.8877C87.7437 5.89009 75.2043 8.59252 63.6357 13.8169L46.6245 12.0938C50.8443 13.5739 55.1433 14.8154 59.5013 15.8125L59.5151 15.8171C59.6025 15.8402 59.6899 15.8633 59.7773 15.8772L61.1569 16.2005L61.603 16.2976L62.9689 16.5978L63.3506 16.681L65.158 17.0551L65.3327 17.0921C76.373 12.1419 88.3268 9.58118 100.417 9.57641C112.507 9.57163 124.463 12.1229 135.507 17.0644L135.549 17.0551ZM85.6966 76.3738L24.9867 137.212C22.1087 131.917 19.7935 126.332 18.0792 120.55L77.2669 61.5915C75.0778 61.9672 73.0114 62.3752 71.0676 62.8156L17.0214 116.646C14.0735 104.635 13.7264 92.129 16.0034 79.9718C18.2804 67.8146 23.1285 56.2899 30.2202 46.1763C31.1768 44.8274 32.161 43.497 33.1865 42.2035V42.1112C33.1681 40.2033 33.2325 38.2308 33.3981 36.2029C33.9696 28.947 35.8326 21.8531 38.8983 15.2582C33.9971 23.0121 30.8175 31.7363 29.5764 40.8362C20.4926 52.6367 14.4705 66.5197 12.0515 81.2371C9.63248 95.9546 10.8924 111.045 15.7179 125.152C20.5435 139.26 28.7834 151.941 39.697 162.057C50.6106 172.173 63.8558 179.406 78.2418 183.107C79.1171 186.282 80.1908 189.398 81.4564 192.438C81.6772 190.008 82.1463 185.814 82.7809 180.386C81.9459 180.208 81.1134 180.019 80.2837 179.818C80.0814 179.771 79.879 179.725 79.6813 179.67C78.8749 179.471 78.0716 179.26 77.2715 179.037C63.7097 175.214 51.2915 168.101 41.1104 158.323L85.8852 112.96L85.9588 107.888L38.627 155.838C34.7418 151.799 31.2578 147.39 28.2243 142.672L86.0553 84.7119C85.9938 81.9319 85.8742 79.1488 85.6966 76.3738ZM171.277 40.7715C169.979 31.3787 166.622 22.392 161.45 14.459L161.624 14.787C164.826 21.487 166.775 28.7212 167.373 36.1289C167.456 37.0251 167.525 37.9536 167.571 38.9006L167.58 39.0577C167.626 40.0416 167.653 41.0487 167.653 42.0742V42.1204C168.688 43.4231 169.682 44.7627 170.643 46.1209C177.766 56.257 182.633 67.8153 184.912 80.0096C187.191 92.204 186.829 104.748 183.851 116.79L129.06 62.617C127.116 62.192 125.054 61.8009 122.874 61.4436L182.788 120.674C181.11 126.312 178.859 131.761 176.069 136.935L115.686 76.2675C115.52 78.8082 115.387 81.6076 115.318 84.6057L172.85 142.4C169.92 146.99 166.565 151.291 162.829 155.247L115.41 107.62L115.484 112.669L160.369 157.755C150.083 167.826 137.443 175.141 123.61 179.028C122.81 179.259 122.009 179.462 121.205 179.665L120.602 179.808C119.784 180.007 118.956 180.201 118.123 180.372L118.137 180.543C118.229 181.665 118.326 182.765 118.422 183.823L118.459 184.068C118.947 187.532 119.314 190.285 119.526 192.124C120.733 189.183 121.763 186.172 122.612 183.107C137.012 179.415 150.273 172.184 161.198 162.064C172.124 151.943 180.372 139.252 185.199 125.133C190.026 111.014 191.281 95.9106 188.851 81.183C186.421 66.4555 180.382 52.5664 171.277 40.7669" fill="#CB9700"/>
<path d="M113.019 190.373C109.841 163.876 109.215 105.467 109.215 88.9389C109.23 79.1911 109.974 69.4582 111.441 59.8223C104.186 59.2299 96.8943 59.2238 89.6377 59.8039C91.096 69.4468 91.8384 79.1853 91.859 88.9389C91.859 105.467 91.2336 163.876 88.0557 190.373V190.387C88.0557 190.387 91.0772 193.542 100.51 193.542H100.569C109.997 193.542 113.023 190.387 113.023 190.387L113.019 190.378V190.373ZM156.345 17.4341C119.883 29.4253 80.5654 29.4253 44.1042 17.4341C40.7113 25.175 38.9569 33.5396 38.9522 41.9975C38.9474 50.4554 40.6924 58.822 44.0766 66.5668C44.0766 66.5668 62.8032 53.6692 100.395 53.6692C137.99 53.6692 156.345 66.5575 156.345 66.5575C159.863 58.8514 161.684 50.4735 161.684 41.9958C161.684 33.5181 159.863 25.1402 156.345 17.4341Z" fill="white"/>
</g>
<defs>
<clipPath id="clip0_106_6480">
<rect width="200" height="200" fill="white"/>
</clipPath>
</defs>
</svg>
