<svg width="200" height="200" viewBox="0 0 200 200" fill="none" xmlns="http://www.w3.org/2000/svg">
<path d="M26 0V76.3103C26 161.956 100.297 200 100.297 200C100.297 200 174.602 161.955 174.602 76.31V0H26Z" fill="#F1CB00"/>
<path d="M28.8105 2.80713V76.3107C28.8105 153.029 90.567 191.146 100.298 196.689C110.037 191.146 171.793 153.029 171.793 76.3107V2.80713H28.8105ZM166.17 76.3104C166.17 145.598 115.066 181.159 100.298 190.065C85.5318 181.159 34.4298 145.598 34.4298 76.3104V8.41973H166.17V76.3101V76.3104Z" fill="#B30838"/>
<path d="M37.5371 11.2236V76.3106C37.5371 142.027 84.6075 176.755 100.595 186.752C116.587 176.755 163.659 142.027 163.659 76.3106V11.2236H37.5371Z" fill="#013A81"/>
<path d="M116.837 139.139C116.791 135.826 115.744 132.603 113.833 129.893L107.152 129.976L105.167 123.604C103.589 123.12 101.948 122.875 100.298 122.876C98.6041 122.876 96.9695 123.131 95.4356 123.604L93.4443 129.976L86.7647 129.893C84.8553 132.604 83.8087 135.826 83.7617 139.139L89.2125 142.991L87.0657 149.308C89.0389 151.928 91.7723 153.943 94.9405 155.026L100.298 151.039L105.659 155.026C108.824 153.943 111.555 151.928 113.532 149.308L111.392 142.991L116.837 139.139" fill="white"/>
<path d="M130.893 50.2813C138.535 57.4489 143.845 67.0802 145.562 77.9113C144.175 66.6915 139.048 56.6427 131.481 49.0317L130.893 50.281M81.6808 131.026C63.1037 124.321 49.8148 106.502 49.8148 85.568C49.8148 70.087 57.0853 56.3216 68.3767 47.4784L66.847 44.1963C54.6949 53.2543 46.8184 67.7545 46.8184 84.1023C46.8184 106.333 61.3888 125.144 81.4718 131.489C81.5354 131.334 81.6086 131.179 81.6808 131.026ZM114.954 85.1772C111.648 82.2146 108.004 80.4816 104.019 79.9703C104.019 79.9703 121.854 78.6099 121.854 68.264C121.854 63.2889 115.618 56.5587 96.2052 56.5587H73.3929C73.3929 56.5587 76.4283 58.2517 76.4283 59.6963V81.7594C79.2517 83.1423 83.1035 84.4142 86.9371 85.9654V81.6867H93.1975C96.5217 81.679 98.4217 82.4357 100.151 83.8863L118.348 100.802C120.896 102.977 125.946 105.628 130.344 105.628C135.988 105.628 138.245 103.744 138.245 103.744C138.245 103.744 134.601 103.517 131.836 101.149L114.954 85.1772ZM94.5197 78.9381H86.9377V59.4203H94.5197C104.061 59.4203 110.426 62.6847 110.426 69.1792C110.426 74.4503 103.816 78.9381 94.5197 78.9381Z" fill="#F1CB00"/>
<path d="M76.429 93.434V100.774C76.429 102.46 73.7102 103.893 73.7102 103.893H89.81C89.81 103.893 86.9379 102.46 86.9379 100.774V98.2863C84.455 96.525 80.5001 95.0783 76.429 93.4343M65.2591 32.9916C66.4581 35.8316 66.974 36.824 66.974 36.824L66.0028 40.3658L69.7657 42.0185L72.0999 47.0396C72.0999 47.0396 83.0745 42.0926 100.298 42.0926C117.518 42.0926 128.499 47.0396 128.499 47.0396L130.833 42.0185L134.594 40.3655L133.627 36.824C133.627 36.824 134.135 35.8316 135.336 32.9916C136.537 30.1505 142.368 27.0873 142.368 27.0873C137.444 22.0297 133.366 32.1447 128.16 27.2321C126.371 29.9068 130.129 33.1305 130.129 33.1305C130.129 33.1305 129.007 35.9379 125.728 36.4878C121.773 37.154 117.645 36.9062 116.849 29.6371C116.849 29.6371 114.167 36.9845 107.975 35.3785C103.942 34.33 102.329 31.1176 101.761 29.4943C105.774 29.0068 108.831 26.56 108.831 23.6179H102.987C102.76 20.6106 100.298 18.1392 100.298 18.1392C100.298 18.1392 97.8346 20.6106 97.609 23.6179H91.7674C91.7674 26.56 94.823 29.0068 98.8382 29.4943C98.27 31.1176 96.6573 34.33 92.6222 35.3785C86.4261 36.9845 83.7462 29.6371 83.7462 29.6371C82.952 36.9062 78.8239 37.154 74.8693 36.4878C71.5958 35.9379 70.4671 33.1305 70.4671 33.1305C70.4671 33.1305 74.2285 29.9068 72.4349 27.2321C67.2347 32.1447 63.1508 22.0294 58.2246 27.0873C58.2243 27.0873 64.062 30.1505 65.2591 32.9916Z" fill="#F1CB00"/>
<path d="M128.253 53.4433C128.387 53.1614 128.459 52.8759 128.459 52.5839C128.459 48.6415 115.845 45.4478 100.298 45.4478C84.7516 45.4478 72.1406 48.6415 72.1406 52.5839C72.1406 52.8759 72.2087 53.1617 72.3398 53.4433C78.3365 50.2757 88.6117 48.183 100.298 48.183C111.984 48.183 122.263 50.2757 128.253 53.4433ZM86.9708 135.069L92.352 130.851L87.4904 130.786C85.8794 133.172 84.973 135.963 84.8747 138.839L88.8415 141.642L86.9708 135.069ZM104.538 124.57C101.769 123.784 98.8348 123.784 96.0653 124.57L94.6135 129.206L100.298 125.401L105.981 129.206L104.538 124.57ZM108.247 130.851L113.628 135.069L111.756 141.642L115.724 138.839C115.626 135.963 114.721 133.173 113.112 130.786L108.247 130.851ZM89.7078 144.297L88.1481 148.895C89.9224 151.161 92.2962 152.887 95.001 153.876L98.9027 150.97L92.0584 150.717L89.7078 144.297ZM108.533 150.717L101.696 150.97L105.598 153.877C108.304 152.886 110.678 151.161 112.455 148.896L110.891 144.297L108.533 150.717Z" fill="#F1CB00"/>
<path d="M151.093 85.1401C151.093 106.767 138.338 125.401 119.969 133.915C120.249 134.936 120.46 135.982 120.582 137.059C140.092 128.759 153.778 109.374 153.778 86.7842C153.778 69.7725 146.013 54.5799 133.846 44.5693L133.03 44.9254C144.113 54.7648 151.093 69.1321 151.093 85.1401ZM79.9483 137.804C79.9965 137.188 80.0693 136.581 80.1697 135.98C67.5079 131.641 56.9789 122.682 50.5898 111.102C56.6546 123.306 67.1474 132.906 79.9483 137.804ZM101.982 71.1589V76.0175C106.243 74.5022 108.694 71.7729 108.694 69.1789C108.694 68.8288 108.66 68.4964 108.622 68.1786H99.4631C99.4631 68.1783 101.982 68.8145 101.982 71.1592M101.982 87.9519V110.321C101.982 112.664 99.4631 113.306 99.4631 113.306H129.225C141.156 113.306 137.057 106.316 137.057 106.316C137.057 106.316 134.727 110.383 127.664 110.383H110.847V96.1935L101.982 87.9519ZM93.0007 77.4339C93.0007 77.4339 96.0723 75.9145 96.0723 73.1294C96.0723 70.4283 92.6942 68.9617 88.6716 68.2305V71.6156C91.4671 72.8902 92.8232 74.9646 93.0007 77.4339ZM62.1853 106.304C62.1853 110.291 69.7919 113.893 80.5002 113.893C93.938 113.893 99.5392 106.936 99.5392 100.361C99.5392 86.2705 70.304 86.5583 70.304 77.2855C70.304 74.8681 72.1434 72.8899 74.6917 71.656V68.3275C68.681 69.7282 62.9328 73.2098 62.9328 79.3438C62.9328 92.4012 91.2611 91.9709 91.2611 102.246C91.2611 107.536 87.5633 111.142 80.5002 111.142C72.4906 111.142 65.7 106.98 67.3804 100.755C67.3807 100.755 62.1853 101.965 62.1853 106.304ZM83.9023 140.944C83.9023 140.944 83.381 144.369 85.8743 147.475L86.4907 145.58C86.4907 145.58 84.2536 143.555 83.9023 140.944ZM96.7092 155.443C96.7092 155.443 99.8099 156.995 103.54 155.589L101.92 154.418C101.92 154.418 99.305 155.916 96.7092 155.443ZM115.111 142.493C115.111 142.493 115.728 145.447 114.477 147.761C114.477 147.761 116.913 145.294 116.728 141.318L115.111 142.493ZM107.21 124.389L107.827 126.286C107.827 126.286 110.832 126.61 112.648 128.514C112.648 128.514 111.056 125.439 107.21 124.389M93.755 124.304C93.755 124.304 90.3309 124.867 88.1396 128.191H90.1392C90.1389 128.191 91.38 125.439 93.755 124.304M104.84 134.624L106.542 130.812L103.441 133.606H97.1585L94.0572 130.812L95.7581 134.624L93.8156 140.585L90.1933 142.671L94.3494 142.231L99.4342 145.922L100.297 150L101.162 145.922L106.247 142.231L110.403 142.672L106.783 140.585L104.84 134.624M98.9329 137.178L95.4677 141.788L97.4959 135.298H103.994L98.9329 137.178Z" fill="#B30838"/>
<path d="M110.426 69.1795C110.426 62.6852 104.061 59.4209 94.5195 59.4209H86.9375V78.9384H94.5195C103.816 78.9381 110.426 74.4502 110.426 69.1795ZM92.9999 77.4345C92.8228 74.9648 91.4666 72.8905 88.6708 71.6162V68.2314C92.6938 68.9623 96.0715 70.4292 96.0715 73.1303C96.0715 75.9156 92.9999 77.4345 92.9999 77.4345ZM101.981 76.0177V71.1595C101.981 68.8148 99.4623 68.1788 99.4623 68.1788H108.621C108.659 68.4964 108.693 68.8293 108.693 69.1789C108.693 71.7732 106.242 74.5025 101.981 76.0177ZM141.343 172.208H143.298V178.093H144.005V172.208H146.062V171.506H141.343V172.208ZM149.83 176.866L148.137 171.506H147.005V178.093H147.708V172.498L149.476 178.093H150.183L151.955 172.498V178.093H152.658V171.506H151.524L149.83 176.866Z" fill="#013A81"/>
</svg>
