<svg width="200" height="200" viewBox="0 0 200 200" fill="none" xmlns="http://www.w3.org/2000/svg">
<path d="M175.387 10.5474C171.807 9.46799 139.266 0 99.9007 0C60.5308 0 27.9927 9.46799 24.4139 10.5474L20 11.8782V102.374C20 118.507 24.4245 134.248 33.1502 149.161C41.9921 164.271 52.895 174.315 58.6071 178.959C77.2839 194.138 96.0931 199.456 99.0239 199.875L99.9014 200L100.778 199.875C103.708 199.457 122.518 194.138 141.195 178.959C146.908 174.315 157.811 164.271 166.653 149.161C175.378 134.252 179.801 118.511 179.801 102.377V11.8817L175.387 10.5502V10.5474Z" fill="black"/>
<path d="M99.8995 6.2041C61.0742 6.2041 28.7975 15.7054 26.2031 16.4873V102.373C26.2031 135.785 46.9005 161.449 62.5191 174.143C80.1016 188.433 97.9815 193.458 99.8995 193.732C101.815 193.459 119.697 188.433 137.281 174.143C152.898 161.449 173.597 135.784 173.597 102.373V16.4859C171.004 15.7061 138.725 6.20481 99.8995 6.20481V6.2041Z" fill="white"/>
<path d="M169.075 102.375C169.075 116.578 165.144 130.497 157.392 143.744C149.406 157.392 139.576 166.451 134.427 170.635C131.214 173.24 127.848 175.649 124.346 177.851L103.888 140.818C102.566 141.048 101.227 141.164 99.8856 141.166C87.0711 141.166 76.6831 130.778 76.6831 117.962C76.6831 112.213 78.7789 106.958 82.2401 102.904L82.238 102.9C82.3796 102.733 82.5192 102.564 82.6658 102.402L60.9456 63.0812H55.9354L77.4218 101.977C74.0825 106.637 72.2895 112.227 72.2955 117.961C72.2955 133.175 84.6737 145.552 99.8849 145.552C100.417 145.552 100.942 145.534 101.466 145.505L120.586 180.114C117.538 181.869 114.406 183.472 111.2 184.918C105.631 187.422 101.518 188.678 99.9012 189.101C98.2836 188.678 94.1714 187.423 88.6017 184.918C82.8294 182.323 74.1143 177.739 65.3737 170.635C60.2282 166.454 50.3975 157.393 42.4119 143.747C34.6593 130.496 30.7285 116.578 30.7285 102.375V19.9072C34.5248 18.8809 41.3942 17.1591 50.2984 15.4961C67.259 12.3302 83.9491 10.7246 99.9041 10.7246C115.859 10.7246 132.548 12.3302 149.509 15.4961C158.413 17.1584 165.283 18.8816 169.078 19.9072V102.374L169.075 102.375Z" fill="black"/>
<path d="M99.9002 10.7266C83.9452 10.7266 67.2565 12.3322 50.2952 15.4981C41.391 17.1597 34.5209 18.8829 30.7246 19.9077V102.374C30.7246 116.578 34.6554 130.497 42.4066 143.744C50.3936 157.392 60.2228 166.451 65.3719 170.636C74.1125 177.739 82.8283 182.325 88.5999 184.919C94.1696 187.423 98.2818 188.678 99.8994 189.102C101.516 188.678 105.629 187.423 111.198 184.919C114.404 183.473 117.536 181.87 120.584 180.115L119.852 178.791C118.39 179.632 116.907 180.439 115.407 181.211L98.7556 151.05C98.1532 151.03 97.5515 150.994 96.951 150.943L96.9538 150.948C80.0385 149.463 66.7693 135.264 66.7693 117.962C66.7632 112.102 68.3206 106.346 71.2809 101.289L50.189 63.0831H48.4466L69.5364 101.285C66.7163 106.391 65.2401 112.129 65.2465 117.962C65.2465 136.373 79.6836 151.46 97.8299 152.53L114.045 181.9C112.802 182.517 111.642 183.061 110.581 183.538C105.168 185.972 101.254 187.157 99.903 187.533C98.5531 187.157 94.6385 185.972 89.2246 183.538C83.5351 180.981 74.9447 176.462 66.3309 169.461C61.2619 165.34 51.5835 156.422 43.7176 142.979C36.1038 129.967 32.2424 116.306 32.2424 102.374V21.0678C36.3999 19.97 42.6821 18.4565 50.5764 16.9826C67.44 13.8358 84.038 12.2401 99.8994 12.2401C115.762 12.2401 132.359 13.8365 149.227 16.9854C157.12 18.4586 163.403 19.9743 167.561 21.0707V102.374C167.561 116.306 163.701 129.967 156.086 142.979C148.22 156.423 138.542 165.341 133.473 169.461C130.33 172.009 127.037 174.368 123.613 176.524L124.346 177.851C127.586 175.809 131.004 173.418 134.428 170.636C139.576 166.451 149.406 157.393 157.392 143.744C165.144 130.496 169.074 116.578 169.074 102.374V19.9091C165.281 18.8836 158.413 17.1611 149.509 15.4981C132.547 12.3322 115.858 10.7273 99.903 10.7273L99.9002 10.7266ZM62.6826 63.0831L83.7243 101.216C87.2992 97.7647 91.8867 95.5511 96.8129 94.9002L79.6348 63.0831H62.6826ZM96.9411 63.0831L119.1 104.814L121.575 109.476L121.602 109.524L130.117 94.0035L114.026 63.0817H96.9411V63.0831ZM130.818 63.0831L138.631 78.4842L147.081 63.0831H130.818ZM138.631 78.4898L130.116 94.0113H159.434V78.4898H138.63H138.631ZM121.598 109.531V109.532C122.653 112.23 123.194 115.101 123.192 117.998C123.192 120.458 122.809 122.827 122.103 125.054H155.51C157.302 119.942 158.485 114.76 159.049 109.531H121.598ZM105.32 140.571L113.883 156.092H135.994C139.81 152.131 144.125 146.947 148.051 140.571H105.32Z" fill="#0067B1"/>
<path d="M109.463 121.04C108.439 124.064 105.768 128.688 105.147 129.746C104.567 129.868 102.417 130.272 99.7213 130.272C97.9351 130.272 96.2558 130.096 94.7267 129.748C94.1077 128.692 91.4375 124.066 90.412 121.04C91.3929 119.57 93.8626 116.043 96.5667 113.466H103.307C106.011 116.043 108.48 119.57 109.462 121.04M92.1401 105.725C89.4063 105.202 86.5513 105.076 85.0377 105.048C82.4689 108.257 80.7039 112.164 80.2754 113.16C80.8562 116.854 82.5978 120.163 82.9427 120.769C84.134 120.875 85.3734 120.929 86.6327 120.929C88.3325 120.929 89.5734 120.832 90.0309 120.791C91.6932 116.435 93.8314 112.604 94.3322 111.725L92.1401 105.725ZM114.852 105.048C113.333 105.076 110.47 105.202 107.729 105.728L105.54 111.721C106.041 112.599 108.181 116.434 109.843 120.791C110.299 120.832 111.54 120.929 113.241 120.929C114.501 120.929 115.744 120.874 116.938 120.769C117.285 120.16 119.028 116.844 119.608 113.147C119.172 112.127 117.433 108.252 114.852 105.048Z" fill="#D8D9DA"/>
<path d="M82.4238 129.674L81.6192 130.035C79.2525 126.455 77.9937 122.256 78 117.964C78 116.53 78.1381 115.097 78.4122 113.7C78.8883 113.687 79.3625 113.634 79.8295 113.54C79.9796 114.645 80.5689 118.232 82.2857 121.551C81.911 122.803 81.3749 125.648 82.4238 129.674ZM117.446 129.675L118.248 130.035C120.616 126.455 121.875 122.256 121.869 117.964C121.869 116.53 121.731 115.097 121.456 113.7C120.98 113.687 120.506 113.634 120.039 113.54C119.89 114.645 119.3 118.232 117.582 121.551C117.958 122.803 118.493 125.649 117.446 129.675Z" fill="#ADAFB2"/>
<path d="M89.7752 135.265C90.3206 136.925 90.703 137.67 90.8574 137.933C87.2939 136.311 84.23 133.764 81.9844 130.556L82.7479 130.39C84.6021 132.857 88.5343 134.719 89.7752 135.265ZM110.108 135.265C109.563 136.925 109.182 137.67 109.026 137.933C112.59 136.311 115.654 133.764 117.9 130.556L117.137 130.39C115.282 132.857 111.351 134.719 110.108 135.265Z" fill="#717073"/>
<path d="M108.993 134.852C108.549 134.412 108.113 133.964 107.685 133.508C106.597 132.346 105.796 131.293 105.298 130.523C99.9975 131.796 95.6352 130.796 94.575 130.506C93.5515 132.095 91.477 134.272 90.6582 135.07C90.7283 135.585 90.9493 137.023 91.3757 138.065L91.4338 138.19C94.1252 139.322 97.0166 139.903 99.9366 139.897C102.836 139.897 105.65 139.341 108.311 138.242C108.817 137.123 109.062 135.401 109.117 134.976L108.993 134.852Z" fill="#919195"/>
<path d="M53.1999 23.9985C51.3258 23.9985 49.5722 24.3512 47.9418 25.0574C46.3402 25.7411 44.8839 26.7243 43.6511 27.9542C42.4223 29.183 41.5001 30.6165 40.794 32.2589C40.0879 33.9 39.7656 35.6423 39.7656 37.4923C39.7656 39.3628 40.0872 41.1136 40.794 42.7419C41.5001 44.3709 42.4223 45.793 43.6511 47.0077C44.8814 48.2245 46.3113 49.1835 47.9418 49.8903C49.5722 50.595 51.3251 50.947 53.1999 50.947C54.213 50.9483 55.2231 50.8381 56.2121 50.6184C57.1994 50.3996 58.2023 50.0476 59.2264 49.561L59.2718 49.5256L59.3029 49.5794L59.8766 50.4874H66.4967L63.743 46.1465L63.6913 46.0636C64.6787 44.8022 65.4331 43.3746 65.9188 41.8481C66.3683 40.4398 66.5977 38.9705 66.5987 37.4923C66.5987 35.643 66.2757 33.9 65.5703 32.2597C64.8642 30.6165 63.9484 29.1901 62.7323 27.974C61.5134 26.7593 60.0905 25.794 58.4573 25.0751C56.8276 24.3597 55.0746 23.9985 53.1999 23.9985ZM151.432 29.3742C147.561 29.3742 144.717 30.8878 143.63 33.5274C143.285 34.3498 143.106 35.2326 143.105 36.1246C143.105 40.1121 146.018 41.4323 148.209 42.0457C148.48 42.1158 149.099 42.244 149.814 42.3941C151.136 42.6703 152.781 43.0153 153.231 43.1937C154.256 43.5542 154.408 44.2618 154.408 44.6513C154.408 46.2541 152.065 46.3774 151.347 46.3774C150.415 46.3774 149.41 46.2024 148.592 45.8979C147.708 45.5862 147.143 45.2024 146.735 44.7979C146.487 44.5518 146.259 44.2878 146.05 44.0082C146.01 43.9493 145.971 43.8898 145.932 43.8298C145.853 43.7079 145.789 43.5946 145.789 43.5946L141.909 46.1585H132.356V41.87H139.776V37.5241H132.356V34.0395H141.261V29.6922H126.927V50.503H142.107V47.415C142.996 48.4639 144.367 49.7409 146.708 50.4626C148.019 50.8755 149.464 51.0752 151.129 51.0752C154.35 51.0752 156.783 50.1949 158.358 48.4547C159.122 47.6161 160.031 46.1479 160.031 43.9119C160.031 38.8826 155.766 38.0978 151.644 37.3372C149.962 37.0149 148.861 36.6728 148.861 35.5332C148.861 34.5679 149.719 34.014 151.214 34.014C151.723 34.014 153.491 34.0707 154.86 34.7995C155.631 35.2273 155.99 35.6982 156.279 36.0857L159.817 32.8539C159.169 32.1279 158.486 31.3828 157.157 30.6767C155.573 29.824 153.593 29.3735 151.431 29.3735L151.432 29.3742ZM53.1836 29.4875C54.8381 29.4875 56.3637 29.9904 57.6244 30.8502C57.6725 30.8842 57.7178 30.9189 57.7639 30.9515C57.8205 30.9919 57.8772 31.0315 57.9324 31.0719C59.8582 32.5288 61.0927 34.8526 61.0927 37.471C61.0927 38.8557 60.7485 40.156 60.1394 41.2899H53.9662L56.1873 44.7321L56.244 44.8185L56.1944 44.8624C56.1214 44.8929 56.0478 44.9226 55.9734 44.9509C55.9465 44.9601 55.9203 44.9708 55.8941 44.9807C55.814 45.009 55.7347 45.0366 55.654 45.0628C55.6079 45.0777 55.5619 45.0933 55.5159 45.1067C55.4479 45.128 55.3792 45.1464 55.3105 45.1655C55.2531 45.1818 55.1971 45.1988 55.1391 45.213C55.0725 45.2293 55.0045 45.2449 54.9386 45.259C54.8791 45.2732 54.8211 45.2873 54.7602 45.2994C54.6844 45.315 54.6086 45.3277 54.5307 45.3405C54.4804 45.3497 54.4294 45.3596 54.3784 45.3674C54.2778 45.3823 54.1766 45.3943 54.0753 45.4056C54.0462 45.4099 54.0186 45.4141 53.9889 45.417C53.5841 45.4576 53.1769 45.4681 52.7707 45.4481C48.5565 45.2328 45.2716 41.7468 45.2716 37.4731C45.2716 33.0628 48.7725 29.4875 53.1836 29.4875ZM107.356 29.6788V46.8753L108.537 50.5065H112.791V29.6788H107.356ZM118.908 29.6788L112.851 39.6907L119.395 50.5079H125.748L119.204 39.6907L125.261 29.6788H118.908ZM68.404 29.6929V41.5761C68.4664 43.9105 68.5287 46.3271 70.6421 48.3846C72.5275 50.1927 74.6742 51.0002 77.5958 51.0002C80.9154 51.0002 82.7293 49.9526 84.3979 48.3789C86.9618 45.9382 86.9618 42.6045 86.9618 39.9719V29.6929H81.4672V42.1802C81.4672 43.1102 81.4671 44.385 80.4076 45.4078C80.0173 45.7718 79.1115 46.3823 77.6617 46.3823C76.527 46.3823 75.5567 46.0225 74.9321 45.3702C73.9192 44.3815 73.9185 43.1102 73.9185 42.1802V29.6922H68.4033L68.404 29.6929ZM93.3113 29.6929L86.4639 50.503H91.9855L96.6919 36.1168L99.0929 43.5025H95.8618L94.4339 47.847H100.523L101.397 50.503H106.95L100.099 29.6922H93.3113V29.6929ZM69.3382 54.1611C68.7815 54.1611 67.7666 54.2171 67.2043 54.8035C66.9442 55.0657 66.7973 55.4194 66.7949 55.7887C66.7949 56.7094 67.6037 56.997 67.7935 57.0671C67.9876 57.133 68.1739 57.1818 68.3729 57.2236C68.6236 57.2817 69.7596 57.4821 69.9813 57.5523C70.1237 57.6032 70.3163 57.7031 70.3163 57.939C70.3163 58.1111 70.1874 58.2534 70.0656 58.325C69.8864 58.4241 69.6244 58.4461 69.4381 58.4461C68.7242 58.4461 68.3885 58.1968 68.3233 57.8667L66.5463 57.9177C66.5746 58.1451 66.6383 58.6097 67.0732 58.9957C67.6667 59.524 68.6739 59.5665 69.1803 59.5665C70.5373 59.5665 71.3858 59.2882 71.8079 58.6522C71.9581 58.4319 72.0735 58.1238 72.0735 57.7881C72.0735 57.3327 71.8582 56.8305 71.1854 56.5826C70.976 56.501 70.7588 56.4408 70.5373 56.4028C70.1945 56.3248 69.8453 56.2583 69.5018 56.1818C69.2242 56.1251 68.7157 56.0104 68.5946 55.8531C68.5555 55.8017 68.5352 55.7385 68.5372 55.674C68.5372 55.3035 69.0939 55.2674 69.3304 55.2674C70.0869 55.2674 70.174 55.567 70.2158 55.732L71.9871 55.6315C71.9375 55.3602 71.8164 54.6526 70.8737 54.3538C70.5593 54.2475 69.9509 54.1611 69.3382 54.1611ZM100.674 54.1611C100.118 54.1611 99.1042 54.2171 98.5411 54.8035C98.2822 55.0663 98.1361 55.4198 98.1339 55.7887C98.1339 56.7094 98.9413 56.997 99.1346 57.0671C99.3259 57.133 99.5129 57.1818 99.7112 57.2236C99.9619 57.2817 101.099 57.4821 101.319 57.5523C101.462 57.6032 101.655 57.7031 101.655 57.939C101.655 58.1111 101.525 58.2534 101.404 58.325C101.225 58.4241 100.962 58.4461 100.776 58.4461C100.061 58.4461 99.7246 58.1968 99.6609 57.8667L97.8831 57.9177C97.9115 58.1451 97.9773 58.6097 98.4115 58.9957C99.0043 59.524 100.011 59.5665 100.519 59.5665C101.876 59.5665 102.726 59.2882 103.146 58.6522C103.296 58.4319 103.411 58.1238 103.411 57.7881C103.411 57.3327 103.197 56.8305 102.525 56.5826C102.315 56.5011 102.098 56.4408 101.876 56.4028C101.534 56.3248 101.183 56.2583 100.841 56.1818C100.561 56.1251 100.055 56.0104 99.9314 55.8531C99.8931 55.8015 99.8736 55.7382 99.8762 55.674C99.8762 55.3035 100.432 55.2674 100.67 55.2674C101.426 55.2674 101.511 55.567 101.555 55.732L103.326 55.6315C103.277 55.3602 103.155 54.6526 102.211 54.3538C101.898 54.2475 101.29 54.1611 100.674 54.1611ZM94.1159 54.1894C93.2221 54.2036 92.0223 54.3679 91.3162 55.3673C90.9939 55.8227 90.8509 56.3815 90.8509 56.9453C90.8509 57.5232 90.9875 58.0091 91.3311 58.468C91.7008 58.973 92.4218 59.5956 94.1804 59.5956C95.094 59.5956 95.9085 59.4667 96.5934 58.9241C96.8353 58.7385 97.039 58.5079 97.1933 58.2449C97.4447 57.8313 97.5574 57.3454 97.5574 56.8752C97.5574 56.0104 97.1508 54.9529 95.9935 54.4827C95.4149 54.2468 94.7449 54.1824 94.1166 54.1887L94.1159 54.1894ZM74.1855 54.3736L72.0154 59.4157H73.9936L75.2203 55.7738L75.8152 57.4814H75.1035L74.7281 58.5948H76.1942L76.4633 59.4157H78.428L76.2423 54.3736H74.1855ZM78.5682 54.3736V58.5566L78.9415 59.4157H80.3531L80.3247 56.6386L82.7441 59.415H84.2449V54.3736H82.4672L82.5026 57.133L80.0613 54.3736H78.5682ZM88.4676 54.3736V57.7024C88.4477 58.1961 88.2239 58.2102 87.8393 58.2237H87.4321V59.415H88.4683C88.9747 59.4008 89.5094 59.3817 89.8975 58.9872C90.2616 58.6161 90.2687 58.1585 90.2736 57.8313V54.3736H88.4676ZM103.943 54.3736V59.4157H109.328V58.2747H105.743V57.4743H108.991V56.3319H105.75V55.5118H109.257V54.3743L103.943 54.3736ZM94.2222 55.3099C95.4574 55.3241 95.701 56.3397 95.701 56.8893C95.701 57.3971 95.5084 58.0523 94.951 58.332C94.7293 58.4461 94.4729 58.4737 94.2215 58.4737C93.1293 58.4737 92.7086 57.6684 92.7086 56.8893C92.7086 56.1959 93.0868 55.2957 94.2222 55.3099ZM40.3691 56.1244V57.6429H63.0142V56.1244H40.3691ZM99.6715 96.0262C94.0842 96.0816 88.7312 98.2797 84.7173 102.167C84.7301 102.538 84.7953 103.524 85.1083 104.51C88.1226 104.037 91.0718 103.858 93.038 103.789C93.038 103.789 95.4609 101.305 98.8747 99.7078L99.6715 96.0262ZM100.21 96.0262L101.005 99.7078C104.421 101.305 106.843 103.789 106.843 103.789C108.811 103.857 111.76 104.037 114.773 104.51C115.086 103.524 115.152 102.538 115.165 102.168C111.151 98.2808 105.798 96.0828 100.21 96.027V96.0262Z" fill="white"/>
<path d="M122.871 54.3774V55.5142H126.543C123.458 56.8861 123.329 59.4195 123.329 59.4195H125.242C125.242 59.4195 125.139 57.5476 128.205 55.5142V54.3774H122.871ZM119.542 54.3774C119.355 54.3774 118.359 54.393 117.691 54.694C116.939 55.0375 116.716 55.6396 116.716 56.1141C116.716 57.2176 117.706 57.6843 118.889 57.6843C119.93 57.6843 120.316 57.3401 120.568 57.1248C120.561 57.3323 120.525 57.8061 120.137 58.122C119.909 58.309 119.608 58.3727 119.314 58.3727C118.854 58.3727 118.703 58.1935 118.59 58.0561L116.711 58.1008C116.839 58.5809 117.096 59.0031 117.872 59.2481C118.373 59.4061 118.868 59.4344 119.264 59.4344C119.973 59.4344 120.755 59.3692 121.386 58.8968C122.218 58.2665 122.319 57.3125 122.319 56.7742C122.319 55.0737 121.228 54.3781 119.543 54.3781L119.542 54.3774ZM114.32 54.4639C113.963 54.7365 113.574 55.0234 112.727 55.1169V56.1509H113.904V59.3253H115.582V54.4639H114.32ZM130.599 54.585L127.741 57.4846V58.5427H130.913V59.4195H132.519V58.5427H133.376V57.406H132.535V54.585H130.599ZM119.386 55.4398C120.109 55.4186 120.512 55.5751 120.512 56.0489C120.512 56.4434 120.145 56.6368 119.434 56.6368C119.227 56.6368 118.437 56.6297 118.437 56.0418C118.437 55.5248 119.005 55.454 119.386 55.4398ZM130.919 55.8634V57.406H129.392L130.919 55.8634ZM136.408 56.1275V57.6468H159.436V56.1275H136.408Z" fill="#E31837"/>
</svg>
