<svg width="200" height="200" viewBox="0 0 200 200" fill="none" xmlns="http://www.w3.org/2000/svg">
<path d="M178.019 20.7962C177.999 20.7714 177.975 20.7492 177.949 20.7303C154.958 7.53204 128.093 0.00659308 99.6733 0.00131854L99.6202 0L99.6162 0.00131854C71.2098 0.00659308 44.4617 7.31974 21.4774 20.5074C21.4306 20.5474 21.3911 20.5952 21.3606 20.6485C11.9215 43.689 4.10613 81.5892 16.1018 115.054C26.6394 144.458 44.3145 163.883 64.1971 178.37C84.0784 192.856 98.8667 199.702 99.0298 199.78L99.6454 200L100.26 199.78C100.422 199.702 115.211 192.856 135.091 178.37C154.974 163.883 172.649 144.458 183.186 115.054C195.193 81.5628 187.465 43.8301 178.019 20.7962Z" fill="#999999"/>
<path d="M97.9064 194.938C96.7204 194.419 68.5833 181.944 45.1386 156.381C23.2447 132.511 1.76349 92.483 23.7343 37.3482L24.2106 36.1548L25.2851 35.4428C26.5415 34.6147 56.5306 15.1582 99.5647 15.1582C142.602 15.1582 172.587 34.6147 173.842 35.4441L174.916 36.1548L175.394 37.3482C197.366 92.483 175.882 132.511 153.991 156.381C130.545 181.944 102.406 194.419 101.223 194.938L99.5647 195.661" fill="white"/>
<path d="M171.633 38.9931C171.592 38.9042 171.529 38.8271 171.45 38.7689C169.296 37.3883 140.255 19.2505 99.5783 19.2505C58.7664 19.2505 29.6674 37.507 27.6841 38.7821C27.6157 38.8343 27.5611 38.9022 27.5249 38.9799C-13.3495 141.827 99.5797 191.189 99.5797 191.189C99.5797 191.189 212.493 141.832 171.633 38.9931Z" fill="#002F65"/>
<path d="M104.658 5.22649C104.276 5.21594 104.037 5.40846 104.044 5.73152C104.057 6.21414 104.07 6.69808 104.08 7.18466C104.089 7.44179 104.183 7.5908 104.517 7.68178C106.225 8.1855 107.936 8.72219 109.652 9.28656C109.665 9.55425 109.679 9.81929 109.695 10.087C108.413 10.0039 107.127 9.93665 105.837 9.88654L105.806 8.95031C105.248 8.9279 104.687 8.90812 104.126 8.89229C104.137 9.36041 104.15 9.82852 104.163 10.298C104.17 10.6223 104.431 10.8386 104.824 10.8518C106.819 10.9111 108.808 11.0127 110.786 11.1551C111.177 11.1841 111.412 10.9968 111.392 10.6711L111.294 9.098C111.277 8.84746 111.157 8.67604 110.843 8.57318C109.148 8.00485 107.444 7.46107 105.733 6.94203C105.725 6.71259 105.719 6.48578 105.71 6.25502C106.976 6.30777 108.239 6.37634 109.495 6.46337C109.512 6.72709 109.524 6.99609 109.54 7.26114C110.088 7.3007 110.636 7.33762 111.185 7.38246L111.106 6.11261C111.086 5.80009 110.842 5.58252 110.47 5.55351C108.536 5.40548 106.597 5.29645 104.658 5.22649ZM92.1583 5.32538C91.5812 5.35439 91.0054 5.39132 90.4297 5.43088C89.2463 7.36927 88.0377 9.32085 86.8052 11.2896V11.3054C87.381 11.254 87.9541 11.2052 88.5299 11.1603L89.1547 10.1186C90.4708 10.021 91.7842 9.94324 93.1016 9.88391L93.6375 10.8544C94.2213 10.8294 94.805 10.8109 95.3847 10.7924V10.7766C94.2956 8.96755 93.2201 7.15042 92.1583 5.32538ZM91.2456 6.54248C91.6794 7.33367 92.1185 8.12353 92.5603 8.91735C91.6284 8.96335 90.697 9.01918 89.7663 9.08481C90.2638 8.23429 90.7587 7.38905 91.2456 6.54248ZM78.446 6.57941C76.5305 6.82824 74.6206 7.11752 72.7175 7.44707C72.3407 7.51432 72.0727 7.76882 72.0329 8.09847L71.8565 9.58985C71.8246 9.85226 71.8963 9.98808 72.2173 10.0092C73.8265 10.1766 75.4424 10.3692 77.0623 10.592L76.984 11.4082C75.7237 11.5876 74.4607 11.7867 73.1937 12.0043L73.2999 11.0469C72.7506 11.1419 72.2014 11.2381 71.6495 11.3384C71.5964 11.817 71.5354 12.297 71.481 12.7744C71.4412 13.108 71.6641 13.2741 72.0515 13.2042C74.0096 12.8482 75.9625 12.541 77.91 12.2746C78.2947 12.2218 78.5601 11.9819 78.5879 11.6535L78.7285 10.0566C78.7498 9.80347 78.6582 9.65314 78.3584 9.61359C76.7425 9.37623 75.1346 9.17316 73.5307 8.99383L73.6103 8.28968C74.852 8.08265 76.0951 7.89145 77.3382 7.72003L77.2586 8.53099C77.8025 8.45582 78.3412 8.38462 78.8811 8.31473C78.9156 7.88354 78.9607 7.45234 78.9952 7.02247C79.0231 6.70204 78.8108 6.53194 78.446 6.57941ZM126.387 7.48531C126.176 7.52487 126.073 7.68706 126.102 7.93892C126.284 9.50678 126.467 11.0694 126.646 12.624C126.686 12.9537 126.931 13.2042 127.309 13.2728C129.376 13.6486 131.457 14.0732 133.545 14.5519C133.927 14.6402 134.147 14.4846 134.102 14.1484C134.029 13.5945 133.952 13.0394 133.878 12.4856C133.331 12.359 132.782 12.235 132.233 12.1164L132.379 13.2319C130.992 12.9281 129.601 12.6459 128.206 12.3854C128.062 11.1775 127.914 9.96962 127.771 8.75515C129.144 9.00306 130.52 9.27206 131.904 9.56611C131.949 9.92215 131.998 10.2755 132.04 10.6303C132.587 10.7476 133.132 10.8676 133.681 10.9929C133.61 10.4522 133.542 9.91555 133.469 9.37623C133.423 9.0347 133.151 8.76307 132.771 8.68131C130.734 8.23729 128.686 7.8394 126.63 7.48795C126.55 7.47275 126.468 7.47186 126.387 7.48531ZM63.8686 9.16261C63.3406 9.28261 62.8126 9.40656 62.2846 9.53579L61.6345 13.5022C60.4671 12.5119 59.3275 11.5375 58.2091 10.5841C57.6798 10.7292 57.1518 10.8795 56.6211 11.0324L55.39 17.1707C55.9538 16.9993 56.5176 16.8305 57.0775 16.6683L57.8775 12.4592C59.0051 13.4561 60.1553 14.4728 61.3321 15.5052C61.876 15.3681 62.4199 15.231 62.9586 15.1017L63.8686 9.16261ZM141.013 10.6843C141.401 12.6741 141.799 14.6864 142.197 16.7223C142.741 16.8845 143.298 17.052 143.842 17.2234C143.431 15.1782 143.02 13.1541 142.608 11.1538C142.078 10.9916 141.547 10.8346 141.013 10.6843ZM149.6 13.2688C149.68 13.646 149.746 14.0205 149.839 14.4015C150.701 14.6916 151.603 15.0042 152.505 15.3338C152.903 17.0085 153.288 18.7161 153.699 20.462L155.371 21.1727C154.933 19.3794 154.495 17.6243 154.071 15.9061C155.039 16.2687 156.034 16.6485 157.043 17.0533C156.936 16.6287 156.817 16.2094 156.711 15.7901C154.365 14.8825 151.994 14.0409 149.6 13.2688ZM46.5889 14.2262L44.9332 14.8459C43.2885 17.4496 41.639 20.0504 39.9848 22.6483L39.9822 22.6681C40.5553 22.4202 41.131 22.1802 41.7028 21.9455C41.996 21.4707 42.2866 21.004 42.5731 20.5345C43.8706 20.0137 45.1601 19.5139 46.447 19.0392C46.5412 19.353 46.6393 19.6682 46.7388 19.982C47.231 19.8014 47.7272 19.626 48.2194 19.4493L48.2247 19.4308C47.6595 17.7022 47.1142 15.9672 46.5889 14.2262ZM45.4493 15.8415C45.6762 16.5931 45.911 17.3527 46.1524 18.1122C45.245 18.4511 44.3349 18.8005 43.4235 19.1579L45.4493 15.8415ZM162.376 18.1412C162.376 18.157 162.376 18.1728 162.389 18.19C163.769 19.9794 165.321 22.1419 166.793 24.0751C167.019 24.8267 167.218 25.7102 167.443 26.4644C168.001 26.7598 168.558 27.0604 169.128 27.369C168.89 26.5963 168.571 25.399 168.346 24.6289C169.035 23.7639 169.739 22.8843 170.415 21.9942C170.415 21.9745 170.402 21.9547 170.402 21.9375C169.778 21.6211 168.836 21.1239 168.836 21.1239C168.836 21.1239 168.04 22.1525 167.404 22.8355C166.714 22.0022 165.692 20.5279 164.658 19.1526C164.114 18.9113 162.906 18.372 162.376 18.1412ZM36.7066 18.1663C36.7106 18.1504 36.4413 18.2744 36.4453 18.2586C35.8218 18.5302 34.377 19.1328 34.377 19.1328L30.5576 23.2048C30.5576 23.2048 31.0882 21.4576 31.3403 20.6136C30.815 20.8642 30.283 21.1213 29.7483 21.3864L27.3789 28.6956C27.9905 28.3606 28.5994 28.0323 29.2031 27.7145C29.5215 26.6569 29.8292 25.6284 30.1277 24.6289C30.9688 25.0429 31.8285 25.4728 32.7068 25.9159C33.4643 25.544 33.8888 25.3555 34.6304 25.0047L34.6397 24.9506C33.5293 24.3915 32.8116 24.0197 31.7635 23.5107C33.2388 21.8756 35.3773 19.6075 36.7066 18.1663ZM99.1524 25.2592C95.7565 25.2674 92.3623 25.4134 88.9783 25.697C88.8297 29.4248 88.6864 33.1802 88.5418 36.8315C89.7293 36.7371 90.9181 36.6606 92.1079 36.6021C92.1835 33.6338 92.2605 30.4757 92.3387 27.4587C95.0359 27.3137 97.737 27.2539 100.438 27.2793L100.462 30.5799C97.8749 30.5627 95.2879 30.5957 92.7168 30.7276C93.3205 31.1363 99.1604 34.9657 101.501 36.4808C102.968 36.5058 104.438 36.5546 105.905 36.6258C105.904 36.5929 105.903 36.5599 105.902 36.5269C103.782 35.1555 101.985 33.8237 99.9378 32.5486C100.978 32.5512 101.639 32.5618 102.68 32.5882C103.489 32.6106 104.012 32.2374 103.999 31.6124C103.962 29.9074 103.928 28.1127 103.893 26.3906C103.879 25.7392 103.35 25.3093 102.566 25.2935C101.428 25.2676 100.29 25.2561 99.1524 25.2592ZM106.761 25.457L106.87 27.4771C108.929 27.5853 110.988 27.7527 113.049 27.9637C113.272 31.0071 113.494 34.2576 113.713 37.2205C114.888 37.3432 116.065 37.4816 117.239 37.6372C116.991 34.669 116.741 31.4159 116.483 28.3659C118.544 28.6323 120.603 28.9593 122.654 29.3259C122.58 28.5914 122.535 28.0178 122.461 27.2767C117.271 26.3431 112.027 25.7353 106.761 25.457ZM83.1596 26.2073C78.6596 26.7558 74.2086 27.4719 69.7908 28.4846C68.9988 28.6665 68.4668 29.2019 68.3753 29.8599L67.1017 39.1418C67.0128 39.7774 67.4493 40.0648 68.2745 39.8802C72.8785 38.8378 77.5332 38.0306 82.2203 37.4618C83.0455 37.3629 83.5974 36.9054 83.6478 36.2724C83.8866 33.2791 84.1227 30.1777 84.3655 27.1264C84.4186 26.4737 83.9489 26.1097 83.1596 26.2073ZM125.516 27.7264C125.928 31.4607 126.357 35.3375 126.772 39.0693C127.969 39.3053 129.164 39.5545 130.355 39.8182C129.874 36.0733 129.379 32.1807 128.896 28.4331C127.773 28.1824 126.646 27.9468 125.516 27.7264ZM80.7809 28.507C80.5633 30.8581 80.3166 33.4862 80.1003 35.799C76.9747 36.2342 73.8796 36.7603 70.7911 37.4078L71.7026 30.0551C74.5734 29.4577 77.7282 28.9303 80.7796 28.507H80.7809ZM133.167 29.4604C133.765 33.2936 134.371 37.2403 134.95 40.9496C136.137 41.2358 137.312 41.5654 138.487 41.8845C138.063 39.3435 137.612 36.5256 137.181 33.9266C140.522 37.326 143.988 41.1698 147.384 44.717C148.499 45.1033 149.52 45.5055 150.701 45.9604C149.958 42.2683 149.136 38.1383 148.366 34.3129C147.278 33.891 146.19 33.4809 145.103 33.0892C145.58 35.65 146.151 38.5115 146.628 41.0142C143.272 37.4961 139.897 33.742 136.589 30.3729C135.472 30.0617 134.298 29.7452 133.167 29.4604ZM64.004 29.885C63.8333 29.8816 63.6631 29.9052 63.4998 29.9548C59.1763 31.1746 54.927 32.5433 50.7321 34.2272C49.9029 38.1093 49.0154 42.2221 48.1875 46.1055C49.3245 45.6466 50.4694 45.2088 51.6183 44.7816L53.5393 35.1028C56.0316 34.1909 58.5522 33.3571 61.0973 32.6027C60.9049 33.7934 60.6648 35.2228 60.4737 36.4135C58.0722 37.1363 55.6921 37.9273 53.3363 38.7857C54.1111 39.155 54.8951 39.5321 55.6951 39.9145C57.8696 39.1741 60.0638 38.4921 62.2753 37.8693C63.074 37.6412 63.6338 37.0939 63.7267 36.4399C63.9973 34.5674 64.3064 32.5565 64.5758 30.6867C64.6461 30.1948 64.4365 29.9061 64.004 29.885ZM45.7027 36.2408C45.5388 36.2654 45.3793 36.3133 45.2291 36.3832C41.4282 38.0526 37.7534 39.7985 34.1051 41.845C33.3887 42.2472 32.8063 42.9526 32.6059 43.6436C32.3035 44.6787 31.9227 45.9024 31.6202 46.9402C31.461 47.4874 31.5446 47.6997 32.1244 47.5164C35.127 46.643 38.1682 45.9065 41.2385 45.309C41.1058 45.8655 40.9002 46.7622 40.7649 47.316C38.1952 48.4975 35.5976 49.8873 33.0942 51.235C33.2772 50.5757 33.4523 50.006 33.6341 49.348C32.5555 49.9282 31.4544 50.5954 30.3891 51.2073C30.1012 52.2029 29.8465 53.1259 29.5573 54.1202C29.3583 54.8085 29.7165 54.9694 30.4727 54.5421C34.3279 52.3782 38.3464 50.25 42.3635 48.4856C43.1555 48.1388 43.7645 47.4967 43.9157 46.8294C44.1651 45.7481 44.4225 44.5258 44.6692 43.4405C44.79 42.9263 44.6427 42.6889 44.059 42.7904C40.975 43.3225 37.9166 43.9922 34.8931 44.7974C35.0271 44.3095 35.3044 43.4353 35.4397 42.9474C37.7613 41.6775 40.1506 40.5145 42.7005 39.3528C42.5638 39.9066 42.4325 40.4604 42.2959 41.0142C43.3811 40.5184 44.4729 40.0345 45.5727 39.5664L46.1723 36.9265C46.2851 36.4386 46.106 36.1973 45.7027 36.2408ZM153.487 36.3318C153.063 36.3014 152.864 36.5863 152.983 37.0939C153.739 40.2784 154.509 43.8401 155.265 47.0101C155.411 47.6826 156.008 48.2127 156.79 48.5568C160.73 50.2841 164.582 52.2019 168.332 54.3034C169.288 54.8309 169.752 54.8362 169.473 53.834C168.969 51.9391 168.306 49.4746 168.001 48.3775C165.069 46.7332 163.981 46.1398 160.532 44.419L162.336 46.9494C163.901 47.7446 164.18 47.8949 165.427 48.5753C165.719 49.5049 166.037 50.6917 166.236 51.4183C163.384 49.8175 161.367 48.8522 158.489 47.4808C157.732 44.5495 157.122 41.9689 156.512 39.5031C159.457 40.856 161.367 41.8081 164.007 43.2032C164.153 43.7926 164.339 44.5192 164.339 44.5192L167.417 46.2413C167.417 46.2413 166.979 44.6919 166.714 43.7952C166.502 43.037 166.077 42.4463 165.334 42.0441C161.46 39.9686 158.754 38.588 153.978 36.4663C153.824 36.3931 153.657 36.3475 153.487 36.3318ZM123.969 52.8477C120.334 52.9439 116.926 54.0213 113.774 56.0572C110.42 58.233 108.653 61.5151 108.653 65.5422C108.653 69.9253 111.165 75.3752 116.128 81.7522C118.308 84.4286 120.484 87.1081 122.656 89.7906L128.944 97.5428C128.949 97.5534 128.985 97.5929 128.992 97.6021L129.066 97.6918C129.358 98.0531 129.65 98.4065 129.932 98.7586L130.072 98.9617C134.862 105.826 137.295 112.293 137.295 118.187C137.295 118.684 137.274 119.182 137.242 119.673L137.21 120.06C137.18 120.416 137.144 120.771 137.101 121.123L137.091 121.2C137.071 121.359 137.048 121.51 137.025 121.673C136.993 121.899 136.952 122.129 136.912 122.354C136.733 123.255 136.501 124.144 136.218 125.018C136.14 125.246 136.43 125.391 136.642 125.532C137.011 125.776 139.764 127.385 142.581 128.317C142.819 128.394 142.899 128.394 142.965 128.242C143.549 126.878 144.013 125.551 144.372 124.203C144.385 124.162 144.385 124.129 144.398 124.088C145.194 121.182 145.592 118.186 145.592 115.18C145.592 110.059 144.491 105.109 142.302 100.47C141.188 98.0808 139.601 95.4567 137.586 92.6691C137.28 92.2432 136.969 91.8212 136.653 91.4032C136.568 91.2951 136.485 91.1791 136.397 91.0683L136.153 90.7518C135.832 90.3365 135.499 89.9079 135.155 89.4939C134.98 89.2645 134.8 89.0381 134.617 88.8148C134.365 88.5247 134.119 88.2332 133.875 87.9379L133.352 87.3181C133.038 86.955 132.727 86.5893 132.42 86.221L131.098 84.6545C129.213 82.428 127.338 80.1934 125.473 77.9505C120.214 71.3099 117.46 66.3334 117.292 63.1647C117.19 61.3344 117.812 59.9156 119.205 58.825C120.695 57.6554 122.198 57.1768 124.392 57.1768C125.74 57.1768 127.271 57.9231 128.286 59.0677C129.26 60.2703 129.732 61.3621 129.732 62.3946V62.5476C129.739 63.5893 129.754 65.7518 127.413 67.4555C127.366 67.4894 127.331 67.5364 127.312 67.5905C127.292 67.6446 127.29 67.7032 127.304 67.7588C127.319 67.8156 127.35 67.8667 127.394 67.9059C127.438 67.9451 127.493 67.9705 127.551 67.979C128.676 68.1201 129.846 68.19 131.033 68.19C135.406 68.19 137.651 66.3386 137.708 62.686C137.749 60.8993 137.137 58.2804 133.953 55.9465C131.512 54.1584 128.372 53.0085 125.542 52.8688C125.013 52.8424 124.489 52.8345 123.969 52.8477ZM142.449 83.6642C140.831 83.6642 139.767 83.7815 139.743 83.7829C139.686 83.7881 138.321 83.8554 136.227 84.2576C135.232 84.4329 134.473 84.6123 133.524 84.8602C133.173 84.9683 133.419 85.327 133.598 85.5406C133.906 85.9045 135.789 88.2029 136.093 88.5049C136.356 88.7633 136.4 88.9796 136.903 88.9203C137.429 88.7647 137.945 88.6302 138.431 88.5365C139.237 88.4036 140.05 88.3165 140.867 88.2754C141.035 88.2741 141.182 88.2688 141.307 88.2662C143.947 88.191 145.844 88.5985 145.871 88.6025C151.363 89.5189 151.88 94.0563 151.894 94.233L151.907 94.3741C151.934 95.4132 152.026 97.5731 149.718 99.3375C149.672 99.3746 149.638 99.4237 149.619 99.4792C149.601 99.5347 149.598 99.5944 149.612 99.6513C149.638 99.7634 149.745 99.8478 149.864 99.8583C151.018 99.9783 152.18 100.021 153.34 99.9862C155.516 99.9335 157.161 99.4298 158.262 98.4896C159.376 97.5362 159.92 96.1266 159.867 94.328C159.867 94.2568 159.854 87.7546 150.421 84.7679C147.542 83.8554 144.491 83.6655 142.448 83.6655L142.449 83.6642ZM119.676 93.4247C118.792 94.6159 118.035 95.8948 117.417 97.2408C117.324 97.4386 117.228 97.643 117.142 97.8435C117.093 97.9489 117.046 98.0505 117.004 98.1533L116.987 98.2061C115.726 101.265 115.135 104.757 115.233 108.586C115.233 108.695 115.679 119.428 123.583 126.757C125.679 128.707 128.029 130.368 130.569 131.697C131.052 131.934 131.526 132.171 132.002 132.382C133.965 133.279 136.027 133.952 138.132 134.4C138.76 134.545 139.34 134.637 139.853 134.716C141.201 134.927 142.528 135.033 143.801 135.033C144.916 135.033 145.552 134.954 145.552 134.941C155.303 134.598 159.628 130.497 160.65 128.131C160.674 128.073 160.679 128.009 160.665 127.947C160.651 127.886 160.618 127.83 160.57 127.788C160.464 127.708 160.331 127.699 160.225 127.775C157.24 129.772 153.711 130.787 149.691 130.787C147.304 130.787 144.862 130.431 142.435 129.723C141.864 129.559 141.4 129.401 140.954 129.231C140.241 128.967 139.544 128.663 138.866 128.32C137.567 127.666 136.332 126.896 135.174 126.019C134.733 125.679 134.303 125.328 133.883 124.964C128.943 120.635 126.984 115.417 126.965 115.356C125.617 112.023 124.794 109.174 124.835 105.261C124.856 103.781 125.047 102.294 125.395 100.837C125.398 100.833 125.395 100.826 125.398 100.824C125.422 100.723 125.485 100.345 125.485 100.345C125.536 100.141 125.439 99.9941 125.314 99.8557C125.006 99.5234 120.663 94.2515 120.392 93.9812C120.16 93.7517 119.996 93.3416 119.676 93.4247ZM130.444 136.299C130.321 136.325 130.219 136.417 130.077 136.615C129.603 137.248 129.095 137.881 128.571 138.514C123.55 144.382 117.102 149.393 109.394 153.402C109.262 153.467 109.206 153.612 109.25 153.758C109.291 153.876 109.402 153.955 109.528 153.955H109.573C118.239 152.571 125.809 148.984 132.093 143.274C132.121 143.248 132.146 143.222 132.197 143.182L132.279 143.09C133.139 142.299 133.912 141.547 134.617 140.795C135.068 140.373 135.712 139.582 136.596 138.488C136.694 138.356 136.6 138.237 136.479 138.211C133.514 137.67 131.4 136.628 130.95 136.431C130.715 136.325 130.568 136.272 130.444 136.299Z" fill="white"/>
<path d="M61.7445 49.2259C48.8481 52.6728 36.745 57.8366 25.7536 64.4351C24.1484 71.052 23.3152 76.7735 23.2383 82.5307C37.7612 72.8282 54.6482 65.7642 73.0145 62.1538C69.322 57.7893 65.5649 53.4804 61.7445 49.2259ZM80.6361 71.2801C59.4627 74.5978 40.1253 82.5808 24.0303 93.9844C24.5039 97.2598 25.1805 100.716 26.068 104.49C26.3466 105.67 26.6597 106.844 26.9901 108.016C44.8549 95.3175 67.0976 86.9165 91.5532 84.7157C87.9453 80.2118 84.3062 75.7341 80.6361 71.2801ZM99.5676 94.9944C73.305 96.2142 49.3668 104.707 30.5601 118.114C32.2352 122.049 34.1706 125.869 36.3536 129.549C53.7527 117.932 75.6002 110.48 99.5689 109.108V94.9944H99.5676ZM99.5676 120.451C78.0226 121.993 58.3111 128.534 42.3289 138.606C44.8309 142.007 47.498 145.286 50.3207 148.429C64.4297 140.676 81.2676 135.546 99.5676 134.056V120.451ZM99.5676 145.99C84.6427 147.44 70.7804 151.33 58.7542 157.08C62.2619 160.376 65.8094 163.396 69.2879 166.139C78.5427 162.658 88.7447 160.218 99.5676 159.058V145.99ZM99.5676 171.624C93.5532 172.353 87.6002 173.517 81.7559 175.105C89.8458 180.406 96.4619 183.808 99.5676 185.325V171.624Z" fill="#91B0D5"/>
</svg>
