<svg width="200" height="200" viewBox="0 0 200 200" fill="none" xmlns="http://www.w3.org/2000/svg">
<path d="M165.113 26.7174C164.355 26.6368 163.554 26.5504 162.681 26.4299C149.44 24.5942 142.263 19.1508 134.665 13.3883C126.392 7.11282 117.014 0 99.5224 0C82.0281 0 72.6513 7.11282 64.3783 13.3877C56.7796 19.1508 49.6014 24.5955 36.3604 26.4299C35.5508 26.5392 34.7395 26.6352 33.9268 26.718C30.9378 27.0377 23 27.8873 23 36.2828V118.512C23 139.421 29.5502 157.014 42.4695 170.803C55.1769 184.364 73.906 194.08 98.1361 199.678L99.5218 199.999L100.908 199.678C125.139 194.079 143.867 184.364 156.574 170.803C169.493 157.015 176.043 139.422 176.043 118.512V36.2834C176.043 27.8873 168.104 27.0371 165.113 26.7174Z" fill="white"/>
<path d="M99.5069 8.08008C84.703 8.08008 77.1717 13.7929 69.198 19.8422C61.1106 25.9746 52.7483 32.3165 37.4333 34.4397C36.4702 34.5725 35.5866 34.6685 34.7493 34.7581C31 35.1591 31 35.4259 31 36.3103V118.556C31 137.35 36.8175 153.087 48.2921 165.334C59.8225 177.64 77.0516 186.538 99.5069 191.787C121.963 186.538 139.191 177.639 150.722 165.334C162.196 153.089 168.014 137.351 168.014 118.556V36.3103C168.014 35.4259 168.014 35.1591 164.263 34.7581C163.427 34.6679 162.543 34.5725 161.579 34.4397C146.264 32.3165 137.903 25.9746 129.817 19.8422C121.842 13.7929 114.31 8.08008 99.5069 8.08008Z" fill="#DD004A"/>
<path d="M122.93 14.8796V184.18C115.365 187.417 107.525 189.963 99.5056 191.788C77.0503 186.539 59.8238 177.636 48.2921 165.331C36.8188 153.084 31 137.35 31 118.553V36.3109C31 35.424 31 35.1545 34.7506 34.7543C35.5885 34.6685 36.4714 34.5699 37.4346 34.4384C52.749 32.3165 61.1131 25.9701 69.196 19.8402C77.1743 13.789 84.7011 8.08008 99.5056 8.08008C110.095 8.08008 116.961 10.9968 122.93 14.8796Z" fill="#001837"/>
<path d="M117.654 38.0342C112.418 34.1907 106.803 32.1738 101.076 32.1738H100.722C89.2364 32.1738 78.2537 40.2354 69.7784 54.8859C64.2216 64.4783 48.4879 94.8904 33.2776 124.31C32.6885 125.453 32.095 126.601 31.497 127.753C32.1219 133.783 33.5391 139.703 35.7118 145.36C53.6255 111.275 75.734 69.4125 81.4867 59.0975C87.8488 47.6918 94.1838 42.213 100.913 42.3245C107.594 42.1995 113.924 47.6918 120.285 59.0975C121.413 61.1294 122.528 63.1685 123.63 65.2144V43.4022C121.808 41.4307 119.807 39.6337 117.654 38.0342ZM43.8602 86.1526L49.1621 76.5272C43.0175 77.8263 36.9532 79.4827 31 81.4878V90.2785C35.1754 88.7805 39.4273 87.4664 43.7556 86.3363L43.8602 86.1526ZM39.3121 95.2713C36.504 96.1716 33.7333 97.1549 31 98.2215V107.169C31.7526 106.854 32.5051 106.552 33.2641 106.25L39.3121 95.2713Z" fill="#DD004A"/>
<path d="M79.0904 83.1438C80.4389 83.1047 81.7937 83.0851 83.155 83.0851C96.8192 83.0469 110.428 84.823 123.629 88.3674V79.7804C110.501 76.4432 97.0109 74.7593 83.469 74.7676L79.0904 83.1438ZM101.697 94.4708C95.8064 93.7239 89.8772 93.3289 83.9403 93.288C83.4099 93.2751 82.8866 93.2751 82.3498 93.2751C79.4308 93.2816 76.5269 93.369 73.6383 93.5374L69.1486 102.131L68.9849 102.447L41.0254 155.932C42.7937 158.743 44.7879 161.404 46.988 163.888L79.4635 101.829C80.4254 101.809 81.4008 101.796 82.3697 101.796C84.9221 101.796 87.4488 101.855 89.9678 101.98C90.0583 101.985 90.1482 101.992 90.2388 101.997L89.9877 102.466L53.6962 170.491C56.001 172.464 58.4205 174.298 60.9418 175.983L99.7131 103.386L99.997 102.855C108.002 103.829 115.908 105.492 123.629 107.827V98.9447C117.232 97.1328 110.723 95.7499 104.144 94.8053C103.326 94.6874 102.515 94.5829 101.697 94.4708Z" fill="#DD004A"/>
<path d="M164.659 31.064C163.938 30.9866 163.04 30.8919 162.092 30.7597C147.746 28.7719 139.78 22.731 132.074 16.8854C123.961 10.733 115.572 4.37109 99.5216 4.37109C83.4688 4.37109 75.0809 10.7336 66.9627 16.8918C59.2606 22.7329 51.2952 28.7725 36.9504 30.7597C35.9936 30.8932 35.0998 30.9879 34.3819 31.064C31.2253 31.4024 27.2969 31.8233 27.2969 36.3411V118.57C27.2969 138.345 33.4547 154.943 45.6003 167.905C57.7137 180.834 75.714 190.13 99.1011 195.533L99.5146 195.629L99.5216 195.631L99.9454 195.533C123.331 190.127 141.331 180.832 153.444 167.905C165.589 154.944 171.746 138.345 171.746 118.57V36.3411C171.746 31.8226 167.817 31.4017 164.659 31.064ZM167.982 36.3411V118.57C167.982 137.352 162.169 153.08 150.702 165.317C139.182 177.611 121.962 186.506 99.5216 191.753C77.0817 186.506 59.8622 177.611 48.3408 165.317C36.8753 153.078 31.0616 137.351 31.0616 118.57V36.3411C31.0616 35.4793 31.0616 35.2195 34.7794 34.8218C35.6957 34.7238 36.5298 34.6323 37.4647 34.5027C52.7836 32.3795 61.1471 26.037 69.239 19.902C77.2057 13.8579 84.7306 8.14891 99.5216 8.14891C114.31 8.14891 121.837 13.8579 129.806 19.902C137.894 26.0363 146.256 32.3795 161.577 34.5027C162.504 34.6317 163.341 34.7232 164.261 34.8218C167.982 35.2195 167.982 35.4793 167.982 36.3411Z" fill="#001837"/>
<path d="M128.34 61.0401C128.34 50.7489 130.641 46.8184 138.502 46.8184H139.697C147.559 46.8184 149.86 50.7489 149.86 61.0401V64.0399C149.86 73.5512 147.857 77.5417 141.581 78.2018V69.0212C143.553 68.4507 143.942 67.2808 143.942 62.6606V62.4201C143.942 56.7795 142.746 55.9996 139.428 55.9996H138.741C135.454 55.9996 134.258 56.7795 134.258 62.4201V62.6606C134.258 67.2808 134.647 68.4507 136.619 69.0212V78.2018C130.342 77.5417 128.34 73.5518 128.34 64.0406V61.0401ZM128.638 80.7613H149.562V89.7621H128.639L128.638 80.7613ZM128.638 100.865H143.195V91.8344H149.561V118.897H143.194V109.866H128.638V100.865ZM128.638 131.832H137.665L149.561 119.95V130.962L143.404 136.782V137.082L149.562 142.873V152.715L137.665 140.833H128.638V131.832ZM157.368 66.169C156.525 66.169 156.138 66.8554 156.138 69.4614C156.138 71.622 156.377 72.273 157.003 72.273C157.664 72.273 157.777 71.8154 157.903 69.221C158.062 65.7345 158.61 64.3519 160.397 64.3519C162.149 64.3519 162.708 66.1458 162.708 69.1411C162.708 72.1589 161.956 73.9869 159.987 73.9869V71.9301C160.863 71.9301 161.079 71.0503 161.079 68.9122C161.079 66.8896 160.886 66.4087 160.294 66.4087C159.679 66.4087 159.565 66.8896 159.429 69.221C159.258 72.3755 159.087 74.3305 157.072 74.3305C154.942 74.3305 154.51 72.3072 154.51 69.3473C154.51 66.0665 155.068 64.1121 157.368 64.1121V66.169ZM160.876 84.6777V80.7916H154.624V78.7348H160.876V74.8481H162.594V84.6777H160.876ZM156.343 99.3159H154.624V91.086H162.594V93.1435H156.343V99.3159ZM158.62 100.151C161.261 100.151 162.708 101.66 162.708 105.18C162.708 108.69 161.251 110.21 158.62 110.21C155.979 110.21 154.51 108.69 154.51 105.18C154.51 101.66 155.967 100.151 158.62 100.151ZM158.62 108.152C160.238 108.152 160.99 107.329 160.99 105.18C160.99 103.031 160.249 102.209 158.62 102.209C156.981 102.209 156.229 103.043 156.229 105.18C156.229 107.318 156.992 108.152 158.62 108.152ZM154.51 116.323C154.51 112.802 155.842 111.294 158.62 111.294H162.594V113.351H158.62C157.504 113.351 156.229 113.66 156.229 116.323C156.229 118.986 157.515 119.294 158.62 119.294H162.594V121.352H158.62C155.853 121.352 154.51 119.833 154.51 116.323ZM154.624 124.551V122.493H162.594V124.551H154.624ZM157.368 127.644C156.525 127.644 156.138 128.33 156.138 130.936C156.138 133.096 156.377 133.748 157.003 133.748C157.664 133.748 157.777 133.29 157.903 130.696C158.062 127.209 158.61 125.826 160.397 125.826C162.149 125.826 162.708 127.621 162.708 130.616C162.708 133.633 161.956 135.462 159.987 135.462V133.405C160.863 133.405 161.079 132.525 161.079 130.387C161.079 128.364 160.886 127.884 160.294 127.884C159.679 127.884 159.565 128.364 159.429 130.696C159.258 133.851 159.087 135.805 157.072 135.805C154.942 135.805 154.51 133.782 154.51 130.822C154.51 127.541 155.068 125.587 157.368 125.587V127.644ZM89.4887 170.573C89.4887 171.526 90.2593 171.963 93.1841 171.963C95.6093 171.963 96.3407 171.693 96.3407 170.985C96.3407 170.238 95.827 170.108 92.915 169.967C89.0014 169.787 87.4487 169.169 87.4487 167.147C87.4487 165.162 89.463 164.532 92.8251 164.532C96.2123 164.532 98.2651 165.382 98.2651 167.611H95.9554C95.9554 166.619 94.9679 166.374 92.5683 166.374C90.2978 166.374 89.7584 166.593 89.7584 167.262C89.7584 167.958 90.2978 168.086 92.915 168.242C96.4563 168.435 98.6497 168.627 98.6497 170.908C98.6497 173.316 96.3792 173.805 93.0557 173.805C89.3731 173.805 87.1797 173.174 87.1797 170.573H89.4887ZM105.847 164.532C109.426 164.532 111.223 165.897 111.453 168.499H109.105C108.887 167.043 107.771 166.477 105.847 166.477C103.498 166.477 102.51 167.315 102.51 169.156C102.51 171.011 103.511 171.861 105.847 171.861C107.758 171.861 108.888 171.281 109.105 169.812H111.453C111.222 172.428 109.426 173.805 105.847 173.805C101.894 173.805 100.201 172.157 100.201 169.156C100.201 166.168 101.894 164.532 105.847 164.532Z" fill="white"/>
</svg>
