<svg width="200" height="200" viewBox="0 0 200 200" fill="none" xmlns="http://www.w3.org/2000/svg">
<path d="M94.4615 4.00117L88.9699 7.99234C82.1779 8.00235 81.3776 8.01235 81.3776 8.08237C81.3776 8.12238 81.6977 9.12267 82.0878 10.293C82.4879 11.4734 82.798 12.4336 82.778 12.4336C82.758 12.4336 81.9178 11.8335 80.9075 11.0933C79.8872 10.353 79.0369 9.75286 79.0169 9.75286C78.9869 9.75286 78.8569 10.083 78.7268 10.4831C78.5968 10.8832 78.0767 12.5037 77.5565 14.0741L76.6262 16.935C75.726 17.5952 73.2552 19.3757 70.5645 21.3363L65.663 24.8873C68.0537 32.5595 68.7239 34.8002 68.7039 34.8202C68.6839 34.8402 67.3935 34.9703 65.8531 35.1203C64.3026 35.2603 61.5618 35.5504 59.7613 35.7505C57.9508 35.9505 55.5501 36.2306 54.4097 36.3707C53.2794 36.5107 51.3788 36.7508 50.1985 36.9108C49.0081 37.0609 47.0876 37.3309 45.9172 37.501C44.7469 37.671 43.0764 37.9211 42.1961 38.0612C41.3259 38.2012 40.4056 38.3412 40.1655 38.3913L39.7354 38.4713C39.7054 74.5318 39.6854 84.9949 39.6654 84.9949C39.6554 84.9949 38.9852 85.125 38.185 85.275C37.3847 85.435 35.6942 85.7751 34.4239 86.0352C33.1535 86.2953 31.2529 86.7054 30.2026 86.9455C29.1523 87.1856 27.5819 87.5557 26.7016 87.7757C25.8313 87.9958 24.4409 88.3559 23.6107 88.586C22.7904 88.816 21.9002 89.0661 21.6401 89.1461C21.26 89.2662 21.18 89.3062 21.2 89.4062C21.21 89.4762 21.7802 91.5768 22.4604 94.0876C23.1506 96.5983 23.7207 98.6789 23.7307 98.7189C23.7407 98.749 22.8205 98.959 21.5301 99.2091C20.2997 99.4392 18.5392 99.7893 17.6189 99.9693C16.6887 100.149 15.4483 100.399 14.8681 100.529C14.278 100.65 13.7578 100.76 13.6978 100.78C13.5877 100.81 13.5877 101.01 13.5877 103.96V107.121C12.5474 108.212 10.947 109.902 9.36651 111.593C7.78605 113.273 5.35534 115.864 3.96493 117.344C2.57452 118.825 1.09409 120.395 0.683967 120.835C-0.0362441 121.596 -0.0662529 121.636 0.0537823 121.726C0.123803 121.776 1.05408 122.436 2.11439 123.186C3.1847 123.936 6.19558 126.067 8.80635 127.917L13.5577 131.288C13.5777 138.171 13.5978 138.991 13.6578 138.991C13.7078 138.991 14.0379 138.941 14.398 138.871C14.7581 138.801 16.0385 138.571 17.2388 138.361C18.4392 138.161 20.5198 137.81 21.8602 137.58C23.2006 137.36 25.3712 137.01 26.6716 136.8C27.982 136.6 30.0726 136.27 31.333 136.08C32.5833 135.89 34.984 135.54 36.6545 135.3C38.325 135.07 39.7254 134.88 39.7454 134.89C39.7754 134.91 39.8154 135.2 39.8454 135.53C39.8755 135.87 39.9555 136.54 40.0155 137.03C40.0855 137.51 40.2256 138.351 40.3356 138.901C40.5924 140.206 40.9129 141.498 41.2959 142.772C41.4159 143.192 41.706 144.022 41.9261 144.622C42.1561 145.223 42.5262 146.133 42.7463 146.653C42.9764 147.163 43.3765 148.023 43.6466 148.554C43.9066 149.094 44.4268 150.044 44.7969 150.684C45.157 151.314 45.8472 152.415 46.3173 153.115C46.7875 153.825 47.4277 154.735 47.7378 155.145C48.0479 155.566 48.578 156.236 48.9081 156.646C49.2482 157.066 49.8684 157.796 50.2885 158.276C50.7086 158.757 51.4488 159.557 51.919 160.067C52.3991 160.567 53.2294 161.397 53.7595 161.907C54.2897 162.428 55.0899 163.178 55.5401 163.588C56.9694 164.867 58.4406 166.098 59.9513 167.279C60.4415 167.669 61.2117 168.239 61.6618 168.569C62.112 168.9 63.0322 169.55 63.7225 170.03C64.4127 170.5 65.573 171.28 66.3132 171.76C67.0534 172.241 68.2938 173.021 69.064 173.481C69.8342 173.941 71.2547 174.761 72.2249 175.301C73.1852 175.842 74.5656 176.602 75.2858 176.982C76.0061 177.362 77.2864 178.012 78.1267 178.422C78.9669 178.832 80.1173 179.383 80.6874 179.653C81.2576 179.913 82.2779 180.383 82.9681 180.693C83.6583 181.003 84.9787 181.573 85.909 181.963C86.8292 182.343 88.3397 182.964 89.2499 183.324C90.1602 183.684 91.5806 184.224 92.4009 184.524C93.2311 184.824 94.9416 185.414 96.212 185.834C97.4823 186.265 98.8527 186.705 99.2429 186.825L99.9631 187.035C101.704 186.515 102.814 186.165 103.554 185.925C104.294 185.674 105.475 185.274 106.175 185.024C106.885 184.774 108.025 184.354 108.706 184.104C109.396 183.844 110.606 183.374 111.396 183.054C112.187 182.744 113.437 182.223 114.177 181.913C114.917 181.603 116.138 181.073 116.898 180.743C117.648 180.403 118.849 179.853 119.549 179.523C120.249 179.193 121.579 178.542 122.49 178.082C123.4 177.632 124.68 176.982 125.331 176.632C125.981 176.292 127.081 175.692 127.761 175.301C128.451 174.921 129.562 174.281 130.232 173.881C130.902 173.481 131.982 172.821 132.643 172.411C133.293 172 134.313 171.33 134.923 170.93C135.523 170.53 136.504 169.85 137.104 169.43C138.271 168.607 139.418 167.756 140.545 166.879C140.865 166.619 141.715 165.929 142.416 165.338C143.116 164.758 144.046 163.958 144.476 163.558C144.906 163.168 145.736 162.388 146.317 161.817C146.907 161.257 147.847 160.297 148.407 159.697C148.967 159.087 149.668 158.306 149.968 157.966C150.268 157.616 150.798 156.986 151.138 156.556C151.478 156.126 152.018 155.436 152.328 155.025C152.639 154.615 153.209 153.815 153.589 153.245C153.959 152.675 154.579 151.704 154.949 151.084C155.319 150.464 155.889 149.424 156.23 148.774C156.56 148.123 157.01 147.163 157.24 146.653C157.46 146.133 157.83 145.223 158.06 144.622C158.28 144.022 158.57 143.192 158.69 142.772C159.045 141.598 159.349 140.41 159.601 139.211C159.701 138.701 159.861 137.8 159.941 137.21C160.021 136.63 160.111 135.87 160.141 135.53C160.171 135.2 160.211 134.91 160.241 134.89C160.261 134.88 161.661 135.07 163.332 135.3C165.002 135.54 167.403 135.89 168.653 136.08C169.914 136.27 172.004 136.6 173.315 136.8C174.615 137.01 176.786 137.36 178.126 137.58C179.466 137.81 181.547 138.161 182.747 138.361C183.948 138.571 185.238 138.801 185.618 138.871C185.998 138.941 186.328 138.991 186.358 138.991C186.378 138.991 186.398 137.26 186.398 135.15V131.308C187.349 130.648 188.979 129.488 190.65 128.308C192.32 127.127 195.091 125.167 196.801 123.946C198.522 122.726 199.952 121.706 199.992 121.676C200.032 121.646 199.912 121.476 199.682 121.236C199.472 121.015 198.462 119.935 197.432 118.835C196.401 117.745 195.101 116.354 194.541 115.764C193.981 115.164 193.07 114.193 192.51 113.603C191.95 113.013 190.65 111.623 189.619 110.522C188.589 109.432 187.439 108.212 187.069 107.822L186.398 107.121C186.398 101.01 186.398 100.81 186.288 100.78C186.228 100.77 185.228 100.559 184.058 100.319C182.887 100.079 180.657 99.6292 179.096 99.3391C177.526 99.039 176.245 98.789 176.235 98.779C176.235 98.779 176.496 97.8187 176.816 96.6483C177.146 95.488 177.736 93.3574 178.126 91.937C178.526 90.5065 178.826 89.3262 178.796 89.2962C178.576 89.2112 178.352 89.1345 178.126 89.0661C177.776 88.9661 176.766 88.676 175.875 88.4459C174.985 88.2059 173.495 87.8257 172.564 87.5957C171.634 87.3756 170.314 87.0655 169.623 86.9055C168.943 86.7454 167.503 86.4353 166.443 86.2053C165.372 85.9852 163.572 85.6251 162.421 85.405C161.281 85.175 160.331 84.9949 160.321 84.9949C160.301 84.9949 160.281 74.5319 160.271 61.7381L160.251 38.4713C158.95 38.2512 158.12 38.1112 157.57 38.0211C157.02 37.9411 155.629 37.7311 154.479 37.561C153.329 37.391 151.328 37.1109 150.038 36.9408C148.747 36.7708 146.547 36.4907 145.136 36.3206C143.726 36.1406 141.405 35.8705 139.985 35.7205C138.554 35.5604 136.014 35.2903 134.323 35.1303C131.812 34.8902 131.262 34.8202 131.282 34.7402C131.292 34.6902 131.982 32.4595 132.813 29.7787L134.333 24.9073C129.732 21.5763 127.251 19.7858 125.861 18.7755L123.33 16.945C122.73 15.1244 122.2 13.504 121.769 12.1736C121.339 10.8432 120.969 9.75286 120.939 9.75286C120.909 9.75286 120.069 10.353 119.069 11.0933C118.058 11.8335 117.228 12.4336 117.208 12.4236C117.198 12.4136 117.428 11.6434 117.738 10.7231C118.038 9.79287 118.358 8.82259 118.448 8.56251C118.529 8.30243 118.589 8.07237 118.569 8.04236C118.559 8.02235 116.858 8.00235 114.787 8.00235L111.016 7.99234C107.585 5.50161 105.865 4.25125 104.995 3.62106C104.114 2.98087 102.634 1.91056 101.694 1.23036C101.126 0.811513 100.553 0.401345 99.9731 0C99.9631 0 97.4723 1.80053 94.4615 4.00117Z" fill="white"/>
<path d="M99.1533 4.24059C98.7332 4.54068 96.4925 6.17116 94.1718 7.86165L89.9306 10.9326C85.9794 10.9326 85.4993 10.9526 85.4993 11.0126C85.4993 11.0526 86.1595 13.1132 86.9797 15.5939C87.79 18.0646 88.4702 20.1152 88.4902 20.1553C88.5102 20.1853 88.4902 20.1953 88.4501 20.1853C88.4101 20.1653 86.6396 18.8949 84.509 17.3644C82.3884 15.824 80.6279 14.5636 80.5978 14.5536C80.5778 14.5436 80.2377 15.5039 79.8676 16.6842C79.4875 17.8746 79.1574 18.8549 79.1274 18.8749C79.1074 18.8949 76.8467 20.5154 74.1159 22.4859L69.1645 26.067C70.4749 30.2982 71.2751 32.869 71.7853 34.5095C72.3054 36.1499 72.7055 37.5003 72.6855 37.5203C72.6755 37.5303 71.2551 37.6604 69.5346 37.8004C67.8141 37.9505 65.1433 38.1905 63.6029 38.3406C62.0524 38.5006 59.6317 38.7507 58.2213 38.9108C56.8209 39.0608 54.5402 39.3309 53.1698 39.5009C51.7894 39.671 49.5387 39.9711 48.1683 40.1511C46.7879 40.3412 45.0174 40.6012 44.2272 40.7213C43.437 40.8413 42.7568 40.9513 42.7167 40.9714C42.6567 40.9914 42.6367 41.6215 42.6367 43.8422C42.6367 46.3229 42.6467 46.683 42.7267 46.683C42.7868 46.683 43.577 46.573 44.4973 46.433C45.4175 46.2929 47.148 46.0428 48.3584 45.8728C49.5587 45.7027 51.7794 45.4127 53.2898 45.2226C55.8811 44.8958 58.4753 44.5924 61.0721 44.3123C62.0524 44.2123 63.7329 44.0423 64.8132 43.9422C65.9035 43.8322 67.7941 43.6721 69.0345 43.5621L72.8756 43.252C73.7558 43.182 75.5664 43.052 76.9068 42.9719C78.2472 42.8819 80.3678 42.7519 81.6281 42.6919C82.8785 42.6218 85.0191 42.5118 86.3695 42.4618L88.8403 42.3518C93.1515 45.4927 95.6423 47.3132 97.1627 48.4235C98.6831 49.5339 99.9635 50.4241 100.014 50.4141C100.054 50.4041 102.594 48.5836 105.645 46.3729L111.207 42.3518C115.038 42.5218 117.159 42.6218 118.389 42.6919C119.629 42.7519 121.54 42.8619 122.64 42.9319C123.74 43.0019 125.571 43.132 126.701 43.222C127.842 43.302 129.762 43.4621 130.983 43.5621C132.203 43.6621 134.244 43.8522 135.514 43.9722C136.784 44.0923 139.075 44.3323 140.605 44.5024C142.136 44.6624 144.747 44.9725 146.417 45.1826C148.078 45.3927 150.358 45.6927 151.479 45.8428C152.589 46.0028 154.329 46.2529 155.33 46.4029C156.34 46.563 157.2 46.683 157.26 46.683C157.34 46.683 157.35 46.3329 157.33 43.8222L157.32 40.9714C155.67 40.7013 153.889 40.4412 152.289 40.2211C150.688 40.0011 148.368 39.691 147.137 39.5309C145.897 39.3809 143.636 39.1108 142.106 38.9408C140.575 38.7707 138.045 38.5006 136.484 38.3506C134.914 38.1905 132.223 37.9505 130.482 37.8104C128.752 37.6604 127.322 37.5403 127.312 37.5403C127.302 37.5303 127.752 36.0399 128.322 34.2194C128.882 32.3988 129.672 29.8481 130.072 28.5577C130.472 27.2673 130.813 26.177 130.833 26.137C130.843 26.087 128.872 24.6266 125.851 22.4559C123.1 20.4653 120.82 18.8049 120.8 18.7448C120.77 18.6948 120.45 17.7245 120.079 16.5942C119.719 15.4539 119.409 14.5236 119.409 14.5236C119.399 14.5136 117.639 15.784 115.508 17.3444C113.367 18.9049 111.597 20.1753 111.577 20.1753C111.567 20.1653 112.207 18.1047 113.017 15.5939C113.828 13.0832 114.488 11.0126 114.488 10.9826C114.488 10.9526 113.487 10.9326 112.257 10.9326H110.016C102.274 5.32091 99.9935 3.69043 99.9635 3.69043C99.9235 3.69043 99.5634 3.9405 99.1533 4.24059Z" fill="#B81137"/>
<path d="M96.5516 13.1633C94.681 14.5237 93.1106 15.6741 93.0606 15.7241C92.9705 15.8041 93.1206 16.2843 94.3109 19.9053L95.6513 23.9965H104.334C106.765 16.5243 106.985 15.7641 106.915 15.7041C106.875 15.6641 105.294 14.5237 103.414 13.1633C101.533 11.8029 99.9826 10.6826 99.9726 10.6826C99.9726 10.6826 98.4321 11.8029 96.5516 13.1633ZM79.3265 25.687C77.416 27.0874 75.8455 28.2778 75.8555 28.3178C75.8555 28.3678 76.4857 30.3484 77.2559 32.7191C78.0161 35.0898 78.6463 37.0403 78.6563 37.0503C78.6563 37.0604 80.5569 36.9603 82.8776 36.8403C85.1882 36.7102 87.0988 36.6102 87.0988 36.6002C87.1088 36.6002 87.719 34.7397 88.4592 32.469C89.1994 30.1983 89.8096 28.3178 89.8096 28.2778C89.7996 28.2478 88.2291 27.0774 86.3086 25.677L82.8076 23.1463L79.3265 25.687ZM113.687 25.677C111.796 27.0774 110.246 28.2478 110.246 28.2778C110.236 28.3178 110.826 30.1983 111.556 32.469C112.276 34.7397 112.876 36.6002 112.886 36.6002C112.886 36.6102 114.797 36.7102 117.108 36.8403C119.428 36.9603 121.329 37.0604 121.339 37.0503C121.339 37.0403 121.979 35.0598 122.759 32.6591C124.12 28.4678 124.18 28.2778 124.07 28.1777C124 28.1177 122.509 27.0274 120.739 25.747C118.968 24.4667 117.428 23.3563 117.328 23.2763L117.138 23.1363L113.687 25.677ZM95.6213 30.2183C95.6213 30.2383 95.0311 32.0689 94.3009 34.2995C93.5807 36.5202 93.0005 38.3707 93.0105 38.4007C93.0305 38.4408 94.601 39.5911 96.5016 40.9515C98.4021 42.3219 99.9926 43.4322 100.023 43.4122C100.063 43.4022 101.603 42.3019 103.464 40.9715C105.314 39.6411 106.875 38.5208 106.915 38.4808C106.985 38.4208 106.755 37.6505 105.664 34.2895L104.334 30.1883C97.5819 30.1883 95.6213 30.1983 95.6213 30.2183Z" fill="white"/>
<path d="M85.4985 45.3429C84.5182 45.3929 82.6377 45.4829 81.3073 45.563C79.9869 45.633 77.6862 45.773 76.1858 45.8731C74.6953 45.9831 72.7348 46.1231 71.8445 46.1832C70.9542 46.2532 69.3938 46.3832 68.3735 46.4732C67.3632 46.5533 65.5227 46.7233 64.2823 46.8433C63.0519 46.9634 61.3614 47.1334 60.5412 47.2235C59.7109 47.3035 58.2905 47.4635 57.3803 47.5636C56.47 47.6636 54.3894 47.9137 52.7589 48.1237C51.1284 48.3238 48.5077 48.6739 46.9472 48.9039C45.3868 49.124 43.7863 49.3641 43.3862 49.4241L42.666 49.5241C42.6359 82.5138 42.6459 84.4944 42.726 84.4944C42.786 84.4944 43.4962 84.3844 44.3064 84.2443C45.1267 84.1143 46.4371 83.9042 47.2273 83.7742C48.0175 83.6541 48.7277 83.5441 48.8078 83.5241L48.9478 83.4941C48.9478 61.3576 48.9578 54.9357 48.9778 54.9357C48.9978 54.9357 49.8481 54.8257 50.8684 54.6856C51.8887 54.5556 53.6392 54.3255 54.7595 54.1855C55.8698 54.0555 58.1005 53.7954 59.6909 53.6253C61.2914 53.4553 63.9222 53.1852 65.5327 53.0352C68.4135 52.7476 71.2979 52.4975 74.1852 52.2849C76.8407 52.0882 79.4983 51.9215 82.1575 51.7848C83.1878 51.7248 84.9583 51.6448 86.0887 51.5947C87.229 51.5447 89.3997 51.4747 90.9301 51.4347C92.4605 51.3947 94.2311 51.3447 94.8613 51.3247L96.0116 51.2746C88.0392 45.4229 87.8292 45.2829 87.5591 45.2729C87.4091 45.2629 86.4788 45.3029 85.4985 45.3429ZM112.116 45.3329C112.066 45.3829 111.116 46.0831 110.016 46.8834C108.925 47.6836 107.575 48.6639 107.025 49.064C106.475 49.4541 105.564 50.1243 105.004 50.5344C104.444 50.9445 103.994 51.2846 104.004 51.2947C104.014 51.2947 105.354 51.3347 106.995 51.3747C108.625 51.4047 111.056 51.4747 112.396 51.5247C113.737 51.5847 115.937 51.6848 117.298 51.7448C118.658 51.8148 120.219 51.9048 120.769 51.9348C121.319 51.9748 122.789 52.0749 124.05 52.1549C127.353 52.3926 130.654 52.6627 133.953 52.9651C135.223 53.0952 137.714 53.3453 139.484 53.5353C141.245 53.7254 144.046 54.0455 145.696 54.2455C147.347 54.4556 149.207 54.6856 149.837 54.7757C150.468 54.8657 151.008 54.9357 151.038 54.9357C151.078 54.9357 151.098 59.7371 151.098 69.2299V83.5241C152.628 83.7542 153.989 83.9742 155.119 84.1543C156.239 84.3443 157.2 84.4944 157.26 84.4944C157.34 84.4944 157.35 82.5238 157.33 67.0193L157.32 49.5341C155.579 49.2641 154.299 49.074 153.348 48.934C152.408 48.8039 150.998 48.6039 150.227 48.5038C147.42 48.137 144.609 47.7936 141.795 47.4735C140.705 47.3535 138.714 47.1334 137.354 47.0034C135.993 46.8634 134.223 46.6933 133.423 46.6233C132.612 46.5533 131.822 46.4832 131.672 46.4732C131.512 46.4532 130.152 46.3432 128.641 46.2232C127.131 46.1031 125.47 45.9731 124.95 45.9431C124.44 45.9031 123.36 45.8331 122.549 45.783C121.739 45.733 120.589 45.663 119.989 45.623C119.388 45.593 118.078 45.523 117.078 45.4729C116.087 45.4229 114.847 45.3629 114.327 45.3429C113.817 45.3229 113.127 45.2929 112.797 45.2729C112.326 45.2429 112.186 45.2529 112.116 45.3329Z" fill="#B81137"/>
<path d="M95.8116 54.5969C95.0714 54.6069 93.3809 54.6469 92.0605 54.6869C90.7301 54.7269 88.5395 54.797 87.1891 54.847C85.8287 54.897 83.8881 54.977 82.8778 55.027C81.8575 55.087 80.3371 55.1671 79.4969 55.2171C78.6566 55.2671 76.7761 55.3971 75.3156 55.4972C73.8552 55.6072 71.3645 55.7973 69.784 55.9373C68.2035 56.0773 65.6428 56.3174 64.1023 56.4675C62.5519 56.6175 60.1812 56.8676 58.8208 57.0276C57.4604 57.1877 55.5598 57.4077 54.5996 57.5278C53.6393 57.6478 52.749 57.7578 52.619 57.7778L52.3789 57.8078C52.3789 74.5728 52.4089 79.4442 52.4289 79.4642C52.4589 79.4742 53.6893 77.7737 55.1597 75.6731C56.6402 73.5725 57.8805 71.822 57.9205 71.7819C57.9605 71.7219 58.7708 71.6119 60.2612 71.4418C61.5116 71.3018 63.082 71.1317 63.7522 71.0617C64.4224 70.9917 65.7028 70.8617 66.5931 70.7816C67.4933 70.6916 69.2438 70.5416 70.5042 70.4415C71.7546 70.3415 73.7352 70.1815 74.9055 70.0914C76.0759 70.0114 78.0264 69.8814 79.2468 69.8114C80.4671 69.7413 82.3377 69.6413 83.408 69.5913C84.4683 69.5413 86.4289 69.4613 87.7493 69.4012C89.0697 69.3512 90.22 69.3112 90.29 69.3112H90.4301V80.0244H109.556V69.3112C109.816 69.3112 110.966 69.3512 112.266 69.4012C113.577 69.4613 115.517 69.5413 116.578 69.5913C117.648 69.6413 119.529 69.7413 120.769 69.8114C121.999 69.8814 124.14 70.0214 125.52 70.1215C126.891 70.2315 128.861 70.3815 129.892 70.4716C130.922 70.5516 132.652 70.7116 133.733 70.8117C134.813 70.9217 136.864 71.1318 138.294 71.2818C139.715 71.4418 141.135 71.5919 141.445 71.6319L142.005 71.7019C146.076 77.5036 147.317 79.2641 147.397 79.3642L147.537 79.5242V57.8078C147.177 57.7578 146.286 57.6478 145.326 57.5278C144.356 57.4077 142.485 57.1877 141.165 57.0376C139.845 56.8776 137.484 56.6275 135.923 56.4675C134.353 56.3174 131.782 56.0773 130.202 55.9373C128.621 55.7973 125.92 55.5872 124.2 55.4672C122.489 55.3471 120.339 55.2071 119.429 55.1571C118.508 55.1071 117.188 55.037 116.488 54.997C115.787 54.967 114.487 54.907 113.617 54.877C112.737 54.837 110.696 54.767 109.086 54.7169C107.465 54.6669 104.124 54.6169 101.653 54.6069C99.1726 54.5869 96.5419 54.5869 95.8116 54.5969Z" fill="#455560"/>
<path d="M66.8829 73.6022C66.4128 73.6422 64.9924 73.7823 63.722 73.9023C62.4516 74.0223 61.3413 74.1424 61.2413 74.1724C61.1213 74.2024 60.291 75.2327 57.8303 78.4336C56.0398 80.7543 54.5993 82.6749 54.6193 82.7049C54.6494 82.7349 55.5896 82.6449 56.73 82.5048C57.8603 82.3648 59.2907 82.1947 59.9109 82.1247C62.1862 81.8808 64.4636 81.6574 66.7429 81.4545L68.0633 81.3445V73.5022C67.8032 73.5122 67.3431 73.5522 66.8829 73.6022ZM131.982 77.4033V81.3145C132.202 81.3545 132.772 81.4145 133.392 81.4645C134.003 81.5245 135.523 81.6646 136.763 81.7846C138.004 81.9047 139.864 82.0947 140.915 82.2147C141.965 82.3348 143.385 82.5048 144.076 82.5949C144.756 82.6749 145.346 82.7249 145.366 82.7049C145.386 82.6749 143.976 80.7843 142.225 78.4937C140.465 76.213 138.994 74.3024 138.944 74.2524C138.874 74.1724 138.134 74.0824 135.773 73.8623C134.083 73.7022 132.542 73.5522 132.342 73.5322L131.992 73.4922L131.982 77.4033Z" fill="#B0B7BB"/>
<path d="M93.6218 82.9753C93.1917 82.9853 91.6312 83.0253 90.1508 83.0553C88.6804 83.0953 86.4397 83.1653 85.1893 83.2154C83.929 83.2654 82.0484 83.3554 80.9981 83.4054C79.9478 83.4554 78.0072 83.5654 76.6869 83.6555C75.3665 83.7455 73.696 83.8555 72.9758 83.9055C72.2455 83.9556 70.8051 84.0756 69.7548 84.1556C68.7045 84.2456 66.804 84.4157 65.5336 84.5357C64.2632 84.6558 62.3426 84.8458 61.2523 84.9659C60.172 85.0859 58.4615 85.286 57.4412 85.406C56.4309 85.526 54.6504 85.7561 53.48 85.9061C52.3097 86.0662 50.3991 86.3363 49.2288 86.5063C48.0585 86.6764 45.6177 87.0665 43.7972 87.3766C41.9767 87.6767 39.526 88.1168 38.3556 88.3368C37.1853 88.5569 35.4848 88.897 34.5745 89.0871C33.6642 89.2671 32.1538 89.5972 31.2035 89.8073C30.2632 90.0273 28.8628 90.3474 28.1126 90.5375C27.3524 90.7276 26.3121 90.9876 25.8019 91.1277C25.2818 91.2677 24.8517 91.3877 24.8517 91.3978C24.8417 91.3978 25.6519 94.4086 26.6522 98.0897L28.4627 104.782C25.6919 117.275 24.8817 120.966 24.8617 121.046C24.8417 121.126 24.8617 121.186 24.9117 121.186C24.9517 121.186 25.2418 121.106 25.5519 121.026C25.862 120.936 27.0123 120.636 28.1126 120.366C29.2129 120.096 30.6334 119.766 31.2635 119.616C31.9037 119.476 33.1641 119.206 34.0744 119.016C34.9846 118.836 36.8352 118.466 38.1656 118.216C39.5059 117.966 42.0267 117.515 43.7672 117.225C45.4977 116.925 47.6783 116.575 48.6086 116.435C49.5289 116.305 51.6595 116.005 53.32 115.785C54.9905 115.555 57.2111 115.275 58.2615 115.155C59.3018 115.035 61.1023 114.835 62.2526 114.715C63.403 114.595 65.2635 114.414 66.3838 114.314C67.4942 114.204 69.0946 114.064 69.9449 114.004C70.7851 113.934 72.4256 113.804 73.5959 113.714C74.7663 113.634 76.4268 113.514 77.287 113.464C78.1373 113.414 79.6877 113.334 80.718 113.274C81.7483 113.224 83.6089 113.144 84.8392 113.094C86.0796 113.044 88.2002 112.964 89.5606 112.924C91.1511 112.864 94.8322 112.844 99.9637 112.844C105.015 112.844 108.806 112.874 110.397 112.924C111.767 112.964 113.588 113.024 114.428 113.064C115.268 113.094 116.859 113.164 117.959 113.214C119.059 113.274 120.93 113.364 122.11 113.434C123.301 113.504 125.221 113.634 126.391 113.714C127.562 113.804 129.202 113.934 130.042 113.994C130.893 114.064 132.493 114.204 133.604 114.314C134.724 114.414 136.584 114.595 137.735 114.715C138.885 114.835 140.686 115.035 141.726 115.155C142.776 115.275 144.997 115.555 146.667 115.785C148.328 116.005 150.458 116.305 151.379 116.435C152.309 116.575 154.49 116.925 156.22 117.225C157.961 117.515 160.121 117.896 161.032 118.066C161.942 118.236 163.552 118.546 164.593 118.756C165.643 118.966 167.263 119.296 168.194 119.506C169.114 119.706 170.634 120.056 171.565 120.286C172.495 120.506 173.665 120.806 174.175 120.946C174.676 121.096 175.116 121.196 175.136 121.166C175.166 121.136 175.066 120.586 174.916 119.946C174.776 119.306 173.945 115.625 173.085 111.774L171.525 104.782C173.465 97.7096 174.295 94.6987 174.616 93.5284L175.196 91.4077C174.806 91.2777 173.745 91.0076 172.595 90.7176C171.445 90.4275 169.814 90.0373 168.974 89.8473C168.134 89.6572 166.623 89.3271 165.633 89.1271C164.633 88.917 162.862 88.5669 161.692 88.3469C160.521 88.1168 158.061 87.6867 156.22 87.3766C154.39 87.0665 151.929 86.6764 150.759 86.5063C149.588 86.3363 147.678 86.0662 146.507 85.9061C145.337 85.7561 143.797 85.556 143.076 85.466C142.356 85.386 140.906 85.2159 139.855 85.0959C138.805 84.9759 137.385 84.8158 136.704 84.7558C136.014 84.6858 134.534 84.5357 133.423 84.4357C132.303 84.3357 130.703 84.1956 129.862 84.1256C129.012 84.0556 127.312 83.9256 126.081 83.8455C124.841 83.7555 122.9 83.6355 121.77 83.5655C120.63 83.4954 118.809 83.3954 117.709 83.3454C116.609 83.2954 114.918 83.2254 113.958 83.1853C112.997 83.1453 111.277 83.0953 110.147 83.0553C109.016 83.0153 105.005 82.9853 101.244 82.9753C97.483 82.9653 94.0519 82.9653 93.6218 82.9753Z" fill="#B81137"/>
<path d="M93.9923 89.6559C93.8023 89.6959 93.4422 89.8459 93.1821 89.976C92.922 90.106 92.5519 90.3661 92.3519 90.5561C92.1518 90.7462 91.8717 91.0663 91.7417 91.2764C91.6016 91.4864 91.4216 91.8765 91.3215 92.1566L91.1515 92.6568V101.529C91.4216 102.3 91.6016 102.7 91.7417 102.9C91.8717 103.11 92.1518 103.43 92.3519 103.62C92.5519 103.81 92.912 104.07 93.1521 104.19C93.3922 104.32 93.7723 104.48 93.9923 104.54C94.3724 104.64 94.7626 104.65 99.0838 104.65C103.445 104.65 103.805 104.64 104.175 104.54C104.405 104.47 104.785 104.32 105.026 104.19C105.306 104.05 105.626 103.81 105.896 103.53C106.176 103.25 106.426 102.93 106.566 102.65C106.696 102.41 106.836 102.05 106.896 101.839C106.976 101.519 106.986 100.859 106.986 97.0881C106.986 93.447 106.976 92.6568 106.896 92.3667C106.846 92.1866 106.706 91.8165 106.576 91.5564C106.416 91.2263 106.216 90.9563 105.906 90.6462C105.586 90.3361 105.326 90.136 104.996 89.976C104.721 89.8469 104.437 89.7399 104.145 89.6559C103.825 89.5759 103.085 89.5559 99.0538 89.5659C95.3127 89.5659 94.2724 89.5859 93.9923 89.6559ZM109.787 89.7559C109.797 89.7859 110.057 90.076 110.367 90.4061L110.927 90.9963V103.59C110.027 104.48 109.787 104.75 109.807 104.77C109.817 104.78 110.877 104.82 112.148 104.86C113.418 104.9 114.638 104.93 114.868 104.93H115.269L113.998 103.65C113.988 96.2678 114.008 94.1072 114.038 94.0972C114.058 94.0772 115.999 96.5579 118.349 99.6088C120.69 102.66 122.641 105.2 122.691 105.25C122.751 105.34 123.121 105.38 125.051 105.491C126.302 105.561 127.462 105.631 127.622 105.651C127.792 105.671 127.922 105.661 127.922 105.641C127.922 105.611 127.672 105.31 127.362 104.98L126.802 104.37V91.8065C127.722 90.9162 127.982 90.6462 127.972 90.6462C127.962 90.6362 126.772 90.5561 125.332 90.4661C123.891 90.3761 122.661 90.3061 122.611 90.3161C122.561 90.3361 122.741 90.5561 123.101 90.9363L123.671 91.5264C123.671 98.9586 123.651 101.129 123.631 101.149C123.601 101.169 121.63 98.6385 119.25 95.5276L114.928 89.8659C114.568 89.8759 113.598 89.8459 112.548 89.8059C111.507 89.7759 110.447 89.7359 110.207 89.7259C109.967 89.7159 109.777 89.7359 109.787 89.7559ZM76.4672 90.4061C73.0662 90.6262 70.2754 90.8162 70.2654 90.8362C70.2654 90.8562 70.5054 91.1063 70.8155 91.3864L71.3757 91.9065V104.59C70.5054 105.531 70.2854 105.811 70.3354 105.811C70.3754 105.811 71.5758 105.721 73.0062 105.611C74.4266 105.501 75.6069 105.4 75.6269 105.39C75.647 105.37 75.3969 105.12 75.0768 104.82L74.4966 104.28L74.5066 100.929C75.1068 100.889 77.1274 100.769 79.3881 100.649C83.1091 100.449 83.5193 100.439 83.7193 100.529C83.8394 100.579 83.9894 100.709 84.0594 100.819C84.1795 101.009 84.1895 101.139 84.1895 102.4V103.78C82.9891 104.97 82.9291 105.06 83.0591 105.06C83.1492 105.06 84.3195 105 85.6599 104.93C86.9903 104.87 88.1906 104.81 88.3107 104.81H88.5307L87.2504 103.62C87.2504 101.129 87.2304 100.769 87.1503 100.499C87.0903 100.309 86.9803 100.039 86.9003 99.8989C86.8202 99.7688 86.6102 99.5088 86.4301 99.3387C86.2401 99.1587 85.97 98.9686 85.8299 98.8986C85.6799 98.8286 85.5599 98.7585 85.5599 98.7485C85.5599 98.7285 85.6899 98.6285 85.8599 98.5185C86.02 98.4084 86.2701 98.1984 86.4001 98.0383C86.5401 97.8783 86.7402 97.5982 86.8502 97.4182C86.9703 97.2381 87.1003 96.918 87.1503 96.718C87.2304 96.4179 87.2504 95.9777 87.2504 94.6874C87.2504 93.407 87.2203 92.9368 87.1503 92.6167C87.1003 92.3967 86.9603 92.0466 86.8502 91.8365C86.7402 91.6365 86.4601 91.2663 86.2201 91.0163C85.98 90.7762 85.6399 90.5061 85.4698 90.4161C85.2998 90.3261 84.9597 90.196 84.7196 90.126C84.3595 90.016 84.1394 89.996 83.4692 90.006C83.0191 90.006 79.8682 90.186 76.4672 90.4061ZM130.673 92.8968C130.673 94.4873 130.693 94.9374 130.753 94.9274C130.793 94.9274 131.073 94.7074 131.373 94.4273L131.923 93.9371L137.015 94.4673L137.045 105.28C135.925 106.321 135.895 106.361 136.045 106.391C136.135 106.411 137.265 106.541 138.575 106.681C139.886 106.821 141.026 106.951 141.116 106.971C141.216 106.981 141.296 106.971 141.296 106.931C141.296 106.901 141.036 106.591 140.726 106.241L140.166 105.621C140.166 95.0975 140.176 94.8074 140.276 94.8374C140.336 94.8474 141.486 94.9674 142.827 95.0975L145.257 95.3275C145.697 95.7777 145.988 96.0878 146.178 96.3078L146.538 96.718C146.538 93.497 146.518 92.5567 146.498 92.5567C146.468 92.5567 143.927 92.2867 140.856 91.9666C137.775 91.6365 134.354 91.2764 133.234 91.1563C132.113 91.0363 131.083 90.9163 130.943 90.8962L130.683 90.8662L130.673 92.8968ZM59.6323 91.8365C57.3116 92.0866 55.201 92.3467 54.9509 92.4067C54.6908 92.4667 54.2907 92.6067 54.0706 92.7268C53.8506 92.8368 53.5305 93.0369 53.3604 93.1669C53.1904 93.2969 52.8903 93.587 52.7002 93.8171C52.5102 94.0372 52.2501 94.4273 52.1201 94.6874C52 94.9474 51.84 95.3375 51.78 95.5576C51.6799 95.9377 51.6699 96.2978 51.6699 100.279C51.6699 104.29 51.6699 104.62 51.78 104.96C51.84 105.17 52 105.531 52.1201 105.771C52.2801 106.061 52.4802 106.321 52.7302 106.541C52.9303 106.731 53.2704 106.961 53.4805 107.061C53.6805 107.161 53.9806 107.271 54.1306 107.301C54.2907 107.341 54.5908 107.371 54.8108 107.371C55.0209 107.371 57.1615 107.161 59.5522 106.901C61.9529 106.641 64.0836 106.391 64.2836 106.341C64.862 106.161 65.4039 105.88 65.8841 105.511C66.0441 105.38 66.3142 105.11 66.4943 104.9C66.6743 104.7 66.9144 104.33 67.0344 104.09C67.1545 103.85 67.3145 103.43 67.3845 103.15C67.5046 102.68 67.5046 102.45 67.5046 98.4685C67.5046 94.9074 67.4846 94.2172 67.4045 93.8671C67.3545 93.647 67.2145 93.2769 67.0944 93.0569C66.9744 92.8268 66.7343 92.5067 66.5243 92.3067C66.3242 92.1066 65.9841 91.8665 65.7741 91.7565C65.554 91.6465 65.2039 91.5164 64.9938 91.4664C64.7738 91.4164 64.4337 91.3764 64.2236 91.3764C64.0135 91.3864 61.9529 91.5864 59.6323 91.8365Z" fill="white"/>
<path d="M127.731 98.239V104.031L128.551 104.841L128.541 93.7476L129.831 92.5673C129.201 92.5173 128.721 92.4873 128.371 92.4773L127.721 92.4473L127.731 98.239Z" fill="#B0B7BB"/>
<path d="M94.6818 92.6081C94.5617 92.6681 94.4117 92.8081 94.3517 92.9382C94.2517 93.1382 94.2416 93.4383 94.2617 97.1594C94.2717 101.131 94.2817 101.181 94.4117 101.351C94.4817 101.451 94.6018 101.561 94.6918 101.601C94.8018 101.661 95.8421 101.681 99.0831 101.681C102.334 101.681 103.374 101.661 103.494 101.601C103.574 101.561 103.704 101.431 103.784 101.311L103.934 101.091C103.924 93.2083 103.924 93.0882 103.804 92.8882C103.719 92.7605 103.602 92.6571 103.464 92.5881C103.274 92.508 102.644 92.498 99.0731 92.498C95.2219 92.498 94.8818 92.5081 94.6818 92.6081ZM79.2172 93.1282C76.9866 93.2583 75.006 93.3683 74.826 93.3683H74.5059V98.0297C74.966 97.9997 76.8966 97.8996 79.0972 97.7796C81.2979 97.6596 83.2184 97.5495 83.3785 97.5295C83.5285 97.5095 83.7186 97.4495 83.7986 97.3995C83.8686 97.3495 83.9886 97.2194 84.0587 97.1094C84.1787 96.9193 84.1887 96.7893 84.1887 95.1888C84.1887 93.5784 84.1787 93.4483 84.0587 93.2583C83.9726 93.1335 83.8553 93.0335 83.7186 92.9682C83.5985 92.9182 83.4485 92.8782 83.3885 92.8782C83.3285 92.8882 81.4479 92.9982 79.2172 93.1282Z" fill="#B81137"/>
<path d="M108.026 97.1985C108.026 101.14 108.016 101.57 107.916 101.96C107.846 102.21 107.676 102.66 107.526 102.96C107.36 103.28 107.166 103.585 106.946 103.87C106.786 104.06 106.486 104.361 106.286 104.531C106.086 104.701 105.735 104.941 105.505 105.071C105.275 105.201 104.835 105.381 104.525 105.471L103.965 105.651C96.1026 105.651 94.5021 105.671 94.5121 105.711C94.5221 105.751 94.7722 105.901 95.0623 106.041C95.3524 106.191 95.7325 106.341 95.9025 106.371C96.1026 106.411 97.7631 106.431 100.654 106.421L105.085 106.401C105.715 106.171 106.066 106.021 106.276 105.921C106.476 105.811 106.816 105.601 107.016 105.441C107.226 105.281 107.546 104.971 107.726 104.751C107.906 104.521 108.166 104.11 108.306 103.84C108.446 103.56 108.606 103.17 108.656 102.96C108.756 102.63 108.766 102.15 108.786 98.5589L108.806 94.5277C108.566 93.7474 108.406 93.3773 108.306 93.1973C108.196 93.0172 108.096 92.8672 108.066 92.8672C108.046 92.8672 108.026 94.8178 108.026 97.1985ZM88.2403 94.5277C88.2503 95.4179 88.2203 96.3382 88.1803 96.5583C88.1503 96.7783 88.0402 97.1585 87.9502 97.3985C87.8602 97.6386 87.6601 98.0187 87.5201 98.2288L87.25 98.6189C87.5101 98.969 87.6301 99.059 87.6701 99.059C87.7101 99.059 87.9202 98.899 88.1303 98.6989C88.4103 98.4288 88.5804 98.2088 88.7704 97.8086L89.0305 97.2885C89.0605 94.7678 89.0505 94.6077 88.9305 94.2176C88.8605 93.9775 88.7304 93.6474 88.6404 93.4974C88.5504 93.3373 88.4203 93.1473 88.3603 93.0572C88.2403 92.9072 88.2403 92.9272 88.2403 94.5277Z" fill="#B0B7BB"/>
<path d="M40.9856 94.6079L33.1133 96.0183C33.1333 99.1993 33.1533 100.12 33.1733 100.12C33.1933 100.12 33.4634 99.8094 33.7835 99.4393L34.3536 98.7491C35.474 98.5491 36.6343 98.349 37.6546 98.169L39.5152 97.8389V108.622C38.5749 109.722 38.4048 109.972 38.4548 109.982C38.5049 110.002 39.6952 109.802 41.1056 109.552C42.516 109.312 43.6864 109.082 43.7164 109.062C43.7464 109.042 43.5163 108.812 43.2062 108.542L42.6361 108.062V97.2787C43.8264 97.0586 44.9768 96.8486 45.9671 96.6685L47.7676 96.3384C48.6778 97.0886 48.9579 97.3087 48.9779 97.3087C48.9979 97.3087 49.0079 96.3784 49.0079 95.2481C49.0079 93.6376 48.9879 93.1875 48.9279 93.1875C48.8879 93.1975 45.3169 93.8277 40.9856 94.6079Z" fill="white"/>
<path d="M95.8124 93.4775C95.7523 93.4975 95.6523 93.5675 95.5623 93.6476C95.4823 93.7176 95.3822 93.8576 95.3322 93.9476C95.2622 94.0877 95.2422 94.7079 95.2422 97.3987V100.68H96.0524C96.0624 95.018 96.0624 94.8979 96.1825 94.6979C96.2525 94.5878 96.4025 94.4578 96.5226 94.3978C96.7126 94.3278 97.2228 94.3078 99.8335 94.3078H102.934V93.4375C97.4828 93.4375 95.8624 93.4575 95.8124 93.4775Z" fill="#B0B7BB"/>
<path d="M151.729 93.4975C151.569 93.5275 151.289 93.6075 151.099 93.6776C150.908 93.7476 150.618 93.9076 150.438 94.0377C150.258 94.1677 150.008 94.4078 149.888 94.5578C149.758 94.7179 149.578 94.9779 149.498 95.138C149.418 95.298 149.308 95.5981 149.258 95.7882C149.178 96.0983 149.168 96.8085 149.168 100.37C149.168 103.881 149.178 104.651 149.258 104.981C149.409 105.558 149.663 106.104 150.008 106.591C150.148 106.791 150.448 107.132 150.668 107.342C150.888 107.552 151.239 107.812 151.449 107.942C151.649 108.062 151.979 108.222 152.159 108.302C152.419 108.412 153.729 108.662 157.01 109.222C159.781 109.702 161.672 109.992 161.942 109.992C162.182 109.992 162.542 109.952 162.742 109.902C162.932 109.852 163.232 109.742 163.392 109.672C163.562 109.592 163.872 109.352 164.102 109.122C164.342 108.882 164.582 108.572 164.683 108.372C164.773 108.182 164.883 107.862 164.943 107.652C165.023 107.332 165.033 106.651 165.033 103.09C165.033 99.6393 165.013 98.8291 164.943 98.469C164.893 98.2289 164.743 97.7988 164.602 97.5287C164.472 97.2486 164.232 96.8485 164.072 96.6384C163.862 96.3677 163.624 96.1196 163.362 95.8982C163.132 95.7082 162.762 95.4581 162.532 95.3381C162.312 95.228 161.902 95.068 161.632 94.998C161.352 94.9279 159.201 94.5478 156.83 94.1577C154.47 93.7576 152.419 93.4375 152.269 93.4375C152.129 93.4475 151.879 93.4675 151.729 93.4975Z" fill="white"/>
<path d="M79.2169 94.1576C77.3263 94.2676 75.7158 94.3676 75.6458 94.3676H75.5058V96.9984C75.7158 96.9484 75.9059 96.9384 76.0459 96.9384H76.316V95.1178C77.0162 95.0678 78.4166 94.9878 79.8771 94.8978C81.3375 94.8178 82.6779 94.7277 82.8579 94.7177L83.188 94.6877V93.9375C82.7779 93.9475 81.1074 94.0475 79.2169 94.1576ZM68.4837 98.4788L68.4637 102.9C68.2036 103.75 68.0336 104.191 67.9135 104.421C67.7935 104.651 67.6035 104.981 67.4734 105.151C67.3534 105.321 67.0733 105.641 66.8632 105.861C66.6532 106.081 66.3031 106.371 66.093 106.511C65.893 106.661 65.5729 106.851 65.3828 106.941C65.1928 107.031 64.8427 107.161 64.6026 107.231C64.3625 107.301 63.9524 107.391 63.6923 107.431C63.4322 107.461 61.4917 107.682 59.381 107.902C57.2704 108.122 55.4199 108.322 55.2698 108.342C55.1298 108.352 55.0098 108.402 55.0098 108.432C55.0098 108.472 55.1398 108.562 55.2999 108.642C55.7569 108.869 56.2599 108.989 56.7703 108.992C57.0004 108.992 58.8909 108.802 60.9615 108.552C63.0321 108.312 64.9127 108.072 65.1427 108.022C65.3728 107.972 65.7329 107.862 65.923 107.782C66.123 107.702 66.3931 107.571 66.5331 107.491C66.6732 107.411 66.9433 107.231 67.1333 107.081C67.3134 106.941 67.6335 106.651 67.8235 106.451C68.0136 106.251 68.2837 105.931 68.4037 105.741C68.5337 105.561 68.7238 105.231 68.8238 105.011C68.9238 104.801 69.0639 104.421 69.1439 104.17C69.274 103.73 69.2739 103.62 69.304 99.8692C69.324 96.5883 69.314 95.9581 69.2239 95.558C69.1739 95.2979 69.0239 94.8778 68.8938 94.6277C68.7638 94.3776 68.6238 94.1476 68.5837 94.1175C68.5237 94.0675 68.5037 94.9578 68.4837 98.4788Z" fill="#B0B7BB"/>
<path d="M59.6312 94.7774C57.7206 94.9875 55.9701 95.1875 55.7401 95.2075C55.4 95.2375 55.2799 95.2776 55.1199 95.4276C54.9898 95.5376 54.8898 95.7077 54.8398 95.8877C54.7798 96.1078 54.7598 97.1281 54.7598 99.9489C54.7598 102.06 54.7798 103.81 54.8198 103.93C54.8498 104.05 54.9498 104.2 55.0399 104.26C55.1199 104.32 55.2899 104.37 55.4 104.37C55.51 104.37 57.4105 104.17 59.6312 103.93C61.8518 103.69 63.7424 103.46 63.8424 103.42C63.9425 103.37 64.1025 103.25 64.2025 103.14L64.3826 102.93V94.7474C64.0125 94.3873 63.9725 94.3673 63.5523 94.3773C63.3023 94.3773 61.5418 94.5573 59.6312 94.7774Z" fill="#B81137"/>
<path d="M147.537 96.189V97.8695C148.097 98.4897 148.277 98.6798 148.307 98.6798C148.327 98.6798 148.357 97.7595 148.357 96.6392V94.5886C147.897 94.5185 147.707 94.4985 147.647 94.4985C147.547 94.4985 147.537 94.6186 147.537 96.189ZM50.2886 94.7586L49.9785 94.8186L50.0085 98.2196C50.5687 98.6698 50.7487 98.7898 50.7787 98.7598C50.7988 98.7398 50.8288 97.8095 50.8188 96.6992C50.8188 94.8186 50.8188 94.6886 50.7087 94.6886C50.6487 94.6986 50.4587 94.7286 50.2886 94.7586ZM132.483 95.949C132.483 96.4791 132.503 96.9192 132.523 96.9493C132.553 96.9693 132.833 96.7592 133.143 96.4791L133.703 95.959C135.304 96.129 135.824 96.179 135.904 96.179C136.034 96.189 136.044 96.159 136.044 95.7789C136.044 95.4088 136.034 95.3688 135.904 95.3488C135.824 95.3288 135.083 95.2488 134.263 95.1587C133.443 95.0687 132.703 94.9987 132.623 94.9987C132.483 94.9987 132.483 95.0087 132.483 95.949ZM59.7614 95.7589C57.4207 96.019 56.4104 96.159 56.2604 96.239C56.1503 96.2891 55.9903 96.4291 55.9203 96.5291C55.7902 96.7092 55.7902 96.7792 55.7702 100.06L55.7502 103.401C56.2203 103.331 56.3904 103.311 56.4304 103.311C56.4904 103.311 56.5104 102.671 56.5204 100.38L56.5404 97.4594C56.7905 97.1293 56.9606 96.9793 57.0706 96.9292C57.2206 96.8592 58.1409 96.7392 60.1315 96.5291C61.692 96.3691 63.0824 96.219 63.2124 96.199L63.4425 96.149V95.3688C63.1324 95.3888 61.5619 95.5588 59.7614 95.7589ZM141.105 100.64V105.282L141.975 106.152V96.8092C142.296 96.8592 143.056 96.9493 143.886 97.0293C144.706 97.1193 145.447 97.1893 145.527 97.1693C145.647 97.1593 145.627 97.1093 145.276 96.7292L144.886 96.3191C142.176 96.069 141.325 95.999 141.245 95.999H141.105V100.64Z" fill="#B0B7BB"/>
<path d="M152.507 96.6485L152.297 96.8586C152.287 104.151 152.307 104.901 152.377 105.041C152.417 105.141 152.557 105.301 152.687 105.421C152.807 105.531 152.938 105.621 152.978 105.621C153.008 105.621 154.848 105.931 157.049 106.311C159.259 106.681 161.18 106.992 161.32 107.002C161.5 107.002 161.61 106.962 161.74 106.842C161.837 106.741 161.906 106.617 161.94 106.481C161.96 106.371 161.97 104.511 161.96 102.36C161.94 98.5591 161.94 98.4391 161.82 98.269C161.75 98.179 161.62 98.0489 161.53 97.9889C161.41 97.8889 160.45 97.7088 157.259 97.1487C154.988 96.7586 153.038 96.4385 152.918 96.4385C152.767 96.4385 152.657 96.4885 152.507 96.6485Z" fill="#B81137"/>
<path d="M115.047 100.17V103.341L115.798 104.091L115.808 97.9693C115.267 97.2191 115.097 96.999 115.077 96.999C115.067 96.999 115.047 98.4194 115.047 100.17ZM45.4169 97.7692L43.6664 98.0993L43.6364 107.462C44.2166 107.922 44.3966 108.042 44.4166 108.012C44.4366 107.982 44.4466 105.892 44.4466 103.351C44.4466 100.82 44.4666 98.7495 44.4766 98.7495C44.4966 98.7495 45.3069 98.6095 46.2772 98.4294C47.2474 98.2594 48.0577 98.1193 48.0877 98.1193C48.1177 98.1193 47.9476 97.9693 47.7276 97.7793C47.5075 97.5892 47.2875 97.4392 47.2474 97.4392C47.1974 97.4492 46.3772 97.5992 45.4169 97.7692ZM153.619 97.7092C153.549 97.7592 153.439 97.8593 153.389 97.9393C153.309 98.0693 153.289 98.5095 153.289 101.39V104.681L154.069 104.781C154.129 99.0596 154.139 98.9396 154.259 98.8096C154.329 98.7295 154.429 98.6495 154.489 98.6195C154.559 98.5795 155.639 98.7395 157.72 99.0896C159.44 99.3797 160.881 99.6198 160.911 99.6198C160.941 99.6198 160.971 99.4397 160.971 99.2197C160.971 98.9896 160.961 98.8096 160.961 98.8096C160.951 98.8096 159.39 98.5395 157.51 98.2194C155.619 97.8893 153.999 97.6192 153.909 97.6192C153.829 97.6292 153.699 97.6592 153.619 97.7092ZM36.7043 99.3297L34.9238 99.6398C34.9538 101.61 34.9638 101.65 35.0639 101.52C35.1239 101.44 35.394 101.11 35.674 100.79L36.1742 100.2L38.5149 99.7798C38.5149 99.1697 38.5049 98.9996 38.4949 98.9996C38.4849 99.0096 37.6846 99.1497 36.7043 99.3297ZM166.092 99.0596L166.072 103.371C166.062 107.152 166.042 107.702 165.952 108.042C165.892 108.262 165.782 108.582 165.702 108.762C165.622 108.943 165.442 109.243 165.302 109.433C165.172 109.623 164.902 109.913 164.712 110.073C164.532 110.233 164.182 110.473 163.942 110.593C163.702 110.713 163.321 110.853 163.101 110.913C162.841 110.973 162.451 111.013 162.061 111.013C161.551 111.003 160.641 110.863 157.04 110.233C154.609 109.803 152.608 109.463 152.568 109.483C152.538 109.503 152.608 109.593 152.728 109.693C153.13 110.011 153.574 110.27 154.049 110.463C154.349 110.573 155.599 110.813 158.36 111.283C160.501 111.653 162.491 111.963 162.781 111.983C163.191 112.003 163.442 111.983 163.862 111.873C164.162 111.803 164.532 111.683 164.672 111.613C164.822 111.543 165.102 111.373 165.302 111.233C165.492 111.103 165.792 110.833 165.952 110.633C166.112 110.443 166.342 110.053 166.472 109.773C166.602 109.503 166.742 109.123 166.792 108.933C166.863 108.662 166.873 107.772 166.873 104.651V100.72C166.612 99.9399 166.432 99.5598 166.312 99.3697C166.192 99.1797 166.102 99.0396 166.092 99.0596ZM88.2595 102.111L88.2495 103.181C88.7896 103.691 88.9797 103.851 89.0097 103.851C89.0297 103.861 89.0597 103.561 89.0597 103.181C89.0597 102.701 89.0297 102.391 88.9497 102.141C88.8796 101.94 88.7496 101.65 88.6396 101.5C88.5395 101.34 88.4095 101.18 88.3595 101.13C88.2895 101.06 88.2695 101.2 88.2595 102.111ZM78.9667 101.72C77.0762 101.83 75.5257 101.93 75.5157 101.93C75.5057 101.93 75.5057 102.361 75.5057 102.891V103.841L76.316 104.561V102.651C81.5175 102.381 83.0679 102.301 83.108 102.311C83.158 102.311 83.188 102.191 83.188 101.9V101.5C82.5778 101.51 80.8573 101.6 78.9667 101.72Z" fill="#B0B7BB"/>
<path d="M23.4216 101.88C22.9115 101.98 21.281 102.3 19.8006 102.6C18.3201 102.891 16.9798 103.161 16.8197 103.191L16.5196 103.251L16.5096 108.342C12.6185 112.463 9.91768 115.344 7.99712 117.395C6.06655 119.445 4.49609 121.146 4.49609 121.176C4.49609 121.216 4.81619 121.466 5.2163 121.746C5.60642 122.036 6.29662 122.526 6.74675 122.836C7.18688 123.156 8.87738 124.347 10.4879 125.497C12.1083 126.637 13.9489 127.948 14.5891 128.398L16.1295 129.498L16.5296 129.778C16.5196 134.83 16.5396 135.43 16.5996 135.43C16.6397 135.43 17.0698 135.36 17.5499 135.27C18.0301 135.19 19.5105 134.94 20.8309 134.72C22.1513 134.49 23.8618 134.21 24.632 134.09C25.3922 133.97 26.6326 133.77 27.3728 133.65C28.123 133.53 29.6935 133.289 30.8638 133.119C32.0242 132.949 33.4346 132.739 33.9847 132.649C34.5349 132.569 35.5352 132.419 36.2154 132.329C36.9456 132.219 37.4257 132.129 37.4157 132.089C37.3957 132.059 35.3551 131.219 32.8744 130.229C30.3937 129.248 26.6826 127.768 24.622 126.948C22.5614 126.137 20.8709 125.437 20.8509 125.397C20.8409 125.367 21.8612 120.726 23.1316 115.094L25.4422 104.841C24.662 101.86 24.602 101.69 24.492 101.69C24.4219 101.69 23.9418 101.78 23.4216 101.88ZM175.006 103.261L174.586 104.841C177.117 116.274 178.147 120.896 178.497 122.496C178.847 124.097 179.137 125.407 179.137 125.417C179.127 125.427 175.396 126.918 170.845 128.738C166.294 130.559 162.562 132.069 162.552 132.099C162.542 132.129 164.423 132.429 166.734 132.769C169.044 133.109 172.585 133.65 174.596 133.97C176.607 134.29 179.397 134.75 180.798 134.99C182.198 135.23 183.369 135.43 183.409 135.43C183.449 135.43 183.469 134.45 183.469 132.609V129.778C191.621 123.997 194.352 122.076 194.792 121.766L195.582 121.216L183.469 108.282V103.251C182.908 103.141 182.508 103.061 182.218 103.001C181.928 102.931 180.308 102.61 178.627 102.28C176.937 101.95 175.536 101.68 175.496 101.68C175.456 101.68 175.236 102.39 175.006 103.261Z" fill="#B81137"/>
<path d="M87.3695 105.821L85.5789 105.882C84.9488 106.532 84.7687 106.722 84.7687 106.732C84.7787 106.742 85.909 106.702 87.2794 106.652C88.6498 106.602 89.9002 106.542 90.0403 106.522L90.3103 106.492C89.5901 105.831 89.4601 105.751 89.32 105.751C89.23 105.761 88.3498 105.791 87.3695 105.821ZM111.897 106.302L111.517 106.682C112.007 106.692 113.237 106.732 114.577 106.772C115.918 106.822 117.028 106.852 117.028 106.852C117.038 106.842 116.858 106.652 116.628 106.422L116.208 106.002L112.267 105.922L111.897 106.302ZM74.6557 106.542L72.8452 106.692L71.975 107.572C72.5551 107.522 73.7655 107.422 75.0359 107.332C76.3062 107.242 77.3865 107.162 77.4366 107.142C77.5066 107.122 77.4166 107.002 77.1265 106.742C76.8864 106.512 76.6663 106.372 76.5963 106.382C76.5263 106.382 75.656 106.452 74.6557 106.542ZM123.97 106.412C123.98 106.422 124.12 106.622 124.28 106.842L124.58 107.252C124.58 107.252 125.631 107.312 126.921 107.402C128.211 107.492 129.392 107.562 129.542 107.562H129.832L129.012 106.762C125.091 106.482 123.96 106.402 123.97 106.412ZM138.054 108.012C137.844 108.192 137.694 108.352 137.714 108.382C137.744 108.402 138.975 108.542 140.445 108.702C141.925 108.862 143.146 108.982 143.146 108.982C143.156 108.972 142.986 108.772 142.776 108.542L142.386 108.112C139.435 107.782 138.544 107.682 138.504 107.682C138.464 107.682 138.254 107.832 138.054 108.012ZM43.3166 110.153C42.4763 110.303 41.586 110.453 41.336 110.493L40.8858 110.563C40.3057 111.273 40.1756 111.473 40.2156 111.483C40.2557 111.503 41.496 111.283 42.9665 111.013L45.6472 110.523C45.3772 110.303 45.1871 110.163 45.0671 110.063L44.837 109.893L43.3166 110.153Z" fill="#B0B7BB"/>
<path d="M92.1212 115.804C91.211 115.824 90.4608 115.854 90.4508 115.854C90.4408 115.864 90.4307 126.298 90.4207 139.041L90.4007 162.208C85.6393 166.129 84.2089 167.32 84.1589 167.37C84.0689 167.45 84.1589 167.51 84.9791 167.92C85.4893 168.18 86.5696 168.69 87.3698 169.07C88.1801 169.45 89.3904 170 90.0606 170.29C90.7308 170.58 91.7811 171.031 92.4013 171.291C93.0215 171.551 94.0918 171.971 94.772 172.241C95.4622 172.511 96.6026 172.941 97.3028 173.201C98.013 173.451 98.8932 173.781 99.2733 173.911L99.9635 174.162C101.704 173.561 102.744 173.181 103.395 172.941C104.055 172.701 105.045 172.321 105.615 172.101C106.185 171.881 107.156 171.481 107.776 171.221C108.386 170.971 109.376 170.54 109.956 170.29C110.547 170.03 111.657 169.52 112.427 169.16C113.197 168.8 114.308 168.27 114.878 167.99C115.548 167.65 115.908 167.44 115.868 167.4C115.838 167.37 114.408 166.169 112.687 164.739L109.556 162.148C109.556 117.025 109.546 115.864 109.446 115.834C109.386 115.814 105.835 115.784 101.554 115.774C97.2728 115.774 93.0315 115.784 92.1212 115.804Z" fill="#455560"/>
<path d="M65.6328 117.345C64.4424 117.465 62.5219 117.655 61.3515 117.785C60.1812 117.905 57.7805 118.185 56.01 118.405C54.2394 118.625 52.699 118.825 52.589 118.835L52.3789 118.875C52.3789 124.847 52.3889 124.877 52.539 125.637C52.629 126.057 52.849 126.827 53.0191 127.337C53.1891 127.858 53.5292 128.698 53.7693 129.218C54.2536 130.252 54.8084 131.251 55.4298 132.209C55.6499 132.559 56.01 133.079 56.21 133.369C56.4201 133.659 56.8902 134.28 57.2503 134.74C57.6104 135.21 58.2206 135.94 58.6007 136.37C58.9708 136.8 59.631 137.53 60.0612 137.981C60.5013 138.441 61.4216 139.361 62.1318 140.021C62.832 140.691 63.8323 141.592 64.3524 142.032C64.8626 142.482 65.5628 143.072 65.9129 143.342C66.253 143.622 66.8531 144.092 67.2333 144.392C67.6234 144.693 67.9735 144.923 68.0035 144.903C68.0435 144.883 68.0635 140.181 68.0635 130.999V117.124C67.8434 117.134 66.8131 117.225 65.6328 117.345ZM131.992 131.049L131.982 144.993C132.973 144.252 133.543 143.802 133.893 143.532C134.233 143.252 134.993 142.622 135.573 142.112C136.163 141.612 137.114 140.751 137.704 140.201C138.284 139.651 139.154 138.791 139.634 138.301C140.115 137.801 140.865 136.99 141.295 136.49C141.735 136 142.395 135.19 142.765 134.71C143.146 134.23 143.696 133.489 143.986 133.059C144.286 132.629 144.746 131.909 145.016 131.459C145.276 131.019 145.716 130.198 145.986 129.648C146.256 129.098 146.607 128.298 146.767 127.868C146.927 127.438 147.117 126.837 147.197 126.527C147.277 126.217 147.407 125.667 147.477 125.307C147.597 124.707 147.607 124.427 147.607 121.756V118.875C147.237 118.825 146.376 118.715 145.446 118.595C142.983 118.269 140.515 117.976 138.044 117.715C136.894 117.595 135.193 117.435 134.263 117.345C133.333 117.255 132.442 117.165 132.282 117.145L131.992 117.104V131.049Z" fill="#B0B7BB"/>
<path d="M46.1963 119.845L43.0454 120.375L42.6152 120.445C42.6352 129.467 42.6653 132.678 42.6953 133.399C42.7253 134.119 42.8053 135.149 42.8553 135.679C42.9153 136.209 43.0354 137.13 43.1354 137.71C43.2354 138.3 43.4455 139.3 43.6055 139.931C43.9267 141.201 44.3174 142.454 44.7759 143.682C44.9059 144.042 45.176 144.702 45.366 145.152C45.5561 145.592 45.9962 146.522 46.3463 147.213C46.6864 147.903 47.2466 148.913 47.5767 149.463C47.9068 150.014 48.3069 150.674 48.477 150.934C48.647 151.184 49.0071 151.724 49.2872 152.114C50.0304 153.195 50.8249 154.24 51.6679 155.245C52.088 155.745 52.8182 156.585 53.2984 157.116C53.7885 157.656 54.7088 158.606 55.359 159.246C56.0092 159.876 56.9594 160.777 57.4796 161.247C57.9897 161.707 58.71 162.347 59.0701 162.647C59.4302 162.957 60.2704 163.648 60.9406 164.188C61.6108 164.718 62.7411 165.578 63.4413 166.098C64.1415 166.618 65.2719 167.409 65.9421 167.869C66.6123 168.319 67.8326 169.119 68.6629 169.649C69.4831 170.169 70.5334 170.82 71.0036 171.1C71.4637 171.38 72.3339 171.88 72.9341 172.23C73.5443 172.57 74.7247 173.22 75.5649 173.68C76.4051 174.141 78.1657 175.041 79.466 175.681C80.7764 176.331 82.5069 177.151 83.3072 177.522C84.1174 177.892 85.4678 178.492 86.308 178.852C87.1483 179.212 88.5287 179.792 89.3689 180.132C90.2092 180.472 91.4195 180.953 92.0597 181.193C92.6899 181.433 93.6502 181.783 94.1804 181.973C94.7105 182.163 96.231 182.683 97.5513 183.123L99.962 183.913C100.642 183.723 101.753 183.353 102.863 182.983C103.983 182.603 105.554 182.053 106.364 181.763C107.174 181.473 108.495 180.973 109.305 180.652C110.105 180.332 111.285 179.852 111.926 179.592C112.566 179.322 113.606 178.882 114.236 178.602C114.876 178.332 116.067 177.792 116.897 177.412C117.717 177.041 119.428 176.211 120.708 175.591C121.979 174.961 123.649 174.111 124.419 173.68C125.199 173.26 126.42 172.57 127.14 172.16C127.86 171.75 128.76 171.23 129.141 171.01C129.521 170.78 130.501 170.169 131.321 169.649C132.151 169.119 133.372 168.319 134.042 167.869C134.712 167.409 135.843 166.618 136.543 166.098C137.243 165.578 138.373 164.718 139.043 164.188C139.714 163.648 140.614 162.917 141.044 162.547C141.474 162.187 142.154 161.587 142.575 161.207C142.985 160.837 143.885 159.976 144.565 159.306C145.245 158.636 146.176 157.676 146.626 157.176C147.086 156.685 147.846 155.815 148.316 155.245C148.796 154.675 149.477 153.815 149.837 153.334C150.197 152.854 150.867 151.904 151.317 151.214C151.777 150.524 152.337 149.643 152.567 149.243C152.808 148.843 153.308 147.903 153.688 147.153C154.068 146.392 154.578 145.312 154.808 144.742C155.048 144.172 155.428 143.131 155.658 142.431C155.926 141.637 156.163 140.833 156.369 140.021C156.529 139.41 156.729 138.51 156.809 138.03C156.899 137.54 157.029 136.71 157.099 136.179C157.159 135.649 157.249 134.619 157.279 133.899C157.319 133.179 157.349 129.858 157.349 126.507C157.349 123.166 157.339 120.435 157.319 120.435C157.299 120.435 155.938 120.205 154.288 119.935C152.637 119.655 151.247 119.435 151.197 119.435C151.107 119.435 151.097 120.175 151.097 125.756C151.097 129.237 151.067 132.668 151.037 133.369C150.997 134.069 150.927 134.999 150.877 135.429C150.827 135.859 150.687 136.71 150.557 137.31C150.437 137.91 150.257 138.7 150.167 139.06C150.067 139.42 149.867 140.061 149.727 140.491C149.587 140.921 149.337 141.601 149.176 141.991C149.026 142.391 148.686 143.161 148.436 143.712C148.176 144.262 147.786 145.052 147.556 145.462C146.985 146.482 146.371 147.476 145.715 148.443C145.465 148.803 144.915 149.553 144.495 150.094C144.085 150.644 143.365 151.524 142.915 152.054C142.455 152.584 141.354 153.755 140.454 154.655C139.554 155.555 138.453 156.605 138.013 156.996C137.563 157.396 136.803 158.036 136.323 158.436C135.843 158.836 134.952 159.536 134.352 159.996C133.752 160.467 132.822 161.157 132.292 161.537C131.761 161.917 130.731 162.617 130.011 163.097C129.291 163.577 128.25 164.258 127.7 164.598C127.15 164.938 126.15 165.548 125.48 165.948C124.809 166.338 123.789 166.928 123.199 167.259C122.619 167.579 121.688 168.089 121.138 168.379C120.588 168.679 119.478 169.249 118.678 169.649C117.867 170.049 116.697 170.62 116.077 170.91C115.467 171.21 114.496 171.65 113.926 171.91C113.356 172.17 112.306 172.63 111.585 172.94C110.865 173.25 109.765 173.72 109.145 173.971C108.525 174.231 107.274 174.721 106.364 175.071C105.454 175.411 104.403 175.811 104.023 175.941C103.643 176.081 102.573 176.451 101.653 176.771L99.962 177.352C98.0215 176.681 96.9312 176.291 96.271 176.061C95.6208 175.821 94.3604 175.351 93.4601 175.001C92.5699 174.661 91.1595 174.101 90.3392 173.76C89.519 173.41 88.2586 172.88 87.5584 172.57C86.8582 172.26 85.7679 171.78 85.1577 171.49C84.5375 171.21 83.1871 170.57 82.1568 170.059C80.2548 169.127 78.3801 168.139 76.5352 167.099C75.985 166.788 75.0547 166.258 74.4646 165.908C73.8844 165.568 72.8441 164.938 72.1539 164.508C71.4737 164.078 70.4834 163.437 69.9733 163.097C69.4531 162.757 68.5028 162.087 67.8426 161.627C67.1924 161.157 66.2422 160.457 65.722 160.056C65.2019 159.666 64.4716 159.086 64.1015 158.776C63.7214 158.476 63.1312 157.976 62.7811 157.686C62.441 157.396 61.6708 156.695 61.0706 156.135C60.4705 155.585 59.6602 154.815 59.2801 154.425C58.9 154.035 58.2698 153.364 57.8697 152.934C57.4796 152.504 56.9194 151.854 56.6193 151.494C56.3193 151.134 55.8291 150.524 55.539 150.154C55.2389 149.773 54.6688 148.983 54.2687 148.403C53.8685 147.813 53.2784 146.883 52.9583 146.332C52.1764 144.998 51.4879 143.611 50.8977 142.181C50.7176 141.751 50.4575 141.021 50.2975 140.561C50.1474 140.091 49.9374 139.4 49.8273 139.02C49.7273 138.65 49.5773 137.99 49.4872 137.56C49.3972 137.13 49.2672 136.37 49.1972 135.869C49.1271 135.369 49.0571 134.879 49.0371 134.779C49.0071 134.669 48.9771 131.168 48.9571 126.987L48.9071 119.395L46.1963 119.845Z" fill="#B81137"/>
<path d="M37.2655 121.446C35.9451 121.706 34.1846 122.076 33.3643 122.246C32.5341 122.426 31.1037 122.746 30.1734 122.966C29.2431 123.186 27.8327 123.517 27.0325 123.707C26.2322 123.897 25.582 124.077 25.582 124.107C25.582 124.127 28.753 125.407 32.6241 126.948C36.4952 128.488 39.6762 129.738 39.6862 129.728C39.6962 129.718 39.6962 127.748 39.6862 125.337L39.6662 120.956L37.2655 121.446ZM160.272 125.347C160.282 127.768 160.312 129.748 160.332 129.748C160.362 129.748 163.522 128.488 167.364 126.968C171.205 125.437 174.346 124.157 174.346 124.117C174.346 124.087 174.286 124.047 174.206 124.027C174.126 124.007 173.435 123.837 172.655 123.647C171.885 123.457 170.665 123.156 169.944 122.986C169.214 122.816 167.924 122.526 167.064 122.336C166.203 122.156 164.603 121.816 163.502 121.596C162.402 121.376 161.222 121.136 160.882 121.066L160.262 120.946L160.272 125.347Z" fill="#455560"/>
<path d="M73.4363 124.057C73.4363 124.097 73.6064 124.257 73.8164 124.437L74.1865 124.747V131.899C73.6464 132.34 73.4563 132.5 73.4163 132.55C73.3563 132.61 73.7164 132.63 75.3469 132.62H77.3475L76.5672 131.899V129.309H83.1292V127.308H76.5672V125.998H84.1895C84.8697 126.388 85.0797 126.498 85.0897 126.498C85.1097 126.498 85.1197 125.938 85.1197 125.247V123.997C75.4269 123.997 73.4363 124.017 73.4363 124.057ZM117.679 124.087C117.449 124.137 117.159 124.217 117.019 124.257C116.879 124.307 116.639 124.427 116.489 124.517C116.339 124.607 116.049 124.827 115.869 125.007C115.679 125.187 115.449 125.478 115.349 125.648C115.259 125.828 115.159 126.148 115.119 126.368C115.079 126.598 115.049 127.498 115.049 128.368C115.059 129.379 115.079 130.099 115.129 130.339C115.169 130.549 115.309 130.879 115.429 131.079C115.549 131.279 115.789 131.569 115.959 131.729C116.129 131.879 116.469 132.099 116.709 132.219C116.949 132.33 117.339 132.47 117.579 132.52C117.949 132.6 118.72 132.62 122.221 132.62H126.422V130.619C119.99 130.619 118.239 130.599 118.109 130.559C117.989 130.529 117.809 130.409 117.709 130.309L117.519 130.109C117.489 126.888 117.499 126.688 117.599 126.498C117.659 126.358 117.799 126.228 117.959 126.148C118.199 126.028 118.349 126.028 121.861 126.008L125.522 125.998C126.122 126.388 126.322 126.498 126.362 126.498C126.402 126.498 126.422 126.038 126.422 125.247V123.997C119.05 124.007 117.989 124.027 117.679 124.087Z" fill="#B81137"/>
<path d="M146.957 135.009C146.707 135.399 146.187 136.12 145.817 136.62C145.447 137.12 144.846 137.89 144.486 138.34C144.116 138.78 143.596 139.401 143.326 139.711C143.056 140.021 142.356 140.791 141.765 141.421C141.175 142.051 140.195 143.052 139.575 143.642C138.955 144.222 138.024 145.072 137.514 145.522C136.994 145.982 136.094 146.743 135.514 147.223C134.933 147.693 133.893 148.503 133.213 149.013L131.983 149.934C131.973 156.996 131.993 157.696 132.063 157.646C132.103 157.606 132.503 157.286 132.953 156.926C133.393 156.566 134.063 156.025 134.423 155.715C134.783 155.405 135.474 154.795 135.954 154.365C136.434 153.925 137.374 153.015 138.044 152.324C138.715 151.644 139.475 150.844 139.735 150.554C139.995 150.264 140.465 149.714 140.775 149.333C141.599 148.317 142.38 147.265 143.116 146.183C143.376 145.782 143.786 145.112 144.036 144.682C144.286 144.252 144.726 143.432 145.006 142.872C145.296 142.301 145.677 141.441 145.867 140.961C146.057 140.481 146.337 139.721 146.477 139.271C146.617 138.83 146.817 138.14 146.927 137.74C147.027 137.35 147.177 136.62 147.267 136.12C147.347 135.619 147.437 135.009 147.457 134.759C147.477 134.509 147.477 134.309 147.457 134.309C147.447 134.309 147.217 134.619 146.957 135.009ZM52.5393 134.699C52.5593 134.879 52.6493 135.459 52.7394 135.99C52.8194 136.53 52.9994 137.38 53.1295 137.9C53.2695 138.42 53.4796 139.15 53.6096 139.521C53.7296 139.901 53.9897 140.581 54.1698 141.021C54.3498 141.471 54.77 142.381 55.1 143.052C55.4401 143.722 55.8803 144.552 56.0903 144.902C56.3004 145.242 56.6905 145.862 56.9706 146.273C57.2407 146.683 57.8008 147.463 58.201 147.993C58.6011 148.523 59.1912 149.273 59.5013 149.654C59.8214 150.024 60.5316 150.834 61.0918 151.434C61.652 152.034 62.5322 152.915 63.0424 153.405C63.5525 153.885 64.2427 154.515 64.5628 154.815C64.8929 155.105 65.5131 155.635 65.9432 156.005C66.3734 156.366 66.9935 156.876 67.3136 157.136C67.6437 157.396 67.9438 157.616 67.9838 157.616C68.0538 157.616 68.0639 156.806 68.0639 153.775V149.934C66.7835 148.993 66.0333 148.423 65.5631 148.063C65.103 147.703 64.3128 147.073 63.8226 146.653C62.6936 145.723 61.5992 144.752 60.5416 143.742C60.1615 143.382 59.3213 142.541 58.6711 141.871C58.0209 141.201 56.9906 140.071 56.3904 139.371C55.7802 138.66 54.92 137.59 54.4699 136.99C54.0197 136.39 53.4296 135.559 53.1395 135.139C52.8594 134.709 52.6093 134.369 52.5693 134.369C52.5293 134.369 52.5193 134.489 52.5393 134.699Z" fill="#455560"/>
<path d="M70.7639 155.786L70.7539 159.717C73.0546 161.228 74.2549 162.008 74.9051 162.418C75.5553 162.818 76.7557 163.538 77.5659 164.009C78.3661 164.479 79.5365 165.139 80.1567 165.479C81.0569 165.979 81.297 166.089 81.377 166.029C81.427 165.989 82.8475 164.819 84.5179 163.418C86.1884 162.018 87.5588 160.848 87.5588 160.818C87.5588 160.798 87.1487 160.598 86.6386 160.377C86.1284 160.157 84.9881 159.637 84.0878 159.227C83.1976 158.817 81.5671 158.027 80.4668 157.467C79.3664 156.906 77.946 156.156 77.3158 155.806C76.6756 155.456 75.8154 154.966 75.4053 154.726C74.9952 154.486 74.1949 154.006 73.6248 153.666C73.0546 153.315 72.2844 152.835 71.9042 152.585C71.5341 152.345 71.124 152.085 70.994 152.005L70.7739 151.855L70.7639 155.786ZM128.041 152.595C127.441 152.995 126.28 153.716 125.45 154.206C124.63 154.706 123.339 155.446 122.579 155.866C121.819 156.286 120.318 157.067 119.238 157.617C118.158 158.157 116.667 158.887 115.927 159.227C115.187 159.567 114.097 160.057 113.506 160.307C112.906 160.568 112.426 160.798 112.426 160.818C112.426 160.848 113.837 162.048 115.557 163.478C117.278 164.909 118.708 166.079 118.748 166.069C118.778 166.059 119.368 165.739 120.068 165.359C120.759 164.979 121.909 164.329 122.609 163.909C123.319 163.498 124.45 162.808 125.14 162.388C125.83 161.958 127.03 161.178 127.811 160.658L129.231 159.717C129.241 153.555 129.221 151.925 129.191 151.915C129.161 151.905 128.641 152.205 128.041 152.595Z" fill="#B0B7BB"/>
</svg>
