<svg width="200" height="200" viewBox="0 0 200 200" fill="none" xmlns="http://www.w3.org/2000/svg">
<path d="M99.7428 0.00232004L97.714 3.39726L82.6139 28.6631L76.2612 18.0387L74.2371 14.6463L72.2059 18.0387L23.7246 99.1649L23 100.377L23.7246 101.588L71.517 181.557L73.5434 184.952L75.5723 181.557L82.1435 170.56L97.7116 196.605L99.7405 200L101.767 196.603L117.335 170.558L123.913 181.564L125.94 184.952L127.969 181.564L175.759 101.588L176.488 100.377L175.759 99.1649L127.275 18.0435L125.249 14.6463L123.217 18.0435L116.869 28.6631L101.772 3.39726L99.7428 0.00232004ZM99.7428 4.6089L116.869 33.2647L125.249 19.2552L173.732 100.377L125.938 180.348L117.335 165.956L99.7405 195.391L82.1435 165.956L73.5434 180.346L25.7535 100.377L74.2371 19.2504L82.6139 33.2672L99.7428 4.6089Z" fill="#AEACAD"/>
<path d="M82.144 165.956L99.741 195.393L117.335 165.956L125.938 180.35L173.733 100.377L125.244 19.2527L116.87 33.2624L99.741 4.60645L82.612 33.2647L74.2376 19.2527L25.7539 100.377L73.5439 180.346L82.144 165.956Z" fill="#00245E"/>
<path d="M131.557 114.135L99.746 167.356L67.9328 114.138H57.1803L99.746 185.35L142.305 114.138L131.557 114.135ZM73.549 152.32L50.7326 114.14H39.9824L73.549 170.304L81.0254 157.799L75.6468 148.807L73.549 152.32ZM148.764 114.14L125.941 152.32L123.848 148.807L118.469 157.799L125.941 170.307L159.514 114.14H148.767H148.764Z" fill="#9DC2EA"/>
<path d="M125.249 29.301L117.97 41.4743L123.206 50.2311L125.249 46.8126L149.035 86.6153H159.503L125.249 29.301ZM39.9847 86.6153H50.4522L74.2427 46.8126L76.2857 50.2288L81.5195 41.4766L74.2427 29.301L39.9847 86.6153ZM74.8912 73.7531L99.7484 32.1686L124.601 73.7531H135.068L99.7484 14.6548L64.4238 73.7531H74.8912ZM34.877 92.7495H38.5284L40.9612 102.507H40.9992L44.1826 92.7495H47.302L50.4617 102.766H50.5021L53.0583 92.7495H56.4556L52.0083 107.968H49.0196L45.6698 97.432H45.6224L42.2726 107.968H39.3908L34.877 92.7495ZM58.0758 92.7495H61.4256V98.4227H67.9422V92.7495H71.2967V107.968H67.9422V101.39H61.428V107.968H58.0758V92.7495ZM74.9506 92.7472H78.3003V107.968H74.9506V92.7472ZM85.1424 95.7143H80.7996V92.7495H92.8398V95.7143H88.4946V107.966H85.1424V95.7143ZM95.4554 92.7495H105.799V95.845H98.8123V98.6817H103.977V101.777H98.8123V104.875H106.187V107.968H95.4554V92.7495Z" fill="white"/>
<path d="M118.372 96.7019C117.707 95.909 116.739 95.4576 115.492 95.4576C112.959 95.4576 111.085 97.5214 111.085 100.357C111.085 103.196 112.956 105.257 115.385 105.257C116.739 105.257 117.835 104.658 118.524 103.627L121.315 105.712C120.047 107.517 117.9 108.355 115.816 108.355C111.061 108.355 107.604 105.24 107.604 100.357C107.604 95.4783 111.061 92.3633 115.816 92.3633C117.514 92.3633 119.661 92.9453 120.953 94.5994L118.372 96.7019ZM129.506 97.177L127.658 101.905H131.377L129.506 97.177ZM128.217 92.7523H130.99L137.613 107.969H133.827L132.52 104.744H126.604L125.336 107.969H121.639L128.217 92.7523ZM142.474 99.1994H144.713C145.892 99.1994 147.077 98.7895 147.077 97.3729C147.077 95.799 145.485 95.5883 144.193 95.5883H142.471V99.1994H142.474ZM139.124 92.7523H144.775C147.938 92.7523 150.557 93.7618 150.557 97.3729C150.557 100.937 148.131 102.035 144.927 102.035H142.474V107.969H139.124V92.7523ZM160.616 96.4672C160.081 95.7842 159 95.4576 158.184 95.4576C157.239 95.4576 155.93 95.8881 155.93 97.0315C155.93 99.7992 162.938 98.0145 162.938 103.348C162.938 106.745 160.206 108.355 157.067 108.355C155.11 108.355 153.391 107.776 151.95 106.442L154.338 103.82C155.024 104.72 156.14 105.26 157.26 105.26C158.359 105.26 159.582 104.744 159.582 103.672C159.582 100.874 152.443 102.38 152.443 97.3077C152.443 94.0619 155.264 92.3633 158.249 92.3633C159.971 92.3633 161.625 92.8146 162.914 93.952L160.616 96.4672ZM87.4286 114.057H97.6353V117.154H90.7814V120.248H95.6872V123.343H90.7814V129.276H87.4286V114.057ZM108.923 118.009C108.258 117.216 107.293 116.765 106.042 116.765C103.506 116.765 101.635 118.829 101.635 121.665C101.635 124.501 103.506 126.565 105.935 126.565C107.293 126.565 108.385 125.962 109.074 124.931L111.869 127.016C110.601 128.822 108.454 129.662 106.366 129.662C101.615 129.662 98.155 126.544 98.155 121.665C98.155 116.786 101.615 113.667 106.366 113.667C108.065 113.667 110.215 114.25 111.504 115.904L108.923 118.009ZM60.7344 77.9723H62.9201L65.0701 83.6711H65.0939L67.2825 77.9723H69.3316L65.7471 86.6674H64.2119L60.7375 77.9723H60.7344ZM72.506 80.5024L71.449 83.2047H73.5753L72.506 80.5024ZM71.7696 77.9723H73.3554L77.1358 86.6703H74.9769L74.2256 84.8262H70.8461L70.1244 86.6674H68.016L71.7696 77.9723ZM78.1842 77.9723H80.7884L84.4856 84.0155H84.5124V77.9723H86.4279V86.6674H83.9216L80.1203 80.4787H80.0966V86.6674H78.1811V77.9723H78.1842ZM93.9826 80.2322C93.78 79.9968 93.5269 79.8104 93.242 79.687C92.957 79.5635 92.6478 79.5063 92.3375 79.5195C90.8883 79.5195 89.8192 80.6984 89.8192 82.3199C89.8192 83.9413 90.8883 85.1202 92.2751 85.1202C92.6288 85.1303 92.979 85.0499 93.2929 84.8868C93.6068 84.7236 93.8739 84.4829 94.0688 84.1877L95.6664 85.3785C94.9418 86.409 93.7064 86.8931 92.5186 86.8931C89.8073 86.8931 87.8265 85.1113 87.8265 82.3199C87.8265 79.5314 89.8073 77.7525 92.5186 77.7525C93.4896 77.7525 94.7162 78.085 95.4556 79.0294L93.9826 80.2322ZM100.97 85.1202C102.604 85.1202 103.673 83.9413 103.673 82.3199C103.673 80.6984 102.604 79.5195 100.97 79.5195C99.3369 79.5195 98.2679 80.6984 98.2679 82.3199C98.2679 83.9413 99.3369 85.1202 100.97 85.1202ZM100.97 77.7496C103.684 77.7496 105.662 79.5313 105.662 82.3228C105.662 85.1113 103.684 86.8902 100.97 86.8902C98.253 86.8902 96.2781 85.1083 96.2781 82.3228C96.2781 79.5313 98.253 77.7496 100.97 77.7496ZM114.616 83.3148C114.616 85.3668 113.363 86.8871 110.954 86.8871C108.534 86.8871 107.281 85.3668 107.281 83.3148V77.9723H109.199V83.2404C109.199 84.3095 109.936 85.1202 110.954 85.1202C111.964 85.1202 112.697 84.3095 112.697 83.2404V77.9723H114.616V83.3148ZM115.673 77.9723H117.862L120.012 83.6711H120.035L122.224 77.9723H124.273L120.689 86.6674H119.153L115.673 77.9723ZM125.431 77.9723H131.341V79.7423H127.347V81.3636H131.118V83.1306H127.347V84.9005H131.558V86.6674H125.431V77.9723ZM135.181 81.5715H136.309C137.01 81.5715 137.919 81.5477 137.919 80.6034C137.919 79.7273 137.132 79.5936 136.434 79.5936H135.181V81.5715ZM133.265 77.9723H136.63C138.412 77.9723 139.908 78.5869 139.908 80.6152C139.908 81.8298 139.255 82.7742 138.029 82.9999L140.241 86.6703H137.945L136.128 83.193H135.178V86.6674H133.265V77.9723Z" fill="white"/>
<path d="M133.631 176.936H134.932V180.351H135.6V176.936H136.909V176.342H133.631V176.936ZM139.356 179.546L138.341 176.339H137.361V180.351H137.973V176.936L139.051 180.351H139.659L140.69 176.986V180.351H141.301V176.339H140.336L139.356 179.546Z" fill="#051C36"/>
</svg>
