<svg width="97" height="97" viewBox="0 0 97 97" fill="none" xmlns="http://www.w3.org/2000/svg">
<path d="M48.4 96.8C21.7 96.8 0 75.1 0 48.4C0 21.7 21.7 0 48.4 0C75.1 0 96.8 21.7 96.8 48.4C96.8 75.1 75.1 96.8 48.4 96.8Z" fill="#C8102E"/>
<path d="M48.4002 94.5001C22.9002 94.5001 2.2002 73.8001 2.2002 48.3001C2.2002 22.8001 22.9002 2.1001 48.4002 2.1001C73.9002 2.1001 94.6002 22.9001 94.6002 48.3001C94.6002 73.7001 73.8002 94.5001 48.4002 94.5001Z" fill="white"/>
<path d="M48.4 92.3C24.1 92.3 4.5 72.6 4.5 48.4C4.5 24.2 24.2 4.5 48.4 4.5C72.6 4.5 92.3 24.2 92.3 48.4C92.3 72.6 72.6 92.3 48.4 92.3Z" fill="#C8102E"/>
<path d="M78.3999 48.3C78.3999 64.9 64.9999 78.3 48.3999 78.3C31.7999 78.3 18.3999 64.9 18.3999 48.3C18.3999 31.7 31.7999 18.3 48.3999 18.3C64.9999 18.3 78.3999 31.7 78.3999 48.3Z" fill="white"/>
<path d="M48.3999 20.5C39.5999 20.5 31.1999 24.7 25.9999 31.8C26.6999 32 28.1999 32.4 29.8999 32.9C32.5999 33.7 41.6999 36.4 43.4999 36.9C48.4999 38.5 49.7999 39.1 51.1999 40.6C52.5999 42.1 54.6999 43.8 56.7999 45.3C58.8999 46.7 59.8999 48.3 59.8999 50.8C59.8999 53.3 57.9999 55.4 56.7999 56.1C56.7999 56.1 57.1999 54.9 56.5999 54.4C55.9999 53.9 54.1999 52.9 49.4999 53.2C44.7999 53.6 38.5999 55.8 34.2999 58.1C34.2999 58.1 36.2999 54.9 39.3999 53.5C39.3999 53.5 36.8999 53.5 22.8999 59.6C28.9999 73.8 45.4999 80.3 59.6999 74.2C73.8999 68.1 80.3999 51.6 74.2999 37.4C69.6999 27.1 59.5999 20.5 48.3999 20.5ZM48.3999 70.3C42.4999 70.3 36.8999 67.9 32.7999 63.7C44.0999 57.9 51.1999 59.4 51.1999 60.5C51.1999 61.7 49.4999 64.4 49.4999 64.4C58.6999 63.1 65.3999 57.5 65.3999 50.1C65.3999 42.6 58.3999 39 56.5999 37.9C54.6999 36.7 55.5999 35.1 49.2999 32.7C45.4999 31.3 40.0999 29.8 37.9999 29.3C48.5999 23.5 61.7999 27.4 67.5999 38C73.3999 48.6 69.4999 61.8 58.8999 67.6C55.5999 69.4 51.9999 70.3 48.3999 70.3Z" fill="#C8102E"/>
<path d="M48.2001 41.1999C47.1001 41.1999 46.0001 40.9999 44.9001 40.4999C43.3001 39.6999 40.7001 37.8999 38.6001 39.8999C38.6001 39.8999 40.4001 39.6999 40.3001 40.1999C40.1001 40.6999 40.0001 43.4999 42.5001 44.4999C45.0001 45.5999 47.9001 44.7999 48.2001 41.1999Z" fill="#C8102E"/>
<path d="M15.5001 70.6999L15.8001 71.0999L19.8001 67.9999L19.5001 67.5999L20.4001 66.8999L21.7001 68.5999C22.7001 69.8999 22.6001 70.7999 21.6001 71.4999C20.9001 71.9999 20.3001 71.9999 19.7001 71.6999C20.0001 72.4999 19.7001 73.0999 18.9001 73.6999C17.8001 74.4999 16.8001 74.1999 15.9001 73.0999L14.6001 71.3999L15.5001 70.6999ZM16.9001 72.4999C17.3001 72.9999 17.7001 72.9999 18.3001 72.5999C18.9001 72.0999 18.9001 71.6999 18.5001 71.1999L18.2001 70.8999L16.6001 72.1999L16.9001 72.4999ZM19.3001 70.4999C19.7001 70.9999 20.1001 70.9999 20.6001 70.5999C21.1001 70.1999 21.2001 69.7999 20.8001 69.2999L20.6001 68.9999L19.1001 70.1999L19.3001 70.4999Z" fill="white"/>
<path d="M20.2998 76.5001L20.5998 76.8001L25.8998 73.1001L26.9998 74.0001L23.9998 79.7001L24.2998 79.9001L23.5998 80.7001L21.7998 79.1001L22.4998 78.3001L22.9998 78.7001L23.3998 78.0001L22.2998 77.1001L21.6998 77.6001L22.1998 78.0001L21.4998 78.8001L19.7998 77.3001L20.2998 76.5001ZM23.6998 77.2001L24.8998 75.0001L22.8998 76.5001L23.6998 77.2001Z" fill="white"/>
<path d="M27.3002 82.6999L27.0002 83.1999L26.2002 82.6999L27.4002 80.5999L28.3002 81.0999C27.8002 81.9999 27.9002 82.4999 28.5002 82.7999C29.0002 83.0999 29.3002 82.9999 29.6002 82.4999C30.2002 81.3999 27.9002 79.7999 29.0002 77.9999C29.6002 76.8999 30.7002 76.6999 31.5002 77.2999C32.0002 77.5999 32.3002 77.9999 32.2002 78.4999L32.5002 77.9999L33.3002 78.4999L32.1002 80.4999L31.1002 79.9999C31.5002 79.2999 31.5002 78.7999 31.0002 78.5999C30.7002 78.3999 30.3002 78.3999 30.1002 78.6999L30.0002 78.7999C29.4002 79.7999 31.7002 81.3999 30.6002 83.2999C29.9002 84.4999 28.9002 84.5999 27.9002 83.9999C27.6002 83.5999 27.2002 83.1999 27.3002 82.6999Z" fill="white"/>
<path d="M33.8 85.4L34.2 85.6L35.8 80.7L35.4 80.6L35.7 79.5L37.8 80.2L37.5 81.2L37.1 81.1L36.4 83.4L38.3 81.5L38.1 81.4L38.4 80.3L40.4 81L40 82.1L39.6 81.9L38 83.3L38.2 86.8L38.6 86.9L38.3 88L36.2 87.3L36.5 86.3L36.9 86.4L36.7 84.3L35.8 85.2L35.6 86L35.9 86.1L35.6 87.1L33.5 86.5L33.8 85.4Z" fill="white"/>
<path d="M42.6 87.7L43.1 87.8L43.5 82.7H43.1L43.2 81.5L47.6 81.9L47.3 84.2L46.1 84.1L46.2 82.9L44.9 82.8L44.8 84.7L45.9 84.8L45.8 86L44.7 85.9L44.5 87.9L45.8 88.1L45.9 86.6L47.2 86.8L47 89.2L42.5 88.8L42.6 87.7Z" fill="white"/>
<path d="M52.2998 87.8999L52.8998 87.7999L52.2998 82.7L51.4998 82.7999L51.6998 84.0999L50.5998 84.2L50.2998 81.8999L55.2998 81.2L55.6998 83.5999L54.5998 83.7L54.3998 82.3999L53.6998 82.4999L54.2998 87.5999L54.8998 87.4999L55.0998 88.5999L52.4998 88.9999L52.2998 87.8999Z" fill="white"/>
<path d="M60.3001 86.2999L60.8001 86.0999L59.0001 81.3999L58.5001 81.5999L58.1001 80.4999L60.1001 79.7999C61.6001 79.1999 62.5001 79.5999 62.9001 80.6999C63.2001 81.4999 63.1001 82.0999 62.6001 82.5999C63.5001 82.5999 64.0001 82.9999 64.3001 83.8999C64.8001 85.1999 64.1001 86.0999 62.8001 86.5999L60.8001 87.3999L60.3001 86.2999ZM61.2001 82.5999C61.7001 82.3999 61.9001 81.9999 61.7001 81.3999C61.5001 80.7999 61.1001 80.5999 60.5001 80.7999L60.2001 80.8999L60.9001 82.6999L61.2001 82.5999ZM62.4001 85.4999C62.9001 85.2999 63.2001 84.8999 62.9001 84.1999C62.6001 83.4999 62.2001 83.3999 61.6001 83.5999L61.2001 83.7999L61.9001 85.6999L62.4001 85.4999Z" fill="white"/>
<path d="M66.9002 83.6001L67.2002 83.4001L65.2002 77.3001L66.4002 76.6001L71.0002 81.1001L71.3002 80.9001L71.9002 81.8001L69.9002 83.1001L69.3002 82.2001L69.8002 81.9001L69.3002 81.3001L68.1002 82.0001L68.4002 82.8001L68.9002 82.5001L69.5002 83.4001L67.5002 84.6001L66.9002 83.6001ZM68.6002 80.5001L66.9002 78.7001L67.7002 81.1001L68.6002 80.5001Z" fill="white"/>
<path d="M73.9001 78.9L74.2001 78.6L70.8001 74.9L70.4001 75.2L69.6001 74.2999L71.4001 72.7L72.2001 73.5L71.8001 73.9L75.3001 77.6L76.1001 76.7999L75.2001 75.7999L76.1001 74.9L77.8001 76.7L74.6001 79.7L73.9001 78.9Z" fill="white"/>
<path d="M79 73.7001L79.3 73.3001L75.2 70.3001L74.9 70.7001L74 70.0001L75.5 68.1001L76.4 68.7001L76.1 69.2001L80.2 72.2001L80.9 71.3001L79.7 70.5001L80.5 69.4001L82.5 70.9001L79.9 74.4001L79 73.7001Z" fill="white"/>
<path d="M14.7 39.4L14.8 39L9.5 35.6L10 34.2L16.4 34.7999L16.5 34.5L17.5 34.9L16.7 37.2L15.7 36.7999L15.9 36.2999L15.1 36.2L14.6 37.5L15.3 37.9L15.5 37.2999L16.5 37.7L15.8 39.9L14.7 39.4ZM14.1 35.9L11.7 35.6L13.8 36.9L14.1 35.9Z" fill="white"/>
<path d="M17.8999 31.7999L18.1999 31.2L13.7999 28.6L13.2999 29.2999L14.3999 29.9L13.8999 30.9L11.8999 29.7L14.4999 25.2L16.4999 26.4L15.9999 27.4L14.8999 26.7L14.4999 27.4L18.8999 30L19.1999 29.5L20.1999 30.1L18.7999 32.2999L17.8999 31.7999Z" fill="white"/>
<path d="M21.4999 26.3L21.7999 26.0001L18.0999 22.5001L17.7999 22.9001L16.8999 22.1001L18.5999 20.3L19.3999 21.1001L18.9999 21.5001L22.7999 25.0001L23.5999 24.2001L22.5999 23.2001L23.3999 22.3L25.1999 23.9001L22.2999 27.1001L21.4999 26.3Z" fill="white"/>
<path d="M26.2001 21.5L26.5001 21.3L24.1001 15.3L25.3001 14.5L30.2001 18.7L30.5001 18.5L31.1001 19.4L29.2001 20.8L28.6001 19.9L29.1001 19.5L28.5001 19L27.3001 19.8L27.6001 20.5L28.1001 20.1L28.7001 21L26.8001 22.3L26.2001 21.5ZM27.8001 18.3L26.0001 16.6L27.0001 18.9L27.8001 18.3Z" fill="white"/>
<path d="M32.8 17.1999L33.2 16.9999L31.3 12.2999L30.9 12.4999L30.5 11.3999L32.2 10.6999L35.4 13.8999L34.2 11.0999L33.9 11.2999L33.4 10.1999L35.4 9.3999L35.9 10.4999L35.4 10.6999L37.8 16.3999L36.6 16.7999L33.2 13.5999L34.5 16.4999L34.9 16.3999L35.3 17.3999L33.2 18.1999L32.8 17.1999Z" fill="white"/>
<path d="M41.0002 14.4001L41.6002 14.3001L40.7002 9.2001L39.9002 9.3001L40.2002 10.6001L39.1002 10.8001L38.7002 8.5001L43.7002 7.6001L44.1002 9.9001L43.1002 10.1001L42.8002 8.8001L42.1002 9.0001L43.0002 14.0001L43.6002 13.9001L43.8002 15.0001L41.2002 15.5001L41.0002 14.4001Z" fill="white"/>
<path d="M46.3999 13.5999H46.7999L48.3999 7.3999H49.7999L51.1999 13.6999H51.5999V14.7999H49.1999V13.6999H49.7999L49.6999 12.8999H48.2999L48.0999 13.6999H48.6999V14.7999H46.3999V13.5999ZM49.5999 11.8999L49.0999 9.4999L48.4999 11.8999H49.5999Z" fill="white"/>
<path d="M57.0001 14.6L57.4001 14.7999L59.1001 9.99995L58.6001 9.79995L59.0001 8.69995L61.3001 9.49995L60.9001 10.5L60.4001 10.4L59.8001 12.1L61.3001 12.7L61.9001 10.9L61.4001 10.7L61.8001 9.69995L64.0001 10.4L63.7001 11.5L63.2001 11.4L61.6001 16.2L62.0001 16.2999L61.7001 17.4L59.4001 16.6L59.8001 15.6L60.3001 15.7999L60.9001 13.7999L59.4001 13.2999L58.7001 15.2L59.2001 15.4L58.9001 16.4L56.6001 15.7L57.0001 14.6Z" fill="white"/>
<path d="M64.4002 17.5L64.7002 17.7L69.3002 13.2L70.5002 13.9L68.5002 20L68.8002 20.2L68.2002 21.1L66.2002 19.7999L66.8002 18.9L67.3002 19.2L67.6002 18.6L66.4002 17.9L65.8002 18.5L66.3002 18.7999L65.7002 19.7L63.7002 18.5L64.4002 17.5ZM68.0002 17.6L68.9002 15.2999L67.2002 17.1L68.0002 17.6Z" fill="white"/>
<path d="M73.9999 17.7999L73.6999 17.5L74.4999 16.7L76.0999 18.2999L75.3999 19.1L74.9999 18.7L73.0999 21.4L76.6999 18.7999L77.4999 19.7L74.9999 23.4L77.6999 21.4L77.3999 21.1L78.1999 20.2999L79.6999 21.7999L78.8999 22.6L78.4999 22.2999L73.3999 25.9L72.4999 25L75.0999 21.2L71.2999 23.9L70.3999 23L73.9999 17.7999Z" fill="white"/>
<path d="M76.2999 27.6001L76.5999 28.0001L80.8999 25.3L80.5999 24.9001L81.5999 24.3L82.7999 26.2001L81.7999 26.8L81.5999 26.4001L79.5999 27.7001L82.2999 27.5001L82.0999 27.3L83.0999 26.7001L84.1999 28.4001L83.1999 29.0001L82.9999 28.6001L80.8999 28.7001L78.7999 31.6001L78.9999 31.9001L78.0999 32.5001L76.8999 30.6001L77.7999 30.0001L77.9999 30.4001L79.2999 28.6001L77.9999 28.8L77.2999 29.2001L77.4999 29.6001L76.5999 30.1001L75.3999 28.2001L76.2999 27.6001Z" fill="white"/>
<path d="M79.7999 35.1001L79.2999 35.3001L78.8999 34.4001L81.1999 33.5001L81.5999 34.5001C80.6999 34.9001 80.4999 35.4001 80.6999 35.9001C80.8999 36.4001 81.1999 36.6001 81.6999 36.4001C82.8999 35.9001 81.9999 33.2001 84.0999 32.5001C85.1999 32.0001 86.1999 32.6001 86.4999 33.5001C86.6999 34.0001 86.6999 34.5001 86.3999 34.9001L86.8999 34.7001L87.2999 35.6001L85.0999 36.4001L84.6999 35.4001C85.3999 35.1001 85.6999 34.7001 85.4999 34.2001C85.3999 33.8001 85.0999 33.6001 84.6999 33.7001H84.5999C83.4999 34.1001 84.2999 36.8001 82.2999 37.6001C80.9999 38.1001 80.0999 37.5001 79.7999 36.4001C79.4999 36.0001 79.4999 35.4001 79.7999 35.1001Z" fill="white"/>
</svg>
