<svg width="77" height="102" viewBox="0 0 77 102" fill="none" xmlns="http://www.w3.org/2000/svg">
<path d="M11.2059 88.6C11.2059 89.2 11.206 90.2 10.006 90.6C9.60595 90.7 9.20594 90.7 8.80594 90.7H7.90594V84.6H9.30594C10.0059 84.6 10.806 84.6 11.106 85.3C11.206 85.6 11.2059 85.9 11.2059 86.2V88.6ZM8.00595 92.4H9.00595C10.306 92.4 11.3059 92.6 11.7059 93.7C11.8059 94.1 11.8059 94.5 11.8059 94.9V97.4C11.8059 98.6 11.7059 99.2 11.2059 99.5C10.9059 99.7 10.6059 99.8 9.70593 99.9H7.90594V92.4H8.00595ZM12.7059 91.9C12.4059 91.7 12.1059 91.5 11.8059 91.4C12.3059 91.1 12.7059 90.6 12.9059 90C13.0059 89.6 13.106 89.2 13.006 88.7V86.1C13.006 85.4 12.9059 84.5 12.3059 83.9C11.7059 83.3 10.906 83 10.006 83H6.40594C6.20594 83 6.10596 83.2 6.10596 83.3V101.1C6.10596 101.3 6.20594 101.4 6.40594 101.4H10.106C11.006 101.4 11.906 101.1 12.606 100.6C13.406 99.8 13.606 98.9 13.606 97.9V94.8C13.706 93.8 13.7059 92.7 12.7059 91.9Z" fill="black"/>
<path d="M20.3061 86.7001V89.5001C20.3061 89.9001 20.3061 90.7001 19.4061 90.9001C19.1061 91.0001 18.8061 91.1001 18.4061 91.1001H16.4061V84.6001H18.4061C18.8061 84.6001 19.2061 84.7001 19.6061 84.8001C20.3061 85.2001 20.3061 86.0001 20.3061 86.7001ZM19.8061 92.6001C19.9061 92.6001 20.0061 92.5001 20.2061 92.5001C21.1061 92.2001 21.8061 91.4001 22.1061 90.5001C22.2061 90.1001 22.2061 89.7001 22.2061 89.3001V86.4001C22.2061 85.9001 22.2061 84.7001 21.1061 83.8001C20.3061 83.1001 19.3061 83.1001 18.4061 83.1001H14.9061C14.8061 83.1001 14.7061 83.2001 14.7061 83.4001V101.3C14.7061 101.4 14.8061 101.6 14.9061 101.6H16.2061C16.3061 101.6 16.5061 101.5 16.5061 101.3V92.9001H18.0061L21.2061 101.4C21.2061 101.5 21.406 101.6 21.506 101.6H22.8061C22.9061 101.6 23.1061 101.5 23.1061 101.3C23.1061 101.2 23.1061 101.2 23.1061 101.1L19.8061 92.6001Z" fill="black"/>
<path d="M25.006 87C25.006 86 25.3061 85.3001 25.9061 84.9001C26.3061 84.7001 26.7061 84.5 27.1061 84.5C27.5061 84.5 27.8061 84.6 28.2061 84.8C28.5061 85 28.7061 85.2 28.9061 85.5C29.2061 86.2 29.3061 87.0001 29.3061 88.4001V97.1001C29.3061 98.0001 29.2061 99.1001 28.4061 99.7001C28.1061 100 27.6061 100.1 27.2061 100.1C26.4061 100.1 25.6061 99.7001 25.2061 98.9001C25.0061 98.3001 25.006 97.6001 25.006 96.9001V87ZM29.7061 83.5C29.0061 83 28.1061 82.8 27.2061 82.8H27.1061C25.4061 82.8 24.006 83.7001 23.506 85.1001C23.306 85.7001 23.2061 86.3 23.2061 87V97.3C23.2061 98.3 23.3061 99.4001 24.1061 100.4C25.0061 101.5 26.5061 101.6 27.1061 101.6C29.3061 101.6 30.206 100.4 30.506 99.9001C31.006 99.1001 31.1061 98.3001 31.1061 97.4001V87.6001C31.1061 86.2001 31.1061 84.5 29.7061 83.5Z" fill="black"/>
<path d="M33.9059 87C33.9059 86 34.206 85.3001 34.806 84.9001C35.206 84.7001 35.6059 84.6001 36.0059 84.6001C36.4059 84.6001 36.806 84.7001 37.106 84.9001C37.406 85.1001 37.606 85.3001 37.806 85.6001C38.106 86.2001 38.2059 87.1 38.2059 88.5V97.2001C38.2059 98.2001 38.206 99.2 37.306 99.8C37.006 100.1 36.506 100.2 36.106 100.2C35.306 100.3 34.506 99.8 34.106 99C33.906 98.4 33.9059 97.7 33.9059 97V87ZM38.5059 83.5C37.8059 83 36.906 82.8 36.106 82.8H36.0059C34.2059 82.8 32.9059 83.7001 32.4059 85.1001C32.2059 85.7001 32.106 86.3 32.106 87V97.3C32.106 98.3 32.1059 99.4 32.9059 100.5C33.8059 101.6 35.3059 101.7 35.9059 101.7C38.0059 101.7 39.006 100.5 39.306 100C39.806 99.2 39.9059 98.4 39.9059 97.5V87.6001C39.9059 86.2001 39.9059 84.5 38.5059 83.5Z" fill="black"/>
<path d="M44.8062 90.3L48.5061 83.3C48.5061 83.2 48.5061 83.1001 48.5061 83.1001C48.5061 83.0001 48.4062 83 48.3062 83H46.9061C46.8061 83 46.7061 83.1001 46.7061 83.1001L42.7061 90.8V83.1001C42.7061 83.0001 42.6061 82.8 42.4061 82.8H41.1061C41.0061 82.8 40.8062 82.9001 40.8062 83.1001V101C40.8062 101.1 40.9061 101.3 41.1061 101.3H42.3062C42.5062 101.3 42.6061 101.2 42.6061 101V94.3L43.6061 92.4001L46.6061 101.1C46.7061 101.2 46.8061 101.3 46.9061 101.3H48.3062C48.5062 101.3 48.6061 101.1 48.6061 101V100.9L44.8062 90.3Z" fill="black"/>
<path d="M55.506 99.8H51.1061V83.3C51.1061 83.2 51.0061 83 50.8061 83H49.506C49.406 83 49.2061 83.1 49.2061 83.3V101.2C49.2061 101.3 49.306 101.5 49.506 101.5H55.4061C55.5061 101.5 55.7061 101.4 55.7061 101.2V100.1C55.8061 99.9 55.706 99.8 55.506 99.8Z" fill="black"/>
<path d="M62.2059 83H60.8059C60.7059 83 60.6059 83.1 60.5059 83.2L57.9059 90.8L55.3059 83.2C55.3059 83.1 55.1059 83 55.0059 83H53.7059C53.6059 83 53.5059 83.1 53.5059 83.1C53.5059 83.2 53.4059 83.3 53.5059 83.3L57.0059 93.2V101.1C57.0059 101.3 57.2059 101.4 57.3059 101.4H58.5059C58.6059 101.4 58.8059 101.3 58.8059 101.1V93.2L62.4059 83.3C62.4059 83.2 62.4059 83.1 62.4059 83.1C62.4059 83.1 62.3059 83 62.2059 83Z" fill="black"/>
<path d="M70.4061 83H69.1061C69.0061 83 69.0061 83 68.9061 83.1C68.9061 83.2 68.8062 83.2 68.8062 83.3L68.9061 96.3C68.9061 96.7 68.9061 97 68.9061 97.4V98L65.2061 83.2C65.2061 83.1 65.1061 83 65.0061 83H63.1061C63.0061 83 62.8062 83.1 62.8062 83.3V101.2C62.8062 101.3 62.9061 101.5 63.1061 101.5H64.3062C64.4062 101.5 64.4061 101.5 64.5061 101.5C64.5061 101.4 64.6061 101.4 64.6061 101.3L64.5061 88.6V86.9L68.1061 101.4C68.1061 101.5 68.3061 101.6 68.4061 101.6H70.3062C70.5062 101.6 70.6061 101.5 70.6061 101.3V83.4C70.7061 83.1 70.6061 83 70.4061 83Z" fill="black"/>
<path d="M76.806 10.6V8.4L75.906 7.9C75.206 7.6 60.006 0 38.906 0H37.906C16.806 0 1.50598 7.6 0.905976 7.9L0.00598215 8.4V10.6C-0.0940179 19.6 0.905976 42.5 14.906 60.2C26.206 74.6 36.906 77.9 38.006 78.3L38.506 78.4L39.006 78.3C39.506 78.2 50.306 75 62.006 60.2C75.906 42.5 77.006 19.6 76.806 10.6Z" fill="black"/>
<path d="M38.5061 75.9999C37.6061 75.7999 27.6061 72.5999 16.7061 58.7999C2.40614 40.5999 2.40615 16.7999 2.40615 11.1999V9.9999L2.70614 9.8999C3.50614 9.5999 5.20616 8.7999 7.60616 7.8999C17.3062 4.3999 27.5062 2.5999 37.9062 2.4999H38.9062C49.2062 2.4999 59.4061 4.2999 69.0061 7.8999C71.5061 8.7999 73.2062 9.4999 73.9062 9.8999L74.2061 9.9999V11.1999C74.3061 16.7999 74.3062 40.5999 59.9062 58.7999C49.3062 72.6999 39.4061 75.7999 38.5061 75.9999ZM60.9062 59.3999C74.6061 41.9999 75.7061 19.5999 75.5061 10.7999V9.1999L75.2061 9.0999C74.6061 8.7999 59.6062 1.3999 38.9062 1.3999H37.9062C17.2062 1.3999 2.30616 8.7999 1.60616 9.0999L1.30614 9.1999V10.6999C1.10614 19.4999 2.20615 41.9999 15.9062 59.2999C26.9062 73.3999 37.2062 76.5999 38.3062 76.8999H38.4062H38.5061C39.1061 76.8999 49.5061 73.7999 60.9062 59.3999Z" fill="white"/>
<path d="M64.9062 21.2C59.8062 15.9 59.3062 15.1 59.3062 12.9C59.3062 10.8 60.2061 10.5 61.2061 10.5C61.8061 10.5 62.4062 10.6 62.9062 10.8C66.6062 11.9 66.6062 13.9 66.6062 15.4V17.5C66.6062 17.7 66.7062 17.8 66.8062 17.9C67.7062 18.2 68.2062 18.4 69.1062 18.7C69.2062 18.8 69.4061 18.8 69.5061 18.7C69.6061 18.6 69.7061 18.5 69.7061 18.4V16.6C69.7061 14.4 69.7062 10.6 63.1062 8.7C58.5062 7.4 56.1062 8.8 56.1062 12.8C56.1062 16.1 58.1061 18.1 61.5061 21.4L62.2061 22.1C66.2061 26.1 67.0061 27.3 67.0061 29.8C67.0061 30.7 66.9062 31.3 66.6062 31.7C66.3062 32.1 65.9061 32.3 65.2061 32.3C64.5061 32.3 63.8061 32.2 63.2061 32C61.4061 31.5 60.2062 30.8 59.4062 30C58.5062 29 58.5061 28.1 58.5061 26.3V24.1C58.5061 23.9 58.4061 23.7 58.2061 23.7C57.2061 23.5 56.7062 23.4 55.8062 23.2C55.7062 23.2 55.6061 23.2 55.5061 23.3C55.4061 23.4 55.4062 23.5 55.4062 23.6V27C55.4062 30.1 58.0062 32.5 62.9062 33.9C64.1062 34.3 65.3061 34.5 66.5061 34.5C70.3061 34.5 70.3062 31.4 70.3062 30.1C70.1062 26.7 68.3062 24.7 64.9062 21.2ZM54.6062 6.9C49.7062 6 44.8062 5.5 39.9062 5.5C39.7062 5.5 39.5061 5.6 39.5061 5.8C39.5061 5.9 39.5061 5.9 39.5061 6V7.5C39.5061 7.7 39.7062 7.9 39.9062 7.9C42.2062 7.9 43.4062 8 45.6062 8.1V30.1C45.6062 30.3 45.8061 30.5 46.0061 30.5C47.0061 30.6 47.4062 30.6 48.4062 30.7C48.5062 30.7 48.6062 30.6 48.6062 30.6C48.7062 30.5 48.8061 30.4 48.7061 30.3V8.3C50.9061 8.5 52.1062 8.7 54.4062 9.1C54.5062 9.1 54.6061 9.1 54.7061 9C54.8061 8.9 54.8062 8.8 54.8062 8.7V7.2C55.0062 7.1 54.8062 7 54.6062 6.9ZM37.5061 5.5C33.3061 5.5 29.2062 5.9 25.1062 6.6C24.9062 6.6 24.7061 6.8 24.7061 7V30.9C24.7061 31 24.8062 31.1 24.8062 31.2C24.9062 31.3 25.0062 31.3 25.1062 31.3C29.2062 30.6 33.2062 30.3 37.3062 30.2C37.5062 30.2 37.7061 30 37.7061 29.8V28.3C37.7061 28.2 37.6062 28.1 37.6062 28C37.5062 27.9 37.4062 27.8 37.3062 27.9C34.1062 27.9 30.9062 28.2 27.8062 28.6V19.1C30.4062 18.7 33.0062 18.5 35.6062 18.4C35.8062 18.4 36.0061 18.3 36.0061 18.1C36.0061 18.1 36.0061 18.1 36.0061 18V16.5C36.0061 16.4 36.0062 16.3 35.9062 16.2C35.8062 16.1 35.7062 16.1 35.6062 16.1C33.0062 16.2 30.4062 16.4 27.8062 16.7V8.3C31.0062 7.9 34.2062 7.6 37.3062 7.6C37.5062 7.6 37.7061 7.5 37.7061 7.3V5.8C37.7061 5.7 37.7062 5.6 37.6062 5.5C37.6062 5.6 37.6061 5.5 37.5061 5.5ZM21.6062 7.3C20.7062 7.5 20.2062 7.6 19.3062 7.8C19.1062 7.8 19.0061 8 19.0061 8.2L19.2061 25.6C19.2061 26.8 19.2062 27.8 19.3062 28.8C17.0062 22.7 14.5062 16.5 12.0062 10.2C11.9062 10 11.7062 9.9 11.5062 10C10.1062 10.5 9.40617 10.7 8.10617 11.3C7.90617 11.4 7.80615 11.5 7.80615 11.7V35.6C7.80615 35.7 7.90616 35.8 8.00616 35.9C8.00616 36 8.10615 36 8.20615 36C8.30615 36 8.30615 36 8.30615 36C9.10615 35.7 9.60616 35.5 10.4062 35.2C10.6062 35.2 10.7061 35 10.7061 34.8C10.7061 29.2 10.7062 23.5 10.6062 17.8C10.6062 16.3 10.6062 15.5 10.6062 14.4C13.0062 20.7 15.4061 26.8 17.7061 32.6C17.7061 32.8 17.9062 32.9 18.1062 32.8C19.5062 32.5 20.3061 32.3 21.7061 32C21.9061 32 22.0061 31.8 22.0061 31.6V7.6C22.0061 7.5 21.9062 7.4 21.9062 7.3C21.8062 7.2 21.7062 7.2 21.6062 7.3Z" fill="white"/>
<path d="M51.8059 61.3999C51.6059 61.5999 51.3059 61.6999 51.1059 61.8999C50.4059 62.3999 49.7059 62.6999 49.1059 63.1999C48.8059 63.3999 48.5059 63.5999 48.1059 63.7999C45.7059 65.2999 42.8059 66.8999 39.8059 67.8999C39.0059 68.1999 38.1059 68.3999 37.3059 68.4999C36.6059 68.5999 35.9058 68.6999 35.2058 68.6999H35.1059C34.2059 68.6999 33.4058 68.5999 32.5058 68.4999C35.8058 69.6999 39.4059 69.7999 42.8059 68.9999C44.8059 68.4999 46.6059 67.6999 48.3059 66.5999C49.9059 65.1999 51.2059 63.3999 51.8059 61.3999ZM35.6059 67.7999C37.6059 67.5999 39.4058 66.9999 41.2058 66.0999C41.5058 65.9999 41.8058 65.7999 42.0058 65.5999C42.2058 65.4999 42.5058 65.3999 42.7058 65.2999C44.3058 64.4999 46.1059 63.4999 48.1059 62.3999C48.9059 61.9999 49.6059 61.5999 50.3059 61.1999L51.1059 60.6999C51.4059 60.4999 51.8058 60.3999 52.0058 60.1999C52.0058 60.1999 52.0059 60.1999 52.1059 60.1999C52.4059 59.0999 52.6058 58.0999 52.7058 56.9999C50.6058 57.9999 47.5058 58.9999 42.9058 59.8999C37.1058 61.0999 31.3058 60.5999 26.2058 58.3999C22.8058 56.9999 21.1058 54.9999 20.5058 53.8999C20.6058 54.6999 20.7058 55.4999 20.9058 56.1999C22.0058 60.4999 24.7058 64.1999 28.4058 66.6999L28.9058 66.9999C29.4058 67.2999 29.9058 67.4999 30.4058 67.6999C31.5058 67.9999 32.6059 68.1999 33.8059 68.1999C34.5059 67.8999 35.0059 67.7999 35.6059 67.7999ZM53.9058 60.1999C53.7058 60.1999 53.5058 60.1999 53.4058 60.2999L53.3059 60.3999C53.3059 60.3999 53.2058 60.3999 53.2058 60.4999C52.8058 61.6999 52.2058 62.7999 51.5058 63.7999C52.5058 62.7999 53.4059 61.5999 54.1059 60.3999V60.1999H53.9058ZM54.6059 55.7999C54.5059 55.8999 54.5058 55.8999 54.4058 55.9999C54.3058 56.0999 54.2059 56.0999 54.1059 56.1999C54.0059 57.2999 53.8058 58.3999 53.4058 59.4999C54.0058 59.2999 54.2058 59.4999 54.2058 59.6999C55.1058 57.8999 55.7058 55.8999 56.0058 53.8999C55.8058 54.5999 55.3059 55.2999 54.6059 55.7999ZM54.1059 54.8999C54.1059 54.8999 54.2058 54.8999 54.2058 54.7999C55.2058 53.9999 55.8058 52.9999 56.2058 51.7999C56.2058 50.3999 56.0059 48.8999 55.6059 47.4999C55.6059 47.3999 55.6058 47.3999 55.5058 47.2999C55.3058 48.6999 54.6059 49.9999 53.6059 50.8999C54.0059 52.1999 54.1059 53.4999 54.1059 54.8999ZM27.4058 56.9999C31.6058 58.3999 34.0058 58.7999 37.0058 58.7999C38.1058 58.7999 39.4058 58.7999 41.0058 58.5999C45.5058 58.1999 50.3059 56.6999 52.8059 55.4999C52.8059 54.1999 52.7058 52.9999 52.4058 51.7999C51.6058 52.2999 50.7058 52.4999 49.7058 52.4999C48.6058 52.4999 47.4059 52.2999 45.3059 51.7999C42.8059 51.1999 39.3058 49.0999 36.2058 47.2999C34.5058 46.2999 32.9059 45.2999 31.6059 44.6999C26.5059 42.1999 23.6058 42.5999 22.9058 42.6999C21.1058 45.7999 20.2058 49.2999 20.4058 52.8999C21.0058 53.2999 22.7058 55.3999 27.4058 56.9999ZM30.1059 42.4999C32.3059 43.4999 34.4058 44.4999 36.4058 45.6999C40.2058 47.6999 44.0058 49.7999 46.7058 50.4999C49.0058 51.0999 50.9059 50.9999 52.3059 50.3999V50.2999C52.3059 50.1999 52.3058 50.0999 52.2058 49.9999C51.1058 45.1999 45.1059 34.6999 34.6059 34.6999C34.2059 34.6999 33.8059 34.6999 33.3059 34.6999C29.4059 35.7999 26.0058 38.1999 23.7058 41.4999C24.2058 41.3999 24.7058 41.2999 25.2058 41.2999C26.6058 41.3999 28.2059 41.7999 30.1059 42.4999ZM53.3059 49.5999C53.5059 49.2999 53.7058 48.9999 53.9058 48.6999C55.2058 46.2999 54.1059 43.5999 53.6059 42.5999C50.0059 36.7999 43.5059 33.4999 36.6059 34.0999C43.8059 34.4999 50.7059 40.8999 53.3059 49.5999Z" fill="white"/>
<path d="M45.4061 55.2999C45.4061 53.9999 45.4061 52.1 43.9061 50.6C44.1061 50.3 44.2061 50 44.3061 49.7C44.5061 49 44.6061 48.3 44.6061 47.5V43.9C44.6061 42.5 44.4061 41.2 43.2061 39.9C42.2061 38.8 40.706 38.2 39.006 38.2H34.2061C33.7061 38.2 33.1061 38.3999 32.8061 38.7999C32.4061 39.1999 32.2061 39.7 32.2061 40.2V63.7C32.2061 64.4 32.6061 65.1 33.2061 65.4C33.5061 65.6 33.9061 65.7 34.3061 65.7H39.2061C40.8061 65.8 42.4061 65.2 43.6061 64.2C45.2061 62.8 45.4061 61 45.4061 59.4V55.2999Z" fill="white"/>
<path d="M38.9058 49.6001C38.5058 49.7001 38.3058 49.7001 37.4058 49.8001H36.5057C36.4057 49.8001 36.3058 49.8001 36.3058 49.6001V42.1001C36.3058 42.0001 36.4057 41.9001 36.5057 41.9001H38.0057C38.7057 41.9001 39.3058 42.0001 39.9058 42.2001C40.1058 42.3001 40.3058 42.5001 40.3058 42.8001C40.4058 43.2001 40.5057 43.6001 40.5057 44.1001V47.1001C40.4057 47.8001 40.4058 49.1001 38.9058 49.6001ZM40.6058 61.7001C40.2058 62.0001 39.8058 62.1001 38.6058 62.2001H36.5057C36.4057 62.2001 36.3058 62.1001 36.3058 61.9001V52.5001C36.3058 52.5001 36.3058 52.4001 36.4058 52.4001H37.4058C38.4058 52.4001 39.5057 52.5001 40.2057 53.0001C40.6057 53.2001 40.9057 53.6001 41.0057 54.1001C41.1057 54.6001 41.2057 55.1001 41.2057 55.6001V59.0001C41.3057 60.5001 41.2058 61.2001 40.6058 61.7001ZM44.2057 55.5001C44.2057 54.1001 44.2058 52.6001 42.8058 51.4001C42.5058 51.1001 42.1058 50.9001 41.8058 50.8001C42.4058 50.4001 42.9058 49.8001 43.1058 49.0001C43.3058 48.4001 43.4058 47.8001 43.3058 47.2001V43.5001C43.3058 42.5001 43.2058 41.3001 42.3058 40.3001C41.6058 39.5001 40.4057 39.1001 39.0057 39.1001H33.9058C33.7058 39.1001 33.6057 39.2001 33.5057 39.3001C33.4057 39.4001 33.4058 39.6001 33.4058 39.7001V64.2001C33.4058 64.4001 33.5057 64.6001 33.7057 64.7001C33.8057 64.8001 33.9057 64.8001 34.0057 64.8001H39.1058C40.4058 64.9001 41.7057 64.4001 42.7057 63.6001C43.9057 62.5001 44.1058 61.2001 44.1058 59.7001V55.5001H44.2057Z" fill="black"/>
</svg>
