<svg width="118" height="115" viewBox="0 0 118 115" fill="none" xmlns="http://www.w3.org/2000/svg">
<path d="M115.6 18.1C112.9 25.1 109.4 32.5 107.7 35.5C104.7 40.5 98.9 43.6 95.4 44.7C95.4 44.7 93.7 48.8 92 51H99V60.5L105.7 63.7L99 67.1V75.2L92.5 79.2C92.5 79.2 87.3 78.6 84.8 78.3L64.2 90.2C60.1 108.8 59.1 114.2 59.1 114.2C59.1 114.2 58.1 109.1 54 90.2L33.4 78.3C30.9 78.6 25.7 79.2 25.7 79.2L19.2 75.2V67.1L12.5 63.8L19.2 60.6V51H26.2C24.5 48.9 22.7 44.7 22.7 44.7C20.7 44 18.6 43.1 16.9 42C14.1 40.3 11.9 37.9 10.4 35.6C7.80002 30.6 4.50001 23.2 2.70001 18.2C1.50001 15.2 0 10.6 0 10.6C0 10.6 3.8 12.4 5 13C3.2 7.5 1.60004 0.200001 1.60004 0.200001C1.60004 0.200001 27.9 17.3 46.4 32.1L46.7 31.9V30.9C46.7 30.7 46.7001 30.3 46.8 29.9C47 29.3 47.5 28.6 48.5 27.9C47.2 26.9 44.7 25.2 44.4 24.9C42.7 23.3 42.3 21.6 42.4 20.8L42.7 18.8L52.7 26.2C58.2 24.6 62 25.4 64.9 26.2L74.9 18.8L75.2 20.8C75.3 21.7 75.1 23.4 73.2 24.9C73 25.1 70.5 26.8 69.1 27.9C70.2 28.6 70.7001 29.3 70.8 29.9C70.9 30.4 70.9 30.7 70.9 30.9V31.9L71.2 32.1C90.2 17 116.1 0 116.1 0C116.1 0 114.8 6 112.7 12.8C113.7 12.3 117.7 10.4 117.7 10.4C117.1 14.1 115.6 18.1 115.6 18.1Z" fill="#A1A1A4"/>
<path d="M28.8002 52.1H20.4002V61.2L15.4002 63.6L20.4002 66.2999V74.3999L26.0002 77.7999C28.0002 77.4999 30.6002 77.2 33.7002 76.8999L55.2002 89.2999L59.1002 107.3C59.1002 107.2 63.1002 89.2999 63.1002 89.2999L84.6002 76.8999C87.6002 77.2 90.3002 77.4999 92.3002 77.7999L97.8002 74.3999V66.2999L102.8 63.7L97.8002 61.2V52.1H89.4002C89.4002 52.1 90.7002 50.7999 92.4002 47.9999C93.1002 46.7999 93.7002 45.2999 94.5002 43.7C100.6 41.9 105.1 38 107 34.2C112.2 24.7 116.2 12.8999 116.2 12.8999C116.2 12.8999 113.9 13.9999 111.2 15.2999C113.4 8.59995 114.8 2.79995 114.8 2.79995C114.8 2.79995 90.7002 18.7999 71.9002 33.7999L70.3002 32.7999C70.3002 32.6999 70.4002 31.3 70.4002 31.2C70.4002 31.2 70.6002 29.6 67.8002 28.7C67.6002 28.6 67.5002 28.6 67.3002 28.6C68.6002 27.6 70.8002 25.9999 72.3002 24.8999C74.7002 23.1999 74.5002 21.2999 74.5002 21.2999L65.5002 27.9999C58.6002 25.6999 52.9002 27.9999 52.9002 27.9999L43.9002 21.2999C43.9002 21.2999 43.6002 23.0999 46.1002 24.8999C47.7002 25.8999 49.8002 27.5 51.1002 28.6C51.0002 28.7 50.8002 28.7 50.6002 28.7C47.8002 29.7 48.0002 31.2 48.0002 31.2C48.0002 31.3 48.1002 32.6999 48.1002 32.7999L46.5002 33.6C27.7002 18.7 3.60022 2.69995 3.60022 2.69995C3.60022 2.69995 4.9002 8.39995 7.2002 15.2C4.2002 13.8 2.2002 12.7999 2.2002 12.7999C2.2002 12.7999 6.10023 24.6 11.3002 34.1C13.2002 37.9 17.7002 41.8 23.8002 43.6C23.8002 43.6 24.8002 46 25.7002 47.7C26.8002 49.7999 28.8002 52.1 28.8002 52.1Z" fill="#1D1160"/>
<path d="M110.1 9.3999C92.8001 19.9999 77.3001 31.8999 69.2001 38.3999C69.1001 38.6999 69.0001 38.9999 68.9001 39.1999C77.4001 33.6999 92.1001 24.0999 108.6 13.3999C108.6 13.2999 108.6 13.6999 110.1 9.3999ZM8.1001 9.3999C9.5001 13.5999 9.6001 13.2999 9.6001 13.2999C26.1001 23.8999 40.9001 33.5999 49.4001 39.0999C49.2001 38.8999 49.2001 38.5999 49.1001 38.2999C41.1001 31.8999 25.6001 19.9999 8.1001 9.3999ZM59.4001 28.8999C58.0001 28.8999 56.6001 29.0999 55.2001 29.3999C56.7001 31.4999 56.5001 34.3999 56.5001 34.3999C55.9001 31.6999 54.2001 30.4999 53.1001 29.8999C52.7001 29.9999 52.2001 30.1999 51.6001 30.3999C52.7001 30.7999 54.0001 31.9999 55.0001 34.0999C55.4001 35.0999 55.7001 39.0999 58.0001 40.0999C56.1001 41.7999 53.8001 41.3999 52.1001 39.7999C54.3001 44.4999 57.9001 46.2999 59.3001 46.8999C60.5001 45.8999 61.2001 43.0999 60.6001 40.0999C62.9001 39.0999 63.1001 35.0999 63.6001 34.0999C64.5001 31.8999 65.9001 30.8999 67.0001 30.3999C66.5001 30.2999 66.0001 30.0999 65.5001 29.8999C64.4001 30.3999 62.7001 31.7999 62.1001 34.3999C62.1001 34.3999 61.9001 31.3999 63.4001 29.3999C62.0001 29.0999 60.7001 28.8999 59.4001 28.8999ZM91.0001 44.0999L89.4001 44.5999C83.9001 46.0999 73.7001 47.4999 73.7001 47.4999C78.7001 47.5999 82.9001 47.9999 85.3001 48.2999C85.8001 47.6999 86.4001 46.9999 86.6001 46.2999C86.6001 46.2999 86.4001 48.1999 86.0001 49.3999C85.5001 50.8999 84.9001 52.2999 84.6001 52.4999C85.0001 52.1999 88.8001 49.1999 91.0001 44.0999ZM27.2001 44.1999C29.6001 49.6999 33.7001 52.5999 33.7001 52.5999C33.7001 52.5999 32.9001 51.0999 32.2001 49.3999C31.8001 48.1999 31.6001 46.2999 31.6001 46.2999C31.8001 46.8999 32.5001 47.5999 32.9001 48.2999C35.3001 47.9999 39.5001 47.6999 44.5001 47.4999C44.5001 47.4999 34.1001 45.9999 28.8001 44.5999L27.2001 44.1999ZM35.8001 72.0999C35.0001 72.1999 34.3001 72.1999 33.6001 72.2999L48.2001 80.7999C47.4001 79.8999 46.8001 79.0999 46.2001 78.1999C46.3001 78.1999 35.8001 72.0999 35.8001 72.0999ZM82.5001 72.0999L72.0001 78.1999C71.5001 79.0999 70.9001 79.8999 70.0001 80.7999L84.6001 72.2999C84.0001 72.1999 83.3001 72.1999 82.5001 72.0999ZM58.2001 72.5999C55.2001 72.6999 53.0001 72.9999 51.5001 73.3999C51.8001 73.7999 52.3001 74.1999 52.6001 74.4999C54.3001 76.1999 55.9001 76.8999 55.9001 79.2999C55.9001 79.9999 55.6001 80.5999 55.1001 81.0999C54.8001 81.4999 54.2001 81.7999 53.8001 82.0999C53.7001 82.1999 53.4001 82.2999 53.3001 82.2999C55.3001 83.4999 56.7001 83.9999 57.2001 84.1999C57.2001 84.1999 56.1001 84.3999 54.8001 84.2999C55.2001 84.9999 55.7001 85.5999 56.1001 86.3999C56.5001 86.2999 57.6001 85.5999 59.1001 85.5999C60.7001 85.5999 61.8001 86.1999 62.0001 86.3999C62.3001 85.5999 62.9001 84.9999 63.3001 84.2999C62.0001 84.4999 60.9001 84.1999 60.9001 84.1999C61.5001 83.9999 62.9001 83.5999 64.8001 82.2999C64.7001 82.1999 64.5001 82.0999 64.3001 82.0999C63.9001 81.8999 63.4001 81.4999 63.0001 81.0999C62.5001 80.5999 62.2001 80.0999 62.2001 79.2999C62.2001 76.9999 63.8001 76.1999 65.5001 74.4999C65.9001 74.1999 66.2001 73.6999 66.6001 73.3999C65.0001 72.9999 62.8001 72.5999 59.9001 72.5999L59.1001 82.2999H58.9001L58.2001 72.5999ZM50.6001 73.5999C49.1001 74.1999 48.3001 74.6999 47.8001 75.0999C48.8001 76.0999 50.8001 77.3999 54.3001 78.0999C53.9001 77.0999 52.8001 75.8999 51.6001 74.6999L50.6001 73.5999ZM67.6001 73.6999L66.6001 74.6999C65.5001 75.8999 64.3001 76.9999 63.9001 78.0999C67.5001 77.2999 69.4001 76.0999 70.4001 75.0999C70.0001 74.6999 69.1001 74.0999 67.6001 73.6999ZM47.9001 76.3999C48.9001 78.2999 50.3001 80.0999 52.0001 81.1999C52.1001 81.1999 54.0001 80.5999 54.4001 79.6999C49.8001 78.5999 47.9001 76.3999 47.9001 76.3999ZM70.4001 76.3999C70.4001 76.3999 68.5001 78.6999 63.8001 79.6999C64.2001 80.4999 66.2001 81.1999 66.2001 81.1999C68.0001 79.8999 69.5001 78.2999 70.4001 76.3999Z" fill="#00788C"/>
<path d="M108.8 13.3C92.3001 24 77.6001 33.6001 69.1001 39.1001C68.7001 40.0001 68.4001 40.8 68.0001 41.5L101.3 23.4L75.3001 42.2001L76.6001 42L90.3001 40.7001C90.3001 40.7001 99.6001 39.8 104.8 32.9C107.2 29.1 111.4 18.3 111.4 18.3L105.3 21.4C107.2 16.6 108.8 13.3 108.8 13.3ZM9.6001 13.4C9.6001 13.4 11.1001 16.7 13.1001 21.3L7.1001 18.3C7.1001 18.3 11.2001 29.2 13.6001 32.9C18.8001 39.8 28.1001 40.7001 28.1001 40.7001L41.8001 42L43.1001 42.2001L17.1001 23.4L50.3001 41.5C49.9001 40.7 49.5001 40.0001 49.2001 39.1001C40.8001 33.7001 26.1001 24.1 9.6001 13.4ZM54.0001 36.8C54.0001 36.8 51.8001 40.6 56.0001 40.4C56.0001 40.4 54.3001 39.3 54.0001 36.8ZM64.4001 36.8C64.1001 39.2 62.4001 40.4 62.4001 40.4C66.6001 40.6 64.4001 36.8 64.4001 36.8ZM36.6001 50.2001V53.9L37.1001 54.4H39.6001V53.1001H38.6001V53.5H37.6001V51.3H38.6001V51.6001H39.6001V50.3H36.6001V50.2001ZM41.9001 50.2001V54.3H42.9001V53H44.1001V54.3H45.1001V50.2001H44.1001V52.1001H42.9001V50.2001H41.9001ZM47.3001 50.2001V54.3H48.4001V53H49.6001V54.3H50.6001V50.7001L50.1001 50.2001C50.0001 50.2001 47.3001 50.2001 47.3001 50.2001ZM58.6001 50.2001V54.3H61.1001V53.4H59.6001V50.2001H58.6001ZM63.2001 50.2001V53.9L63.7001 54.4H66.4001V50.7001L65.9001 50.2001H63.2001ZM68.7001 50.2001V51.2001H69.6001V54.3H70.7001V51.2001L71.5001 51.1001V50.2001H68.7001ZM73.6001 50.2001V51.2001H74.5001V54.3H75.6001V51.2001L76.4001 51.1001V50.2001H73.6001ZM78.8001 50.2001V54.3H81.8001V53.4H79.8001V52.8H81.8001V51.8H79.8001V51.2001H81.8001V50.2001H78.8001ZM52.9001 50.3V54.3H53.9001V52.9H54.7001L55.3001 54.3H56.4001L55.7001 52.9H56.1001V50.7001L55.6001 50.2001H52.9001V50.3ZM48.4001 51.1001H49.6001V52.1001H48.4001V51.1001ZM53.9001 51.1001H55.1001V51.9H53.9001V51.1001ZM64.2001 51.1001H65.4001V53.3H64.2001V51.1001ZM85.5001 54.3L86.6001 55.6001V62.3L92.4001 64.8V68.5C92.4001 68.5 91.1001 68.4001 89.4001 68.1001V66.9L86.6001 66.5V70.3C89.7001 70.6 92.5001 71.1001 95.2001 71.6001C95.1001 69.5001 95.1001 66.4 95.1001 64.9C96.0001 64.5 96.8001 64.1001 97.7001 63.6001C94.9001 62.3001 92.1001 61.2 89.2001 60V56.8H92.2001V58H95.1001V54.3H85.5001ZM23.0001 54.3V62.6001C23.0001 62.6001 20.7001 63.7001 20.7001 63.8L23.0001 65V71.7001C23.9001 71.6001 24.8001 71.4001 25.8001 71.2001V64.8L29.0001 63.5V70.7001C29.9001 70.6001 30.8001 70.4 31.8001 70.3V54.3H29.0001V60L25.8001 61.3V54.3H23.0001ZM43.8001 56.7001L44.9001 58V69.1001C45.9001 69.0001 46.7001 69 47.7001 69V64.7001C48.4001 64.7001 49.0001 64.6001 49.8001 64.6001C50.4001 65.9001 50.8001 67.5 51.4001 68.8C52.4001 68.8 53.2001 68.7001 54.2001 68.7001C53.6001 67.4001 53.2001 65.8 52.6001 64.5H53.7001V57.9L52.4001 56.6001L43.8001 56.7001ZM32.8001 56.8L33.8001 58.1001V68.6001L34.9001 69.9C37.3001 69.6 40.0001 69.4 42.7001 69.3V58.2001L41.4001 56.9H32.8001V56.8ZM77.0001 56.8V59.4H79.4001V69.6001C80.4001 69.7001 81.4001 69.7 82.5001 69.9V59.5H84.9001V56.9L77.0001 56.8ZM54.7001 56.8L55.8001 58.1001V68.8H58.7001C58.7001 68.7001 58.7001 59.3 58.7001 59.3H61.9001V68.7001C62.9001 68.7001 63.9001 68.7001 64.9001 68.8V58.1001L63.6001 56.8H54.7001ZM65.9001 56.9L66.9001 58.2001V69C69.8001 69.1 72.6001 69.2 75.4001 69.4V66.5H75.3001C73.5001 66.4 71.6001 66.3 69.8001 66.2001V64.2001C71.6001 64.3 73.5001 64.3 75.3001 64.4V61.6001C73.5001 61.5001 71.6001 61.5 69.8001 61.5V59.4H75.3001V56.8L65.9001 56.9ZM36.7001 59.4H39.9001V66.7001C38.8001 66.8 37.8001 66.8 36.7001 66.9V59.4ZM47.7001 59.4H50.9001V61.9C49.8001 61.9 48.8001 61.9 47.7001 62V59.4ZM59.1001 88.5C57.8001 88.5 57.4001 88.9001 57.0001 89.1001L59.2001 97.8L61.2001 89.2C60.9001 88.8 60.4001 88.5 59.1001 88.5Z" fill="white"/>
</svg>
