<svg width="105" height="106" viewBox="0 0 105 106" fill="none" xmlns="http://www.w3.org/2000/svg">
<path d="M95.4999 40.6C95.0999 34.2 92.2998 28.5 90.5998 25.1L90.3999 24.7L89.6999 23.2L89.8999 24.7999C90.0999 27.0999 90.5999 34.9 88.2999 39.2999C85.3999 45.2999 76.8998 44.7 74.0998 44.5H73.8999C69.2999 44.2 54.3999 43.7 49.7999 43.7C43.7999 43.8 37.1999 44.2 31.7999 44.6C29.1999 44.8 26.8999 45 25.3999 45C25.1999 45 25.0999 45.1 24.7999 45.1C17.2999 45.8 12.5999 43.6 10.6999 38.5C9.59989 35.4 9.59985 29.1999 9.59985 26.2999V24.2L8.99987 25.2999C6.29987 30.0999 4.59985 35.4 4.09985 40.7999C3.59985 50.2999 8.49986 53.7 12.2999 55.4C16.1999 57.2 20.2999 57.5 21.5998 57.6H21.6999C21.9999 57.6 22.2999 57.7 22.5998 57.7C22.9998 57.7 23.4999 57.7 23.8999 57.7999C23.1999 58 22.1999 58.1 21.3999 58.2C20.4999 58.4 19.6999 58.5 19.1999 58.6C18.2999 58.8 14.4999 59.7 12.4999 60.4C10.7999 61 8.8999 61.9 8.8999 61.9L8.59985 62.1L8.8999 62.4C8.8999 62.4 9.49989 63.2 10.1999 63.9C12.7999 66.2 16.1999 67.3 19.6999 67C23.1999 66.6 25.1999 65.7 25.8999 65.2999C26.2999 66.5999 26.6999 68 27.2999 69.2C28.8999 73.1 32.5999 80.8 33.8999 83.4C34.9999 85.6 36.0999 87.5 36.7999 88.7L37.0998 89.2C36.8998 89.9 36.3999 90.5 35.7999 90.9C35.6999 91 35.5999 91.1 35.4999 91.2L35.3999 91.2999V91.4999C35.2999 92.1999 35.1999 98.9 39.6999 103.7L39.7999 103.8H39.8999C42.1999 104.7 45.0999 105.6 49.7999 105.6C54.5999 105.6 58.5998 104.4 60.0998 103.8L60.1999 103.7L60.2999 103.6C63.3999 99.9 64.8999 94.2999 64.8999 92.2999V92.2L64.7999 92.1L64.5998 91.9C63.8998 91.2 63.2999 90.4 63.0998 89.4C63.4999 88.8 64.2999 87.2 64.8999 85.9C65.0999 85.3 65.3999 84.7999 65.6999 84.2999C66.9999 81.7 70.8999 73.3 72.3999 69.5C73.2999 67 73.8998 65.7999 74.0998 65.2C74.7998 65.6 76.5998 66.3999 80.0998 66.7999C84.5998 67.2 88.7998 64.3 90.0998 62.6C90.2998 62.3 90.5999 62 90.6999 61.9L90.9999 61.6L90.5998 61.4C90.4998 61.4 90.3999 61.3 89.6999 61.1L87.1999 60.2999L84.6999 59.5C83.9999 59.3 80.9999 58.6 78.7999 58.1L77.0998 57.7L77.5998 57.6C82.5998 56.5 96.2999 54.2 95.4999 40.6Z" fill="black"/>
<path d="M9.09985 27C8.89985 30.5 8.99987 34.4 9.79987 37.7C9.09987 36.9 8.29988 36.2 7.49988 35.5C6.79988 36.3 6.0999 37.1 5.3999 37.9C6.0999 34.1 7.39985 30.4 9.09985 27Z" fill="#CE1141"/>
<path d="M9.09985 27C8.89985 30.5 8.99987 34.4 9.79987 37.7C9.09987 36.9 8.29988 36.2 7.49988 35.5C6.79988 36.3 6.0999 37.1 5.3999 37.9C6.0999 34.1 7.39985 30.4 9.09985 27Z" stroke="#CE1141" stroke-width="0.24"/>
<path d="M94.1001 36.2999L94.3001 37.2L92.5001 35.9C91.7001 36.3 90.9001 36.8 90.1001 37.2C90.7001 33.7 90.9001 30.2 90.6001 26.7C92.2001 29.7 93.1001 32.9999 94.1001 36.2999Z" fill="#CE1141"/>
<path d="M94.1001 36.2999L94.3001 37.2L92.5001 35.9C91.7001 36.3 90.9001 36.8 90.1001 37.2C90.7001 33.7 90.9001 30.2 90.6001 26.7C92.2001 29.7 93.1001 32.9999 94.1001 36.2999Z" stroke="#CE1141" stroke-width="0.24"/>
<path d="M49.9 69.7C51.8 72.6 55.3 73.5 58.6 72.6C59.8 72.3 61 71.9 62.1 71.4C61 74.6 60.4 78 60.5 81.4C60.5 84.4 61 87.3 61.9 90.1C61.4 90 61 89.6 60.5 89.4C54 86.1 44.9 86.2 38.5 89.6C38.8 88.6 39.1 87.4 39.4 86.4C40.3 81.5 39.7 76.4 38 71.9C41.4 73.3 46.4 73.6 49.2 70.5C49.4 70.2 49.6 70 49.9 69.7Z" fill="#CE1141"/>
<path d="M49.9 69.7C51.8 72.6 55.3 73.5 58.6 72.6C59.8 72.3 61 71.9 62.1 71.4C61 74.6 60.4 78 60.5 81.4C60.5 84.4 61 87.3 61.9 90.1C61.4 90 61 89.6 60.5 89.4C54 86.1 44.9 86.2 38.5 89.6C38.8 88.6 39.1 87.4 39.4 86.4C40.3 81.5 39.7 76.4 38 71.9C41.4 73.3 46.4 73.6 49.2 70.5C49.4 70.2 49.6 70 49.9 69.7Z" stroke="#CE1141" stroke-width="0.24"/>
<path d="M35.4 72.1001C35.2 73.5001 34.8 75.0001 33.3 75.6001C32.1 75.9001 31 75.2001 30.2 74.4001C29.8 74.0001 29.6 73.5001 29.5 73.0001C31.4 74.2001 33.8 73.2001 35.4 72.1001Z" fill="#CE1141"/>
<path d="M35.4 72.1001C35.2 73.5001 34.8 75.0001 33.3 75.6001C32.1 75.9001 31 75.2001 30.2 74.4001C29.8 74.0001 29.6 73.5001 29.5 73.0001C31.4 74.2001 33.8 73.2001 35.4 72.1001Z" stroke="#CE1141" stroke-width="0.24"/>
<path d="M70.0998 72.3C69.6998 73.6 68.5998 74.8001 67.2998 75.1001C66.2998 75.3001 65.3998 74.8001 64.8998 73.9001C64.5998 73.4001 64.3998 72.9 64.2998 72.3C65.9998 73.7 68.5998 73.3 70.0998 72.3Z" fill="#CE1141"/>
<path d="M70.0998 72.3C69.6998 73.6 68.5998 74.8001 67.2998 75.1001C66.2998 75.3001 65.3998 74.8001 64.8998 73.9001C64.5998 73.4001 64.3998 72.9 64.2998 72.3C65.9998 73.7 68.5998 73.3 70.0998 72.3Z" stroke="#CE1141" stroke-width="0.24"/>
<path d="M66.5998 75.8999C67.2998 75.9999 67.9999 75.8999 68.6999 75.5999C66.8999 80.1999 64.5999 84.5999 62.3999 88.9999C61.5999 86.7999 61.7999 84.3999 61.8999 81.8999C62.2999 78.9999 62.8998 76.1999 63.7998 73.3999C64.3998 74.5999 65.3998 75.6999 66.5998 75.8999Z" fill="#CE1141"/>
<path d="M66.5998 75.8999C67.2998 75.9999 67.9999 75.8999 68.6999 75.5999C66.8999 80.1999 64.5999 84.5999 62.3999 88.9999C61.5999 86.7999 61.7999 84.3999 61.8999 81.8999C62.2999 78.9999 62.8998 76.1999 63.7998 73.3999C64.3998 74.5999 65.3998 75.6999 66.5998 75.8999Z" stroke="#CE1141" stroke-width="0.24"/>
<path d="M37.7999 89C34.9999 84.8 32.8999 80.4 30.8999 75.9C31.7999 76.4 33.2999 76.7 34.2999 76.1C35.1999 75.4 35.7999 74.5 35.9999 73.5C38.1999 77.9 38.7999 83.8 37.7999 89Z" fill="#CE1141"/>
<path d="M37.7999 89C34.9999 84.8 32.8999 80.4 30.8999 75.9C31.7999 76.4 33.2999 76.7 34.2999 76.1C35.1999 75.4 35.7999 74.5 35.9999 73.5C38.1999 77.9 38.7999 83.8 37.7999 89Z" stroke="#CE1141" stroke-width="0.24"/>
<path d="M63.7 92.6C63.3 96.5 61.8 100.1 59.3 103.1C53.6 105.4 45.8 105.6 40.1 103.2C37.3 100.1 36.2 96.2 36 92C42.1 87.6 51.6 86.6001 58.6 89.7001C60.5 90.5001 62.2 91.3 63.7 92.6Z" fill="#CE1141"/>
<path d="M63.7 92.6C63.3 96.5 61.8 100.1 59.3 103.1C53.6 105.4 45.8 105.6 40.1 103.2C37.3 100.1 36.2 96.2 36 92C42.1 87.6 51.6 86.6001 58.6 89.7001C60.5 90.5001 62.2 91.3 63.7 92.6Z" stroke="#CE1141" stroke-width="0.24"/>
<path d="M87.4 60.9C82.2 59 76.7 58 71.2 57.9C70.7 52.1 70 48.4 68.9 45.1C66.2 44.9 54.3 44.5 49.7 44.5C45.1 44.5 33.4 45.2 30.7 45.4C29.2 49.5 28.2 53.8 27.8 58.2C21.9 58.7 16.2 59.9 10.6 61.8C9.89998 62.1 9.5 62.3 9.5 62.3C11.5 64.9 14.6 66.4 17.8 66.5C19.4 66.6 22.4 66.2 24.3 65.4C24.8 65.2 25.9 64.7 25.9 64.7C26.1 65.1 26.3 65.4 26.4 65.8C26.9 67.3 27.6 69.4 28.1 70.3C28.8 71.7 29.9 72.8 31.7 72.8C32.9 72.7 34 72.2 34.7 71.2C30.1 70.9 28.1 68.5 27.8 64.7C26.7 64.5 26.4 64.4 26.3 63.8C26.2 63.1 26.3 62.4 26.8 61.9C27.3 61.2 28.2 60.5 30.4 61.2C31.7 61.7 32.8 62.4 33.8 63.3C34.7 64.2 37.5 67.1 39.2 68C41 69.1 44.4 70.1 46.6 67.8C48 66.5 48.9 64.7 49.2 62.8C45.7 62.7 42.2 62.4 38.8 61.9C37.9 61.7 38.3 60.8 39 61.1C39 61.1 45.1 61.9 49.4 61.9C49.4 61.4 49.4 60.5 49.5 59.5C45.9 59.4 42.2 59.1 38.7 58.4C37.9 58.2 38.1 57.3 38.8 57.5C42.4 58.1 45.9 58.4 49.5 58.6C49.5 57.9 49.6 56.8 49.6 55.8C46 55.7 42.5 55.4 39 54.9C38.1 54.7 38.3 54 39 54.1C42.5 54.6 46.1 54.9 49.6 54.9V52.5C49.6 51.6 50.4 51.6 50.4 52.4V54.8C53.8 54.7 57.1 54.4 60.4 53.9C61.5 53.7 61.3 54.6 60.9 54.6C57.4 55.3 53.9 55.7 50.4 55.8V58.6C53.6 58.5 57.4 58.4 60.6 57.7C61.8 57.4 61.9 58.4 60.9 58.5C57.4 59.1 53.9 59.4 50.4 59.6C50.4 60.4 50.4 61.4 50.5 62C54.1 61.9 57.8 61.6 61.4 61.1C62.2 60.9 62.4 61.8 61.5 62C60.6 62.1 54.5 62.9 50.7 63C51.1 64.3 51.2 66.2 53.1 67.8C54.9 69.4 58 69.2 60.2 68C61.9 67 64.6 64.1 65.5 63.2C66.3 62.5 68.2 60.8 70.7 60.8C73.2 60.9 73.2 62.1 73.4 62.5C73.5 62.9 73.6 63.6 73 64C72.6 64.3 72.2 64.2 71.7 64.4C71.4 66.5 70.8 68.8 69.1 70C67.4 71.3 64.7 71.5 64.7 71.5C64.7 71.5 65.1 71.9 65.2 72C65.9 72.5 66.8 72.7 67.6 72.6C68.7 72.4 69.7 71.9 70.5 71.1C71.3 70 72.1 67.7 72.7 66.3C72.9 65.8 73.4 64.8 73.6 64.4C74.1 64.6 74.3 64.8 75.3 65.1C77.2 65.8 79.3 66.2 81.4 66.2C84 66.1 86.9 64.6 88.7 62.9C89 62.6 89.6 61.9 89.6 61.9C89.6 61.9 87.8 61 87.4 60.9Z" fill="#CE1141"/>
<path d="M87.4 60.9C82.2 59 76.7 58 71.2 57.9C70.7 52.1 70 48.4 68.9 45.1C66.2 44.9 54.3 44.5 49.7 44.5C45.1 44.5 33.4 45.2 30.7 45.4C29.2 49.5 28.2 53.8 27.8 58.2C21.9 58.7 16.2 59.9 10.6 61.8C9.89998 62.1 9.5 62.3 9.5 62.3C11.5 64.9 14.6 66.4 17.8 66.5C19.4 66.6 22.4 66.2 24.3 65.4C24.8 65.2 25.9 64.7 25.9 64.7C26.1 65.1 26.3 65.4 26.4 65.8C26.9 67.3 27.6 69.4 28.1 70.3C28.8 71.7 29.9 72.8 31.7 72.8C32.9 72.7 34 72.2 34.7 71.2C30.1 70.9 28.1 68.5 27.8 64.7C26.7 64.5 26.4 64.4 26.3 63.8C26.2 63.1 26.3 62.4 26.8 61.9C27.3 61.2 28.2 60.5 30.4 61.2C31.7 61.7 32.8 62.4 33.8 63.3C34.7 64.2 37.5 67.1 39.2 68C41 69.1 44.4 70.1 46.6 67.8C48 66.5 48.9 64.7 49.2 62.8C45.7 62.7 42.2 62.4 38.8 61.9C37.9 61.7 38.3 60.8 39 61.1C39 61.1 45.1 61.9 49.4 61.9C49.4 61.4 49.4 60.5 49.5 59.5C45.9 59.4 42.2 59.1 38.7 58.4C37.9 58.2 38.1 57.3 38.8 57.5C42.4 58.1 45.9 58.4 49.5 58.6C49.5 57.9 49.6 56.8 49.6 55.8C46 55.7 42.5 55.4 39 54.9C38.1 54.7 38.3 54 39 54.1C42.5 54.6 46.1 54.9 49.6 54.9V52.5C49.6 51.6 50.4 51.6 50.4 52.4V54.8C53.8 54.7 57.1 54.4 60.4 53.9C61.5 53.7 61.3 54.6 60.9 54.6C57.4 55.3 53.9 55.7 50.4 55.8V58.6C53.6 58.5 57.4 58.4 60.6 57.7C61.8 57.4 61.9 58.4 60.9 58.5C57.4 59.1 53.9 59.4 50.4 59.6C50.4 60.4 50.4 61.4 50.5 62C54.1 61.9 57.8 61.6 61.4 61.1C62.2 60.9 62.4 61.8 61.5 62C60.6 62.1 54.5 62.9 50.7 63C51.1 64.3 51.2 66.2 53.1 67.8C54.9 69.4 58 69.2 60.2 68C61.9 67 64.6 64.1 65.5 63.2C66.3 62.5 68.2 60.8 70.7 60.8C73.2 60.9 73.2 62.1 73.4 62.5C73.5 62.9 73.6 63.6 73 64C72.6 64.3 72.2 64.2 71.7 64.4C71.4 66.5 70.8 68.8 69.1 70C67.4 71.3 64.7 71.5 64.7 71.5C64.7 71.5 65.1 71.9 65.2 72C65.9 72.5 66.8 72.7 67.6 72.6C68.7 72.4 69.7 71.9 70.5 71.1C71.3 70 72.1 67.7 72.7 66.3C72.9 65.8 73.4 64.8 73.6 64.4C74.1 64.6 74.3 64.8 75.3 65.1C77.2 65.8 79.3 66.2 81.4 66.2C84 66.1 86.9 64.6 88.7 62.9C89 62.6 89.6 61.9 89.6 61.9C89.6 61.9 87.8 61 87.4 60.9Z" stroke="#CE1141" stroke-width="0.24"/>
<path d="M59.6 93.2001C60.1 94.1001 59.7 95.1 59.2 95.9C58.2 97.1 56.7 97.6001 55.2 97.2001C54.3 96.9001 53.5 96.3 53 95.5C52.8 96.2 53.3 96.8 53.3 97.4C53.2 97.5 53 97.6 52.9 97.5C52.1 96.4 51.7 94.7 52.5 93.5C53.4 91.8 55.1 91.1 57 91.3C58 91.5 59.1 92.2001 59.6 93.2001Z" fill="black"/>
<path d="M59.6 93.2001C60.1 94.1001 59.7 95.1 59.2 95.9C58.2 97.1 56.7 97.6001 55.2 97.2001C54.3 96.9001 53.5 96.3 53 95.5C52.8 96.2 53.3 96.8 53.3 97.4C53.2 97.5 53 97.6 52.9 97.5C52.1 96.4 51.7 94.7 52.5 93.5C53.4 91.8 55.1 91.1 57 91.3C58 91.5 59.1 92.2001 59.6 93.2001Z" stroke="#CE1141" stroke-width="0.24"/>
<path d="M46.9001 93.8001C47.6001 95.0001 47.3001 96.6001 46.6001 97.7001C46.5001 97.9001 46.3001 98.0001 46.1001 97.9001C45.8001 97.5001 46.2001 97.2001 46.3001 96.8001C46.4001 96.5001 46.4001 96.2001 46.4001 95.9001C45.5001 97.2001 43.9001 97.9001 42.3001 97.6001C41.1001 97.3001 40.1001 96.5001 39.7001 95.3001C39.5001 94.6001 39.6001 93.8001 40.0001 93.1001C41.1001 91.6001 43.1001 91.3001 44.7001 91.8001C45.6001 92.2001 46.4001 92.9001 46.9001 93.8001Z" fill="black"/>
<path d="M46.9001 93.8001C47.6001 95.0001 47.3001 96.6001 46.6001 97.7001C46.5001 97.9001 46.3001 98.0001 46.1001 97.9001C45.8001 97.5001 46.2001 97.2001 46.3001 96.8001C46.4001 96.5001 46.4001 96.2001 46.4001 95.9001C45.5001 97.2001 43.9001 97.9001 42.3001 97.6001C41.1001 97.3001 40.1001 96.5001 39.7001 95.3001C39.5001 94.6001 39.6001 93.8001 40.0001 93.1001C41.1001 91.6001 43.1001 91.3001 44.7001 91.8001C45.6001 92.2001 46.4001 92.9001 46.9001 93.8001Z" stroke="#CE1141" stroke-width="0.24"/>
<path d="M59.5001 101.7C59.4001 102 59.3001 102 59.1001 102.2C58.5001 102 57.9001 101.8 57.3001 101.6C52.0001 99.5 45.3001 100.1 40.4001 102.2C40.2001 102.1 40.1001 101.9 40.1001 101.7C45.8001 99.2 53.7001 98.9 59.5001 101.7Z" fill="black"/>
<path d="M59.5001 101.7C59.4001 102 59.3001 102 59.1001 102.2C58.5001 102 57.9001 101.8 57.3001 101.6C52.0001 99.5 45.3001 100.1 40.4001 102.2C40.2001 102.1 40.1001 101.9 40.1001 101.7C45.8001 99.2 53.7001 98.9 59.5001 101.7Z" stroke="#CE1141" stroke-width="0.24"/>
<path d="M60.5001 73.8001C59.7001 78.0001 57.0001 82.8001 52.6001 84.0001C49.1001 84.9001 45.2001 84.2001 42.9001 81.3001C41.3001 79.2001 40.3001 76.7001 40.1001 74.0001C40.3001 73.9001 40.4001 73.9001 40.6001 73.9001C41.0001 77.8001 43.0001 82.2001 47.0001 83.4001C50.6001 84.5001 54.5001 83.4001 56.9001 80.5001C58.4001 78.5001 59.5001 76.1001 60.0001 73.7001C60.1001 73.5001 60.3001 73.6001 60.5001 73.8001Z" fill="black"/>
<path d="M60.5001 73.8001C59.7001 78.0001 57.0001 82.8001 52.6001 84.0001C49.1001 84.9001 45.2001 84.2001 42.9001 81.3001C41.3001 79.2001 40.3001 76.7001 40.1001 74.0001C40.3001 73.9001 40.4001 73.9001 40.6001 73.9001C41.0001 77.8001 43.0001 82.2001 47.0001 83.4001C50.6001 84.5001 54.5001 83.4001 56.9001 80.5001C58.4001 78.5001 59.5001 76.1001 60.0001 73.7001C60.1001 73.5001 60.3001 73.6001 60.5001 73.8001Z" stroke="#CE1141" stroke-width="0.24"/>
<path d="M8.70001 1.1C7.90001 0.399998 6.80001 0 5.70001 0C4.50001 0.1 0 1.6 0 8.2C0 14.9 4.1 17 6.5 17C8.9 17 11.4 15.2 12.2 11.9C12.3 11.4 12.3 11.4 11.8 11.2L10.2 10.6C9.80001 10.5 9.79998 10.5 9.59998 11.1C9.39998 11.6 8.79998 13.5 7.09998 13.5C5.49998 13.5 4.79999 11.1 4.79999 8.6C4.79999 6.1 5.20001 3.8 7.20001 3.8C9.20001 3.8 9.59999 5.9 9.79999 6.7C9.89999 7.1 9.89999 7.1 10.3 7.1H11.8C12.1 7.1 12.1 7.1 12.1 6.4V0.899998C12.1 0.599998 12 0.599998 11.4 0.599998H10C9.7 0.599998 9.69998 0.7 9.59998 1C9.39998 1.2 9.10001 1.5 8.70001 1.1Z" fill="black"/>
<path d="M68.7999 3.8001L71.8999 13.4001C72.0999 13.8001 72.0999 13.9001 72.2999 13.9001H72.6999C73.1999 13.9001 73.1999 13.9001 73.1999 14.3001V16.1001C73.1999 16.7001 73.0999 16.7001 72.7999 16.7001H66.6999C66.1999 16.7001 66.1999 16.6001 66.1999 16.3001V14.4001C66.1999 13.8001 66.2999 13.8001 66.6999 13.8001H67.2999C67.5999 13.8001 67.5999 13.7001 67.4999 13.3001L66.9999 11.8001C66.7999 11.5001 66.7999 11.5001 66.3999 11.5001H62.6999L63.4999 9.3001H65.7999C66.1999 9.3001 66.1999 9.2001 66.0999 9.0001L64.6999 4.7001C64.5999 4.4001 64.4999 4.4001 64.4999 4.6001L63.0999 8.9001C62.9999 9.2001 62.9999 9.2001 63.4999 9.2001L62.6999 11.4001C62.2999 11.4001 62.2999 11.4001 62.1999 11.7001L61.6999 13.2001C61.5999 13.6001 61.5999 13.7001 61.8999 13.7001H62.4999C62.9999 13.7001 62.9999 13.8001 62.9999 14.3001V16.2001C62.9999 16.6001 62.8999 16.6001 62.4999 16.6001H58.2999C57.8999 16.6001 57.8999 16.5001 57.8999 16.0001V14.2001C57.8999 13.8001 57.9999 13.8001 58.3999 13.8001H58.7999C58.9999 13.8001 59.1999 13.7001 59.1999 13.5001L62.2999 3.8001C62.3999 3.5001 62.3999 3.5001 61.8999 3.5001H61.2999C60.7999 3.5001 60.7999 3.4001 60.7999 3.1001V1.2001C60.7999 0.600096 60.7999 0.600098 61.4999 0.600098H69.5999C70.0999 0.600098 70.0999 0.700096 70.0999 1.2001V3.0001C70.0999 3.4001 70.0999 3.4001 69.4999 3.4001H68.9999C68.6999 3.4001 68.6999 3.5001 68.7999 3.8001Z" fill="black"/>
<path d="M83.4001 11.1H84.5001C85.0001 11.1 85.0001 11.2 85.0001 11.4C85.0001 12.3 84.3001 13.5 82.6001 13.5C81.0001 13.5 80.3001 11.1 80.3001 8.6C80.3001 6.1 80.7001 3.8 82.7001 3.8C83.9001 3.8 85.0001 4.6 85.3001 5.7C85.4001 6.1 85.4001 6.1 85.8001 6.1H87.3001C87.6001 6.1 87.6001 6.1 87.6001 5.4V0.899998C87.6001 0.599998 87.5001 0.599998 86.9001 0.599998H85.6001C85.3001 0.599998 85.3001 0.6 85.1001 1C85.0001 1.2 84.7001 1.5 84.3001 1.1C83.5001 0.399998 82.4001 0 81.3001 0C80.1001 0.1 75.6001 1.6 75.6001 8.2C75.6001 14.9 79.6001 17 82.1001 17C85.8001 17 88.6001 14.2 88.6001 8.9C88.6001 8.4 88.5001 8.3 87.8001 8.3H83.4001C83.0001 8.3 82.9001 8.4 82.9001 8.8V10.5C82.8001 11.1 82.8001 11.1 83.4001 11.1Z" fill="black"/>
<path d="M97.4998 0.5C93.4998 0.5 90.2998 4.3 90.2998 8.9C90.2998 13.5 93.4998 17.2 97.4998 17.2C101.4 17.2 104.7 13.5 104.7 8.9C104.7 4.3 101.5 0.5 97.4998 0.5L97.3998 3.5C98.8998 3.5 100.1 5.9 100.1 8.9C100.1 11.8 98.8998 14.3 97.3998 14.3C95.8998 14.3 94.6998 11.9 94.6998 8.9C94.6998 6 95.8998 3.5 97.3998 3.5L97.4998 0.5Z" fill="black"/>
<path d="M16.6998 13.5001V3.9001C16.6998 3.5001 16.5998 3.5001 16.2998 3.5001H15.7998C15.2998 3.5001 15.2998 3.4001 15.2998 3.1001V1.0001C15.2998 0.600099 15.3998 0.600098 15.8998 0.600098H21.5998C21.9998 0.600098 22.0998 0.600099 22.0998 1.0001V2.9001C22.0998 3.3001 21.9998 3.3001 21.5998 3.3001H21.2998C20.9998 3.3001 20.9998 3.3001 20.9998 3.7001V6.5001C20.9998 7.2001 20.9998 7.2001 21.5998 7.2001H24.6998C25.2998 7.2001 25.2998 7.1001 25.2998 6.5001V3.7001C25.2998 3.3001 25.1998 3.3001 24.9998 3.3001H24.6998C24.1998 3.3001 24.1998 3.3001 24.1998 2.9001V1.0001C24.1998 0.600099 24.2998 0.600098 24.6998 0.600098H30.2998C30.8998 0.600098 30.8998 0.600099 30.8998 1.0001V3.1001C30.8998 3.5001 30.7998 3.5001 30.3998 3.5001H29.8998C29.4998 3.5001 29.4998 3.6001 29.4998 3.9001V13.5001C29.4998 13.9001 29.5998 13.9001 29.9998 13.9001H30.4998C30.8998 13.9001 30.8998 13.9001 30.8998 14.5001V16.4001C30.8998 16.7001 30.8998 16.8001 30.3998 16.8001H24.3998C23.9998 16.8001 23.9998 16.8001 23.9998 16.2001V14.4001C23.8998 14.0001 23.9998 14.0001 24.4998 14.0001H24.7998C25.1998 14.0001 25.1998 13.9001 25.1998 13.6001V10.6001C25.1998 9.9001 25.0998 9.9001 24.6998 9.9001H21.5998C21.0998 9.9001 21.0998 10.0001 21.0998 10.6001V13.6001C21.0998 14.0001 21.0998 14.0001 21.4998 14.0001H21.7998C22.2998 14.0001 22.2998 14.0001 22.2998 14.4001V16.2001C22.2998 16.8001 22.2998 16.8001 21.8998 16.8001H15.7998C15.2998 16.8001 15.2998 16.8001 15.2998 16.4001V14.5001C15.2998 13.9001 15.3998 13.9001 15.6998 13.9001H16.1998C16.6998 13.9001 16.6998 13.9001 16.6998 13.5001Z" fill="black"/>
<path d="M35.0998 3.8001C35.0998 3.4001 35.0999 3.4001 34.7999 3.4001H34.2999C33.7999 3.4001 33.7999 3.3001 33.7999 3.0001V1.0001C33.7999 0.600099 33.8999 0.600098 34.2999 0.600098H39.8999C40.4999 0.600098 40.4999 0.600099 40.4999 1.0001V3.1001C40.4999 3.5001 40.3999 3.5001 39.9999 3.5001H39.6999C39.2999 3.5001 39.2999 3.6001 39.2999 3.9001V13.5001C39.2999 13.9001 39.3999 13.9001 39.7999 13.9001H40.1999C40.5999 13.9001 40.5998 13.9001 40.5998 14.5001V16.4001C40.5998 16.7001 40.5998 16.8001 40.0998 16.8001H34.0998C33.6998 16.8001 33.6999 16.8001 33.6999 16.2001V14.4001C33.5999 14.0001 33.6999 14.0001 34.1999 14.0001H34.6999C35.0999 14.0001 35.0998 14.0001 35.0998 13.6001V3.8001Z" fill="black"/>
<path d="M51.5999 1.1C50.7999 0.399998 49.6999 0 48.5999 0C47.3999 0.1 42.8999 1.6 42.8999 8.2C42.8999 14.9 46.8999 17 49.3999 17C51.7999 17 54.2999 15.2 55.0999 11.9C55.1999 11.4 55.1999 11.4 54.6999 11.2L53.0999 10.6C52.6999 10.5 52.6999 10.5 52.4999 11.1C52.2999 11.6 51.6999 13.5 49.9999 13.5C48.2999 13.5 47.6999 11.1 47.6999 8.6C47.6999 6.1 48.0999 3.8 50.0999 3.8C52.0999 3.8 52.4999 5.9 52.6999 6.7C52.7999 7.1 52.7999 7.1 53.1999 7.1H54.6999C54.9999 7.1 54.9999 7.1 54.9999 6.4V0.899998C54.9999 0.599998 54.8999 0.599998 54.2999 0.599998H52.9999C52.6999 0.599998 52.6999 0.7 52.5999 1C52.2999 1.2 51.9999 1.5 51.5999 1.1Z" fill="black"/>
<path d="M15.7999 24.4001V34.0001C15.7999 34.3001 15.6999 34.3001 15.3999 34.3001H14.8999C14.4999 34.3001 14.3999 34.4001 14.3999 34.8001V36.8001C14.3999 37.2001 14.4999 37.2001 14.8999 37.2001H23.6999L20.6999 34.1001C20.0999 34.1001 20.0999 34.1001 20.0999 33.5001V30.8001C20.0999 30.3001 20.1999 30.2001 20.6999 30.2001V27.7001C20.0999 27.7001 20.0999 27.6001 20.0999 27.1001V24.3001C20.0999 23.7001 20.1999 23.7001 20.6999 23.7001C21.2999 23.7001 23.5999 23.8001 23.5999 25.8001C23.5999 27.8001 21.4999 27.7001 20.7999 27.7001V30.2001C21.3999 30.2001 23.5999 30.3001 23.5999 32.3001C23.5999 34.3001 21.4999 34.2001 20.7999 34.2001L23.7999 37.3001C25.9999 37.3001 27.5999 35.3001 27.5999 33.0001C27.5999 30.7001 26.1999 29.8001 24.9999 29.0001C25.7999 28.4001 27.2999 27.4001 27.2999 25.2001C27.2999 22.7001 24.7999 21.1001 23.2999 21.1001H15.1999C14.4999 21.1001 14.4999 21.1001 14.4999 21.6001V23.7001C14.4999 24.0001 14.5999 24.1001 14.9999 24.1001H15.4999C15.7999 24.0001 15.7999 24.0001 15.7999 24.4001Z" fill="black"/>
<path d="M42.6998 24.3001V32.6001C42.6998 34.7001 41.5998 37.8001 37.3998 37.8001C33.1998 37.8001 31.1998 34.7001 31.1998 32.6001V24.3001C31.1998 23.9001 31.0998 23.9001 30.7998 23.9001H30.2998C29.7998 23.9001 29.7998 23.9001 29.7998 23.5001V21.7001C29.7998 21.1001 29.8998 21.1001 30.3998 21.1001H35.9998C36.3998 21.1001 36.4998 21.1001 36.4998 21.6001V23.4001C36.4998 23.8001 36.3998 23.8001 35.8998 23.8001H35.3998C35.0998 23.8001 35.0998 23.9001 35.0998 24.2001V32.3001C35.0998 33.6001 36.1998 34.7001 37.5998 34.7001C38.7998 34.8001 39.8998 33.8001 39.9998 32.6001C39.9998 32.5001 39.9998 32.4001 39.9998 32.3001V24.3001C39.9998 23.8001 39.8998 23.8001 39.5998 23.8001H39.1998C38.6998 23.8001 38.6998 23.8001 38.6998 23.4001V21.6001C38.6998 21.1001 38.6998 21.1001 39.1998 21.1001H43.3998C44.0998 21.1001 44.0998 21.1001 44.0998 21.6001V23.5001C44.0998 23.9001 44.0998 23.9001 43.5998 23.9001H42.9998C42.6998 24.0001 42.6998 24.0001 42.6998 24.3001Z" fill="black"/>
<path d="M62.2998 34.3001H61.6998C61.2998 34.3001 61.2998 34.4001 61.2998 34.9001V36.8001C61.2998 37.2001 61.3998 37.2001 61.7998 37.2001H72.1998C72.6998 37.2001 72.6998 37.2001 72.6998 36.6001V31.9001C72.6998 31.5001 72.5998 31.5001 72.1998 31.5001H70.6998C70.1998 31.5001 70.1998 31.5001 70.1998 32.1001V33.7001C70.1998 34.3001 70.0998 34.4001 69.6998 34.4001H67.3998C66.6998 34.4001 66.6998 34.3001 66.6998 33.9001V24.5001C66.6998 23.9001 66.6998 23.9001 67.0998 23.9001H67.6998C68.1998 23.9001 68.1998 23.8001 68.1998 23.5001V21.7001C68.1998 21.2001 68.1998 21.1001 67.6998 21.1001H61.9998C61.2998 21.1001 61.2998 21.2001 61.2998 21.7001V23.6001C61.2998 24.0001 61.3998 24.1001 61.7998 24.1001H62.2998C62.6998 24.1001 62.6998 24.1001 62.6998 24.7001V34.0001C62.6998 34.3001 62.5998 34.3001 62.2998 34.3001Z" fill="black"/>
<path d="M86.3998 32.7001C86.3998 36.1001 83.0998 37.6001 81.7998 37.6001C80.6998 37.6001 79.6998 37.2001 78.7998 36.5001C78.3998 36.1001 77.8998 36.6001 77.6998 36.8001C77.4998 37.2001 77.3998 37.2001 77.2998 37.2001H76.5998C75.8998 37.2001 75.9998 37.2001 75.9998 36.8001V32.3001C75.9998 31.6001 75.9998 31.6001 76.2998 31.6001H77.3998C77.7998 31.6001 77.7998 31.7001 77.8998 32.0001C78.2998 33.3001 79.4998 34.2001 80.7998 34.2001C81.5998 34.2001 82.1998 34.0001 82.1998 33.3001C82.1998 31.8001 81.2998 31.4001 79.6998 30.6001C78.0998 29.8001 75.7998 28.9001 75.7998 25.4001C75.7998 22.8001 77.7998 20.7001 80.2998 20.6001C81.2998 20.6001 82.2998 21.0001 83.0998 21.7001C83.3998 21.9001 83.7998 21.9001 84.0998 21.6001C84.0998 21.6001 84.1998 21.5001 84.1998 21.4001C84.4998 21.0001 84.4998 21.0001 84.6998 21.0001H85.3998C85.9998 21.0001 86.0998 21.0001 86.0998 21.4001V25.9001C86.0998 26.6001 86.0998 26.6001 85.7998 26.6001H84.7998C84.3998 26.6001 84.3998 26.5001 84.2998 26.2001C83.7998 24.9001 82.5998 24.0001 81.1998 24.0001C80.6998 24.0001 80.1998 24.3001 80.0998 24.9001C80.0998 25.0001 80.0998 25.0001 80.0998 25.1001C80.0998 26.0001 81.1998 26.9001 82.8998 27.8001C84.5998 28.5001 86.3998 29.8001 86.3998 32.7001Z" fill="black"/>
<path d="M47.8999 34.3001H47.2999C46.8999 34.3001 46.8999 34.4001 46.8999 34.9001V36.8001C46.8999 37.2001 46.9999 37.2001 47.3999 37.2001H57.7999C58.1999 37.2001 58.2999 37.2001 58.2999 36.6001V31.9001C58.2999 31.5001 58.1999 31.5001 57.7999 31.5001H56.2999C55.7999 31.5001 55.7999 31.5001 55.7999 32.1001V33.7001C55.7999 34.3001 55.6999 34.4001 55.2999 34.4001H52.9999C52.2999 34.4001 52.2999 34.3001 52.2999 33.9001V24.5001C52.2999 23.9001 52.2999 23.9001 52.5999 23.9001H53.1999C53.6999 23.9001 53.6999 23.8001 53.6999 23.5001V21.7001C53.6999 21.2001 53.6999 21.1001 53.1999 21.1001H47.6999C46.9999 21.1001 46.9999 21.2001 46.9999 21.7001V23.6001C46.9999 24.0001 46.9999 24.1001 47.4999 24.1001H47.9999C48.3999 24.1001 48.3999 24.1001 48.3999 24.7001V34.0001C48.1999 34.3001 48.1999 34.3001 47.8999 34.3001Z" fill="black"/>
<path d="M10.6002 40.4C12.9002 44.8 17.4002 46.2 22.1002 45.9C24.7002 45.9 27.2002 45.6 29.8002 45.5V45.7C28.5002 49.4 27.6002 53.2 27.1002 57C20.4002 57.3 13.5003 56.7 8.50025 52.2C5.10025 48.8 4.20025 44 5.00025 39.4C5.80025 38.5 6.70025 37.7 7.50025 36.7C8.60025 37.9 10.4002 38.8 10.6002 40.4Z" fill="white"/>
<path d="M94.5001 38.4001C94.7001 39.1001 94.7001 39.7001 94.8001 40.5001C95.1001 45.7001 92.9001 50.5001 88.4001 53.1001C83.6001 56.0001 78.0001 57.0001 72.0001 57.2001C71.9001 56.7001 71.8001 55.9001 71.7001 55.4001C71.3001 52.0001 70.6001 48.6001 69.6001 45.3001C76.0001 45.2001 83.7001 46.9001 87.9001 41.0001C88.4001 40.2001 89.0001 39.5001 89.5001 38.6001C90.4001 38.2001 91.3001 37.5001 92.3001 37.1001C93.2001 37.4001 93.7001 38.0001 94.5001 38.4001Z" fill="white"/>
<path d="M70.3998 64.7C70.4998 66.7 69.7998 68.8 67.9998 69.7C67.1998 70.1 66.1998 70.2999 65.2998 70.2999C65.2998 70.0999 65.2998 69.9 65.2998 69.7C66.6998 69.7 68.0998 69.2 68.8998 68C69.3998 67.1 69.5998 66 69.5998 65C69.7998 64.9 70.0998 64.7 70.3998 64.7Z" fill="white"/>
<path d="M34.3999 70.0999C34.0999 70.1999 33.7999 70.1999 33.4999 70.0999C30.8999 70.0999 28.8999 67.9999 28.8999 65.4999C28.8999 65.3999 28.8999 65.2999 28.8999 65.0999C29.1999 64.9999 29.4999 64.9999 29.7999 65.0999C29.7999 66.8999 30.4999 69.3999 34.2999 69.3999C34.5999 69.7999 34.2999 69.7999 34.3999 70.0999Z" fill="white"/>
</svg>
