<svg width="64" height="130" viewBox="0 0 64 130" fill="none" xmlns="http://www.w3.org/2000/svg">
<path fill-rule="evenodd" clip-rule="evenodd" d="M34.3537 0.00012207L32.5304 3.64664C31.3149 6.68546 30.7072 9.72427 30.0994 12.7631C30.0994 15.8019 30.0994 18.8407 29.4916 21.8795V48.0133C19.7674 51.6599 11.2588 57.7376 5.78889 61.9919C5.78889 61.9919 3.35781 66.2462 1.53452 68.0695C3.35781 67.4618 8.8277 66.2462 8.8277 66.2462L7.0044 68.0695C-2.7198 80.8325 0.319008 88.7334 0.926771 89.3412C2.1423 92.38 4.57333 94.2033 8.2199 96.0266C10.651 97.2422 13.6898 97.2421 17.3363 97.2421C20.9829 97.2421 25.2373 96.0266 28.8838 94.811V97.2421C25.2373 99.0654 22.8062 102.104 21.5907 106.359C20.9829 107.574 20.9829 109.397 20.3752 111.221C20.3752 111.221 20.3752 112.436 20.3752 113.652C20.3752 114.867 20.3752 116.083 19.7674 117.906V118.514L19.1596 120.337C19.1596 120.945 21.5907 119.729 22.8062 119.729C22.8062 119.729 23.414 119.729 23.414 119.122C24.0217 118.514 24.6295 118.514 25.845 117.298C26.4528 116.691 27.0606 116.083 27.0606 115.475C27.6683 114.867 27.6683 114.259 28.2761 113.652C28.8838 113.044 28.8838 112.436 29.4916 111.828V117.298V120.945V122.16C29.4916 122.16 28.8838 122.768 28.8838 123.376C28.2761 124.591 27.0606 127.022 27.0606 128.846C27.0606 129.454 28.2761 129.454 30.0994 128.846C30.0994 128.846 30.7071 128.846 31.3149 128.846C31.9227 128.846 33.1382 128.846 34.3537 128.238C36.177 127.63 39.2158 126.415 39.8236 123.376V122.16V121.553C43.4702 117.906 44.6857 114.26 44.6857 111.221C44.6857 110.005 44.6857 109.397 44.0779 108.182H45.2935H47.1167V106.359C48.3322 100.281 44.6857 95.4188 38.0003 94.811V91.1645V89.949C44.6857 86.9102 50.7633 82.6558 55.0176 79.0093L56.2331 71.1083C55.0176 71.7161 53.8021 72.3238 53.8021 72.3238C47.7245 75.3626 41.6469 77.186 37.3925 79.0093V54.6988C38.608 54.091 39.8236 53.4832 40.4313 52.8755C43.4701 51.6599 45.9012 51.0521 47.1167 51.0521C48.3322 51.0521 47.7245 52.2677 47.7245 52.2677C47.7245 52.8754 47.1167 54.0909 46.509 55.3065C45.9012 55.9142 44.0779 60.7764 42.2546 63.8152C46.509 61.3841 56.2331 55.3065 62.9185 51.0521V47.4056C62.3108 46.7979 61.703 46.19 61.703 46.19C55.6254 40.1124 45.9012 40.1124 36.7848 43.1512V19.4485C36.7848 16.4097 36.7848 12.7631 36.7848 10.3321C36.7848 7.29326 36.177 4.25449 34.3537 1.82343V0.00012207ZM30.0994 62.5997V83.8714C24.0218 85.6947 20.3752 86.3024 17.9441 85.6946H17.3363C16.1208 85.0868 16.1208 84.4791 16.1208 83.8714C16.1208 77.7938 27.6683 65.6385 27.6683 65.6385C28.2761 63.8152 28.8839 63.2075 30.0994 62.5997Z" fill="#FFB81C"/>
<path fill-rule="evenodd" clip-rule="evenodd" d="M48.332 43.7587C45.2932 43.7587 41.6466 44.3665 38 45.582V51.0518C45.2932 47.4053 53.1941 46.7975 47.7242 57.7373L62.3105 48.6208C59.2717 44.9742 53.8019 43.7587 48.332 43.7587ZM30.0991 48.6208C20.9827 52.2674 11.8662 58.345 7.00413 61.9916C10.0429 61.3838 13.0817 60.1683 16.7283 59.5606C-18.5219 92.9875 17.3361 106.358 55.0174 74.7546C41.6466 80.8322 30.7069 83.8711 30.7069 83.8711C3.35756 92.3797 11.8662 74.7545 24.6292 61.3838C25.237 60.1682 27.6681 58.345 30.0991 56.5217V48.6208Z" fill="#6F2633"/>
<path fill-rule="evenodd" clip-rule="evenodd" d="M54.4098 79.6168C44.6856 88.1255 30.0993 95.4187 17.9441 96.0265C14.9052 96.0265 11.8664 96.0264 9.43538 94.8109C5.7888 93.5954 3.96553 91.1643 2.75 88.7333C3.96553 89.9488 5.78878 91.7721 8.21983 92.3799C10.6509 93.5954 14.2975 93.5954 16.7285 93.5954C30.0993 92.9876 45.9011 83.8713 55.6253 74.7548L54.4098 79.6168ZM10.0431 65.0306C8.21984 65.6383 6.39655 66.2461 4.57326 66.2461C4.57326 65.6383 6.39656 63.2073 7.00432 63.2073C8.82761 62.5995 11.2587 61.9918 13.0819 61.9918C12.4742 62.5995 11.2587 63.8151 10.0431 65.0306ZM63.5262 49.2287V52.2675L45.2934 63.2073L47.7244 58.953L63.5262 49.2287ZM39.8235 51.6598C39.2157 51.6598 38.608 52.2675 38.0002 52.2675V55.3063C39.2157 54.6986 39.8235 54.0908 41.039 54.0908C44.0778 52.8753 47.1167 51.6598 48.3322 52.2675C48.9399 48.621 44.6856 49.2288 39.8235 51.6598ZM30.0993 57.7374C28.276 58.953 27.0605 60.1685 25.8449 61.9918C22.1984 65.6383 14.2975 75.9703 14.2975 80.8324C14.2975 82.048 14.9052 83.2635 15.513 83.8713V83.2635C15.513 77.7936 23.4139 68.0694 27.0605 64.4228C28.276 63.2073 28.8838 62.5995 30.0993 61.384V57.7374ZM36.1769 97.8497V92.9877C35.5692 93.5955 34.3536 93.5954 33.7459 94.2032V99.673C33.7459 100.889 31.9226 100.889 31.9226 100.281V95.4187C31.3148 95.4187 31.3148 95.4187 30.7071 96.0265V100.281C27.6683 102.104 24.6294 104.535 23.4139 108.182C22.8061 109.397 22.8061 111.221 22.8061 112.436C22.8061 113.044 22.8061 116.083 22.1984 119.729C22.1984 119.729 22.8062 119.729 24.6294 117.906C25.845 117.298 26.4527 116.083 27.0605 114.867C28.276 113.044 29.4915 110.613 31.3148 110.005V111.828C31.3148 115.475 31.3148 125.199 31.3148 125.199C31.3148 125.199 29.4915 127.022 29.4915 129.453C29.4915 129.453 36.7847 128.846 37.3924 125.199L36.1769 123.984C46.5089 116.69 41.039 108.182 41.039 108.182C43.4701 108.79 44.6856 108.789 45.9011 108.789C46.5089 102.104 43.4701 97.8497 36.1769 97.8497ZM32.5303 125.199C32.5303 125.199 31.3148 125.807 30.7071 127.022C31.3148 125.807 31.3148 125.199 31.9226 123.984C33.1381 123.984 34.3536 123.376 34.9614 123.376C33.7459 125.199 33.1381 124.591 32.5303 125.199ZM32.5303 122.768V107.574L33.7459 106.966V122.16C33.7459 123.376 32.5303 123.376 32.5303 122.768ZM35.5691 121.553C38.6079 113.652 36.1769 107.574 36.7847 107.574C40.4313 108.182 41.6468 116.69 35.5691 121.553ZM39.8235 118.514C41.6468 115.475 41.6468 109.397 38.0002 106.966H39.2157C42.8623 109.397 41.039 117.298 39.8235 118.514ZM44.0778 105.751C38.0002 103.927 31.3148 105.751 28.276 109.397C27.0605 111.221 25.8449 113.044 23.4139 115.475C24.0217 112.436 24.0217 111.828 24.0217 110.613C24.6294 106.358 26.4527 102.104 31.3148 100.281C31.3148 100.889 32.5304 101.496 33.7459 101.496C34.9614 101.496 35.5691 100.889 35.5691 100.281C37.3924 100.889 38.608 101.496 39.2157 102.712C36.1769 102.712 31.9226 103.32 28.276 107.574C33.1381 103.32 39.2157 103.32 42.8623 104.535C42.8623 102.104 39.8235 99.6731 38.0002 99.0653C41.6468 100.281 44.6856 102.712 44.0778 105.751ZM32.5303 82.6557V29.7803V15.8018C32.5303 16.4095 33.7459 18.2328 33.7459 24.9182V81.4402C34.3536 81.4402 35.5692 80.8324 36.1769 80.8324V20.6639C36.1769 13.9785 36.1769 8.50863 33.7459 3.64653C31.3148 9.11639 31.3148 14.5863 31.3148 21.2717L30.7071 82.6557C31.9226 82.6557 31.9226 82.6557 32.5303 82.6557Z" fill="#041E42"/>
</svg>
