<svg width="114" height="87" viewBox="0 0 114 87" fill="none" xmlns="http://www.w3.org/2000/svg">
<path d="M1.61076 37.3999C0.510764 38.3999 -0.0892113 39.7999 0.0107887 41.2999V69.6999C-0.0892113 72.4999 2.11078 74.7999 4.81078 74.8999C5.11078 74.8999 5.31076 74.8999 5.61076 74.8999C8.11076 74.6999 10.7107 74.4999 13.2107 74.2999V68.8999C10.7107 68.9999 8.11076 69.1999 5.61076 69.2999V41.5999C8.11076 41.7999 10.7107 41.8999 13.2107 41.9999V36.5999C10.7107 36.3999 8.11076 36.1999 5.61076 35.9999C4.21076 35.8999 2.71076 36.2999 1.61076 37.3999Z" fill="#061922"/>
<path d="M20.1107 37.0999C18.2107 36.9999 16.3106 36.9 14.4106 36.7V74.0999C18.5106 73.7999 22.7107 73.5999 26.8107 73.3999V68.2999C24.6107 68.3999 22.3107 68.4999 20.1107 68.5999V37.0999Z" fill="#061922"/>
<path d="M27.9106 73.3C29.8106 73.2 31.8106 73.1 33.7106 73.1V37.7L27.9106 37.5V73.3Z" fill="#061922"/>
<path d="M44.411 37.9999C41.211 37.8999 38.011 37.8 34.811 37.7V72.9999C36.711 72.8999 38.611 72.8999 40.511 72.7999V57.7999C41.811 57.7999 43.111 57.7999 44.411 57.7999C45.911 57.7999 47.311 57.2999 48.411 56.3999C49.511 55.5999 50.111 54.2999 50.111 52.8999V42.9999C50.111 41.5999 49.511 40.3999 48.411 39.4999C47.311 38.5999 45.911 37.9999 44.411 37.9999ZM44.411 52.8999C43.111 52.8999 41.811 52.8999 40.511 52.8999V42.8999C41.811 42.8999 43.111 42.8999 44.411 42.9999V52.8999Z" fill="#061922"/>
<path d="M94.6108 56.4999C95.7108 55.5999 96.3109 54.2 96.3109 52.7V42.0999C96.3109 40.6999 95.7108 39.3999 94.6108 38.4999C93.5108 37.4999 92.1108 37 90.6108 37.2C87.4108 37.4 84.2108 37.5 81.1108 37.7V73.2C83.0108 73.3 84.9109 73.3999 86.8109 73.4999V58.2C88.4109 63.3 89.9109 68.5 91.5109 73.7C93.4109 73.8 95.3108 73.8999 97.2108 74.0999C95.5108 68.5999 93.9108 63.1999 92.2108 57.8999C93.1108 57.5999 93.9108 57.0999 94.6108 56.4999ZM86.8109 42.5999C88.1109 42.5999 89.4108 42.4999 90.7108 42.4999V52.8999C89.4108 52.8999 88.1109 52.8999 86.8109 52.8999V42.5999Z" fill="#061922"/>
<path d="M60.811 38.1001C57.611 38.1001 54.4109 38.1001 51.2109 38.1001V72.7001C53.1109 72.7001 55.0109 72.7001 56.9109 72.7001V57.9001H60.811C62.311 57.9001 63.711 57.4001 64.811 56.5001C65.911 55.7001 66.511 54.4001 66.511 53.0001V43.0001C66.511 41.6001 65.911 40.4001 64.811 39.5001C63.711 38.6001 62.311 38.1001 60.811 38.1001ZM60.811 52.9001H56.9109V43.0001C58.2109 43.0001 59.511 43.0001 60.811 43.0001V52.9001Z" fill="#061922"/>
<path d="M67.7109 72.8001C71.8109 72.9001 76.011 73.0001 80.111 73.2001V68.1001C77.911 68.0001 75.6109 68.0001 73.4109 67.9001V57.9001C74.7109 57.9001 77.011 57.9001 78.311 57.9001V52.9001C77.011 52.9001 74.7109 52.9001 73.4109 52.9001V42.9001C75.6109 42.9001 77.911 42.8001 80.111 42.7001V37.6001C76.011 37.8001 71.8109 37.9001 67.7109 38.0001V72.8001Z" fill="#061922"/>
<path d="M113.311 46.9V41.2C113.311 38.4 111.111 36 108.211 36C108.011 36 107.811 36 107.611 36C106.011 36.1 104.411 36.3 102.811 36.4C101.311 36.5 99.8109 37.2 98.8109 38.3C97.7109 39.3 97.2108 40.7 97.2108 42.1V52.7C97.2108 54.1 97.8109 55.5 98.8109 56.5C99.9109 57.5 101.311 58.1 102.811 58.1L107.611 58.2V69.3C106.011 69.2 104.411 69.1 102.811 69V63.6L97.1108 63.4V68.7C97.1108 70.2 97.7108 71.6 98.7108 72.6C99.8108 73.7 101.211 74.3 102.711 74.4C104.311 74.5 105.911 74.7 107.511 74.8C108.911 75 110.411 74.5 111.511 73.5C112.611 72.5 113.211 71.1 113.211 69.6V58.2C113.211 56.7 112.611 55.2 111.511 54.2C110.511 53.1 109.011 52.5 107.511 52.6C105.911 52.6 104.311 52.6 102.711 52.7V41.8C104.311 41.7 105.911 41.6 107.511 41.5V47C109.511 47 111.411 47 113.311 46.9Z" fill="#061922"/>
<path d="M6.01077 36.6999C8.21076 36.8999 10.6107 37.0999 12.9107 37.2999V36.9999C10.5107 36.7999 8.01074 36.5999 5.61074 36.3999C5.41074 36.3999 5.21074 36.3999 5.11074 36.3999C3.91074 36.3999 2.81073 36.7999 1.91073 37.5999C0.910729 38.4999 0.310729 39.7999 0.410729 41.1999V69.5999C0.410729 70.6999 0.710729 71.7999 1.41073 72.5999C0.910729 71.7999 0.610716 70.7999 0.710716 69.8999V41.4999C0.710716 40.0999 1.21072 38.7999 2.21072 37.8999C3.11072 37.0999 4.31077 36.5999 5.51077 36.5999C5.61076 36.5999 5.81077 36.5999 6.01077 36.6999Z" fill="#BEC0C2"/>
<path d="M19.711 37.7V37.4999C18.111 37.3999 16.411 37.3 14.811 37.2V73.7999H15.111V37.4999C16.611 37.4999 18.111 37.6 19.711 37.7Z" fill="#BEC0C2"/>
<path d="M33.311 38.2999V38.0999C31.611 37.9999 30.011 37.9999 28.311 37.8999V72.9999H28.611V38.1999C30.211 38.1999 31.711 38.2999 33.311 38.2999Z" fill="#BEC0C2"/>
<path d="M44.7108 38.7C45.8108 38.7 46.8108 38.9999 47.7108 39.5999C46.7108 38.8999 45.5109 38.4999 44.3109 38.4999C41.3109 38.3999 38.2108 38.4 35.1108 38.2V72.7H35.4108V38.4999C38.6108 38.4999 41.7108 38.6 44.7108 38.7Z" fill="#BEC0C2"/>
<path d="M91.4107 37.8C92.4107 37.8 93.3107 38 94.1107 38.5C93.2107 37.8 92.2107 37.5 91.1107 37.5C91.0107 37.5 90.9107 37.5 90.7107 37.5C87.7107 37.7 84.6107 37.8 81.5107 37.9V72.7H81.8107V38.2C84.9107 38.1 88.0107 37.9 91.0107 37.7L91.4107 37.8Z" fill="#BEC0C2"/>
<path d="M57.011 38.8C58.411 38.8 59.8109 38.8 61.2109 38.8H61.311C62.411 38.8 63.4109 39.1 64.4109 39.6C63.4109 38.9 62.211 38.5 61.011 38.5H60.9109C59.5109 38.5 58.1109 38.5 56.7109 38.5C55.1109 38.5 53.4109 38.5 51.7109 38.5V72.3H52.011V38.8C53.611 38.8 55.311 38.8 57.011 38.8Z" fill="#BEC0C2"/>
<path d="M79.7107 38.1001C75.8107 38.2001 71.9107 38.4001 68.0107 38.4001V72.4001H68.3107V38.7001C72.1107 38.6001 75.9107 38.5001 79.7107 38.4001V38.1001Z" fill="#BEC0C2"/>
<path d="M108.011 36.6999C108.211 36.6999 108.311 36.6999 108.511 36.6999C109.411 36.6999 110.211 36.8999 111.011 37.3999C110.211 36.7999 109.211 36.3999 108.211 36.4999C108.011 36.4999 107.911 36.4999 107.711 36.4999C106.111 36.5999 104.511 36.7999 102.911 36.8999C101.511 36.9999 100.111 37.5999 99.1108 38.6999C98.1108 39.5999 97.6108 40.8999 97.6108 42.2999V52.8999C97.6108 53.9999 97.9108 54.9999 98.6108 55.7999C98.1108 54.9999 97.9108 54.0999 97.9108 53.1999V42.5999C97.9108 41.1999 98.5109 39.8999 99.5109 38.9999C100.511 37.8999 101.911 37.2999 103.311 37.1999C104.811 36.8999 106.411 36.7999 108.011 36.6999Z" fill="#BEC0C2"/>
<path d="M0.0107422 80.9C37.6107 76.2 75.7107 76.2 113.311 80.9V78.9C75.7107 74.6 37.7107 74.6 0.0107422 78.9V80.9Z" fill="#1D428A"/>
<path d="M13.7109 86.2C41.9109 78.8 71.511 78.8 99.611 86.2V84.4C71.411 77.2 41.9109 77.2 13.7109 84.4C13.7109 84.9 13.7109 85.6 13.7109 86.2Z" fill="#C8102E"/>
<path d="M45.4107 32.5999C30.2107 32.1999 15.1107 31.1 0.0107422 29.2V31.2C16.0107 33 32.1107 34.0999 48.3107 34.3999C47.3107 33.7999 46.3107 33.2999 45.4107 32.5999Z" fill="#1D428A"/>
<path d="M67.9107 32.5999C67.0107 33.2999 66.0107 33.8999 65.0107 34.3999C81.1107 34.0999 97.3107 33.1 113.311 31.2V29.2C98.2107 31.1 83.1107 32.1999 67.9107 32.5999Z" fill="#1D428A"/>
<path d="M41.611 28.8C32.211 28 22.8109 26.3 13.7109 24V25.8C23.4109 28.2 33.3109 29.9 43.2109 30.6C42.6109 30.1 42.111 29.5 41.611 28.8Z" fill="#C8102E"/>
<path d="M71.7108 28.8C71.2108 29.5 70.7108 30.1 70.1108 30.7C80.1108 29.9 89.9108 28.3 99.6108 25.9V24C90.4108 26.4 81.1108 28 71.7108 28.8Z" fill="#C8102E"/>
<path d="M39.2109 17.5C39.2109 7.9 47.0109 0 56.7109 0C66.3109 0 74.2109 7.8 74.2109 17.5C74.2109 27.1 66.4109 35 56.7109 35C47.0109 35 39.2109 27.2 39.2109 17.5Z" fill="white"/>
<path d="M56.6108 0.100098C47.0108 0.100098 39.1108 7.9001 39.1108 17.6001C39.1108 27.3001 47.0108 35.0001 56.6108 35.0001C66.2108 35.0001 74.1108 27.2001 74.1108 17.5001C74.1108 7.90009 66.3108 0.100098 56.6108 0.100098ZM69.3109 7.80008C71.3109 10.4001 72.4108 13.5001 72.6108 16.7001H66.0109C66.1109 13.5001 67.3109 10.4001 69.3109 7.80008ZM44.0109 7.80008C46.0109 10.4001 47.1109 13.5001 47.3109 16.7001H40.7108C40.9108 13.5001 42.0109 10.4001 44.0109 7.80008ZM44.0109 27.2001C42.0109 24.6001 40.9108 21.5001 40.7108 18.3001H47.3109C47.2109 21.5001 46.0109 24.6001 44.0109 27.2001ZM57.4108 33.4001V28.8001H55.9108V33.4001C51.8108 33.2001 47.9108 31.4001 45.1108 28.4001C47.4108 25.5001 48.8108 22.0001 48.9108 18.3001V16.8001C48.8108 13.1001 47.4108 9.5001 45.1108 6.7001C47.9108 3.7001 51.8108 1.9001 55.9108 1.7001V6.2001H57.4108V1.7001C61.5108 1.9001 65.4108 3.7001 68.2108 6.7001C65.9108 9.6001 64.5108 13.1001 64.4108 16.8001V18.3001C64.5108 22.0001 65.9108 25.6001 68.2108 28.4001C65.4108 31.4001 61.5108 33.2001 57.4108 33.4001ZM69.3109 27.2001C67.3109 24.6001 66.2109 21.5001 66.0109 18.3001H72.6108C72.4108 21.5001 71.2109 24.6001 69.3109 27.2001Z" fill="#061922"/>
<path d="M52.811 10.2V24.7999H60.511V22.7999H54.811V10.2H52.811Z" fill="#C8102E"/>
<path d="M63.2108 15.1001V9.10007C63.2108 8.20007 62.8108 7.80005 61.9108 7.80005H51.3109C50.4109 7.80005 50.1108 8.20007 50.1108 9.10007V26.0001C50.1108 26.9001 50.5109 27.3 51.3109 27.3H61.9108C62.8108 27.3 63.2108 26.9001 63.2108 26.0001V20.0001H61.1108V25.4001H52.2108V9.70007H61.1108V15.1001H63.2108Z" fill="#1D428A"/>
<path d="M60.511 22.2V10.2H55.411L55.311 22.2H57.311V18.4999H58.311V22.2H60.511ZM58.511 16.4999H57.511V12.2H58.511V16.4999Z" fill="#C8102E"/>
</svg>
