<svg width="104" height="104" viewBox="0 0 104 104" fill="none" xmlns="http://www.w3.org/2000/svg">
<path d="M51.9 0.00134014C80.5 0.00134014 103.7 23.2013 103.7 51.9013C103.7 80.5013 80.4 103.801 51.9 103.801C23.3 103.801 0 80.6013 0 52.0013C0 38.2013 5.49998 25.0013 15.2 15.3013C25 5.40134 38.2 -0.0986599 51.9 0.00134014Z" fill="#FFC627"/>
<path d="M51.9002 99.6014C78.2002 99.6014 99.6002 78.2014 99.6002 51.9014C99.6002 25.6014 78.2002 4.20142 51.9002 4.20142C25.5002 4.20142 4.2002 25.6014 4.2002 51.9014C4.2002 78.2014 25.6002 99.6014 51.9002 99.6014Z" fill="#8B2332"/>
<path d="M7.7002 51.8013C7.7002 27.4013 27.5002 7.60132 51.9002 7.60132C76.3002 7.60132 96.1002 27.4013 96.1002 51.8013C96.1002 76.2013 76.3002 96.0013 51.9002 96.0013C27.6002 96.0013 7.7002 76.2013 7.7002 51.8013Z" fill="#0D2240"/>
<path d="M86.7002 33.3014L87.7002 32.8014L84.5002 27.9014L83.6002 28.5014C78.2002 21.7014 68.6002 14.1014 59.5002 12.9014C66.4002 16.0014 74.1002 24.1014 78.8002 30.2014L73.8002 33.8014L74.4002 34.7014L52.0002 49.3014L29.6002 34.7014L30.2002 33.8014L25.2002 30.2014C29.9002 24.0014 37.6002 16.0014 44.5002 12.9014C35.4002 14.0014 25.8002 21.6014 20.4002 28.4014L19.5002 27.7014L16.3002 32.6014L17.3002 33.2014V33.3014C13.4002 41.1014 10.5002 53.0014 13.3002 61.8014C13.2002 54.2014 17.3002 43.8014 21.0002 36.9014L26.3002 39.9014L26.8002 39.0014L47.6002 52.1014L20.3002 70.0014L20.2002 69.9014L16.5002 70.9014L16.6002 71.0014C16.4002 71.7014 16.8002 72.9014 17.5002 74.2014C18.3002 75.4014 19.3002 76.2014 20.0002 76.4014L20.1002 76.5014L22.5002 73.5014V73.4014L77.1002 39.0014L77.6002 39.9014L83.0002 36.9014C86.7002 43.8014 90.7002 54.3014 90.7002 61.8014C93.6002 53.1014 90.7002 41.1014 86.7002 33.3014Z" fill="#FFC627"/>
<path d="M83.9002 69.9013L58.6002 53.6013L54.2002 56.2013L81.6002 73.4013V73.5013L84.0002 76.5013L84.1002 76.4013C84.8002 76.3013 85.8002 75.4013 86.6002 74.2013C87.4002 73.0013 87.7002 71.7013 87.5002 71.0013L87.6002 70.9013L83.9002 69.9013Z" fill="#FFC627"/>
<path d="M56.3999 17.3013L54.4999 19.8013L51.8999 13.6013V42.5013L60.6999 31.2013L69.5999 33.5013L56.3999 17.3013Z" fill="#FFC627"/>
<path d="M56.4 24.1013V17.3013L54.5 19.8013L56.4 24.1013Z" fill="white"/>
<path d="M51.8999 13.6013L35.8999 33.1013L42.8999 31.3013L51.8999 42.5013V13.6013Z" fill="white"/>
<path d="M42.4998 86.6015C44.6998 84.4015 47.6998 83.1015 50.7998 82.8015V78.5015H38.7998C39.0998 81.5015 40.3998 84.4015 42.4998 86.6015Z" fill="#FFC627"/>
<path d="M50.7 90.6015V85.5015C48.4 85.8015 46.2 86.8015 44.5 88.4015C46.4 89.6015 48.5 90.4015 50.7 90.6015Z" fill="#FFC627"/>
<path d="M53.3999 64.0015V69.1015C55.6999 68.8015 57.8999 67.8015 59.5999 66.2015C57.7999 65.0015 55.5999 64.3015 53.3999 64.0015Z" fill="white"/>
<path d="M61.7 68.1013C59.5 70.3013 56.6 71.6013 53.5 71.9013V75.8013H65.4C65 72.9013 63.7 70.2013 61.7 68.1013Z" fill="white"/>
<path d="M50.7 69.1015V64.0015C48.5 64.2015 46.3 65.0015 44.5 66.3015C46.3 67.9015 48.4 68.9015 50.7 69.1015Z" fill="white"/>
<path d="M53.3999 78.5015V82.8015C56.4999 83.1015 59.3999 84.4015 61.5999 86.6015C63.7999 84.4015 65.0999 81.5015 65.2999 78.5015H53.3999Z" fill="#FFC627"/>
<path d="M38.7998 75.8013H50.6998V71.9013C47.5998 71.6013 44.6998 70.3013 42.3998 68.1013C40.3998 70.2013 39.1998 72.9013 38.7998 75.8013Z" fill="white"/>
<path d="M53.3999 90.6014C55.5999 90.4014 57.7999 89.6014 59.5999 88.3014C57.8999 86.7014 55.6999 85.7014 53.3999 85.4014V90.6014Z" fill="#FFC627"/>
</svg>
