<svg width="102" height="102" viewBox="0 0 102 102" fill="none" xmlns="http://www.w3.org/2000/svg">
<path d="M101.8 50.9C101.8 79 79 101.8 50.9 101.8C22.8 101.8 0 79 0 50.9C0 22.8 22.8 0 50.9 0C79 0 101.8 22.8 101.8 50.9Z" fill="#B5B3B3"/>
<path d="M100.3 50.8999C100.3 78.1999 78.0998 100.4 50.7998 100.4C23.4998 100.4 1.2998 78.1999 1.2998 50.8999C1.2998 23.5999 23.4998 1.3999 50.7998 1.3999C78.0998 1.4999 100.3 23.5999 100.3 50.8999Z" fill="#1D428A"/>
<path d="M93.0001 50.8999C93.0001 74.1999 74.1001 93.0999 50.8001 93.0999C27.5001 93.0999 8.6001 74.1999 8.6001 50.8999C8.6001 27.5999 27.5001 8.69995 50.8001 8.69995C74.1001 8.69995 93.0001 27.5999 93.0001 50.8999Z" fill="#C8102E"/>
<path d="M50.8001 8.80005C27.5001 8.80005 8.6001 27.7 8.6001 51C8.6001 74.3 27.5001 93.2001 50.8001 93.2001C74.1001 93.2001 93.0001 74.3 93.0001 51C93.0001 27.7 74.1001 8.80005 50.8001 8.80005ZM11.1001 52.2001H18.9001V49.7001H11.1001C11.1001 48.8001 11.2001 47.8 11.3001 46.9C14.0001 33 30.7001 22.3 50.9001 22.3C71.0001 22.3 87.7001 33 90.5001 46.9C90.6001 47.8 90.6001 48.8001 90.7001 49.7001H82.8001V52.2001H90.5001C90.5001 53.1001 90.4001 54.1 90.3001 55C87.5001 68.9 70.9001 79.6001 50.7001 79.6001C30.5001 79.6001 13.9001 68.9 11.1001 55C11.1001 54.1 11.1001 53.1001 11.1001 52.2001ZM50.8001 11.2001C67.2001 11.2001 81.9001 21.3001 87.9001 36.6001C80.8001 26.9001 66.9001 20.3 50.8001 20.3C34.8001 20.3 20.8001 26.9001 13.7001 36.6001C19.7001 21.3001 34.4001 11.2001 50.8001 11.2001ZM50.8001 90.7001C34.4001 90.7001 19.7001 80.6001 13.7001 65.3001C20.8001 75.0001 34.7001 81.6001 50.8001 81.6001C66.8001 81.6001 80.8001 75.0001 87.9001 65.3001C81.9001 80.6001 67.2001 90.7001 50.8001 90.7001Z" fill="white"/>
<path d="M33 65.4001H36V52.1001H33V65.4001Z" fill="white"/>
<path d="M44.4 52.1001C43.5 52.1001 40.4 52.1001 39.8 52.1001H39.6C38.7 52.1001 38.1 52.5001 38 53.3001C38 53.4001 38 53.5001 38 53.5001C38 53.5001 37.8 56.0001 38 56.8001C38.4 57.9001 39.3 58.4001 40.2 58.6001H40.3L40.5 58.7001C40.6 58.7001 40.7 58.8001 40.7 58.9001V63.7001H38.2V65.5001H41.4C42.5 65.4001 43.3 65.0001 43.6 64.1001C43.7 63.4001 43.7 59.0001 43.6 58.0001C43.6 57.6001 43.4 57.3001 43.1 57.1001C42.9 57.0001 42.8 56.9001 42.6 56.8001C42.4 56.7001 42.2 56.6001 42.1 56.5001C41.4 56.2001 40.6 55.8001 40.6 54.9001V54.1001H42.9C43.4 54.1001 43.8 53.8001 44 53.4001C44.1 53.2001 44.2 52.9001 44.2 52.7001C44.5 52.5001 44.5 52.3001 44.4 52.1001Z" fill="white"/>
<path d="M58.1 52C57.5 52 56.8 52 56.2 52.2C54.7 52.6 54 53.5 54 55.2V63.2C54 65.2 55.5 65.7 57.7 65.7C60.4 65.7 61.9 64.8 61.9 63.1V54.8C61.8 52 60.1 52 58.1 52ZM57.1 55.1C57.1 54.8 57.1 54.5 57.2 54.3L57.3 54.2C57.4 54.2 57.6 54.2 57.7 54.2H57.8C58.8 54.2 58.8 54.5 58.8 56.3V61.9C58.8 62.1 58.8 62.2 58.8 62.4C58.8 62.6 58.8 62.7 58.7 62.9L58.6 63C58.4 63 58.2 63 58.1 63C57.8 63 57.5 62.9 57.3 62.8C57.1 62.6 57.1 62.1 57.1 61.7V56C57.1 55.9 57.1 55.3 57.1 55.1Z" fill="white"/>
<path d="M68.7 57.8001C67.3 52.6001 65 52.1001 64 52.1001C63.9 52.1001 63.7 52.1001 63.6 52.1001H63.5V65.5001H66.5V60.1001L68.6 65.5001H71.7V52.1001H68.6L68.7 57.8001Z" fill="white"/>
<path d="M29.3998 52H21.8998H21.7998V52.1C21.7998 53.1 22.4998 53.9 23.4998 54.1V65.5H26.5998V59.8H29.1998C30.5998 59.8 31.3998 58.9 31.3998 57.3V56.8C31.2998 53 31.0998 52.2 29.3998 52ZM28.0998 58H26.3998V54.1C26.3998 54.1 27.2998 54.1 27.3998 54.1C27.6998 54.1 27.9998 54.3 27.9998 54.7C28.1998 54.8 28.0998 58 28.0998 58Z" fill="white"/>
<path d="M53 52.1001H46V54.2001H48V65.5001H51.1V54.1001H51.2C51.7 54.1001 52.2 54.0001 52.5 53.6001C52.9 53.2001 53.1 52.7001 53 52.1001Z" fill="white"/>
<path d="M79.9 52.1001C79 52.1001 75.9 52.1001 75.3 52.1001H75.1C74.2 52.1001 73.6 52.5001 73.5 53.3001C73.5 53.4001 73.5 53.5001 73.5 53.5001C73.5 53.5001 73.3 56.0001 73.5 56.8001C73.9 57.9001 74.8 58.4001 75.7 58.6001H75.8L76 58.7001C76.1 58.7001 76.2 58.8001 76.2 58.9001V63.7001H73.8V65.5001H77C78.1 65.4001 78.9 65.0001 79.2 64.1001C79.3 63.4001 79.3 59.0001 79.2 58.0001C79.2 57.6001 79 57.3001 78.7 57.1001C78.5 57.0001 78.4 56.9001 78.2 56.8001C78 56.7001 77.8 56.6001 77.7 56.5001C77 56.2001 76.2 55.8001 76.2 54.9001V54.1001H78.5C79 54.1001 79.4 53.8001 79.6 53.4001C79.7 53.2001 79.8 52.9001 79.8 52.7001C80 52.5001 80 52.3001 79.9 52.1001Z" fill="white"/>
<path d="M52.5001 43.8H53.0001C53.5001 43.8 54.3001 43.9999 54.3001 44.8999C54.3001 45.2999 54.3001 46.7 54.4001 47.2V47.3999C54.4001 47.6999 54.4001 48 54.5001 48.2C54.7001 49 55.3001 49.4999 56.3001 49.4999H57.2001V44.7C57.2001 44.2 57.0001 43.7 56.7001 43.3L56.6001 43.2C57.1001 42.7 57.3001 42 57.3001 41.3V40.8C57.3001 37.1 57.2001 36.4 55.4001 36.2H49.6001V49.3H52.6001V43.8H52.5001ZM52.5001 38.3H53.1001C53.9001 38.3 54.2001 38.3 54.1001 39.7C54.1001 40.8 54.1001 40.8999 54.1001 41.3999V41.4999C54.1001 41.6999 54.0001 41.7999 53.9001 41.8999C53.8001 41.9999 53.7001 41.9999 53.7001 41.9999H52.5001V38.3Z" fill="white"/>
<path d="M71.0001 36.2H68.1001V49.3H71.0001V36.2Z" fill="white"/>
<path d="M43.1002 49.3001H46.1002V38.2001H46.2002C46.7002 38.2001 47.1002 38.1001 47.5002 37.7001C47.8002 37.3001 48.0002 36.8001 48.0002 36.2001V36.1001H41.2002V38.2001H43.1002V49.3001Z" fill="white"/>
<path d="M74.5001 49.3001H77.5001V38.2001H77.6001C78.1001 38.2001 78.5001 38.0001 78.9001 37.7001C79.2001 37.3001 79.4001 36.8001 79.4001 36.2001V36.1001H72.6001V38.2001H74.5001V49.3001Z" fill="white"/>
<path d="M39.6 47.2H36.4V43.9999H38.6V41.2H36.4V38.3H39.6V36.2H33.5V49.3H39.6V47.2Z" fill="white"/>
<path d="M29.7002 36.2H22.2002V36.3C22.2002 36.8 22.3002 37.3 22.6002 37.7C23.0002 38.1 23.5002 38.3 24.0002 38.3V49.3H29.6002C30.9002 49.3 31.7002 48.1999 31.7002 46.5999V40.4999C31.7002 37.1999 31.7002 36.3 29.7002 36.2ZM28.7002 47.2H27.0002V38.3C27.4002 38.3 27.8002 38.2999 28.3002 38.3999C28.7002 38.5999 28.7002 39.3 28.7002 39.3C28.8002 40.3 28.7002 46.4 28.7002 47.2Z" fill="white"/>
<path d="M62.8002 36.2C62.2002 36.2 61.5001 36.1999 60.9001 36.3999C59.4001 36.6999 58.7002 37.7 58.7002 39.3V47.0999C58.7002 49.0999 60.2002 49.4999 62.3002 49.4999C64.9002 49.4999 66.5002 48.5999 66.5002 46.9999V38.8999C66.5002 36.1999 64.8002 36.2 62.8002 36.2ZM61.8002 39.2C61.8002 38.9 61.8001 38.6999 61.9001 38.3999L62.0002 38.3C62.1002 38.3 62.3001 38.3 62.4001 38.3H62.5002C63.5002 38.3 63.5002 38.5999 63.5002 40.3999V45.8999C63.5002 46.0999 63.5002 46.1999 63.5002 46.3999C63.5002 46.4999 63.5001 46.7 63.4001 46.8L63.3002 46.8999C63.1002 46.8999 62.9002 46.8999 62.8002 46.8999C62.5002 46.8999 62.2002 46.8 62.0002 46.7C61.8002 46.5 61.8002 46.0999 61.8002 45.5999V40.0999C61.8002 39.9999 61.8002 39.4 61.8002 39.2Z" fill="white"/>
</svg>
