<svg width="95" height="115" viewBox="0 0 95 115" fill="none" xmlns="http://www.w3.org/2000/svg">
<path d="M48.5002 4.59999L45.0002 0H43.6002H43.2002H42.7002V0.399994L43.2002 0.800003V7.5H45.0002V3L48.5002 7.5H50.3002V0H48.5002V4.59999Z" fill="#1D428A"/>
<path d="M35.8 8.70004L41 7.80005L40.8 6.20004L37.4 6.80005L37.2 5.40004L39.9 4.90004L39.8 4.20004L39.6 3.30005L36.9 3.80005L36.7 2.40004L39.7 1.90004L39.8 0.300049L34.9 1.20004H34.5L34 1.30005L34.1 1.80005L34.7 2.10004L35.8 8.70004Z" fill="#1D428A"/>
<path d="M27.2002 11.5L29.9002 10.5C32.4002 9.60001 33.3002 7.60001 32.6002 5.50001C31.8002 3.40001 29.8002 2.5 27.4002 3.4L25.1002 4.30001L24.8002 4.4L24.2002 4.6L24.4002 5.00001L25.2002 5.20001L27.2002 11.5ZM27.0002 5.20001L28.0002 4.9C29.0002 4.5 30.3002 4.70001 30.8002 6.20001C31.4002 7.70001 30.4002 8.70001 29.5002 9.00001L28.5002 9.30001L27.0002 5.20001Z" fill="#1D428A"/>
<path d="M20.4003 15.2L25.1003 12.5L24.7003 10.8999L21.2003 12.8L18.3003 7.69995L17.1003 8.39995L16.7003 8.69995L16.3003 8.89995L16.5002 9.29996L17.1003 9.39995L20.4003 15.2Z" fill="#1D428A"/>
<path d="M15.8002 13.4999C14.4002 11.8999 12.0002 11.5999 10.2002 13.1999C8.3002 14.7999 8.3002 17.1999 9.7002 18.7999C11.1002 20.3999 13.5002 20.6999 15.3002 19.0999C17.2002 17.5999 17.3002 15.1999 15.8002 13.4999ZM11.2002 17.5999C10.3002 16.5999 10.3002 15.2999 11.3002 14.4999C12.3002 13.5999 13.5002 13.7999 14.4002 14.7999C15.3002 15.7999 15.3002 17.0999 14.3002 17.8999C13.3002 18.7999 12.0002 18.5999 11.2002 17.5999Z" fill="#1D428A"/>
<path d="M8.20021 19.9L6.70021 21.8L6.30024 22.3L5.70021 23.1L6.90022 24L8.10023 22.5C8.50023 23.2 8.40024 24.1 7.80024 24.7C7.00024 25.7 5.70021 25.8 4.70021 25C3.70021 24.2 3.40021 22.9 4.20021 21.9C4.30021 21.7 4.50023 21.6 4.60023 21.5C4.80023 21.3 5.10024 21.2 5.30024 21.1L5.90022 20.3L6.70021 19.3H6.60023C5.30023 19.1 3.90023 19.7 3.10023 20.7C3.00023 20.8 3.00022 20.8 2.90022 20.9C1.40022 22.8 1.80019 25.2 3.50019 26.5C5.20019 27.8 7.60023 27.6 9.10023 25.7C9.20023 25.6 9.20024 25.6 9.30024 25.5C10.2002 24.3 10.3002 22.6 9.60023 21.2C9.50023 21.1 9.50022 21 9.40022 20.8C9.20022 20.5 8.90023 20.2 8.60023 20C8.40023 20.1 8.30021 20 8.20021 19.9Z" fill="#1D428A"/>
<path d="M59.4003 5.69991L60.1003 6.29991C60.7003 6.79991 60.9003 7.09991 60.8003 7.49991C60.7003 7.79991 60.3003 7.99991 59.8003 7.79991C59.0003 7.49991 58.4003 6.99991 57.9003 6.29991L57.3003 8.19991C57.9003 8.79991 58.6003 9.1999 59.4003 9.3999C60.8003 9.7999 62.3003 9.2999 62.7003 7.8999C63.0003 6.7999 62.4003 5.99991 61.6003 5.29991L60.8003 4.5999C60.4003 4.2999 60.4003 3.99991 60.4003 3.79991C60.5003 3.49991 60.9003 3.39991 61.3003 3.49991C62.0003 3.69991 62.6003 4.19991 63.1003 4.79991L63.6003 3.0999C63.0003 2.5999 62.4003 2.19991 61.7003 1.99991C60.1003 1.49991 58.9002 2.1999 58.5002 3.3999C58.3002 4.1999 58.6003 4.99991 59.4003 5.69991Z" fill="#1D428A"/>
<path d="M65.6001 11.5999L67.4001 12.3999L69.9001 6.99995L72.1001 7.99995L72.7001 6.59995L66.7001 3.69995L66.0001 5.19995L68.2001 6.19995L65.6001 11.5999Z" fill="#1D428A"/>
<path d="M70.5 12.9999L70 13.6999L71.3 14.5999L71.9 13.9999L72.7 13.5999L73.9 14.3999L75.1 15.1999L75 16.0999L74.6 16.7999L75.9 17.6999L76.4 16.9999L78.1 9.99991L77.2 9.3999L76.5 8.8999L76.3 8.79991L75.7 8.3999L75.4 8.79991L75.6 9.29991L70.5 12.9999ZM76.2 10.9999L75.5 13.5999L74.8 13.0999L74.1 12.5999L76.2 10.9999Z" fill="#1D428A"/>
<path d="M80.4001 13.6L82.2001 15.3L78.1001 19.7L79.5001 21L83.6001 16.6L85.3001 18.2L86.4001 17.1L81.5001 12.5L80.4001 13.6Z" fill="#1D428A"/>
<path d="M85.8999 23.5L87.5999 25.7L88.7999 24.7L87.1999 22.6L88.2999 21.7L90.0999 24.1L91.5999 23.5L88.4999 19.5H88.5999L87.9999 18.8L87.5999 19V19.8L82.3999 23.9L85.5999 28.1L86.7999 27.1L84.7999 24.4L85.8999 23.5Z" fill="#1D428A"/>
<path d="M91.8002 54.9999C91.8002 79.9999 71.5002 100.3 46.5002 100.3C21.5002 100.3 1.2002 79.9999 1.2002 54.9999C1.2002 29.9999 21.5002 9.69995 46.5002 9.69995C71.5002 9.69995 91.8002 29.9999 91.8002 54.9999Z" fill="#1D428A"/>
<path d="M76.1 25.3C59.7 8.9 33.2 8.9 16.8 25.3C0.4 41.7 0.4 68.2 16.8 84.6C33.2 101 59.7 101 76.1 84.6C92.5 68.3 92.5 41.7 76.1 25.3ZM18.4 26.9C33.9 11.4 59 11.5 74.5 27C86.1 38.6 89.3 56.2 82.6 71.2C77.8 69.6 73.1 67.8 68.4 65.7C67.8 65.4 67.2 65.2 66.6 64.9L64.8 64L63.9 63.6L63 63.2L61.2 62.3C60.6 62 60 61.7 59.4 61.4L58.5 60.9C58.2 60.7 57.9 60.6 57.6 60.4L55.9 59.4L54.2 58.4C49.6 55.7 45.2 52.7 41 49.4C38.9 47.7 36.9 46 35 44.2C34 43.3 33.1 42.3 32.2 41.4C32 41.2 31.7 40.9 31.5 40.7C31.2999 40.5 31.1 40.2 30.8 39.9C30.6 39.6 30.4 39.4 30.2 39.1C30.1 36.2 30.1 34.4 30.1 34.4L28.1 33.9V36.6H26.4V33.8L24.3 34.3V35.3L23.3 35.8C23.3 36.6 23.3 37.7 23.4 39C22.6 40.4 13.8 55.6 7.19996 60.3C6.99996 58.5 6.8 56.7 6.8 54.9C6.8 44.4 11 34.3 18.4 26.9ZM70.5 74.4L66.4 74.5L63.1 65.9L63.8 66.2L65.6 67.1C66.2 67.4 66.8 67.7 67.4 68C67.6 68.1 67.8 68.2 67.9 68.2L70.5 74.4ZM69.5 69C71.1 69.8 72.8 70.5 74.5 71.2L75.9 74.3L71.8 74.4L69.5 69ZM65.2 74.6L61 74.7L56.7 62.4C57 62.6 57.2999 62.7 57.5 62.9L58.4 63.4C59 63.7 59.6 64.1 60.2 64.4L61.6 65.1L65.2 74.6ZM59.8 74.8L56.1 74.9L50.7 58.7C51.5 59.2 52.4 59.8 53.2 60.3L54.9 61.4L55.1 61.5L59.8 74.8ZM54.8 75L50.9 75.1L44.5 54.4C46 55.5 47.5 56.6 49 57.6L54.8 75ZM49.7 75.1L45.9 75.2L38.2 49.4C38.7 49.9 39.3 50.3 39.8 50.8C40.8 51.6 41.7 52.4 42.8 53.2L49.7 75.1ZM44.7 75.3L40.5 75.4L31.3 42.7C32.1 43.6 32.9 44.4 33.8 45.3C34.7 46.2 35.6 47 36.5 47.9L44.7 75.3ZM39.3 75.5L35.7 75.6L30.7 56.4C30.5 51.4 30.4 46.9 30.3 43.2L39.3 75.5ZM34.5 75.6L31.4 75.7C31.2 71.1 31 66.4 30.9 61.7L34.5 75.6ZM78.5 78.4C78.2 78.8 78 79.1 77.7 79.5L31.6 78.6V78.2L78.5 78.4ZM77.1 74.2L76.1 71.8C77.8 72.5 79.6 73.2 81.4 73.8C81.4 73.9 81.3 73.9 81.3 74L77.1 74.2ZM28.1 45.2V47.6H26.3V49.9H28.1V52.3H26.3V54.6H28.1V59.2H26.3V61.5H28.1V66.2H26.3V68.5H28.1V75.9L26.4 76V41.5H28.1V43H26.3V45.3L28.1 45.2ZM10.3 71.3L15.5 53.9C18 50.5 20.3 47 22.3 43.3L13 76.4C12 74.7 11.1 73 10.3 71.3ZM9.59999 69.5C8.69999 67.2 7.99995 64.8 7.49995 62.3C9.69995 60.5 11.7 58.5 13.5 56.3L9.59999 69.5ZM23.4 43.7C23.4 47.2 23.3 51.4 23.3 55.9L17.9 76.2L14.2 76.3L23.4 43.7ZM23.1 61C23 66 22.7999 71.2 22.5 76.1L19.1 76.2L23.1 61ZM16 80.4L22.2 80.6C22.1 82.5 21.9 84.3 21.8 86C20.6 85 19.4 84 18.4 82.9C17.6 82.2 16.8 81.3 16 80.4ZM46.5 94.6C41.5999 94.6 36.8 93.7 32.3 92C32.1 89.3 31.9 86 31.8 82.5L28.2 81.3V90.2C27.6 89.9 27.1 89.6 26.5 89.2V80.8L28.2 80.9V81H30L33.3 81.1L75 82.6C74.8 82.8 74.7 82.9 74.5 83.1C67.1 90.5 57 94.7 46.5 94.6Z" fill="#FDB927"/>
<path d="M59.9001 103.3L59.5001 100.9L57.0001 101.4L54.1001 102L51.6001 102.5L52.1001 104.8L54.6001 104.3L55.8001 110.9L53.4001 111.4L53.8001 113.7L56.3001 113.2L59.2001 112.7L61.7001 112.2L61.2001 109.8L58.7001 110.3L57.4001 103.8L59.9001 103.3Z" fill="#1D428A"/>
<path d="M74.4999 100.5C75.8999 103.5 74.8 106.9 71.4 108.5C68 110.1 64.7 108.7 63.3 105.7C61.9 102.7 63 99.2999 66.4 97.6999C69.8 96.0999 73.0999 97.4999 74.4999 100.5ZM71.8 101.7C70.9 99.8999 69.2 99.0999 67.4 99.8999C65.6 100.7 65.1 102.6 65.9 104.4C66.8 106.2 68.5 107 70.3 106.2C72.1 105.4 72.7 103.5 71.8 101.7Z" fill="#1D428A"/>
<path d="M82.8002 91.1C81.4002 89.4 79.1002 89.6 77.5002 91L74.3002 93.7L73.8002 94.1L73.2002 94.6L73.6002 95.1L74.6002 95L81.2002 102.8L83.4002 100.9L80.7002 97.7L81.3002 97.2L86.2002 98.5L88.9002 96.2L83.2002 94.9C83.9002 93.7 83.7002 92.2 82.8002 91.1ZM80.2002 95.1L79.2002 96L77.5002 94L78.6002 93.1C79.2002 92.6 80.0002 92.5 80.5002 93.1C81.1002 93.8 80.9002 94.6 80.2002 95.1Z" fill="#1D428A"/>
<path d="M93.5 90.6001C92.8 91.6001 91.8 92.5001 90.7 93.0001L88.3001 91.2001C89.5001 91.0001 90.6001 90.3001 91.4001 89.4001C91.9001 88.7001 91.9 88.1001 91.5 87.8001C91 87.4001 90.5 87.7001 89.5 88.2001L88.3001 88.8001C86.8001 89.5001 85.5 89.5001 84.5 88.6001C83 87.5001 82.7 85.3001 84.2 83.3001C84.9 82.4001 85.8001 81.6001 86.8001 81.1001L89 82.7001C87.9 83.0001 86.9 83.7001 86.2 84.5001C85.8 85.1001 85.7001 85.7001 86.1001 86.0001C86.4001 86.2001 86.8001 86.2001 87.4001 85.9001L88.8001 85.2001C90.3001 84.5001 91.7001 84.0001 93.1001 85.1001C94.9001 86.5001 94.9 88.8001 93.5 90.6001Z" fill="#1D428A"/>
<path d="M48.8999 106.1C48.9999 103.9 47.1999 102.5 44.9999 102.4L40.7999 102.3H40.1999H39.3999V103L40.1999 103.6L39.7999 113.8L42.6999 113.9L42.7999 109.7H43.5999L46.2999 114L49.7999 114.1L46.4999 109.3C47.8999 108.8 48.7999 107.5 48.8999 106.1ZM44.1999 107.4H42.8999L42.9999 104.8H44.3999C45.1999 104.8 45.7999 105.3 45.7999 106.1C45.7999 107 45.0999 107.4 44.1999 107.4Z" fill="#1D428A"/>
<path d="M36.0002 105.1C36.6002 103 35.3003 101.2 33.2003 100.6L29.2003 99.4L28.6003 99.2L27.8003 99L27.6003 99.6L28.2003 100.4L25.3003 110.2L28.1003 111L29.3003 107L30.1003 107.2L31.7003 112L35.0002 113L33.0002 107.5C34.4002 107.4 35.6002 106.5 36.0002 105.1ZM31.2003 105.2L29.9003 104.8L30.6003 102.3L31.9003 102.7C32.7003 102.9 33.2003 103.5 32.9003 104.3C32.8003 105.2 32.0003 105.4 31.2003 105.2Z" fill="#1D428A"/>
<path d="M22.4001 95.9001L21.4001 95.3001L21.0001 95.1001L20.2001 94.6001L19.9001 95.2001L20.2001 95.8001L12.7001 102L12.1001 103.1L14.2001 104.3L15.0001 103.3L16.2001 102.6L18.0001 103.7L19.8001 104.8V106.2L19.3001 107.3L21.4001 108.5L22.0001 107.4L24.0001 96.7001L22.4001 95.9001ZM18.9001 101.7L17.8001 101L20.9001 98.3001L20.1001 102.3L18.9001 101.7Z" fill="#1D428A"/>
<path d="M15.5 91.5L14.8 90.7L14.3 91.2L14.4 92L8.20001 94.6L12.2 87.9001L11 86.5L3.90002 90L7.70001 83L5.5 80.6L5.30005 80.3L4.80005 80.7L4.90002 81.8L0 91.5L2 93.7L6.70001 91.7L4.30005 96.2L6.30005 98.4001L17.6 93.8L15.5 91.5Z" fill="#1D428A"/>
</svg>
