<svg width="93" height="123" viewBox="0 0 93 123" fill="none" xmlns="http://www.w3.org/2000/svg">
<path d="M62.4 57.1L62.5 46.1C62.5 40.9 57.1 40.1 53.2 40.1C55.8 39.2 59 37.7 61.4 35.2C63.8 33 65.6 29.8 65.3 25.4C64.8 17.9 55.5 14.2 40 15.7C39.7 15.7 39.5 15.8 39.2 15.8C38.5 10.4 37.4 5.1 35.6 0L34.8 0.799988C33 6.09999 31.7 11.5 30.8 17C25.5 17.9 20.3 19.1 15.1 20.7L14.3 21.5C14.3 21.5 21.8 20.8 30.2 20.9C29.2 30.6 30.2 39.8 30.2 57.1C16.5 56.7 4.4 59 1.5 62.7C0.5 63.5 0 64.4 0 65.3C0.2 69.5 12.6 73.4 30.2 74.8L31 98.6L31.8 97.8L33 81.6C33 81.4 33 81.1 33.1 80.9C33.5 81 33.8 81.4 33.8 82.3L34.3 103.6L35.1 102.8L36.4 85.5C36.4 85.2 36.4 84.9 36.5 84.5C36.9 84.6 37.2 85.1 37.2 86.1L37.8 108.3L38.6 107.5L39.7 75.2C41.7 75.3 43.8 75.3 45.9 75.3C48.1 75.3 50.3 75.3 52.4 75.2L53.5 108.9L54.3 108.1L55.2 90.5C55.2 90.2 55.2 89.9 55.3 89.6C55.6 89.7 56 90.2 56 91.1L56.9 115.8L57.7 115L58.6 93.6C58.6 93.3 58.6 93.1 58.7 92.8C59.1 92.8 59.6 93.3 59.6 94.4L60.4 122.7L61.2 121.9L62.3 74.5C77.3 73.2 88.7 70.2 91.5 66.7C92.4 65.9 93 65.1 93 64.3C92.6 59.9 78.7 56.3 62.4 57.1ZM30.2 69.8C18.2 68.6 10.1 66.2 10.1 63.1C10.1 62.9 10.2 62.6 10.3 62.4C13.1 60.4 21.8 59.2 30.4 57.9C30.4 61.3 30.3 65 30.2 69.1V69.8ZM54.7 28.4C55.2 31.8 54.2 34.4 52.4 36.3C49.3 39.1 44.3 40.4 40.3 41C40.4 34.6 40.3 27.9 39.7 21.4C47.5 22.2 54.1 24.2 54.7 28.4ZM52.4 70.4C50.5 70.5 48.6 70.5 46.6 70.5C44.3 70.5 42 70.5 39.8 70.4L39.9 67.7C39.7 60.8 40.1 52.1 40.3 42.7C45.9 43.4 52.7 44.9 52.6 48.9L52.4 70.4ZM82.3 65.1C79.5 67.3 72.1 69 62.2 69.9L62.3 58.1C73.6 59.6 82.7 61.2 82.7 63.9C82.8 64.3 82.6 64.7 82.3 65.1Z" fill="black"/>
<path d="M92.3999 64.5C92.1999 59.9 78.2999 56.3 62 57.1L62.0999 46.1C62.0999 39.3 52.7999 40 49.5999 40.4C53.2999 39.7 65.4999 36.7 64.7999 25.4C64.2999 17.9 55 14.2 39.5 15.7C39.2 15.7 38.9999 15.8 38.6999 15.8C37.9999 10.4 36.8999 5.1 35.0999 0C33 6.7 31.6999 11.9 30.9999 16.8C25.4999 17.7 19.9999 19 14.6999 20.6C14.6999 20.6 22.1999 19.9 30.5999 20C29.5999 29.8 30.5999 39.1 30.5999 57C14.3999 56.4 0.299943 59.6 0.399943 64.4C0.499943 68.6 12.9999 72.5 30.5999 73.9L31.3999 97.7L32.5999 81.5C32.5999 79.5 34.1999 79.7 34.1999 81.4L34.7999 102.7L36.0999 85.4C36.0999 83.1 37.6999 83.2 37.6999 85.3L38.2999 107.5L39.3999 74.4C41.5999 74.5 43.9999 74.5 46.2999 74.5C48.4999 74.5 50.6999 74.5 52.7999 74.4L53.8999 108.1L54.7999 90.5C54.7999 88.3 56.2999 88.4 56.2999 90.4L57.1999 115.1L58.0999 93.7C58.1999 91.6 59.7999 91.7 59.8999 93.7L60.6999 122L61.8 73.9C79.6 72.5 92.3999 68.7 92.3999 64.5ZM55.0999 27.6C56.3999 36.9 46.7999 40 40 41C40.0999 34.2 39.8999 27.3 39.2999 20.5C47.3999 21.3 54.5 23.3 55.0999 27.6ZM9.69995 63.1C9.69995 60.3 20.1999 58.7 30.7999 57.2C30.7999 60.6 30.6999 64.3 30.5999 68.4V70C18.0999 68.7 9.69995 66.2 9.69995 63.1ZM39.5 70.4L39.5999 67.7C39.3999 60.5 39.9 51.5 40 41.9C45.7 42.5 53.2 44 53 48.2L52.7999 70.5C50.6999 70.6 48.4999 70.6 46.2999 70.6C43.8999 70.5 41.7 70.5 39.5 70.4ZM61.8999 69.9L62.0999 57.2C73.6999 58.7 83.1999 60.4 83.1999 63.1C83.1999 66.2 74.3999 68.7 61.8999 69.9Z" fill="#CE1141"/>
</svg>
