<svg width="107" height="107" viewBox="0 0 107 107" fill="none" xmlns="http://www.w3.org/2000/svg">
<path d="M106.1 53C106.1 82.3 82.4 106.1 53.1 106.1C23.8 106.1 0 82.4 0 53.1C0 23.8 23.7 0 53 0C82.4 0 106.1 23.7 106.1 53Z" fill="#BEC0C2"/>
<path d="M103.1 53C103.1 80.6 80.7001 103 53.1001 103C25.5001 103 3.1001 80.6 3.1001 53C3.1001 25.4 25.5001 3 53.1001 3C80.7001 3 103.1 25.4 103.1 53Z" fill="#002D62"/>
<path d="M53.0999 5.30005C26.7999 5.30005 5.3999 26.6001 5.3999 52.9001C5.3999 79.2001 26.6999 100.6 52.9999 100.6C79.2999 100.6 100.7 79.3001 100.7 53.0001C100.7 26.7001 79.3999 5.30005 53.0999 5.30005Z" fill="#FDBB30"/>
<path d="M85.7 53C85.7 71.4 71.1 86.3 53.1 86.3C35.1 86.3 20.5 71.4 20.5 53C20.5 34.6 35.1 19.7 53.1 19.7C71.1 19.7 85.7 34.6 85.7 53Z" fill="#002D62"/>
<path d="M83.6001 52.9999C83.6001 70.1999 69.9001 84.0999 53.1001 84.0999C36.2001 84.0999 22.6001 70.1999 22.6001 52.9999C22.6001 35.7999 36.3001 21.8999 53.1001 21.8999C70.0001 21.8999 83.6001 35.7999 83.6001 52.9999Z" fill="white"/>
<path d="M19.6 43.7L19.3 44.9001L9.5 42.5001L9.89999 41.3L19.6 43.7Z" fill="#002D62"/>
<path d="M21 28.6999L25.2 31.8999L24.4 32.8999L16.5 26.7999L16.9 26.1999L22.6 27.6999L18.3 24.3999L19 23.3999L27 29.4999L26.6 30.0999L21 28.6999Z" fill="#002D62"/>
<path d="M31.2002 13.2999L33.2002 12.2999C34.0002 11.8999 35.1002 11.9 35.6002 12.9C36.8002 15.4 37.4002 16.5 38.7002 18.9C39.1002 19.7 38.8002 20.7 38.0002 21.1C38.0002 21.1 37.9002 21.0999 37.9002 21.1999L35.8002 22.1999L31.2002 13.2999ZM36.5002 20.6L37.0002 20.2999C37.4002 20.0999 37.6002 19.5999 37.5002 19.1999V19.1C36.5002 17.1 35.7002 15.6 34.7002 13.6C34.5002 13.2 34.0002 12.9999 33.6002 13.1999L33.0002 13.5L36.5002 20.6Z" fill="#002D62"/>
<path d="M51.8 17.6L50.6 17.7L50 7.60001L51.3 7.5L51.8 17.6Z" fill="#002D62"/>
<path d="M66.5 20.2L66.9 18.3L65.2 17.7L64.2 19.4L63 18.9L68.4 10.2L69.6 10.7L67.7 20.7L66.5 20.2ZM67.9 13.4L65.8 16.8L67.2 17.3L67.9 13.4Z" fill="#002D62"/>
<path d="M81.4002 24.1L77.5002 27.8L76.7002 26.9L84.0002 20L84.4002 20.5L82.0002 26L86.0002 22.2L86.9002 23.1L79.5002 30L79.1002 29.5L81.4002 24.1Z" fill="#002D62"/>
<path d="M86.4002 42.7999L88.2002 41.8999L87.6002 40.1999L85.6002 40.4999L85.2002 39.2999L95.4002 37.8999L95.8002 39.0999L86.8002 43.9999L86.4002 42.7999ZM92.6002 39.5999L88.6002 40.0999L89.1002 41.4999L92.6002 39.5999Z" fill="#002D62"/>
<path d="M13.2001 73.9001L12.6001 72.7001L21.5001 68.1001L23.0001 70.9001C23.3001 71.5001 23.1001 71.9001 22.7001 72.1001C21.1001 72.9001 20.3001 73.3001 18.7001 74.2001C18.3001 74.4001 17.8001 74.3001 17.6001 73.9001C17.6001 73.9001 17.6001 73.8001 17.5001 73.8001L16.6001 72.1001L13.2001 73.9001ZM17.5001 71.7001L18.2001 73.1001L21.8001 71.2001L21.1001 69.8001L17.5001 71.7001Z" fill="#002D62"/>
<path d="M26.4 89.8999L27.4 88.1999L26 87.0999L24.5 88.3999L23.5 87.5999L31.2 80.8999L32.2 81.6999L27.4 90.6999L26.4 89.8999ZM29.9 83.7999L26.9 86.2999L28 87.1999L29.9 83.7999Z" fill="#002D62"/>
<path d="M44.1998 94.3999L45.4999 94.6999L44.8998 97.3C44.7998 97.7 44.3999 97.9999 43.9999 97.8999C43.0999 97.6999 42.4998 97.5 41.5998 97.3C41.1998 97.2 40.8999 96.8 40.9999 96.3C41.7999 93.1 42.1999 91.3999 42.9999 88.1999C43.0999 87.7999 43.4998 87.4999 43.8998 87.5999C44.7998 87.7999 45.3998 87.9999 46.3998 88.1999C46.7998 88.2999 47.0999 88.7999 46.9999 89.1999L46.4999 91.1999L45.1998 90.8999L45.5998 89.0999L44.0998 88.7999L42.1998 96.3999L43.6998 96.6999L44.1998 94.3999Z" fill="#002D62"/>
<path d="M62.7002 97.8L59.5002 98.4L57.7002 88.5L60.9002 88L61.1002 89L59.1002 89.4L59.7002 92.6L61.5002 92.3L61.7002 93.3L59.9002 93.7L60.6002 97.1L62.5002 96.8L62.7002 97.8Z" fill="#002D62"/>
<path d="M77.4998 91.5L76.3998 92.2L70.7998 83.9L73.4998 82C73.7998 81.7 74.2998 81.8 74.5998 82.1C74.5998 82.1 74.6998 82.2 74.6998 82.3C75.4998 83.4 75.9998 84.2 76.7998 85.3C77.0998 85.6 76.9998 86.1 76.6998 86.4L76.5998 86.5L76.4998 86.6L80.1998 89.8L78.9998 90.6L74.8998 87V86.5L75.7998 85.9L73.9998 83.2L72.5998 84.1L77.4998 91.5Z" fill="#002D62"/>
<path d="M87.7 76.4L89.7 77.6999L90.3 76.7999L88.4 75.6L84.7 75.7999C84.5 75.7999 84.2 75.7999 84 75.6999C83.3 75.1999 83 75 82.1 74.5C81.7 74.3 81.6 73.8 81.9 73.4C82.3 72.7 82.6 72.2 83 71.6C83.2 71.2 83.7 71.0999 84 71.2999C84 71.2999 84.1 71.3 84.1 71.4L85.9 72.5L85.2 73.6L83.7 72.6L83.1 73.6L84.6 74.5L88.2 74.2999C88.5 74.2999 88.8 74.3 89.1 74.5C90 75.1 90.3 75.3 91.3 75.9C91.7 76.1 91.8 76.6 91.6 77C91.2 77.7 90.9 78.1999 90.4 78.7999C90.2 79.1999 89.7 79.3 89.4 79.1C89.4 79.1 89.3 79.1 89.3 79L87.1 77.6L87.7 76.4Z" fill="#002D62"/>
<path d="M43.4001 34.1L35.1001 71.6H51.5001C51.5001 71.6 53.3001 64.1 53.5001 63.5H60.6001C65.9001 63.5 70.3001 61.7 73.2001 58.3C78.6001 52.5 77.6001 44 73.6001 39.2C70.7001 35.7 66.4001 33.7 61.9001 33.8H43.5001L43.4001 34.1Z" fill="#BEC0C2"/>
<path d="M52.1999 62L50.1999 70.1H36.8999L44.5999 35.2H61.7999C65.8999 35.1 69.6999 36.9 72.2999 40.1C76.0999 44.7 76.4999 52.4 71.8999 57.3C69.0999 60.6 64.9999 62 60.3999 62H52.1999Z" fill="#002D62"/>
<path d="M42.7998 43.2H50.2998C51.1998 43.2 52.0998 43.9001 51.6998 45.0001C51.3998 45.7001 51.2998 46.5 51.1998 47.2C51.0998 47.7 51.7998 48.1001 52.0998 48.1001H67.4998C67.7998 48.1001 67.8998 48.0001 67.8998 47.9001C67.8998 47.6001 67.8998 47.2001 67.7998 46.9001C67.6998 46.6001 67.6998 46.5001 67.3998 46.5001C65.4998 46.5001 64.6998 45.6001 62.6998 44.4001C60.6998 43.1001 57.7998 42.3 55.1998 42.3H42.8998L42.7998 43.2Z" fill="#FDBB30"/>
<path d="M52.1002 53.0999C51.8002 52.4999 51.6002 51.8999 51.4002 51.1999C51.2002 50.3999 50.5002 49.7999 49.3002 49.7999H41.2002L41.4002 48.8999H67.6002C67.8002 48.8999 67.8002 48.9999 67.8002 49.2999C67.8002 49.5999 67.7002 50.0999 67.7002 50.3999C67.7002 50.6999 67.4002 50.6999 67.2002 50.6999C66.4002 50.6999 65.6002 50.8999 64.9002 51.2999C63.8002 52.0999 61.5002 53.5999 60.2002 53.9999C58.9002 54.3999 53.7002 56.0999 52.1002 53.0999Z" fill="#FDBB30"/>
<path d="M39.8999 56.4H53.5999C54.0999 56.4 54.6999 56.5 55.0999 56.9C56.3999 57.9 57.7999 58.6 59.3999 59C60.0999 59.2 61.2999 58.9 62.3999 58.3C65.0999 56.7 66.8999 53.8 67.4999 51.9C67.5999 51.4 67.3999 51.4 66.9999 51.5C65.7999 51.6 64.5999 52.6 62.9999 53.7C61.3999 54.7 58.1999 55.7 55.0999 55.7H40.0999L39.8999 56.4Z" fill="#FDBB30"/>
<path d="M60.0001 38.0999C60.4001 37.9999 60.8001 37.9998 61.2001 38.1998C63.8001 39.1998 66.3001 41.8999 67.3001 44.7999C67.5001 45.3999 67.6001 45.6998 67.3001 45.6998C66.1001 45.7998 65.6001 45.1999 64.1001 44.2999C62.7001 43.3999 61.2001 42.5998 59.6001 42.1998C57.8001 41.6998 54.7001 41.4999 54.3001 41.4999C53.9001 41.4999 53.9001 41.2998 54.1001 41.1998C55.8001 39.5998 57.8001 38.4999 60.0001 38.0999Z" fill="#FDBB30"/>
<path d="M72.5001 47.9C72.5001 48 72.4001 48.1999 72.2001 48.1999H69.2001C68.8001 48.1999 68.8001 48 68.8001 47.8C68.7001 47.5 68.7001 47.2 68.7001 46.9C68.7001 46.7 68.6001 46.3999 68.9001 46.1999C69.7001 45.7999 70.4001 45.1 70.9001 44.3C71.0001 44.1 71.2001 43.7 71.4001 44C72.2001 45.2 72.4001 46.6 72.5001 47.9Z" fill="#FDBB30"/>
<path d="M71.4002 53.2999C71.4002 53.3999 71.1002 53.4999 71.1002 53.2999C70.7002 52.2999 69.9002 51.3999 68.9002 50.9999C68.7002 50.8999 68.7002 50.6999 68.7002 50.4999C68.7002 50.2999 68.8002 49.5999 68.8002 49.2999C68.8002 49.0999 68.9002 48.8999 69.1002 48.8999H72.2002C72.3002 48.8999 72.4002 48.9999 72.4002 49.0999C72.4002 50.5999 72.1002 51.9999 71.4002 53.2999Z" fill="#FDBB30"/>
<path d="M63.2999 59.1999C63.0999 59.2999 62.5999 59.1999 63.2999 58.6999C65.5999 57.3999 67.5999 54.2999 68.0999 52.4999C68.2999 51.7999 68.2999 51.7999 68.5999 51.8999C69.0999 52.0999 69.6 52.4999 69.9 52.9999C70.3 53.5999 70.4999 54.6999 70.1999 54.9999C68.5999 57.2999 66.0999 58.7999 63.2999 59.1999Z" fill="#FDBB30"/>
<path d="M69.0002 45.2C68.5002 45.5 68.4002 45.4 68.2002 45C67.2002 41.6 64.3002 39 63.1002 38.2C62.9002 38.1 62.9002 38 63.1002 38C65.9002 38.4 68.7002 39.9 70.1002 42C71.1002 43.3 69.6002 44.9 69.0002 45.2Z" fill="#FDBB30"/>
</svg>
