<svg width="147" height="93" viewBox="0 0 147 93" fill="none" xmlns="http://www.w3.org/2000/svg">
<path d="M69.0999 90.8C93.4999 90.8 113.3 70.7 113.3 45.9C113.3 21.1 93.4999 1 69.0999 1C44.6999 1 24.8999 21.1 24.8999 45.9C24.8999 70.7 44.6999 90.8 69.0999 90.8Z" fill="#FFB900"/>
<path d="M89.2001 50.5C85.1001 55.5 82.7001 57.2 78.5001 57.2C77.1001 57.2 76.3001 56.9 76.7001 56.2L81.7001 46.2H83.6001C85.7001 46.2 85.4 48 84.8 50.4C84.7 50.7 85.0001 50.8 85.2001 50.5L89.9001 42.2C90.1001 41.7 89.5001 41.6 89.2001 42C86.8001 45.2 84.3 45 83.3 45H82.4001L87.7001 34.9H89.8C92.5 35.1 93.8001 37.4 93.0001 42.9H94.1001L98.0001 35.2C98.3001 34.6 97.7001 34 96.9001 34H70.4001C68.9001 34 68.8 35.2 70.3 35.2C71.5 35.2 71.4001 36.9 70.4001 37.7L59.1001 46.6L61.4001 57.1C61.6001 57.9 62.1001 58.3 63.0001 58.3H84.9001C85.8001 58.3 86.2001 57.9 86.5001 57.6L90.5001 50.7C91.2001 49.6 89.9001 49.7 89.2001 50.5ZM74.0001 45.7H72.1001C72.0001 45.7 71.9001 45.8 71.9001 45.9C71.9001 46 72.0001 46.1 72.1001 46.1H74.1001C74.8001 46.1 75.4001 46.2 75.2001 46.5L70.1001 56.2C69.5001 57.4 68.1001 57.1 67.9001 56.1L65.4001 43.1L74.2001 36.3C75.1001 35.5 76.8001 34.3 77.6001 34.3H79.5001C80.7001 34.3 81.1 34.8 80.8 35.5L80.5001 36.2C80.3001 36.6 79.6001 36.6 79.0001 36.6H77.9001C77.8001 36.6 77.7001 36.7 77.7001 36.8C77.7001 36.9 77.8001 37 77.9001 37H79.0001C79.5001 37 80.1 37 79.8 37.4L75.7001 45.2C75.5001 45.6 74.7001 45.7 74.0001 45.7Z" fill="#562385"/>
<path d="M55.8 57C55.2 57 54.8 56.6 54.7 56.2C54.5 55.6 54.5 54.6 54.8 54.2L65 36.0999C65.2 35.7999 65.6 35.0999 66.1 35.0999C67 35.0999 67.4 33.9 65.9 33.9H57.7C56.2 33.9 56.2 35.0999 57.6 35.0999C58.2 35.0999 58.4 35.7 58.3 36L56 40.0999C55.7 40.5999 55.1 40.5999 54.4 40.5999H52.4C52.3 40.5999 52.2 40.7 52.2 40.8C52.2 40.9 52.3 41 52.4 41H54.3C54.8 41 55.2 41.2 54.9 41.8L47.4 55.5C46.9 56.3 45.8 56.4 45.8 55L48.5 34.9C48.6 34.3 48.4 33.8 47.8 33.8H43.8C43.3 33.8 43 34 42.8 34.3L41.4 36.0999C41.2 36.2999 40.8 36.3 40.4 36.3H37C36.9 36.3 36.8 36.4 36.8 36.5C36.8 36.6 36.9 36.7 37 36.7H39.8C40.3 36.7 40.9 36.8 40.7 37L36.8 41.9C36.7 42 36.3 42.0999 36.1 42.0999H35C34.9 42.0999 34.8 42.2 34.8 42.3C34.8 42.4 34.9 42.5 35 42.5H35.9C36.2 42.5 36.2 42.6 36.1 42.8L32.4 47.4C32.2 47.6 31.8 47.5999 31.5 47.5999H28.3C28.2 47.5999 28.1 47.7 28.1 47.8C28.1 47.9 28.2 48 28.3 48H31.1C31.5 48 31.8 48.1 31.6 48.4L26.4 54.9C25.4 56.1 20.7 56.8 19.8 56.8L37.4 23.9C37.6 23.5 38.2 22.9 38.9 22.9H42.6C44.4 22.9 44.3 21.7 42.8 21.7H24C22.5 21.7 22.4 22.9 24.2 22.9H27.7C28.7 22.9 29 23.5 28.8 24L28.3 24.9C28.1 25.2 27.9 25.3 26.9 25.3H20.8C20.7 25.3 20.6 25.4 20.6 25.5C20.6 25.6 20.7 25.7 20.8 25.7H26.9C27.2 25.7 27.7 25.8 27.4 26.4L26.5 28C26.4 28.2 26 28.4 25.5 28.4H22.7C22.6 28.4 22.5 28.4999 22.5 28.5999C22.5 28.6999 22.6 28.8 22.7 28.8H25.5C25.9 28.8 25.9 29.1 25.7 29.4L23.7 33.0999C23.5 33.3999 23.2 33.5 22.6 33.5H21.5C21.4 33.5 21.3 33.6 21.3 33.7C21.3 33.8 21.4 33.9 21.5 33.9H22.6C23 33.9 23.1 34.1 22.9 34.5L21.3 37.5C21.1 37.9 20.7 38.0999 19.6 38.0999H13.5C13.4 38.0999 13.3 38.2 13.3 38.3C13.3 38.4 13.4 38.5 13.5 38.5H19.6C20.3 38.5 20.5 38.8 20.3 39.3L17.1 45.3C16.9 45.6 16.4 45.5999 15.5 45.5999H9.40002C9.30002 45.5999 9.20001 45.7 9.20001 45.8C9.20001 45.9 9.30002 46 9.40002 46H15.5C16.2 46 16.7 46 16.5 46.4L14.7 49.8C14.4 50.3 13.4 50.3 13.1 50.3H11.2C11.1 50.3 11 50.4 11 50.5C11 50.6 11.1 50.7 11.2 50.7H13.1C13.8 50.7 14.1 50.8 14 51.2L11.6 55.8C11.4 56.2 10.4 56.2 9.70001 56.2H0.200012C0.100012 56.2 0 56.3 0 56.4C0 56.5 0.100012 56.5999 0.200012 56.5999H9.70001C10.3 56.5999 11.1 56.7 10.8 57.2L9.20001 60.0999C9.10001 60.2999 8.50002 60.4 7.80002 60.4H5.90002C5.80002 60.4 5.70001 60.4999 5.70001 60.5999C5.70001 60.6999 5.80002 60.8 5.90002 60.8H7.80002C8.30002 60.8 8.80001 60.9 8.60001 61.2L7.60001 63.0999C7.30001 63.5999 7.00001 64 6.20001 64H1.40002C-0.399976 64 -0.299988 65.2 1.20001 65.2H29.2C30 65.2 30 65.1 30.4 64.5L34.6 57.3H55.8C57.1 58.2 56.7 57 55.8 57ZM39.1 54.8C38.9 56 37.7 56.7999 36.2 57.2L34.6 57.5999L35.9 55.3C36.2 54.7 35.5 54.2999 34.7 55.2C29.3 61.5 27.6 64.4999 19.2 64.5999H17C16.3 64.5999 15.6 64.2999 16 63.7L19 58.2H30.2C31.7 58.2 31.3 57 30.4 57C29.8 57 29.2 56.6 28.7 55.9C28.6 55.7 28.3 54.9 28.7 54.3L33 48.5999H40.1L39.1 54.8ZM40.8 47.5999H33.8L42.6 36L40.8 47.5999Z" fill="#562385"/>
<path d="M146.9 51.1999C146.8 50.5999 146.6 50.9999 146.2 51.6999C146.1 51.8999 145.7 51.8999 145.3 51.8999H144.2C144.1 51.8999 144 51.9999 144 52.0999C144 52.1999 144.1 52.2999 144.2 52.2999H145.3C145.7 52.2999 145.7 52.5999 145.5 52.9999C144.7 54.5999 143.9 55.6999 142.9 57.0999C142.7 57.2999 142.3 57.4999 142 57.4999H140.9C140.8 57.4999 140.7 57.5999 140.7 57.6999C140.7 57.7999 140.8 57.8999 140.9 57.8999H142C142.6 57.8999 142 58.1999 141.9 58.3999C139.9 60.9999 138.6 62.1999 137.2 63.2999C137 63.3999 136.2 63.3999 135.7 63.3999H134.6C134.5 63.3999 134.4 63.4999 134.4 63.6999C134.4 63.7999 134.5 63.8999 134.6 63.8999H135.7C136.5 63.8999 135.9 64.3999 135.8 64.4999C132.7 66.9999 128.2 67.8999 126.1 67.5999C119.4 66.7999 118 61.5999 117.5 59.5999C117.4 59.1999 117.1 58.2999 117 57.7999C116.8 56.6999 119.8 56.3999 120.7 56.9999C122 57.8999 124.9 58.6999 127.3 58.6999C129.5 58.6999 133.9 57.0999 135.2 53.3999C136.5 49.5999 133.2 45.3999 131.8 43.8999C129.9 41.9999 128.2 39.0999 128.9 36.8999C129.5 35.2999 130.4 34.4999 132.4 34.4999C135 34.4999 136.9 36.1999 136.9 38.4999C136.9 38.6999 136.8 38.9999 136.6 38.9999H135.7C135.6 38.9999 135.5 39.0999 135.5 39.1999C135.5 39.2999 135.6 39.3999 135.7 39.3999H136.6C136.8 39.3999 137 39.5999 136.9 39.8999C136.7 40.6999 136.7 41.1999 136.5 41.9999C136.4 42.4999 137.1 42.7999 137.3 42.3999L141.4 35.1999C141.7 34.6999 141 34.4999 140.6 34.6999C139.5 35.0999 137.7 35.3999 137 34.8999C135.5 33.7999 134.1 33.0999 132 33.0999C128.4 33.0999 125.9 33.9999 124.2 36.9999C124.1 37.1999 123.7 37.1999 123.4 37.1999H122.7C122.6 37.1999 122.5 37.2999 122.5 37.3999C122.5 37.4999 122.6 37.5999 122.7 37.5999H123.3C123.6 37.5999 123.7 37.6999 123.6 37.9999C123.5 38.2999 123.4 38.4999 123.3 38.7999C122.9 40.0999 123 41.8999 123.7 43.4999C123.7 43.5999 123.6 43.6999 123.4 43.6999H122.3C122.2 43.6999 122.1 43.7999 122.1 43.8999C122.1 43.9999 122.2 44.0999 122.3 44.0999H123.4C123.9 44.0999 124 44.1999 124.2 44.3999C124.8 45.1999 125.4 45.7999 126.1 46.6999C126.3 46.9999 125.3 47.0999 124.8 47.0999H120.4C120.3 47.0999 120.2 47.1999 120.2 47.2999C120.2 47.3999 120.3 47.4999 120.4 47.4999H124.8C125.5 47.4999 126.7 47.4999 126.9 47.5999C128 48.7999 129.3 50.6999 129.5 52.2999C129.6 52.7999 129.4 52.9999 128.8 52.9999H128.2C128.1 52.9999 128 53.0999 128 53.1999C128 53.2999 128.1 53.3999 128.2 53.3999H128.7C129.2 53.3999 129.4 53.4999 129.3 53.7999C128.7 55.5999 127.9 56.9999 124.4 56.8999C120.7 56.8999 120 53.2999 121.1 49.4999C121.3 48.7999 121.1 48.3999 120.8 48.9999L118.2 52.9999C118.1 53.0999 117.9 53.2999 117.5 53.2999H117.1C117 53.2999 116.9 53.3999 116.9 53.4999C116.9 53.5999 117 53.6999 117.1 53.6999C117.4 53.6999 117.6 53.8999 117.4 54.0999L116.5 55.5999C115 52.0999 112.4 47.6999 111 46.0999V45.9999C114.4 45.7999 119.4 42.5999 120.3 39.6999C121.7 34.7999 116.9 32.8999 114.3 32.8999H102.8C101.3 32.8999 101.2 34.0999 102.6 34.0999C103.4 34.0999 104.1 34.7999 103.7 35.4999L101.1 40.0999C100.9 40.4999 100.1 40.4999 99.1002 40.4999H98.0002C97.9002 40.4999 97.8002 40.5999 97.8002 40.6999C97.8002 40.7999 97.9002 40.8999 98.0002 40.8999H99.1002C99.8002 40.8999 100.6 40.8999 100.4 41.4999L97.4002 46.8999C97.3002 47.1999 96.9002 47.1999 95.8002 47.1999H94.7002C94.6002 47.1999 94.5002 47.2999 94.5002 47.4999C94.5002 47.5999 94.6002 47.6999 94.7002 47.6999H95.8002C96.6002 47.6999 96.9002 47.7999 96.7002 48.1999L92.7002 55.4999C92.2002 55.9999 91.6002 56.0999 90.7002 56.0999C89.2002 56.0999 89.2002 57.2999 90.8002 57.2999H100.7C102.2 57.2999 101.8 56.0999 100.9 56.0999C100.4 56.0999 99.8002 55.0999 100.2 54.4999L105.2 44.9999H105.7C107.9 44.9999 108.5 48.6999 108.9 52.6999C108.9 52.9999 108.4 52.9999 107.3 52.9999H104.5C104.4 52.9999 104.3 53.0999 104.3 53.1999C104.3 53.2999 104.4 53.3999 104.5 53.3999H107.3C108 53.3999 109.1 53.3999 109.1 53.5999C109.3 55.3999 109.4 56.8999 109.8 58.2999C109.9 58.6999 109.1 58.6999 108.3 58.6999H104.7C104.6 58.6999 104.5 58.7999 104.5 58.8999C104.5 58.9999 104.6 59.0999 104.7 59.0999H108.3C109.4 59.0999 110 59.0999 110.1 59.2999C111.6 64.8999 118.2 69.3999 124.6 69.0999C130.1 68.8999 134.7 65.8999 137.1 63.9999C140.3 61.4999 144.9 56.1999 146.8 52.2999C146.4 52.7999 147 51.7999 146.9 51.1999ZM110 43.6999C109.2 44.2999 108 45.0999 107.8 44.7999C107.5 44.4999 106.5 43.7999 105.9 43.4999L110.5 35.0999C110.7 34.7999 110.9 34.5999 111.4 34.5999C113.2 34.5999 113.8 36.4999 112.9 38.8999C112.3 40.7999 111.3 42.5999 110 43.6999Z" fill="#562385"/>
<path d="M54.4002 26.3999C53.5002 27.5999 52.2002 27.8999 50.9002 27.8999H50.5001L52.9002 23.0999C53.0002 22.8999 53.3002 22.6999 53.6002 22.6999C53.9002 22.6999 53.9001 22.0999 53.5001 22.0999H49.7002C49.4002 22.0999 49.3002 22.6999 49.6002 22.6999C49.9002 22.6999 50.0002 23.0999 49.8002 23.3999L47.6002 27.6999C47.5002 27.8999 47.2002 27.9999 46.9002 28.0999C46.6002 28.1999 46.4002 28.7999 46.7002 28.7999H52.8002C53.3002 28.7999 53.4001 28.5999 53.5001 28.4999L54.7002 26.5999C55.0002 26.1999 54.6002 26.0999 54.4002 26.3999Z" fill="#562385"/>
<path d="M72.8 22.2C72.6 22.3 72.2 22.4 72 22.2C71.5 21.8 70.6001 21.5 70.1001 21.5C68.7001 21.5 67.6 21.8 67 23.1C66.5 24.3 67 25.2 68.3 25.8C68.8 26.1 69.6 26.4 69.3 27C69.1 27.5 68.5 27.5 68 27.5C67.3 27.5 66.3001 27 66.1001 26C66.0001 25.7 65.7001 25.8 65.6001 25.9L64.7 27.6C64.6 27.8 64.9001 28.1 65.1001 27.9C65.4001 27.6 66 27.5 66.3 27.7C66.7 28 67.9 28.5 68.5 28.5C70 28.5 70.9 28.1 71.7 26.9C72.4 25.8 72.0001 24.6 70.6001 24C69.9001 23.7 69.3001 23.1 69.6001 22.4C69.8001 22 70.4 22.1 70.7 22.1C71.3 22.2 72.1001 22.8 72.1001 23.3C72.1001 23.5 72.4 23.6 72.5 23.4L73 22.3C73.3 22.3 72.9 22.2 72.8 22.2Z" fill="#562385"/>
<path d="M115.2 23.9999L115.7 22.9999C115.9 22.5999 115.6 22.0999 114.9 22.0999H107.8C107.3 22.0999 107.4 22.5999 107.6 22.5999C108.1 22.5999 108.2 23.1999 107.9 23.5999L105.8 27.4999C105.5 27.8999 105.3 27.9999 104.8 27.9999C104.4 27.9999 104.3 28.4999 104.8 28.4999H112C112.3 28.4999 112.4 28.3999 112.5 28.1999L113.5 26.8999C113.7 26.5999 113.2 26.5999 113.1 26.6999C111.9 27.8999 110.5 27.8999 109.6 27.8999H108.8L109.8 25.6999H110C110.6 25.6999 111.4 25.6999 111.6 26.1999C111.7 26.2999 112 26.3999 112.1 26.1999L112.9 24.4999C113 24.2999 112.7 24.1999 112.6 24.3999C112.3 24.9999 110.8 24.7999 110.4 24.7999H110.2L111.4 22.3999H112.8C113.7 22.3999 114.4 22.9999 114.6 23.6999C114.6 23.9999 115.1 24.1999 115.2 23.9999Z" fill="#562385"/>
<path d="M96.9001 22.1001H94.4001C93.9001 22.1001 94.0001 22.6001 94.2001 22.6001C94.7001 22.6001 95.2001 23.2001 94.9001 23.8001L93.8 25.7001L91.5001 22.3001C91.3001 22.1001 91.0001 22.0001 90.7001 22.0001H88.2001C87.7001 22.0001 87.8001 22.5001 88.0001 22.5001C88.5001 22.5001 88.4 22.9001 88.3 23.2001L86.3 27.0001C86.2 27.3001 85.6001 27.3001 85.5001 27.0001L84.0001 22.0001C83.9001 21.8001 83 21.8001 82.8 22.0001L78.9001 25.2001H76.9001C76.5001 25.2001 76.3 25.4001 76.3 25.6001C76.3 25.8001 76.5001 26.0001 76.9001 26.0001H77.9001L76.9001 26.9001C76.3001 27.3001 75.7 27.9001 75.3 27.9001H75.2001C74.8001 27.9001 74.6001 28.0001 74.6001 28.3001C74.6001 28.6001 74.8001 28.7001 75.1001 28.7001H78.2001C78.8001 28.7001 78.7001 27.9001 78.4001 27.9001C78.1001 27.9001 77.5001 27.5001 78.0001 26.9001L78.9001 26.0001H80.8C81.9 26.0001 82.7001 27.3001 82.0001 27.7001L81.5001 28.0001C81.3001 28.1001 81.2001 28.7001 81.5001 28.7001H87.6001C88.1001 28.7001 88 28.1001 87.8 28.1001C87.2 28.1001 87.5001 27.2001 87.6001 27.0001L89.2001 24.0001L91.4001 28.3001C91.5001 28.6001 91.7001 28.7001 91.9001 28.7001H92.8C93.1 28.7001 93.2 28.5001 93.3 28.3001L95.9001 23.7001C96.3001 22.9001 96.6001 22.6001 97.1001 22.6001C97.3001 22.6001 97.5001 22.1001 96.9001 22.1001ZM79.9001 25.2001L82.3 23.3001V25.2001H79.9001Z" fill="#562385"/>
<path d="M60.9 21.8C58.8 21.8 56.6 22.9 56.1 25.1C55.7 27.1 57.1 29.1 59.5 29.1C61.8 29.1 63.9 27.6001 64.3 25.5001C64.7 23.2001 63.1 21.8 60.9 21.8ZM61.5 25.9001C60.8 27.2001 59.7 28.1 59 27.7C58.3 27.3 58.2 25.9 58.9 24.6C59.6 23.2 60.7 22.4 61.4 22.8C62.2 23.1 62.2 24.5001 61.5 25.9001Z" fill="#562385"/>
<path d="M104.2 25H101.5C101 25 101.1 25.5 101.3 25.5C101.5 25.5 101.7 25.6 101.7 26C101.7 27.1 101.2 27.5 100.3 27.5C99.3002 27.5 98.9002 26.2 99.6002 24.7C100 23.7 101.2 22.8 102.6 22.8C103.5 22.8 104.2 23 104.3 23.8C104.3 24 104.6 24 104.7 23.8L105.4 22.6C105.5 22.5 105.4 22.3 105.2 22.3C105 22.3 104.7 22.5 104.4 22.3C103.8 21.9 102.7 21.5 101.7 21.5C100.2 21.5 98.2002 21.8 96.8002 24.3C95.5002 26.5 97.4002 28.8 99.1002 28.8C100 28.8 101.1 28.1 101.8 27.8L102.5 28.3C102.6 28.4 102.8 28.6 103 28.6H103.3C103.5 28.6 103.6 28.3 103.7 28.1L104.8 25.5C104.9 25.2 104.8 25 104.2 25Z" fill="#562385"/>
<path d="M141.8 22.2C141.6 22.3 141.2 22.4 141 22.2C140.5 21.8 139.6 21.5 139.1 21.5C137.7 21.5 136.6 21.8 136 23.1C135.5 24.3 136 25.2 137.3 25.8C137.9 26.1 138.6 26.4 138.3 27C138.1 27.5 137.5 27.5 137 27.5C136.3 27.5 135.3 27 135.1 26C135 25.7 134.7 25.8 134.6 25.9L133.7 27.6C133.6 27.8 133.9 28.1 134.1 27.9C134.4 27.6 135 27.5 135.3 27.7C135.7 28 136.8 28.5 137.5 28.5C139 28.5 139.9 28.1 140.7 26.9C141.4 25.8 141 24.6 139.7 24C139 23.7 138.4 23.1 138.7 22.4C138.9 22 139.5 22.1 139.8 22.1C140.4 22.2 141.2 22.8 141.2 23.3C141.2 23.5 141.5 23.6 141.6 23.4L142.1 22.3C142.3 22.3 141.9 22.2 141.8 22.2Z" fill="#562385"/>
<path d="M122.7 26.3999C121.8 27.5999 120.5 27.8999 119.2 27.8999H118.8L121.2 23.0999C121.3 22.8999 121.6 22.6999 121.9 22.6999C122.2 22.6999 122.2 22.0999 121.8 22.0999H118C117.7 22.0999 117.6 22.6999 117.9 22.6999C118.2 22.6999 118.3 23.0999 118.1 23.3999L115.9 27.6999C115.8 27.8999 115.5 27.9999 115.2 28.0999C114.9 28.1999 114.7 28.7999 115 28.7999H121.1C121.6 28.7999 121.7 28.5999 121.8 28.4999L123 26.5999C123.3 26.1999 122.9 26.0999 122.7 26.3999Z" fill="#562385"/>
<path d="M131.9 22.5999C132.8 22.5999 133.5 23.1999 133.7 23.8999C133.8 24.0999 134.2 24.1999 134.3 23.9999L134.8 22.9999C135 22.5999 134.6 22.0999 134 22.0999H126.9C126.4 22.0999 126.5 22.5999 126.7 22.5999C127.2 22.5999 127.3 23.1999 127 23.5999L124.9 27.4999C124.6 27.8999 124.4 27.9999 123.9 27.9999C123.5 27.9999 123.4 28.4999 123.9 28.4999H131.1C131.4 28.4999 131.5 28.3999 131.6 28.1999L132.6 26.8999C132.8 26.5999 132.3 26.5999 132.2 26.6999C131 27.8999 129.6 27.8999 128.6 27.8999H127.8L128.8 25.6999H129C129.6 25.6999 130.4 25.6999 130.6 26.1999C130.7 26.2999 131 26.3999 131.1 26.1999L131.9 24.4999C132 24.2999 131.7 24.1999 131.6 24.3999C131.3 24.9999 129.8 24.7999 129.4 24.7999H129.2L130.4 22.3999L131.9 22.5999Z" fill="#562385"/>
<mask id="mask0_79_1162" style="mask-type:luminance" maskUnits="userSpaceOnUse" x="24" y="1" width="90" height="90">
<path d="M69.0999 90.8C93.4999 90.8 113.3 70.7 113.3 45.9C113.3 21.1 93.4999 1 69.0999 1C44.6999 1 24.8999 21.1 24.8999 45.9C24.8999 70.7 44.6999 90.8 69.0999 90.8Z" fill="white"/>
</mask>
<g mask="url(#mask0_79_1162)">
<path d="M89.2001 50.5C85.1001 55.5 82.7001 57.2 78.5001 57.2C77.1001 57.2 76.3001 56.9 76.7001 56.2L81.7001 46.2H83.6001C85.7001 46.2 85.4 48 84.8 50.4C84.7 50.7 85.0001 50.8 85.2001 50.5L89.9001 42.2C90.1001 41.7 89.5001 41.6 89.2001 42C86.8001 45.2 84.3 45 83.3 45H82.4001L87.7001 34.9H89.8C92.5 35.1 93.8001 37.4 93.0001 42.9H94.1001L98.0001 35.2C98.3001 34.6 97.7001 34 96.9001 34H70.4001C68.9001 34 68.8 35.2 70.3 35.2C71.5 35.2 71.4001 36.9 70.4001 37.7L59.1001 46.6L61.4001 57.1C61.6001 57.9 62.1001 58.3 63.0001 58.3H84.9001C85.8001 58.3 86.2001 57.9 86.5001 57.6L90.5001 50.7C91.2001 49.6 89.9001 49.7 89.2001 50.5ZM74.0001 45.7H72.1001C72.0001 45.7 71.9001 45.8 71.9001 45.9C71.9001 46 72.0001 46.1 72.1001 46.1H74.1001C74.8001 46.1 75.4001 46.2 75.2001 46.5L70.1001 56.2C69.5001 57.4 68.1001 57.1 67.9001 56.1L65.4001 43.1L74.2001 36.3C75.1001 35.5 76.8001 34.3 77.6001 34.3H79.5001C80.7001 34.3 81.1 34.8 80.8 35.5L80.5001 36.2C80.3001 36.6 79.6001 36.6 79.0001 36.6H77.9001C77.8001 36.6 77.7001 36.7 77.7001 36.8C77.7001 36.9 77.8001 37 77.9001 37H79.0001C79.5001 37 80.1 37 79.8 37.4L75.7001 45.2C75.5001 45.6 74.7001 45.7 74.0001 45.7Z" fill="#562385"/>
</g>
<mask id="mask1_79_1162" style="mask-type:luminance" maskUnits="userSpaceOnUse" x="24" y="1" width="90" height="90">
<path d="M69.0999 90.8C93.4999 90.8 113.3 70.7 113.3 45.9C113.3 21.1 93.4999 1 69.0999 1C44.6999 1 24.8999 21.1 24.8999 45.9C24.8999 70.7 44.6999 90.8 69.0999 90.8Z" fill="white"/>
</mask>
<g mask="url(#mask1_79_1162)">
<path d="M55.8 57C55.2 57 54.8 56.6 54.7 56.2C54.5 55.6 54.5 54.6 54.8 54.2L65 36.0999C65.2 35.7999 65.6 35.0999 66.1 35.0999C67 35.0999 67.4 33.9 65.9 33.9H57.7C56.2 33.9 56.2 35.0999 57.6 35.0999C58.2 35.0999 58.4 35.7 58.3 36L56 40.0999C55.7 40.5999 55.1 40.5999 54.4 40.5999H52.4C52.3 40.5999 52.2 40.7 52.2 40.8C52.2 40.9 52.3 41 52.4 41H54.3C54.8 41 55.2 41.2 54.9 41.8L47.4 55.5C46.9 56.3 45.8 56.4 45.8 55L48.5 34.9C48.6 34.3 48.4 33.8 47.8 33.8H43.8C43.3 33.8 43 34 42.8 34.3L41.4 36.0999C41.2 36.2999 40.8 36.3 40.4 36.3H37C36.9 36.3 36.8 36.4 36.8 36.5C36.8 36.6 36.9 36.7 37 36.7H39.8C40.3 36.7 40.9 36.8 40.7 37L36.8 41.9C36.7 42 36.3 42.0999 36.1 42.0999H35C34.9 42.0999 34.8 42.2 34.8 42.3C34.8 42.4 34.9 42.5 35 42.5H35.9C36.2 42.5 36.2 42.6 36.1 42.8L32.4 47.4C32.2 47.6 31.8 47.5999 31.5 47.5999H28.3C28.2 47.5999 28.1 47.7 28.1 47.8C28.1 47.9 28.2 48 28.3 48H31.1C31.5 48 31.8 48.1 31.6 48.4L26.4 54.9C25.4 56.1 20.7 56.8 19.8 56.8L37.4 23.9C37.6 23.5 38.2 22.9 38.9 22.9H42.6C44.4 22.9 44.3 21.7 42.8 21.7H24C22.5 21.7 22.4 22.9 24.2 22.9H27.7C28.7 22.9 29 23.5 28.8 24L28.3 24.9C28.1 25.2 27.9 25.3 26.9 25.3H20.8C20.7 25.3 20.6 25.4 20.6 25.5C20.6 25.6 20.7 25.7 20.8 25.7H26.9C27.2 25.7 27.7 25.8 27.4 26.4L26.5 28C26.4 28.2 26 28.4 25.5 28.4H22.7C22.6 28.4 22.5 28.4999 22.5 28.5999C22.5 28.6999 22.6 28.8 22.7 28.8H25.5C25.9 28.8 25.9 29.1 25.7 29.4L23.7 33.0999C23.5 33.3999 23.2 33.5 22.6 33.5H21.5C21.4 33.5 21.3 33.6 21.3 33.7C21.3 33.8 21.4 33.9 21.5 33.9H22.6C23 33.9 23.1 34.1 22.9 34.5L21.3 37.5C21.1 37.9 20.7 38.0999 19.6 38.0999H13.5C13.4 38.0999 13.3 38.2 13.3 38.3C13.3 38.4 13.4 38.5 13.5 38.5H19.6C20.3 38.5 20.5 38.8 20.3 39.3L17.1 45.3C16.9 45.6 16.4 45.5999 15.5 45.5999H9.40002C9.30002 45.5999 9.20001 45.7 9.20001 45.8C9.20001 45.9 9.30002 46 9.40002 46H15.5C16.2 46 16.7 46 16.5 46.4L14.7 49.8C14.4 50.3 13.4 50.3 13.1 50.3H11.2C11.1 50.3 11 50.4 11 50.5C11 50.6 11.1 50.7 11.2 50.7H13.1C13.8 50.7 14.1 50.8 14 51.2L11.6 55.8C11.4 56.2 10.4 56.2 9.70001 56.2H0.200012C0.100012 56.2 0 56.3 0 56.4C0 56.5 0.100012 56.5999 0.200012 56.5999H9.70001C10.3 56.5999 11.1 56.7 10.8 57.2L9.20001 60.0999C9.10001 60.2999 8.50002 60.4 7.80002 60.4H5.90002C5.80002 60.4 5.70001 60.4999 5.70001 60.5999C5.70001 60.6999 5.80002 60.8 5.90002 60.8H7.80002C8.30002 60.8 8.80001 60.9 8.60001 61.2L7.60001 63.0999C7.30001 63.5999 7.00001 64 6.20001 64H1.40002C-0.399976 64 -0.299988 65.2 1.20001 65.2H29.2C30 65.2 30 65.1 30.4 64.5L34.6 57.3H55.8C57.1 58.2 56.7 57 55.8 57ZM39.1 54.8C38.9 56 37.7 56.7999 36.2 57.2L34.6 57.5999L35.9 55.3C36.2 54.7 35.5 54.2999 34.7 55.2C29.3 61.5 27.6 64.4999 19.2 64.5999H17C16.3 64.5999 15.6 64.2999 16 63.7L19 58.2H30.2C31.7 58.2 31.3 57 30.4 57C29.8 57 29.2 56.6 28.7 55.9C28.6 55.7 28.3 54.9 28.7 54.3L33 48.5999H40.1L39.1 54.8ZM40.8 47.5999H33.8L42.6 36L40.8 47.5999Z" fill="#562385"/>
</g>
<mask id="mask2_79_1162" style="mask-type:luminance" maskUnits="userSpaceOnUse" x="24" y="1" width="90" height="90">
<path d="M69.0999 90.8C93.4999 90.8 113.3 70.7 113.3 45.9C113.3 21.1 93.4999 1 69.0999 1C44.6999 1 24.8999 21.1 24.8999 45.9C24.8999 70.7 44.6999 90.8 69.0999 90.8Z" fill="white"/>
</mask>
<g mask="url(#mask2_79_1162)">
<path d="M146.9 51.1999C146.8 50.5999 146.6 50.9999 146.2 51.6999C146.1 51.8999 145.7 51.8999 145.3 51.8999H144.2C144.1 51.8999 144 51.9999 144 52.0999C144 52.1999 144.1 52.2999 144.2 52.2999H145.3C145.7 52.2999 145.7 52.5999 145.5 52.9999C144.7 54.5999 143.9 55.6999 142.9 57.0999C142.7 57.2999 142.3 57.4999 142 57.4999H140.9C140.8 57.4999 140.7 57.5999 140.7 57.6999C140.7 57.7999 140.8 57.8999 140.9 57.8999H142C142.6 57.8999 142 58.1999 141.9 58.3999C139.9 60.9999 138.6 62.1999 137.2 63.2999C137 63.3999 136.2 63.3999 135.7 63.3999H134.6C134.5 63.3999 134.4 63.4999 134.4 63.6999C134.4 63.7999 134.5 63.8999 134.6 63.8999H135.7C136.5 63.8999 135.9 64.3999 135.8 64.4999C132.7 66.9999 128.2 67.8999 126.1 67.5999C119.4 66.7999 118 61.5999 117.5 59.5999C117.4 59.1999 117.1 58.2999 117 57.7999C116.8 56.6999 119.8 56.3999 120.7 56.9999C122 57.8999 124.9 58.6999 127.3 58.6999C129.5 58.6999 133.9 57.0999 135.2 53.3999C136.5 49.5999 133.2 45.3999 131.8 43.8999C129.9 41.9999 128.2 39.0999 128.9 36.8999C129.5 35.2999 130.4 34.4999 132.4 34.4999C135 34.4999 136.9 36.1999 136.9 38.4999C136.9 38.6999 136.8 38.9999 136.6 38.9999H135.7C135.6 38.9999 135.5 39.0999 135.5 39.1999C135.5 39.2999 135.6 39.3999 135.7 39.3999H136.6C136.8 39.3999 137 39.5999 136.9 39.8999C136.7 40.6999 136.7 41.1999 136.5 41.9999C136.4 42.4999 137.1 42.7999 137.3 42.3999L141.4 35.1999C141.7 34.6999 141 34.4999 140.6 34.6999C139.5 35.0999 137.7 35.3999 137 34.8999C135.5 33.7999 134.1 33.0999 132 33.0999C128.4 33.0999 125.9 33.9999 124.2 36.9999C124.1 37.1999 123.7 37.1999 123.4 37.1999H122.7C122.6 37.1999 122.5 37.2999 122.5 37.3999C122.5 37.4999 122.6 37.5999 122.7 37.5999H123.3C123.6 37.5999 123.7 37.6999 123.6 37.9999C123.5 38.2999 123.4 38.4999 123.3 38.7999C122.9 40.0999 123 41.8999 123.7 43.4999C123.7 43.5999 123.6 43.6999 123.4 43.6999H122.3C122.2 43.6999 122.1 43.7999 122.1 43.8999C122.1 43.9999 122.2 44.0999 122.3 44.0999H123.4C123.9 44.0999 124 44.1999 124.2 44.3999C124.8 45.1999 125.4 45.7999 126.1 46.6999C126.3 46.9999 125.3 47.0999 124.8 47.0999H120.4C120.3 47.0999 120.2 47.1999 120.2 47.2999C120.2 47.3999 120.3 47.4999 120.4 47.4999H124.8C125.5 47.4999 126.7 47.4999 126.9 47.5999C128 48.7999 129.3 50.6999 129.5 52.2999C129.6 52.7999 129.4 52.9999 128.8 52.9999H128.2C128.1 52.9999 128 53.0999 128 53.1999C128 53.2999 128.1 53.3999 128.2 53.3999H128.7C129.2 53.3999 129.4 53.4999 129.3 53.7999C128.7 55.5999 127.9 56.9999 124.4 56.8999C120.7 56.8999 120 53.2999 121.1 49.4999C121.3 48.7999 121.1 48.3999 120.8 48.9999L118.2 52.9999C118.1 53.0999 117.9 53.2999 117.5 53.2999H117.1C117 53.2999 116.9 53.3999 116.9 53.4999C116.9 53.5999 117 53.6999 117.1 53.6999C117.4 53.6999 117.6 53.8999 117.4 54.0999L116.5 55.5999C115 52.0999 112.4 47.6999 111 46.0999V45.9999C114.4 45.7999 119.4 42.5999 120.3 39.6999C121.7 34.7999 116.9 32.8999 114.3 32.8999H102.8C101.3 32.8999 101.2 34.0999 102.6 34.0999C103.4 34.0999 104.1 34.7999 103.7 35.4999L101.1 40.0999C100.9 40.4999 100.1 40.4999 99.0998 40.4999H97.9997C97.8997 40.4999 97.7997 40.5999 97.7997 40.6999C97.7997 40.7999 97.8997 40.8999 97.9997 40.8999H99.0998C99.7998 40.8999 100.6 40.8999 100.4 41.4999L97.3997 46.8999C97.2997 47.1999 96.8997 47.1999 95.7997 47.1999H94.6997C94.5997 47.1999 94.4997 47.2999 94.4997 47.4999C94.4997 47.5999 94.5997 47.6999 94.6997 47.6999H95.7997C96.5997 47.6999 96.8997 47.7999 96.6997 48.1999L92.6997 55.4999C92.1997 55.9999 91.5997 56.0999 90.6997 56.0999C89.1997 56.0999 89.1997 57.2999 90.7997 57.2999H100.7C102.2 57.2999 101.8 56.0999 100.9 56.0999C100.4 56.0999 99.7997 55.0999 100.2 54.4999L105.2 44.9999H105.7C107.9 44.9999 108.5 48.6999 108.9 52.6999C108.9 52.9999 108.4 52.9999 107.3 52.9999H104.5C104.4 52.9999 104.3 53.0999 104.3 53.1999C104.3 53.2999 104.4 53.3999 104.5 53.3999H107.3C108 53.3999 109.1 53.3999 109.1 53.5999C109.3 55.3999 109.4 56.8999 109.8 58.2999C109.9 58.6999 109.1 58.6999 108.3 58.6999H104.7C104.6 58.6999 104.5 58.7999 104.5 58.8999C104.5 58.9999 104.6 59.0999 104.7 59.0999H108.3C109.4 59.0999 110 59.0999 110.1 59.2999C111.6 64.8999 118.2 69.3999 124.6 69.0999C130.1 68.8999 134.7 65.8999 137.1 63.9999C140.3 61.4999 144.9 56.1999 146.8 52.2999C146.4 52.7999 147 51.7999 146.9 51.1999ZM110 43.6999C109.2 44.2999 108 45.0999 107.8 44.7999C107.5 44.4999 106.5 43.7999 105.9 43.4999L110.5 35.0999C110.7 34.7999 110.9 34.5999 111.4 34.5999C113.2 34.5999 113.8 36.4999 112.9 38.8999C112.3 40.7999 111.3 42.5999 110 43.6999Z" fill="#562385"/>
</g>
<mask id="mask3_79_1162" style="mask-type:luminance" maskUnits="userSpaceOnUse" x="24" y="1" width="90" height="90">
<path d="M69.0999 90.8C93.4999 90.8 113.3 70.7 113.3 45.9C113.3 21.1 93.4999 1 69.0999 1C44.6999 1 24.8999 21.1 24.8999 45.9C24.8999 70.7 44.6999 90.8 69.0999 90.8Z" fill="white"/>
</mask>
<g mask="url(#mask3_79_1162)">
<path d="M54.3997 26.3999C53.4997 27.5999 52.1997 27.8999 50.8997 27.8999H50.4997L52.8997 23.0999C52.9997 22.8999 53.2997 22.6999 53.5997 22.6999C53.8997 22.6999 53.8997 22.0999 53.4997 22.0999H49.6997C49.3997 22.0999 49.2997 22.6999 49.5997 22.6999C49.8997 22.6999 49.9997 23.0999 49.7997 23.3999L47.5997 27.6999C47.4997 27.8999 47.1997 27.9999 46.8997 28.0999C46.5997 28.1999 46.3997 28.7999 46.6997 28.7999H52.7997C53.2997 28.7999 53.3997 28.5999 53.4997 28.4999L54.6997 26.5999C54.9997 26.1999 54.5997 26.0999 54.3997 26.3999Z" fill="#562385"/>
</g>
<mask id="mask4_79_1162" style="mask-type:luminance" maskUnits="userSpaceOnUse" x="24" y="1" width="90" height="90">
<path d="M69.0999 90.8C93.4999 90.8 113.3 70.7 113.3 45.9C113.3 21.1 93.4999 1 69.0999 1C44.6999 1 24.8999 21.1 24.8999 45.9C24.8999 70.7 44.6999 90.8 69.0999 90.8Z" fill="white"/>
</mask>
<g mask="url(#mask4_79_1162)">
<path d="M72.8 22.2C72.6 22.3 72.2 22.4 72 22.2C71.5 21.8 70.6001 21.5 70.1001 21.5C68.7001 21.5 67.6 21.8 67 23.1C66.5 24.3 67 25.2 68.3 25.8C68.8 26.1 69.6 26.4 69.3 27C69.1 27.5 68.5 27.5 68 27.5C67.3 27.5 66.3001 27 66.1001 26C66.0001 25.7 65.7001 25.8 65.6001 25.9L64.7 27.6C64.6 27.8 64.9001 28.1 65.1001 27.9C65.4001 27.6 66 27.5 66.3 27.7C66.7 28 67.9 28.5 68.5 28.5C70 28.5 70.9 28.1 71.7 26.9C72.4 25.8 72.0001 24.6 70.6001 24C69.9001 23.7 69.3001 23.1 69.6001 22.4C69.8001 22 70.4 22.1 70.7 22.1C71.3 22.2 72.1001 22.8 72.1001 23.3C72.1001 23.5 72.4 23.6 72.5 23.4L73 22.3C73.3 22.3 72.9 22.2 72.8 22.2Z" fill="#562385"/>
</g>
<mask id="mask5_79_1162" style="mask-type:luminance" maskUnits="userSpaceOnUse" x="24" y="1" width="90" height="90">
<path d="M69.0999 90.8C93.4999 90.8 113.3 70.7 113.3 45.9C113.3 21.1 93.4999 1 69.0999 1C44.6999 1 24.8999 21.1 24.8999 45.9C24.8999 70.7 44.6999 90.8 69.0999 90.8Z" fill="white"/>
</mask>
<g mask="url(#mask5_79_1162)">
<path d="M115.2 23.9999L115.7 22.9999C115.9 22.5999 115.6 22.0999 114.9 22.0999H107.8C107.3 22.0999 107.4 22.5999 107.6 22.5999C108.1 22.5999 108.2 23.1999 107.9 23.5999L105.8 27.4999C105.5 27.8999 105.3 27.9999 104.8 27.9999C104.4 27.9999 104.3 28.4999 104.8 28.4999H112C112.3 28.4999 112.4 28.3999 112.5 28.1999L113.5 26.8999C113.7 26.5999 113.2 26.5999 113.1 26.6999C111.9 27.8999 110.5 27.8999 109.6 27.8999H108.8L109.8 25.6999H110C110.6 25.6999 111.4 25.6999 111.6 26.1999C111.7 26.2999 112 26.3999 112.1 26.1999L112.9 24.4999C113 24.2999 112.7 24.1999 112.6 24.3999C112.3 24.9999 110.8 24.7999 110.4 24.7999H110.2L111.4 22.3999H112.8C113.7 22.3999 114.4 22.9999 114.6 23.6999C114.6 23.9999 115.1 24.1999 115.2 23.9999Z" fill="#562385"/>
</g>
<mask id="mask6_79_1162" style="mask-type:luminance" maskUnits="userSpaceOnUse" x="24" y="1" width="90" height="90">
<path d="M69.0999 90.8C93.4999 90.8 113.3 70.7 113.3 45.9C113.3 21.1 93.4999 1 69.0999 1C44.6999 1 24.8999 21.1 24.8999 45.9C24.8999 70.7 44.6999 90.8 69.0999 90.8Z" fill="white"/>
</mask>
<g mask="url(#mask6_79_1162)">
<path d="M96.9001 22.1001H94.4001C93.9001 22.1001 94.0001 22.6001 94.2001 22.6001C94.7001 22.6001 95.2001 23.2001 94.9001 23.8001L93.8 25.7001L91.5001 22.3001C91.3001 22.1001 91.0001 22.0001 90.7001 22.0001H88.2001C87.7001 22.0001 87.8001 22.5001 88.0001 22.5001C88.5001 22.5001 88.4 22.9001 88.3 23.2001L86.3 27.0001C86.2 27.3001 85.6001 27.3001 85.5001 27.0001L84.0001 22.0001C83.9001 21.8001 83 21.8001 82.8 22.0001L78.9001 25.2001H76.9001C76.5001 25.2001 76.3 25.4001 76.3 25.6001C76.3 25.8001 76.5001 26.0001 76.9001 26.0001H77.9001L76.9001 26.9001C76.3001 27.3001 75.7 27.9001 75.3 27.9001H75.2001C74.8001 27.9001 74.6001 28.0001 74.6001 28.3001C74.6001 28.6001 74.8001 28.7001 75.1001 28.7001H78.2001C78.8001 28.7001 78.7001 27.9001 78.4001 27.9001C78.1001 27.9001 77.5001 27.5001 78.0001 26.9001L78.9001 26.0001H80.8C81.9 26.0001 82.7001 27.3001 82.0001 27.7001L81.5001 28.0001C81.3001 28.1001 81.2001 28.7001 81.5001 28.7001H87.6001C88.1001 28.7001 88 28.1001 87.8 28.1001C87.2 28.1001 87.5001 27.2001 87.6001 27.0001L89.2001 24.0001L91.4001 28.3001C91.5001 28.6001 91.7001 28.7001 91.9001 28.7001H92.8C93.1 28.7001 93.2 28.5001 93.3 28.3001L95.9001 23.7001C96.3001 22.9001 96.6001 22.6001 97.1001 22.6001C97.3001 22.6001 97.5001 22.1001 96.9001 22.1001ZM79.9001 25.2001L82.3 23.3001V25.2001H79.9001Z" fill="#562385"/>
</g>
<mask id="mask7_79_1162" style="mask-type:luminance" maskUnits="userSpaceOnUse" x="24" y="1" width="90" height="90">
<path d="M69.0999 90.8C93.4999 90.8 113.3 70.7 113.3 45.9C113.3 21.1 93.4999 1 69.0999 1C44.6999 1 24.8999 21.1 24.8999 45.9C24.8999 70.7 44.6999 90.8 69.0999 90.8Z" fill="white"/>
</mask>
<g mask="url(#mask7_79_1162)">
<path d="M60.9 21.8C58.8 21.8 56.6 22.9 56.1 25.1C55.7 27.1 57.1 29.1 59.5 29.1C61.8 29.1 63.9 27.6001 64.3 25.5001C64.7 23.2001 63.1 21.8 60.9 21.8ZM61.5 25.9001C60.8 27.2001 59.7 28.1 59 27.7C58.3 27.3 58.2 25.9 58.9 24.6C59.6 23.2 60.7 22.4 61.4 22.8C62.2 23.1 62.2 24.5001 61.5 25.9001Z" fill="#562385"/>
</g>
<mask id="mask8_79_1162" style="mask-type:luminance" maskUnits="userSpaceOnUse" x="24" y="1" width="90" height="90">
<path d="M69.0999 90.8C93.4999 90.8 113.3 70.7 113.3 45.9C113.3 21.1 93.4999 1 69.0999 1C44.6999 1 24.8999 21.1 24.8999 45.9C24.8999 70.7 44.6999 90.8 69.0999 90.8Z" fill="white"/>
</mask>
<g mask="url(#mask8_79_1162)">
<path d="M104.2 25H101.5C101 25 101.1 25.5 101.3 25.5C101.5 25.5 101.7 25.6 101.7 26C101.7 27.1 101.2 27.5 100.3 27.5C99.2997 27.5 98.8997 26.2 99.5997 24.7C99.9997 23.7 101.2 22.8 102.6 22.8C103.5 22.8 104.2 23 104.3 23.8C104.3 24 104.6 24 104.7 23.8L105.4 22.6C105.5 22.5 105.4 22.3 105.2 22.3C105 22.3 104.7 22.5 104.4 22.3C103.8 21.9 102.7 21.5 101.7 21.5C100.2 21.5 98.1997 21.8 96.7997 24.3C95.4997 26.5 97.3997 28.8 99.0997 28.8C99.9997 28.8 101.1 28.1 101.8 27.8L102.5 28.3C102.6 28.4 102.8 28.6 103 28.6H103.3C103.5 28.6 103.6 28.3 103.7 28.1L104.8 25.5C104.9 25.2 104.8 25 104.2 25Z" fill="#562385"/>
</g>
<path d="M103.8 16.8C103.3 16.2 102.5 14.8 97.1002 10.1C89.1002 3.09998 78.5002 0 68.6002 0C61.3002 0 54.8002 1.59998 47.7002 5.59998C38.6002 10.6 34.9002 16.3 34.0002 17.5C33.3002 18.4 33.2002 18.9 33.7002 19.1C34.0002 19.3 34.6002 18.6 35.2002 17.9C37.9002 14.3 41.4002 10.8 45.2002 8.69998C46.4002 8.89998 48.0002 10.5 48.6002 11.3C46.2002 12.6 42.3002 15.6 40.8002 16.8C39.5002 17.8 39.1002 18.4 39.4002 18.8C39.7002 19.1 40.7002 18.5 41.5002 17.8C42.9002 16.6 47.2002 13.6 49.3002 12.5C50.7002 14.2 50.3002 17.3 49.8002 18C49.5002 18.4 49.5002 18.7 49.8002 18.9C50.1002 19.1 50.4002 18.6 50.8002 18C51.8002 16.6 51.4002 13.2 50.5002 11.9C53.1002 10.3 56.8002 9.19998 59.0002 8.69998C59.2002 9.09998 61.9002 17 62.4002 18.4C62.7002 19.2 63.0002 20.1 63.5002 20C63.9002 19.9 63.6002 19 63.3002 18.2C62.9002 17.1 60.9002 10.5 60.2002 8.5C60.9002 8.1 65.4002 7.19998 66.5002 7.19998C66.0002 10.1 68.0002 11.3 70.3002 12.8C71.5002 13.6 79.4002 18.1 81.0002 19.1C81.9002 19.7 82.7002 20 82.9002 19.8C83.1002 19.5 82.5002 18.8 81.6002 18.3C80.9002 17.9 73.6002 13.7 70.6002 11.8C68.4002 10.4 67.3002 9 67.8002 7C68.5002 6.8 70.7002 6.79999 73.0002 6.79999C88.5002 6.89999 100.9 15.8 102.3 17.2C103 17.9 104 18.5 104.4 18.3C104.6 18 104.2 17.2 103.8 16.8ZM49.8002 10.7C49.4002 9.99998 47.4002 8.19999 46.3002 7.79999C48.8002 5.99999 54.6002 3.29999 56.8002 2.89999C57.2002 3.49999 58.2002 6.19999 58.5002 7.29999C56.5002 7.79999 51.4002 9.59998 49.8002 10.7ZM66.7002 5.69998C64.7002 5.79998 61.0002 6.6 59.7002 7C59.4002 6.1 58.4002 3.4 58.1002 2.5C61.8002 1.4 66.1002 1.09999 69.5002 1.39999C68.6002 2.09999 67.0002 4.89998 66.7002 5.69998ZM76.8002 5.59998C73.4002 5.39998 70.7002 5.3 68.3002 5.5C69.0002 3.7 70.4002 2.09999 71.5002 1.39999C73.8002 1.49999 76.2002 1.79998 78.0002 2.19998C84.0002 3.39998 93.3002 6.99999 97.4002 12.4C91.9002 8.89999 83.0002 6.09998 76.8002 5.59998Z" fill="black"/>
<path d="M107.2 70C107.8 68.9 108.2 68.3 107.7 68.1C107.2 67.9 106.8 68.8 106.3 69.8C104.5 72.9 102.5 75.5 98.0002 79.6C93.0002 84.1 87.4002 86.6999 85.4002 87.3999C83.7002 82.6999 77.3002 62.5 77.1002 61.9C76.8002 61 76.6002 60.8 76.3002 60.9C76.0002 61 76.2002 61.5 76.3002 62.2C76.5002 63 84.1002 86.8 84.4002 87.7C82.9002 88.5 76.7002 90.2 72.4002 90.3C68.6002 90.4 64.1002 90.3 61.8002 89.8C59.1002 87.6 53.1002 79.1 50.8002 74.5C48.1002 69.1 46.3002 64.2 45.8002 62.1C45.6002 61.1 45.3002 60.4 44.8002 60.5C44.3002 60.6 44.6002 61.4 44.9002 62.5C45.7002 65.3 47.0002 69.2 49.9002 74.8C52.9002 80.7 58.2002 87.7 59.8002 89.5C54.9002 88.5 49.0002 86.2 43.3002 82C38.4002 78.4 34.3002 73.8 32.2002 70.4C31.8002 69.8 31.4002 69 30.9002 69.4C30.7002 69.6 31.0002 70.2 31.3002 70.9C34.4002 76.4 41.8002 84.0999 51.3002 88.3999C62.4002 93.3999 74.5002 93.0999 85.4002 88.8999C94.9002 84.9999 103.1 77.4 107.2 70Z" fill="black"/>
</svg>
