<svg width="113" height="117" viewBox="0 0 113 117" fill="none" xmlns="http://www.w3.org/2000/svg">
<path d="M108.3 59.8C109 58.2 111.4 52.2 111.4 52.2L101.1 57.9C101 58 98 59.6 93.7 61.5C96.1 55.5 98.1 49.4 99.7 43.2C103.3 29.3 105.3 14.1 105.4 13.4L106.2 7.29999C106.2 7.29999 86.7 12.7 84.9 13.2C78 4.9 67.3 0 56.2 0C44.9 0 34.3 4.89999 27.4 13.3C25.5 12.8 6 7.29999 6 7.29999L6.79999 13.4C6.79999 13.6 8.89998 29.3 12.7 43.3C14.4 49.3 16.4 55.2 18.8 61C14.2 59 10.3 57.2 10.2 57.1L0.600006 52.5C0.600006 52.5 2.9 58.3 3.5 59.8C3.3 59.8 0 58.5 0 58.5L3.19998 67.1V67C3.39998 67.7 4.80001 71.3 15.1 99.1L16.6 102.9C16.6 102.9 18.9 102.1 19.6 101.9C20.1 103.4 21.7 107.4 21.7 107.4L25.9 105.3C29.1 103.7 35.9 100.9 41.4 100C48 109 53.1 113.6 53.4 113.8L56.2 116.4L59 113.8C59.3 113.6 64.4 108.7 70.8 100C75.7 100.7 80.5 102.3 84.9 104.7L89 106.9L90.8 102.7C90.9 102.3 91.1 102 91.2 101.6C91.5 101.7 93.5 102.4 93.5 102.4L95 98.6C95.3 97.8 101.9 82.5 108.3 67.6L112.5 57.7C112.4 57.9 108.3 59.8 108.3 59.8Z" fill="white"/>
<path d="M101.9 59.4001C98.1998 61.3001 94.3998 63.1001 90.4998 64.6001C93.5998 57.5001 96.0998 50.2001 98.0998 42.8001C101.7 28.9001 103.7 13.4001 103.8 13.2001L104.2 9.6001L100.7 10.6001C100.7 10.6001 57.1998 22.6001 55.8998 23.0001C54.5998 22.7001 8.09982 9.7001 8.09982 9.7001L8.59982 13.3001C8.59982 13.5001 10.5998 29.0001 14.3998 43.0001C16.6998 51.5001 19.3998 58.1001 21.9998 64.3001C15.6998 61.9001 9.59982 58.9001 9.49982 58.9001L3.7998 56.2001L6.09982 62.0001C11.5998 75.9001 14.4998 83.5001 18.0998 93.1001L22.6998 105.4L25.0998 104.1C28.7998 102.3 36.3998 99.3001 42.1998 98.5001C48.8998 107.8 54.1998 112.6 54.4998 112.8L56.0998 114.3L57.6998 112.8C57.9998 112.6 63.3998 107.5 69.8998 98.5001C76.6998 99.2001 82.5998 102 85.5998 103.6L87.9998 104.9L88.9998 102.4C91.6998 95.8001 105.1 62.8001 105.3 62.5001L107.9 56.1001L101.9 59.4001Z" fill="black"/>
<path d="M106.8 61.0001C106.7 61.1001 95.8999 65.6 87.0999 67.8C90.4999 59.9 93.4999 52.8 96.2999 42.3C99.8999 28.5 101.8 13.1001 101.9 12.9001L102 11.8L101 12.1001C101 12.1001 56.0999 24.5001 55.6999 24.6001C55.3999 24.5001 9.8999 11.8 9.8999 11.8L9.99991 12.9001C10.0999 13.1001 12.0999 28.5001 15.7999 42.4001C18.2999 51.5001 21.1999 58.4001 23.9999 65.1001C23.9999 65.1001 24.4999 66.3 24.8999 67.3C17.2999 65.4 6.9999 61.8 6.8999 61.7L5.3999 61.2L5.8999 62.6001C10.3999 74.6001 12.6999 81.0001 15.1999 87.9001L20.0999 101.6L20.7999 101.4C27.8999 99.3001 35.1999 97.7001 42.5999 96.8C49.1999 106.3 55.2999 111.6 55.2999 111.6L55.7999 112L56.2999 111.6C60.9999 107.1 65.1999 102.1 68.8999 96.8C74.6999 97.2001 85.5999 99.7001 89.7999 101.3L90.4999 101.6L90.7999 100.9C93.4999 94.4001 107.5 62.3001 107.6 62.0001L108.3 60.3L106.8 61.0001Z" fill="white"/>
<path d="M84.7002 69.7999L85.3002 68.4999C89.1002 59.6999 92.1002 52.7999 95.0002 41.8999C98.0002 30.2999 99.9002 17.4999 100.4 13.8999C98.4002 14.3999 56.0002 26.0999 56.0002 26.0999L55.8002 26.1999C55.8002 26.1999 13.8002 14.4999 11.7002 13.9999C12.2002 17.7999 14.1002 30.4999 17.4002 42.1999C19.8002 51.1999 22.7002 57.9999 25.5002 64.5999L27.5002 69.3999L43.5002 95.2999L43.8002 95.6999C49.3002 103.7 54.5002 108.7 56.0002 110.2C57.5002 108.8 62.5002 103.8 68.2002 95.8999L68.4002 95.5999L84.7002 69.7999Z" fill="#C4CED4"/>
<path d="M25.5002 54.1001C25.1002 53.5001 23.2002 50.6 23.2002 45.7V45.3C21.9002 41.8 21.2002 38.1001 21.2002 34.4001C21.2002 25.3001 25.1002 17.1 31.4002 11.1C45.3002 -1.79995 66.8002 -1.79995 80.6002 11.1C87.1002 17.1 90.8002 25.5001 90.9002 34.4001C90.9002 37.7001 90.4002 41.0001 89.3002 44.1001C89.3002 50.1001 87.6002 56.0001 84.3002 61.0001C84.1002 61.2001 83.9002 61.4001 83.6002 61.5001H83.5002C83.4002 61.6001 83.4002 61.6 83.4002 61.7C83.4002 61.7 83.3002 62.1001 83.2002 62.4001L83.3002 62.3L83.1002 62.5001C76.8002 71.0001 66.9002 75.9001 56.4002 75.9001C42.2002 75.9001 29.9002 66.7001 25.5002 54.1001Z" fill="black"/>
<path d="M103.2 63.9C103 64 80.9999 73.4 55.7999 73.3C33.5999 73.2 8.49989 63.7 8.19989 63.6L2.8999 61.6L4.7999 66.7C4.7999 66.9 4.79989 66.9 16.6999 98.8L17.5999 101.1L19.8999 100.4C31.4999 96.8 43.4999 94.9 55.6999 94.9C71.0999 94.9 84.4999 98.1 90.0999 100L92.3999 100.8L93.2999 98.5C93.6999 97.6 101.5 79.5 106.6 67.4L109.2 61.5L103.2 63.9Z" fill="#007DC5"/>
<path d="M103.4 66.9001L101.2 67.7C101.2 67.7 96.3001 69.5001 96.2001 69.5001C95.0001 69.9001 93.8001 70.5 92.8001 71.3C92.3001 71.8 91.8001 72.3001 91.4001 72.9001C91.5001 72.8001 91.5001 72.6001 91.5001 72.5001L92.2001 70.7L90.3001 71.2L85.8001 72.4001C85.4001 72.5001 82.3001 73.1 81.3001 73.3L80.3001 73.5001L75.0001 74.4001C74.7001 74.4001 72.7001 74.8 71.6001 75.8C71.4001 76.1 71.2001 76.3001 71.0001 76.6001L71.3001 74.8L69.9001 75.0001L65.7001 75.4001L65.5001 76.5001C65.4001 76.4001 65.3001 76.2001 65.1001 76.1001C64.3001 75.5001 62.9001 75.5001 62.5001 75.6001L56.2001 75.8L51.1001 75.7C50.0001 75.7 49.0001 76.1 48.2001 76.8C48.0001 77 47.9001 77.2 47.8001 77.3V76.3L47.7001 75.4001C47.7001 75.4001 42.6001 74.9001 42.4001 74.9001L36.2001 74.1001L36.5001 75.5001L36.6001 75.9001C35.2001 74.3001 33.0001 73.7 32.9001 73.7C32.8001 73.7 26.5001 72.3 26.5001 72.3L26.9001 73.9001L27.2001 75.1001C27.0001 74.8001 26.9001 74.5 26.7001 74.2C25.8001 73 24.6001 72.0001 23.2001 71.5001C21.6001 71.0001 18.5001 70.2 18.4001 70.2L16.6001 69.8C15.0001 69.1 11.3001 68.0001 10.1001 67.5001L8.1001 66.8L8.90009 68.8L19.3001 97.0001C19.3001 97.0001 23.4001 95.9 23.6001 95.8C23.6001 95.8 27.9001 94.8 28.2001 94.7C28.4001 94.6 32.7001 93.9001 32.7001 93.9001V93.8C33.9001 93.6 36.3001 93.3 36.5001 93.3C36.7001 93.2 38.8001 92.9 40.0001 92.8L44.3001 92.4001C44.7001 92.3001 46.1001 92.2001 46.9001 91.6001C47.2001 91.4001 47.4001 91.2001 47.6001 90.9001L47.7001 92.1001L52.9001 91.9001C53.1001 91.8001 54.5001 91.7001 55.3001 90.9001C55.4001 90.8001 55.5001 90.7001 55.6001 90.5001L55.5001 91.9001C55.5001 91.9001 59.5001 92.0001 59.7001 92.0001L64.4001 92.1001L67.8001 92.4001L72.1001 92.9001C73.2001 93.0001 74.2001 92.8 75.1001 92.3C75.2001 92.2 75.3001 92.1001 75.4001 92.0001L75.1001 93.3L79.4001 94.1001V94.0001C79.6001 94.1001 82.6001 94.6 83.3001 94.7L83.7001 94.9001C83.8001 94.9001 86.0001 95.4 87.6001 95.2C89.6001 95 91.7001 93.4 92.6001 91.2L96.9001 81.3C97.3001 81 103.4 66.9001 103.4 66.9001Z" fill="white"/>
<path d="M64.7998 91.2001L67.4998 91.4001L70.0998 76.1001L66.5998 76.4001L64.7998 91.2001Z" fill="black"/>
<path d="M76.0998 77.2L74.7998 82.6L78.1998 82.5L80.4998 74.5L75.1998 75.4C75.1998 75.4 73.2998 75.7 72.3998 76.6C71.1998 77.8 70.8998 80 70.8998 80L68.7998 91.4L72.1998 91.8C73.0998 91.9 73.8998 91.7 74.6998 91.4C75.4998 91 75.9998 90.1 76.2998 89.3C76.5998 88.5 77.3998 85.2 77.3998 85.2H74.2998L73.5998 88.5C73.4998 89 73.2998 89.4 73.0998 89.8C72.6998 90.2 72.1998 90.4 71.6998 90.3L73.8998 80.1C74.0998 79.4 74.3998 78.6 74.7998 78C74.9998 77.5 75.4998 77.2 76.0998 77.2Z" fill="black"/>
<path d="M82.0002 82.9L84.9002 73.7L81.9002 74.4L76.7002 92.4L79.0002 92.7L81.4002 85L82.1002 84.9C82.1002 84.9 82.6002 85.1 82.6002 85.5C82.6002 85.8 82.5002 86.2 82.4002 86.5L80.3002 92.9L83.0002 93.4L85.3002 86.8C85.5002 86.3 85.6002 85.7 85.6002 85.2C85.5002 84.7 85.4002 84.2 85.1002 83.7C85.1002 83.7 85.6002 83.7 86.4002 82.9C87.2002 82.2 87.2002 81.6 87.3002 81.1C87.5002 80.6 90.6002 72.2 90.6002 72.2L86.6002 73.2L84.3002 80.6C84.2002 81.1 84.0002 81.5 83.8002 81.9C83.4002 82.4 83.1002 82.7 82.9002 82.7C82.6002 82.9 82.3002 82.9 82.0002 82.9Z" fill="black"/>
<path d="M95.6002 73.8L93.0002 80.6L96.5002 80.4L101.5 68.7L96.5002 70.5C95.4002 70.9 94.3002 71.4 93.4002 72.1C92.4002 73.2 91.5002 74.4 90.8002 75.7C90.5002 76.4 89.4002 78.9 89.2002 79.7C89.0002 80.5 87.3002 85 87.3002 85H91.3002L89.6002 89.5C89.4002 90.2 89.1002 90.8 88.7002 91.3C88.3002 91.8 87.7002 92.1 87.1002 92.2L89.3002 86.4H86.9002L84.2002 93.6C85.3002 93.9 86.5002 94 87.7002 94C89.3002 93.8 91.1002 92.6 91.9002 90.6C92.8002 88.7 95.6002 82.1 95.6002 82.1L90.9002 82.4L92.4002 78.2C92.4002 78.2 93.4002 75.8 94.1002 74.9C94.5002 74.6 95.0002 74.2 95.6002 73.8Z" fill="black"/>
<path d="M9.8999 68.5L20.0999 95.8L23.0999 94.9L15.4999 72.8C15.4999 72.8 16.5999 72.9 17.5999 74.6C18.2999 75.9 18.8999 77.3 19.2999 78.7C19.5999 79.8 24.3999 94.5 24.3999 94.5L27.3999 93.8L21.5999 74.4C21.5999 74.4 22.2999 74.4 23.0999 75.7C23.4999 76.5 23.8999 77.3 24.1999 78.1L28.6999 93.6L31.5999 93L27.7999 78.7C27.7999 78.7 26.8999 76.1 25.9999 74.8C25.2999 73.7 24.1999 72.9 22.9999 72.5C21.4999 72 18.2999 71.1 18.2999 71.1L18.7999 72.6C18.1999 71.9 17.4999 71.3 16.6999 70.9C15.7999 70.5 9.8999 68.5 9.8999 68.5Z" fill="black"/>
<path d="M33.7002 83.5001L32.1002 76.4001C32.7002 76.5001 33.2002 76.8 33.6002 77.2C34.2002 77.7 34.4002 79.3 34.4002 79.3L35.2002 83.5001H33.7002ZM37.1002 92.2L39.7002 91.9001L37.5002 80.5001C37.5002 80.5001 37.0002 78.0001 36.4002 77.0001C35.3002 75.3001 32.9002 74.7 32.9002 74.7L28.2002 73.8L33.0002 92.9001L35.9002 92.5001L34.1002 85.3H35.8002L37.1002 92.2Z" fill="black"/>
<path d="M37.7998 75.3999L41.0998 91.6999L44.4998 91.2999C44.4998 91.2999 46.0998 91.1999 46.5998 90.8999C47.1998 90.4999 47.4998 89.7999 47.4998 89.0999L47.0998 76.3999L43.6998 76.0999L44.8998 88.0999C44.8998 88.0999 44.9998 89.1999 44.4998 89.6999C44.2998 89.9999 43.8998 90.0999 43.4998 90.0999L41.7998 75.8999L37.7998 75.3999Z" fill="black"/>
<path d="M48.9001 91L53.0002 90.8C53.7002 90.7 54.3001 90.5 54.8001 90C55.2001 89.5 55.5002 88.9 55.6002 88.2L55.7001 85.9H52.9001L53.0002 88.2C53.0002 88.6 52.9001 89 52.7001 89.3C52.4001 89.6 51.5002 89.6 51.5002 89.6V85H55.7001L55.8001 83.6H51.4001V79.6C51.4001 79.3 51.5001 79 51.7001 78.7C52.1001 78.5 52.5002 78.4 53.0002 78.4V82.5H55.9001L56.3001 76.6L51.4001 76.5C50.6001 76.5 49.8001 76.8 49.2001 77.3C48.2001 78.2 48.3001 80.3 48.3001 80.3L48.9001 91Z" fill="black"/>
<path d="M61.8 78.9L61.6 82.5C61.6 82.8 61.5 83 61.4 83.2C61.3 83.4 61.1 83.5 61 83.5L60 83.4L60.3 78.1L61 78C61.2 78 61.4 78.1 61.6 78.2C61.8 78.4 61.8 78.9 61.8 78.9ZM64.6 77.2C64.1 76.7 62.8 76.7 62.8 76.7L57.5 76.9L57 90.9L59.7 91L60 85.2C60 85.2 60.9 84.9 61.3 85.5C61.5 85.7 61.5 86 61.5 86.3L61.2 90.9L63.8 91.1L64.3 86.4C64.4 85.9 64.4 85.4 64.2 85C64 84.7 63.7 84.4 63.4 84.3C63.4 84.3 63.8 84.3 64.3 83.7C64.7 83.3 64.9 82.7 64.9 82.1L65.2 78.8C65 78.9 65.2 77.8 64.6 77.2Z" fill="black"/>
<path d="M62.3002 97.2001L65.6002 96.4001L62.2002 96.1001C62.0002 96.1001 58.9002 95.8001 57.3002 95.8001C57.1002 95.1001 55.7002 91.1001 55.7002 91.1001L55.2002 92.7001C55.1002 92.8001 54.4002 94.8001 54.1002 95.9001C52.3002 95.9001 49.8002 96.1001 49.8002 96.1001L46.2002 96.5001L49.7002 97.3001C50.8002 97.5001 53.0002 98.3001 53.1002 99.2001C52.8002 100.3 52.1002 102.2 52.1002 102.2L51.4002 103.9C51.4002 103.9 55.2002 101.2 55.7002 100.9C56.2002 101.2 59.9002 103.8 59.9002 103.8C59.9002 103.8 58.4002 99.4001 58.3002 99.0001C58.7002 98.4001 60.6002 97.6001 62.3002 97.2001Z" fill="black"/>
<path d="M57.4 98.8999C57.7 97.9999 59.2 97.2999 60.5 96.7999C59.2 96.6999 57.7 96.5999 56.9 96.5999H56.7C56.7 96.5999 56 94.7999 55.7 93.8999C55.4 94.6999 55 95.8999 54.8 96.4999L54.7 96.6999H54.5C53.6 96.6999 52.4 96.7999 51.5 96.7999C52.6 97.2999 53.9 97.9999 54.1 98.9999V99.1999C53.9 99.7999 53.6 100.8 53.3 101.5C54.2 100.8 55.7 99.7999 55.7 99.7999C55.7 99.7999 57.4 100.9 58.3 101.5C57.9 100.6 57.4 99.0999 57.4 99.0999V98.8999Z" fill="white"/>
<path d="M23.1001 34.4001C23.1001 17.2001 37.9001 3.30005 56.1001 3.30005C74.3001 3.30005 89.1001 17.3001 89.1001 34.4001C89.1001 51.5001 74.3001 65.5001 56.1001 65.5001C37.9001 65.5001 23.1001 51.5001 23.1001 34.4001Z" fill="white"/>
<path d="M36.1999 15.8999L37.5999 14.7999C38.4999 14.0999 38.7999 13.0999 38.2999 12.4999C37.5999 11.6999 36.5999 11.9999 35.4999 12.7999L34.3999 13.6999L36.1999 15.8999ZM36.0999 13.4999C36.5999 13.0999 36.8999 13.0999 37.1999 13.3999C37.3999 13.6999 37.2999 14.0999 36.8999 14.2999L36.7999 14.3999L36.0999 13.4999Z" fill="black"/>
<path d="M44.4 10.3L45.4 9.89999L45.7 10.2L47.1 9.59999L44.7 7.5L43.2 8L43 11.2L44.4 10.7V10.3ZM44.3 9.59999L44.2 8.7V8.59999C44.3 8.69999 44.4 8.79999 44.5 8.89999L44.8 9.29999L44.3 9.59999Z" fill="black"/>
<path d="M51.2998 5.80009L52.6998 5.6001L52.8998 7.50011L54.0998 7.4001L54.1998 8.30009L51.5998 8.6001L51.2998 5.80009Z" fill="black"/>
<path d="M59.4 5.6001L60.9 5.80009L60.5 7.7001L61.7 7.9001L61.6 8.80009L59 8.4001L59.4 5.6001Z" fill="black"/>
<path d="M67.5002 10.1999L68.5002 10.5999L68.4002 10.9999L69.8002 11.6999L69.6002 8.49991L68.1002 7.8999L65.7002 9.99991L67.1002 10.6999L67.5002 10.1999ZM68.0002 9.69991L68.6002 8.99991V9.0999C68.6002 9.2999 68.5002 9.29991 68.5002 9.49991L68.4002 9.99991L68.0002 9.69991Z" fill="black"/>
<path d="M74.5999 13.4999L74.6999 13.5999C74.7999 13.8999 74.9999 14.0999 75.1999 14.3999C75.2999 14.4999 75.4999 14.5999 75.5999 14.4999C75.6999 14.3999 75.4999 14.1999 75.4999 14.1999L75.2999 13.9999C74.8999 13.5999 74.6999 13.0999 74.9999 12.6999C75.3999 12.1999 76.3999 12.3999 76.9999 12.9999C77.2999 13.2999 77.5999 13.5999 77.7999 13.9999L76.9999 14.2999C76.8999 13.9999 76.6999 13.7999 76.4999 13.5999C76.3999 13.4999 76.1999 13.3999 76.1999 13.4999C76.0999 13.5999 76.2999 13.6999 76.3999 13.7999L76.5999 13.9999C76.9999 14.3999 77.1999 14.8999 76.8999 15.2999C76.4999 15.7999 75.5999 15.4999 74.8999 14.9999C74.4999 14.6999 74.1999 14.2999 73.8999 13.8999L74.5999 13.4999Z" fill="black"/>
<path d="M83.9 26.4C83.7 26.2 83.2 26 83.2 26C83.1 25.9 83 25.8999 83 25.7999C83 25.4999 82.9 25.3 82.8 25C79.9 21.3 76.3 18.2999 72.1 16.0999C71.6 15.9 71.2 15.8 70.7 15.7C70.6 15.7 70.5 15.6999 70.4 15.5999C70 15.1999 69.6 14.9999 69.1 14.7999C65.1 13.1999 60.8 12.3 56.5 12.4C55.2 12.4 53.8 12.5 52.5 12.7L54.2 10.4C47.4 10.2 42.4 15.5999 42.4 15.5999C40.8 16.4 39.2 17.2 37.7 18.2C35.6 18.9 34 20.4 33.1 22.4C32.2 23.1 30.4 25.5 30.4 25.5C30 25.8 29.6 26.1 29.2 26.4C27.6 28.1 26.5 30.2 26 32.5C26 32.5 25.9 32.6 25.9 32.7C25.8 32.9 25.8 33.0999 25.8 33.2999C25.7 33.6999 25.6 34.0999 25.6 34.5999L25.7 34.5C25.7 34.6 25.7 34.6 25.6 34.7C25.4 35.4 25.2 36.0999 25 36.7999C24.9 37.0999 24 39.9 24 39.9C21.6 48.5 24.8 53.7 25.4 54.5C29.7 67.1 42 76.1 56.4 76.1C66.9 76.2 76.9 71.1999 83.1 62.6999C83.2 62.3999 83.3 62.2 83.3 61.9C83.3 61.8 83.4 61.7 83.5 61.6C83.9 61.4 84.1 61.1999 84.1 61.1999C87.4 56.1999 89.1 50.2999 89.1 44.2999C89.4 37.7999 87.5 31.6 83.9 26.4Z" fill="black"/>
<path d="M42.9001 20.2001C43.0001 20.1001 43.1001 20.0001 43.1001 20.0001L43.3001 19.8001H43.4001C43.4001 18.8001 43.5001 17.8001 43.8001 16.9001C46.8001 12.8001 51.7001 11.7001 51.7001 11.7001C52.3001 11.5001 51.9001 11.8001 51.9001 11.8001C48.8001 15.3001 49.1001 18.1001 49.1001 18.1001L52.1001 28.8001C52.1001 28.8001 49.7001 27.9001 47.9001 24.2001C47.0001 31.7001 54.2001 37.8001 54.2001 37.8001C54.5001 38.1001 54.0001 37.7001 54.0001 37.7001C52.3001 36.8001 50.2001 34.9001 49.7001 34.4001C49.8001 35.0001 53.3001 52.3001 53.3001 52.4001C53.3001 52.5001 53.4001 52.6001 53.4001 52.7001L54.5001 49.8001L55.5001 58.6001C50.9001 62.8001 46.2001 61.2001 45.9001 61.0001C46.0001 61.1001 46.0001 61.2001 46.1001 61.3001C46.1001 61.3001 50.0001 68.9001 65.9001 68.1001C65.9001 68.1001 66.3001 68.1001 66.2001 68.2001C66.2001 68.2001 66.1001 68.2001 66.1001 68.3001C65.9001 68.4001 65.6001 68.4001 65.3001 68.5001C46.1001 73.6001 36.2001 57.3001 35.7001 56.6001C35.1001 55.7001 34.6001 54.8001 34.1001 53.8001C34.1001 53.7001 34.1001 53.6001 34.2001 53.7001C34.2001 53.7001 36.2001 55.8001 42.0001 56.3001H42.1001C37.6001 51.4001 35.7001 47.8001 35.5001 47.3001C35.5001 47.3001 35.0001 46.5001 34.3001 44.2001C34.3001 44.2001 34.4001 44.1001 34.4001 44.2001C34.6001 44.6001 36.1001 46.8001 37.9001 47.3001C36.4001 44.9001 35.4001 41.0001 35.3001 40.5001C37.4001 43.4001 41.1001 43.6001 41.1001 43.6001C41.1001 43.6001 41.1001 43.5001 41.0001 43.5001V43.6001C35.0001 37.6001 36.3001 31.0001 38.7001 26.3001C39.8001 24.0001 41.2001 22.0001 42.9001 20.2001Z" fill="white"/>
<path d="M61 60L57 64.1L61.9 60.3L59.3 51.6L60.5 41.2L58.5 51.1L61 60Z" fill="#C4CED4"/>
<path d="M60 38.8C60.1 38.8 60.2 38.7 60.2 38.7C60.6 38.5 61 38.2 61.3 37.8C62.4 36.7 62.9 35.2001 62.9 33.6001C62.9 32.5001 62.7 31.4 62.4 30.3C62.3 31.8 61.8 37.2 60 38.8Z" fill="#C4CED4"/>
<path d="M61.8 20.9999C63.2 18.8999 65.4 18.7999 66.4 18.7999C65.7 18.5999 64.9 18.3999 64.1 18.3999C63.3 18.3999 62.5 18.4999 61.8 18.7999C61.4 18.9999 61.1 19.0999 61 19.0999C61.3 19.6999 61.6 20.2999 61.8 20.9999Z" fill="#C4CED4"/>
<path d="M60.0001 25.3999L60.1001 26.0999C60.1001 30.5999 59.0001 35.3999 58.5001 37.1999C59.9001 33.8999 60.7001 30.3999 60.7001 26.7999C60.7001 25.4999 60.6001 24.1999 60.4001 22.8999C60.3001 22.4999 60.3001 22.0999 60.2001 21.7999C59.8001 25.1999 58.5001 26.7 58.5001 26.7L58.4001 26.7999C58.3001 26.7999 58.3001 26.8 58.3001 26.7C57.1001 24.5 55.5001 22.5999 53.6001 20.8999C52.8001 20.1999 52.0001 19.6 51.1001 19.2C55.1001 27.9 56.3001 34.5999 56.6001 36.7999V36C56.5001 33.3 56.2001 30.6 55.7001 28C55.3001 25.7 54.8001 24 54.8001 24V23.8999H54.9001C56.7001 25.2999 58.0001 29.3 58.2001 30C58.7001 29.3 59.1001 28.4999 59.4001 27.5999C59.7001 26.5999 60.1001 25.5999 60.1001 25.5999L60.0001 25.3999Z" fill="#C4CED4"/>
<path d="M26.2002 43.4999C26.2002 47.5999 26.9002 51.8999 30.5002 57.4999C33.9002 64.5999 40.1002 68.3999 43.1002 69.8999C44.1002 70.2999 44.7002 70.5999 44.7002 70.5999C48.7002 72.4999 53.1002 73.4999 57.5002 73.4999C63.5002 73.3999 69.4002 71.5999 74.4002 68.2999C75.3002 67.6999 75.8002 67.2999 75.8002 67.2999L76.2002 66.8999C76.2002 66.9999 76.1002 66.9999 76.0002 66.9999L75.7002 67.1999C69.3002 70.8999 63.5002 71.9999 58.7002 71.9999C51.2002 71.9999 46.4002 69.1999 46.4002 69.1999C30.5002 60.8999 30.3002 46.5999 30.3002 46.5999C30.3002 46.5999 30.3002 46.4999 30.4002 46.4999H30.5002C32.5002 50.4999 35.0002 51.7999 36.1002 52.1999C36.2002 52.2999 36.3002 52.2999 36.5002 52.3999C31.9002 46.5999 30.6002 41.6999 30.6002 38.0999C30.6002 33.1999 32.9002 30.4999 32.9002 30.4999L33.0002 30.3999C33.0002 30.3999 33.1002 30.3999 33.1002 30.4999C32.8002 31.9999 32.7002 33.4999 32.7002 34.9999C32.7002 36.5999 32.9002 38.2999 33.4002 39.7999C33.5002 40.1999 33.7002 40.5999 33.9002 41.0999C33.7002 39.9999 33.7002 38.8999 33.7002 37.6999C33.7002 30.6999 36.5002 23.8999 41.4002 18.8999C40.4002 19.2999 39.2002 20.3999 38.2002 21.4999C37.1002 22.5999 36.2002 23.6999 36.2002 23.6999H36.1002C36.0002 23.6999 36.0002 23.6999 36.0002 23.5999C36.1002 22.6999 36.4002 21.8999 36.8002 21.1999C36.0002 22.0999 35.3002 22.9999 34.8002 24.0999C34.5002 24.7999 34.2002 25.4999 34.0002 26.1999V26.2999C32.6002 27.8999 31.5002 29.6999 30.6002 31.5999C30.2002 32.3999 29.9002 33.2999 29.6002 34.1999C29.5002 34.3999 29.5002 34.4999 29.5002 34.5999C29.5002 34.5999 29.5002 34.6999 29.4002 34.6999C29.3002 34.6999 29.3002 34.5999 29.3002 34.5999V34.4999C29.3002 34.3999 29.3002 34.2999 29.4002 34.1999C29.4002 32.0999 30.3002 29.8999 30.6002 28.9999C28.2002 31.5999 27.6002 35.0999 27.6002 37.8999C27.6002 39.4999 27.8002 40.9999 28.1002 42.5999C28.2002 44.3999 28.4002 46.0999 28.7002 47.8999C29.1002 49.4999 29.4002 50.6999 29.4002 50.6999C29.5002 50.8999 29.5002 51.0999 29.6002 51.1999V51.2999H29.5002C29.4002 51.2999 29.4002 51.1999 29.3002 51.1999C29.2002 51.1999 29.2002 51.0999 29.2002 50.9999L29.1002 50.7999C27.4002 48.1999 26.5002 43.9999 26.4002 42.8999C26.2002 43.0999 26.2002 43.2999 26.2002 43.4999Z" fill="#C4CED4"/>
<path d="M79.5999 25.1999C79.5999 25.1999 71.8999 14.8999 57.3999 14.8999H57.0999C56.9999 14.8999 56.8999 14.8999 56.8999 14.9999C56.8999 15.0999 56.9999 15.1999 57.0999 15.1999C58.2999 16.0999 59.3999 17.0999 60.3999 18.1999V18.2999L60.4999 18.1999C60.7999 18.0999 61.0999 17.9999 61.3999 17.8999C62.1999 17.6999 63.0999 17.5999 63.8999 17.5999C65.4999 17.5999 67.0999 17.9999 68.5999 18.7999C67.7999 19.1999 64.2999 20.9999 63.3999 23.0999L63.4999 23.1999C63.4999 23.1999 67.0999 26.4999 74.5999 26.4999C75.8999 26.4999 77.1999 26.3999 78.4999 26.1999C78.6999 26.1999 78.8999 26.1999 79.1999 26.0999C79.4999 25.9999 79.8999 25.8999 79.8999 25.4999C79.6999 25.3999 79.6999 25.2999 79.5999 25.1999Z" fill="#007DC5"/>
<path d="M64.0002 39.7C63.9002 39.6 63.9002 39.6 63.9002 39.7C63.8002 39.7 63.8002 39.8 63.9002 39.8C64.0002 39.9 64.1002 40 64.1002 40.1C64.5002 40.7 65.4002 42.1 65.4002 44.6C65.3002 46.9 64.8002 49.2 63.7002 51.3C63.7002 50.5 63.6002 49.7 63.4002 48.9C63.1002 47.5 62.6002 46 61.5002 45.7H61.4002L60.7002 51.8L63.1002 60.9L58.3002 64.8C58.2002 64.8 58.2002 64.8 58.2002 64.9C58.2002 64.9 58.2002 65 58.3002 65C60.0002 65.4 61.7002 65.6 63.4002 65.6C65.5002 65.6 67.5002 65.4 69.5002 64.9C69.9002 64.8 70.1002 64.5 70.3002 64.2C70.7002 62.2 70.9002 60.2 70.8002 58.2C71.0002 52.8 69.8002 45.1 64.0002 39.7Z" fill="#007DC5"/>
<path d="M72 64.2001C71.9 64.1001 71.9 64.0001 71.9 63.9001V63.6001C72.1 62.9001 72.2 62.3001 72.3 61.6001C72.6 59.9001 72.7 58.2001 72.7 56.5001C72.7 51.0001 71.4 43.3001 65.3 37.4001C65.3 37.4001 65.2 37.4001 65.2 37.3001L65 37.1001C65 37.1001 65 37.0001 65.1 37.0001H65.2C65.3 37.0001 65.4 37.0001 65.5 37.1001C66.6 37.4001 67.5 38.0001 68.3 38.8001C68.2 38.5001 68.1 37.9001 68 37.2001C67.6 35.9001 67 34.7001 66.1 33.6001L65.9 33.4001C65.8 33.3001 65.8 33.3001 65.8 33.2001V33.1001H65.9C66 33.1001 66 33.2001 66.2 33.3001C66.6 33.5001 82 40.9001 82.6 55.9001V56.2001C82.6 56.8001 82.4 57.3001 82.1 57.7001C81.9 57.9001 78.3 62.4001 72.9 64.1001C72.8 64.2001 72.7 64.2001 72.6 64.2001C72.2 64.3001 72.1 64.3001 72 64.2001Z" fill="#007DC5"/>
<path d="M83.6001 53.2C83.3001 40.8 71.5001 32.4 65.7001 28.9C64.7001 28.2 63.6001 27.7 62.4001 27.2L62.1001 27.1H62.5001C63.9001 27.1 65.3001 27.7 66.2001 28.8C66.2001 28.3 66.1001 27.7 65.9001 27.2L65.8001 27L66.0001 27.1C67.7001 27.8 69.8001 28 71.9001 28C73.8001 28 75.6001 27.8 77.4001 27.6C78.9001 27.4 79.8001 27.2 79.8001 27.2H80.0001C80.9001 27.2 81.1001 27.7 81.1001 27.7C83.1001 29.9 85.6001 35 86.0001 41.2C86.1001 42 86.1001 42.7 86.1001 43.4C86.1001 48 85.1001 51.6 84.4001 53.1C84.1001 53.6 83.9001 53.9 83.7001 53.9C83.6001 53.8 83.6001 53.6 83.6001 53.2Z" fill="#007DC5"/>
<path d="M49.7 13.2C49.6 13.2 46.4 14.2 45.5 19C45.5 19 45.5 19.1 45.6 19C45.9 18.6 46.9 17 47.8 17.5V17.3999C47.8 16.8999 48.1 15.2 49.7 13.2Z" fill="black"/>
<path d="M47.3002 56.7C46.6002 55.3 42.2002 45.7 42.2002 45.7C40.8002 46.2 39.2002 45 39.2002 45C41.4002 50.8 46.5002 55.8 47.3002 56.7C47.4002 56.9 47.4002 56.8 47.4002 56.8C47.3002 56.8 47.3002 56.7 47.3002 56.7Z" fill="black"/>
<path d="M42.9 25.5C38.9 34.5 47.8 38.3 48 38.3L47.5 36.2L47.2 35.1C47 35 46.8 34.9 46.5 34.8C46.4 34.8 46.4 34.7 46.3 34.7C46.2 34.7 46.1 34.7 46 34.6C42.1 32.5 42.5 27.6 42.7 26V25.8C43 25.7 43 25.5 42.9 25.5C43 25.4 43 25.3 42.9 25.5Z" fill="black"/>
<path d="M48.8001 50.9L48.1001 39.5L52.0001 52.2C52.0001 52.2 50.8001 49.2 48.8001 50.9Z" fill="#C4CED4"/>
<path d="M51.9998 28.8001L49.0998 18.1001V18.3001L49.8998 25.1001C49.8998 25.2001 49.9998 25.3001 49.9998 25.4001C49.9998 25.8001 49.7998 26.3001 47.8998 24.4001C47.7998 24.3001 47.7998 24.3001 47.7998 24.3001C49.5998 27.9001 51.9998 28.8001 51.9998 28.8001Z" fill="#C4CED4"/>
<path d="M45.0002 30.7C44.8002 30.2 44.6002 29.6999 44.6002 29.0999C44.6002 28.0999 45.1002 27.2 45.9002 26.5L46.0002 26.3999C45.9002 25.4999 45.9002 24.6 46.0002 23.7C45.0002 25.1 43.0002 28.5 45.5002 31.2C45.4002 31.1 45.4002 31.1 45.4002 31C45.2002 31 45.1002 30.9 45.0002 30.7Z" fill="#C4CED4"/>
<path d="M47.6001 32.1C46.7001 30.4 46.1001 28.5 45.9001 26.6V26.5C45.1001 27.1 44.7001 28.1 44.6001 29.1C44.6001 29.6 44.7001 30.1 44.9001 30.6C45.0001 30.7 45.1001 30.9 45.2001 31.1C45.3001 31.1 45.3001 31.2 45.3001 31.3L45.5001 31.5C46.1001 32.1 46.9001 32.5 47.8001 32.5C47.7001 32.3 47.6001 32.2 47.6001 32.1Z" fill="black"/>
<path d="M51.1 52.4C51.1 52.4 49.2 51.9 49.4 55.8C49.4 55.7 49.4 55.6 49.5 55.5C50 54.2 50.6 53.7 51.1 53.7C51.5 53.7 51.8 54.1 52 54.6C52.2 55.2 52.4 55.8 52.6 56.4C52.8 56.9 52.9 57.4 52.9 58C52.9 58.3 53 58.7 53 59V59.1C53 58.5 53.9 53.2 51.1 52.4Z" fill="#C4CED4"/>
<path d="M52.9998 59.0001C52.8998 58.5001 52.8998 58.2001 52.8998 57.9001C52.7998 57.5001 52.6998 56.9001 52.5998 56.4001C52.3998 55.8001 52.1998 55.1001 51.8998 54.6001C51.6998 54.1001 51.3998 53.8 50.9998 53.8C50.4998 53.8 49.9998 54.3001 49.3998 55.6001C49.3998 55.7001 49.3998 55.9001 49.2998 56.0001L50.2998 58.0001C50.2998 57.9001 50.8998 52.4001 52.9998 59.0001Z" fill="black"/>
</svg>
