<svg width="99" height="120" viewBox="0 0 99 120" fill="none" xmlns="http://www.w3.org/2000/svg">
<path d="M19.8997 112.864C19.8997 111.464 18.7997 110.364 17.3997 110.364H12.6997V119.164H14.6997V116.364H16.5997C17.1997 116.364 17.6997 116.864 17.6997 117.464V119.064H19.6997V117.464C19.6997 116.764 19.4997 116.064 19.0997 115.564C19.5997 115.064 19.7997 114.464 19.7997 113.764V112.864H19.8997ZM17.3997 112.364C17.6997 112.364 17.8997 112.564 17.8997 112.864V113.864C17.8997 114.164 17.6997 114.364 17.3997 114.364H14.7997V112.464L17.3997 112.364Z" fill="#12173F"/>
<path d="M65.9998 119.164H58.6997V110.364H60.7997V117.064H65.9998V119.164Z" fill="#12173F"/>
<path d="M86.3 112.364V110.364H79V119.164H86.3V117.064H81V115.664H85.6V113.664H81V112.364H86.3Z" fill="#12173F"/>
<path d="M40.1998 119.164H32.2998L36.8998 112.364H32.7998V110.364H40.6998L36.1998 117.064H40.1998V119.164Z" fill="#12173F"/>
<path d="M52.9 119.164H45L49.6 112.364H45.5V110.364H53.4L48.9 117.064H52.9V119.164Z" fill="#12173F"/>
<path d="M73.1001 110.364H71.1001V119.164H73.1001V110.364Z" fill="#12173F"/>
<path d="M27.3999 110.364H25.3999V119.164H27.3999V110.364Z" fill="#12173F"/>
<path d="M27.3999 110.364H25.3999V119.164H27.3999V110.364Z" fill="#12173F"/>
<path d="M60.1997 91.0637H52.6997V107.164H56.3997V101.964H60.1997C62.6997 101.964 64.6997 99.9637 64.6997 97.4637V95.5637C64.6997 93.1637 62.5997 91.0637 60.1997 91.0637ZM60.9998 97.4637C60.9998 97.8637 60.5997 98.2637 60.1997 98.2637H56.3997V94.7637H60.1997C60.5997 94.7637 60.9998 95.1637 60.9998 95.5637V97.4637Z" fill="#12173F"/>
<path d="M54.6999 107.164H54.3999V92.7637H60.1999C61.7999 92.7637 62.9999 94.0637 62.9999 95.5637V97.4637C62.9999 99.0637 61.6999 100.264 60.1999 100.264H54.6999V107.164ZM54.6999 99.9637H60.1999C61.5999 99.9637 62.6999 98.8637 62.6999 97.4637V95.5637C62.6999 94.1637 61.5999 93.0637 60.1999 93.0637H54.6999V99.9637Z" fill="#5D76A9"/>
<path d="M31.4998 94.7637V91.0637H19.2998V107.164H31.4998V103.464H22.9998V100.964H30.1998V97.2637H22.9998V94.7637H31.4998Z" fill="#12173F"/>
<path d="M31.5 93.0637V92.7637H21V105.464H31.5V105.164H21.3V99.2637H30.2V98.9637H21.3V93.0637H31.5Z" fill="#5D76A9"/>
<path d="M46.1999 91.1638H33.3999V107.264H37.0999V94.8638H40.1999V107.264H43.8999V94.8638H46.1999C46.5999 94.8638 46.9999 95.2638 46.9999 95.6638V107.264H50.6999V95.6638C50.6999 93.1638 48.6999 91.1638 46.1999 91.1638Z" fill="#12173F"/>
<path d="M46.2001 92.8638H35.1001V107.264H35.4001V93.1638H41.9001V107.264H42.2001V93.1638H46.2001C47.6001 93.1638 48.7001 94.2638 48.7001 95.6638V107.264H49.0001V95.6638C49.0001 94.0638 47.7001 92.8638 46.2001 92.8638Z" fill="#5D76A9"/>
<path d="M12.8001 91.1638H0.100098V107.264H3.80011V94.8638H6.90009V107.264H10.6001V94.8638H12.9001C13.3001 94.8638 13.7001 95.2638 13.7001 95.6638V107.264H17.4001V95.6638C17.3001 93.1638 15.3001 91.1638 12.8001 91.1638Z" fill="#12173F"/>
<path d="M12.7997 92.8638H1.69971V107.264H1.99976V93.1638H8.49976V107.264H8.79974V93.1638H12.7997C14.1997 93.1638 15.2997 94.2638 15.2997 95.6638V107.264H15.5997V95.6638C15.5997 94.0638 14.3997 92.8638 12.7997 92.8638Z" fill="#5D76A9"/>
<path d="M84.4998 91.0637H80.7998V107.164H84.4998V91.0637Z" fill="#12173F"/>
<path d="M82.8 91.0637H82.5V107.164H82.8V91.0637Z" fill="#5D76A9"/>
<path d="M74.6999 91.0637V97.2637H70.0999V91.0637H66.3999V107.164H70.0999V100.964H74.6999V107.164H78.3999V91.0637H74.6999Z" fill="#12173F"/>
<path d="M76.4001 91.0637V98.9637H68.4001V91.0637H68.1001V107.164H68.4001V99.2637H76.4001V107.164H76.7001V91.0637H76.4001Z" fill="#5D76A9"/>
<path d="M7.19995 119.164H2.5C1.1 119.164 0 118.064 0 116.664V112.864C0 111.464 1.1 110.364 2.5 110.364H4.69995C6.09995 110.364 7.19995 111.464 7.19995 112.864V113.264H5.19995V112.864C5.19995 112.564 4.99995 112.364 4.69995 112.364H2.5C2.2 112.364 2 112.564 2 112.864V116.664C2 116.964 2.2 117.164 2.5 117.164H5.09998V116.364H3.89996V114.364H7.19995V119.164Z" fill="#12173F"/>
<path d="M7.19995 119.164H2.5C1.1 119.164 0 118.064 0 116.664V112.864C0 111.464 1.1 110.364 2.5 110.364H4.69995C6.09995 110.364 7.19995 111.464 7.19995 112.864V113.264H5.19995V112.864C5.19995 112.564 4.99995 112.364 4.69995 112.364H2.5C2.2 112.364 2 112.564 2 112.864V116.664C2 116.964 2.2 117.164 2.5 117.164H5.09998V116.364H3.89996V114.364H7.19995V119.164Z" fill="#12173F"/>
<path d="M96.3001 119.164H94.1001C92.7001 119.164 91.6001 118.064 91.6001 116.664V116.364H93.6001V116.664C93.6001 116.964 93.8001 117.164 94.1001 117.164H96.3001C96.6001 117.164 96.8001 116.964 96.8001 116.664V116.264L93.0001 115.264C92.2001 115.064 91.7001 114.264 91.7001 113.464V112.964C91.7001 111.564 92.8001 110.364 94.3001 110.364H96.4001C97.8001 110.364 98.9001 111.464 98.9001 112.864V113.264H96.9001V112.864C96.9001 112.564 96.7001 112.364 96.4001 112.364H94.3001C94.0001 112.364 93.8001 112.564 93.8001 112.864V113.264L97.6001 114.264C98.4001 114.464 98.9001 115.264 98.9001 116.064V116.564C98.8001 118.064 97.7001 119.164 96.3001 119.164Z" fill="#12173F"/>
<path d="M94.2997 107.164H86.6997V102.064H90.3997V103.464H94.2997C94.7997 103.464 95.0997 103.064 95.0997 102.664V101.964L89.0997 100.064C87.6997 99.6637 86.6997 98.3637 86.6997 96.8637V95.6637C86.6997 93.1637 88.6997 91.0637 91.2997 91.0637H98.8997V96.3637H95.0997V94.7637H91.1997C90.6997 94.7637 90.3997 95.1637 90.3997 95.5637V96.4637L96.3997 98.2637C97.7997 98.6637 98.7997 100.064 98.7997 101.564V102.464C98.7997 105.164 96.7997 107.164 94.2997 107.164Z" fill="#12173F"/>
<path d="M94.2999 105.464H88.3999V102.064H88.6999V105.164H94.2999C95.6999 105.164 96.7999 104.064 96.7999 102.664V101.764C96.7999 101.164 96.3999 100.564 95.7999 100.364L89.5999 98.4637C88.8999 98.2637 88.3999 97.5637 88.3999 96.8637V95.6637C88.3999 94.0637 89.6999 92.7637 91.2999 92.7637H97.1999V96.3637H96.8999V93.0637H91.2999C89.8999 93.0637 88.7999 94.1637 88.7999 95.5637V96.7637C88.7999 97.3637 89.1999 97.8637 89.7999 98.0637L95.9999 99.9637C96.6999 100.164 97.1999 100.864 97.1999 101.664V102.564C97.0999 104.164 95.8999 105.464 94.2999 105.464Z" fill="#5D76A9"/>
<path d="M88.4998 19.7638C89.4998 17.8638 90.0997 15.7638 90.0997 13.5638C89.9997 9.06382 87.6998 4.86381 83.9998 2.46381C78.9998 -0.936186 71.4997 -1.43619 66.1997 4.96381C60.4997 4.26381 54.7998 4.96382 49.4998 7.06382C44.1998 4.96382 38.3997 4.26381 32.7997 4.96381C27.4997 -1.43619 19.9998 -0.936186 14.9998 2.46381C11.1998 4.96381 8.89972 9.06382 8.89972 13.5638C8.89972 15.7638 9.49976 17.8638 10.4998 19.7638C6.49976 25.5638 3.69971 32.3638 3.69971 39.3638C3.69971 47.7638 7.29973 52.0638 8.59973 53.9638L9.69971 52.8638C13.4997 62.5638 19.9997 67.7638 27.8997 72.4638C27.8997 72.4638 28.0997 71.4638 28.1997 70.6638C36.6997 77.9638 40.6998 76.1638 49.4998 86.1638C58.2998 76.2638 62.3997 77.9638 70.7997 70.6638C70.9997 71.4638 71.0997 72.4638 71.0997 72.4638C74.5997 70.3638 84.4997 65.0638 89.2997 52.8638L90.3997 53.9638C91.1997 52.8638 95.2997 48.2638 95.2997 39.3638C95.2997 32.4638 92.4998 25.5638 88.4998 19.7638Z" fill="#707271"/>
<path d="M86.1001 19.9638C94.2001 7.5638 75.9001 -5.33619 67.0001 7.16381C61.1001 6.16381 55.0001 6.96379 49.5001 9.36379C44.0001 6.96379 37.9001 6.26381 32.0001 7.16381C23.1001 -5.33619 4.80009 7.5638 12.9001 19.9638C3.70009 32.5638 4.60009 45.0638 8.90009 50.8638L10.7001 49.0638C10.7001 49.0638 13.2001 61.2638 26.4001 69.2638L26.9001 66.6638C35.0001 75.3638 42.5001 75.1638 49.5001 83.1638C56.5001 75.2638 64.0001 75.3638 72.1001 66.6638L72.6001 69.2638C85.8001 61.2638 88.3001 49.0638 88.3001 49.0638L90.1001 50.8638C94.4001 44.9638 95.3001 32.5638 86.1001 19.9638Z" fill="#12173F"/>
<path d="M49.5998 66.2639C49.5998 66.2639 43.1998 66.3639 42.2998 66.9639C42.2998 66.9639 41.1998 68.8639 49.5998 68.8639C57.5998 68.8639 56.3998 67.3639 56.4998 67.1639C54.1998 66.4639 51.8998 66.1639 49.5998 66.2639Z" fill="#5D76A9"/>
<path d="M44.0997 58.8637C44.0997 58.8637 45.0997 55.9637 46.0997 56.8637C47.5997 58.1637 49.4998 60.6637 49.4998 60.9637V64.3637L47.1997 64.4637C45.2997 64.6637 43.3997 65.0637 41.5997 65.5637C35.6997 50.9637 38.9998 39.8637 40.4998 35.8637C34.5998 37.1637 33.6997 30.0637 33.6997 30.0637C34.5997 30.0637 35.4997 30.2637 36.1997 30.6637C37.8997 31.5637 39.5997 32.6637 41.0997 33.8637C41.4997 34.1637 41.8997 34.5637 42.2997 34.8637C46.2997 38.2637 49.4998 37.5637 49.4998 37.5637V51.8637C49.4998 51.8637 37.8997 50.9637 44.0997 58.8637Z" fill="#5D76A9"/>
<path d="M55.0001 58.8638C62.4001 51.3638 50.3001 51.7638 49.6001 51.8638C50.8001 51.9638 60.1001 52.0638 55.0001 58.8638Z" fill="#5D76A9"/>
<path d="M59.9001 36.1638C66.6001 54.0638 58.1001 65.6638 58.1001 65.6638C63.3001 51.9638 60.0001 40.5638 57.7001 36.2638C56.8001 36.3638 56.0001 36.3638 55.1001 36.2638C56.1001 35.6638 57.1001 34.9638 58.0001 34.1638C58.1001 34.0638 58.2001 34.0638 58.3001 33.9638C59.8001 32.6638 61.4001 31.5638 63.3001 30.7638C64.1001 30.4638 65.0001 30.2638 65.8001 30.1638C65.7001 30.1638 65.1001 36.0638 59.9001 36.1638Z" fill="#5D76A9"/>
<path d="M70.4002 12.9639C70.4002 12.9639 73.1002 6.16386 81.4002 7.76386C81.4002 7.76386 73.7002 2.76387 68.4002 11.8639C68.4002 11.8639 60.8002 8.26389 49.4002 13.1639C49.4002 13.1639 38.7002 9.36388 30.6002 11.5639C30.6002 11.5639 25.9002 3.36386 19.2002 6.76386C12.5002 10.1639 16.0002 17.9639 17.2002 20.0639C17.2002 20.0639 6.1002 31.3639 10.3002 45.2639L12.5002 42.4639C12.5002 42.4639 15.7002 57.6639 23.9002 62.4639L24.4002 58.7639C24.4002 58.7639 33.0002 69.0639 43.0002 73.4639C44.0002 73.9639 49.3002 76.5639 49.5002 77.8639V70.6639C49.5002 70.6639 42.5002 71.2639 40.7002 68.0639C39.4002 65.8639 31.4002 51.5639 35.4002 36.5639C35.4002 36.5639 31.5002 35.9639 30.8002 29.4639C28.8002 28.5639 26.6002 28.1639 24.3002 28.3639C24.3002 28.3639 30.7002 26.3639 36.7002 28.6639C42.7002 30.9639 44.3002 36.8639 48.4002 34.2639L49.5002 17.5639L50.7002 34.2639C54.8002 36.8639 56.4002 30.9639 62.4002 28.6639C68.4002 26.3639 74.8002 28.3639 74.8002 28.3639C72.8002 27.0639 70.5002 26.1639 68.1002 25.7639C64.7002 25.0639 59.6002 27.2639 59.6002 27.2639C59.6002 27.2639 60.3002 22.5639 62.6002 20.0639C64.6002 17.6639 69.0002 17.1639 70.4002 12.9639ZM18.7002 18.6639C18.5002 16.3639 21.3002 14.1639 21.3002 14.1639C20.1002 12.9639 18.1002 13.9639 18.1002 13.9639C20.0002 10.2639 24.2002 12.0639 24.2002 12.0639C22.6002 10.1639 19.3002 10.2639 19.3002 10.2639C23.5002 6.16386 28.5002 12.4639 28.5002 12.4639C23.9002 13.4639 18.7002 18.6639 18.7002 18.6639Z" fill="#5D76A9"/>
<path d="M41.1002 33.9637C40.5002 33.7637 39.4002 34.4637 38.8002 35.5637C36.8002 34.9637 36.1002 32.8637 36.2002 30.7637C37.9002 31.6637 39.6002 32.6637 41.1002 33.9637Z" fill="#FFBB22"/>
<path d="M60.5997 35.5637C59.9997 34.3637 58.7997 33.6637 58.1997 33.9637C59.6997 32.6637 61.2997 31.5637 63.1997 30.7637C63.2997 32.8637 62.5997 34.9637 60.5997 35.5637Z" fill="#FFBB22"/>
</svg>
