<svg width="87" height="120" viewBox="0 0 87 120" fill="none" xmlns="http://www.w3.org/2000/svg">
<path d="M11.1 33.828C11.4 30.828 21.9 27.028 39.2 26.328C37 27.928 35.6 30.328 35.2 33.028L35 34.228C34.9 35.028 34.7 35.828 34.5 36.628C33.8 38.328 32 39.828 30 40.828C23.1 40.028 17.3 38.528 13.9 36.628C12.1 35.828 11 34.728 11.1 33.828ZM77 32.928C77.7 33.628 77.6 34.128 77.6 34.228C77.5 35.028 76.5 36.128 74.7 36.928C71 38.828 64.7 40.328 57.2 41.128C57.6 40.928 57.9 40.728 58.3 40.528L58.4 40.428C60.6 39.528 63 38.528 63.1 35.028C63.2 34.428 63.2 32.728 63.5 32.128C63.9 31.328 65 30.128 65.8 29.728L64.3 29.428H64.1C64.6 29.128 64.9 28.628 65.2 28.128C71.4 29.528 75.5 31.328 77 32.928ZM84.5 28.528C81.3 24.928 74.2 22.128 65 20.428C65 19.428 65.7 18.928 66.8 18.128C67.5 17.628 68.1 17.128 68.7 16.628C71.7 13.728 68.2 9.52799 68.1 9.32799L66.2 7.028L66.7 10.028C67 12.028 66.3 12.728 64 14.328C63.7 14.528 63.5 14.728 63.3 14.928C63.5 13.328 63.4 11.728 63 10.128C62.6 8.22798 61.7 7.528 61.7 7.528L61.4 10.228C61.4 10.328 61.2 12.428 58.3 15.028C58.5 14.728 58.8 14.428 59 14.128C60.4 12.028 60 9.728 59.5 7.028L59.4 6.42797C58.9 3.72797 59.7 1.92798 60.1 1.62798C60.6 1.02798 61.5 0.127978 61.5 0.127978C61.5 0.127978 61 -0.0719975 59.6 0.0280025C57.8 0.328003 54.8 1.32799 54.9 3.82799C55 4.82799 55.2 5.82799 55.6 6.82799C55.9 7.82799 56.2 8.72798 55.9 9.12798C55.7 9.52798 55.1 9.828 54 10.028C49.7 10.828 46.5 12.728 44.9 15.528C44.3 16.428 44 17.428 43.8 18.528C33.4 18.628 23.5 19.828 15.8 22.228C7.20002 24.828 2.50002 28.528 2.10002 32.728C1.90002 34.928 2.90002 38.128 8.40002 41.228H8.50002L10.1 42.028L10.9 42.428C13.8 43.728 16.7 44.628 19.8 45.328C18.6 46.028 17.5 46.728 16.5 47.628C6.70002 55.728 5.20002 70.328 13.3 80.128C21.4 89.928 36 91.428 45.8 83.328C49.9 80.028 52.7 75.328 53.7 70.128C55.6 64.528 55.4 58.628 55.3 56.328C55.1 51.228 57.6 48.328 59.2 47.128C66.5 46.228 72.9 44.628 77.7 42.428L78.5 42.028L80.2 41.228L80.1 41.128C84 38.928 86.2 36.428 86.4 33.728C86.7 31.828 86 30.128 84.5 28.528Z" fill="black"/>
<path d="M23.1002 104.128L26.0002 92.228H21.2002L18.2002 104.128H23.1002Z" fill="black"/>
<path d="M33.7 95.1281L34 100.028H31.5L34 104.228H38.5L37.8 92.228H30.5L24.5 104.228H29.2L33.7 95.1281Z" fill="black"/>
<path d="M22.4999 115.328L21.3999 119.328H25.9999L28.8999 107.328H24.3999L23.2999 112.028H19.8999L20.8999 107.328H16.3999L13.3999 119.328H17.9999L18.9999 115.328H22.4999Z" fill="black"/>
<path d="M33.3 116.628L33.7 115.028H39.3L40 112.328H34.4L34.7 110.628H40.4L41.3 107.328H31L28 119.328H38.3L39 116.628H33.3Z" fill="black"/>
<path d="M62.6998 104.128L65.6998 92.228H60.7998L57.7998 104.128H62.6998Z" fill="black"/>
<path d="M70.8002 101.528C71.5002 102.428 72.2002 104.128 69.2002 105.528C65.7002 107.128 69.2002 111.228 64.4002 111.228H62.4002L60.4002 119.428H55.5002L57.5002 111.228H54.2002L55.2002 107.428H63.7002C68.7002 107.428 65.2002 103.928 67.7002 103.528C69.5002 103.128 70.6002 102.728 70.8002 101.528Z" fill="black"/>
<path d="M9.8 98.3281L9 92.228H3L0 104.128H4.5L6.1 97.928H6.2L7 104.128H9.6L13.3 97.928L11.9 104.128H16.1L19 92.228H13.3L9.8 98.3281Z" fill="black"/>
<path d="M49.5002 98.3281L48.7002 92.228H42.7002L39.7002 104.128H44.2002L45.8002 97.928H45.9002L46.7002 104.128H49.3002L53.0002 97.928L51.6002 104.128H55.8002L58.8002 92.228H53.0002L49.5002 98.3281Z" fill="black"/>
<path d="M48.8 110.328L49.1 115.228H46.5L49 119.428H53.5L52.8 107.428H45.5L39.5 119.428H44.2L48.8 110.328Z" fill="black"/>
<path d="M9.00001 66.9279C9.70001 70.6279 11.8 73.828 14.8 76.028C15.8 76.728 17 77.3279 18.2 77.8279C17.5 76.6279 16.6 75.328 15.7 74.028C14 71.628 12.3 69.0279 11.2 66.3279C10.1 63.6279 9.80001 60.6279 10.3 57.6279C9.40001 60.1279 8.90001 62.7279 9.00001 65.3279C8.90001 65.9279 9.00001 66.4279 9.00001 66.9279Z" fill="#98002E"/>
<path d="M12.7001 65.7279C13.7001 68.2279 15.4001 70.728 17.0001 73.028C18.2001 74.828 19.3001 76.6279 20.4001 78.4279C21.4001 78.6279 22.5001 78.8279 23.5001 78.9279C22.3001 77.2279 21.4001 75.428 20.6001 73.528C17.4001 65.528 17.8001 55.7279 21.8001 49.9279C23.8001 47.1279 26.4001 44.8279 29.5001 43.3279C32.2001 41.8279 33.9001 41.4279 35.7001 40.3279C37.6001 39.2279 38.6001 37.3279 37.3001 33.1279C37.0001 32.1279 36.9001 31.1279 37.0001 30.1279C36.5001 31.0279 36.2001 32.028 36.1001 33.028C36.0001 34.328 35.7001 35.6279 35.3001 36.8279C33.6001 41.2279 25.6001 43.5279 24.6001 43.9279C21.9001 44.7279 19.3001 46.1279 17.1001 47.9279C12.1001 52.5279 10.4001 59.5279 12.7001 65.7279Z" fill="#98002E"/>
<path d="M46.2999 26.3281C46.3999 26.6281 46.3999 26.8281 46.4999 27.1281C46.6999 28.7281 46.1999 29.9281 44.3999 30.2281C42.4999 30.5281 41.7999 28.9281 41.6999 27.5281C41.6999 27.0281 41.7999 26.6281 41.7999 26.4281H40.8999C40.0999 26.9281 39.2999 27.4281 38.6999 28.1281C38.2999 28.9281 37.8999 30.1281 38.5999 32.7281C39.7999 37.4281 39.2999 40.3281 35.4999 41.9281C30.6999 44.0281 27.5999 45.2281 23.4999 50.4281C21.4999 52.8281 20.3999 57.0281 20.2999 61.1281C20.1999 65.1281 20.8999 69.2281 22.3999 72.9281C23.2999 75.1281 24.3999 77.1281 25.7999 79.0281C27.0999 78.9281 28.3999 78.8281 29.6999 78.5281C28.2999 76.8281 27.3999 74.7281 27.2999 72.5281C26.7999 64.8281 30.8999 61.6281 37.2999 56.6281L40.1999 54.2281C51.4999 44.6281 48.1999 34.8281 49.3999 26.5281C48.1999 26.3281 47.1999 26.3281 46.2999 26.3281Z" fill="#98002E"/>
<path d="M50.8 26.5281C50.5 28.2281 50.3 29.928 50.2 31.728C49.7 39.028 50 47.228 40.8 55.428L38.1 57.6281C31.9 62.5281 28.4 65.6281 28.7 72.3281C28.8 74.5281 29.7 76.5281 31.2 78.0281C33 77.5281 34.7 76.828 36.3 75.928C44.3 71.328 49.3 64.5281 51.2 55.8281C52.4 50.3281 52.4 45.828 52.3 42.228C52.3 40.428 52.6 36.928 52.6 36.928C52.9 34.728 53.2 31.528 55.8 27.428C55.9 27.228 56 27.1281 56.1 27.0281C54.4 26.7281 52.6 26.6281 50.8 26.5281Z" fill="#98002E"/>
<path d="M53.5 49.828C53.2 51.128 53.2 52.6279 53 54.1279C52.9 54.6279 52.8 55.2279 52.7 55.7279C52.7 55.9279 52.7 56.0279 52.6 56.2279C50.6 65.4279 45.4 72.528 36.9 77.3279C35.5 78.1279 34.1 78.8279 32.5 79.3279C35 80.9279 37.8 81.4279 39.8 81.1279C47.4 80.0279 51.1 75.1279 52.8 69.8279C54.6 64.4279 54.4 58.628 54.3 56.328C54 48.328 60.2 45.4279 60.2 45.4279C55.7 45.0279 54 47.128 53.5 49.828Z" fill="#98002E"/>
<path d="M48.4999 79.2279C46.1999 81.1279 43.4999 82.2279 40.5999 82.6279C37.1999 83.1279 33.6999 82.128 30.9999 80.028C30.8999 79.928 30.8999 79.9279 30.7999 79.8279C29.4999 80.1279 28.1999 80.428 26.8999 80.528C29.8999 83.828 33.9999 85.6279 39.2999 85.9279H39.3999C42.9999 84.5279 46.1999 82.1279 48.6999 79.1279C48.4999 79.2279 48.4999 79.2279 48.4999 79.2279Z" fill="#98002E"/>
<path d="M20.4002 84.728C20.4002 83.028 20.0002 81.328 19.2002 79.728C17.3002 79.228 15.5002 78.428 13.8002 77.328C12.8002 76.628 11.9002 75.828 11.2002 74.928C13.1002 79.128 16.4002 82.528 20.4002 84.728Z" fill="#98002E"/>
<path d="M35.8002 87.0281C33.0002 86.4281 30.3002 85.3281 28.0002 83.6281C26.8002 82.7281 25.8002 81.7281 24.8002 80.6281C23.6002 80.6281 22.4002 80.528 21.2002 80.228C21.9002 81.928 22.2002 83.7281 22.0002 85.5281C24.9002 86.8281 28.0002 87.5281 31.2002 87.5281C32.7002 87.5281 34.3002 87.4281 35.8002 87.0281Z" fill="#98002E"/>
<path d="M61.6999 32.3281C61.1999 34.0281 59.4999 33.828 58.9999 32.928C58.1999 31.428 58.4999 30.3281 59.3999 29.5281C60.1999 28.7281 61.4999 28.328 62.7999 27.728H62.8999C61.3999 27.428 59.7999 27.2281 58.0999 27.0281C57.9999 27.1281 57.9999 27.1281 57.9999 27.1281C57.8999 27.3281 57.6999 27.5281 57.5999 27.6281C55.6999 30.4281 54.4999 33.628 54.2999 36.928L54.1999 37.6281C53.9999 39.1281 53.9999 40.6281 53.9999 42.1281V42.8281C53.8999 43.4281 53.8999 44.0281 53.8999 44.6281C53.9999 44.3281 53.9999 44.328 53.9999 44.428C54.6999 42.028 56.0999 40.528 58.0999 39.728C60.2999 38.928 62.3999 38.1281 62.4999 35.0281C62.5999 33.7281 62.6999 32.4281 62.8999 31.8281C63.1999 31.1281 63.6999 30.628 64.3999 30.228C63.2999 30.328 62.0999 30.7281 61.6999 32.3281Z" fill="#98002E"/>
<path d="M64.1998 20.1281C64.3998 18.0281 66.2998 17.728 68.1998 15.928C70.5998 13.628 67.3998 9.72803 67.3998 9.72803C67.7998 12.328 66.5998 13.3281 64.3998 14.8281C63.6998 15.3281 63.1998 16.0281 63.0998 16.8281C63.0998 17.8281 62.9998 18.828 62.7998 19.928C63.3998 20.028 63.7998 20.0281 64.1998 20.1281Z" fill="#F9A01B"/>
<path d="M64.1998 20.1281C64.3998 18.0281 66.2998 17.728 68.1998 15.928C70.5998 13.628 67.3998 9.72803 67.3998 9.72803C67.7998 12.328 66.5998 13.3281 64.3998 14.8281C63.6998 15.3281 63.1998 16.0281 63.0998 16.8281C63.0998 17.8281 62.9998 18.828 62.7998 19.928C63.3998 20.028 63.7998 20.0281 64.1998 20.1281Z" stroke="#F9A01B" stroke-width="0.12"/>
<path d="M57.4999 16.528C56.8999 16.928 56.3999 17.4279 55.8999 17.8279C55.4999 18.2279 55.1999 18.5279 54.8999 18.8279C56.9999 19.0279 59.0999 19.228 61.0999 19.528C62.2999 17.228 62.9999 14.6279 62.1999 10.1279C62.1999 10.1279 61.9999 13.228 57.4999 16.528Z" fill="#F9A01B"/>
<path d="M57.4999 16.528C56.8999 16.928 56.3999 17.4279 55.8999 17.8279C55.4999 18.2279 55.1999 18.5279 54.8999 18.8279C56.9999 19.0279 59.0999 19.228 61.0999 19.528C62.2999 17.228 62.9999 14.6279 62.1999 10.1279C62.1999 10.1279 61.9999 13.228 57.4999 16.528Z" stroke="#F9A01B" stroke-width="0.12"/>
<path d="M45.6002 18.428C48.0002 18.528 50.4002 18.528 52.8002 18.728C52.9002 18.628 52.9002 18.528 53.0002 18.428C54.6002 16.728 57.0002 15.328 58.3002 13.428C59.6002 11.528 59.1002 9.22804 58.6002 6.42804C57.8002 1.62804 59.8002 0.728027 59.8002 0.728027C59.8002 0.728027 55.7002 1.32805 55.8002 3.62805C55.9002 6.82805 59.2002 9.72803 54.2002 10.728C48.8002 11.728 45.4002 14.628 44.7002 18.428C45.0002 18.428 45.3002 18.428 45.6002 18.428Z" fill="#F9A01B"/>
<path d="M45.6002 18.428C48.0002 18.528 50.4002 18.528 52.8002 18.728C52.9002 18.628 52.9002 18.528 53.0002 18.428C54.6002 16.728 57.0002 15.328 58.3002 13.428C59.6002 11.528 59.1002 9.22804 58.6002 6.42804C57.8002 1.62804 59.8002 0.728027 59.8002 0.728027C59.8002 0.728027 55.7002 1.32805 55.8002 3.62805C55.9002 6.82805 59.2002 9.72803 54.2002 10.728C48.8002 11.728 45.4002 14.628 44.7002 18.428C45.0002 18.428 45.3002 18.428 45.6002 18.428Z" stroke="#F9A01B" stroke-width="0.12"/>
<path d="M45.6002 19.7279C23.0002 19.5279 4.10017 25.3279 3.50017 32.7279C3.20017 35.7279 5.90016 38.4279 10.6002 40.7279C14.1002 42.3279 17.8002 43.5279 21.5002 44.2279C22.4002 43.8279 23.2002 43.5279 24.2002 43.2279C25.4002 42.8279 26.7002 42.4279 27.8002 41.9279C21.5002 41.0279 16.4002 39.6279 13.2002 37.9279C10.9002 36.7279 9.60017 35.3279 9.80017 33.7279C10.2002 28.7279 26.0002 24.928 45.1002 25.028C64.2002 25.228 79.3002 29.428 78.8002 34.328C78.7002 35.728 77.4002 36.9279 75.3002 38.1279C71.3002 40.2279 64.3002 41.8279 55.7002 42.6279C55.4002 43.0279 55.1002 43.5279 54.9002 43.9279C58.8002 42.4279 63.3002 44.6279 63.3002 44.6279C63.5002 44.7279 63.7002 44.8279 63.8002 44.9279C69.5002 43.9279 74.3002 42.4279 78.0002 40.7279C82.3002 38.7279 85.0002 36.128 85.2002 33.528C85.9002 26.128 68.2002 19.9279 45.6002 19.7279Z" fill="white"/>
</svg>
