<svg width="94" height="116" viewBox="0 0 94 116" fill="none" xmlns="http://www.w3.org/2000/svg">
<path d="M46.5 115.2C20.8 115.2 0 94.3 0 68.7C0 56.2 4.89999 44.4 13.9 35.6C14 35.5 14.1 35.5 14.1 35.4C11 30.7 9.30001 25.3 10.6 18.7C13 6.50001 22.9 2.90001 23.3 2.70001C23.5 2.60001 23.6 2.60004 23.8 2.60004C24.3 2.60004 24.8 2.90002 25.1 3.40002C25.3 3.70002 25.3 4.00002 25.2 4.40002C28.4 1.70002 31.5 0.500037 32.8 0.100037C33 0.100037 33.1 0 33.2 0C33.7 0 34.3 0.299988 34.5 0.799988C34.8 1.49999 34.6 2.20004 33.9 2.60004C31 4.40004 28.4 6.8 26.5 9.5C28.8 9 30.4 8.90002 30.9 8.90002H31.2C31.9 8.90002 32.5 9.50001 32.5 10.2C32.6 10.9 32.1 11.5 31.4 11.7C31.4 11.7 27.5 12.7 23.3 15.7C22.5 18.2 22.1 20.7 22.1 23.3C22.1 28.2 23.7 33.3 26.4 37.1C27 38 27.6 38.8 28.3 39.5C28 34.4 29.5 26.6 38.7 22.9C38.9 22.8 39.1 22.8 39.2 22.8C39.7 22.8 40.2 23.1 40.5 23.6C40.9 24.3 40.6 25.1 40 25.5H39.9C38.5 26.4 37.3 27.5 36.5 28.9C37.5 28.6 38.3 28.5 38.8 28.5H38.9H39.1C39.7 28.5 40.2 28.9 40.4 29.5C40.6 30.1 40.4 30.8 39.8 31.2L39.7 31.3C36.8 33 35.2 34.9 34.9 37.1C34.6 39.5 35.9 41.7 36.8 43C39.3 40.2 40.8 35.3 41.3 33.5C41.5 32.9 42 32.4 42.7 32.4H42.9C43.6 32.5 44.2 33.1 44.2 33.8C44.2 39.8 42.6 43.8 41 46.4C43.5 47.6 45.8 47.7 46.4 47.7H46.6H46.7H46.8C47.3 47.7 49.7 47.6 52.2 46.4C50.6 43.8 49 39.7 49 33.8C49 33.1 49.5 32.5 50.3 32.4H50.5C51.1 32.4 51.7 32.8 51.9 33.5C52.3 35.3 53.9 40.1 56.4 43C57.4 41.7 58.6 39.5 58.3 37.1C58 34.9 56.4 33 53.5 31.3L53.4 31.2C52.8 30.8 52.6 30.1 52.8 29.5C53 28.9 53.5 28.5 54.1 28.5H54.3H54.4C55 28.6 55.8 28.7 56.7 28.9C55.8 27.6 54.6 26.4 53.3 25.5H53.2C52.6 25.1 52.3 24.3 52.7 23.6C53 23.1 53.5 22.8 54 22.8C54.2 22.8 54.4 22.8 54.5 22.9C63.6 26.5 65.1 34.4 64.9 39.5C65.6 38.8 66.2 38 66.8 37.1C69.5 33.2 71.1 28.2 71.1 23.3C71.1 20.7 70.7 18.2 69.9 15.7C65.6 12.6 61.8 11.7 61.8 11.7C61.1 11.5 60.7 10.9 60.7 10.2C60.8 9.50001 61.3 8.90002 62 8.90002H62.3C62.8 8.90002 64.4 9 66.7 9.5C64.8 6.7 62.2 4.30004 59.3 2.60004C58.7 2.20004 58.4 1.49999 58.7 0.799988C58.9 0.299988 59.5 0 60 0C60.2 0 60.3 3.66196e-05 60.4 0.100037C61.7 0.500037 64.7 1.70002 68 4.40002C67.9 4.10002 68 3.80002 68.2 3.40002C68.5 2.90002 68.9 2.60004 69.5 2.60004C69.7 2.60004 69.8 2.60001 70 2.70001C70.4 2.90001 80.2 6.50001 82.7 18.7C84 25.3 82.3 30.8 79.2 35.4C79.3 35.5 79.4 35.5 79.4 35.6C88.4 44.4 93.3 56.2 93.3 68.7C93 94.3 72.1 115.2 46.5 115.2Z" fill="#EEE1C6"/>
<path d="M33.0999 1.40015C29.8999 2.40015 23.2999 5.80012 19.4999 14.0001C17.9999 15.1001 16.6999 16.4002 15.1999 18.1002C16.6999 11.4002 20.1999 6.60012 23.6999 4.00012C23.6999 4.00012 14.2999 7.40015 11.9999 18.9001C9.29991 32.3001 19.9999 40.6001 28.6999 47.8001L22.0999 45.1002C21.6999 44.9002 21.2999 45.4001 21.3999 45.9001L21.5999 47.5001C21.6999 48.4001 22.3999 52.9001 24.8999 54.3001C25.3999 54.6001 26.2999 54.9002 29.0999 55.1002L33.9999 55.4001L33.1999 58.2001L37.9999 66.0001L35.4999 63.4001L30.3999 81.4001L44.2999 92.9001L39.9999 73.2001L46.4999 81.1002L52.8999 73.2001L48.5999 92.9001L62.4999 81.4001L57.3999 63.4001L54.8999 66.0001L59.6999 58.2001L58.8999 55.4001L63.7999 55.1002C66.4999 54.9002 67.3999 54.6001 67.9999 54.3001C70.4999 52.9001 71.1999 48.4001 71.2999 47.5001L71.4999 45.9001C71.5999 45.4001 71.2999 44.9002 70.7999 45.1002L64.1999 47.8001C72.7999 40.6001 83.4999 32.3001 80.8999 18.9001C78.5999 7.40015 69.1999 4.00012 69.1999 4.00012C72.6999 6.60012 76.1999 11.3002 77.6999 18.1002C76.2999 16.3002 74.9999 15.0001 73.3999 14.0001C69.4999 5.70012 62.9999 2.40015 59.7999 1.40015C63.9999 3.90015 67.4999 7.70012 69.5999 12.0001C64.7999 10.3001 61.8999 10.4001 61.8999 10.4001C61.8999 10.4001 66.1999 11.5001 70.8999 14.9001C71.7999 17.6001 72.2999 20.4001 72.2999 23.4001C72.2999 28.6001 70.5999 34.0002 67.6999 38.1002C66.0999 40.4002 64.4999 42.0001 62.4999 43.5001C63.0999 41.9001 65.5999 29.3001 53.6999 24.5001L53.7999 24.6002C56.5999 26.4002 58.6999 29.3002 59.4999 32.6002C57.2999 30.5002 54.9999 30.3002 53.7999 30.1002C53.7999 30.1002 53.7999 30.1002 53.8999 30.1002C64.9999 36.5002 56.1999 45.1002 56.1999 45.1002C52.6999 42.2002 50.6999 35.6001 50.1999 33.8001C50.1999 40.7001 52.4999 44.9001 53.9999 46.9001C50.3999 49.4001 46.3999 49.2001 46.3999 49.2001C46.3999 49.2001 42.3999 49.4001 38.7999 46.9001C40.3999 44.9001 42.6999 40.7001 42.5999 33.8001C42.1999 35.6001 40.0999 42.1002 36.5999 45.1002C36.5999 45.1002 27.7999 36.5002 38.8999 30.1002C38.8999 30.1002 38.8999 30.1002 38.9999 30.1002C37.7999 30.3002 35.4999 30.5002 33.2999 32.6002C34.1999 29.3002 36.1999 26.4002 38.9999 24.6002L39.0999 24.5001C27.1999 29.3001 29.6999 41.9001 30.2999 43.5001C28.3999 42.0001 26.7999 40.4002 25.0999 38.1002C22.1999 34.0002 20.4999 28.7001 20.4999 23.4001C20.4999 20.4001 20.9999 17.6001 21.8999 14.9001C26.5999 11.4001 30.8999 10.4001 30.8999 10.4001C30.8999 10.4001 27.9999 10.2001 23.1999 12.0001C25.4999 7.60012 28.9999 3.90015 33.0999 1.40015ZM14.8999 36.6002C6.5999 44.8002 1.3999 56.2001 1.3999 68.7001C1.3999 93.6001 21.5999 113.8 46.4999 113.8C71.3999 113.8 91.5999 93.6001 91.5999 68.7001C91.5999 56.1001 86.4999 44.8002 78.0999 36.6002L77.0999 37.8001C85.0999 45.7001 89.9999 56.6001 89.9999 68.7001C89.9999 92.7001 70.4999 112.2 46.4999 112.2C22.4999 112.2 2.99991 92.7001 2.99991 68.7001C2.99991 56.6001 7.8999 45.7001 15.8999 37.8001L14.8999 36.6002ZM16.9999 38.8001C9.29991 46.4001 4.49991 57.0002 4.49991 68.6002C4.49991 91.7002 23.2999 110.5 46.3999 110.5C69.4999 110.5 88.2999 91.7002 88.2999 68.6002C88.2999 57.0002 83.4999 46.4001 75.8999 38.8001L74.7999 39.9001C82.0999 47.2001 86.6999 57.4001 86.6999 68.5001C86.6999 71.1001 86.3999 73.6001 85.9999 76.0001L73.4999 72.6002C71.4999 85.9002 59.9999 96.2001 46.1999 96.2001C32.3999 96.2001 20.8999 86.0001 18.8999 72.8001L6.69992 76.1002C6.29992 73.6002 5.99991 71.2002 5.99991 68.6002C5.99991 57.5002 10.6999 47.2001 17.9999 39.9001L16.9999 38.8001Z" fill="#00471B"/>
<path d="M18.0999 18.5C17.6999 18.9 17.2998 19.4 16.8998 19.9C13.1998 24.7 18.6999 33.3 18.6999 33.3C18.6999 33.3 16.5999 24 18.0999 18.5ZM74.7999 18.5C76.3999 24 74.2999 33.3 74.2999 33.3C74.2999 33.3 79.7999 24.7 75.9999 19.9C75.6999 19.4 75.2999 18.9 74.7999 18.5Z" fill="#EEE1C6"/>
<path d="M23.7 47.5C23.7 47.5 24.2 51.6 25.9 52.5C27 53.1 29.8 53.1 32.3 53.3C29.6 52.2 25.6 49.3 23.7 47.5ZM69.2 47.5C67.3 49.3 63.4 52.2 60.7 53.2C63.1 53 65.9 53.1 67.1 52.4C68.8 51.5 69.2 47.5 69.2 47.5ZM54.6 53.6C54.5 53.6 54.5 53.6 54.4 53.6C53.1 54.2 51.8 54.8 51.1 55.1C50.8 55.2 50.7 55.6 51 55.8C51.7 56.5 52.9 57.1 54.4 56C55.2 55.4 55.2 54.5 55.1 53.9C55 53.7 54.8 53.6 54.6 53.6ZM38.4 53.6C38.2 53.6 38 53.7 38 54C37.9 54.6 37.9 55.5 38.7 56.1C40.2 57.2 41.4 56.6 42.1 55.9C42.3 55.7 42.2 55.3 41.9 55.2C41.2 54.9 39.9 54.3 38.6 53.7C38.5 53.6 38.5 53.6 38.4 53.6ZM45 56.7L43.7 61C43.7 61 43.3 62.7 41.4 63.9L40.6 67.4L42.5 70H44.6L42.7 67.2L43 65.4C43.9 66.3 45.1 66.9 46.5 66.9C47.9 66.9 49.1 66.3 50 65.4L50.3 67.2L48.4 70H50.5L52.4 67.4L51.6 63.9C49.7 62.7 49.3 61 49.3 61L48 56.7L46.5 57.4L45 56.7ZM43.7 71.6L45 73.4H47.9L49.2 71.6H43.7ZM75.7 75.4L74.6 79.1L74.3 80.1L78.5 81.3L79.6 81.6L80.6 78.3L83.2 79.1L82.7 80.9L81.6 80.5L81.2 81.9L82.8 82.4L83.9 82.7L85.3 78L84.2 77.8L80.7 76.7L79.6 76.4L78.6 79.7L76.4 79L76.9 77.2L78 77.5L78.4 76.1L76.9 75.6L75.7 75.4ZM17.3 75.6L8 78.8L8.5 80.2L14.3 78.2L12.2 79.9L14.9 80L9.10001 82L9.60001 83.4L18.9 80.2L18.4 78.8L15.7 78.7L17.8 77L17.3 75.6ZM73.8 80.6L73 82L74.8 84.4L72.4 83.1L71.7 84.4L80.3 89L81 87.7L77.2 85.7L81.7 86.3L82.4 84.9L76.2 84.1L73.8 80.6ZM19.5 81.6L10.8 86.1L11.5 87.4L20.2 82.9L19.5 81.6ZM20.9 84.2L13 89.9L15.7 93.7L17 92.8L15.1 90.2L21.8 85.4L20.9 84.2ZM71.2 85.4L68.1 89.2L69 89.9L75.7 95.3L76.4 94.5L78.8 91.5L77.9 90.8L76.5 89.6L75.6 90.8L76.7 91.7L75.5 93.2L70.3 89.1L71.5 87.6L72.6 88.5L73.5 87.3L72 86.2L71.2 85.4ZM23.4 87.9L17.1 95.5L18.1 96.5L20.8 94.6L19 97.3L20 98.3L27.5 92L26.6 91L23.4 93.6L25.7 90.1L25.3 89.7L21.9 92L24.4 88.8L23.4 87.9ZM67.3 90.1L66.1 91.1L71.4 97.3L69.9 98.5L64.6 92.2L63.5 93.2L69.7 100.7L70.6 100L72.7 98.2L73.5 97.5L67.3 90.1ZM28.3 92.5L23 100.7L24.3 101.5L26.6 97.9L28.2 98.9L25.9 102.5L27.2 103.3L31.6 96.4L32.1 95.6L32.4 95.2L28.3 92.5ZM61.6 94.5L58.2 96.3L62.8 104.9L66.2 103.1L66.6 101.7L65.2 99.1L64.3 98.7L64.5 97.7L63 95L61.6 94.5ZM28.7 94.6L30.3 95.6L29 97.6L27.4 96.6L28.7 94.6ZM33.2 95.6L29.7 104.7L30.8 105.1L33.4 106.1L34.4 106.5L37.9 97.4L36.5 96.9L33.6 104.5L31.8 103.8L34.7 96.2L33.2 95.6ZM62 96L63.1 98.1L61.4 99L60.3 96.9L62 96ZM54.6 97.5L50 98.4L51.9 107.9L56.5 107L56.2 105.5L53 106.1L52.5 103.4L55.6 102.8L55.3 101.3L52.2 101.9L51.8 99.6L54.9 99L54.6 97.5ZM38.9 97.6L37.2 107.2L38.7 107.5L39.4 103.3L40.3 107.8L41.9 108.1L40.8 101.9L43.3 98.4L41.7 98.1L39.9 100.6L40.4 97.9L38.9 97.6ZM48.9 98.5L44.2 98.6L44.4 108.3L49.1 108.2V106.6L45.9 106.7V104L49.1 103.9V102.4L45.9 102.5V100.1L49.1 100L48.9 98.5ZM63.8 99.5L65.1 101.9L63.4 102.8L62.1 100.4L63.8 99.5Z" fill="white"/>
</svg>
