<svg width="101" height="101" viewBox="0 0 101 101" fill="none" xmlns="http://www.w3.org/2000/svg">
<path d="M50.375 100.75C78.1963 100.75 100.75 78.1964 100.75 50.375C100.75 22.5537 78.1963 0 50.375 0C22.5536 0 0 22.5537 0 50.375C0 78.1964 22.5536 100.75 50.375 100.75Z" fill="#9EA2A2"/>
<path d="M50.625 98.75C77.4108 98.75 99.125 77.0358 99.125 50.25C99.125 23.4642 77.4108 1.75002 50.625 1.75002C23.8392 1.75002 2.125 23.4642 2.125 50.25C2.125 77.0358 23.8392 98.75 50.625 98.75Z" fill="#0C2340"/>
<path d="M50.7499 18.125C48.2499 18.125 45.8748 18.375 43.4998 18.875C43.2498 19.625 42.9998 21 43.4998 22.125C43.7498 22.875 44.3749 23.5 45.1249 24C47.3749 23.125 49.7498 22.125 52.1248 21.375C55.1248 20.25 57.6248 19.75 59.7498 19.375H59.6248C58.1248 19 56.7498 18.625 55.2498 18.375C53.7498 18.25 52.2499 18.125 50.7499 18.125ZM41.2498 19.5C36.6248 20.875 32.3749 23.25 28.8749 26.5C28.9999 26.5 29.2498 26.5 29.3748 26.5C32.3748 26.375 36.7498 26.5 39.2498 26.5C40.2498 26 41.6248 25.5 42.9998 24.875C42.3748 24.25 41.8748 23.625 41.6248 22.875C41.1248 21.75 41.1248 20.5 41.2498 19.5ZM64.1248 21.125C63.9998 21.125 57.2499 21 48.8749 25.125C48.7499 25.25 48.6248 25.25 48.4998 25.375C51.1248 26.125 53.2498 26.25 54.8748 26.375C55.2498 26.375 55.6248 26.375 55.8748 26.5H56.1248C57.1248 26.625 58.4998 26.75 60.2498 27C61.4998 25.5 62.9998 24.5 63.9998 24.375C65.1248 24.875 65.7498 25.5 66.2498 26.5C67.8748 27.25 68.9998 28.375 69.7498 29.875C73.4998 31.5 77.3748 34 80.2498 37.625C77.1248 30.5 71.4998 24.5 64.1248 21.125ZM46.7498 27C45.9998 27.75 45.4998 28.625 44.9998 29.25C45.8748 30.125 47.4998 31.875 48.3748 32.875C49.7498 33.75 51.2499 34.625 52.6249 35.625C54.8749 33.125 56.8749 31 58.8749 29C57.8749 28.875 56.8748 28.75 55.8748 28.625H55.6248C55.3748 28.625 54.9998 28.625 54.7498 28.5C52.9998 28.375 50.1248 28.125 46.7498 27ZM28.8749 28.625C27.9999 28.625 27.3748 28.625 26.8748 28.75C24.2498 31.625 21.9998 35.125 20.6248 39C23.8748 35.625 28.7498 32 34.2498 33.125C34.6248 32.375 35.1248 31.625 35.4998 30.875C33.7498 29.75 32.7498 29 29.7498 28.625C29.3748 28.625 29.1249 28.625 28.8749 28.625ZM70.4998 32.375C71.4998 36.75 70.3748 41.75 70.3748 41.75C70.3748 41.75 72.7498 43.125 73.3748 45.75C73.3748 45.75 73.7498 45.875 73.9998 46.25C74.6248 47.125 75.4998 49 74.1248 52.625C74.1248 52.625 73.3748 50.875 71.6248 52.75C71.4998 53 71.3748 53.125 71.2498 53.375C74.4998 57.875 76.9999 62.5 78.2499 67.125C79.7499 64.75 80.8748 62.125 81.6248 59.375C82.7498 55.5 83.1248 51.5 82.7498 47.75C81.8748 43.875 79.1248 36.875 70.4998 32.375ZM40.6248 33.125C39.7498 33.5 38.7498 34 37.8748 34.625C40.4998 36.375 42.4999 39.25 43.8749 42.625C45.9999 41.875 47.3748 41.875 47.3748 41.875C48.7498 40.125 50.1248 38.5 51.2498 37.125C49.8748 36.125 48.4999 35.25 46.9999 34.375C45.4999 33.875 41.8748 33.25 40.6248 33.125ZM31.8748 35C26.1248 35.25 21.1248 41.125 18.9998 43.875C17.6248 50.875 18.4999 57.75 21.3749 63.875C22.8749 62.5 24.3749 61 25.7499 59.5C25.6249 54.875 26.2499 50.5 27.6249 46.25C28.7499 42.625 30.2498 39.625 31.8748 37.125C32.1248 36.625 32.4998 35.875 32.9998 35C32.7498 35 32.3748 35 31.8748 35ZM35.8748 35.75C35.3748 36.125 34.9998 36.5 34.6248 36.875C30.8748 42.125 28.2498 49 27.9998 57.25C31.9998 52.875 35.2498 48.75 37.4998 46.625C38.9998 45.125 40.6249 44.125 41.9999 43.375C40.4999 40 38.4998 37.125 35.8748 35.75ZM69.8748 55.25C67.7498 58.625 66.7498 61.875 66.6248 67.5C66.4998 70.625 68.1248 73 69.2498 76.625C71.9998 74.625 74.4998 72.25 76.6248 69.5C75.6248 64.875 73.1248 60 69.8748 55.25Z" fill="#236192"/>
<path d="M63.75 25.75C63.125 25.75 62.375 26.25 61.375 28C63.5 25.75 65.25 27.25 65.25 27.25C65.125 26.75 64.625 25.75 63.75 25.75ZM44.375 26.25L39.875 28.5C39.875 28.5 36.625 28.25 35 28.25C36.5 29.25 37.875 30.375 37.875 30.375L35.875 33.625L40.125 31.375C40.125 31.375 42.75 31.875 45.25 32.375C43.875 30.75 42.125 29.625 42.125 29.625L44.375 26.25ZM46.125 45.5C43.75 46.75 40 50.375 40 50.375C41.75 49.125 45.375 48.625 45.375 48.625C45.5 47.125 46.125 45.5 46.125 45.5Z" fill="#78BE20"/>
<path d="M50.6252 14.125C32.6252 14.125 17.2502 27.625 14.7502 45.375C13.7502 52.75 15.0002 60.125 18.2502 66.625C18.6252 66.25 19.1252 65.875 19.5002 65.625C16.5002 59.5 15.3752 52.5 16.2502 45.625C18.6252 28.5 33.3752 15.75 50.5002 15.75C52.1252 15.75 53.7502 15.875 55.2502 16.125C64.3752 17.375 72.5002 22.125 78.1252 29.5C83.7502 36.875 86.1252 46 84.8752 55.125C83.5002 65.25 77.7502 73.875 69.7502 79.25C69.8752 79.75 70.0002 80.375 70.0002 81C78.7502 75.375 85.0002 66.25 86.3752 55.375C87.7502 45.75 85.2502 36.25 79.3752 28.5C73.5002 20.75 65.0002 15.75 55.5002 14.5C53.8752 14.25 52.2502 14.125 50.6252 14.125ZM66.3752 29.125C66.5002 29.375 66.3752 30.125 66.2502 30.75C64.7502 31 61.6252 30.625 60.5002 30.125C56.6252 34.375 52.2502 40.25 49.0002 45.625C47.6252 48.5 46.2502 51.875 45.8752 54.5C45.8752 54.5 45.3752 53.25 45.3752 51.625C43.6252 52.375 37.5002 55.25 36.2502 64.5C36.2502 64.5 40.1252 60.5 44.3752 59C44.3752 59 41.6252 66.125 46.8752 78.625C46.8752 78.625 49.0002 70.875 53.3752 69C56.0002 82.125 63.7502 82.375 66.0002 91.25C66.0002 91.25 68.3752 86.625 65.5002 78.75C65.5002 78.75 66.5002 79 67.3752 80C67.3752 80 67.2502 77.75 65.1252 72.75C63.7502 70.125 63.2502 66.5 63.2502 66.5C62.0002 67.625 61.6252 71.5 61.6252 71.5C57.7502 61 68.7502 50.75 70.7502 49.25C71.7502 48.5 72.3752 48.5 72.6252 48.625C73.0002 47.875 73.0002 47.375 72.5002 47L72.2502 46.875C71.1252 46.25 69.0002 48 67.6252 48.75C66.2502 49.5 64.2502 51.125 63.3752 48.875C62.3752 46.625 64.6252 43.25 65.3752 41.125C67.1252 36.375 67.1252 33.5 66.7502 32C68.3752 33.75 68.7502 37.125 68.7502 37.125C68.7502 37.125 69.5002 30.75 66.3752 29.125ZM32.5002 65.5C32.5002 65.5 25.2502 70.875 17.7502 71.25C17.7502 71.25 25.1252 73 28.2502 71.75C28.0002 71.5 27.6252 71.25 27.2502 70.875C27.2502 70.75 30.2502 68.875 32.5002 65.5Z" fill="#9EA2A2"/>
<path d="M54.375 5.12501L54.25 6.49999L55.9999 6.75001L55.3749 11.5L56.75 11.625L57.375 6.875L59.1249 7.12499L59.25 5.75001L54.375 5.12501ZM42.625 5.625H42.375L40.625 12.25L42.125 12L43 8.75L44.875 11.5L46.375 11.25L42.625 5.625ZM63.125 6.75001L61.375 12.625L62.75 13L64.5 7.12499L63.125 6.75001ZM36.375 7.12499L31.875 8.87501L32.375 10.125L34 9.50001L35.75 14L37 13.5L35.25 8.99999L36.875 8.37499L36.375 7.12499ZM69 8.75L66.125 14.25L67.375 14.875L68.75 12.375L69.375 14.75L69.5 14.875L71.75 14L70.3749 16.5L71.6249 17.125L74.5 11.625L74.375 11.5L70.3749 13L69.25 8.87501L69 8.75ZM27.75 11.625C26 11.625 24.625 13 24.625 14.75C24.625 16.5 26 17.875 27.75 17.875C29.5 17.875 30.875 16.5 30.875 14.75C30.875 13 29.5 11.625 27.75 11.625ZM27.75 13C28.75 13 29.5 13.75 29.5 14.75C29.5 15.75 28.75 16.5 27.75 16.5C26.75 16.5 25.9999 15.75 25.9999 14.75C25.9999 13.75 26.75 13 27.75 13ZM78.75 14.625L77.8749 15.625L77.2499 16.375L76.375 17.375L75.625 18.25L74.7499 19.25L75.75 20.125L76.6249 20.875C76.9999 21.25 77.5 21.375 78 21.375C78.625 21.375 79.125 21.125 79.5 20.75C79.875 20.375 80 19.875 80 19.375C80.375 19.25 80.625 19.125 80.875 18.75C81.25 18.25 81.375 17.75 81.375 17.25C81.25 16.75 81 16.375 80.625 16L79.875 15.375L78.75 14.625ZM78.875 16.625L79.625 17.25C80 17.5 79.9999 17.75 79.7499 18C79.4999 18.375 79.125 18.125 78.875 17.875L78.125 17.25L78.875 16.625ZM20.3749 17.375C19.6249 17.375 18.875 17.75 18.375 18.375C18 18.75 17.75 19.25 17.75 19.75C17.75 20.25 17.875 20.75 18.375 21.25C19 21.875 19.875 21.875 20.75 21.375L21.375 21C21.75 20.75 22 20.75 22.125 20.875C22.375 21.125 22.25 21.375 22 21.75C21.625 22.25 21.125 22.25 20.75 22.25H20.625L20.5 23.75H20.625C21.125 23.75 22.125 23.625 23.125 22.625C23.625 22.125 23.875 21.5 23.875 21C23.875 20.5 23.625 20 23.25 19.625C22.625 19 21.875 19 20.75 19.625L20 20C19.75 20.125 19.625 20.125 19.375 20C19.25 19.875 19.25 19.625 19.5 19.375C19.75 19.125 19.9999 18.875 20.3749 18.875H20.5L20.3749 17.375ZM77.375 18.375L78.25 19.125C78.625 19.375 78.6249 19.75 78.4999 20C78.2499 20.25 77.875 20.25 77.625 20L76.75 19.25L77.375 18.375ZM85.25 21.125L80.3749 25L83 28.25L84.1249 27.375L82.375 25.125L83.125 24.5L84.625 26.375L85.75 25.5L84.25 23.625L85 23L86.75 25.25L87.8749 24.375L85.25 21.125ZM14.1249 23.125L11.75 26.625L16.875 30L19.25 26.5L18.125 25.75L16.6249 28.125L15.75 27.5L17.125 25.5L15.9999 24.75L14.625 26.75L13.75 26.25L15.25 23.875L14.1249 23.125ZM90.3749 28.375L84.875 31.125L85.5 32.375L88 31.125L86.25 34L87 35.5C87 35.5 88.25 33.375 88.375 33.25C88.875 33.75 89.75 33.875 90.5 33.5C91.625 32.875 92 31.75 91.375 30.5L90.3749 28.375ZM89.7499 30.25L90.125 31C90.375 31.625 90.2499 32 89.7499 32.25C89.2499 32.5 88.875 32.375 88.625 31.75L88.25 31L89.7499 30.25ZM9.37495 31.125L8.875 32.375L11.875 33.625L7.49995 35.625L7.37498 35.875L13.125 38.25L13.625 37L10.625 35.75L15 33.75L15.125 33.5L9.37495 31.125ZM93.875 35.875L88.375 39.5V39.75L92.125 40.625L89.25 43.125V43.375L95.875 44.125L95.5 42.75L92.375 42.375L95 40.25V40L91.5 39.125L94.1249 37.375L93.875 35.875ZM5.99994 40.875L5.75 42.25L8.875 42.75L5.125 45.625V45.875L11.25 46.875L11.5 45.5L8.37497 45L12.125 42.125V41.875L5.99994 40.875ZM70.5 43.75C70.75 44.25 70.875 44.875 70.75 45.25C71.125 45.125 71.4999 45.125 71.6249 45.125C71.4999 45 71.375 44.625 71.25 44.375C71 44.125 70.5 43.75 70.5 43.75ZM67.375 44.375C67.75 45.375 67.625 46.375 67.5 47C68 46.625 68.375 46.375 68.75 46.125C68.625 46 68.625 45.75 68.375 45.375C68.125 44.875 67.375 44.375 67.375 44.375ZM93 47.375C91.25 47.375 89.875 48.75 89.875 50.5C89.875 52.25 91.25 53.625 93 53.625C94.75 53.625 96.125 52.25 96.125 50.5C96.125 48.875 94.75 47.375 93 47.375ZM93 48.875C94 48.875 94.7499 49.625 94.7499 50.625C94.7499 51.625 94 52.375 93 52.375C92 52.375 91.25 51.625 91.25 50.625C91.25 49.625 92 48.875 93 48.875ZM11.25 50.625L5.125 50.75V52.125L11.25 52V50.625ZM11.5 55.75L5.37494 57V57.25L9.12494 59.375L6.62494 62.875V63.125L12.75 61.875L12.5 60.5L9.74994 61.125L11.125 59.125V59L8.99997 57.75L11.75 57.125L11.5 55.75ZM89.375 57L88.4999 61L89.875 61.375L90.5 58.75L95.125 59.875L95.5 58.5L89.375 57ZM93.875 64.625L87.125 64.875L87 65L91.75 69.875L92.375 68.5L90.125 66.125L93.4999 66L93.875 64.625ZM84.7499 69.875L82.5 73.375L83.625 74.125L85.125 71.75L85.9999 72.25L84.7499 74.25L85.875 75L87.125 73L88 73.5L86.5 75.875L87.625 76.625L89.875 73.125L84.7499 69.875ZM81.6249 76.375C81.4999 76.375 80.5 76.375 79.875 76.75C79.5 76.875 79.25 77.125 79 77.375C78.625 77.75 78.5 78.125 78.375 78.5C78.25 79.125 78.375 79.875 78.875 80.375C79.375 80.875 80 81 80.625 80.75C80.875 80.625 81.125 80.5 81.375 80.375C81.75 80.25 82.25 80 82.5 79.875C83.125 79.875 83 80.625 82.375 81C82.125 81.125 81.625 81.25 81.375 81.25L81.5 82.625C81.625 82.625 82.375 82.5 83 82.125C84 81.5 84.25 80.75 84.25 80.25C84.25 79.875 84.125 79.25 83.625 78.875C83.25 78.5 82.7499 78.375 82.2499 78.375C81.7499 78.375 81.25 78.75 80.75 79C80.5 79.125 80.25 79.25 80.125 79.25C80 79.25 79.8749 79.25 79.7499 79.125C79.6249 79 79.625 78.875 79.625 78.625C79.75 78.25 80 78 80.5 77.75C80.75 77.625 81.3749 77.5 81.6249 77.5V76.375Z" fill="white"/>
</svg>
