<svg width="126" height="95" viewBox="0 0 126 95" fill="none" xmlns="http://www.w3.org/2000/svg">
<path d="M124.8 36.2L125.2 36.3V29.2C125.2 28.1 125 26.9 124.6 25.9C124.2 24.8 123.6 23.8 122.9 22.8C122.2 22 121.5 21.2 120.7 20.5C120 19.9 119.1 19.4 118.3 19C117.8 18.6 116.7 18.1 113.7 16.9C111.2 15.9 107.2 14.4 102 12.9C96.2 11.2 90.3 9.79999 84.4 8.79999C84.4 8.69999 79.8 3.1 73 6C72.8 6.1 72.5 6.19999 72.3 6.29999C71.3 6.79999 70.4 7.19999 68.7 6.79999C67.7 6.49999 66.4 5.90004 66.9 3.60004C67.1 2.90004 67.5 2.4 68.1 2C68.5 1.7 69 1.69999 69.5 1.79999C70.4 2.09999 70.8 2.59999 70.7 3.29999C70.7 3.59999 70.4 3.9 70.2 4C69.9 4.1 69.5 3.99999 69.3 3.79999C69 3.59999 68.5 3.7 68.3 4C68.1001 4.3 68.2 4.8 68.5 5C69.2 5.5 70 5.59999 70.8 5.29999C71.5 4.99999 72.1 4.3 72.2 3.5C72.3 2.9 72.5 1.00002 70 0.400024C69.2 0.100024 68.2 0.300012 67.5 0.700012C66.6 1.30001 65.9 2.20001 65.7 3.20001V3.29999C65.5 2.99999 65.2 2.70002 65 2.40002L62.7 0L60.4 2.40002C60.1 2.70002 59.9 2.99999 59.7 3.29999V3.20001C59.4 2.20001 58.8 1.30001 57.9 0.700012C57.1 0.200012 56.2 0.100024 55.4 0.400024C53 1.10002 53.1 3 53.2 3.5C53.4 4.3 53.9 4.89999 54.6 5.29999C55.4 5.59999 56.3 5.5 56.9 5C57.2 4.8 57.3 4.3 57.1 4C56.9 3.7 56.4 3.59999 56.1 3.79999C55.8 3.99999 55.5 4.1 55.2 4C54.9 3.9 54.7 3.59999 54.7 3.29999C54.6 2.49999 55 1.99999 55.9 1.79999C56.4 1.69999 56.9 1.7 57.3 2C57.9 2.4 58.3 2.90004 58.5 3.60004C59 5.90004 57.7 6.49999 56.7 6.79999C55 7.29999 54.1 6.79999 53.1 6.29999C52.9 6.19999 52.6 6.1 52.4 6C45.6 3.1 41 8.69999 40.9 8.79999C35.2 9.79999 29.5 11.1 23.9 12.7C18.4 14.3 12.9 16.3 7.70001 18.7L6.80005 19.1V19.2C6.40005 19.3 6.00004 19.4 5.60004 19.6C4.10004 20.3 2.60004 21 1.10004 21.8L0 22.4V26.3C0 27.1 0.2 27.9 0.5 28.6C0.6 28.7 0.600049 28.9 0.800049 29V33.3C0.300049 34.2 0.1 35.2 0 36.2C0 37.1 0.200049 37.9 0.800049 38.6V47.6L0.900024 47.9C1.90002 50.5 4.00004 52.5 6.60004 53.5L6.5 53.6C6.5 53.6 8.70001 57.2 12.2 58L11.5 58.3C11.5 58.3 14 62.3 18.7 63.1L18 63.4C20.1 65.5 22.9 66.9 25.8 67.3C32.4 87.8 54.4 99.2 74.9 92.6C86.9 88.8 96.3 79.3 100.2 67.3C103.2 66.9 105.9 65.5 108 63.4L107.3 63.1C112 62.3 114.5 58.3 114.5 58.3L113.8 58C117.3 57.2 119.5 53.6 119.5 53.6L119.7 53.3C123.4 51.7 125.9 48.1 126 44.1V39.5C125.4 38.3 125.2 37.2 124.8 36.2ZM82 8.5C79.2 8.1 76.3 7.7 73.3 7.5C73.4 7.5 73.5 7.40002 73.6 7.40002C76.4 6.10002 79.6 6.5 82 8.5ZM51.2 7.40002C51.3 7.40002 51.4 7.5 51.5 7.5C48.5 7.7 45.6 8.1 42.8 8.5C44.3 7.3 47.3 5.70002 51.2 7.40002Z" fill="#8C734B"/>
<path d="M121.5 33.1001L123.6 33.9001V29.2001C123.6 28.3001 123.4 27.3001 123.1 26.4001C122.8 25.5001 122.3 24.6 121.7 23.8C121.1 23.1 120.5 22.4 119.7 21.8C119 21.3 118.3 20.8001 117.5 20.5001C117.1 20.2001 116 19.7001 113.1 18.5001C110.6 17.5001 106.7 16.0001 101.5 14.5001C93.1002 12.0001 80.4003 9.00005 67.2003 8.80005C66.9003 7.90005 66.1003 7.20006 65.1003 7.00006C65.0003 5.30006 63.7002 3.9001 63.5002 3.6001L62.3003 2.30005L61.1003 3.6001C60.8003 3.9001 59.6002 5.20006 59.5002 7.00006C58.5002 7.20006 57.8003 7.90005 57.4003 8.80005C44.4003 9.00005 32.0003 11.9001 23.7003 14.4001C18.2003 16.0001 12.9003 18 7.70026 20.3V21.3C7.70026 21.3 7.60024 21.2001 7.50024 21.2001C7.30024 21.1001 7.00026 21.0001 6.70026 21.0001C6.30026 21.0001 5.90024 21.1 5.50024 21.3C4.00024 22 2.50028 22.7001 1.10028 23.4001L0.800293 23.5001V26.4001C0.800293 26.9001 0.900256 27.5001 1.20026 28.0001C1.30026 28.2001 1.50026 28.4001 1.70026 28.5001V33.8C1.20026 34.5 1.00027 35.4 0.900269 36.3C0.900269 37 1.10026 37.7001 1.70026 38.1001V47.4001C2.70026 49.9001 4.90024 51.7001 7.50024 52.3C7.60024 52.3 7.70029 52.3001 7.80029 52.4001C8.50029 52.6001 9.30028 52.6001 10.1003 52.6001C9.30028 53.0001 8.50029 53.4 7.80029 53.8C7.80029 53.8 10.1003 57.7001 15.7003 57.1001C14.8003 57.5001 13.9003 58.0001 12.9003 58.4001C12.9003 58.4001 15.6002 62.2001 21.5002 62.1001C20.1002 62.8001 19.3003 63.2001 19.3003 63.2001C21.3003 64.9001 23.8003 66.0001 26.4003 66.1001C32.3003 85.9001 53.2002 97.2001 73.0002 91.2001C85.1002 87.6001 94.5003 78.1001 98.1003 66.1001C100.7 65.9001 103.2 64.9001 105.2 63.2001C105.2 63.2001 104.4 62.8001 103 62.1001C108.9 62.2001 111.6 58.5001 111.6 58.4001C110.7 57.9001 109.8 57.5001 108.8 57.1001C114.4 57.6001 116.7 53.8 116.7 53.8C115.9 53.4 115.1 53.0001 114.4 52.6001C116 52.7001 117.7 52.3001 119.1 51.5001C121.8 50.0001 123.6 47.2001 123.7 44.1001V39.5001C123.8 36.5001 121.5 33.1001 121.5 33.1001Z" fill="#0A2240"/>
<path d="M87.3003 69.3C88.0003 69.8 88.7003 70.4001 89.4003 70.9001C89.4003 70.8001 81.1003 73.2001 75.1003 70.6001L74.4003 70.3C72.6003 77 65.6003 80.9001 58.9003 79.1001C54.6003 77.9001 51.3003 74.6 50.1003 70.3C49.9003 70.4 49.7003 70.5001 49.4003 70.6001C43.5003 73.2001 35.1003 70.9001 35.1003 70.9001C35.8003 70.4001 36.5003 69.8 37.2003 69.3C34.7003 69.6 32.2003 69.4001 29.8003 68.6001C37.1003 86.5001 57.6003 95.0001 75.4003 87.7001C84.0003 84.1001 90.9002 77.3001 94.5002 68.6001C92.3002 69.4001 89.8003 69.6 87.3003 69.3Z" fill="#CE0E2D"/>
<path d="M58.9003 12.5C58.3003 12.2 57.8002 11.6 57.5002 11C36.5002 11.5 15.6003 19.1 15.7003 19.3C14.9003 19.5 14.4003 20.2 14.3003 21V21.8C28.5003 16.3 43.6003 13.2 58.9003 12.9V12.5Z" fill="white"/>
<path d="M110.4 19.8001C110.4 19.5001 88.4999 11.5001 67.2999 10.9001C66.9999 11.6001 66.5999 12.1001 65.8999 12.4001V12.7001C81.5999 13.2001 97.1999 16.4001 111.8 22.2001V21.4001C111.7 20.7001 111.1 20.1001 110.4 19.8001Z" fill="white"/>
<path d="M64.6998 8.70013C63.2998 8.50013 63.0999 10.5002 63.0999 11.1002H62.6998C62.6998 9.30016 63.5999 8.50011 63.5999 7.30011C63.5999 6.10011 62.4998 4.90015 62.4998 4.90015C62.4998 4.90015 61.3998 6.10011 61.3998 7.30011C61.3998 8.50011 62.2999 9.30016 62.2999 11.1002H61.8998C61.8998 10.4002 61.5999 8.50013 60.2999 8.70013C58.7999 8.90013 58.9999 10.9002 60.2999 11.1002C60.2999 11.1002 59.9999 10.2001 60.7999 10.2001C61.2999 10.2001 61.4998 10.8002 61.4998 11.1002H60.7999V11.8001H62.1998C62.0998 12.2001 61.8998 12.5001 61.4998 12.7001C61.5998 12.9001 61.7999 13.1002 62.0999 13.1002C62.0999 13.4002 62.1998 13.7001 62.4998 14.0001C62.6998 13.8001 62.7998 13.5002 62.8998 13.1002C63.1998 13.1002 63.3998 12.9001 63.4998 12.7001C63.1998 12.5001 62.8999 12.2001 62.7999 11.8001H64.1998V11.1002H63.5999C63.5999 10.8002 63.7999 10.2001 64.2999 10.2001C64.9999 10.2001 64.7999 11.1002 64.7999 11.1002C65.9999 10.9002 66.0998 8.80013 64.6998 8.70013Z" fill="#CE0E2D"/>
<path d="M58.0002 22.8001V18.3001C58.0002 17.7001 57.9002 17.2001 57.6002 16.7001C57.4002 16.3001 57.1002 15.9002 56.7002 15.6002C56.3002 15.3002 55.8002 15.1001 55.3002 15.0001C54.7002 14.9001 54.1002 14.9001 53.5002 14.9001C52.9002 14.9001 52.3002 15.0001 51.7002 15.3001C51.2002 15.5001 50.7002 15.8002 50.3002 16.1002C49.9002 16.4002 49.6002 16.9001 49.4002 17.4001C49.2002 17.9001 49.0002 18.5002 49.0002 19.1002V23.7001C48.5002 23.8001 48.2002 24.3001 48.2002 24.7001C48.2002 25.2001 48.6002 25.6002 49.0002 25.6002V30.7001C49.0002 31.3001 49.1002 31.8001 49.4002 32.3001C49.6002 32.7001 49.9002 33.1001 50.3002 33.4001C50.7002 33.7001 51.2002 33.9001 51.7002 34.0001C52.9002 34.2001 54.1002 34.1001 55.2002 33.8001C55.7002 33.6001 56.2002 33.4001 56.6002 33.0001C57.0002 32.7001 57.3002 32.3001 57.5002 31.8001C57.7002 31.3001 57.9002 30.7002 57.9002 30.1002V25.0001C58.4002 24.9001 58.8002 24.5001 58.8002 24.0001C58.9002 23.3001 58.5002 22.8001 58.0002 22.8001ZM55.5002 29.8001C55.5002 30.1001 55.4002 30.4002 55.3002 30.6002C55.2002 30.8002 55.0002 31.0001 54.8002 31.2001C54.6002 31.3001 54.4002 31.5002 54.2002 31.6002C54.0002 31.7002 53.7002 31.7001 53.5002 31.7001C53.3002 31.7001 53.0002 31.7001 52.8002 31.7001C52.6002 31.7001 52.4002 31.6001 52.1002 31.4001C51.9002 31.3001 51.7002 31.1001 51.6002 30.9001C51.5002 30.6001 51.4002 30.4002 51.4002 30.1002V18.8001C51.4002 18.5001 51.5002 18.2001 51.6002 18.0001C51.7002 17.8001 51.9002 17.6001 52.1002 17.4001C52.3002 17.2001 52.5002 17.1001 52.8002 17.0001C53.0002 16.9001 53.3002 16.9001 53.5002 16.9001C53.7002 16.9001 54.0002 16.9001 54.2002 17.0001C54.4002 17.0001 54.6002 17.1001 54.8002 17.3001C55.0002 17.4001 55.1002 17.6001 55.3002 17.8001C55.4002 18.1001 55.5002 18.3002 55.5002 18.6002V29.8001Z" fill="white"/>
<path d="M9.90002 35.0001H9.80005C9.70005 34.8001 6.80004 24.9001 6.60004 24.4001C6.50004 23.9001 6.30005 23.7001 6.30005 23.7001C6.30005 23.6001 6.20004 23.5001 6.10004 23.4001C6.00004 23.4001 5.80001 23.4001 5.70001 23.5001C4.80001 23.9001 3.9 24.3001 3 24.8001V25.6002C3 25.8002 3.00004 26.0001 3.10004 26.2001C3.20004 26.3001 3.30002 26.4001 3.40002 26.5001C3.50002 26.6001 3.70005 26.6002 3.80005 26.6002V34.2001C3.40005 34.5001 3.1 35.0001 3 35.5001C3 35.8001 3.2 36.1002 3.5 36.1002C3.6 36.1002 3.70005 36.1002 3.80005 36.1002V46.8001C4.50005 46.5001 5.20002 46.1001 5.90002 45.8001V32.4001C5.90002 32.3001 5.90002 32.3001 5.90002 32.3001C6.00002 32.5001 6.10001 32.8001 6.20001 33.0001C6.30001 33.4001 9.30005 43.2001 9.30005 43.3001C9.40005 43.5001 9.40004 43.7001 9.60004 43.9001C9.70004 44.0001 9.9 44.1001 10 44.0001C10.5 43.8001 10.9 43.6001 11.4 43.4001C11.6 43.3001 11.7 43.2001 11.8 43.0001C11.9 42.8001 11.9 42.7001 11.9 42.5001V32.5001C12.3 32.2001 12.6 31.8001 12.6 31.3001C12.6 31.0001 12.4 30.7002 12.1 30.6002H12V23.2001C12 23.1001 12 23.0001 12.1 22.8001C12.1 22.7001 12.2 22.6001 12.2 22.5001C12.3 22.3001 12.5 22.1001 12.6 21.9001C12.7 21.7001 12.8 21.4002 12.8 21.1002V20.4001C11.8 20.8001 10.8 21.2002 9.90002 21.6002V35.0001Z" fill="white"/>
<path d="M108.9 35.2C108.8 35.2 108.8 35.1 108.8 35.1C108.7 34.8 108.6 34.4 108.4 33.7C108.2 33 108 32.1 107.7 31.2C107.4 30.3 107.2 29.2 106.9 28.2C106.6 27.2 106.4 26.2 106.1 25.3C105.8 24.4 105.6 23.7 105.5 23.1C105.4 22.8 105.3 22.5 105.2 22.2C105.2 22 105.1 21.9 105 21.7C104.9 21.6 104.7 21.5 104.6 21.4C103.7 21.1 102.8 20.8 101.8 20.5V21.3C101.8 21.5 101.8 21.8 101.9 22C102 22.2 102.1 22.4 102.2 22.5C102.3 22.7 102.5 22.8 102.6 22.9V28.8C102.2 28.7 101.9 29 101.8 29.4C101.8 29.5 101.8 29.5 101.8 29.6C101.8 30.1 102.1 30.6 102.6 30.8V39.4C103.3 39.6 104 39.9 104.8 40.1V28.3C104.9 28.6 105 28.9 105.1 29.2C105.3 29.8 105.5 30.5 105.7 31.4C106 32.3 106.2 33.2 106.5 34.2C106.8 35.2 107 36.2 107.3 37.1C107.6 38 107.8 38.8 108 39.4C108.2 40.1 108.3 40.4 108.3 40.5C108.4 40.8 108.5 41 108.6 41.3C108.7 41.5 108.8 41.6 109 41.7L110.4 42.2C110.5 42.3 110.7 42.3 110.8 42.2C110.9 42.1 111 41.9 110.9 41.8V33.8C111.2 33.8 111.5 33.6 111.6 33.3V33.2C111.6 32.7 111.3 32.3 110.9 32V26.3C110.9 26.2 110.9 26.1 111 26L111.1 25.9C111.2 25.8 111.4 25.8 111.5 25.6C111.6 25.4 111.7 25.2 111.7 25V24.3C110.7 23.9 109.7 23.5 108.7 23.2L108.9 35.2Z" fill="white"/>
<path d="M121.2 37.1C120.9 36.4 120.5 35.8 120.1 35.2C119.7 34.7 119.3 34.2 118.9 33.7C118.9 33.6 118.9 33.6 118.9 33.5C118.8 32.9 118.5 32.4 118 32.1C117.8 32 117.6 32 117.4 32.1C117.3 32 117.3 31.9 117.2 31.8C116.8 31.4 116.4 30.9 116.1 30.4C115.8 30.1 115.7 29.7 115.6 29.2V25.2C115.6 25 115.7 24.9 115.8 24.8C115.9 24.7 116.1 24.6 116.2 24.6C116.4 24.6 116.6 24.6 116.7 24.6C116.9 24.6 117.1 24.7 117.2 24.8C117.3 24.9 117.5 25 117.7 25.1C117.9 25.2 118.1 25.4 118.2 25.5C118.4 25.7 118.5 25.8 118.6 26C118.7 26.2 118.8 26.4 118.8 26.6V27.5C118.8 27.9 119 28.3 119.2 28.7C119.4 29.1 119.8 29.4 120.2 29.6C120.6 29.8 120.9 29.9 121.2 30.1V28.3C121.2 27.7 121.1 27.1 120.9 26.5C120.7 25.9 120.4 25.4 120 24.9C119.6 24.4 119.2 24 118.7 23.6C118.2 23.2 117.7 22.9 117.1 22.6C116.6 22.4 116 22.2 115.5 22.1C115.1 22 114.6 22.1 114.2 22.2C113.8 22.4 113.5 22.6 113.3 23C113.1 23.5 112.9 24 113 24.6V27.9C113 28.6 113.1 29.2 113.4 29.9C113.7 30.5 114.1 31.1 114.5 31.6C114.9 32.2 115.4 32.7 115.9 33.2C115.9 33.3 115.8 33.4 115.8 33.6C115.8 34.2 116.2 34.7 116.7 35C116.9 35.1 117.2 35.1 117.4 35C117.8 35.4 118.1 35.9 118.4 36.4C118.7 36.9 118.8 37.5 118.8 38V42.7C118.8 42.9 118.7 43.1 118.6 43.2C118.5 43.3 118.3 43.4 118.1 43.5C117.9 43.5 117.7 43.5 117.5 43.5C117.3 43.5 117.1 43.4 116.8 43.3C116.6 43.2 116.3 43.1 116.1 42.9C115.9 42.7 115.7 42.5 115.5 42.4C115.3 42.2 115.2 42 115 41.8C114.9 41.6 114.8 41.4 114.8 41.1V40C114.8 39.6 114.7 39.3 114.5 39C114.2 38.7 113.9 38.4 113.5 38.3C113.1 38.2 112.7 38 112.3 37.8V39.7C112.3 40.3 112.4 40.9 112.7 41.5C112.9 42.1 113.2 42.6 113.6 43.1C114 43.6 114.5 44 115 44.4C115.5 44.8 116.1 45.1 116.7 45.4C117.2 45.6 117.8 45.8 118.4 45.9C118.9 46 119.3 46 119.8 45.9C120.2 45.8 120.5 45.5 120.7 45.2C121 44.8 121.1 44.2 121.1 43.7V39.2C121.7 38.3 121.5 37.7 121.2 37.1Z" fill="white"/>
<path d="M37.3 26.2999C37.2 27.1999 37.1 28 37 28.9C36.9 29.8 36.8 30.5 36.7 31.2C36.6 31.9 36.6 32.3999 36.5 32.7999C36.5 33.1999 36.4 33.4 36.4 33.4C36.2 32.2 36 31.1999 35.9 30.2999C35.8 29.3999 35.6 28.3 35.4 27.2C35.2 26 35 24.8999 34.8 23.7999C34.6 22.6999 34.4 21.7 34.2 20.7C34 19.8 33.9 18.9999 33.7 18.4999C33.7 18.2999 33.5 18.2 33.2 18.1C32.9 18 32.6 18 32.4 18.1C32.1 18.2 31.9 18.3 31.6 18.4C31.4 18.5 31.2 18.6999 31.1 18.9999C31 19.5999 30.8 20.4 30.6 21.4C30.4 22.4 30.2 23.4999 30 24.7999C29.8 25.9999 29.6 27.2 29.4 28.4C29.2 29.6 29 30.7999 28.9 31.7999C28.8 32.7999 28.6 34 28.4 35.2C28.4 35.2 28.4 35 28.3 34.6C28.2 34.2 28.2 33.7 28.1 33.1C28 32.5 28 31.7999 27.8 30.9999C27.7 30.1999 27.6 29.3999 27.5 28.4999C27.3 26.4999 26.5 19.4999 26.5 19.4999L23.5 20.4V21.2C23.5 21.4 23.6 21.7 23.7 21.9C23.8 22 23.9 22.1 24.1 22.2C24.2 22.2 24.2 22.2999 24.3 22.2999C24.4 22.3999 24.4 22.5 24.4 22.6C24.7 24.6 24.9 26.4 25.1 28.2C24.7 28.4 24.5 28.7999 24.5 29.2999C24.5 29.6999 24.8 29.9999 25.2 29.9999C25.3 29.9999 25.3 29.9999 25.4 29.9999V30.1C25.5 31 25.6 32 25.7 32.9C25.8 33.8 25.9 34.5999 26 35.2999C26.1 35.9999 26.2 36.5999 26.2 36.9999C26.2 37.1999 26.3 37.5 26.3 37.7C26.3 37.8 26.4 37.8999 26.4 37.9999C26.5 38.0999 26.7 38.1 26.8 38.1L29.6 37.2999C29.8 37.2999 29.9 37.1999 30 36.9999C30.1 36.7999 30.2 36.6999 30.3 36.4999C31 32.2999 31.7 28.1 32.4 23.9C33.1 27.8 33.8 31.7 34.5 35.6C34.6 35.8 34.7 35.8999 34.8 35.9999C34.9 36.0999 35.1 36.1 35.2 36.1L38 35.6C38.2 35.6 38.3 35.4999 38.4 35.2999C38.5 35.1999 38.5 35 38.6 34.9C38.6 34.9 38.6 34.6 38.7 34.1C38.8 33.6 38.8 32.9999 38.9 32.2999C39 31.4999 39.1 30.7 39.2 29.7C39.3 28.8 39.4 27.7999 39.5 26.7999V26.7C40 26.5 40.3 26.1 40.3 25.6C40.3 25.2 40.1 24.8999 39.7 24.7999C39.9 22.9999 40.1 21 40.4 18.9C40.4 18.8 40.5 18.5999 40.5 18.4999C40.6 18.3999 40.6 18.3 40.7 18.2C40.9 18.1 41 17.9 41.1 17.7C41.2 17.5 41.3 17.1999 41.3 16.9999V16.2C40.3 16.4 39.2 16.5 38.2 16.7C38.3 16.8 37.5 24.1999 37.3 26.2999Z" fill="white"/>
<path d="M99.6002 28.9001C99.6002 28.4001 99.2002 27.9001 98.8002 27.7001C98.7002 27.0001 98.6002 26.3001 98.4002 25.6001C98.3002 24.7001 98.1002 23.8001 98.0002 23.1001C97.9002 22.3001 97.8002 21.7001 97.7002 21.2001C97.6002 20.7001 97.6002 20.4001 97.6002 20.4001C97.6002 20.1001 97.4002 19.8001 97.2002 19.5001C97.0002 19.2001 96.6002 19.0001 96.3002 18.9001C95.2002 18.6001 94.1002 18.3001 92.9002 18.1001V18.7001C92.8002 19.3001 93.1002 19.8001 93.5002 20.2001C93.6002 20.3001 93.6002 20.4001 93.6002 20.5001C93.6002 20.6001 93.6002 20.7001 93.6002 20.9001C93.6002 20.9001 93.6002 21.1001 93.5002 21.5001C93.4002 21.9001 93.3002 22.4001 93.2002 23.0001C93.1002 23.6001 92.9002 24.3001 92.8002 25.1001C92.7002 25.5001 92.7002 25.9 92.6002 26.3C92.2002 26.2 91.8002 26.4 91.7002 26.8C91.7002 26.9 91.7002 27.0001 91.7002 27.0001C91.7002 27.4001 92.0002 27.8001 92.3002 28.0001C91.8002 30.4001 90.7002 36.3 90.7002 36.3L93.1002 36.8C93.1002 36.8 93.8002 32.8001 93.8002 32.7001C93.8002 32.4001 94.0002 32.2 94.2002 32.3C95.1002 32.5 96.1002 32.8001 97.1002 33.0001C97.2002 33.0001 97.4002 33.1001 97.5002 33.2001C97.6002 33.3001 97.7002 33.5001 97.7002 33.7001C97.7002 33.8001 98.2002 38.1001 98.2002 38.1001C99.0002 38.4001 99.9002 38.6 100.7 38.8C100.7 38.8 99.7002 32.7001 99.1002 29.6001C99.3002 29.6001 99.6002 29.3001 99.6002 28.9001ZM97.0002 30.8C96.9002 30.9 96.9002 30.9 96.7002 30.8C95.9002 30.6 95.1002 30.4001 94.4002 30.2001C94.3002 30.2001 94.2002 30.1001 94.1002 30.0001C94.0002 29.9001 94.0002 29.8001 94.0002 29.7001C94.0002 29.7001 94.0002 29.6 94.1002 29.3C94.2002 29 94.2002 28.7 94.2002 28.3C94.3002 27.9 94.3002 27.5001 94.4002 27.0001C94.5002 26.5001 94.6002 26.0001 94.7002 25.5001C95.0002 24.1001 95.2002 22.8 95.5002 21.3C95.8002 22.8 96.0002 24.3 96.3002 25.8C96.4002 26.4 96.5002 26.9001 96.6002 27.5001C96.7002 28.0001 96.7002 28.5001 96.8002 28.9001C96.9002 29.3001 96.9002 29.7001 97.0002 30.0001C97.0002 30.1001 97.0002 30.3001 97.1002 30.4001C97.1002 30.7001 97.1002 30.8 97.0002 30.8Z" fill="white"/>
<path d="M69.0999 31.4999C68.9999 31.3999 68.9999 31.4 68.8999 31.4C68.7999 31.4 68.7999 31.3 68.7999 31.1V26.7999C68.7999 26.1999 68.6999 25.6 68.4999 25.1C68.2999 24.6 67.9999 24.2 67.5999 23.9C67.3999 23.7 67.3999 23.5 67.5999 23.4C67.9999 23.1 68.2999 22.8 68.4999 22.4C68.6999 22 68.7999 21.4999 68.7999 20.9999V18.9999C68.7999 18.3999 68.6999 17.8999 68.5999 17.2999C68.4999 16.7999 68.1999 16.2999 67.8999 15.9999C67.4999 15.5999 67.0999 15.3 66.5999 15.1C65.9999 14.9 65.3999 14.7 64.6999 14.7C62.8999 14.7 61.1999 14.7 59.3999 14.7V15.4C59.3999 15.7 59.3999 16 59.5999 16.2C59.6999 16.4 59.7999 16.5 59.9999 16.6C60.0999 16.6 60.0999 16.7 60.1999 16.7C60.1999 16.8 60.2999 16.8999 60.2999 16.9999V22.7C59.7999 22.8 59.4999 23.2 59.4999 23.7C59.4999 24.2 59.7999 24.6 60.2999 24.6V33.2H62.7999V24.9999C62.7999 24.7999 62.8999 24.6 63.0999 24.6C63.5999 24.6 64.0999 24.6 64.6999 24.6C65.1999 24.6 65.5999 24.8 65.8999 25.1C66.1999 25.5 66.2999 25.9999 66.2999 26.4999V31.9999C66.2999 32.2999 66.3999 32.7 66.5999 32.9C66.8999 33.1 67.1999 33.2999 67.5999 33.2999C68.2999 33.2999 68.9999 33.4 69.6999 33.4V32.4C69.6999 32.2 69.5999 31.9 69.4999 31.7C69.3999 31.7 69.2999 31.5999 69.0999 31.4999ZM66.2999 20.7999C66.2999 21.2999 66.1999 21.8 65.8999 22.2C65.5999 22.5 65.1999 22.7 64.6999 22.7C64.1999 22.7 63.5999 22.7 63.0999 22.7C62.9999 22.7 62.8999 22.7 62.8999 22.6C62.7999 22.6 62.7999 22.5 62.7999 22.4V17.1C62.7999 16.9 62.8999 16.7 63.0999 16.7C63.0999 16.7 63.0999 16.7 63.1999 16.7C63.6999 16.7 64.1999 16.7 64.6999 16.7C65.1999 16.7 65.5999 16.9 65.8999 17.2C66.1999 17.6 66.2999 18.1 66.2999 18.6V20.7999Z" fill="white"/>
<path d="M77.0999 26.8001C76.7999 26.9001 76.6999 27.1001 76.6999 27.5001C76.6999 27.6001 76.6999 31.8001 76.6999 31.9001C76.5999 32.0001 76.4999 32.0001 76.3999 32.0001C75.5999 31.9001 74.8999 31.9001 74.1999 31.8001C74.0999 31.8001 73.9999 31.7002 73.8999 31.6002C73.8999 31.5002 73.7999 31.4001 73.7999 31.2001C73.7999 26.6001 73.7999 22.1001 73.7999 17.5001C73.7999 17.4001 73.7999 17.3002 73.8999 17.1002C73.8999 17.0002 73.9999 17.0001 74.0999 17.0001C74.2999 16.9001 74.3999 16.8002 74.4999 16.6002C74.6999 16.4002 74.6999 16.2001 74.6999 15.9001V15.2001C73.2999 15.1001 71.7999 14.9001 70.3999 14.9001V15.7001C70.3999 16.0001 70.4999 16.2001 70.5999 16.4001C70.6999 16.6001 70.8999 16.7001 70.9999 16.8001C71.0999 16.9001 71.0999 16.9001 71.1999 17.0001C71.2999 17.1001 71.2999 17.2001 71.2999 17.4001V23.1002C70.7999 23.2002 70.4999 23.5001 70.4999 24.0001C70.4999 24.5001 70.7999 24.9001 71.2999 25.0001V33.6002C73.4999 33.7002 75.7999 34.0001 77.9999 34.2001C78.1999 34.2001 78.2999 34.2001 78.4999 34.3001C78.5999 34.3001 78.7999 34.3001 78.8999 34.2001C78.9999 34.1001 79.0999 33.9001 79.0999 33.8001V27.0001C78.6999 27.0001 78.3999 26.9001 77.9999 26.9001C77.7999 26.7001 77.3999 26.7001 77.0999 26.8001Z" fill="white"/>
<path d="M21.7003 21.0001H21.6003C19.0003 21.8001 16.4003 22.7001 13.8003 23.7001V24.4001C13.8003 24.6001 13.8003 24.9002 13.9003 25.1002C14.0003 25.2002 14.1003 25.3001 14.3003 25.4001L14.5002 25.5001C14.6002 25.6001 14.6003 25.7001 14.6003 25.8001V31.4001C14.1003 31.7001 13.9003 32.1001 13.8003 32.7001C13.8003 33.0001 14.0003 33.3001 14.3003 33.4001C14.4003 33.4001 14.5002 33.4001 14.5002 33.4001V42.0001C14.7002 41.9001 14.9003 41.9001 15.1003 41.7001C16.2003 41.3001 17.3003 40.9001 18.4003 40.5001C18.9003 40.3001 19.3003 40.2001 19.8003 40.0001C20.2003 39.9001 20.5003 39.7002 20.9003 39.6002C21.0003 39.6002 21.2003 39.5001 21.3003 39.5001C21.4003 39.5001 21.4002 39.4001 21.5002 39.4001C21.6002 39.3001 21.7003 39.3001 21.7003 39.2001C21.8003 39.1001 21.9003 38.9001 21.9003 38.7001V36.2001V33.5001C21.5003 33.6001 21.2003 33.7001 20.9003 33.8001C20.5003 33.9001 20.2003 34.1001 19.9003 34.3001C19.6003 34.5001 19.5002 34.8001 19.5002 35.2001C19.5002 35.3001 19.5002 37.9001 19.5002 38.0001C19.4002 38.1001 19.4003 38.2001 19.2003 38.2001C18.9003 38.3001 18.6003 38.4001 18.3003 38.5001L17.0002 38.9001C16.8002 39.0001 16.7003 38.9002 16.7003 38.6002V32.8001C16.7003 32.6001 16.8003 32.4001 17.1003 32.3001C18.1003 31.9001 19.1002 31.6001 20.0002 31.3001C20.2002 31.3001 20.4003 31.1001 20.4003 30.8001V29.4001C20.4003 29.3001 20.4003 29.2002 20.3003 29.1002C20.2003 29.1002 20.1002 29.1002 20.0002 29.1002C19.0002 29.4002 18.0003 29.8002 17.1003 30.1002C16.8003 30.2002 16.7003 30.1001 16.7003 29.9001V24.7001C16.7003 24.6001 16.7003 24.5001 16.8003 24.4001C16.9003 24.3001 16.9002 24.2001 17.0002 24.2001C17.8002 23.9001 18.6003 23.7001 19.3003 23.4001C19.3003 23.4001 19.4003 23.4001 19.4003 23.5001C19.5003 23.6001 19.4003 26.2001 19.4003 26.3001C19.4003 26.7001 19.5003 26.9001 19.8003 26.9001C20.1003 26.9001 20.5003 26.9001 20.8003 26.8001C21.2003 26.7001 21.5003 26.6001 21.8003 26.5001V23.8001V21.2001C21.8003 21.1001 21.7003 20.9001 21.6003 20.9001C21.9003 21.0001 21.8003 21.0001 21.7003 21.0001Z" fill="white"/>
<path d="M88.4003 17.2001H88.3003C85.6003 16.7001 83.0003 16.2001 80.3003 15.9001V16.6002C80.3003 16.9002 80.3003 17.1001 80.4003 17.4001C80.5003 17.6001 80.6003 17.7001 80.8003 17.8001L81.0002 18.0001C81.1002 18.1001 81.1003 18.2001 81.1003 18.4001V24.0001C80.7003 24.0001 80.3003 24.4001 80.3003 24.8001C80.3003 25.3001 80.6003 25.7001 81.1003 25.8001V34.4001L81.8003 34.5001L85.3003 35.0001C85.8003 35.1001 86.3003 35.2001 86.8003 35.3001C87.2003 35.4001 87.5003 35.4001 87.9003 35.5001C88.1003 35.5001 88.2003 35.6002 88.4003 35.6002H88.6003C88.7003 35.6002 88.8003 35.6001 88.9003 35.5001C89.0003 35.4001 89.1003 35.3002 89.1003 35.1002V29.8001C88.7003 29.7001 88.4003 29.7002 88.1003 29.6002C87.8003 29.5002 87.4003 29.5002 87.1003 29.6002C86.8003 29.7002 86.7003 29.9001 86.7003 30.3001C86.7003 30.4001 86.7003 33.0002 86.7003 33.1002C86.6003 33.2002 86.5003 33.2001 86.4003 33.2001C86.1003 33.1001 85.7003 33.1001 85.4003 33.0001C85.0003 32.9001 84.5003 32.9001 84.1003 32.8001C83.9003 32.8001 83.8003 32.6001 83.8003 32.4001V26.6002C83.8003 26.4002 83.9003 26.3001 84.2003 26.3001C85.2003 26.5001 86.2003 26.6001 87.2003 26.8001C87.5003 26.8001 87.6003 26.8001 87.6003 26.5001V25.1002C87.6003 25.0002 87.6002 24.8001 87.5002 24.8001C87.4002 24.7001 87.3003 24.7001 87.2003 24.7001C86.2003 24.5001 85.2003 24.3001 84.2003 24.2001C83.9003 24.2001 83.8003 24.0001 83.8003 23.8001V18.6002C83.8003 18.5002 83.8003 18.4001 83.9003 18.3001C84.0003 18.2001 84.1003 18.2001 84.2003 18.2001C85.0003 18.3001 85.8003 18.5002 86.6003 18.6002L86.7003 18.7001C86.8003 18.8001 86.7003 21.4001 86.7003 21.5001C86.7003 21.8001 86.8003 22.1001 87.1003 22.3001C87.4003 22.5001 87.7003 22.6001 88.1003 22.7001C88.5003 22.8001 88.8003 22.8001 89.1003 22.9001V17.6002C89.1003 17.5002 89.0003 17.3001 88.9003 17.2001C88.7003 17.3001 88.6003 17.3001 88.4003 17.2001Z" fill="white"/>
<path d="M42.0002 73.9001L43.8003 75.6002C44.2003 75.9002 44.4003 76.3001 44.4003 76.8001C44.3003 77.1001 44.2002 77.3001 44.0002 77.5001C43.8002 77.7001 43.5003 77.9001 43.2003 77.9001C42.7003 78.0001 42.3002 77.6001 42.0002 77.3001L41.0002 76.3001L40.0002 77.4001L39.3003 76.7001L42.0002 73.9001ZM41.5002 75.8001L42.4003 76.7001C42.6003 76.9001 42.9003 77.2001 43.3003 76.8001C43.4003 76.7001 43.5002 76.5001 43.5002 76.4001C43.5002 76.2001 43.4003 76.1001 43.1003 75.8001L42.3003 75.0001L41.5002 75.8001Z" fill="white"/>
<path d="M46.7 78L49.9 79.9L49.5 80.5L47.2 79.1L46.7 79.9L48.9 81.2L48.5 81.8L46.3 80.5L45.8 81.3L48.2 82.7L47.8 83.3L44.5 81.3L46.7 78Z" fill="white"/>
<path d="M52.3001 81L53.2001 81.3L52.2001 84.4L54.3001 85.1L54.1001 85.8L51.1001 84.8L52.3001 81Z" fill="white"/>
<path d="M57.7001 82.5L58.7001 82.6L58.1001 86.5L57.1001 86.4L57.7001 82.5Z" fill="white"/>
<path d="M66.1999 85.2999C66.0999 85.5999 65.9999 85.9 65.6999 86.2C65.1999 86.7 64.4999 86.9 63.8999 86.9C62.4999 87 61.4999 86.2 61.3999 84.9C61.2999 83.4 62.4999 82.7 63.6999 82.7C64.1999 82.7 65.4999 82.7 65.9999 83.9L64.8999 84.1C64.5999 83.7 64.1999 83.4999 63.6999 83.4999C62.8999 83.4999 62.2999 84.1 62.2999 84.9C62.2999 85.7 62.8999 86.2999 63.6999 86.2999C63.6999 86.2999 63.6999 86.2999 63.7999 86.2999C64.2999 86.2999 64.7999 85.9999 64.9999 85.4999L66.1999 85.2999Z" fill="white"/>
<path d="M69.7 81.9001L70.7 81.6001L73.7 84.9001L72.6 85.2001L72.1 84.6001L70.1 85.2001L70 86.0001L69 86.3L69.7 81.9001ZM70.6 82.9001L70.5 82.8L70.4 82.7001V83.0001L70.2 84.4001L71.5 84.0001L70.6 82.9001Z" fill="white"/>
<path d="M74.6001 80.1002L75.5001 79.6002L78.3001 80.5001C78.7001 80.6001 78.7001 80.6001 79.1001 80.8001C78.9001 80.5001 78.8001 80.4002 78.6001 80.1002L77.6001 78.4001L78.4001 77.9001L80.5001 81.3001L79.6001 81.8001L76.7001 80.9001C76.4001 80.8001 76.3001 80.8002 75.9001 80.6002C76.0001 80.8002 76.2001 81.0001 76.3001 81.2001L77.4001 83.1002L76.6001 83.6002L74.6001 80.1002Z" fill="white"/>
<path d="M82.7998 77.7001C83.2998 77.8001 83.8998 77.6001 84.1998 77.2001C84.3998 77.0001 84.8998 76.5001 84.5998 76.1001C84.3998 75.9001 84.1998 76.0001 83.9998 76.2001C83.8998 76.3001 83.1998 76.8001 82.9998 76.9001C82.6998 77.1001 81.8998 77.6 81.2998 77C81.1998 76.9 81.0998 76.7 80.9998 76.5C80.8998 75.9 81.2998 75.3 81.7998 74.8C82.1998 74.4 82.5998 74.2 83.0998 74C83.3998 73.9 83.6998 73.9 83.9998 74L83.4998 74.8C83.2998 74.7 83.1998 74.7 82.9998 74.8C82.7998 74.9 82.4998 75.1001 82.2998 75.2001C81.9998 75.5001 81.6998 75.9001 81.9998 76.1001C82.1998 76.3001 82.3998 76.2 82.6998 76C82.7998 75.9 83.4998 75.5 83.6998 75.3C84.0998 75 84.7998 74.6001 85.3998 75.2001C86.2998 76.1001 85.1998 77.2 84.8998 77.5C84.3998 78 83.5998 78.6001 82.5998 78.2001L82.7998 77.7001Z" fill="white"/>
<path d="M57.7999 58.6001C57.7999 58.6001 43.4999 53.8001 49.6999 38.6001C49.6999 38.6001 34.5999 39.2001 13.8999 47.6001C13.8999 47.6001 12.4999 48.2 11.5999 48.5C10.2999 49.1 8.6999 49.1 7.3999 48.4C7.3999 48.4 26.2999 38.5 50.5999 36.2C53.7999 35.9 54.1999 36.4001 53.3999 37.6001C52.7999 38.6001 44.0999 49.6001 57.7999 58.6001Z" fill="white"/>
<path d="M45.0999 42.9001C32.8999 44.5001 20.8999 48.8001 20.8999 48.8001C22.8999 52.4001 28.4999 50.9001 28.4999 50.9001C38.8999 48.0001 43.4999 47.0001 44.9999 46.7001C44.8999 45.4001 44.8999 44.2001 45.0999 42.9001Z" fill="#8C734B"/>
<path d="M45.2 48.9001C38.7 50.2001 32.2 52.0001 26 54.3001C26 54.3001 28.7 57.4001 34.1 55.9001C38.7 54.6001 44.5 52.8001 46.2 52.2001C45.7 51.1001 45.4 50.0001 45.2 48.9001Z" fill="#8C734B"/>
<path d="M47.1001 53.8C45.3001 54.4 36.0001 57.4001 32.1001 58.9001C32.1001 58.9001 34.3001 61.9001 40.8001 59.4001C45.3001 57.6001 47.8001 56.6001 48.9001 56.1001C48.2001 55.4001 47.6001 54.7 47.1001 53.8Z" fill="#8C734B"/>
<path d="M50.3002 57.4001C48.7002 58.1001 42.7002 60.7001 39.2002 62.4001C39.2002 62.4001 43.6002 64.5001 49.0002 61.2001L52.4002 59.0001C51.7002 58.5001 51.0002 58.0001 50.3002 57.4001Z" fill="#8C734B"/>
<path d="M54.1003 59.8C53.0003 60.5 48.5003 63.3001 46.3003 65.0001C46.3003 65.0001 50.1003 66.6001 53.9003 62.9001C55.2003 61.7001 55.9003 61.1001 56.2003 60.7001C55.5003 60.4001 54.8003 60.1 54.1003 59.8Z" fill="#8C734B"/>
<path d="M67 58.6001C67 58.6001 81.3 53.8001 75.1 38.6001C75.1 38.6001 90.2 39.2001 110.9 47.6001C110.9 47.6001 112.3 48.2 113.2 48.5C114.5 49.1 116.1 49.1 117.4 48.4C117.4 48.4 98.5 38.5 74.2 36.2C71 35.9 70.6 36.4001 71.4 37.6001C71.9 38.6001 80.6 49.6001 67 58.6001Z" fill="white"/>
<path d="M79.6001 42.9001C91.8001 44.5001 103.8 48.8001 103.8 48.8001C101.8 52.4001 96.2001 50.9001 96.2001 50.9001C85.8001 48.0001 81.2001 47.0001 79.7001 46.7001C79.9001 45.4001 79.8001 44.2001 79.6001 42.9001Z" fill="#8C734B"/>
<path d="M79.6001 48.9001C86.1001 50.2001 92.6001 52.0001 98.8001 54.3001C98.8001 54.3001 96.1001 57.4001 90.7001 55.9001C86.1001 54.6001 80.3001 52.8001 78.6001 52.2001C79.0001 51.1001 79.4001 50.0001 79.6001 48.9001Z" fill="#8C734B"/>
<path d="M77.6999 53.8C79.4999 54.4 88.7999 57.4001 92.6999 58.9001C92.6999 58.9001 90.4999 61.9001 83.9999 59.4001C79.4999 57.6001 76.9999 56.6001 75.8999 56.1001C76.5999 55.4001 77.0999 54.7 77.6999 53.8Z" fill="#8C734B"/>
<path d="M74.4003 57.4001C76.0003 58.1001 82.0002 60.7001 85.5002 62.4001C85.5002 62.4001 81.1003 64.5001 75.7003 61.2001L72.3003 59.0001C73.0003 58.5001 73.8003 58.0001 74.4003 57.4001Z" fill="#8C734B"/>
<path d="M70.6 59.8C71.7 60.5 76.2 63.3001 78.4 65.0001C78.4 65.0001 74.6 66.6001 70.8 62.9001C69.5 61.7001 68.8 61.1001 68.5 60.7001C69.2 60.4001 69.9 60.1 70.6 59.8Z" fill="#8C734B"/>
<path d="M74.0001 66.9C74.0001 73.3 68.8001 78.6 62.3001 78.6C55.9001 78.6 50.6001 73.4 50.6001 66.9C50.6001 60.5 55.8001 55.2 62.3001 55.2C68.8001 55.2 74.0001 60.4 74.0001 66.9Z" fill="white"/>
<path d="M71.6 69.3C71.6 74.4 67.5 78.6 62.3 78.6C57.2 78.6 53 74.5 53 69.3C53 64.1 57.1 60 62.3 60C67.5 60.1 71.6 64.2 71.6 69.3Z" fill="#8C734B"/>
<path d="M62.4003 54.3C55.4003 54.3 49.8003 59.9001 49.8003 66.9001C49.8003 73.9001 55.4003 79.5001 62.4003 79.5001C69.4003 79.5001 75.0002 73.9001 75.0002 66.9001C75.0002 60.0001 69.3003 54.3 62.4003 54.3ZM73.0002 64.9001C72.2002 68.0001 70.1003 70.5001 67.3003 72.0001C67.5003 70.4001 68.2003 68.9 68.9003 67.3C69.9003 65 71.0002 62.5 70.5002 59.8C71.7002 61.2 72.6002 63.0001 73.0002 64.9001ZM56.8003 57.7001C58.2003 56.8001 59.9002 56.3001 61.5002 56.2001V73.1001C60.7002 73.0001 59.8002 72.9001 59.0002 72.6001C58.9002 70.5001 58.1003 68.6001 57.2003 66.6001C55.9003 63.5001 54.7003 60.7001 56.8003 57.7001ZM59.0002 74.2001C59.9002 74.4001 60.7003 74.6001 61.6003 74.6001V77.6001C60.2003 77.5001 58.9003 77.1001 57.6003 76.5001C58.3003 76.0001 58.8002 75.1001 59.0002 74.2001ZM63.2003 74.7001C64.1003 74.7001 65.0003 74.5 65.8003 74.3C66.0003 75.2 66.5003 76.0001 67.2003 76.6001C66.0003 77.2001 64.6003 77.6001 63.2003 77.7001V74.7001ZM65.7003 72.6001C64.9003 72.9001 64.1003 73.0001 63.2003 73.1001V56.2001C64.9003 56.3001 66.5003 56.8001 67.9003 57.7001C70.0003 60.8001 68.8003 63.6001 67.4003 66.7001C66.6003 68.6001 65.7003 70.5001 65.7003 72.6001ZM54.2003 59.8C53.7003 62.5 54.8003 65 55.8003 67.3C56.5003 68.9 57.2003 70.4001 57.4003 72.0001C54.6003 70.6001 52.5003 68.0001 51.7003 64.9001C52.1003 63.0001 53.0003 61.3 54.2003 59.8ZM51.7003 68.8C53.1003 71 55.1003 72.7001 57.4003 73.7001C57.4003 73.8001 57.4003 73.8001 57.4003 73.9001C57.3003 74.7001 56.6003 75.3001 56.1003 75.7001C53.9003 74.1001 52.3003 71.6 51.7003 68.8ZM68.5002 75.7001C67.9002 75.3001 67.4003 74.6001 67.2003 73.9001C67.2003 73.8001 67.2003 73.8001 67.2003 73.7001C69.6003 72.7001 71.6003 71 72.9003 68.8C72.5003 71.6 70.9002 74.1001 68.5002 75.7001Z" fill="#0A2240"/>
<path d="M66.1002 37.9C66.1002 37.9 66.0002 38.2999 65.8002 38.2999C64.9002 37.9999 64.1002 37.6 63.3002 37.2C63.0002 37 62.5002 36.8 62.4002 36.7C62.4002 36.7 61.7002 37 61.5002 37.2C60.7002 37.7 59.9002 37.9999 59.0002 38.2999C58.7002 38.2999 58.7002 37.9 58.7002 37.9C58.7002 37.9 54.7002 40.3 54.7002 46.9C54.7002 51.8 57.3002 54.1 57.3002 54.1L57.7002 55.4999H67.3002L67.7002 54.1C67.7002 54.1 70.3002 51.9 70.3002 46.9C70.1002 40.4 66.1002 37.9 66.1002 37.9Z" fill="#0A2240"/>
<path d="M68.0002 45.3C68.0002 43.6 67.4003 41.9001 66.3003 40.6001C66.3003 40.6001 66.3003 41.2001 65.3003 40.5001C64.5003 39.9001 63.4003 39.6001 62.4003 39.6001C61.4003 39.6001 60.3002 39.9001 59.5002 40.5001C58.6002 41.2001 58.5002 40.6001 58.5002 40.6001C57.4002 41.9001 56.8003 43.6 56.8003 45.3C56.8003 47 57.2003 47.8001 57.4003 48.1001C58.3003 50.9001 61.3003 52.4001 64.1003 51.5001C65.7003 51.0001 67.0002 49.7001 67.5002 48.1001C67.5002 48.1001 68.0002 47.3 68.0002 45.3Z" fill="white"/>
<path d="M64.4999 49.9001C64.1999 49.3001 64.3 48.5001 64.8 48.1001C64.8 48.1001 66.9 48.5 66.9 45.8C66.9 45.5 66.9999 45.2001 67.1999 44.9001C67.1999 44.9001 66.6999 44.4 65.4999 45.3C64.2999 46.2 63.7 48.6001 63.1 48.0001C62.5 47.4001 62.7 44.2001 62.4 44.1001C62.1 44.2001 62.2999 47.4001 61.6999 48.0001C61.0999 48.6001 60.4 46.1 59.3 45.3C58.1 44.4 57.6 44.9001 57.6 44.9001C57.8 45.2001 57.8 45.5 57.9 45.8C57.9 48.5 59.9999 48.1001 59.9999 48.1001C60.4999 48.5001 60.7 49.3001 60.4 49.9001C57.9 47.2001 56.4999 47.6001 57.1999 50.6001C57.8999 53.5001 60.5999 66.1001 60.9999 69.0001C60.8999 71.6001 60.6 72.6 60.6 72.8L60.3 73.3L60.6 73.9001C61 74.4001 61.2999 75.0001 61.4999 75.6001L62.4999 78.2001L63.4999 75.6001C63.6999 75.0001 64 74.4 64.4 73.8L64.6999 73.2001L64.4 72.6001C64.3 72.4001 63.9999 71.5001 63.9999 69.0001C64.3999 66.4001 67.1 53.4001 67.8 50.4001C68.4 47.6001 66.9999 47.3001 64.4999 49.9001Z" fill="#0A2240"/>
<path d="M60.7001 63C59.8001 58.3 59.1001 54.9 58.5001 52.3C58.1001 50.4 59.2001 51.1 59.8001 52.3L60.7001 63Z" fill="#CE0E2D"/>
<path d="M64.1001 63C65.0001 58.3 65.7001 54.9 66.3001 52.3C66.7001 50.4 65.6001 51.1 65.0001 52.3L64.1001 63Z" fill="#CE0E2D"/>
<path d="M59.2999 47.2C59.0999 47.2 58.9999 47 59.0999 46.9C59.0999 46.9 59.0999 46.8999 59.0999 46.7999C59.0999 46.6999 59.1999 46.7 59.1999 46.6C59.0999 46.4 58.8999 46.3 58.7999 46.2C58.7999 46.2 58.4999 47.5 59.6999 47.4C59.6999 47.3 59.5999 47.2 59.5999 47.1C59.4999 47.2 59.3999 47.2 59.2999 47.2Z" fill="#CE0E2D"/>
<path d="M66.0001 46.2C65.8001 46.3 65.7001 46.4 65.6001 46.6C65.7001 46.6 65.7001 46.6999 65.7001 46.7999C65.7001 46.9999 65.6001 47.1 65.5001 47.2C65.4001 47.2 65.3001 47.2 65.2001 47.2C65.1001 47.3 65.1001 47.3999 65.1001 47.4999C66.3001 47.5999 66.0001 46.2 66.0001 46.2Z" fill="#CE0E2D"/>
<path d="M63.0001 64.7999C63.4001 57.5999 64.0001 52.3999 64.0001 51.7999C64.0001 51.4999 64.0001 51.1999 63.9001 50.9999L63.5001 52.4L63.4001 49.9999C63.2001 49.6999 62.9001 49.4 62.5001 49.2C62.2001 49.4 61.9001 49.6999 61.7001 49.9999L61.6001 52.4L61.2001 50.9999C61.1001 51.2999 61.1001 51.4999 61.1001 51.7999C61.1001 52.4999 61.7001 57.4999 62.1001 64.7999C62.5001 71.9999 61.6001 73.4 61.6001 73.4C62.0001 74.1 62.4001 74.7999 62.7001 75.4999C63.0001 74.7999 63.4001 74.1 63.8001 73.4C63.5001 73.4 62.6001 71.9999 63.0001 64.7999Z" fill="#CE0E2D"/>
</svg>
