<svg width="135" height="110" viewBox="0 0 135 110" fill="none" xmlns="http://www.w3.org/2000/svg">
<path d="M67.1628 109.388L58.3778 97.7688C47.0423 94.0848 39.1075 83.8828 38.2573 71.6972L32.0228 65.746C26.6384 68.0131 22.1042 70.2802 22.1042 70.2802L5.38435 53.5604L12.469 38.2574L0 22.1043H19.8371L23.8045 13.6027L33.7231 9.63529L34.8566 6.80142L42.7914 10.4855L44.7752 3.96754L46.1921 3.40078C52.4267 1.41707 59.7947 0.283501 67.1628 0.000114441C67.4462 0.000114441 69.7133 0.000114441 69.7133 0.000114441C69.9966 0.000114441 71.1302 0.000114441 71.1302 0.000114441C77.3647 0.283501 83.3159 1.41705 88.7002 3.11737L90.1172 3.68417L91.8175 9.91868L94.6514 7.65159L110.804 13.3193L114.772 21.821H134.892L122.14 38.2574L128.941 53.277L111.938 70.5636C111.938 70.5636 105.703 66.5962 101.453 65.1792L96.3517 71.1304C95.785 83.316 87.5667 94.0848 75.6644 97.7688L67.1628 109.388Z" fill="white"/>
<path d="M67.1627 2.83407V8.21844L68.2962 9.35199H68.5797V11.6191H70.28V9.35199H70.5634L71.4135 8.50182L71.1301 2.83407C70.5633 2.83407 69.7132 2.83407 69.7132 2.83407V7.65167H68.8631V2.83407C68.5797 2.83407 67.4461 2.83407 67.1627 2.83407ZM64.0454 3.11745C63.4787 3.11745 63.1953 3.11745 62.6285 3.11745L62.0618 9.91875H60.9282L61.495 3.11745L60.078 3.40086L59.2279 10.4855H58.0944L58.9445 3.40086L57.5276 3.68424L56.394 11.6191L57.2442 12.4693L59.2279 12.1859L60.078 11.3357L60.6448 11.9025H62.6285L63.7621 10.7689L64.0454 3.11745ZM73.1139 3.11745C72.8305 3.40084 72.5471 3.68423 72.2637 3.96763C72.2637 6.23473 72.5471 8.50183 72.8305 10.7689L73.6807 11.9025L76.5146 12.1859L77.3647 10.7689C77.0813 8.78522 76.7979 6.51811 76.5146 4.25101L75.6643 3.11745H73.1139ZM77.6481 3.68424L78.7816 12.4693L80.482 12.7526L80.1986 10.2021H81.3321L81.8989 12.7526L83.5992 13.036L83.0324 9.91875L82.4656 9.06861L82.749 8.50182L82.1823 5.38456L81.0487 3.96763L77.6481 3.68424ZM56.394 3.68424L52.7099 4.53439C52.4265 6.5181 51.0097 13.036 51.0097 13.036C52.1432 12.7526 53.5602 12.7526 54.9771 12.4693C54.9771 11.9025 55.2605 10.7689 55.2605 10.7689L53.2767 11.0523L53.5602 9.35199L55.5438 9.06861C55.5438 8.50183 55.8272 8.21843 55.8272 7.36826C54.9771 7.36826 54.6937 7.65167 53.8436 7.65167L54.1269 5.66795L56.1106 5.38456L56.394 3.68424ZM83.3158 4.81779C83.3158 4.81779 84.4494 10.4855 85.0162 13.6028L86.9998 13.8862L86.4331 11.0523L87.5667 11.3357L88.4168 14.1696L90.4005 14.453L89.267 10.4855L88.4168 9.63538L88.7002 9.06861L87.8501 5.95133C86.9999 5.66794 86.1497 5.38456 86.1497 5.38456L86.9998 8.7852L86.7164 9.35199H86.1497C86.1497 9.35199 85.583 6.8015 85.0162 5.38456C84.4494 5.10117 83.3158 4.81779 83.3158 4.81779ZM73.964 4.81779H74.8142L75.3809 10.2021H74.5308L73.964 4.81779ZM51.293 4.81779C50.7262 4.81779 49.5927 5.38456 49.5927 5.38456L49.0259 7.08488C49.0259 7.08488 48.4592 6.23472 48.1758 5.66795C47.609 5.95133 47.0422 5.95135 46.4755 6.23473C45.6253 9.06861 44.7751 11.9025 44.2083 14.7364L46.1921 14.1696L47.609 9.06861L48.1758 10.4855L47.3256 14.1696L49.3093 13.8862L51.293 4.81779ZM79.6318 5.66795L80.482 5.95133L81.0487 8.21844H79.9152L79.6318 5.66795ZM5.38428 24.9383L67.1627 105.137L129.508 24.9383H5.38428Z" fill="#006BB6"/>
<path d="M124.69 27.2053L67.1627 101.453L9.91846 27.2053H124.69Z" fill="#BEC0C2"/>
<path d="M116.472 32.3064L112.788 29.7559L114.205 27.2054L109.104 16.1533L95.5015 11.3357L91.8176 14.1696L91.2507 15.5865C91.2507 15.5865 85.583 14.1696 77.3648 13.3194C76.5146 13.3194 74.2475 13.036 70.5635 12.7526H70.2801H69.9967L67.1628 15.3031V12.4692C67.1628 12.4692 59.5113 13.036 54.4104 13.6028C49.3094 14.1696 44.4918 15.5865 44.4918 15.5865L43.6417 13.6028L37.1237 10.7689H36.8404V11.0523L35.9902 13.036L35.7068 12.7526V12.4692H35.4235L26.0716 16.1533L9.06836 53.5604L22.9543 67.4464L23.5211 67.163C23.8045 66.8796 24.6547 66.5963 25.2215 66.3129C26.9218 65.1793 29.1889 64.0458 30.3224 63.479H30.6058C32.0228 62.9122 32.873 62.3454 39.6743 59.5116L40.241 59.2282C40.241 59.2282 41.0912 58.9448 42.5081 58.378C46.1922 57.2445 55.8274 54.1272 65.1791 54.1272C65.4625 54.1272 66.0293 54.1272 66.3127 54.1272C72.5472 54.4106 80.1986 55.5441 85.2996 56.6777C90.1172 57.8112 94.0847 58.6614 94.9348 58.9448L95.785 59.2282C100.319 60.9285 106.27 64.0458 111.371 67.4464L111.938 68.0132L126.107 53.5604L116.472 32.3064Z" fill="#006BB6"/>
<path d="M66.8794 39.1076V44.492H69.1466V41.3747L66.8794 39.1076ZM70.2801 41.9415C70.2801 42.7916 70.2801 44.2086 70.2801 44.7754C71.9804 45.0587 73.6808 45.3421 75.0977 45.9089C76.5147 46.1923 77.9316 46.7591 79.0652 47.3259L79.6319 42.5083C76.2312 42.2249 73.3974 41.9415 70.2801 41.9415ZM63.4788 41.9415C61.2117 41.9415 59.228 42.2249 56.9609 42.2249C57.2443 43.3584 57.5277 45.3421 57.5277 46.4757C57.5277 46.4757 59.5114 45.3421 63.4788 44.7754V41.9415ZM53.2769 42.7916C51.2932 43.075 49.026 43.3584 47.0423 43.9252C47.8925 46.4757 48.7427 49.8763 49.5929 52.4268C51.2932 51.0099 52.4267 49.5929 54.4104 48.4594C53.8436 46.4757 53.5603 44.492 53.2769 42.7916ZM81.6156 42.7916L80.4821 48.176C82.1824 49.3096 83.5993 50.4431 85.2996 51.86L85.583 52.1434L88.1335 43.9252C85.8664 43.6418 83.5993 43.075 81.6156 42.7916ZM42.2248 44.7754C39.9577 45.3421 37.9739 45.9089 35.7068 46.7591C37.1238 50.1597 38.8241 53.8437 40.5244 56.961C41.9414 56.3942 44.2085 55.5441 46.1922 54.9773L42.2248 44.7754ZM92.3843 45.0587L88.4169 55.5441L94.3681 56.961L99.469 47.0424C96.9185 46.1923 94.6514 45.6255 92.3843 45.0587ZM31.7394 47.8926C29.1889 48.7428 26.9218 49.5929 24.3713 50.7265L31.1727 60.3617C31.4561 60.0783 34.8567 58.6613 37.1238 57.5278C35.7068 54.6939 33.7231 51.0099 31.7394 47.8926ZM102.87 48.176L97.4853 58.0946C102.303 59.7949 108.821 63.7623 111.371 65.4626C112.505 64.3291 119.306 57.2444 120.156 56.3942C114.772 52.9936 108.821 50.4431 102.87 48.176ZM18.7036 53.5604C17.2866 54.4105 15.5864 55.2607 14.1694 56.1109L22.9544 64.8959C24.0879 64.3291 25.2215 63.4789 26.3551 62.9122L18.7036 53.5604Z" fill="#BEC0C2"/>
<path d="M67.446 43.3584C52.7099 43.3584 40.8076 55.2607 40.8076 69.9968C40.8076 84.733 52.7099 96.6353 67.446 96.6353C82.1822 96.6353 94.0844 84.733 94.0844 69.9968C94.0844 55.5441 82.1822 43.3584 67.446 43.3584Z" fill="#006BB6"/>
<path d="M37.4068 13.036L33.7228 23.8047L27.7716 28.9057L33.1559 15.0197L27.2048 17.2868L11.0518 52.7102L13.6022 55.2607C15.0192 54.4106 16.7195 53.5604 18.1364 52.7102L23.2374 39.6744L27.7716 35.707L28.9051 36.8405L24.3709 49.593C26.9214 48.4594 29.1885 47.6093 31.739 46.7591L34.8563 36.2738L32.0224 31.7396L37.6902 26.3552L41.0908 15.0197L37.4068 13.036ZM95.5012 13.036L93.2341 14.7363L97.2015 27.7721L110.237 36.8405L113.638 45.0588L108.254 42.5083L106.27 37.4073L99.752 35.4236L103.153 47.0425C104.286 47.3259 105.42 47.8927 106.27 48.176C109.104 49.3096 111.938 50.7265 114.772 52.1435C116.755 53.277 118.739 54.1272 120.439 55.2607L123.273 52.4269L114.488 33.1565L100.886 24.0881L98.6185 17.5702L102.869 18.9871L104.57 23.238L111.088 25.2217L107.404 17.0034L95.5012 13.036ZM69.9963 14.4529L67.1624 17.2868V37.6907L70.2797 40.808C73.397 40.808 76.5142 41.0914 79.6315 41.6581L79.0648 35.707L73.397 35.4236L72.5468 18.9871L77.3644 19.2705L76.7976 14.7363L69.9963 14.4529ZM64.3286 14.4529L59.2276 14.7363L56.9605 41.3747C58.9442 41.0914 61.2113 41.0914 63.195 41.0914L64.3286 14.4529ZM56.3938 15.3031L51.8595 15.8699L50.4426 24.6549L48.7423 16.4367L43.3579 17.8536L35.7064 45.909C37.9735 45.3422 39.9573 44.492 42.2244 44.2086L46.4752 25.505L48.4589 35.707L47.0419 43.3585C49.0256 43.0751 51.0094 42.5083 52.9931 42.5083L56.3938 15.3031ZM78.2145 15.3031C78.2145 15.3031 80.4817 33.1565 81.6152 42.2249C83.5989 42.5083 85.8661 42.7917 87.8498 43.3585L86.1494 34.5735L87.8498 32.3063L90.1169 34.2901L92.3839 44.2086C94.651 44.7754 96.9182 45.3422 99.1853 46.1923L95.2178 31.7396L90.967 28.3389L93.2341 25.2217L91.2504 17.8536L86.1494 16.72L88.1331 24.0881L85.0159 28.3389L82.7488 16.1533L78.2145 15.3031ZM66.5957 45.3422C64.3286 45.3422 62.0615 45.6256 60.0778 46.4757C60.9279 47.0425 61.7781 47.3259 63.195 48.176C65.1788 47.3259 67.1625 46.1923 69.1462 45.6255C68.296 45.3422 67.4459 45.3422 66.5957 45.3422ZM71.6967 45.909C69.1462 46.4757 64.612 48.7428 64.612 48.7428C72.5468 51.0099 81.8986 50.4431 88.4165 56.9611C84.4491 50.7265 78.2146 47.0425 71.6967 45.909ZM58.6608 47.0425C56.3937 47.8927 53.8433 49.3096 52.1429 50.7265C54.6934 51.0099 55.827 51.2933 58.0941 51.8601C59.511 50.7265 60.6446 49.593 62.0615 48.7428L58.6608 47.0425ZM63.195 49.3096C61.7781 50.1598 60.3612 51.2933 58.9442 52.4269C72.5468 56.6777 85.0159 69.9969 87.8498 83.8829C90.1169 80.7656 91.2504 77.0816 91.8172 73.3975C92.1006 67.4464 92.1006 62.3454 86.4328 57.2445C80.1983 51.2933 70.8465 51.8601 63.195 49.3096ZM50.726 51.8601C48.1755 54.1272 45.9084 57.2445 45.0583 60.0783C47.3254 57.8112 50.1592 55.8275 53.8433 56.6777C54.9768 55.2607 55.8269 53.8438 57.2439 52.7102C54.41 51.8601 52.9931 52.1435 50.726 51.8601ZM58.0941 53.277C56.9605 54.4106 55.827 55.8275 54.6934 57.2445C59.2276 59.2282 60.3612 64.0457 62.0615 70.5637C64.3286 79.0653 66.3123 87.5669 72.8302 94.0848C76.5142 93.2347 80.1983 91.5343 83.599 88.7005C84.7325 87.5669 86.1494 86.15 86.7162 85.0164C84.7325 71.1304 71.6967 56.9611 58.0941 53.277ZM52.1429 57.8112C48.4589 57.8112 45.9084 60.3617 43.6413 63.479C40.8074 73.3975 44.4915 83.3161 50.726 88.7005C45.9084 78.7819 46.7585 67.4464 52.7097 58.0946C52.7097 57.8112 52.4263 57.8112 52.1429 57.8112ZM54.1266 58.0946C47.6087 67.163 47.042 81.049 53.5599 90.4008C58.6609 93.8014 65.1788 95.7852 71.6967 94.3682C63.195 84.733 62.6283 73.9643 59.2276 64.3291C58.9442 63.1956 57.2439 58.9448 54.1266 58.0946Z" fill="#F58426"/>
</svg>
