<svg width="139" height="100" viewBox="0 0 139 100" fill="none" xmlns="http://www.w3.org/2000/svg">
<path d="M55.8002 69.7999C63.2002 68.6999 70.6002 69 77.0002 71.7L77.8002 69.8999C67.4002 66.5999 54.1002 66.6999 44.4002 72.0999L47.2002 65.5999C34.8002 68.8999 26.6002 75.8999 18.2002 82.9999C24.3002 68.5999 37.5002 56.8999 52.4002 52.4999L51.7002 54.8999C64.8002 50.5999 79.2002 49.8 90.8002 51.7L88.1002 48.0999L94.8002 49.8999L99.1002 43.3999L100.8 51.3999L107.4 53.4999C107.4 53.4999 102.6 55.4999 102.8 55.5999C127.7 65.7999 119.7 99.8999 96.1002 99.9999C84.1002 100.1 74.9002 89.2999 75.3002 77.9999C69.1002 74.1999 63.1002 72.2999 55.8002 69.7999Z" fill="#C2CCD2"/>
<path d="M51.0999 24.5001C51.1999 23.5001 51.5999 22.7 52.2999 22.1C52.9999 21.7 53.7999 21.4 54.5999 21.4C54.5999 21.4 55.2999 21.3 55.9999 21.3L58.1999 21.1V36.5001L56.2999 36.6C55.1999 36.7 54.4999 36.7 53.1999 36.8L51.0999 37.0001V24.5001ZM40.6999 24.1C40.5999 21.6 41.4999 19.2001 43.0999 17.2001C44.7999 15.4001 47.1999 14.3001 49.6999 14.2001C54.7999 13.8001 59.8999 13.5 64.9999 13.4L68.6999 13.3V56.5001L68.5999 60.2001L64.8999 60.1C64.1999 60.1 59.1999 60.3 58.2999 60.3H58.1999L54.1999 60.7001V60.6L51.6999 60.7001C51.2999 60.7001 45.2999 61.3 45.0999 61.4L40.7999 62.1V24.1H40.6999Z" fill="#C2CCD2"/>
<path d="M133.3 70.1C133.3 70.1 128.3 68.5 127.6 68.3C127.5 68.3 127.5 68.3 127.5 68.2C125.2 67.5 123.2 67 121.7 66.6L119 65.8999C113.9 64.9999 110.3 60.4999 110.6 55.3999V27.3C110.6 24.6 111.4 22 113.4 20.5C114.7 19.5 116.3 19 117.9 19.1C118.8 19.1 119.7 19.1999 120.6 19.3999C121 19.4999 121.9 19.8 123.5 20.2C125 20.6 126.9 21.2 128.9 21.8C132.8 22.9 136.6 24 136.6 24L138 24.3999V43.5L125.8 39.7L125.6 38.5C125.6 38.5 125.2 36.3 124.9 34.2V55.6L125 55.7C125 55.7 124.9 55.7999 125.4 55.8999C125.4 55.8999 126.2 56.1 126.7 56.2C127.1 54.8 127.4 53.3 127.4 53.3L127.9 51.2L138.1 54.2L138.2 71.5L133.3 70.1Z" fill="#C2CCD2"/>
<path d="M0.0999756 29.8999C0.0999756 27.9999 0.899988 26.0999 2.29999 24.7999C3.39999 23.6999 4.6 22.8999 6 22.3999C11.6 20.5999 19.6 19.3999 19.9 19.2999L22 18.9999C22.9 18.4999 23.9 18.0999 25 17.8999C27.7 17.3999 36.1 15.8 36.5 15.7L40.8 14.8999V58.7999L40.7 62.0999L37.4 62.4999C37.2 62.4999 31.1 63.5999 30.8 63.5999L26.3 64.5999V57.4999L13.7 60.4999V67.7L10.9 68.3999C10.8 68.3999 9.9 68.6999 9 68.9999C8 69.2999 6.8 69.6999 6 69.8999C5.6 69.9999 5.3 70.0999 5 70.2999L0 72.0999L0.0999756 29.8999Z" fill="#C2CCD2"/>
<path d="M106.3 63.4H106.2C106.1 63.4 106.1 63.3 106 63.3C105.7 63.3 105.5 63.2 105.2 63.1C104.5 63 103.7 62.9001 103 62.7001C101.5 62.5001 99.8999 62.2001 99.6999 62.2001L98.1999 62.1L96.3999 61.9V15.3L100.4 15.6C100.8 15.7 101.7 15.8001 102.9 16.0001C104.1 16.2001 105.6 16.4 106.5 16.6C107 16.6 107.5 16.7 107.9 16.8L110.7 17.5001V64.3L106.3 63.4Z" fill="#C2CCD2"/>
<path d="M92.1002 61.2999C91.7002 61.1999 89.1002 60.9999 86.5002 60.7999C84.0002 60.5999 81.2002 60.3999 79.4002 60.2999L77.5002 60.2C74.8002 60.1 72.4002 59.1999 70.7002 57.4999C69.0002 55.6999 68.2002 53.4 68.2002 50.7V21.4999C68.2002 19.1999 68.9002 16.9999 70.5002 15.4999C72.5002 13.5999 74.9002 13.3999 76.4002 13.3999H78.0002C78.5002 13.3999 79.1002 13.4999 80.1002 13.4999H81.2002L81.1002 13.5999C82.2002 13.6999 83.5002 13.7999 85.2002 13.8999C90.9002 14.2999 92.4002 14.5 93.2002 14.7C93.5002 14.7 93.7002 14.7999 94.0002 14.8999L96.1002 15.8999V31.0999L84.0002 29.4999L83.7002 28.0999C83.7002 28.0999 83.4002 26.6 83.1002 25.2H82.6002L82.7002 30.7V31.8999H83.5002C84.0002 31.8999 84.6002 31.8999 85.1002 31.9999C85.8002 32.0999 86.7002 32.1 87.6002 32.2C89.5002 32.4 91.5002 32.6 92.6002 32.7C92.8002 32.7 93.1002 32.6999 93.3002 32.7999L96.2002 33.4999L96.1002 61.9999L92.1002 61.2999Z" fill="#C2CCD2"/>
<path d="M53.8998 34C54.3998 33.9 54.8998 33.9 55.2998 33.9V24.1C55.0998 24.1 54.8998 24.2 54.7998 24.2C54.3998 24.2 54.0998 24.3 54.0998 24.4C53.9998 24.5 53.9998 24.5 53.8998 24.7V34ZM41.8998 24.1C41.7998 19.2 44.8998 15.8 49.7998 15.4C54.7998 15 59.8998 14.7 64.9998 14.6L67.4998 14.5V58.9L64.9998 58.8C64.2998 58.8 58.5998 59 58.1998 59.1L55.4998 59.3V42.9C54.9998 42.9 54.4998 43 54.0998 43V56.9L53.9998 59.3L51.6998 59.4C51.1998 59.4 45.3998 60 44.8998 60.1L41.9998 60.5L41.8998 24.1Z" fill="black"/>
<path d="M133.7 68.9999C133.7 68.9999 129.3 67.5999 128.1 67.2999C128 67.1999 127.9 67.2 127.9 67.2C125.4 66.5 123.2 65.8999 121.7 65.4999L119.3 64.8999C114.5 63.7999 111.8 60.3999 111.9 55.4999V27.4999C111.9 24.8999 112.6 22.8999 114.3 21.5999C115.4 20.7999 116.7 20.3999 118 20.3999C118.8 20.3999 119.6 20.5 120.4 20.7C121.2 20.9 136.3 25.2 136.3 25.2L136.9 25.2999V41.7999L126.9 38.7L126.8 38.2C126.8 38.2 126 33.3999 125.7 31.2999C125.1 31.0999 124.6 30.9999 124.3 30.8999L124 30.7999L123.7 30.7V55.4999C123.7 55.6999 123.8 56 123.9 56.2C124.1 56.6 124.5 56.8999 125 56.9999C125 56.9999 126.3 57.4 127.5 57.7C127.9 56.1 128.4 53.5999 128.4 53.5999L128.6 52.7999L136.7 55.2999V69.9999L133.7 68.9999Z" fill="black"/>
<path d="M1.40021 29.9C1.50021 26.3 4.50021 24.2001 6.50021 23.5001C12.0002 21.7001 19.9002 20.5001 20.3002 20.5001L22.7002 20.1C23.6002 19.6 24.5002 19.2001 25.5002 19.0001C28.2002 18.5001 36.5002 16.9 37.0002 16.8L39.9002 16.3V58.7001L39.8002 60.9L37.6002 61.2001C37.1002 61.2001 31.3002 62.2001 30.8002 62.3L27.7002 63.0001V28.7001H27.6002C26.8002 28.9001 26.6002 29.1 26.4002 30.1V56.2001L14.4002 59.0001V31.7001C14.3002 31.7001 14.3002 31.8 14.2002 31.8C13.8002 31.9 13.3002 32.1 13.0002 32.3C12.7002 32.5 12.6002 32.8 12.6002 33.1V64.7001L12.5002 66.6L10.6002 67.0001C10.2002 67.1001 4.90019 68.8 4.60019 68.9L1.2002 70.2001L1.40021 29.9Z" fill="black"/>
<path d="M106.6 62.1999C106.2 62.0999 100.3 61.0999 99.9002 61.0999L98.4002 60.9999L97.7002 60.8998V16.5999L100.4 16.7999C101.1 16.8999 107.2 17.8999 107.8 18.0999L109.7 18.5999V62.8998L106.6 62.1999Z" fill="black"/>
<path d="M81.8002 49.2001C81.8002 49.4001 81.9002 49.6001 81.9002 49.7001C82.0002 49.8001 82.1002 49.9 82.7002 49.9C82.9002 49.9 83.1002 49.9001 83.3002 50.0001V41.7001C82.9002 41.7001 82.6002 41.6 82.2002 41.6L81.8002 41.5001V49.2001ZM92.3002 60.1C91.2002 59.9 83.2002 59.3 79.6002 59.1L77.7002 59.0001C75.2002 58.9001 73.2002 58.2001 71.8002 56.7001C70.4002 55.3001 69.7002 53.2001 69.7002 50.8V21.6C69.7002 19.5 70.3002 17.7001 71.6002 16.5001C73.2002 15.0001 75.3002 14.8 76.7002 14.8H78.3002C79.3002 14.8 81.3002 15 85.4002 15.3C91.1002 15.7 92.6002 15.9001 93.4002 16.0001C93.6002 16.1001 93.7002 16.1001 93.9002 16.2001L95.3002 16.9V30.0001L85.4002 28.7001L85.3002 28.2001C85.3002 28.2001 84.8002 25.8 84.5002 24.4H84.0002C83.9002 24.4 82.4002 24.3 82.4002 24.3H82.2002C82.1002 24.3 82.0002 24.3 81.8002 24.4V33.6L83.9002 33.5001H84.0002C84.5002 33.5001 86.7002 33.7 88.8002 33.9C91.0002 34.1 93.0002 34.3 93.5002 34.4L95.4002 34.8L95.3002 60.9L92.3002 60.1Z" fill="black"/>
<path d="M56.6999 22.7V35.0999C55.6999 35.1999 53.6999 35.2999 52.4999 35.2999V24.3999C52.5999 23.6999 52.8999 22.8 54.6999 22.7C54.6999 22.8 55.7999 22.7 56.6999 22.7ZM64.9999 16.2999V15.8999C59.8999 15.9999 54.8999 16.3 49.8999 16.7C45.5999 17.1 43.1999 19.6999 43.2999 24.0999V59.0999L44.5999 58.8999C44.9999 58.7999 51.1999 58.2 51.4999 58.2H52.4999V41.8999C53.4999 41.7999 55.4999 41.6999 56.6999 41.5999V57.9999L57.9999 57.8999C58.2999 57.7999 63.9999 57.5999 64.8999 57.5999H64.9999L65.6999 57.7H66.0999V16.0999H64.9999V16.2999Z" fill="white"/>
<path d="M135.5 56.2L129.7 54.4999L129.6 54.8999C129.6 54.8999 128.9 57.9999 128.6 59.3999C126.3 58.6999 125.3 58.3999 124.7 58.2999C123.9 58.0999 123.1 57.5999 122.7 56.8999C122.5 56.4999 122.4 55.9999 122.3 55.5999V30.7C122.3 30.4 122.4 30.0999 122.5 29.7999C122.6 29.5999 122.8 29.5999 123.2 29.5999C123.5 29.5999 123.7 29.7 124 29.7H124.1C124.2 29.7 125.1 29.9999 126.8 30.4999C127 31.8999 127.9 37.5999 127.9 37.5999V37.8999L135.3 40.0999V26.4999L135 26.3999C135 26.3999 120.6 22.3 119.8 22.2C119.1 22 118.4 21.8999 117.7 21.8999C116.7 21.8999 115.6 22.1999 114.8 22.7999C113.5 23.7999 112.9 25.4999 112.9 27.5999V55.5999C112.8 59.7999 115.1 62.5999 119.2 63.5999H119.4C119.9 63.6999 123.9 64.7999 127.9 65.8999L133.8 67.7L135.2 68.0999L135.5 56.2Z" fill="white"/>
<path d="M25.7002 20.3999C24.2002 20.6999 22.9002 21.3999 21.8002 22.4999V21.5999L20.5002 21.7999C20.1002 21.8999 12.2002 23.0999 6.90021 24.7999C5.20021 25.3999 2.8002 27.2999 2.7002 29.8999V68.2999L4.2002 67.7C4.5002 67.6 10.1002 65.8999 10.4002 65.7999L10.9002 65.7L11.2002 65.5999V33.0999C11.2002 31.4999 12.7002 30.6999 13.7002 30.3999C14.3002 30.1999 15.0002 30.0999 15.6002 29.9999V57.2999L24.8002 55.0999V29.8999C25.0002 28.3999 25.7002 27.6999 27.1002 27.2999C27.3002 27.1999 28.1002 27.0999 28.9002 26.9999V61.2999L30.3002 60.8999C30.6002 60.7999 36.8002 59.7999 37.2002 59.7999L37.8002 59.7H38.2002V17.8999L36.9002 18.0999C37.1002 18.1999 28.4002 19.7999 25.7002 20.3999Z" fill="white"/>
<path d="M100.2 18.2L99.4 18.1L99 18V59.5L99.4 59.6L100.1 59.7C100.4 59.8 106.6 60.7 107 60.8L108.4 61.1V19.5L107.6 19.3C106.9 19.2 100.8 18.2 100.2 18.2Z" fill="white"/>
<path d="M83.9 34.5999L83.2 34.7H82.8V40.4999H83.2C83.2 40.4999 84 40.5999 84.6 40.5999V51.5999C83.7 51.4999 82.5 51.3999 82.5 51.3999C81.8 51.3999 81 51.0999 80.6 50.3999C80.4 49.9999 80.3 49.6 80.3 49.2V24.0999C80.3 23.6999 80.4 23.3999 80.6 23.0999C81 22.7999 81.5 22.6 82 22.7H82.5C82.7 22.7 83.7 22.7999 85.5 22.8999C85.7 23.9999 86.4 26.9999 86.4 26.9999L86.5 27.2L93.9 28.2V17.4999L93.2 17.2C92.9 17.1 92.6 16.9999 85.2 16.3999C80.8 15.9999 78.9 15.8999 78.1 15.8999H76.6C75.4 15.8999 73.7 16.1 72.5 17.2C71.5 18.2 71 19.5999 71 21.3999V50.5999C71 54.7999 73.4 57.3999 77.7 57.4999H77.9C79 57.4999 90.9 58.2999 92.5 58.5999L93.8 58.7999L93.9 35.3999L93 35.2C92.5 35.3 84.7 34.5999 83.9 34.5999Z" fill="white"/>
<path d="M134.3 56.9999L130.4 55.8999L129.3 60.8999C126.8 60.0999 124.3 59.4999 124.3 59.4999C123.2 59.1999 122.2 58.4999 121.6 57.3999C121.3 56.7999 121.1 56.1999 121.1 55.5999V30.7C121.1 30.1 121.3 29.5999 121.6 29.0999C122 28.5999 122.7 28.0999 124.3 28.5999C125.5 28.8999 126.7 29.1999 127.9 29.5999L129 36.8999L134.3 38.4999V27.2999C134.3 27.2999 120.4 23.2999 119.8 23.0999C116.1 22.1999 114.2 23.6999 114.2 27.4999V55.4999C114.2 59.2999 116.1 61.4999 119.8 62.3999C119.8 62.2999 124.4 63.5999 128.4 64.7999L134.3 66.5999V56.9999ZM20.6999 27.0999V22.8999C20.6999 22.8999 12.5999 24.1999 7.2999 25.8999C5.8999 26.2999 3.8999 27.8999 3.8999 29.8999V66.5999C4.2999 66.3999 9.79989 64.6999 10.1999 64.5999V32.9999C10.1999 30.7999 11.9999 29.7 13.5999 29.2C14.3999 29 16.9999 28.5999 16.9999 28.5999V55.7999L23.9999 54.0999V29.7999C24.1999 27.8999 25.2999 26.6 27.0999 26.2C28.8999 25.9 30.1999 25.7 30.1999 25.7V59.7999C30.5999 59.6999 36.7999 58.6999 37.2999 58.5999V19.2C37.2999 19.2 28.5999 20.7999 25.8999 21.3999C23.1999 22.0999 21.0999 24.2999 20.6999 27.0999ZM100.1 58.5999C100.6 58.5999 106.7 59.6 107.1 59.7V20.3999C106.7 20.2999 100.5 19.2999 100.1 19.2999V58.5999ZM44.2999 24.0999V57.7C44.7999 57.6 50.8999 56.9999 51.3999 56.9999V40.7C53.4999 40.5 55.5999 40.3999 57.6999 40.2999V56.5999C58.1999 56.4999 64.4999 56.2999 64.8999 56.2999V16.8999C59.8999 16.9999 54.8999 17.3 49.8999 17.7C46.2999 18.2 44.2999 20.2999 44.2999 24.0999ZM51.4999 24.4999C51.5999 23.6999 51.9999 21.9 54.5999 21.7C55.6999 21.6 56.6999 21.4999 57.7999 21.4999V36.2C55.6999 36.3 53.4999 36.4999 51.3999 36.5999L51.4999 24.4999ZM83.8999 39.3999C84.2999 39.3999 85.7999 39.4999 85.7999 39.4999V52.7C84.6999 52.6 83.5999 52.4999 82.4999 52.4999C80.8999 52.3999 80.0999 51.6999 79.7999 50.9999C79.4999 50.4999 79.3999 49.9 79.3999 49.2V30.7999C79.3999 27.2999 79.2999 24.6999 79.2999 24.4999V24.0999C79.2999 23.4999 79.4999 22.7999 79.8999 22.2999C80.3999 21.6999 81.2999 21.3999 82.5999 21.4999C82.5999 21.3999 84.3999 21.5999 86.5999 21.7999L87.5999 26.2L92.9999 26.8999V18.2999C92.5999 18.0999 77.9999 17 77.9999 17.2H77.7999C76.5999 17.1 74.6999 17.1 73.4999 18.2C72.6999 18.9 72.3999 20.0999 72.3999 21.5999V50.7999C72.3999 54.4999 74.2999 56.3999 78.0999 56.5999C78.0999 56.4999 91.1999 57.4 93.0999 57.7C93.0999 57.2999 93.1999 37.0999 93.1999 36.5999C92.6999 36.4999 84.6999 35.7999 84.2999 35.7999V39.4999H83.8999V39.3999Z" fill="#0B77BD"/>
<path d="M20.6999 27.0999V22.8999C20.6999 22.8999 12.5999 24.1999 7.2999 25.8999C5.8999 26.2999 3.8999 27.8999 3.8999 29.8999V66.5999C4.2999 66.3999 9.79989 64.6999 10.1999 64.5999V32.9999C10.1999 30.7999 11.9999 29.6999 13.5999 29.1999C14.3999 28.9999 16.9999 28.5999 16.9999 28.5999V55.7999L23.9999 54.0999V29.7999C24.0999 27.9999 25.3999 26.4999 27.0999 26.1999C28.8999 25.8999 30.1999 25.6999 30.1999 25.6999V59.7999C30.5999 59.6999 36.7999 58.6999 37.2999 58.5999V19.1999C37.2999 19.1999 28.5999 20.7999 25.8999 21.3999C23.1999 22.0999 21.0999 24.2999 20.6999 27.0999ZM100.1 58.5999C100.6 58.5999 106.7 59.5999 107.1 59.6999V20.2999C106.7 20.1999 100.5 19.1999 100.1 19.1999V58.5999ZM83.8999 39.3999C84.2999 39.3999 85.7999 39.4999 85.7999 39.4999V52.6999C84.6999 52.5999 83.5999 52.4999 82.4999 52.4999C80.8999 52.3999 80.0999 51.6999 79.7999 50.9999C79.4999 50.4999 79.2999 49.8999 79.2999 49.1999V30.7999C79.2999 27.2999 79.1999 24.6999 79.1999 24.4999V24.0999C79.1999 23.4999 79.3999 22.7999 79.7999 22.2999C80.2999 21.6999 81.1999 21.3999 82.4999 21.4999C82.4999 21.3999 84.2999 21.5999 86.4999 21.7999L87.4999 26.1999L92.8999 26.8999V18.2999C92.3999 18.0999 77.8999 16.9999 77.8999 17.1999H77.5999C76.4999 17.0999 74.5999 17.0999 73.3999 18.1999C72.5999 18.8999 72.2999 20.0999 72.2999 21.5999V50.7999C72.2999 54.4999 74.1999 56.3999 77.9999 56.5999C77.9999 56.4999 91.0999 57.3999 92.9999 57.6999V36.5999C92.5999 36.4999 84.4999 35.7999 84.0999 35.7999L83.8999 39.3999Z" fill="#0B77BD"/>
<path d="M45.1001 11.3C45.1001 11.4 45.0001 11.4001 45.0001 11.5001C44.9001 11.6001 44.8001 11.7001 44.5001 11.7001C44.2001 11.7001 43.9001 11.8 43.6001 11.9H43.5001C43.4001 11.9 43.4001 11.8 43.4001 11.8C43.4001 11.8 43.4001 11.7001 43.3001 11.7001V4.80005C43.3001 4.80005 43.3001 4.70004 43.4001 4.60004C43.5001 4.50004 43.7001 4.40002 43.9001 4.40002C44.1001 4.40002 44.4001 4.30005 44.7001 4.30005C44.8001 4.30005 44.8001 4.20007 44.9001 4.20007C45.0001 4.20007 45.0001 4.20005 45.1001 4.30005C45.1001 4.30005 45.2001 4.30002 45.2001 4.40002V11.3H45.1001ZM47.5001 2.90002C47.3001 2.70002 47.1001 2.50002 46.8001 2.40002C46.6001 2.30002 46.4001 2.30005 46.1001 2.30005C45.8001 2.30005 45.5001 2.40002 45.2001 2.40002C44.5001 2.50002 43.7001 2.70005 43.0001 2.80005C42.5001 2.90005 42.0001 3.10005 41.6001 3.30005C41.3001 3.50005 41.1001 3.70006 40.9001 4.00006C40.7001 4.40006 40.6001 4.70004 40.6001 5.10004V12.4C40.6001 12.8 40.7001 13.1 40.9001 13.4C41.1001 13.6 41.3001 13.8 41.6001 13.9H42.1001C42.5001 13.9 42.8001 13.8 43.1001 13.8C43.9001 13.6 44.6001 13.5 45.4001 13.4C45.9001 13.3 46.4001 13.1 46.8001 12.9C47.1001 12.7 47.3001 12.5001 47.5001 12.2001C47.7001 11.9001 47.8001 11.5 47.8001 11.1V3.80005C47.9001 3.50005 47.8001 3.20002 47.5001 2.90002Z" fill="black"/>
<path d="M81.9002 1.3999C81.7002 1.0999 81.5002 0.899927 81.2002 0.799927C80.7002 0.599927 80.2002 0.499902 79.7002 0.399902C78.2002 0.299902 76.7002 0.199951 75.2002 0.199951H74.7002V11.2H75.1002C75.8002 11.3 76.4002 11.2999 77.1002 11.2999H77.5002V1.99994C77.8002 1.99994 78.1002 2.09991 78.4002 2.09991C79.5002 2.19991 79.3002 2.59991 79.4002 2.59991V11.3999H79.8002C80.5002 11.4999 81.1002 11.4999 81.7002 11.5999L82.1002 11.7V2.3999C82.3002 2.0999 82.2002 1.6999 81.9002 1.3999Z" fill="black"/>
<path d="M88.2998 10.4C88.1998 10.4 87.9998 10.4001 87.8998 10.5001C87.7998 10.5001 87.6998 10.5 87.5998 10.4C87.2998 10.4 86.8998 10.4 86.5998 10.3V3.00006C86.8998 3.00006 87.1998 3.10004 87.4998 3.10004C87.7998 3.10004 87.9998 3.20005 88.1998 3.30005C88.3998 3.40005 88.3998 3.50005 88.3998 3.80005V10.1C88.3998 10.4 88.3998 10.4 88.2998 10.4ZM90.8998 2.50006C90.6998 2.20006 90.4998 2.00005 90.1998 1.80005C89.7998 1.60005 89.2998 1.40002 88.7998 1.40002C88.1998 1.30002 85.0998 0.900024 84.2998 0.900024L83.7998 0.800049V12.0001H84.1998C85.6998 12.2001 87.1998 12.4001 88.6998 12.5001C88.8998 12.5001 89.0998 12.6 89.3998 12.6C89.6998 12.6 89.8998 12.6001 90.1998 12.5001C90.4998 12.4001 90.7998 12.2001 90.9998 12.0001C91.1998 11.7001 91.3998 11.3 91.3998 10.9V3.60004C91.1998 3.20004 91.0998 2.80006 90.8998 2.50006Z" fill="black"/>
<path d="M53.8998 5.49988C53.8998 5.59988 53.8998 5.79984 53.7998 5.89984C53.5998 5.99984 53.2998 6.09989 52.9998 6.19989C52.6998 6.19989 52.3998 6.19987 52.1998 6.29987V3.19989C52.4998 3.19989 52.7998 3.09985 53.1998 3.09985H53.5998C53.7998 3.09985 53.9998 3.09989 53.9998 3.19989C54.0998 3.29989 53.9998 3.19987 54.0998 3.29987V5.19989C53.8998 5.29989 53.8998 5.39988 53.8998 5.49988ZM56.6998 11.4999V7.79987C56.6998 7.39987 56.4998 6.99987 56.1998 6.79987C56.0998 6.79987 56.0998 6.69989 55.9998 6.69989C56.3998 6.49989 56.5998 5.99985 56.6998 5.59985V2.79987C56.6998 2.39987 56.5998 1.99989 56.2998 1.69989C56.0998 1.49989 55.8998 1.29989 55.5998 1.19989C55.2998 1.09989 54.9998 1.09985 54.6998 1.09985C54.4998 1.09985 54.2998 1.09989 54.0998 1.19989C52.6998 1.39989 51.0998 1.59989 49.6998 1.69989L49.2998 1.79987V12.8998L49.7998 12.7999C50.3998 12.6999 51.0998 12.5999 51.6998 12.5999L52.0998 12.4999V8.19989C52.3998 8.19989 52.6998 8.09985 53.0998 8.09985H53.4998C53.6998 8.09985 53.7998 8.09989 53.8998 8.19989C53.9998 8.19989 53.9998 8.29984 53.9998 8.39984V12.2999L54.4998 12.1999C55.0998 12.0999 55.7998 12.0999 56.3998 11.9999L56.7998 11.8998V11.4999H56.6998Z" fill="black"/>
<path d="M64.4001 9V7.59998H64.0001L62.3001 7.70001L61.6001 9.70001H60.9001V0.5H60.4001C59.8001 0.6 59.1001 0.600012 58.5001 0.700012H58.1001V11.9L58.6001 11.8C60.4001 11.7 62.3001 11.6 64.1001 11.5H64.5001C64.4001 11.5 64.4001 9 64.4001 9Z" fill="black"/>
<path d="M70.4998 5.29999H68.5998V2.39996C68.5998 2.29996 68.5998 2.30001 68.6998 2.20001C68.9998 2.10001 69.2998 2 69.4998 2H70.3998V5.29999H70.4998ZM72.8998 0.200012H68.3998C67.8998 0.200012 67.3998 0.299963 66.8998 0.399963C66.5998 0.499963 66.3998 0.699963 66.1998 0.899963C65.9998 1.19996 65.7998 1.6 65.7998 2V11.2H66.2998C66.8998 11.2 67.5998 11.1 68.1998 11.1H68.5998V6.89996H70.4998V11H70.8998C71.4998 11 72.1998 11 72.7998 11.1H73.2998V0H72.8998V0.200012Z" fill="black"/>
<path d="M97 11.7999C96.9 11.8999 96.9 11.8999 96.8 11.8999C96.7 11.8999 96.7 11.8999 96.6 11.7999C96.3 11.6999 96 11.7 95.7 11.7C95.5 11.6 95.3 11.4999 95.3 11.3999L95.2 11.2999V4.3999H95.6C95.8 4.4999 96.1 4.49991 96.4 4.59991C96.6 4.59991 96.7 4.69993 96.9 4.79993C97 4.89993 97 4.99994 97 4.99994V11.7999ZM99.5 3.99994C99.3 3.69994 99.1 3.49993 98.8 3.29993C98.4 2.99993 97.9 2.79995 97.4 2.69995C96.7 2.59995 95.9 2.39993 95.2 2.29993C94.9 2.29993 94.6 2.19995 94.4 2.19995C94.2 2.19995 94 2.19993 93.7 2.29993C93.4 2.39993 93.1 2.49995 92.9 2.69995C92.7 2.99995 92.5 3.39993 92.5 3.79993V11.0999C92.5 11.4999 92.6 11.9 92.8 12.2C93 12.5 93.2 12.6999 93.5 12.8999C94 13.0999 94.4 13.2999 94.9 13.3999C95.7 13.4999 96.4 13.5999 97.1 13.7999C97.4 13.8999 97.7 13.8999 98.1 13.8999C98.3 13.8999 98.5 13.8999 98.6 13.7999C98.9 13.7999 99.2 13.5999 99.4 13.3999C99.6 13.0999 99.7 12.6999 99.7 12.2999V4.99994C99.8 4.69994 99.7 4.39994 99.5 3.99994Z" fill="black"/>
<path d="M53.4 64.4999L54.8 63.7999L56 64.7999L55.7 63.2999L57.1 62.4999L55.6 62.2L55.2 60.7L54.5 62.0999L53 61.8999L54.1 63.0999L53.4 64.4999Z" fill="white"/>
<path d="M100.3 55.7999C101.7 55.1999 104.2 54.0999 104.2 54.0999L104.4 53.9999L104.2 53.8999C104.2 53.8999 100.1 52.4999 99.2001 52.2999C99.0001 51.2999 98.4001 46.8999 98.4001 46.8999L98.3001 46.7L96.8001 49.0999C96.8001 49.0999 96.0001 50.5 95.5001 51.2C94.5001 50.9 90.3001 49.8999 90.3001 49.8999L90.1001 49.7999L90.3001 49.9999C90.3001 49.9999 92.0001 52.1999 93.0001 53.5999C88.1001 52.5999 83.2001 52.1 78.2001 52.2C76.3001 52.2 74.4001 52.2999 72.3001 52.3999C64.6001 52.7999 57.0001 54.3999 49.8001 56.8999L50.6001 54.3999L50.4001 54.4999C39.1001 58.0999 26.6001 68.6999 21.1001 79.2999L21.2001 79.3999C28.9001 72.1999 39.5001 66.3 48.9001 64.2L46.4001 69.8999L46.6001 69.7999C50.9001 67.6999 56.7001 66.7999 62.5001 66.7999C68.5001 66.7999 74.5001 67.7999 79.1001 69.4999L77.3001 73.3999C73.1001 71.4999 67.0001 70.2 61.8001 70.2C60.9001 70.2 60.0001 70.1999 59.2001 70.2999V70.4999C65.2001 72.1999 71.4001 74.0999 76.3001 77.9999C76.2001 78.3999 76.2001 78.7999 76.2001 79.2999C76.2001 89.5999 85.1001 98.9999 95.7001 98.9999H95.9001C107.4 98.8999 116.1 88.2999 116.1 77.0999C116.5 68.8999 111.8 60.4999 100.3 55.7999Z" fill="black"/>
<path d="M93.9999 74.7999C89.7999 74.7999 85.3999 73.2 81.0999 71.7C79.9999 74 79.3999 76.6 79.3999 79.2C79.3999 80.6 79.4999 81.9999 79.8999 83.2999H80.9999C89.4999 83.2999 97.7999 80.9999 105.2 76.7999C104.3 75.2999 103.4 73.7999 102.3 72.4999C99.7999 73.9999 96.8999 74.8999 93.9999 74.7999Z" fill="#C2CCD2"/>
<path d="M80.6999 84.9H80.3999C82.9999 91.7 88.9999 96.1001 96.1999 96.2001C98.5999 90.5001 101.1 84.2 107 81.3C106.7 80.3 106.3 79.3 105.9 78.3C98.1999 82.6 89.4999 84.9 80.6999 84.9Z" fill="#C2CCD2"/>
<path d="M98.5998 63.9C97.1998 63.3 95.6998 62.9 94.2998 62.6C93.5998 62.7 92.4998 62.8 91.7998 62.9C96.1998 64.7 99.4998 66.8 102.7 70.4C104.4 69.1 105.8 67.6 106.9 65.8C103.9 62.9 98.2998 59.3 84.2998 58.3C90.1998 59.7 95.5998 61.6 98.7998 63.9H98.5998Z" fill="#C2CCD2"/>
<path d="M59.2998 61.9H62.0998C72.0998 61.9 87.3998 63 93.3998 70.1L93.2998 70.2001C91.1998 69.1001 87.0998 67.2001 84.4998 67.2001H84.2998C83.3998 68.2001 82.5998 69.2 81.8998 70.3C85.8998 71.8 89.8998 73.3 93.8998 73.3C96.4998 73.3 99.0998 72.6001 101.4 71.2001C94.4998 63.7001 82.7998 60.3 71.7998 60.3C67.5998 60.4 63.3998 60.9 59.2998 61.9Z" fill="#C2CCD2"/>
<path d="M106.4 75.9999C108.3 74.7999 110 73.2999 111.5 71.4999C110.5 69.6999 109.2 68 107.7 66.7C106.6 68.6 105.2 70.1999 103.5 71.5999C104.6 72.8999 105.6 74.3999 106.4 75.9999Z" fill="#C2CCD2"/>
<path d="M97.8999 96.0999C101.4 95.7999 104.6 94.4 107.3 92.2C107.7 90.6 107.9 88.9999 107.9 87.3999C107.9 85.8999 107.8 84.3999 107.5 82.8999C102.2 85.3999 99.9999 90.9999 97.8999 96.0999Z" fill="#C2CCD2"/>
<path d="M109.4 88.3999V89.9999C111.4 87.4999 112.7 84.4 113.1 81.2C111.6 81.4 110.1 81.6999 108.7 82.0999C109.2 84.1999 109.4 86.2999 109.4 88.3999Z" fill="#C2CCD2"/>
<path d="M107.2 77.3998C107.6 78.3998 108 79.4999 108.5 80.5999C110.1 80.0999 111.7 79.7999 113.4 79.6999V79.2999C113.4 77.1999 113.1 75.0999 112.3 73.0999C110.7 74.7999 109 76.1998 107.2 77.3998Z" fill="#C2CCD2"/>
<path d="M113.3 79.7C111.6 79.8 110 80.0999 108.3 80.5999C107.9 79.4999 107.5 78.3999 107 77.3999C108.9 76.1999 110.6 74.8 112.1 73.2C112.8 75.2 113.2 77.2999 113.2 79.3999V79.7H113.3Z" fill="#C2CCD2"/>
<path d="M107.7 66.5999C109.2 67.9999 110.5 69.6999 111.5 71.4999C110 73.1999 108.3 74.6998 106.4 75.8998C105.5 74.3998 104.6 72.8999 103.6 71.5999C105.2 70.1999 106.7 68.4999 107.7 66.5999Z" fill="#C2CCD2"/>
<path d="M84.2002 58.0999C98.2002 59.1999 103.8 62.7999 106.8 65.5999C105.7 67.3999 104.3 68.9999 102.6 70.1999C99.6002 66.8999 95.9002 64.2999 91.7002 62.6999C92.5002 62.4999 93.3002 62.3999 94.2002 62.2999C95.7002 62.5999 97.2002 63.0999 98.6002 63.5999L98.7002 63.4999C95.5002 61.3999 90.1002 59.4999 84.2002 58.0999Z" fill="#C2CCD2"/>
<path d="M80.9999 83.2999H79.8999C79.5999 81.8999 79.3999 80.4999 79.3999 79.0999C79.3999 76.4999 79.9999 74 81.0999 71.7C85.3999 73.3 89.6999 74.7999 93.9999 74.7999C96.8999 74.7999 99.7999 73.9999 102.3 72.3999C103.4 73.6999 104.4 75.2 105.2 76.7C97.7999 81 89.4999 83.1999 80.9999 83.2999Z" fill="#C2CCD2"/>
<path d="M96.1999 96.2001C88.9999 96.1001 82.9999 91.7 80.3999 84.9H80.6999C89.4999 84.9 98.2999 82.7 105.9 78.3C106.3 79.3 106.7 80.3 107 81.3C101.1 84.2 98.4999 90.4001 96.1999 96.2001Z" fill="#C2CCD2"/>
<path d="M109.4 89.9999V88.3999C109.4 86.2999 109.2 84.1999 108.7 82.0999C110.1 81.5999 111.6 81.3 113.1 81.2C112.7 84.4 111.4 87.4999 109.4 89.9999Z" fill="#C2CCD2"/>
<path d="M101.4 71.2001C99.1998 72.6001 96.5998 73.3001 93.9998 73.3001C89.9998 73.3001 85.8998 71.9001 81.9998 70.3001C82.6998 69.2001 83.4998 68.1001 84.3998 67.2001H84.5998C87.0998 67.2001 91.2998 69.1001 93.3998 70.2001L93.4998 70.1001C87.4998 63.0001 72.1998 61.9001 62.1998 61.9001H59.2998C63.3998 60.9001 67.5998 60.4001 71.7998 60.5001C82.7998 60.4001 94.4998 63.7001 101.4 71.2001Z" fill="#C2CCD2"/>
<path d="M107.3 92.2C104.6 94.4 101.3 95.7999 97.8999 96.0999C99.9999 90.9999 102.2 85.3999 107.4 82.8999C107.7 84.3999 107.9 85.8999 107.9 87.3999C107.9 88.9999 107.7 90.6 107.3 92.2Z" fill="#C2CCD2"/>
<path d="M93.3998 57.2999L96.4998 56.2999L98.7998 58.8999L98.4998 55.4999L101.5 54.2L98.1998 53.0999L97.7998 49.7L96.0998 52.4999L92.7998 51.7L94.9998 54.3999L93.3998 57.2999Z" fill="#C2CCD2"/>
<path d="M77.2 59.7999L79.4 58.6999L81.1 60.3998L80.7 57.9999L82.8 56.7999L80.4 56.3998L80 54.0999L78.9 56.1999L76.5 55.8998L78.1 57.5999L77.2 59.7999Z" fill="white"/>
<path d="M53.4 64.4999L54.8 63.7999L55.9 64.7999L55.7 63.2999L57.1 62.4999L55.5 62.2L55.2 60.7L54.5 62.0999L53 61.8999L54 63.0999L53.4 64.4999Z" fill="white"/>
<path d="M106.1 85.5001V85.3L104.2 88.6L104.7 85.7001L104.6 85.6C101.7 89.1 100.6 91.6001 99.7002 94.7001V94.9L99.8002 94.8C101.8 94.1 103.7 93.1 105.4 91.8C105.9 90.8 106.1 88.7 106.1 86.1V85.5001Z" fill="#0B77BD"/>
<path d="M99.5998 77.8999C96.1998 78.5999 92.7998 78.8999 89.3998 78.8999C88.8998 78.8999 88.3998 78.8999 87.9998 78.7999L95.1998 76.5999V76.4999C90.3998 76.2999 86.6998 76.1999 82.0998 73.9999L81.9998 73.8999L81.8998 73.9999C81.1998 75.4999 80.7998 77.0999 80.7998 78.7999C80.7998 79.7999 80.8998 80.7999 81.1998 81.7999H81.6998C83.7998 81.7999 92.2998 81.5999 99.4998 77.9999V77.8999H99.5998Z" fill="#0B77BD"/>
<path d="M101.1 83.7999C97.5001 86.4999 94.7001 88.6999 89.4001 89.6999C94.4001 87.1999 97.7001 85.3999 100.8 82.1999L100.7 82.0999C95.1001 85.3999 87.9001 86.6998 82.8001 86.8998H82.6001L82.7001 86.9999C86.9001 93.5999 92.2001 94.1999 93.9001 94.1999H94.5001V94.0999C96.8001 90.4999 98.2001 87.0999 101.1 83.7999Z" fill="#0B77BD"/>
<path fill-rule="evenodd" clip-rule="evenodd" d="M97.4001 61.5999C97.2001 61.3999 96.9001 61.3 96.6001 61.2C100.9 62.5 103.8 64.0999 105.4 65.3999C105.2 65.7999 104.9 66.0999 104.6 66.3999C102.5 64.3999 100.1 62.6999 97.4001 61.5999ZM110.6 85.7V85.3999C110.9 84.2999 111 83.0999 111 81.9999C111.3 81.8999 111.6 81.7999 112 81.7999C111.7 83.0999 111.2 84.4 110.6 85.7ZM112.4 78.2C111.9 78.2 111.3 78.2999 110.8 78.3999C110.7 77.5999 110.5 76.6999 110.3 75.8999C110.9 75.4999 111.4 74.9999 111.9 74.4999C112.3 75.6999 112.5 76.9 112.4 78.2ZM110.6 71.0999C110.1 71.5999 109.6 72.0999 109.2 72.4999C108.7 71.3999 108.1 70.2999 107.4 69.2999C107.8 68.7999 108.1 68.3999 108.4 67.8999C109.2 68.8999 110 69.8999 110.6 71.0999Z" fill="white"/>
</svg>
