<svg width="107" height="107" viewBox="0 0 107 107" fill="none" xmlns="http://www.w3.org/2000/svg">
<path d="M106.4 53.2C106.4 82.6 82.6 106.4 53.2 106.4C23.8 106.4 0 82.6 0 53.2C0 23.8 23.8 0 53.2 0C82.6 0 106.4 23.8 106.4 53.2Z" fill="white"/>
<path d="M104.5 53.2C104.5 81.5 81.5999 104.5 53.1999 104.5C24.7999 104.5 1.8999 81.6 1.8999 53.2C1.8999 24.9 24.7999 1.8999 53.1999 1.8999C81.4999 1.8999 104.5 24.9 104.5 53.2Z" fill="#006BB6"/>
<path d="M9.90021 61.8999L10.9002 65.2999H14.5002L11.6002 67.2999L12.6002 70.5999L9.90021 68.5999L7.10019 70.5999L8.10019 67.2999L5.2002 65.2999H8.8002L9.90021 61.8999Z" fill="white"/>
<path d="M96.6 61.8999L97.6 65.2999H101.2L98.3 67.2999L99.4 70.5999L96.6 68.5999L93.8 70.5999L94.8 67.2999L92 65.2999H95.5L96.6 61.8999Z" fill="white"/>
<path d="M22.3002 79.8L23.4002 83.2001H26.9002L24.0002 85.3L25.1002 88.6L22.3002 86.5001L19.5002 88.6L20.6002 85.3L17.7002 83.2001H21.2002L22.3002 79.8Z" fill="white"/>
<path d="M85.3002 79.8L86.3002 83.2001H89.9002L87.0002 85.3L88.1002 88.6L85.3002 86.5001L82.5002 88.6L83.6002 85.3L80.7002 83.2001H84.2002L85.3002 79.8Z" fill="white"/>
<path d="M41.7001 91.5L42.8 94.8H46.3L43.5001 96.9L44.5001 100.2L41.7001 98.2L38.9001 100.2L40.0001 96.9L37.1001 94.8H40.7001L41.7001 91.5Z" fill="white"/>
<path d="M65.3002 91.5L66.4002 94.8H69.9002L67.1002 96.9L68.1002 100.2L65.3002 98.2L62.5002 100.2L63.6002 96.9L60.7002 94.8H64.2002L65.3002 91.5Z" fill="white"/>
<path d="M91.5998 53.4C91.5998 74.6 74.3998 91.8 53.1998 91.8C31.9998 91.8 14.7998 74.6 14.7998 53.4C14.7998 32.2 31.9998 15 53.1998 15C74.3998 15 91.5998 32.2 91.5998 53.4Z" fill="white"/>
<path d="M17.1002 60.9999C21.3002 80.9999 40.8002 93.7999 60.8002 89.5999C70.4002 87.6999 78.8003 81.8999 84.1003 73.6999C89.4003 65.4999 91.3002 55.4999 89.3002 45.8999C85.1002 25.9999 65.6003 13.1999 45.6003 17.2999C25.7003 21.3999 12.9002 40.9999 17.1002 60.9999Z" fill="#006BB6"/>
<path d="M65.7998 24.6999C65.8998 26.0999 65.1998 27.4998 63.7998 28.8998C56.8998 23.7998 50.2998 21.2998 43.7998 21.2998C42.3998 21.2998 41.0998 21.3998 39.7998 21.5998C41.8998 20.6998 43.9998 20.0998 46.1998 19.5998C51.8998 18.3998 57.7998 18.6998 63.2998 20.3998C64.4998 21.4998 65.5998 22.9999 65.7998 24.6999Z" fill="white"/>
<path d="M58.6002 84.3C65.9002 77.6 69.3002 63.3001 71.3002 54.7001L71.6002 53.4C72.6002 49 74.5002 45.8 76.4002 43.8C83.7002 55.1 82.7002 66.9001 80.9002 74.2001C74.3002 82.9001 64.1002 88.0001 53.2002 88.0001C55.1002 87.0001 57.0002 85.8 58.6002 84.3Z" fill="white"/>
<path d="M71.7998 35.6999C74.7998 33.1999 77.0998 31.2999 78.7998 30.0999C82.4998 34.0999 85.0999 38.8999 86.5999 44.0999C85.1999 42.2999 83.4999 40.4999 81.5999 40.0999C79.9999 39.7999 78.2998 40.1999 76.6998 41.2999C75.1998 39.3999 73.5998 37.4999 71.7998 35.6999Z" fill="white"/>
<path d="M19.3001 51.9C22.7001 42.9 35.0001 39.2 39.6001 37.8L39.8001 37.7001C41.9001 37.2001 43.9001 36.7 46.0001 36.4C52.0001 35.4 59.3001 34.1 63.8001 30.8C65.7001 32.3 67.6001 33.9001 69.4001 35.5001C59.3001 44.1001 43.8001 58.4 27.1001 76.1C23.2001 71.6 20.5001 66.2 19.3001 60.4C18.8001 58.1 18.6001 55.7 18.6001 53.3C19.0001 52.5 19.3001 51.9 19.3001 51.9Z" fill="white"/>
<path d="M70.6001 34.5999C68.8001 32.8999 67.0001 31.2999 65.1001 29.7999C66.8001 28.1999 67.6001 26.3999 67.4001 24.4999C67.3001 23.3999 66.9 22.2999 66.3 21.3999C70.6 23.1999 74.5001 25.6999 77.7001 28.9999C75.9001 30.1999 73.5001 32.0999 70.6001 34.5999Z" fill="white"/>
<path d="M62.4999 29.8998C58.2999 32.7998 51.3999 33.9998 45.7999 34.8998C43.5999 35.1998 41.4999 35.6999 39.3999 36.1999L39.1999 36.2999C34.6999 37.5999 23.5999 40.9999 18.8999 48.9999C19.5999 43.7999 21.3999 38.8999 24.2999 34.4999C26.7999 30.6999 29.8999 27.3999 33.5999 24.7999C41.6999 21.2999 50.8999 21.4998 62.4999 29.8998Z" fill="white"/>
<path d="M81.2 41.7999C83.6 42.2999 86.2 46.3999 87.4 48.6999C88.5 56.2999 87 63.9999 83.2 70.5999C83.4 69.3999 83.5 68.1999 83.6 66.8999C84.3 58.3999 82.1 49.9999 77.5 42.7999C78.9 41.8999 80.1 41.4999 81.2 41.7999Z" fill="white"/>
<path d="M70.5998 36.7C72.3998 38.5 73.9998 40.3999 75.4998 42.3999C73.0998 44.6999 71.0998 48.3999 69.9998 52.9999L69.6998 54.2999C67.6998 62.6999 64.3998 76.6999 57.4998 82.9999C55.1998 85.1999 52.3998 86.7999 49.3998 87.7C43.9998 87.1 38.8998 85.2 34.2998 82.2C32.0998 80.7999 30.0998 79.1 28.2998 77.2C44.9998 59.5 60.5998 45.2 70.5998 36.7Z" fill="white"/>
<path d="M62.8002 63.7001L63.7002 63.4C64.3002 63.3 64.6002 63.1001 64.6002 62.2001C64.6002 61.5001 64.4002 60.3 63.6002 60.3C62.7002 60.3 62.7002 61.8 62.7002 62.6V63.7001H62.8002Z" fill="white"/>
<path d="M51.4998 63.2C51.4998 60.2 51.3999 57.7 49.3999 57.7C47.7999 57.7 47.4998 60.2 47.4998 63.2C47.4998 66.2 47.3999 68.7 49.3999 68.7C51.0999 68.7 51.4998 66.1 51.4998 63.2Z" fill="white"/>
<path d="M62.8002 63.7001L63.7002 63.4C64.3002 63.3 64.6002 63.1001 64.6002 62.2001C64.6002 61.5001 64.4002 60.3 63.6002 60.3C62.7002 60.3 62.7002 61.8 62.7002 62.6V63.7001H62.8002Z" fill="white"/>
<path d="M47.2001 56.3999C48.2001 54.8999 50 54.2 51.8 54.2C55.9 54.2 58.4001 57.6999 58.4001 62.3999C58.4001 67.9999 54.6001 71.2999 49.9001 71.2999C42.7001 71.2999 40.1001 65.4999 40.1001 58.7999C40.1001 51.0999 43.5 44.7 51.8 44.7C55.1 44.7 57.7001 46.7999 57.7001 49.9999C57.8001 51.6999 56.4 53.0999 54.8 53.0999C54.7 53.0999 54.6001 53.0999 54.6001 53.0999C52.3001 53.0999 51.6 51.1999 51.3 49.5999C51.2 48.8999 51.4 47.2999 50.3 47.2999C47.9 47.2999 47.5001 52.0999 47.4001 53.7999L47.2001 56.3999Z" fill="white"/>
<path d="M51.4998 63.2C51.4998 60.2 51.3999 57.7 49.3999 57.7C47.7999 57.7 47.4998 60.2 47.4998 63.2C47.4998 66.2 47.3999 68.7 49.3999 68.7C51.0999 68.7 51.4998 66.1 51.4998 63.2Z" fill="white"/>
<path d="M7.90002 44.8999C9.30002 45.0999 9.80001 45.9999 9.60001 47.7999L9.5 49.0999L10.2 49.1999C11.1 49.2999 11.5 49.2999 11.6 48.4999L12.5 48.5999L12.1 52.0999L11.2 51.9999C11.3 51.1999 10.9 51.0999 10 50.9999L7.30002 50.6999C6.40002 50.5999 6.00002 50.5999 5.90002 51.3999L5 51.2999L5.5 47.4999C5.7 45.5999 6.50002 44.7999 7.90002 44.8999ZM8.70001 48.6999C8.80001 47.4999 8.50001 46.8999 7.70001 46.7999C7.00001 46.6999 6.50002 47.1999 6.40002 47.9999C6.30002 48.5999 6.50001 48.6999 7.20001 48.7999L8.70001 48.9999C8.60001 48.8999 8.70001 48.7999 8.70001 48.6999Z" fill="white"/>
<path d="M13.0999 41.1C13.3999 40.4 13.0999 40.2 12.1999 39.8L9.69989 38.7001C8.79989 38.3001 8.49989 38.3001 8.19989 39.0001L7.3999 38.7001L8.7999 35.4L9.59988 35.7001C9.29988 36.4001 9.59988 36.6001 10.4999 37.0001L11.0999 37.3L12.0999 34.9L11.4999 34.6C10.5999 34.2 10.2999 34.2 9.99988 34.9L9.19989 34.6L10.5999 31.3L11.3999 31.6C11.0999 32.3 11.3999 32.5 12.2999 32.9L14.7999 34.0001C15.6999 34.4001 15.9999 34.4001 16.2999 33.7001L17.0999 34.0001L15.6999 37.3L14.8999 37.0001C15.1999 36.3001 14.8999 36.1001 13.9999 35.7001L12.8999 35.2001L11.8999 37.6L12.9999 38.1C13.8999 38.5 14.1999 38.5 14.4999 37.8L15.2999 38.1L13.8999 41.4L13.0999 41.1Z" fill="white"/>
<path d="M16.5002 23.8C16.1002 24.4 16.3002 24.7 17.1002 25.3L19.3002 26.9C20.1002 27.5 20.4002 27.6001 20.9002 27.0001L21.6002 27.5001L19.5002 30.3L18.8002 29.8C19.2002 29.2 19.0002 28.9 18.2002 28.3L16.0002 26.7001C15.2002 26.1001 14.9002 26 14.4002 26.6L13.7002 26.1L15.8002 23.3L16.5002 23.8Z" fill="white"/>
<path d="M24.4002 24.2L23.8002 23.4999C24.4002 22.9999 24.2002 22.6999 23.6002 21.9999L21.8002 19.8999C21.2002 19.1999 20.9002 18.8999 20.3002 19.3999L19.7002 18.7L22.4002 16.3999L23.0002 17.0999C22.4002 17.5999 22.6002 17.9 23.2002 18.7L25.2002 20.9999C25.7002 21.4999 25.9002 21.6 26.4002 21.2C27.1002 20.6 27.5002 19.4999 27.2002 18.0999L28.0002 17.8999L28.8002 20.4999L24.4002 24.2Z" fill="white"/>
<path d="M32.7999 17.6999L32.3999 16.8998C33.0999 16.4998 32.9999 16.0999 32.9999 15.2999L32.7999 9.79987L34.2999 9.09985L38.3999 13.0999C38.8999 13.4999 39.0999 13.7999 39.6999 13.5999L40.0999 14.3998L36.8999 15.8998L36.4999 15.0999H36.5999C36.9999 14.8999 37.1999 14.6998 37.0999 14.3998C37.0999 14.2998 36.9999 14.1999 36.8999 14.0999L36.1999 13.3998L34.0999 14.2999L34.1999 15.2999C34.1999 15.3999 34.1999 15.4999 34.2999 15.4999C34.3999 15.7999 34.6999 15.7999 35.1999 15.5999L35.5999 16.3998L32.7999 17.6999ZM35.3999 12.7999L33.8999 11.1999L33.9999 13.4999L35.3999 12.7999Z" fill="white"/>
<path d="M43.6002 12.5C44.4002 12.4 44.4002 12 44.2002 11.1L43.8002 8.39994C43.7002 7.49994 43.6002 7.09999 42.8002 7.19999L42.7002 6.29997L46.2002 5.79997C48.9002 5.39997 50.6002 6.49999 50.9002 8.69999C51.2002 11 50.0002 12.4 47.2002 12.8L43.7002 13.3L43.6002 12.5ZM46.2002 11.2C46.3002 11.9 46.4002 12.1 47.2002 12C48.6002 11.8 49.4002 10.7 49.1002 8.99998C48.9002 7.29998 47.8002 6.49999 46.4002 6.69999C45.7002 6.79999 45.6002 6.99999 45.7002 7.69999L46.2002 11.2Z" fill="white"/>
<path d="M55.9999 11.3999C56.7999 11.4999 56.8999 11.2 56.9999 10.2L57.3999 7.49994C57.4999 6.59994 57.4999 6.19991 56.7999 6.09991L56.8999 5.19995L62.7999 5.99994L63.3999 8.29993L62.6999 8.49994C62.0999 7.29994 61.2999 6.59994 60.1999 6.49994C59.4999 6.39994 59.3999 6.59993 59.2999 7.29993L59.1999 8.29993L59.4999 8.3999C60.1999 8.4999 60.4999 8.2999 60.5999 7.3999L61.2999 7.49994L60.7999 10.7L60.0999 10.5999C60.0999 9.79991 59.8999 9.29993 59.2999 9.29993L58.9999 9.19995L58.7999 10.7999C58.6999 11.4999 58.7999 11.6999 59.4999 11.7999C60.4999 11.8999 61.7999 11.3999 62.6999 10.2999L63.2999 10.7999L61.8999 13.0999L55.8999 12.2L55.9999 11.3999Z" fill="white"/>
<path d="M67.1001 14.5999L67.5001 13.7999C68.2001 14.0999 68.4 13.7998 68.8 12.8998L69.9001 10.3998C70.3001 9.49984 70.4001 9.19984 69.7001 8.89984L70.1001 8.09985L73.3 9.49988L72.9001 10.2999C72.2001 9.99987 72.0001 10.2999 71.6001 11.1999L70.4001 13.9999C70.1001 14.5999 70.1 14.8999 70.8 15.1999C71.7 15.5999 72.8001 15.3999 74.0001 14.4999L74.5001 15.0999L72.5001 16.9999L67.1001 14.5999Z" fill="white"/>
<path d="M85.1998 19.8C84.2998 20.9 83.1998 20.8 81.7998 19.7L80.7998 18.9L80.2998 19.5C79.6998 20.2 79.4999 20.6 80.0999 21.1L79.4998 21.8L76.7998 19.6L77.3998 18.9C77.9998 19.4 78.2998 19.1 78.8998 18.4L80.5999 16.3C81.1999 15.6 81.3998 15.2 80.7998 14.7L81.3998 14L84.3998 16.4C85.7998 17.5 86.0998 18.7 85.1998 19.8ZM81.5999 18.4C82.4999 19.1 83.1998 19.2 83.6998 18.5C84.1998 17.9 84.0998 17.3 83.3998 16.7C82.8998 16.3 82.6998 16.4 82.2998 16.9L81.2998 18.1C81.3998 18.3 81.4999 18.3 81.5999 18.4Z" fill="white"/>
<path d="M85.7 26.1999C86.2 26.7999 86.5 26.6999 87.3 26.0999L89.6 24.4999C90.4 23.9999 90.6 23.6999 90.2 23.0999L90.9 22.5999L92.9 25.4999L92.2 25.9999C91.7 25.3999 91.4 25.4999 90.6 26.0999L90 26.4999L91.5 28.6999L92.1 28.2999C92.9 27.7999 93.1 27.4998 92.7 26.8998L93.4 26.3998L95.4 29.2999L94.7 29.7999C94.2 29.1999 93.9 29.2998 93.1 29.8998L90.8 31.4999C90 31.9999 89.8 32.2998 90.2 32.8998L89.5 33.3998L87.5 30.4999L88.2 29.9999C88.7 30.5999 89 30.4998 89.8 29.8998L90.8 29.1999L89.3 26.9999L88.3 27.6999C87.5 28.1999 87.3 28.4999 87.7 29.0999L87 29.5999L85 26.6999L85.7 26.1999Z" fill="white"/>
<path d="M98.4999 38.3C98.1999 37.6 97.8999 37.7001 96.9999 38.0001L94.3999 39.0001C93.4999 39.3001 93.1999 39.5 93.4999 40.3L92.6999 40.6L91.3999 37.3L92.1999 37.0001C92.4999 37.7001 92.7999 37.6 93.6999 37.3L96.2999 36.3C97.1999 36 97.4999 35.8 97.1999 35.1L97.9999 34.8L99.2999 38.1L98.4999 38.3Z" fill="white"/>
<path d="M93.8999 44.4L94.7999 44.3C94.9999 45.1 95.3999 45.1 96.1999 45.4L101.5 46.8L101.7 48.4L96.6999 51.1C96.0999 51.4 95.8999 51.6001 95.8999 52.2001L94.9999 52.3L94.4999 48.8L95.2999 48.7001V48.8C95.3999 49.3 95.4999 49.5001 95.7999 49.5001C95.8999 49.5001 95.9999 49.4 96.0999 49.4L96.9999 48.9L96.6999 46.6L95.6999 46.4C95.5999 46.4 95.4999 46.4 95.4999 46.4C95.1999 46.4 95.0999 46.7 95.0999 47.3L94.2999 47.4L93.8999 44.4ZM97.8999 48.4L99.8999 47.4L97.6999 46.9L97.8999 48.4Z" fill="white"/>
<path d="M74.8 57.8998C74.1 57.8998 73.4 58.1999 73 58.6999C72.9 58.5999 72.9 58.4998 72.9 58.3998L72.5 57.5999L67 59.1999V62.1999H68C68.1 62.1999 68.1 62.1999 68.2 62.1999C68.3 62.5999 68.4 63.0999 68.3 63.4999V66.9999L67.3 67.0999V70.3998H74.9V67.2999L73.9 67.1999V66.1999C73.9 65.3999 74 64.5999 74.2 63.7999C74.5 63.8999 74.9 63.9998 75.2 63.8998C76.6 63.8998 77.5 62.6998 77.5 60.8998C77.5 59.0998 76.4 57.8998 74.8 57.8998Z" fill="white"/>
<path d="M84.3998 61.3999C84.2998 61.1999 84.2998 61.0999 84.2998 60.8999C84.2998 59.9999 83.8999 57.8999 80.5999 57.8999C78.7999 57.8999 75.0999 59.2999 75.0999 62.5999C75.0999 63.5999 75.3998 64.5999 75.9998 65.3999C75.1998 65.8999 74.7998 66.8 74.7998 67.7C74.7998 68.9 75.3998 70.8999 79.3998 70.8999C82.7998 70.8999 84.7998 69.0999 84.7998 65.9999C84.7998 63.0999 84.5998 62.0999 84.3998 61.3999Z" fill="white"/>
<path d="M43.9998 43.7C43.7998 43.5 43.4998 43.2999 43.1998 43.2999C42.6998 43.2999 42.2998 43.5999 41.7998 44.0999C40.0998 45.7999 37.7998 46.8 35.3998 46.7C32.0998 46.7 28.5998 45.1999 25.7998 42.4999C25.5998 42.2999 25.2998 42.2 24.9998 42.2C23.5998 42.2 23.2998 44.3999 23.2998 44.3999V55.3999L24.1998 55.4999C27.0998 55.9999 30.0998 55.9 32.9998 55.2C30.1998 57.7 23.8998 64.4999 23.9998 71.0999C23.9998 72.2999 24.7998 72.3999 25.0998 72.3999C25.3998 72.3999 25.6998 72.2999 25.8998 71.9999C25.9998 71.9999 25.9998 71.8999 26.0998 71.8999C27.2998 71.1999 28.6998 70.7999 30.0998 70.7999C31.3998 70.7999 32.5998 70.9999 33.7998 71.5999C33.9998 71.6999 34.1998 71.7999 34.4998 71.7999C34.7998 71.7999 35.0998 71.6999 35.2998 71.3999C35.5998 71.0999 35.6998 70.6 35.5998 70.2C35.0998 65.5 36.1998 60.2999 38.1998 57.2999L38.4998 56.8999C40.1998 54.3999 43.7998 49.1 44.3998 44.7C44.2998 44.4 44.1998 44 43.9998 43.7Z" fill="white"/>
<path d="M69.3999 64.5999L69.2999 63.7999C69.2999 63.2999 69.1999 62.8 69.0999 62.2V61.2L68.8999 61.4999C68.1999 59.2999 66.0999 57.8999 63.8999 57.8999C60.3999 57.8999 57.8999 60.7 57.8999 64.7C57.8999 67.8 59.6999 70.8999 63.6999 70.8999C65.8999 70.8999 67.9999 69.7999 69.1999 67.8999L69.2999 67.5999L69.1999 64.5999H69.3999ZM65.0999 66.4999C64.6999 66.4999 64.3999 66.2999 64.2999 65.9999L66.2999 65.4999C65.9999 65.8999 65.5999 66.1999 65.0999 66.4999Z" fill="white"/>
<path d="M56.2001 54.8999C56.0001 54.5999 55.8001 54.2999 55.6001 53.9999C57.5001 53.6999 58.9001 51.8999 58.9001 49.9999C58.9001 46.3999 55.9001 43.7 51.9001 43.7C43.9001 43.7 39.1001 49.3999 39.1001 58.8999C39.1001 67.4999 43.1001 72.3999 49.9001 72.3999C55.5001 72.3999 59.4001 68.2999 59.4001 62.4999C59.5001 59.4999 57.5001 56.6999 56.2001 54.8999Z" fill="white"/>
<path d="M65.0999 67.6C63.8999 67.6 63.0998 66.5 62.9998 65.3L68.2998 63.9C68.1998 61.3 66.5998 59 63.7998 59C60.7998 59 58.7998 61.3 58.7998 64.8C58.7998 67.5 60.3999 70 63.5999 70C65.4999 70 67.2998 69.1 68.1998 67.5L67.0999 66.2C66.7999 66.9 66.0999 67.6 65.0999 67.6ZM62.7998 62.6C62.7998 61.8 62.7998 60.3 63.6998 60.3C64.4998 60.3 64.6998 61.5 64.6998 62.2C64.7998 62.8 64.3998 63.3 63.7998 63.4L62.8998 63.7V62.6H62.7998Z" fill="#006BB6"/>
<path d="M73.9 69.6H68.3V68.2L69.3 68.1V63.7C69.3 62.1 69.1 61.4 68 61.4V60.2L72 59C72.4 59.9 72.6 60.9 72.7 61.9C73.1 60.7 73.6 59 74.9 59C76 59 76.5 59.9 76.5 61C76.5 62.1 76 63 75.2 63C74.7 63 74.3 62.9 73.9 62.7C73.2 62.5 72.9 65.6 72.9 66.3V68.2L73.9 68.3V69.6Z" fill="#006BB6"/>
<path d="M83.2998 61C83.2998 61.9 82.4998 62.3 81.6998 62.3C80.7998 62.2 79.9998 61.5 79.8998 60.6C79.4998 60.6 79.1998 60.8 79.1998 61.5C79.1998 63.1 83.7998 62 83.7998 66.1C83.7998 69.2 81.5998 70 79.3998 70C78.0998 70 75.7998 69.8 75.7998 67.8C75.7998 66.9 76.2998 66.2 77.1998 66.2C78.5998 66.2 78.7999 67.5 79.0999 68.4C79.1999 68.6 79.3999 68.7 79.5999 68.7C80.2999 68.7 80.8998 68.4 80.8998 67.9C80.8998 66.1 76.1998 66.8 76.1998 62.7C76.1998 60.2 79.1998 59 80.6998 59C82.2998 59 83.2998 59.5 83.2998 61Z" fill="#006BB6"/>
<path d="M51.8998 54.2C50.0998 54.2 48.2998 54.8999 47.2998 56.3999L47.4998 53.7999C47.5998 51.9999 47.9998 47.2999 50.3998 47.2999C51.5998 47.2999 51.2998 48.8999 51.3998 49.5999C51.6998 51.1999 52.3998 53.0999 54.6998 53.0999C56.3998 53.1999 57.7998 51.9 57.8998 50.2C57.8998 50.1 57.8998 50.0999 57.8998 49.9999C57.8998 46.7999 55.1998 44.7 51.9998 44.7C43.5998 44.7 40.2998 51.0999 40.2998 58.7999C40.2998 65.4999 42.8999 71.2999 50.0999 71.2999C54.7999 71.2999 58.5999 67.9999 58.5999 62.3999C58.4999 57.6999 55.9998 54.2 51.8998 54.2ZM49.3998 68.7C47.3998 68.7 47.4998 66.1 47.4998 63.2C47.4998 60.2 47.7998 57.7 49.3998 57.7C51.3998 57.7 51.4998 60.2 51.4998 63.2C51.4998 66.1 51.0998 68.7 49.3998 68.7Z" fill="#006BB6"/>
<path d="M24.2002 44.5V54.5C29.8002 55.3 36.4002 54.7999 41.2002 47.8999C41.4002 47.5999 41.5002 47.8 41.4002 48.1C40.1002 50.8 37.0002 53.2999 34.3002 55.3999C31.7002 57.3999 24.8002 64.7 24.9002 71.1C24.9002 71.6 24.9002 71.5 25.4002 71.1C27.5002 69.5 31.6002 69.5 34.2002 70.7C34.6002 70.9 34.6002 70.7999 34.5002 70.3999C34.0002 65.3999 35.1002 59.9999 37.3002 56.8999C38.8002 54.6999 42.7002 49.1 43.4002 44.7C43.5002 44.2 43.2002 44.2999 42.7002 44.8999C38.2002 49.5999 30.2002 49.5 24.9002 44.5C24.4002 44.1 24.3002 44.3 24.2002 44.5Z" fill="#ED174C"/>
<path d="M33.8998 48.2C39.2017 48.2 43.4998 43.9019 43.4998 38.6C43.4998 33.298 39.2017 29 33.8998 29C28.5979 29 24.2998 33.298 24.2998 38.6C24.2998 43.9019 28.5979 48.2 33.8998 48.2Z" fill="white"/>
<path d="M33.9 29.3L34.2 30.3H35.3L34.4 31.0001L34.8 32.0001L33.9 31.4L33.1 32.0001L33.4 31.0001L32.5 30.3H33.6L33.9 29.3Z" fill="#006BB6"/>
<path d="M40.2999 33L40.5999 34H41.6999L40.7999 34.7L41.0999 35.7L40.2999 35.1L39.3999 35.7L39.7999 34.7L38.8999 34H39.9999L40.2999 33Z" fill="#006BB6"/>
<path d="M37.5001 30.2L37.9001 31.2H39.0001L38.1001 31.7999L38.4001 32.7999L37.6001 32.2L36.7001 32.7999L37.0001 31.7999L36.1001 31.2H37.2001L37.5001 30.2Z" fill="#006BB6"/>
<path d="M41.2999 36.5L41.5999 37.5H42.6999L41.8999 38.2L42.1999 39.2L41.2999 38.6L40.4999 39.2L40.7999 38.2L39.8999 37.5H40.9999L41.2999 36.5Z" fill="#006BB6"/>
<path d="M40.9 40.2L41.2 41.2999H42.3L41.4 41.8999L41.7 42.8999L40.9 42.2999L40 42.8999L40.3 41.8999L39.5 41.2999H40.6L40.9 40.2Z" fill="#006BB6"/>
<path d="M38.7999 43.2L39.0999 44.2H40.1999L39.3999 44.8999L39.6999 45.8999L38.7999 45.2999L37.9999 45.8999L38.2999 44.8999L37.3999 44.2H38.4999L38.7999 43.2Z" fill="#006BB6"/>
<path d="M35.6002 44.8999L35.9002 45.8999H37.0002L36.1002 46.4999L36.5002 47.4999L35.6002 46.8999L34.8002 47.4999L35.1002 46.4999L34.2002 45.8999H35.3002L35.6002 44.8999Z" fill="#006BB6"/>
<path d="M27.4 32.7L27.1 33.7H26L26.9 34.3999L26.6 35.2999L27.4 34.7L28.3 35.2999L28 34.3999L28.8 33.7H27.8L27.4 32.7Z" fill="#006BB6"/>
<path d="M30.1002 30.2L29.8002 31.2H28.7002L29.6002 31.7999L29.3002 32.7999L30.1002 32.2L31.0002 32.7999L30.6002 31.7999L31.5002 31.2H30.4002L30.1002 30.2Z" fill="#006BB6"/>
<path d="M26.1998 36.0999L25.8998 37.0999H24.7998L25.6998 37.6999L25.3998 38.6999L26.1998 38.0999L26.9998 38.6999L26.6998 37.6999L27.5998 37.0999H26.4998L26.1998 36.0999Z" fill="#006BB6"/>
<path d="M26.5001 39.8L26.2001 40.8H25.1001L26.0001 41.4L25.7001 42.4L26.5001 41.8L27.4001 42.4L27.1001 41.4L27.9001 40.8H26.8001L26.5001 39.8Z" fill="#006BB6"/>
<path d="M28.6002 42.8L28.3002 43.8H27.2002L28.1002 44.5001L27.7002 45.5001L28.6002 44.8L29.4002 45.5001L29.1002 44.5001L30.0002 43.8H28.9002L28.6002 42.8Z" fill="#006BB6"/>
<path d="M31.7999 44.7L31.4999 45.7999H30.3999L31.2999 46.3999L30.9999 47.3999L31.7999 46.7999L32.6999 47.3999L32.2999 46.3999L33.1999 45.7999H32.0999L31.7999 44.7Z" fill="#006BB6"/>
</svg>
