<svg width="90" height="92" viewBox="0 0 90 92" fill="none" xmlns="http://www.w3.org/2000/svg">
<path d="M89.7414 0.299988C89.6414 0.0999878 89.3414 0 89.1414 0H32.8415C26.1415 0 22.0414 2.89998 20.5414 8.59998L0.0414138 90.2C-0.0585862 90.4 0.0414504 90.7 0.14145 90.9C0.24145 91.1 0.541426 91.2 0.741426 91.2H62.1414C65.6414 91.2 69.1414 88.4 69.9414 84.9L89.8415 0.899963C89.9415 0.799963 89.8414 0.499988 89.7414 0.299988Z" fill="#63727A"/>
<path d="M0.841309 90.5001H62.2413C65.4413 90.5001 68.6413 87.9 69.3413 84.8L89.2413 0.800049H32.9413C27.7413 0.800049 22.9413 2.60002 21.4413 8.90002L0.841309 90.5001Z" fill="black"/>
<path d="M13.4415 57.2999H66.6415C69.3415 57.2999 71.9415 55.1999 72.5415 52.4999L83.7415 4.09985H34.9415C28.9415 4.09985 26.3415 5.99984 25.1415 10.8998L13.4415 57.2999ZM66.6415 57.9999H12.5415L24.4415 10.8998C25.9415 4.79984 29.7415 3.59985 34.9415 3.59985H84.5415L73.1415 52.6999C72.5415 55.5999 69.6415 57.9999 66.6415 57.9999Z" fill="#63727A"/>
<path d="M21.4414 84.3999L22.9414 86.3999H34.1414L38.7414 68.3999H34.1414L30.1414 83.8999H26.1414L30.0414 68.3999H24.2414L23.8414 68.7L25.0414 70.2999L21.4414 84.3999Z" fill="white"/>
<path d="M21.8416 74.7001L22.9416 70.4L21.4416 68.3H12.2416L9.74158 70.4L8.1416 76.4L15.9416 79.7001L14.9416 83.9H10.8416L11.3416 81.9L7.24158 80.0001L6.1416 84.4L7.6416 86.4H16.8416L19.3416 84.4L20.9416 78.3L13.1416 75.0001L14.1416 70.9H18.2416L17.7416 72.9L21.8416 74.7001Z" fill="white"/>
<path d="M53.5412 70.4L52.0412 68.3H40.8412L36.2412 86.3H40.8412L44.7412 70.9H48.8412L44.9412 86.3H50.7412L51.0412 86.0001L49.9412 84.5001L53.5412 70.4Z" fill="white"/>
<path d="M67.7415 74.7001L68.7415 70.4L67.2415 68.3H58.1415L55.6415 70.4L54.0415 76.4L61.8416 79.7001L60.7415 83.9H56.7415L57.2415 81.9L53.1415 80.0001L52.0415 84.4L53.5415 86.4H62.7415L65.2415 84.4L66.7415 78.3L59.0415 75.0001L60.0415 70.9H64.1415L63.6415 72.9L67.7415 74.7001Z" fill="white"/>
<path d="M7.24158 80L8.94159 82.5L8.54156 84L9.34161 85.1H15.9416L17.1416 84.1L19.3416 84.4L16.8416 86.4H7.6416L6.1416 84.4L7.24158 80Z" fill="#BEC0C2"/>
<path d="M14.9416 83.8999L17.1416 84.0999L18.4416 78.9999L10.6416 75.7L11.9416 70.5999L9.74158 70.3999L8.1416 76.3999L15.9416 79.7L14.9416 83.8999Z" fill="#BEC0C2"/>
<path d="M19.6414 69.5999H13.3414L11.9414 70.5999L14.1414 70.8998H18.2414L17.7414 72.8998L20.1414 72.0999L20.5414 70.7999L19.6414 69.5999Z" fill="#BEC0C2"/>
<path d="M53.1415 80L54.8416 82.5L54.4415 84L55.2415 85.1H61.7415L63.0415 84.1L65.2415 84.4L62.7415 86.4H53.5415L52.0415 84.4L53.1415 80Z" fill="#BEC0C2"/>
<path d="M60.7415 83.8999L63.0415 84.0999L64.3416 78.9999L56.5415 75.7L57.8416 70.5999L55.6415 70.3999L54.0415 76.3999L61.8416 79.7L60.7415 83.8999Z" fill="#BEC0C2"/>
<path d="M65.5413 69.5999H59.1413L57.8413 70.5999L60.0413 70.8998H64.1413L63.6413 72.8998L66.0413 72.0999L66.3413 70.7999L65.5413 69.5999Z" fill="#BEC0C2"/>
<path d="M23.8414 68.7L27.4414 69.5999L23.8414 83.9999L24.6414 85.0999H32.1414L34.1414 86.3999H22.9414L21.4414 84.3999L25.0414 70.2999L23.8414 68.7Z" fill="#BEC0C2"/>
<path d="M34.1416 68.3999L36.0416 69.5999L32.1416 85.0999L30.1416 83.8999L34.1416 68.3999Z" fill="#BEC0C2"/>
<path d="M42.8412 69.6L40.8412 68.3L36.2412 86.3H40.8412L38.8412 85.1L42.8412 69.6Z" fill="#BEC0C2"/>
<path d="M47.4413 85.0999L51.1413 70.7999L50.2413 69.5999H42.8413L44.7413 70.8998H48.8413L44.9413 86.2999H50.7413L51.0413 85.9999L47.4413 85.0999Z" fill="#BEC0C2"/>
<path d="M14.3412 62.8999L13.1412 63.2L13.5412 61.5999H14.6412L14.3412 62.8999ZM12.1412 60.7L12.0412 60.7999L12.4412 61.2999L11.2412 66.0999H12.8412L12.9412 65.9999L12.5412 65.4999L12.8412 64.2L15.3412 63.3999L15.8412 61.2999L15.3412 60.7H12.1412Z" fill="white"/>
<path d="M25.4416 60.7H24.2416L23.7416 62.7L22.6416 62.9999L23.1416 60.7H21.5416L21.4416 60.7999L21.8416 61.2999L20.6416 66.0999H21.8416L22.3416 63.9999L23.5416 63.7L22.9416 66.0999H24.5416L24.6416 65.9999L24.2416 65.4999L25.4416 60.7Z" fill="white"/>
<path d="M32.5412 65.2H31.4412L32.3412 61.5999H33.4412L32.5412 65.2ZM32.0412 60.7L31.2412 61.2999L30.2412 65.2999L30.7412 65.9999H32.9412L33.7412 65.2999L34.7412 61.2999L34.2412 60.7H32.0412Z" fill="white"/>
<path d="M53.1414 61.3999L52.6414 60.7H49.7414L48.4414 66.0999H49.6414L50.7414 61.5999H51.8414L50.7414 66.0999H52.3414L52.5414 65.9999L52.1414 65.4999L53.1414 61.3999Z" fill="white"/>
<path d="M60.5415 60.7H58.9415L58.7415 60.7999L59.2415 61.2999L58.0415 66.0999H59.6415L59.7415 65.9999L59.3416 65.4999L60.5415 60.7Z" fill="white"/>
<path d="M69.0413 65.4999L68.4413 63.4999L70.5413 60.7H69.4413L68.2413 62.3999L67.7413 60.7H66.2413L66.0413 60.7999L66.7413 61.2999L67.3413 63.4999L65.3413 66.0999H66.4413L67.6413 64.4999L68.0413 66.0999H69.6413L69.7413 65.9999L69.0413 65.4999Z" fill="white"/>
<path d="M42.2414 65.2H40.9414L41.2414 63.7999H42.3414L42.5414 62.9999H41.4414L41.7414 61.5999H43.0414L43.4414 62.0999L43.5414 61.9999L43.8414 60.7H40.4414L40.2414 60.7999L40.6414 61.2999L39.4414 66.0999H42.6414L42.9414 64.7999L42.8414 64.7L42.2414 65.2Z" fill="white"/>
<path d="M14.9414 56.5001L45.2414 39.8L24.6414 56.5001L49.7414 42.1L49.2414 45.0001L53.4414 42.7001L62.8414 51.6L67.8414 36.5001L75.1414 36.0001L71.4414 26.9L78.0414 21.8L69.5414 18.4L71.6414 9.30005L64.4414 12.6L60.7414 4.80005L54.9414 10.5001L44.4414 5.80005L43.0414 15.1L33.7414 17.2001L39.2414 20.5001L33.7414 23.3L38.4414 23.7001L19.1414 38.7001L38.5414 28.4L17.7414 44.2001L39.9414 32.7001L16.1414 50.5001L42.3414 36.6L14.9414 56.5001Z" fill="#F9A01B"/>
<path d="M70.5414 26.9999C70.1414 35.2999 63.1414 41.7999 54.7414 41.4999C46.4414 41.0999 39.9414 34.0999 40.2414 25.6999C40.6414 17.3999 47.6414 10.8999 55.9414 11.1999C64.3414 11.5999 70.8414 18.6999 70.5414 26.9999Z" fill="#E56020"/>
<path d="M57.2416 39.4C48.9416 39.1 42.4416 32.0001 42.7416 23.7001C42.8416 20.0001 44.4416 16.4 47.0416 13.8C40.0416 18.5 38.2416 27.9 42.8416 34.8C45.5416 38.8 49.9416 41.3001 54.7416 41.5001C59.0416 41.7001 63.2416 40 66.2416 36.9C63.6416 38.7 60.4416 39.6 57.2416 39.4Z" fill="#B95915"/>
<path d="M70.5414 26.5999C70.5414 26.0999 70.5414 25.4999 70.5414 24.9999C69.6414 24.2999 68.5414 23.9 67.4414 23.7C67.1414 23.7 66.9414 23.7 66.7414 23.7C66.6414 22.7 66.3414 21.7 66.0414 20.7C66.2414 20.7 66.3414 20.7 66.5414 20.7C67.6414 20.8 68.6414 20.8999 69.7414 21.0999C69.6414 20.6999 69.4414 20.2999 69.2414 19.8999C68.1414 19.6999 66.9414 19.5999 65.7414 19.4999C65.3414 18.4999 64.9414 17.6 64.3414 16.7C65.0414 16.6 65.7414 16.2 66.3414 15.7C66.0414 15.4 65.7414 15.1999 65.4414 14.8999C64.9414 15.3999 64.2414 15.6 63.6414 15.7C63.5414 15.5 63.3414 15.4 63.3414 15.2C62.3414 13.9 61.1414 12.6999 59.8414 11.7999C58.6414 11.4999 57.4414 11.3 56.2414 11.2H56.0414C58.3414 12.2 60.4414 13.7 62.0414 15.7C60.2414 15.5 58.5414 14.9999 56.8414 14.4999C56.3414 14.2999 55.8414 14.1999 55.3414 13.9999C53.0414 13.2999 50.6414 13 48.1414 13.2C46.8414 14 45.6414 14.8999 44.6414 15.9999C46.5414 15.1999 50.4414 13.9 55.0414 15.2C55.5414 15.3 56.0414 15.4999 56.5414 15.5999C58.5414 16.1999 60.9414 16.8999 62.9414 16.8999C63.4414 17.6999 63.9414 18.5999 64.3414 19.4999C63.9414 19.4999 63.5414 19.4999 63.1414 19.4999C53.3414 19.2999 45.1414 22.1999 40.4414 26.8999C40.4414 27.7999 40.5414 28.6999 40.7414 29.5999C42.0414 27.6999 44.0414 25.9999 46.5414 24.5999C51.2414 21.9999 57.4414 20.6 64.0414 20.7C64.3414 20.7 64.5414 20.7 64.7414 20.7C65.0414 21.7 65.3414 22.7 65.5414 23.7C61.2414 23.9 58.5414 26.4999 55.2414 29.3999C52.4414 31.8999 48.9414 34.4999 43.8414 35.9999C44.3414 36.5999 44.8414 37.0999 45.4414 37.5999C50.2414 35.6999 53.4414 32.6999 56.1414 30.2999C59.2414 27.4999 61.8414 24.8999 65.6414 24.7999C65.7414 25.8999 65.7414 26.9999 65.6414 28.0999C65.1414 33.9999 61.6414 39.0999 57.0414 41.5999C58.2414 41.4999 59.3414 41.1999 60.5414 40.7999C60.9414 40.4999 61.3414 40.0999 61.6414 39.7999C64.7414 36.6999 66.6414 32.6 67.0414 28.2C67.1414 27.1 67.1414 25.9999 67.0414 24.8999C67.2414 24.8999 67.4414 24.8999 67.6414 24.9999C68.5414 25.0999 69.6414 25.6999 70.5414 26.5999Z" fill="black"/>
</svg>
