<svg width="119" height="102" viewBox="0 0 119 102" fill="none" xmlns="http://www.w3.org/2000/svg">
<path d="M78.8 13.8C78.1 12.7 77.2 11.6 76.2 10.7C75.8 10.3 75.3 9.9 74.9 9.5L84.4 0H56.9L46.2 10.7C45.2 11.7 44.4 12.7 43.6 13.8C42.8 14.9 42.2 16.2 41.6 17.4C39.4 22.7 39.4 28.6 41.6 33.9C42.1 35.2 42.8 36.4 43.6 37.5C44.3 38.6 45.2 39.7 46.2 40.6C46.6 41 47 41.4 47.5 41.8L38 51.3H65.5L76.2 40.6C78.1 38.7 79.7 36.4 80.7 33.9C82.9 28.6 82.9 22.7 80.7 17.4C80.3 16.2 79.6 14.9 78.8 13.8Z" fill="black"/>
<path d="M74.9998 11.9C74.5998 11.5 74.0998 11.1 73.6998 10.7L62.0998 22.2999C62.6998 22.4999 63.1998 22.8 63.6998 23.2C65.0998 24.6 65.0998 26.8 63.6998 28.2L42.2998 49.7H44.7998L64.8998 29.4999C66.9998 27.3999 66.9998 24.1 64.9998 21.9L66.1998 20.7C68.9998 23.5 68.9998 28 66.1998 30.7L47.3998 49.7H49.8998L67.5998 31.9999C71.0998 28.4999 71.0998 22.9 67.5998 19.4L68.7998 18.2C72.9998 22.4 72.9998 29.0999 68.7998 33.2999L52.3998 49.7H54.8998L70.0998 34.4999C74.9998 29.6999 74.9998 21.8 70.0998 16.9L71.3998 15.6C76.8998 21.2 76.8998 30.2 71.2998 35.7L57.3998 49.7H59.8998L72.4998 37.1C78.6998 30.9 78.7998 20.7999 72.4998 14.4999L73.7998 13.2C80.6998 20.2 80.6998 31.3999 73.7998 38.2999L62.3998 49.7H64.8998L74.9998 39.6C82.6998 31.9 82.5998 19.5 74.9998 11.9Z" fill="white"/>
<path d="M47.5 39.4999C47.9 39.8999 48.2999 40.2999 48.7999 40.7L60.4 29.1C59.8 28.9 59.2999 28.6 58.7999 28.2C57.3999 26.8 57.3999 24.6 58.7999 23.2L80.2 1.69995H77.7L57.5 21.9C55.4 24 55.4 27.3999 57.5 29.4999L56.2 30.7C53.4 27.9 53.4 23.5 56.2 20.7L75.0999 1.69995H72.5999L55 19.4C51.5 22.9 51.5 28.4999 55 31.9999L53.7 33.2C49.6 29 49.6 22.3 53.7 18.1L70.0999 1.69995H67.5999L52.4 16.9C47.5 21.7 47.5 29.5999 52.4 34.4999L51.0999 35.7999C45.5999 30.1999 45.5999 21.2 51.0999 15.7L65 1.79993H62.5L50 14.4C43.8 20.6 43.7 30.6999 49.9 36.9999L48.7 38.2999C41.8 31.3999 41.8 20.1 48.7 13.2L60.0999 1.79993H57.5999L47.4 11.9999C39.8 19.4999 39.8 31.8999 47.5 39.4999Z" fill="#CF0A2C"/>
<path d="M26.6999 94.5001H25.3999V93.1001H29.5999V94.5001H28.1999V101.1H26.6999V94.5001Z" fill="black"/>
<path d="M31.5 93.1001H34.8L35.8 94.1001V96.9001L35 97.7001L35.9 101.1H34.4L33.6 97.8H33V101.1H31.5V93.1001ZM34 96.7001L34.3 96.3V94.6001L34 94.2001H33V96.7001H34Z" fill="black"/>
<path d="M38.8001 93.1001H41.0001L42.2001 101.1H40.7001L40.5001 99.3H39.2001L39.0001 101.1H37.6001L38.8001 93.1001ZM39.3001 98.0001H40.3001L39.8001 94.0001L39.3001 98.0001Z" fill="black"/>
<path d="M43.8999 100H44.7999V94.3H43.8999V93.1001H47.0999V94.3H46.2999V100H47.0999V101.1H43.8999V100Z" fill="black"/>
<path d="M49.2002 93.1001H50.7002V99.8H52.4002V101.1H49.2002V93.1001Z" fill="black"/>
<path d="M57.6001 93.1001H60.9001L61.9001 94.1001V96.2001L61.1001 97.0001L61.9001 97.8V100.1L60.9001 101.1H57.6001V93.1001ZM59.9001 96.5001L60.3001 96.1001V94.7001L60.0001 94.4001H59.1001V96.5001H59.9001ZM60.0001 99.9001L60.3001 99.6001V98.0001L59.9001 97.6001H59.0001V99.9001H60.0001Z" fill="black"/>
<path d="M64 93.1001H65.5V99.8H67.3V101.1H64V93.1001Z" fill="black"/>
<path d="M70.0999 93.1001H72.2999L73.4999 101.1H71.9999L71.7999 99.3H70.4999L70.2999 101.1H68.8999L70.0999 93.1001ZM70.6999 98.0001H71.6999L71.1999 94.0001L70.6999 98.0001Z" fill="black"/>
<path d="M75.2002 100L77.2002 94.5001H75.2002V93.1001H78.9002V94.2001L76.8002 99.8H78.9002V101.1H75.2002V100Z" fill="black"/>
<path d="M80.8999 93.1001H84.4999V94.4001H82.4999V96.4001H84.2999V97.7001H82.4999V99.8H84.4999V101.1H80.8999V93.1001Z" fill="black"/>
<path d="M86.7002 93.1001H90.0002L91.0002 94.1001V96.9001L90.2002 97.7001L91.1002 101.1H89.6002L88.8002 97.8H88.2002V101.1H86.7002V93.1001ZM89.2002 96.7001L89.5002 96.3V94.6001L89.2002 94.2001H88.2002V96.7001H89.2002Z" fill="black"/>
<path d="M93 100.2V98.7001H94.4V99.6001L94.8 99.9001H95.3L95.6 99.6001V98.0001L95.4 97.8H93.8L93 96.9001V94.1001L93.9 93.1001H96.1L97.1 94.1001V95.5001H95.6V94.7001L95.3 94.4001H94.8L94.5 94.7001V96.2001L94.7 96.4001H96.3L97.1 97.3V100.2L96.1 101.1H93.9L93 100.2Z" fill="black"/>
<path d="M16.2 62.4C16.2 57.8 13.7 56.2 8.79999 56.2H0L3.79999 59.9999V87.9H8.5V73.9999H8.79999C13.6 73.9999 16.1 72.5 16.2 68.1V62.4ZM8.59998 60.1H9.70001C10.8 60.1 11.5 60.5 11.5 61.7V68.6C11.5 69.8 11.2 70.2999 9.5 70.2999H8.70001L8.59998 60.1Z" fill="black"/>
<path d="M23.0002 62.0001C23.0002 60.4001 23.5002 60.0001 24.5002 60.0001C25.4002 60.0001 25.9002 60.4001 25.9002 62.0001V82.2001C25.9002 83.8001 25.4002 84.2001 24.5002 84.2001C23.5002 84.2001 23.0002 83.9001 23.0002 82.2001V62.0001ZM24.4002 88.0001C27.3002 88.0001 30.6002 86.8001 30.6002 82.7001V61.6001C30.6002 57.4001 27.3002 56.3 24.4002 56.3C21.5002 56.3 18.2002 57.5001 18.2002 61.6001V82.7001C18.2002 86.8001 21.5002 88.0001 24.4002 88.0001Z" fill="black"/>
<path d="M80.9 61.9001H81.2L82.1 74.1001H79.8L80.9 61.9001ZM79.4 77.9001H82.5L83.5 88.0001H88.3L84.7 56.3H77.6L74 88.0001H78.3L79.4 77.9001Z" fill="black"/>
<path d="M113.9 81.9001C113.9 84.0001 113.3 84.3 112.1 84.3H111V60.2001H112.1C113.3 60.2001 113.9 60.5001 113.9 62.6001V81.9001ZM118.6 82.3V63.5001C118.6 57.9001 116.6 56.3 111.9 56.3H106.2V88.0001H112.9C116.7 88.0001 118.6 85.3 118.6 82.3Z" fill="black"/>
<path d="M37.3001 60.1001H38.4001C39.5001 60.1001 40.2001 60.5001 40.2001 61.7001V68.3C40.2001 69.5 39.8001 70.4001 38.2001 70.4001H37.3001V60.1001ZM37.4001 74.1001C39.6001 74.0001 40.3001 74.8001 40.3001 76.7001V88.1001H44.9001C44.9001 88.1001 45.0001 84.7001 44.9001 75.5001C44.9001 72.6001 43.1001 72.2001 43.1001 72.2001C45.2001 71.3001 44.9001 70.3001 44.9001 67.9001V61.7001C44.9001 57.6001 42.7001 56.3 38.9001 56.3H32.6001V88.0001H37.4001V74.1001Z" fill="black"/>
<path d="M72.0002 84.2001H65.9002V56.3H61.2002V88.0001H72.0002V84.2001Z" fill="black"/>
<path d="M50.4001 60.1001V88.0001H55.1001V60.1001H59.2001V56.3H43.6001L47.5001 60.1001H50.4001Z" fill="black"/>
<path d="M94.5998 70.4001L99.9998 88.0001H104.3V56.3H99.9998V74.1001L94.5998 56.3H90.2998V88.0001H94.5998V70.4001Z" fill="black"/>
</svg>
