<svg width="92" height="105" viewBox="0 0 92 105" fill="none" xmlns="http://www.w3.org/2000/svg">
<mask id="mask0_79_541" style="mask-type:luminance" maskUnits="userSpaceOnUse" x="0" y="0" width="92" height="105">
<path d="M91.9 0H0V104.9H91.9V0Z" fill="white"/>
</mask>
<g mask="url(#mask0_79_541)">
<path d="M91.8999 0L78.6999 13.2L67.6999 2.20001L56.6999 13.2L45.6999 2.20001L34.6999 13.2L23.6999 2.20001L12.6999 13.2L-0.100098 0.200012V58.7C-0.100098 84.1 20.2999 104.8 45.6999 104.8C71.1999 104.8 91.7999 84.1 91.7999 58.7V0H91.8999Z" fill="white"/>
</g>
<mask id="mask1_79_541" style="mask-type:luminance" maskUnits="userSpaceOnUse" x="0" y="0" width="92" height="105">
<path d="M91.9 0H0V104.9H91.9V0Z" fill="white"/>
</mask>
<g mask="url(#mask1_79_541)">
<path d="M4.1001 66.8C5.2001 72.3 7.4001 77.5 10.5001 82.2C12.4001 78.8 16.2001 74.7 23.7001 72.9C23.1001 71 22.6001 68.9 22.2001 66.8H4.1001Z" fill="#5C6670"/>
</g>
<mask id="mask2_79_541" style="mask-type:luminance" maskUnits="userSpaceOnUse" x="0" y="0" width="92" height="105">
<path d="M91.9 0H0V104.9H91.9V0Z" fill="white"/>
</mask>
<g mask="url(#mask2_79_541)">
<path d="M13.5 86.1001C21.5 95.6001 33.2 101.1 45.6 101.2C44.4 100.6 43.3 100 42.2 99.2001C37 95.8001 29.8 89.3001 25.2 77.1001C17.9 78.7001 14.8 82.9001 13.5 86.1001Z" fill="#5C6670"/>
</g>
<mask id="mask3_79_541" style="mask-type:luminance" maskUnits="userSpaceOnUse" x="0" y="0" width="92" height="105">
<path d="M91.9 0H0V104.9H91.9V0Z" fill="white"/>
</mask>
<g mask="url(#mask3_79_541)">
<path d="M29.7002 76.5C33.0002 84.8 38.0002 91.1 44.5002 95.4C47.9002 97.6 51.7002 99.2 55.7002 100.1C62.5002 98.5 68.9002 95.2 74.2002 90.6C70.0002 90.1 65.8002 87.7 61.3002 85.2C54.3002 81.3 45.5002 76.3 33.7002 76.3C32.3002 76.3 31.0002 76.4 29.7002 76.5Z" fill="#5C6670"/>
</g>
<mask id="mask4_79_541" style="mask-type:luminance" maskUnits="userSpaceOnUse" x="0" y="0" width="92" height="105">
<path d="M91.9 0H0V104.9H91.9V0Z" fill="white"/>
</mask>
<g mask="url(#mask4_79_541)">
<path d="M47.4998 45.2H32.2998V63.3H38.5998V48.8H43.2998V63.3H49.2998V47.7C49.3998 46.4 48.4998 45.2 47.4998 45.2Z" fill="#5B2B82"/>
</g>
<mask id="mask5_79_541" style="mask-type:luminance" maskUnits="userSpaceOnUse" x="0" y="0" width="92" height="105">
<path d="M91.9 0H0V104.9H91.9V0Z" fill="white"/>
</mask>
<g mask="url(#mask5_79_541)">
<path d="M52 45.2V60.7C52 62.1 52.8 63.3 53.9 63.3H69.1V52.3H63V59.7H58.3V48.7H69.1V45.2H52Z" fill="#5B2B82"/>
</g>
<mask id="mask6_79_541" style="mask-type:luminance" maskUnits="userSpaceOnUse" x="0" y="0" width="92" height="105">
<path d="M91.9 0H0V104.9H91.9V0Z" fill="white"/>
</mask>
<g mask="url(#mask6_79_541)">
<path d="M15.4998 45.2L11.9998 52.6H9.99981V45.2H3.7998V63.3H9.99981V56.1H11.9998L15.4998 63.3H21.6998L17.2998 54.3L21.6998 45.2H15.4998Z" fill="#5B2B82"/>
</g>
<mask id="mask7_79_541" style="mask-type:luminance" maskUnits="userSpaceOnUse" x="0" y="0" width="92" height="105">
<path d="M91.9 0H0V104.9H91.9V0Z" fill="white"/>
</mask>
<g mask="url(#mask7_79_541)">
<path d="M29.8999 45.2H23.3999V63.3H29.8999V45.2Z" fill="#5B2B82"/>
</g>
<mask id="mask8_79_541" style="mask-type:luminance" maskUnits="userSpaceOnUse" x="0" y="0" width="92" height="105">
<path d="M91.9 0H0V104.9H91.9V0Z" fill="white"/>
</mask>
<g mask="url(#mask8_79_541)">
<path d="M88.2 50.1V45.2H71.5V53.4999C71.5 54.8999 72.3 55.9999 73.4 55.9999H81.9V59.9H71.5V63.3H88.2V54.9999C88.2 53.6999 87.5 52.4999 86.5 52.4999H77.7V48.7H82.1V50.1H88.2Z" fill="#5B2B82"/>
</g>
<mask id="mask9_79_541" style="mask-type:luminance" maskUnits="userSpaceOnUse" x="0" y="0" width="92" height="105">
<path d="M91.9 0H0V104.9H91.9V0Z" fill="white"/>
</mask>
<g mask="url(#mask9_79_541)">
<path d="M70.4998 26.9001H65.0998L76.0998 15.9001L67.7998 7.6001L56.6998 18.5001L45.7998 7.6001L26.4998 26.9001H21.0998L32.0998 15.9001L23.7998 7.6001L12.7998 18.5001L3.7998 9.50006V27.5001V41.9001H88.1998V28.0001V9.1001L70.4998 26.9001Z" fill="#5B2B82"/>
</g>
<mask id="mask10_79_541" style="mask-type:luminance" maskUnits="userSpaceOnUse" x="0" y="0" width="92" height="105">
<path d="M91.9 0H0V104.9H91.9V0Z" fill="white"/>
</mask>
<g mask="url(#mask10_79_541)">
<path d="M22.2002 38.4001C22.2002 38.9001 22.6002 39.3001 23.0002 39.3001H27.7002V38.0001H23.8002V33.9001H27.7002V32.6001H22.2002V38.4001Z" fill="white"/>
</g>
<mask id="mask11_79_541" style="mask-type:luminance" maskUnits="userSpaceOnUse" x="0" y="0" width="92" height="105">
<path d="M91.9 0H0V104.9H91.9V0Z" fill="white"/>
</mask>
<g mask="url(#mask11_79_541)">
<path d="M14.5 32.6001V39.3001H16.2V37.6001H18.3V39.3001H20V33.5001C20 33.0001 19.6 32.6001 19.1 32.6001C19.1 32.6001 19.1 32.6001 19 32.6001H14.5ZM18.3 36.3001H16.2V33.9001H18.3V36.3001Z" fill="white"/>
</g>
<mask id="mask12_79_541" style="mask-type:luminance" maskUnits="userSpaceOnUse" x="0" y="0" width="92" height="105">
<path d="M91.9 0H0V104.9H91.9V0Z" fill="white"/>
</mask>
<g mask="url(#mask12_79_541)">
<path d="M84.2 32.6001H80.3C79.8 32.6001 79.5 33.0001 79.5 33.4001V38.4001C79.5 38.9001 79.9 39.2001 80.3 39.3001H84.2C84.7 39.3001 85 38.9001 85 38.4001V33.4001C85.1 33.0001 84.7 32.6001 84.2 32.6001ZM83.3 38.0001H81.2V33.9001H83.3V38.0001Z" fill="white"/>
</g>
<mask id="mask13_79_541" style="mask-type:luminance" maskUnits="userSpaceOnUse" x="0" y="0" width="92" height="105">
<path d="M91.9 0H0V104.9H91.9V0Z" fill="white"/>
</mask>
<g mask="url(#mask13_79_541)">
<path d="M6.7002 35.7C6.7002 36.2 7.1002 36.5 7.6002 36.6H10.6002V37.9999H6.7002V39.3H12.3002V36.2C12.3002 35.8 12.0002 35.4 11.5002 35.4H8.40019V33.9999H12.3002V32.7H6.7002V35.7Z" fill="white"/>
</g>
<mask id="mask14_79_541" style="mask-type:luminance" maskUnits="userSpaceOnUse" x="0" y="0" width="92" height="105">
<path d="M91.9 0H0V104.9H91.9V0Z" fill="white"/>
</mask>
<g mask="url(#mask14_79_541)">
<path d="M42.3001 32.6001H37.6001V39.3001H39.3001V37.6001H41.4001V39.3001H43.1001V33.5001C43.1001 33.0001 42.8001 32.6001 42.3001 32.6001ZM41.4001 36.3001H39.3001V33.9001H41.4001V36.3001Z" fill="white"/>
</g>
<mask id="mask15_79_541" style="mask-type:luminance" maskUnits="userSpaceOnUse" x="0" y="0" width="92" height="105">
<path d="M91.9 0H0V104.9H91.9V0Z" fill="white"/>
</mask>
<g mask="url(#mask15_79_541)">
<path d="M71.8999 33.9001H73.8999V39.3001H75.5999V33.9001H77.4999V32.6001H71.8999V33.9001Z" fill="white"/>
</g>
<mask id="mask16_79_541" style="mask-type:luminance" maskUnits="userSpaceOnUse" x="0" y="0" width="92" height="105">
<path d="M91.9 0H0V104.9H91.9V0Z" fill="white"/>
</mask>
<g mask="url(#mask16_79_541)">
<path d="M53.9999 32.6001H45.3999V39.3001H47.0999V33.9001H49.1999V39.3001H50.9999V33.9001H53.0999V39.3001H54.7999V33.5001C54.8999 33.0001 54.4999 32.6001 53.9999 32.6001Z" fill="white"/>
</g>
<mask id="mask17_79_541" style="mask-type:luminance" maskUnits="userSpaceOnUse" x="0" y="0" width="92" height="105">
<path d="M91.9 0H0V104.9H91.9V0Z" fill="white"/>
</mask>
<g mask="url(#mask17_79_541)">
<path d="M69.3001 32.6001H64.6001V39.3001H66.3001V33.9001H68.4001V39.3001H70.1001V33.5001C70.2001 33.0001 69.8001 32.6001 69.3001 32.6001Z" fill="white"/>
</g>
<mask id="mask18_79_541" style="mask-type:luminance" maskUnits="userSpaceOnUse" x="0" y="0" width="92" height="105">
<path d="M91.9 0H0V104.9H91.9V0Z" fill="white"/>
</mask>
<g mask="url(#mask18_79_541)">
<path d="M57.2002 38.4001C57.2002 38.9001 57.6002 39.3001 58.1002 39.3001H62.8002V38.0001H58.9002V36.6001H62.8002V35.3001H58.9002V33.9001H62.8002V32.6001H57.2002V38.4001Z" fill="white"/>
</g>
<mask id="mask19_79_541" style="mask-type:luminance" maskUnits="userSpaceOnUse" x="0" y="0" width="92" height="105">
<path d="M91.9 0H0V104.9H91.9V0Z" fill="white"/>
</mask>
<g mask="url(#mask19_79_541)">
<path d="M34.4999 36.9001H35.3999V33.5001C35.3999 33.0001 34.9999 32.6001 34.4999 32.6001H29.8999V39.3001H31.5999V36.9001H32.8999L33.8999 39.3001H35.5999L34.4999 36.9001ZM33.6999 35.6001H31.5999V33.9001H33.6999V35.6001Z" fill="white"/>
</g>
<mask id="mask20_79_541" style="mask-type:luminance" maskUnits="userSpaceOnUse" x="0" y="0" width="92" height="105">
<path d="M91.9 0H0V104.9H91.9V0Z" fill="white"/>
</mask>
<g mask="url(#mask20_79_541)">
<path d="M32.6999 71.9C41.6999 71.7 50.5999 74 61.9999 80.4C70.3999 85.2 74.0999 86.5999 76.5999 85.9999C78.8999 85.3999 81.0999 84.0999 84.8999 75.9999C86.2999 72.9999 87.2999 69.9 87.8999 66.7H26.8999C27.2999 68.5 27.6999 70.4 28.2999 72.1C29.5999 72 31.1999 71.9 32.6999 71.9Z" fill="#5C6670"/>
</g>
</svg>
