<?xml version="1.0" encoding="UTF-8"?>
<svg id="Calque_1" xmlns="http://www.w3.org/2000/svg" version="1.1" viewBox="0 0 138 63">
  <!-- Generator: Adobe Illustrator 30.2.1, SVG Export Plug-In . SVG Version: 2.1.1 Build 1)  -->
  <defs>
    <style>
      .st0 {
        fill: #c4ced4;
      }

      .st1 {
        fill: #fff;
      }
    </style>
  </defs>
  <path class="st1" d="M52.4,39.9h3l-.9,2.3-2.1-2.3ZM48.8,50.1l-4.8,7.1,7.9-2.6,3.2,7.7,2.4-8.2,8.9,2.3-5.7-6.6,6.9-5.7-6.1.4,4.1-4.6h7.9l9.1-16.1v-10.6h-6.4l-3.1,5.5-.6,4.1-4.6,8.2h-4.2l4.2-7.3v-10.4h-6.7l-3,5.4-.5,4.2-7.3,13,1.1,2.9-1.4-1.5.6,7.8-8.4.4,6.5,4.6Z"/>
  <path class="st1" d="M14.5,31c-2.6.7-5.3,1.4-7.8,2.1-.3.1-.6.2-.8.3v-6.5c.4-.1.8-.2,1.2-.3,2.1-.6,4.3-1.2,6.4-1.8.4-.1.8-.2,1.1-.3v3.6c2-.5,4-1,6-1.4v-4.4c-.7-1-1.4-2.1-2.1-3.2-.5.1-1,.3-1.5.4h-.1c-4.3,1-8.5,2.2-12.7,3.5-.2,0-.3.1-.5.1-.5.1-1.1.3-1.6.5-.7,1.5-1.4,3-2.1,4.4v8.8c1.1.7,2.1,1.5,3.2,2.2.9-.3,1.7-.6,2.6-.8,2.7-.8,5.4-1.5,8-2.2.3-.1.6-.1.9-.2v6.8c-.4.1-.8.2-1.1.3-2.2.6-4.4,1.1-6.6,1.8-.4.1-.8.2-1.1.3v-3.6c-2,.6-3.9,1.2-5.9,1.8v4.4c.7,1,1.4,2,2.1,3,.5-.1,1-.3,1.5-.5.2-.1.3-.1.5-.1,4.3-1.3,8.6-2.5,12.9-3.5.6-.1,1.1-.3,1.6-.4.7-1.4,1.4-2.8,2.1-4.2v-9.1c-1.1-.8-2.1-1.7-3.2-2.5-1.1.2-2,.5-3,.7Z"/>
  <path class="st1" d="M137.9,38.5c-1.1-1.4-2.1-2.8-3.2-4.2-.9-.3-1.9-.6-2.8-.9-2.6-.8-5.2-1.5-7.8-2.1-.3-.1-.6-.1-.8-.2v-6.6c.4.1.8.2,1.1.3,2.1.6,4.3,1.1,6.4,1.8.4.1.8.2,1.1.3v3.5c2,.6,3.9,1.2,5.9,1.8v-4.4c-.7-1.4-1.4-2.9-2-4.3-.5-.1-1-.3-1.5-.5h-.1c-4.2-1.3-8.4-2.5-12.7-3.5-.2-.1-.3-.1-.5-.1-.6-.1-1.1-.3-1.6-.4-.7,1.1-1.5,2.2-2.2,3.3v8.8c1.1,1.3,2.1,2.6,3.2,3.9.9.2,1.8.4,2.6.6,2.7.7,5.4,1.4,8.1,2.2.3.1.6.2.8.2v6.8c-.4-.1-.8-.2-1.1-.3-2.2-.6-4.4-1.2-6.6-1.8-.4-.1-.8-.2-1.1-.3v-3.6c-2-.5-4-1-6-1.4v4.4c.7,1.4,1.4,2.8,2.1,4.2.5.1,1.1.2,1.5.4.2,0,.3.1.5.1,4.4,1.1,8.7,2.2,13,3.5.6.1,1.1.3,1.5.5.7-1,2.1-3.1,2.1-3.1.1.1.1-5.9.1-8.9Z"/>
  <path class="st1" d="M41.8,20.6v7.6c-.5.1-.9.1-1.4.2-2.6.4-5.2.7-7.8,1.1v-9c2.6-.4,5.2-.8,7.8-1.1.5-.1.9-.1,1.4-.2v1.4ZM44,14.7c-.2,0-.3,0-.5.1-5.6.6-11.3,1.5-16.8,2.6v27c2-.4,4-.8,6.1-1.1v-9.4c3.6-.6,7.2-1.1,10.8-1.5.2,0,.3,0,.5-.1.5-.1,1.1-.1,1.6-.2.8-1.4,1.5-2.8,2.3-4.2v-9.7c-.8-1.2-1.5-2.5-2.3-3.7-.7,0-1.2.1-1.7.2Z"/>
  <path class="st1" d="M103.6,28.2c-2.6-.4-5.3-.8-7.9-1.1v-8c2.7.3,5.3.7,8,1.1.4.1.9.1,1.3.2v8c-.4-.1-.9-.1-1.4-.2ZM109,31.2c.7-.3,1.4-.5,2.2-.8v-9.3c-1.3-1.5-2.5-3-3.8-4.5-5.8-1-11.7-1.8-17.6-2.3v27c2,.2,4.1.4,6.1.6v-10.6c1.5.2,3.1.4,4.7.6.5.1,1.1.1,1.5.2,1.1.1,2.1.4,3.1.5v10.6c.1,0,.2.1.3.1,1.9.3,3.8.6,5.7,1v-11.5c-.8-.5-1.5-1-2.2-1.6Z"/>
  <path class="st1" d="M25.4,7.6c-.9.1-1.7.3-2.5.5-.1,0-.2,0-.3.1v-2.2c.1,0,.3,0,.4-.1.7-.1,1.4-.3,2.1-.4.1,0,.3,0,.4-.1v1.1c.6-.1,1.3-.2,2-.4v-1.4c-.2-.4-.4-.7-.7-1.1-.2,0-.3.1-.5.1-1.4.3-2.8.5-4.2.8h-.1c-.2,0-.4.1-.5.1-.2.5-.5.9-.7,1.4v2.9c.4.3.7.5,1.1.8l.9-.2c.9-.2,1.8-.3,2.6-.5h.3v2.2c-.1,0-.2,0-.4.1-.7.1-1.5.3-2.2.4-.1,0-.2,0-.4.1v-1.1c-.6.1-1.3.2-1.9.4v1.4c.2.4.4.7.7,1,.2,0,.3-.1.5-.1h.2c1.4-.3,2.8-.6,4.2-.8.2,0,.4-.1.5-.1.2-.4.5-.9.7-1.3v-3c-.4-.3-.7-.6-1.1-.8-.5.1-.8.1-1.1.2Z"/>
  <path class="st1" d="M32.4,8.1c.4-1.4.7-2.9,1.1-4.4.4,1.3.7,2.7,1.1,4.1-.8.1-1.5.2-2.2.3ZM32.1,2.9c-.8,3-1.6,6.1-2.4,9.1.6-.1,1.2-.2,1.9-.3.2-.7.3-1.4.5-2,.9-.1,1.9-.3,2.9-.4.2.6.3,1.3.5,1.9.6-.1,1.3-.2,2-.3-.8-2.8-1.6-5.6-2.4-8.4-1.1.1-2,.2-3,.4Z"/>
  <path class="st1" d="M44.8,7c-1-1.8-2-3.7-3.1-5.5-.7.1-1.4.1-2.1.2v8.8c.6-.1,1.2-.1,1.8-.2v-5.9c1,1.8,2,3.7,3,5.6.7-.1,1.4-.1,2.1-.2V1c-.6.1-1.2.1-1.8.2v5.8h.1Z"/>
  <path class="st1" d="M55.6,5.7c.4-1.4.7-2.9,1.1-4.3.4,1.4.7,2.8,1.1,4.2-.8,0-1.5,0-2.2.1ZM55.3.4c-.8,3-1.6,6-2.4,8.9.6,0,1.2-.1,1.9-.1.2-.6.3-1.3.5-2,1-.1,1.9-.1,2.9-.1.2.7.4,1.3.5,2,.7,0,1.3-.1,2-.1-.8-2.9-1.6-5.8-2.4-8.7-1.1,0-2.1,0-3,.1Z"/>
  <path class="st1" d="M68.6,5.8c-1-2-2.1-3.9-3.1-5.8h-2v8.8h1.7V2.9c1,2,2,3.9,3,5.8h2.1V0h-1.7v5.8Z"/>
  <path class="st1" d="M73.2,1.6c.8,0,1.6.1,2.4.1v7.2c.6.1,1.3.1,2,.1V1.8c.8.1,1.6.1,2.4.1V.4c-2.3-.1-4.5-.2-6.8-.2v1.4Z"/>
  <path class="st1" d="M97.9,7.6c-1-2.1-2-4.1-3.1-6.2-.7-.1-1.4-.1-2.1-.2v8.8c.6.1,1.2.1,1.8.2v-5.9c1,2.1,2,4.1,3,6.2.7.1,1.4.2,2,.3V2c-.6-.1-1.1-.1-1.7-.2l.1,5.8Z"/>
  <path class="st1" d="M102.4,3.7c.5.1,1,.1,1.5.2v6.1c-.5-.1-1-.1-1.5-.2v1.3c1.6.2,3.3.5,4.9.8v-1.3c-.5-.1-1-.1-1.5-.2v-6.1c.5.1,1,.1,1.5.2v-1.4c-1.6-.2-3.3-.5-4.9-.8v1.4Z"/>
  <path class="st1" d="M87.9,2.8v5.3h-.5c-.7-.1-1.4-.1-2.1-.1h-.5V2.2h.5c.7.1,1.4.1,2.1.1h.5v.5ZM89.1.9h-.5c-1.4-.1-2.8-.2-4.2-.3h-.8c-.3.4-.5.8-.8,1.2v6.2c.3.4.5.9.8,1.3.2,0,.4.1.6.1h.2c1.4.1,2.8.2,4.2.3h.5c.3-.4.5-.8.8-1.2V2.3c-.3-.5-.5-1-.8-1.4Z"/>
  <path class="st1" d="M115.2,6.5v5.3c-.2,0-.3-.1-.5-.1-.7-.1-1.4-.2-2-.4-.2-.1-.3-.1-.5-.1v-5.8c.2.1.3.1.5.1.7.1,1.4.3,2,.4.2,0,.4.1.5.1v.5ZM117.1,6.2c-.2-.5-.5-1-.7-1.5-.2,0-.4-.1-.6-.1-1.4-.3-2.7-.6-4.2-.8h-.2c-.2,0-.4-.1-.5-.1-.3.4-.5.8-.7,1.2v6.2c.3.5.5.9.7,1.4.2,0,.4.1.5.1h.2c1.4.3,2.8.5,4.2.8.2.1.4.1.6.1.2-.4.5-.8.7-1.2v-6.1Z"/>
  <path d="M58.4,23.2l-7.1,12.7,1.2,2.9h4.4l-2,5.1-3.8-4.1.4,6.1-6.5.2,5.2,3.7-3.7,5.5,6-1.9,2.4,5.9,1.9-6.5,6.7,1.7-4.3-4.9,5.3-4.4-5.5.3,5.9-6.7h7.8l8.7-15.3v-9.3h-4.9l-2.8,5-.5,4-5,8.9h-6.5l4.9-8.6v-9.3h-5.1l-2.7,5-.4,4Z"/>
  <path class="st0" d="M79.5,15.6h-2.2l-1.8,3.1h2.4l1.6-3.1Z"/>
  <path class="st0" d="M64.8,15.6h-2.4l-1.8,3.1h2.6l1.6-3.1Z"/>
  <path class="st0" d="M60.2,35.2l-5.1,11.6-2.3-2.5.3,3.1-3.5.2,2.8,1.9-1.9,2.9,3.1-1.1,1.2,3.1,1-3.3,3.5.9-2.3-2.6,2.8-2.3-3.9.2h-.2l8-12.1h6.9l6.2-11h-2.4l-5.2,9.1h-12.4l5.2-9.1h-2.5l-6.2,11h6.9Z"/>
  <path class="st0" d="M62.6,19.9h-2.3l-.3,2.7h2.3l.3-2.7Z"/>
  <path class="st0" d="M77.4,19.9h-2.2l-.3,2.7h2.2l.3-2.7Z"/>
  <path d="M54,50.2c.6,0,1-.4,1-1s-.4-1-1-1-1,.5-1,1.1c0,.5.5.9,1,.9Z"/>
</svg>