<svg width="112" height="103" viewBox="0 0 112 103" fill="none" xmlns="http://www.w3.org/2000/svg">
<path d="M18.1 42.9L21.2 41.4L7.9 14L11 12.4L9.5 9.29999L0 13.9L1.5 17L4.6 15.4L18.1 42.9ZM25 39.5L28.4 38.4L23.7 23.9L27.1 22.8L31.8 37.3L35.2 36.2L24.7 3.89996L21.3 5L26 19.5L22.6 20.6L17.9 6.09998L14.5 7.20001L25 39.5ZM42.7 0.599976L39.2 1.09998L44 31.1L40.5 31.6L35.7 1.59998L32.2 2.09998L36.8 30.6C37.2 33.5 39.9 35.4 42.8 35C45.7 34.6 47.6 31.9 47.2 29L42.7 0.599976ZM50.1 33.8L53.6 33.9L53.8 24.1C53.9 21.1 53.7 15.1 53.5 12.2H53.6C54.5 19.8 56.2 26.8 57.3 34L60.7 34.1L61.3 0.200012L57.8 0.0999756L57.6 10C57.5 13 57.7 19 57.9 21.9H57.8C56.9 14.3 55.2 7.29998 54.1 0.0999756L50.7 0L50.1 33.8ZM63.3 34L70.2 35.1C72.1 35.4 73.9 34.2 74.2 32.3C74.2 32.3 74.2 32.3 74.2 32.2L78.4 5.70001C78.7 3.80001 77.4 1.99998 75.5 1.59998L68.5 0.5L63.3 34ZM71.5 4.59998L75 5.09998L70.8 31.6L67.3 31.1L71.5 4.59998ZM96.2 7.29999L89.5 5.09998C87.7 4.49998 85.7 5.40001 85.1 7.20001C85.1 7.30001 85.1 7.29996 85 7.39996L76.7 32.9C76.1 34.7 77 36.7 78.8 37.3C78.9 37.3 78.9 37.3 79 37.4L85.7 39.6L86.8 36.2L80.1 34L83.7 22.9L88.7 24.5L89.8 21.2L84.8 19.6L88.4 8.5L95.1 10.7L96.2 7.29999ZM87.3 40.3L102.2 9.70001L108.5 12.8C110.2 13.6 111 15.7 110.2 17.4V17.5L104.7 28.8C104 30.3 102.7 30.9 101.4 30.2L97.6 45.3L94.5 43.8L98.2 28.6L97.2 28.1L90.5 41.8L87.3 40.3ZM103.8 14.5L98.7 25L101.9 26.6L107 16L103.8 14.5Z" fill="#002D62"/>
<path d="M6.2002 102.5C13.0002 96.5001 20.4002 91.0001 28.1002 86.2001C29.6002 85.4001 31.1002 84.7 32.7002 83.9C33.3002 83.6 34.5002 83 36.1002 82.3C37.2002 83.5 38.2002 84.6001 39.4002 85.7001C27.7002 91.0001 16.7002 96.7001 6.2002 102.5ZM88.5002 61.3C96.0002 59.6 103.6 58.5 111.3 57.8C103.1 60.3 94.8002 63.1 86.4002 66.1C87.2002 64.6 87.8002 63 88.5002 61.3Z" fill="#007AC1"/>
<path d="M0.600098 79.6C8.6001 74.6 16.9001 70.3 25.6001 66.7C25.9001 67.3 26.2001 67.9 26.5001 68.5C26.0001 69.5 25.5001 70.5 25.0001 71.5C16.6001 74.1 8.4001 76.8 0.600098 79.6ZM91.7001 51.7C98.2001 51.4 104.7 51.5 111.3 52C104.5 53 97.6001 54.1 90.7001 55.4C91.0001 54.2 91.4001 53 91.7001 51.7Z" fill="#F05133"/>
<path d="M55.9002 41C68.6002 41 78.6002 44 89.9002 49.6C84.4002 70.3 74.2002 84.4 55.9002 95.7C49.0002 91.4 43.1002 86.7 38.2002 81.2C40.4002 80.2 42.8002 79 45.0002 78C45.9002 78.1 46.7002 78.1 47.5002 78.1C47.5002 79.1 47.1002 80.1 46.4002 80.8C46.8002 81.2 47.1002 81.6 47.5002 82C48.5002 81.1 49.1002 79.9 49.1002 78.1C51.3002 78.1 53.4002 77.9 55.5002 77.4C55.4002 80.7 55.0002 83.1 54.0002 84.1C54.0002 84.1 53.9002 84.1 53.9002 84.2C53.7002 84.4 53.5002 84.6 53.2002 84.8C54.1002 84.6 55.0002 84.4 55.9002 84.2C57.0002 81.9 57.0002 77.8 57.0002 77.1C59.1002 76.6 61.0002 76 62.6002 75.5C62.7002 77.4 63.5002 79.2 64.9002 79.9C65.6002 79.4 66.1002 78.9 66.8002 78.4C66.4002 78.5 64.1002 78.6 64.2002 74.9C69.1002 73 72.3002 70.8 75.1002 67.5C75.8002 65.8 76.4002 64 76.8002 62.2C73.4002 67.5 70.4002 70.6 64.3002 73C64.5002 71.7 64.8002 70.4 65.3002 69.2C67.1002 68.4 68.9002 67.6 70.0002 67.1L72.7002 64.3C73.4002 61.8 74.0002 59.2 74.7002 56.6L72.9002 57.3L75.3002 54.8C75.8002 52.8 76.3002 50.8 76.8002 48.8C75.6002 49 74.4002 49.2 73.2002 49.3C73.4002 48.3 73.5002 47.3 73.6002 46.3C73.0002 46.2 72.4002 46 71.8002 45.9C71.7002 47.1 71.4002 48.4 71.1002 49.6L70.9002 49.7C69.7002 49.9 68.6002 50.4 67.6002 51.1L67.9002 50.1C65.9002 50.4 64.0002 50.8 62.0002 51.2L60.0002 53.3L60.1002 53.1L60.8002 51.5C58.9002 51.9 57.0002 52.3 55.0002 52.7C54.6002 50.1 54.2002 47.8 53.9002 45.9L52.3002 46.1C52.6002 48.1 53.1002 50.4 53.5002 53.1L52.1002 53.4L50.4002 55.2C49.2002 53.9 46.7002 54.7 45.1002 55.1C43.4002 55.5 41.7002 56 40.1002 56.5C39.6002 56.6 39.1002 56.8 38.6002 56.9C37.3002 55.1 36.1002 53.2 35.1002 51.2L34.9002 50.8C34.4002 51 33.9002 51.2 33.4002 51.5L33.6002 51.9C34.6002 53.9 35.7002 55.7 36.9002 57.5C35.0002 58.3 33.3002 59.5 32.0002 61C32.0002 61 29.6002 63.4 29.3002 63.8C28.7002 64.5 28.2002 65.2 27.7002 66C25.1002 60.8 23.1002 55.3 21.7002 49.6C33.2002 43.9 43.2002 41 55.9002 41ZM57.2002 72.4C58.4002 71.9 59.5002 71.4 60.7002 70.9L61.2002 70.3C61.5002 70.3 61.7002 70.4 62.0002 70.4C62.6002 70.3 63.1002 70.2 63.6002 70C63.2002 71.2 63.0002 72.5 62.8002 73.7C61.2002 74.3 59.3002 74.9 57.2002 75.4C57.2002 74.4 57.2002 73.5 57.2002 72.4ZM49.0002 76.1L50.1002 75.6L52.9002 73.3L53.6002 71.6C54.0002 72.4 54.2002 72.7 54.6002 73.6L55.5002 73.2V75.8C53.4002 76.3 51.2002 76.6 49.0002 76.6V76.1Z" fill="white"/>
<path d="M62.8002 45.2C65.5002 45.2 68.1002 45.2999 70.8002 45.5999C72.8002 45.9999 74.8002 46.4999 76.7002 47.0999C77.5002 49.7999 77.9002 52.4999 77.8002 55.2999C77.8002 57.5999 77.5002 59.8999 77.0002 62.0999C73.6002 67.3999 70.6002 70.3999 64.5002 72.8999C64.7002 71.5999 65.0002 70.2999 65.5002 69.0999C67.3002 68.2999 69.1002 67.4999 70.2002 66.9999L72.9002 64.2C73.6002 61.6 74.2002 59.0999 74.9002 56.4999L72.8002 57.2L75.2002 54.7C75.7002 52.7 76.2002 50.7 76.7002 48.7C75.5002 48.9 74.3002 49.1 73.1002 49.2C73.3002 48.2 73.4002 47.2 73.5002 46.2C72.9002 46 72.3002 45.8999 71.7002 45.7999C71.6002 47.0999 71.3002 48.2999 71.0002 49.4999L70.8002 49.5999C69.6002 49.6999 68.4002 50.1999 67.4002 50.9999L67.8002 49.9999C65.8002 50.2999 63.9002 50.6999 61.9002 51.0999L60.0002 53.0999L60.1002 52.8999L60.8002 51.2999C58.8002 51.6999 57.0002 52.0999 55.0002 52.4999C54.6002 49.7999 54.2002 47.4999 53.9002 45.5999C56.9002 45.3999 59.8002 45.2 62.8002 45.2ZM75.3002 67.4999C73.4002 71.6999 70.6002 75.3999 67.1002 78.3999C66.7002 78.4999 64.4002 78.5999 64.4002 74.8999C69.3002 72.9999 72.5002 70.7999 75.3002 67.4999ZM65.1002 79.8999C62.4002 81.8999 59.3002 83.2999 56.1002 84.2C57.2002 81.9 57.2002 77.7999 57.2002 77.0999C59.3002 76.5999 61.1002 75.9999 62.8002 75.4999C62.9002 77.3999 63.7002 79.1999 65.1002 79.8999ZM53.4002 84.7999C52.5002 84.9999 51.5002 85.1 50.6002 85.2C49.6002 84.2 48.5002 83.0999 47.6002 82.0999C48.6002 81.1999 49.2002 80 49.2002 78.2C51.4002 78.2 53.5002 77.9999 55.6002 77.4999C55.5002 80.7999 55.1002 83.2 54.1002 84.2C54.1002 84.2 54.0002 84.1999 54.0002 84.2999C53.8002 84.3999 53.6002 84.5999 53.4002 84.7999ZM46.5002 80.7999C45.8002 79.9999 45.1002 79.0999 44.4002 78.2999L45.0002 77.9999C45.9002 78.0999 46.7002 78.0999 47.5002 78.0999C47.6002 79.0999 47.2002 80.0999 46.5002 80.7999ZM33.6002 59.4999C32.7002 57.1999 31.9002 54.7999 31.2002 52.3999C32.0002 51.9999 32.7002 51.6999 33.5002 51.3999L33.7002 51.7999C34.7002 53.7999 35.8002 55.5999 37.1002 57.3999C35.8002 57.9999 34.6002 58.5999 33.6002 59.4999ZM35.0002 50.7C40.6002 48.4 46.4002 46.7999 52.3002 45.8999C52.6002 47.8999 53.1002 50.1999 53.4002 52.8999L52.0002 53.2L50.3002 54.9999C49.1002 53.6999 46.6002 54.4999 45.0002 54.8999C43.3002 55.2999 41.6002 55.7999 40.0002 56.2999C39.5002 56.3999 39.0002 56.6 38.5002 56.7C37.2002 54.9 36.1002 52.9999 35.1002 50.9999L35.0002 50.7ZM57.2002 72.3999C58.4002 71.8999 59.5002 71.3999 60.7002 70.8999L61.2002 70.2999C61.5002 70.2999 61.7002 70.3999 62.0002 70.3999C62.6002 70.2999 63.1002 70.1999 63.6002 69.9999C63.2002 71.1999 63.0002 72.5 62.8002 73.7C61.1002 74.3 59.3002 74.8999 57.1002 75.3999C57.2002 74.3999 57.2002 73.4999 57.2002 72.3999ZM49.0002 76.0999L50.1002 75.5999L52.9002 73.2999L53.6002 71.5999C54.0002 72.3999 54.2002 72.6999 54.6002 73.5999L55.5002 73.2V75.7999C53.4002 76.2999 51.2002 76.4999 49.0002 76.5999V76.0999Z" fill="#F05133"/>
<path d="M56.4999 92.2C51.0999 88.6 46.2999 84.3 42.0999 79.4L44.3999 78.3C45.0999 79.2 45.7999 80 46.4999 80.8C46.7999 81.2 47.1999 81.6 47.5999 82C50.6999 85.4 54.0999 88.5 57.7999 91.3C57.3999 91.6 56.9999 91.9 56.4999 92.2ZM30.8999 62C29.2999 58.5 27.9999 54.9 26.8999 51.2C36.1999 46.8 46.1999 44.4 56.4999 44C61.2999 44 65.9999 44.5 70.6999 45.5C68.0999 45.2 65.3999 45.1 62.6999 45.1C59.6999 45.1 56.7999 45.3 53.7999 45.6C53.2999 45.7 52.6999 45.8 52.1999 45.8C46.1999 46.6 40.3999 48.2 34.8999 50.5C34.3999 50.7 33.8999 50.9 33.3999 51.2C32.5999 51.5 31.8999 51.9 31.0999 52.3C31.7999 54.7 32.5999 57.1 33.4999 59.4C32.9999 59.8 32.4999 60.3 31.9999 60.8L30.8999 62Z" fill="#FDBB30"/>
<path d="M19.1999 48.2999C31.3999 42.0999 42.0999 38.5999 55.8999 38.5999C69.6999 38.5999 80.3999 42.0999 92.5999 48.2999C86.8999 71.0999 76.0999 86.2998 55.7999 98.3998C48.1999 93.7998 41.4999 88.3999 35.9999 82.1999C34.4999 82.9999 33.1999 83.5998 32.5999 83.8998C30.6999 84.8998 28.7999 85.7999 26.8999 86.7999C24.6999 87.8999 22.2999 89.5998 19.8999 88.8998C17.1999 87.6998 18.9999 84.3999 19.7999 82.5999C21.8999 77.8999 24.0999 73.1999 26.3999 68.4999C23.5999 63.1999 21.3999 57.4999 19.9999 51.6999L19.1999 48.2999ZM55.8999 40.9999C43.1999 40.9999 33.1999 43.9999 21.8999 49.5999C23.2999 55.1999 25.1999 60.6998 27.7999 65.8998C28.2999 65.0998 28.7999 64.3999 29.3999 63.6999C29.6999 63.3999 31.9999 60.8998 31.9999 60.8998C33.3999 59.3998 35.0999 58.1998 36.9999 57.3998C35.6999 55.5998 34.5999 53.6999 33.5999 51.7999L33.3999 51.3998C33.8999 51.1998 34.3999 50.9999 34.8999 50.6999L35.0999 51.0999C36.0999 53.0999 37.1999 54.9999 38.4999 56.7999C38.9999 56.5999 39.4999 56.4999 39.9999 56.2999C41.6999 55.8999 43.2999 55.3999 44.9999 54.9999C46.4999 54.5999 48.9999 53.7999 50.1999 55.0999L51.8999 53.2999L53.2999 52.9999C52.8999 50.2999 52.4999 47.8999 52.0999 45.9999C52.5999 45.8999 53.1999 45.7999 53.6999 45.7999C53.9999 47.6999 54.4999 50.0999 54.7999 52.5999C56.7999 52.1999 58.5999 51.7998 60.5999 51.3998L59.8999 52.9999L59.7999 53.1999L61.7999 51.0999C63.7999 50.7999 65.5999 50.3999 67.6999 49.9999L67.3999 50.9999C68.3999 50.1999 69.4999 49.6999 70.6999 49.4999H70.8999C71.1999 48.2999 71.4999 46.9999 71.5999 45.7999C72.1999 45.8999 72.7999 46.0999 73.2999 46.1999C73.1999 47.1999 73.0999 48.1999 72.8999 49.1999C74.0999 48.9999 75.2999 48.8999 76.5999 48.6999C76.0999 50.6999 75.5999 52.7999 75.0999 54.7999L72.6999 57.2999L74.7999 56.5999C74.0999 59.0999 73.3999 61.6999 72.7999 64.2999L70.0999 67.0999C68.9999 67.5999 67.0999 68.4999 65.3999 69.1999C64.9999 70.4999 64.6999 71.6999 64.3999 72.9999C70.3999 70.5999 73.4999 67.4999 76.8999 62.1999C76.4999 63.9999 75.8999 65.7999 75.0999 67.4999C72.2999 70.7999 69.0999 72.9998 64.1999 74.8998C64.0999 78.5998 66.4999 78.4998 66.8999 78.3998C66.2999 78.8998 65.5999 79.3998 64.8999 79.8998C63.3999 79.1998 62.6999 77.3999 62.5999 75.4999C60.8999 76.0999 59.0999 76.5999 56.9999 77.0999C56.8999 77.7999 56.8999 81.8999 55.8999 84.1999C54.9999 84.3999 54.0999 84.5999 53.1999 84.7999C53.3999 84.5999 53.5999 84.3999 53.7999 84.1999L53.8999 84.0999C54.8999 83.0999 55.2999 80.6998 55.3999 77.3998C53.2999 77.8998 51.1999 78.0999 48.9999 78.1999C48.8999 79.9999 48.2999 81.1999 47.3999 81.9999C46.9999 81.5999 46.6999 81.1998 46.2999 80.8998C46.9999 80.0998 47.2999 79.1999 47.2999 78.1999C46.4999 78.0999 45.6999 78.0999 44.7999 77.9999C42.5999 78.9999 40.0999 80.1999 37.9999 81.1999C43.1999 86.7999 49.0999 91.6999 55.6999 95.6999C74.0999 84.3999 84.0999 70.3999 89.6999 49.5999C78.5999 43.8999 68.6999 40.9999 55.8999 40.9999ZM57.1999 72.3998C57.2999 73.3998 57.2999 74.3999 57.2999 75.2999C59.4999 74.7999 61.2999 74.1999 62.9999 73.5999C63.0999 72.2999 63.3999 70.9999 63.7999 69.7999C63.2999 69.9999 62.6999 70.0999 62.1999 70.1999C61.8999 70.2999 61.6999 70.2999 61.3999 70.1999L60.8999 70.6999C59.4999 71.3999 58.3999 71.9998 57.1999 72.3998ZM48.9999 76.0999L49.0999 76.4999C51.2999 76.4999 53.4999 76.1999 55.5999 75.6999V73.0999L54.6999 73.4999C54.2999 72.6999 54.0999 72.3999 53.6999 71.4999L52.9999 73.1999L50.1999 75.4999L48.9999 76.0999Z" fill="#002D62"/>
<path d="M40.2998 57.2999C37.3998 58.0999 34.8998 59.2999 32.7998 61.5999C31.6998 62.9999 30.6998 64.4999 29.9998 65.9999C27.6998 70.6999 25.4998 75.3999 23.3998 80.0999C22.8998 81.2999 21.1998 84.2999 22.9998 85.0999C24.9998 85.5999 27.4998 83.8999 29.1998 82.9999C31.0998 81.9999 32.9998 80.9999 34.8998 80.0999C38.1998 78.4999 41.0998 76.4999 43.0998 73.3999C43.7998 71.9999 44.4998 70.6 45.0998 69.2C46.2998 66.1 47.5998 63.0999 48.8998 59.9999C49.3998 58.7999 50.2998 57.4 49.9998 56.2C49.4998 54.5 46.5998 55.4999 45.3998 55.8999C43.5998 56.3999 41.8998 56.7999 40.2998 57.2999ZM36.5998 74.7999C35.0998 75.4999 33.5998 76.1999 32.0998 76.8999C34.2998 71.8999 36.4998 66.7999 38.8998 61.7999C40.1998 61.3999 41.5998 60.8999 42.8998 60.5999C40.7998 65.1999 38.5998 69.9999 36.5998 74.7999ZM62.5998 51.9999C60.4998 54.7999 58.3998 57.4999 56.3998 60.2999C57.3998 57.7999 58.3998 55.3 59.2998 52.7C57.0998 53.1 54.8998 53.5999 52.7998 54.0999C52.1998 55.3999 51.6998 56.6999 51.0998 58.0999C51.4998 57.8999 51.9998 57.8 52.4998 57.7C50.7998 61.8 49.0998 65.8999 47.4998 70.0999C46.7998 71.7999 46.0998 73.5 45.4998 75.2C47.6998 74.2 49.8998 73.1 52.0998 72.2C53.0998 69.4 54.0998 66.6999 55.0998 63.9999C55.9998 65.8999 56.8998 67.6999 57.8998 69.5999C59.2998 68.9999 60.6998 68.3999 62.0998 67.7999C61.1998 65.7999 60.3998 63.8999 59.4998 61.8999C61.0998 59.4999 62.5998 57.0999 64.1998 54.7999C64.5998 54.6999 65.0998 54.5999 65.5998 54.4999C65.9998 53.4999 66.2998 52.3999 66.5998 51.3999C65.1998 51.5999 63.8998 51.7999 62.5998 51.9999ZM70.9998 50.5999C69.7998 50.7999 68.6998 51.2999 67.8998 52.0999C67.1998 52.8999 66.7998 53.7999 66.4998 54.7999C65.5998 57.6999 64.6998 60.6999 63.6998 63.5999C63.2998 64.6999 62.6998 66.9 64.5998 66.7C65.1998 66.6 65.8998 66.2999 66.3998 65.9999C68.2998 65.1999 70.1998 64.4 72.0998 63.7C72.4998 61.9 72.9998 60 73.4998 58.2C72.4998 58.5 71.4998 58.7999 70.4998 59.0999C70.1998 59.9999 69.9998 60.7999 69.7998 61.5999C69.0998 61.7999 68.3998 62.0999 67.6998 62.2999C68.5998 59.2999 69.3998 56.3999 70.2998 53.3999C70.8998 53.1999 71.4998 53.0999 72.0998 52.9999C71.9998 53.4999 71.7998 54.0999 71.6998 54.5999C72.5998 54.3999 73.4998 54.1999 74.3998 53.8999C74.6998 52.5999 75.0998 51.1999 75.3998 49.8999C73.9998 50.0999 72.4998 50.3999 70.9998 50.5999Z" fill="white"/>
<path d="M78.9 47.8C79.8 48.1 80.6 48.4001 81.5 48.7001C83.6 49.5001 85.4 50.3001 87 51.0001C82.4 67.0001 72.5 80.9001 58.9 90.5001L57.9 91.3C55.7 89.6 53.5 87.8 51.5 85.9L53.4 85.6C70 82.8 81.2 67.1001 78.5 50.5001C78.4 50.3001 78.4 50.1 78.3 49.8L78.2 49.6L78.1 49.5001L77.9 48.7001L77.8 48.6L77.7 48.4L77.6 48.3V48.2001C77.5 47.9001 77.5 47.6 77.3 47.3C78 47.6 78.5 47.7 78.9 47.8ZM79.1 48.1C79.9 48.4 80.8 48.7001 81.6 49.0001C80.8 48.7001 79.9 48.3 79.1 48.1Z" fill="#007AC1"/>
</svg>
