<svg width="102" height="102" viewBox="0 0 102 102" fill="none" xmlns="http://www.w3.org/2000/svg">
<path d="M101.2 50.6C101.2 78.5 78.6 101.2 50.6 101.2C22.6 101.2 0 78.6 0 50.6C0 22.6 22.6 0 50.6 0C78.5 0.1 101.2 22.7 101.2 50.6Z" fill="white"/>
<path d="M50.6002 98.6C24.1002 98.6 2.7002 77.1 2.7002 50.6C2.7002 38.1 7.60018 26.1 16.4002 17.1C25.3002 7.99998 37.4002 2.79995 50.1002 2.69995H50.6002C77.1002 2.69995 98.5002 24.2 98.5002 50.7C98.5002 63.2 93.6002 75.2 84.8002 84.2C75.9002 93.2999 63.8002 98.5 51.1002 98.6C51.0002 98.6 50.8002 98.6 50.6002 98.6Z" fill="black"/>
<path d="M55.3002 17.7L53.6002 19.4H48.9002L47.2002 17.7V8.39996L48.9002 6.69995H53.6002L55.3002 8.39996V17.7ZM50.5002 9.5L50.0002 10V16.1L50.5002 16.6H52.2002L52.7002 16.1V10L52.2002 9.5H50.5002Z" fill="white"/>
<path d="M82.4002 39.5999L80.2002 38.7999L78.2002 34.5999L79.0002 32.3999L87.4002 28.3999L89.6002 29.1999L91.6002 33.3999L90.8002 35.5999L82.4002 39.5999ZM87.7002 31.5999L87.0002 31.3999L81.5002 33.9999L81.3002 34.6999L82.0002 36.2999L82.7002 36.4999L88.2002 33.8999L88.4002 33.1999L87.7002 31.5999Z" fill="white"/>
<path d="M30.5998 24.7V27.1L27.2998 30.4H24.8998L18.2998 24.0001V21.6L21.4998 18.3H23.8998L30.5998 24.7ZM21.2998 22.5001V23.2L25.6998 27.4H26.3998L27.5998 26.2V25.5001L23.1998 21.3H22.4998L21.2998 22.5001Z" fill="white"/>
<path d="M72.5 12.0999L67.6 23.6999L65.6 22.8999L65 14.5999L62.2 21.3999L60 20.4999L64.9 8.8999L67.6 10.0999V17.2999L70.2 11.1999L72.5 12.0999Z" fill="white"/>
<path d="M40.0999 14.8001L39.4999 16.8001L42.9999 20.3001L40.4999 21.4001L37.1999 18.3001L35.9999 18.8001L37.6999 22.6001L35.3999 23.6001L30.3999 12.0001L35.7999 9.6001L38.0999 10.5001L40.0999 14.8001ZM34.8999 15.9001L36.8999 15.0001C36.9999 14.8001 37.0999 14.6001 37.1999 14.4001L36.4999 12.8001L35.7999 12.5001L33.7999 13.4001L34.8999 15.9001Z" fill="white"/>
<path d="M82.3999 23.3999L80.6999 21.7999L73.7999 28.8999L71.8999 26.9999L78.8999 19.9999L77.1999 18.2999L79.0999 16.3999L84.2999 21.4999L82.3999 23.3999Z" fill="white"/>
<path d="M15.1002 30.6L14.2002 32.7L23.2002 36.8L22.2002 39.2L13.1002 35.1L12.2002 37.2L9.7002 36.1L12.7002 29.5L15.1002 30.6Z" fill="white"/>
<path d="M84.1998 62.8L82.9998 65.2L82.0998 64.7L81.8998 65.2L81.0998 66.7L81.2998 67.4L82.4998 68.0001L82.2998 67.9L82.9998 67.7L84.4998 64.9L86.7998 64.2L90.5998 66.2L91.2998 68.5001L89.0998 72.6L86.7998 73.3L84.8998 72.3L86.0998 69.9L86.9998 70.4L87.9998 68.4L87.7998 67.7L86.7998 67.2L86.0998 67.4L84.6998 70.2L82.2998 70.9L78.4998 68.9L77.7998 66.6L79.9998 62.5001L82.2998 61.8L84.1998 62.8Z" fill="white"/>
<path d="M19.5001 71.5L17.5001 71.1L14.3001 74.8L13.1001 72.4L16.0001 68.9L15.4001 67.8L11.7001 69.7L10.6001 67.5L21.8001 61.7L24.5001 66.9L23.7001 69.2L19.5001 71.5ZM17.9001 66.4L18.9001 68.3L19.6001 68.5L21.1001 67.7L21.3001 67L20.3001 65.1L17.9001 66.4Z" fill="white"/>
<path d="M35.8999 86.6999L34.0999 90.9999L31.8999 90.0999L36.7999 78.3999L42.0999 80.5999L42.9999 82.8999L41.1999 87.0999L39.3999 87.9999L35.8999 86.6999ZM36.8999 84.4999L38.6999 85.1999L39.2999 84.8999L39.9999 83.2999L39.6999 82.6999L37.8999 81.9999L36.8999 84.4999Z" fill="white"/>
<path d="M55.0998 84.5001L52.7998 84.6L52.8998 94.5001H50.1998L50.0998 84.6H47.8998L47.7998 81.9L55.0998 81.8V84.5001Z" fill="white"/>
<path d="M69.6999 88.7L68.7999 90.9L64.3999 92.6L62.1999 91.6L58.8999 82.9L59.8999 80.7L64.1999 79L66.3999 80L69.6999 88.7ZM62.2999 82.7L61.9999 83.3L64.1999 89L64.7999 89.2999L66.3999 88.7L66.6999 88.1L64.4999 82.4L63.8999 82.1L62.2999 82.7Z" fill="white"/>
<path d="M79 76.5001V78.5001L83.4 80.8001L81.4 82.5001L77.4 80.4001L76.4 81.2001L79.1 84.4001L77.2 86.0001L69 76.4001L73.5 72.6001L76 72.8001L79 76.5001ZM74.4 79.0001L76.1 77.6001L76.2 76.9001L75.1 75.6001L74.4 75.5001L72.7 76.9001L74.4 79.0001Z" fill="white"/>
<path d="M25.4999 86.8L23.4999 85.0001L24.3999 83.1001L21.6999 80.6001L19.8999 81.7001L17.8999 79.9001L29.2999 73.1001L31.2999 74.9001L25.4999 86.8ZM25.5999 80.8001L27.2999 77.3001L23.9999 79.3001L25.5999 80.8001Z" fill="white"/>
<path d="M60.3999 75.9999C60.3999 76.0999 60.4999 76.0999 60.4999 76.0999C60.5999 76.0999 60.7999 76.0999 60.8999 75.9999L61.1999 75.8999L61.9999 75.5999L63.9999 74.6999L64.2999 74.4999L64.4999 74.3999L64.6999 74.2999L64.9999 74.0999L65.3999 73.8999L65.8999 73.5999L66.7999 72.8999L67.2999 72.4999L67.8999 71.9999L68.4999 71.5999L68.7999 71.3999L69.1999 70.9999L69.5999 70.5999L70.2999 69.8999L71.0999 69.1999L71.9999 68.1999L72.4999 67.5999L72.6999 67.3999L73.1999 66.7999L74.1999 65.2999L74.4999 64.7999L75.1999 63.4999L75.5999 62.7999L76.2999 61.4999L76.6999 60.6999L77.0999 59.4999C77.0999 59.4999 77.5999 57.7999 77.7999 56.9999C77.7999 56.8999 77.7999 56.7999 77.7999 56.6999C77.6999 56.4999 77.5999 56.2999 77.3999 55.9999C77.2999 55.8999 77.1999 55.7999 77.1999 55.6999C77.1999 55.5999 76.9999 55.3999 76.8999 55.2999L76.6999 55.0999C76.4999 54.8999 76.2999 54.6999 76.0999 54.5999C75.9999 54.5999 75.8999 54.4999 75.8999 54.3999C75.3999 53.9999 74.7999 53.5999 74.0999 53.3999C73.7999 53.2999 73.5999 53.1999 73.2999 53.0999C73.0999 52.9999 72.7999 52.9999 72.5999 52.8999C72.4999 52.8999 72.3999 52.8999 72.2999 52.8999C72.1999 52.9999 72.1999 53.0999 72.1999 53.1999C72.1999 53.4999 72.1999 53.8999 72.0999 54.2999C72.0999 54.6999 71.9999 54.9999 71.9999 55.3999C71.9999 55.6999 71.9999 55.9999 71.8999 56.3999C71.8999 56.7999 71.7999 57.2999 71.6999 57.6999C71.5999 58.4999 71.3999 59.2999 71.1999 60.0999C71.1999 60.2999 71.0999 60.4999 70.9999 60.6999C70.8999 60.9999 70.7999 61.3999 70.6999 61.6999C70.4999 62.3999 70.2999 63.1999 69.9999 63.8999C69.7999 64.4999 69.5999 65.0999 69.2999 65.5999V65.6999C69.0999 66.0999 68.9999 66.3999 68.7999 66.7999C68.6999 66.9999 68.5999 67.1999 68.4999 67.4999C68.3999 67.7999 68.1999 68.0999 67.9999 68.2999C67.6999 68.6999 67.3999 69.0999 67.1999 69.5999C66.9999 69.8999 66.7999 70.1999 66.5999 70.4999C66.4999 70.5999 66.4999 70.5999 66.4999 70.6999C66.3999 70.8999 66.1999 71.1999 65.9999 71.3999C65.6999 71.7999 65.2999 72.2999 64.8999 72.6999C64.6999 72.9999 64.3999 73.1999 64.1999 73.4999C63.9999 73.6999 63.7999 73.9999 63.4999 74.1999C63.4999 74.2999 63.3999 74.2999 63.2999 74.2999C63.1999 74.3999 62.9999 74.4999 62.8999 74.5999C62.5999 74.8999 62.2999 75.1999 61.9999 75.3999C61.8999 75.4999 61.6999 75.5999 61.5999 75.6999C61.1999 75.5999 60.7999 75.7999 60.3999 75.9999Z" fill="#BD1B21"/>
<path d="M78.1999 54.8001C78.1999 54.7001 78.2999 54.6001 78.2999 54.5001L78.4999 52.8001L78.5999 51.2001V49.4001L78.3999 47.6001C78.3999 47.6001 78.1999 45.9001 77.9999 45.1001C77.8999 44.8001 77.7999 44.6001 77.4999 44.5001C77.3999 44.5001 77.2999 44.4001 77.1999 44.4001C76.9999 44.3001 76.7999 44.3001 76.6999 44.2001C76.2999 44.1001 75.8999 44.0001 75.4999 43.9001C74.9999 43.8001 74.4999 43.8001 73.9999 43.7001C73.5999 43.7001 73.1999 43.6001 72.7999 43.6001H71.9999C71.7999 43.6001 71.5999 43.6001 71.5999 43.7001C71.4999 43.9001 71.4999 44.0001 71.5999 44.2001C71.6999 44.6001 71.6999 44.8001 71.7999 45.2001C71.9999 46.4001 72.1999 47.5001 72.1999 48.7001C72.1999 49.2001 72.2999 49.8001 72.2999 50.3001V50.7001C72.2999 50.8001 72.2999 50.9001 72.3999 51.0001C72.3999 51.1001 72.4999 51.1001 72.5999 51.1001C72.6999 51.1001 72.7999 51.1001 72.8999 51.2001C72.9999 51.3001 73.1999 51.3001 73.2999 51.3001C73.7999 51.5001 74.2999 51.6001 74.6999 51.8001C74.9999 51.9001 75.2999 52.1001 75.5999 52.3001C75.5999 52.3001 75.6999 52.3001 75.6999 52.4001C75.8999 52.5001 76.0999 52.7001 76.1999 52.8001C76.6999 53.1001 77.0999 53.4001 77.3999 53.8001C77.4999 53.9001 77.4999 54.0001 77.5999 54.0001C77.6999 54.1001 77.8999 54.5001 78.0999 54.7001C78.0999 54.8001 78.0999 54.8001 78.1999 54.8001Z" fill="#BD1B21"/>
<path d="M66.0002 35.3999C66.1002 35.3999 66.3002 35.3999 66.4002 35.3999C66.5002 35.3999 66.6002 35.3999 66.6002 35.2999C66.6002 35.1999 66.6002 35.0999 66.5002 35.0999C66.5002 34.9999 66.2002 34.4999 66.2002 34.4999L65.9002 33.9999L64.6002 32.0999L64.3002 31.7999L64.1002 31.4999L63.7002 30.9999L62.7002 29.8999L62.3002 29.4999L60.7002 27.9999L59.4002 26.9999L58.9002 26.7999L57.3002 25.8999L56.2002 25.2999L56.0002 25.1999L55.1002 24.8999L53.8002 24.3999H53.7002L53.3002 24.2999H53.2002L52.8002 24.1999L52.0002 24.0999H51.6002L50.9002 23.9999L50.1002 23.8999H49.8002H49.3002H48.4002L47.6002 23.9999H46.9002L46.3002 24.0999L45.7002 24.1999L45.2002 24.2999L44.5002 24.3999H44.3002L43.6002 24.5999L43.2002 24.6999L43.0002 24.7999L42.4002 24.9999L42.1002 25.1999L41.7002 25.2999L40.8002 25.6999L39.7002 26.0999L39.3002 26.2999L38.5002 26.6999L37.8002 27.1999L37.2002 27.4999L37.0002 27.5999L36.3002 27.9999L36.2002 28.0999L35.4002 28.6999L34.7002 29.0999L34.6002 29.1999L33.9002 29.7999L33.6002 29.9999C33.6002 29.9999 33.2002 30.2999 33.2002 30.3999L33.5002 30.2999L34.0002 30.0999H34.1002L34.8002 29.7999H34.9002L35.7002 29.4999L36.1002 29.3999L36.5002 29.1999L37.1002 28.9999L38.6002 28.3999H38.7002L39.4002 28.0999L40.0002 27.8999L40.1002 27.9999H41.2002L41.9002 28.0999L43.4002 28.1999L45.5002 28.2999L46.2002 28.8999H46.3002L47.0002 29.5999H47.1002H48.1002L50.7002 29.6999V29.7999L51.8002 30.4999L53.8002 31.4999V31.5999L54.9002 31.1999L56.6002 31.7999L56.9002 32.2999H57.5002L58.1002 32.9999H58.2002L58.7002 33.4999H58.8002L60.1002 33.7999L60.6002 34.4999L61.8002 34.8999C62.5002 35.0999 63.1002 35.1999 63.8002 35.2999C64.7002 35.3999 65.3002 35.4999 66.0002 35.3999Z" fill="#BD1B21"/>
<path d="M77.4 43.2001C77.4 43.0001 77.3 42.8001 77.2 42.6001L77.1 42.4001L77 42.1001L76.8 41.5001L76.6 40.9001L76 39.5001L75.7 38.8001L75.3 38.0001L74.9 37.3001L74.8 37.1001L74.5 36.5001L74.2 36.1001L74.1 36.0001L72.2 33.5001C72.2 33.5001 72 33.3001 71.9 33.2001C71.9 33.1001 71.8 33.1001 71.8 33.1001C71.8 33.1001 71.2 34.0001 71 34.3001C70.8 34.6001 70.3 35.0001 70.3 35.0001C70.3 35.0001 69.9 35.3001 69.8 35.4001C69.7 35.5001 69.6 35.6001 69.4 35.6001L69 35.8001C69 35.8001 68.7 35.9001 68.6 36.0001C68.5 36.0001 68.5 36.0001 68.5 36.1001C68.5 36.2001 68.5 36.2001 68.5 36.2001C68.5 36.3001 68.5 36.3001 68.6 36.4001C68.8 36.8001 68.9 37.1001 69.1 37.5001C69.4 38.0001 69.6 38.6001 69.8 39.1001C69.9 39.3001 69.9 39.5001 70 39.6001C70.2 40.1001 70.3 40.5001 70.4 41.0001C70.5 41.2001 70.5 41.4001 70.6 41.6001C70.7 41.8001 70.7 42.0001 70.8 42.2001C70.8 42.3001 70.9 42.4001 71.1 42.4001H71.5C72 42.4001 72.5 42.4001 73 42.4001C73.1 42.4001 74.1 42.5001 74.1 42.5001C74.1 42.5001 74.4 42.5001 74.6 42.6001C75 42.7001 75.3 42.8001 75.7 42.8001C76 42.9001 76.3 43.0001 76.6 43.1001C76.7 43.2001 76.9 43.2001 77 43.2001H77.1C77.4 43.3001 77.4 43.2001 77.4 43.2001Z" fill="#BD1B21"/>
<path d="M70.9999 32.1999C70.9999 32.0999 70.8999 31.9999 70.8999 31.8999L70.7999 31.6999L70.4999 31.3999L70.2999 31.0999L69.9999 30.7999L69.8999 30.6999C69.2999 30.1999 68.0999 29.2999 68.0999 29.2999L67.7999 28.9999L67.1999 28.4999L64.1999 26.6999L61.7999 25.5999L60.4999 25.0999L59.9999 24.8999L58.3999 24.3999L57.2999 24.0999L56.1999 23.8999H55.9999L55.8999 23.9999C55.9999 23.9999 55.9999 24.0999 56.0999 24.0999L57.0999 24.4999C57.2999 24.5999 57.4999 24.6999 57.6999 24.7999C57.8999 24.7999 57.9999 24.8999 58.0999 24.9999L59.5999 25.8999C59.8999 26.0999 60.1999 26.2999 60.3999 26.4999C60.5999 26.6999 60.7999 26.7999 60.9999 26.9999C61.0999 27.0999 61.1999 27.1999 61.2999 27.1999C61.3999 27.1999 61.3999 27.2999 61.4999 27.2999C61.7999 27.4999 62.0999 27.7999 62.3999 27.9999C62.6999 28.2999 62.9999 28.5999 63.2999 28.8999C63.5999 29.1999 63.8999 29.4999 64.0999 29.7999C64.2999 30.0999 64.4999 30.2999 64.6999 30.4999C65.0999 30.8999 65.4999 31.3999 65.8999 31.8999C65.8999 31.9999 65.9999 31.9999 65.9999 32.0999C66.2999 32.4999 66.4999 32.8999 66.7999 33.2999C66.9999 33.5999 67.1999 33.7999 67.3999 34.0999C67.4999 34.2999 67.5999 34.4999 67.6999 34.5999C67.7999 34.6999 67.7999 34.6999 67.8999 34.6999C67.9999 34.6999 67.9999 34.6999 68.0999 34.5999L68.2999 34.4999C68.2999 34.4999 68.5999 34.3999 68.6999 34.2999C68.7999 34.1999 68.9999 34.1999 69.0999 34.0999C69.1999 33.9999 69.4999 33.7999 69.5999 33.6999C69.7999 33.4999 69.8999 33.3999 70.0999 33.1999L70.2999 32.8999L70.6999 32.1999C70.9999 32.3999 70.9999 32.2999 70.9999 32.1999Z" fill="#BD1B21"/>
<path d="M69.6998 42.4001C69.4998 41.9001 69.3998 41.4001 69.1998 40.9001C69.0998 40.5001 68.8998 40.1001 68.7998 39.7001C68.6998 39.5001 68.5998 39.2001 68.4998 39.0001C68.4998 38.9001 68.3998 38.8001 68.3998 38.6001C68.1998 38.0001 67.8998 37.4001 67.5998 36.8001C67.5998 36.8001 67.5998 36.7001 67.4998 36.7001C67.4998 36.6001 67.3998 36.6001 67.3998 36.6001C67.2998 36.6001 67.2998 36.6001 67.0998 36.6001C66.7998 36.6001 66.4998 36.7001 66.3998 36.7001C66.2998 36.7001 65.7998 36.7001 65.3998 36.8001H65.2998H64.7998L63.4998 36.6001C62.9998 36.5001 61.8998 36.3001 61.8998 36.3001L61.0998 36.0001L60.0998 35.7001H59.9998L58.3998 35.6001L57.4998 34.9001H57.3998L56.8998 34.4001V34.3001L56.2998 34.2001H56.1998L55.6998 34.0001L55.5998 33.9001L54.4998 34.0001L53.4998 33.6001L49.8998 33.8001H49.7998H49.0998L48.9998 33.9001L47.1998 34.0001L44.6998 35.4001V35.5001L44.5998 35.6001H44.4998L43.2998 35.5001H43.1998H40.9998H40.3998L40.1998 35.4001L37.8998 37.2001L37.0998 37.8001L36.1998 37.4001H36.0998L35.7998 37.3001L34.0998 37.7001L32.4998 37.5001L32.3998 37.4001L32.0998 37.7001L31.4998 38.0001V38.1001L30.2998 39.0001L28.4998 40.3001L26.4998 41.8001L25.5998 42.5001V42.9001L25.1998 43.8001L24.9998 44.5001L24.7998 46.0001L24.6998 46.7001L24.5998 47.5001L24.3998 49.2001L24.2998 52.8001L24.3998 53.0001L24.4998 54.0001C24.4998 54.0001 24.4998 54.2001 24.5998 54.2001L29.0998 49.6001L30.4998 49.0001L31.6998 48.9001L32.3998 48.1001L32.4998 47.9001H32.5998L34.5998 47.7001L34.6998 47.6001H35.3998H35.4998L35.6998 47.3001L36.5998 46.8001L37.4998 46.1001H40.1998V46.2001L41.1998 46.3001L41.9998 46.1001L43.4998 44.5001L44.6998 43.4001L46.4998 43.2001H46.5998L46.6998 43.3001L47.5998 43.7001L47.6998 43.6001L48.4998 43.5001L49.2998 43.4001H49.3998L50.1998 44.1001V44.0001H51.9998L52.0998 43.9001L53.4998 44.0001H53.5998L53.7998 43.9001V43.8001L54.3998 43.6001H54.4998L55.0998 43.3001L55.1998 43.2001L55.8998 42.9001V42.8001L57.7998 42.1001L58.0998 42.0001L58.1998 41.9001L58.2998 42.0001L58.7998 42.3001H58.9998L59.5998 42.6001V42.5001L59.7998 42.4001L60.0998 42.3001L60.4998 42.2001L61.5998 42.5001L61.7998 42.4001L61.9998 42.5001L62.7998 42.6001L63.5998 42.9001H64.0998L64.2998 43.0001L64.3998 42.9001C64.3998 42.9001 65.9998 42.7001 66.7998 42.6001C67.2998 42.6001 67.7998 42.5001 68.3998 42.5001C68.6998 42.5001 68.9998 42.4001 69.2998 42.4001C69.6998 42.6001 69.7998 42.6001 69.6998 42.4001Z" fill="#BD1B21"/>
<path d="M70.8998 50.6C70.8998 50.5 70.8998 50.4 70.8998 50.3C70.8998 50 70.8998 49.7 70.8998 49.4C70.8998 49.3 70.8998 49.2 70.8998 49.1C70.8998 48.7 70.8998 48.3 70.7998 48C70.7998 47.5 70.6998 47 70.5998 46.6C70.4998 46.2 70.4998 45.9 70.3998 45.5C70.2998 45.1 70.2998 44.8 70.1998 44.4C70.0998 44 69.9998 44 69.5998 44H69.4998C69.3998 44 69.0998 44 68.9998 44.1C68.1998 44.2 67.4998 44.2 66.6998 44.3L64.3998 45.1L61.0998 45L60.6998 44.9V45L59.6998 45.7H59.5998L58.7998 46.4V46.5L56.7998 46.8L54.9998 48.2H54.7998L53.8998 48.8H53.4998L53.0998 49.1L52.9998 49L51.1998 48.9L50.8998 49.3V49.4L49.2998 51.1V51.2H49.1998L47.1998 53.5H46.6998V53.6L44.9998 53.9H44.8998V54L42.1998 55.5L40.9998 55.4L40.6998 55.5L39.4998 55.4L38.2998 56.7L37.5998 56.8H37.1998L36.5998 56.6H36.2998V56.7L34.7998 57.8H34.6998L32.3998 59.6V59.7L30.9998 63.2L31.0998 63.3L28.6998 63.5L27.8998 64.2L27.7998 64.5L28.8998 66L29.6998 67.2L30.3998 68.1L31.4998 69.3V69.4H31.5998L32.2998 69.6L33.0998 69.9H33.1998L34.4998 70.4H34.5998L34.6998 70.5H34.7998L35.0998 70.7L35.6998 70.4L35.9998 70.2L38.0998 70.7L39.5998 69.9L42.8998 69.6L44.2998 67.4L44.8998 66.8H44.9998L45.4998 66.4V66.3L46.2998 65.5L46.6998 65.1L46.7998 65L47.2998 64.5L47.6998 64.1H47.7998L47.6998 63.8L48.0998 62.4L48.7998 62.2H48.9998V62.1L49.9998 60.5H50.0998L50.4998 59.7L51.1998 59.3L51.2998 59.2H51.3998L51.7998 59L52.4998 58.7L52.5998 58.6L55.0998 57.5H55.1998V57.4L55.2998 57.3L55.4998 56.5L56.2998 56.2L57.1998 56.1L57.9998 55.5H59.0998L59.1998 55.6L59.2998 55.5L60.8998 54.8V54.6L61.2998 53.9L62.0998 53.7V53.6L63.1998 53.4L63.5998 52.9H63.6998C63.7998 52.8 63.8998 52.7 63.9998 52.7L64.6998 52.8L65.0998 52.9H65.3998C65.3998 52.9 66.4998 52.4 66.9998 52.2C67.1998 52.1 67.3998 52.1 67.5998 52C67.8998 51.9 68.0998 51.8 68.3998 51.7C68.4998 51.7 68.6998 51.6 68.7998 51.6L69.2998 51.5L69.8998 51.4H70.2998C70.3998 51.4 70.4998 51.4 70.4998 51.4C70.5998 51.4 70.6998 51.4 70.6998 51.3C70.7998 51.2 70.7998 51.2 70.7998 51.1C70.8998 50.9 70.8998 50.7 70.8998 50.6Z" fill="#BD1B21"/>
<path d="M70.9 52.7999C70.9 52.6999 70.9 52.5999 70.8 52.4999C70.7 52.3999 70.7 52.3999 70.6 52.3999C70.5 52.3999 70.3 52.3999 70.3 52.3999L69.8 52.4999C69.7 52.4999 69.7 52.4999 69.6 52.4999C69.3 52.5999 69 52.5999 68.8 52.6999C68.5 52.7999 68.2 52.8999 67.9 52.9999C67.6 53.0999 67.2 53.1999 66.9 53.3999C66.8 53.4999 65.7 53.9999 65.2 54.1999L64.6 54.7999V54.8999H64.5H64.1L62.9 55.2999V55.3999L62.8 55.4999V55.5999L62.2 56.5999H62.1V56.6999C62 56.7999 61.9 56.9999 61.9 57.0999L59.3 58.7999H59.2L58.8 59.0999L58.5 60.1999L58.2 60.3999L57.2 64.1999L57.3 64.5999L55.8 65.2999H55.6L55.3 66.5999L54.9 67.7999V67.8999L54.7 68.8999L54.6 68.9999V69.0999L53.2 71.3999H53.1L52.7 71.9999V72.0999L51.5 73.8999L50.2 74.6999L50.3 74.7999L50.2 75.2999L50.3 75.4999L50.1 75.5999L49.2 76.1999H49.1L47.7 76.9999L47.5 77.2999C47.7 77.2999 47.9 77.3999 48 77.3999L48.9 77.4999H49.5H51.6L53.6 77.2999L54.8 77.0999L55.7 76.8999L56.6 76.5999L57.8 76.0999L57.9 75.9999L58.2 75.7999C58.7 75.4999 59.2 75.2999 59.6 74.9999C60.3 74.3999 61.1 73.8999 61.8 73.1999C62 72.9999 62.3 72.7999 62.5 72.4999C62.7 72.2999 62.9 72.0999 63.2 71.7999L63.3 71.6999C63.4 71.4999 63.5 71.3999 63.6 71.2999C63.7 71.1999 63.8 71.0999 63.9 70.9999C64.1 70.7999 64.3 70.5999 64.5 70.3999C64.7 70.1999 64.8 70.0999 64.9 69.8999C65.1 69.5999 65.3 69.1999 65.6 68.8999C65.9 68.4999 66.2 67.9999 66.5 67.5999C66.8 67.0999 67 66.5999 67.3 66.0999C67.5 65.6999 67.8 65.2999 68 64.7999C68.3 64.0999 68.6 63.3999 68.9 62.5999C69.2 61.7999 69.5 60.9999 69.6 60.1999C69.8 59.5999 69.9 58.9999 70.1 58.3999C70.1 58.2999 70.1 58.1999 70.2 58.1999C70.3 57.6999 70.4 57.1999 70.4 56.6999C70.5 56.1999 70.5 55.7999 70.6 55.2999C70.6 54.9999 70.7 54.6999 70.7 54.2999C70.7 53.8999 70.8 53.3999 70.8 52.9999V52.8999C70.9 52.8999 70.9 52.7999 70.9 52.7999Z" fill="#BD1B21"/>
</svg>
