<?xml version="1.0" encoding="UTF-8"?>
<svg id="Calque_1" xmlns="http://www.w3.org/2000/svg" version="1.1" viewBox="0 0 135 59">
  <!-- Generator: Adobe Illustrator 30.2.1, SVG Export Plug-In . SVG Version: 2.1.1 Build 1)  -->
  <defs>
    <style>
      .st0 {
        fill: #0d2240;
      }

      .st1 {
        fill: #2b5134;
      }

      .st2 {
        fill: #fff;
      }

      .st3 {
        fill: #ffa400;
      }
    </style>
  </defs>
  <path class="st2" d="M113.55,51.4l14-32H62.85l-2.7,6.2-1.9-6.2h-13s-8.6,19.5-11,25.1c.3-1.2.4-2.3.4-3.5v-.5c.9-2.2,8.5-19.5,10.1-23h35.5L87.85,0h-42.2l-13.9,31.7c-5.1-8-15.8-10.4-23.8-5.2C-.05,31.6-2.45,42.3,2.75,50.3c3.2,5,8.6,7.9,14.5,8,5.6,0,10.8-2.7,14.1-7.2l-2.9,6.8h7.1l4.2-9.5h7.9l2.9,9.5h74.6l2.8-6.5h-14.4ZM42.45,41.8l1.9-4.3,1.3,4.3h-3.2ZM67.25,49.3l-7.1-23.4h17.4c-5.2,11.7-8.4,18.9-10.3,23.4ZM94.05,51.4h-8.2l11.1-25.5h8.2c-6,13.7-9.3,21.3-11.1,25.5Z"/>
  <path class="st0" d="M1.05,41.9c.2,4.1,1.9,8,4.9,10.9,3.2-2.7,5.1-6.7,5.3-10.9H1.05Z"/>
  <path class="st3" d="M12.65,41.9c-.2,4.5-2.2,8.8-5.6,11.8,2.7,2.2,6.1,3.5,9.5,3.6v-15.5h-3.9v.1Z"/>
  <path class="st0" d="M1.05,40.5h10.2c-.2-4.3-2.1-8.2-5.3-11-3,2.8-4.7,6.8-4.9,11Z"/>
  <path class="st3" d="M7.05,28.5c3.4,3,5.5,7.4,5.6,12h3.9v-15.6c-3.5.1-6.8,1.4-9.5,3.6Z"/>
  <path class="st0" d="M33.45,41.9h-10.2c.2,4.2,2.1,8.1,5.3,10.9,3-2.9,4.7-6.8,4.9-10.9Z"/>
  <path class="st1" d="M21.85,41.9h-3.9v15.4c3.5-.1,6.9-1.4,9.5-3.6-3.4-3-5.4-7.3-5.6-11.8Z"/>
  <path class="st1" d="M27.55,28.5c-2.7-2.2-6.1-3.5-9.5-3.7v15.6h3.9c.1-4.5,2.1-8.9,5.6-11.9Z"/>
  <path class="st0" d="M46.25,1.1l-14.4,33c-.9-1.7-2-3.3-3.4-4.7-3.2,2.8-5.1,6.8-5.3,11h10.2l10.4-23.9h30.5l6.7-15.4h-34.7Z"/>
  <path class="st1" d="M79.45,16.5l6.7-15.4h-2.8l-6.8,15.4h2.9Z"/>
  <path class="st0" d="M51.25,56.9h12.1l-10.9-36.4h-6.6l-16,36.4h4.8s1.8-4.1,4.2-9.5h9.4l3,9.5ZM40.85,42.9c1.2-2.7,2.4-5.6,3.6-8.3l2.5,8.3h-6.1Z"/>
  <path class="st1" d="M64.45,53.2l1.7-3.8-8.8-28.9h-2.8l9.9,32.7Z"/>
  <path class="st0" d="M106.85,52.4l14-31.9h-20.4l-2,4.4h8.3c-4.3,9.7-14,31.9-14,31.9h31.6l2-4.4h-19.5Z"/>
  <path class="st1" d="M85.15,50.4l13.1-29.9h-2.9l-13.1,29.9h2.9Z"/>
  <path class="st1" d="M112.86,50.4l13.1-29.9h-2.9l-13.1,29.9h2.9Z"/>
  <path class="st0" d="M93.15,20.5h-29.7l-2,4.4h17.6c-4.3,9.7-14,31.9-14,31.9h25.6l1.9-4.4h-13.4l14-31.9Z"/>
  <path class="st2" d="M91.55,14.2h-3.7l5.7-13h-2.8l-6,13.5c-.5,1,0,1.9,1.1,1.9h5.5c1.2-.1,2.2-.8,2.8-1.9l6-13.5h-2.8l-5.8,13Z"/>
  <path class="st2" d="M112.35,1.1h-9.7l-1.1,2.4h3.8l-5.7,13h2.7l5.8-13h3.2l1-2.4Z"/>
  <path class="st2" d="M116.25,5l-1.7,6.7h-2.6l4.3-6.7ZM119.35,1.1h-2.8l-10.4,15.4h2.6l1.6-2.4h3.7l-.5,2.4h2.8l3-15.4Z"/>
  <path class="st2" d="M131.76,1.1l-2.9,6.5h-3.7l2.9-6.5h-2.8l-6.8,15.4h2.7l2.9-6.5h3.8l-2.9,6.5h2.8l6.8-15.4h-2.8Z"/>
</svg>