<svg width="101" height="101" viewBox="0 0 101 101" fill="none" xmlns="http://www.w3.org/2000/svg">
<path d="M50.3751 100.75C78.1964 100.75 100.75 78.1963 100.75 50.375C100.75 22.5536 78.1964 0 50.3751 0C22.5537 0 0 22.5536 0 50.375C0 78.1963 22.5537 100.75 50.3751 100.75Z" fill="#C4CED4"/>
<path d="M50.125 98.5C76.7728 98.5 98.375 76.8418 98.375 50.125C98.375 23.4082 76.7728 1.75 50.125 1.75C23.4773 1.75 1.875 23.4082 1.875 50.125C1.875 76.8418 23.4773 98.5 50.125 98.5Z" fill="#E31837"/>
<path d="M98.625 47.875H1.74997C1.74997 48.75 1.625 49.5 1.625 50.375C1.625 54.75 2.25 59.125 3.5 63.25C14.875 63.25 85.125 63.25 96.75 63.25C98 59.125 98.625 54.75 98.625 50.25C98.625 49.5 98.625 48.625 98.625 47.875Z" fill="white"/>
<path d="M44 98.75C46 99 48 99.125 50 99.125C54.375 99.125 58.625 98.5 62.75 97.375C75.5 93.75 86.375 84.75 92.75 73.125H7.75C15.125 86.5 28.625 96.5 44 98.75Z" fill="#002B5C"/>
<path d="M79.875 34.375C77.75 30.5 75 27.125 71.625 24.375C71 23.875 70.375 23.375 69.75 22.875C64.25 19 57.5 16.625 50.25 16.625C32.25 16.625 17.5 30.75 16.5 48.625C16.5 49.25 16.5 49.75 16.5 50.375C16.5 55 17.5 59.5 19.125 63.5C19.375 64 19.625 64.5 19.75 65C21.625 68.875 24.25 72.5 27.5 75.375C28.25 76.125 29.125 76.75 30 77.5C35.625 81.75 42.625 84.25 50.125 84.25C54.25 84.25 58.125 83.5 61.75 82.25C74.625 77.5 83.875 65.125 83.875 50.625C83.875 46 82.875 41.5 81.25 37.5C80.875 36.25 80.375 35.25 79.875 34.375Z" fill="#C4CED4"/>
<path d="M51.25 4.75C51.25 4.75 51.875 5.25 51.875 5.875L51 13.375L52.75 13.625C53.125 13.625 53.375 13.625 53.5 13.375C53.5 13.375 53.75 11.5 54 9.375L55.75 13.25C56 13.875 55.5 13.875 55.5 13.875L56 14L57.75 14.25C58.125 14.25 58.375 14.25 58.5 14L59.25 5.625L56.875 5.375L56.25 5.25C56.25 5.25 56.875 5.625 56.75 6.25L56.375 9.5L54.375 5.125C54.375 5 54.25 5.00001 54.125 4.87501C53.875 4.87501 52.125 4.625 52.125 4.625L51.25 4.75ZM50 4.87501C49.75 4.87501 48.75 5 47.875 5C47.625 5 47.25 5 47.25 6L47.625 13.5L50 13.375H50.125C50.125 13.375 50 13.125 49.875 12.625C49.875 12.625 49.5 5.75001 49.5 5.50001C49.625 5.12501 50 4.87501 50 4.87501ZM44.875 5L41.75 5.625C41.75 5.625 42.5 5.875 42.625 6.5L43.125 8.62501L41.375 9C40.875 9.125 40.75 9.625 40.75 9.625L40 6L37.125 6.625C37.125 6.625 37.75 6.875 37.875 7.5L39.375 14.875L41.125 14.5C41.5 14.375 41.75 14.375 41.75 14.125L41.125 11.125L43.5 10.625L44.125 13.875L45.875 13.5C46.25 13.375 46.5 13.375 46.5 13.125L44.875 5ZM62.125 6.625C62 6.625 61.875 6.62501 61.75 6.75001C61.25 6.87501 60.875 7.5 60.625 8.375L59.375 11.875C59.25 12.25 59.125 12.625 59.125 12.875C59 13.375 59.125 13.875 59.5 14.125C59.875 14.375 60.375 14.75 61.25 15L62.75 15.5C63.875 15.875 64.625 16 65 15.75C65.5 15.625 65.875 15 66.125 14.125C66.125 14.125 66.75 12.5 66.75 12.25C66.875 11.75 66.5 11.5 66.375 11.5L63.5 10.5C63.125 10.375 63 10.625 62.875 10.875C62.75 11.125 62.375 12.25 62.375 12.25L62.25 12.625C62.25 12.625 62.625 12.25 63 12.5L64 12.875C63.875 13.25 63.625 13.5 63.5 13.5C63.375 13.5 63 13.5 62.5 13.25C62.5 13.25 62.125 13.125 62 13C61.75 12.875 61.625 12.625 61.625 12.375C61.625 12.25 61.75 12 61.75 11.75L62.375 9.75C62.5 9.25 62.75 8.875 62.875 8.875C63.125 8.875 63.375 8.875 64 9L66.625 9.87501C67.125 10 67.125 10.625 67.125 10.625L67.25 10.125L67.75 8.75C67.875 8.25 67.5 8 67.125 7.875L63.75 6.75001C63.25 6.75001 62.625 6.625 62.125 6.625ZM35.25 7.25C35.125 7.25 35 7.25 34.875 7.25L32 8.5C31 9 30.25 9.375 30.125 9.75C29.875 10.125 30 10.875 30.375 11.75L30.75 12.5C30.75 12.625 30.875 12.75 30.875 12.875C31.125 13.25 31.5 13.5 32 13.625C32.625 13.75 33.25 13.75 34 13.375L35.125 12.875C35.625 12.75 35.875 12.75 36.125 13C36.125 13.125 36.25 13.125 36.25 13.25C36.25 13.25 36.375 13.625 35.5 14L33.25 15C32.75 15.125 32 14.625 32 14.625C32 14.625 32.5 15.75 32.75 16.375C32.875 16.75 33.375 17 33.875 16.875L34.125 16.75L35.75 16.125L36.875 15.625C37.875 15.125 38.625 14.75 38.75 14.375C39 14 38.875 13.375 38.5 12.375C38.5 12.375 38.25 11.75 38.125 11.5C37.625 10.5 36.375 10.125 35.25 10.625L33.875 11.125C33.375 11.375 33.125 11.25 32.875 11C32.875 11 32.875 10.875 32.75 10.875C32.75 10.625 32.5 10.375 33.25 10L35.625 9C36.125 8.75 36.875 9.25001 36.875 9.25001C36.875 9.25001 36.375 8.12501 36.125 7.37501C35.875 7.50001 35.5 7.25 35.25 7.25ZM69.5 9.125C69.25 9.125 69.125 9.25 69.125 9.375C69 9.50001 68.375 10.75 68.375 10.75L68 11.375C68 11.375 68.5 10.875 69.125 11.25L70.375 12L67.125 17.625L69.375 19C69.375 19 69.375 18.625 69.625 18.25C69.625 18.25 71.375 15.125 72.5 13.25L73.5 13.875C74.125 14.25 74 15.125 74 15.125L74.5 14.25L75.375 12.75L71.75 10.625L69.75 9.5C69.625 9.125 69.5 9.125 69.5 9.125ZM24.75 12.625L23.375 13.625C23.125 13.875 23 14 23 14.375L25.375 21.75C25.5 22.25 25 23 25 23L27.5 21.25C27.75 21.125 27.75 20.875 27.75 20.625L27.375 19.625L29.25 18.125L30 18.625C30.375 19 30.125 19.375 30.125 19.375L32.875 17.5C32.875 17.375 24.75 12.625 24.75 12.625ZM76.5 14C76 14 75.5 14.375 74.875 15.25L72.625 18.25C72.375 18.625 72.125 18.875 72 19.125C71.75 19.625 71.75 20.125 71.875 20.5C72.125 20.875 72.5 21.375 73.25 21.875L74.5 22.875C75.375 23.625 76.125 23.875 76.625 23.875C77.125 23.875 77.625 23.5 78.25 22.625L80.625 19.625C80.875 19.25 81.125 19 81.25 18.75C81.5 18.25 81.5 17.75 81.25 17.375C81.125 17 80.625 16.5 79.875 16L78.625 15C77.75 14.375 77 14 76.5 14ZM20.5 15L20.25 15.25L18.875 16.75C18.75 17 18.5 17.125 18.625 17.375L22 22.625L17.125 20C16.5 19.75 16.75 19.125 16.75 19.125L16.25 19.625L15.25 20.75C15 21 14.875 21.375 15 21.625L18.5 26.5L13.625 24C13 23.625 13.25 23 13.25 23L12.75 23.625L11.625 24.875C11.375 25.125 11.25 25.625 11.5 25.75L19 29.25L20.75 27.25C21 27 21 26.875 21 26.5L19.625 23.875L22.5 25.375L24.375 23.25C24.625 23 24.625 22.625 24.5 22.375L20.5 15.625C20.5 15.5 20.5 15 20.5 15ZM26 16.125L27.125 16.875L26.375 17.375C26.5 17.375 26 16.125 26 16.125ZM77.125 16.75C77.25 16.75 77.625 16.875 78 17.25C78.25 17.5 78.375 17.625 78.5 17.625C78.75 17.875 78.75 18.125 78.625 18.375C78.5 18.5 78.375 18.625 78.25 18.875L77 20.5C76.625 21 76.375 21.125 76.125 21.125C76 21.125 75.75 21 75.375 20.625C75.125 20.5 75 20.25 74.875 20.25C74.625 20 74.625 19.75 74.75 19.5C74.875 19.375 75 19.125 75.125 19L76.375 17.375C76.625 17 76.875 16.75 77.125 16.75ZM50.25 17.5C32.125 17.5 17.375 32.25 17.375 50.375C17.375 68.5 32.125 83.25 50.25 83.25C68.375 83.25 83.125 68.5 83.125 50.375C83.125 32.25 68.375 17.5 50.25 17.5ZM83.25 19.25C83.25 19.25 83.375 20 82.875 20.375L76.875 25L78 26.375C78.25 26.625 78.375 26.875 78.625 26.75C78.625 26.75 80.125 25.625 81.875 24.25L80.375 28.125C80.125 28.75 79.625 28.375 79.625 28.375L79.875 28.75L81 30.125C81.25 30.375 81.375 30.625 81.625 30.5L88.125 25.375L86.625 23.5L86.25 23C86.25 23 86.375 23.75 85.875 24.125L83.375 26.125L85 21.625C85 21.5 85 21.375 84.875 21.25C84.75 21 83.625 19.625 83.625 19.625L83.25 19.25ZM10.875 32.625L9.75003 36.125H6.125L9.12503 38.25L8 41.75L11 39.625L14 41.75L12.875 38.25L15.875 36.125H12.25L10.875 32.625ZM89.625 33.125L88.5 36.625H84.875L87.875 38.75L86.75 42.25L89.75 40.125L92.75 42.25L91.625 38.75L94.625 36.625H91L89.625 33.125ZM75.25 77.625C75.125 77.625 75.125 77.625 75 77.625C74.875 77.625 74.75 77.625 74.75 77.75L72.125 79.5C71.125 80.125 70.625 80.75 70.5 81.125C70.375 81.625 70.625 82.25 71.125 83L71.625 83.75C71.75 83.875 71.75 84 71.875 84C72.25 84.375 72.625 84.5 73.125 84.5C73.75 84.5 74.375 84.25 75 83.875L76 83.125C76.375 82.875 76.75 82.875 77 83.125C77.125 83.25 77.125 83.25 77.125 83.375C77.125 83.375 77.375 83.75 76.5 84.25L74.5 85.625C74 85.875 73.25 85.625 73.25 85.625C73.25 85.625 74 86.625 74.375 87.25C74.625 87.625 75.125 87.75 75.5 87.5L75.75 87.375L77.125 86.375L78.125 85.625C79.125 85 79.625 84.375 79.75 84C79.875 83.625 79.625 83 79.125 82.125C79.125 82.125 78.75 81.5 78.5 81.375C77.75 80.5 76.5 80.375 75.5 81L74.25 82C73.875 82.25 73.5 82.375 73.25 82.125L73.125 82C73 81.875 72.75 81.5 73.375 81.125L75.5 79.625C76 79.25 76.875 79.625 76.875 79.625L75.75 78C75.625 77.75 75.5 77.625 75.25 77.625ZM23.75 77.75C23.625 77.75 23.375 77.875 23.375 78L20.625 85.75L22.875 87.125C23.125 87.375 23.375 87.375 23.625 87.25L26 85.375L25 88.5L27.375 90C27.625 90.25 28 90.125 28.375 90L34 84.75C34.375 84.375 34.75 84.5 34.75 84.5L34.5 84.375L32.75 83.25C32.5 83.125 32.375 83 32.125 83L28.375 86.75L29.75 82.25C29.875 81.875 30.5 81.875 30.5 81.875L29.875 81.5L28.625 80.75C28.25 80.5 28 80.5 27.75 80.625L23.875 84.25L25.625 79.875C25.875 79.25 26.625 79.375 26.625 79.375L26 79L24.5 78.125C24.125 77.75 24 77.75 23.75 77.75ZM68.375 82.625C68.125 82.625 67.75 82.75 67.25 83L61.5 85.5C61.5 85.5 62.25 85.625 62.625 86.125L65.25 92.25C65.375 92.625 65.25 93.125 65.125 93.25L70.75 90.875C71.5 90.5 72 90.125 72.125 89.75C72.25 89.375 72.125 88.75 71.75 87.75L70.125 84.125C70 83.75 69.875 83.625 69.75 83.375C69.5 82.875 69.125 82.625 68.875 82.625C68.5 82.625 68.5 82.5 68.375 82.625ZM35.875 84.75C35.625 84.75 35.375 84.875 35.125 85.5L32.625 92.625L34.875 93.375H35C35 93.375 35 93 35.125 92.625C35.125 92.625 37.375 86.125 37.5 85.875C37.625 85.625 38.125 85.375 38.125 85.375C37.875 85.25 37 85 36.125 84.625C36.125 84.75 36 84.75 35.875 84.75ZM67.5 85H67.625C67.75 85 67.875 85.125 67.875 85.25C68 85.375 69.375 88.625 69.375 88.75C69.375 88.875 69.25 89 69.125 89.125L66.875 90.125L65.625 87.125C65.5 86.875 65.375 86.5 65.125 86L67.25 85.125C67.375 85 67.5 85 67.5 85ZM39.375 85.875C39 85.875 38.875 86.25 38.75 86.625L38.5 87.75L38.375 88.25C38.375 88.25 38.875 87.875 39.375 88L42.25 88.625L37.375 92.75L37.125 94.125L43.5 95.5C43.875 95.625 44.25 95.625 44.375 95.25L44.875 93.125C44.875 93.125 44.375 93.625 43.875 93.5L40.75 92.875L45.75 89L46.125 87.375C46.125 87.375 39.75 86 39.625 86C39.5 85.875 39.5 85.875 39.375 85.875ZM60.125 86C59.875 86 59.625 86 59.25 86.125L53.125 87.25C53.125 87.25 53.875 87.5 54 88.125L55.375 95.5L57.125 95.125C57.5 95.125 57.75 95 57.75 94.75L57.25 92.25L58.375 92L60.375 94.5L63.375 93.875C63.375 93.875 62.875 93.75 62.5 93.5L60.625 91.5C61 91.375 61.375 91.125 61.5 91C61.75 90.625 61.75 90 61.5 89C61.5 89 61.125 87.25 61.125 87C61 86.5 60.75 86.125 60.375 86C60.5 86 60.375 86 60.125 86ZM48.75 87.25C48.375 87.25 48.25 87.375 48 87.625L45.75 95C45.625 95.5 44.625 95.875 44.625 95.875H47.75C48 95.875 48.25 95.625 48.25 95.375L48.5 94.375H50.875L51.25 95.25C51.375 95.75 50.875 95.875 50.875 95.875H54.25L50.5 87.25H48.75ZM59.125 88.25C59.25 88.25 59.375 88.375 59.5 88.625C59.625 88.75 59.625 89.375 59.625 89.625C59.625 89.75 59.5 89.875 59.25 89.875L57.875 90.125C57.5 90.125 57.375 90.5 57.125 90.875L56.75 88.625L59 88.125C59 88.25 59 88.25 59.125 88.25ZM49.625 91L50.125 92.25H49.25L49.625 91Z" fill="white"/>
<path d="M50.25 20.25C48 20.25 45.875 20.5 43.875 20.875C45.375 21.625 46.8751 23.125 47.8751 25.75L50.25 22.25L52.625 25.75C53.625 23.125 55.1251 21.75 56.6251 20.875C54.5001 20.5 52.375 20.25 50.25 20.25ZM40.75 21.75C31.875 24.75 24.875 31.625 21.875 40.375C25.875 34.25 33.875 27.375 45.875 26C44.875 23.5 42.625 22.375 40.75 21.75ZM59.7501 21.75C57.8751 22.375 55.625 23.5 54.625 26C66.625 27.375 74.5001 34.125 78.5001 40.25C75.5001 31.625 68.5001 24.75 59.7501 21.75Z" fill="#E31837"/>
<path d="M60.5 29.625C59.375 29.625 58.875 30 58.875 30L55.5 31.875L55.625 32.5L56.375 35.25C56.375 35.25 57.75 39.25 61.25 42.625C67.75 49 75.875 58.375 75.125 66.875C78.25 62.25 80.125 56.625 80.25 50.625C79.75 47.625 78.75 44.875 77.5 42.625C75.25 38.25 70.875 34.25 65.625 31.125C63.25 29.875 61.625 29.625 60.5 29.625ZM39.875 29.625C38.75 29.625 37.125 29.875 34.875 31.25C29.5 34.375 25.125 38.5 23 42.75C21.75 45.125 20.75 47.875 20.25 51C20.375 56.875 22.25 62.375 25.375 67C24.5 58.5 32.75 49.125 39.25 42.75C42.625 39.375 44.125 35.375 44.125 35.375L44.875 32.625L45 32L41.5 30C41.5 30 41 29.625 39.875 29.625ZM50.25 35.875C49.875 36.125 38.875 44.125 34 52C27.375 62.625 28.25 68.75 30 72.25C34.25 76.125 39.625 78.875 45.5 79.75L48.125 43.375L50.25 41.25L52.375 43.375L55 79.75C61 78.75 66.375 76.125 70.625 72.125C72.25 68.625 73.125 62.5 66.625 51.875C61.625 44.125 50.625 36.125 50.25 35.875Z" fill="#002B5C"/>
<path d="M50.25 24.625L49.875 25.375L49.125 26.75L48.75 27.5V27.625H47.875C46.5 27.75 45.25 27.875 43.875 28.125C43.25 28.25 42.75 28.25 42.125 28.375L44 29.375L45.875 30.375L46.5 30.625L47.125 30.875L46.75 32.125V32.25L46.625 32.875L45.625 36.625L48 34.875L49.625 33.75L50.125 33.375L50.625 33L51.125 33.375L51.625 33.75L55.5 36.625L54.5 32.875L54.375 32.5L54.25 32.125L53.875 30.875L54.25 30.625L55 30.25L57.5 28.875L58.75 28.25C58.125 28.125 57.625 28 57 28C55.75 27.75 54.375 27.625 53.125 27.5H52.125L51.75 26.75L50.25 24.625ZM50.25 41.375V82.5L54.875 79.875L52.25 43.5L50.25 41.375Z" fill="#C4CED4"/>
</svg>
