<svg width="142" height="142" viewBox="0 0 142 142" fill="none" xmlns="http://www.w3.org/2000/svg">
<g clip-path="url(#clip0_45_458)">
<path d="M17.6864 24.498C31.7388 7.76913 54.153 -1.04597 75.7833 0.540843L75.7839 0.541653C90.809 1.88222 104.319 7.35279 116.02 16.8727L116.02 16.8735L116.895 17.5822C131.116 29.5298 138.947 46.9144 140.831 65.1114C142.272 82.1735 137.07 98.6105 127.104 112.36L127.098 112.37C126.801 112.82 126.503 113.271 126.197 113.735C116.717 127.804 99.4711 136.728 83.1453 139.953C65.8866 142.966 46.9693 139.427 32.4678 129.472C31.3161 128.656 30.1735 127.828 29.0291 126.998L29.0198 126.991L27.6545 126.09C13.5877 116.612 4.66388 99.3691 1.43716 83.0449C-1.70513 65.0558 2.43631 45.9848 12.7038 30.8991C13.7429 29.4898 14.8011 28.1023 15.8861 26.7329L16.9804 25.3695C17.2131 25.0821 17.4454 24.7937 17.6851 24.4977L17.6864 24.498Z" fill="#AFFF25" stroke="#AFFF25" stroke-width="0.54817"/>
<path d="M10.4831 61.3848C10.5923 61.2501 10.7512 61.146 11.1655 60.8893C12.7876 60.5938 14.2825 60.6707 15.9723 60.7654L15.9737 60.7657C18.216 60.8864 20.4016 60.9295 22.6457 60.7936C22.5785 61.2025 22.5115 61.6136 22.4423 62.0344L22.4391 62.0542L22.4387 62.0745C22.4209 63.2095 22.4848 64.0111 22.7677 64.7402C23.0507 65.4697 23.5427 66.1003 24.3203 66.9171L24.36 66.9587L24.4126 66.9809C25.3687 67.3815 26.0867 67.5811 26.8202 67.5682C27.5507 67.5553 28.2682 67.3311 29.2209 66.9431L29.2523 66.9303L29.2801 66.9104C31.0324 65.6192 31.7733 63.9139 32.7032 62.0927C33.6574 60.314 34.1098 59.476 34.5962 58.9597C35.0615 58.4661 35.5587 58.266 36.6874 57.8273C37.4982 57.6017 38.3149 57.3951 39.1355 57.2045L39.155 57.1985C40.1645 56.8821 41.1728 56.561 42.1796 56.2361L42.1802 56.2369C42.9153 56.0144 43.6505 55.7935 44.3862 55.5744C44.5 55.8314 44.5332 55.9044 44.7012 56.2841L44.7031 56.2887C45.2796 57.5196 45.5814 58.1669 45.9862 58.7352C46.3915 59.3039 46.8981 59.7908 47.859 60.7179L47.9365 60.7929L48.0446 60.7943C49.7887 60.8232 51.0065 60.4523 52.4283 59.4273L52.4645 59.4006L52.4912 59.3651C53.7011 57.6816 53.6816 56.0827 53.8919 54.16L53.8905 54.1597C54.0499 52.8438 54.2469 51.7822 54.6449 50.83C55.0399 49.8849 55.6401 49.0343 56.627 48.155C58.2719 46.8771 60.0062 45.7475 61.7803 44.6356L61.7876 44.6307C63.1249 43.732 64.2593 42.689 65.4026 41.6011C65.5389 41.8278 65.6767 42.0558 65.8168 42.2887L65.8201 42.2936C66.2146 42.9199 66.215 42.9206 66.6168 43.5584C66.8742 43.9753 67.1309 44.3925 67.3961 44.822L67.4081 44.8398C67.8013 45.3802 68.0329 45.704 68.3313 45.9183C68.6332 46.1351 68.9946 46.2334 69.5871 46.4012L69.6204 46.4105L69.6554 46.4117C71.7099 46.4587 72.762 45.4475 74.1679 44.2284L74.2238 44.1802L74.2473 44.1103C74.7085 42.759 74.7861 41.6506 74.6267 40.5502C74.4698 39.4671 74.0828 38.3977 73.6348 37.137C73.2971 35.9332 73.0569 35.0613 73.0067 34.2017C72.9576 33.3599 73.0908 32.5173 73.5276 31.3891C74.7059 29.6204 75.284 28.7572 75.783 28.1843C76.2434 27.6557 76.6341 27.3785 77.4142 26.8528L78.9674 27.8759C79.7305 28.4348 80.1418 28.737 80.4861 28.9105C80.8516 29.0947 81.1451 29.1363 81.6392 29.2093L81.7281 29.2225L81.8073 29.181C83.0397 28.5363 83.6939 28.196 84.2339 27.7406C84.7751 27.2841 85.1966 26.7153 85.992 25.6494L86.0472 25.5758L86.0468 25.4842C86.0347 23.4549 85.0481 22.1436 84.1048 20.5151C82.8655 18.223 82.0241 16.5195 82.6599 13.9981C82.8981 13.3292 83.0744 12.9048 83.3303 12.5609C83.5778 12.2285 83.9141 11.9535 84.503 11.6238C87.3353 11.0776 91.0464 12.1807 94.6968 13.841C97.8928 15.2947 100.994 17.1522 103.338 18.6161L104.294 19.217C118.962 29.5042 128.1 44.1121 131.261 61.663C132.214 67.5979 132.883 74.5208 130.663 80.1465C130.084 80.1276 129.503 80.1088 128.907 80.0893L126.342 80.0103C125.92 79.9963 125.497 79.9823 125.062 79.9679L123.347 79.9292C121.751 79.9076 120.161 79.9311 118.555 80.0322C118.622 79.624 118.69 79.2136 118.759 78.7936L118.763 78.7732L118.763 78.7535C118.78 77.6184 118.716 76.8169 118.434 76.0878C118.151 75.3583 117.659 74.7284 116.881 73.9117L116.842 73.8701L116.789 73.847C115.833 73.4466 115.115 73.2464 114.382 73.2592C113.651 73.2721 112.934 73.4964 111.981 73.8843L111.949 73.8977L111.921 73.9176C109.694 75.5677 108.641 78.1914 107.484 80.5084C106.981 81.3004 106.696 81.6931 106.34 81.95C105.984 82.2066 105.535 82.3443 104.647 82.5489L104.632 82.5524L104.619 82.5568L102.651 83.2378C101.922 83.4886 101.192 83.739 100.463 83.9895C100.089 84.1181 99.7146 84.2466 99.3292 84.3791C98.502 84.6634 97.6746 84.9476 96.8474 85.2317C96.7204 84.7737 96.5936 84.3128 96.463 83.8414L96.4542 83.8108L96.4381 83.7816C95.8253 82.6792 95.5022 82.0947 95.0821 81.5996C94.6615 81.1038 94.1469 80.7016 93.179 79.9409L93.0912 79.8717L92.9813 79.8832L92.3922 79.9593C91.0536 80.1675 89.9449 80.6019 88.7757 81.4223L88.7389 81.4482L88.7123 81.4837C87.4987 83.1368 87.6222 84.6688 87.4798 86.5557C87.3279 88.1057 87.0166 89.2565 86.4561 90.2654C85.8952 91.2752 85.0735 92.1627 83.8682 93.1702C81.3202 95.091 78.6713 96.8572 75.9537 98.5352C75.7849 98.3145 75.7358 98.2484 75.4839 97.9191L75.4804 97.9156L74.641 96.8619C74.3702 96.5162 74.099 96.1709 73.82 95.8147L73.8078 95.7982L73.7923 95.7839L73.3894 95.4229C73.0004 95.0948 72.6453 94.8638 72.2526 94.7058C71.7313 94.4961 71.1663 94.4241 70.4095 94.3909L70.3377 94.3874L70.2737 94.4199C69.3507 94.8835 68.5777 95.2728 67.9531 95.8078C67.3169 96.3528 66.8427 97.0398 66.4834 98.0864L66.4727 98.1195L66.4693 98.1547C66.3073 100.315 66.9032 101.718 67.6259 103.664C67.9959 104.964 68.2275 105.843 68.2316 106.699C68.2356 107.539 68.0193 108.378 67.4486 109.578C66.3505 111.141 65.1011 112.554 63.7657 113.933C63.4091 113.643 63.0507 113.351 62.6835 113.052C62.0102 112.48 61.6333 112.156 61.218 111.965C60.7974 111.772 60.3455 111.718 59.5557 111.618L59.472 111.607L59.3969 111.646L58.5674 112.073C57.8325 112.458 57.3593 112.733 56.9535 113.075C56.4111 113.534 55.9935 114.109 55.2079 115.185L55.1548 115.259L55.1555 115.349C55.1668 117.37 56.1762 118.645 57.1332 120.247C58.2118 122.188 58.8789 123.608 58.657 125.803C58.1863 127.173 57.6722 128.434 57.0044 129.703C44.0291 128.682 32.1645 119.277 23.7736 109.822C13.777 98.1981 8.67809 82.6908 9.64794 67.4394C9.7286 66.4464 9.81859 65.4546 9.92191 64.4646L10.0297 63.4752L10.0305 63.4676C10.0672 63.0372 10.1029 62.6064 10.1407 62.1636C10.3056 61.6971 10.3729 61.5208 10.4831 61.3848Z" fill="#07033A" stroke="#AFFF25" stroke-width="0.54817"/>
<path d="M86.7634 101.784C88.8259 100.035 90.7869 98.5435 93.2434 97.4389C95.4323 97.7939 97.018 98.6832 98.794 100.058L99.5031 101.113L99.7073 101.033C101.263 100.428 102.091 100.108 102.758 99.6042C103.428 99.0992 103.928 98.4142 104.868 97.1364L104.925 97.0609L104.921 96.9667C104.875 95.3782 104.574 94.326 103.894 92.9737C106.376 91.6868 108.694 90.9855 111.456 90.3923C111.609 90.6077 111.762 90.8241 111.919 91.0458L111.925 91.0539C112.646 91.9973 113.243 92.734 113.951 93.344C114.664 93.958 115.481 94.4355 116.636 94.8805L116.672 94.8953L116.711 94.8981C117.625 94.9753 118.154 95.0238 118.621 94.8926C119.093 94.7603 119.489 94.4485 120.167 93.925L120.197 93.9021L120.22 93.87C120.787 93.096 121.154 92.4283 121.404 91.7113C121.635 91.0456 121.758 90.3475 121.855 89.5001C124.168 88.87 126.046 89.0275 128.43 89.3375C126.307 101.335 116.889 112.299 107.439 119.66L106.517 120.367C95.0511 128.381 80.6592 133.329 66.6101 131.543C66.9491 129.703 67.3006 128.071 68.0002 126.345C69.2728 125.682 70.4116 125.342 71.8484 125.079L71.8647 125.075C73.6609 124.633 74.7535 124.004 76.1573 122.826L76.1943 122.795L76.2182 122.752C76.5548 122.163 76.7412 121.839 76.8641 121.487C76.9867 121.134 77.0453 120.757 77.1532 120.07L77.1656 119.993L77.1347 119.92C76.8634 119.283 76.7177 118.94 76.5212 118.615C76.4232 118.453 76.3131 118.296 76.17 118.108L75.6222 117.42C75.1914 116.832 75.1895 116.828 74.7451 116.221L74.7399 116.215C74.5469 115.966 74.3537 115.718 74.1566 115.463C74.6256 114.718 75.1016 113.977 75.5816 113.237L75.5826 113.235C75.8638 112.796 76.1449 112.356 76.4344 111.903C76.9471 111.277 77.2884 110.903 77.6827 110.645C78.0668 110.393 78.5219 110.241 79.2815 110.108C80.9167 110.305 82.509 110.621 84.1383 110.944L84.1605 110.949L84.1844 110.95C85.2314 110.976 85.9811 110.853 86.6718 110.539C87.3534 110.23 87.9582 109.744 88.721 109.089L88.7583 109.057L88.7822 109.014C89.1558 108.34 89.3742 107.952 89.4588 107.519C89.5429 107.09 89.493 106.625 89.4106 105.81L89.4055 105.757L89.3809 105.71C88.6315 104.291 87.7386 103.03 86.7634 101.784Z" fill="#07033A" stroke="#AFFF25" stroke-width="0.54817"/>
<path d="M15.0167 45.3036C25.0705 23.2615 49.5651 7.16657 74.2275 9.61046C74.4846 10.6168 74.4814 11.3389 74.3026 12.0316C74.1128 12.7663 73.7266 13.4796 73.1971 14.4841C71.923 15.2406 70.8837 15.4669 69.3713 15.7288L69.3507 15.7332L68.9904 15.8309C67.2283 16.3366 66.0229 17.1282 64.5806 18.3052L64.5487 18.3313L64.5261 18.3642C64.192 18.8595 63.9757 19.1707 63.9066 19.5236C63.8379 19.8747 63.9187 20.2517 64.0383 20.8532L64.0461 20.8927L64.0646 20.9273C64.9106 22.5359 65.8149 24.1096 67.4303 25.1259C66.9049 25.8966 66.3745 26.6642 65.8396 27.4293L65.8385 27.4312C65.5151 27.8996 65.191 28.3676 64.858 28.8499C64.3197 29.479 63.9595 29.8732 63.5454 30.1495C63.1438 30.4174 62.6746 30.5851 61.9077 30.7191C60.63 30.5669 60.6253 30.5654 59.2596 30.2466L59.2582 30.2464L58.494 30.0743C57.7674 29.9172 57.1434 29.8116 56.5268 29.8216C55.6909 29.8352 54.8839 30.0592 53.8445 30.6054L53.8281 30.6142L53.8124 30.6259C53.1262 31.1158 52.7366 31.3911 52.4611 31.7384C52.1833 32.0888 52.0263 32.5053 51.7493 33.2295L51.7302 33.2799L51.7321 33.3352C51.7984 35.7872 53.023 37.2815 54.4228 39.0447C52.5118 40.6514 50.65 42.0449 48.3938 43.0837C46.3808 42.808 44.8939 41.9345 43.0925 40.8733L43.0673 40.8585L43.0396 40.8488L42.3382 40.625C41.6864 40.4264 41.1648 40.306 40.6444 40.3027C39.9398 40.2983 39.2612 40.5076 38.2793 40.9544L38.2382 40.9738L38.2047 41.0045C37.4484 41.7195 36.9838 42.2896 36.7063 42.9587C36.4306 43.6236 36.3513 44.3609 36.3122 45.3823L36.3103 45.4283L36.324 45.4733C36.5452 46.1904 36.6612 46.5669 36.8018 46.9044C36.9212 47.1911 37.0593 47.4479 37.2867 47.8598C34.9061 49.123 32.8304 50.0884 30.1636 50.1585C29.0878 49.2794 28.2118 48.3074 27.2681 47.2466L27.2673 47.2472C26.7905 46.7133 26.5096 46.3919 26.1007 46.1865C25.7032 45.9869 25.1921 45.9009 24.2917 45.7438L24.2529 45.7369L24.2126 45.7417L23.5632 45.8243C22.9506 45.9093 22.4418 46.0094 21.9718 46.1968C21.3352 46.4507 20.7862 46.8563 20.1283 47.5522L20.0822 47.6009L20.0638 47.6662C19.7917 48.6372 19.6513 49.1375 19.5557 49.6263C19.4675 50.077 19.4179 50.5168 19.3338 51.3033C17.3659 51.6004 15.4258 51.6125 13.4128 51.6011C13.0527 50.1278 13.3443 49.086 13.8796 47.8421L14.5095 46.4427C14.7609 45.8792 14.7603 45.8784 15.0167 45.3036Z" fill="#07033A" stroke="#AFFF25" stroke-width="0.54817"/>
</g>
<defs>
<clipPath id="clip0_45_458">
<rect width="141.435" height="141.467" fill="white"/>
</clipPath>
</defs>
</svg>
