<svg width="142" height="142" viewBox="0 0 142 142" fill="none" xmlns="http://www.w3.org/2000/svg">
<g clip-path="url(#clip0_45_443)">
<path d="M52.5233 2.76758C73.4697 -3.2541 97.0588 1.89728 114.074 15.2969V15.2979C125.795 24.8232 133.972 36.8436 138.368 51.3271V51.3281C138.477 51.6829 138.586 52.0378 138.698 52.4033C143.832 70.2544 140.623 89.055 132.028 105.205C123.831 119.931 110.633 130.562 95.0165 136.467L94.2704 136.744L94.2596 136.749C93.7615 136.957 93.2631 137.164 92.7499 137.378C77.0339 143.759 57.747 141.54 42.4012 135.106C26.3963 127.974 12.6708 114.478 6.19421 98.1211H6.19519C5.69496 96.8016 5.20911 95.4773 4.72253 94.1504V94.1494L4.71863 94.1387L4.08875 92.6289C-2.2926 76.9127 -0.0736969 57.6251 6.36023 42.2793C13.7934 25.5993 27.8742 12.0874 44.8134 5.30078C47.0116 4.515 49.216 3.7795 51.4481 3.09961V3.09863C51.8031 2.98958 52.1585 2.88091 52.5243 2.76855L52.5233 2.76758Z" fill="#AFFF25" stroke="#AFFF25" stroke-width="0.54817"/>
<path d="M66.1337 75.3333V131.244C62.1195 131.23 59.2816 130.897 55.4804 129.885L53.8085 129.443C48.9185 128.08 44.6185 126.154 40.2333 123.609L40.2314 123.608L38.5527 122.652H38.5536C35.3725 120.738 32.6237 118.473 29.9267 115.966L28.7734 114.877L28.7685 114.872L27.8369 114.027C27.1498 113.387 26.6289 112.861 26.2548 112.27C25.8988 111.707 25.6708 111.075 25.579 110.216C25.8652 109.821 26.0108 109.625 26.1904 109.431C26.3845 109.221 26.6198 109.01 27.121 108.565L27.1259 108.561C28.5941 107.198 29.954 105.818 31.2578 104.289L31.2587 104.29C32.4445 102.91 33.6555 101.621 34.9736 100.37L34.9785 100.366C39.0384 96.3247 42.3412 91.7977 44.9296 86.6946L44.9306 86.6956C45.1001 86.3649 45.2696 86.0343 45.4443 85.6936L45.4472 85.6877C47.0931 82.2818 47.9459 79.0024 49.0693 75.3333H66.1337Z" fill="#07033A" stroke="#AFFF25" stroke-width="0.54817"/>
<path d="M59.928 10.3438C61.9619 10.0292 64.0359 10.0927 66.1331 10.0986V66.0137H48.5422C48.0432 63.5184 48.0287 63.4432 47.4905 60.752L47.4866 60.7363L47.4817 60.7217L47.1848 59.8428C44.0155 50.8223 37.7263 43.6349 31.009 37.0742H31.01C28.6934 34.7707 26.4615 32.5374 25.0833 29.6289C25.2903 29.4484 25.4991 29.2678 25.7122 29.082C26.0745 28.7656 26.4365 28.4481 26.8098 28.1221L26.8108 28.123C27.2156 27.7712 27.6203 27.4191 28.0374 27.0566L28.0393 27.0547C28.8502 26.3379 29.6513 25.609 30.4387 24.8652C37.5983 18.1759 45.9677 14.0569 55.3782 11.5303V11.5293C55.9101 11.385 56.4424 11.2414 56.9905 11.0928L56.9895 11.0918C57.505 10.9608 58.0208 10.8303 58.552 10.6953C59.006 10.5792 59.4604 10.4633 59.928 10.3438Z" fill="#07033A" stroke="#AFFF25" stroke-width="0.54817"/>
<path d="M92.5213 75.3333C93.8158 79.2168 93.8375 79.2808 95.2 83.3684L95.2029 83.3772L95.2068 83.387C97.2823 88.3726 99.8966 92.5877 103.477 96.6194V96.6184C103.842 97.0356 104.206 97.4532 104.581 97.8831L104.582 97.885C106.493 100.04 108.447 102.144 110.458 104.206L111.527 105.317C112.234 106.049 112.947 106.776 113.666 107.497V107.496C114.147 107.997 114.147 107.999 114.64 108.512L114.643 108.514C114.929 108.805 115.215 109.096 115.509 109.395C115.788 109.85 115.894 110.031 115.937 110.228C115.98 110.426 115.961 110.651 115.904 111.208C115.261 112.758 114.109 113.697 112.817 114.872L112.81 114.879C112.437 115.242 112.064 115.603 111.68 115.977C103.306 123.895 93.3923 128.151 82.243 130.705L82.2381 130.706C81.5851 130.868 81.5805 130.869 80.9227 131.032C79.1303 131.308 77.3037 131.253 75.452 131.247V75.3333H92.5213Z" fill="#07033A" stroke="#AFFF25" stroke-width="0.54817"/>
<path d="M75.452 10.1019C78.5183 10.1103 80.9682 10.2659 83.8826 10.9838H83.8836C84.2844 11.0814 84.6855 11.179 85.0984 11.2797V11.2787C95.0594 13.8092 103.389 18.0589 111.177 24.8344L111.184 24.8402C111.82 25.3531 112.457 25.8646 113.095 26.3744V26.3754C114.309 27.4379 115.25 28.2694 116.006 29.6146C115.889 30.4986 115.65 31.1586 115.292 31.7543C114.918 32.3756 114.41 32.9378 113.747 33.6224L113.746 33.6234C113.378 34.0081 113.009 34.3932 112.63 34.7894C112.235 35.1942 111.841 35.599 111.434 36.016L111.432 36.0179C110.627 36.8618 109.821 37.7058 109.015 38.5502C107.768 39.8491 106.519 41.1463 105.268 42.4427L105.266 42.4457C98.836 49.3117 94.9255 56.7995 93.0447 66.014H75.452V10.1019Z" fill="#07033A" stroke="#AFFF25" stroke-width="0.54817"/>
<path d="M122.715 38.0576C126.599 44.6753 129.025 51.2041 130.828 58.6777L130.829 58.6816C130.947 59.1372 131.064 59.5934 131.185 60.0625C131.457 62.0175 131.379 64.0009 131.371 66.0137H102.396C104.03 59.679 106.692 54.9596 111.019 50.0234L111.02 50.0225C111.423 49.559 111.827 49.0957 112.242 48.6182L112.241 48.6172C114.53 46.0329 116.895 43.5525 119.376 41.1533L119.966 40.5635C120.122 40.4032 120.246 40.2679 120.365 40.124C120.603 39.8368 120.82 39.5173 121.235 38.9092C121.458 38.6273 121.682 38.3464 121.909 38.0576H122.715Z" fill="#07033A" stroke="#AFFF25" stroke-width="0.54817"/>
<path d="M18.8454 38.1406C20.4026 38.8477 21.3212 39.6323 22.445 41.0059L22.447 41.0088C23.8641 42.6913 25.3336 44.2381 26.9206 45.7578C32.8452 51.6426 37.0976 57.9253 39.1931 66.0137H10.2214C10.2357 61.9992 10.5704 59.1628 11.5817 55.3613V55.3604C11.7254 54.8126 11.8693 54.2645 12.0173 53.7002C13.2841 49.1237 15.1279 45.0615 17.3991 40.9365L17.8591 40.1104L17.8649 40.1006C18.1957 39.4505 18.5236 38.7972 18.8454 38.1406Z" fill="#07033A" stroke="#AFFF25" stroke-width="0.54817"/>
<path d="M131.367 75.3333C131.359 78.3997 131.204 80.8493 130.486 83.7639V83.7649C130.39 84.1645 130.292 84.5641 130.193 84.9758C128.556 91.4421 126.158 97.4754 122.759 103.212C121.193 102.503 120.272 101.719 119.145 100.341L119.143 100.338L118.609 99.7131C117.356 98.269 116.057 96.9181 114.668 95.5881C108.744 89.7036 104.492 83.4212 102.397 75.3333H131.367Z" fill="#07033A" stroke="#AFFF25" stroke-width="0.54817"/>
<path d="M39.1745 75.3333C35.9891 85.6609 29.9872 92.6759 22.2136 100.194L21.6237 100.783C21.4681 100.944 21.3436 101.079 21.2243 101.223C20.9873 101.509 20.7698 101.825 20.3581 102.428C20.1336 102.713 19.9093 102.998 19.6794 103.289H18.8825C14.1656 94.4818 10.2928 85.379 10.2233 75.3333H39.1745Z" fill="#07033A" stroke="#AFFF25" stroke-width="0.54817"/>
</g>
<defs>
<clipPath id="clip0_45_443">
<rect width="141.436" height="141.467" fill="white"/>
</clipPath>
</defs>
</svg>
