<svg width="141" height="141" viewBox="0 0 141 141" fill="none" xmlns="http://www.w3.org/2000/svg">
<g clip-path="url(#clip0_45_469)">
<path d="M113.121 0.275879C120.529 0.239439 128.071 1.11462 134.294 5.34229C140.2 11.9418 140.537 21.3812 140.436 29.9351V29.936L140.429 31.1343C140.204 58.9952 128.161 87.7805 109.06 108L109.058 108.002C108.679 108.411 108.299 108.821 107.908 109.242C90.4188 127.464 60.8734 139.369 35.7548 140.405L34.5614 140.446C32.966 140.476 31.3702 140.489 29.7733 140.497H29.7723C29.396 140.5 29.0195 140.503 28.6317 140.506C20.881 140.551 12.9034 139.819 6.38074 135.386C4.67138 133.556 3.72608 131.76 2.828 129.402L2.82703 129.399C2.60657 128.836 2.38611 128.273 2.15906 127.693C0.595457 122.593 0.281092 117.606 0.274292 112.305L0.276245 111.24L0.281128 110.066C0.425958 83.3997 11.1749 55.167 29.1161 35.312L29.9755 34.3726C30.2337 34.094 30.4917 33.8148 30.7577 33.5278C45.5113 17.78 65.8225 8.58989 86.4755 3.30908C87.096 3.1499 87.717 2.99066 88.3563 2.82666L88.3553 2.82568C95.0161 1.1914 101.604 0.381474 108.428 0.306152L109.796 0.300293C110.905 0.302036 112.014 0.28967 113.121 0.275879Z" fill="#07033A" stroke="#AFFF25" stroke-width="0.54817"/>
<path d="M113.121 0.275879C120.529 0.239439 128.071 1.11462 134.294 5.34229C140.2 11.9418 140.537 21.3812 140.436 29.9351V29.936L140.429 31.1343C140.204 58.9952 128.161 87.7805 109.06 108L109.058 108.002C108.679 108.411 108.299 108.821 107.908 109.242C90.4188 127.464 60.8734 139.369 35.7548 140.405L34.5614 140.446C32.966 140.476 31.3702 140.489 29.7733 140.497H29.7723C29.396 140.5 29.0195 140.503 28.6317 140.506C20.881 140.551 12.9034 139.819 6.38074 135.386C4.67138 133.556 3.72608 131.76 2.828 129.402L2.82703 129.399C2.60657 128.836 2.38611 128.273 2.15906 127.693C0.595457 122.593 0.281092 117.606 0.274292 112.305L0.276245 111.24L0.281128 110.066C0.425958 83.3997 11.1749 55.167 29.1161 35.312L29.9755 34.3726C30.2337 34.094 30.4917 33.8148 30.7577 33.5278C45.5113 17.78 65.8225 8.58989 86.4755 3.30908C87.096 3.1499 87.717 2.99066 88.3563 2.82666L88.3553 2.82568C95.0161 1.1914 101.604 0.381474 108.428 0.306152L109.796 0.300293C110.905 0.302036 112.014 0.28967 113.121 0.275879ZM90.2772 12.4487C87.4424 10.6986 83.3722 10.9233 78.8055 12.2837C74.0749 13.693 68.729 16.346 63.4901 19.4478C53.6655 25.2645 44.1704 32.6874 39.7303 36.5483L38.911 37.271C38.548 37.5945 38.1845 37.9182 37.8104 38.2515L37.8055 38.2563C25.7066 49.68 17.5435 67.1677 13.0321 82.8618C12.9136 83.267 12.7958 83.6728 12.6737 84.0903L12.6718 84.0952C12.0699 86.3225 11.7355 87.9356 12.5233 90.1899L12.537 90.231L12.5634 90.2651C13.6337 91.6747 14.8684 92.9007 16.1005 94.1323V94.1333C16.6513 94.6965 16.6519 94.6966 17.2137 95.271V95.272C18.4301 96.512 19.6547 97.7433 20.8798 98.9731C21.7289 99.8307 22.5787 100.689 23.4276 101.546C25.2086 103.343 26.9939 105.135 28.7821 106.924C29.9272 108.071 31.0685 109.221 32.2069 110.375L35.6171 113.841C37.3656 115.618 39.1253 117.384 40.8876 119.146V119.147C41.7304 119.993 42.5695 120.844 43.4042 121.699C44.5749 122.895 45.7601 124.074 46.9491 125.25C47.2897 125.604 47.6304 125.959 47.9813 126.325L47.9852 126.33C48.8703 127.21 49.3463 127.685 49.9012 128.011C50.4572 128.338 51.0865 128.512 52.2499 128.835L52.3016 128.849L52.3553 128.843C55.6113 128.467 58.7514 127.294 61.7938 126.264C62.3691 126.07 62.9443 125.876 63.537 125.676H63.5389C86.2245 117.851 104.389 104.443 116.621 83.6606L116.622 83.6616C116.815 83.3356 117.008 83.0092 117.208 82.6733L117.209 82.6724C121.812 74.8177 125.034 66.164 127.679 57.4956L127.68 57.4966C127.796 57.124 127.912 56.7515 128.032 56.3677L128.034 56.3618C128.342 55.2922 128.563 54.3779 128.611 53.4604C128.659 52.537 128.531 51.6209 128.156 50.5415L128.141 50.4995L128.115 50.4644L127.702 49.9438C127.001 49.0898 126.244 48.2996 125.472 47.5259L124.54 46.603C124.17 46.2291 123.8 45.8545 123.419 45.4692C122.191 44.232 120.955 43.0028 119.72 41.7749C118.866 40.9193 118.012 40.0637 117.158 39.2075V39.2065C115.367 37.4127 113.573 35.6225 111.775 33.8354H111.774C110.622 32.689 109.472 31.5397 108.323 30.3892L104.881 26.9331C103.119 25.163 101.351 23.3983 99.5819 21.6353H99.5829C98.7342 20.788 97.8863 19.9389 97.0409 19.0884C96.4501 18.4948 95.858 17.9026 95.2645 17.312L93.4813 15.5435C92.9583 15.0138 92.9577 15.0129 92.4227 14.4712L92.4188 14.4683L91.4344 13.5024C91.1546 13.2235 90.8751 12.9442 90.5868 12.6567L90.5682 12.6392L90.5477 12.6245L90.2772 12.4487Z" fill="#AFFF25" stroke="#AFFF25" stroke-width="0.54817"/>
<path d="M80.2742 37.554C80.9814 37.4517 81.7378 37.5356 82.8386 37.7356C84.4249 38.831 85.7663 40.1172 87.1365 41.5051L87.1404 41.509C87.5924 41.9497 88.0448 42.39 88.5105 42.844C88.7799 43.1246 89.0493 43.4054 89.3269 43.6946L89.4558 43.8293L89.6277 43.759C90.4325 43.4311 91.0317 43.1147 91.5789 42.7073C92.119 42.305 92.598 41.8203 93.1726 41.1692C93.9166 40.5117 94.2519 40.2205 94.6316 40.0403C95.006 39.8626 95.4316 39.7887 96.3748 39.637C97.4751 39.8153 98.2238 39.999 98.8728 40.3352C99.513 40.667 100.077 41.1585 100.784 41.9875C100.981 42.8438 101.07 43.2462 101.07 43.677C101.07 44.1142 100.978 44.5862 100.778 45.5842C99.6602 47.1561 98.3929 48.5264 97.0066 49.8879L96.8757 50.0168L96.9451 50.1877C97.7966 52.2605 99.0329 53.3993 100.638 54.8342V54.8352C101.817 55.9927 102.37 56.539 102.708 57.0823C103.032 57.6038 103.16 58.1276 103.425 59.26C103.127 60.3502 102.821 61.0887 102.371 61.7131C101.92 62.3393 101.312 62.869 100.384 63.5247C99.5136 63.6487 99.0911 63.7073 98.6462 63.7073C98.1995 63.7073 97.7272 63.6486 96.7595 63.5247C95.5285 62.5624 94.6211 61.7382 93.6013 60.5901L93.5955 60.5852L92.7771 59.7131H92.7761C92.1173 59.0095 91.4706 58.2937 90.825 57.5745L90.6941 57.428L90.5134 57.5061C88.5715 58.3371 87.3363 59.4421 85.9021 60.9241C85.515 61.3211 85.1281 61.7182 84.7292 62.1272L84.7273 62.1292C84.4362 62.433 84.1444 62.737 83.8445 63.05L83.7214 63.179L83.7898 63.343C84.6414 65.4158 85.8766 66.5555 87.4822 67.9905V67.9915C88.6603 69.1487 89.2135 69.6944 89.5515 70.2375C89.8759 70.7589 90.0051 71.2828 90.2693 72.4143C89.9714 73.5054 89.6645 74.2436 89.2146 74.8684C88.7636 75.4946 88.1557 76.0243 87.2273 76.6799C86.3574 76.804 85.9349 76.8635 85.49 76.8635C85.0433 76.8635 84.5709 76.8049 83.6033 76.6809C82.3722 75.7186 81.4648 74.8945 80.4451 73.7463L80.4392 73.7405L79.6208 72.8694C78.9619 72.1656 78.3145 71.4501 77.6687 70.7307L77.5378 70.5842L77.3572 70.6614C75.6578 71.3886 74.4999 72.3264 73.2761 73.5422L72.7458 74.0803C72.1654 74.6756 72.1654 74.6759 71.573 75.2834L71.571 75.2854C71.2801 75.589 70.989 75.8925 70.6892 76.2053L70.5652 76.3342L70.6335 76.4993C71.4851 78.5721 72.7203 79.7117 74.3259 81.1467V81.1477C75.5041 82.305 76.0572 82.8506 76.3953 83.3938C76.7197 83.9152 76.8488 84.4389 77.113 85.5706C76.8152 86.6617 76.5083 87.3999 76.0583 88.0247C75.6072 88.651 74.9998 89.1813 74.071 89.8372C73.2017 89.9611 72.7794 90.0197 72.3347 90.0198C71.8879 90.0198 71.4151 89.9602 70.447 89.8362C69.3725 88.9962 68.544 88.2622 67.6726 87.3254L67.2888 86.9026L67.2839 86.8967L66.4646 86.0256C65.8056 85.3218 65.1582 84.6063 64.5125 83.887L64.3816 83.7405L64.2009 83.8176C62.2593 84.6485 61.0245 85.754 59.5906 87.2356C59.0097 87.8313 59.0093 87.832 58.4167 88.4397L58.4148 88.4407C58.1237 88.7444 57.8328 89.0486 57.533 89.3616L57.4089 89.4905L57.4773 89.6555C58.2241 91.4732 59.2657 92.5734 60.5935 93.7844L61.1794 94.3127C62.3513 95.4639 62.9018 96.0083 63.239 96.55C63.5634 97.0715 63.6925 97.5951 63.9568 98.7268C63.659 99.8177 63.3529 100.556 62.9031 101.181C62.4519 101.807 61.8436 102.337 60.9148 102.993C60.0454 103.117 59.6232 103.176 59.1785 103.176C58.7317 103.176 58.2593 103.116 57.2917 102.992C56.0607 102.03 55.1524 101.207 54.1326 100.059L54.1277 100.053L53.3083 99.1819C52.6494 98.4781 52.002 97.7626 51.3562 97.0432L51.2214 96.8928L51.0388 96.9768C49.45 97.7049 48.5535 98.3282 47.2439 99.5491C46.367 100.202 45.96 100.503 45.53 100.693C45.1081 100.878 44.6578 100.96 43.6863 101.127C42.7803 100.959 42.3668 100.879 42.0134 100.716C41.6637 100.554 41.3661 100.307 40.7156 99.7571C40.1804 98.7459 39.8792 98.0108 39.7576 97.2581C39.6367 96.5097 39.6886 95.7221 39.8972 94.6028C41.0106 93.1957 42.2665 92.0222 43.6541 90.8577L43.8103 90.7268L43.7302 90.5403C42.9053 88.6139 41.824 87.4086 40.3435 85.9954C39.0073 84.7148 38.3862 84.1144 38.0515 83.5247C37.7291 82.9564 37.67 82.3918 37.5525 81.1233C37.6379 80.1328 37.6791 79.6763 37.7957 79.2991C37.9079 78.936 38.0917 78.6412 38.5037 77.9983C39.4295 77.4099 40.1061 77.123 40.8064 77.0217C41.5136 76.9195 42.27 77.0034 43.3708 77.2034C44.9571 78.2988 46.2986 79.585 47.6687 80.9729L47.6726 80.9768C48.1225 81.4155 48.5725 81.8541 49.0359 82.3059V82.3069C49.3072 82.5895 49.5787 82.8722 49.8582 83.1633L49.99 83.3L50.1638 83.2258C52.106 82.3947 53.3407 81.2881 54.7751 79.8059C55.3552 79.2111 55.3558 79.2111 55.948 78.6038L55.95 78.6018C56.241 78.298 56.5319 77.9939 56.8318 77.6809L56.9578 77.55L56.8865 77.384C56.0616 75.4578 54.981 74.2532 53.5007 72.8401C52.1642 71.5591 51.5426 70.9591 51.2078 70.3694C50.8848 69.8004 50.8256 69.2347 50.7078 67.9631C50.793 66.9752 50.8354 66.5196 50.9519 66.1428C51.0641 65.7801 51.2477 65.4858 51.6589 64.844C52.5855 64.255 53.262 63.9668 53.9626 63.8655C54.6694 63.7634 55.4255 63.8464 56.5251 64.0461C58.1122 65.1419 59.4543 66.4291 60.825 67.8176L60.8289 67.8206L62.199 69.1575C62.4681 69.4378 62.7371 69.7183 63.0144 70.0071L63.1462 70.1438L63.3201 70.0696C65.2619 69.2386 66.4963 68.1325 67.9304 66.6506L67.9314 66.6516C68.3186 66.2545 68.7053 65.8567 69.1042 65.4475L69.1062 65.4465C69.3972 65.1428 69.6882 64.8386 69.988 64.5256L70.114 64.3948L70.0427 64.2278C69.2178 62.3014 68.1365 61.0971 66.656 59.6838H66.657C65.3204 58.4028 64.6989 57.8029 64.364 57.2131C64.0412 56.6444 63.9817 56.0792 63.864 54.8088C63.9493 53.8195 63.9916 53.3636 64.1082 52.9866C64.2203 52.6241 64.4026 52.3296 64.8132 51.6887C65.7405 51.0991 66.4169 50.8106 67.1179 50.7092C67.8249 50.607 68.5814 50.6901 69.6814 50.8899C71.2682 51.9854 72.6098 53.2722 73.9802 54.6604V54.6614L73.9841 54.6653L75.3552 56.0012C75.6243 56.2815 75.8934 56.562 76.1707 56.8508L76.3025 56.9875L76.4763 56.9133C78.4185 56.0822 79.6533 54.9765 81.0876 53.4944L81.0867 53.4934C81.6669 52.8984 81.6681 52.8988 82.2605 52.2913L82.2625 52.2903C82.6991 51.8346 82.6989 51.8342 83.1443 51.3694L83.2703 51.2385L83.198 51.0715C82.373 49.1453 81.2926 47.9408 79.8123 46.5276H79.8132C78.4764 45.2464 77.8541 44.6468 77.5193 44.0569C77.1966 43.4882 77.138 42.9229 77.0203 41.6526C77.1056 40.6633 77.1478 40.2073 77.2644 39.8303C77.3766 39.4677 77.5593 39.1732 77.9705 38.5315C78.8971 37.9425 79.5735 37.6553 80.2742 37.554Z" fill="#AFFF25" stroke="#AFFF25" stroke-width="0.54817"/>
<path d="M10.1917 100.45C13.6297 103.313 16.7662 106.463 19.9329 109.646H19.9339C20.5304 110.244 21.1272 110.841 21.7239 111.438C23.2831 112.999 24.8405 114.563 26.3978 116.127C27.9917 117.726 29.5877 119.324 31.1829 120.922C34.2244 123.969 37.2643 127.018 40.303 130.068C37.7657 131.626 34.3088 132.042 30.7112 131.952C26.9845 131.858 23.166 131.223 20.1507 130.803H20.1478C19.687 130.743 19.2261 130.683 18.7513 130.622C15.9873 130.198 14.0507 129.579 11.9007 127.747C10.4815 125.2 9.78303 122.08 9.43781 118.853C9.09081 115.609 9.10178 112.283 9.08038 109.352V109.35C9.07532 108.922 9.07095 108.494 9.06573 108.052C9.08029 105.362 9.47912 103.022 10.1917 100.45Z" fill="#07033A" stroke="#AFFF25" stroke-width="0.54817"/>
<path d="M109.894 8.76831C113.584 8.85906 117.365 9.49931 120.352 9.96069H120.353L121.651 10.156C124.628 10.6623 127.219 11.2498 129.179 13.5593C130.083 15.7013 130.42 17.8062 130.743 20.1423V20.1433C130.812 20.6266 130.881 21.1102 130.952 21.6082V21.6091C131.795 27.9549 131.819 34.0123 130.466 40.2644C127.036 37.4057 123.905 34.2613 120.745 31.0847H120.744C120.147 30.4871 119.551 29.8892 118.954 29.2917C117.395 27.7305 115.837 26.1676 114.28 24.6042C112.686 23.0046 111.09 21.4064 109.495 19.8083C106.454 16.7612 103.414 13.7127 100.375 10.6628C102.904 9.1083 106.332 8.68071 109.894 8.76831Z" fill="#07033A" stroke="#AFFF25" stroke-width="0.54817"/>
</g>
<defs>
<clipPath id="clip0_45_469">
<rect width="140.724" height="140.783" fill="white"/>
</clipPath>
</defs>
</svg>
