<svg width="141" height="97" viewBox="0 0 141 97" fill="none" xmlns="http://www.w3.org/2000/svg">
<g clip-path="url(#clip0_45_479)">
<path d="M69.5293 0.00477606C69.988 0.00404631 70.4467 0.00331658 70.9193 0.00256472C78.7296 0.00525221 86.3298 0.509396 94.0462 1.77545C94.7741 1.88193 95.5019 1.98835 96.2298 2.09468C110.788 4.55829 127.626 10.948 136.481 23.3768C138.644 26.8655 139.937 29.9608 139.978 34.1192C139.987 34.7959 139.996 35.4727 140.005 36.1699C140.008 36.9026 140.011 37.6352 140.013 38.3679C140.018 39.1293 140.023 39.8907 140.028 40.6521C140.037 42.2467 140.041 43.8413 140.043 45.4359C140.046 47.4619 140.066 49.4873 140.091 51.5131C140.108 53.0865 140.112 54.6598 140.112 56.2333C140.115 57.3377 140.131 58.4421 140.148 59.5464C140.118 65.7881 138.607 70.9797 134.193 75.4966C133.929 75.7675 133.666 76.0384 133.394 76.3175C132.638 77.087 131.866 77.8416 131.094 78.5953C130.734 78.9598 130.375 79.3243 130.004 79.6998C124.413 85.0145 117.178 87.733 110.002 90.1578C108.875 90.541 107.756 90.9415 106.637 91.3475C97.6406 94.434 87.7379 95.8605 78.2464 96.0295C77.6786 96.0407 77.1108 96.0518 76.5257 96.0633C52.5533 96.4594 25.5759 94.4568 7.24937 77.0289C3.13426 72.7764 0.229097 68.0897 0.170016 62.0514C0.161306 61.3746 0.152595 60.6979 0.143621 60.0006C0.140145 59.268 0.137208 58.5353 0.134768 57.8027C0.129874 57.0412 0.124904 56.2798 0.119862 55.5184C0.110899 53.9238 0.106687 52.3292 0.105106 50.7346C0.102184 48.7086 0.0816957 46.6833 0.0567554 44.6575C0.0404041 43.084 0.036607 41.5107 0.0360636 39.9372C0.0327081 38.8328 0.0167173 37.7284 0.000366211 36.6241C0.030584 30.3543 1.55746 25.1735 5.98947 20.6399C6.25477 20.3672 6.52006 20.0945 6.7934 19.8135C7.53684 19.0573 8.29492 18.3156 9.05409 17.5753C9.36732 17.2571 9.68055 16.939 10.0033 16.6112C15.2873 11.642 22.449 8.46764 29.2125 6.13402C29.6031 5.99575 29.9936 5.85748 30.396 5.71502C38.3658 2.94181 46.4684 1.72875 54.8191 0.685803C55.2086 0.628828 55.5981 0.571853 55.9994 0.513152C60.4745 -0.0947533 65.0215 0.00900026 69.5293 0.00477606Z" fill="#AFFF25"/>
<path d="M65.3945 8.82697C85.3367 8.37017 110.275 10.3286 125.648 24.6582C128.791 27.7659 130.782 30.4347 131.368 34.9076C131.162 39.3604 128.414 43.0411 125.26 45.9764C122.987 47.8348 120.566 49.3538 118.02 50.8096C117.547 51.0835 117.074 51.3574 116.586 51.6396C100.618 60.2378 81.857 61.5866 64.083 61.1612C63.3737 61.1514 62.6643 61.1415 61.9335 61.1314C45.3322 60.5322 25.5846 56.3364 13.3848 44.2526C10.7476 41.4129 9.29619 39.0202 8.78363 35.1119C8.98701 30.7309 11.6728 27.0013 14.7937 24.1134C24.224 16.4737 35.8045 12.7027 47.6362 10.6631C48.307 10.5464 48.9778 10.4297 49.6689 10.3094C54.9492 9.41914 60.0404 8.95512 65.3945 8.82697Z" fill="#07033A"/>
<path d="M9.06013 52.4441C9.51516 52.7533 9.51516 52.7533 9.97938 53.0687C11.2997 53.9622 12.6308 54.8381 13.9635 55.713C14.4966 56.067 15.0296 56.4209 15.5788 56.7856C36.6789 70.3481 65.5669 71.546 89.6937 68.2439C90.1851 68.1795 90.6765 68.115 91.1829 68.0486C104.592 66.2245 118.068 62.2029 128.9 53.8423C130.01 52.9889 130.01 52.9889 131.1 52.4441C131.681 64.7282 131.681 64.7282 127.435 69.9443C124.717 72.9032 121.493 74.9777 118.024 76.961C117.551 77.2349 117.078 77.5088 116.59 77.791C100.622 86.3892 81.861 87.7381 64.0871 87.3127C63.3777 87.3028 62.6684 87.293 61.9376 87.2829C45.3362 86.6837 25.5887 82.4878 13.3889 70.404C9.63652 66.3636 8.80639 63.0528 8.95797 57.6539C8.96535 57.1514 8.97272 56.6489 8.98032 56.1312C8.99943 54.9018 9.02621 53.6731 9.06013 52.4441Z" fill="#07033A"/>
</g>
<defs>
<clipPath id="clip0_45_479">
<rect width="140.147" height="96.1063" fill="white"/>
</clipPath>
</defs>
</svg>
