<svg width="142" height="142" viewBox="0 0 142 142" fill="none" xmlns="http://www.w3.org/2000/svg">
<g clip-path="url(#clip0_45_430)">
<path d="M45.7442 4.74646C68.4547 -3.90134 95.0312 0.208795 114.077 15.2094C125.796 24.7344 133.973 36.7541 138.368 51.2367V51.2377L138.698 52.3138C143.832 70.1631 140.624 88.9618 132.031 105.111C123.704 120.073 110.213 130.807 94.2706 136.654L94.2598 136.659C93.7617 136.866 93.2633 137.074 92.7501 137.288C77.0321 143.671 57.7413 141.45 42.3946 135.014C26.3926 127.881 12.6713 114.386 6.19537 98.0316C5.94522 97.3718 5.69885 96.7103 5.45416 96.0482L4.72272 94.0599L4.71881 94.0492L4.08893 92.5394C-2.29258 76.8233 -0.0734322 57.5357 6.36041 42.1898C13.9888 25.0714 28.4293 11.7377 45.7442 4.74646Z" fill="#AFFF25" stroke="#AFFF25" stroke-width="0.54817"/>
<path d="M47.1465 14.0033C47.9428 13.85 48.7645 13.9272 49.8369 14.3646C51.3596 15.4014 51.3637 15.4054 53.0469 16.766L53.0479 16.767L54.9268 18.2552C55.2509 18.5117 55.5753 18.7684 55.9092 19.0326L55.9112 19.0345C57.1869 20.0233 58.4899 20.9718 59.7998 21.9076L61.1114 22.8402C61.4355 23.0708 61.7598 23.3009 62.0938 23.5385L62.0948 23.5394C63.4398 24.4929 64.7931 25.4289 66.1651 26.3451C66.704 28.6785 67.1495 31.6883 67.1475 34.641C67.1454 37.6317 66.6837 40.5253 65.4356 42.6029C63.6771 44.3607 61.5655 45.5078 59.336 46.6234L58.3692 47.1039L58.3604 47.1088C55.7891 48.4984 53.5267 50.3193 51.2393 52.0668C50.3686 52.7148 49.4971 53.3616 48.6241 54.0062H48.6231L47.5088 54.8344C46.2333 55.7633 45.641 56.1913 45.1436 56.3802C44.6769 56.5574 44.294 56.5238 43.3838 56.4281C42.3248 56.2454 42.3232 56.2458 41.2403 56.059L41.2217 56.056L41.2022 56.0551L38.6729 55.976C35.4202 55.6504 32.8377 55.08 30.4424 52.8627C28.8036 50.2523 27.8053 47.3042 26.8789 44.3353L26.4834 43.058L26.0576 41.6801H26.0567C25.6594 40.3586 25.2814 39.0338 24.916 37.7025L24.5772 36.4681C24.0388 34.3292 23.7939 32.7341 24.4522 30.6771C26.4089 27.4346 29.4922 24.6147 32.9209 22.1449C36.3582 19.6689 40.124 17.5576 43.416 15.7299L43.419 15.7279C43.7668 15.529 44.1144 15.3293 44.4727 15.1244C45.5221 14.5597 46.3314 14.1602 47.1465 14.0033Z" fill="#07033A" stroke="#AFFF25" stroke-width="0.54817"/>
<path d="M74.2272 96.0632C78.5237 95.9403 80.625 95.883 82.0417 96.1462C83.4149 96.4015 84.1324 96.956 85.6569 98.1531C87.9833 100.644 89.7683 103.42 91.3845 106.433C91.6123 106.909 91.7405 107.178 91.8923 107.393C92.0308 107.59 92.1888 107.739 92.4323 107.963C92.0497 112.053 91.0542 115.938 89.9157 119.901L89.9147 119.903C89.6884 120.712 89.474 121.524 89.2722 122.34C88.6147 124.983 87.9276 127.294 86.4958 129.573C84.2244 130.744 82.134 131.009 79.5475 131.154L79.5349 131.155L79.5231 131.157C78.7118 131.277 77.8999 131.4 77.0895 131.533C71.3122 132.037 65.6231 131.759 59.9225 130.809L58.7819 130.61L58.7731 130.609L56.7595 130.304C55.8716 129.913 55.4858 129.738 55.1852 129.444C54.879 129.144 54.6522 128.713 54.1511 127.74C54.0269 127.339 53.907 126.936 53.7907 126.532L53.447 125.293L53.445 125.286L53.0505 123.963C52.7805 123.051 52.517 122.138 52.2604 121.222V121.221C52.0697 120.548 51.8723 119.878 51.6706 119.209L51.0544 117.205C50.7998 116.38 50.545 115.556 50.2917 114.731L49.9343 113.571C49.3594 111.622 49.0823 110.679 48.985 109.98C48.8927 109.317 48.9631 108.883 49.1257 107.959C49.9272 106.732 50.7134 105.657 51.6442 104.537L51.6452 104.538L51.6481 104.534C52.1295 103.938 52.6095 103.34 53.0895 102.743L53.0905 102.744C53.325 102.463 53.5589 102.182 53.8005 101.892L53.8015 101.893L53.8034 101.889C54.1861 101.417 54.3906 101.166 54.5612 100.904C54.7311 100.643 54.8659 100.372 55.1179 99.8708L55.1188 99.8718C56.0694 98.1701 57.126 97.3453 58.3864 96.9226C59.6721 96.4915 61.1851 96.4701 63.0876 96.4265H63.0905C63.6767 96.4072 64.2629 96.3878 64.8669 96.3679L64.8659 96.3669C66.1055 96.3356 67.3456 96.3158 68.5856 96.3054H68.5876C70.4762 96.2764 72.3498 96.1718 74.2282 96.0642L74.2272 96.0632Z" fill="#07033A" stroke="#AFFF25" stroke-width="0.54817"/>
<path d="M92.4484 13.821C93.2118 13.5178 93.7728 13.6628 95.0832 14.033C96.2019 14.6235 96.2054 14.6267 97.5051 15.448L97.5148 15.4539L97.5256 15.4597C98.1175 15.7677 98.7097 16.075 99.3195 16.3923C103.691 18.689 107.435 21.4894 111.176 24.7419L111.186 24.7498C111.787 25.2288 112.39 25.7071 112.994 26.1833C114.153 27.2072 115.264 28.2147 116.332 29.3171L116.334 29.3181C116.604 29.593 116.875 29.8676 117.153 30.1501C117.925 31.7562 117.664 33.9304 117.024 36.2C116.704 37.3334 116.296 38.472 115.895 39.5505C115.495 40.6247 115.098 41.6471 114.809 42.5291V42.53C114.548 43.3387 114.296 44.1504 114.053 44.9646C113.043 48.3445 112.548 49.9958 112.029 51.0222C111.533 52.0052 111.023 52.3984 109.919 53.2351C108.556 53.7849 107.273 54.1294 105.821 54.4158L105.801 54.4197L105.782 54.4265C104.795 54.7791 104.793 54.7785 103.787 55.1375C103.216 55.3199 102.645 55.5032 102.057 55.6912L102.055 55.6921C101.477 55.8814 100.899 56.0694 100.304 56.2644C99.2584 56.4866 98.4509 56.5731 97.6818 56.4773C96.9129 56.3814 96.1605 56.1008 95.2346 55.5554C94.1324 54.8205 93.0617 54.0505 91.9894 53.2644L91.9875 53.2625L90.7775 52.3933C87.0839 49.7281 83.4196 47.0199 79.7639 44.3005L78.4943 43.3572H78.4933C78.1225 43.0807 77.7514 42.8041 77.3693 42.5193H77.3703C76.9101 42.1747 76.6644 41.9911 76.3957 41.8308C76.151 41.6849 75.8884 41.5593 75.4299 41.3445C74.662 34.9891 74.2856 31.8334 74.3889 29.7937C74.4403 28.7788 74.6104 28.0519 74.9094 27.3494C75.2093 26.6447 75.6402 25.9578 76.2346 25.0164C78.4356 22.8373 81.0692 21.4319 83.8576 20.0173L83.8654 20.0125C85.5494 19.0884 86.9504 17.9512 88.4045 16.7527C89.4884 15.8751 90.2949 15.2227 90.9387 14.7458C91.5838 14.268 92.0482 13.98 92.4484 13.821Z" fill="#07033A" stroke="#AFFF25" stroke-width="0.54817"/>
<path d="M113.409 61.5762C114.123 61.6019 114.697 61.8576 115.599 62.4092L116.628 63.0625C117.24 63.5023 117.849 63.9465 118.455 64.3945C119.133 64.8948 119.811 65.3953 120.489 65.8955C120.846 66.1595 121.203 66.4233 121.57 66.6953L121.573 66.6982C122.753 67.5486 123.956 68.3522 125.165 69.1514V69.1523C125.968 69.7037 126.773 70.2548 127.576 70.8066V70.8076L127.585 70.8125L128.76 71.5586C129.553 72.1176 130.169 72.5638 130.641 73.1025C131.104 73.6298 131.434 74.2543 131.634 75.1738C131.689 78.0752 131.194 80.9116 130.48 83.7383V83.7402C130.383 84.1337 130.287 84.5273 130.187 84.9326C129.405 87.9825 128.514 91.4467 127.252 94.7158C126.002 97.9532 124.394 100.976 122.19 103.208C112.866 104.177 108.225 104.659 105.241 104.55C103.754 104.496 102.689 104.295 101.667 103.938C100.645 103.581 99.6599 103.065 98.322 102.363C96.128 100.336 94.896 97.9462 93.9167 95.1064C93.7369 94.5478 93.6355 94.2286 93.444 93.9131C93.2574 93.6055 92.9866 93.3055 92.4997 92.7627C92.1643 92.2708 92.0377 92.0762 91.985 91.8525C91.9313 91.6238 91.9515 91.3523 92.0124 90.6924C92.1613 90.2222 92.3111 89.752 92.4645 89.2676V89.2656C92.6306 88.7293 92.7964 88.1922 92.9675 87.6396C93.6478 85.6564 94.3705 83.6911 95.11 81.7266H95.111L95.113 81.7207C95.99 79.2077 96.7067 76.653 97.4059 74.0957L97.4069 74.0967C97.5692 73.5211 97.7401 72.9488 97.9167 72.3779L98.4597 70.665L98.4636 70.6533C98.5785 70.2305 98.6929 69.8074 98.8112 69.3721C99.1566 68.342 99.4646 67.5496 99.9108 66.873C100.35 66.2067 100.932 65.6405 101.841 65.082C103.463 64.4115 105.083 63.8774 106.773 63.375L106.782 63.3721C107.641 63.0848 107.641 63.084 108.518 62.791C109.834 62.3681 110.811 62.0556 111.59 61.8516C112.368 61.6474 112.927 61.5589 113.409 61.5762Z" fill="#07033A" stroke="#AFFF25" stroke-width="0.54817"/>
<path d="M27.0308 61.6217C27.2611 61.5684 27.5168 61.5854 28.1353 61.6364C29.7213 62.1431 31.3063 62.6525 32.8892 63.1676L32.8961 63.1705L32.9039 63.1725C33.6172 63.3595 34.3317 63.5424 35.0464 63.7233V63.7242C35.7815 63.9275 36.5169 64.1317 37.2515 64.3365L37.2545 64.3375C37.9252 64.5165 38.5963 64.6943 39.2867 64.8785C40.5281 65.5891 41.2561 66.3513 41.7867 67.2604C42.1936 67.9575 42.4878 68.7435 42.8023 69.6793L43.1285 70.6676C43.3068 71.2075 43.4858 71.7472 43.6695 72.3033V72.3043C43.9548 73.2033 44.2333 74.1042 44.5074 75.0065L45.3189 77.7174L46.4156 81.3805C46.5922 81.9708 46.7688 82.5614 46.9507 83.1696L46.9527 83.1744C47.6594 85.3708 48.5107 87.4939 49.4078 89.609C49.59 90.4403 49.5892 91.0196 49.4566 91.5699C49.3205 92.1346 49.0419 92.6854 48.6314 93.4684C47.9249 94.5473 47.926 94.5467 47.1265 95.5856L47.1255 95.5865C46.8352 95.9679 46.5448 96.349 46.2457 96.7418C45.7925 97.3274 45.7929 97.328 45.3306 97.9254L45.3297 97.9264C44.7289 98.7099 44.1291 99.4942 43.5298 100.279L42.7242 101.322C42.384 101.761 42.2012 101.997 42.0416 102.261C41.8988 102.498 41.7759 102.755 41.5699 103.198H18.8912C13.8827 93.1809 13.8869 93.1819 12.7476 89.4811L12.7466 89.4791L12.3472 88.2252C11.4246 85.2723 10.6147 82.3713 10.2222 79.318L10.2203 79.3043L10.2173 79.2916L9.90875 77.9489C9.79167 77.1481 9.73691 76.5298 9.77399 75.9264C9.81013 75.3383 9.93429 74.7524 10.188 74.0192C11.9881 72.1621 13.9955 70.7592 16.1744 69.3199L16.1754 69.319C17.6043 68.3665 18.9907 67.3604 20.3755 66.358C21.3343 65.6657 22.299 64.9807 23.2662 64.2985L23.2652 64.2975C24.8607 63.2062 24.8806 63.1927 26.067 62.1149C26.5866 61.7996 26.8013 61.6749 27.0308 61.6217Z" fill="#07033A" stroke="#AFFF25" stroke-width="0.54817"/>
<path d="M70.304 49.4954C71.5155 49.767 72.6097 50.3418 73.6566 51.052C74.7417 51.7882 75.7499 52.6491 76.7952 53.4612L76.7972 53.4631C80.0881 55.9785 83.4196 58.4209 86.8099 60.801C87.2198 61.0888 87.6297 61.3766 88.0521 61.6731V61.6741C88.958 62.3089 89.8649 62.9424 90.7718 63.5754C90.1525 66.5463 89.414 69.4018 88.4212 72.2727V72.2737C88.1777 72.9852 87.9347 73.6974 87.6927 74.4094C87.5729 74.7617 87.4528 75.1139 87.3294 75.4768V75.4788C86.6152 77.6251 85.9749 79.794 85.3314 81.9553C84.6958 83.9395 83.9505 85.887 83.2142 87.8479H58.3782C54.6829 77.9937 54.6814 77.983 53.6907 74.3801L53.6898 74.3782L53.1585 72.5227C52.6208 70.6705 52.0576 68.8256 51.4232 66.9963C51.0961 65.9981 50.9426 65.5237 50.8655 65.094C50.7935 64.6919 50.7887 64.3259 50.7884 63.5852C51.8005 62.7484 52.7938 62.0183 53.887 61.2844L53.89 61.2815C54.5897 60.7974 55.2895 60.3134 55.9886 59.8284C56.3662 59.5685 56.744 59.3081 57.1331 59.0403H57.1341C59.3205 57.5203 61.4718 55.9518 63.6243 54.3918L63.6253 54.3928L64.9026 53.47C67.1636 51.8464 67.1711 51.8408 69.3587 50.1399C69.6713 49.9271 69.9836 49.7135 70.304 49.4954Z" fill="#07033A" stroke="#AFFF25" stroke-width="0.54817"/>
<path d="M124.502 41.9338C127.296 45.2783 128.405 49.5605 129.599 53.7659V53.7668L129.97 55.05C130.574 57.2543 130.923 59.1813 130.839 61.4319C128.338 60.5511 126.402 59.0441 124.238 57.4124L124.236 57.4114L124.232 57.4075L124.229 57.4065L124.225 57.4026L124.222 57.4016C124.221 57.4005 124.22 57.3989 124.219 57.3977C124.211 57.392 124.217 57.3966 124.21 57.3909C124.209 57.3901 124.206 57.3887 124.205 57.3879C124.204 57.387 124.202 57.386 124.201 57.385C124.188 57.3751 124.205 57.3877 124.192 57.3782C124.179 57.3686 124.195 57.3809 124.182 57.3713C124.179 57.3685 124.178 57.3675 124.174 57.3645C124.165 57.3581 124.174 57.3653 124.165 57.3586C124.161 57.3557 124.16 57.3547 124.156 57.3518L124.154 57.3499L124.151 57.3479C124.148 57.3459 124.15 57.3473 124.147 57.345C124.139 57.3391 124.138 57.3372 124.13 57.3313L124.127 57.3303L124.123 57.3264L124.121 57.3254C124.114 57.3205 124.118 57.3235 124.111 57.3186L124.094 57.3049L124.092 57.304L124.09 57.302L124.087 57.3L124.085 57.2981C124.078 57.2928 124.088 57.3005 124.081 57.2952C124.08 57.2945 124.077 57.293 124.076 57.2922L124.074 57.2903L124.071 57.2883C124.07 57.2872 124.069 57.2866 124.067 57.2854C124.064 57.2827 124.066 57.2842 124.062 57.2815L124.06 57.2805L124.058 57.2786C124.043 57.2669 124.065 57.2833 124.05 57.2717L124.047 57.2708L124.045 57.2688L124.04 57.2659L124.036 57.262C124.033 57.2601 124.034 57.2609 124.031 57.259C124.028 57.2566 124.026 57.2546 124.022 57.2522L124.02 57.2502L124.018 57.2493L124.015 57.2473L124.013 57.2454C124.006 57.2398 124.017 57.2477 124.01 57.2424C124.009 57.2418 124.006 57.2392 124.005 57.2385C123.997 57.2325 124.004 57.2385 123.996 57.2327L123.978 57.219L123.975 57.217L123.973 57.2161L123.971 57.2141L123.969 57.2122C123.961 57.2064 123.968 57.2114 123.96 57.2053L123.958 57.2043L123.956 57.2024L123.953 57.2004L123.951 57.1995C123.943 57.1936 123.95 57.1985 123.942 57.1926L123.938 57.1887L123.935 57.1877L123.933 57.1858C123.93 57.183 123.932 57.1856 123.929 57.1829L123.925 57.179C123.919 57.1746 123.922 57.1765 123.916 57.1721L123.904 57.1643L123.902 57.1624C123.896 57.158 123.903 57.1639 123.897 57.1594C123.894 57.1567 123.892 57.1553 123.888 57.1526C123.886 57.1507 123.881 57.1468 123.885 57.1497L123.882 57.1477L123.878 57.1438L123.876 57.1428C123.878 57.1447 123.868 57.1365 123.871 57.1389L123.869 57.1379L123.866 57.136L123.864 57.134L123.862 57.1331C123.859 57.1309 123.86 57.1313 123.857 57.1292C123.856 57.1279 123.855 57.1274 123.853 57.1262L123.85 57.1243L123.848 57.1223C123.847 57.1211 123.846 57.1206 123.845 57.1194C123.835 57.1121 123.845 57.1198 123.835 57.1125C123.818 57.1001 123.848 57.1221 123.831 57.1096C123.824 57.1048 123.833 57.1106 123.826 57.1057C123.818 57.0994 123.826 57.1063 123.817 57.0999L123.813 57.0959C123.807 57.0916 123.814 57.0972 123.808 57.093L123.791 57.0793L123.788 57.0774L123.786 57.0764L123.781 57.0725C123.78 57.0718 123.778 57.07 123.777 57.0696L123.772 57.0657L123.77 57.0647L123.768 57.0627L123.765 57.0608L123.763 57.0598C123.763 57.0596 123.76 57.0565 123.76 57.0559C123.75 57.0488 123.764 57.06 123.755 57.053L123.753 57.051L123.75 57.0491L123.748 57.0481L123.746 57.0461C123.744 57.0447 123.739 57.0409 123.737 57.0393C123.73 57.0341 123.739 57.0415 123.732 57.0364L123.73 57.0344L123.727 57.0325C123.724 57.03 123.727 57.0324 123.723 57.0295C123.722 57.0285 123.72 57.0277 123.719 57.0266L123.692 57.0061L123.689 57.0042L123.687 57.0032C123.68 56.9981 123.69 57.0042 123.683 56.9993C123.673 56.9915 123.689 57.004 123.679 56.9963C123.672 56.9915 123.68 56.9973 123.674 56.9924L123.672 56.9915L123.67 56.9895C123.666 56.9866 123.669 56.9895 123.665 56.9866L123.647 56.9729L123.645 56.9709L123.642 56.969C123.635 56.9635 123.646 56.9718 123.638 56.9661C123.633 56.962 123.634 56.9633 123.629 56.9592L123.627 56.9573L123.625 56.9563C123.623 56.9551 123.621 56.9535 123.62 56.9524L123.618 56.9514L123.616 56.9495C123.613 56.947 123.614 56.9488 123.611 56.9465C123.606 56.943 123.607 56.9431 123.602 56.9397L123.6 56.9377L123.597 56.9358L123.596 56.9348L123.594 56.9329C123.584 56.9254 123.599 56.9364 123.589 56.929L123.587 56.928L123.584 56.926C123.582 56.925 123.581 56.9241 123.58 56.9231C123.578 56.9218 123.577 56.9205 123.575 56.9192C123.565 56.9121 123.58 56.9232 123.571 56.9163C123.568 56.9141 123.569 56.9145 123.566 56.9124C123.558 56.9066 123.565 56.9114 123.557 56.9055C123.552 56.9015 123.554 56.9034 123.549 56.8997C123.539 56.8926 123.553 56.9029 123.544 56.8958C123.541 56.8935 123.542 56.8952 123.539 56.8928C123.535 56.8897 123.539 56.8922 123.535 56.8889L123.533 56.8879L123.53 56.886L123.513 56.8723C123.51 56.8707 123.51 56.871 123.508 56.8694C123.505 56.8676 123.506 56.8672 123.504 56.8655C123.498 56.8613 123.504 56.8666 123.499 56.8625L123.497 56.8606L123.494 56.8586C123.492 56.8571 123.492 56.8573 123.49 56.8557L123.487 56.8538L123.485 56.8518C123.47 56.8404 123.492 56.8573 123.476 56.8459C123.471 56.8419 123.477 56.8461 123.471 56.842C123.47 56.8408 123.469 56.8403 123.468 56.8391C123.467 56.8385 123.464 56.8358 123.463 56.8352L123.458 56.8323C123.452 56.828 123.455 56.8299 123.449 56.8254L123.447 56.8235L123.444 56.8225L123.438 56.8167L123.435 56.8157L123.431 56.8118C123.426 56.8074 123.432 56.8131 123.427 56.8088L123.425 56.8069L123.422 56.8049C123.419 56.8028 123.416 56.8002 123.413 56.7981C123.403 56.7908 123.414 56.7995 123.404 56.7922C123.4 56.7894 123.399 56.7881 123.395 56.7854L123.392 56.7834L123.39 56.7815C123.387 56.7786 123.39 56.7815 123.386 56.7786C123.384 56.7774 123.383 56.7758 123.382 56.7747L123.379 56.7737L123.377 56.7717C123.358 56.7577 123.387 56.7787 123.368 56.7649C123.366 56.7632 123.365 56.7636 123.363 56.762C123.361 56.7606 123.36 56.7595 123.358 56.7581C123.35 56.7521 123.362 56.7611 123.354 56.7551C123.346 56.7491 123.357 56.7572 123.349 56.7512L123.332 56.7375C123.318 56.7273 123.336 56.741 123.322 56.7307C123.321 56.7296 123.32 56.7289 123.318 56.7278C123.32 56.729 123.319 56.7293 123.313 56.7249L123.311 56.7229L123.308 56.7209L123.306 56.719L123.305 56.718L123.302 56.7161L123.298 56.7122L123.295 56.7112C123.294 56.7103 123.287 56.7048 123.286 56.7043C123.283 56.7019 123.285 56.7028 123.282 56.7004C123.281 56.7 123.278 56.6982 123.277 56.6975C123.276 56.6966 123.274 56.6945 123.272 56.6936C123.27 56.692 123.27 56.6922 123.268 56.6907C123.263 56.6868 123.264 56.6877 123.259 56.6838C123.248 56.676 123.265 56.6883 123.255 56.6809C123.252 56.6791 123.252 56.6788 123.25 56.677C123.241 56.6702 123.25 56.6767 123.241 56.6702L123.238 56.6682L123.236 56.6672L123.234 56.6653L123.231 56.6633L123.214 56.6497C123.211 56.6476 123.211 56.6487 123.209 56.6467C123.206 56.6445 123.207 56.645 123.204 56.6428C123.202 56.6416 123.202 56.6411 123.2 56.6399C123.198 56.6386 123.197 56.6373 123.195 56.636C123.188 56.6306 123.198 56.6386 123.19 56.6331C123.185 56.6289 123.192 56.6334 123.186 56.6292L123.183 56.6282L123.181 56.6262C123.171 56.6181 123.188 56.6305 123.177 56.6223L123.175 56.6213L123.173 56.6194C123.169 56.6163 123.172 56.6192 123.168 56.6165C123.161 56.6111 123.166 56.6146 123.159 56.6096L123.156 56.6077L123.154 56.6057C123.152 56.604 123.151 56.6045 123.149 56.6028C123.144 56.5991 123.149 56.6025 123.144 56.5989L123.142 56.5969L123.14 56.5959C123.122 56.5822 123.149 56.6029 123.131 56.5891L123.113 56.5754L123.11 56.5735L123.106 56.5696L123.103 56.5686C123.101 56.5668 123.1 56.5651 123.099 56.5647L123.096 56.5627L123.095 56.5618C123.086 56.5553 123.098 56.5644 123.09 56.5579L123.088 56.5559L123.086 56.5549C122.204 55.8979 121.324 55.2369 120.444 54.5754C121.954 48.7632 122.711 45.8563 123.25 44.2395C123.521 43.4251 123.732 42.9561 123.947 42.6145C124.111 42.353 124.282 42.1593 124.502 41.9338Z" fill="#07033A" stroke="#AFFF25" stroke-width="0.54817"/>
<path d="M60.3825 10.4631C67.4966 9.19454 74.0813 9.19437 81.195 10.4622C79.5262 12.1697 77.7848 13.6813 75.8942 15.1243L75.0153 15.7834L75.0085 15.7883C74.6779 16.0465 74.3452 16.3045 74.0046 16.5706C73.0573 17.2655 73.0506 17.2724 71.2936 18.218C70.1333 18.0132 69.0955 17.4833 68.1032 16.8059C67.078 16.1061 66.1316 15.2733 65.1384 14.4875L65.1354 14.4856L64.1852 13.7502H64.1862C62.8432 12.7024 61.5548 11.6624 60.3825 10.4631Z" fill="#07033A" stroke="#AFFF25" stroke-width="0.54817"/>
<path d="M16.6389 41.9045C17.3214 42.3162 17.7185 42.8953 18.0109 43.5872C18.1748 43.975 18.3044 44.3948 18.4338 44.8411C18.5617 45.2823 18.6902 45.7531 18.8478 46.2209V46.2219C19.1123 47.0275 19.1122 47.028 19.382 47.8499L19.384 47.8528C19.5666 48.3854 19.7486 48.9183 19.9367 49.467V49.4661C20.1912 50.2322 20.1915 50.2327 20.4514 51.0149V51.0159C20.6064 51.4813 20.7614 51.9468 20.9211 52.426C21.0579 53.0461 21.1125 53.3075 21.0832 53.6135C21.0533 53.9253 20.9353 54.2873 20.673 55.0745C19.8368 55.8087 19.8215 55.8205 18.6994 56.6077V56.6086L17.4455 57.4915C17.0114 57.7908 16.5773 58.0902 16.1301 58.3987L16.1271 58.4006C15.6947 58.7067 15.2621 59.013 14.8166 59.3284C13.1897 60.4643 12.4028 61.0124 11.8654 61.2834C11.606 61.4142 11.4152 61.475 11.2228 61.5051C11.0899 61.5259 10.9524 61.5309 10.7824 61.5334C10.9371 57.8879 11.7454 54.6375 12.8469 51.135V51.134C13.0507 50.4783 13.0506 50.4771 13.258 49.8098C14.1587 47.0295 15.2862 44.4928 16.6389 41.9045Z" fill="#07033A" stroke="#AFFF25" stroke-width="0.54817"/>
<path d="M40.4395 113.065L41.9913 118.215L42.4971 119.889C42.6293 120.328 42.7614 120.768 42.8975 121.221C43.0324 121.668 43.1667 122.117 43.3057 122.578V122.577C43.5835 123.535 43.8379 124.495 44.0782 125.462C39.1625 123.215 35.1541 120.407 30.9503 116.964L30.9483 116.963L29.6465 115.918C28.8125 115.232 28.0097 114.505 27.2139 113.766V113.065H40.4395Z" fill="#07033A" stroke="#AFFF25" stroke-width="0.54817"/>
<path d="M114.255 113.065C113.793 114.218 112.973 115.354 111.909 116.455C110.735 117.669 109.279 118.829 107.718 119.907C104.619 122.046 101.135 123.849 98.6844 125.125H97.9949C98.8542 121.049 99.9819 117.076 101.149 113.065H114.255Z" fill="#07033A" stroke="#AFFF25" stroke-width="0.54817"/>
</g>
<defs>
<clipPath id="clip0_45_430">
<rect width="141.436" height="141.377" fill="white"/>
</clipPath>
</defs>
</svg>
