<svg width="142" height="142" viewBox="0 0 142 142" fill="none" xmlns="http://www.w3.org/2000/svg">
<g clip-path="url(#clip0_45_453)">
<path d="M52.5233 2.77051C73.5203 -3.26703 97.0384 1.92899 114.1 15.3184V15.3193C125.819 24.8178 133.976 36.8973 138.371 51.3271V51.3281L138.701 52.4043C143.832 70.253 140.631 89.0563 132.032 105.203C123.692 120.185 110.238 130.89 94.2743 136.744H94.2733L94.2626 136.749C93.7644 136.957 93.266 137.165 92.7528 137.379C77.0348 143.761 57.744 141.54 42.3973 135.104C26.3876 127.968 12.5556 114.401 6.12781 98.0156C5.89173 97.3738 5.65699 96.7316 5.42371 96.0889L4.72644 94.1523L4.72156 94.1396L4.09656 92.6367C-2.30031 76.9296 -0.0684317 57.6209 6.36316 42.2803C13.7963 25.6 27.8768 12.0864 44.8163 5.2998L44.8173 5.30078C47.0154 4.51507 49.2191 3.77945 51.451 3.09961H51.452C51.8054 2.99107 52.1584 2.88133 52.5223 2.76953L52.5233 2.77051Z" fill="#AFFF25" stroke="#AFFF25" stroke-width="0.54817"/>
<path d="M115.653 29.3087C126.782 40.8314 132.206 56.3845 132.036 72.3273C131.284 86.4373 126.372 99.7588 117.186 110.512L117.18 110.519C116.908 110.857 116.635 111.195 116.355 111.543C115.961 111.835 115.81 111.942 115.642 111.991C115.473 112.041 115.278 112.037 114.778 112.014C113.386 111.406 112.351 110.594 111.123 109.619L111.116 109.613C105.616 105.517 99.3085 102.646 92.8098 100.562H92.8088C92.2423 100.371 91.6757 100.181 91.092 99.9855L91.0891 99.9845L89.8313 99.5909C83.5607 97.7095 77.5468 97.0596 70.9348 97.089C70.573 97.0902 70.211 97.0907 69.8381 97.0919C64.6395 97.1191 59.7685 97.3513 54.7395 98.6427L53.7307 98.9152C53.1525 99.0782 53.1522 99.0787 52.5618 99.2452H52.5598C43.9472 101.734 33.9357 105.567 27.3958 112.047C26.5542 111.957 25.9472 111.749 25.4172 111.415C24.8561 111.061 24.3644 110.558 23.7649 109.864C13.3798 97.3222 8.68415 81.1541 9.80981 64.9601C11.1889 52.0414 16.0073 40.6978 24.4133 30.8351L24.4182 30.8292C24.6889 30.4925 24.9591 30.155 25.2375 29.8087C25.635 29.5135 25.7886 29.4067 25.9573 29.3566C26.126 29.3065 26.3215 29.3096 26.8225 29.3331C27.8618 29.7874 28.7018 30.3566 29.5725 31.0216L30.4758 31.7286L30.4827 31.7335C45.0962 42.6059 64.4763 46.181 82.2698 43.7101L82.2786 43.7091C93.0108 41.864 103.926 37.435 112.49 30.6437C113.6 29.8652 114.37 29.5315 115.653 29.3087Z" fill="#07033A" stroke="#AFFF25" stroke-width="0.54817"/>
<path d="M44.5027 111.929C63.346 102.588 88.2032 104.31 105.448 116.62L106.263 117.214C106.754 117.623 107.245 118.032 107.748 118.451C107.147 120.109 106.177 120.79 104.75 121.69L104.088 122.107C103.579 122.43 103.577 122.431 103.06 122.759C89.0892 131.335 71.9307 133.846 56.0515 130.075H56.0525C47.8696 127.988 40.3836 124.752 33.8455 119.372C34.5121 117.605 36.213 116.213 38.2449 115.029C39.2882 114.421 40.4037 113.876 41.4851 113.367C42.5606 112.861 43.6089 112.387 44.5017 111.928L44.5027 111.929Z" fill="#07033A" stroke="#AFFF25" stroke-width="0.54817"/>
<path d="M38.6682 18.5192C59.4416 5.99345 88.5645 6.11465 107.746 21.9742C107.108 23.6632 105.503 24.9987 103.59 26.1344C102.606 26.7184 101.555 27.2423 100.538 27.7311C99.5286 28.2162 98.5447 28.6705 97.7092 29.109C83.2237 36.1236 66.9347 36.9816 51.5646 32.4196L50.8332 32.1979C45.3153 30.1256 38.7407 27.2763 34.3439 23.4049V21.4684C35.4184 20.5895 36.414 19.8904 37.6027 19.1744L37.6047 19.1735C37.9559 18.9577 38.3073 18.7424 38.6691 18.5201L38.6682 18.5192Z" fill="#07033A" stroke="#AFFF25" stroke-width="0.54817"/>
</g>
<defs>
<clipPath id="clip0_45_453">
<rect width="141.439" height="141.467" fill="white"/>
</clipPath>
</defs>
</svg>
